M48
; DRILL file {KiCad 8.0.6} date 2024-11-26T19:11:45-0800
; FORMAT={-:-/ absolute / metric / decimal}
; #@! TF.CreationDate,2024-11-26T19:11:45-08:00
; #@! TF.GenerationSoftware,Kicad,Pcbnew,8.0.6
; #@! TF.FileFunction,Plated,1,2,PTH
FMAT,2
METRIC
; #@! TA.AperFunction,Plated,PTH,ViaDrill
T1C0.300
; #@! TA.AperFunction,Plated,PTH,ViaDrill
T2C0.500
; #@! TA.AperFunction,Plated,PTH,ComponentDrill
T3C1.200
%
G90
G05
T1
X51.4Y-70.1
X53.1Y-63.512
X61.95Y-70.15
X64.012Y-72.15
T2
X45.175Y-66.0
X56.05Y-72.5
X58.925Y-65.3
T3
X34.37Y-33.02
X34.37Y-36.52
X34.37Y-40.02
X34.37Y-43.52
X34.37Y-47.02
X34.37Y-50.52
X34.37Y-57.52
X34.37Y-64.77
X34.37Y-68.27
X34.37Y-54.02
X39.37Y-33.02
X39.37Y-36.52
X39.37Y-40.02
X39.37Y-43.52
X39.37Y-47.02
X39.37Y-50.52
X39.37Y-54.02
X39.37Y-57.52
X39.37Y-64.77
X39.37Y-68.27
X44.15Y-75.95
X44.15Y-80.95
X47.65Y-75.95
X47.65Y-80.95
X51.15Y-75.95
X51.15Y-80.95
X58.546Y-75.95
X58.546Y-80.95
X62.046Y-75.95
X62.046Y-80.95
X65.546Y-75.95
X65.546Y-80.95
X68.58Y-33.02
X68.58Y-36.52
X68.58Y-40.02
X68.58Y-43.52
X68.58Y-47.02
X68.58Y-50.52
X68.58Y-54.02
X68.58Y-57.52
X68.58Y-64.77
X68.58Y-68.27
X73.58Y-36.52
X73.58Y-33.02
X73.58Y-40.02
X73.58Y-43.52
X73.58Y-47.02
X73.58Y-50.52
X73.58Y-54.02
X73.58Y-57.52
X73.58Y-64.77
X73.58Y-68.27
M30
