G04 #@! TF.GenerationSoftware,KiCad,Pcbnew,7.0.7*
G04 #@! TF.CreationDate,2024-07-14T01:34:52-07:00*
G04 #@! TF.ProjectId,AnalogBox,416e616c-6f67-4426-9f78-2e6b69636164,rev?*
G04 #@! TF.SameCoordinates,Original*
G04 #@! TF.FileFunction,Legend,Top*
G04 #@! TF.FilePolarity,Positive*
%FSLAX46Y46*%
G04 Gerber Fmt 4.6, Leading zero omitted, Abs format (unit mm)*
G04 Created by KiCad (PCBNEW 7.0.7) date 2024-07-14 01:34:52*
%MOMM*%
%LPD*%
G01*
G04 APERTURE LIST*
%ADD10C,0.150000*%
%ADD11C,0.120000*%
%ADD12C,0.152400*%
%ADD13C,0.508000*%
%ADD14C,0.200000*%
%ADD15C,1.600000*%
%ADD16O,1.600000X1.600000*%
%ADD17C,3.200400*%
%ADD18C,1.397000*%
%ADD19C,3.600000*%
%ADD20C,6.400000*%
%ADD21R,2.025000X2.025000*%
%ADD22C,2.025000*%
%ADD23R,1.800000X1.800000*%
%ADD24C,1.800000*%
G04 APERTURE END LIST*
D10*
X38202652Y-30763717D02*
X38202652Y-30696374D01*
X38202652Y-30696374D02*
X38236323Y-30595358D01*
X38236323Y-30595358D02*
X38404682Y-30427000D01*
X38404682Y-30427000D02*
X38505697Y-30393328D01*
X38505697Y-30393328D02*
X38573041Y-30393328D01*
X38573041Y-30393328D02*
X38674056Y-30427000D01*
X38674056Y-30427000D02*
X38741400Y-30494343D01*
X38741400Y-30494343D02*
X38808743Y-30629030D01*
X38808743Y-30629030D02*
X38808743Y-31437152D01*
X38808743Y-31437152D02*
X39246476Y-30999420D01*
X39381163Y-29921923D02*
X39852567Y-30393328D01*
X38943430Y-29820908D02*
X39280148Y-30494343D01*
X39280148Y-30494343D02*
X39717880Y-30056610D01*
X39953583Y-28878099D02*
X40896392Y-29349503D01*
X40896392Y-29349503D02*
X40424987Y-28406694D01*
X41906545Y-28339351D02*
X41199438Y-27632244D01*
X42243262Y-28002633D02*
X41536155Y-27295527D01*
X41536155Y-27295527D02*
X42647323Y-27598572D01*
X42647323Y-27598572D02*
X41940216Y-26891466D01*
X50331598Y-43269809D02*
X50466285Y-43202465D01*
X50466285Y-43202465D02*
X50634644Y-43034107D01*
X50634644Y-43034107D02*
X50668316Y-42933091D01*
X50668316Y-42933091D02*
X50668316Y-42865748D01*
X50668316Y-42865748D02*
X50634644Y-42764733D01*
X50634644Y-42764733D02*
X50567300Y-42697389D01*
X50567300Y-42697389D02*
X50466285Y-42663717D01*
X50466285Y-42663717D02*
X50398942Y-42663717D01*
X50398942Y-42663717D02*
X50297926Y-42697389D01*
X50297926Y-42697389D02*
X50129568Y-42798404D01*
X50129568Y-42798404D02*
X50028552Y-42832076D01*
X50028552Y-42832076D02*
X49961209Y-42832076D01*
X49961209Y-42832076D02*
X49860194Y-42798404D01*
X49860194Y-42798404D02*
X49792850Y-42731061D01*
X49792850Y-42731061D02*
X49759178Y-42630046D01*
X49759178Y-42630046D02*
X49759178Y-42562702D01*
X49759178Y-42562702D02*
X49792850Y-42461687D01*
X49792850Y-42461687D02*
X49961209Y-42293328D01*
X49961209Y-42293328D02*
X50095896Y-42225984D01*
X50904018Y-41821923D02*
X51375422Y-42293328D01*
X50466285Y-41720908D02*
X50803003Y-42394343D01*
X50803003Y-42394343D02*
X51240735Y-41956610D01*
X60814453Y-43269809D02*
X60949140Y-43202465D01*
X60949140Y-43202465D02*
X61117499Y-43034107D01*
X61117499Y-43034107D02*
X61151171Y-42933091D01*
X61151171Y-42933091D02*
X61151171Y-42865748D01*
X61151171Y-42865748D02*
X61117499Y-42764733D01*
X61117499Y-42764733D02*
X61050155Y-42697389D01*
X61050155Y-42697389D02*
X60949140Y-42663717D01*
X60949140Y-42663717D02*
X60881797Y-42663717D01*
X60881797Y-42663717D02*
X60780781Y-42697389D01*
X60780781Y-42697389D02*
X60612423Y-42798404D01*
X60612423Y-42798404D02*
X60511407Y-42832076D01*
X60511407Y-42832076D02*
X60444064Y-42832076D01*
X60444064Y-42832076D02*
X60343049Y-42798404D01*
X60343049Y-42798404D02*
X60275705Y-42731061D01*
X60275705Y-42731061D02*
X60242033Y-42630046D01*
X60242033Y-42630046D02*
X60242033Y-42562702D01*
X60242033Y-42562702D02*
X60275705Y-42461687D01*
X60275705Y-42461687D02*
X60444064Y-42293328D01*
X60444064Y-42293328D02*
X60578751Y-42225984D01*
X60780781Y-41956610D02*
X61252186Y-41485206D01*
X61252186Y-41485206D02*
X61656247Y-42495358D01*
X52896087Y-31319809D02*
X52188980Y-30612702D01*
X53300148Y-30915748D02*
X52593041Y-30814733D01*
X52593041Y-30208641D02*
X52593041Y-31016763D01*
X53838896Y-30309656D02*
X53805224Y-30410671D01*
X53805224Y-30410671D02*
X53670537Y-30545358D01*
X53670537Y-30545358D02*
X53569522Y-30579030D01*
X53569522Y-30579030D02*
X53468506Y-30545358D01*
X53468506Y-30545358D02*
X53199132Y-30275984D01*
X53199132Y-30275984D02*
X53165461Y-30174969D01*
X53165461Y-30174969D02*
X53199132Y-30073954D01*
X53199132Y-30073954D02*
X53333819Y-29939267D01*
X53333819Y-29939267D02*
X53434835Y-29905595D01*
X53434835Y-29905595D02*
X53535850Y-29939267D01*
X53535850Y-29939267D02*
X53603193Y-30006610D01*
X53603193Y-30006610D02*
X53333819Y-30410671D01*
X53670537Y-29602549D02*
X54310300Y-29905595D01*
X54007254Y-29265832D02*
X54310300Y-29905595D01*
X54310300Y-29905595D02*
X54411315Y-30141297D01*
X54411315Y-30141297D02*
X54411315Y-30208641D01*
X54411315Y-30208641D02*
X54377644Y-30309656D01*
X55286781Y-28929114D02*
X54579675Y-28222007D01*
X55152094Y-28120992D02*
X55623499Y-28592397D01*
X55219438Y-28188336D02*
X55219438Y-28120992D01*
X55219438Y-28120992D02*
X55253109Y-28019977D01*
X55253109Y-28019977D02*
X55354125Y-27918962D01*
X55354125Y-27918962D02*
X55455140Y-27885290D01*
X55455140Y-27885290D02*
X55556155Y-27918962D01*
X55556155Y-27918962D02*
X55926544Y-28289351D01*
X98063041Y-29939266D02*
X97962026Y-29972938D01*
X97962026Y-29972938D02*
X97861010Y-30073953D01*
X97861010Y-30073953D02*
X97793667Y-30208640D01*
X97793667Y-30208640D02*
X97793667Y-30343328D01*
X97793667Y-30343328D02*
X97827339Y-30444343D01*
X97827339Y-30444343D02*
X97928354Y-30612702D01*
X97928354Y-30612702D02*
X98029369Y-30713717D01*
X98029369Y-30713717D02*
X98197728Y-30814732D01*
X98197728Y-30814732D02*
X98298743Y-30848404D01*
X98298743Y-30848404D02*
X98433430Y-30848404D01*
X98433430Y-30848404D02*
X98568117Y-30781060D01*
X98568117Y-30781060D02*
X98635461Y-30713717D01*
X98635461Y-30713717D02*
X98702804Y-30579030D01*
X98702804Y-30579030D02*
X98702804Y-30511686D01*
X98702804Y-30511686D02*
X98467102Y-30275984D01*
X98467102Y-30275984D02*
X98332415Y-30410671D01*
X99073193Y-30275984D02*
X98366087Y-29568877D01*
X98366087Y-29568877D02*
X99477254Y-29871923D01*
X99477254Y-29871923D02*
X98770148Y-29164816D01*
X99813972Y-29535206D02*
X99106865Y-28828099D01*
X99106865Y-28828099D02*
X99275224Y-28659740D01*
X99275224Y-28659740D02*
X99409911Y-28592396D01*
X99409911Y-28592396D02*
X99544598Y-28592396D01*
X99544598Y-28592396D02*
X99645613Y-28626068D01*
X99645613Y-28626068D02*
X99813972Y-28727083D01*
X99813972Y-28727083D02*
X99914987Y-28828099D01*
X99914987Y-28828099D02*
X100016002Y-28996457D01*
X100016002Y-28996457D02*
X100049674Y-29097473D01*
X100049674Y-29097473D02*
X100049674Y-29232160D01*
X100049674Y-29232160D02*
X99982331Y-29366847D01*
X99982331Y-29366847D02*
X99813972Y-29535206D01*
X39848743Y-43269809D02*
X39983430Y-43202465D01*
X39983430Y-43202465D02*
X40151789Y-43034107D01*
X40151789Y-43034107D02*
X40185461Y-42933091D01*
X40185461Y-42933091D02*
X40185461Y-42865748D01*
X40185461Y-42865748D02*
X40151789Y-42764733D01*
X40151789Y-42764733D02*
X40084445Y-42697389D01*
X40084445Y-42697389D02*
X39983430Y-42663717D01*
X39983430Y-42663717D02*
X39916087Y-42663717D01*
X39916087Y-42663717D02*
X39815071Y-42697389D01*
X39815071Y-42697389D02*
X39646713Y-42798404D01*
X39646713Y-42798404D02*
X39545697Y-42832076D01*
X39545697Y-42832076D02*
X39478354Y-42832076D01*
X39478354Y-42832076D02*
X39377339Y-42798404D01*
X39377339Y-42798404D02*
X39309995Y-42731061D01*
X39309995Y-42731061D02*
X39276323Y-42630046D01*
X39276323Y-42630046D02*
X39276323Y-42562702D01*
X39276323Y-42562702D02*
X39309995Y-42461687D01*
X39309995Y-42461687D02*
X39478354Y-42293328D01*
X39478354Y-42293328D02*
X39613041Y-42225984D01*
X40959911Y-42225984D02*
X40555850Y-42630045D01*
X40757880Y-42428015D02*
X40050774Y-41720908D01*
X40050774Y-41720908D02*
X40084445Y-41889267D01*
X40084445Y-41889267D02*
X40084445Y-42023954D01*
X40084445Y-42023954D02*
X40050774Y-42124969D01*
X64308743Y-43269809D02*
X64443430Y-43202465D01*
X64443430Y-43202465D02*
X64611789Y-43034107D01*
X64611789Y-43034107D02*
X64645461Y-42933091D01*
X64645461Y-42933091D02*
X64645461Y-42865748D01*
X64645461Y-42865748D02*
X64611789Y-42764733D01*
X64611789Y-42764733D02*
X64544445Y-42697389D01*
X64544445Y-42697389D02*
X64443430Y-42663717D01*
X64443430Y-42663717D02*
X64376087Y-42663717D01*
X64376087Y-42663717D02*
X64275071Y-42697389D01*
X64275071Y-42697389D02*
X64106713Y-42798404D01*
X64106713Y-42798404D02*
X64005697Y-42832076D01*
X64005697Y-42832076D02*
X63938354Y-42832076D01*
X63938354Y-42832076D02*
X63837339Y-42798404D01*
X63837339Y-42798404D02*
X63769995Y-42731061D01*
X63769995Y-42731061D02*
X63736323Y-42630046D01*
X63736323Y-42630046D02*
X63736323Y-42562702D01*
X63736323Y-42562702D02*
X63769995Y-42461687D01*
X63769995Y-42461687D02*
X63938354Y-42293328D01*
X63938354Y-42293328D02*
X64073041Y-42225984D01*
X64746476Y-42091297D02*
X64645461Y-42124969D01*
X64645461Y-42124969D02*
X64578117Y-42124969D01*
X64578117Y-42124969D02*
X64477102Y-42091297D01*
X64477102Y-42091297D02*
X64443430Y-42057626D01*
X64443430Y-42057626D02*
X64409758Y-41956610D01*
X64409758Y-41956610D02*
X64409758Y-41889267D01*
X64409758Y-41889267D02*
X64443430Y-41788252D01*
X64443430Y-41788252D02*
X64578117Y-41653565D01*
X64578117Y-41653565D02*
X64679132Y-41619893D01*
X64679132Y-41619893D02*
X64746476Y-41619893D01*
X64746476Y-41619893D02*
X64847491Y-41653565D01*
X64847491Y-41653565D02*
X64881163Y-41687236D01*
X64881163Y-41687236D02*
X64914835Y-41788252D01*
X64914835Y-41788252D02*
X64914835Y-41855595D01*
X64914835Y-41855595D02*
X64881163Y-41956610D01*
X64881163Y-41956610D02*
X64746476Y-42091297D01*
X64746476Y-42091297D02*
X64712804Y-42192313D01*
X64712804Y-42192313D02*
X64712804Y-42259656D01*
X64712804Y-42259656D02*
X64746476Y-42360671D01*
X64746476Y-42360671D02*
X64881163Y-42495358D01*
X64881163Y-42495358D02*
X64982178Y-42529030D01*
X64982178Y-42529030D02*
X65049522Y-42529030D01*
X65049522Y-42529030D02*
X65150537Y-42495358D01*
X65150537Y-42495358D02*
X65285224Y-42360671D01*
X65285224Y-42360671D02*
X65318896Y-42259656D01*
X65318896Y-42259656D02*
X65318896Y-42192313D01*
X65318896Y-42192313D02*
X65285224Y-42091297D01*
X65285224Y-42091297D02*
X65150537Y-41956610D01*
X65150537Y-41956610D02*
X65049522Y-41922939D01*
X65049522Y-41922939D02*
X64982178Y-41922939D01*
X64982178Y-41922939D02*
X64881163Y-41956610D01*
X46837313Y-43269809D02*
X46972000Y-43202465D01*
X46972000Y-43202465D02*
X47140359Y-43034107D01*
X47140359Y-43034107D02*
X47174031Y-42933091D01*
X47174031Y-42933091D02*
X47174031Y-42865748D01*
X47174031Y-42865748D02*
X47140359Y-42764733D01*
X47140359Y-42764733D02*
X47073015Y-42697389D01*
X47073015Y-42697389D02*
X46972000Y-42663717D01*
X46972000Y-42663717D02*
X46904657Y-42663717D01*
X46904657Y-42663717D02*
X46803641Y-42697389D01*
X46803641Y-42697389D02*
X46635283Y-42798404D01*
X46635283Y-42798404D02*
X46534267Y-42832076D01*
X46534267Y-42832076D02*
X46466924Y-42832076D01*
X46466924Y-42832076D02*
X46365909Y-42798404D01*
X46365909Y-42798404D02*
X46298565Y-42731061D01*
X46298565Y-42731061D02*
X46264893Y-42630046D01*
X46264893Y-42630046D02*
X46264893Y-42562702D01*
X46264893Y-42562702D02*
X46298565Y-42461687D01*
X46298565Y-42461687D02*
X46466924Y-42293328D01*
X46466924Y-42293328D02*
X46601611Y-42225984D01*
X46803641Y-41956610D02*
X47241374Y-41518878D01*
X47241374Y-41518878D02*
X47275046Y-42023954D01*
X47275046Y-42023954D02*
X47376061Y-41922939D01*
X47376061Y-41922939D02*
X47477076Y-41889267D01*
X47477076Y-41889267D02*
X47544420Y-41889267D01*
X47544420Y-41889267D02*
X47645435Y-41922939D01*
X47645435Y-41922939D02*
X47813794Y-42091297D01*
X47813794Y-42091297D02*
X47847466Y-42192313D01*
X47847466Y-42192313D02*
X47847466Y-42259656D01*
X47847466Y-42259656D02*
X47813794Y-42360671D01*
X47813794Y-42360671D02*
X47611763Y-42562702D01*
X47611763Y-42562702D02*
X47510748Y-42596374D01*
X47510748Y-42596374D02*
X47443405Y-42596374D01*
X56386087Y-31349809D02*
X55678980Y-30642702D01*
X56790148Y-30945748D02*
X56083041Y-30844733D01*
X56083041Y-30238641D02*
X56083041Y-31046763D01*
X57328896Y-30339656D02*
X57295224Y-30440671D01*
X57295224Y-30440671D02*
X57160537Y-30575358D01*
X57160537Y-30575358D02*
X57059522Y-30609030D01*
X57059522Y-30609030D02*
X56958506Y-30575358D01*
X56958506Y-30575358D02*
X56689132Y-30305984D01*
X56689132Y-30305984D02*
X56655461Y-30204969D01*
X56655461Y-30204969D02*
X56689132Y-30103954D01*
X56689132Y-30103954D02*
X56823819Y-29969267D01*
X56823819Y-29969267D02*
X56924835Y-29935595D01*
X56924835Y-29935595D02*
X57025850Y-29969267D01*
X57025850Y-29969267D02*
X57093193Y-30036610D01*
X57093193Y-30036610D02*
X56823819Y-30440671D01*
X57160537Y-29632549D02*
X57800300Y-29935595D01*
X57497254Y-29295832D02*
X57800300Y-29935595D01*
X57800300Y-29935595D02*
X57901315Y-30171297D01*
X57901315Y-30171297D02*
X57901315Y-30238641D01*
X57901315Y-30238641D02*
X57867644Y-30339656D01*
X58204362Y-28117320D02*
X58339049Y-27982633D01*
X58339049Y-27982633D02*
X58440064Y-27948961D01*
X58440064Y-27948961D02*
X58574751Y-27948961D01*
X58574751Y-27948961D02*
X58743110Y-28049977D01*
X58743110Y-28049977D02*
X58978812Y-28285679D01*
X58978812Y-28285679D02*
X59079827Y-28454038D01*
X59079827Y-28454038D02*
X59079827Y-28588725D01*
X59079827Y-28588725D02*
X59046155Y-28689740D01*
X59046155Y-28689740D02*
X58911468Y-28824427D01*
X58911468Y-28824427D02*
X58810453Y-28858099D01*
X58810453Y-28858099D02*
X58675766Y-28858099D01*
X58675766Y-28858099D02*
X58507407Y-28757083D01*
X58507407Y-28757083D02*
X58271705Y-28521381D01*
X58271705Y-28521381D02*
X58170690Y-28353022D01*
X58170690Y-28353022D02*
X58170690Y-28218335D01*
X58170690Y-28218335D02*
X58204362Y-28117320D01*
X59349201Y-27443885D02*
X59820606Y-27915290D01*
X59046155Y-27746931D02*
X59416545Y-28117320D01*
X59416545Y-28117320D02*
X59517560Y-28150992D01*
X59517560Y-28150992D02*
X59618575Y-28117320D01*
X59618575Y-28117320D02*
X59719590Y-28016305D01*
X59719590Y-28016305D02*
X59753262Y-27915290D01*
X59753262Y-27915290D02*
X59753262Y-27847946D01*
X59584903Y-27208183D02*
X59854277Y-26938809D01*
X59450216Y-26871465D02*
X60056308Y-27477557D01*
X60056308Y-27477557D02*
X60157323Y-27511229D01*
X60157323Y-27511229D02*
X60258338Y-27477557D01*
X60258338Y-27477557D02*
X60325682Y-27410213D01*
X84128743Y-43249809D02*
X84263430Y-43182465D01*
X84263430Y-43182465D02*
X84431789Y-43014107D01*
X84431789Y-43014107D02*
X84465461Y-42913091D01*
X84465461Y-42913091D02*
X84465461Y-42845748D01*
X84465461Y-42845748D02*
X84431789Y-42744733D01*
X84431789Y-42744733D02*
X84364445Y-42677389D01*
X84364445Y-42677389D02*
X84263430Y-42643717D01*
X84263430Y-42643717D02*
X84196087Y-42643717D01*
X84196087Y-42643717D02*
X84095071Y-42677389D01*
X84095071Y-42677389D02*
X83926713Y-42778404D01*
X83926713Y-42778404D02*
X83825697Y-42812076D01*
X83825697Y-42812076D02*
X83758354Y-42812076D01*
X83758354Y-42812076D02*
X83657339Y-42778404D01*
X83657339Y-42778404D02*
X83589995Y-42711061D01*
X83589995Y-42711061D02*
X83556323Y-42610046D01*
X83556323Y-42610046D02*
X83556323Y-42542702D01*
X83556323Y-42542702D02*
X83589995Y-42441687D01*
X83589995Y-42441687D02*
X83758354Y-42273328D01*
X83758354Y-42273328D02*
X83893041Y-42205984D01*
X85239911Y-42205984D02*
X84835850Y-42610045D01*
X85037880Y-42408015D02*
X84330774Y-41700908D01*
X84330774Y-41700908D02*
X84364445Y-41869267D01*
X84364445Y-41869267D02*
X84364445Y-42003954D01*
X84364445Y-42003954D02*
X84330774Y-42104969D01*
X84768506Y-41263175D02*
X85206239Y-40825443D01*
X85206239Y-40825443D02*
X85239911Y-41330519D01*
X85239911Y-41330519D02*
X85340926Y-41229504D01*
X85340926Y-41229504D02*
X85441941Y-41195832D01*
X85441941Y-41195832D02*
X85509285Y-41195832D01*
X85509285Y-41195832D02*
X85610300Y-41229504D01*
X85610300Y-41229504D02*
X85778659Y-41397862D01*
X85778659Y-41397862D02*
X85812331Y-41498878D01*
X85812331Y-41498878D02*
X85812331Y-41566221D01*
X85812331Y-41566221D02*
X85778659Y-41667236D01*
X85778659Y-41667236D02*
X85576628Y-41869267D01*
X85576628Y-41869267D02*
X85475613Y-41902939D01*
X85475613Y-41902939D02*
X85408270Y-41902939D01*
X53825883Y-43269809D02*
X53960570Y-43202465D01*
X53960570Y-43202465D02*
X54128929Y-43034107D01*
X54128929Y-43034107D02*
X54162601Y-42933091D01*
X54162601Y-42933091D02*
X54162601Y-42865748D01*
X54162601Y-42865748D02*
X54128929Y-42764733D01*
X54128929Y-42764733D02*
X54061585Y-42697389D01*
X54061585Y-42697389D02*
X53960570Y-42663717D01*
X53960570Y-42663717D02*
X53893227Y-42663717D01*
X53893227Y-42663717D02*
X53792211Y-42697389D01*
X53792211Y-42697389D02*
X53623853Y-42798404D01*
X53623853Y-42798404D02*
X53522837Y-42832076D01*
X53522837Y-42832076D02*
X53455494Y-42832076D01*
X53455494Y-42832076D02*
X53354479Y-42798404D01*
X53354479Y-42798404D02*
X53287135Y-42731061D01*
X53287135Y-42731061D02*
X53253463Y-42630046D01*
X53253463Y-42630046D02*
X53253463Y-42562702D01*
X53253463Y-42562702D02*
X53287135Y-42461687D01*
X53287135Y-42461687D02*
X53455494Y-42293328D01*
X53455494Y-42293328D02*
X53590181Y-42225984D01*
X54196272Y-41552549D02*
X53859555Y-41889267D01*
X53859555Y-41889267D02*
X54162601Y-42259656D01*
X54162601Y-42259656D02*
X54162601Y-42192313D01*
X54162601Y-42192313D02*
X54196272Y-42091297D01*
X54196272Y-42091297D02*
X54364631Y-41922939D01*
X54364631Y-41922939D02*
X54465646Y-41889267D01*
X54465646Y-41889267D02*
X54532990Y-41889267D01*
X54532990Y-41889267D02*
X54634005Y-41922939D01*
X54634005Y-41922939D02*
X54802364Y-42091297D01*
X54802364Y-42091297D02*
X54836036Y-42192313D01*
X54836036Y-42192313D02*
X54836036Y-42259656D01*
X54836036Y-42259656D02*
X54802364Y-42360671D01*
X54802364Y-42360671D02*
X54634005Y-42529030D01*
X54634005Y-42529030D02*
X54532990Y-42562702D01*
X54532990Y-42562702D02*
X54465646Y-42562702D01*
X73638743Y-43269809D02*
X73773430Y-43202465D01*
X73773430Y-43202465D02*
X73941789Y-43034107D01*
X73941789Y-43034107D02*
X73975461Y-42933091D01*
X73975461Y-42933091D02*
X73975461Y-42865748D01*
X73975461Y-42865748D02*
X73941789Y-42764733D01*
X73941789Y-42764733D02*
X73874445Y-42697389D01*
X73874445Y-42697389D02*
X73773430Y-42663717D01*
X73773430Y-42663717D02*
X73706087Y-42663717D01*
X73706087Y-42663717D02*
X73605071Y-42697389D01*
X73605071Y-42697389D02*
X73436713Y-42798404D01*
X73436713Y-42798404D02*
X73335697Y-42832076D01*
X73335697Y-42832076D02*
X73268354Y-42832076D01*
X73268354Y-42832076D02*
X73167339Y-42798404D01*
X73167339Y-42798404D02*
X73099995Y-42731061D01*
X73099995Y-42731061D02*
X73066323Y-42630046D01*
X73066323Y-42630046D02*
X73066323Y-42562702D01*
X73066323Y-42562702D02*
X73099995Y-42461687D01*
X73099995Y-42461687D02*
X73268354Y-42293328D01*
X73268354Y-42293328D02*
X73403041Y-42225984D01*
X74749911Y-42225984D02*
X74345850Y-42630045D01*
X74547880Y-42428015D02*
X73840774Y-41720908D01*
X73840774Y-41720908D02*
X73874445Y-41889267D01*
X73874445Y-41889267D02*
X73874445Y-42023954D01*
X73874445Y-42023954D02*
X73840774Y-42124969D01*
X74480537Y-41081145D02*
X74547880Y-41013801D01*
X74547880Y-41013801D02*
X74648896Y-40980130D01*
X74648896Y-40980130D02*
X74716239Y-40980130D01*
X74716239Y-40980130D02*
X74817254Y-41013801D01*
X74817254Y-41013801D02*
X74985613Y-41114817D01*
X74985613Y-41114817D02*
X75153972Y-41283175D01*
X75153972Y-41283175D02*
X75254987Y-41451534D01*
X75254987Y-41451534D02*
X75288659Y-41552549D01*
X75288659Y-41552549D02*
X75288659Y-41619893D01*
X75288659Y-41619893D02*
X75254987Y-41720908D01*
X75254987Y-41720908D02*
X75187644Y-41788252D01*
X75187644Y-41788252D02*
X75086628Y-41821923D01*
X75086628Y-41821923D02*
X75019285Y-41821923D01*
X75019285Y-41821923D02*
X74918270Y-41788252D01*
X74918270Y-41788252D02*
X74749911Y-41687236D01*
X74749911Y-41687236D02*
X74581552Y-41518878D01*
X74581552Y-41518878D02*
X74480537Y-41350519D01*
X74480537Y-41350519D02*
X74446865Y-41249504D01*
X74446865Y-41249504D02*
X74446865Y-41182160D01*
X74446865Y-41182160D02*
X74480537Y-41081145D01*
X87568743Y-43249809D02*
X87703430Y-43182465D01*
X87703430Y-43182465D02*
X87871789Y-43014107D01*
X87871789Y-43014107D02*
X87905461Y-42913091D01*
X87905461Y-42913091D02*
X87905461Y-42845748D01*
X87905461Y-42845748D02*
X87871789Y-42744733D01*
X87871789Y-42744733D02*
X87804445Y-42677389D01*
X87804445Y-42677389D02*
X87703430Y-42643717D01*
X87703430Y-42643717D02*
X87636087Y-42643717D01*
X87636087Y-42643717D02*
X87535071Y-42677389D01*
X87535071Y-42677389D02*
X87366713Y-42778404D01*
X87366713Y-42778404D02*
X87265697Y-42812076D01*
X87265697Y-42812076D02*
X87198354Y-42812076D01*
X87198354Y-42812076D02*
X87097339Y-42778404D01*
X87097339Y-42778404D02*
X87029995Y-42711061D01*
X87029995Y-42711061D02*
X86996323Y-42610046D01*
X86996323Y-42610046D02*
X86996323Y-42542702D01*
X86996323Y-42542702D02*
X87029995Y-42441687D01*
X87029995Y-42441687D02*
X87198354Y-42273328D01*
X87198354Y-42273328D02*
X87333041Y-42205984D01*
X88679911Y-42205984D02*
X88275850Y-42610045D01*
X88477880Y-42408015D02*
X87770774Y-41700908D01*
X87770774Y-41700908D02*
X87804445Y-41869267D01*
X87804445Y-41869267D02*
X87804445Y-42003954D01*
X87804445Y-42003954D02*
X87770774Y-42104969D01*
X88814598Y-41128488D02*
X89286002Y-41599893D01*
X88376865Y-41027473D02*
X88713583Y-41700908D01*
X88713583Y-41700908D02*
X89151315Y-41263175D01*
X68986708Y-31210435D02*
X69525456Y-30671687D01*
X69525456Y-31210435D02*
X68986708Y-30671687D01*
X69458112Y-29998252D02*
X69458112Y-29930908D01*
X69458112Y-29930908D02*
X69491784Y-29829893D01*
X69491784Y-29829893D02*
X69660142Y-29661534D01*
X69660142Y-29661534D02*
X69761158Y-29627863D01*
X69761158Y-29627863D02*
X69828501Y-29627863D01*
X69828501Y-29627863D02*
X69929516Y-29661534D01*
X69929516Y-29661534D02*
X69996860Y-29728878D01*
X69996860Y-29728878D02*
X70064203Y-29863565D01*
X70064203Y-29863565D02*
X70064203Y-30671687D01*
X70064203Y-30671687D02*
X70501936Y-30233954D01*
X70636623Y-29156458D02*
X71108028Y-29627863D01*
X70198890Y-29055443D02*
X70535608Y-29728878D01*
X70535608Y-29728878D02*
X70973341Y-29291145D01*
X70670295Y-28651382D02*
X71613104Y-29122786D01*
X71613104Y-29122786D02*
X71141700Y-28179977D01*
X42830148Y-30945748D02*
X42257728Y-30844733D01*
X42426087Y-31349809D02*
X41718980Y-30642702D01*
X41718980Y-30642702D02*
X41988354Y-30373328D01*
X41988354Y-30373328D02*
X42089369Y-30339656D01*
X42089369Y-30339656D02*
X42156713Y-30339656D01*
X42156713Y-30339656D02*
X42257728Y-30373328D01*
X42257728Y-30373328D02*
X42358743Y-30474343D01*
X42358743Y-30474343D02*
X42392415Y-30575358D01*
X42392415Y-30575358D02*
X42392415Y-30642702D01*
X42392415Y-30642702D02*
X42358743Y-30743717D01*
X42358743Y-30743717D02*
X42089369Y-31013091D01*
X44008659Y-29767236D02*
X43671942Y-30103954D01*
X43671942Y-30103954D02*
X42964835Y-29396847D01*
X43873972Y-29161145D02*
X44109674Y-28925442D01*
X44581079Y-29194816D02*
X44244361Y-29531534D01*
X44244361Y-29531534D02*
X43537255Y-28824427D01*
X43537255Y-28824427D02*
X43873972Y-28487710D01*
X44884125Y-28891771D02*
X44177018Y-28184664D01*
X44177018Y-28184664D02*
X44345377Y-28016305D01*
X44345377Y-28016305D02*
X44480064Y-27948962D01*
X44480064Y-27948962D02*
X44614751Y-27948962D01*
X44614751Y-27948962D02*
X44715766Y-27982633D01*
X44715766Y-27982633D02*
X44884125Y-28083649D01*
X44884125Y-28083649D02*
X44985140Y-28184664D01*
X44985140Y-28184664D02*
X45086155Y-28353023D01*
X45086155Y-28353023D02*
X45119827Y-28454038D01*
X45119827Y-28454038D02*
X45119827Y-28588725D01*
X45119827Y-28588725D02*
X45052484Y-28723412D01*
X45052484Y-28723412D02*
X44884125Y-28891771D01*
X80728743Y-43289809D02*
X80863430Y-43222465D01*
X80863430Y-43222465D02*
X81031789Y-43054107D01*
X81031789Y-43054107D02*
X81065461Y-42953091D01*
X81065461Y-42953091D02*
X81065461Y-42885748D01*
X81065461Y-42885748D02*
X81031789Y-42784733D01*
X81031789Y-42784733D02*
X80964445Y-42717389D01*
X80964445Y-42717389D02*
X80863430Y-42683717D01*
X80863430Y-42683717D02*
X80796087Y-42683717D01*
X80796087Y-42683717D02*
X80695071Y-42717389D01*
X80695071Y-42717389D02*
X80526713Y-42818404D01*
X80526713Y-42818404D02*
X80425697Y-42852076D01*
X80425697Y-42852076D02*
X80358354Y-42852076D01*
X80358354Y-42852076D02*
X80257339Y-42818404D01*
X80257339Y-42818404D02*
X80189995Y-42751061D01*
X80189995Y-42751061D02*
X80156323Y-42650046D01*
X80156323Y-42650046D02*
X80156323Y-42582702D01*
X80156323Y-42582702D02*
X80189995Y-42481687D01*
X80189995Y-42481687D02*
X80358354Y-42313328D01*
X80358354Y-42313328D02*
X80493041Y-42245984D01*
X81839911Y-42245984D02*
X81435850Y-42650045D01*
X81637880Y-42448015D02*
X80930774Y-41740908D01*
X80930774Y-41740908D02*
X80964445Y-41909267D01*
X80964445Y-41909267D02*
X80964445Y-42043954D01*
X80964445Y-42043954D02*
X80930774Y-42144969D01*
X81469522Y-41336847D02*
X81469522Y-41269504D01*
X81469522Y-41269504D02*
X81503193Y-41168488D01*
X81503193Y-41168488D02*
X81671552Y-41000130D01*
X81671552Y-41000130D02*
X81772567Y-40966458D01*
X81772567Y-40966458D02*
X81839911Y-40966458D01*
X81839911Y-40966458D02*
X81940926Y-41000130D01*
X81940926Y-41000130D02*
X82008270Y-41067473D01*
X82008270Y-41067473D02*
X82075613Y-41202160D01*
X82075613Y-41202160D02*
X82075613Y-42010282D01*
X82075613Y-42010282D02*
X82513346Y-41572549D01*
X57320168Y-43269809D02*
X57454855Y-43202465D01*
X57454855Y-43202465D02*
X57623214Y-43034107D01*
X57623214Y-43034107D02*
X57656886Y-42933091D01*
X57656886Y-42933091D02*
X57656886Y-42865748D01*
X57656886Y-42865748D02*
X57623214Y-42764733D01*
X57623214Y-42764733D02*
X57555870Y-42697389D01*
X57555870Y-42697389D02*
X57454855Y-42663717D01*
X57454855Y-42663717D02*
X57387512Y-42663717D01*
X57387512Y-42663717D02*
X57286496Y-42697389D01*
X57286496Y-42697389D02*
X57118138Y-42798404D01*
X57118138Y-42798404D02*
X57017122Y-42832076D01*
X57017122Y-42832076D02*
X56949779Y-42832076D01*
X56949779Y-42832076D02*
X56848764Y-42798404D01*
X56848764Y-42798404D02*
X56781420Y-42731061D01*
X56781420Y-42731061D02*
X56747748Y-42630046D01*
X56747748Y-42630046D02*
X56747748Y-42562702D01*
X56747748Y-42562702D02*
X56781420Y-42461687D01*
X56781420Y-42461687D02*
X56949779Y-42293328D01*
X56949779Y-42293328D02*
X57084466Y-42225984D01*
X57656886Y-41586221D02*
X57522199Y-41720908D01*
X57522199Y-41720908D02*
X57488527Y-41821923D01*
X57488527Y-41821923D02*
X57488527Y-41889267D01*
X57488527Y-41889267D02*
X57522199Y-42057626D01*
X57522199Y-42057626D02*
X57623214Y-42225984D01*
X57623214Y-42225984D02*
X57892588Y-42495358D01*
X57892588Y-42495358D02*
X57993603Y-42529030D01*
X57993603Y-42529030D02*
X58060947Y-42529030D01*
X58060947Y-42529030D02*
X58161962Y-42495358D01*
X58161962Y-42495358D02*
X58296649Y-42360671D01*
X58296649Y-42360671D02*
X58330321Y-42259656D01*
X58330321Y-42259656D02*
X58330321Y-42192313D01*
X58330321Y-42192313D02*
X58296649Y-42091297D01*
X58296649Y-42091297D02*
X58128290Y-41922939D01*
X58128290Y-41922939D02*
X58027275Y-41889267D01*
X58027275Y-41889267D02*
X57959931Y-41889267D01*
X57959931Y-41889267D02*
X57858916Y-41922939D01*
X57858916Y-41922939D02*
X57724229Y-42057626D01*
X57724229Y-42057626D02*
X57690557Y-42158641D01*
X57690557Y-42158641D02*
X57690557Y-42225984D01*
X57690557Y-42225984D02*
X57724229Y-42327000D01*
X91218743Y-43269809D02*
X91353430Y-43202465D01*
X91353430Y-43202465D02*
X91521789Y-43034107D01*
X91521789Y-43034107D02*
X91555461Y-42933091D01*
X91555461Y-42933091D02*
X91555461Y-42865748D01*
X91555461Y-42865748D02*
X91521789Y-42764733D01*
X91521789Y-42764733D02*
X91454445Y-42697389D01*
X91454445Y-42697389D02*
X91353430Y-42663717D01*
X91353430Y-42663717D02*
X91286087Y-42663717D01*
X91286087Y-42663717D02*
X91185071Y-42697389D01*
X91185071Y-42697389D02*
X91016713Y-42798404D01*
X91016713Y-42798404D02*
X90915697Y-42832076D01*
X90915697Y-42832076D02*
X90848354Y-42832076D01*
X90848354Y-42832076D02*
X90747339Y-42798404D01*
X90747339Y-42798404D02*
X90679995Y-42731061D01*
X90679995Y-42731061D02*
X90646323Y-42630046D01*
X90646323Y-42630046D02*
X90646323Y-42562702D01*
X90646323Y-42562702D02*
X90679995Y-42461687D01*
X90679995Y-42461687D02*
X90848354Y-42293328D01*
X90848354Y-42293328D02*
X90983041Y-42225984D01*
X92329911Y-42225984D02*
X91925850Y-42630045D01*
X92127880Y-42428015D02*
X91420774Y-41720908D01*
X91420774Y-41720908D02*
X91454445Y-41889267D01*
X91454445Y-41889267D02*
X91454445Y-42023954D01*
X91454445Y-42023954D02*
X91420774Y-42124969D01*
X92262567Y-40879114D02*
X91925850Y-41215832D01*
X91925850Y-41215832D02*
X92228896Y-41586221D01*
X92228896Y-41586221D02*
X92228896Y-41518878D01*
X92228896Y-41518878D02*
X92262567Y-41417862D01*
X92262567Y-41417862D02*
X92430926Y-41249504D01*
X92430926Y-41249504D02*
X92531941Y-41215832D01*
X92531941Y-41215832D02*
X92599285Y-41215832D01*
X92599285Y-41215832D02*
X92700300Y-41249504D01*
X92700300Y-41249504D02*
X92868659Y-41417862D01*
X92868659Y-41417862D02*
X92902331Y-41518878D01*
X92902331Y-41518878D02*
X92902331Y-41586221D01*
X92902331Y-41586221D02*
X92868659Y-41687236D01*
X92868659Y-41687236D02*
X92700300Y-41855595D01*
X92700300Y-41855595D02*
X92599285Y-41889267D01*
X92599285Y-41889267D02*
X92531941Y-41889267D01*
X82603041Y-30099266D02*
X82502026Y-30132938D01*
X82502026Y-30132938D02*
X82401010Y-30233953D01*
X82401010Y-30233953D02*
X82333667Y-30368640D01*
X82333667Y-30368640D02*
X82333667Y-30503328D01*
X82333667Y-30503328D02*
X82367339Y-30604343D01*
X82367339Y-30604343D02*
X82468354Y-30772702D01*
X82468354Y-30772702D02*
X82569369Y-30873717D01*
X82569369Y-30873717D02*
X82737728Y-30974732D01*
X82737728Y-30974732D02*
X82838743Y-31008404D01*
X82838743Y-31008404D02*
X82973430Y-31008404D01*
X82973430Y-31008404D02*
X83108117Y-30941060D01*
X83108117Y-30941060D02*
X83175461Y-30873717D01*
X83175461Y-30873717D02*
X83242804Y-30739030D01*
X83242804Y-30739030D02*
X83242804Y-30671686D01*
X83242804Y-30671686D02*
X83007102Y-30435984D01*
X83007102Y-30435984D02*
X82872415Y-30570671D01*
X83613193Y-30435984D02*
X82906087Y-29728877D01*
X82906087Y-29728877D02*
X84017254Y-30031923D01*
X84017254Y-30031923D02*
X83310148Y-29324816D01*
X84353972Y-29695206D02*
X83646865Y-28988099D01*
X83646865Y-28988099D02*
X83815224Y-28819740D01*
X83815224Y-28819740D02*
X83949911Y-28752396D01*
X83949911Y-28752396D02*
X84084598Y-28752396D01*
X84084598Y-28752396D02*
X84185613Y-28786068D01*
X84185613Y-28786068D02*
X84353972Y-28887083D01*
X84353972Y-28887083D02*
X84454987Y-28988099D01*
X84454987Y-28988099D02*
X84556002Y-29156457D01*
X84556002Y-29156457D02*
X84589674Y-29257473D01*
X84589674Y-29257473D02*
X84589674Y-29392160D01*
X84589674Y-29392160D02*
X84522331Y-29526847D01*
X84522331Y-29526847D02*
X84353972Y-29695206D01*
X43343028Y-43269809D02*
X43477715Y-43202465D01*
X43477715Y-43202465D02*
X43646074Y-43034107D01*
X43646074Y-43034107D02*
X43679746Y-42933091D01*
X43679746Y-42933091D02*
X43679746Y-42865748D01*
X43679746Y-42865748D02*
X43646074Y-42764733D01*
X43646074Y-42764733D02*
X43578730Y-42697389D01*
X43578730Y-42697389D02*
X43477715Y-42663717D01*
X43477715Y-42663717D02*
X43410372Y-42663717D01*
X43410372Y-42663717D02*
X43309356Y-42697389D01*
X43309356Y-42697389D02*
X43140998Y-42798404D01*
X43140998Y-42798404D02*
X43039982Y-42832076D01*
X43039982Y-42832076D02*
X42972639Y-42832076D01*
X42972639Y-42832076D02*
X42871624Y-42798404D01*
X42871624Y-42798404D02*
X42804280Y-42731061D01*
X42804280Y-42731061D02*
X42770608Y-42630046D01*
X42770608Y-42630046D02*
X42770608Y-42562702D01*
X42770608Y-42562702D02*
X42804280Y-42461687D01*
X42804280Y-42461687D02*
X42972639Y-42293328D01*
X42972639Y-42293328D02*
X43107326Y-42225984D01*
X43410372Y-41990282D02*
X43410372Y-41922939D01*
X43410372Y-41922939D02*
X43444043Y-41821923D01*
X43444043Y-41821923D02*
X43612402Y-41653565D01*
X43612402Y-41653565D02*
X43713417Y-41619893D01*
X43713417Y-41619893D02*
X43780761Y-41619893D01*
X43780761Y-41619893D02*
X43881776Y-41653565D01*
X43881776Y-41653565D02*
X43949120Y-41720908D01*
X43949120Y-41720908D02*
X44016463Y-41855595D01*
X44016463Y-41855595D02*
X44016463Y-42663717D01*
X44016463Y-42663717D02*
X44454196Y-42225984D01*
X49140384Y-31181450D02*
X49477102Y-30844733D01*
X49275071Y-31450824D02*
X48803667Y-30508015D01*
X48803667Y-30508015D02*
X49746476Y-30979420D01*
X49982178Y-30743717D02*
X49275071Y-30036610D01*
X49544445Y-30305984D02*
X49578117Y-30204969D01*
X49578117Y-30204969D02*
X49712804Y-30070282D01*
X49712804Y-30070282D02*
X49813819Y-30036610D01*
X49813819Y-30036610D02*
X49881163Y-30036610D01*
X49881163Y-30036610D02*
X49982178Y-30070282D01*
X49982178Y-30070282D02*
X50184209Y-30272313D01*
X50184209Y-30272313D02*
X50217880Y-30373328D01*
X50217880Y-30373328D02*
X50217880Y-30440671D01*
X50217880Y-30440671D02*
X50184209Y-30541687D01*
X50184209Y-30541687D02*
X50049522Y-30676374D01*
X50049522Y-30676374D02*
X49948506Y-30710045D01*
X50722957Y-30002939D02*
X50621942Y-30036610D01*
X50621942Y-30036610D02*
X50554598Y-30036610D01*
X50554598Y-30036610D02*
X50453583Y-30002939D01*
X50453583Y-30002939D02*
X50251552Y-29800908D01*
X50251552Y-29800908D02*
X50217881Y-29699893D01*
X50217881Y-29699893D02*
X50217881Y-29632549D01*
X50217881Y-29632549D02*
X50251552Y-29531534D01*
X50251552Y-29531534D02*
X50352568Y-29430519D01*
X50352568Y-29430519D02*
X50453583Y-29396847D01*
X50453583Y-29396847D02*
X50520926Y-29396847D01*
X50520926Y-29396847D02*
X50621942Y-29430519D01*
X50621942Y-29430519D02*
X50823972Y-29632549D01*
X50823972Y-29632549D02*
X50857644Y-29733565D01*
X50857644Y-29733565D02*
X50857644Y-29800908D01*
X50857644Y-29800908D02*
X50823972Y-29901923D01*
X50823972Y-29901923D02*
X50722957Y-30002939D01*
X51261705Y-29464190D02*
X50790300Y-28992786D01*
X50924987Y-29127473D02*
X50891316Y-29026458D01*
X50891316Y-29026458D02*
X50891316Y-28959114D01*
X50891316Y-28959114D02*
X50924987Y-28858099D01*
X50924987Y-28858099D02*
X50992331Y-28790755D01*
X51127018Y-28656068D02*
X51396392Y-28386694D01*
X50992331Y-28319351D02*
X51598423Y-28925442D01*
X51598423Y-28925442D02*
X51699438Y-28959114D01*
X51699438Y-28959114D02*
X51800453Y-28925442D01*
X51800453Y-28925442D02*
X51867797Y-28858099D01*
X52069828Y-27241854D02*
X52204515Y-27107167D01*
X52204515Y-27107167D02*
X52305530Y-27073495D01*
X52305530Y-27073495D02*
X52440217Y-27073495D01*
X52440217Y-27073495D02*
X52608576Y-27174511D01*
X52608576Y-27174511D02*
X52844278Y-27410213D01*
X52844278Y-27410213D02*
X52945293Y-27578572D01*
X52945293Y-27578572D02*
X52945293Y-27713259D01*
X52945293Y-27713259D02*
X52911621Y-27814274D01*
X52911621Y-27814274D02*
X52776934Y-27948961D01*
X52776934Y-27948961D02*
X52675919Y-27982633D01*
X52675919Y-27982633D02*
X52541232Y-27982633D01*
X52541232Y-27982633D02*
X52372873Y-27881617D01*
X52372873Y-27881617D02*
X52137171Y-27645915D01*
X52137171Y-27645915D02*
X52036156Y-27477556D01*
X52036156Y-27477556D02*
X52036156Y-27342869D01*
X52036156Y-27342869D02*
X52069828Y-27241854D01*
X53214667Y-26568419D02*
X53686072Y-27039824D01*
X52911621Y-26871465D02*
X53282011Y-27241854D01*
X53282011Y-27241854D02*
X53383026Y-27275526D01*
X53383026Y-27275526D02*
X53484041Y-27241854D01*
X53484041Y-27241854D02*
X53585056Y-27140839D01*
X53585056Y-27140839D02*
X53618728Y-27039824D01*
X53618728Y-27039824D02*
X53618728Y-26972480D01*
X53450369Y-26332717D02*
X53719744Y-26063343D01*
X53315682Y-25995999D02*
X53921774Y-26602091D01*
X53921774Y-26602091D02*
X54022789Y-26635763D01*
X54022789Y-26635763D02*
X54123805Y-26602091D01*
X54123805Y-26602091D02*
X54191148Y-26534747D01*
X89533041Y-30099266D02*
X89432026Y-30132938D01*
X89432026Y-30132938D02*
X89331010Y-30233953D01*
X89331010Y-30233953D02*
X89263667Y-30368640D01*
X89263667Y-30368640D02*
X89263667Y-30503328D01*
X89263667Y-30503328D02*
X89297339Y-30604343D01*
X89297339Y-30604343D02*
X89398354Y-30772702D01*
X89398354Y-30772702D02*
X89499369Y-30873717D01*
X89499369Y-30873717D02*
X89667728Y-30974732D01*
X89667728Y-30974732D02*
X89768743Y-31008404D01*
X89768743Y-31008404D02*
X89903430Y-31008404D01*
X89903430Y-31008404D02*
X90038117Y-30941060D01*
X90038117Y-30941060D02*
X90105461Y-30873717D01*
X90105461Y-30873717D02*
X90172804Y-30739030D01*
X90172804Y-30739030D02*
X90172804Y-30671686D01*
X90172804Y-30671686D02*
X89937102Y-30435984D01*
X89937102Y-30435984D02*
X89802415Y-30570671D01*
X90543193Y-30435984D02*
X89836087Y-29728877D01*
X89836087Y-29728877D02*
X90947254Y-30031923D01*
X90947254Y-30031923D02*
X90240148Y-29324816D01*
X91283972Y-29695206D02*
X90576865Y-28988099D01*
X90576865Y-28988099D02*
X90745224Y-28819740D01*
X90745224Y-28819740D02*
X90879911Y-28752396D01*
X90879911Y-28752396D02*
X91014598Y-28752396D01*
X91014598Y-28752396D02*
X91115613Y-28786068D01*
X91115613Y-28786068D02*
X91283972Y-28887083D01*
X91283972Y-28887083D02*
X91384987Y-28988099D01*
X91384987Y-28988099D02*
X91486002Y-29156457D01*
X91486002Y-29156457D02*
X91519674Y-29257473D01*
X91519674Y-29257473D02*
X91519674Y-29392160D01*
X91519674Y-29392160D02*
X91452331Y-29526847D01*
X91452331Y-29526847D02*
X91283972Y-29695206D01*
X86083041Y-30099266D02*
X85982026Y-30132938D01*
X85982026Y-30132938D02*
X85881010Y-30233953D01*
X85881010Y-30233953D02*
X85813667Y-30368640D01*
X85813667Y-30368640D02*
X85813667Y-30503328D01*
X85813667Y-30503328D02*
X85847339Y-30604343D01*
X85847339Y-30604343D02*
X85948354Y-30772702D01*
X85948354Y-30772702D02*
X86049369Y-30873717D01*
X86049369Y-30873717D02*
X86217728Y-30974732D01*
X86217728Y-30974732D02*
X86318743Y-31008404D01*
X86318743Y-31008404D02*
X86453430Y-31008404D01*
X86453430Y-31008404D02*
X86588117Y-30941060D01*
X86588117Y-30941060D02*
X86655461Y-30873717D01*
X86655461Y-30873717D02*
X86722804Y-30739030D01*
X86722804Y-30739030D02*
X86722804Y-30671686D01*
X86722804Y-30671686D02*
X86487102Y-30435984D01*
X86487102Y-30435984D02*
X86352415Y-30570671D01*
X87093193Y-30435984D02*
X86386087Y-29728877D01*
X86386087Y-29728877D02*
X87497254Y-30031923D01*
X87497254Y-30031923D02*
X86790148Y-29324816D01*
X87833972Y-29695206D02*
X87126865Y-28988099D01*
X87126865Y-28988099D02*
X87295224Y-28819740D01*
X87295224Y-28819740D02*
X87429911Y-28752396D01*
X87429911Y-28752396D02*
X87564598Y-28752396D01*
X87564598Y-28752396D02*
X87665613Y-28786068D01*
X87665613Y-28786068D02*
X87833972Y-28887083D01*
X87833972Y-28887083D02*
X87934987Y-28988099D01*
X87934987Y-28988099D02*
X88036002Y-29156457D01*
X88036002Y-29156457D02*
X88069674Y-29257473D01*
X88069674Y-29257473D02*
X88069674Y-29392160D01*
X88069674Y-29392160D02*
X88002331Y-29526847D01*
X88002331Y-29526847D02*
X87833972Y-29695206D01*
X72276713Y-31210435D02*
X72815461Y-30671687D01*
X72815461Y-31210435D02*
X72276713Y-30671687D01*
X72748117Y-29998252D02*
X72748117Y-29930908D01*
X72748117Y-29930908D02*
X72781789Y-29829893D01*
X72781789Y-29829893D02*
X72950147Y-29661534D01*
X72950147Y-29661534D02*
X73051163Y-29627863D01*
X73051163Y-29627863D02*
X73118506Y-29627863D01*
X73118506Y-29627863D02*
X73219521Y-29661534D01*
X73219521Y-29661534D02*
X73286865Y-29728878D01*
X73286865Y-29728878D02*
X73354208Y-29863565D01*
X73354208Y-29863565D02*
X73354208Y-30671687D01*
X73354208Y-30671687D02*
X73791941Y-30233954D01*
X73926628Y-29156458D02*
X74398033Y-29627863D01*
X73488895Y-29055443D02*
X73825613Y-29728878D01*
X73825613Y-29728878D02*
X74263346Y-29291145D01*
X73960300Y-28651382D02*
X74903109Y-29122786D01*
X74903109Y-29122786D02*
X74431705Y-28179977D01*
X75526713Y-31210435D02*
X76065461Y-30671687D01*
X76065461Y-31210435D02*
X75526713Y-30671687D01*
X75998117Y-29998252D02*
X75998117Y-29930908D01*
X75998117Y-29930908D02*
X76031789Y-29829893D01*
X76031789Y-29829893D02*
X76200147Y-29661534D01*
X76200147Y-29661534D02*
X76301163Y-29627863D01*
X76301163Y-29627863D02*
X76368506Y-29627863D01*
X76368506Y-29627863D02*
X76469521Y-29661534D01*
X76469521Y-29661534D02*
X76536865Y-29728878D01*
X76536865Y-29728878D02*
X76604208Y-29863565D01*
X76604208Y-29863565D02*
X76604208Y-30671687D01*
X76604208Y-30671687D02*
X77041941Y-30233954D01*
X77176628Y-29156458D02*
X77648033Y-29627863D01*
X76738895Y-29055443D02*
X77075613Y-29728878D01*
X77075613Y-29728878D02*
X77513346Y-29291145D01*
X77210300Y-28651382D02*
X78153109Y-29122786D01*
X78153109Y-29122786D02*
X77681705Y-28179977D01*
X101704700Y-56733220D02*
X101764223Y-56554649D01*
X101764223Y-56554649D02*
X101764223Y-56257030D01*
X101764223Y-56257030D02*
X101704700Y-56137982D01*
X101704700Y-56137982D02*
X101645176Y-56078458D01*
X101645176Y-56078458D02*
X101526128Y-56018935D01*
X101526128Y-56018935D02*
X101407080Y-56018935D01*
X101407080Y-56018935D02*
X101288033Y-56078458D01*
X101288033Y-56078458D02*
X101228509Y-56137982D01*
X101228509Y-56137982D02*
X101168985Y-56257030D01*
X101168985Y-56257030D02*
X101109461Y-56495125D01*
X101109461Y-56495125D02*
X101049938Y-56614173D01*
X101049938Y-56614173D02*
X100990414Y-56673696D01*
X100990414Y-56673696D02*
X100871366Y-56733220D01*
X100871366Y-56733220D02*
X100752319Y-56733220D01*
X100752319Y-56733220D02*
X100633271Y-56673696D01*
X100633271Y-56673696D02*
X100573747Y-56614173D01*
X100573747Y-56614173D02*
X100514223Y-56495125D01*
X100514223Y-56495125D02*
X100514223Y-56197506D01*
X100514223Y-56197506D02*
X100573747Y-56018935D01*
X101704700Y-55007030D02*
X101764223Y-55126078D01*
X101764223Y-55126078D02*
X101764223Y-55364173D01*
X101764223Y-55364173D02*
X101704700Y-55483220D01*
X101704700Y-55483220D02*
X101585652Y-55542744D01*
X101585652Y-55542744D02*
X101109461Y-55542744D01*
X101109461Y-55542744D02*
X100990414Y-55483220D01*
X100990414Y-55483220D02*
X100930890Y-55364173D01*
X100930890Y-55364173D02*
X100930890Y-55126078D01*
X100930890Y-55126078D02*
X100990414Y-55007030D01*
X100990414Y-55007030D02*
X101109461Y-54947506D01*
X101109461Y-54947506D02*
X101228509Y-54947506D01*
X101228509Y-54947506D02*
X101347557Y-55542744D01*
X101764223Y-54411791D02*
X100514223Y-54411791D01*
X100990414Y-54411791D02*
X100930890Y-54292744D01*
X100930890Y-54292744D02*
X100930890Y-54054649D01*
X100930890Y-54054649D02*
X100990414Y-53935601D01*
X100990414Y-53935601D02*
X101049938Y-53876077D01*
X101049938Y-53876077D02*
X101168985Y-53816553D01*
X101168985Y-53816553D02*
X101526128Y-53816553D01*
X101526128Y-53816553D02*
X101645176Y-53876077D01*
X101645176Y-53876077D02*
X101704700Y-53935601D01*
X101704700Y-53935601D02*
X101764223Y-54054649D01*
X101764223Y-54054649D02*
X101764223Y-54292744D01*
X101764223Y-54292744D02*
X101704700Y-54411791D01*
X101764223Y-52745125D02*
X101109461Y-52745125D01*
X101109461Y-52745125D02*
X100990414Y-52804649D01*
X100990414Y-52804649D02*
X100930890Y-52923697D01*
X100930890Y-52923697D02*
X100930890Y-53161792D01*
X100930890Y-53161792D02*
X100990414Y-53280839D01*
X101704700Y-52745125D02*
X101764223Y-52864173D01*
X101764223Y-52864173D02*
X101764223Y-53161792D01*
X101764223Y-53161792D02*
X101704700Y-53280839D01*
X101704700Y-53280839D02*
X101585652Y-53340363D01*
X101585652Y-53340363D02*
X101466604Y-53340363D01*
X101466604Y-53340363D02*
X101347557Y-53280839D01*
X101347557Y-53280839D02*
X101288033Y-53161792D01*
X101288033Y-53161792D02*
X101288033Y-52864173D01*
X101288033Y-52864173D02*
X101228509Y-52745125D01*
X101704700Y-52209411D02*
X101764223Y-52090364D01*
X101764223Y-52090364D02*
X101764223Y-51852268D01*
X101764223Y-51852268D02*
X101704700Y-51733221D01*
X101704700Y-51733221D02*
X101585652Y-51673697D01*
X101585652Y-51673697D02*
X101526128Y-51673697D01*
X101526128Y-51673697D02*
X101407080Y-51733221D01*
X101407080Y-51733221D02*
X101347557Y-51852268D01*
X101347557Y-51852268D02*
X101347557Y-52030840D01*
X101347557Y-52030840D02*
X101288033Y-52149887D01*
X101288033Y-52149887D02*
X101168985Y-52209411D01*
X101168985Y-52209411D02*
X101109461Y-52209411D01*
X101109461Y-52209411D02*
X100990414Y-52149887D01*
X100990414Y-52149887D02*
X100930890Y-52030840D01*
X100930890Y-52030840D02*
X100930890Y-51852268D01*
X100930890Y-51852268D02*
X100990414Y-51733221D01*
X100930890Y-51316554D02*
X100930890Y-50840363D01*
X100514223Y-51137982D02*
X101585652Y-51137982D01*
X101585652Y-51137982D02*
X101704700Y-51078459D01*
X101704700Y-51078459D02*
X101764223Y-50959411D01*
X101764223Y-50959411D02*
X101764223Y-50840363D01*
X101764223Y-50423696D02*
X100930890Y-50423696D01*
X100514223Y-50423696D02*
X100573747Y-50483220D01*
X100573747Y-50483220D02*
X100633271Y-50423696D01*
X100633271Y-50423696D02*
X100573747Y-50364173D01*
X100573747Y-50364173D02*
X100514223Y-50423696D01*
X100514223Y-50423696D02*
X100633271Y-50423696D01*
X101764223Y-49292744D02*
X101109461Y-49292744D01*
X101109461Y-49292744D02*
X100990414Y-49352268D01*
X100990414Y-49352268D02*
X100930890Y-49471316D01*
X100930890Y-49471316D02*
X100930890Y-49709411D01*
X100930890Y-49709411D02*
X100990414Y-49828458D01*
X101704700Y-49292744D02*
X101764223Y-49411792D01*
X101764223Y-49411792D02*
X101764223Y-49709411D01*
X101764223Y-49709411D02*
X101704700Y-49828458D01*
X101704700Y-49828458D02*
X101585652Y-49887982D01*
X101585652Y-49887982D02*
X101466604Y-49887982D01*
X101466604Y-49887982D02*
X101347557Y-49828458D01*
X101347557Y-49828458D02*
X101288033Y-49709411D01*
X101288033Y-49709411D02*
X101288033Y-49411792D01*
X101288033Y-49411792D02*
X101228509Y-49292744D01*
X100930890Y-48697506D02*
X101764223Y-48697506D01*
X101049938Y-48697506D02*
X100990414Y-48637983D01*
X100990414Y-48637983D02*
X100930890Y-48518935D01*
X100930890Y-48518935D02*
X100930890Y-48340364D01*
X100930890Y-48340364D02*
X100990414Y-48221316D01*
X100990414Y-48221316D02*
X101109461Y-48161792D01*
X101109461Y-48161792D02*
X101764223Y-48161792D01*
X100573747Y-45959412D02*
X100514223Y-46078459D01*
X100514223Y-46078459D02*
X100514223Y-46257031D01*
X100514223Y-46257031D02*
X100573747Y-46435602D01*
X100573747Y-46435602D02*
X100692795Y-46554650D01*
X100692795Y-46554650D02*
X100811842Y-46614173D01*
X100811842Y-46614173D02*
X101049938Y-46673697D01*
X101049938Y-46673697D02*
X101228509Y-46673697D01*
X101228509Y-46673697D02*
X101466604Y-46614173D01*
X101466604Y-46614173D02*
X101585652Y-46554650D01*
X101585652Y-46554650D02*
X101704700Y-46435602D01*
X101704700Y-46435602D02*
X101764223Y-46257031D01*
X101764223Y-46257031D02*
X101764223Y-46137983D01*
X101764223Y-46137983D02*
X101704700Y-45959412D01*
X101704700Y-45959412D02*
X101645176Y-45899888D01*
X101645176Y-45899888D02*
X101228509Y-45899888D01*
X101228509Y-45899888D02*
X101228509Y-46137983D01*
X101764223Y-45185602D02*
X101704700Y-45304650D01*
X101704700Y-45304650D02*
X101645176Y-45364173D01*
X101645176Y-45364173D02*
X101526128Y-45423697D01*
X101526128Y-45423697D02*
X101168985Y-45423697D01*
X101168985Y-45423697D02*
X101049938Y-45364173D01*
X101049938Y-45364173D02*
X100990414Y-45304650D01*
X100990414Y-45304650D02*
X100930890Y-45185602D01*
X100930890Y-45185602D02*
X100930890Y-45007031D01*
X100930890Y-45007031D02*
X100990414Y-44887983D01*
X100990414Y-44887983D02*
X101049938Y-44828459D01*
X101049938Y-44828459D02*
X101168985Y-44768935D01*
X101168985Y-44768935D02*
X101526128Y-44768935D01*
X101526128Y-44768935D02*
X101645176Y-44828459D01*
X101645176Y-44828459D02*
X101704700Y-44887983D01*
X101704700Y-44887983D02*
X101764223Y-45007031D01*
X101764223Y-45007031D02*
X101764223Y-45185602D01*
X100930890Y-44233221D02*
X101764223Y-44233221D01*
X101049938Y-44233221D02*
X100990414Y-44173698D01*
X100990414Y-44173698D02*
X100930890Y-44054650D01*
X100930890Y-44054650D02*
X100930890Y-43876079D01*
X100930890Y-43876079D02*
X100990414Y-43757031D01*
X100990414Y-43757031D02*
X101109461Y-43697507D01*
X101109461Y-43697507D02*
X101764223Y-43697507D01*
X100930890Y-43221317D02*
X100930890Y-42566555D01*
X100930890Y-42566555D02*
X101764223Y-43221317D01*
X101764223Y-43221317D02*
X101764223Y-42566555D01*
X101764223Y-41554650D02*
X101109461Y-41554650D01*
X101109461Y-41554650D02*
X100990414Y-41614174D01*
X100990414Y-41614174D02*
X100930890Y-41733222D01*
X100930890Y-41733222D02*
X100930890Y-41971317D01*
X100930890Y-41971317D02*
X100990414Y-42090364D01*
X101704700Y-41554650D02*
X101764223Y-41673698D01*
X101764223Y-41673698D02*
X101764223Y-41971317D01*
X101764223Y-41971317D02*
X101704700Y-42090364D01*
X101704700Y-42090364D02*
X101585652Y-42149888D01*
X101585652Y-42149888D02*
X101466604Y-42149888D01*
X101466604Y-42149888D02*
X101347557Y-42090364D01*
X101347557Y-42090364D02*
X101288033Y-41971317D01*
X101288033Y-41971317D02*
X101288033Y-41673698D01*
X101288033Y-41673698D02*
X101228509Y-41554650D01*
X101764223Y-40780841D02*
X101704700Y-40899889D01*
X101704700Y-40899889D02*
X101585652Y-40959412D01*
X101585652Y-40959412D02*
X100514223Y-40959412D01*
X101704700Y-39828460D02*
X101764223Y-39947508D01*
X101764223Y-39947508D02*
X101764223Y-40185603D01*
X101764223Y-40185603D02*
X101704700Y-40304650D01*
X101704700Y-40304650D02*
X101585652Y-40364174D01*
X101585652Y-40364174D02*
X101109461Y-40364174D01*
X101109461Y-40364174D02*
X100990414Y-40304650D01*
X100990414Y-40304650D02*
X100930890Y-40185603D01*
X100930890Y-40185603D02*
X100930890Y-39947508D01*
X100930890Y-39947508D02*
X100990414Y-39828460D01*
X100990414Y-39828460D02*
X101109461Y-39768936D01*
X101109461Y-39768936D02*
X101228509Y-39768936D01*
X101228509Y-39768936D02*
X101347557Y-40364174D01*
X100930890Y-39352269D02*
X100930890Y-38697507D01*
X100930890Y-38697507D02*
X101764223Y-39352269D01*
X101764223Y-39352269D02*
X101764223Y-38697507D01*
X103419580Y-56733220D02*
X103419580Y-56137982D01*
X103776723Y-56852268D02*
X102526723Y-56435601D01*
X102526723Y-56435601D02*
X103776723Y-56018935D01*
X103776723Y-55423696D02*
X103717200Y-55542744D01*
X103717200Y-55542744D02*
X103598152Y-55602267D01*
X103598152Y-55602267D02*
X102526723Y-55602267D01*
X103717200Y-54471315D02*
X103776723Y-54590363D01*
X103776723Y-54590363D02*
X103776723Y-54828458D01*
X103776723Y-54828458D02*
X103717200Y-54947505D01*
X103717200Y-54947505D02*
X103598152Y-55007029D01*
X103598152Y-55007029D02*
X103121961Y-55007029D01*
X103121961Y-55007029D02*
X103002914Y-54947505D01*
X103002914Y-54947505D02*
X102943390Y-54828458D01*
X102943390Y-54828458D02*
X102943390Y-54590363D01*
X102943390Y-54590363D02*
X103002914Y-54471315D01*
X103002914Y-54471315D02*
X103121961Y-54411791D01*
X103121961Y-54411791D02*
X103241009Y-54411791D01*
X103241009Y-54411791D02*
X103360057Y-55007029D01*
X103776723Y-53995124D02*
X102943390Y-53340362D01*
X102943390Y-53995124D02*
X103776723Y-53340362D01*
X103419580Y-51971314D02*
X103419580Y-51376076D01*
X103776723Y-52090362D02*
X102526723Y-51673695D01*
X102526723Y-51673695D02*
X103776723Y-51257029D01*
X103776723Y-50304647D02*
X103121961Y-50304647D01*
X103121961Y-50304647D02*
X103002914Y-50364171D01*
X103002914Y-50364171D02*
X102943390Y-50483219D01*
X102943390Y-50483219D02*
X102943390Y-50721314D01*
X102943390Y-50721314D02*
X103002914Y-50840361D01*
X103717200Y-50304647D02*
X103776723Y-50423695D01*
X103776723Y-50423695D02*
X103776723Y-50721314D01*
X103776723Y-50721314D02*
X103717200Y-50840361D01*
X103717200Y-50840361D02*
X103598152Y-50899885D01*
X103598152Y-50899885D02*
X103479104Y-50899885D01*
X103479104Y-50899885D02*
X103360057Y-50840361D01*
X103360057Y-50840361D02*
X103300533Y-50721314D01*
X103300533Y-50721314D02*
X103300533Y-50423695D01*
X103300533Y-50423695D02*
X103241009Y-50304647D01*
X103776723Y-49709409D02*
X102943390Y-49709409D01*
X103181485Y-49709409D02*
X103062438Y-49649886D01*
X103062438Y-49649886D02*
X103002914Y-49590362D01*
X103002914Y-49590362D02*
X102943390Y-49471314D01*
X102943390Y-49471314D02*
X102943390Y-49352267D01*
X103776723Y-48935599D02*
X102526723Y-48935599D01*
X103776723Y-48399885D02*
X103121961Y-48399885D01*
X103121961Y-48399885D02*
X103002914Y-48459409D01*
X103002914Y-48459409D02*
X102943390Y-48578457D01*
X102943390Y-48578457D02*
X102943390Y-48757028D01*
X102943390Y-48757028D02*
X103002914Y-48876076D01*
X103002914Y-48876076D02*
X103062438Y-48935599D01*
X102943390Y-47268933D02*
X103776723Y-47268933D01*
X102943390Y-47804647D02*
X103598152Y-47804647D01*
X103598152Y-47804647D02*
X103717200Y-47745124D01*
X103717200Y-47745124D02*
X103776723Y-47626076D01*
X103776723Y-47626076D02*
X103776723Y-47447505D01*
X103776723Y-47447505D02*
X103717200Y-47328457D01*
X103717200Y-47328457D02*
X103657676Y-47268933D01*
X103717200Y-46733219D02*
X103776723Y-46614172D01*
X103776723Y-46614172D02*
X103776723Y-46376076D01*
X103776723Y-46376076D02*
X103717200Y-46257029D01*
X103717200Y-46257029D02*
X103598152Y-46197505D01*
X103598152Y-46197505D02*
X103538628Y-46197505D01*
X103538628Y-46197505D02*
X103419580Y-46257029D01*
X103419580Y-46257029D02*
X103360057Y-46376076D01*
X103360057Y-46376076D02*
X103360057Y-46554648D01*
X103360057Y-46554648D02*
X103300533Y-46673695D01*
X103300533Y-46673695D02*
X103181485Y-46733219D01*
X103181485Y-46733219D02*
X103121961Y-46733219D01*
X103121961Y-46733219D02*
X103002914Y-46673695D01*
X103002914Y-46673695D02*
X102943390Y-46554648D01*
X102943390Y-46554648D02*
X102943390Y-46376076D01*
X102943390Y-46376076D02*
X103002914Y-46257029D01*
X105432080Y-56733220D02*
X105432080Y-56137982D01*
X105789223Y-56852268D02*
X104539223Y-56435601D01*
X104539223Y-56435601D02*
X105789223Y-56018935D01*
X105670176Y-54887982D02*
X105729700Y-54947506D01*
X105729700Y-54947506D02*
X105789223Y-55126077D01*
X105789223Y-55126077D02*
X105789223Y-55245125D01*
X105789223Y-55245125D02*
X105729700Y-55423696D01*
X105729700Y-55423696D02*
X105610652Y-55542744D01*
X105610652Y-55542744D02*
X105491604Y-55602267D01*
X105491604Y-55602267D02*
X105253509Y-55661791D01*
X105253509Y-55661791D02*
X105074938Y-55661791D01*
X105074938Y-55661791D02*
X104836842Y-55602267D01*
X104836842Y-55602267D02*
X104717795Y-55542744D01*
X104717795Y-55542744D02*
X104598747Y-55423696D01*
X104598747Y-55423696D02*
X104539223Y-55245125D01*
X104539223Y-55245125D02*
X104539223Y-55126077D01*
X104539223Y-55126077D02*
X104598747Y-54947506D01*
X104598747Y-54947506D02*
X104658271Y-54887982D01*
X105729700Y-54411791D02*
X105789223Y-54233220D01*
X105789223Y-54233220D02*
X105789223Y-53935601D01*
X105789223Y-53935601D02*
X105729700Y-53816553D01*
X105729700Y-53816553D02*
X105670176Y-53757029D01*
X105670176Y-53757029D02*
X105551128Y-53697506D01*
X105551128Y-53697506D02*
X105432080Y-53697506D01*
X105432080Y-53697506D02*
X105313033Y-53757029D01*
X105313033Y-53757029D02*
X105253509Y-53816553D01*
X105253509Y-53816553D02*
X105193985Y-53935601D01*
X105193985Y-53935601D02*
X105134461Y-54173696D01*
X105134461Y-54173696D02*
X105074938Y-54292744D01*
X105074938Y-54292744D02*
X105015414Y-54352267D01*
X105015414Y-54352267D02*
X104896366Y-54411791D01*
X104896366Y-54411791D02*
X104777319Y-54411791D01*
X104777319Y-54411791D02*
X104658271Y-54352267D01*
X104658271Y-54352267D02*
X104598747Y-54292744D01*
X104598747Y-54292744D02*
X104539223Y-54173696D01*
X104539223Y-54173696D02*
X104539223Y-53876077D01*
X104539223Y-53876077D02*
X104598747Y-53697506D01*
X105789223Y-52209410D02*
X104539223Y-52209410D01*
X104539223Y-52209410D02*
X104539223Y-51733220D01*
X104539223Y-51733220D02*
X104598747Y-51614172D01*
X104598747Y-51614172D02*
X104658271Y-51554649D01*
X104658271Y-51554649D02*
X104777319Y-51495125D01*
X104777319Y-51495125D02*
X104955890Y-51495125D01*
X104955890Y-51495125D02*
X105074938Y-51554649D01*
X105074938Y-51554649D02*
X105134461Y-51614172D01*
X105134461Y-51614172D02*
X105193985Y-51733220D01*
X105193985Y-51733220D02*
X105193985Y-52209410D01*
X104539223Y-51078458D02*
X105789223Y-50780839D01*
X105789223Y-50780839D02*
X104896366Y-50542744D01*
X104896366Y-50542744D02*
X105789223Y-50304649D01*
X105789223Y-50304649D02*
X104539223Y-50007030D01*
X105789223Y-48816554D02*
X105193985Y-49233220D01*
X105789223Y-49530839D02*
X104539223Y-49530839D01*
X104539223Y-49530839D02*
X104539223Y-49054649D01*
X104539223Y-49054649D02*
X104598747Y-48935601D01*
X104598747Y-48935601D02*
X104658271Y-48876078D01*
X104658271Y-48876078D02*
X104777319Y-48816554D01*
X104777319Y-48816554D02*
X104955890Y-48816554D01*
X104955890Y-48816554D02*
X105074938Y-48876078D01*
X105074938Y-48876078D02*
X105134461Y-48935601D01*
X105134461Y-48935601D02*
X105193985Y-49054649D01*
X105193985Y-49054649D02*
X105193985Y-49530839D01*
X105134461Y-46911792D02*
X105193985Y-46733220D01*
X105193985Y-46733220D02*
X105253509Y-46673697D01*
X105253509Y-46673697D02*
X105372557Y-46614173D01*
X105372557Y-46614173D02*
X105551128Y-46614173D01*
X105551128Y-46614173D02*
X105670176Y-46673697D01*
X105670176Y-46673697D02*
X105729700Y-46733220D01*
X105729700Y-46733220D02*
X105789223Y-46852268D01*
X105789223Y-46852268D02*
X105789223Y-47328458D01*
X105789223Y-47328458D02*
X104539223Y-47328458D01*
X104539223Y-47328458D02*
X104539223Y-46911792D01*
X104539223Y-46911792D02*
X104598747Y-46792744D01*
X104598747Y-46792744D02*
X104658271Y-46733220D01*
X104658271Y-46733220D02*
X104777319Y-46673697D01*
X104777319Y-46673697D02*
X104896366Y-46673697D01*
X104896366Y-46673697D02*
X105015414Y-46733220D01*
X105015414Y-46733220D02*
X105074938Y-46792744D01*
X105074938Y-46792744D02*
X105134461Y-46911792D01*
X105134461Y-46911792D02*
X105134461Y-47328458D01*
X105789223Y-45899887D02*
X105729700Y-46018935D01*
X105729700Y-46018935D02*
X105670176Y-46078458D01*
X105670176Y-46078458D02*
X105551128Y-46137982D01*
X105551128Y-46137982D02*
X105193985Y-46137982D01*
X105193985Y-46137982D02*
X105074938Y-46078458D01*
X105074938Y-46078458D02*
X105015414Y-46018935D01*
X105015414Y-46018935D02*
X104955890Y-45899887D01*
X104955890Y-45899887D02*
X104955890Y-45721316D01*
X104955890Y-45721316D02*
X105015414Y-45602268D01*
X105015414Y-45602268D02*
X105074938Y-45542744D01*
X105074938Y-45542744D02*
X105193985Y-45483220D01*
X105193985Y-45483220D02*
X105551128Y-45483220D01*
X105551128Y-45483220D02*
X105670176Y-45542744D01*
X105670176Y-45542744D02*
X105729700Y-45602268D01*
X105729700Y-45602268D02*
X105789223Y-45721316D01*
X105789223Y-45721316D02*
X105789223Y-45899887D01*
X105789223Y-44411792D02*
X105134461Y-44411792D01*
X105134461Y-44411792D02*
X105015414Y-44471316D01*
X105015414Y-44471316D02*
X104955890Y-44590364D01*
X104955890Y-44590364D02*
X104955890Y-44828459D01*
X104955890Y-44828459D02*
X105015414Y-44947506D01*
X105729700Y-44411792D02*
X105789223Y-44530840D01*
X105789223Y-44530840D02*
X105789223Y-44828459D01*
X105789223Y-44828459D02*
X105729700Y-44947506D01*
X105729700Y-44947506D02*
X105610652Y-45007030D01*
X105610652Y-45007030D02*
X105491604Y-45007030D01*
X105491604Y-45007030D02*
X105372557Y-44947506D01*
X105372557Y-44947506D02*
X105313033Y-44828459D01*
X105313033Y-44828459D02*
X105313033Y-44530840D01*
X105313033Y-44530840D02*
X105253509Y-44411792D01*
X105789223Y-43816554D02*
X104955890Y-43816554D01*
X105193985Y-43816554D02*
X105074938Y-43757031D01*
X105074938Y-43757031D02*
X105015414Y-43697507D01*
X105015414Y-43697507D02*
X104955890Y-43578459D01*
X104955890Y-43578459D02*
X104955890Y-43459412D01*
X105789223Y-42507030D02*
X104539223Y-42507030D01*
X105729700Y-42507030D02*
X105789223Y-42626078D01*
X105789223Y-42626078D02*
X105789223Y-42864173D01*
X105789223Y-42864173D02*
X105729700Y-42983221D01*
X105729700Y-42983221D02*
X105670176Y-43042744D01*
X105670176Y-43042744D02*
X105551128Y-43102268D01*
X105551128Y-43102268D02*
X105193985Y-43102268D01*
X105193985Y-43102268D02*
X105074938Y-43042744D01*
X105074938Y-43042744D02*
X105015414Y-42983221D01*
X105015414Y-42983221D02*
X104955890Y-42864173D01*
X104955890Y-42864173D02*
X104955890Y-42626078D01*
X104955890Y-42626078D02*
X105015414Y-42507030D01*
X94616713Y-31050435D02*
X95155461Y-30511687D01*
X95155461Y-31050435D02*
X94616713Y-30511687D01*
X95088117Y-29838252D02*
X95088117Y-29770908D01*
X95088117Y-29770908D02*
X95121789Y-29669893D01*
X95121789Y-29669893D02*
X95290147Y-29501534D01*
X95290147Y-29501534D02*
X95391163Y-29467863D01*
X95391163Y-29467863D02*
X95458506Y-29467863D01*
X95458506Y-29467863D02*
X95559521Y-29501534D01*
X95559521Y-29501534D02*
X95626865Y-29568878D01*
X95626865Y-29568878D02*
X95694208Y-29703565D01*
X95694208Y-29703565D02*
X95694208Y-30511687D01*
X95694208Y-30511687D02*
X96131941Y-30073954D01*
X96266628Y-28996458D02*
X96738033Y-29467863D01*
X95828895Y-28895443D02*
X96165613Y-29568878D01*
X96165613Y-29568878D02*
X96603346Y-29131145D01*
X96300300Y-28491382D02*
X97243109Y-28962786D01*
X97243109Y-28962786D02*
X96771705Y-28019977D01*
X35183041Y-30295984D02*
X35082026Y-30329656D01*
X35082026Y-30329656D02*
X34981010Y-30430671D01*
X34981010Y-30430671D02*
X34913667Y-30565358D01*
X34913667Y-30565358D02*
X34913667Y-30700046D01*
X34913667Y-30700046D02*
X34947339Y-30801061D01*
X34947339Y-30801061D02*
X35048354Y-30969420D01*
X35048354Y-30969420D02*
X35149369Y-31070435D01*
X35149369Y-31070435D02*
X35317728Y-31171450D01*
X35317728Y-31171450D02*
X35418743Y-31205122D01*
X35418743Y-31205122D02*
X35553430Y-31205122D01*
X35553430Y-31205122D02*
X35688117Y-31137778D01*
X35688117Y-31137778D02*
X35755461Y-31070435D01*
X35755461Y-31070435D02*
X35822804Y-30935748D01*
X35822804Y-30935748D02*
X35822804Y-30868404D01*
X35822804Y-30868404D02*
X35587102Y-30632702D01*
X35587102Y-30632702D02*
X35452415Y-30767389D01*
X36193193Y-30632702D02*
X35486087Y-29925595D01*
X35486087Y-29925595D02*
X36597254Y-30228641D01*
X36597254Y-30228641D02*
X35890148Y-29521534D01*
X36933972Y-29891924D02*
X36226865Y-29184817D01*
X36226865Y-29184817D02*
X36395224Y-29016458D01*
X36395224Y-29016458D02*
X36529911Y-28949114D01*
X36529911Y-28949114D02*
X36664598Y-28949114D01*
X36664598Y-28949114D02*
X36765613Y-28982786D01*
X36765613Y-28982786D02*
X36933972Y-29083801D01*
X36933972Y-29083801D02*
X37034987Y-29184817D01*
X37034987Y-29184817D02*
X37136002Y-29353175D01*
X37136002Y-29353175D02*
X37169674Y-29454191D01*
X37169674Y-29454191D02*
X37169674Y-29588878D01*
X37169674Y-29588878D02*
X37102331Y-29723565D01*
X37102331Y-29723565D02*
X36933972Y-29891924D01*
X79103041Y-30099266D02*
X79002026Y-30132938D01*
X79002026Y-30132938D02*
X78901010Y-30233953D01*
X78901010Y-30233953D02*
X78833667Y-30368640D01*
X78833667Y-30368640D02*
X78833667Y-30503328D01*
X78833667Y-30503328D02*
X78867339Y-30604343D01*
X78867339Y-30604343D02*
X78968354Y-30772702D01*
X78968354Y-30772702D02*
X79069369Y-30873717D01*
X79069369Y-30873717D02*
X79237728Y-30974732D01*
X79237728Y-30974732D02*
X79338743Y-31008404D01*
X79338743Y-31008404D02*
X79473430Y-31008404D01*
X79473430Y-31008404D02*
X79608117Y-30941060D01*
X79608117Y-30941060D02*
X79675461Y-30873717D01*
X79675461Y-30873717D02*
X79742804Y-30739030D01*
X79742804Y-30739030D02*
X79742804Y-30671686D01*
X79742804Y-30671686D02*
X79507102Y-30435984D01*
X79507102Y-30435984D02*
X79372415Y-30570671D01*
X80113193Y-30435984D02*
X79406087Y-29728877D01*
X79406087Y-29728877D02*
X80517254Y-30031923D01*
X80517254Y-30031923D02*
X79810148Y-29324816D01*
X80853972Y-29695206D02*
X80146865Y-28988099D01*
X80146865Y-28988099D02*
X80315224Y-28819740D01*
X80315224Y-28819740D02*
X80449911Y-28752396D01*
X80449911Y-28752396D02*
X80584598Y-28752396D01*
X80584598Y-28752396D02*
X80685613Y-28786068D01*
X80685613Y-28786068D02*
X80853972Y-28887083D01*
X80853972Y-28887083D02*
X80954987Y-28988099D01*
X80954987Y-28988099D02*
X81056002Y-29156457D01*
X81056002Y-29156457D02*
X81089674Y-29257473D01*
X81089674Y-29257473D02*
X81089674Y-29392160D01*
X81089674Y-29392160D02*
X81022331Y-29526847D01*
X81022331Y-29526847D02*
X80853972Y-29695206D01*
X45690384Y-31201450D02*
X46027102Y-30864733D01*
X45825071Y-31470824D02*
X45353667Y-30528015D01*
X45353667Y-30528015D02*
X46296476Y-30999420D01*
X46532178Y-30763717D02*
X45825071Y-30056610D01*
X46094445Y-30325984D02*
X46128117Y-30224969D01*
X46128117Y-30224969D02*
X46262804Y-30090282D01*
X46262804Y-30090282D02*
X46363819Y-30056610D01*
X46363819Y-30056610D02*
X46431163Y-30056610D01*
X46431163Y-30056610D02*
X46532178Y-30090282D01*
X46532178Y-30090282D02*
X46734209Y-30292313D01*
X46734209Y-30292313D02*
X46767880Y-30393328D01*
X46767880Y-30393328D02*
X46767880Y-30460671D01*
X46767880Y-30460671D02*
X46734209Y-30561687D01*
X46734209Y-30561687D02*
X46599522Y-30696374D01*
X46599522Y-30696374D02*
X46498506Y-30730045D01*
X47272957Y-30022939D02*
X47171942Y-30056610D01*
X47171942Y-30056610D02*
X47104598Y-30056610D01*
X47104598Y-30056610D02*
X47003583Y-30022939D01*
X47003583Y-30022939D02*
X46801552Y-29820908D01*
X46801552Y-29820908D02*
X46767881Y-29719893D01*
X46767881Y-29719893D02*
X46767881Y-29652549D01*
X46767881Y-29652549D02*
X46801552Y-29551534D01*
X46801552Y-29551534D02*
X46902568Y-29450519D01*
X46902568Y-29450519D02*
X47003583Y-29416847D01*
X47003583Y-29416847D02*
X47070926Y-29416847D01*
X47070926Y-29416847D02*
X47171942Y-29450519D01*
X47171942Y-29450519D02*
X47373972Y-29652549D01*
X47373972Y-29652549D02*
X47407644Y-29753565D01*
X47407644Y-29753565D02*
X47407644Y-29820908D01*
X47407644Y-29820908D02*
X47373972Y-29921923D01*
X47373972Y-29921923D02*
X47272957Y-30022939D01*
X47811705Y-29484190D02*
X47340300Y-29012786D01*
X47474987Y-29147473D02*
X47441316Y-29046458D01*
X47441316Y-29046458D02*
X47441316Y-28979114D01*
X47441316Y-28979114D02*
X47474987Y-28878099D01*
X47474987Y-28878099D02*
X47542331Y-28810755D01*
X47677018Y-28676068D02*
X47946392Y-28406694D01*
X47542331Y-28339351D02*
X48148423Y-28945442D01*
X48148423Y-28945442D02*
X48249438Y-28979114D01*
X48249438Y-28979114D02*
X48350453Y-28945442D01*
X48350453Y-28945442D02*
X48417797Y-28878099D01*
X49192247Y-28103648D02*
X48485141Y-27396541D01*
X49057560Y-27295526D02*
X49528965Y-27766931D01*
X49124904Y-27362870D02*
X49124904Y-27295526D01*
X49124904Y-27295526D02*
X49158575Y-27194511D01*
X49158575Y-27194511D02*
X49259591Y-27093496D01*
X49259591Y-27093496D02*
X49360606Y-27059824D01*
X49360606Y-27059824D02*
X49461621Y-27093496D01*
X49461621Y-27093496D02*
X49832010Y-27463885D01*
X29168866Y-47746077D02*
X29121247Y-47698458D01*
X29121247Y-47698458D02*
X29073628Y-47603220D01*
X29073628Y-47603220D02*
X29168866Y-47412744D01*
X29168866Y-47412744D02*
X29121247Y-47317506D01*
X29121247Y-47317506D02*
X29073628Y-47269887D01*
X29549819Y-46365125D02*
X29549819Y-46936553D01*
X29549819Y-46650839D02*
X28549819Y-46650839D01*
X28549819Y-46650839D02*
X28692676Y-46746077D01*
X28692676Y-46746077D02*
X28787914Y-46841315D01*
X28787914Y-46841315D02*
X28835533Y-46936553D01*
X29454580Y-45936553D02*
X29502200Y-45888934D01*
X29502200Y-45888934D02*
X29549819Y-45936553D01*
X29549819Y-45936553D02*
X29502200Y-45984172D01*
X29502200Y-45984172D02*
X29454580Y-45936553D01*
X29454580Y-45936553D02*
X29549819Y-45936553D01*
X29549819Y-44936554D02*
X29549819Y-45507982D01*
X29549819Y-45222268D02*
X28549819Y-45222268D01*
X28549819Y-45222268D02*
X28692676Y-45317506D01*
X28692676Y-45317506D02*
X28787914Y-45412744D01*
X28787914Y-45412744D02*
X28835533Y-45507982D01*
X29549819Y-44507982D02*
X28549819Y-44507982D01*
X29168866Y-44412744D02*
X29549819Y-44127030D01*
X28883152Y-44127030D02*
X29264104Y-44507982D01*
X65567724Y-31210435D02*
X66106472Y-30671687D01*
X66106472Y-31210435D02*
X65567724Y-30671687D01*
X66039128Y-29998252D02*
X66039128Y-29930908D01*
X66039128Y-29930908D02*
X66072800Y-29829893D01*
X66072800Y-29829893D02*
X66241158Y-29661534D01*
X66241158Y-29661534D02*
X66342174Y-29627863D01*
X66342174Y-29627863D02*
X66409517Y-29627863D01*
X66409517Y-29627863D02*
X66510532Y-29661534D01*
X66510532Y-29661534D02*
X66577876Y-29728878D01*
X66577876Y-29728878D02*
X66645219Y-29863565D01*
X66645219Y-29863565D02*
X66645219Y-30671687D01*
X66645219Y-30671687D02*
X67082952Y-30233954D01*
X67217639Y-29156458D02*
X67689044Y-29627863D01*
X66779906Y-29055443D02*
X67116624Y-29728878D01*
X67116624Y-29728878D02*
X67554357Y-29291145D01*
X67251311Y-28651382D02*
X68194120Y-29122786D01*
X68194120Y-29122786D02*
X67722716Y-28179977D01*
X59653041Y-30305984D02*
X59552026Y-30339656D01*
X59552026Y-30339656D02*
X59451010Y-30440671D01*
X59451010Y-30440671D02*
X59383667Y-30575358D01*
X59383667Y-30575358D02*
X59383667Y-30710046D01*
X59383667Y-30710046D02*
X59417339Y-30811061D01*
X59417339Y-30811061D02*
X59518354Y-30979420D01*
X59518354Y-30979420D02*
X59619369Y-31080435D01*
X59619369Y-31080435D02*
X59787728Y-31181450D01*
X59787728Y-31181450D02*
X59888743Y-31215122D01*
X59888743Y-31215122D02*
X60023430Y-31215122D01*
X60023430Y-31215122D02*
X60158117Y-31147778D01*
X60158117Y-31147778D02*
X60225461Y-31080435D01*
X60225461Y-31080435D02*
X60292804Y-30945748D01*
X60292804Y-30945748D02*
X60292804Y-30878404D01*
X60292804Y-30878404D02*
X60057102Y-30642702D01*
X60057102Y-30642702D02*
X59922415Y-30777389D01*
X61538659Y-29767236D02*
X61201942Y-30103954D01*
X61201942Y-30103954D02*
X60494835Y-29396847D01*
X61403972Y-29161145D02*
X61639674Y-28925442D01*
X62111079Y-29194816D02*
X61774361Y-29531534D01*
X61774361Y-29531534D02*
X61067255Y-28824427D01*
X61067255Y-28824427D02*
X61403972Y-28487710D01*
X62414125Y-28891771D02*
X61707018Y-28184664D01*
X61707018Y-28184664D02*
X61875377Y-28016305D01*
X61875377Y-28016305D02*
X62010064Y-27948962D01*
X62010064Y-27948962D02*
X62144751Y-27948962D01*
X62144751Y-27948962D02*
X62245766Y-27982633D01*
X62245766Y-27982633D02*
X62414125Y-28083649D01*
X62414125Y-28083649D02*
X62515140Y-28184664D01*
X62515140Y-28184664D02*
X62616155Y-28353023D01*
X62616155Y-28353023D02*
X62649827Y-28454038D01*
X62649827Y-28454038D02*
X62649827Y-28588725D01*
X62649827Y-28588725D02*
X62582484Y-28723412D01*
X62582484Y-28723412D02*
X62414125Y-28891771D01*
X94658743Y-43269809D02*
X94793430Y-43202465D01*
X94793430Y-43202465D02*
X94961789Y-43034107D01*
X94961789Y-43034107D02*
X94995461Y-42933091D01*
X94995461Y-42933091D02*
X94995461Y-42865748D01*
X94995461Y-42865748D02*
X94961789Y-42764733D01*
X94961789Y-42764733D02*
X94894445Y-42697389D01*
X94894445Y-42697389D02*
X94793430Y-42663717D01*
X94793430Y-42663717D02*
X94726087Y-42663717D01*
X94726087Y-42663717D02*
X94625071Y-42697389D01*
X94625071Y-42697389D02*
X94456713Y-42798404D01*
X94456713Y-42798404D02*
X94355697Y-42832076D01*
X94355697Y-42832076D02*
X94288354Y-42832076D01*
X94288354Y-42832076D02*
X94187339Y-42798404D01*
X94187339Y-42798404D02*
X94119995Y-42731061D01*
X94119995Y-42731061D02*
X94086323Y-42630046D01*
X94086323Y-42630046D02*
X94086323Y-42562702D01*
X94086323Y-42562702D02*
X94119995Y-42461687D01*
X94119995Y-42461687D02*
X94288354Y-42293328D01*
X94288354Y-42293328D02*
X94423041Y-42225984D01*
X95769911Y-42225984D02*
X95365850Y-42630045D01*
X95567880Y-42428015D02*
X94860774Y-41720908D01*
X94860774Y-41720908D02*
X94894445Y-41889267D01*
X94894445Y-41889267D02*
X94894445Y-42023954D01*
X94894445Y-42023954D02*
X94860774Y-42124969D01*
X95668896Y-40912786D02*
X95534209Y-41047473D01*
X95534209Y-41047473D02*
X95500537Y-41148488D01*
X95500537Y-41148488D02*
X95500537Y-41215832D01*
X95500537Y-41215832D02*
X95534209Y-41384191D01*
X95534209Y-41384191D02*
X95635224Y-41552549D01*
X95635224Y-41552549D02*
X95904598Y-41821923D01*
X95904598Y-41821923D02*
X96005613Y-41855595D01*
X96005613Y-41855595D02*
X96072957Y-41855595D01*
X96072957Y-41855595D02*
X96173972Y-41821923D01*
X96173972Y-41821923D02*
X96308659Y-41687236D01*
X96308659Y-41687236D02*
X96342331Y-41586221D01*
X96342331Y-41586221D02*
X96342331Y-41518878D01*
X96342331Y-41518878D02*
X96308659Y-41417862D01*
X96308659Y-41417862D02*
X96140300Y-41249504D01*
X96140300Y-41249504D02*
X96039285Y-41215832D01*
X96039285Y-41215832D02*
X95971941Y-41215832D01*
X95971941Y-41215832D02*
X95870926Y-41249504D01*
X95870926Y-41249504D02*
X95736239Y-41384191D01*
X95736239Y-41384191D02*
X95702567Y-41485206D01*
X95702567Y-41485206D02*
X95702567Y-41552549D01*
X95702567Y-41552549D02*
X95736239Y-41653565D01*
X77288743Y-43289809D02*
X77423430Y-43222465D01*
X77423430Y-43222465D02*
X77591789Y-43054107D01*
X77591789Y-43054107D02*
X77625461Y-42953091D01*
X77625461Y-42953091D02*
X77625461Y-42885748D01*
X77625461Y-42885748D02*
X77591789Y-42784733D01*
X77591789Y-42784733D02*
X77524445Y-42717389D01*
X77524445Y-42717389D02*
X77423430Y-42683717D01*
X77423430Y-42683717D02*
X77356087Y-42683717D01*
X77356087Y-42683717D02*
X77255071Y-42717389D01*
X77255071Y-42717389D02*
X77086713Y-42818404D01*
X77086713Y-42818404D02*
X76985697Y-42852076D01*
X76985697Y-42852076D02*
X76918354Y-42852076D01*
X76918354Y-42852076D02*
X76817339Y-42818404D01*
X76817339Y-42818404D02*
X76749995Y-42751061D01*
X76749995Y-42751061D02*
X76716323Y-42650046D01*
X76716323Y-42650046D02*
X76716323Y-42582702D01*
X76716323Y-42582702D02*
X76749995Y-42481687D01*
X76749995Y-42481687D02*
X76918354Y-42313328D01*
X76918354Y-42313328D02*
X77053041Y-42245984D01*
X78399911Y-42245984D02*
X77995850Y-42650045D01*
X78197880Y-42448015D02*
X77490774Y-41740908D01*
X77490774Y-41740908D02*
X77524445Y-41909267D01*
X77524445Y-41909267D02*
X77524445Y-42043954D01*
X77524445Y-42043954D02*
X77490774Y-42144969D01*
X79073346Y-41572549D02*
X78669285Y-41976610D01*
X78871315Y-41774580D02*
X78164209Y-41067473D01*
X78164209Y-41067473D02*
X78197880Y-41235832D01*
X78197880Y-41235832D02*
X78197880Y-41370519D01*
X78197880Y-41370519D02*
X78164209Y-41471534D01*
X70198743Y-43269809D02*
X70333430Y-43202465D01*
X70333430Y-43202465D02*
X70501789Y-43034107D01*
X70501789Y-43034107D02*
X70535461Y-42933091D01*
X70535461Y-42933091D02*
X70535461Y-42865748D01*
X70535461Y-42865748D02*
X70501789Y-42764733D01*
X70501789Y-42764733D02*
X70434445Y-42697389D01*
X70434445Y-42697389D02*
X70333430Y-42663717D01*
X70333430Y-42663717D02*
X70266087Y-42663717D01*
X70266087Y-42663717D02*
X70165071Y-42697389D01*
X70165071Y-42697389D02*
X69996713Y-42798404D01*
X69996713Y-42798404D02*
X69895697Y-42832076D01*
X69895697Y-42832076D02*
X69828354Y-42832076D01*
X69828354Y-42832076D02*
X69727339Y-42798404D01*
X69727339Y-42798404D02*
X69659995Y-42731061D01*
X69659995Y-42731061D02*
X69626323Y-42630046D01*
X69626323Y-42630046D02*
X69626323Y-42562702D01*
X69626323Y-42562702D02*
X69659995Y-42461687D01*
X69659995Y-42461687D02*
X69828354Y-42293328D01*
X69828354Y-42293328D02*
X69963041Y-42225984D01*
X70973193Y-42562702D02*
X71107880Y-42428015D01*
X71107880Y-42428015D02*
X71141552Y-42327000D01*
X71141552Y-42327000D02*
X71141552Y-42259656D01*
X71141552Y-42259656D02*
X71107880Y-42091297D01*
X71107880Y-42091297D02*
X71006865Y-41922939D01*
X71006865Y-41922939D02*
X70737491Y-41653565D01*
X70737491Y-41653565D02*
X70636476Y-41619893D01*
X70636476Y-41619893D02*
X70569132Y-41619893D01*
X70569132Y-41619893D02*
X70468117Y-41653565D01*
X70468117Y-41653565D02*
X70333430Y-41788252D01*
X70333430Y-41788252D02*
X70299758Y-41889267D01*
X70299758Y-41889267D02*
X70299758Y-41956610D01*
X70299758Y-41956610D02*
X70333430Y-42057626D01*
X70333430Y-42057626D02*
X70501789Y-42225984D01*
X70501789Y-42225984D02*
X70602804Y-42259656D01*
X70602804Y-42259656D02*
X70670148Y-42259656D01*
X70670148Y-42259656D02*
X70771163Y-42225984D01*
X70771163Y-42225984D02*
X70905850Y-42091297D01*
X70905850Y-42091297D02*
X70939522Y-41990282D01*
X70939522Y-41990282D02*
X70939522Y-41922939D01*
X70939522Y-41922939D02*
X70905850Y-41821923D01*
X31964819Y-46146666D02*
X31488628Y-46479999D01*
X31964819Y-46718094D02*
X30964819Y-46718094D01*
X30964819Y-46718094D02*
X30964819Y-46337142D01*
X30964819Y-46337142D02*
X31012438Y-46241904D01*
X31012438Y-46241904D02*
X31060057Y-46194285D01*
X31060057Y-46194285D02*
X31155295Y-46146666D01*
X31155295Y-46146666D02*
X31298152Y-46146666D01*
X31298152Y-46146666D02*
X31393390Y-46194285D01*
X31393390Y-46194285D02*
X31441009Y-46241904D01*
X31441009Y-46241904D02*
X31488628Y-46337142D01*
X31488628Y-46337142D02*
X31488628Y-46718094D01*
X31964819Y-45194285D02*
X31964819Y-45765713D01*
X31964819Y-45479999D02*
X30964819Y-45479999D01*
X30964819Y-45479999D02*
X31107676Y-45575237D01*
X31107676Y-45575237D02*
X31202914Y-45670475D01*
X31202914Y-45670475D02*
X31250533Y-45765713D01*
X32714819Y-54348094D02*
X31714819Y-54348094D01*
X31714819Y-54348094D02*
X31714819Y-54109999D01*
X31714819Y-54109999D02*
X31762438Y-53967142D01*
X31762438Y-53967142D02*
X31857676Y-53871904D01*
X31857676Y-53871904D02*
X31952914Y-53824285D01*
X31952914Y-53824285D02*
X32143390Y-53776666D01*
X32143390Y-53776666D02*
X32286247Y-53776666D01*
X32286247Y-53776666D02*
X32476723Y-53824285D01*
X32476723Y-53824285D02*
X32571961Y-53871904D01*
X32571961Y-53871904D02*
X32667200Y-53967142D01*
X32667200Y-53967142D02*
X32714819Y-54109999D01*
X32714819Y-54109999D02*
X32714819Y-54348094D01*
X32714819Y-52824285D02*
X32714819Y-53395713D01*
X32714819Y-53109999D02*
X31714819Y-53109999D01*
X31714819Y-53109999D02*
X31857676Y-53205237D01*
X31857676Y-53205237D02*
X31952914Y-53300475D01*
X31952914Y-53300475D02*
X32000533Y-53395713D01*
D11*
X30480000Y-42680000D02*
X30480000Y-49220000D01*
X30150000Y-42680000D02*
X30480000Y-42680000D01*
X28070000Y-42680000D02*
X27740000Y-42680000D01*
X27740000Y-42680000D02*
X27740000Y-49220000D01*
X30480000Y-49220000D02*
X30150000Y-49220000D01*
X27740000Y-49220000D02*
X28070000Y-49220000D01*
D12*
X76082200Y-53099200D02*
X76082200Y-63042353D01*
X76082200Y-63526847D02*
X76082200Y-70980800D01*
X76082200Y-70980800D02*
X91347600Y-70980800D01*
X91347600Y-53099200D02*
X76082200Y-53099200D01*
X91347600Y-63042353D02*
X91347600Y-53099200D01*
X91347600Y-70980800D02*
X91347600Y-63526847D01*
D13*
X77740900Y-56944600D02*
G75*
G03*
X77740900Y-56944600I-381000J0D01*
G01*
D12*
X42512300Y-53099200D02*
X42512300Y-63042353D01*
X42512300Y-63526847D02*
X42512300Y-70980800D01*
X42512300Y-70980800D02*
X57777700Y-70980800D01*
X57777700Y-53099200D02*
X42512300Y-53099200D01*
X57777700Y-63042353D02*
X57777700Y-53099200D01*
X57777700Y-70980800D02*
X57777700Y-63526847D01*
D13*
X44051000Y-56934600D02*
G75*
G03*
X44051000Y-56934600I-381000J0D01*
G01*
D14*
X33130000Y-31690000D02*
X33130000Y-38790000D01*
X35230000Y-40190000D02*
X61830000Y-40190000D01*
X61830000Y-31690000D02*
X33130000Y-31690000D01*
X61830000Y-40190000D02*
X61830000Y-31690000D01*
X62865000Y-31690000D02*
X62865000Y-38790000D01*
X64965000Y-40190000D02*
X91565000Y-40190000D01*
X91565000Y-31690000D02*
X62865000Y-31690000D01*
X91565000Y-40190000D02*
X91565000Y-31690000D01*
X37590000Y-43560000D02*
X37590000Y-50660000D01*
X39690000Y-52060000D02*
X66290000Y-52060000D01*
X66290000Y-43560000D02*
X37590000Y-43560000D01*
X66290000Y-52060000D02*
X66290000Y-43560000D01*
D11*
X27874000Y-55170000D02*
X28030000Y-55170000D01*
X30190000Y-55170000D02*
X30346000Y-55170000D01*
X28031392Y-51937666D02*
G75*
G03*
X27874485Y-55169999I1078608J-1672334D01*
G01*
X28030164Y-52568871D02*
G75*
G03*
X28030001Y-54650960I1079836J-1041129D01*
G01*
X30189999Y-54650960D02*
G75*
G03*
X30189836Y-52568871I-1079999J1040960D01*
G01*
X30345515Y-55169999D02*
G75*
G03*
X30188608Y-51937666I-1235515J1559999D01*
G01*
D14*
X92600000Y-31690000D02*
X92600000Y-38790000D01*
X94700000Y-40190000D02*
X100300000Y-40190000D01*
X100300000Y-31690000D02*
X92600000Y-31690000D01*
X100300000Y-40190000D02*
X100300000Y-31690000D01*
X67990000Y-43560000D02*
X67990000Y-50660000D01*
X70090000Y-52060000D02*
X96690000Y-52060000D01*
X96690000Y-43560000D02*
X67990000Y-43560000D01*
X96690000Y-52060000D02*
X96690000Y-43560000D01*
D12*
X59312200Y-53099200D02*
X59312200Y-63042353D01*
X59312200Y-63526847D02*
X59312200Y-70980800D01*
X59312200Y-70980800D02*
X74577600Y-70980800D01*
X74577600Y-53099200D02*
X59312200Y-53099200D01*
X74577600Y-63042353D02*
X74577600Y-53099200D01*
X74577600Y-70980800D02*
X74577600Y-63526847D01*
D13*
X60900900Y-56944600D02*
G75*
G03*
X60900900Y-56944600I-381000J0D01*
G01*
G36*
X94788680Y-61553000D02*
G01*
X94788680Y-61725720D01*
X95317000Y-61725720D01*
X95845320Y-61725720D01*
X95845320Y-61804437D01*
X95845320Y-61883153D01*
X95318270Y-61884447D01*
X94791220Y-61885740D01*
X94789887Y-62072430D01*
X94788554Y-62259120D01*
X94707337Y-62259120D01*
X94626120Y-62259120D01*
X94626120Y-61819700D01*
X94626120Y-61380280D01*
X94707400Y-61380280D01*
X94788680Y-61380280D01*
X94788680Y-61553000D01*
G37*
G36*
X94788680Y-53892208D02*
G01*
X94788680Y-54065033D01*
X95315730Y-54066327D01*
X95842780Y-54067620D01*
X95844178Y-54147630D01*
X95845577Y-54227640D01*
X95317128Y-54227640D01*
X94788680Y-54227640D01*
X94788680Y-54413060D01*
X94788680Y-54598480D01*
X94707371Y-54598480D01*
X94626063Y-54598480D01*
X94627361Y-54160330D01*
X94628660Y-53722180D01*
X94708670Y-53720782D01*
X94788680Y-53719383D01*
X94788680Y-53892208D01*
G37*
G36*
X95765310Y-62346618D02*
G01*
X95842780Y-62348020D01*
X95844077Y-62793790D01*
X95845375Y-63239560D01*
X95235720Y-63239560D01*
X94626064Y-63239560D01*
X94627362Y-62793790D01*
X94628660Y-62348020D01*
X94708670Y-62346622D01*
X94788680Y-62345223D01*
X94788680Y-62713652D01*
X94788680Y-63082080D01*
X94974100Y-63082080D01*
X95159520Y-63082080D01*
X95159520Y-62792520D01*
X95159520Y-62502960D01*
X95240800Y-62502960D01*
X95322080Y-62502960D01*
X95322080Y-62792520D01*
X95322080Y-63082080D01*
X95504960Y-63082080D01*
X95687840Y-63082080D01*
X95687840Y-62713648D01*
X95687840Y-62345216D01*
X95765310Y-62346618D01*
G37*
G36*
X94788680Y-56000560D02*
G01*
X94788680Y-56366320D01*
X94974100Y-56366320D01*
X95159520Y-56366320D01*
X95159520Y-56079300D01*
X95159520Y-55792280D01*
X95240800Y-55792280D01*
X95322080Y-55792280D01*
X95322080Y-56079300D01*
X95322080Y-56366320D01*
X95504960Y-56366320D01*
X95687840Y-56366320D01*
X95687840Y-56000560D01*
X95687840Y-55634800D01*
X95766580Y-55634800D01*
X95845320Y-55634800D01*
X95845320Y-56081840D01*
X95845320Y-56528880D01*
X95235720Y-56528880D01*
X94626120Y-56528880D01*
X94626120Y-56081840D01*
X94626120Y-55634800D01*
X94707400Y-55634800D01*
X94788680Y-55634800D01*
X94788680Y-56000560D01*
G37*
G36*
X95839747Y-56855270D02*
G01*
X95839247Y-56905190D01*
X95838163Y-56949335D01*
X95836545Y-56986547D01*
X95834438Y-57015671D01*
X95832477Y-57032097D01*
X95824294Y-57072867D01*
X95812543Y-57109103D01*
X95795543Y-57145613D01*
X95787793Y-57159787D01*
X95755237Y-57207365D01*
X95714700Y-57249744D01*
X95667278Y-57286280D01*
X95614071Y-57316329D01*
X95556177Y-57339249D01*
X95494695Y-57354396D01*
X95445270Y-57360380D01*
X95398280Y-57363533D01*
X95398280Y-57286567D01*
X95398280Y-57209600D01*
X95410328Y-57209600D01*
X95425484Y-57207891D01*
X95447200Y-57203319D01*
X95472571Y-57196716D01*
X95498695Y-57188915D01*
X95522667Y-57180748D01*
X95541582Y-57173049D01*
X95546689Y-57170502D01*
X95573607Y-57152887D01*
X95601563Y-57129492D01*
X95627115Y-57103502D01*
X95646822Y-57078104D01*
X95647296Y-57077371D01*
X95663779Y-57046995D01*
X95674761Y-57014776D01*
X95680875Y-56978155D01*
X95682760Y-56934828D01*
X95682760Y-56879400D01*
X95154440Y-56879400D01*
X94626120Y-56879400D01*
X94626120Y-56800660D01*
X94626120Y-56721920D01*
X95233180Y-56721920D01*
X95840240Y-56721920D01*
X95839747Y-56855270D01*
G37*
G36*
X94444233Y-64397519D02*
G01*
X94446028Y-64408965D01*
X94447351Y-64429019D01*
X94448131Y-64457291D01*
X94448320Y-64484160D01*
X94448089Y-64513478D01*
X94447449Y-64538564D01*
X94446473Y-64557915D01*
X94445235Y-64570027D01*
X94443896Y-64573466D01*
X94439824Y-64566960D01*
X94436458Y-64555662D01*
X94434939Y-64549064D01*
X94432666Y-64543582D01*
X94428750Y-64539104D01*
X94422301Y-64535518D01*
X94412430Y-64532711D01*
X94398246Y-64530571D01*
X94378860Y-64528985D01*
X94353382Y-64527841D01*
X94320923Y-64527027D01*
X94280593Y-64526429D01*
X94231502Y-64525936D01*
X94199120Y-64525657D01*
X94141969Y-64525232D01*
X94094130Y-64525056D01*
X94054756Y-64525207D01*
X94023000Y-64525762D01*
X93998015Y-64526799D01*
X93978955Y-64528394D01*
X93964972Y-64530626D01*
X93955220Y-64533571D01*
X93948851Y-64537308D01*
X93945020Y-64541913D01*
X93942879Y-64547464D01*
X93942486Y-64549113D01*
X93938731Y-64564788D01*
X93935660Y-64572796D01*
X93932253Y-64575481D01*
X93930972Y-64575600D01*
X93929414Y-64570799D01*
X93928086Y-64557506D01*
X93927083Y-64537390D01*
X93926498Y-64512118D01*
X93926386Y-64494115D01*
X93926653Y-64460344D01*
X93927480Y-64436204D01*
X93928901Y-64421182D01*
X93930953Y-64414762D01*
X93931952Y-64414485D01*
X93936668Y-64420271D01*
X93940681Y-64431872D01*
X93940952Y-64433127D01*
X93945237Y-64445964D01*
X93950928Y-64454127D01*
X93951242Y-64454344D01*
X93957600Y-64455231D01*
X93973065Y-64456002D01*
X93996585Y-64456645D01*
X94027109Y-64457144D01*
X94063584Y-64457487D01*
X94104959Y-64457660D01*
X94150181Y-64457647D01*
X94187792Y-64457498D01*
X94243870Y-64457203D01*
X94290649Y-64456908D01*
X94328987Y-64456480D01*
X94359744Y-64455783D01*
X94383779Y-64454685D01*
X94401951Y-64453050D01*
X94415119Y-64450746D01*
X94424144Y-64447638D01*
X94429883Y-64443592D01*
X94433198Y-64438475D01*
X94434945Y-64432152D01*
X94435986Y-64424490D01*
X94436695Y-64418696D01*
X94439497Y-64401996D01*
X94442032Y-64395066D01*
X94444233Y-64397519D01*
G37*
G36*
X94445255Y-57505336D02*
G01*
X94446776Y-57518857D01*
X94447787Y-57542001D01*
X94448275Y-57574505D01*
X94448320Y-57590301D01*
X94448045Y-57625314D01*
X94447245Y-57652533D01*
X94445959Y-57671282D01*
X94444222Y-57680881D01*
X94443240Y-57682040D01*
X94439244Y-57677733D01*
X94438082Y-57670610D01*
X94437756Y-57662935D01*
X94436342Y-57656499D01*
X94433019Y-57651193D01*
X94426963Y-57646909D01*
X94417353Y-57643538D01*
X94403366Y-57640969D01*
X94384179Y-57639095D01*
X94358969Y-57637807D01*
X94326915Y-57636994D01*
X94287194Y-57636548D01*
X94238983Y-57636360D01*
X94181460Y-57636321D01*
X94179536Y-57636320D01*
X94124419Y-57636313D01*
X94078591Y-57636369D01*
X94041182Y-57636610D01*
X94011321Y-57637155D01*
X93988139Y-57638123D01*
X93970765Y-57639634D01*
X93958328Y-57641809D01*
X93949958Y-57644766D01*
X93944785Y-57648626D01*
X93941938Y-57653507D01*
X93940546Y-57659531D01*
X93939741Y-57666816D01*
X93939475Y-57669340D01*
X93936842Y-57679611D01*
X93932830Y-57683338D01*
X93932700Y-57683310D01*
X93930692Y-57677853D01*
X93929135Y-57663269D01*
X93928095Y-57640588D01*
X93927636Y-57610835D01*
X93927620Y-57603300D01*
X93927939Y-57572104D01*
X93928855Y-57547748D01*
X93930302Y-57531260D01*
X93932214Y-57523668D01*
X93932700Y-57523290D01*
X93936592Y-57526795D01*
X93939222Y-57537032D01*
X93939343Y-57538152D01*
X93940056Y-57545117D01*
X93941308Y-57550893D01*
X93943979Y-57555592D01*
X93948947Y-57559325D01*
X93957091Y-57562203D01*
X93969292Y-57564337D01*
X93986428Y-57565839D01*
X94009377Y-57566818D01*
X94039020Y-57567387D01*
X94076236Y-57567656D01*
X94121903Y-57567737D01*
X94173514Y-57567740D01*
X94220137Y-57567651D01*
X94264172Y-57567394D01*
X94304455Y-57566989D01*
X94339823Y-57566456D01*
X94369114Y-57565813D01*
X94391166Y-57565081D01*
X94404815Y-57564278D01*
X94408173Y-57563846D01*
X94425156Y-57555837D01*
X94435134Y-57540508D01*
X94438160Y-57519541D01*
X94439750Y-57507899D01*
X94443240Y-57501700D01*
X94445255Y-57505336D01*
G37*
G36*
X94445255Y-54945016D02*
G01*
X94446776Y-54958537D01*
X94447787Y-54981681D01*
X94448275Y-55014185D01*
X94448320Y-55029981D01*
X94448045Y-55064994D01*
X94447245Y-55092213D01*
X94445959Y-55110962D01*
X94444222Y-55120561D01*
X94443240Y-55121720D01*
X94439310Y-55117405D01*
X94438160Y-55109991D01*
X94436974Y-55097967D01*
X94432423Y-55089340D01*
X94423019Y-55083392D01*
X94407272Y-55079405D01*
X94383694Y-55076661D01*
X94366404Y-55075392D01*
X94343729Y-55074277D01*
X94314126Y-55073365D01*
X94279143Y-55072657D01*
X94240326Y-55072152D01*
X94199224Y-55071851D01*
X94157386Y-55071752D01*
X94116358Y-55071856D01*
X94077689Y-55072162D01*
X94042927Y-55072670D01*
X94013619Y-55073380D01*
X93991315Y-55074291D01*
X93977560Y-55075404D01*
X93977223Y-55075451D01*
X93959637Y-55078345D01*
X93949547Y-55082086D01*
X93944366Y-55088747D01*
X93941502Y-55100401D01*
X93940799Y-55104624D01*
X93937636Y-55116455D01*
X93933614Y-55122318D01*
X93932700Y-55122466D01*
X93930685Y-55117243D01*
X93929022Y-55102867D01*
X93927779Y-55080345D01*
X93927028Y-55050679D01*
X93926906Y-55040209D01*
X93926860Y-55006920D01*
X93927418Y-54983100D01*
X93928623Y-54968073D01*
X93930516Y-54961162D01*
X93931856Y-54960573D01*
X93936676Y-54966393D01*
X93940679Y-54977952D01*
X93940870Y-54978848D01*
X93943840Y-54990912D01*
X93948293Y-54997950D01*
X93956883Y-55001904D01*
X93972268Y-55004715D01*
X93977223Y-55005430D01*
X93989946Y-55006467D01*
X94011297Y-55007326D01*
X94039746Y-55008008D01*
X94073763Y-55008511D01*
X94111818Y-55008835D01*
X94152381Y-55008977D01*
X94193921Y-55008939D01*
X94234909Y-55008718D01*
X94273814Y-55008315D01*
X94309107Y-55007728D01*
X94339256Y-55006956D01*
X94362733Y-55005999D01*
X94368762Y-55005641D01*
X94392295Y-55003840D01*
X94407935Y-55001778D01*
X94417942Y-54998876D01*
X94424578Y-54994555D01*
X94428452Y-54990348D01*
X94435422Y-54976564D01*
X94438160Y-54961438D01*
X94439549Y-54948984D01*
X94442925Y-54941607D01*
X94443240Y-54941380D01*
X94445255Y-54945016D01*
G37*
G36*
X94215634Y-62532031D02*
G01*
X94265637Y-62543559D01*
X94308648Y-62560978D01*
X94351628Y-62587643D01*
X94388171Y-62622134D01*
X94418176Y-62664333D01*
X94441542Y-62714121D01*
X94442133Y-62715713D01*
X94449018Y-62741279D01*
X94453950Y-62773389D01*
X94456709Y-62808573D01*
X94457076Y-62843366D01*
X94454832Y-62874299D01*
X94452889Y-62886153D01*
X94439154Y-62930404D01*
X94417187Y-62972353D01*
X94388423Y-63010125D01*
X94354299Y-63041847D01*
X94316250Y-63065643D01*
X94314918Y-63066284D01*
X94263919Y-63085448D01*
X94212685Y-63094835D01*
X94162114Y-63094598D01*
X94151448Y-63092485D01*
X94113103Y-63084890D01*
X94066548Y-63065866D01*
X94023347Y-63037678D01*
X93994480Y-63011441D01*
X93964085Y-62975136D01*
X93941960Y-62937042D01*
X93927439Y-62895394D01*
X93919852Y-62848429D01*
X93919262Y-62833866D01*
X93944220Y-62833866D01*
X93950992Y-62877871D01*
X93966146Y-62917459D01*
X93989178Y-62951833D01*
X94019586Y-62980200D01*
X94056864Y-63001761D01*
X94089977Y-63013236D01*
X94117681Y-63018102D01*
X94151448Y-63020507D01*
X94187484Y-63020451D01*
X94221994Y-63017932D01*
X94249727Y-63013298D01*
X94293990Y-62998436D01*
X94334104Y-62976231D01*
X94368535Y-62947854D01*
X94395752Y-62914473D01*
X94407961Y-62892572D01*
X94423832Y-62848247D01*
X94429704Y-62803883D01*
X94425653Y-62758441D01*
X94419669Y-62734100D01*
X94404373Y-62699676D01*
X94380678Y-62668861D01*
X94350080Y-62642964D01*
X94314074Y-62623294D01*
X94280704Y-62612532D01*
X94251914Y-62607911D01*
X94217618Y-62605336D01*
X94181727Y-62604865D01*
X94148150Y-62606557D01*
X94122180Y-62610174D01*
X94077161Y-62624101D01*
X94037131Y-62645555D01*
X94003053Y-62673571D01*
X93975894Y-62707182D01*
X93956617Y-62745421D01*
X93946334Y-62786239D01*
X93944220Y-62833866D01*
X93919262Y-62833866D01*
X93918308Y-62810300D01*
X93922425Y-62753217D01*
X93934872Y-62701762D01*
X93955793Y-62655548D01*
X93985330Y-62614185D01*
X93994419Y-62604198D01*
X94030954Y-62572989D01*
X94072504Y-62550008D01*
X94117907Y-62535415D01*
X94166004Y-62529370D01*
X94215634Y-62532031D01*
G37*
G36*
X93987981Y-61138242D02*
G01*
X94004086Y-61140763D01*
X94014264Y-61144202D01*
X94016520Y-61146912D01*
X94012207Y-61150619D01*
X94004950Y-61151680D01*
X93987437Y-61156410D01*
X93973549Y-61169503D01*
X93965945Y-61186120D01*
X93963877Y-61198646D01*
X93962187Y-61218532D01*
X93961058Y-61242983D01*
X93960668Y-61267663D01*
X93960640Y-61330305D01*
X94185430Y-61328384D01*
X94232483Y-61327899D01*
X94276562Y-61327284D01*
X94316593Y-61326566D01*
X94351503Y-61325773D01*
X94380220Y-61324929D01*
X94401671Y-61324062D01*
X94414783Y-61323199D01*
X94418421Y-61322613D01*
X94428228Y-61313208D01*
X94435365Y-61297411D01*
X94438159Y-61278941D01*
X94438160Y-61278741D01*
X94439750Y-61267099D01*
X94443240Y-61260900D01*
X94445231Y-61264557D01*
X94446741Y-61278110D01*
X94447756Y-61301308D01*
X94448262Y-61333899D01*
X94448320Y-61352340D01*
X94448057Y-61389248D01*
X94447279Y-61416881D01*
X94445999Y-61434987D01*
X94444232Y-61443315D01*
X94443240Y-61443780D01*
X94439115Y-61436696D01*
X94438082Y-61429511D01*
X94437741Y-61421878D01*
X94436284Y-61415482D01*
X94432886Y-61410213D01*
X94426723Y-61405963D01*
X94416967Y-61402622D01*
X94402796Y-61400082D01*
X94383382Y-61398232D01*
X94357902Y-61396963D01*
X94325530Y-61396167D01*
X94285441Y-61395734D01*
X94236810Y-61395555D01*
X94181289Y-61395520D01*
X93960640Y-61395520D01*
X93960640Y-61464264D01*
X93961103Y-61498873D01*
X93962801Y-61524903D01*
X93966193Y-61543907D01*
X93971737Y-61557436D01*
X93979894Y-61567042D01*
X93991123Y-61574277D01*
X93993562Y-61575474D01*
X94006193Y-61582720D01*
X94009611Y-61587713D01*
X94004562Y-61590227D01*
X93991788Y-61590037D01*
X93972034Y-61586916D01*
X93962644Y-61584866D01*
X93922540Y-61575530D01*
X93925080Y-61540135D01*
X93925790Y-61524864D01*
X93926382Y-61501560D01*
X93926853Y-61471779D01*
X93927205Y-61437079D01*
X93927436Y-61399014D01*
X93927546Y-61359142D01*
X93927536Y-61319018D01*
X93927404Y-61280198D01*
X93927150Y-61244239D01*
X93926774Y-61212697D01*
X93926276Y-61187127D01*
X93925656Y-61169087D01*
X93925156Y-61161840D01*
X93922692Y-61138980D01*
X93948016Y-61137353D01*
X93968455Y-61136988D01*
X93987981Y-61138242D01*
G37*
G36*
X94354937Y-55294245D02*
G01*
X94387659Y-55308161D01*
X94415537Y-55330463D01*
X94437527Y-55360453D01*
X94443883Y-55373180D01*
X94449415Y-55387761D01*
X94453067Y-55403693D01*
X94455279Y-55423804D01*
X94456494Y-55450922D01*
X94456586Y-55454460D01*
X94456741Y-55479847D01*
X94456062Y-55503815D01*
X94454683Y-55523113D01*
X94453400Y-55531970D01*
X94446122Y-55557776D01*
X94437146Y-55575022D01*
X94426875Y-55582960D01*
X94425863Y-55583200D01*
X94415365Y-55583871D01*
X94399412Y-55583412D01*
X94380685Y-55582089D01*
X94361864Y-55580168D01*
X94345630Y-55577916D01*
X94334662Y-55575598D01*
X94331480Y-55573831D01*
X94335959Y-55570458D01*
X94347151Y-55567112D01*
X94351681Y-55566240D01*
X94379995Y-55556840D01*
X94402284Y-55539498D01*
X94418228Y-55514677D01*
X94427508Y-55482844D01*
X94429921Y-55452431D01*
X94426529Y-55416645D01*
X94416331Y-55387673D01*
X94399636Y-55365947D01*
X94376754Y-55351899D01*
X94354193Y-55346479D01*
X94333753Y-55345367D01*
X94315602Y-55347553D01*
X94298517Y-55353887D01*
X94281273Y-55365219D01*
X94262647Y-55382399D01*
X94241417Y-55406277D01*
X94216360Y-55437702D01*
X94208935Y-55447387D01*
X94190273Y-55471085D01*
X94171235Y-55493904D01*
X94153762Y-55513602D01*
X94139799Y-55527935D01*
X94136874Y-55530602D01*
X94105594Y-55552399D01*
X94072719Y-55565154D01*
X94039515Y-55568796D01*
X94007250Y-55563256D01*
X93977192Y-55548465D01*
X93966128Y-55539991D01*
X93943973Y-55515538D01*
X93928554Y-55485522D01*
X93919697Y-55449279D01*
X93917233Y-55406142D01*
X93920238Y-55361750D01*
X93926728Y-55304600D01*
X93967814Y-55304678D01*
X93992814Y-55305489D01*
X94010056Y-55307616D01*
X94019029Y-55310765D01*
X94019221Y-55314644D01*
X94010119Y-55318959D01*
X93998107Y-55322047D01*
X93977897Y-55331343D01*
X93962118Y-55349056D01*
X93951285Y-55374229D01*
X93945908Y-55405906D01*
X93945400Y-55420478D01*
X93948918Y-55453361D01*
X93958996Y-55480482D01*
X93974916Y-55500909D01*
X93995960Y-55513710D01*
X94020413Y-55517960D01*
X94038120Y-55516058D01*
X94055161Y-55509781D01*
X94072529Y-55498271D01*
X94091219Y-55480672D01*
X94112222Y-55456126D01*
X94136534Y-55423776D01*
X94147502Y-55408324D01*
X94176846Y-55369094D01*
X94204076Y-55338692D01*
X94230338Y-55316321D01*
X94256774Y-55301186D01*
X94284529Y-55292489D01*
X94314748Y-55289436D01*
X94318414Y-55289410D01*
X94354937Y-55294245D01*
G37*
G36*
X93988593Y-54368049D02*
G01*
X94004046Y-54369927D01*
X94012509Y-54372606D01*
X94013043Y-54375717D01*
X94004707Y-54378890D01*
X93999276Y-54379991D01*
X93986002Y-54385862D01*
X93974204Y-54396481D01*
X93973876Y-54396913D01*
X93969512Y-54403802D01*
X93966413Y-54412106D01*
X93964298Y-54423744D01*
X93962886Y-54440632D01*
X93961896Y-54464690D01*
X93961422Y-54482003D01*
X93959665Y-54552760D01*
X94185650Y-54552760D01*
X94241925Y-54552770D01*
X94288899Y-54552707D01*
X94327430Y-54552437D01*
X94358378Y-54551824D01*
X94382600Y-54550734D01*
X94400956Y-54549030D01*
X94414303Y-54546578D01*
X94423501Y-54543242D01*
X94429409Y-54538888D01*
X94432883Y-54533379D01*
X94434785Y-54526580D01*
X94435971Y-54518357D01*
X94436625Y-54513215D01*
X94439451Y-54496317D01*
X94442004Y-54489200D01*
X94444217Y-54491488D01*
X94446021Y-54502803D01*
X94447349Y-54522769D01*
X94448131Y-54551009D01*
X94448320Y-54577861D01*
X94448045Y-54612874D01*
X94447245Y-54640093D01*
X94445959Y-54658842D01*
X94444222Y-54668441D01*
X94443240Y-54669600D01*
X94439310Y-54665285D01*
X94438160Y-54657871D01*
X94437566Y-54649577D01*
X94435267Y-54642556D01*
X94430488Y-54636704D01*
X94422451Y-54631912D01*
X94410380Y-54628076D01*
X94393500Y-54625088D01*
X94371033Y-54622842D01*
X94342204Y-54621232D01*
X94306237Y-54620151D01*
X94262355Y-54619492D01*
X94209781Y-54619149D01*
X94154950Y-54619024D01*
X93960640Y-54618800D01*
X93960714Y-54691190D01*
X93961036Y-54723989D01*
X93962260Y-54748388D01*
X93964889Y-54766139D01*
X93969429Y-54778995D01*
X93976383Y-54788707D01*
X93986256Y-54797027D01*
X93992357Y-54801157D01*
X94003186Y-54809246D01*
X94008689Y-54815495D01*
X94008812Y-54817062D01*
X94003114Y-54817899D01*
X93990427Y-54816693D01*
X93973593Y-54813968D01*
X93955453Y-54810248D01*
X93938850Y-54806058D01*
X93926623Y-54801921D01*
X93926545Y-54801887D01*
X93919336Y-54797647D01*
X93918006Y-54791514D01*
X93921465Y-54780288D01*
X93922789Y-54771705D01*
X93923996Y-54754390D01*
X93925073Y-54729769D01*
X93926006Y-54699272D01*
X93926781Y-54664324D01*
X93927385Y-54626354D01*
X93927803Y-54586789D01*
X93928024Y-54547056D01*
X93928032Y-54508582D01*
X93927814Y-54472795D01*
X93927358Y-54441123D01*
X93926648Y-54414992D01*
X93925672Y-54395830D01*
X93925179Y-54390200D01*
X93922739Y-54367340D01*
X93967089Y-54367340D01*
X93988593Y-54368049D01*
G37*
G36*
X95025018Y-59713408D02*
G01*
X95079527Y-59726094D01*
X95131408Y-59747594D01*
X95179498Y-59777780D01*
X95203885Y-59798013D01*
X95245868Y-59842523D01*
X95278427Y-59890824D01*
X95301570Y-59942931D01*
X95315307Y-59998861D01*
X95316784Y-60009360D01*
X95318112Y-60025125D01*
X95319318Y-60049385D01*
X95320359Y-60080474D01*
X95321191Y-60116727D01*
X95321772Y-60156479D01*
X95322057Y-60198065D01*
X95322080Y-60213017D01*
X95322080Y-60374440D01*
X95583700Y-60374440D01*
X95845320Y-60374440D01*
X95845320Y-60455720D01*
X95845320Y-60537000D01*
X95282220Y-60537000D01*
X95206396Y-60536971D01*
X95132731Y-60536884D01*
X95061944Y-60536743D01*
X94994756Y-60536554D01*
X94931886Y-60536319D01*
X94874053Y-60536042D01*
X94821977Y-60535728D01*
X94788680Y-60535474D01*
X94776378Y-60535380D01*
X94737974Y-60535003D01*
X94707486Y-60534599D01*
X94685633Y-60534174D01*
X94673135Y-60533731D01*
X94672302Y-60533677D01*
X94625484Y-60530354D01*
X94626615Y-60374440D01*
X94788680Y-60374440D01*
X94974393Y-60374440D01*
X95160106Y-60374440D01*
X95158543Y-60192707D01*
X95156980Y-60010973D01*
X95140314Y-59977138D01*
X95117602Y-59941782D01*
X95087440Y-59911114D01*
X95052287Y-59887594D01*
X95048931Y-59885896D01*
X95035721Y-59880177D01*
X95022353Y-59876627D01*
X95005818Y-59874772D01*
X94983106Y-59874138D01*
X94974100Y-59874115D01*
X94949733Y-59874420D01*
X94932425Y-59875654D01*
X94919082Y-59878388D01*
X94906610Y-59883195D01*
X94895814Y-59888584D01*
X94868843Y-59906279D01*
X94842992Y-59929511D01*
X94821334Y-59955206D01*
X94809216Y-59975212D01*
X94803902Y-59987595D01*
X94799570Y-60001379D01*
X94796125Y-60017692D01*
X94793472Y-60037661D01*
X94791517Y-60062412D01*
X94790165Y-60093071D01*
X94789321Y-60130766D01*
X94788891Y-60176623D01*
X94788782Y-60218230D01*
X94788680Y-60374440D01*
X94626615Y-60374440D01*
X94627441Y-60260627D01*
X94627889Y-60199043D01*
X94628333Y-60146662D01*
X94628872Y-60102530D01*
X94629603Y-60065690D01*
X94630626Y-60035186D01*
X94632038Y-60010064D01*
X94633938Y-59989367D01*
X94636424Y-59972140D01*
X94639595Y-59957427D01*
X94643549Y-59944273D01*
X94648384Y-59931721D01*
X94654199Y-59918816D01*
X94661091Y-59904603D01*
X94664867Y-59896920D01*
X94682459Y-59867831D01*
X94706793Y-59836889D01*
X94735437Y-59806606D01*
X94765957Y-59779493D01*
X94795921Y-59758062D01*
X94803920Y-59753400D01*
X94857331Y-59729532D01*
X94912758Y-59714998D01*
X94969041Y-59709666D01*
X95025018Y-59713408D01*
G37*
G36*
X93950013Y-60067376D02*
G01*
X93967760Y-60068181D01*
X93986056Y-60069534D01*
X94002116Y-60071237D01*
X94013158Y-60073088D01*
X94016520Y-60074623D01*
X94012147Y-60078277D01*
X94001892Y-60081456D01*
X93987621Y-60086384D01*
X93976862Y-60095484D01*
X93969200Y-60109927D01*
X93964224Y-60130884D01*
X93961518Y-60159526D01*
X93960669Y-60197024D01*
X93960668Y-60198154D01*
X93960640Y-60258087D01*
X94189063Y-60256574D01*
X94245077Y-60256223D01*
X94291790Y-60255884D01*
X94330060Y-60255412D01*
X94360747Y-60254662D01*
X94384707Y-60253490D01*
X94402800Y-60251753D01*
X94415884Y-60249305D01*
X94424816Y-60246004D01*
X94430456Y-60241704D01*
X94433661Y-60236261D01*
X94435289Y-60229532D01*
X94436200Y-60221371D01*
X94436845Y-60214944D01*
X94439260Y-60201138D01*
X94442383Y-60192743D01*
X94443900Y-60191560D01*
X94445310Y-60196373D01*
X94446533Y-60209746D01*
X94447494Y-60230077D01*
X94448115Y-60255766D01*
X94448320Y-60283300D01*
X94448049Y-60319526D01*
X94447248Y-60346499D01*
X94445932Y-60363956D01*
X94444116Y-60371634D01*
X94443240Y-60371900D01*
X94439211Y-60364851D01*
X94438160Y-60357148D01*
X94434522Y-60345144D01*
X94427472Y-60335858D01*
X94424485Y-60333556D01*
X94420455Y-60331639D01*
X94414468Y-60330065D01*
X94405606Y-60328790D01*
X94392955Y-60327773D01*
X94375600Y-60326968D01*
X94352623Y-60326335D01*
X94323111Y-60325829D01*
X94286147Y-60325409D01*
X94240815Y-60325030D01*
X94188712Y-60324667D01*
X93960640Y-60323154D01*
X93961146Y-60393247D01*
X93961582Y-60419994D01*
X93962421Y-60443999D01*
X93963550Y-60462965D01*
X93964859Y-60474595D01*
X93965171Y-60475983D01*
X93971883Y-60486974D01*
X93984474Y-60499063D01*
X93999516Y-60509269D01*
X94007873Y-60513103D01*
X94011288Y-60517387D01*
X94010325Y-60519216D01*
X94003754Y-60520309D01*
X93990254Y-60519308D01*
X93972727Y-60516692D01*
X93954072Y-60512941D01*
X93937189Y-60508534D01*
X93929201Y-60505808D01*
X93919866Y-60500956D01*
X93918509Y-60494438D01*
X93921155Y-60486983D01*
X93922736Y-60478219D01*
X93924199Y-60460748D01*
X93925522Y-60436021D01*
X93926687Y-60405491D01*
X93927672Y-60370610D01*
X93928458Y-60332830D01*
X93929024Y-60293603D01*
X93929351Y-60254381D01*
X93929419Y-60216617D01*
X93929207Y-60181762D01*
X93928695Y-60151268D01*
X93927863Y-60126588D01*
X93926692Y-60109174D01*
X93926411Y-60106653D01*
X93924381Y-60084826D01*
X93924890Y-60072193D01*
X93927290Y-60068212D01*
X93935595Y-60067320D01*
X93950013Y-60067376D01*
G37*
G36*
X94789982Y-64548930D02*
G01*
X94790665Y-64600292D01*
X94791334Y-64642629D01*
X94792052Y-64677078D01*
X94792883Y-64704776D01*
X94793887Y-64726857D01*
X94795130Y-64744457D01*
X94796672Y-64758714D01*
X94798578Y-64770761D01*
X94800909Y-64781736D01*
X94803387Y-64791500D01*
X94825852Y-64856551D01*
X94856920Y-64916464D01*
X94896122Y-64970650D01*
X94942990Y-65018518D01*
X94997054Y-65059479D01*
X95033288Y-65080779D01*
X95071408Y-65099082D01*
X95108114Y-65112209D01*
X95146573Y-65120965D01*
X95189954Y-65126157D01*
X95218128Y-65127832D01*
X95286415Y-65126780D01*
X95349381Y-65117303D01*
X95407809Y-65099096D01*
X95462481Y-65071859D01*
X95514177Y-65035289D01*
X95555760Y-64997252D01*
X95600274Y-64945482D01*
X95635862Y-64889543D01*
X95662225Y-64830022D01*
X95679067Y-64767509D01*
X95682435Y-64746683D01*
X95683716Y-64732131D01*
X95684888Y-64708925D01*
X95685915Y-64678566D01*
X95686759Y-64642561D01*
X95687384Y-64602413D01*
X95687753Y-64559626D01*
X95687840Y-64526973D01*
X95687840Y-64347000D01*
X95766580Y-64347000D01*
X95845320Y-64347000D01*
X95844644Y-64536230D01*
X95844373Y-64581038D01*
X95843903Y-64624285D01*
X95843266Y-64664518D01*
X95842492Y-64700286D01*
X95841612Y-64730137D01*
X95840658Y-64752618D01*
X95839739Y-64765568D01*
X95828238Y-64833410D01*
X95808555Y-64900736D01*
X95781686Y-64964588D01*
X95758557Y-65006573D01*
X95739858Y-65033533D01*
X95715143Y-65064206D01*
X95686566Y-65096267D01*
X95656284Y-65127392D01*
X95626452Y-65155255D01*
X95601915Y-65175511D01*
X95570956Y-65196387D01*
X95533331Y-65217625D01*
X95492341Y-65237631D01*
X95451290Y-65254809D01*
X95413481Y-65267564D01*
X95408440Y-65268958D01*
X95334199Y-65284022D01*
X95258493Y-65290275D01*
X95182664Y-65287925D01*
X95108053Y-65277178D01*
X95036001Y-65258241D01*
X94967850Y-65231320D01*
X94904942Y-65196621D01*
X94894737Y-65189876D01*
X94871492Y-65172345D01*
X94844303Y-65149061D01*
X94815496Y-65122268D01*
X94787396Y-65094209D01*
X94762328Y-65067125D01*
X94742620Y-65043261D01*
X94742393Y-65042960D01*
X94717532Y-65006005D01*
X94693536Y-64963135D01*
X94672577Y-64918514D01*
X94659058Y-64883179D01*
X94652341Y-64862755D01*
X94646745Y-64844275D01*
X94642153Y-64826548D01*
X94638450Y-64808384D01*
X94635521Y-64788591D01*
X94633251Y-64765979D01*
X94631523Y-64739356D01*
X94630222Y-64707532D01*
X94629232Y-64669316D01*
X94628438Y-64623517D01*
X94627725Y-64568944D01*
X94627608Y-64559090D01*
X94625107Y-64347000D01*
X94706270Y-64347000D01*
X94787432Y-64347000D01*
X94789982Y-64548930D01*
G37*
G36*
X93932186Y-56825017D02*
G01*
X93937038Y-56830922D01*
X93939261Y-56839158D01*
X93945516Y-56860396D01*
X93959402Y-56876439D01*
X93970041Y-56883409D01*
X93978753Y-56887690D01*
X93995678Y-56895463D01*
X94019685Y-56906228D01*
X94049644Y-56919486D01*
X94084426Y-56934736D01*
X94122899Y-56951480D01*
X94163934Y-56969219D01*
X94173775Y-56973455D01*
X94233879Y-56999357D01*
X94285248Y-57021613D01*
X94328512Y-57040516D01*
X94364302Y-57056361D01*
X94393247Y-57069440D01*
X94415978Y-57080047D01*
X94433124Y-57088477D01*
X94445317Y-57095022D01*
X94453185Y-57099975D01*
X94457360Y-57103631D01*
X94458480Y-57106088D01*
X94454316Y-57112394D01*
X94443896Y-57119981D01*
X94439430Y-57122405D01*
X94430947Y-57126246D01*
X94414087Y-57133530D01*
X94389865Y-57143828D01*
X94359300Y-57156713D01*
X94323407Y-57171758D01*
X94283203Y-57188535D01*
X94239705Y-57206617D01*
X94196361Y-57224572D01*
X94150880Y-57243488D01*
X94107924Y-57261564D01*
X94068479Y-57278369D01*
X94033534Y-57293472D01*
X94004077Y-57306443D01*
X93981098Y-57316851D01*
X93965584Y-57324265D01*
X93958619Y-57328175D01*
X93948092Y-57340446D01*
X93942225Y-57358157D01*
X93941338Y-57363465D01*
X93938329Y-57377526D01*
X93934633Y-57386211D01*
X93932700Y-57387590D01*
X93930744Y-57382551D01*
X93929226Y-57368093D01*
X93928188Y-57344952D01*
X93927671Y-57313859D01*
X93927620Y-57298490D01*
X93927904Y-57264691D01*
X93928725Y-57238026D01*
X93930032Y-57219369D01*
X93931777Y-57209595D01*
X93932700Y-57208326D01*
X93936535Y-57211862D01*
X93939206Y-57222184D01*
X93939393Y-57223862D01*
X93942556Y-57236192D01*
X93948046Y-57243338D01*
X93948477Y-57243530D01*
X93954668Y-57242356D01*
X93969292Y-57237824D01*
X93991329Y-57230302D01*
X94019761Y-57220155D01*
X94053566Y-57207752D01*
X94091726Y-57193459D01*
X94133221Y-57177643D01*
X94156718Y-57168575D01*
X94357488Y-57090753D01*
X94339614Y-57081584D01*
X94322290Y-57073321D01*
X94298209Y-57062730D01*
X94268676Y-57050311D01*
X94234995Y-57036564D01*
X94198470Y-57021988D01*
X94160406Y-57007084D01*
X94122107Y-56992352D01*
X94084876Y-56978291D01*
X94050019Y-56965402D01*
X94018840Y-56954185D01*
X93992642Y-56945139D01*
X93972730Y-56938765D01*
X93960409Y-56935562D01*
X93957965Y-56935280D01*
X93949693Y-56936069D01*
X93944637Y-56940082D01*
X93940968Y-56949788D01*
X93938055Y-56962158D01*
X93934700Y-56973317D01*
X93931788Y-56974821D01*
X93929408Y-56967166D01*
X93927651Y-56950853D01*
X93926605Y-56926378D01*
X93926349Y-56897026D01*
X93926755Y-56865092D01*
X93927755Y-56842785D01*
X93929392Y-56829586D01*
X93931709Y-56824979D01*
X93932186Y-56825017D01*
G37*
G36*
X95765749Y-54685981D02*
G01*
X95842780Y-54687380D01*
X95843415Y-54877880D01*
X95843441Y-54922759D01*
X95843232Y-54966011D01*
X95842812Y-55006203D01*
X95842206Y-55041901D01*
X95841438Y-55071672D01*
X95840532Y-55094083D01*
X95839563Y-55107267D01*
X95827413Y-55175597D01*
X95807250Y-55243277D01*
X95780037Y-55307665D01*
X95746737Y-55366121D01*
X95743226Y-55371367D01*
X95720206Y-55401689D01*
X95691093Y-55434601D01*
X95658489Y-55467431D01*
X95624993Y-55497510D01*
X95604175Y-55514169D01*
X95566272Y-55539653D01*
X95521807Y-55564392D01*
X95474328Y-55586663D01*
X95427387Y-55604745D01*
X95400251Y-55613059D01*
X95383076Y-55617553D01*
X95368030Y-55620932D01*
X95353228Y-55623355D01*
X95336786Y-55624979D01*
X95316819Y-55625963D01*
X95291442Y-55626466D01*
X95258770Y-55626645D01*
X95238260Y-55626663D01*
X95201173Y-55626605D01*
X95172364Y-55626313D01*
X95149953Y-55625625D01*
X95132059Y-55624379D01*
X95116799Y-55622415D01*
X95102292Y-55619571D01*
X95086659Y-55615686D01*
X95075700Y-55612718D01*
X95004243Y-55588075D01*
X94936527Y-55554821D01*
X94873414Y-55513755D01*
X94815767Y-55465675D01*
X94764448Y-55411378D01*
X94720321Y-55351663D01*
X94684249Y-55287327D01*
X94660151Y-55228400D01*
X94652819Y-55206262D01*
X94646724Y-55185820D01*
X94641753Y-55165860D01*
X94637791Y-55145166D01*
X94634724Y-55122523D01*
X94632441Y-55096716D01*
X94630825Y-55066531D01*
X94629765Y-55030753D01*
X94629145Y-54988165D01*
X94628853Y-54937555D01*
X94628781Y-54893120D01*
X94628660Y-54687380D01*
X94708670Y-54685982D01*
X94788680Y-54684583D01*
X94788723Y-54846002D01*
X94788967Y-54910536D01*
X94789760Y-54966014D01*
X94791249Y-55013529D01*
X94793580Y-55054176D01*
X94796901Y-55089051D01*
X94801358Y-55119247D01*
X94807099Y-55145859D01*
X94814269Y-55169982D01*
X94823017Y-55192712D01*
X94833488Y-55215142D01*
X94839906Y-55227506D01*
X94876071Y-55285159D01*
X94919178Y-55336362D01*
X94968357Y-55380438D01*
X95022740Y-55416709D01*
X95081458Y-55444500D01*
X95141740Y-55462713D01*
X95168931Y-55466790D01*
X95202949Y-55468968D01*
X95240657Y-55469316D01*
X95278913Y-55467906D01*
X95314580Y-55464808D01*
X95344517Y-55460093D01*
X95353568Y-55457939D01*
X95415602Y-55436063D01*
X95473412Y-55405452D01*
X95526171Y-55366943D01*
X95573054Y-55321376D01*
X95613234Y-55269590D01*
X95645885Y-55212422D01*
X95670181Y-55150713D01*
X95675927Y-55130640D01*
X95678097Y-55120774D01*
X95679918Y-55108556D01*
X95681436Y-55092966D01*
X95682695Y-55072987D01*
X95683740Y-55047601D01*
X95684618Y-55015789D01*
X95685371Y-54976534D01*
X95686045Y-54928817D01*
X95686475Y-54891721D01*
X95688719Y-54684581D01*
X95765749Y-54685981D01*
G37*
G36*
X94336026Y-67187147D02*
G01*
X94362385Y-67197369D01*
X94381894Y-67208170D01*
X94410386Y-67230984D01*
X94433513Y-67260845D01*
X94449383Y-67295252D01*
X94450479Y-67298783D01*
X94455049Y-67318900D01*
X94458655Y-67343526D01*
X94460945Y-67368916D01*
X94461564Y-67391324D01*
X94460524Y-67405160D01*
X94456160Y-67426533D01*
X94450618Y-67448028D01*
X94444706Y-67467001D01*
X94439236Y-67480808D01*
X94435652Y-67486414D01*
X94427714Y-67488875D01*
X94412725Y-67490347D01*
X94393144Y-67490904D01*
X94371429Y-67490622D01*
X94350040Y-67489577D01*
X94331435Y-67487844D01*
X94318074Y-67485498D01*
X94312420Y-67482630D01*
X94314772Y-67478234D01*
X94326116Y-67476378D01*
X94331259Y-67476280D01*
X94359217Y-67471459D01*
X94384974Y-67458025D01*
X94406482Y-67437525D01*
X94421694Y-67411506D01*
X94423536Y-67406560D01*
X94428193Y-67384660D01*
X94429865Y-67357982D01*
X94428538Y-67331262D01*
X94424197Y-67309234D01*
X94423859Y-67308218D01*
X94412987Y-67287985D01*
X94395649Y-67267984D01*
X94375005Y-67251698D01*
X94369888Y-67248718D01*
X94351987Y-67242907D01*
X94328415Y-67240281D01*
X94303137Y-67240806D01*
X94280120Y-67244448D01*
X94265911Y-67249628D01*
X94244302Y-67264404D01*
X94218127Y-67287986D01*
X94187323Y-67320434D01*
X94154979Y-67358003D01*
X94121541Y-67395972D01*
X94090997Y-67425403D01*
X94062138Y-67447051D01*
X94033753Y-67461670D01*
X94004630Y-67470017D01*
X93973560Y-67472845D01*
X93970800Y-67472855D01*
X93939670Y-67470933D01*
X93914673Y-67464460D01*
X93892308Y-67452120D01*
X93872622Y-67435911D01*
X93851036Y-67411069D01*
X93836270Y-67381915D01*
X93827631Y-67346745D01*
X93824916Y-67318800D01*
X93824533Y-67291684D01*
X93825939Y-67264696D01*
X93828826Y-67239703D01*
X93832884Y-67218571D01*
X93837805Y-67203166D01*
X93843282Y-67195355D01*
X93845415Y-67194764D01*
X93854147Y-67195045D01*
X93870172Y-67195433D01*
X93890621Y-67195861D01*
X93899680Y-67196034D01*
X93919815Y-67196877D01*
X93935426Y-67198426D01*
X93944244Y-67200412D01*
X93945400Y-67201454D01*
X93940909Y-67205113D01*
X93929401Y-67209532D01*
X93919847Y-67212157D01*
X93893986Y-67222177D01*
X93874864Y-67238560D01*
X93862106Y-67261920D01*
X93855336Y-67292870D01*
X93853960Y-67319861D01*
X93857828Y-67353889D01*
X93869102Y-67381369D01*
X93887287Y-67401806D01*
X93911886Y-67414704D01*
X93942404Y-67419567D01*
X93953444Y-67419339D01*
X93972819Y-67416645D01*
X93990869Y-67410367D01*
X94008892Y-67399534D01*
X94028180Y-67383172D01*
X94050030Y-67360311D01*
X94075737Y-67329977D01*
X94080804Y-67323735D01*
X94113983Y-67283919D01*
X94143102Y-67252040D01*
X94169274Y-67227291D01*
X94193615Y-67208867D01*
X94217238Y-67195961D01*
X94241259Y-67187767D01*
X94266791Y-67183477D01*
X94275600Y-67182790D01*
X94308475Y-67182616D01*
X94336026Y-67187147D01*
G37*
G36*
X94198524Y-63243969D02*
G01*
X94203047Y-63254975D01*
X94204339Y-63259358D01*
X94209821Y-63272951D01*
X94216770Y-63281966D01*
X94218505Y-63283031D01*
X94226165Y-63284383D01*
X94242255Y-63285849D01*
X94265046Y-63287317D01*
X94292809Y-63288679D01*
X94323816Y-63289825D01*
X94326373Y-63289903D01*
X94425406Y-63292900D01*
X94433925Y-63311022D01*
X94442890Y-63336411D01*
X94450033Y-63369156D01*
X94455087Y-63406573D01*
X94457786Y-63445977D01*
X94457863Y-63484686D01*
X94455051Y-63520014D01*
X94454850Y-63521500D01*
X94444255Y-63570403D01*
X94426807Y-63617312D01*
X94403668Y-63659626D01*
X94378873Y-63691696D01*
X94343533Y-63722734D01*
X94302906Y-63746164D01*
X94258472Y-63761956D01*
X94211711Y-63770082D01*
X94164104Y-63770510D01*
X94117132Y-63763212D01*
X94072275Y-63748158D01*
X94031014Y-63725317D01*
X93999432Y-63699325D01*
X93971345Y-63667117D01*
X93949817Y-63631582D01*
X93934110Y-63591013D01*
X93923488Y-63543706D01*
X93919617Y-63514870D01*
X93917719Y-63494364D01*
X93916813Y-63474934D01*
X93917016Y-63454730D01*
X93918443Y-63431906D01*
X93921210Y-63404613D01*
X93925432Y-63371002D01*
X93931226Y-63329225D01*
X93931242Y-63329109D01*
X93937660Y-63284037D01*
X93970740Y-63287163D01*
X93992851Y-63288882D01*
X94015122Y-63290033D01*
X94027950Y-63290324D01*
X94043806Y-63291540D01*
X94051116Y-63294562D01*
X94049381Y-63298544D01*
X94038097Y-63302638D01*
X94035570Y-63303205D01*
X94007462Y-63314064D01*
X93984514Y-63333586D01*
X93966789Y-63361646D01*
X93954349Y-63398118D01*
X93947256Y-63442877D01*
X93945475Y-63484218D01*
X93949276Y-63535987D01*
X93960735Y-63581111D01*
X93979680Y-63619420D01*
X94005940Y-63650744D01*
X94039342Y-63674914D01*
X94079716Y-63691761D01*
X94126891Y-63701113D01*
X94166698Y-63703108D01*
X94218004Y-63698249D01*
X94266040Y-63684577D01*
X94309743Y-63662726D01*
X94348046Y-63633329D01*
X94379888Y-63597019D01*
X94399395Y-63564624D01*
X94411659Y-63534919D01*
X94420378Y-63503028D01*
X94425587Y-63470553D01*
X94427319Y-63439093D01*
X94425607Y-63410249D01*
X94420487Y-63385620D01*
X94411992Y-63366808D01*
X94400156Y-63355412D01*
X94394916Y-63353391D01*
X94384828Y-63352300D01*
X94367190Y-63351783D01*
X94344217Y-63351773D01*
X94318124Y-63352204D01*
X94291126Y-63353010D01*
X94265438Y-63354125D01*
X94243275Y-63355483D01*
X94226853Y-63357018D01*
X94218406Y-63358655D01*
X94210431Y-63366406D01*
X94206976Y-63374741D01*
X94203842Y-63389927D01*
X94201843Y-63399580D01*
X94198261Y-63409114D01*
X94194509Y-63412280D01*
X94192888Y-63407438D01*
X94191549Y-63393860D01*
X94190567Y-63372965D01*
X94190016Y-63346176D01*
X94189926Y-63325920D01*
X94190213Y-63297581D01*
X94190936Y-63273148D01*
X94192009Y-63254271D01*
X94193342Y-63242601D01*
X94194524Y-63239560D01*
X94198524Y-63243969D01*
G37*
G36*
X94322176Y-61728755D02*
G01*
X94360578Y-61739388D01*
X94393543Y-61758334D01*
X94420592Y-61785189D01*
X94441248Y-61819550D01*
X94455031Y-61861014D01*
X94458301Y-61878120D01*
X94461205Y-61897905D01*
X94462525Y-61912874D01*
X94462246Y-61927026D01*
X94460356Y-61944361D01*
X94458021Y-61960844D01*
X94453652Y-61982130D01*
X94447327Y-62003525D01*
X94443686Y-62012914D01*
X94433651Y-62035600D01*
X94380441Y-62035600D01*
X94357490Y-62035317D01*
X94337834Y-62034553D01*
X94324018Y-62033436D01*
X94319195Y-62032517D01*
X94311644Y-62027645D01*
X94313258Y-62023320D01*
X94323057Y-62020635D01*
X94330210Y-62020249D01*
X94358912Y-62015391D01*
X94384109Y-62002106D01*
X94404858Y-61981797D01*
X94420219Y-61955869D01*
X94429252Y-61925724D01*
X94431014Y-61892768D01*
X94428483Y-61873650D01*
X94418819Y-61842336D01*
X94403267Y-61818363D01*
X94380569Y-61800031D01*
X94369650Y-61794112D01*
X94351118Y-61786005D01*
X94335804Y-61782432D01*
X94318424Y-61782365D01*
X94311873Y-61782889D01*
X94291323Y-61786313D01*
X94271376Y-61792105D01*
X94262532Y-61795889D01*
X94249295Y-61804871D01*
X94231617Y-61819812D01*
X94211478Y-61838794D01*
X94190859Y-61859903D01*
X94171740Y-61881222D01*
X94161778Y-61893360D01*
X94142961Y-61915520D01*
X94120927Y-61938677D01*
X94097829Y-61960810D01*
X94075820Y-61979896D01*
X94057054Y-61993912D01*
X94050541Y-61997863D01*
X94034320Y-62005652D01*
X94018271Y-62010459D01*
X93998567Y-62013188D01*
X93980694Y-62014338D01*
X93957087Y-62014984D01*
X93939844Y-62013893D01*
X93925246Y-62010571D01*
X93910653Y-62004986D01*
X93879957Y-61986520D01*
X93855792Y-61960608D01*
X93838322Y-61927724D01*
X93827711Y-61888338D01*
X93824122Y-61842924D01*
X93827719Y-61791954D01*
X93830514Y-61773980D01*
X93834001Y-61755475D01*
X93837154Y-61744863D01*
X93841185Y-61739995D01*
X93847310Y-61738725D01*
X93850432Y-61738738D01*
X93862053Y-61739009D01*
X93880220Y-61739433D01*
X93901322Y-61739927D01*
X93904760Y-61740008D01*
X93926543Y-61741231D01*
X93940084Y-61743494D01*
X93944904Y-61746499D01*
X93940522Y-61749948D01*
X93926525Y-61753531D01*
X93898713Y-61762211D01*
X93878245Y-61776895D01*
X93864476Y-61798389D01*
X93856758Y-61827502D01*
X93855136Y-61842591D01*
X93854243Y-61873292D01*
X93856970Y-61896793D01*
X93863891Y-61915585D01*
X93875575Y-61932160D01*
X93875721Y-61932326D01*
X93898901Y-61952194D01*
X93925541Y-61962614D01*
X93944906Y-61964480D01*
X93965262Y-61962806D01*
X93984332Y-61957192D01*
X94003346Y-61946749D01*
X94023537Y-61930592D01*
X94046137Y-61907832D01*
X94072378Y-61877583D01*
X94082238Y-61865570D01*
X94114495Y-61826916D01*
X94142517Y-61796015D01*
X94167491Y-61772027D01*
X94190606Y-61754113D01*
X94213052Y-61741435D01*
X94236015Y-61733154D01*
X94260686Y-61728431D01*
X94278815Y-61726837D01*
X94322176Y-61728755D01*
G37*
G36*
X95845320Y-58835200D02*
G01*
X95845320Y-58916480D01*
X95805918Y-58916480D01*
X95780150Y-58917278D01*
X95749332Y-58919462D01*
X95716110Y-58922718D01*
X95683125Y-58926732D01*
X95653021Y-58931191D01*
X95628442Y-58935781D01*
X95615213Y-58939123D01*
X95579277Y-58953650D01*
X95540462Y-58975412D01*
X95500953Y-59002837D01*
X95462937Y-59034355D01*
X95428600Y-59068393D01*
X95417039Y-59081580D01*
X95391380Y-59116964D01*
X95367919Y-59158315D01*
X95348596Y-59201746D01*
X95335353Y-59243372D01*
X95334574Y-59246680D01*
X95330662Y-59269292D01*
X95327282Y-59299451D01*
X95324680Y-59334550D01*
X95323316Y-59364790D01*
X95320740Y-59444800D01*
X95583030Y-59444800D01*
X95845320Y-59444800D01*
X95845320Y-59526080D01*
X95845320Y-59607360D01*
X95235720Y-59607360D01*
X94788680Y-59607360D01*
X94626120Y-59607360D01*
X94626234Y-59444800D01*
X94788680Y-59444800D01*
X94974444Y-59444800D01*
X95160209Y-59444800D01*
X95158594Y-59263190D01*
X95156980Y-59081580D01*
X95143324Y-59052443D01*
X95123271Y-59020065D01*
X95095759Y-58990546D01*
X95063486Y-58966587D01*
X95050235Y-58959354D01*
X95033805Y-58951900D01*
X95019447Y-58947415D01*
X95003461Y-58945174D01*
X94982148Y-58944450D01*
X94974100Y-58944420D01*
X94950449Y-58944828D01*
X94933240Y-58946535D01*
X94918769Y-58950267D01*
X94903335Y-58956752D01*
X94897900Y-58959374D01*
X94861173Y-58982717D01*
X94831295Y-59012841D01*
X94809149Y-59048550D01*
X94795619Y-59088647D01*
X94793464Y-59100713D01*
X94792302Y-59113828D01*
X94791241Y-59135522D01*
X94790321Y-59164215D01*
X94789582Y-59198326D01*
X94789063Y-59236274D01*
X94788803Y-59276478D01*
X94788782Y-59288590D01*
X94788680Y-59444800D01*
X94626234Y-59444800D01*
X94626297Y-59354630D01*
X94626399Y-59291488D01*
X94626655Y-59237554D01*
X94627131Y-59191876D01*
X94627895Y-59153502D01*
X94629013Y-59121482D01*
X94630553Y-59094863D01*
X94632580Y-59072694D01*
X94635163Y-59054023D01*
X94638368Y-59037898D01*
X94642262Y-59023368D01*
X94646912Y-59009481D01*
X94651394Y-58997760D01*
X94677282Y-58945653D01*
X94710771Y-58899687D01*
X94751157Y-58860637D01*
X94797738Y-58829274D01*
X94811097Y-58822316D01*
X94850738Y-58804551D01*
X94886561Y-58792687D01*
X94922304Y-58785836D01*
X94961708Y-58783108D01*
X94976640Y-58782962D01*
X95037372Y-58787023D01*
X95092026Y-58799053D01*
X95141009Y-58819208D01*
X95184731Y-58847638D01*
X95209789Y-58869896D01*
X95226272Y-58887577D01*
X95243775Y-58908514D01*
X95260560Y-58930381D01*
X95274888Y-58950858D01*
X95285020Y-58967621D01*
X95288320Y-58974814D01*
X95292371Y-58973243D01*
X95302366Y-58965572D01*
X95317052Y-58952867D01*
X95335175Y-58936199D01*
X95348039Y-58923905D01*
X95393400Y-58882379D01*
X95436107Y-58848776D01*
X95478086Y-58821951D01*
X95521260Y-58800757D01*
X95567555Y-58784048D01*
X95596341Y-58776024D01*
X95634224Y-58768162D01*
X95679090Y-58761721D01*
X95727817Y-58757032D01*
X95777288Y-58754425D01*
X95803410Y-58754001D01*
X95845320Y-58753920D01*
X95845320Y-58835200D01*
G37*
G36*
X95329500Y-57484617D02*
G01*
X95400318Y-57497723D01*
X95434711Y-57507341D01*
X95505665Y-57534898D01*
X95572250Y-57571481D01*
X95634750Y-57617265D01*
X95678001Y-57656640D01*
X95725212Y-57708141D01*
X95763198Y-57760447D01*
X95792854Y-57815253D01*
X95815077Y-57874252D01*
X95830762Y-57939140D01*
X95832478Y-57948740D01*
X95836438Y-57976494D01*
X95839659Y-58008111D01*
X95841975Y-58040728D01*
X95843219Y-58071480D01*
X95843222Y-58097504D01*
X95842116Y-58113840D01*
X95837136Y-58147831D01*
X95830822Y-58183391D01*
X95823736Y-58217866D01*
X95816436Y-58248601D01*
X95809486Y-58272941D01*
X95806962Y-58280206D01*
X95778972Y-58340778D01*
X95742055Y-58398378D01*
X95697223Y-58452136D01*
X95645487Y-58501181D01*
X95587861Y-58544643D01*
X95525357Y-58581651D01*
X95458987Y-58611335D01*
X95399773Y-58630293D01*
X95363550Y-58637651D01*
X95320422Y-58642982D01*
X95273462Y-58646173D01*
X95235696Y-58646914D01*
X95225743Y-58647109D01*
X95180339Y-58645676D01*
X95140323Y-58641760D01*
X95130890Y-58640271D01*
X95056348Y-58622605D01*
X94985518Y-58596514D01*
X94919118Y-58562638D01*
X94857867Y-58521613D01*
X94802486Y-58474078D01*
X94753693Y-58420671D01*
X94712206Y-58362030D01*
X94678746Y-58298792D01*
X94654031Y-58231597D01*
X94648905Y-58212674D01*
X94635660Y-58149660D01*
X94629119Y-58091103D01*
X94629243Y-58049222D01*
X94793386Y-58049222D01*
X94794173Y-58091403D01*
X94797997Y-58131568D01*
X94803815Y-58162100D01*
X94823422Y-58219081D01*
X94851916Y-58272187D01*
X94888530Y-58320697D01*
X94932492Y-58363892D01*
X94983033Y-58401051D01*
X95039383Y-58431454D01*
X95100773Y-58454380D01*
X95122429Y-58460287D01*
X95155374Y-58466371D01*
X95194188Y-58470223D01*
X95235696Y-58471806D01*
X95276726Y-58471083D01*
X95314105Y-58468018D01*
X95343605Y-58462839D01*
X95411640Y-58441228D01*
X95473742Y-58411434D01*
X95530255Y-58373265D01*
X95576080Y-58332142D01*
X95615190Y-58286959D01*
X95645002Y-58239870D01*
X95666373Y-58189254D01*
X95679697Y-58136097D01*
X95685576Y-58094490D01*
X95686895Y-58056691D01*
X95683664Y-58017619D01*
X95680037Y-57994231D01*
X95664642Y-57934580D01*
X95640053Y-57879176D01*
X95606371Y-57828164D01*
X95563700Y-57781694D01*
X95512141Y-57739914D01*
X95496435Y-57729277D01*
X95445569Y-57699815D01*
X95394816Y-57678378D01*
X95341867Y-57664305D01*
X95284411Y-57656936D01*
X95238260Y-57655409D01*
X95175948Y-57658314D01*
X95119829Y-57667462D01*
X95067612Y-57683510D01*
X95017005Y-57707111D01*
X94980354Y-57729101D01*
X94927022Y-57769249D01*
X94882088Y-57814563D01*
X94845821Y-57864676D01*
X94818487Y-57919224D01*
X94801145Y-57974358D01*
X94795692Y-58008912D01*
X94793386Y-58049222D01*
X94629243Y-58049222D01*
X94629288Y-58033963D01*
X94636169Y-57975201D01*
X94649317Y-57913557D01*
X94671405Y-57846334D01*
X94702594Y-57782273D01*
X94742102Y-57722181D01*
X94789145Y-57666865D01*
X94842942Y-57617133D01*
X94902711Y-57573792D01*
X94967668Y-57537649D01*
X95037032Y-57509511D01*
X95042813Y-57507609D01*
X95110227Y-57490552D01*
X95182069Y-57481033D01*
X95255955Y-57479055D01*
X95329500Y-57484617D01*
G37*
G36*
X94642110Y-63337302D02*
G01*
X94660624Y-63347239D01*
X94684452Y-63360697D01*
X94711961Y-63376710D01*
X94741522Y-63394315D01*
X94771502Y-63412549D01*
X94800270Y-63430448D01*
X94826194Y-63447048D01*
X94831829Y-63450743D01*
X94891211Y-63491001D01*
X94943333Y-63528864D01*
X94990257Y-63565975D01*
X95034045Y-63603981D01*
X95076759Y-63644525D01*
X95084536Y-63652263D01*
X95105384Y-63672998D01*
X95123747Y-63690987D01*
X95138438Y-63705088D01*
X95148268Y-63714159D01*
X95151999Y-63717080D01*
X95156883Y-63714022D01*
X95167449Y-63705891D01*
X95181685Y-63694252D01*
X95186342Y-63690334D01*
X95254190Y-63637956D01*
X95329393Y-63589586D01*
X95412592Y-63544873D01*
X95504429Y-63503468D01*
X95586240Y-63471879D01*
X95615536Y-63461659D01*
X95648291Y-63450814D01*
X95682901Y-63439816D01*
X95717759Y-63429139D01*
X95751260Y-63419253D01*
X95781798Y-63410633D01*
X95807769Y-63403748D01*
X95827566Y-63399073D01*
X95839584Y-63397079D01*
X95840650Y-63397040D01*
X95842250Y-63401873D01*
X95843595Y-63415387D01*
X95844603Y-63436102D01*
X95845196Y-63462542D01*
X95845320Y-63483093D01*
X95845320Y-63569146D01*
X95800870Y-63582605D01*
X95727026Y-63605708D01*
X95661809Y-63627808D01*
X95603815Y-63649521D01*
X95551641Y-63671461D01*
X95503883Y-63694243D01*
X95459138Y-63718480D01*
X95416001Y-63744789D01*
X95388120Y-63763319D01*
X95365918Y-63779200D01*
X95342533Y-63797076D01*
X95319382Y-63815727D01*
X95297881Y-63833934D01*
X95279447Y-63850479D01*
X95265497Y-63864142D01*
X95257448Y-63873705D01*
X95256040Y-63876960D01*
X95257840Y-63884776D01*
X95262607Y-63899148D01*
X95269391Y-63917259D01*
X95270960Y-63921214D01*
X95278465Y-63940899D01*
X95285607Y-63961901D01*
X95293027Y-63986343D01*
X95301369Y-64016346D01*
X95311274Y-64054033D01*
X95311814Y-64056125D01*
X95317367Y-64077669D01*
X95580073Y-64078985D01*
X95842780Y-64080300D01*
X95844176Y-64162961D01*
X95844534Y-64195573D01*
X95844295Y-64219210D01*
X95843389Y-64235046D01*
X95841746Y-64244252D01*
X95839296Y-64248002D01*
X95839096Y-64248089D01*
X95833276Y-64248395D01*
X95817929Y-64248669D01*
X95793690Y-64248909D01*
X95761193Y-64249113D01*
X95721070Y-64249282D01*
X95673957Y-64249413D01*
X95620486Y-64249506D01*
X95561291Y-64249558D01*
X95497007Y-64249570D01*
X95428267Y-64249539D01*
X95355704Y-64249465D01*
X95279953Y-64249347D01*
X95230640Y-64249248D01*
X94628660Y-64247940D01*
X94627268Y-64166204D01*
X94625876Y-64084468D01*
X94741119Y-64081114D01*
X94779287Y-64080175D01*
X94824588Y-64079336D01*
X94873995Y-64078639D01*
X94924481Y-64078120D01*
X94973019Y-64077820D01*
X95002537Y-64077760D01*
X95148712Y-64077760D01*
X95138651Y-64040930D01*
X95117468Y-63980867D01*
X95086780Y-63920018D01*
X95047143Y-63858997D01*
X94999116Y-63798418D01*
X94943256Y-63738894D01*
X94880120Y-63681040D01*
X94810267Y-63625470D01*
X94734253Y-63572797D01*
X94686774Y-63543348D01*
X94626120Y-63507270D01*
X94626120Y-63418712D01*
X94626359Y-63390142D01*
X94627022Y-63365600D01*
X94628029Y-63346675D01*
X94629299Y-63334954D01*
X94630542Y-63331847D01*
X94642110Y-63337302D01*
G37*
G36*
X94398299Y-56375016D02*
G01*
X94407600Y-56376467D01*
X94429721Y-56381181D01*
X94443054Y-56386570D01*
X94448393Y-56391858D01*
X94450539Y-56401015D01*
X94451935Y-56417350D01*
X94452371Y-56437896D01*
X94452246Y-56445997D01*
X94451788Y-56465927D01*
X94451237Y-56493362D01*
X94450641Y-56525648D01*
X94450049Y-56560129D01*
X94449596Y-56588570D01*
X94448819Y-56623013D01*
X94447675Y-56650957D01*
X94446227Y-56671431D01*
X94444541Y-56683462D01*
X94443130Y-56686360D01*
X94439220Y-56682052D01*
X94438082Y-56674930D01*
X94435380Y-56660407D01*
X94426192Y-56651045D01*
X94412436Y-56645628D01*
X94403277Y-56644466D01*
X94384889Y-56643421D01*
X94358201Y-56642513D01*
X94324143Y-56641762D01*
X94283644Y-56641188D01*
X94237634Y-56640809D01*
X94187043Y-56640646D01*
X94176090Y-56640640D01*
X94121360Y-56640630D01*
X94075914Y-56640683D01*
X94038879Y-56640932D01*
X94009379Y-56641505D01*
X93986539Y-56642533D01*
X93969485Y-56644146D01*
X93957341Y-56646473D01*
X93949234Y-56649646D01*
X93944287Y-56653793D01*
X93941627Y-56659045D01*
X93940378Y-56665532D01*
X93939666Y-56673384D01*
X93939447Y-56675809D01*
X93936812Y-56688022D01*
X93932582Y-56694825D01*
X93932027Y-56695083D01*
X93930187Y-56692616D01*
X93928777Y-56683415D01*
X93927771Y-56666810D01*
X93927144Y-56642131D01*
X93926870Y-56608706D01*
X93926924Y-56565866D01*
X93926947Y-56560855D01*
X93927034Y-56523697D01*
X93926933Y-56489050D01*
X93926663Y-56458467D01*
X93926243Y-56433500D01*
X93925691Y-56415702D01*
X93925080Y-56406960D01*
X93924070Y-56395198D01*
X93926645Y-56390700D01*
X93933778Y-56390737D01*
X93944793Y-56392130D01*
X93961753Y-56394135D01*
X93976544Y-56395817D01*
X93993302Y-56398750D01*
X94005285Y-56402748D01*
X94011305Y-56406896D01*
X94010176Y-56410279D01*
X94000709Y-56411982D01*
X93997594Y-56412040D01*
X93983676Y-56414196D01*
X93974332Y-56418390D01*
X93967453Y-56428699D01*
X93961994Y-56447349D01*
X93958240Y-56472589D01*
X93956475Y-56502662D01*
X93956627Y-56527311D01*
X93958100Y-56572060D01*
X94057160Y-56572060D01*
X94156220Y-56572060D01*
X94156220Y-56500701D01*
X94156024Y-56471036D01*
X94155307Y-56449678D01*
X94153873Y-56434782D01*
X94151529Y-56424499D01*
X94148078Y-56416984D01*
X94147245Y-56415660D01*
X94138270Y-56401979D01*
X94185345Y-56405121D01*
X94211247Y-56407512D01*
X94229104Y-56410532D01*
X94238486Y-56413915D01*
X94238962Y-56417397D01*
X94230100Y-56420710D01*
X94214687Y-56423221D01*
X94205591Y-56426243D01*
X94198865Y-56433666D01*
X94194125Y-56446779D01*
X94190987Y-56466872D01*
X94189067Y-56495233D01*
X94188496Y-56511100D01*
X94186700Y-56572060D01*
X94273060Y-56573587D01*
X94315542Y-56574232D01*
X94348955Y-56574046D01*
X94374387Y-56572355D01*
X94392928Y-56568485D01*
X94405666Y-56561762D01*
X94413690Y-56551514D01*
X94418090Y-56537067D01*
X94419955Y-56517747D01*
X94420373Y-56492881D01*
X94420380Y-56482486D01*
X94419721Y-56451275D01*
X94417208Y-56428383D01*
X94412033Y-56412024D01*
X94403387Y-56400410D01*
X94390463Y-56391757D01*
X94376676Y-56385830D01*
X94363921Y-56379912D01*
X94360466Y-56375641D01*
X94365550Y-56373248D01*
X94378415Y-56372963D01*
X94398299Y-56375016D01*
G37*
G36*
X93937246Y-53754042D02*
G01*
X93940707Y-53763839D01*
X93944058Y-53775795D01*
X93949552Y-53787131D01*
X93958089Y-53798614D01*
X93970568Y-53811015D01*
X93987888Y-53825103D01*
X94010949Y-53841647D01*
X94040650Y-53861417D01*
X94077891Y-53885183D01*
X94095260Y-53896080D01*
X94129311Y-53917452D01*
X94156296Y-53934220D01*
X94177905Y-53946925D01*
X94195833Y-53956109D01*
X94211772Y-53962312D01*
X94227416Y-53966075D01*
X94244458Y-53967941D01*
X94264591Y-53968449D01*
X94289507Y-53968141D01*
X94318992Y-53967589D01*
X94355702Y-53966912D01*
X94383545Y-53965899D01*
X94403810Y-53964095D01*
X94417792Y-53961042D01*
X94426780Y-53956283D01*
X94432066Y-53949362D01*
X94434941Y-53939821D01*
X94436698Y-53927205D01*
X94436845Y-53925904D01*
X94439260Y-53912098D01*
X94442383Y-53903703D01*
X94443900Y-53902520D01*
X94445306Y-53907334D01*
X94446527Y-53920712D01*
X94447487Y-53941058D01*
X94448110Y-53966777D01*
X94448320Y-53994807D01*
X94448132Y-54023852D01*
X94447609Y-54048749D01*
X94446814Y-54067985D01*
X94445809Y-54080049D01*
X94444687Y-54083461D01*
X94440715Y-54076464D01*
X94436049Y-54064462D01*
X94435797Y-54063697D01*
X94428306Y-54050363D01*
X94417840Y-54041158D01*
X94407365Y-54038577D01*
X94388932Y-54036651D01*
X94364722Y-54035379D01*
X94336914Y-54034757D01*
X94307689Y-54034781D01*
X94279227Y-54035448D01*
X94253709Y-54036755D01*
X94233316Y-54038699D01*
X94220226Y-54041277D01*
X94219720Y-54041452D01*
X94208134Y-54046920D01*
X94189707Y-54057156D01*
X94165972Y-54071178D01*
X94138464Y-54088004D01*
X94108717Y-54106653D01*
X94078266Y-54126144D01*
X94048644Y-54145493D01*
X94021388Y-54163721D01*
X93998030Y-54179844D01*
X93980106Y-54192882D01*
X93969483Y-54201540D01*
X93956047Y-54215838D01*
X93945690Y-54230135D01*
X93941310Y-54239463D01*
X93936915Y-54250826D01*
X93931898Y-54256693D01*
X93931831Y-54256717D01*
X93929423Y-54253230D01*
X93927725Y-54240684D01*
X93926710Y-54218728D01*
X93926351Y-54187006D01*
X93926350Y-54184672D01*
X93926558Y-54158589D01*
X93927132Y-54136547D01*
X93927994Y-54120329D01*
X93929066Y-54111720D01*
X93929573Y-54110800D01*
X93934407Y-54114599D01*
X93939453Y-54121460D01*
X93948835Y-54129494D01*
X93956247Y-54129469D01*
X93964340Y-54125913D01*
X93978964Y-54118091D01*
X93998760Y-54106837D01*
X94022370Y-54092986D01*
X94048435Y-54077374D01*
X94075596Y-54060836D01*
X94102496Y-54044207D01*
X94127776Y-54028322D01*
X94150076Y-54014016D01*
X94168040Y-54002124D01*
X94180307Y-53993481D01*
X94185520Y-53988923D01*
X94185552Y-53988510D01*
X94180229Y-53985002D01*
X94167398Y-53977125D01*
X94148320Y-53965636D01*
X94124261Y-53951293D01*
X94096481Y-53934853D01*
X94076963Y-53923363D01*
X94040060Y-53901919D01*
X94010758Y-53885549D01*
X93988076Y-53873884D01*
X93971035Y-53866558D01*
X93958656Y-53863201D01*
X93949959Y-53863446D01*
X93943964Y-53866925D01*
X93940320Y-53872040D01*
X93934379Y-53880063D01*
X93930642Y-53882200D01*
X93928851Y-53877512D01*
X93927657Y-53864976D01*
X93927025Y-53846883D01*
X93926920Y-53825525D01*
X93927306Y-53803194D01*
X93928146Y-53782183D01*
X93929406Y-53764782D01*
X93931050Y-53753284D01*
X93932700Y-53749864D01*
X93937246Y-53754042D01*
G37*
G36*
X95312233Y-65403202D02*
G01*
X95389379Y-65416500D01*
X95464984Y-65439028D01*
X95527274Y-65466375D01*
X95586696Y-65501619D01*
X95642142Y-65543643D01*
X95692504Y-65591333D01*
X95736675Y-65643570D01*
X95773549Y-65699240D01*
X95802017Y-65757226D01*
X95814077Y-65790944D01*
X95826216Y-65838236D01*
X95835332Y-65890146D01*
X95841101Y-65943436D01*
X95843199Y-65994868D01*
X95841304Y-66041207D01*
X95840140Y-66051838D01*
X95832849Y-66098054D01*
X95822980Y-66143727D01*
X95811333Y-66185574D01*
X95799632Y-66218116D01*
X95774248Y-66268716D01*
X95740573Y-66319714D01*
X95700194Y-66369139D01*
X95654699Y-66415019D01*
X95612728Y-66450111D01*
X95581454Y-66471274D01*
X95543509Y-66492898D01*
X95502162Y-66513406D01*
X95460684Y-66531223D01*
X95422344Y-66544774D01*
X95407794Y-66548857D01*
X95327988Y-66564257D01*
X95248662Y-66570200D01*
X95240800Y-66569865D01*
X95170599Y-66566873D01*
X95094582Y-66554464D01*
X95021394Y-66533161D01*
X94951818Y-66503152D01*
X94886637Y-66464623D01*
X94826634Y-66417763D01*
X94814569Y-66406697D01*
X94761991Y-66351364D01*
X94718581Y-66292904D01*
X94683907Y-66230445D01*
X94657539Y-66163114D01*
X94639046Y-66090040D01*
X94630513Y-66034659D01*
X94628435Y-65987494D01*
X94793282Y-65987494D01*
X94794097Y-66023890D01*
X94797200Y-66055191D01*
X94798292Y-66061500D01*
X94814462Y-66119285D01*
X94839708Y-66173528D01*
X94873365Y-66223570D01*
X94914765Y-66268749D01*
X94963242Y-66308407D01*
X95018130Y-66341882D01*
X95078763Y-66368514D01*
X95121849Y-66382088D01*
X95138662Y-66385956D01*
X95156923Y-66388635D01*
X95178828Y-66390294D01*
X95206571Y-66391102D01*
X95240800Y-66391232D01*
X95273205Y-66390977D01*
X95297841Y-66390299D01*
X95317097Y-66388937D01*
X95333361Y-66386633D01*
X95349023Y-66383129D01*
X95366471Y-66378165D01*
X95369306Y-66377304D01*
X95433718Y-66353120D01*
X95491857Y-66322123D01*
X95543282Y-66284942D01*
X95587553Y-66242208D01*
X95624229Y-66194550D01*
X95652870Y-66142598D01*
X95673036Y-66086982D01*
X95684284Y-66028331D01*
X95686177Y-65967276D01*
X95682591Y-65929420D01*
X95669521Y-65869638D01*
X95647805Y-65814907D01*
X95617026Y-65764358D01*
X95584833Y-65725525D01*
X95533545Y-65677499D01*
X95477905Y-65638563D01*
X95417432Y-65608412D01*
X95375420Y-65593417D01*
X95358218Y-65588339D01*
X95343313Y-65584658D01*
X95328527Y-65582150D01*
X95311679Y-65580593D01*
X95290590Y-65579764D01*
X95263081Y-65579441D01*
X95238260Y-65579396D01*
X95204781Y-65579497D01*
X95179295Y-65579946D01*
X95159634Y-65580963D01*
X95143631Y-65582767D01*
X95129120Y-65585577D01*
X95113932Y-65589613D01*
X95102078Y-65593180D01*
X95040284Y-65616824D01*
X94983562Y-65647764D01*
X94932699Y-65685229D01*
X94888483Y-65728449D01*
X94851701Y-65776652D01*
X94823141Y-65829067D01*
X94803590Y-65884924D01*
X94803453Y-65885458D01*
X94798070Y-65914507D01*
X94794643Y-65949777D01*
X94793282Y-65987494D01*
X94628435Y-65987494D01*
X94627951Y-65976517D01*
X94632965Y-65914697D01*
X94644967Y-65851568D01*
X94663369Y-65789500D01*
X94687583Y-65730861D01*
X94717020Y-65678020D01*
X94720380Y-65672918D01*
X94767540Y-65611319D01*
X94821196Y-65557047D01*
X94880557Y-65510352D01*
X94944833Y-65471482D01*
X95013231Y-65440685D01*
X95084962Y-65418210D01*
X95159233Y-65404306D01*
X95235253Y-65399220D01*
X95312233Y-65403202D01*
G37*
G36*
X94398195Y-63916045D02*
G01*
X94398961Y-63916147D01*
X94421341Y-63919459D01*
X94435663Y-63922574D01*
X94443976Y-63926323D01*
X94448330Y-63931538D01*
X94450242Y-63936959D01*
X94451087Y-63940687D01*
X94451722Y-63945494D01*
X94452138Y-63952417D01*
X94452324Y-63962493D01*
X94452272Y-63976759D01*
X94451972Y-63996253D01*
X94451416Y-64022012D01*
X94450594Y-64055074D01*
X94449496Y-64096477D01*
X94448486Y-64133640D01*
X94447365Y-64166899D01*
X94446038Y-64193208D01*
X94444568Y-64211750D01*
X94443019Y-64221711D01*
X94441556Y-64222540D01*
X94436093Y-64209188D01*
X94432839Y-64201091D01*
X94424824Y-64191409D01*
X94414202Y-64185851D01*
X94406249Y-64185019D01*
X94389253Y-64184248D01*
X94364334Y-64183554D01*
X94332609Y-64182958D01*
X94295196Y-64182476D01*
X94253213Y-64182130D01*
X94207778Y-64181936D01*
X94178065Y-64181900D01*
X94121362Y-64181970D01*
X94074120Y-64182192D01*
X94035643Y-64182584D01*
X94005232Y-64183166D01*
X93982190Y-64183958D01*
X93965820Y-64184978D01*
X93955423Y-64186245D01*
X93950303Y-64187779D01*
X93949820Y-64188150D01*
X93945143Y-64196959D01*
X93941328Y-64211033D01*
X93940674Y-64215009D01*
X93937792Y-64227433D01*
X93934033Y-64233888D01*
X93932700Y-64234160D01*
X93931028Y-64228603D01*
X93929832Y-64213286D01*
X93929121Y-64188599D01*
X93928905Y-64154933D01*
X93929196Y-64112675D01*
X93929283Y-64105700D01*
X93929553Y-64069286D01*
X93929422Y-64034920D01*
X93928926Y-64004333D01*
X93928102Y-63979257D01*
X93926987Y-63961422D01*
X93926075Y-63954280D01*
X93921203Y-63929860D01*
X93949811Y-63932904D01*
X93976836Y-63936007D01*
X93995097Y-63938729D01*
X94005971Y-63941360D01*
X94010831Y-63944191D01*
X94011440Y-63945911D01*
X94007084Y-63949533D01*
X93998509Y-63950760D01*
X93985858Y-63954280D01*
X93973595Y-63962744D01*
X93973589Y-63962749D01*
X93964715Y-63977857D01*
X93958842Y-64002079D01*
X93956066Y-64034797D01*
X93956472Y-64075220D01*
X93958100Y-64110780D01*
X94058908Y-64112159D01*
X94159717Y-64113538D01*
X94157957Y-64041039D01*
X94157053Y-64011312D01*
X94155849Y-63989867D01*
X94154091Y-63974825D01*
X94151528Y-63964310D01*
X94147906Y-63956442D01*
X94146230Y-63953801D01*
X94136263Y-63939061D01*
X94153861Y-63942094D01*
X94168342Y-63944210D01*
X94188211Y-63946650D01*
X94205688Y-63948528D01*
X94225342Y-63951225D01*
X94235300Y-63954363D01*
X94235422Y-63957806D01*
X94225570Y-63961416D01*
X94220056Y-63962631D01*
X94208781Y-63966366D01*
X94200604Y-63973360D01*
X94194987Y-63985097D01*
X94191394Y-64003060D01*
X94189285Y-64028735D01*
X94188469Y-64049820D01*
X94186700Y-64110780D01*
X94289165Y-64112154D01*
X94323858Y-64112591D01*
X94349881Y-64112747D01*
X94368725Y-64112483D01*
X94381881Y-64111659D01*
X94390837Y-64110133D01*
X94397085Y-64107766D01*
X94402114Y-64104418D01*
X94406005Y-64101158D01*
X94411985Y-64095722D01*
X94416022Y-64090263D01*
X94418499Y-64082786D01*
X94419797Y-64071293D01*
X94420297Y-64053788D01*
X94420379Y-64028275D01*
X94420380Y-64025896D01*
X94420030Y-63994519D01*
X94418343Y-63971525D01*
X94414357Y-63955141D01*
X94407114Y-63943596D01*
X94395654Y-63935120D01*
X94379018Y-63927942D01*
X94364642Y-63923023D01*
X94357432Y-63919374D01*
X94358776Y-63916532D01*
X94367080Y-63914817D01*
X94380751Y-63914548D01*
X94398195Y-63916045D01*
G37*
G36*
X95831971Y-66674910D02*
G01*
X95837765Y-66675503D01*
X95840725Y-66678250D01*
X95842824Y-66684808D01*
X95844196Y-66696605D01*
X95844974Y-66715069D01*
X95845291Y-66741629D01*
X95845320Y-66756341D01*
X95845320Y-66834280D01*
X95760771Y-66840425D01*
X95710785Y-66844677D01*
X95669209Y-66849791D01*
X95634300Y-66856249D01*
X95604313Y-66864535D01*
X95577505Y-66875129D01*
X95552134Y-66888514D01*
X95526455Y-66905172D01*
X95526346Y-66905247D01*
X95471314Y-66947875D01*
X95425804Y-66992362D01*
X95389244Y-67039409D01*
X95361062Y-67089717D01*
X95346566Y-67125646D01*
X95337612Y-67158136D01*
X95330362Y-67197923D01*
X95325185Y-67242233D01*
X95322448Y-67288292D01*
X95322109Y-67309910D01*
X95322080Y-67369600D01*
X95583700Y-67369600D01*
X95845320Y-67369600D01*
X95845320Y-67448340D01*
X95845320Y-67527080D01*
X95235399Y-67527080D01*
X95049258Y-67527080D01*
X94625478Y-67527080D01*
X94626645Y-67367060D01*
X94791220Y-67367060D01*
X94968991Y-67368398D01*
X95010681Y-67368642D01*
X95049258Y-67368736D01*
X95083516Y-67368686D01*
X95112250Y-67368499D01*
X95134255Y-67368184D01*
X95148326Y-67367747D01*
X95153141Y-67367287D01*
X95155198Y-67361584D01*
X95156895Y-67347123D01*
X95158236Y-67325302D01*
X95159227Y-67297518D01*
X95159873Y-67265165D01*
X95160179Y-67229642D01*
X95160151Y-67192345D01*
X95159795Y-67154670D01*
X95159114Y-67118013D01*
X95158116Y-67083772D01*
X95156805Y-67053342D01*
X95155187Y-67028120D01*
X95153266Y-67009503D01*
X95151732Y-67001098D01*
X95140866Y-66971767D01*
X95124357Y-66942714D01*
X95104547Y-66917623D01*
X95090437Y-66904742D01*
X95053891Y-66881964D01*
X95015769Y-66868694D01*
X94974209Y-66864284D01*
X94973993Y-66864284D01*
X94951399Y-66864744D01*
X94934459Y-66866973D01*
X94918694Y-66871959D01*
X94899629Y-66880690D01*
X94899613Y-66880698D01*
X94862484Y-66903603D01*
X94832971Y-66932512D01*
X94809591Y-66968908D01*
X94807777Y-66972521D01*
X94791220Y-67006142D01*
X94791220Y-67186601D01*
X94791220Y-67367060D01*
X94626645Y-67367060D01*
X94627451Y-67256570D01*
X94627908Y-67194392D01*
X94628368Y-67141419D01*
X94628935Y-67096699D01*
X94629715Y-67059277D01*
X94630812Y-67028200D01*
X94632328Y-67002514D01*
X94634370Y-66981265D01*
X94637042Y-66963500D01*
X94640447Y-66948266D01*
X94644689Y-66934607D01*
X94649874Y-66921572D01*
X94656106Y-66908205D01*
X94663488Y-66893554D01*
X94668150Y-66884460D01*
X94683322Y-66858131D01*
X94701414Y-66833810D01*
X94725028Y-66808071D01*
X94729929Y-66803159D01*
X94769637Y-66768078D01*
X94810108Y-66741635D01*
X94853297Y-66722998D01*
X94901159Y-66711335D01*
X94955649Y-66705812D01*
X94958860Y-66705670D01*
X95005889Y-66705420D01*
X95046522Y-66709319D01*
X95083881Y-66717968D01*
X95121091Y-66731967D01*
X95138870Y-66740296D01*
X95181384Y-66766501D01*
X95220454Y-66800893D01*
X95254124Y-66841609D01*
X95268145Y-66863451D01*
X95277821Y-66879444D01*
X95285627Y-66891331D01*
X95290142Y-66896970D01*
X95290538Y-66897160D01*
X95294950Y-66893814D01*
X95305230Y-66884624D01*
X95319997Y-66870866D01*
X95337867Y-66853813D01*
X95344478Y-66847420D01*
X95392639Y-66803555D01*
X95439205Y-66767605D01*
X95485931Y-66738819D01*
X95534571Y-66716445D01*
X95586880Y-66699731D01*
X95644613Y-66687926D01*
X95709525Y-66680278D01*
X95739759Y-66678100D01*
X95769435Y-66676478D01*
X95795889Y-66675374D01*
X95817331Y-66674836D01*
X95831971Y-66674910D01*
G37*
G36*
X93936684Y-65847755D02*
G01*
X93940680Y-65859348D01*
X93940952Y-65860607D01*
X93944927Y-65873148D01*
X93949914Y-65880788D01*
X93950244Y-65881015D01*
X93957367Y-65882405D01*
X93973531Y-65883797D01*
X93997617Y-65885160D01*
X94028506Y-65886464D01*
X94065079Y-65887676D01*
X94106217Y-65888767D01*
X94150800Y-65889703D01*
X94197710Y-65890455D01*
X94245827Y-65890990D01*
X94294034Y-65891279D01*
X94319600Y-65891320D01*
X94360115Y-65891370D01*
X94391590Y-65891564D01*
X94415148Y-65891974D01*
X94431908Y-65892671D01*
X94442993Y-65893723D01*
X94449522Y-65895203D01*
X94452618Y-65897180D01*
X94453400Y-65899721D01*
X94449938Y-65905318D01*
X94440143Y-65917106D01*
X94424896Y-65934127D01*
X94405083Y-65955421D01*
X94381585Y-65980029D01*
X94355287Y-66006992D01*
X94345450Y-66016944D01*
X94311270Y-66051141D01*
X94272926Y-66089071D01*
X94232816Y-66128387D01*
X94193342Y-66166744D01*
X94156903Y-66201796D01*
X94134746Y-66222866D01*
X94108114Y-66248131D01*
X94084151Y-66271052D01*
X94063782Y-66290730D01*
X94047929Y-66306267D01*
X94037517Y-66316764D01*
X94033468Y-66321322D01*
X94033457Y-66321432D01*
X94039133Y-66322023D01*
X94053578Y-66322167D01*
X94075414Y-66321915D01*
X94103261Y-66321320D01*
X94135741Y-66320432D01*
X94171476Y-66319303D01*
X94209086Y-66317985D01*
X94247194Y-66316530D01*
X94284419Y-66314988D01*
X94319385Y-66313413D01*
X94350711Y-66311854D01*
X94377020Y-66310364D01*
X94396932Y-66308994D01*
X94409070Y-66307797D01*
X94411805Y-66307274D01*
X94427284Y-66297838D01*
X94435924Y-66281480D01*
X94438160Y-66261830D01*
X94439661Y-66251273D01*
X94443240Y-66246920D01*
X94445239Y-66251869D01*
X94446779Y-66266208D01*
X94447811Y-66289176D01*
X94448290Y-66320010D01*
X94448320Y-66331040D01*
X94448026Y-66365384D01*
X94447157Y-66390536D01*
X94445732Y-66406202D01*
X94443769Y-66412085D01*
X94443240Y-66412020D01*
X94439239Y-66404985D01*
X94438160Y-66397043D01*
X94435004Y-66384429D01*
X94428453Y-66373213D01*
X94418746Y-66361220D01*
X94168103Y-66358516D01*
X94118669Y-66357961D01*
X94072419Y-66357400D01*
X94030327Y-66356848D01*
X93993368Y-66356321D01*
X93962516Y-66355831D01*
X93938747Y-66355395D01*
X93923035Y-66355027D01*
X93916354Y-66354742D01*
X93916190Y-66354706D01*
X93915627Y-66352781D01*
X93917176Y-66349193D01*
X93921341Y-66343432D01*
X93928623Y-66334989D01*
X93939527Y-66323353D01*
X93954554Y-66308015D01*
X93974207Y-66288465D01*
X93998990Y-66264194D01*
X94029406Y-66234691D01*
X94065956Y-66199448D01*
X94109145Y-66157955D01*
X94131207Y-66136794D01*
X94347494Y-65929420D01*
X94312817Y-65928031D01*
X94298963Y-65927810D01*
X94276552Y-65927858D01*
X94247186Y-65928153D01*
X94212462Y-65928674D01*
X94173982Y-65929399D01*
X94133345Y-65930306D01*
X94119847Y-65930639D01*
X94072737Y-65931856D01*
X94034777Y-65933041D01*
X94004958Y-65934435D01*
X93982274Y-65936281D01*
X93965717Y-65938821D01*
X93954280Y-65942296D01*
X93946955Y-65946949D01*
X93942736Y-65953022D01*
X93940616Y-65960756D01*
X93939586Y-65970395D01*
X93939315Y-65974023D01*
X93937043Y-65987416D01*
X93933245Y-65995666D01*
X93931918Y-65996596D01*
X93929535Y-65994250D01*
X93927847Y-65984842D01*
X93926793Y-65967525D01*
X93926310Y-65941456D01*
X93926274Y-65919333D01*
X93926655Y-65885821D01*
X93927607Y-65862042D01*
X93929161Y-65847581D01*
X93931348Y-65842025D01*
X93932005Y-65841982D01*
X93936684Y-65847755D01*
G37*
G36*
X94192585Y-64737778D02*
G01*
X94247802Y-64751176D01*
X94298367Y-64773189D01*
X94343635Y-64803566D01*
X94365590Y-64823299D01*
X94396983Y-64859136D01*
X94421080Y-64897704D01*
X94438438Y-64940457D01*
X94449615Y-64988849D01*
X94455168Y-65044334D01*
X94455707Y-65058200D01*
X94456103Y-65088698D01*
X94455731Y-65121302D01*
X94454679Y-65151553D01*
X94453501Y-65169960D01*
X94451720Y-65196310D01*
X94450213Y-65227989D01*
X94449188Y-65260170D01*
X94448888Y-65277910D01*
X94448226Y-65303946D01*
X94446874Y-65323379D01*
X94444953Y-65334913D01*
X94443240Y-65337600D01*
X94439358Y-65333271D01*
X94438160Y-65325463D01*
X94433645Y-65307998D01*
X94420299Y-65295247D01*
X94398417Y-65287460D01*
X94391995Y-65286367D01*
X94379012Y-65285256D01*
X94357714Y-65284311D01*
X94329330Y-65283532D01*
X94295091Y-65282914D01*
X94256225Y-65282456D01*
X94213962Y-65282155D01*
X94169532Y-65282010D01*
X94124165Y-65282017D01*
X94079089Y-65282176D01*
X94047470Y-65282398D01*
X94035535Y-65282482D01*
X93994733Y-65282934D01*
X93957910Y-65283530D01*
X93926299Y-65284268D01*
X93901127Y-65285144D01*
X93883624Y-65286157D01*
X93875020Y-65287305D01*
X93874930Y-65287335D01*
X93862392Y-65293382D01*
X93854366Y-65302583D01*
X93849128Y-65317602D01*
X93846479Y-65331272D01*
X93843445Y-65346322D01*
X93840903Y-65351790D01*
X93838848Y-65347597D01*
X93837274Y-65333661D01*
X93836176Y-65309904D01*
X93835548Y-65276245D01*
X93835385Y-65232603D01*
X93835682Y-65178899D01*
X93835731Y-65173608D01*
X93835896Y-65157812D01*
X93864425Y-65157812D01*
X93865198Y-65180350D01*
X93866798Y-65197070D01*
X93869098Y-65205520D01*
X93871279Y-65207298D01*
X93875929Y-65208777D01*
X93883880Y-65209980D01*
X93895962Y-65210932D01*
X93913008Y-65211658D01*
X93935850Y-65212180D01*
X93965320Y-65212524D01*
X94002250Y-65212713D01*
X94047470Y-65212772D01*
X94101814Y-65212725D01*
X94116670Y-65212699D01*
X94166056Y-65212536D01*
X94212868Y-65212240D01*
X94256015Y-65211829D01*
X94294409Y-65211318D01*
X94326960Y-65210725D01*
X94352577Y-65210067D01*
X94370171Y-65209361D01*
X94378508Y-65208652D01*
X94394565Y-65202677D01*
X94406696Y-65190661D01*
X94416169Y-65171017D01*
X94420949Y-65155489D01*
X94424691Y-65134235D01*
X94426889Y-65106188D01*
X94427557Y-65074597D01*
X94426709Y-65042708D01*
X94424360Y-65013769D01*
X94420524Y-64991028D01*
X94420221Y-64989832D01*
X94403078Y-64941498D01*
X94378715Y-64900301D01*
X94347194Y-64866304D01*
X94308576Y-64839568D01*
X94262921Y-64820156D01*
X94250200Y-64816396D01*
X94216454Y-64809983D01*
X94177684Y-64807036D01*
X94137599Y-64807520D01*
X94099906Y-64811399D01*
X94069860Y-64818143D01*
X94019759Y-64838911D01*
X93975337Y-64867669D01*
X93937361Y-64903578D01*
X93906595Y-64945801D01*
X93883804Y-64993496D01*
X93871762Y-65035340D01*
X93868917Y-65053759D01*
X93866726Y-65077429D01*
X93865224Y-65104137D01*
X93864445Y-65131669D01*
X93864425Y-65157812D01*
X93835896Y-65157812D01*
X93836227Y-65126027D01*
X93836771Y-65087328D01*
X93837438Y-65056230D01*
X93838301Y-65031456D01*
X93839436Y-65011727D01*
X93840916Y-64995763D01*
X93842815Y-64982286D01*
X93845208Y-64970017D01*
X93848169Y-64957677D01*
X93848298Y-64957172D01*
X93866873Y-64902740D01*
X93892676Y-64855201D01*
X93925241Y-64814923D01*
X93964101Y-64782273D01*
X94008788Y-64757618D01*
X94058835Y-64741325D01*
X94113774Y-64733762D01*
X94133360Y-64733244D01*
X94192585Y-64737778D01*
G37*
G36*
X94384654Y-59598364D02*
G01*
X94402847Y-59600655D01*
X94421261Y-59604530D01*
X94436759Y-59609442D01*
X94446204Y-59614841D01*
X94446894Y-59615646D01*
X94450578Y-59626626D01*
X94452287Y-59646980D01*
X94452246Y-59670561D01*
X94451788Y-59690933D01*
X94451235Y-59718773D01*
X94450638Y-59751392D01*
X94450046Y-59786100D01*
X94449596Y-59814370D01*
X94448819Y-59848813D01*
X94447675Y-59876757D01*
X94446227Y-59897231D01*
X94444541Y-59909262D01*
X94443130Y-59912160D01*
X94439285Y-59907844D01*
X94438160Y-59900431D01*
X94435286Y-59886846D01*
X94431538Y-59879647D01*
X94423202Y-59874639D01*
X94406010Y-59870469D01*
X94379772Y-59867128D01*
X94344298Y-59864603D01*
X94299395Y-59862884D01*
X94244875Y-59861960D01*
X94180546Y-59861820D01*
X94130083Y-59862177D01*
X94084010Y-59862683D01*
X94047018Y-59863204D01*
X94018029Y-59863807D01*
X93995965Y-59864558D01*
X93979747Y-59865526D01*
X93968297Y-59866777D01*
X93960537Y-59868379D01*
X93955387Y-59870398D01*
X93951769Y-59872903D01*
X93951287Y-59873329D01*
X93943381Y-59885361D01*
X93939324Y-59900877D01*
X93936768Y-59913393D01*
X93932497Y-59920590D01*
X93931724Y-59920983D01*
X93929809Y-59919237D01*
X93928458Y-59911970D01*
X93927647Y-59898308D01*
X93927356Y-59877378D01*
X93927560Y-59848306D01*
X93928239Y-59810219D01*
X93928531Y-59796916D01*
X93929227Y-59755556D01*
X93929376Y-59718417D01*
X93928998Y-59686904D01*
X93928113Y-59662418D01*
X93926740Y-59646365D01*
X93926369Y-59644075D01*
X93924109Y-59628882D01*
X93923655Y-59618382D01*
X93924482Y-59615514D01*
X93930647Y-59615353D01*
X93944243Y-59616497D01*
X93962656Y-59618712D01*
X93968260Y-59619483D01*
X93990095Y-59623390D01*
X94003172Y-59627533D01*
X94007131Y-59631612D01*
X94001616Y-59635327D01*
X93990104Y-59637840D01*
X93978668Y-59641215D01*
X93970275Y-59648229D01*
X93964488Y-59660212D01*
X93960872Y-59678492D01*
X93958988Y-59704400D01*
X93958420Y-59734360D01*
X93958100Y-59797860D01*
X94057160Y-59797860D01*
X94156220Y-59797860D01*
X94156220Y-59723460D01*
X94156064Y-59693646D01*
X94155479Y-59672281D01*
X94154283Y-59657655D01*
X94152294Y-59648058D01*
X94149334Y-59641782D01*
X94147318Y-59639227D01*
X94141238Y-59630620D01*
X94143180Y-59626426D01*
X94153722Y-59626289D01*
X94165249Y-59628167D01*
X94184657Y-59630888D01*
X94205887Y-59632431D01*
X94210530Y-59632539D01*
X94226917Y-59633850D01*
X94235825Y-59636846D01*
X94236479Y-59640679D01*
X94228103Y-59644499D01*
X94222582Y-59645735D01*
X94208792Y-59650035D01*
X94199104Y-59656022D01*
X94198620Y-59656560D01*
X94195546Y-59664916D01*
X94192734Y-59680734D01*
X94190337Y-59701536D01*
X94188507Y-59724844D01*
X94187398Y-59748180D01*
X94187163Y-59769067D01*
X94187956Y-59785026D01*
X94189929Y-59793578D01*
X94190130Y-59793854D01*
X94197106Y-59796263D01*
X94212273Y-59798120D01*
X94233675Y-59799426D01*
X94259358Y-59800180D01*
X94287368Y-59800384D01*
X94315750Y-59800039D01*
X94342549Y-59799145D01*
X94365810Y-59797704D01*
X94383580Y-59795717D01*
X94392440Y-59793764D01*
X94405040Y-59786880D01*
X94413824Y-59775280D01*
X94419325Y-59757512D01*
X94422074Y-59732127D01*
X94422633Y-59711467D01*
X94420971Y-59674985D01*
X94415170Y-59647200D01*
X94404878Y-59627377D01*
X94389743Y-59614786D01*
X94373468Y-59609342D01*
X94362232Y-59606053D01*
X94360493Y-59601952D01*
X94361482Y-59600726D01*
X94369820Y-59598205D01*
X94384654Y-59598364D01*
G37*
G36*
X94444415Y-60541889D02*
G01*
X94446269Y-60553049D01*
X94447585Y-60572505D01*
X94448256Y-60599790D01*
X94448320Y-60612901D01*
X94448065Y-60639474D01*
X94447364Y-60662037D01*
X94446310Y-60678837D01*
X94444995Y-60688123D01*
X94444255Y-60689400D01*
X94437399Y-60686237D01*
X94434769Y-60683978D01*
X94429167Y-60683233D01*
X94416803Y-60686018D01*
X94397022Y-60692542D01*
X94369171Y-60703016D01*
X94343583Y-60713188D01*
X94257820Y-60747820D01*
X94256430Y-60832189D01*
X94256077Y-60865384D01*
X94256320Y-60889685D01*
X94257233Y-60906348D01*
X94258892Y-60916626D01*
X94261369Y-60921773D01*
X94261750Y-60922127D01*
X94269218Y-60926112D01*
X94284084Y-60932495D01*
X94304112Y-60940444D01*
X94327065Y-60949129D01*
X94350709Y-60957719D01*
X94372807Y-60965381D01*
X94391124Y-60971286D01*
X94402268Y-60974353D01*
X94421056Y-60975642D01*
X94433085Y-60969614D01*
X94438042Y-60956453D01*
X94438160Y-60953382D01*
X94439647Y-60942759D01*
X94443225Y-60938321D01*
X94443240Y-60938320D01*
X94445261Y-60943264D01*
X94446811Y-60957565D01*
X94447841Y-60980431D01*
X94448300Y-61011068D01*
X94448320Y-61019900D01*
X94448063Y-61047144D01*
X94447354Y-61070188D01*
X94446282Y-61087410D01*
X94444938Y-61097188D01*
X94443925Y-61098764D01*
X94440572Y-61092444D01*
X94437479Y-61079899D01*
X94436682Y-61074809D01*
X94435323Y-61066154D01*
X94433238Y-61058456D01*
X94429689Y-61051323D01*
X94423937Y-61044365D01*
X94415244Y-61037190D01*
X94402869Y-61029409D01*
X94386075Y-61020628D01*
X94364122Y-61010459D01*
X94336273Y-60998509D01*
X94301787Y-60984388D01*
X94259927Y-60967705D01*
X94223017Y-60953202D01*
X94209953Y-60948069D01*
X94161160Y-60929005D01*
X94114094Y-60910533D01*
X94069956Y-60893017D01*
X94029644Y-60876827D01*
X93994053Y-60862332D01*
X93964079Y-60849900D01*
X93940620Y-60839900D01*
X93938885Y-60839122D01*
X94028958Y-60839122D01*
X94033012Y-60842400D01*
X94040953Y-60845835D01*
X94056319Y-60851673D01*
X94077245Y-60859272D01*
X94101865Y-60867990D01*
X94128315Y-60877185D01*
X94154730Y-60886214D01*
X94179243Y-60894434D01*
X94199991Y-60901204D01*
X94215107Y-60905880D01*
X94222727Y-60907822D01*
X94223017Y-60907840D01*
X94225845Y-60905812D01*
X94227817Y-60898844D01*
X94229061Y-60885615D01*
X94229706Y-60864803D01*
X94229880Y-60837020D01*
X94229621Y-60811270D01*
X94228910Y-60789357D01*
X94227848Y-60773185D01*
X94226531Y-60764656D01*
X94226070Y-60763849D01*
X94220628Y-60764947D01*
X94207452Y-60769037D01*
X94188295Y-60775481D01*
X94164911Y-60783643D01*
X94139056Y-60792886D01*
X94112485Y-60802574D01*
X94086951Y-60812070D01*
X94064209Y-60820736D01*
X94046015Y-60827937D01*
X94034123Y-60833034D01*
X94031039Y-60834626D01*
X94028958Y-60839122D01*
X93938885Y-60839122D01*
X93924569Y-60832703D01*
X93916825Y-60828676D01*
X93916250Y-60828129D01*
X93915949Y-60825931D01*
X93916998Y-60823559D01*
X93920146Y-60820673D01*
X93926144Y-60816938D01*
X93935740Y-60812014D01*
X93949684Y-60805564D01*
X93968726Y-60797251D01*
X93993614Y-60786736D01*
X94025098Y-60773682D01*
X94063928Y-60757752D01*
X94110853Y-60738607D01*
X94152720Y-60721565D01*
X94196861Y-60703554D01*
X94238827Y-60686328D01*
X94277521Y-60670346D01*
X94311845Y-60656065D01*
X94340701Y-60643944D01*
X94362994Y-60634439D01*
X94377625Y-60628008D01*
X94382280Y-60625810D01*
X94410038Y-60607767D01*
X94428197Y-60586907D01*
X94436640Y-60563366D01*
X94436712Y-60562843D01*
X94439529Y-60546321D01*
X94442133Y-60539491D01*
X94444415Y-60541889D01*
G37*
G36*
X93936585Y-57851889D02*
G01*
X93940067Y-57863624D01*
X93940320Y-57865190D01*
X93941399Y-57871824D01*
X93943070Y-57877402D01*
X93946154Y-57882016D01*
X93951475Y-57885758D01*
X93959859Y-57888720D01*
X93972127Y-57890993D01*
X93989105Y-57892670D01*
X94011616Y-57893841D01*
X94040484Y-57894599D01*
X94076532Y-57895036D01*
X94120585Y-57895243D01*
X94173466Y-57895312D01*
X94210830Y-57895326D01*
X94267313Y-57895374D01*
X94314454Y-57895498D01*
X94353069Y-57895724D01*
X94383975Y-57896078D01*
X94407990Y-57896585D01*
X94425929Y-57897273D01*
X94438610Y-57898166D01*
X94446851Y-57899290D01*
X94451468Y-57900672D01*
X94453278Y-57902337D01*
X94453400Y-57903029D01*
X94450146Y-57909548D01*
X94441274Y-57921767D01*
X94428113Y-57937974D01*
X94411995Y-57956459D01*
X94410931Y-57957639D01*
X94392659Y-57977126D01*
X94366932Y-58003415D01*
X94333796Y-58036458D01*
X94293301Y-58076208D01*
X94245495Y-58122616D01*
X94190427Y-58175637D01*
X94128145Y-58235222D01*
X94083129Y-58278103D01*
X94030599Y-58328066D01*
X94195009Y-58324661D01*
X94250452Y-58323376D01*
X94296571Y-58321975D01*
X94334201Y-58320389D01*
X94364177Y-58318548D01*
X94387336Y-58316380D01*
X94404513Y-58313815D01*
X94416544Y-58310784D01*
X94424263Y-58307216D01*
X94426810Y-58305167D01*
X94431942Y-58295833D01*
X94435987Y-58281334D01*
X94436695Y-58276976D01*
X94439506Y-58260336D01*
X94442074Y-58253428D01*
X94444314Y-58255824D01*
X94446138Y-58267098D01*
X94447461Y-58286822D01*
X94448196Y-58314568D01*
X94448320Y-58334521D01*
X94448021Y-58367638D01*
X94447155Y-58393124D01*
X94445768Y-58410218D01*
X94443906Y-58418157D01*
X94443240Y-58418640D01*
X94439582Y-58414250D01*
X94438160Y-58404371D01*
X94435233Y-58387596D01*
X94425613Y-58376320D01*
X94408041Y-58369412D01*
X94396991Y-58367396D01*
X94386174Y-58366567D01*
X94366393Y-58365782D01*
X94338844Y-58365061D01*
X94304725Y-58364423D01*
X94265232Y-58363889D01*
X94221560Y-58363479D01*
X94174907Y-58363214D01*
X94145089Y-58363131D01*
X94083930Y-58362924D01*
X94032694Y-58362517D01*
X93991150Y-58361904D01*
X93959063Y-58361079D01*
X93936200Y-58360037D01*
X93922327Y-58358771D01*
X93917230Y-58357309D01*
X93919227Y-58351720D01*
X93927283Y-58340942D01*
X93940007Y-58326691D01*
X93951220Y-58315304D01*
X93965591Y-58301331D01*
X93986216Y-58281402D01*
X94011994Y-58256571D01*
X94041825Y-58227891D01*
X94074610Y-58196418D01*
X94109248Y-58163205D01*
X94144640Y-58129307D01*
X94179685Y-58095778D01*
X94213283Y-58063672D01*
X94244334Y-58034043D01*
X94271738Y-58007946D01*
X94292843Y-57987906D01*
X94311923Y-57969556D01*
X94327848Y-57953726D01*
X94339391Y-57941674D01*
X94345327Y-57934661D01*
X94345815Y-57933442D01*
X94339969Y-57932669D01*
X94325336Y-57932318D01*
X94303281Y-57932344D01*
X94275166Y-57932705D01*
X94242354Y-57933355D01*
X94206208Y-57934253D01*
X94168091Y-57935353D01*
X94129367Y-57936611D01*
X94091399Y-57937985D01*
X94055549Y-57939431D01*
X94023181Y-57940904D01*
X93995659Y-57942360D01*
X93974344Y-57943757D01*
X93960601Y-57945049D01*
X93955999Y-57945965D01*
X93948142Y-57952596D01*
X93943073Y-57963866D01*
X93939822Y-57982219D01*
X93939172Y-57988268D01*
X93936587Y-57998432D01*
X93932700Y-58002241D01*
X93930643Y-57997253D01*
X93928967Y-57983053D01*
X93927740Y-57960587D01*
X93927030Y-57930797D01*
X93926948Y-57923119D01*
X93926914Y-57890692D01*
X93927483Y-57867643D01*
X93928704Y-57853204D01*
X93930629Y-57846607D01*
X93932028Y-57846050D01*
X93936585Y-57851889D01*
G37*
G36*
X93843932Y-58544974D02*
G01*
X93847762Y-58555561D01*
X93848880Y-58565589D01*
X93852432Y-58575461D01*
X93859564Y-58584223D01*
X93862846Y-58586711D01*
X93867339Y-58588764D01*
X93874043Y-58590444D01*
X93883959Y-58591814D01*
X93898085Y-58592935D01*
X93917423Y-58593870D01*
X93942972Y-58594682D01*
X93975732Y-58595431D01*
X94016704Y-58596182D01*
X94064034Y-58596950D01*
X94117318Y-58597845D01*
X94161617Y-58598787D01*
X94198107Y-58599910D01*
X94227963Y-58601347D01*
X94252360Y-58603234D01*
X94272472Y-58605703D01*
X94289476Y-58608887D01*
X94304547Y-58612922D01*
X94318858Y-58617941D01*
X94333587Y-58624077D01*
X94344191Y-58628843D01*
X94375500Y-58648348D01*
X94403686Y-58676000D01*
X94427502Y-58709960D01*
X94445703Y-58748390D01*
X94457041Y-58789450D01*
X94458274Y-58797100D01*
X94461344Y-58820858D01*
X94462547Y-58839227D01*
X94461878Y-58856809D01*
X94459331Y-58878205D01*
X94458162Y-58886317D01*
X94446781Y-58933257D01*
X94427503Y-58974349D01*
X94400681Y-59009066D01*
X94366671Y-59036878D01*
X94350627Y-59046218D01*
X94336920Y-59053067D01*
X94323599Y-59058766D01*
X94309564Y-59063440D01*
X94293713Y-59067213D01*
X94274947Y-59070210D01*
X94252164Y-59072555D01*
X94224264Y-59074373D01*
X94190145Y-59075788D01*
X94148708Y-59076925D01*
X94098850Y-59077908D01*
X94065593Y-59078458D01*
X94015664Y-59079259D01*
X93974908Y-59079973D01*
X93942342Y-59080668D01*
X93916979Y-59081412D01*
X93897836Y-59082275D01*
X93883927Y-59083324D01*
X93874268Y-59084628D01*
X93867872Y-59086256D01*
X93863757Y-59088277D01*
X93860936Y-59090759D01*
X93859187Y-59092827D01*
X93852771Y-59104874D01*
X93847690Y-59121457D01*
X93846618Y-59127215D01*
X93843663Y-59142914D01*
X93841046Y-59148812D01*
X93838821Y-59145266D01*
X93837040Y-59132633D01*
X93835757Y-59111266D01*
X93835024Y-59081524D01*
X93834878Y-59048389D01*
X93835291Y-59010879D01*
X93836260Y-58981819D01*
X93837742Y-58961509D01*
X93839692Y-58950247D01*
X93842065Y-58948333D01*
X93844817Y-58956067D01*
X93846946Y-58967386D01*
X93848511Y-58976648D01*
X93850585Y-58984267D01*
X93854096Y-58990405D01*
X93859972Y-58995221D01*
X93869142Y-58998875D01*
X93882534Y-59001528D01*
X93901077Y-59003339D01*
X93925700Y-59004470D01*
X93957330Y-59005081D01*
X93996897Y-59005331D01*
X94045329Y-59005381D01*
X94067099Y-59005380D01*
X94120335Y-59005316D01*
X94164557Y-59005051D01*
X94200910Y-59004481D01*
X94230537Y-59003502D01*
X94254585Y-59002009D01*
X94274198Y-58999896D01*
X94290521Y-58997060D01*
X94304699Y-58993395D01*
X94317877Y-58988796D01*
X94331200Y-58983159D01*
X94336560Y-58980713D01*
X94358921Y-58966993D01*
X94381630Y-58947472D01*
X94401409Y-58925357D01*
X94414834Y-58904166D01*
X94424950Y-58872843D01*
X94429082Y-58836936D01*
X94427289Y-58800026D01*
X94419630Y-58765697D01*
X94412266Y-58747873D01*
X94390302Y-58714763D01*
X94361496Y-58688592D01*
X94325265Y-58668907D01*
X94298460Y-58659658D01*
X94288434Y-58657226D01*
X94276311Y-58655218D01*
X94260954Y-58653573D01*
X94241225Y-58652230D01*
X94215989Y-58651130D01*
X94184107Y-58650212D01*
X94144443Y-58649414D01*
X94095860Y-58648678D01*
X94090926Y-58648611D01*
X94048438Y-58648148D01*
X94008289Y-58647911D01*
X93971838Y-58647891D01*
X93940440Y-58648082D01*
X93915454Y-58648478D01*
X93898235Y-58649070D01*
X93891170Y-58649648D01*
X93869920Y-58655613D01*
X93856260Y-58666981D01*
X93848485Y-58685482D01*
X93846707Y-58694822D01*
X93843615Y-58711460D01*
X93840879Y-58718293D01*
X93838563Y-58715672D01*
X93836731Y-58703947D01*
X93835447Y-58683470D01*
X93834777Y-58654590D01*
X93834707Y-58629460D01*
X93835026Y-58600682D01*
X93835697Y-58575787D01*
X93836645Y-58556401D01*
X93837792Y-58544150D01*
X93838882Y-58540560D01*
X93843932Y-58544974D01*
G37*
G36*
X94445402Y-66532366D02*
G01*
X94446985Y-66545680D01*
X94447965Y-66568466D01*
X94448319Y-66600389D01*
X94448320Y-66602221D01*
X94448156Y-66628794D01*
X94447706Y-66651358D01*
X94447029Y-66668158D01*
X94446185Y-66677443D01*
X94445711Y-66678720D01*
X94439785Y-66676345D01*
X94434041Y-66673062D01*
X94428863Y-66671588D01*
X94420436Y-66672433D01*
X94407415Y-66675999D01*
X94388451Y-66682689D01*
X94362200Y-66692906D01*
X94346480Y-66699235D01*
X94319865Y-66710164D01*
X94296329Y-66720084D01*
X94277592Y-66728251D01*
X94265374Y-66733920D01*
X94261630Y-66735996D01*
X94259027Y-66741328D01*
X94257164Y-66753317D01*
X94255971Y-66772926D01*
X94255377Y-66801119D01*
X94255280Y-66823500D01*
X94255532Y-66857489D01*
X94256338Y-66882297D01*
X94257766Y-66898893D01*
X94259887Y-66908246D01*
X94261630Y-66910870D01*
X94270908Y-66915784D01*
X94287580Y-66922737D01*
X94309327Y-66930940D01*
X94333836Y-66939603D01*
X94358788Y-66947936D01*
X94381869Y-66955150D01*
X94400763Y-66960455D01*
X94413152Y-66963062D01*
X94415120Y-66963200D01*
X94429169Y-66960584D01*
X94436370Y-66951684D01*
X94438160Y-66937385D01*
X94440368Y-66929358D01*
X94443240Y-66927640D01*
X94445286Y-66932577D01*
X94446849Y-66946833D01*
X94447874Y-66969577D01*
X94448308Y-66999977D01*
X94448320Y-67006380D01*
X94448001Y-67038107D01*
X94447081Y-67062331D01*
X94445614Y-67078222D01*
X94443653Y-67084947D01*
X94443240Y-67085120D01*
X94439777Y-67080679D01*
X94438156Y-67069859D01*
X94438141Y-67068610D01*
X94433257Y-67045937D01*
X94419351Y-67026164D01*
X94397459Y-67010755D01*
X94397074Y-67010563D01*
X94387756Y-67006460D01*
X94370030Y-66999126D01*
X94344966Y-66988988D01*
X94313634Y-66976471D01*
X94277105Y-66962002D01*
X94236449Y-66946008D01*
X94226070Y-66941949D01*
X94192737Y-66928913D01*
X94157395Y-66915162D01*
X94103295Y-66894159D01*
X94057901Y-66876521D01*
X94020449Y-66861925D01*
X93990177Y-66850052D01*
X93966321Y-66840582D01*
X93948119Y-66833193D01*
X93934807Y-66827566D01*
X93930873Y-66825773D01*
X94026680Y-66825773D01*
X94031200Y-66828220D01*
X94043613Y-66833331D01*
X94062196Y-66840488D01*
X94085226Y-66849073D01*
X94110980Y-66858469D01*
X94137736Y-66868057D01*
X94163770Y-66877220D01*
X94187360Y-66885339D01*
X94206783Y-66891797D01*
X94220315Y-66895977D01*
X94226070Y-66897279D01*
X94227711Y-66892512D01*
X94228886Y-66879779D01*
X94229612Y-66861255D01*
X94229905Y-66839117D01*
X94229785Y-66815541D01*
X94229267Y-66792703D01*
X94228368Y-66772778D01*
X94227107Y-66757943D01*
X94225500Y-66750373D01*
X94224901Y-66749840D01*
X94218075Y-66751560D01*
X94203883Y-66756282D01*
X94184035Y-66763351D01*
X94160240Y-66772114D01*
X94134208Y-66781914D01*
X94107647Y-66792098D01*
X94082266Y-66802011D01*
X94059775Y-66810998D01*
X94041883Y-66818405D01*
X94030299Y-66823576D01*
X94026680Y-66825773D01*
X93930873Y-66825773D01*
X93925623Y-66823380D01*
X93919803Y-66820315D01*
X93916585Y-66818050D01*
X93915205Y-66816264D01*
X93914901Y-66814639D01*
X93914920Y-66813340D01*
X93914966Y-66811491D01*
X93915676Y-66809704D01*
X93917902Y-66807599D01*
X93922497Y-66804797D01*
X93930316Y-66800918D01*
X93942211Y-66795584D01*
X93959037Y-66788414D01*
X93981647Y-66779028D01*
X94010895Y-66767048D01*
X94047633Y-66752093D01*
X94092716Y-66733784D01*
X94105369Y-66728647D01*
X94166441Y-66703840D01*
X94218812Y-66682511D01*
X94263198Y-66664319D01*
X94300313Y-66648926D01*
X94330873Y-66635994D01*
X94355593Y-66625182D01*
X94375189Y-66616153D01*
X94390376Y-66608567D01*
X94401868Y-66602085D01*
X94410382Y-66596369D01*
X94416632Y-66591079D01*
X94421333Y-66585876D01*
X94425202Y-66580421D01*
X94428165Y-66575671D01*
X94434938Y-66560905D01*
X94438109Y-66546791D01*
X94438141Y-66545670D01*
X94439860Y-66534419D01*
X94443240Y-66528860D01*
X94445402Y-66532366D01*
G37*
G36*
X94444889Y-55685504D02*
G01*
X94446886Y-55695909D01*
X94448079Y-55714859D01*
X94448320Y-55731701D01*
X94447439Y-55765552D01*
X94444428Y-55791625D01*
X94438734Y-55812181D01*
X94429804Y-55829479D01*
X94421708Y-55840405D01*
X94410252Y-55852337D01*
X94391789Y-55869156D01*
X94367566Y-55889825D01*
X94338829Y-55913306D01*
X94306826Y-55938563D01*
X94272804Y-55964557D01*
X94269250Y-55967224D01*
X94229880Y-55996712D01*
X94229880Y-56046596D01*
X94230435Y-56071092D01*
X94231999Y-56088962D01*
X94234414Y-56098702D01*
X94235386Y-56099884D01*
X94242072Y-56100801D01*
X94257113Y-56101191D01*
X94278714Y-56101061D01*
X94305086Y-56100416D01*
X94326991Y-56099595D01*
X94362199Y-56097889D01*
X94388601Y-56095859D01*
X94407551Y-56092987D01*
X94420400Y-56088755D01*
X94428502Y-56082642D01*
X94433209Y-56074131D01*
X94435873Y-56062703D01*
X94436625Y-56057535D01*
X94439451Y-56040635D01*
X94442003Y-56033517D01*
X94444214Y-56035807D01*
X94446018Y-56047129D01*
X94447345Y-56067108D01*
X94448129Y-56095369D01*
X94448320Y-56122480D01*
X94448050Y-56158779D01*
X94447252Y-56185822D01*
X94445940Y-56203348D01*
X94444128Y-56211095D01*
X94443240Y-56211380D01*
X94439115Y-56204296D01*
X94438082Y-56197111D01*
X94435377Y-56182866D01*
X94426262Y-56173723D01*
X94409693Y-56167954D01*
X94400429Y-56166964D01*
X94382188Y-56166041D01*
X94356152Y-56165210D01*
X94323504Y-56164493D01*
X94285428Y-56163917D01*
X94243105Y-56163503D01*
X94197718Y-56163276D01*
X94176400Y-56163242D01*
X94121551Y-56163210D01*
X94091749Y-56163251D01*
X94075990Y-56163273D01*
X94038846Y-56163565D01*
X94009246Y-56164223D01*
X93986318Y-56165382D01*
X93969191Y-56167176D01*
X93956993Y-56169741D01*
X93948852Y-56173213D01*
X93943896Y-56177727D01*
X93941253Y-56183418D01*
X93940052Y-56190421D01*
X93939420Y-56198872D01*
X93939337Y-56200037D01*
X93937325Y-56212853D01*
X93934091Y-56218965D01*
X93932700Y-56219000D01*
X93930990Y-56213101D01*
X93929618Y-56197724D01*
X93928610Y-56173547D01*
X93927994Y-56141248D01*
X93927798Y-56101503D01*
X93927802Y-56097080D01*
X93928315Y-56047727D01*
X93953131Y-56047727D01*
X93953516Y-56070963D01*
X93954995Y-56085881D01*
X93957842Y-56094292D01*
X93960640Y-56097179D01*
X93968022Y-56098695D01*
X93983685Y-56099924D01*
X94005760Y-56100863D01*
X94032375Y-56101506D01*
X94061662Y-56101850D01*
X94091749Y-56101892D01*
X94120767Y-56101627D01*
X94146845Y-56101052D01*
X94168114Y-56100162D01*
X94182703Y-56098954D01*
X94188477Y-56097659D01*
X94195970Y-56087246D01*
X94200827Y-56067425D01*
X94202970Y-56038621D01*
X94202928Y-56017439D01*
X94201810Y-55994381D01*
X94199379Y-55978621D01*
X94195048Y-55967323D01*
X94191329Y-55961559D01*
X94171633Y-55942962D01*
X94145340Y-55929634D01*
X94114651Y-55921762D01*
X94081766Y-55919531D01*
X94048885Y-55923128D01*
X94018208Y-55932737D01*
X93996431Y-55945097D01*
X93976709Y-55962812D01*
X93963494Y-55983604D01*
X93955935Y-56009491D01*
X93953181Y-56042489D01*
X93953131Y-56047727D01*
X93928315Y-56047727D01*
X93928325Y-56046773D01*
X93929955Y-56005408D01*
X93933037Y-55971798D01*
X93937915Y-55944753D01*
X93944935Y-55923085D01*
X93954442Y-55905605D01*
X93966781Y-55891125D01*
X93982295Y-55878457D01*
X93993357Y-55871179D01*
X94008593Y-55862661D01*
X94022216Y-55858000D01*
X94038552Y-55856108D01*
X94054221Y-55855846D01*
X94090014Y-55859653D01*
X94123309Y-55871429D01*
X94155746Y-55891912D01*
X94179153Y-55912144D01*
X94194370Y-55926271D01*
X94204385Y-55934167D01*
X94211081Y-55936883D01*
X94216339Y-55935473D01*
X94218365Y-55934063D01*
X94226016Y-55928009D01*
X94239387Y-55917285D01*
X94256313Y-55903629D01*
X94267980Y-55894181D01*
X94309881Y-55859822D01*
X94344298Y-55830642D01*
X94371959Y-55805842D01*
X94393594Y-55784622D01*
X94409931Y-55766183D01*
X94421699Y-55749724D01*
X94429628Y-55734446D01*
X94434448Y-55719548D01*
X94436271Y-55709592D01*
X94439361Y-55691941D01*
X94442307Y-55684046D01*
X94444889Y-55685504D01*
G37*
G36*
X100228337Y-62876209D02*
G01*
X100251486Y-62881872D01*
X100310425Y-62902268D01*
X100365764Y-62931670D01*
X100416520Y-62969269D01*
X100461711Y-63014254D01*
X100500353Y-63065814D01*
X100523286Y-63105990D01*
X100546680Y-63161928D01*
X100564401Y-63224806D01*
X100576182Y-63292965D01*
X100581756Y-63364743D01*
X100580855Y-63438478D01*
X100579640Y-63456347D01*
X100570352Y-63531680D01*
X100554026Y-63613421D01*
X100530935Y-63700919D01*
X100501349Y-63793523D01*
X100465541Y-63890583D01*
X100423782Y-63991448D01*
X100376342Y-64095468D01*
X100323494Y-64201993D01*
X100265510Y-64310372D01*
X100202659Y-64419955D01*
X100135215Y-64530091D01*
X100124664Y-64546704D01*
X100055036Y-64652749D01*
X99978183Y-64764110D01*
X99894864Y-64879821D01*
X99805836Y-64998912D01*
X99711859Y-65120416D01*
X99613689Y-65243364D01*
X99512085Y-65366788D01*
X99407806Y-65489720D01*
X99301609Y-65611191D01*
X99219923Y-65702114D01*
X99164342Y-65762500D01*
X99102421Y-65828462D01*
X99035369Y-65898775D01*
X98964399Y-65972219D01*
X98890720Y-66047571D01*
X98815543Y-66123607D01*
X98740079Y-66199106D01*
X98665539Y-66272845D01*
X98593132Y-66343601D01*
X98524071Y-66410152D01*
X98459565Y-66471276D01*
X98441200Y-66488449D01*
X98216829Y-66694478D01*
X97994599Y-66892268D01*
X97772977Y-67083055D01*
X97550432Y-67268072D01*
X97325432Y-67448555D01*
X97096447Y-67625739D01*
X96861944Y-67800858D01*
X96620392Y-67975147D01*
X96442220Y-68100141D01*
X96218082Y-68253111D01*
X95998792Y-68397665D01*
X95783899Y-68534060D01*
X95572955Y-68662550D01*
X95365512Y-68783393D01*
X95161121Y-68896843D01*
X94959333Y-69003157D01*
X94759701Y-69102589D01*
X94561774Y-69195396D01*
X94382280Y-69274517D01*
X94237040Y-69335085D01*
X94098977Y-69389509D01*
X93967340Y-69437998D01*
X93841376Y-69480762D01*
X93720334Y-69518011D01*
X93603463Y-69549954D01*
X93490011Y-69576801D01*
X93379226Y-69598761D01*
X93270359Y-69616044D01*
X93162656Y-69628860D01*
X93089420Y-69635151D01*
X92986873Y-69639483D01*
X92891258Y-69637096D01*
X92802715Y-69628016D01*
X92721387Y-69612269D01*
X92647417Y-69589881D01*
X92580945Y-69560877D01*
X92534878Y-69533997D01*
X92482120Y-69493730D01*
X92437282Y-69447520D01*
X92400107Y-69394996D01*
X92370339Y-69335784D01*
X92347723Y-69269510D01*
X92344151Y-69255840D01*
X92339623Y-69235761D01*
X92336448Y-69216188D01*
X92334403Y-69194585D01*
X92333263Y-69168418D01*
X92332804Y-69135151D01*
X92332774Y-69127280D01*
X92333139Y-69094681D01*
X92334293Y-69061485D01*
X92336076Y-69030832D01*
X92338326Y-69005863D01*
X92339386Y-68997740D01*
X92356862Y-68898350D01*
X92379554Y-68800250D01*
X92407882Y-68702278D01*
X92442270Y-68603268D01*
X92483137Y-68502059D01*
X92530907Y-68397485D01*
X92586000Y-68288383D01*
X92618083Y-68228745D01*
X92631429Y-68204811D01*
X92648007Y-68175717D01*
X92667156Y-68142565D01*
X92688220Y-68106458D01*
X92710538Y-68068499D01*
X92733454Y-68029791D01*
X92756308Y-67991436D01*
X92778442Y-67954537D01*
X92799198Y-67920197D01*
X92817916Y-67889519D01*
X92833939Y-67863605D01*
X92846608Y-67843558D01*
X92855265Y-67830482D01*
X92858424Y-67826246D01*
X92868977Y-67814100D01*
X92865577Y-67826800D01*
X92862773Y-67834176D01*
X92856249Y-67849706D01*
X92846488Y-67872296D01*
X92833971Y-67900848D01*
X92819178Y-67934267D01*
X92802590Y-67971456D01*
X92784689Y-68011318D01*
X92781992Y-68017300D01*
X92741482Y-68107645D01*
X92705227Y-68189715D01*
X92672943Y-68264325D01*
X92644344Y-68332291D01*
X92619145Y-68394426D01*
X92597061Y-68451545D01*
X92577808Y-68504463D01*
X92561100Y-68553995D01*
X92546653Y-68600956D01*
X92534181Y-68646159D01*
X92523400Y-68690421D01*
X92514025Y-68734555D01*
X92505770Y-68779376D01*
X92498350Y-68825699D01*
X92497695Y-68830100D01*
X92488263Y-68905012D01*
X92483583Y-68971802D01*
X92483840Y-69031423D01*
X92489217Y-69084830D01*
X92499900Y-69132974D01*
X92516073Y-69176810D01*
X92537918Y-69217291D01*
X92565622Y-69255369D01*
X92583905Y-69276151D01*
X92617429Y-69308484D01*
X92653570Y-69335798D01*
X92695339Y-69360224D01*
X92719470Y-69372112D01*
X92755367Y-69387463D01*
X92792094Y-69400026D01*
X92830276Y-69409742D01*
X92870540Y-69416552D01*
X92913509Y-69420396D01*
X92959809Y-69421215D01*
X93010066Y-69418948D01*
X93064904Y-69413536D01*
X93124949Y-69404920D01*
X93190825Y-69393041D01*
X93263158Y-69377838D01*
X93342573Y-69359252D01*
X93429695Y-69337224D01*
X93525150Y-69311693D01*
X93614548Y-69286844D01*
X93681343Y-69267987D01*
X93739386Y-69251542D01*
X93789714Y-69237202D01*
X93833362Y-69224657D01*
X93871368Y-69213599D01*
X93904767Y-69203718D01*
X93934597Y-69194706D01*
X93961894Y-69186254D01*
X93987694Y-69178052D01*
X94013034Y-69169793D01*
X94038950Y-69161167D01*
X94058981Y-69154410D01*
X94177212Y-69112715D01*
X94295826Y-69067548D01*
X94415549Y-69018556D01*
X94537102Y-68965386D01*
X94661209Y-68907684D01*
X94788594Y-68845098D01*
X94919980Y-68777274D01*
X95056089Y-68703859D01*
X95197646Y-68624501D01*
X95345374Y-68538845D01*
X95461780Y-68469582D01*
X95803926Y-68258061D01*
X96139788Y-68038605D01*
X96469287Y-67811279D01*
X96792344Y-67576146D01*
X97108882Y-67333273D01*
X97418821Y-67082723D01*
X97722084Y-66824561D01*
X98018591Y-66558852D01*
X98308264Y-66285659D01*
X98591025Y-66005049D01*
X98866796Y-65717086D01*
X99060473Y-65505796D01*
X99180786Y-65370704D01*
X99293407Y-65241280D01*
X99398715Y-65117015D01*
X99497087Y-64997404D01*
X99588902Y-64881940D01*
X99674537Y-64770117D01*
X99754370Y-64661428D01*
X99828779Y-64555367D01*
X99898142Y-64451426D01*
X99962838Y-64349100D01*
X100023243Y-64247882D01*
X100079736Y-64147265D01*
X100094524Y-64119844D01*
X100116980Y-64076941D01*
X100140623Y-64030177D01*
X100164429Y-63981699D01*
X100187370Y-63933653D01*
X100208421Y-63888188D01*
X100226556Y-63847449D01*
X100240048Y-63815328D01*
X100266548Y-63744485D01*
X100292310Y-63665956D01*
X100316619Y-63582220D01*
X100338760Y-63495750D01*
X100358017Y-63409024D01*
X100359417Y-63402120D01*
X100367897Y-63349653D01*
X100372904Y-63295306D01*
X100374409Y-63241607D01*
X100372383Y-63191084D01*
X100366795Y-63146266D01*
X100362644Y-63126737D01*
X100344411Y-63068838D01*
X100319646Y-63016452D01*
X100287207Y-62967605D01*
X100245949Y-62920325D01*
X100238853Y-62913170D01*
X100220715Y-62894743D01*
X100210316Y-62882523D01*
X100207935Y-62875820D01*
X100213849Y-62873945D01*
X100228337Y-62876209D01*
G37*
G36*
X99472546Y-62800060D02*
G01*
X99486352Y-62806966D01*
X99506286Y-62817609D01*
X99531037Y-62831278D01*
X99559293Y-62847265D01*
X99578913Y-62858560D01*
X99608889Y-62875702D01*
X99636373Y-62890980D01*
X99660017Y-62903681D01*
X99678473Y-62913090D01*
X99690396Y-62918494D01*
X99693973Y-62919520D01*
X99702977Y-62916590D01*
X99716723Y-62908943D01*
X99730791Y-62899280D01*
X99743848Y-62891380D01*
X99875767Y-62891380D01*
X99877706Y-62896660D01*
X99883556Y-62906385D01*
X99892643Y-62919803D01*
X99903481Y-62934932D01*
X99914587Y-62949789D01*
X99924474Y-62962391D01*
X99931659Y-62970755D01*
X99934657Y-62972898D01*
X99934672Y-62972752D01*
X99932266Y-62965930D01*
X99926102Y-62953489D01*
X99919942Y-62942380D01*
X99912348Y-62930680D01*
X99903038Y-62918302D01*
X99893369Y-62906716D01*
X99884696Y-62897387D01*
X99878377Y-62891786D01*
X99875767Y-62891380D01*
X99743848Y-62891380D01*
X99758292Y-62882641D01*
X99790799Y-62869158D01*
X99824033Y-62860347D01*
X99848150Y-62857684D01*
X99862032Y-62858205D01*
X99872092Y-62861733D01*
X99882132Y-62870189D01*
X99890180Y-62878940D01*
X99907984Y-62900525D01*
X99924133Y-62922887D01*
X99937352Y-62943981D01*
X99946366Y-62961762D01*
X99949900Y-62974187D01*
X99949910Y-62974709D01*
X99947717Y-62986910D01*
X99942166Y-63003432D01*
X99937819Y-63013500D01*
X99934657Y-63018683D01*
X99916961Y-63047692D01*
X99889739Y-63077495D01*
X99865986Y-63095579D01*
X99852327Y-63105829D01*
X99842674Y-63116188D01*
X99840100Y-63121163D01*
X99840253Y-63129172D01*
X99842237Y-63145575D01*
X99845804Y-63168822D01*
X99850707Y-63197363D01*
X99856699Y-63229646D01*
X99860581Y-63249502D01*
X99867190Y-63282987D01*
X99873073Y-63313362D01*
X99877950Y-63339138D01*
X99881542Y-63358824D01*
X99883570Y-63370931D01*
X99883920Y-63373934D01*
X99880030Y-63378227D01*
X99869239Y-63387493D01*
X99852866Y-63400732D01*
X99832228Y-63416943D01*
X99808643Y-63435127D01*
X99783430Y-63454284D01*
X99757906Y-63473414D01*
X99733390Y-63491515D01*
X99711199Y-63507590D01*
X99692652Y-63520637D01*
X99679067Y-63529656D01*
X99677007Y-63530922D01*
X99670174Y-63530662D01*
X99653930Y-63527498D01*
X99628575Y-63521509D01*
X99594409Y-63512773D01*
X99551735Y-63501367D01*
X99500852Y-63487371D01*
X99442061Y-63470861D01*
X99405135Y-63460357D01*
X99404961Y-63460308D01*
X99393700Y-63457866D01*
X99388984Y-63456844D01*
X99375984Y-63455922D01*
X99371941Y-63456582D01*
X99366195Y-63460132D01*
X99353070Y-63469075D01*
X99333399Y-63482819D01*
X99308015Y-63500774D01*
X99277750Y-63522348D01*
X99243436Y-63546949D01*
X99228872Y-63557441D01*
X99205906Y-63573987D01*
X99165991Y-63602869D01*
X99162560Y-63605358D01*
X99133124Y-63626698D01*
X99096179Y-63653463D01*
X99052449Y-63685127D01*
X99002661Y-63721165D01*
X98947539Y-63761052D01*
X98887810Y-63804264D01*
X98824200Y-63850276D01*
X98757433Y-63898562D01*
X98744511Y-63907906D01*
X98732161Y-63916836D01*
X98688237Y-63948598D01*
X98617337Y-63999858D01*
X98545457Y-64051818D01*
X98473325Y-64103953D01*
X98401666Y-64155737D01*
X98400560Y-64156537D01*
X98362288Y-64184197D01*
X98323937Y-64211915D01*
X98243584Y-64270011D01*
X98160547Y-64330068D01*
X98075871Y-64391329D01*
X97990602Y-64453037D01*
X97905784Y-64514436D01*
X97822463Y-64574767D01*
X97773386Y-64610314D01*
X97753131Y-64624985D01*
X97741685Y-64633275D01*
X97664495Y-64689202D01*
X97591938Y-64741792D01*
X97525060Y-64790287D01*
X97464907Y-64833931D01*
X97458985Y-64838230D01*
X97440440Y-64851693D01*
X97378100Y-64896955D01*
X97314021Y-64943478D01*
X97249223Y-64990523D01*
X97184727Y-65037348D01*
X97121552Y-65083213D01*
X97060719Y-65127376D01*
X97003248Y-65169099D01*
X96950158Y-65207639D01*
X96902471Y-65242257D01*
X96861205Y-65272211D01*
X96834650Y-65291486D01*
X96771678Y-65336950D01*
X96715754Y-65376765D01*
X96686801Y-65396980D01*
X96665931Y-65411551D01*
X96621261Y-65441930D01*
X96580796Y-65468519D01*
X96543588Y-65491941D01*
X96508691Y-65512814D01*
X96500416Y-65517489D01*
X96475156Y-65531758D01*
X96442036Y-65549394D01*
X96434600Y-65553216D01*
X96403486Y-65568602D01*
X96365930Y-65586352D01*
X96323771Y-65605665D01*
X96278848Y-65625742D01*
X96232999Y-65645784D01*
X96188064Y-65664992D01*
X96145879Y-65682565D01*
X96108285Y-65697704D01*
X96077120Y-65709610D01*
X96064990Y-65713939D01*
X96054811Y-65717388D01*
X96047561Y-65719286D01*
X96043690Y-65718864D01*
X96043648Y-65715352D01*
X96047883Y-65707980D01*
X96056846Y-65695979D01*
X96070985Y-65678580D01*
X96090751Y-65655013D01*
X96116593Y-65624509D01*
X96118653Y-65622080D01*
X96168159Y-65564099D01*
X96212669Y-65512999D01*
X96253415Y-65467637D01*
X96291629Y-65426866D01*
X96296429Y-65422013D01*
X96480348Y-65422013D01*
X96482124Y-65427989D01*
X96488377Y-65432973D01*
X96489617Y-65433659D01*
X96494665Y-65435644D01*
X96500416Y-65435704D01*
X96508060Y-65433178D01*
X96518788Y-65427403D01*
X96533790Y-65417715D01*
X96554259Y-65403453D01*
X96581383Y-65383954D01*
X96589473Y-65378089D01*
X96618858Y-65356694D01*
X96640863Y-65340299D01*
X96656353Y-65327966D01*
X96666194Y-65318756D01*
X96671249Y-65311733D01*
X96672384Y-65305958D01*
X96670464Y-65300493D01*
X96666474Y-65294566D01*
X96657639Y-65288064D01*
X96651592Y-65288218D01*
X96645151Y-65292042D01*
X96631904Y-65300895D01*
X96613248Y-65313808D01*
X96590580Y-65329813D01*
X96565295Y-65347942D01*
X96561958Y-65350354D01*
X96531348Y-65372815D01*
X96508549Y-65390443D01*
X96492894Y-65404007D01*
X96483716Y-65414275D01*
X96480348Y-65422013D01*
X96296429Y-65422013D01*
X96328542Y-65389542D01*
X96365386Y-65354518D01*
X96403393Y-65320649D01*
X96443793Y-65286791D01*
X96457790Y-65275665D01*
X96674596Y-65275665D01*
X96675664Y-65284396D01*
X96679677Y-65290215D01*
X96686801Y-65295104D01*
X96695115Y-65293602D01*
X96700178Y-65291091D01*
X96706861Y-65286763D01*
X96720847Y-65277106D01*
X96741427Y-65262632D01*
X96767891Y-65243855D01*
X96799529Y-65221287D01*
X96835634Y-65195443D01*
X96875494Y-65166836D01*
X96918402Y-65135977D01*
X96963647Y-65103382D01*
X97010521Y-65069562D01*
X97058313Y-65035031D01*
X97106315Y-65000302D01*
X97153817Y-64965889D01*
X97200110Y-64932304D01*
X97244485Y-64900061D01*
X97286232Y-64869673D01*
X97324642Y-64841653D01*
X97359005Y-64816514D01*
X97388613Y-64794769D01*
X97412755Y-64776932D01*
X97430723Y-64763516D01*
X97441807Y-64755033D01*
X97445315Y-64752022D01*
X97441382Y-64747300D01*
X97432705Y-64742264D01*
X97420303Y-64739087D01*
X97407423Y-64742669D01*
X97405408Y-64743643D01*
X97398407Y-64748055D01*
X97384124Y-64757831D01*
X97363277Y-64772450D01*
X97336585Y-64791387D01*
X97304767Y-64814119D01*
X97268543Y-64840122D01*
X97228630Y-64868874D01*
X97185748Y-64899851D01*
X97140616Y-64932529D01*
X97093953Y-64966385D01*
X97046478Y-65000895D01*
X96998910Y-65035538D01*
X96951967Y-65069788D01*
X96906369Y-65103122D01*
X96862834Y-65135018D01*
X96822082Y-65164951D01*
X96784832Y-65192399D01*
X96751802Y-65216837D01*
X96723711Y-65237744D01*
X96701279Y-65254594D01*
X96685224Y-65266865D01*
X96676265Y-65274034D01*
X96674596Y-65275665D01*
X96457790Y-65275665D01*
X96487818Y-65251796D01*
X96536701Y-65214521D01*
X96591672Y-65173819D01*
X96632916Y-65143775D01*
X96646018Y-65134280D01*
X96666993Y-65119086D01*
X96695481Y-65098452D01*
X96731127Y-65072636D01*
X96773573Y-65041898D01*
X96822460Y-65006495D01*
X96877433Y-64966688D01*
X96938132Y-64922735D01*
X97004201Y-64874894D01*
X97075283Y-64823425D01*
X97151019Y-64768587D01*
X97219710Y-64718850D01*
X97445520Y-64718850D01*
X97449056Y-64729748D01*
X97458985Y-64733562D01*
X97474282Y-64730157D01*
X97486160Y-64724276D01*
X97505923Y-64711984D01*
X97528605Y-64696634D01*
X97550895Y-64680577D01*
X97569481Y-64666163D01*
X97576541Y-64660135D01*
X97585006Y-64648415D01*
X97586062Y-64637196D01*
X97579923Y-64629253D01*
X97574005Y-64627345D01*
X97565591Y-64629604D01*
X97551425Y-64636908D01*
X97533346Y-64647949D01*
X97513191Y-64661418D01*
X97492798Y-64676006D01*
X97474005Y-64690404D01*
X97458649Y-64703304D01*
X97448569Y-64713397D01*
X97445520Y-64718850D01*
X97219710Y-64718850D01*
X97231052Y-64710638D01*
X97315024Y-64649837D01*
X97402579Y-64586443D01*
X97493359Y-64520715D01*
X97523471Y-64498913D01*
X97730000Y-64498913D01*
X97733772Y-64509669D01*
X97742686Y-64518879D01*
X97753131Y-64523444D01*
X97757969Y-64522952D01*
X97762575Y-64518923D01*
X97761165Y-64511505D01*
X97753233Y-64499129D01*
X97748203Y-64492542D01*
X97741437Y-64487768D01*
X97751304Y-64487768D01*
X97762345Y-64501615D01*
X97773386Y-64515462D01*
X97801223Y-64496403D01*
X97811179Y-64489414D01*
X97828353Y-64477164D01*
X97851745Y-64460373D01*
X97880359Y-64439759D01*
X97913198Y-64416041D01*
X97949264Y-64389940D01*
X97987560Y-64362173D01*
X98012567Y-64344015D01*
X98054022Y-64313950D01*
X98095794Y-64283753D01*
X98136554Y-64254381D01*
X98174972Y-64226786D01*
X98209720Y-64201922D01*
X98239466Y-64180746D01*
X98262882Y-64164210D01*
X98270374Y-64158973D01*
X98344673Y-64107260D01*
X98334170Y-64092510D01*
X98326534Y-64082749D01*
X98321382Y-64077884D01*
X98320942Y-64077760D01*
X98316450Y-64080658D01*
X98304459Y-64089007D01*
X98285694Y-64102287D01*
X98260879Y-64119980D01*
X98230736Y-64141569D01*
X98195991Y-64166534D01*
X98157367Y-64194358D01*
X98115588Y-64224521D01*
X98073392Y-64255048D01*
X98027931Y-64287963D01*
X97983892Y-64319841D01*
X97942147Y-64350050D01*
X97903567Y-64377961D01*
X97869025Y-64402942D01*
X97839393Y-64424362D01*
X97815543Y-64441591D01*
X97798348Y-64453998D01*
X97789935Y-64460051D01*
X97751304Y-64487768D01*
X97741437Y-64487768D01*
X97739476Y-64486384D01*
X97732485Y-64489345D01*
X97730000Y-64498913D01*
X97523471Y-64498913D01*
X97587006Y-64452912D01*
X97683162Y-64383292D01*
X97781471Y-64312115D01*
X97881574Y-64239639D01*
X97971300Y-64174678D01*
X98071553Y-64102076D01*
X98119134Y-64067603D01*
X98333645Y-64067603D01*
X98338907Y-64076818D01*
X98344680Y-64085380D01*
X98353667Y-64097987D01*
X98360188Y-64106290D01*
X98362288Y-64108240D01*
X98368017Y-64106667D01*
X98372334Y-64105107D01*
X98376734Y-64102456D01*
X98376836Y-64098117D01*
X98371811Y-64090294D01*
X98360833Y-64077188D01*
X98358005Y-64073950D01*
X98347702Y-64065629D01*
X98338470Y-64062520D01*
X98333672Y-64063473D01*
X98333645Y-64067603D01*
X98119134Y-64067603D01*
X98169756Y-64030927D01*
X98265582Y-63961465D01*
X98358707Y-63893927D01*
X98448807Y-63828550D01*
X98479315Y-63806401D01*
X98696307Y-63806401D01*
X98697121Y-63815307D01*
X98705436Y-63827443D01*
X98710153Y-63832788D01*
X98723435Y-63845100D01*
X98732161Y-63848913D01*
X98735795Y-63845061D01*
X98733798Y-63834379D01*
X98725633Y-63817699D01*
X98722840Y-63813126D01*
X98714314Y-63800922D01*
X98708313Y-63796447D01*
X98702887Y-63798311D01*
X98702520Y-63798609D01*
X98696307Y-63806401D01*
X98479315Y-63806401D01*
X98504386Y-63788200D01*
X98720793Y-63788200D01*
X98723567Y-63793431D01*
X98730610Y-63803151D01*
X98732581Y-63805651D01*
X98744511Y-63820562D01*
X98761765Y-63810377D01*
X98769626Y-63805173D01*
X98784686Y-63794678D01*
X98805948Y-63779603D01*
X98832417Y-63760663D01*
X98863096Y-63738571D01*
X98896989Y-63714041D01*
X98933099Y-63687786D01*
X98942179Y-63681166D01*
X98980746Y-63653078D01*
X99019105Y-63625228D01*
X99055933Y-63598571D01*
X99089908Y-63574060D01*
X99119707Y-63552649D01*
X99144009Y-63535293D01*
X99161490Y-63522944D01*
X99162053Y-63522551D01*
X99187276Y-63504320D01*
X99204686Y-63490331D01*
X99213933Y-63480887D01*
X99215231Y-63476831D01*
X99209955Y-63468487D01*
X99202237Y-63457034D01*
X99202236Y-63457033D01*
X99192778Y-63443365D01*
X99160805Y-63467193D01*
X99150276Y-63474945D01*
X99132464Y-63487948D01*
X99108326Y-63505508D01*
X99078817Y-63526932D01*
X99044894Y-63551525D01*
X99007513Y-63578595D01*
X98967631Y-63607446D01*
X98926204Y-63637387D01*
X98924883Y-63638340D01*
X98884744Y-63667383D01*
X98847217Y-63694627D01*
X98813089Y-63719496D01*
X98783144Y-63741413D01*
X98758169Y-63759802D01*
X98738949Y-63774085D01*
X98726270Y-63783685D01*
X98720917Y-63788026D01*
X98720793Y-63788200D01*
X98504386Y-63788200D01*
X98535558Y-63765569D01*
X98618634Y-63705221D01*
X98697711Y-63647743D01*
X98772466Y-63593371D01*
X98842573Y-63542340D01*
X98907707Y-63494888D01*
X98967545Y-63451250D01*
X98980536Y-63441765D01*
X99206881Y-63441765D01*
X99211336Y-63453302D01*
X99213493Y-63457000D01*
X99222038Y-63469086D01*
X99228872Y-63472676D01*
X99236151Y-63468671D01*
X99237744Y-63467144D01*
X99243130Y-63458295D01*
X99240717Y-63448312D01*
X99233966Y-63438950D01*
X99223654Y-63429352D01*
X99215257Y-63428822D01*
X99209110Y-63434140D01*
X99206881Y-63441765D01*
X98980536Y-63441765D01*
X99021762Y-63411664D01*
X99070033Y-63376364D01*
X99112034Y-63345588D01*
X99135344Y-63328460D01*
X99391160Y-63328460D01*
X99393700Y-63331000D01*
X99396240Y-63328460D01*
X99393700Y-63325920D01*
X99391160Y-63328460D01*
X99135344Y-63328460D01*
X99141765Y-63323742D01*
X99401320Y-63323742D01*
X99405135Y-63325110D01*
X99416610Y-63320302D01*
X99435785Y-63309291D01*
X99462702Y-63292050D01*
X99497403Y-63268552D01*
X99539930Y-63238770D01*
X99590323Y-63202676D01*
X99618601Y-63182167D01*
X99662097Y-63150425D01*
X99697929Y-63124061D01*
X99726725Y-63102577D01*
X99749109Y-63085477D01*
X99765708Y-63072261D01*
X99777147Y-63062434D01*
X99784053Y-63055496D01*
X99787050Y-63050951D01*
X99786837Y-63048383D01*
X99779102Y-63044279D01*
X99775295Y-63045785D01*
X99769915Y-63049802D01*
X99757380Y-63059052D01*
X99738737Y-63072764D01*
X99715033Y-63090170D01*
X99687312Y-63110504D01*
X99656620Y-63132996D01*
X99642620Y-63143249D01*
X99585095Y-63185428D01*
X99535676Y-63221785D01*
X99494220Y-63252428D01*
X99460581Y-63277465D01*
X99434616Y-63297003D01*
X99416181Y-63311151D01*
X99405132Y-63320017D01*
X99401323Y-63323707D01*
X99401320Y-63323742D01*
X99141765Y-63323742D01*
X99147440Y-63319572D01*
X99175927Y-63298551D01*
X99197170Y-63282764D01*
X99210845Y-63272445D01*
X99216627Y-63267831D01*
X99216703Y-63267755D01*
X99222071Y-63261733D01*
X99226441Y-63255359D01*
X99229963Y-63247514D01*
X99232785Y-63237076D01*
X99235055Y-63222927D01*
X99236923Y-63203944D01*
X99238536Y-63179009D01*
X99240045Y-63147000D01*
X99241597Y-63106798D01*
X99242881Y-63070527D01*
X99244253Y-63032985D01*
X99245514Y-63004276D01*
X99246813Y-62983077D01*
X99248295Y-62968062D01*
X99250109Y-62957910D01*
X99252402Y-62951295D01*
X99255320Y-62946894D01*
X99256804Y-62945353D01*
X99265743Y-62937806D01*
X99280864Y-62926138D01*
X99300772Y-62911331D01*
X99324075Y-62894368D01*
X99349380Y-62876234D01*
X99375292Y-62857911D01*
X99400418Y-62840384D01*
X99423365Y-62824634D01*
X99442739Y-62811645D01*
X99457147Y-62802402D01*
X99465195Y-62797886D01*
X99466183Y-62797600D01*
X99472546Y-62800060D01*
G37*
%LPC*%
D15*
X29110000Y-42140000D03*
D16*
X29110000Y-49760000D03*
D17*
X77999900Y-63284600D03*
X89429900Y-63284600D03*
D18*
X79269900Y-56934600D03*
X80539900Y-54394600D03*
X81809900Y-56934600D03*
X83079900Y-54394600D03*
X84349900Y-56934600D03*
X85619900Y-54394600D03*
X86889900Y-56934600D03*
X88159900Y-54394600D03*
D19*
X104140000Y-60960000D03*
D20*
X104140000Y-60960000D03*
D19*
X29210000Y-35560000D03*
D20*
X29210000Y-35560000D03*
D17*
X44430000Y-63284600D03*
X55860000Y-63284600D03*
D18*
X45700000Y-56934600D03*
X46970000Y-54394600D03*
X48240000Y-56934600D03*
X49510000Y-54394600D03*
X50780000Y-56934600D03*
X52050000Y-54394600D03*
X53320000Y-56934600D03*
X54590000Y-54394600D03*
D21*
X35230000Y-38790000D03*
X35230000Y-33290000D03*
D22*
X38730000Y-38790000D03*
X38730000Y-33290000D03*
X42230000Y-38790000D03*
X42230000Y-33290000D03*
X45730000Y-38790000D03*
X45730000Y-33290000D03*
X49230000Y-38790000D03*
X49230000Y-33290000D03*
X52730000Y-38790000D03*
X52730000Y-33290000D03*
X56230000Y-38790000D03*
X56230000Y-33290000D03*
X59730000Y-38790000D03*
X59730000Y-33290000D03*
D19*
X29210000Y-60960000D03*
D20*
X29210000Y-60960000D03*
D22*
X64965000Y-38790000D03*
X64965000Y-33290000D03*
X68465000Y-38790000D03*
X68465000Y-33290000D03*
X71965000Y-38790000D03*
X71965000Y-33290000D03*
X75465000Y-38790000D03*
X75465000Y-33290000D03*
X78965000Y-38790000D03*
X78965000Y-33290000D03*
X82465000Y-38790000D03*
X82465000Y-33290000D03*
X85965000Y-38790000D03*
X85965000Y-33290000D03*
X89465000Y-38790000D03*
X89465000Y-33290000D03*
X39690000Y-50660000D03*
X39690000Y-45160000D03*
X43190000Y-50660000D03*
X43190000Y-45160000D03*
X46690000Y-50660000D03*
X46690000Y-45160000D03*
X50190000Y-50660000D03*
X50190000Y-45160000D03*
X53690000Y-50660000D03*
X53690000Y-45160000D03*
X57190000Y-50660000D03*
X57190000Y-45160000D03*
X60690000Y-50660000D03*
X60690000Y-45160000D03*
X64190000Y-50660000D03*
X64190000Y-45160000D03*
D23*
X29110000Y-54880000D03*
D24*
X29110000Y-52340000D03*
D22*
X94700000Y-38790000D03*
X94700000Y-33290000D03*
D21*
X98200000Y-38790000D03*
X98200000Y-33290000D03*
D22*
X70090000Y-50660000D03*
X70090000Y-45160000D03*
X73590000Y-50660000D03*
X73590000Y-45160000D03*
X77090000Y-50660000D03*
X77090000Y-45160000D03*
X80590000Y-50660000D03*
X80590000Y-45160000D03*
X84090000Y-50660000D03*
X84090000Y-45160000D03*
X87590000Y-50660000D03*
X87590000Y-45160000D03*
X91090000Y-50660000D03*
X91090000Y-45160000D03*
X94590000Y-50660000D03*
X94590000Y-45160000D03*
D19*
X104140000Y-35560000D03*
D20*
X104140000Y-35560000D03*
D17*
X61229900Y-63284600D03*
X72659900Y-63284600D03*
D18*
X62499900Y-56934600D03*
X63769900Y-54394600D03*
X65039900Y-56934600D03*
X66309900Y-54394600D03*
X67579900Y-56934600D03*
X68849900Y-54394600D03*
X70119900Y-56934600D03*
X71389900Y-54394600D03*
%LPD*%
M02*
