%TF.GenerationSoftware,KiCad,Pcbnew,7.0.7*%
%TF.CreationDate,2024-07-14T01:35:03-07:00*%
%TF.ProjectId,AnalogBox,416e616c-6f67-4426-9f78-2e6b69636164,rev?*%
%TF.SameCoordinates,Original*%
%TF.FileFunction,Drillmap*%
%TF.FilePolarity,Positive*%
%FSLAX45Y45*%
G04 Gerber Fmt 4.5, Leading zero omitted, Abs format (unit mm)*
G04 Created by KiCad (PCBNEW 7.0.7) date 2024-07-14 01:35:03*
%MOMM*%
%LPD*%
G01*
G04 APERTURE LIST*
%ADD10C,0.100000*%
%ADD11C,0.200000*%
%ADD12C,0.080000*%
%ADD13C,0.088900*%
%ADD14C,0.090000*%
%ADD15C,0.135000*%
%ADD16C,0.320000*%
G04 APERTURE END LIST*
D10*
X2921000Y-2540000D02*
X10414000Y-2540000D01*
X2921000Y-2540000D02*
G75*
G03*
X2540000Y-2921000I0J-381000D01*
G01*
X10795000Y-2921000D02*
G75*
G03*
X10414000Y-2540000I-381000J0D01*
G01*
X2540000Y-6731000D02*
G75*
G03*
X2921000Y-7112000I366813J-14187D01*
G01*
X10414000Y-7112000D02*
X2921000Y-7112000D01*
X10414000Y-7112000D02*
G75*
G03*
X10795000Y-6731000I-9814J390814D01*
G01*
X10795000Y-2921000D02*
X10795000Y-6731000D01*
X2540000Y-6731000D02*
X2540000Y-2921000D01*
D11*
D12*
X2871000Y-4174000D02*
X2951000Y-4254000D01*
X2951000Y-4174000D02*
X2871000Y-4254000D01*
X2871000Y-4936000D02*
X2951000Y-5016000D01*
X2951000Y-4936000D02*
X2871000Y-5016000D01*
D13*
X4614450Y-5693460D02*
G75*
G03*
X4614450Y-5693460I-44450J0D01*
G01*
X4741450Y-5439460D02*
G75*
G03*
X4741450Y-5439460I-44450J0D01*
G01*
X4868450Y-5693460D02*
G75*
G03*
X4868450Y-5693460I-44450J0D01*
G01*
X4995450Y-5439460D02*
G75*
G03*
X4995450Y-5439460I-44450J0D01*
G01*
X5122450Y-5693460D02*
G75*
G03*
X5122450Y-5693460I-44450J0D01*
G01*
X5249450Y-5439460D02*
G75*
G03*
X5249450Y-5439460I-44450J0D01*
G01*
X5376450Y-5693460D02*
G75*
G03*
X5376450Y-5693460I-44450J0D01*
G01*
X5503450Y-5439460D02*
G75*
G03*
X5503450Y-5439460I-44450J0D01*
G01*
X6294440Y-5693460D02*
G75*
G03*
X6294440Y-5693460I-44450J0D01*
G01*
X6421440Y-5439460D02*
G75*
G03*
X6421440Y-5439460I-44450J0D01*
G01*
X6548440Y-5693460D02*
G75*
G03*
X6548440Y-5693460I-44450J0D01*
G01*
X6675440Y-5439460D02*
G75*
G03*
X6675440Y-5439460I-44450J0D01*
G01*
X6802440Y-5693460D02*
G75*
G03*
X6802440Y-5693460I-44450J0D01*
G01*
X6929440Y-5439460D02*
G75*
G03*
X6929440Y-5439460I-44450J0D01*
G01*
X7056440Y-5693460D02*
G75*
G03*
X7056440Y-5693460I-44450J0D01*
G01*
X7183440Y-5439460D02*
G75*
G03*
X7183440Y-5439460I-44450J0D01*
G01*
X7971440Y-5693460D02*
G75*
G03*
X7971440Y-5693460I-44450J0D01*
G01*
X8098440Y-5439460D02*
G75*
G03*
X8098440Y-5439460I-44450J0D01*
G01*
X8225440Y-5693460D02*
G75*
G03*
X8225440Y-5693460I-44450J0D01*
G01*
X8352440Y-5439460D02*
G75*
G03*
X8352440Y-5439460I-44450J0D01*
G01*
X8479440Y-5693460D02*
G75*
G03*
X8479440Y-5693460I-44450J0D01*
G01*
X8606440Y-5439460D02*
G75*
G03*
X8606440Y-5439460I-44450J0D01*
G01*
X8733440Y-5693460D02*
G75*
G03*
X8733440Y-5693460I-44450J0D01*
G01*
X8860440Y-5439460D02*
G75*
G03*
X8860440Y-5439460I-44450J0D01*
G01*
D14*
X2911000Y-5189000D02*
X2911000Y-5279000D01*
X2866000Y-5234000D02*
X2956000Y-5234000D01*
X2911000Y-5443000D02*
X2911000Y-5533000D01*
X2866000Y-5488000D02*
X2956000Y-5488000D01*
D15*
X3570730Y-3376730D02*
X3570730Y-3281270D01*
X3475270Y-3281270D01*
X3475270Y-3376730D01*
X3570730Y-3376730D01*
X3570730Y-3926730D02*
X3570730Y-3831270D01*
X3475270Y-3831270D01*
X3475270Y-3926730D01*
X3570730Y-3926730D01*
X3920730Y-3376730D02*
X3920730Y-3281270D01*
X3825270Y-3281270D01*
X3825270Y-3376730D01*
X3920730Y-3376730D01*
X3920730Y-3926730D02*
X3920730Y-3831270D01*
X3825270Y-3831270D01*
X3825270Y-3926730D01*
X3920730Y-3926730D01*
X4016730Y-4563730D02*
X4016730Y-4468270D01*
X3921270Y-4468270D01*
X3921270Y-4563730D01*
X4016730Y-4563730D01*
X4016730Y-5113730D02*
X4016730Y-5018270D01*
X3921270Y-5018270D01*
X3921270Y-5113730D01*
X4016730Y-5113730D01*
X4270730Y-3376730D02*
X4270730Y-3281270D01*
X4175270Y-3281270D01*
X4175270Y-3376730D01*
X4270730Y-3376730D01*
X4270730Y-3926730D02*
X4270730Y-3831270D01*
X4175270Y-3831270D01*
X4175270Y-3926730D01*
X4270730Y-3926730D01*
X4366730Y-4563730D02*
X4366730Y-4468270D01*
X4271270Y-4468270D01*
X4271270Y-4563730D01*
X4366730Y-4563730D01*
X4366730Y-5113730D02*
X4366730Y-5018270D01*
X4271270Y-5018270D01*
X4271270Y-5113730D01*
X4366730Y-5113730D01*
X4620730Y-3376730D02*
X4620730Y-3281270D01*
X4525270Y-3281270D01*
X4525270Y-3376730D01*
X4620730Y-3376730D01*
X4620730Y-3926730D02*
X4620730Y-3831270D01*
X4525270Y-3831270D01*
X4525270Y-3926730D01*
X4620730Y-3926730D01*
X4716730Y-4563730D02*
X4716730Y-4468270D01*
X4621270Y-4468270D01*
X4621270Y-4563730D01*
X4716730Y-4563730D01*
X4716730Y-5113730D02*
X4716730Y-5018270D01*
X4621270Y-5018270D01*
X4621270Y-5113730D01*
X4716730Y-5113730D01*
X4970730Y-3376730D02*
X4970730Y-3281270D01*
X4875270Y-3281270D01*
X4875270Y-3376730D01*
X4970730Y-3376730D01*
X4970730Y-3926730D02*
X4970730Y-3831270D01*
X4875270Y-3831270D01*
X4875270Y-3926730D01*
X4970730Y-3926730D01*
X5066730Y-4563730D02*
X5066730Y-4468270D01*
X4971270Y-4468270D01*
X4971270Y-4563730D01*
X5066730Y-4563730D01*
X5066730Y-5113730D02*
X5066730Y-5018270D01*
X4971270Y-5018270D01*
X4971270Y-5113730D01*
X5066730Y-5113730D01*
X5320730Y-3376730D02*
X5320730Y-3281270D01*
X5225270Y-3281270D01*
X5225270Y-3376730D01*
X5320730Y-3376730D01*
X5320730Y-3926730D02*
X5320730Y-3831270D01*
X5225270Y-3831270D01*
X5225270Y-3926730D01*
X5320730Y-3926730D01*
X5416730Y-4563730D02*
X5416730Y-4468270D01*
X5321270Y-4468270D01*
X5321270Y-4563730D01*
X5416730Y-4563730D01*
X5416730Y-5113730D02*
X5416730Y-5018270D01*
X5321270Y-5018270D01*
X5321270Y-5113730D01*
X5416730Y-5113730D01*
X5670730Y-3376730D02*
X5670730Y-3281270D01*
X5575270Y-3281270D01*
X5575270Y-3376730D01*
X5670730Y-3376730D01*
X5670730Y-3926730D02*
X5670730Y-3831270D01*
X5575270Y-3831270D01*
X5575270Y-3926730D01*
X5670730Y-3926730D01*
X5766730Y-4563730D02*
X5766730Y-4468270D01*
X5671270Y-4468270D01*
X5671270Y-4563730D01*
X5766730Y-4563730D01*
X5766730Y-5113730D02*
X5766730Y-5018270D01*
X5671270Y-5018270D01*
X5671270Y-5113730D01*
X5766730Y-5113730D01*
X6020730Y-3376730D02*
X6020730Y-3281270D01*
X5925270Y-3281270D01*
X5925270Y-3376730D01*
X6020730Y-3376730D01*
X6020730Y-3926730D02*
X6020730Y-3831270D01*
X5925270Y-3831270D01*
X5925270Y-3926730D01*
X6020730Y-3926730D01*
X6116730Y-4563730D02*
X6116730Y-4468270D01*
X6021270Y-4468270D01*
X6021270Y-4563730D01*
X6116730Y-4563730D01*
X6116730Y-5113730D02*
X6116730Y-5018270D01*
X6021270Y-5018270D01*
X6021270Y-5113730D01*
X6116730Y-5113730D01*
X6466730Y-4563730D02*
X6466730Y-4468270D01*
X6371270Y-4468270D01*
X6371270Y-4563730D01*
X6466730Y-4563730D01*
X6466730Y-5113730D02*
X6466730Y-5018270D01*
X6371270Y-5018270D01*
X6371270Y-5113730D01*
X6466730Y-5113730D01*
X6544230Y-3376730D02*
X6544230Y-3281270D01*
X6448770Y-3281270D01*
X6448770Y-3376730D01*
X6544230Y-3376730D01*
X6544230Y-3926730D02*
X6544230Y-3831270D01*
X6448770Y-3831270D01*
X6448770Y-3926730D01*
X6544230Y-3926730D01*
X6894230Y-3376730D02*
X6894230Y-3281270D01*
X6798770Y-3281270D01*
X6798770Y-3376730D01*
X6894230Y-3376730D01*
X6894230Y-3926730D02*
X6894230Y-3831270D01*
X6798770Y-3831270D01*
X6798770Y-3926730D01*
X6894230Y-3926730D01*
X7056730Y-4563730D02*
X7056730Y-4468270D01*
X6961270Y-4468270D01*
X6961270Y-4563730D01*
X7056730Y-4563730D01*
X7056730Y-5113730D02*
X7056730Y-5018270D01*
X6961270Y-5018270D01*
X6961270Y-5113730D01*
X7056730Y-5113730D01*
X7244230Y-3376730D02*
X7244230Y-3281270D01*
X7148770Y-3281270D01*
X7148770Y-3376730D01*
X7244230Y-3376730D01*
X7244230Y-3926730D02*
X7244230Y-3831270D01*
X7148770Y-3831270D01*
X7148770Y-3926730D01*
X7244230Y-3926730D01*
X7406730Y-4563730D02*
X7406730Y-4468270D01*
X7311270Y-4468270D01*
X7311270Y-4563730D01*
X7406730Y-4563730D01*
X7406730Y-5113730D02*
X7406730Y-5018270D01*
X7311270Y-5018270D01*
X7311270Y-5113730D01*
X7406730Y-5113730D01*
X7594230Y-3376730D02*
X7594230Y-3281270D01*
X7498770Y-3281270D01*
X7498770Y-3376730D01*
X7594230Y-3376730D01*
X7594230Y-3926730D02*
X7594230Y-3831270D01*
X7498770Y-3831270D01*
X7498770Y-3926730D01*
X7594230Y-3926730D01*
X7756730Y-4563730D02*
X7756730Y-4468270D01*
X7661270Y-4468270D01*
X7661270Y-4563730D01*
X7756730Y-4563730D01*
X7756730Y-5113730D02*
X7756730Y-5018270D01*
X7661270Y-5018270D01*
X7661270Y-5113730D01*
X7756730Y-5113730D01*
X7944230Y-3376730D02*
X7944230Y-3281270D01*
X7848770Y-3281270D01*
X7848770Y-3376730D01*
X7944230Y-3376730D01*
X7944230Y-3926730D02*
X7944230Y-3831270D01*
X7848770Y-3831270D01*
X7848770Y-3926730D01*
X7944230Y-3926730D01*
X8106730Y-4563730D02*
X8106730Y-4468270D01*
X8011270Y-4468270D01*
X8011270Y-4563730D01*
X8106730Y-4563730D01*
X8106730Y-5113730D02*
X8106730Y-5018270D01*
X8011270Y-5018270D01*
X8011270Y-5113730D01*
X8106730Y-5113730D01*
X8294230Y-3376730D02*
X8294230Y-3281270D01*
X8198770Y-3281270D01*
X8198770Y-3376730D01*
X8294230Y-3376730D01*
X8294230Y-3926730D02*
X8294230Y-3831270D01*
X8198770Y-3831270D01*
X8198770Y-3926730D01*
X8294230Y-3926730D01*
X8456730Y-4563730D02*
X8456730Y-4468270D01*
X8361270Y-4468270D01*
X8361270Y-4563730D01*
X8456730Y-4563730D01*
X8456730Y-5113730D02*
X8456730Y-5018270D01*
X8361270Y-5018270D01*
X8361270Y-5113730D01*
X8456730Y-5113730D01*
X8644230Y-3376730D02*
X8644230Y-3281270D01*
X8548770Y-3281270D01*
X8548770Y-3376730D01*
X8644230Y-3376730D01*
X8644230Y-3926730D02*
X8644230Y-3831270D01*
X8548770Y-3831270D01*
X8548770Y-3926730D01*
X8644230Y-3926730D01*
X8806730Y-4563730D02*
X8806730Y-4468270D01*
X8711270Y-4468270D01*
X8711270Y-4563730D01*
X8806730Y-4563730D01*
X8806730Y-5113730D02*
X8806730Y-5018270D01*
X8711270Y-5018270D01*
X8711270Y-5113730D01*
X8806730Y-5113730D01*
X8994230Y-3376730D02*
X8994230Y-3281270D01*
X8898770Y-3281270D01*
X8898770Y-3376730D01*
X8994230Y-3376730D01*
X8994230Y-3926730D02*
X8994230Y-3831270D01*
X8898770Y-3831270D01*
X8898770Y-3926730D01*
X8994230Y-3926730D01*
X9156730Y-4563730D02*
X9156730Y-4468270D01*
X9061270Y-4468270D01*
X9061270Y-4563730D01*
X9156730Y-4563730D01*
X9156730Y-5113730D02*
X9156730Y-5018270D01*
X9061270Y-5018270D01*
X9061270Y-5113730D01*
X9156730Y-5113730D01*
X9506730Y-4563730D02*
X9506730Y-4468270D01*
X9411270Y-4468270D01*
X9411270Y-4563730D01*
X9506730Y-4563730D01*
X9506730Y-5113730D02*
X9506730Y-5018270D01*
X9411270Y-5018270D01*
X9411270Y-5113730D01*
X9506730Y-5113730D01*
X9517730Y-3376730D02*
X9517730Y-3281270D01*
X9422270Y-3281270D01*
X9422270Y-3376730D01*
X9517730Y-3376730D01*
X9517730Y-3926730D02*
X9517730Y-3831270D01*
X9422270Y-3831270D01*
X9422270Y-3926730D01*
X9517730Y-3926730D01*
X9867730Y-3376730D02*
X9867730Y-3281270D01*
X9772270Y-3281270D01*
X9772270Y-3376730D01*
X9867730Y-3376730D01*
X9867730Y-3926730D02*
X9867730Y-3831270D01*
X9772270Y-3831270D01*
X9772270Y-3926730D01*
X9867730Y-3926730D01*
D16*
X2921000Y-3716000D02*
X3081000Y-3556000D01*
X2921000Y-3396000D01*
X2761000Y-3556000D01*
X2921000Y-3716000D01*
X2921000Y-6256000D02*
X3081000Y-6096000D01*
X2921000Y-5936000D01*
X2761000Y-6096000D01*
X2921000Y-6256000D01*
X10414000Y-3716000D02*
X10574000Y-3556000D01*
X10414000Y-3396000D01*
X10254000Y-3556000D01*
X10414000Y-3716000D01*
X10414000Y-6256000D02*
X10574000Y-6096000D01*
X10414000Y-5936000D01*
X10254000Y-6096000D01*
X10414000Y-6256000D01*
D11*
X2795503Y-7428758D02*
X2795503Y-7228758D01*
X2795503Y-7228758D02*
X2843122Y-7228758D01*
X2843122Y-7228758D02*
X2871693Y-7238282D01*
X2871693Y-7238282D02*
X2890741Y-7257329D01*
X2890741Y-7257329D02*
X2900264Y-7276377D01*
X2900264Y-7276377D02*
X2909788Y-7314472D01*
X2909788Y-7314472D02*
X2909788Y-7343044D01*
X2909788Y-7343044D02*
X2900264Y-7381139D01*
X2900264Y-7381139D02*
X2890741Y-7400186D01*
X2890741Y-7400186D02*
X2871693Y-7419234D01*
X2871693Y-7419234D02*
X2843122Y-7428758D01*
X2843122Y-7428758D02*
X2795503Y-7428758D01*
X2995503Y-7428758D02*
X2995503Y-7295425D01*
X2995503Y-7333520D02*
X3005026Y-7314472D01*
X3005026Y-7314472D02*
X3014550Y-7304948D01*
X3014550Y-7304948D02*
X3033598Y-7295425D01*
X3033598Y-7295425D02*
X3052645Y-7295425D01*
X3119312Y-7428758D02*
X3119312Y-7295425D01*
X3119312Y-7228758D02*
X3109788Y-7238282D01*
X3109788Y-7238282D02*
X3119312Y-7247806D01*
X3119312Y-7247806D02*
X3128836Y-7238282D01*
X3128836Y-7238282D02*
X3119312Y-7228758D01*
X3119312Y-7228758D02*
X3119312Y-7247806D01*
X3243122Y-7428758D02*
X3224074Y-7419234D01*
X3224074Y-7419234D02*
X3214550Y-7400186D01*
X3214550Y-7400186D02*
X3214550Y-7228758D01*
X3347883Y-7428758D02*
X3328836Y-7419234D01*
X3328836Y-7419234D02*
X3319312Y-7400186D01*
X3319312Y-7400186D02*
X3319312Y-7228758D01*
X3576455Y-7428758D02*
X3576455Y-7228758D01*
X3576455Y-7228758D02*
X3643122Y-7371615D01*
X3643122Y-7371615D02*
X3709788Y-7228758D01*
X3709788Y-7228758D02*
X3709788Y-7428758D01*
X3890741Y-7428758D02*
X3890741Y-7323996D01*
X3890741Y-7323996D02*
X3881217Y-7304948D01*
X3881217Y-7304948D02*
X3862169Y-7295425D01*
X3862169Y-7295425D02*
X3824074Y-7295425D01*
X3824074Y-7295425D02*
X3805026Y-7304948D01*
X3890741Y-7419234D02*
X3871693Y-7428758D01*
X3871693Y-7428758D02*
X3824074Y-7428758D01*
X3824074Y-7428758D02*
X3805026Y-7419234D01*
X3805026Y-7419234D02*
X3795503Y-7400186D01*
X3795503Y-7400186D02*
X3795503Y-7381139D01*
X3795503Y-7381139D02*
X3805026Y-7362091D01*
X3805026Y-7362091D02*
X3824074Y-7352567D01*
X3824074Y-7352567D02*
X3871693Y-7352567D01*
X3871693Y-7352567D02*
X3890741Y-7343044D01*
X3985979Y-7295425D02*
X3985979Y-7495425D01*
X3985979Y-7304948D02*
X4005026Y-7295425D01*
X4005026Y-7295425D02*
X4043122Y-7295425D01*
X4043122Y-7295425D02*
X4062169Y-7304948D01*
X4062169Y-7304948D02*
X4071693Y-7314472D01*
X4071693Y-7314472D02*
X4081217Y-7333520D01*
X4081217Y-7333520D02*
X4081217Y-7390663D01*
X4081217Y-7390663D02*
X4071693Y-7409710D01*
X4071693Y-7409710D02*
X4062169Y-7419234D01*
X4062169Y-7419234D02*
X4043122Y-7428758D01*
X4043122Y-7428758D02*
X4005026Y-7428758D01*
X4005026Y-7428758D02*
X3985979Y-7419234D01*
X4166931Y-7409710D02*
X4176455Y-7419234D01*
X4176455Y-7419234D02*
X4166931Y-7428758D01*
X4166931Y-7428758D02*
X4157407Y-7419234D01*
X4157407Y-7419234D02*
X4166931Y-7409710D01*
X4166931Y-7409710D02*
X4166931Y-7428758D01*
X4166931Y-7304948D02*
X4176455Y-7314472D01*
X4176455Y-7314472D02*
X4166931Y-7323996D01*
X4166931Y-7323996D02*
X4157407Y-7314472D01*
X4157407Y-7314472D02*
X4166931Y-7304948D01*
X4166931Y-7304948D02*
X4166931Y-7323996D01*
D12*
X2454726Y-7717274D02*
X2534726Y-7797274D01*
X2534726Y-7717274D02*
X2454726Y-7797274D01*
D11*
X2833598Y-7648758D02*
X2852645Y-7648758D01*
X2852645Y-7648758D02*
X2871693Y-7658282D01*
X2871693Y-7658282D02*
X2881217Y-7667806D01*
X2881217Y-7667806D02*
X2890741Y-7686853D01*
X2890741Y-7686853D02*
X2900264Y-7724948D01*
X2900264Y-7724948D02*
X2900264Y-7772567D01*
X2900264Y-7772567D02*
X2890741Y-7810663D01*
X2890741Y-7810663D02*
X2881217Y-7829710D01*
X2881217Y-7829710D02*
X2871693Y-7839234D01*
X2871693Y-7839234D02*
X2852645Y-7848758D01*
X2852645Y-7848758D02*
X2833598Y-7848758D01*
X2833598Y-7848758D02*
X2814550Y-7839234D01*
X2814550Y-7839234D02*
X2805026Y-7829710D01*
X2805026Y-7829710D02*
X2795503Y-7810663D01*
X2795503Y-7810663D02*
X2785979Y-7772567D01*
X2785979Y-7772567D02*
X2785979Y-7724948D01*
X2785979Y-7724948D02*
X2795503Y-7686853D01*
X2795503Y-7686853D02*
X2805026Y-7667806D01*
X2805026Y-7667806D02*
X2814550Y-7658282D01*
X2814550Y-7658282D02*
X2833598Y-7648758D01*
X2985979Y-7829710D02*
X2995503Y-7839234D01*
X2995503Y-7839234D02*
X2985979Y-7848758D01*
X2985979Y-7848758D02*
X2976455Y-7839234D01*
X2976455Y-7839234D02*
X2985979Y-7829710D01*
X2985979Y-7829710D02*
X2985979Y-7848758D01*
X3109788Y-7734472D02*
X3090741Y-7724948D01*
X3090741Y-7724948D02*
X3081217Y-7715425D01*
X3081217Y-7715425D02*
X3071693Y-7696377D01*
X3071693Y-7696377D02*
X3071693Y-7686853D01*
X3071693Y-7686853D02*
X3081217Y-7667806D01*
X3081217Y-7667806D02*
X3090741Y-7658282D01*
X3090741Y-7658282D02*
X3109788Y-7648758D01*
X3109788Y-7648758D02*
X3147884Y-7648758D01*
X3147884Y-7648758D02*
X3166931Y-7658282D01*
X3166931Y-7658282D02*
X3176455Y-7667806D01*
X3176455Y-7667806D02*
X3185979Y-7686853D01*
X3185979Y-7686853D02*
X3185979Y-7696377D01*
X3185979Y-7696377D02*
X3176455Y-7715425D01*
X3176455Y-7715425D02*
X3166931Y-7724948D01*
X3166931Y-7724948D02*
X3147884Y-7734472D01*
X3147884Y-7734472D02*
X3109788Y-7734472D01*
X3109788Y-7734472D02*
X3090741Y-7743996D01*
X3090741Y-7743996D02*
X3081217Y-7753520D01*
X3081217Y-7753520D02*
X3071693Y-7772567D01*
X3071693Y-7772567D02*
X3071693Y-7810663D01*
X3071693Y-7810663D02*
X3081217Y-7829710D01*
X3081217Y-7829710D02*
X3090741Y-7839234D01*
X3090741Y-7839234D02*
X3109788Y-7848758D01*
X3109788Y-7848758D02*
X3147884Y-7848758D01*
X3147884Y-7848758D02*
X3166931Y-7839234D01*
X3166931Y-7839234D02*
X3176455Y-7829710D01*
X3176455Y-7829710D02*
X3185979Y-7810663D01*
X3185979Y-7810663D02*
X3185979Y-7772567D01*
X3185979Y-7772567D02*
X3176455Y-7753520D01*
X3176455Y-7753520D02*
X3166931Y-7743996D01*
X3166931Y-7743996D02*
X3147884Y-7734472D01*
X3309788Y-7648758D02*
X3328836Y-7648758D01*
X3328836Y-7648758D02*
X3347884Y-7658282D01*
X3347884Y-7658282D02*
X3357407Y-7667806D01*
X3357407Y-7667806D02*
X3366931Y-7686853D01*
X3366931Y-7686853D02*
X3376455Y-7724948D01*
X3376455Y-7724948D02*
X3376455Y-7772567D01*
X3376455Y-7772567D02*
X3366931Y-7810663D01*
X3366931Y-7810663D02*
X3357407Y-7829710D01*
X3357407Y-7829710D02*
X3347884Y-7839234D01*
X3347884Y-7839234D02*
X3328836Y-7848758D01*
X3328836Y-7848758D02*
X3309788Y-7848758D01*
X3309788Y-7848758D02*
X3290741Y-7839234D01*
X3290741Y-7839234D02*
X3281217Y-7829710D01*
X3281217Y-7829710D02*
X3271693Y-7810663D01*
X3271693Y-7810663D02*
X3262169Y-7772567D01*
X3262169Y-7772567D02*
X3262169Y-7724948D01*
X3262169Y-7724948D02*
X3271693Y-7686853D01*
X3271693Y-7686853D02*
X3281217Y-7667806D01*
X3281217Y-7667806D02*
X3290741Y-7658282D01*
X3290741Y-7658282D02*
X3309788Y-7648758D01*
X3500264Y-7648758D02*
X3519312Y-7648758D01*
X3519312Y-7648758D02*
X3538360Y-7658282D01*
X3538360Y-7658282D02*
X3547884Y-7667806D01*
X3547884Y-7667806D02*
X3557407Y-7686853D01*
X3557407Y-7686853D02*
X3566931Y-7724948D01*
X3566931Y-7724948D02*
X3566931Y-7772567D01*
X3566931Y-7772567D02*
X3557407Y-7810663D01*
X3557407Y-7810663D02*
X3547884Y-7829710D01*
X3547884Y-7829710D02*
X3538360Y-7839234D01*
X3538360Y-7839234D02*
X3519312Y-7848758D01*
X3519312Y-7848758D02*
X3500264Y-7848758D01*
X3500264Y-7848758D02*
X3481217Y-7839234D01*
X3481217Y-7839234D02*
X3471693Y-7829710D01*
X3471693Y-7829710D02*
X3462169Y-7810663D01*
X3462169Y-7810663D02*
X3452645Y-7772567D01*
X3452645Y-7772567D02*
X3452645Y-7724948D01*
X3452645Y-7724948D02*
X3462169Y-7686853D01*
X3462169Y-7686853D02*
X3471693Y-7667806D01*
X3471693Y-7667806D02*
X3481217Y-7658282D01*
X3481217Y-7658282D02*
X3500264Y-7648758D01*
X3652645Y-7848758D02*
X3652645Y-7715425D01*
X3652645Y-7734472D02*
X3662169Y-7724948D01*
X3662169Y-7724948D02*
X3681217Y-7715425D01*
X3681217Y-7715425D02*
X3709788Y-7715425D01*
X3709788Y-7715425D02*
X3728836Y-7724948D01*
X3728836Y-7724948D02*
X3738360Y-7743996D01*
X3738360Y-7743996D02*
X3738360Y-7848758D01*
X3738360Y-7743996D02*
X3747884Y-7724948D01*
X3747884Y-7724948D02*
X3766931Y-7715425D01*
X3766931Y-7715425D02*
X3795503Y-7715425D01*
X3795503Y-7715425D02*
X3814550Y-7724948D01*
X3814550Y-7724948D02*
X3824074Y-7743996D01*
X3824074Y-7743996D02*
X3824074Y-7848758D01*
X3919312Y-7848758D02*
X3919312Y-7715425D01*
X3919312Y-7734472D02*
X3928836Y-7724948D01*
X3928836Y-7724948D02*
X3947884Y-7715425D01*
X3947884Y-7715425D02*
X3976455Y-7715425D01*
X3976455Y-7715425D02*
X3995503Y-7724948D01*
X3995503Y-7724948D02*
X4005026Y-7743996D01*
X4005026Y-7743996D02*
X4005026Y-7848758D01*
X4005026Y-7743996D02*
X4014550Y-7724948D01*
X4014550Y-7724948D02*
X4033598Y-7715425D01*
X4033598Y-7715425D02*
X4062169Y-7715425D01*
X4062169Y-7715425D02*
X4081217Y-7724948D01*
X4081217Y-7724948D02*
X4090741Y-7743996D01*
X4090741Y-7743996D02*
X4090741Y-7848758D01*
X4481217Y-7639234D02*
X4309789Y-7896377D01*
X4738360Y-7648758D02*
X4757408Y-7648758D01*
X4757408Y-7648758D02*
X4776455Y-7658282D01*
X4776455Y-7658282D02*
X4785979Y-7667806D01*
X4785979Y-7667806D02*
X4795503Y-7686853D01*
X4795503Y-7686853D02*
X4805027Y-7724948D01*
X4805027Y-7724948D02*
X4805027Y-7772567D01*
X4805027Y-7772567D02*
X4795503Y-7810663D01*
X4795503Y-7810663D02*
X4785979Y-7829710D01*
X4785979Y-7829710D02*
X4776455Y-7839234D01*
X4776455Y-7839234D02*
X4757408Y-7848758D01*
X4757408Y-7848758D02*
X4738360Y-7848758D01*
X4738360Y-7848758D02*
X4719312Y-7839234D01*
X4719312Y-7839234D02*
X4709789Y-7829710D01*
X4709789Y-7829710D02*
X4700265Y-7810663D01*
X4700265Y-7810663D02*
X4690741Y-7772567D01*
X4690741Y-7772567D02*
X4690741Y-7724948D01*
X4690741Y-7724948D02*
X4700265Y-7686853D01*
X4700265Y-7686853D02*
X4709789Y-7667806D01*
X4709789Y-7667806D02*
X4719312Y-7658282D01*
X4719312Y-7658282D02*
X4738360Y-7648758D01*
X4890741Y-7829710D02*
X4900265Y-7839234D01*
X4900265Y-7839234D02*
X4890741Y-7848758D01*
X4890741Y-7848758D02*
X4881217Y-7839234D01*
X4881217Y-7839234D02*
X4890741Y-7829710D01*
X4890741Y-7829710D02*
X4890741Y-7848758D01*
X5024074Y-7648758D02*
X5043122Y-7648758D01*
X5043122Y-7648758D02*
X5062170Y-7658282D01*
X5062170Y-7658282D02*
X5071693Y-7667806D01*
X5071693Y-7667806D02*
X5081217Y-7686853D01*
X5081217Y-7686853D02*
X5090741Y-7724948D01*
X5090741Y-7724948D02*
X5090741Y-7772567D01*
X5090741Y-7772567D02*
X5081217Y-7810663D01*
X5081217Y-7810663D02*
X5071693Y-7829710D01*
X5071693Y-7829710D02*
X5062170Y-7839234D01*
X5062170Y-7839234D02*
X5043122Y-7848758D01*
X5043122Y-7848758D02*
X5024074Y-7848758D01*
X5024074Y-7848758D02*
X5005027Y-7839234D01*
X5005027Y-7839234D02*
X4995503Y-7829710D01*
X4995503Y-7829710D02*
X4985979Y-7810663D01*
X4985979Y-7810663D02*
X4976455Y-7772567D01*
X4976455Y-7772567D02*
X4976455Y-7724948D01*
X4976455Y-7724948D02*
X4985979Y-7686853D01*
X4985979Y-7686853D02*
X4995503Y-7667806D01*
X4995503Y-7667806D02*
X5005027Y-7658282D01*
X5005027Y-7658282D02*
X5024074Y-7648758D01*
X5157408Y-7648758D02*
X5281217Y-7648758D01*
X5281217Y-7648758D02*
X5214550Y-7724948D01*
X5214550Y-7724948D02*
X5243122Y-7724948D01*
X5243122Y-7724948D02*
X5262170Y-7734472D01*
X5262170Y-7734472D02*
X5271693Y-7743996D01*
X5271693Y-7743996D02*
X5281217Y-7763044D01*
X5281217Y-7763044D02*
X5281217Y-7810663D01*
X5281217Y-7810663D02*
X5271693Y-7829710D01*
X5271693Y-7829710D02*
X5262170Y-7839234D01*
X5262170Y-7839234D02*
X5243122Y-7848758D01*
X5243122Y-7848758D02*
X5185979Y-7848758D01*
X5185979Y-7848758D02*
X5166931Y-7839234D01*
X5166931Y-7839234D02*
X5157408Y-7829710D01*
X5471693Y-7848758D02*
X5357408Y-7848758D01*
X5414550Y-7848758D02*
X5414550Y-7648758D01*
X5414550Y-7648758D02*
X5395503Y-7677329D01*
X5395503Y-7677329D02*
X5376455Y-7696377D01*
X5376455Y-7696377D02*
X5357408Y-7705901D01*
X5652646Y-7648758D02*
X5557408Y-7648758D01*
X5557408Y-7648758D02*
X5547884Y-7743996D01*
X5547884Y-7743996D02*
X5557408Y-7734472D01*
X5557408Y-7734472D02*
X5576455Y-7724948D01*
X5576455Y-7724948D02*
X5624074Y-7724948D01*
X5624074Y-7724948D02*
X5643122Y-7734472D01*
X5643122Y-7734472D02*
X5652646Y-7743996D01*
X5652646Y-7743996D02*
X5662169Y-7763044D01*
X5662169Y-7763044D02*
X5662169Y-7810663D01*
X5662169Y-7810663D02*
X5652646Y-7829710D01*
X5652646Y-7829710D02*
X5643122Y-7839234D01*
X5643122Y-7839234D02*
X5624074Y-7848758D01*
X5624074Y-7848758D02*
X5576455Y-7848758D01*
X5576455Y-7848758D02*
X5557408Y-7839234D01*
X5557408Y-7839234D02*
X5547884Y-7829710D01*
X5738360Y-7648758D02*
X5738360Y-7686853D01*
X5814550Y-7648758D02*
X5814550Y-7686853D01*
X6109789Y-7924948D02*
X6100265Y-7915425D01*
X6100265Y-7915425D02*
X6081217Y-7886853D01*
X6081217Y-7886853D02*
X6071693Y-7867806D01*
X6071693Y-7867806D02*
X6062170Y-7839234D01*
X6062170Y-7839234D02*
X6052646Y-7791615D01*
X6052646Y-7791615D02*
X6052646Y-7753520D01*
X6052646Y-7753520D02*
X6062170Y-7705901D01*
X6062170Y-7705901D02*
X6071693Y-7677329D01*
X6071693Y-7677329D02*
X6081217Y-7658282D01*
X6081217Y-7658282D02*
X6100265Y-7629710D01*
X6100265Y-7629710D02*
X6109789Y-7620186D01*
X6176455Y-7667806D02*
X6185979Y-7658282D01*
X6185979Y-7658282D02*
X6205027Y-7648758D01*
X6205027Y-7648758D02*
X6252646Y-7648758D01*
X6252646Y-7648758D02*
X6271693Y-7658282D01*
X6271693Y-7658282D02*
X6281217Y-7667806D01*
X6281217Y-7667806D02*
X6290741Y-7686853D01*
X6290741Y-7686853D02*
X6290741Y-7705901D01*
X6290741Y-7705901D02*
X6281217Y-7734472D01*
X6281217Y-7734472D02*
X6166931Y-7848758D01*
X6166931Y-7848758D02*
X6290741Y-7848758D01*
X6528836Y-7848758D02*
X6528836Y-7648758D01*
X6614551Y-7848758D02*
X6614551Y-7743996D01*
X6614551Y-7743996D02*
X6605027Y-7724948D01*
X6605027Y-7724948D02*
X6585979Y-7715425D01*
X6585979Y-7715425D02*
X6557408Y-7715425D01*
X6557408Y-7715425D02*
X6538360Y-7724948D01*
X6538360Y-7724948D02*
X6528836Y-7734472D01*
X6738360Y-7848758D02*
X6719312Y-7839234D01*
X6719312Y-7839234D02*
X6709789Y-7829710D01*
X6709789Y-7829710D02*
X6700265Y-7810663D01*
X6700265Y-7810663D02*
X6700265Y-7753520D01*
X6700265Y-7753520D02*
X6709789Y-7734472D01*
X6709789Y-7734472D02*
X6719312Y-7724948D01*
X6719312Y-7724948D02*
X6738360Y-7715425D01*
X6738360Y-7715425D02*
X6766932Y-7715425D01*
X6766932Y-7715425D02*
X6785979Y-7724948D01*
X6785979Y-7724948D02*
X6795503Y-7734472D01*
X6795503Y-7734472D02*
X6805027Y-7753520D01*
X6805027Y-7753520D02*
X6805027Y-7810663D01*
X6805027Y-7810663D02*
X6795503Y-7829710D01*
X6795503Y-7829710D02*
X6785979Y-7839234D01*
X6785979Y-7839234D02*
X6766932Y-7848758D01*
X6766932Y-7848758D02*
X6738360Y-7848758D01*
X6919312Y-7848758D02*
X6900265Y-7839234D01*
X6900265Y-7839234D02*
X6890741Y-7820186D01*
X6890741Y-7820186D02*
X6890741Y-7648758D01*
X7071693Y-7839234D02*
X7052646Y-7848758D01*
X7052646Y-7848758D02*
X7014551Y-7848758D01*
X7014551Y-7848758D02*
X6995503Y-7839234D01*
X6995503Y-7839234D02*
X6985979Y-7820186D01*
X6985979Y-7820186D02*
X6985979Y-7743996D01*
X6985979Y-7743996D02*
X6995503Y-7724948D01*
X6995503Y-7724948D02*
X7014551Y-7715425D01*
X7014551Y-7715425D02*
X7052646Y-7715425D01*
X7052646Y-7715425D02*
X7071693Y-7724948D01*
X7071693Y-7724948D02*
X7081217Y-7743996D01*
X7081217Y-7743996D02*
X7081217Y-7763044D01*
X7081217Y-7763044D02*
X6985979Y-7782091D01*
X7157408Y-7839234D02*
X7176455Y-7848758D01*
X7176455Y-7848758D02*
X7214551Y-7848758D01*
X7214551Y-7848758D02*
X7233598Y-7839234D01*
X7233598Y-7839234D02*
X7243122Y-7820186D01*
X7243122Y-7820186D02*
X7243122Y-7810663D01*
X7243122Y-7810663D02*
X7233598Y-7791615D01*
X7233598Y-7791615D02*
X7214551Y-7782091D01*
X7214551Y-7782091D02*
X7185979Y-7782091D01*
X7185979Y-7782091D02*
X7166932Y-7772567D01*
X7166932Y-7772567D02*
X7157408Y-7753520D01*
X7157408Y-7753520D02*
X7157408Y-7743996D01*
X7157408Y-7743996D02*
X7166932Y-7724948D01*
X7166932Y-7724948D02*
X7185979Y-7715425D01*
X7185979Y-7715425D02*
X7214551Y-7715425D01*
X7214551Y-7715425D02*
X7233598Y-7724948D01*
X7309789Y-7924948D02*
X7319313Y-7915425D01*
X7319313Y-7915425D02*
X7338360Y-7886853D01*
X7338360Y-7886853D02*
X7347884Y-7867806D01*
X7347884Y-7867806D02*
X7357408Y-7839234D01*
X7357408Y-7839234D02*
X7366932Y-7791615D01*
X7366932Y-7791615D02*
X7366932Y-7753520D01*
X7366932Y-7753520D02*
X7357408Y-7705901D01*
X7357408Y-7705901D02*
X7347884Y-7677329D01*
X7347884Y-7677329D02*
X7338360Y-7658282D01*
X7338360Y-7658282D02*
X7319313Y-7629710D01*
X7319313Y-7629710D02*
X7309789Y-7620186D01*
D13*
X2534726Y-8021274D02*
G75*
G03*
X2534726Y-8021274I-44450J0D01*
G01*
D11*
X2833598Y-7912758D02*
X2852645Y-7912758D01*
X2852645Y-7912758D02*
X2871693Y-7922282D01*
X2871693Y-7922282D02*
X2881217Y-7931806D01*
X2881217Y-7931806D02*
X2890741Y-7950853D01*
X2890741Y-7950853D02*
X2900264Y-7988948D01*
X2900264Y-7988948D02*
X2900264Y-8036567D01*
X2900264Y-8036567D02*
X2890741Y-8074663D01*
X2890741Y-8074663D02*
X2881217Y-8093710D01*
X2881217Y-8093710D02*
X2871693Y-8103234D01*
X2871693Y-8103234D02*
X2852645Y-8112758D01*
X2852645Y-8112758D02*
X2833598Y-8112758D01*
X2833598Y-8112758D02*
X2814550Y-8103234D01*
X2814550Y-8103234D02*
X2805026Y-8093710D01*
X2805026Y-8093710D02*
X2795503Y-8074663D01*
X2795503Y-8074663D02*
X2785979Y-8036567D01*
X2785979Y-8036567D02*
X2785979Y-7988948D01*
X2785979Y-7988948D02*
X2795503Y-7950853D01*
X2795503Y-7950853D02*
X2805026Y-7931806D01*
X2805026Y-7931806D02*
X2814550Y-7922282D01*
X2814550Y-7922282D02*
X2833598Y-7912758D01*
X2985979Y-8093710D02*
X2995503Y-8103234D01*
X2995503Y-8103234D02*
X2985979Y-8112758D01*
X2985979Y-8112758D02*
X2976455Y-8103234D01*
X2976455Y-8103234D02*
X2985979Y-8093710D01*
X2985979Y-8093710D02*
X2985979Y-8112758D01*
X3109788Y-7998472D02*
X3090741Y-7988948D01*
X3090741Y-7988948D02*
X3081217Y-7979425D01*
X3081217Y-7979425D02*
X3071693Y-7960377D01*
X3071693Y-7960377D02*
X3071693Y-7950853D01*
X3071693Y-7950853D02*
X3081217Y-7931806D01*
X3081217Y-7931806D02*
X3090741Y-7922282D01*
X3090741Y-7922282D02*
X3109788Y-7912758D01*
X3109788Y-7912758D02*
X3147884Y-7912758D01*
X3147884Y-7912758D02*
X3166931Y-7922282D01*
X3166931Y-7922282D02*
X3176455Y-7931806D01*
X3176455Y-7931806D02*
X3185979Y-7950853D01*
X3185979Y-7950853D02*
X3185979Y-7960377D01*
X3185979Y-7960377D02*
X3176455Y-7979425D01*
X3176455Y-7979425D02*
X3166931Y-7988948D01*
X3166931Y-7988948D02*
X3147884Y-7998472D01*
X3147884Y-7998472D02*
X3109788Y-7998472D01*
X3109788Y-7998472D02*
X3090741Y-8007996D01*
X3090741Y-8007996D02*
X3081217Y-8017520D01*
X3081217Y-8017520D02*
X3071693Y-8036567D01*
X3071693Y-8036567D02*
X3071693Y-8074663D01*
X3071693Y-8074663D02*
X3081217Y-8093710D01*
X3081217Y-8093710D02*
X3090741Y-8103234D01*
X3090741Y-8103234D02*
X3109788Y-8112758D01*
X3109788Y-8112758D02*
X3147884Y-8112758D01*
X3147884Y-8112758D02*
X3166931Y-8103234D01*
X3166931Y-8103234D02*
X3176455Y-8093710D01*
X3176455Y-8093710D02*
X3185979Y-8074663D01*
X3185979Y-8074663D02*
X3185979Y-8036567D01*
X3185979Y-8036567D02*
X3176455Y-8017520D01*
X3176455Y-8017520D02*
X3166931Y-8007996D01*
X3166931Y-8007996D02*
X3147884Y-7998472D01*
X3300264Y-7998472D02*
X3281217Y-7988948D01*
X3281217Y-7988948D02*
X3271693Y-7979425D01*
X3271693Y-7979425D02*
X3262169Y-7960377D01*
X3262169Y-7960377D02*
X3262169Y-7950853D01*
X3262169Y-7950853D02*
X3271693Y-7931806D01*
X3271693Y-7931806D02*
X3281217Y-7922282D01*
X3281217Y-7922282D02*
X3300264Y-7912758D01*
X3300264Y-7912758D02*
X3338360Y-7912758D01*
X3338360Y-7912758D02*
X3357407Y-7922282D01*
X3357407Y-7922282D02*
X3366931Y-7931806D01*
X3366931Y-7931806D02*
X3376455Y-7950853D01*
X3376455Y-7950853D02*
X3376455Y-7960377D01*
X3376455Y-7960377D02*
X3366931Y-7979425D01*
X3366931Y-7979425D02*
X3357407Y-7988948D01*
X3357407Y-7988948D02*
X3338360Y-7998472D01*
X3338360Y-7998472D02*
X3300264Y-7998472D01*
X3300264Y-7998472D02*
X3281217Y-8007996D01*
X3281217Y-8007996D02*
X3271693Y-8017520D01*
X3271693Y-8017520D02*
X3262169Y-8036567D01*
X3262169Y-8036567D02*
X3262169Y-8074663D01*
X3262169Y-8074663D02*
X3271693Y-8093710D01*
X3271693Y-8093710D02*
X3281217Y-8103234D01*
X3281217Y-8103234D02*
X3300264Y-8112758D01*
X3300264Y-8112758D02*
X3338360Y-8112758D01*
X3338360Y-8112758D02*
X3357407Y-8103234D01*
X3357407Y-8103234D02*
X3366931Y-8093710D01*
X3366931Y-8093710D02*
X3376455Y-8074663D01*
X3376455Y-8074663D02*
X3376455Y-8036567D01*
X3376455Y-8036567D02*
X3366931Y-8017520D01*
X3366931Y-8017520D02*
X3357407Y-8007996D01*
X3357407Y-8007996D02*
X3338360Y-7998472D01*
X3471693Y-8112758D02*
X3509788Y-8112758D01*
X3509788Y-8112758D02*
X3528836Y-8103234D01*
X3528836Y-8103234D02*
X3538360Y-8093710D01*
X3538360Y-8093710D02*
X3557407Y-8065139D01*
X3557407Y-8065139D02*
X3566931Y-8027044D01*
X3566931Y-8027044D02*
X3566931Y-7950853D01*
X3566931Y-7950853D02*
X3557407Y-7931806D01*
X3557407Y-7931806D02*
X3547884Y-7922282D01*
X3547884Y-7922282D02*
X3528836Y-7912758D01*
X3528836Y-7912758D02*
X3490741Y-7912758D01*
X3490741Y-7912758D02*
X3471693Y-7922282D01*
X3471693Y-7922282D02*
X3462169Y-7931806D01*
X3462169Y-7931806D02*
X3452645Y-7950853D01*
X3452645Y-7950853D02*
X3452645Y-7998472D01*
X3452645Y-7998472D02*
X3462169Y-8017520D01*
X3462169Y-8017520D02*
X3471693Y-8027044D01*
X3471693Y-8027044D02*
X3490741Y-8036567D01*
X3490741Y-8036567D02*
X3528836Y-8036567D01*
X3528836Y-8036567D02*
X3547884Y-8027044D01*
X3547884Y-8027044D02*
X3557407Y-8017520D01*
X3557407Y-8017520D02*
X3566931Y-7998472D01*
X3652645Y-8112758D02*
X3652645Y-7979425D01*
X3652645Y-7998472D02*
X3662169Y-7988948D01*
X3662169Y-7988948D02*
X3681217Y-7979425D01*
X3681217Y-7979425D02*
X3709788Y-7979425D01*
X3709788Y-7979425D02*
X3728836Y-7988948D01*
X3728836Y-7988948D02*
X3738360Y-8007996D01*
X3738360Y-8007996D02*
X3738360Y-8112758D01*
X3738360Y-8007996D02*
X3747884Y-7988948D01*
X3747884Y-7988948D02*
X3766931Y-7979425D01*
X3766931Y-7979425D02*
X3795503Y-7979425D01*
X3795503Y-7979425D02*
X3814550Y-7988948D01*
X3814550Y-7988948D02*
X3824074Y-8007996D01*
X3824074Y-8007996D02*
X3824074Y-8112758D01*
X3919312Y-8112758D02*
X3919312Y-7979425D01*
X3919312Y-7998472D02*
X3928836Y-7988948D01*
X3928836Y-7988948D02*
X3947884Y-7979425D01*
X3947884Y-7979425D02*
X3976455Y-7979425D01*
X3976455Y-7979425D02*
X3995503Y-7988948D01*
X3995503Y-7988948D02*
X4005026Y-8007996D01*
X4005026Y-8007996D02*
X4005026Y-8112758D01*
X4005026Y-8007996D02*
X4014550Y-7988948D01*
X4014550Y-7988948D02*
X4033598Y-7979425D01*
X4033598Y-7979425D02*
X4062169Y-7979425D01*
X4062169Y-7979425D02*
X4081217Y-7988948D01*
X4081217Y-7988948D02*
X4090741Y-8007996D01*
X4090741Y-8007996D02*
X4090741Y-8112758D01*
X4481217Y-7903234D02*
X4309789Y-8160377D01*
X4738360Y-7912758D02*
X4757408Y-7912758D01*
X4757408Y-7912758D02*
X4776455Y-7922282D01*
X4776455Y-7922282D02*
X4785979Y-7931806D01*
X4785979Y-7931806D02*
X4795503Y-7950853D01*
X4795503Y-7950853D02*
X4805027Y-7988948D01*
X4805027Y-7988948D02*
X4805027Y-8036567D01*
X4805027Y-8036567D02*
X4795503Y-8074663D01*
X4795503Y-8074663D02*
X4785979Y-8093710D01*
X4785979Y-8093710D02*
X4776455Y-8103234D01*
X4776455Y-8103234D02*
X4757408Y-8112758D01*
X4757408Y-8112758D02*
X4738360Y-8112758D01*
X4738360Y-8112758D02*
X4719312Y-8103234D01*
X4719312Y-8103234D02*
X4709789Y-8093710D01*
X4709789Y-8093710D02*
X4700265Y-8074663D01*
X4700265Y-8074663D02*
X4690741Y-8036567D01*
X4690741Y-8036567D02*
X4690741Y-7988948D01*
X4690741Y-7988948D02*
X4700265Y-7950853D01*
X4700265Y-7950853D02*
X4709789Y-7931806D01*
X4709789Y-7931806D02*
X4719312Y-7922282D01*
X4719312Y-7922282D02*
X4738360Y-7912758D01*
X4890741Y-8093710D02*
X4900265Y-8103234D01*
X4900265Y-8103234D02*
X4890741Y-8112758D01*
X4890741Y-8112758D02*
X4881217Y-8103234D01*
X4881217Y-8103234D02*
X4890741Y-8093710D01*
X4890741Y-8093710D02*
X4890741Y-8112758D01*
X5024074Y-7912758D02*
X5043122Y-7912758D01*
X5043122Y-7912758D02*
X5062170Y-7922282D01*
X5062170Y-7922282D02*
X5071693Y-7931806D01*
X5071693Y-7931806D02*
X5081217Y-7950853D01*
X5081217Y-7950853D02*
X5090741Y-7988948D01*
X5090741Y-7988948D02*
X5090741Y-8036567D01*
X5090741Y-8036567D02*
X5081217Y-8074663D01*
X5081217Y-8074663D02*
X5071693Y-8093710D01*
X5071693Y-8093710D02*
X5062170Y-8103234D01*
X5062170Y-8103234D02*
X5043122Y-8112758D01*
X5043122Y-8112758D02*
X5024074Y-8112758D01*
X5024074Y-8112758D02*
X5005027Y-8103234D01*
X5005027Y-8103234D02*
X4995503Y-8093710D01*
X4995503Y-8093710D02*
X4985979Y-8074663D01*
X4985979Y-8074663D02*
X4976455Y-8036567D01*
X4976455Y-8036567D02*
X4976455Y-7988948D01*
X4976455Y-7988948D02*
X4985979Y-7950853D01*
X4985979Y-7950853D02*
X4995503Y-7931806D01*
X4995503Y-7931806D02*
X5005027Y-7922282D01*
X5005027Y-7922282D02*
X5024074Y-7912758D01*
X5157408Y-7912758D02*
X5281217Y-7912758D01*
X5281217Y-7912758D02*
X5214550Y-7988948D01*
X5214550Y-7988948D02*
X5243122Y-7988948D01*
X5243122Y-7988948D02*
X5262170Y-7998472D01*
X5262170Y-7998472D02*
X5271693Y-8007996D01*
X5271693Y-8007996D02*
X5281217Y-8027044D01*
X5281217Y-8027044D02*
X5281217Y-8074663D01*
X5281217Y-8074663D02*
X5271693Y-8093710D01*
X5271693Y-8093710D02*
X5262170Y-8103234D01*
X5262170Y-8103234D02*
X5243122Y-8112758D01*
X5243122Y-8112758D02*
X5185979Y-8112758D01*
X5185979Y-8112758D02*
X5166931Y-8103234D01*
X5166931Y-8103234D02*
X5157408Y-8093710D01*
X5462170Y-7912758D02*
X5366931Y-7912758D01*
X5366931Y-7912758D02*
X5357408Y-8007996D01*
X5357408Y-8007996D02*
X5366931Y-7998472D01*
X5366931Y-7998472D02*
X5385979Y-7988948D01*
X5385979Y-7988948D02*
X5433598Y-7988948D01*
X5433598Y-7988948D02*
X5452646Y-7998472D01*
X5452646Y-7998472D02*
X5462170Y-8007996D01*
X5462170Y-8007996D02*
X5471693Y-8027044D01*
X5471693Y-8027044D02*
X5471693Y-8074663D01*
X5471693Y-8074663D02*
X5462170Y-8093710D01*
X5462170Y-8093710D02*
X5452646Y-8103234D01*
X5452646Y-8103234D02*
X5433598Y-8112758D01*
X5433598Y-8112758D02*
X5385979Y-8112758D01*
X5385979Y-8112758D02*
X5366931Y-8103234D01*
X5366931Y-8103234D02*
X5357408Y-8093710D01*
X5595503Y-7912758D02*
X5614550Y-7912758D01*
X5614550Y-7912758D02*
X5633598Y-7922282D01*
X5633598Y-7922282D02*
X5643122Y-7931806D01*
X5643122Y-7931806D02*
X5652646Y-7950853D01*
X5652646Y-7950853D02*
X5662169Y-7988948D01*
X5662169Y-7988948D02*
X5662169Y-8036567D01*
X5662169Y-8036567D02*
X5652646Y-8074663D01*
X5652646Y-8074663D02*
X5643122Y-8093710D01*
X5643122Y-8093710D02*
X5633598Y-8103234D01*
X5633598Y-8103234D02*
X5614550Y-8112758D01*
X5614550Y-8112758D02*
X5595503Y-8112758D01*
X5595503Y-8112758D02*
X5576455Y-8103234D01*
X5576455Y-8103234D02*
X5566931Y-8093710D01*
X5566931Y-8093710D02*
X5557408Y-8074663D01*
X5557408Y-8074663D02*
X5547884Y-8036567D01*
X5547884Y-8036567D02*
X5547884Y-7988948D01*
X5547884Y-7988948D02*
X5557408Y-7950853D01*
X5557408Y-7950853D02*
X5566931Y-7931806D01*
X5566931Y-7931806D02*
X5576455Y-7922282D01*
X5576455Y-7922282D02*
X5595503Y-7912758D01*
X5738360Y-7912758D02*
X5738360Y-7950853D01*
X5814550Y-7912758D02*
X5814550Y-7950853D01*
X6109789Y-8188948D02*
X6100265Y-8179425D01*
X6100265Y-8179425D02*
X6081217Y-8150853D01*
X6081217Y-8150853D02*
X6071693Y-8131806D01*
X6071693Y-8131806D02*
X6062170Y-8103234D01*
X6062170Y-8103234D02*
X6052646Y-8055615D01*
X6052646Y-8055615D02*
X6052646Y-8017520D01*
X6052646Y-8017520D02*
X6062170Y-7969901D01*
X6062170Y-7969901D02*
X6071693Y-7941329D01*
X6071693Y-7941329D02*
X6081217Y-7922282D01*
X6081217Y-7922282D02*
X6100265Y-7893710D01*
X6100265Y-7893710D02*
X6109789Y-7884186D01*
X6176455Y-7931806D02*
X6185979Y-7922282D01*
X6185979Y-7922282D02*
X6205027Y-7912758D01*
X6205027Y-7912758D02*
X6252646Y-7912758D01*
X6252646Y-7912758D02*
X6271693Y-7922282D01*
X6271693Y-7922282D02*
X6281217Y-7931806D01*
X6281217Y-7931806D02*
X6290741Y-7950853D01*
X6290741Y-7950853D02*
X6290741Y-7969901D01*
X6290741Y-7969901D02*
X6281217Y-7998472D01*
X6281217Y-7998472D02*
X6166931Y-8112758D01*
X6166931Y-8112758D02*
X6290741Y-8112758D01*
X6462170Y-7979425D02*
X6462170Y-8112758D01*
X6414550Y-7903234D02*
X6366931Y-8046091D01*
X6366931Y-8046091D02*
X6490741Y-8046091D01*
X6719312Y-8112758D02*
X6719312Y-7912758D01*
X6805027Y-8112758D02*
X6805027Y-8007996D01*
X6805027Y-8007996D02*
X6795503Y-7988948D01*
X6795503Y-7988948D02*
X6776455Y-7979425D01*
X6776455Y-7979425D02*
X6747884Y-7979425D01*
X6747884Y-7979425D02*
X6728836Y-7988948D01*
X6728836Y-7988948D02*
X6719312Y-7998472D01*
X6928836Y-8112758D02*
X6909789Y-8103234D01*
X6909789Y-8103234D02*
X6900265Y-8093710D01*
X6900265Y-8093710D02*
X6890741Y-8074663D01*
X6890741Y-8074663D02*
X6890741Y-8017520D01*
X6890741Y-8017520D02*
X6900265Y-7998472D01*
X6900265Y-7998472D02*
X6909789Y-7988948D01*
X6909789Y-7988948D02*
X6928836Y-7979425D01*
X6928836Y-7979425D02*
X6957408Y-7979425D01*
X6957408Y-7979425D02*
X6976455Y-7988948D01*
X6976455Y-7988948D02*
X6985979Y-7998472D01*
X6985979Y-7998472D02*
X6995503Y-8017520D01*
X6995503Y-8017520D02*
X6995503Y-8074663D01*
X6995503Y-8074663D02*
X6985979Y-8093710D01*
X6985979Y-8093710D02*
X6976455Y-8103234D01*
X6976455Y-8103234D02*
X6957408Y-8112758D01*
X6957408Y-8112758D02*
X6928836Y-8112758D01*
X7109789Y-8112758D02*
X7090741Y-8103234D01*
X7090741Y-8103234D02*
X7081217Y-8084186D01*
X7081217Y-8084186D02*
X7081217Y-7912758D01*
X7262170Y-8103234D02*
X7243122Y-8112758D01*
X7243122Y-8112758D02*
X7205027Y-8112758D01*
X7205027Y-8112758D02*
X7185979Y-8103234D01*
X7185979Y-8103234D02*
X7176455Y-8084186D01*
X7176455Y-8084186D02*
X7176455Y-8007996D01*
X7176455Y-8007996D02*
X7185979Y-7988948D01*
X7185979Y-7988948D02*
X7205027Y-7979425D01*
X7205027Y-7979425D02*
X7243122Y-7979425D01*
X7243122Y-7979425D02*
X7262170Y-7988948D01*
X7262170Y-7988948D02*
X7271693Y-8007996D01*
X7271693Y-8007996D02*
X7271693Y-8027044D01*
X7271693Y-8027044D02*
X7176455Y-8046091D01*
X7347884Y-8103234D02*
X7366932Y-8112758D01*
X7366932Y-8112758D02*
X7405027Y-8112758D01*
X7405027Y-8112758D02*
X7424074Y-8103234D01*
X7424074Y-8103234D02*
X7433598Y-8084186D01*
X7433598Y-8084186D02*
X7433598Y-8074663D01*
X7433598Y-8074663D02*
X7424074Y-8055615D01*
X7424074Y-8055615D02*
X7405027Y-8046091D01*
X7405027Y-8046091D02*
X7376455Y-8046091D01*
X7376455Y-8046091D02*
X7357408Y-8036567D01*
X7357408Y-8036567D02*
X7347884Y-8017520D01*
X7347884Y-8017520D02*
X7347884Y-8007996D01*
X7347884Y-8007996D02*
X7357408Y-7988948D01*
X7357408Y-7988948D02*
X7376455Y-7979425D01*
X7376455Y-7979425D02*
X7405027Y-7979425D01*
X7405027Y-7979425D02*
X7424074Y-7988948D01*
X7500265Y-8188948D02*
X7509789Y-8179425D01*
X7509789Y-8179425D02*
X7528836Y-8150853D01*
X7528836Y-8150853D02*
X7538360Y-8131806D01*
X7538360Y-8131806D02*
X7547884Y-8103234D01*
X7547884Y-8103234D02*
X7557408Y-8055615D01*
X7557408Y-8055615D02*
X7557408Y-8017520D01*
X7557408Y-8017520D02*
X7547884Y-7969901D01*
X7547884Y-7969901D02*
X7538360Y-7941329D01*
X7538360Y-7941329D02*
X7528836Y-7922282D01*
X7528836Y-7922282D02*
X7509789Y-7893710D01*
X7509789Y-7893710D02*
X7500265Y-7884186D01*
D14*
X2489726Y-8240274D02*
X2489726Y-8330274D01*
X2444726Y-8285274D02*
X2534726Y-8285274D01*
D11*
X2833598Y-8176758D02*
X2852645Y-8176758D01*
X2852645Y-8176758D02*
X2871693Y-8186282D01*
X2871693Y-8186282D02*
X2881217Y-8195806D01*
X2881217Y-8195806D02*
X2890741Y-8214853D01*
X2890741Y-8214853D02*
X2900264Y-8252948D01*
X2900264Y-8252948D02*
X2900264Y-8300567D01*
X2900264Y-8300567D02*
X2890741Y-8338663D01*
X2890741Y-8338663D02*
X2881217Y-8357710D01*
X2881217Y-8357710D02*
X2871693Y-8367234D01*
X2871693Y-8367234D02*
X2852645Y-8376758D01*
X2852645Y-8376758D02*
X2833598Y-8376758D01*
X2833598Y-8376758D02*
X2814550Y-8367234D01*
X2814550Y-8367234D02*
X2805026Y-8357710D01*
X2805026Y-8357710D02*
X2795503Y-8338663D01*
X2795503Y-8338663D02*
X2785979Y-8300567D01*
X2785979Y-8300567D02*
X2785979Y-8252948D01*
X2785979Y-8252948D02*
X2795503Y-8214853D01*
X2795503Y-8214853D02*
X2805026Y-8195806D01*
X2805026Y-8195806D02*
X2814550Y-8186282D01*
X2814550Y-8186282D02*
X2833598Y-8176758D01*
X2985979Y-8357710D02*
X2995503Y-8367234D01*
X2995503Y-8367234D02*
X2985979Y-8376758D01*
X2985979Y-8376758D02*
X2976455Y-8367234D01*
X2976455Y-8367234D02*
X2985979Y-8357710D01*
X2985979Y-8357710D02*
X2985979Y-8376758D01*
X3090741Y-8376758D02*
X3128836Y-8376758D01*
X3128836Y-8376758D02*
X3147884Y-8367234D01*
X3147884Y-8367234D02*
X3157407Y-8357710D01*
X3157407Y-8357710D02*
X3176455Y-8329139D01*
X3176455Y-8329139D02*
X3185979Y-8291044D01*
X3185979Y-8291044D02*
X3185979Y-8214853D01*
X3185979Y-8214853D02*
X3176455Y-8195806D01*
X3176455Y-8195806D02*
X3166931Y-8186282D01*
X3166931Y-8186282D02*
X3147884Y-8176758D01*
X3147884Y-8176758D02*
X3109788Y-8176758D01*
X3109788Y-8176758D02*
X3090741Y-8186282D01*
X3090741Y-8186282D02*
X3081217Y-8195806D01*
X3081217Y-8195806D02*
X3071693Y-8214853D01*
X3071693Y-8214853D02*
X3071693Y-8262472D01*
X3071693Y-8262472D02*
X3081217Y-8281520D01*
X3081217Y-8281520D02*
X3090741Y-8291044D01*
X3090741Y-8291044D02*
X3109788Y-8300567D01*
X3109788Y-8300567D02*
X3147884Y-8300567D01*
X3147884Y-8300567D02*
X3166931Y-8291044D01*
X3166931Y-8291044D02*
X3176455Y-8281520D01*
X3176455Y-8281520D02*
X3185979Y-8262472D01*
X3309788Y-8176758D02*
X3328836Y-8176758D01*
X3328836Y-8176758D02*
X3347884Y-8186282D01*
X3347884Y-8186282D02*
X3357407Y-8195806D01*
X3357407Y-8195806D02*
X3366931Y-8214853D01*
X3366931Y-8214853D02*
X3376455Y-8252948D01*
X3376455Y-8252948D02*
X3376455Y-8300567D01*
X3376455Y-8300567D02*
X3366931Y-8338663D01*
X3366931Y-8338663D02*
X3357407Y-8357710D01*
X3357407Y-8357710D02*
X3347884Y-8367234D01*
X3347884Y-8367234D02*
X3328836Y-8376758D01*
X3328836Y-8376758D02*
X3309788Y-8376758D01*
X3309788Y-8376758D02*
X3290741Y-8367234D01*
X3290741Y-8367234D02*
X3281217Y-8357710D01*
X3281217Y-8357710D02*
X3271693Y-8338663D01*
X3271693Y-8338663D02*
X3262169Y-8300567D01*
X3262169Y-8300567D02*
X3262169Y-8252948D01*
X3262169Y-8252948D02*
X3271693Y-8214853D01*
X3271693Y-8214853D02*
X3281217Y-8195806D01*
X3281217Y-8195806D02*
X3290741Y-8186282D01*
X3290741Y-8186282D02*
X3309788Y-8176758D01*
X3500264Y-8176758D02*
X3519312Y-8176758D01*
X3519312Y-8176758D02*
X3538360Y-8186282D01*
X3538360Y-8186282D02*
X3547884Y-8195806D01*
X3547884Y-8195806D02*
X3557407Y-8214853D01*
X3557407Y-8214853D02*
X3566931Y-8252948D01*
X3566931Y-8252948D02*
X3566931Y-8300567D01*
X3566931Y-8300567D02*
X3557407Y-8338663D01*
X3557407Y-8338663D02*
X3547884Y-8357710D01*
X3547884Y-8357710D02*
X3538360Y-8367234D01*
X3538360Y-8367234D02*
X3519312Y-8376758D01*
X3519312Y-8376758D02*
X3500264Y-8376758D01*
X3500264Y-8376758D02*
X3481217Y-8367234D01*
X3481217Y-8367234D02*
X3471693Y-8357710D01*
X3471693Y-8357710D02*
X3462169Y-8338663D01*
X3462169Y-8338663D02*
X3452645Y-8300567D01*
X3452645Y-8300567D02*
X3452645Y-8252948D01*
X3452645Y-8252948D02*
X3462169Y-8214853D01*
X3462169Y-8214853D02*
X3471693Y-8195806D01*
X3471693Y-8195806D02*
X3481217Y-8186282D01*
X3481217Y-8186282D02*
X3500264Y-8176758D01*
X3652645Y-8376758D02*
X3652645Y-8243425D01*
X3652645Y-8262472D02*
X3662169Y-8252948D01*
X3662169Y-8252948D02*
X3681217Y-8243425D01*
X3681217Y-8243425D02*
X3709788Y-8243425D01*
X3709788Y-8243425D02*
X3728836Y-8252948D01*
X3728836Y-8252948D02*
X3738360Y-8271996D01*
X3738360Y-8271996D02*
X3738360Y-8376758D01*
X3738360Y-8271996D02*
X3747884Y-8252948D01*
X3747884Y-8252948D02*
X3766931Y-8243425D01*
X3766931Y-8243425D02*
X3795503Y-8243425D01*
X3795503Y-8243425D02*
X3814550Y-8252948D01*
X3814550Y-8252948D02*
X3824074Y-8271996D01*
X3824074Y-8271996D02*
X3824074Y-8376758D01*
X3919312Y-8376758D02*
X3919312Y-8243425D01*
X3919312Y-8262472D02*
X3928836Y-8252948D01*
X3928836Y-8252948D02*
X3947884Y-8243425D01*
X3947884Y-8243425D02*
X3976455Y-8243425D01*
X3976455Y-8243425D02*
X3995503Y-8252948D01*
X3995503Y-8252948D02*
X4005026Y-8271996D01*
X4005026Y-8271996D02*
X4005026Y-8376758D01*
X4005026Y-8271996D02*
X4014550Y-8252948D01*
X4014550Y-8252948D02*
X4033598Y-8243425D01*
X4033598Y-8243425D02*
X4062169Y-8243425D01*
X4062169Y-8243425D02*
X4081217Y-8252948D01*
X4081217Y-8252948D02*
X4090741Y-8271996D01*
X4090741Y-8271996D02*
X4090741Y-8376758D01*
X4481217Y-8167234D02*
X4309789Y-8424377D01*
X4738360Y-8176758D02*
X4757408Y-8176758D01*
X4757408Y-8176758D02*
X4776455Y-8186282D01*
X4776455Y-8186282D02*
X4785979Y-8195806D01*
X4785979Y-8195806D02*
X4795503Y-8214853D01*
X4795503Y-8214853D02*
X4805027Y-8252948D01*
X4805027Y-8252948D02*
X4805027Y-8300567D01*
X4805027Y-8300567D02*
X4795503Y-8338663D01*
X4795503Y-8338663D02*
X4785979Y-8357710D01*
X4785979Y-8357710D02*
X4776455Y-8367234D01*
X4776455Y-8367234D02*
X4757408Y-8376758D01*
X4757408Y-8376758D02*
X4738360Y-8376758D01*
X4738360Y-8376758D02*
X4719312Y-8367234D01*
X4719312Y-8367234D02*
X4709789Y-8357710D01*
X4709789Y-8357710D02*
X4700265Y-8338663D01*
X4700265Y-8338663D02*
X4690741Y-8300567D01*
X4690741Y-8300567D02*
X4690741Y-8252948D01*
X4690741Y-8252948D02*
X4700265Y-8214853D01*
X4700265Y-8214853D02*
X4709789Y-8195806D01*
X4709789Y-8195806D02*
X4719312Y-8186282D01*
X4719312Y-8186282D02*
X4738360Y-8176758D01*
X4890741Y-8357710D02*
X4900265Y-8367234D01*
X4900265Y-8367234D02*
X4890741Y-8376758D01*
X4890741Y-8376758D02*
X4881217Y-8367234D01*
X4881217Y-8367234D02*
X4890741Y-8357710D01*
X4890741Y-8357710D02*
X4890741Y-8376758D01*
X5024074Y-8176758D02*
X5043122Y-8176758D01*
X5043122Y-8176758D02*
X5062170Y-8186282D01*
X5062170Y-8186282D02*
X5071693Y-8195806D01*
X5071693Y-8195806D02*
X5081217Y-8214853D01*
X5081217Y-8214853D02*
X5090741Y-8252948D01*
X5090741Y-8252948D02*
X5090741Y-8300567D01*
X5090741Y-8300567D02*
X5081217Y-8338663D01*
X5081217Y-8338663D02*
X5071693Y-8357710D01*
X5071693Y-8357710D02*
X5062170Y-8367234D01*
X5062170Y-8367234D02*
X5043122Y-8376758D01*
X5043122Y-8376758D02*
X5024074Y-8376758D01*
X5024074Y-8376758D02*
X5005027Y-8367234D01*
X5005027Y-8367234D02*
X4995503Y-8357710D01*
X4995503Y-8357710D02*
X4985979Y-8338663D01*
X4985979Y-8338663D02*
X4976455Y-8300567D01*
X4976455Y-8300567D02*
X4976455Y-8252948D01*
X4976455Y-8252948D02*
X4985979Y-8214853D01*
X4985979Y-8214853D02*
X4995503Y-8195806D01*
X4995503Y-8195806D02*
X5005027Y-8186282D01*
X5005027Y-8186282D02*
X5024074Y-8176758D01*
X5157408Y-8176758D02*
X5281217Y-8176758D01*
X5281217Y-8176758D02*
X5214550Y-8252948D01*
X5214550Y-8252948D02*
X5243122Y-8252948D01*
X5243122Y-8252948D02*
X5262170Y-8262472D01*
X5262170Y-8262472D02*
X5271693Y-8271996D01*
X5271693Y-8271996D02*
X5281217Y-8291044D01*
X5281217Y-8291044D02*
X5281217Y-8338663D01*
X5281217Y-8338663D02*
X5271693Y-8357710D01*
X5271693Y-8357710D02*
X5262170Y-8367234D01*
X5262170Y-8367234D02*
X5243122Y-8376758D01*
X5243122Y-8376758D02*
X5185979Y-8376758D01*
X5185979Y-8376758D02*
X5166931Y-8367234D01*
X5166931Y-8367234D02*
X5157408Y-8357710D01*
X5462170Y-8176758D02*
X5366931Y-8176758D01*
X5366931Y-8176758D02*
X5357408Y-8271996D01*
X5357408Y-8271996D02*
X5366931Y-8262472D01*
X5366931Y-8262472D02*
X5385979Y-8252948D01*
X5385979Y-8252948D02*
X5433598Y-8252948D01*
X5433598Y-8252948D02*
X5452646Y-8262472D01*
X5452646Y-8262472D02*
X5462170Y-8271996D01*
X5462170Y-8271996D02*
X5471693Y-8291044D01*
X5471693Y-8291044D02*
X5471693Y-8338663D01*
X5471693Y-8338663D02*
X5462170Y-8357710D01*
X5462170Y-8357710D02*
X5452646Y-8367234D01*
X5452646Y-8367234D02*
X5433598Y-8376758D01*
X5433598Y-8376758D02*
X5385979Y-8376758D01*
X5385979Y-8376758D02*
X5366931Y-8367234D01*
X5366931Y-8367234D02*
X5357408Y-8357710D01*
X5643122Y-8243425D02*
X5643122Y-8376758D01*
X5595503Y-8167234D02*
X5547884Y-8310091D01*
X5547884Y-8310091D02*
X5671693Y-8310091D01*
X5738360Y-8176758D02*
X5738360Y-8214853D01*
X5814550Y-8176758D02*
X5814550Y-8214853D01*
X6109789Y-8452948D02*
X6100265Y-8443425D01*
X6100265Y-8443425D02*
X6081217Y-8414853D01*
X6081217Y-8414853D02*
X6071693Y-8395806D01*
X6071693Y-8395806D02*
X6062170Y-8367234D01*
X6062170Y-8367234D02*
X6052646Y-8319615D01*
X6052646Y-8319615D02*
X6052646Y-8281520D01*
X6052646Y-8281520D02*
X6062170Y-8233901D01*
X6062170Y-8233901D02*
X6071693Y-8205329D01*
X6071693Y-8205329D02*
X6081217Y-8186282D01*
X6081217Y-8186282D02*
X6100265Y-8157710D01*
X6100265Y-8157710D02*
X6109789Y-8148186D01*
X6176455Y-8195806D02*
X6185979Y-8186282D01*
X6185979Y-8186282D02*
X6205027Y-8176758D01*
X6205027Y-8176758D02*
X6252646Y-8176758D01*
X6252646Y-8176758D02*
X6271693Y-8186282D01*
X6271693Y-8186282D02*
X6281217Y-8195806D01*
X6281217Y-8195806D02*
X6290741Y-8214853D01*
X6290741Y-8214853D02*
X6290741Y-8233901D01*
X6290741Y-8233901D02*
X6281217Y-8262472D01*
X6281217Y-8262472D02*
X6166931Y-8376758D01*
X6166931Y-8376758D02*
X6290741Y-8376758D01*
X6528836Y-8376758D02*
X6528836Y-8176758D01*
X6614551Y-8376758D02*
X6614551Y-8271996D01*
X6614551Y-8271996D02*
X6605027Y-8252948D01*
X6605027Y-8252948D02*
X6585979Y-8243425D01*
X6585979Y-8243425D02*
X6557408Y-8243425D01*
X6557408Y-8243425D02*
X6538360Y-8252948D01*
X6538360Y-8252948D02*
X6528836Y-8262472D01*
X6738360Y-8376758D02*
X6719312Y-8367234D01*
X6719312Y-8367234D02*
X6709789Y-8357710D01*
X6709789Y-8357710D02*
X6700265Y-8338663D01*
X6700265Y-8338663D02*
X6700265Y-8281520D01*
X6700265Y-8281520D02*
X6709789Y-8262472D01*
X6709789Y-8262472D02*
X6719312Y-8252948D01*
X6719312Y-8252948D02*
X6738360Y-8243425D01*
X6738360Y-8243425D02*
X6766932Y-8243425D01*
X6766932Y-8243425D02*
X6785979Y-8252948D01*
X6785979Y-8252948D02*
X6795503Y-8262472D01*
X6795503Y-8262472D02*
X6805027Y-8281520D01*
X6805027Y-8281520D02*
X6805027Y-8338663D01*
X6805027Y-8338663D02*
X6795503Y-8357710D01*
X6795503Y-8357710D02*
X6785979Y-8367234D01*
X6785979Y-8367234D02*
X6766932Y-8376758D01*
X6766932Y-8376758D02*
X6738360Y-8376758D01*
X6919312Y-8376758D02*
X6900265Y-8367234D01*
X6900265Y-8367234D02*
X6890741Y-8348186D01*
X6890741Y-8348186D02*
X6890741Y-8176758D01*
X7071693Y-8367234D02*
X7052646Y-8376758D01*
X7052646Y-8376758D02*
X7014551Y-8376758D01*
X7014551Y-8376758D02*
X6995503Y-8367234D01*
X6995503Y-8367234D02*
X6985979Y-8348186D01*
X6985979Y-8348186D02*
X6985979Y-8271996D01*
X6985979Y-8271996D02*
X6995503Y-8252948D01*
X6995503Y-8252948D02*
X7014551Y-8243425D01*
X7014551Y-8243425D02*
X7052646Y-8243425D01*
X7052646Y-8243425D02*
X7071693Y-8252948D01*
X7071693Y-8252948D02*
X7081217Y-8271996D01*
X7081217Y-8271996D02*
X7081217Y-8291044D01*
X7081217Y-8291044D02*
X6985979Y-8310091D01*
X7157408Y-8367234D02*
X7176455Y-8376758D01*
X7176455Y-8376758D02*
X7214551Y-8376758D01*
X7214551Y-8376758D02*
X7233598Y-8367234D01*
X7233598Y-8367234D02*
X7243122Y-8348186D01*
X7243122Y-8348186D02*
X7243122Y-8338663D01*
X7243122Y-8338663D02*
X7233598Y-8319615D01*
X7233598Y-8319615D02*
X7214551Y-8310091D01*
X7214551Y-8310091D02*
X7185979Y-8310091D01*
X7185979Y-8310091D02*
X7166932Y-8300567D01*
X7166932Y-8300567D02*
X7157408Y-8281520D01*
X7157408Y-8281520D02*
X7157408Y-8271996D01*
X7157408Y-8271996D02*
X7166932Y-8252948D01*
X7166932Y-8252948D02*
X7185979Y-8243425D01*
X7185979Y-8243425D02*
X7214551Y-8243425D01*
X7214551Y-8243425D02*
X7233598Y-8252948D01*
X7309789Y-8452948D02*
X7319313Y-8443425D01*
X7319313Y-8443425D02*
X7338360Y-8414853D01*
X7338360Y-8414853D02*
X7347884Y-8395806D01*
X7347884Y-8395806D02*
X7357408Y-8367234D01*
X7357408Y-8367234D02*
X7366932Y-8319615D01*
X7366932Y-8319615D02*
X7366932Y-8281520D01*
X7366932Y-8281520D02*
X7357408Y-8233901D01*
X7357408Y-8233901D02*
X7347884Y-8205329D01*
X7347884Y-8205329D02*
X7338360Y-8186282D01*
X7338360Y-8186282D02*
X7319313Y-8157710D01*
X7319313Y-8157710D02*
X7309789Y-8148186D01*
D15*
X2514956Y-8597004D02*
X2514956Y-8501544D01*
X2419496Y-8501544D01*
X2419496Y-8597004D01*
X2514956Y-8597004D01*
D11*
X2900264Y-8640758D02*
X2785979Y-8640758D01*
X2843122Y-8640758D02*
X2843122Y-8440758D01*
X2843122Y-8440758D02*
X2824074Y-8469329D01*
X2824074Y-8469329D02*
X2805026Y-8488377D01*
X2805026Y-8488377D02*
X2785979Y-8497901D01*
X2985979Y-8621710D02*
X2995503Y-8631234D01*
X2995503Y-8631234D02*
X2985979Y-8640758D01*
X2985979Y-8640758D02*
X2976455Y-8631234D01*
X2976455Y-8631234D02*
X2985979Y-8621710D01*
X2985979Y-8621710D02*
X2985979Y-8640758D01*
X3062169Y-8440758D02*
X3185979Y-8440758D01*
X3185979Y-8440758D02*
X3119312Y-8516948D01*
X3119312Y-8516948D02*
X3147884Y-8516948D01*
X3147884Y-8516948D02*
X3166931Y-8526472D01*
X3166931Y-8526472D02*
X3176455Y-8535996D01*
X3176455Y-8535996D02*
X3185979Y-8555044D01*
X3185979Y-8555044D02*
X3185979Y-8602663D01*
X3185979Y-8602663D02*
X3176455Y-8621710D01*
X3176455Y-8621710D02*
X3166931Y-8631234D01*
X3166931Y-8631234D02*
X3147884Y-8640758D01*
X3147884Y-8640758D02*
X3090741Y-8640758D01*
X3090741Y-8640758D02*
X3071693Y-8631234D01*
X3071693Y-8631234D02*
X3062169Y-8621710D01*
X3366931Y-8440758D02*
X3271693Y-8440758D01*
X3271693Y-8440758D02*
X3262169Y-8535996D01*
X3262169Y-8535996D02*
X3271693Y-8526472D01*
X3271693Y-8526472D02*
X3290741Y-8516948D01*
X3290741Y-8516948D02*
X3338360Y-8516948D01*
X3338360Y-8516948D02*
X3357407Y-8526472D01*
X3357407Y-8526472D02*
X3366931Y-8535996D01*
X3366931Y-8535996D02*
X3376455Y-8555044D01*
X3376455Y-8555044D02*
X3376455Y-8602663D01*
X3376455Y-8602663D02*
X3366931Y-8621710D01*
X3366931Y-8621710D02*
X3357407Y-8631234D01*
X3357407Y-8631234D02*
X3338360Y-8640758D01*
X3338360Y-8640758D02*
X3290741Y-8640758D01*
X3290741Y-8640758D02*
X3271693Y-8631234D01*
X3271693Y-8631234D02*
X3262169Y-8621710D01*
X3500264Y-8440758D02*
X3519312Y-8440758D01*
X3519312Y-8440758D02*
X3538360Y-8450282D01*
X3538360Y-8450282D02*
X3547884Y-8459806D01*
X3547884Y-8459806D02*
X3557407Y-8478853D01*
X3557407Y-8478853D02*
X3566931Y-8516948D01*
X3566931Y-8516948D02*
X3566931Y-8564568D01*
X3566931Y-8564568D02*
X3557407Y-8602663D01*
X3557407Y-8602663D02*
X3547884Y-8621710D01*
X3547884Y-8621710D02*
X3538360Y-8631234D01*
X3538360Y-8631234D02*
X3519312Y-8640758D01*
X3519312Y-8640758D02*
X3500264Y-8640758D01*
X3500264Y-8640758D02*
X3481217Y-8631234D01*
X3481217Y-8631234D02*
X3471693Y-8621710D01*
X3471693Y-8621710D02*
X3462169Y-8602663D01*
X3462169Y-8602663D02*
X3452645Y-8564568D01*
X3452645Y-8564568D02*
X3452645Y-8516948D01*
X3452645Y-8516948D02*
X3462169Y-8478853D01*
X3462169Y-8478853D02*
X3471693Y-8459806D01*
X3471693Y-8459806D02*
X3481217Y-8450282D01*
X3481217Y-8450282D02*
X3500264Y-8440758D01*
X3652645Y-8640758D02*
X3652645Y-8507425D01*
X3652645Y-8526472D02*
X3662169Y-8516948D01*
X3662169Y-8516948D02*
X3681217Y-8507425D01*
X3681217Y-8507425D02*
X3709788Y-8507425D01*
X3709788Y-8507425D02*
X3728836Y-8516948D01*
X3728836Y-8516948D02*
X3738360Y-8535996D01*
X3738360Y-8535996D02*
X3738360Y-8640758D01*
X3738360Y-8535996D02*
X3747884Y-8516948D01*
X3747884Y-8516948D02*
X3766931Y-8507425D01*
X3766931Y-8507425D02*
X3795503Y-8507425D01*
X3795503Y-8507425D02*
X3814550Y-8516948D01*
X3814550Y-8516948D02*
X3824074Y-8535996D01*
X3824074Y-8535996D02*
X3824074Y-8640758D01*
X3919312Y-8640758D02*
X3919312Y-8507425D01*
X3919312Y-8526472D02*
X3928836Y-8516948D01*
X3928836Y-8516948D02*
X3947884Y-8507425D01*
X3947884Y-8507425D02*
X3976455Y-8507425D01*
X3976455Y-8507425D02*
X3995503Y-8516948D01*
X3995503Y-8516948D02*
X4005026Y-8535996D01*
X4005026Y-8535996D02*
X4005026Y-8640758D01*
X4005026Y-8535996D02*
X4014550Y-8516948D01*
X4014550Y-8516948D02*
X4033598Y-8507425D01*
X4033598Y-8507425D02*
X4062169Y-8507425D01*
X4062169Y-8507425D02*
X4081217Y-8516948D01*
X4081217Y-8516948D02*
X4090741Y-8535996D01*
X4090741Y-8535996D02*
X4090741Y-8640758D01*
X4481217Y-8431234D02*
X4309789Y-8688377D01*
X4738360Y-8440758D02*
X4757408Y-8440758D01*
X4757408Y-8440758D02*
X4776455Y-8450282D01*
X4776455Y-8450282D02*
X4785979Y-8459806D01*
X4785979Y-8459806D02*
X4795503Y-8478853D01*
X4795503Y-8478853D02*
X4805027Y-8516948D01*
X4805027Y-8516948D02*
X4805027Y-8564568D01*
X4805027Y-8564568D02*
X4795503Y-8602663D01*
X4795503Y-8602663D02*
X4785979Y-8621710D01*
X4785979Y-8621710D02*
X4776455Y-8631234D01*
X4776455Y-8631234D02*
X4757408Y-8640758D01*
X4757408Y-8640758D02*
X4738360Y-8640758D01*
X4738360Y-8640758D02*
X4719312Y-8631234D01*
X4719312Y-8631234D02*
X4709789Y-8621710D01*
X4709789Y-8621710D02*
X4700265Y-8602663D01*
X4700265Y-8602663D02*
X4690741Y-8564568D01*
X4690741Y-8564568D02*
X4690741Y-8516948D01*
X4690741Y-8516948D02*
X4700265Y-8478853D01*
X4700265Y-8478853D02*
X4709789Y-8459806D01*
X4709789Y-8459806D02*
X4719312Y-8450282D01*
X4719312Y-8450282D02*
X4738360Y-8440758D01*
X4890741Y-8621710D02*
X4900265Y-8631234D01*
X4900265Y-8631234D02*
X4890741Y-8640758D01*
X4890741Y-8640758D02*
X4881217Y-8631234D01*
X4881217Y-8631234D02*
X4890741Y-8621710D01*
X4890741Y-8621710D02*
X4890741Y-8640758D01*
X5024074Y-8440758D02*
X5043122Y-8440758D01*
X5043122Y-8440758D02*
X5062170Y-8450282D01*
X5062170Y-8450282D02*
X5071693Y-8459806D01*
X5071693Y-8459806D02*
X5081217Y-8478853D01*
X5081217Y-8478853D02*
X5090741Y-8516948D01*
X5090741Y-8516948D02*
X5090741Y-8564568D01*
X5090741Y-8564568D02*
X5081217Y-8602663D01*
X5081217Y-8602663D02*
X5071693Y-8621710D01*
X5071693Y-8621710D02*
X5062170Y-8631234D01*
X5062170Y-8631234D02*
X5043122Y-8640758D01*
X5043122Y-8640758D02*
X5024074Y-8640758D01*
X5024074Y-8640758D02*
X5005027Y-8631234D01*
X5005027Y-8631234D02*
X4995503Y-8621710D01*
X4995503Y-8621710D02*
X4985979Y-8602663D01*
X4985979Y-8602663D02*
X4976455Y-8564568D01*
X4976455Y-8564568D02*
X4976455Y-8516948D01*
X4976455Y-8516948D02*
X4985979Y-8478853D01*
X4985979Y-8478853D02*
X4995503Y-8459806D01*
X4995503Y-8459806D02*
X5005027Y-8450282D01*
X5005027Y-8450282D02*
X5024074Y-8440758D01*
X5271693Y-8440758D02*
X5176455Y-8440758D01*
X5176455Y-8440758D02*
X5166931Y-8535996D01*
X5166931Y-8535996D02*
X5176455Y-8526472D01*
X5176455Y-8526472D02*
X5195503Y-8516948D01*
X5195503Y-8516948D02*
X5243122Y-8516948D01*
X5243122Y-8516948D02*
X5262170Y-8526472D01*
X5262170Y-8526472D02*
X5271693Y-8535996D01*
X5271693Y-8535996D02*
X5281217Y-8555044D01*
X5281217Y-8555044D02*
X5281217Y-8602663D01*
X5281217Y-8602663D02*
X5271693Y-8621710D01*
X5271693Y-8621710D02*
X5262170Y-8631234D01*
X5262170Y-8631234D02*
X5243122Y-8640758D01*
X5243122Y-8640758D02*
X5195503Y-8640758D01*
X5195503Y-8640758D02*
X5176455Y-8631234D01*
X5176455Y-8631234D02*
X5166931Y-8621710D01*
X5347884Y-8440758D02*
X5471693Y-8440758D01*
X5471693Y-8440758D02*
X5405027Y-8516948D01*
X5405027Y-8516948D02*
X5433598Y-8516948D01*
X5433598Y-8516948D02*
X5452646Y-8526472D01*
X5452646Y-8526472D02*
X5462170Y-8535996D01*
X5462170Y-8535996D02*
X5471693Y-8555044D01*
X5471693Y-8555044D02*
X5471693Y-8602663D01*
X5471693Y-8602663D02*
X5462170Y-8621710D01*
X5462170Y-8621710D02*
X5452646Y-8631234D01*
X5452646Y-8631234D02*
X5433598Y-8640758D01*
X5433598Y-8640758D02*
X5376455Y-8640758D01*
X5376455Y-8640758D02*
X5357408Y-8631234D01*
X5357408Y-8631234D02*
X5347884Y-8621710D01*
X5662169Y-8640758D02*
X5547884Y-8640758D01*
X5605027Y-8640758D02*
X5605027Y-8440758D01*
X5605027Y-8440758D02*
X5585979Y-8469329D01*
X5585979Y-8469329D02*
X5566931Y-8488377D01*
X5566931Y-8488377D02*
X5547884Y-8497901D01*
X5738360Y-8440758D02*
X5738360Y-8478853D01*
X5814550Y-8440758D02*
X5814550Y-8478853D01*
X6109789Y-8716948D02*
X6100265Y-8707425D01*
X6100265Y-8707425D02*
X6081217Y-8678853D01*
X6081217Y-8678853D02*
X6071693Y-8659806D01*
X6071693Y-8659806D02*
X6062170Y-8631234D01*
X6062170Y-8631234D02*
X6052646Y-8583615D01*
X6052646Y-8583615D02*
X6052646Y-8545520D01*
X6052646Y-8545520D02*
X6062170Y-8497901D01*
X6062170Y-8497901D02*
X6071693Y-8469329D01*
X6071693Y-8469329D02*
X6081217Y-8450282D01*
X6081217Y-8450282D02*
X6100265Y-8421710D01*
X6100265Y-8421710D02*
X6109789Y-8412187D01*
X6271693Y-8440758D02*
X6233598Y-8440758D01*
X6233598Y-8440758D02*
X6214550Y-8450282D01*
X6214550Y-8450282D02*
X6205027Y-8459806D01*
X6205027Y-8459806D02*
X6185979Y-8488377D01*
X6185979Y-8488377D02*
X6176455Y-8526472D01*
X6176455Y-8526472D02*
X6176455Y-8602663D01*
X6176455Y-8602663D02*
X6185979Y-8621710D01*
X6185979Y-8621710D02*
X6195503Y-8631234D01*
X6195503Y-8631234D02*
X6214550Y-8640758D01*
X6214550Y-8640758D02*
X6252646Y-8640758D01*
X6252646Y-8640758D02*
X6271693Y-8631234D01*
X6271693Y-8631234D02*
X6281217Y-8621710D01*
X6281217Y-8621710D02*
X6290741Y-8602663D01*
X6290741Y-8602663D02*
X6290741Y-8555044D01*
X6290741Y-8555044D02*
X6281217Y-8535996D01*
X6281217Y-8535996D02*
X6271693Y-8526472D01*
X6271693Y-8526472D02*
X6252646Y-8516948D01*
X6252646Y-8516948D02*
X6214550Y-8516948D01*
X6214550Y-8516948D02*
X6195503Y-8526472D01*
X6195503Y-8526472D02*
X6185979Y-8535996D01*
X6185979Y-8535996D02*
X6176455Y-8555044D01*
X6405027Y-8526472D02*
X6385979Y-8516948D01*
X6385979Y-8516948D02*
X6376455Y-8507425D01*
X6376455Y-8507425D02*
X6366931Y-8488377D01*
X6366931Y-8488377D02*
X6366931Y-8478853D01*
X6366931Y-8478853D02*
X6376455Y-8459806D01*
X6376455Y-8459806D02*
X6385979Y-8450282D01*
X6385979Y-8450282D02*
X6405027Y-8440758D01*
X6405027Y-8440758D02*
X6443122Y-8440758D01*
X6443122Y-8440758D02*
X6462170Y-8450282D01*
X6462170Y-8450282D02*
X6471693Y-8459806D01*
X6471693Y-8459806D02*
X6481217Y-8478853D01*
X6481217Y-8478853D02*
X6481217Y-8488377D01*
X6481217Y-8488377D02*
X6471693Y-8507425D01*
X6471693Y-8507425D02*
X6462170Y-8516948D01*
X6462170Y-8516948D02*
X6443122Y-8526472D01*
X6443122Y-8526472D02*
X6405027Y-8526472D01*
X6405027Y-8526472D02*
X6385979Y-8535996D01*
X6385979Y-8535996D02*
X6376455Y-8545520D01*
X6376455Y-8545520D02*
X6366931Y-8564568D01*
X6366931Y-8564568D02*
X6366931Y-8602663D01*
X6366931Y-8602663D02*
X6376455Y-8621710D01*
X6376455Y-8621710D02*
X6385979Y-8631234D01*
X6385979Y-8631234D02*
X6405027Y-8640758D01*
X6405027Y-8640758D02*
X6443122Y-8640758D01*
X6443122Y-8640758D02*
X6462170Y-8631234D01*
X6462170Y-8631234D02*
X6471693Y-8621710D01*
X6471693Y-8621710D02*
X6481217Y-8602663D01*
X6481217Y-8602663D02*
X6481217Y-8564568D01*
X6481217Y-8564568D02*
X6471693Y-8545520D01*
X6471693Y-8545520D02*
X6462170Y-8535996D01*
X6462170Y-8535996D02*
X6443122Y-8526472D01*
X6719312Y-8640758D02*
X6719312Y-8440758D01*
X6805027Y-8640758D02*
X6805027Y-8535996D01*
X6805027Y-8535996D02*
X6795503Y-8516948D01*
X6795503Y-8516948D02*
X6776455Y-8507425D01*
X6776455Y-8507425D02*
X6747884Y-8507425D01*
X6747884Y-8507425D02*
X6728836Y-8516948D01*
X6728836Y-8516948D02*
X6719312Y-8526472D01*
X6928836Y-8640758D02*
X6909789Y-8631234D01*
X6909789Y-8631234D02*
X6900265Y-8621710D01*
X6900265Y-8621710D02*
X6890741Y-8602663D01*
X6890741Y-8602663D02*
X6890741Y-8545520D01*
X6890741Y-8545520D02*
X6900265Y-8526472D01*
X6900265Y-8526472D02*
X6909789Y-8516948D01*
X6909789Y-8516948D02*
X6928836Y-8507425D01*
X6928836Y-8507425D02*
X6957408Y-8507425D01*
X6957408Y-8507425D02*
X6976455Y-8516948D01*
X6976455Y-8516948D02*
X6985979Y-8526472D01*
X6985979Y-8526472D02*
X6995503Y-8545520D01*
X6995503Y-8545520D02*
X6995503Y-8602663D01*
X6995503Y-8602663D02*
X6985979Y-8621710D01*
X6985979Y-8621710D02*
X6976455Y-8631234D01*
X6976455Y-8631234D02*
X6957408Y-8640758D01*
X6957408Y-8640758D02*
X6928836Y-8640758D01*
X7109789Y-8640758D02*
X7090741Y-8631234D01*
X7090741Y-8631234D02*
X7081217Y-8612187D01*
X7081217Y-8612187D02*
X7081217Y-8440758D01*
X7262170Y-8631234D02*
X7243122Y-8640758D01*
X7243122Y-8640758D02*
X7205027Y-8640758D01*
X7205027Y-8640758D02*
X7185979Y-8631234D01*
X7185979Y-8631234D02*
X7176455Y-8612187D01*
X7176455Y-8612187D02*
X7176455Y-8535996D01*
X7176455Y-8535996D02*
X7185979Y-8516948D01*
X7185979Y-8516948D02*
X7205027Y-8507425D01*
X7205027Y-8507425D02*
X7243122Y-8507425D01*
X7243122Y-8507425D02*
X7262170Y-8516948D01*
X7262170Y-8516948D02*
X7271693Y-8535996D01*
X7271693Y-8535996D02*
X7271693Y-8555044D01*
X7271693Y-8555044D02*
X7176455Y-8574091D01*
X7347884Y-8631234D02*
X7366932Y-8640758D01*
X7366932Y-8640758D02*
X7405027Y-8640758D01*
X7405027Y-8640758D02*
X7424074Y-8631234D01*
X7424074Y-8631234D02*
X7433598Y-8612187D01*
X7433598Y-8612187D02*
X7433598Y-8602663D01*
X7433598Y-8602663D02*
X7424074Y-8583615D01*
X7424074Y-8583615D02*
X7405027Y-8574091D01*
X7405027Y-8574091D02*
X7376455Y-8574091D01*
X7376455Y-8574091D02*
X7357408Y-8564568D01*
X7357408Y-8564568D02*
X7347884Y-8545520D01*
X7347884Y-8545520D02*
X7347884Y-8535996D01*
X7347884Y-8535996D02*
X7357408Y-8516948D01*
X7357408Y-8516948D02*
X7376455Y-8507425D01*
X7376455Y-8507425D02*
X7405027Y-8507425D01*
X7405027Y-8507425D02*
X7424074Y-8516948D01*
X7500265Y-8716948D02*
X7509789Y-8707425D01*
X7509789Y-8707425D02*
X7528836Y-8678853D01*
X7528836Y-8678853D02*
X7538360Y-8659806D01*
X7538360Y-8659806D02*
X7547884Y-8631234D01*
X7547884Y-8631234D02*
X7557408Y-8583615D01*
X7557408Y-8583615D02*
X7557408Y-8545520D01*
X7557408Y-8545520D02*
X7547884Y-8497901D01*
X7547884Y-8497901D02*
X7538360Y-8469329D01*
X7538360Y-8469329D02*
X7528836Y-8450282D01*
X7528836Y-8450282D02*
X7509789Y-8421710D01*
X7509789Y-8421710D02*
X7500265Y-8412187D01*
X2434726Y-8913274D02*
X2534726Y-8813274D01*
X2434726Y-8713274D01*
X2334726Y-8813274D01*
X2434726Y-8913274D01*
X2776455Y-8704758D02*
X2900264Y-8704758D01*
X2900264Y-8704758D02*
X2833598Y-8780948D01*
X2833598Y-8780948D02*
X2862169Y-8780948D01*
X2862169Y-8780948D02*
X2881217Y-8790472D01*
X2881217Y-8790472D02*
X2890741Y-8799996D01*
X2890741Y-8799996D02*
X2900264Y-8819044D01*
X2900264Y-8819044D02*
X2900264Y-8866663D01*
X2900264Y-8866663D02*
X2890741Y-8885710D01*
X2890741Y-8885710D02*
X2881217Y-8895234D01*
X2881217Y-8895234D02*
X2862169Y-8904758D01*
X2862169Y-8904758D02*
X2805026Y-8904758D01*
X2805026Y-8904758D02*
X2785979Y-8895234D01*
X2785979Y-8895234D02*
X2776455Y-8885710D01*
X2985979Y-8885710D02*
X2995503Y-8895234D01*
X2995503Y-8895234D02*
X2985979Y-8904758D01*
X2985979Y-8904758D02*
X2976455Y-8895234D01*
X2976455Y-8895234D02*
X2985979Y-8885710D01*
X2985979Y-8885710D02*
X2985979Y-8904758D01*
X3071693Y-8723806D02*
X3081217Y-8714282D01*
X3081217Y-8714282D02*
X3100264Y-8704758D01*
X3100264Y-8704758D02*
X3147884Y-8704758D01*
X3147884Y-8704758D02*
X3166931Y-8714282D01*
X3166931Y-8714282D02*
X3176455Y-8723806D01*
X3176455Y-8723806D02*
X3185979Y-8742853D01*
X3185979Y-8742853D02*
X3185979Y-8761901D01*
X3185979Y-8761901D02*
X3176455Y-8790472D01*
X3176455Y-8790472D02*
X3062169Y-8904758D01*
X3062169Y-8904758D02*
X3185979Y-8904758D01*
X3309788Y-8704758D02*
X3328836Y-8704758D01*
X3328836Y-8704758D02*
X3347884Y-8714282D01*
X3347884Y-8714282D02*
X3357407Y-8723806D01*
X3357407Y-8723806D02*
X3366931Y-8742853D01*
X3366931Y-8742853D02*
X3376455Y-8780948D01*
X3376455Y-8780948D02*
X3376455Y-8828568D01*
X3376455Y-8828568D02*
X3366931Y-8866663D01*
X3366931Y-8866663D02*
X3357407Y-8885710D01*
X3357407Y-8885710D02*
X3347884Y-8895234D01*
X3347884Y-8895234D02*
X3328836Y-8904758D01*
X3328836Y-8904758D02*
X3309788Y-8904758D01*
X3309788Y-8904758D02*
X3290741Y-8895234D01*
X3290741Y-8895234D02*
X3281217Y-8885710D01*
X3281217Y-8885710D02*
X3271693Y-8866663D01*
X3271693Y-8866663D02*
X3262169Y-8828568D01*
X3262169Y-8828568D02*
X3262169Y-8780948D01*
X3262169Y-8780948D02*
X3271693Y-8742853D01*
X3271693Y-8742853D02*
X3281217Y-8723806D01*
X3281217Y-8723806D02*
X3290741Y-8714282D01*
X3290741Y-8714282D02*
X3309788Y-8704758D01*
X3500264Y-8704758D02*
X3519312Y-8704758D01*
X3519312Y-8704758D02*
X3538360Y-8714282D01*
X3538360Y-8714282D02*
X3547884Y-8723806D01*
X3547884Y-8723806D02*
X3557407Y-8742853D01*
X3557407Y-8742853D02*
X3566931Y-8780948D01*
X3566931Y-8780948D02*
X3566931Y-8828568D01*
X3566931Y-8828568D02*
X3557407Y-8866663D01*
X3557407Y-8866663D02*
X3547884Y-8885710D01*
X3547884Y-8885710D02*
X3538360Y-8895234D01*
X3538360Y-8895234D02*
X3519312Y-8904758D01*
X3519312Y-8904758D02*
X3500264Y-8904758D01*
X3500264Y-8904758D02*
X3481217Y-8895234D01*
X3481217Y-8895234D02*
X3471693Y-8885710D01*
X3471693Y-8885710D02*
X3462169Y-8866663D01*
X3462169Y-8866663D02*
X3452645Y-8828568D01*
X3452645Y-8828568D02*
X3452645Y-8780948D01*
X3452645Y-8780948D02*
X3462169Y-8742853D01*
X3462169Y-8742853D02*
X3471693Y-8723806D01*
X3471693Y-8723806D02*
X3481217Y-8714282D01*
X3481217Y-8714282D02*
X3500264Y-8704758D01*
X3652645Y-8904758D02*
X3652645Y-8771425D01*
X3652645Y-8790472D02*
X3662169Y-8780948D01*
X3662169Y-8780948D02*
X3681217Y-8771425D01*
X3681217Y-8771425D02*
X3709788Y-8771425D01*
X3709788Y-8771425D02*
X3728836Y-8780948D01*
X3728836Y-8780948D02*
X3738360Y-8799996D01*
X3738360Y-8799996D02*
X3738360Y-8904758D01*
X3738360Y-8799996D02*
X3747884Y-8780948D01*
X3747884Y-8780948D02*
X3766931Y-8771425D01*
X3766931Y-8771425D02*
X3795503Y-8771425D01*
X3795503Y-8771425D02*
X3814550Y-8780948D01*
X3814550Y-8780948D02*
X3824074Y-8799996D01*
X3824074Y-8799996D02*
X3824074Y-8904758D01*
X3919312Y-8904758D02*
X3919312Y-8771425D01*
X3919312Y-8790472D02*
X3928836Y-8780948D01*
X3928836Y-8780948D02*
X3947884Y-8771425D01*
X3947884Y-8771425D02*
X3976455Y-8771425D01*
X3976455Y-8771425D02*
X3995503Y-8780948D01*
X3995503Y-8780948D02*
X4005026Y-8799996D01*
X4005026Y-8799996D02*
X4005026Y-8904758D01*
X4005026Y-8799996D02*
X4014550Y-8780948D01*
X4014550Y-8780948D02*
X4033598Y-8771425D01*
X4033598Y-8771425D02*
X4062169Y-8771425D01*
X4062169Y-8771425D02*
X4081217Y-8780948D01*
X4081217Y-8780948D02*
X4090741Y-8799996D01*
X4090741Y-8799996D02*
X4090741Y-8904758D01*
X4481217Y-8695234D02*
X4309789Y-8952377D01*
X4738360Y-8704758D02*
X4757408Y-8704758D01*
X4757408Y-8704758D02*
X4776455Y-8714282D01*
X4776455Y-8714282D02*
X4785979Y-8723806D01*
X4785979Y-8723806D02*
X4795503Y-8742853D01*
X4795503Y-8742853D02*
X4805027Y-8780948D01*
X4805027Y-8780948D02*
X4805027Y-8828568D01*
X4805027Y-8828568D02*
X4795503Y-8866663D01*
X4795503Y-8866663D02*
X4785979Y-8885710D01*
X4785979Y-8885710D02*
X4776455Y-8895234D01*
X4776455Y-8895234D02*
X4757408Y-8904758D01*
X4757408Y-8904758D02*
X4738360Y-8904758D01*
X4738360Y-8904758D02*
X4719312Y-8895234D01*
X4719312Y-8895234D02*
X4709789Y-8885710D01*
X4709789Y-8885710D02*
X4700265Y-8866663D01*
X4700265Y-8866663D02*
X4690741Y-8828568D01*
X4690741Y-8828568D02*
X4690741Y-8780948D01*
X4690741Y-8780948D02*
X4700265Y-8742853D01*
X4700265Y-8742853D02*
X4709789Y-8723806D01*
X4709789Y-8723806D02*
X4719312Y-8714282D01*
X4719312Y-8714282D02*
X4738360Y-8704758D01*
X4890741Y-8885710D02*
X4900265Y-8895234D01*
X4900265Y-8895234D02*
X4890741Y-8904758D01*
X4890741Y-8904758D02*
X4881217Y-8895234D01*
X4881217Y-8895234D02*
X4890741Y-8885710D01*
X4890741Y-8885710D02*
X4890741Y-8904758D01*
X5090741Y-8904758D02*
X4976455Y-8904758D01*
X5033598Y-8904758D02*
X5033598Y-8704758D01*
X5033598Y-8704758D02*
X5014550Y-8733329D01*
X5014550Y-8733329D02*
X4995503Y-8752377D01*
X4995503Y-8752377D02*
X4976455Y-8761901D01*
X5166931Y-8723806D02*
X5176455Y-8714282D01*
X5176455Y-8714282D02*
X5195503Y-8704758D01*
X5195503Y-8704758D02*
X5243122Y-8704758D01*
X5243122Y-8704758D02*
X5262170Y-8714282D01*
X5262170Y-8714282D02*
X5271693Y-8723806D01*
X5271693Y-8723806D02*
X5281217Y-8742853D01*
X5281217Y-8742853D02*
X5281217Y-8761901D01*
X5281217Y-8761901D02*
X5271693Y-8790472D01*
X5271693Y-8790472D02*
X5157408Y-8904758D01*
X5157408Y-8904758D02*
X5281217Y-8904758D01*
X5452646Y-8704758D02*
X5414550Y-8704758D01*
X5414550Y-8704758D02*
X5395503Y-8714282D01*
X5395503Y-8714282D02*
X5385979Y-8723806D01*
X5385979Y-8723806D02*
X5366931Y-8752377D01*
X5366931Y-8752377D02*
X5357408Y-8790472D01*
X5357408Y-8790472D02*
X5357408Y-8866663D01*
X5357408Y-8866663D02*
X5366931Y-8885710D01*
X5366931Y-8885710D02*
X5376455Y-8895234D01*
X5376455Y-8895234D02*
X5395503Y-8904758D01*
X5395503Y-8904758D02*
X5433598Y-8904758D01*
X5433598Y-8904758D02*
X5452646Y-8895234D01*
X5452646Y-8895234D02*
X5462170Y-8885710D01*
X5462170Y-8885710D02*
X5471693Y-8866663D01*
X5471693Y-8866663D02*
X5471693Y-8819044D01*
X5471693Y-8819044D02*
X5462170Y-8799996D01*
X5462170Y-8799996D02*
X5452646Y-8790472D01*
X5452646Y-8790472D02*
X5433598Y-8780948D01*
X5433598Y-8780948D02*
X5395503Y-8780948D01*
X5395503Y-8780948D02*
X5376455Y-8790472D01*
X5376455Y-8790472D02*
X5366931Y-8799996D01*
X5366931Y-8799996D02*
X5357408Y-8819044D01*
X5595503Y-8704758D02*
X5614550Y-8704758D01*
X5614550Y-8704758D02*
X5633598Y-8714282D01*
X5633598Y-8714282D02*
X5643122Y-8723806D01*
X5643122Y-8723806D02*
X5652646Y-8742853D01*
X5652646Y-8742853D02*
X5662169Y-8780948D01*
X5662169Y-8780948D02*
X5662169Y-8828568D01*
X5662169Y-8828568D02*
X5652646Y-8866663D01*
X5652646Y-8866663D02*
X5643122Y-8885710D01*
X5643122Y-8885710D02*
X5633598Y-8895234D01*
X5633598Y-8895234D02*
X5614550Y-8904758D01*
X5614550Y-8904758D02*
X5595503Y-8904758D01*
X5595503Y-8904758D02*
X5576455Y-8895234D01*
X5576455Y-8895234D02*
X5566931Y-8885710D01*
X5566931Y-8885710D02*
X5557408Y-8866663D01*
X5557408Y-8866663D02*
X5547884Y-8828568D01*
X5547884Y-8828568D02*
X5547884Y-8780948D01*
X5547884Y-8780948D02*
X5557408Y-8742853D01*
X5557408Y-8742853D02*
X5566931Y-8723806D01*
X5566931Y-8723806D02*
X5576455Y-8714282D01*
X5576455Y-8714282D02*
X5595503Y-8704758D01*
X5738360Y-8704758D02*
X5738360Y-8742853D01*
X5814550Y-8704758D02*
X5814550Y-8742853D01*
X6109789Y-8980948D02*
X6100265Y-8971425D01*
X6100265Y-8971425D02*
X6081217Y-8942853D01*
X6081217Y-8942853D02*
X6071693Y-8923806D01*
X6071693Y-8923806D02*
X6062170Y-8895234D01*
X6062170Y-8895234D02*
X6052646Y-8847615D01*
X6052646Y-8847615D02*
X6052646Y-8809520D01*
X6052646Y-8809520D02*
X6062170Y-8761901D01*
X6062170Y-8761901D02*
X6071693Y-8733329D01*
X6071693Y-8733329D02*
X6081217Y-8714282D01*
X6081217Y-8714282D02*
X6100265Y-8685710D01*
X6100265Y-8685710D02*
X6109789Y-8676187D01*
X6271693Y-8771425D02*
X6271693Y-8904758D01*
X6224074Y-8695234D02*
X6176455Y-8838091D01*
X6176455Y-8838091D02*
X6300265Y-8838091D01*
X6528836Y-8904758D02*
X6528836Y-8704758D01*
X6614551Y-8904758D02*
X6614551Y-8799996D01*
X6614551Y-8799996D02*
X6605027Y-8780948D01*
X6605027Y-8780948D02*
X6585979Y-8771425D01*
X6585979Y-8771425D02*
X6557408Y-8771425D01*
X6557408Y-8771425D02*
X6538360Y-8780948D01*
X6538360Y-8780948D02*
X6528836Y-8790472D01*
X6738360Y-8904758D02*
X6719312Y-8895234D01*
X6719312Y-8895234D02*
X6709789Y-8885710D01*
X6709789Y-8885710D02*
X6700265Y-8866663D01*
X6700265Y-8866663D02*
X6700265Y-8809520D01*
X6700265Y-8809520D02*
X6709789Y-8790472D01*
X6709789Y-8790472D02*
X6719312Y-8780948D01*
X6719312Y-8780948D02*
X6738360Y-8771425D01*
X6738360Y-8771425D02*
X6766932Y-8771425D01*
X6766932Y-8771425D02*
X6785979Y-8780948D01*
X6785979Y-8780948D02*
X6795503Y-8790472D01*
X6795503Y-8790472D02*
X6805027Y-8809520D01*
X6805027Y-8809520D02*
X6805027Y-8866663D01*
X6805027Y-8866663D02*
X6795503Y-8885710D01*
X6795503Y-8885710D02*
X6785979Y-8895234D01*
X6785979Y-8895234D02*
X6766932Y-8904758D01*
X6766932Y-8904758D02*
X6738360Y-8904758D01*
X6919312Y-8904758D02*
X6900265Y-8895234D01*
X6900265Y-8895234D02*
X6890741Y-8876187D01*
X6890741Y-8876187D02*
X6890741Y-8704758D01*
X7071693Y-8895234D02*
X7052646Y-8904758D01*
X7052646Y-8904758D02*
X7014551Y-8904758D01*
X7014551Y-8904758D02*
X6995503Y-8895234D01*
X6995503Y-8895234D02*
X6985979Y-8876187D01*
X6985979Y-8876187D02*
X6985979Y-8799996D01*
X6985979Y-8799996D02*
X6995503Y-8780948D01*
X6995503Y-8780948D02*
X7014551Y-8771425D01*
X7014551Y-8771425D02*
X7052646Y-8771425D01*
X7052646Y-8771425D02*
X7071693Y-8780948D01*
X7071693Y-8780948D02*
X7081217Y-8799996D01*
X7081217Y-8799996D02*
X7081217Y-8819044D01*
X7081217Y-8819044D02*
X6985979Y-8838091D01*
X7157408Y-8895234D02*
X7176455Y-8904758D01*
X7176455Y-8904758D02*
X7214551Y-8904758D01*
X7214551Y-8904758D02*
X7233598Y-8895234D01*
X7233598Y-8895234D02*
X7243122Y-8876187D01*
X7243122Y-8876187D02*
X7243122Y-8866663D01*
X7243122Y-8866663D02*
X7233598Y-8847615D01*
X7233598Y-8847615D02*
X7214551Y-8838091D01*
X7214551Y-8838091D02*
X7185979Y-8838091D01*
X7185979Y-8838091D02*
X7166932Y-8828568D01*
X7166932Y-8828568D02*
X7157408Y-8809520D01*
X7157408Y-8809520D02*
X7157408Y-8799996D01*
X7157408Y-8799996D02*
X7166932Y-8780948D01*
X7166932Y-8780948D02*
X7185979Y-8771425D01*
X7185979Y-8771425D02*
X7214551Y-8771425D01*
X7214551Y-8771425D02*
X7233598Y-8780948D01*
X7309789Y-8980948D02*
X7319313Y-8971425D01*
X7319313Y-8971425D02*
X7338360Y-8942853D01*
X7338360Y-8942853D02*
X7347884Y-8923806D01*
X7347884Y-8923806D02*
X7357408Y-8895234D01*
X7357408Y-8895234D02*
X7366932Y-8847615D01*
X7366932Y-8847615D02*
X7366932Y-8809520D01*
X7366932Y-8809520D02*
X7357408Y-8761901D01*
X7357408Y-8761901D02*
X7347884Y-8733329D01*
X7347884Y-8733329D02*
X7338360Y-8714282D01*
X7338360Y-8714282D02*
X7319313Y-8685710D01*
X7319313Y-8685710D02*
X7309789Y-8676187D01*
M02*
