G04 #@! TF.GenerationSoftware,KiCad,Pcbnew,7.0.7*
G04 #@! TF.CreationDate,2024-07-14T01:34:52-07:00*
G04 #@! TF.ProjectId,AnalogBox,416e616c-6f67-4426-9f78-2e6b69636164,rev?*
G04 #@! TF.SameCoordinates,Original*
G04 #@! TF.FileFunction,Copper,L2,Bot*
G04 #@! TF.FilePolarity,Positive*
%FSLAX46Y46*%
G04 Gerber Fmt 4.6, Leading zero omitted, Abs format (unit mm)*
G04 Created by KiCad (PCBNEW 7.0.7) date 2024-07-14 01:34:52*
%MOMM*%
%LPD*%
G01*
G04 APERTURE LIST*
G04 #@! TA.AperFunction,ComponentPad*
%ADD10C,1.600000*%
G04 #@! TD*
G04 #@! TA.AperFunction,ComponentPad*
%ADD11O,1.600000X1.600000*%
G04 #@! TD*
G04 #@! TA.AperFunction,ComponentPad*
%ADD12C,1.397000*%
G04 #@! TD*
G04 #@! TA.AperFunction,ComponentPad*
%ADD13C,3.600000*%
G04 #@! TD*
G04 #@! TA.AperFunction,ConnectorPad*
%ADD14C,6.400000*%
G04 #@! TD*
G04 #@! TA.AperFunction,ComponentPad*
%ADD15R,2.025000X2.025000*%
G04 #@! TD*
G04 #@! TA.AperFunction,ComponentPad*
%ADD16C,2.025000*%
G04 #@! TD*
G04 #@! TA.AperFunction,ComponentPad*
%ADD17R,1.800000X1.800000*%
G04 #@! TD*
G04 #@! TA.AperFunction,ComponentPad*
%ADD18C,1.800000*%
G04 #@! TD*
G04 APERTURE END LIST*
D10*
X29110000Y-42140000D03*
D11*
X29110000Y-49760000D03*
D12*
X79269900Y-56934600D03*
X80539900Y-54394600D03*
X81809900Y-56934600D03*
X83079900Y-54394600D03*
X84349900Y-56934600D03*
X85619900Y-54394600D03*
X86889900Y-56934600D03*
X88159900Y-54394600D03*
D13*
X104140000Y-60960000D03*
D14*
X104140000Y-60960000D03*
D13*
X29210000Y-35560000D03*
D14*
X29210000Y-35560000D03*
D12*
X45700000Y-56934600D03*
X46970000Y-54394600D03*
X48240000Y-56934600D03*
X49510000Y-54394600D03*
X50780000Y-56934600D03*
X52050000Y-54394600D03*
X53320000Y-56934600D03*
X54590000Y-54394600D03*
D15*
X35230000Y-38790000D03*
X35230000Y-33290000D03*
D16*
X38730000Y-38790000D03*
X38730000Y-33290000D03*
X42230000Y-38790000D03*
X42230000Y-33290000D03*
X45730000Y-38790000D03*
X45730000Y-33290000D03*
X49230000Y-38790000D03*
X49230000Y-33290000D03*
X52730000Y-38790000D03*
X52730000Y-33290000D03*
X56230000Y-38790000D03*
X56230000Y-33290000D03*
X59730000Y-38790000D03*
X59730000Y-33290000D03*
D13*
X29210000Y-60960000D03*
D14*
X29210000Y-60960000D03*
D16*
X64965000Y-38790000D03*
X64965000Y-33290000D03*
X68465000Y-38790000D03*
X68465000Y-33290000D03*
X71965000Y-38790000D03*
X71965000Y-33290000D03*
X75465000Y-38790000D03*
X75465000Y-33290000D03*
X78965000Y-38790000D03*
X78965000Y-33290000D03*
X82465000Y-38790000D03*
X82465000Y-33290000D03*
X85965000Y-38790000D03*
X85965000Y-33290000D03*
X89465000Y-38790000D03*
X89465000Y-33290000D03*
X39690000Y-50660000D03*
X39690000Y-45160000D03*
X43190000Y-50660000D03*
X43190000Y-45160000D03*
X46690000Y-50660000D03*
X46690000Y-45160000D03*
X50190000Y-50660000D03*
X50190000Y-45160000D03*
X53690000Y-50660000D03*
X53690000Y-45160000D03*
X57190000Y-50660000D03*
X57190000Y-45160000D03*
X60690000Y-50660000D03*
X60690000Y-45160000D03*
X64190000Y-50660000D03*
X64190000Y-45160000D03*
D17*
X29110000Y-54880000D03*
D18*
X29110000Y-52340000D03*
D16*
X94700000Y-38790000D03*
X94700000Y-33290000D03*
D15*
X98200000Y-38790000D03*
X98200000Y-33290000D03*
D16*
X70090000Y-50660000D03*
X70090000Y-45160000D03*
X73590000Y-50660000D03*
X73590000Y-45160000D03*
X77090000Y-50660000D03*
X77090000Y-45160000D03*
X80590000Y-50660000D03*
X80590000Y-45160000D03*
X84090000Y-50660000D03*
X84090000Y-45160000D03*
X87590000Y-50660000D03*
X87590000Y-45160000D03*
X91090000Y-50660000D03*
X91090000Y-45160000D03*
X94590000Y-50660000D03*
X94590000Y-45160000D03*
D13*
X104140000Y-35560000D03*
D14*
X104140000Y-35560000D03*
D12*
X62499900Y-56934600D03*
X63769900Y-54394600D03*
X65039900Y-56934600D03*
X66309900Y-54394600D03*
X67579900Y-56934600D03*
X68849900Y-54394600D03*
X70119900Y-56934600D03*
X71389900Y-54394600D03*
G04 #@! TA.AperFunction,Conductor*
G36*
X104141513Y-25400575D02*
G01*
X104204875Y-25403687D01*
X104292455Y-25407989D01*
X104518034Y-25419812D01*
X104523842Y-25420393D01*
X104703383Y-25447025D01*
X104900138Y-25478188D01*
X104905449Y-25479271D01*
X105086852Y-25524711D01*
X105247397Y-25567730D01*
X105274283Y-25574934D01*
X105279127Y-25576446D01*
X105457420Y-25640240D01*
X105636749Y-25709078D01*
X105640992Y-25710893D01*
X105813402Y-25792437D01*
X105983703Y-25879210D01*
X105987403Y-25881259D01*
X106151713Y-25979743D01*
X106311623Y-26083590D01*
X106314789Y-26085789D01*
X106469105Y-26200237D01*
X106617201Y-26320162D01*
X106619820Y-26322407D01*
X106761313Y-26450648D01*
X106763517Y-26452747D01*
X106897251Y-26586481D01*
X106899350Y-26588685D01*
X107027591Y-26730178D01*
X107029836Y-26732797D01*
X107149762Y-26880894D01*
X107264209Y-27035209D01*
X107266408Y-27038375D01*
X107370260Y-27198292D01*
X107468730Y-27362579D01*
X107470794Y-27366307D01*
X107557567Y-27536609D01*
X107639094Y-27708982D01*
X107640930Y-27713274D01*
X107709762Y-27892588D01*
X107773552Y-28070873D01*
X107775064Y-28075715D01*
X107825295Y-28263174D01*
X107870721Y-28444524D01*
X107871816Y-28449893D01*
X107902980Y-28646660D01*
X107929602Y-28826131D01*
X107930188Y-28831987D01*
X107942014Y-29057627D01*
X107949425Y-29208487D01*
X107949500Y-29211530D01*
X107949500Y-34539671D01*
X107929815Y-34606710D01*
X107877011Y-34652465D01*
X107807853Y-34662409D01*
X107744297Y-34633384D01*
X107706523Y-34574606D01*
X107705725Y-34571764D01*
X107663737Y-34415063D01*
X107524755Y-34053005D01*
X107348689Y-33707456D01*
X107137468Y-33382206D01*
X106928904Y-33124649D01*
X106928903Y-33124648D01*
X105532586Y-34520965D01*
X105471263Y-34554450D01*
X105401571Y-34549466D01*
X105350615Y-34513816D01*
X105329296Y-34488855D01*
X105274870Y-34425130D01*
X105186179Y-34349381D01*
X105147989Y-34290878D01*
X105147489Y-34221010D01*
X105179032Y-34167413D01*
X106575350Y-32771096D01*
X106575350Y-32771095D01*
X106317793Y-32562531D01*
X105992543Y-32351310D01*
X105646994Y-32175244D01*
X105284936Y-32036262D01*
X104910330Y-31935887D01*
X104910323Y-31935886D01*
X104527287Y-31875219D01*
X104140001Y-31854922D01*
X104139999Y-31854922D01*
X103752712Y-31875219D01*
X103369676Y-31935886D01*
X103369669Y-31935887D01*
X102995063Y-32036262D01*
X102633005Y-32175244D01*
X102287456Y-32351310D01*
X101962206Y-32562531D01*
X101704648Y-32771095D01*
X101704648Y-32771096D01*
X103100966Y-34167413D01*
X103134451Y-34228736D01*
X103129467Y-34298428D01*
X103093817Y-34349384D01*
X103005130Y-34425130D01*
X102929384Y-34513817D01*
X102870877Y-34552010D01*
X102801009Y-34552508D01*
X102747413Y-34520966D01*
X101351096Y-33124648D01*
X101351095Y-33124648D01*
X101142531Y-33382206D01*
X100931310Y-33707456D01*
X100755244Y-34053005D01*
X100616262Y-34415063D01*
X100515887Y-34789669D01*
X100515886Y-34789676D01*
X100455219Y-35172712D01*
X100434922Y-35559999D01*
X100434922Y-35560000D01*
X100455219Y-35947287D01*
X100515886Y-36330323D01*
X100515887Y-36330330D01*
X100616262Y-36704936D01*
X100755244Y-37066994D01*
X100931310Y-37412543D01*
X101142531Y-37737793D01*
X101351095Y-37995350D01*
X101351096Y-37995350D01*
X102747413Y-36599032D01*
X102808736Y-36565547D01*
X102878427Y-36570531D01*
X102929381Y-36606179D01*
X103005130Y-36694870D01*
X103068855Y-36749296D01*
X103093816Y-36770615D01*
X103132009Y-36829122D01*
X103132507Y-36898990D01*
X103100965Y-36952586D01*
X101704648Y-38348903D01*
X101704649Y-38348904D01*
X101962206Y-38557468D01*
X102287456Y-38768689D01*
X102633005Y-38944755D01*
X102995063Y-39083737D01*
X103369669Y-39184112D01*
X103369676Y-39184113D01*
X103752712Y-39244780D01*
X104139999Y-39265078D01*
X104140001Y-39265078D01*
X104527287Y-39244780D01*
X104910323Y-39184113D01*
X104910330Y-39184112D01*
X105284936Y-39083737D01*
X105646994Y-38944755D01*
X105992543Y-38768689D01*
X106317783Y-38557476D01*
X106317793Y-38557469D01*
X106575349Y-38348902D01*
X105179033Y-36952586D01*
X105145548Y-36891263D01*
X105150532Y-36821571D01*
X105186180Y-36770617D01*
X105274870Y-36694870D01*
X105350617Y-36606180D01*
X105409121Y-36567990D01*
X105478989Y-36567490D01*
X105532586Y-36599033D01*
X106928902Y-37995349D01*
X107137475Y-37737785D01*
X107137476Y-37737783D01*
X107348689Y-37412543D01*
X107524755Y-37066994D01*
X107663737Y-36704936D01*
X107705725Y-36548235D01*
X107742090Y-36488574D01*
X107804937Y-36458045D01*
X107874312Y-36466340D01*
X107928190Y-36510825D01*
X107949465Y-36577377D01*
X107949500Y-36580328D01*
X107949500Y-59939671D01*
X107929815Y-60006710D01*
X107877011Y-60052465D01*
X107807853Y-60062409D01*
X107744297Y-60033384D01*
X107706523Y-59974606D01*
X107705725Y-59971764D01*
X107663737Y-59815063D01*
X107524755Y-59453005D01*
X107348689Y-59107456D01*
X107137476Y-58782216D01*
X107137474Y-58782214D01*
X106893413Y-58480823D01*
X106893406Y-58480815D01*
X106619184Y-58206593D01*
X106619176Y-58206586D01*
X106317785Y-57962525D01*
X106317783Y-57962523D01*
X105992543Y-57751310D01*
X105646994Y-57575244D01*
X105284936Y-57436262D01*
X104910330Y-57335887D01*
X104910323Y-57335886D01*
X104527287Y-57275219D01*
X104390000Y-57268024D01*
X104390000Y-59240584D01*
X104370315Y-59307623D01*
X104317511Y-59353378D01*
X104256273Y-59364202D01*
X104202872Y-59360000D01*
X104202869Y-59360000D01*
X104077131Y-59360000D01*
X104077128Y-59360000D01*
X104023727Y-59364202D01*
X103955350Y-59349837D01*
X103905594Y-59300785D01*
X103890000Y-59240584D01*
X103890000Y-57268024D01*
X103889999Y-57268024D01*
X103752712Y-57275219D01*
X103369676Y-57335886D01*
X103369669Y-57335887D01*
X102995063Y-57436262D01*
X102633005Y-57575244D01*
X102287456Y-57751310D01*
X101962216Y-57962523D01*
X101962214Y-57962525D01*
X101660823Y-58206586D01*
X101660815Y-58206593D01*
X101386593Y-58480815D01*
X101386586Y-58480823D01*
X101142525Y-58782214D01*
X101142523Y-58782216D01*
X100931310Y-59107456D01*
X100755244Y-59453005D01*
X100616262Y-59815063D01*
X100515887Y-60189669D01*
X100515886Y-60189676D01*
X100455219Y-60572712D01*
X100448024Y-60709999D01*
X100448024Y-60710000D01*
X102420585Y-60710000D01*
X102487624Y-60729685D01*
X102533379Y-60782489D01*
X102544203Y-60843729D01*
X102535052Y-60960000D01*
X102544203Y-61076271D01*
X102529839Y-61144648D01*
X102480787Y-61194405D01*
X102420585Y-61210000D01*
X100448024Y-61210000D01*
X100455219Y-61347287D01*
X100515886Y-61730323D01*
X100515887Y-61730330D01*
X100616262Y-62104936D01*
X100755244Y-62466994D01*
X100931310Y-62812543D01*
X101142523Y-63137783D01*
X101142525Y-63137785D01*
X101386586Y-63439176D01*
X101386593Y-63439184D01*
X101660815Y-63713406D01*
X101660823Y-63713413D01*
X101962214Y-63957474D01*
X101962216Y-63957476D01*
X102287456Y-64168689D01*
X102633005Y-64344755D01*
X102995063Y-64483737D01*
X103369669Y-64584112D01*
X103369676Y-64584113D01*
X103752712Y-64644780D01*
X103889999Y-64651975D01*
X103890000Y-64651974D01*
X103890000Y-62679415D01*
X103909685Y-62612376D01*
X103962489Y-62566621D01*
X104023728Y-62555797D01*
X104036644Y-62556813D01*
X104077128Y-62560000D01*
X104077131Y-62560000D01*
X104202872Y-62560000D01*
X104243355Y-62556813D01*
X104256271Y-62555797D01*
X104324648Y-62570161D01*
X104374405Y-62619212D01*
X104390000Y-62679415D01*
X104390000Y-64651975D01*
X104527287Y-64644780D01*
X104910323Y-64584113D01*
X104910330Y-64584112D01*
X105284936Y-64483737D01*
X105646994Y-64344755D01*
X105992543Y-64168689D01*
X106317783Y-63957476D01*
X106317785Y-63957474D01*
X106619176Y-63713413D01*
X106619184Y-63713406D01*
X106893406Y-63439184D01*
X106893413Y-63439176D01*
X107137474Y-63137785D01*
X107137476Y-63137783D01*
X107348689Y-62812543D01*
X107524755Y-62466994D01*
X107663737Y-62104936D01*
X107705725Y-61948235D01*
X107742090Y-61888574D01*
X107804937Y-61858045D01*
X107874312Y-61866340D01*
X107928190Y-61910825D01*
X107949465Y-61977377D01*
X107949500Y-61980328D01*
X107949500Y-67307735D01*
X107949337Y-67312220D01*
X107941762Y-67416338D01*
X107938058Y-67467257D01*
X107921538Y-67684789D01*
X107920847Y-67690443D01*
X107890375Y-67870485D01*
X107855896Y-68063056D01*
X107854739Y-68068232D01*
X107806117Y-68249043D01*
X107753500Y-68433037D01*
X107751964Y-68437702D01*
X107685693Y-68614984D01*
X107615334Y-68791184D01*
X107613507Y-68795315D01*
X107530222Y-68966519D01*
X107442740Y-69134028D01*
X107440710Y-69137618D01*
X107341167Y-69300782D01*
X107237377Y-69458284D01*
X107235231Y-69461337D01*
X107120354Y-69614717D01*
X107001187Y-69760871D01*
X106999008Y-69763401D01*
X106870873Y-69904332D01*
X106868840Y-69906465D01*
X106736465Y-70038840D01*
X106734332Y-70040873D01*
X106593401Y-70169008D01*
X106590871Y-70171187D01*
X106444717Y-70290354D01*
X106291337Y-70405231D01*
X106288284Y-70407377D01*
X106130782Y-70511167D01*
X105967618Y-70610710D01*
X105964028Y-70612740D01*
X105796519Y-70700222D01*
X105625315Y-70783507D01*
X105621184Y-70785334D01*
X105444984Y-70855693D01*
X105267702Y-70921964D01*
X105263037Y-70923500D01*
X105079043Y-70976117D01*
X104898232Y-71024739D01*
X104893056Y-71025896D01*
X104700485Y-71060375D01*
X104520443Y-71090847D01*
X104514789Y-71091538D01*
X104297257Y-71108058D01*
X104142236Y-71119336D01*
X104137736Y-71119500D01*
X29258601Y-71119500D01*
X29253020Y-71117861D01*
X29211467Y-71119443D01*
X29208500Y-71119485D01*
X29044964Y-71117879D01*
X28851092Y-71115387D01*
X28845279Y-71115039D01*
X28666996Y-71095934D01*
X28486363Y-71074912D01*
X28480985Y-71074045D01*
X28302898Y-71037257D01*
X28127539Y-70998253D01*
X28122654Y-70996955D01*
X27947806Y-70942742D01*
X27778197Y-70886183D01*
X27773802Y-70884530D01*
X27604390Y-70813382D01*
X27533358Y-70781245D01*
X27441792Y-70739818D01*
X27437947Y-70737915D01*
X27275769Y-70650460D01*
X27121716Y-70560635D01*
X27118374Y-70558541D01*
X26965141Y-70455609D01*
X26821134Y-70350416D01*
X26818314Y-70348229D01*
X26676617Y-70231650D01*
X26674482Y-70229810D01*
X26543029Y-70111245D01*
X26540714Y-70109046D01*
X26410952Y-69979284D01*
X26408753Y-69976969D01*
X26290188Y-69845516D01*
X26288361Y-69843396D01*
X26171766Y-69701681D01*
X26169592Y-69698877D01*
X26064390Y-69554858D01*
X26028517Y-69501454D01*
X25961451Y-69401615D01*
X25959372Y-69398297D01*
X25869543Y-69244236D01*
X25782072Y-69082029D01*
X25780192Y-69078231D01*
X25706613Y-68915599D01*
X25654362Y-68791184D01*
X25635464Y-68746187D01*
X25633815Y-68741800D01*
X25577264Y-68572216D01*
X25523040Y-68397335D01*
X25521751Y-68392482D01*
X25482736Y-68217072D01*
X25445950Y-68038999D01*
X25445088Y-68033652D01*
X25424070Y-67853049D01*
X25404959Y-67674719D01*
X25404611Y-67668906D01*
X25402120Y-67475035D01*
X25402044Y-67467257D01*
X25400514Y-67311476D01*
X25400556Y-67308531D01*
X25401776Y-67276495D01*
X25400500Y-67261398D01*
X25400500Y-61980328D01*
X25420185Y-61913289D01*
X25472989Y-61867534D01*
X25542147Y-61857590D01*
X25605703Y-61886615D01*
X25643477Y-61945393D01*
X25644275Y-61948235D01*
X25686262Y-62104936D01*
X25825244Y-62466994D01*
X26001310Y-62812543D01*
X26212531Y-63137793D01*
X26421095Y-63395350D01*
X26421096Y-63395350D01*
X27817413Y-61999032D01*
X27878736Y-61965547D01*
X27948427Y-61970531D01*
X27999381Y-62006179D01*
X28075130Y-62094870D01*
X28138855Y-62149296D01*
X28163816Y-62170615D01*
X28202009Y-62229122D01*
X28202507Y-62298990D01*
X28170965Y-62352586D01*
X26774648Y-63748903D01*
X26774649Y-63748904D01*
X27032206Y-63957468D01*
X27357456Y-64168689D01*
X27703005Y-64344755D01*
X28065063Y-64483737D01*
X28439669Y-64584112D01*
X28439676Y-64584113D01*
X28822712Y-64644780D01*
X29209999Y-64665078D01*
X29210001Y-64665078D01*
X29597287Y-64644780D01*
X29980323Y-64584113D01*
X29980330Y-64584112D01*
X30354936Y-64483737D01*
X30716994Y-64344755D01*
X31062543Y-64168689D01*
X31387783Y-63957476D01*
X31387785Y-63957475D01*
X31645349Y-63748902D01*
X30249033Y-62352586D01*
X30215548Y-62291263D01*
X30220532Y-62221571D01*
X30256180Y-62170617D01*
X30344870Y-62094870D01*
X30420617Y-62006180D01*
X30479121Y-61967990D01*
X30548989Y-61967490D01*
X30602586Y-61999033D01*
X31998902Y-63395349D01*
X32033706Y-63352370D01*
X42575587Y-63352370D01*
X42605217Y-63621654D01*
X42673738Y-63883752D01*
X42779690Y-64133079D01*
X42779689Y-64133079D01*
X42920813Y-64364318D01*
X42920817Y-64364323D01*
X43094112Y-64572561D01*
X43278504Y-64737775D01*
X43295875Y-64753340D01*
X43521812Y-64902818D01*
X43521815Y-64902819D01*
X43521816Y-64902820D01*
X43767097Y-65017804D01*
X43767099Y-65017804D01*
X43767104Y-65017807D01*
X44026526Y-65095855D01*
X44294546Y-65135300D01*
X44294552Y-65135300D01*
X44497637Y-65135300D01*
X44549141Y-65131529D01*
X44700185Y-65120475D01*
X44810709Y-65095855D01*
X44964604Y-65061574D01*
X44964606Y-65061573D01*
X44964611Y-65061572D01*
X45217643Y-64964795D01*
X45453888Y-64832208D01*
X45668310Y-64666637D01*
X45856340Y-64471609D01*
X46013970Y-64251283D01*
X46074743Y-64133079D01*
X46137833Y-64010368D01*
X46137835Y-64010362D01*
X46137840Y-64010353D01*
X46225311Y-63753956D01*
X46274518Y-63487555D01*
X46279458Y-63352370D01*
X54005587Y-63352370D01*
X54035217Y-63621654D01*
X54103738Y-63883752D01*
X54209690Y-64133079D01*
X54209689Y-64133079D01*
X54350813Y-64364318D01*
X54350817Y-64364323D01*
X54524112Y-64572561D01*
X54708504Y-64737775D01*
X54725875Y-64753340D01*
X54951812Y-64902818D01*
X54951815Y-64902819D01*
X54951816Y-64902820D01*
X55197097Y-65017804D01*
X55197099Y-65017804D01*
X55197104Y-65017807D01*
X55456526Y-65095855D01*
X55724546Y-65135300D01*
X55724552Y-65135300D01*
X55927637Y-65135300D01*
X55979141Y-65131529D01*
X56130185Y-65120475D01*
X56240709Y-65095855D01*
X56394604Y-65061574D01*
X56394606Y-65061573D01*
X56394611Y-65061572D01*
X56647643Y-64964795D01*
X56883888Y-64832208D01*
X57098310Y-64666637D01*
X57286340Y-64471609D01*
X57443970Y-64251283D01*
X57504743Y-64133079D01*
X57567833Y-64010368D01*
X57567835Y-64010362D01*
X57567840Y-64010353D01*
X57655311Y-63753956D01*
X57704518Y-63487555D01*
X57709458Y-63352370D01*
X59375487Y-63352370D01*
X59405117Y-63621654D01*
X59473638Y-63883752D01*
X59579590Y-64133079D01*
X59579589Y-64133079D01*
X59720713Y-64364318D01*
X59720717Y-64364323D01*
X59894012Y-64572561D01*
X60078404Y-64737775D01*
X60095775Y-64753340D01*
X60321712Y-64902818D01*
X60321715Y-64902819D01*
X60321716Y-64902820D01*
X60566997Y-65017804D01*
X60566999Y-65017804D01*
X60567004Y-65017807D01*
X60826426Y-65095855D01*
X61094446Y-65135300D01*
X61094452Y-65135300D01*
X61297537Y-65135300D01*
X61349041Y-65131529D01*
X61500085Y-65120475D01*
X61610609Y-65095855D01*
X61764504Y-65061574D01*
X61764506Y-65061573D01*
X61764511Y-65061572D01*
X62017543Y-64964795D01*
X62253788Y-64832208D01*
X62468210Y-64666637D01*
X62656240Y-64471609D01*
X62813870Y-64251283D01*
X62874643Y-64133079D01*
X62937733Y-64010368D01*
X62937735Y-64010362D01*
X62937740Y-64010353D01*
X63025211Y-63753956D01*
X63074418Y-63487555D01*
X63079358Y-63352370D01*
X70805487Y-63352370D01*
X70835117Y-63621654D01*
X70903638Y-63883752D01*
X71009590Y-64133079D01*
X71009589Y-64133079D01*
X71150713Y-64364318D01*
X71150717Y-64364323D01*
X71324012Y-64572561D01*
X71508404Y-64737775D01*
X71525775Y-64753340D01*
X71751712Y-64902818D01*
X71751715Y-64902819D01*
X71751716Y-64902820D01*
X71996997Y-65017804D01*
X71996999Y-65017804D01*
X71997004Y-65017807D01*
X72256426Y-65095855D01*
X72524446Y-65135300D01*
X72524452Y-65135300D01*
X72727537Y-65135300D01*
X72779041Y-65131529D01*
X72930085Y-65120475D01*
X73040609Y-65095855D01*
X73194504Y-65061574D01*
X73194506Y-65061573D01*
X73194511Y-65061572D01*
X73447543Y-64964795D01*
X73683788Y-64832208D01*
X73898210Y-64666637D01*
X74086240Y-64471609D01*
X74243870Y-64251283D01*
X74304643Y-64133079D01*
X74367733Y-64010368D01*
X74367735Y-64010362D01*
X74367740Y-64010353D01*
X74455211Y-63753956D01*
X74504418Y-63487555D01*
X74509358Y-63352370D01*
X76145487Y-63352370D01*
X76175117Y-63621654D01*
X76243638Y-63883752D01*
X76349590Y-64133079D01*
X76349589Y-64133079D01*
X76490713Y-64364318D01*
X76490717Y-64364323D01*
X76664012Y-64572561D01*
X76848404Y-64737775D01*
X76865775Y-64753340D01*
X77091712Y-64902818D01*
X77091715Y-64902819D01*
X77091716Y-64902820D01*
X77336997Y-65017804D01*
X77336999Y-65017804D01*
X77337004Y-65017807D01*
X77596426Y-65095855D01*
X77864446Y-65135300D01*
X77864452Y-65135300D01*
X78067537Y-65135300D01*
X78119041Y-65131529D01*
X78270085Y-65120475D01*
X78380609Y-65095855D01*
X78534504Y-65061574D01*
X78534506Y-65061573D01*
X78534511Y-65061572D01*
X78787543Y-64964795D01*
X79023788Y-64832208D01*
X79238210Y-64666637D01*
X79426240Y-64471609D01*
X79583870Y-64251283D01*
X79644643Y-64133079D01*
X79707733Y-64010368D01*
X79707735Y-64010362D01*
X79707740Y-64010353D01*
X79795211Y-63753956D01*
X79844418Y-63487555D01*
X79849358Y-63352370D01*
X87575487Y-63352370D01*
X87605117Y-63621654D01*
X87673638Y-63883752D01*
X87779590Y-64133079D01*
X87779589Y-64133079D01*
X87920713Y-64364318D01*
X87920717Y-64364323D01*
X88094012Y-64572561D01*
X88278404Y-64737775D01*
X88295775Y-64753340D01*
X88521712Y-64902818D01*
X88521715Y-64902819D01*
X88521716Y-64902820D01*
X88766997Y-65017804D01*
X88766999Y-65017804D01*
X88767004Y-65017807D01*
X89026426Y-65095855D01*
X89294446Y-65135300D01*
X89294452Y-65135300D01*
X89497537Y-65135300D01*
X89549041Y-65131529D01*
X89700085Y-65120475D01*
X89810609Y-65095855D01*
X89964504Y-65061574D01*
X89964506Y-65061573D01*
X89964511Y-65061572D01*
X90217543Y-64964795D01*
X90453788Y-64832208D01*
X90668210Y-64666637D01*
X90856240Y-64471609D01*
X91013870Y-64251283D01*
X91074643Y-64133079D01*
X91137733Y-64010368D01*
X91137735Y-64010362D01*
X91137740Y-64010353D01*
X91225211Y-63753956D01*
X91274418Y-63487555D01*
X91284312Y-63216828D01*
X91254683Y-62947546D01*
X91186161Y-62685447D01*
X91080209Y-62436120D01*
X91080210Y-62436120D01*
X90939086Y-62204881D01*
X90939082Y-62204876D01*
X90939081Y-62204874D01*
X90765789Y-61996641D01*
X90765787Y-61996638D01*
X90564025Y-61815860D01*
X90434735Y-61730323D01*
X90338088Y-61666382D01*
X90338086Y-61666381D01*
X90338083Y-61666379D01*
X90092802Y-61551395D01*
X90092799Y-61551394D01*
X90092796Y-61551393D01*
X89833374Y-61473345D01*
X89565354Y-61433900D01*
X89362268Y-61433900D01*
X89362263Y-61433900D01*
X89159715Y-61448725D01*
X89159701Y-61448727D01*
X88895295Y-61507625D01*
X88895288Y-61507628D01*
X88642254Y-61604406D01*
X88406015Y-61736990D01*
X88406013Y-61736991D01*
X88406012Y-61736992D01*
X88191590Y-61902563D01*
X88191587Y-61902565D01*
X88191583Y-61902569D01*
X88191582Y-61902570D01*
X88003563Y-62097587D01*
X88003561Y-62097589D01*
X87845931Y-62317915D01*
X87845928Y-62317919D01*
X87722066Y-62558831D01*
X87722059Y-62558849D01*
X87634591Y-62815234D01*
X87634588Y-62815248D01*
X87585381Y-63081647D01*
X87585381Y-63081649D01*
X87575487Y-63352370D01*
X79849358Y-63352370D01*
X79854312Y-63216828D01*
X79824683Y-62947546D01*
X79756161Y-62685447D01*
X79650209Y-62436120D01*
X79650210Y-62436120D01*
X79509086Y-62204881D01*
X79509082Y-62204876D01*
X79509081Y-62204874D01*
X79335789Y-61996641D01*
X79335787Y-61996638D01*
X79134025Y-61815860D01*
X79004735Y-61730323D01*
X78908088Y-61666382D01*
X78908086Y-61666381D01*
X78908083Y-61666379D01*
X78662802Y-61551395D01*
X78662799Y-61551394D01*
X78662796Y-61551393D01*
X78403374Y-61473345D01*
X78135354Y-61433900D01*
X77932268Y-61433900D01*
X77932263Y-61433900D01*
X77729715Y-61448725D01*
X77729701Y-61448727D01*
X77465295Y-61507625D01*
X77465288Y-61507628D01*
X77212254Y-61604406D01*
X76976015Y-61736990D01*
X76976013Y-61736991D01*
X76976012Y-61736992D01*
X76761590Y-61902563D01*
X76761587Y-61902565D01*
X76761583Y-61902569D01*
X76761582Y-61902570D01*
X76573563Y-62097587D01*
X76573561Y-62097589D01*
X76415931Y-62317915D01*
X76415928Y-62317919D01*
X76292066Y-62558831D01*
X76292059Y-62558849D01*
X76204591Y-62815234D01*
X76204588Y-62815248D01*
X76155381Y-63081647D01*
X76155381Y-63081649D01*
X76145487Y-63352370D01*
X74509358Y-63352370D01*
X74514312Y-63216828D01*
X74484683Y-62947546D01*
X74416161Y-62685447D01*
X74310209Y-62436120D01*
X74310210Y-62436120D01*
X74169086Y-62204881D01*
X74169082Y-62204876D01*
X74169081Y-62204874D01*
X73995789Y-61996641D01*
X73995787Y-61996638D01*
X73794025Y-61815860D01*
X73664735Y-61730323D01*
X73568088Y-61666382D01*
X73568086Y-61666381D01*
X73568083Y-61666379D01*
X73322802Y-61551395D01*
X73322799Y-61551394D01*
X73322796Y-61551393D01*
X73063374Y-61473345D01*
X72795354Y-61433900D01*
X72592268Y-61433900D01*
X72592263Y-61433900D01*
X72389715Y-61448725D01*
X72389701Y-61448727D01*
X72125295Y-61507625D01*
X72125288Y-61507628D01*
X71872254Y-61604406D01*
X71636015Y-61736990D01*
X71636013Y-61736991D01*
X71636012Y-61736992D01*
X71421590Y-61902563D01*
X71421587Y-61902565D01*
X71421583Y-61902569D01*
X71421582Y-61902570D01*
X71233563Y-62097587D01*
X71233561Y-62097589D01*
X71075931Y-62317915D01*
X71075928Y-62317919D01*
X70952066Y-62558831D01*
X70952059Y-62558849D01*
X70864591Y-62815234D01*
X70864588Y-62815248D01*
X70815381Y-63081647D01*
X70815381Y-63081649D01*
X70805487Y-63352370D01*
X63079358Y-63352370D01*
X63084312Y-63216828D01*
X63054683Y-62947546D01*
X62986161Y-62685447D01*
X62880209Y-62436120D01*
X62880210Y-62436120D01*
X62739086Y-62204881D01*
X62739082Y-62204876D01*
X62739081Y-62204874D01*
X62565789Y-61996641D01*
X62565787Y-61996638D01*
X62364025Y-61815860D01*
X62234735Y-61730323D01*
X62138088Y-61666382D01*
X62138086Y-61666381D01*
X62138083Y-61666379D01*
X61892802Y-61551395D01*
X61892799Y-61551394D01*
X61892796Y-61551393D01*
X61633374Y-61473345D01*
X61365354Y-61433900D01*
X61162268Y-61433900D01*
X61162263Y-61433900D01*
X60959715Y-61448725D01*
X60959701Y-61448727D01*
X60695295Y-61507625D01*
X60695288Y-61507628D01*
X60442254Y-61604406D01*
X60206015Y-61736990D01*
X60206013Y-61736991D01*
X60206012Y-61736992D01*
X59991590Y-61902563D01*
X59991587Y-61902565D01*
X59991583Y-61902569D01*
X59991582Y-61902570D01*
X59803563Y-62097587D01*
X59803561Y-62097589D01*
X59645931Y-62317915D01*
X59645928Y-62317919D01*
X59522066Y-62558831D01*
X59522059Y-62558849D01*
X59434591Y-62815234D01*
X59434588Y-62815248D01*
X59385381Y-63081647D01*
X59385381Y-63081649D01*
X59375487Y-63352370D01*
X57709458Y-63352370D01*
X57714412Y-63216828D01*
X57684783Y-62947546D01*
X57616261Y-62685447D01*
X57510309Y-62436120D01*
X57510310Y-62436120D01*
X57369186Y-62204881D01*
X57369182Y-62204876D01*
X57369181Y-62204874D01*
X57195889Y-61996641D01*
X57195887Y-61996638D01*
X56994125Y-61815860D01*
X56864835Y-61730323D01*
X56768188Y-61666382D01*
X56768186Y-61666381D01*
X56768183Y-61666379D01*
X56522902Y-61551395D01*
X56522899Y-61551394D01*
X56522896Y-61551393D01*
X56263474Y-61473345D01*
X55995454Y-61433900D01*
X55792368Y-61433900D01*
X55792363Y-61433900D01*
X55589815Y-61448725D01*
X55589801Y-61448727D01*
X55325395Y-61507625D01*
X55325388Y-61507628D01*
X55072354Y-61604406D01*
X54836115Y-61736990D01*
X54836113Y-61736991D01*
X54836112Y-61736992D01*
X54621690Y-61902563D01*
X54621687Y-61902565D01*
X54621683Y-61902569D01*
X54621682Y-61902570D01*
X54433663Y-62097587D01*
X54433661Y-62097589D01*
X54276031Y-62317915D01*
X54276028Y-62317919D01*
X54152166Y-62558831D01*
X54152159Y-62558849D01*
X54064691Y-62815234D01*
X54064688Y-62815248D01*
X54015481Y-63081647D01*
X54015481Y-63081649D01*
X54005587Y-63352370D01*
X46279458Y-63352370D01*
X46284412Y-63216828D01*
X46254783Y-62947546D01*
X46186261Y-62685447D01*
X46080309Y-62436120D01*
X46080310Y-62436120D01*
X45939186Y-62204881D01*
X45939182Y-62204876D01*
X45939181Y-62204874D01*
X45765889Y-61996641D01*
X45765887Y-61996638D01*
X45564125Y-61815860D01*
X45434835Y-61730323D01*
X45338188Y-61666382D01*
X45338186Y-61666381D01*
X45338183Y-61666379D01*
X45092902Y-61551395D01*
X45092899Y-61551394D01*
X45092896Y-61551393D01*
X44833474Y-61473345D01*
X44565454Y-61433900D01*
X44362368Y-61433900D01*
X44362363Y-61433900D01*
X44159815Y-61448725D01*
X44159801Y-61448727D01*
X43895395Y-61507625D01*
X43895388Y-61507628D01*
X43642354Y-61604406D01*
X43406115Y-61736990D01*
X43406113Y-61736991D01*
X43406112Y-61736992D01*
X43191690Y-61902563D01*
X43191687Y-61902565D01*
X43191683Y-61902569D01*
X43191682Y-61902570D01*
X43003663Y-62097587D01*
X43003661Y-62097589D01*
X42846031Y-62317915D01*
X42846028Y-62317919D01*
X42722166Y-62558831D01*
X42722159Y-62558849D01*
X42634691Y-62815234D01*
X42634688Y-62815248D01*
X42585481Y-63081647D01*
X42585481Y-63081649D01*
X42575587Y-63352370D01*
X32033706Y-63352370D01*
X32207475Y-63137785D01*
X32207476Y-63137783D01*
X32418689Y-62812543D01*
X32594755Y-62466994D01*
X32733737Y-62104936D01*
X32834112Y-61730330D01*
X32834113Y-61730323D01*
X32894780Y-61347287D01*
X32915078Y-60960000D01*
X32915078Y-60959999D01*
X32894780Y-60572712D01*
X32834113Y-60189676D01*
X32834112Y-60189669D01*
X32733737Y-59815063D01*
X32594755Y-59453005D01*
X32418689Y-59107456D01*
X32207468Y-58782206D01*
X31998904Y-58524649D01*
X31998903Y-58524648D01*
X30602586Y-59920965D01*
X30541263Y-59954450D01*
X30471571Y-59949466D01*
X30420615Y-59913816D01*
X30399296Y-59888855D01*
X30344870Y-59825130D01*
X30256179Y-59749381D01*
X30217989Y-59690878D01*
X30217489Y-59621010D01*
X30249032Y-59567413D01*
X31645350Y-58171096D01*
X31645350Y-58171095D01*
X31387793Y-57962531D01*
X31062543Y-57751310D01*
X30716994Y-57575244D01*
X30354936Y-57436262D01*
X29980330Y-57335887D01*
X29980323Y-57335886D01*
X29597287Y-57275219D01*
X29210001Y-57254922D01*
X29209999Y-57254922D01*
X28822712Y-57275219D01*
X28439676Y-57335886D01*
X28439669Y-57335887D01*
X28065063Y-57436262D01*
X27703005Y-57575244D01*
X27357456Y-57751310D01*
X27032206Y-57962531D01*
X26774648Y-58171095D01*
X26774648Y-58171096D01*
X28170966Y-59567413D01*
X28204451Y-59628736D01*
X28199467Y-59698428D01*
X28163817Y-59749384D01*
X28075130Y-59825130D01*
X27999384Y-59913817D01*
X27940877Y-59952010D01*
X27871009Y-59952508D01*
X27817413Y-59920966D01*
X26421096Y-58524648D01*
X26421095Y-58524648D01*
X26212531Y-58782206D01*
X26001310Y-59107456D01*
X25825244Y-59453005D01*
X25686262Y-59815063D01*
X25644275Y-59971764D01*
X25607910Y-60031425D01*
X25545063Y-60061954D01*
X25475687Y-60053659D01*
X25421810Y-60009174D01*
X25400535Y-59942622D01*
X25400500Y-59939671D01*
X25400500Y-56934600D01*
X44495863Y-56934600D01*
X44516365Y-57155859D01*
X44516366Y-57155861D01*
X44577174Y-57369579D01*
X44577180Y-57369594D01*
X44676222Y-57568496D01*
X44810133Y-57745824D01*
X44974344Y-57895521D01*
X44974346Y-57895523D01*
X45163266Y-58012497D01*
X45163272Y-58012500D01*
X45192206Y-58023709D01*
X45370472Y-58092770D01*
X45588896Y-58133600D01*
X45588899Y-58133600D01*
X45811101Y-58133600D01*
X45811104Y-58133600D01*
X46029528Y-58092770D01*
X46236730Y-58012499D01*
X46425655Y-57895522D01*
X46589868Y-57745822D01*
X46723778Y-57568496D01*
X46822824Y-57369584D01*
X46850734Y-57271489D01*
X46888013Y-57212396D01*
X46951323Y-57182839D01*
X47020562Y-57192201D01*
X47073749Y-57237511D01*
X47089266Y-57271490D01*
X47117174Y-57369579D01*
X47117180Y-57369594D01*
X47216222Y-57568496D01*
X47350133Y-57745824D01*
X47514344Y-57895521D01*
X47514346Y-57895523D01*
X47703266Y-58012497D01*
X47703272Y-58012500D01*
X47732206Y-58023709D01*
X47910472Y-58092770D01*
X48128896Y-58133600D01*
X48128899Y-58133600D01*
X48351101Y-58133600D01*
X48351104Y-58133600D01*
X48569528Y-58092770D01*
X48776730Y-58012499D01*
X48965655Y-57895522D01*
X49129868Y-57745822D01*
X49263778Y-57568496D01*
X49362824Y-57369584D01*
X49390734Y-57271489D01*
X49428013Y-57212396D01*
X49491323Y-57182839D01*
X49560562Y-57192201D01*
X49613749Y-57237511D01*
X49629266Y-57271490D01*
X49657174Y-57369579D01*
X49657180Y-57369594D01*
X49756222Y-57568496D01*
X49890133Y-57745824D01*
X50054344Y-57895521D01*
X50054346Y-57895523D01*
X50243266Y-58012497D01*
X50243272Y-58012500D01*
X50272206Y-58023709D01*
X50450472Y-58092770D01*
X50668896Y-58133600D01*
X50668899Y-58133600D01*
X50891101Y-58133600D01*
X50891104Y-58133600D01*
X51109528Y-58092770D01*
X51316730Y-58012499D01*
X51505655Y-57895522D01*
X51669868Y-57745822D01*
X51803778Y-57568496D01*
X51902824Y-57369584D01*
X51930994Y-57270575D01*
X51968273Y-57211483D01*
X52031583Y-57181925D01*
X52100822Y-57191287D01*
X52154009Y-57236597D01*
X52169526Y-57270575D01*
X52197644Y-57369400D01*
X52197649Y-57369413D01*
X52296646Y-57568226D01*
X52296651Y-57568234D01*
X52312209Y-57588835D01*
X52748727Y-57152318D01*
X52810050Y-57118833D01*
X52879741Y-57123817D01*
X52933355Y-57162686D01*
X52993026Y-57237511D01*
X53014248Y-57264122D01*
X53086682Y-57313506D01*
X53130983Y-57367533D01*
X53139043Y-57436937D01*
X53108300Y-57499680D01*
X53104511Y-57503640D01*
X52667760Y-57940390D01*
X52667761Y-57940391D01*
X52783488Y-58012045D01*
X52783495Y-58012049D01*
X52990607Y-58092284D01*
X53208945Y-58133100D01*
X53431055Y-58133100D01*
X53649392Y-58092284D01*
X53856503Y-58012050D01*
X53856509Y-58012047D01*
X53972237Y-57940391D01*
X53972238Y-57940390D01*
X53537937Y-57506090D01*
X53504452Y-57444767D01*
X53509436Y-57375076D01*
X53551307Y-57319142D01*
X53571814Y-57306690D01*
X53573224Y-57306012D01*
X53671450Y-57214872D01*
X53694006Y-57175802D01*
X53744571Y-57127587D01*
X53813178Y-57114363D01*
X53878043Y-57140330D01*
X53889074Y-57150121D01*
X54327788Y-57588835D01*
X54327789Y-57588835D01*
X54343349Y-57568232D01*
X54343350Y-57568229D01*
X54442350Y-57369413D01*
X54442356Y-57369398D01*
X54503139Y-57155768D01*
X54503140Y-57155766D01*
X54523634Y-56934600D01*
X61295763Y-56934600D01*
X61316265Y-57155859D01*
X61316266Y-57155861D01*
X61377074Y-57369579D01*
X61377080Y-57369594D01*
X61476122Y-57568496D01*
X61610033Y-57745824D01*
X61774244Y-57895521D01*
X61774246Y-57895523D01*
X61963166Y-58012497D01*
X61963172Y-58012500D01*
X61992106Y-58023709D01*
X62170372Y-58092770D01*
X62388796Y-58133600D01*
X62388799Y-58133600D01*
X62611001Y-58133600D01*
X62611004Y-58133600D01*
X62829428Y-58092770D01*
X63036630Y-58012499D01*
X63225555Y-57895522D01*
X63389768Y-57745822D01*
X63523678Y-57568496D01*
X63622724Y-57369584D01*
X63650634Y-57271489D01*
X63687913Y-57212396D01*
X63751223Y-57182839D01*
X63820462Y-57192201D01*
X63873649Y-57237511D01*
X63889166Y-57271490D01*
X63917074Y-57369579D01*
X63917080Y-57369594D01*
X64016122Y-57568496D01*
X64150033Y-57745824D01*
X64314244Y-57895521D01*
X64314246Y-57895523D01*
X64503166Y-58012497D01*
X64503172Y-58012500D01*
X64532106Y-58023709D01*
X64710372Y-58092770D01*
X64928796Y-58133600D01*
X64928799Y-58133600D01*
X65151001Y-58133600D01*
X65151004Y-58133600D01*
X65369428Y-58092770D01*
X65576630Y-58012499D01*
X65765555Y-57895522D01*
X65929768Y-57745822D01*
X66063678Y-57568496D01*
X66162724Y-57369584D01*
X66190634Y-57271489D01*
X66227913Y-57212396D01*
X66291223Y-57182839D01*
X66360462Y-57192201D01*
X66413649Y-57237511D01*
X66429166Y-57271490D01*
X66457074Y-57369579D01*
X66457080Y-57369594D01*
X66556122Y-57568496D01*
X66690033Y-57745824D01*
X66854244Y-57895521D01*
X66854246Y-57895523D01*
X67043166Y-58012497D01*
X67043172Y-58012500D01*
X67072106Y-58023709D01*
X67250372Y-58092770D01*
X67468796Y-58133600D01*
X67468799Y-58133600D01*
X67691001Y-58133600D01*
X67691004Y-58133600D01*
X67909428Y-58092770D01*
X68116630Y-58012499D01*
X68305555Y-57895522D01*
X68469768Y-57745822D01*
X68603678Y-57568496D01*
X68702724Y-57369584D01*
X68730894Y-57270575D01*
X68768173Y-57211483D01*
X68831483Y-57181925D01*
X68900722Y-57191287D01*
X68953909Y-57236597D01*
X68969426Y-57270575D01*
X68997544Y-57369400D01*
X68997549Y-57369413D01*
X69096546Y-57568226D01*
X69096551Y-57568234D01*
X69112109Y-57588835D01*
X69548627Y-57152318D01*
X69609950Y-57118833D01*
X69679641Y-57123817D01*
X69733255Y-57162686D01*
X69792926Y-57237511D01*
X69814148Y-57264122D01*
X69886582Y-57313506D01*
X69930883Y-57367533D01*
X69938943Y-57436937D01*
X69908200Y-57499680D01*
X69904411Y-57503640D01*
X69467660Y-57940390D01*
X69467661Y-57940391D01*
X69583388Y-58012045D01*
X69583395Y-58012049D01*
X69790507Y-58092284D01*
X70008845Y-58133100D01*
X70230955Y-58133100D01*
X70449292Y-58092284D01*
X70656403Y-58012050D01*
X70656409Y-58012047D01*
X70772137Y-57940391D01*
X70772138Y-57940390D01*
X70337837Y-57506090D01*
X70304352Y-57444767D01*
X70309336Y-57375076D01*
X70351207Y-57319142D01*
X70371714Y-57306690D01*
X70373124Y-57306012D01*
X70471350Y-57214872D01*
X70493906Y-57175802D01*
X70544471Y-57127587D01*
X70613078Y-57114363D01*
X70677943Y-57140330D01*
X70688974Y-57150121D01*
X71127688Y-57588835D01*
X71127689Y-57588835D01*
X71143249Y-57568232D01*
X71143250Y-57568229D01*
X71242250Y-57369413D01*
X71242256Y-57369398D01*
X71303039Y-57155768D01*
X71303040Y-57155766D01*
X71323534Y-56934600D01*
X78065763Y-56934600D01*
X78086265Y-57155859D01*
X78086266Y-57155861D01*
X78147074Y-57369579D01*
X78147080Y-57369594D01*
X78246122Y-57568496D01*
X78380033Y-57745824D01*
X78544244Y-57895521D01*
X78544246Y-57895523D01*
X78733166Y-58012497D01*
X78733172Y-58012500D01*
X78762106Y-58023709D01*
X78940372Y-58092770D01*
X79158796Y-58133600D01*
X79158799Y-58133600D01*
X79381001Y-58133600D01*
X79381004Y-58133600D01*
X79599428Y-58092770D01*
X79806630Y-58012499D01*
X79995555Y-57895522D01*
X80159768Y-57745822D01*
X80293678Y-57568496D01*
X80392724Y-57369584D01*
X80420634Y-57271489D01*
X80457913Y-57212396D01*
X80521223Y-57182839D01*
X80590462Y-57192201D01*
X80643649Y-57237511D01*
X80659166Y-57271490D01*
X80687074Y-57369579D01*
X80687080Y-57369594D01*
X80786122Y-57568496D01*
X80920033Y-57745824D01*
X81084244Y-57895521D01*
X81084246Y-57895523D01*
X81273166Y-58012497D01*
X81273172Y-58012500D01*
X81302106Y-58023709D01*
X81480372Y-58092770D01*
X81698796Y-58133600D01*
X81698799Y-58133600D01*
X81921001Y-58133600D01*
X81921004Y-58133600D01*
X82139428Y-58092770D01*
X82346630Y-58012499D01*
X82535555Y-57895522D01*
X82699768Y-57745822D01*
X82833678Y-57568496D01*
X82932724Y-57369584D01*
X82960634Y-57271489D01*
X82997913Y-57212396D01*
X83061223Y-57182839D01*
X83130462Y-57192201D01*
X83183649Y-57237511D01*
X83199166Y-57271490D01*
X83227074Y-57369579D01*
X83227080Y-57369594D01*
X83326122Y-57568496D01*
X83460033Y-57745824D01*
X83624244Y-57895521D01*
X83624246Y-57895523D01*
X83813166Y-58012497D01*
X83813172Y-58012500D01*
X83842106Y-58023709D01*
X84020372Y-58092770D01*
X84238796Y-58133600D01*
X84238799Y-58133600D01*
X84461001Y-58133600D01*
X84461004Y-58133600D01*
X84679428Y-58092770D01*
X84886630Y-58012499D01*
X85075555Y-57895522D01*
X85239768Y-57745822D01*
X85373678Y-57568496D01*
X85472724Y-57369584D01*
X85500894Y-57270575D01*
X85538173Y-57211483D01*
X85601483Y-57181925D01*
X85670722Y-57191287D01*
X85723909Y-57236597D01*
X85739426Y-57270575D01*
X85767544Y-57369400D01*
X85767549Y-57369413D01*
X85866546Y-57568226D01*
X85866551Y-57568234D01*
X85882109Y-57588835D01*
X86318627Y-57152318D01*
X86379950Y-57118833D01*
X86449641Y-57123817D01*
X86503255Y-57162686D01*
X86562926Y-57237511D01*
X86584148Y-57264122D01*
X86656582Y-57313506D01*
X86700883Y-57367533D01*
X86708943Y-57436937D01*
X86678200Y-57499680D01*
X86674411Y-57503640D01*
X86237660Y-57940390D01*
X86237661Y-57940391D01*
X86353388Y-58012045D01*
X86353395Y-58012049D01*
X86560507Y-58092284D01*
X86778845Y-58133100D01*
X87000955Y-58133100D01*
X87219292Y-58092284D01*
X87426403Y-58012050D01*
X87426409Y-58012047D01*
X87542137Y-57940391D01*
X87542138Y-57940390D01*
X87107837Y-57506090D01*
X87074352Y-57444767D01*
X87079336Y-57375076D01*
X87121207Y-57319142D01*
X87141714Y-57306690D01*
X87143124Y-57306012D01*
X87241350Y-57214872D01*
X87263906Y-57175802D01*
X87314471Y-57127587D01*
X87383078Y-57114363D01*
X87447943Y-57140330D01*
X87458974Y-57150121D01*
X87897688Y-57588835D01*
X87897689Y-57588835D01*
X87913249Y-57568232D01*
X87913250Y-57568229D01*
X88012250Y-57369413D01*
X88012256Y-57369398D01*
X88073039Y-57155768D01*
X88073040Y-57155766D01*
X88093534Y-56934600D01*
X88093534Y-56934599D01*
X88073040Y-56713433D01*
X88073039Y-56713431D01*
X88012256Y-56499801D01*
X88012250Y-56499786D01*
X87913251Y-56300970D01*
X87913249Y-56300967D01*
X87897688Y-56280362D01*
X87461171Y-56716880D01*
X87399848Y-56750365D01*
X87330156Y-56745381D01*
X87276543Y-56706512D01*
X87236901Y-56656803D01*
X87195652Y-56605078D01*
X87123214Y-56555690D01*
X87078914Y-56501664D01*
X87070855Y-56432261D01*
X87101598Y-56369518D01*
X87105387Y-56365558D01*
X87542138Y-55928808D01*
X87426403Y-55857150D01*
X87426404Y-55857150D01*
X87219292Y-55776915D01*
X87000955Y-55736100D01*
X86778845Y-55736100D01*
X86560507Y-55776915D01*
X86353397Y-55857149D01*
X86353394Y-55857151D01*
X86237660Y-55928808D01*
X86671962Y-56363109D01*
X86705447Y-56424432D01*
X86700463Y-56494123D01*
X86658592Y-56550057D01*
X86638089Y-56562507D01*
X86636678Y-56563186D01*
X86538450Y-56654327D01*
X86515893Y-56693398D01*
X86465325Y-56741613D01*
X86396718Y-56754835D01*
X86331853Y-56728867D01*
X86320825Y-56719078D01*
X85882110Y-56280362D01*
X85866551Y-56300967D01*
X85866546Y-56300974D01*
X85767549Y-56499786D01*
X85767544Y-56499799D01*
X85739426Y-56598624D01*
X85702146Y-56657717D01*
X85638837Y-56687274D01*
X85569597Y-56677912D01*
X85516411Y-56632602D01*
X85500894Y-56598623D01*
X85473307Y-56501664D01*
X85472724Y-56499616D01*
X85373678Y-56300704D01*
X85309430Y-56215626D01*
X85239766Y-56123375D01*
X85075555Y-55973678D01*
X85075553Y-55973676D01*
X84886633Y-55856702D01*
X84886627Y-55856699D01*
X84778980Y-55814997D01*
X84679428Y-55776430D01*
X84461004Y-55735600D01*
X84238796Y-55735600D01*
X84020372Y-55776430D01*
X83970595Y-55795713D01*
X83813172Y-55856699D01*
X83813166Y-55856702D01*
X83624246Y-55973676D01*
X83624244Y-55973678D01*
X83460033Y-56123375D01*
X83326122Y-56300703D01*
X83227080Y-56499605D01*
X83227074Y-56499620D01*
X83199166Y-56597709D01*
X83161887Y-56656803D01*
X83098577Y-56686360D01*
X83029338Y-56676998D01*
X82976151Y-56631688D01*
X82960634Y-56597709D01*
X82933307Y-56501664D01*
X82932724Y-56499616D01*
X82833678Y-56300704D01*
X82769430Y-56215626D01*
X82699766Y-56123375D01*
X82535555Y-55973678D01*
X82535553Y-55973676D01*
X82346633Y-55856702D01*
X82346627Y-55856699D01*
X82238980Y-55814997D01*
X82139428Y-55776430D01*
X81921004Y-55735600D01*
X81698796Y-55735600D01*
X81480372Y-55776430D01*
X81430595Y-55795713D01*
X81273172Y-55856699D01*
X81273166Y-55856702D01*
X81084246Y-55973676D01*
X81084244Y-55973678D01*
X80920033Y-56123375D01*
X80786122Y-56300703D01*
X80687080Y-56499605D01*
X80687074Y-56499620D01*
X80659166Y-56597709D01*
X80621887Y-56656803D01*
X80558577Y-56686360D01*
X80489338Y-56676998D01*
X80436151Y-56631688D01*
X80420634Y-56597709D01*
X80393307Y-56501664D01*
X80392724Y-56499616D01*
X80293678Y-56300704D01*
X80229430Y-56215626D01*
X80159766Y-56123375D01*
X79995555Y-55973678D01*
X79995553Y-55973676D01*
X79806633Y-55856702D01*
X79806627Y-55856699D01*
X79698980Y-55814997D01*
X79599428Y-55776430D01*
X79381004Y-55735600D01*
X79158796Y-55735600D01*
X78940372Y-55776430D01*
X78890595Y-55795713D01*
X78733172Y-55856699D01*
X78733166Y-55856702D01*
X78544246Y-55973676D01*
X78544244Y-55973678D01*
X78380033Y-56123375D01*
X78246122Y-56300703D01*
X78147080Y-56499605D01*
X78147074Y-56499620D01*
X78086266Y-56713338D01*
X78086265Y-56713340D01*
X78065763Y-56934599D01*
X78065763Y-56934600D01*
X71323534Y-56934600D01*
X71323534Y-56934599D01*
X71303040Y-56713433D01*
X71303039Y-56713431D01*
X71242256Y-56499801D01*
X71242250Y-56499786D01*
X71143251Y-56300970D01*
X71143249Y-56300967D01*
X71127688Y-56280362D01*
X70691171Y-56716880D01*
X70629848Y-56750365D01*
X70560156Y-56745381D01*
X70506543Y-56706512D01*
X70466901Y-56656803D01*
X70425652Y-56605078D01*
X70353214Y-56555690D01*
X70308914Y-56501664D01*
X70300855Y-56432261D01*
X70331598Y-56369518D01*
X70335387Y-56365558D01*
X70772138Y-55928808D01*
X70656403Y-55857150D01*
X70656404Y-55857150D01*
X70449292Y-55776915D01*
X70230955Y-55736100D01*
X70008845Y-55736100D01*
X69790507Y-55776915D01*
X69583397Y-55857149D01*
X69583394Y-55857151D01*
X69467660Y-55928808D01*
X69901962Y-56363109D01*
X69935447Y-56424432D01*
X69930463Y-56494123D01*
X69888592Y-56550057D01*
X69868089Y-56562507D01*
X69866678Y-56563186D01*
X69768450Y-56654327D01*
X69745893Y-56693398D01*
X69695325Y-56741613D01*
X69626718Y-56754835D01*
X69561853Y-56728867D01*
X69550825Y-56719078D01*
X69112110Y-56280362D01*
X69096551Y-56300967D01*
X69096546Y-56300974D01*
X68997549Y-56499786D01*
X68997544Y-56499799D01*
X68969426Y-56598624D01*
X68932146Y-56657717D01*
X68868837Y-56687274D01*
X68799597Y-56677912D01*
X68746411Y-56632602D01*
X68730894Y-56598623D01*
X68703307Y-56501664D01*
X68702724Y-56499616D01*
X68603678Y-56300704D01*
X68539430Y-56215626D01*
X68469766Y-56123375D01*
X68305555Y-55973678D01*
X68305553Y-55973676D01*
X68116633Y-55856702D01*
X68116627Y-55856699D01*
X68008980Y-55814997D01*
X67909428Y-55776430D01*
X67691004Y-55735600D01*
X67468796Y-55735600D01*
X67250372Y-55776430D01*
X67200595Y-55795713D01*
X67043172Y-55856699D01*
X67043166Y-55856702D01*
X66854246Y-55973676D01*
X66854244Y-55973678D01*
X66690033Y-56123375D01*
X66556122Y-56300703D01*
X66457080Y-56499605D01*
X66457074Y-56499620D01*
X66429166Y-56597709D01*
X66391887Y-56656803D01*
X66328577Y-56686360D01*
X66259338Y-56676998D01*
X66206151Y-56631688D01*
X66190634Y-56597709D01*
X66163307Y-56501664D01*
X66162724Y-56499616D01*
X66063678Y-56300704D01*
X65999430Y-56215626D01*
X65929766Y-56123375D01*
X65765555Y-55973678D01*
X65765553Y-55973676D01*
X65576633Y-55856702D01*
X65576627Y-55856699D01*
X65468980Y-55814997D01*
X65369428Y-55776430D01*
X65151004Y-55735600D01*
X64928796Y-55735600D01*
X64710372Y-55776430D01*
X64660595Y-55795713D01*
X64503172Y-55856699D01*
X64503166Y-55856702D01*
X64314246Y-55973676D01*
X64314244Y-55973678D01*
X64150033Y-56123375D01*
X64016122Y-56300703D01*
X63917080Y-56499605D01*
X63917074Y-56499620D01*
X63889166Y-56597709D01*
X63851887Y-56656803D01*
X63788577Y-56686360D01*
X63719338Y-56676998D01*
X63666151Y-56631688D01*
X63650634Y-56597709D01*
X63623307Y-56501664D01*
X63622724Y-56499616D01*
X63523678Y-56300704D01*
X63459430Y-56215626D01*
X63389766Y-56123375D01*
X63225555Y-55973678D01*
X63225553Y-55973676D01*
X63036633Y-55856702D01*
X63036627Y-55856699D01*
X62928980Y-55814997D01*
X62829428Y-55776430D01*
X62611004Y-55735600D01*
X62388796Y-55735600D01*
X62170372Y-55776430D01*
X62120595Y-55795713D01*
X61963172Y-55856699D01*
X61963166Y-55856702D01*
X61774246Y-55973676D01*
X61774244Y-55973678D01*
X61610033Y-56123375D01*
X61476122Y-56300703D01*
X61377080Y-56499605D01*
X61377074Y-56499620D01*
X61316266Y-56713338D01*
X61316265Y-56713340D01*
X61295763Y-56934599D01*
X61295763Y-56934600D01*
X54523634Y-56934600D01*
X54523634Y-56934599D01*
X54503140Y-56713433D01*
X54503139Y-56713431D01*
X54442356Y-56499801D01*
X54442350Y-56499786D01*
X54343351Y-56300970D01*
X54343349Y-56300967D01*
X54327788Y-56280362D01*
X53891271Y-56716880D01*
X53829948Y-56750365D01*
X53760256Y-56745381D01*
X53706643Y-56706512D01*
X53667001Y-56656803D01*
X53625752Y-56605078D01*
X53553314Y-56555690D01*
X53509014Y-56501664D01*
X53500955Y-56432261D01*
X53531698Y-56369518D01*
X53535487Y-56365558D01*
X53972238Y-55928808D01*
X53856503Y-55857150D01*
X53856504Y-55857150D01*
X53649392Y-55776915D01*
X53431055Y-55736100D01*
X53208945Y-55736100D01*
X52990607Y-55776915D01*
X52783497Y-55857149D01*
X52783494Y-55857151D01*
X52667760Y-55928808D01*
X53102062Y-56363109D01*
X53135547Y-56424432D01*
X53130563Y-56494123D01*
X53088692Y-56550057D01*
X53068189Y-56562507D01*
X53066778Y-56563186D01*
X52968550Y-56654327D01*
X52945993Y-56693398D01*
X52895425Y-56741613D01*
X52826818Y-56754835D01*
X52761953Y-56728867D01*
X52750925Y-56719078D01*
X52312210Y-56280362D01*
X52296651Y-56300967D01*
X52296646Y-56300974D01*
X52197649Y-56499786D01*
X52197644Y-56499799D01*
X52169526Y-56598624D01*
X52132246Y-56657717D01*
X52068937Y-56687274D01*
X51999697Y-56677912D01*
X51946511Y-56632602D01*
X51930994Y-56598623D01*
X51903407Y-56501664D01*
X51902824Y-56499616D01*
X51803778Y-56300704D01*
X51739530Y-56215626D01*
X51669866Y-56123375D01*
X51505655Y-55973678D01*
X51505653Y-55973676D01*
X51316733Y-55856702D01*
X51316727Y-55856699D01*
X51209080Y-55814997D01*
X51109528Y-55776430D01*
X50891104Y-55735600D01*
X50668896Y-55735600D01*
X50450472Y-55776430D01*
X50400695Y-55795713D01*
X50243272Y-55856699D01*
X50243266Y-55856702D01*
X50054346Y-55973676D01*
X50054344Y-55973678D01*
X49890133Y-56123375D01*
X49756222Y-56300703D01*
X49657180Y-56499605D01*
X49657174Y-56499620D01*
X49629266Y-56597709D01*
X49591987Y-56656803D01*
X49528677Y-56686360D01*
X49459438Y-56676998D01*
X49406251Y-56631688D01*
X49390734Y-56597709D01*
X49363407Y-56501664D01*
X49362824Y-56499616D01*
X49263778Y-56300704D01*
X49199530Y-56215626D01*
X49129866Y-56123375D01*
X48965655Y-55973678D01*
X48965653Y-55973676D01*
X48776733Y-55856702D01*
X48776727Y-55856699D01*
X48669080Y-55814997D01*
X48569528Y-55776430D01*
X48351104Y-55735600D01*
X48128896Y-55735600D01*
X47910472Y-55776430D01*
X47860695Y-55795713D01*
X47703272Y-55856699D01*
X47703266Y-55856702D01*
X47514346Y-55973676D01*
X47514344Y-55973678D01*
X47350133Y-56123375D01*
X47216222Y-56300703D01*
X47117180Y-56499605D01*
X47117174Y-56499620D01*
X47089266Y-56597709D01*
X47051987Y-56656803D01*
X46988677Y-56686360D01*
X46919438Y-56676998D01*
X46866251Y-56631688D01*
X46850734Y-56597709D01*
X46823407Y-56501664D01*
X46822824Y-56499616D01*
X46723778Y-56300704D01*
X46659530Y-56215626D01*
X46589866Y-56123375D01*
X46425655Y-55973678D01*
X46425653Y-55973676D01*
X46236733Y-55856702D01*
X46236727Y-55856699D01*
X46129080Y-55814997D01*
X46029528Y-55776430D01*
X45811104Y-55735600D01*
X45588896Y-55735600D01*
X45370472Y-55776430D01*
X45320695Y-55795713D01*
X45163272Y-55856699D01*
X45163266Y-55856702D01*
X44974346Y-55973676D01*
X44974344Y-55973678D01*
X44810133Y-56123375D01*
X44676222Y-56300703D01*
X44577180Y-56499605D01*
X44577174Y-56499620D01*
X44516366Y-56713338D01*
X44516365Y-56713340D01*
X44495863Y-56934599D01*
X44495863Y-56934600D01*
X25400500Y-56934600D01*
X25400500Y-52340006D01*
X27704700Y-52340006D01*
X27723864Y-52571297D01*
X27723866Y-52571308D01*
X27780842Y-52796300D01*
X27874075Y-53008848D01*
X28001018Y-53203150D01*
X28096167Y-53306510D01*
X28127089Y-53369164D01*
X28119228Y-53438590D01*
X28075081Y-53492746D01*
X28048271Y-53506674D01*
X27967911Y-53536646D01*
X27967906Y-53536649D01*
X27852812Y-53622809D01*
X27852809Y-53622812D01*
X27766649Y-53737906D01*
X27766645Y-53737913D01*
X27716403Y-53872620D01*
X27716401Y-53872627D01*
X27710000Y-53932155D01*
X27710000Y-54630000D01*
X28549997Y-54630000D01*
X28617036Y-54649685D01*
X28662791Y-54702489D01*
X28672735Y-54771647D01*
X28670888Y-54781592D01*
X28656189Y-54845992D01*
X28656189Y-54845993D01*
X28667021Y-54990532D01*
X28664920Y-54990689D01*
X28661405Y-55048139D01*
X28620110Y-55104499D01*
X28554899Y-55129587D01*
X28544784Y-55130000D01*
X27710000Y-55130000D01*
X27710000Y-55827844D01*
X27716401Y-55887372D01*
X27716403Y-55887379D01*
X27766645Y-56022086D01*
X27766649Y-56022093D01*
X27852809Y-56137187D01*
X27852812Y-56137190D01*
X27967906Y-56223350D01*
X27967913Y-56223354D01*
X28102620Y-56273596D01*
X28102627Y-56273598D01*
X28162155Y-56279999D01*
X28162172Y-56280000D01*
X28860000Y-56280000D01*
X28860000Y-55441821D01*
X28879685Y-55374782D01*
X28932489Y-55329027D01*
X29001647Y-55319083D01*
X29020547Y-55323329D01*
X29042173Y-55330000D01*
X29143723Y-55330000D01*
X29143724Y-55330000D01*
X29217519Y-55318877D01*
X29286742Y-55328350D01*
X29339857Y-55373744D01*
X29359997Y-55440648D01*
X29360000Y-55441492D01*
X29360000Y-56280000D01*
X30057828Y-56280000D01*
X30057844Y-56279999D01*
X30117372Y-56273598D01*
X30117379Y-56273596D01*
X30252086Y-56223354D01*
X30252093Y-56223350D01*
X30367187Y-56137190D01*
X30367190Y-56137187D01*
X30453350Y-56022093D01*
X30453354Y-56022086D01*
X30503596Y-55887379D01*
X30503598Y-55887372D01*
X30509999Y-55827844D01*
X30510000Y-55827827D01*
X30510000Y-55130000D01*
X29670003Y-55130000D01*
X29602964Y-55110315D01*
X29557209Y-55057511D01*
X29547265Y-54988353D01*
X29549112Y-54978408D01*
X29563810Y-54914007D01*
X29563810Y-54914006D01*
X29552979Y-54769468D01*
X29555079Y-54769310D01*
X29558595Y-54711861D01*
X29599890Y-54655501D01*
X29665101Y-54630413D01*
X29675216Y-54630000D01*
X30510000Y-54630000D01*
X30510000Y-54394600D01*
X45765863Y-54394600D01*
X45786365Y-54615859D01*
X45786366Y-54615861D01*
X45847174Y-54829579D01*
X45847180Y-54829594D01*
X45946222Y-55028496D01*
X46080133Y-55205824D01*
X46244344Y-55355521D01*
X46244346Y-55355523D01*
X46433266Y-55472497D01*
X46433272Y-55472500D01*
X46462206Y-55483709D01*
X46640472Y-55552770D01*
X46858896Y-55593600D01*
X46858899Y-55593600D01*
X47081101Y-55593600D01*
X47081104Y-55593600D01*
X47299528Y-55552770D01*
X47506730Y-55472499D01*
X47695655Y-55355522D01*
X47859868Y-55205822D01*
X47993778Y-55028496D01*
X48092824Y-54829584D01*
X48120734Y-54731489D01*
X48158013Y-54672396D01*
X48221323Y-54642839D01*
X48290562Y-54652201D01*
X48343749Y-54697511D01*
X48359266Y-54731490D01*
X48387174Y-54829579D01*
X48387180Y-54829594D01*
X48486222Y-55028496D01*
X48620133Y-55205824D01*
X48784344Y-55355521D01*
X48784346Y-55355523D01*
X48973266Y-55472497D01*
X48973272Y-55472500D01*
X49002206Y-55483709D01*
X49180472Y-55552770D01*
X49398896Y-55593600D01*
X49398899Y-55593600D01*
X49621101Y-55593600D01*
X49621104Y-55593600D01*
X49839528Y-55552770D01*
X50046730Y-55472499D01*
X50235655Y-55355522D01*
X50399868Y-55205822D01*
X50533778Y-55028496D01*
X50632824Y-54829584D01*
X50660734Y-54731489D01*
X50698013Y-54672396D01*
X50761323Y-54642839D01*
X50830562Y-54652201D01*
X50883749Y-54697511D01*
X50899266Y-54731490D01*
X50927174Y-54829579D01*
X50927180Y-54829594D01*
X51026222Y-55028496D01*
X51160133Y-55205824D01*
X51324344Y-55355521D01*
X51324346Y-55355523D01*
X51513266Y-55472497D01*
X51513272Y-55472500D01*
X51542206Y-55483709D01*
X51720472Y-55552770D01*
X51938896Y-55593600D01*
X51938899Y-55593600D01*
X52161101Y-55593600D01*
X52161104Y-55593600D01*
X52379528Y-55552770D01*
X52586730Y-55472499D01*
X52775655Y-55355522D01*
X52939868Y-55205822D01*
X53073778Y-55028496D01*
X53172824Y-54829584D01*
X53200994Y-54730575D01*
X53238273Y-54671483D01*
X53301583Y-54641925D01*
X53370822Y-54651287D01*
X53424009Y-54696597D01*
X53439526Y-54730575D01*
X53467644Y-54829400D01*
X53467649Y-54829413D01*
X53566646Y-55028226D01*
X53566651Y-55028234D01*
X53582209Y-55048835D01*
X54018727Y-54612318D01*
X54080050Y-54578833D01*
X54149741Y-54583817D01*
X54203355Y-54622686D01*
X54284247Y-54724121D01*
X54284248Y-54724122D01*
X54356682Y-54773506D01*
X54400983Y-54827533D01*
X54409043Y-54896937D01*
X54378300Y-54959680D01*
X54374511Y-54963640D01*
X53937760Y-55400390D01*
X53937761Y-55400391D01*
X54053488Y-55472045D01*
X54053495Y-55472049D01*
X54260607Y-55552284D01*
X54478945Y-55593100D01*
X54701055Y-55593100D01*
X54919392Y-55552284D01*
X55126503Y-55472050D01*
X55126509Y-55472047D01*
X55242237Y-55400391D01*
X55242238Y-55400390D01*
X54807937Y-54966090D01*
X54774452Y-54904767D01*
X54779436Y-54835076D01*
X54821307Y-54779142D01*
X54841814Y-54766690D01*
X54843224Y-54766012D01*
X54941450Y-54674872D01*
X54964006Y-54635802D01*
X55014571Y-54587587D01*
X55083178Y-54574363D01*
X55148043Y-54600330D01*
X55159074Y-54610121D01*
X55597788Y-55048835D01*
X55597789Y-55048835D01*
X55613349Y-55028232D01*
X55613350Y-55028229D01*
X55712350Y-54829413D01*
X55712356Y-54829398D01*
X55773139Y-54615768D01*
X55773140Y-54615766D01*
X55793634Y-54394600D01*
X62565763Y-54394600D01*
X62586265Y-54615859D01*
X62586266Y-54615861D01*
X62647074Y-54829579D01*
X62647080Y-54829594D01*
X62746122Y-55028496D01*
X62880033Y-55205824D01*
X63044244Y-55355521D01*
X63044246Y-55355523D01*
X63233166Y-55472497D01*
X63233172Y-55472500D01*
X63262106Y-55483709D01*
X63440372Y-55552770D01*
X63658796Y-55593600D01*
X63658799Y-55593600D01*
X63881001Y-55593600D01*
X63881004Y-55593600D01*
X64099428Y-55552770D01*
X64306630Y-55472499D01*
X64495555Y-55355522D01*
X64659768Y-55205822D01*
X64793678Y-55028496D01*
X64892724Y-54829584D01*
X64920634Y-54731489D01*
X64957913Y-54672396D01*
X65021223Y-54642839D01*
X65090462Y-54652201D01*
X65143649Y-54697511D01*
X65159166Y-54731490D01*
X65187074Y-54829579D01*
X65187080Y-54829594D01*
X65286122Y-55028496D01*
X65420033Y-55205824D01*
X65584244Y-55355521D01*
X65584246Y-55355523D01*
X65773166Y-55472497D01*
X65773172Y-55472500D01*
X65802106Y-55483709D01*
X65980372Y-55552770D01*
X66198796Y-55593600D01*
X66198799Y-55593600D01*
X66421001Y-55593600D01*
X66421004Y-55593600D01*
X66639428Y-55552770D01*
X66846630Y-55472499D01*
X67035555Y-55355522D01*
X67199768Y-55205822D01*
X67333678Y-55028496D01*
X67432724Y-54829584D01*
X67460634Y-54731489D01*
X67497913Y-54672396D01*
X67561223Y-54642839D01*
X67630462Y-54652201D01*
X67683649Y-54697511D01*
X67699166Y-54731490D01*
X67727074Y-54829579D01*
X67727080Y-54829594D01*
X67826122Y-55028496D01*
X67960033Y-55205824D01*
X68124244Y-55355521D01*
X68124246Y-55355523D01*
X68313166Y-55472497D01*
X68313172Y-55472500D01*
X68342106Y-55483709D01*
X68520372Y-55552770D01*
X68738796Y-55593600D01*
X68738799Y-55593600D01*
X68961001Y-55593600D01*
X68961004Y-55593600D01*
X69179428Y-55552770D01*
X69386630Y-55472499D01*
X69575555Y-55355522D01*
X69739768Y-55205822D01*
X69873678Y-55028496D01*
X69972724Y-54829584D01*
X70000894Y-54730575D01*
X70038173Y-54671483D01*
X70101483Y-54641925D01*
X70170722Y-54651287D01*
X70223909Y-54696597D01*
X70239426Y-54730575D01*
X70267544Y-54829400D01*
X70267549Y-54829413D01*
X70366546Y-55028226D01*
X70366551Y-55028234D01*
X70382109Y-55048835D01*
X70818627Y-54612318D01*
X70879950Y-54578833D01*
X70949641Y-54583817D01*
X71003255Y-54622686D01*
X71084147Y-54724121D01*
X71084148Y-54724122D01*
X71156582Y-54773506D01*
X71200883Y-54827533D01*
X71208943Y-54896937D01*
X71178200Y-54959680D01*
X71174411Y-54963640D01*
X70737660Y-55400390D01*
X70737661Y-55400391D01*
X70853388Y-55472045D01*
X70853395Y-55472049D01*
X71060507Y-55552284D01*
X71278845Y-55593100D01*
X71500955Y-55593100D01*
X71719292Y-55552284D01*
X71926403Y-55472050D01*
X71926409Y-55472047D01*
X72042137Y-55400391D01*
X72042138Y-55400390D01*
X71607837Y-54966090D01*
X71574352Y-54904767D01*
X71579336Y-54835076D01*
X71621207Y-54779142D01*
X71641714Y-54766690D01*
X71643124Y-54766012D01*
X71741350Y-54674872D01*
X71763906Y-54635802D01*
X71814471Y-54587587D01*
X71883078Y-54574363D01*
X71947943Y-54600330D01*
X71958974Y-54610121D01*
X72397688Y-55048835D01*
X72397689Y-55048835D01*
X72413249Y-55028232D01*
X72413250Y-55028229D01*
X72512250Y-54829413D01*
X72512256Y-54829398D01*
X72573039Y-54615768D01*
X72573040Y-54615766D01*
X72593534Y-54394600D01*
X79335763Y-54394600D01*
X79356265Y-54615859D01*
X79356266Y-54615861D01*
X79417074Y-54829579D01*
X79417080Y-54829594D01*
X79516122Y-55028496D01*
X79650033Y-55205824D01*
X79814244Y-55355521D01*
X79814246Y-55355523D01*
X80003166Y-55472497D01*
X80003172Y-55472500D01*
X80032106Y-55483709D01*
X80210372Y-55552770D01*
X80428796Y-55593600D01*
X80428799Y-55593600D01*
X80651001Y-55593600D01*
X80651004Y-55593600D01*
X80869428Y-55552770D01*
X81076630Y-55472499D01*
X81265555Y-55355522D01*
X81429768Y-55205822D01*
X81563678Y-55028496D01*
X81662724Y-54829584D01*
X81690634Y-54731489D01*
X81727913Y-54672396D01*
X81791223Y-54642839D01*
X81860462Y-54652201D01*
X81913649Y-54697511D01*
X81929166Y-54731490D01*
X81957074Y-54829579D01*
X81957080Y-54829594D01*
X82056122Y-55028496D01*
X82190033Y-55205824D01*
X82354244Y-55355521D01*
X82354246Y-55355523D01*
X82543166Y-55472497D01*
X82543172Y-55472500D01*
X82572106Y-55483709D01*
X82750372Y-55552770D01*
X82968796Y-55593600D01*
X82968799Y-55593600D01*
X83191001Y-55593600D01*
X83191004Y-55593600D01*
X83409428Y-55552770D01*
X83616630Y-55472499D01*
X83805555Y-55355522D01*
X83969768Y-55205822D01*
X84103678Y-55028496D01*
X84202724Y-54829584D01*
X84230634Y-54731489D01*
X84267913Y-54672396D01*
X84331223Y-54642839D01*
X84400462Y-54652201D01*
X84453649Y-54697511D01*
X84469166Y-54731490D01*
X84497074Y-54829579D01*
X84497080Y-54829594D01*
X84596122Y-55028496D01*
X84730033Y-55205824D01*
X84894244Y-55355521D01*
X84894246Y-55355523D01*
X85083166Y-55472497D01*
X85083172Y-55472500D01*
X85112106Y-55483709D01*
X85290372Y-55552770D01*
X85508796Y-55593600D01*
X85508799Y-55593600D01*
X85731001Y-55593600D01*
X85731004Y-55593600D01*
X85949428Y-55552770D01*
X86156630Y-55472499D01*
X86345555Y-55355522D01*
X86509768Y-55205822D01*
X86643678Y-55028496D01*
X86742724Y-54829584D01*
X86770894Y-54730575D01*
X86808173Y-54671483D01*
X86871483Y-54641925D01*
X86940722Y-54651287D01*
X86993909Y-54696597D01*
X87009426Y-54730575D01*
X87037544Y-54829400D01*
X87037549Y-54829413D01*
X87136546Y-55028226D01*
X87136551Y-55028234D01*
X87152109Y-55048835D01*
X87588627Y-54612318D01*
X87649950Y-54578833D01*
X87719641Y-54583817D01*
X87773255Y-54622686D01*
X87854147Y-54724121D01*
X87854148Y-54724122D01*
X87926582Y-54773506D01*
X87970883Y-54827533D01*
X87978943Y-54896937D01*
X87948200Y-54959680D01*
X87944411Y-54963640D01*
X87507660Y-55400390D01*
X87507661Y-55400391D01*
X87623388Y-55472045D01*
X87623395Y-55472049D01*
X87830507Y-55552284D01*
X88048845Y-55593100D01*
X88270955Y-55593100D01*
X88489292Y-55552284D01*
X88696403Y-55472050D01*
X88696409Y-55472047D01*
X88812137Y-55400391D01*
X88812138Y-55400390D01*
X88377837Y-54966090D01*
X88344352Y-54904767D01*
X88349336Y-54835076D01*
X88391207Y-54779142D01*
X88411714Y-54766690D01*
X88413124Y-54766012D01*
X88511350Y-54674872D01*
X88533906Y-54635802D01*
X88584471Y-54587587D01*
X88653078Y-54574363D01*
X88717943Y-54600330D01*
X88728974Y-54610121D01*
X89167688Y-55048835D01*
X89167689Y-55048835D01*
X89183249Y-55028232D01*
X89183250Y-55028229D01*
X89282250Y-54829413D01*
X89282256Y-54829398D01*
X89343039Y-54615768D01*
X89343040Y-54615766D01*
X89363534Y-54394600D01*
X89363534Y-54394599D01*
X89343040Y-54173433D01*
X89343039Y-54173431D01*
X89282256Y-53959801D01*
X89282250Y-53959786D01*
X89183251Y-53760970D01*
X89183249Y-53760967D01*
X89167688Y-53740362D01*
X88731171Y-54176880D01*
X88669848Y-54210365D01*
X88600156Y-54205381D01*
X88546543Y-54166512D01*
X88506901Y-54116803D01*
X88465652Y-54065078D01*
X88393214Y-54015690D01*
X88348914Y-53961664D01*
X88340855Y-53892261D01*
X88371598Y-53829518D01*
X88375387Y-53825558D01*
X88812138Y-53388808D01*
X88696403Y-53317150D01*
X88696404Y-53317150D01*
X88489292Y-53236915D01*
X88270955Y-53196100D01*
X88048845Y-53196100D01*
X87830507Y-53236915D01*
X87623397Y-53317149D01*
X87623394Y-53317151D01*
X87507660Y-53388808D01*
X87941962Y-53823109D01*
X87975447Y-53884432D01*
X87970463Y-53954123D01*
X87928592Y-54010057D01*
X87908089Y-54022507D01*
X87906678Y-54023186D01*
X87808450Y-54114327D01*
X87785893Y-54153398D01*
X87735325Y-54201613D01*
X87666718Y-54214835D01*
X87601853Y-54188867D01*
X87590825Y-54179078D01*
X87152110Y-53740362D01*
X87136551Y-53760967D01*
X87136546Y-53760974D01*
X87037549Y-53959786D01*
X87037544Y-53959799D01*
X87009426Y-54058624D01*
X86972146Y-54117717D01*
X86908837Y-54147274D01*
X86839597Y-54137912D01*
X86786411Y-54092602D01*
X86770894Y-54058623D01*
X86743307Y-53961664D01*
X86742724Y-53959616D01*
X86643678Y-53760704D01*
X86579430Y-53675626D01*
X86509766Y-53583375D01*
X86345555Y-53433678D01*
X86345553Y-53433676D01*
X86156633Y-53316702D01*
X86156627Y-53316699D01*
X86048980Y-53274997D01*
X85949428Y-53236430D01*
X85731004Y-53195600D01*
X85508796Y-53195600D01*
X85290372Y-53236430D01*
X85240595Y-53255713D01*
X85083172Y-53316699D01*
X85083166Y-53316702D01*
X84894246Y-53433676D01*
X84894244Y-53433678D01*
X84730033Y-53583375D01*
X84596122Y-53760703D01*
X84497080Y-53959605D01*
X84497074Y-53959620D01*
X84469166Y-54057709D01*
X84431887Y-54116803D01*
X84368577Y-54146360D01*
X84299338Y-54136998D01*
X84246151Y-54091688D01*
X84230634Y-54057709D01*
X84203307Y-53961664D01*
X84202724Y-53959616D01*
X84103678Y-53760704D01*
X84039430Y-53675626D01*
X83969766Y-53583375D01*
X83805555Y-53433678D01*
X83805553Y-53433676D01*
X83616633Y-53316702D01*
X83616627Y-53316699D01*
X83508980Y-53274997D01*
X83409428Y-53236430D01*
X83191004Y-53195600D01*
X82968796Y-53195600D01*
X82750372Y-53236430D01*
X82700595Y-53255713D01*
X82543172Y-53316699D01*
X82543166Y-53316702D01*
X82354246Y-53433676D01*
X82354244Y-53433678D01*
X82190033Y-53583375D01*
X82056122Y-53760703D01*
X81957080Y-53959605D01*
X81957074Y-53959620D01*
X81929166Y-54057709D01*
X81891887Y-54116803D01*
X81828577Y-54146360D01*
X81759338Y-54136998D01*
X81706151Y-54091688D01*
X81690634Y-54057709D01*
X81663307Y-53961664D01*
X81662724Y-53959616D01*
X81563678Y-53760704D01*
X81499430Y-53675626D01*
X81429766Y-53583375D01*
X81265555Y-53433678D01*
X81265553Y-53433676D01*
X81076633Y-53316702D01*
X81076627Y-53316699D01*
X80968980Y-53274997D01*
X80869428Y-53236430D01*
X80651004Y-53195600D01*
X80428796Y-53195600D01*
X80210372Y-53236430D01*
X80160595Y-53255713D01*
X80003172Y-53316699D01*
X80003166Y-53316702D01*
X79814246Y-53433676D01*
X79814244Y-53433678D01*
X79650033Y-53583375D01*
X79516122Y-53760703D01*
X79417080Y-53959605D01*
X79417074Y-53959620D01*
X79356266Y-54173338D01*
X79356265Y-54173340D01*
X79335763Y-54394599D01*
X79335763Y-54394600D01*
X72593534Y-54394600D01*
X72593534Y-54394599D01*
X72573040Y-54173433D01*
X72573039Y-54173431D01*
X72512256Y-53959801D01*
X72512250Y-53959786D01*
X72413251Y-53760970D01*
X72413249Y-53760967D01*
X72397688Y-53740362D01*
X71961171Y-54176880D01*
X71899848Y-54210365D01*
X71830156Y-54205381D01*
X71776543Y-54166512D01*
X71736901Y-54116803D01*
X71695652Y-54065078D01*
X71623214Y-54015690D01*
X71578914Y-53961664D01*
X71570855Y-53892261D01*
X71601598Y-53829518D01*
X71605387Y-53825558D01*
X72042138Y-53388808D01*
X71926403Y-53317150D01*
X71926404Y-53317150D01*
X71719292Y-53236915D01*
X71500955Y-53196100D01*
X71278845Y-53196100D01*
X71060507Y-53236915D01*
X70853397Y-53317149D01*
X70853394Y-53317151D01*
X70737660Y-53388808D01*
X71171962Y-53823109D01*
X71205447Y-53884432D01*
X71200463Y-53954123D01*
X71158592Y-54010057D01*
X71138089Y-54022507D01*
X71136678Y-54023186D01*
X71038450Y-54114327D01*
X71015893Y-54153398D01*
X70965325Y-54201613D01*
X70896718Y-54214835D01*
X70831853Y-54188867D01*
X70820825Y-54179078D01*
X70382110Y-53740362D01*
X70366551Y-53760967D01*
X70366546Y-53760974D01*
X70267549Y-53959786D01*
X70267544Y-53959799D01*
X70239426Y-54058624D01*
X70202146Y-54117717D01*
X70138837Y-54147274D01*
X70069597Y-54137912D01*
X70016411Y-54092602D01*
X70000894Y-54058623D01*
X69973307Y-53961664D01*
X69972724Y-53959616D01*
X69873678Y-53760704D01*
X69809430Y-53675626D01*
X69739766Y-53583375D01*
X69575555Y-53433678D01*
X69575553Y-53433676D01*
X69386633Y-53316702D01*
X69386627Y-53316699D01*
X69278980Y-53274997D01*
X69179428Y-53236430D01*
X68961004Y-53195600D01*
X68738796Y-53195600D01*
X68520372Y-53236430D01*
X68470595Y-53255713D01*
X68313172Y-53316699D01*
X68313166Y-53316702D01*
X68124246Y-53433676D01*
X68124244Y-53433678D01*
X67960033Y-53583375D01*
X67826122Y-53760703D01*
X67727080Y-53959605D01*
X67727074Y-53959620D01*
X67699166Y-54057709D01*
X67661887Y-54116803D01*
X67598577Y-54146360D01*
X67529338Y-54136998D01*
X67476151Y-54091688D01*
X67460634Y-54057709D01*
X67433307Y-53961664D01*
X67432724Y-53959616D01*
X67333678Y-53760704D01*
X67269430Y-53675626D01*
X67199766Y-53583375D01*
X67035555Y-53433678D01*
X67035553Y-53433676D01*
X66846633Y-53316702D01*
X66846627Y-53316699D01*
X66738980Y-53274997D01*
X66639428Y-53236430D01*
X66421004Y-53195600D01*
X66198796Y-53195600D01*
X65980372Y-53236430D01*
X65930595Y-53255713D01*
X65773172Y-53316699D01*
X65773166Y-53316702D01*
X65584246Y-53433676D01*
X65584244Y-53433678D01*
X65420033Y-53583375D01*
X65286122Y-53760703D01*
X65187080Y-53959605D01*
X65187074Y-53959620D01*
X65159166Y-54057709D01*
X65121887Y-54116803D01*
X65058577Y-54146360D01*
X64989338Y-54136998D01*
X64936151Y-54091688D01*
X64920634Y-54057709D01*
X64893307Y-53961664D01*
X64892724Y-53959616D01*
X64793678Y-53760704D01*
X64729430Y-53675626D01*
X64659766Y-53583375D01*
X64495555Y-53433678D01*
X64495553Y-53433676D01*
X64306633Y-53316702D01*
X64306627Y-53316699D01*
X64198980Y-53274997D01*
X64099428Y-53236430D01*
X63881004Y-53195600D01*
X63658796Y-53195600D01*
X63440372Y-53236430D01*
X63390595Y-53255713D01*
X63233172Y-53316699D01*
X63233166Y-53316702D01*
X63044246Y-53433676D01*
X63044244Y-53433678D01*
X62880033Y-53583375D01*
X62746122Y-53760703D01*
X62647080Y-53959605D01*
X62647074Y-53959620D01*
X62586266Y-54173338D01*
X62586265Y-54173340D01*
X62565763Y-54394599D01*
X62565763Y-54394600D01*
X55793634Y-54394600D01*
X55793634Y-54394599D01*
X55773140Y-54173433D01*
X55773139Y-54173431D01*
X55712356Y-53959801D01*
X55712350Y-53959786D01*
X55613351Y-53760970D01*
X55613349Y-53760967D01*
X55597788Y-53740362D01*
X55161271Y-54176880D01*
X55099948Y-54210365D01*
X55030256Y-54205381D01*
X54976643Y-54166512D01*
X54937001Y-54116803D01*
X54895752Y-54065078D01*
X54823314Y-54015690D01*
X54779014Y-53961664D01*
X54770955Y-53892261D01*
X54801698Y-53829518D01*
X54805487Y-53825558D01*
X55242238Y-53388808D01*
X55126503Y-53317150D01*
X55126504Y-53317150D01*
X54919392Y-53236915D01*
X54701055Y-53196100D01*
X54478945Y-53196100D01*
X54260607Y-53236915D01*
X54053497Y-53317149D01*
X54053494Y-53317151D01*
X53937760Y-53388808D01*
X54372062Y-53823109D01*
X54405547Y-53884432D01*
X54400563Y-53954123D01*
X54358692Y-54010057D01*
X54338189Y-54022507D01*
X54336778Y-54023186D01*
X54238550Y-54114327D01*
X54215993Y-54153398D01*
X54165425Y-54201613D01*
X54096818Y-54214835D01*
X54031953Y-54188867D01*
X54020925Y-54179078D01*
X53582210Y-53740362D01*
X53566651Y-53760967D01*
X53566646Y-53760974D01*
X53467649Y-53959786D01*
X53467644Y-53959799D01*
X53439526Y-54058624D01*
X53402246Y-54117717D01*
X53338937Y-54147274D01*
X53269697Y-54137912D01*
X53216511Y-54092602D01*
X53200994Y-54058623D01*
X53173407Y-53961664D01*
X53172824Y-53959616D01*
X53073778Y-53760704D01*
X53009530Y-53675626D01*
X52939866Y-53583375D01*
X52775655Y-53433678D01*
X52775653Y-53433676D01*
X52586733Y-53316702D01*
X52586727Y-53316699D01*
X52479080Y-53274997D01*
X52379528Y-53236430D01*
X52161104Y-53195600D01*
X51938896Y-53195600D01*
X51720472Y-53236430D01*
X51670695Y-53255713D01*
X51513272Y-53316699D01*
X51513266Y-53316702D01*
X51324346Y-53433676D01*
X51324344Y-53433678D01*
X51160133Y-53583375D01*
X51026222Y-53760703D01*
X50927180Y-53959605D01*
X50927174Y-53959620D01*
X50899266Y-54057709D01*
X50861987Y-54116803D01*
X50798677Y-54146360D01*
X50729438Y-54136998D01*
X50676251Y-54091688D01*
X50660734Y-54057709D01*
X50633407Y-53961664D01*
X50632824Y-53959616D01*
X50533778Y-53760704D01*
X50469530Y-53675626D01*
X50399866Y-53583375D01*
X50235655Y-53433678D01*
X50235653Y-53433676D01*
X50046733Y-53316702D01*
X50046727Y-53316699D01*
X49939080Y-53274997D01*
X49839528Y-53236430D01*
X49621104Y-53195600D01*
X49398896Y-53195600D01*
X49180472Y-53236430D01*
X49130695Y-53255713D01*
X48973272Y-53316699D01*
X48973266Y-53316702D01*
X48784346Y-53433676D01*
X48784344Y-53433678D01*
X48620133Y-53583375D01*
X48486222Y-53760703D01*
X48387180Y-53959605D01*
X48387174Y-53959620D01*
X48359266Y-54057709D01*
X48321987Y-54116803D01*
X48258677Y-54146360D01*
X48189438Y-54136998D01*
X48136251Y-54091688D01*
X48120734Y-54057709D01*
X48093407Y-53961664D01*
X48092824Y-53959616D01*
X47993778Y-53760704D01*
X47929530Y-53675626D01*
X47859866Y-53583375D01*
X47695655Y-53433678D01*
X47695653Y-53433676D01*
X47506733Y-53316702D01*
X47506727Y-53316699D01*
X47399080Y-53274997D01*
X47299528Y-53236430D01*
X47081104Y-53195600D01*
X46858896Y-53195600D01*
X46640472Y-53236430D01*
X46590695Y-53255713D01*
X46433272Y-53316699D01*
X46433266Y-53316702D01*
X46244346Y-53433676D01*
X46244344Y-53433678D01*
X46080133Y-53583375D01*
X45946222Y-53760703D01*
X45847180Y-53959605D01*
X45847174Y-53959620D01*
X45786366Y-54173338D01*
X45786365Y-54173340D01*
X45765863Y-54394599D01*
X45765863Y-54394600D01*
X30510000Y-54394600D01*
X30510000Y-53932172D01*
X30509999Y-53932155D01*
X30503598Y-53872627D01*
X30503596Y-53872620D01*
X30453354Y-53737913D01*
X30453350Y-53737906D01*
X30367190Y-53622812D01*
X30367187Y-53622809D01*
X30252093Y-53536649D01*
X30252086Y-53536645D01*
X30171729Y-53506674D01*
X30115795Y-53464803D01*
X30091378Y-53399338D01*
X30106230Y-53331065D01*
X30123826Y-53306516D01*
X30218979Y-53203153D01*
X30218982Y-53203147D01*
X30218985Y-53203145D01*
X30287793Y-53097824D01*
X30345924Y-53008849D01*
X30439157Y-52796300D01*
X30496134Y-52571305D01*
X30515300Y-52340000D01*
X30515300Y-52339993D01*
X30496135Y-52108702D01*
X30496133Y-52108691D01*
X30439157Y-51883699D01*
X30345924Y-51671151D01*
X30218983Y-51476852D01*
X30218980Y-51476849D01*
X30218979Y-51476847D01*
X30061784Y-51306087D01*
X30061779Y-51306083D01*
X30061777Y-51306081D01*
X29878634Y-51163535D01*
X29878619Y-51163525D01*
X29769813Y-51104642D01*
X29720223Y-51055423D01*
X29705115Y-50987206D01*
X29729286Y-50921651D01*
X29759234Y-50895009D01*
X29758299Y-50893673D01*
X29762732Y-50890568D01*
X29762734Y-50890568D01*
X29949139Y-50760047D01*
X30049187Y-50659999D01*
X38172322Y-50659999D01*
X38191006Y-50897414D01*
X38246600Y-51128983D01*
X38337738Y-51349011D01*
X38462169Y-51552064D01*
X38462170Y-51552065D01*
X38462171Y-51552067D01*
X38462173Y-51552069D01*
X38616840Y-51733160D01*
X38797931Y-51887827D01*
X38797933Y-51887828D01*
X38797934Y-51887829D01*
X38797935Y-51887830D01*
X39000988Y-52012261D01*
X39086078Y-52047506D01*
X39221012Y-52103398D01*
X39452583Y-52158993D01*
X39690000Y-52177678D01*
X39927417Y-52158993D01*
X40158988Y-52103398D01*
X40379011Y-52012261D01*
X40582069Y-51887827D01*
X40763160Y-51733160D01*
X40917827Y-51552069D01*
X41042261Y-51349011D01*
X41133398Y-51128988D01*
X41188993Y-50897417D01*
X41207678Y-50660000D01*
X41672322Y-50660000D01*
X41691006Y-50897414D01*
X41746600Y-51128983D01*
X41837738Y-51349011D01*
X41962169Y-51552064D01*
X41962170Y-51552065D01*
X41962171Y-51552067D01*
X41962173Y-51552069D01*
X42116840Y-51733160D01*
X42297931Y-51887827D01*
X42297933Y-51887828D01*
X42297934Y-51887829D01*
X42297935Y-51887830D01*
X42500988Y-52012261D01*
X42586078Y-52047506D01*
X42721012Y-52103398D01*
X42952583Y-52158993D01*
X43190000Y-52177678D01*
X43427417Y-52158993D01*
X43658988Y-52103398D01*
X43879011Y-52012261D01*
X44082069Y-51887827D01*
X44263160Y-51733160D01*
X44417827Y-51552069D01*
X44542261Y-51349011D01*
X44633398Y-51128988D01*
X44688993Y-50897417D01*
X44707678Y-50660000D01*
X45172322Y-50660000D01*
X45191006Y-50897414D01*
X45246600Y-51128983D01*
X45337738Y-51349011D01*
X45462169Y-51552064D01*
X45462170Y-51552065D01*
X45462171Y-51552067D01*
X45462173Y-51552069D01*
X45616840Y-51733160D01*
X45797931Y-51887827D01*
X45797933Y-51887828D01*
X45797934Y-51887829D01*
X45797935Y-51887830D01*
X46000988Y-52012261D01*
X46086078Y-52047506D01*
X46221012Y-52103398D01*
X46452583Y-52158993D01*
X46690000Y-52177678D01*
X46927417Y-52158993D01*
X47158988Y-52103398D01*
X47379011Y-52012261D01*
X47582069Y-51887827D01*
X47763160Y-51733160D01*
X47917827Y-51552069D01*
X48042261Y-51349011D01*
X48133398Y-51128988D01*
X48188993Y-50897417D01*
X48207678Y-50660000D01*
X48672322Y-50660000D01*
X48691006Y-50897414D01*
X48746600Y-51128983D01*
X48837738Y-51349011D01*
X48962169Y-51552064D01*
X48962170Y-51552065D01*
X48962171Y-51552067D01*
X48962173Y-51552069D01*
X49116840Y-51733160D01*
X49297931Y-51887827D01*
X49297933Y-51887828D01*
X49297934Y-51887829D01*
X49297935Y-51887830D01*
X49500988Y-52012261D01*
X49586078Y-52047506D01*
X49721012Y-52103398D01*
X49952583Y-52158993D01*
X50190000Y-52177678D01*
X50427417Y-52158993D01*
X50658988Y-52103398D01*
X50879011Y-52012261D01*
X51082069Y-51887827D01*
X51263160Y-51733160D01*
X51417827Y-51552069D01*
X51542261Y-51349011D01*
X51633398Y-51128988D01*
X51688993Y-50897417D01*
X51707678Y-50660000D01*
X52172322Y-50660000D01*
X52191006Y-50897414D01*
X52246600Y-51128983D01*
X52337738Y-51349011D01*
X52462169Y-51552064D01*
X52462170Y-51552065D01*
X52462171Y-51552067D01*
X52462173Y-51552069D01*
X52616840Y-51733160D01*
X52797931Y-51887827D01*
X52797933Y-51887828D01*
X52797934Y-51887829D01*
X52797935Y-51887830D01*
X53000988Y-52012261D01*
X53086078Y-52047506D01*
X53221012Y-52103398D01*
X53452583Y-52158993D01*
X53690000Y-52177678D01*
X53927417Y-52158993D01*
X54158988Y-52103398D01*
X54379011Y-52012261D01*
X54582069Y-51887827D01*
X54763160Y-51733160D01*
X54917827Y-51552069D01*
X55042261Y-51349011D01*
X55133398Y-51128988D01*
X55188993Y-50897417D01*
X55207678Y-50660000D01*
X55672322Y-50660000D01*
X55691006Y-50897414D01*
X55746600Y-51128983D01*
X55837738Y-51349011D01*
X55962169Y-51552064D01*
X55962170Y-51552065D01*
X55962171Y-51552067D01*
X55962173Y-51552069D01*
X56116840Y-51733160D01*
X56297931Y-51887827D01*
X56297933Y-51887828D01*
X56297934Y-51887829D01*
X56297935Y-51887830D01*
X56500988Y-52012261D01*
X56586078Y-52047506D01*
X56721012Y-52103398D01*
X56952583Y-52158993D01*
X57190000Y-52177678D01*
X57427417Y-52158993D01*
X57658988Y-52103398D01*
X57879011Y-52012261D01*
X58082069Y-51887827D01*
X58263160Y-51733160D01*
X58417827Y-51552069D01*
X58542261Y-51349011D01*
X58633398Y-51128988D01*
X58688993Y-50897417D01*
X58707678Y-50660000D01*
X59172322Y-50660000D01*
X59191006Y-50897414D01*
X59246600Y-51128983D01*
X59337738Y-51349011D01*
X59462169Y-51552064D01*
X59462170Y-51552065D01*
X59462171Y-51552067D01*
X59462173Y-51552069D01*
X59616840Y-51733160D01*
X59797931Y-51887827D01*
X59797933Y-51887828D01*
X59797934Y-51887829D01*
X59797935Y-51887830D01*
X60000988Y-52012261D01*
X60086078Y-52047506D01*
X60221012Y-52103398D01*
X60452583Y-52158993D01*
X60690000Y-52177678D01*
X60927417Y-52158993D01*
X61158988Y-52103398D01*
X61379011Y-52012261D01*
X61582069Y-51887827D01*
X61763160Y-51733160D01*
X61917827Y-51552069D01*
X62042261Y-51349011D01*
X62133398Y-51128988D01*
X62188993Y-50897417D01*
X62207678Y-50660000D01*
X62207678Y-50659999D01*
X62672322Y-50659999D01*
X62691006Y-50897414D01*
X62746600Y-51128983D01*
X62837738Y-51349011D01*
X62962169Y-51552064D01*
X62962170Y-51552065D01*
X62962171Y-51552067D01*
X62962173Y-51552069D01*
X63116840Y-51733160D01*
X63297931Y-51887827D01*
X63297933Y-51887828D01*
X63297934Y-51887829D01*
X63297935Y-51887830D01*
X63500988Y-52012261D01*
X63586078Y-52047506D01*
X63721012Y-52103398D01*
X63952583Y-52158993D01*
X64190000Y-52177678D01*
X64427417Y-52158993D01*
X64658988Y-52103398D01*
X64879011Y-52012261D01*
X65082069Y-51887827D01*
X65263160Y-51733160D01*
X65417827Y-51552069D01*
X65542261Y-51349011D01*
X65633398Y-51128988D01*
X65688993Y-50897417D01*
X65707678Y-50660000D01*
X65707678Y-50659999D01*
X68572322Y-50659999D01*
X68591006Y-50897414D01*
X68646600Y-51128983D01*
X68737738Y-51349011D01*
X68862169Y-51552064D01*
X68862170Y-51552065D01*
X68862171Y-51552067D01*
X68862173Y-51552069D01*
X69016840Y-51733160D01*
X69197931Y-51887827D01*
X69197933Y-51887828D01*
X69197934Y-51887829D01*
X69197935Y-51887830D01*
X69400988Y-52012261D01*
X69486078Y-52047506D01*
X69621012Y-52103398D01*
X69852583Y-52158993D01*
X70090000Y-52177678D01*
X70327417Y-52158993D01*
X70558988Y-52103398D01*
X70779011Y-52012261D01*
X70982069Y-51887827D01*
X71163160Y-51733160D01*
X71317827Y-51552069D01*
X71442261Y-51349011D01*
X71533398Y-51128988D01*
X71588993Y-50897417D01*
X71607678Y-50660000D01*
X72072322Y-50660000D01*
X72091006Y-50897414D01*
X72146600Y-51128983D01*
X72237738Y-51349011D01*
X72362169Y-51552064D01*
X72362170Y-51552065D01*
X72362171Y-51552067D01*
X72362173Y-51552069D01*
X72516840Y-51733160D01*
X72697931Y-51887827D01*
X72697933Y-51887828D01*
X72697934Y-51887829D01*
X72697935Y-51887830D01*
X72900988Y-52012261D01*
X72986078Y-52047506D01*
X73121012Y-52103398D01*
X73352583Y-52158993D01*
X73590000Y-52177678D01*
X73827417Y-52158993D01*
X74058988Y-52103398D01*
X74279011Y-52012261D01*
X74482069Y-51887827D01*
X74663160Y-51733160D01*
X74817827Y-51552069D01*
X74942261Y-51349011D01*
X75033398Y-51128988D01*
X75088993Y-50897417D01*
X75107678Y-50660000D01*
X75572322Y-50660000D01*
X75591006Y-50897414D01*
X75646600Y-51128983D01*
X75737738Y-51349011D01*
X75862169Y-51552064D01*
X75862170Y-51552065D01*
X75862171Y-51552067D01*
X75862173Y-51552069D01*
X76016840Y-51733160D01*
X76197931Y-51887827D01*
X76197933Y-51887828D01*
X76197934Y-51887829D01*
X76197935Y-51887830D01*
X76400988Y-52012261D01*
X76486078Y-52047506D01*
X76621012Y-52103398D01*
X76852583Y-52158993D01*
X77090000Y-52177678D01*
X77327417Y-52158993D01*
X77558988Y-52103398D01*
X77779011Y-52012261D01*
X77982069Y-51887827D01*
X78163160Y-51733160D01*
X78317827Y-51552069D01*
X78442261Y-51349011D01*
X78533398Y-51128988D01*
X78588993Y-50897417D01*
X78607678Y-50660000D01*
X78607678Y-50659999D01*
X79072322Y-50659999D01*
X79091006Y-50897414D01*
X79146600Y-51128983D01*
X79237738Y-51349011D01*
X79362169Y-51552064D01*
X79362170Y-51552065D01*
X79362171Y-51552067D01*
X79362173Y-51552069D01*
X79516840Y-51733160D01*
X79697931Y-51887827D01*
X79697933Y-51887828D01*
X79697934Y-51887829D01*
X79697935Y-51887830D01*
X79900988Y-52012261D01*
X79986078Y-52047506D01*
X80121012Y-52103398D01*
X80352583Y-52158993D01*
X80590000Y-52177678D01*
X80827417Y-52158993D01*
X81058988Y-52103398D01*
X81279011Y-52012261D01*
X81482069Y-51887827D01*
X81663160Y-51733160D01*
X81817827Y-51552069D01*
X81942261Y-51349011D01*
X82033398Y-51128988D01*
X82088993Y-50897417D01*
X82107678Y-50660000D01*
X82572322Y-50660000D01*
X82591006Y-50897414D01*
X82646600Y-51128983D01*
X82737738Y-51349011D01*
X82862169Y-51552064D01*
X82862170Y-51552065D01*
X82862171Y-51552067D01*
X82862173Y-51552069D01*
X83016840Y-51733160D01*
X83197931Y-51887827D01*
X83197933Y-51887828D01*
X83197934Y-51887829D01*
X83197935Y-51887830D01*
X83400988Y-52012261D01*
X83486078Y-52047506D01*
X83621012Y-52103398D01*
X83852583Y-52158993D01*
X84090000Y-52177678D01*
X84327417Y-52158993D01*
X84558988Y-52103398D01*
X84779011Y-52012261D01*
X84982069Y-51887827D01*
X85163160Y-51733160D01*
X85317827Y-51552069D01*
X85442261Y-51349011D01*
X85533398Y-51128988D01*
X85588993Y-50897417D01*
X85607678Y-50660000D01*
X86072322Y-50660000D01*
X86091006Y-50897414D01*
X86146600Y-51128983D01*
X86237738Y-51349011D01*
X86362169Y-51552064D01*
X86362170Y-51552065D01*
X86362171Y-51552067D01*
X86362173Y-51552069D01*
X86516840Y-51733160D01*
X86697931Y-51887827D01*
X86697933Y-51887828D01*
X86697934Y-51887829D01*
X86697935Y-51887830D01*
X86900988Y-52012261D01*
X86986078Y-52047506D01*
X87121012Y-52103398D01*
X87352583Y-52158993D01*
X87590000Y-52177678D01*
X87827417Y-52158993D01*
X88058988Y-52103398D01*
X88279011Y-52012261D01*
X88482069Y-51887827D01*
X88663160Y-51733160D01*
X88817827Y-51552069D01*
X88942261Y-51349011D01*
X89033398Y-51128988D01*
X89088993Y-50897417D01*
X89107678Y-50660000D01*
X89572322Y-50660000D01*
X89591006Y-50897414D01*
X89646600Y-51128983D01*
X89737738Y-51349011D01*
X89862169Y-51552064D01*
X89862170Y-51552065D01*
X89862171Y-51552067D01*
X89862173Y-51552069D01*
X90016840Y-51733160D01*
X90197931Y-51887827D01*
X90197933Y-51887828D01*
X90197934Y-51887829D01*
X90197935Y-51887830D01*
X90400988Y-52012261D01*
X90486078Y-52047506D01*
X90621012Y-52103398D01*
X90852583Y-52158993D01*
X91090000Y-52177678D01*
X91327417Y-52158993D01*
X91558988Y-52103398D01*
X91779011Y-52012261D01*
X91982069Y-51887827D01*
X92163160Y-51733160D01*
X92317827Y-51552069D01*
X92442261Y-51349011D01*
X92533398Y-51128988D01*
X92588993Y-50897417D01*
X92607678Y-50660000D01*
X93072322Y-50660000D01*
X93091006Y-50897414D01*
X93146600Y-51128983D01*
X93237738Y-51349011D01*
X93362169Y-51552064D01*
X93362170Y-51552065D01*
X93362171Y-51552067D01*
X93362173Y-51552069D01*
X93516840Y-51733160D01*
X93697931Y-51887827D01*
X93697933Y-51887828D01*
X93697934Y-51887829D01*
X93697935Y-51887830D01*
X93900988Y-52012261D01*
X93986078Y-52047506D01*
X94121012Y-52103398D01*
X94352583Y-52158993D01*
X94590000Y-52177678D01*
X94827417Y-52158993D01*
X95058988Y-52103398D01*
X95279011Y-52012261D01*
X95482069Y-51887827D01*
X95663160Y-51733160D01*
X95817827Y-51552069D01*
X95942261Y-51349011D01*
X96033398Y-51128988D01*
X96088993Y-50897417D01*
X96107678Y-50660000D01*
X96088993Y-50422583D01*
X96033398Y-50191012D01*
X95948768Y-49986697D01*
X95942261Y-49970988D01*
X95817830Y-49767935D01*
X95817829Y-49767934D01*
X95817828Y-49767933D01*
X95817827Y-49767931D01*
X95663160Y-49586840D01*
X95482069Y-49432173D01*
X95482067Y-49432171D01*
X95482065Y-49432170D01*
X95482064Y-49432169D01*
X95279011Y-49307738D01*
X95058983Y-49216600D01*
X94827413Y-49161006D01*
X94827414Y-49161006D01*
X94612174Y-49144067D01*
X94590000Y-49142322D01*
X94589999Y-49142322D01*
X94352585Y-49161006D01*
X94121016Y-49216600D01*
X93900988Y-49307738D01*
X93697935Y-49432169D01*
X93697934Y-49432170D01*
X93516840Y-49586840D01*
X93362170Y-49767934D01*
X93362169Y-49767935D01*
X93237738Y-49970988D01*
X93146600Y-50191016D01*
X93091006Y-50422585D01*
X93072322Y-50660000D01*
X92607678Y-50660000D01*
X92588993Y-50422583D01*
X92533398Y-50191012D01*
X92448768Y-49986697D01*
X92442261Y-49970988D01*
X92317830Y-49767935D01*
X92317829Y-49767934D01*
X92317828Y-49767933D01*
X92317827Y-49767931D01*
X92163160Y-49586840D01*
X91982069Y-49432173D01*
X91982067Y-49432171D01*
X91982065Y-49432170D01*
X91982064Y-49432169D01*
X91779011Y-49307738D01*
X91558983Y-49216600D01*
X91327413Y-49161006D01*
X91327414Y-49161006D01*
X91112174Y-49144067D01*
X91090000Y-49142322D01*
X91089999Y-49142322D01*
X90852585Y-49161006D01*
X90621016Y-49216600D01*
X90400988Y-49307738D01*
X90197935Y-49432169D01*
X90197934Y-49432170D01*
X90016840Y-49586840D01*
X89862170Y-49767934D01*
X89862169Y-49767935D01*
X89737738Y-49970988D01*
X89646600Y-50191016D01*
X89591006Y-50422585D01*
X89572322Y-50660000D01*
X89107678Y-50660000D01*
X89088993Y-50422583D01*
X89033398Y-50191012D01*
X88948768Y-49986697D01*
X88942261Y-49970988D01*
X88817830Y-49767935D01*
X88817829Y-49767934D01*
X88817828Y-49767933D01*
X88817827Y-49767931D01*
X88663160Y-49586840D01*
X88482069Y-49432173D01*
X88482067Y-49432171D01*
X88482065Y-49432170D01*
X88482064Y-49432169D01*
X88279011Y-49307738D01*
X88058983Y-49216600D01*
X87827413Y-49161006D01*
X87827414Y-49161006D01*
X87590000Y-49142322D01*
X87352585Y-49161006D01*
X87121016Y-49216600D01*
X86900988Y-49307738D01*
X86697935Y-49432169D01*
X86697934Y-49432170D01*
X86516840Y-49586840D01*
X86362170Y-49767934D01*
X86362169Y-49767935D01*
X86237738Y-49970988D01*
X86146600Y-50191016D01*
X86091006Y-50422585D01*
X86072322Y-50660000D01*
X85607678Y-50660000D01*
X85588993Y-50422583D01*
X85533398Y-50191012D01*
X85448768Y-49986697D01*
X85442261Y-49970988D01*
X85317830Y-49767935D01*
X85317829Y-49767934D01*
X85317828Y-49767933D01*
X85317827Y-49767931D01*
X85163160Y-49586840D01*
X84982069Y-49432173D01*
X84982067Y-49432171D01*
X84982065Y-49432170D01*
X84982064Y-49432169D01*
X84779011Y-49307738D01*
X84558983Y-49216600D01*
X84327413Y-49161006D01*
X84327414Y-49161006D01*
X84090000Y-49142322D01*
X83852585Y-49161006D01*
X83621016Y-49216600D01*
X83400988Y-49307738D01*
X83197935Y-49432169D01*
X83197934Y-49432170D01*
X83016840Y-49586840D01*
X82862170Y-49767934D01*
X82862169Y-49767935D01*
X82737738Y-49970988D01*
X82646600Y-50191016D01*
X82591006Y-50422585D01*
X82572322Y-50660000D01*
X82107678Y-50660000D01*
X82088993Y-50422583D01*
X82033398Y-50191012D01*
X81948768Y-49986697D01*
X81942261Y-49970988D01*
X81817830Y-49767935D01*
X81817829Y-49767934D01*
X81817828Y-49767933D01*
X81817827Y-49767931D01*
X81663160Y-49586840D01*
X81482069Y-49432173D01*
X81482067Y-49432171D01*
X81482065Y-49432170D01*
X81482064Y-49432169D01*
X81279011Y-49307738D01*
X81058983Y-49216600D01*
X80827413Y-49161006D01*
X80827414Y-49161006D01*
X80590000Y-49142322D01*
X80352585Y-49161006D01*
X80121016Y-49216600D01*
X79900988Y-49307738D01*
X79697935Y-49432169D01*
X79697934Y-49432170D01*
X79516840Y-49586840D01*
X79362170Y-49767934D01*
X79362169Y-49767935D01*
X79237738Y-49970988D01*
X79146600Y-50191016D01*
X79091006Y-50422585D01*
X79072322Y-50659999D01*
X78607678Y-50659999D01*
X78588993Y-50422583D01*
X78533398Y-50191012D01*
X78448768Y-49986697D01*
X78442261Y-49970988D01*
X78317830Y-49767935D01*
X78317829Y-49767934D01*
X78317828Y-49767933D01*
X78317827Y-49767931D01*
X78163160Y-49586840D01*
X77982069Y-49432173D01*
X77982067Y-49432171D01*
X77982065Y-49432170D01*
X77982064Y-49432169D01*
X77779011Y-49307738D01*
X77558983Y-49216600D01*
X77327413Y-49161006D01*
X77327414Y-49161006D01*
X77112174Y-49144067D01*
X77090000Y-49142322D01*
X77089999Y-49142322D01*
X76852585Y-49161006D01*
X76621016Y-49216600D01*
X76400988Y-49307738D01*
X76197935Y-49432169D01*
X76197934Y-49432170D01*
X76016840Y-49586840D01*
X75862170Y-49767934D01*
X75862169Y-49767935D01*
X75737738Y-49970988D01*
X75646600Y-50191016D01*
X75591006Y-50422585D01*
X75572322Y-50660000D01*
X75107678Y-50660000D01*
X75088993Y-50422583D01*
X75033398Y-50191012D01*
X74948768Y-49986697D01*
X74942261Y-49970988D01*
X74817830Y-49767935D01*
X74817829Y-49767934D01*
X74817828Y-49767933D01*
X74817827Y-49767931D01*
X74663160Y-49586840D01*
X74482069Y-49432173D01*
X74482067Y-49432171D01*
X74482065Y-49432170D01*
X74482064Y-49432169D01*
X74279011Y-49307738D01*
X74058983Y-49216600D01*
X73827413Y-49161006D01*
X73827414Y-49161006D01*
X73612174Y-49144067D01*
X73590000Y-49142322D01*
X73589999Y-49142322D01*
X73352585Y-49161006D01*
X73121016Y-49216600D01*
X72900988Y-49307738D01*
X72697935Y-49432169D01*
X72697934Y-49432170D01*
X72516840Y-49586840D01*
X72362170Y-49767934D01*
X72362169Y-49767935D01*
X72237738Y-49970988D01*
X72146600Y-50191016D01*
X72091006Y-50422585D01*
X72072322Y-50660000D01*
X71607678Y-50660000D01*
X71588993Y-50422583D01*
X71533398Y-50191012D01*
X71448768Y-49986697D01*
X71442261Y-49970988D01*
X71317830Y-49767935D01*
X71317829Y-49767934D01*
X71317828Y-49767933D01*
X71317827Y-49767931D01*
X71163160Y-49586840D01*
X70982069Y-49432173D01*
X70982067Y-49432171D01*
X70982065Y-49432170D01*
X70982064Y-49432169D01*
X70779011Y-49307738D01*
X70558983Y-49216600D01*
X70327413Y-49161006D01*
X70327414Y-49161006D01*
X70090000Y-49142322D01*
X69852585Y-49161006D01*
X69621016Y-49216600D01*
X69400988Y-49307738D01*
X69197935Y-49432169D01*
X69197934Y-49432170D01*
X69016840Y-49586840D01*
X68862170Y-49767934D01*
X68862169Y-49767935D01*
X68737738Y-49970988D01*
X68646600Y-50191016D01*
X68591006Y-50422585D01*
X68572322Y-50659999D01*
X65707678Y-50659999D01*
X65688993Y-50422583D01*
X65633398Y-50191012D01*
X65548768Y-49986697D01*
X65542261Y-49970988D01*
X65417830Y-49767935D01*
X65417829Y-49767934D01*
X65417828Y-49767933D01*
X65417827Y-49767931D01*
X65263160Y-49586840D01*
X65082069Y-49432173D01*
X65082067Y-49432171D01*
X65082065Y-49432170D01*
X65082064Y-49432169D01*
X64879011Y-49307738D01*
X64658983Y-49216600D01*
X64427413Y-49161006D01*
X64427414Y-49161006D01*
X64212174Y-49144067D01*
X64190000Y-49142322D01*
X64189999Y-49142322D01*
X63952585Y-49161006D01*
X63721016Y-49216600D01*
X63500988Y-49307738D01*
X63297935Y-49432169D01*
X63297934Y-49432170D01*
X63116840Y-49586840D01*
X62962170Y-49767934D01*
X62962169Y-49767935D01*
X62837738Y-49970988D01*
X62746600Y-50191016D01*
X62691006Y-50422585D01*
X62672322Y-50659999D01*
X62207678Y-50659999D01*
X62188993Y-50422583D01*
X62133398Y-50191012D01*
X62048768Y-49986697D01*
X62042261Y-49970988D01*
X61917830Y-49767935D01*
X61917829Y-49767934D01*
X61917828Y-49767933D01*
X61917827Y-49767931D01*
X61763160Y-49586840D01*
X61582069Y-49432173D01*
X61582067Y-49432171D01*
X61582065Y-49432170D01*
X61582064Y-49432169D01*
X61379011Y-49307738D01*
X61158983Y-49216600D01*
X60927413Y-49161006D01*
X60927414Y-49161006D01*
X60712174Y-49144067D01*
X60690000Y-49142322D01*
X60689999Y-49142322D01*
X60452585Y-49161006D01*
X60221016Y-49216600D01*
X60000988Y-49307738D01*
X59797935Y-49432169D01*
X59797934Y-49432170D01*
X59616840Y-49586840D01*
X59462170Y-49767934D01*
X59462169Y-49767935D01*
X59337738Y-49970988D01*
X59246600Y-50191016D01*
X59191006Y-50422585D01*
X59172322Y-50660000D01*
X58707678Y-50660000D01*
X58688993Y-50422583D01*
X58633398Y-50191012D01*
X58548768Y-49986697D01*
X58542261Y-49970988D01*
X58417830Y-49767935D01*
X58417829Y-49767934D01*
X58417828Y-49767933D01*
X58417827Y-49767931D01*
X58263160Y-49586840D01*
X58082069Y-49432173D01*
X58082067Y-49432171D01*
X58082065Y-49432170D01*
X58082064Y-49432169D01*
X57879011Y-49307738D01*
X57658983Y-49216600D01*
X57427413Y-49161006D01*
X57427414Y-49161006D01*
X57190000Y-49142322D01*
X56952585Y-49161006D01*
X56721016Y-49216600D01*
X56500988Y-49307738D01*
X56297935Y-49432169D01*
X56297934Y-49432170D01*
X56116840Y-49586840D01*
X55962170Y-49767934D01*
X55962169Y-49767935D01*
X55837738Y-49970988D01*
X55746600Y-50191016D01*
X55691006Y-50422585D01*
X55672322Y-50660000D01*
X55207678Y-50660000D01*
X55188993Y-50422583D01*
X55133398Y-50191012D01*
X55048768Y-49986697D01*
X55042261Y-49970988D01*
X54917830Y-49767935D01*
X54917829Y-49767934D01*
X54917828Y-49767933D01*
X54917827Y-49767931D01*
X54763160Y-49586840D01*
X54582069Y-49432173D01*
X54582067Y-49432171D01*
X54582065Y-49432170D01*
X54582064Y-49432169D01*
X54379011Y-49307738D01*
X54158983Y-49216600D01*
X53927413Y-49161006D01*
X53927414Y-49161006D01*
X53690000Y-49142322D01*
X53452585Y-49161006D01*
X53221016Y-49216600D01*
X53000988Y-49307738D01*
X52797935Y-49432169D01*
X52797934Y-49432170D01*
X52616840Y-49586840D01*
X52462170Y-49767934D01*
X52462169Y-49767935D01*
X52337738Y-49970988D01*
X52246600Y-50191016D01*
X52191006Y-50422585D01*
X52172322Y-50660000D01*
X51707678Y-50660000D01*
X51688993Y-50422583D01*
X51633398Y-50191012D01*
X51548768Y-49986697D01*
X51542261Y-49970988D01*
X51417830Y-49767935D01*
X51417829Y-49767934D01*
X51417828Y-49767933D01*
X51417827Y-49767931D01*
X51263160Y-49586840D01*
X51082069Y-49432173D01*
X51082067Y-49432171D01*
X51082065Y-49432170D01*
X51082064Y-49432169D01*
X50879011Y-49307738D01*
X50658983Y-49216600D01*
X50427413Y-49161006D01*
X50427414Y-49161006D01*
X50190000Y-49142322D01*
X49952585Y-49161006D01*
X49721016Y-49216600D01*
X49500988Y-49307738D01*
X49297935Y-49432169D01*
X49297934Y-49432170D01*
X49116840Y-49586840D01*
X48962170Y-49767934D01*
X48962169Y-49767935D01*
X48837738Y-49970988D01*
X48746600Y-50191016D01*
X48691006Y-50422585D01*
X48672322Y-50660000D01*
X48207678Y-50660000D01*
X48188993Y-50422583D01*
X48133398Y-50191012D01*
X48048768Y-49986697D01*
X48042261Y-49970988D01*
X47917830Y-49767935D01*
X47917829Y-49767934D01*
X47917828Y-49767933D01*
X47917827Y-49767931D01*
X47763160Y-49586840D01*
X47582069Y-49432173D01*
X47582067Y-49432171D01*
X47582065Y-49432170D01*
X47582064Y-49432169D01*
X47379011Y-49307738D01*
X47158983Y-49216600D01*
X46927413Y-49161006D01*
X46927414Y-49161006D01*
X46712174Y-49144067D01*
X46690000Y-49142322D01*
X46689999Y-49142322D01*
X46452585Y-49161006D01*
X46221016Y-49216600D01*
X46000988Y-49307738D01*
X45797935Y-49432169D01*
X45797934Y-49432170D01*
X45616840Y-49586840D01*
X45462170Y-49767934D01*
X45462169Y-49767935D01*
X45337738Y-49970988D01*
X45246600Y-50191016D01*
X45191006Y-50422585D01*
X45172322Y-50660000D01*
X44707678Y-50660000D01*
X44688993Y-50422583D01*
X44633398Y-50191012D01*
X44548768Y-49986697D01*
X44542261Y-49970988D01*
X44417830Y-49767935D01*
X44417829Y-49767934D01*
X44417828Y-49767933D01*
X44417827Y-49767931D01*
X44263160Y-49586840D01*
X44082069Y-49432173D01*
X44082067Y-49432171D01*
X44082065Y-49432170D01*
X44082064Y-49432169D01*
X43879011Y-49307738D01*
X43658983Y-49216600D01*
X43427413Y-49161006D01*
X43427414Y-49161006D01*
X43212174Y-49144067D01*
X43190000Y-49142322D01*
X43189999Y-49142322D01*
X42952585Y-49161006D01*
X42721016Y-49216600D01*
X42500988Y-49307738D01*
X42297935Y-49432169D01*
X42297934Y-49432170D01*
X42116840Y-49586840D01*
X41962170Y-49767934D01*
X41962169Y-49767935D01*
X41837738Y-49970988D01*
X41746600Y-50191016D01*
X41691006Y-50422585D01*
X41672322Y-50660000D01*
X41207678Y-50660000D01*
X41188993Y-50422583D01*
X41133398Y-50191012D01*
X41048768Y-49986697D01*
X41042261Y-49970988D01*
X40917830Y-49767935D01*
X40917829Y-49767934D01*
X40917828Y-49767933D01*
X40917827Y-49767931D01*
X40763160Y-49586840D01*
X40582069Y-49432173D01*
X40582067Y-49432171D01*
X40582065Y-49432170D01*
X40582064Y-49432169D01*
X40379011Y-49307738D01*
X40158983Y-49216600D01*
X39927413Y-49161006D01*
X39927414Y-49161006D01*
X39690000Y-49142322D01*
X39452585Y-49161006D01*
X39221016Y-49216600D01*
X39000988Y-49307738D01*
X38797935Y-49432169D01*
X38797934Y-49432170D01*
X38616840Y-49586840D01*
X38462170Y-49767934D01*
X38462169Y-49767935D01*
X38337738Y-49970988D01*
X38246600Y-50191016D01*
X38191006Y-50422585D01*
X38172322Y-50659999D01*
X30049187Y-50659999D01*
X30110047Y-50599139D01*
X30240568Y-50412734D01*
X30336739Y-50206496D01*
X30395635Y-49986692D01*
X30415468Y-49760000D01*
X30395635Y-49533308D01*
X30336739Y-49313504D01*
X30240568Y-49107266D01*
X30110047Y-48920861D01*
X30110045Y-48920858D01*
X29949141Y-48759954D01*
X29762734Y-48629432D01*
X29762732Y-48629431D01*
X29556497Y-48533261D01*
X29556488Y-48533258D01*
X29336697Y-48474366D01*
X29336693Y-48474365D01*
X29336692Y-48474365D01*
X29336691Y-48474364D01*
X29336686Y-48474364D01*
X29110002Y-48454532D01*
X29109998Y-48454532D01*
X28883313Y-48474364D01*
X28883302Y-48474366D01*
X28663511Y-48533258D01*
X28663502Y-48533261D01*
X28457267Y-48629431D01*
X28457265Y-48629432D01*
X28270858Y-48759954D01*
X28109954Y-48920858D01*
X27979432Y-49107265D01*
X27979431Y-49107267D01*
X27883261Y-49313502D01*
X27883258Y-49313511D01*
X27824366Y-49533302D01*
X27824364Y-49533313D01*
X27804532Y-49759998D01*
X27804532Y-49760001D01*
X27824364Y-49986686D01*
X27824366Y-49986697D01*
X27883258Y-50206488D01*
X27883261Y-50206497D01*
X27979431Y-50412732D01*
X27979432Y-50412734D01*
X28109954Y-50599141D01*
X28270858Y-50760045D01*
X28270861Y-50760047D01*
X28457266Y-50890568D01*
X28457267Y-50890568D01*
X28461701Y-50893673D01*
X28460285Y-50895694D01*
X28501338Y-50938679D01*
X28514616Y-51007275D01*
X28488701Y-51072161D01*
X28450186Y-51104642D01*
X28341380Y-51163525D01*
X28341365Y-51163535D01*
X28158222Y-51306081D01*
X28158219Y-51306084D01*
X28001016Y-51476852D01*
X27874075Y-51671151D01*
X27780842Y-51883699D01*
X27723866Y-52108691D01*
X27723864Y-52108702D01*
X27704700Y-52339993D01*
X27704700Y-52340006D01*
X25400500Y-52340006D01*
X25400500Y-45160000D01*
X38172322Y-45160000D01*
X38191006Y-45397414D01*
X38246600Y-45628983D01*
X38337738Y-45849011D01*
X38462169Y-46052064D01*
X38462170Y-46052065D01*
X38462171Y-46052067D01*
X38462173Y-46052069D01*
X38616840Y-46233160D01*
X38797931Y-46387827D01*
X38797933Y-46387828D01*
X38797934Y-46387829D01*
X38797935Y-46387830D01*
X39000988Y-46512261D01*
X39086078Y-46547506D01*
X39221012Y-46603398D01*
X39452583Y-46658993D01*
X39690000Y-46677678D01*
X39927417Y-46658993D01*
X40158988Y-46603398D01*
X40379011Y-46512261D01*
X40582069Y-46387827D01*
X40763160Y-46233160D01*
X40917827Y-46052069D01*
X41042261Y-45849011D01*
X41133398Y-45628988D01*
X41188993Y-45397417D01*
X41207678Y-45160000D01*
X41207678Y-45159999D01*
X41672322Y-45159999D01*
X41691006Y-45397414D01*
X41746600Y-45628983D01*
X41837738Y-45849011D01*
X41962169Y-46052064D01*
X41962170Y-46052065D01*
X41962171Y-46052067D01*
X41962173Y-46052069D01*
X42116840Y-46233160D01*
X42297931Y-46387827D01*
X42297933Y-46387828D01*
X42297934Y-46387829D01*
X42297935Y-46387830D01*
X42500988Y-46512261D01*
X42586078Y-46547506D01*
X42721012Y-46603398D01*
X42952583Y-46658993D01*
X43190000Y-46677678D01*
X43427417Y-46658993D01*
X43658988Y-46603398D01*
X43879011Y-46512261D01*
X44082069Y-46387827D01*
X44263160Y-46233160D01*
X44417827Y-46052069D01*
X44542261Y-45849011D01*
X44633398Y-45628988D01*
X44688993Y-45397417D01*
X44707678Y-45160000D01*
X45172322Y-45160000D01*
X45191006Y-45397414D01*
X45246600Y-45628983D01*
X45337738Y-45849011D01*
X45462169Y-46052064D01*
X45462170Y-46052065D01*
X45462171Y-46052067D01*
X45462173Y-46052069D01*
X45616840Y-46233160D01*
X45797931Y-46387827D01*
X45797933Y-46387828D01*
X45797934Y-46387829D01*
X45797935Y-46387830D01*
X46000988Y-46512261D01*
X46086078Y-46547506D01*
X46221012Y-46603398D01*
X46452583Y-46658993D01*
X46690000Y-46677678D01*
X46927417Y-46658993D01*
X47158988Y-46603398D01*
X47379011Y-46512261D01*
X47582069Y-46387827D01*
X47763160Y-46233160D01*
X47917827Y-46052069D01*
X48042261Y-45849011D01*
X48133398Y-45628988D01*
X48188993Y-45397417D01*
X48207678Y-45160000D01*
X48672322Y-45160000D01*
X48691006Y-45397414D01*
X48746600Y-45628983D01*
X48837738Y-45849011D01*
X48962169Y-46052064D01*
X48962170Y-46052065D01*
X48962171Y-46052067D01*
X48962173Y-46052069D01*
X49116840Y-46233160D01*
X49297931Y-46387827D01*
X49297933Y-46387828D01*
X49297934Y-46387829D01*
X49297935Y-46387830D01*
X49500988Y-46512261D01*
X49586078Y-46547506D01*
X49721012Y-46603398D01*
X49952583Y-46658993D01*
X50190000Y-46677678D01*
X50427417Y-46658993D01*
X50658988Y-46603398D01*
X50879011Y-46512261D01*
X51082069Y-46387827D01*
X51263160Y-46233160D01*
X51417827Y-46052069D01*
X51542261Y-45849011D01*
X51633398Y-45628988D01*
X51688993Y-45397417D01*
X51707678Y-45160000D01*
X52172322Y-45160000D01*
X52191006Y-45397414D01*
X52246600Y-45628983D01*
X52337738Y-45849011D01*
X52462169Y-46052064D01*
X52462170Y-46052065D01*
X52462171Y-46052067D01*
X52462173Y-46052069D01*
X52616840Y-46233160D01*
X52797931Y-46387827D01*
X52797933Y-46387828D01*
X52797934Y-46387829D01*
X52797935Y-46387830D01*
X53000988Y-46512261D01*
X53086078Y-46547506D01*
X53221012Y-46603398D01*
X53452583Y-46658993D01*
X53690000Y-46677678D01*
X53927417Y-46658993D01*
X54158988Y-46603398D01*
X54379011Y-46512261D01*
X54582069Y-46387827D01*
X54763160Y-46233160D01*
X54917827Y-46052069D01*
X55042261Y-45849011D01*
X55133398Y-45628988D01*
X55188993Y-45397417D01*
X55207678Y-45160000D01*
X55672322Y-45160000D01*
X55691006Y-45397414D01*
X55746600Y-45628983D01*
X55837738Y-45849011D01*
X55962169Y-46052064D01*
X55962170Y-46052065D01*
X55962171Y-46052067D01*
X55962173Y-46052069D01*
X56116840Y-46233160D01*
X56297931Y-46387827D01*
X56297933Y-46387828D01*
X56297934Y-46387829D01*
X56297935Y-46387830D01*
X56500988Y-46512261D01*
X56586078Y-46547506D01*
X56721012Y-46603398D01*
X56952583Y-46658993D01*
X57190000Y-46677678D01*
X57427417Y-46658993D01*
X57658988Y-46603398D01*
X57879011Y-46512261D01*
X58082069Y-46387827D01*
X58263160Y-46233160D01*
X58417827Y-46052069D01*
X58542261Y-45849011D01*
X58633398Y-45628988D01*
X58688993Y-45397417D01*
X58707678Y-45160000D01*
X58707678Y-45159999D01*
X59172322Y-45159999D01*
X59191006Y-45397414D01*
X59246600Y-45628983D01*
X59337738Y-45849011D01*
X59462169Y-46052064D01*
X59462170Y-46052065D01*
X59462171Y-46052067D01*
X59462173Y-46052069D01*
X59616840Y-46233160D01*
X59797931Y-46387827D01*
X59797933Y-46387828D01*
X59797934Y-46387829D01*
X59797935Y-46387830D01*
X60000988Y-46512261D01*
X60086078Y-46547506D01*
X60221012Y-46603398D01*
X60452583Y-46658993D01*
X60690000Y-46677678D01*
X60927417Y-46658993D01*
X61158988Y-46603398D01*
X61379011Y-46512261D01*
X61582069Y-46387827D01*
X61763160Y-46233160D01*
X61917827Y-46052069D01*
X62042261Y-45849011D01*
X62133398Y-45628988D01*
X62188993Y-45397417D01*
X62207678Y-45160000D01*
X62672322Y-45160000D01*
X62691006Y-45397414D01*
X62746600Y-45628983D01*
X62837738Y-45849011D01*
X62962169Y-46052064D01*
X62962170Y-46052065D01*
X62962171Y-46052067D01*
X62962173Y-46052069D01*
X63116840Y-46233160D01*
X63297931Y-46387827D01*
X63297933Y-46387828D01*
X63297934Y-46387829D01*
X63297935Y-46387830D01*
X63500988Y-46512261D01*
X63586078Y-46547506D01*
X63721012Y-46603398D01*
X63952583Y-46658993D01*
X64190000Y-46677678D01*
X64427417Y-46658993D01*
X64658988Y-46603398D01*
X64879011Y-46512261D01*
X65082069Y-46387827D01*
X65263160Y-46233160D01*
X65417827Y-46052069D01*
X65542261Y-45849011D01*
X65633398Y-45628988D01*
X65688993Y-45397417D01*
X65707678Y-45160000D01*
X68572322Y-45160000D01*
X68591006Y-45397414D01*
X68646600Y-45628983D01*
X68737738Y-45849011D01*
X68862169Y-46052064D01*
X68862170Y-46052065D01*
X68862171Y-46052067D01*
X68862173Y-46052069D01*
X69016840Y-46233160D01*
X69197931Y-46387827D01*
X69197933Y-46387828D01*
X69197934Y-46387829D01*
X69197935Y-46387830D01*
X69400988Y-46512261D01*
X69486078Y-46547506D01*
X69621012Y-46603398D01*
X69852583Y-46658993D01*
X70090000Y-46677678D01*
X70327417Y-46658993D01*
X70558988Y-46603398D01*
X70779011Y-46512261D01*
X70982069Y-46387827D01*
X71163160Y-46233160D01*
X71317827Y-46052069D01*
X71442261Y-45849011D01*
X71533398Y-45628988D01*
X71588993Y-45397417D01*
X71607678Y-45160000D01*
X72072322Y-45160000D01*
X72091006Y-45397414D01*
X72146600Y-45628983D01*
X72237738Y-45849011D01*
X72362169Y-46052064D01*
X72362170Y-46052065D01*
X72362171Y-46052067D01*
X72362173Y-46052069D01*
X72516840Y-46233160D01*
X72697931Y-46387827D01*
X72697933Y-46387828D01*
X72697934Y-46387829D01*
X72697935Y-46387830D01*
X72900988Y-46512261D01*
X72986078Y-46547506D01*
X73121012Y-46603398D01*
X73352583Y-46658993D01*
X73590000Y-46677678D01*
X73827417Y-46658993D01*
X74058988Y-46603398D01*
X74279011Y-46512261D01*
X74482069Y-46387827D01*
X74663160Y-46233160D01*
X74817827Y-46052069D01*
X74942261Y-45849011D01*
X75033398Y-45628988D01*
X75088993Y-45397417D01*
X75107678Y-45160000D01*
X75572322Y-45160000D01*
X75591006Y-45397414D01*
X75646600Y-45628983D01*
X75737738Y-45849011D01*
X75862169Y-46052064D01*
X75862170Y-46052065D01*
X75862171Y-46052067D01*
X75862173Y-46052069D01*
X76016840Y-46233160D01*
X76197931Y-46387827D01*
X76197933Y-46387828D01*
X76197934Y-46387829D01*
X76197935Y-46387830D01*
X76400988Y-46512261D01*
X76486078Y-46547506D01*
X76621012Y-46603398D01*
X76852583Y-46658993D01*
X77090000Y-46677678D01*
X77327417Y-46658993D01*
X77558988Y-46603398D01*
X77779011Y-46512261D01*
X77982069Y-46387827D01*
X78163160Y-46233160D01*
X78317827Y-46052069D01*
X78442261Y-45849011D01*
X78533398Y-45628988D01*
X78588993Y-45397417D01*
X78607678Y-45160000D01*
X78607678Y-45159999D01*
X79072322Y-45159999D01*
X79091006Y-45397414D01*
X79146600Y-45628983D01*
X79237738Y-45849011D01*
X79362169Y-46052064D01*
X79362170Y-46052065D01*
X79362171Y-46052067D01*
X79362173Y-46052069D01*
X79516840Y-46233160D01*
X79697931Y-46387827D01*
X79697933Y-46387828D01*
X79697934Y-46387829D01*
X79697935Y-46387830D01*
X79900988Y-46512261D01*
X79986078Y-46547506D01*
X80121012Y-46603398D01*
X80352583Y-46658993D01*
X80590000Y-46677678D01*
X80827417Y-46658993D01*
X81058988Y-46603398D01*
X81279011Y-46512261D01*
X81482069Y-46387827D01*
X81663160Y-46233160D01*
X81817827Y-46052069D01*
X81942261Y-45849011D01*
X82033398Y-45628988D01*
X82088993Y-45397417D01*
X82107678Y-45160000D01*
X82107678Y-45159999D01*
X82572322Y-45159999D01*
X82591006Y-45397414D01*
X82646600Y-45628983D01*
X82737738Y-45849011D01*
X82862169Y-46052064D01*
X82862170Y-46052065D01*
X82862171Y-46052067D01*
X82862173Y-46052069D01*
X83016840Y-46233160D01*
X83197931Y-46387827D01*
X83197933Y-46387828D01*
X83197934Y-46387829D01*
X83197935Y-46387830D01*
X83400988Y-46512261D01*
X83486078Y-46547506D01*
X83621012Y-46603398D01*
X83852583Y-46658993D01*
X84090000Y-46677678D01*
X84327417Y-46658993D01*
X84558988Y-46603398D01*
X84779011Y-46512261D01*
X84982069Y-46387827D01*
X85163160Y-46233160D01*
X85317827Y-46052069D01*
X85442261Y-45849011D01*
X85533398Y-45628988D01*
X85588993Y-45397417D01*
X85607678Y-45160000D01*
X86072322Y-45160000D01*
X86091006Y-45397414D01*
X86146600Y-45628983D01*
X86237738Y-45849011D01*
X86362169Y-46052064D01*
X86362170Y-46052065D01*
X86362171Y-46052067D01*
X86362173Y-46052069D01*
X86516840Y-46233160D01*
X86697931Y-46387827D01*
X86697933Y-46387828D01*
X86697934Y-46387829D01*
X86697935Y-46387830D01*
X86900988Y-46512261D01*
X86986078Y-46547506D01*
X87121012Y-46603398D01*
X87352583Y-46658993D01*
X87590000Y-46677678D01*
X87827417Y-46658993D01*
X88058988Y-46603398D01*
X88279011Y-46512261D01*
X88482069Y-46387827D01*
X88663160Y-46233160D01*
X88817827Y-46052069D01*
X88942261Y-45849011D01*
X89033398Y-45628988D01*
X89088993Y-45397417D01*
X89107678Y-45160000D01*
X89572322Y-45160000D01*
X89591006Y-45397414D01*
X89646600Y-45628983D01*
X89737738Y-45849011D01*
X89862169Y-46052064D01*
X89862170Y-46052065D01*
X89862171Y-46052067D01*
X89862173Y-46052069D01*
X90016840Y-46233160D01*
X90197931Y-46387827D01*
X90197933Y-46387828D01*
X90197934Y-46387829D01*
X90197935Y-46387830D01*
X90400988Y-46512261D01*
X90486078Y-46547506D01*
X90621012Y-46603398D01*
X90852583Y-46658993D01*
X91090000Y-46677678D01*
X91327417Y-46658993D01*
X91558988Y-46603398D01*
X91779011Y-46512261D01*
X91982069Y-46387827D01*
X92163160Y-46233160D01*
X92317827Y-46052069D01*
X92442261Y-45849011D01*
X92533398Y-45628988D01*
X92588993Y-45397417D01*
X92607678Y-45160000D01*
X92607678Y-45159999D01*
X93072322Y-45159999D01*
X93091006Y-45397414D01*
X93146600Y-45628983D01*
X93237738Y-45849011D01*
X93362169Y-46052064D01*
X93362170Y-46052065D01*
X93362171Y-46052067D01*
X93362173Y-46052069D01*
X93516840Y-46233160D01*
X93697931Y-46387827D01*
X93697933Y-46387828D01*
X93697934Y-46387829D01*
X93697935Y-46387830D01*
X93900988Y-46512261D01*
X93986078Y-46547506D01*
X94121012Y-46603398D01*
X94352583Y-46658993D01*
X94590000Y-46677678D01*
X94827417Y-46658993D01*
X95058988Y-46603398D01*
X95279011Y-46512261D01*
X95482069Y-46387827D01*
X95663160Y-46233160D01*
X95817827Y-46052069D01*
X95942261Y-45849011D01*
X96033398Y-45628988D01*
X96088993Y-45397417D01*
X96107678Y-45160000D01*
X96088993Y-44922583D01*
X96033398Y-44691012D01*
X95942261Y-44470989D01*
X95942261Y-44470988D01*
X95817830Y-44267935D01*
X95817829Y-44267934D01*
X95817828Y-44267933D01*
X95817827Y-44267931D01*
X95663160Y-44086840D01*
X95482069Y-43932173D01*
X95482067Y-43932171D01*
X95482065Y-43932170D01*
X95482064Y-43932169D01*
X95279011Y-43807738D01*
X95058983Y-43716600D01*
X94827413Y-43661006D01*
X94827414Y-43661006D01*
X94590000Y-43642322D01*
X94352585Y-43661006D01*
X94121016Y-43716600D01*
X93900988Y-43807738D01*
X93697935Y-43932169D01*
X93697934Y-43932170D01*
X93516840Y-44086840D01*
X93362170Y-44267934D01*
X93362169Y-44267935D01*
X93237738Y-44470988D01*
X93146600Y-44691016D01*
X93091006Y-44922585D01*
X93072322Y-45159999D01*
X92607678Y-45159999D01*
X92588993Y-44922583D01*
X92533398Y-44691012D01*
X92442261Y-44470989D01*
X92442261Y-44470988D01*
X92317830Y-44267935D01*
X92317829Y-44267934D01*
X92317828Y-44267933D01*
X92317827Y-44267931D01*
X92163160Y-44086840D01*
X91982069Y-43932173D01*
X91982067Y-43932171D01*
X91982065Y-43932170D01*
X91982064Y-43932169D01*
X91779011Y-43807738D01*
X91558983Y-43716600D01*
X91327413Y-43661006D01*
X91327414Y-43661006D01*
X91090000Y-43642322D01*
X90852585Y-43661006D01*
X90621016Y-43716600D01*
X90400988Y-43807738D01*
X90197935Y-43932169D01*
X90197934Y-43932170D01*
X90016840Y-44086840D01*
X89862170Y-44267934D01*
X89862169Y-44267935D01*
X89737738Y-44470988D01*
X89646600Y-44691016D01*
X89591006Y-44922585D01*
X89572322Y-45160000D01*
X89107678Y-45160000D01*
X89088993Y-44922583D01*
X89033398Y-44691012D01*
X88942261Y-44470989D01*
X88942261Y-44470988D01*
X88817830Y-44267935D01*
X88817829Y-44267934D01*
X88817828Y-44267933D01*
X88817827Y-44267931D01*
X88663160Y-44086840D01*
X88482069Y-43932173D01*
X88482067Y-43932171D01*
X88482065Y-43932170D01*
X88482064Y-43932169D01*
X88279011Y-43807738D01*
X88058983Y-43716600D01*
X87827413Y-43661006D01*
X87827414Y-43661006D01*
X87590000Y-43642322D01*
X87352585Y-43661006D01*
X87121016Y-43716600D01*
X86900988Y-43807738D01*
X86697935Y-43932169D01*
X86697934Y-43932170D01*
X86516840Y-44086840D01*
X86362170Y-44267934D01*
X86362169Y-44267935D01*
X86237738Y-44470988D01*
X86146600Y-44691016D01*
X86091006Y-44922585D01*
X86072322Y-45160000D01*
X85607678Y-45160000D01*
X85588993Y-44922583D01*
X85533398Y-44691012D01*
X85442261Y-44470989D01*
X85442261Y-44470988D01*
X85317830Y-44267935D01*
X85317829Y-44267934D01*
X85317828Y-44267933D01*
X85317827Y-44267931D01*
X85163160Y-44086840D01*
X84982069Y-43932173D01*
X84982067Y-43932171D01*
X84982065Y-43932170D01*
X84982064Y-43932169D01*
X84779011Y-43807738D01*
X84558983Y-43716600D01*
X84327413Y-43661006D01*
X84327414Y-43661006D01*
X84112174Y-43644067D01*
X84090000Y-43642322D01*
X84089999Y-43642322D01*
X83852585Y-43661006D01*
X83621016Y-43716600D01*
X83400988Y-43807738D01*
X83197935Y-43932169D01*
X83197934Y-43932170D01*
X83016840Y-44086840D01*
X82862170Y-44267934D01*
X82862169Y-44267935D01*
X82737738Y-44470988D01*
X82646600Y-44691016D01*
X82591006Y-44922585D01*
X82572322Y-45159999D01*
X82107678Y-45159999D01*
X82088993Y-44922583D01*
X82033398Y-44691012D01*
X81942261Y-44470989D01*
X81942261Y-44470988D01*
X81817830Y-44267935D01*
X81817829Y-44267934D01*
X81817828Y-44267933D01*
X81817827Y-44267931D01*
X81663160Y-44086840D01*
X81482069Y-43932173D01*
X81482067Y-43932171D01*
X81482065Y-43932170D01*
X81482064Y-43932169D01*
X81279011Y-43807738D01*
X81058983Y-43716600D01*
X80827413Y-43661006D01*
X80827414Y-43661006D01*
X80612174Y-43644067D01*
X80590000Y-43642322D01*
X80589999Y-43642322D01*
X80352585Y-43661006D01*
X80121016Y-43716600D01*
X79900988Y-43807738D01*
X79697935Y-43932169D01*
X79697934Y-43932170D01*
X79516840Y-44086840D01*
X79362170Y-44267934D01*
X79362169Y-44267935D01*
X79237738Y-44470988D01*
X79146600Y-44691016D01*
X79091006Y-44922585D01*
X79072322Y-45159999D01*
X78607678Y-45159999D01*
X78588993Y-44922583D01*
X78533398Y-44691012D01*
X78442261Y-44470989D01*
X78442261Y-44470988D01*
X78317830Y-44267935D01*
X78317829Y-44267934D01*
X78317828Y-44267933D01*
X78317827Y-44267931D01*
X78163160Y-44086840D01*
X77982069Y-43932173D01*
X77982067Y-43932171D01*
X77982065Y-43932170D01*
X77982064Y-43932169D01*
X77779011Y-43807738D01*
X77558983Y-43716600D01*
X77327413Y-43661006D01*
X77327414Y-43661006D01*
X77090000Y-43642322D01*
X76852585Y-43661006D01*
X76621016Y-43716600D01*
X76400988Y-43807738D01*
X76197935Y-43932169D01*
X76197934Y-43932170D01*
X76016840Y-44086840D01*
X75862170Y-44267934D01*
X75862169Y-44267935D01*
X75737738Y-44470988D01*
X75646600Y-44691016D01*
X75591006Y-44922585D01*
X75572322Y-45160000D01*
X75107678Y-45160000D01*
X75088993Y-44922583D01*
X75033398Y-44691012D01*
X74942261Y-44470989D01*
X74942261Y-44470988D01*
X74817830Y-44267935D01*
X74817829Y-44267934D01*
X74817828Y-44267933D01*
X74817827Y-44267931D01*
X74663160Y-44086840D01*
X74482069Y-43932173D01*
X74482067Y-43932171D01*
X74482065Y-43932170D01*
X74482064Y-43932169D01*
X74279011Y-43807738D01*
X74058983Y-43716600D01*
X73827413Y-43661006D01*
X73827414Y-43661006D01*
X73590000Y-43642322D01*
X73352585Y-43661006D01*
X73121016Y-43716600D01*
X72900988Y-43807738D01*
X72697935Y-43932169D01*
X72697934Y-43932170D01*
X72516840Y-44086840D01*
X72362170Y-44267934D01*
X72362169Y-44267935D01*
X72237738Y-44470988D01*
X72146600Y-44691016D01*
X72091006Y-44922585D01*
X72072322Y-45160000D01*
X71607678Y-45160000D01*
X71588993Y-44922583D01*
X71533398Y-44691012D01*
X71442261Y-44470989D01*
X71442261Y-44470988D01*
X71317830Y-44267935D01*
X71317829Y-44267934D01*
X71317828Y-44267933D01*
X71317827Y-44267931D01*
X71163160Y-44086840D01*
X70982069Y-43932173D01*
X70982067Y-43932171D01*
X70982065Y-43932170D01*
X70982064Y-43932169D01*
X70779011Y-43807738D01*
X70558983Y-43716600D01*
X70327413Y-43661006D01*
X70327414Y-43661006D01*
X70112174Y-43644067D01*
X70090000Y-43642322D01*
X70089999Y-43642322D01*
X69852585Y-43661006D01*
X69621016Y-43716600D01*
X69400988Y-43807738D01*
X69197935Y-43932169D01*
X69197934Y-43932170D01*
X69016840Y-44086840D01*
X68862170Y-44267934D01*
X68862169Y-44267935D01*
X68737738Y-44470988D01*
X68646600Y-44691016D01*
X68591006Y-44922585D01*
X68572322Y-45160000D01*
X65707678Y-45160000D01*
X65688993Y-44922583D01*
X65633398Y-44691012D01*
X65542261Y-44470989D01*
X65542261Y-44470988D01*
X65417830Y-44267935D01*
X65417829Y-44267934D01*
X65417828Y-44267933D01*
X65417827Y-44267931D01*
X65263160Y-44086840D01*
X65082069Y-43932173D01*
X65082067Y-43932171D01*
X65082065Y-43932170D01*
X65082064Y-43932169D01*
X64879011Y-43807738D01*
X64658983Y-43716600D01*
X64427413Y-43661006D01*
X64427414Y-43661006D01*
X64190000Y-43642322D01*
X63952585Y-43661006D01*
X63721016Y-43716600D01*
X63500988Y-43807738D01*
X63297935Y-43932169D01*
X63297934Y-43932170D01*
X63116840Y-44086840D01*
X62962170Y-44267934D01*
X62962169Y-44267935D01*
X62837738Y-44470988D01*
X62746600Y-44691016D01*
X62691006Y-44922585D01*
X62672322Y-45160000D01*
X62207678Y-45160000D01*
X62188993Y-44922583D01*
X62133398Y-44691012D01*
X62042261Y-44470989D01*
X62042261Y-44470988D01*
X61917830Y-44267935D01*
X61917829Y-44267934D01*
X61917828Y-44267933D01*
X61917827Y-44267931D01*
X61763160Y-44086840D01*
X61582069Y-43932173D01*
X61582067Y-43932171D01*
X61582065Y-43932170D01*
X61582064Y-43932169D01*
X61379011Y-43807738D01*
X61158983Y-43716600D01*
X60927413Y-43661006D01*
X60927414Y-43661006D01*
X60690000Y-43642322D01*
X60452585Y-43661006D01*
X60221016Y-43716600D01*
X60000988Y-43807738D01*
X59797935Y-43932169D01*
X59797934Y-43932170D01*
X59616840Y-44086840D01*
X59462170Y-44267934D01*
X59462169Y-44267935D01*
X59337738Y-44470988D01*
X59246600Y-44691016D01*
X59191006Y-44922585D01*
X59172322Y-45159999D01*
X58707678Y-45159999D01*
X58688993Y-44922583D01*
X58633398Y-44691012D01*
X58542261Y-44470989D01*
X58542261Y-44470988D01*
X58417830Y-44267935D01*
X58417829Y-44267934D01*
X58417828Y-44267933D01*
X58417827Y-44267931D01*
X58263160Y-44086840D01*
X58082069Y-43932173D01*
X58082067Y-43932171D01*
X58082065Y-43932170D01*
X58082064Y-43932169D01*
X57879011Y-43807738D01*
X57658983Y-43716600D01*
X57427413Y-43661006D01*
X57427414Y-43661006D01*
X57212174Y-43644067D01*
X57190000Y-43642322D01*
X57189999Y-43642322D01*
X56952585Y-43661006D01*
X56721016Y-43716600D01*
X56500988Y-43807738D01*
X56297935Y-43932169D01*
X56297934Y-43932170D01*
X56116840Y-44086840D01*
X55962170Y-44267934D01*
X55962169Y-44267935D01*
X55837738Y-44470988D01*
X55746600Y-44691016D01*
X55691006Y-44922585D01*
X55672322Y-45160000D01*
X55207678Y-45160000D01*
X55188993Y-44922583D01*
X55133398Y-44691012D01*
X55042261Y-44470989D01*
X55042261Y-44470988D01*
X54917830Y-44267935D01*
X54917829Y-44267934D01*
X54917828Y-44267933D01*
X54917827Y-44267931D01*
X54763160Y-44086840D01*
X54582069Y-43932173D01*
X54582067Y-43932171D01*
X54582065Y-43932170D01*
X54582064Y-43932169D01*
X54379011Y-43807738D01*
X54158983Y-43716600D01*
X53927413Y-43661006D01*
X53927414Y-43661006D01*
X53690000Y-43642322D01*
X53452585Y-43661006D01*
X53221016Y-43716600D01*
X53000988Y-43807738D01*
X52797935Y-43932169D01*
X52797934Y-43932170D01*
X52616840Y-44086840D01*
X52462170Y-44267934D01*
X52462169Y-44267935D01*
X52337738Y-44470988D01*
X52246600Y-44691016D01*
X52191006Y-44922585D01*
X52172322Y-45160000D01*
X51707678Y-45160000D01*
X51688993Y-44922583D01*
X51633398Y-44691012D01*
X51542261Y-44470989D01*
X51542261Y-44470988D01*
X51417830Y-44267935D01*
X51417829Y-44267934D01*
X51417828Y-44267933D01*
X51417827Y-44267931D01*
X51263160Y-44086840D01*
X51082069Y-43932173D01*
X51082067Y-43932171D01*
X51082065Y-43932170D01*
X51082064Y-43932169D01*
X50879011Y-43807738D01*
X50658983Y-43716600D01*
X50427413Y-43661006D01*
X50427414Y-43661006D01*
X50190000Y-43642322D01*
X49952585Y-43661006D01*
X49721016Y-43716600D01*
X49500988Y-43807738D01*
X49297935Y-43932169D01*
X49297934Y-43932170D01*
X49116840Y-44086840D01*
X48962170Y-44267934D01*
X48962169Y-44267935D01*
X48837738Y-44470988D01*
X48746600Y-44691016D01*
X48691006Y-44922585D01*
X48672322Y-45160000D01*
X48207678Y-45160000D01*
X48188993Y-44922583D01*
X48133398Y-44691012D01*
X48042261Y-44470989D01*
X48042261Y-44470988D01*
X47917830Y-44267935D01*
X47917829Y-44267934D01*
X47917828Y-44267933D01*
X47917827Y-44267931D01*
X47763160Y-44086840D01*
X47582069Y-43932173D01*
X47582067Y-43932171D01*
X47582065Y-43932170D01*
X47582064Y-43932169D01*
X47379011Y-43807738D01*
X47158983Y-43716600D01*
X46927413Y-43661006D01*
X46927414Y-43661006D01*
X46690000Y-43642322D01*
X46452585Y-43661006D01*
X46221016Y-43716600D01*
X46000988Y-43807738D01*
X45797935Y-43932169D01*
X45797934Y-43932170D01*
X45616840Y-44086840D01*
X45462170Y-44267934D01*
X45462169Y-44267935D01*
X45337738Y-44470988D01*
X45246600Y-44691016D01*
X45191006Y-44922585D01*
X45172322Y-45160000D01*
X44707678Y-45160000D01*
X44688993Y-44922583D01*
X44633398Y-44691012D01*
X44542261Y-44470989D01*
X44542261Y-44470988D01*
X44417830Y-44267935D01*
X44417829Y-44267934D01*
X44417828Y-44267933D01*
X44417827Y-44267931D01*
X44263160Y-44086840D01*
X44082069Y-43932173D01*
X44082067Y-43932171D01*
X44082065Y-43932170D01*
X44082064Y-43932169D01*
X43879011Y-43807738D01*
X43658983Y-43716600D01*
X43427413Y-43661006D01*
X43427414Y-43661006D01*
X43190000Y-43642322D01*
X42952585Y-43661006D01*
X42721016Y-43716600D01*
X42500988Y-43807738D01*
X42297935Y-43932169D01*
X42297934Y-43932170D01*
X42116840Y-44086840D01*
X41962170Y-44267934D01*
X41962169Y-44267935D01*
X41837738Y-44470988D01*
X41746600Y-44691016D01*
X41691006Y-44922585D01*
X41672322Y-45159999D01*
X41207678Y-45159999D01*
X41188993Y-44922583D01*
X41133398Y-44691012D01*
X41042261Y-44470989D01*
X41042261Y-44470988D01*
X40917830Y-44267935D01*
X40917829Y-44267934D01*
X40917828Y-44267933D01*
X40917827Y-44267931D01*
X40763160Y-44086840D01*
X40582069Y-43932173D01*
X40582067Y-43932171D01*
X40582065Y-43932170D01*
X40582064Y-43932169D01*
X40379011Y-43807738D01*
X40158983Y-43716600D01*
X39927413Y-43661006D01*
X39927414Y-43661006D01*
X39712174Y-43644067D01*
X39690000Y-43642322D01*
X39689999Y-43642322D01*
X39452585Y-43661006D01*
X39221016Y-43716600D01*
X39000988Y-43807738D01*
X38797935Y-43932169D01*
X38797934Y-43932170D01*
X38616840Y-44086840D01*
X38462170Y-44267934D01*
X38462169Y-44267935D01*
X38337738Y-44470988D01*
X38246600Y-44691016D01*
X38191006Y-44922585D01*
X38172322Y-45160000D01*
X25400500Y-45160000D01*
X25400500Y-42140001D01*
X27804532Y-42140001D01*
X27824364Y-42366686D01*
X27824366Y-42366697D01*
X27883258Y-42586488D01*
X27883261Y-42586497D01*
X27979431Y-42792732D01*
X27979432Y-42792734D01*
X28109954Y-42979141D01*
X28270858Y-43140045D01*
X28270861Y-43140047D01*
X28457266Y-43270568D01*
X28663504Y-43366739D01*
X28883308Y-43425635D01*
X29045230Y-43439801D01*
X29109998Y-43445468D01*
X29110000Y-43445468D01*
X29110002Y-43445468D01*
X29166672Y-43440509D01*
X29336692Y-43425635D01*
X29556496Y-43366739D01*
X29762734Y-43270568D01*
X29949139Y-43140047D01*
X30110047Y-42979139D01*
X30240568Y-42792734D01*
X30336739Y-42586496D01*
X30395635Y-42366692D01*
X30415468Y-42140000D01*
X30395635Y-41913308D01*
X30336739Y-41693504D01*
X30240568Y-41487266D01*
X30110047Y-41300861D01*
X30110045Y-41300858D01*
X29949141Y-41139954D01*
X29762734Y-41009432D01*
X29762732Y-41009431D01*
X29556497Y-40913261D01*
X29556488Y-40913258D01*
X29336697Y-40854366D01*
X29336693Y-40854365D01*
X29336692Y-40854365D01*
X29336691Y-40854364D01*
X29336686Y-40854364D01*
X29110002Y-40834532D01*
X29109998Y-40834532D01*
X28883313Y-40854364D01*
X28883302Y-40854366D01*
X28663511Y-40913258D01*
X28663502Y-40913261D01*
X28457267Y-41009431D01*
X28457265Y-41009432D01*
X28270858Y-41139954D01*
X28109954Y-41300858D01*
X27979432Y-41487265D01*
X27979431Y-41487267D01*
X27883261Y-41693502D01*
X27883258Y-41693511D01*
X27824366Y-41913302D01*
X27824364Y-41913313D01*
X27804532Y-42139998D01*
X27804532Y-42140001D01*
X25400500Y-42140001D01*
X25400500Y-39850344D01*
X33717500Y-39850344D01*
X33723901Y-39909872D01*
X33723903Y-39909879D01*
X33774145Y-40044586D01*
X33774149Y-40044593D01*
X33860309Y-40159687D01*
X33860312Y-40159690D01*
X33975406Y-40245850D01*
X33975413Y-40245854D01*
X34110120Y-40296096D01*
X34110127Y-40296098D01*
X34169655Y-40302499D01*
X34169672Y-40302500D01*
X34980000Y-40302500D01*
X34980000Y-39579570D01*
X34999685Y-39512531D01*
X35052489Y-39466776D01*
X35118947Y-39456474D01*
X35189164Y-39465000D01*
X35189166Y-39465000D01*
X35270836Y-39465000D01*
X35341053Y-39456474D01*
X35409977Y-39467934D01*
X35461763Y-39514838D01*
X35480000Y-39579570D01*
X35480000Y-40302500D01*
X36290328Y-40302500D01*
X36290344Y-40302499D01*
X36349872Y-40296098D01*
X36349879Y-40296096D01*
X36484586Y-40245854D01*
X36484593Y-40245850D01*
X36599687Y-40159690D01*
X36599690Y-40159687D01*
X36685850Y-40044593D01*
X36685854Y-40044586D01*
X36736096Y-39909879D01*
X36736098Y-39909872D01*
X36742499Y-39850344D01*
X36742500Y-39850327D01*
X36742500Y-39040000D01*
X36021856Y-39040000D01*
X35954817Y-39020315D01*
X35909062Y-38967511D01*
X35899118Y-38898353D01*
X35901460Y-38886324D01*
X35904999Y-38871964D01*
X35905000Y-38871960D01*
X35905000Y-38790000D01*
X37212322Y-38790000D01*
X37231006Y-39027414D01*
X37286600Y-39258983D01*
X37377738Y-39479011D01*
X37502169Y-39682064D01*
X37502170Y-39682065D01*
X37502171Y-39682067D01*
X37502173Y-39682069D01*
X37656840Y-39863160D01*
X37837931Y-40017827D01*
X37837933Y-40017828D01*
X37837934Y-40017829D01*
X37837935Y-40017830D01*
X38040988Y-40142261D01*
X38083066Y-40159690D01*
X38261012Y-40233398D01*
X38492583Y-40288993D01*
X38730000Y-40307678D01*
X38967417Y-40288993D01*
X39198988Y-40233398D01*
X39419011Y-40142261D01*
X39622069Y-40017827D01*
X39803160Y-39863160D01*
X39957827Y-39682069D01*
X40082261Y-39479011D01*
X40173398Y-39258988D01*
X40228993Y-39027417D01*
X40247678Y-38790000D01*
X40712322Y-38790000D01*
X40731006Y-39027414D01*
X40786600Y-39258983D01*
X40877738Y-39479011D01*
X41002169Y-39682064D01*
X41002170Y-39682065D01*
X41002171Y-39682067D01*
X41002173Y-39682069D01*
X41156840Y-39863160D01*
X41337931Y-40017827D01*
X41337933Y-40017828D01*
X41337934Y-40017829D01*
X41337935Y-40017830D01*
X41540988Y-40142261D01*
X41583066Y-40159690D01*
X41761012Y-40233398D01*
X41992583Y-40288993D01*
X42230000Y-40307678D01*
X42467417Y-40288993D01*
X42698988Y-40233398D01*
X42919011Y-40142261D01*
X43122069Y-40017827D01*
X43303160Y-39863160D01*
X43457827Y-39682069D01*
X43582261Y-39479011D01*
X43673398Y-39258988D01*
X43728993Y-39027417D01*
X43747678Y-38790000D01*
X43747678Y-38789999D01*
X44212322Y-38789999D01*
X44231006Y-39027414D01*
X44286600Y-39258983D01*
X44377738Y-39479011D01*
X44502169Y-39682064D01*
X44502170Y-39682065D01*
X44502171Y-39682067D01*
X44502173Y-39682069D01*
X44656840Y-39863160D01*
X44837931Y-40017827D01*
X44837933Y-40017828D01*
X44837934Y-40017829D01*
X44837935Y-40017830D01*
X45040988Y-40142261D01*
X45083066Y-40159690D01*
X45261012Y-40233398D01*
X45492583Y-40288993D01*
X45730000Y-40307678D01*
X45967417Y-40288993D01*
X46198988Y-40233398D01*
X46419011Y-40142261D01*
X46622069Y-40017827D01*
X46803160Y-39863160D01*
X46957827Y-39682069D01*
X47082261Y-39479011D01*
X47173398Y-39258988D01*
X47228993Y-39027417D01*
X47247678Y-38790000D01*
X47247678Y-38789999D01*
X47712322Y-38789999D01*
X47731006Y-39027414D01*
X47786600Y-39258983D01*
X47877738Y-39479011D01*
X48002169Y-39682064D01*
X48002170Y-39682065D01*
X48002171Y-39682067D01*
X48002173Y-39682069D01*
X48156840Y-39863160D01*
X48337931Y-40017827D01*
X48337933Y-40017828D01*
X48337934Y-40017829D01*
X48337935Y-40017830D01*
X48540988Y-40142261D01*
X48583066Y-40159690D01*
X48761012Y-40233398D01*
X48992583Y-40288993D01*
X49230000Y-40307678D01*
X49467417Y-40288993D01*
X49698988Y-40233398D01*
X49919011Y-40142261D01*
X50122069Y-40017827D01*
X50303160Y-39863160D01*
X50457827Y-39682069D01*
X50582261Y-39479011D01*
X50673398Y-39258988D01*
X50728993Y-39027417D01*
X50747678Y-38790000D01*
X50747678Y-38789999D01*
X51212322Y-38789999D01*
X51231006Y-39027414D01*
X51286600Y-39258983D01*
X51377738Y-39479011D01*
X51502169Y-39682064D01*
X51502170Y-39682065D01*
X51502171Y-39682067D01*
X51502173Y-39682069D01*
X51656840Y-39863160D01*
X51837931Y-40017827D01*
X51837933Y-40017828D01*
X51837934Y-40017829D01*
X51837935Y-40017830D01*
X52040988Y-40142261D01*
X52083066Y-40159690D01*
X52261012Y-40233398D01*
X52492583Y-40288993D01*
X52730000Y-40307678D01*
X52967417Y-40288993D01*
X53198988Y-40233398D01*
X53419011Y-40142261D01*
X53622069Y-40017827D01*
X53803160Y-39863160D01*
X53957827Y-39682069D01*
X54082261Y-39479011D01*
X54173398Y-39258988D01*
X54228993Y-39027417D01*
X54247678Y-38790000D01*
X54712322Y-38790000D01*
X54731006Y-39027414D01*
X54786600Y-39258983D01*
X54877738Y-39479011D01*
X55002169Y-39682064D01*
X55002170Y-39682065D01*
X55002171Y-39682067D01*
X55002173Y-39682069D01*
X55156840Y-39863160D01*
X55337931Y-40017827D01*
X55337933Y-40017828D01*
X55337934Y-40017829D01*
X55337935Y-40017830D01*
X55540988Y-40142261D01*
X55583066Y-40159690D01*
X55761012Y-40233398D01*
X55992583Y-40288993D01*
X56230000Y-40307678D01*
X56467417Y-40288993D01*
X56698988Y-40233398D01*
X56919011Y-40142261D01*
X57122069Y-40017827D01*
X57303160Y-39863160D01*
X57457827Y-39682069D01*
X57582261Y-39479011D01*
X57673398Y-39258988D01*
X57728993Y-39027417D01*
X57747678Y-38790000D01*
X57747678Y-38789999D01*
X58212322Y-38789999D01*
X58231006Y-39027414D01*
X58286600Y-39258983D01*
X58377738Y-39479011D01*
X58502169Y-39682064D01*
X58502170Y-39682065D01*
X58502171Y-39682067D01*
X58502173Y-39682069D01*
X58656840Y-39863160D01*
X58837931Y-40017827D01*
X58837933Y-40017828D01*
X58837934Y-40017829D01*
X58837935Y-40017830D01*
X59040988Y-40142261D01*
X59083066Y-40159690D01*
X59261012Y-40233398D01*
X59492583Y-40288993D01*
X59730000Y-40307678D01*
X59967417Y-40288993D01*
X60198988Y-40233398D01*
X60419011Y-40142261D01*
X60622069Y-40017827D01*
X60803160Y-39863160D01*
X60957827Y-39682069D01*
X61082261Y-39479011D01*
X61173398Y-39258988D01*
X61228993Y-39027417D01*
X61247678Y-38790000D01*
X61247678Y-38789999D01*
X63447322Y-38789999D01*
X63466006Y-39027414D01*
X63521600Y-39258983D01*
X63612738Y-39479011D01*
X63737169Y-39682064D01*
X63737170Y-39682065D01*
X63737171Y-39682067D01*
X63737173Y-39682069D01*
X63891840Y-39863160D01*
X64072931Y-40017827D01*
X64072933Y-40017828D01*
X64072934Y-40017829D01*
X64072935Y-40017830D01*
X64275988Y-40142261D01*
X64318066Y-40159690D01*
X64496012Y-40233398D01*
X64727583Y-40288993D01*
X64965000Y-40307678D01*
X65202417Y-40288993D01*
X65433988Y-40233398D01*
X65654011Y-40142261D01*
X65857069Y-40017827D01*
X66038160Y-39863160D01*
X66192827Y-39682069D01*
X66317261Y-39479011D01*
X66408398Y-39258988D01*
X66463993Y-39027417D01*
X66482678Y-38790000D01*
X66482678Y-38789999D01*
X66947322Y-38789999D01*
X66966006Y-39027414D01*
X67021600Y-39258983D01*
X67112738Y-39479011D01*
X67237169Y-39682064D01*
X67237170Y-39682065D01*
X67237171Y-39682067D01*
X67237173Y-39682069D01*
X67391840Y-39863160D01*
X67572931Y-40017827D01*
X67572933Y-40017828D01*
X67572934Y-40017829D01*
X67572935Y-40017830D01*
X67775988Y-40142261D01*
X67818066Y-40159690D01*
X67996012Y-40233398D01*
X68227583Y-40288993D01*
X68465000Y-40307678D01*
X68702417Y-40288993D01*
X68933988Y-40233398D01*
X69154011Y-40142261D01*
X69357069Y-40017827D01*
X69538160Y-39863160D01*
X69692827Y-39682069D01*
X69817261Y-39479011D01*
X69908398Y-39258988D01*
X69963993Y-39027417D01*
X69982678Y-38790000D01*
X69982678Y-38789999D01*
X70447322Y-38789999D01*
X70466006Y-39027414D01*
X70521600Y-39258983D01*
X70612738Y-39479011D01*
X70737169Y-39682064D01*
X70737170Y-39682065D01*
X70737171Y-39682067D01*
X70737173Y-39682069D01*
X70891840Y-39863160D01*
X71072931Y-40017827D01*
X71072933Y-40017828D01*
X71072934Y-40017829D01*
X71072935Y-40017830D01*
X71275988Y-40142261D01*
X71318066Y-40159690D01*
X71496012Y-40233398D01*
X71727583Y-40288993D01*
X71965000Y-40307678D01*
X72202417Y-40288993D01*
X72433988Y-40233398D01*
X72654011Y-40142261D01*
X72857069Y-40017827D01*
X73038160Y-39863160D01*
X73192827Y-39682069D01*
X73317261Y-39479011D01*
X73408398Y-39258988D01*
X73463993Y-39027417D01*
X73482678Y-38790000D01*
X73482678Y-38789999D01*
X73947322Y-38789999D01*
X73966006Y-39027414D01*
X74021600Y-39258983D01*
X74112738Y-39479011D01*
X74237169Y-39682064D01*
X74237170Y-39682065D01*
X74237171Y-39682067D01*
X74237173Y-39682069D01*
X74391840Y-39863160D01*
X74572931Y-40017827D01*
X74572933Y-40017828D01*
X74572934Y-40017829D01*
X74572935Y-40017830D01*
X74775988Y-40142261D01*
X74818066Y-40159690D01*
X74996012Y-40233398D01*
X75227583Y-40288993D01*
X75465000Y-40307678D01*
X75702417Y-40288993D01*
X75933988Y-40233398D01*
X76154011Y-40142261D01*
X76357069Y-40017827D01*
X76538160Y-39863160D01*
X76692827Y-39682069D01*
X76817261Y-39479011D01*
X76908398Y-39258988D01*
X76963993Y-39027417D01*
X76982678Y-38790000D01*
X77447823Y-38790000D01*
X77466502Y-39027342D01*
X77522078Y-39258833D01*
X77522078Y-39258834D01*
X77613182Y-39478780D01*
X77613184Y-39478783D01*
X77730774Y-39670672D01*
X78227601Y-39173844D01*
X78288924Y-39140359D01*
X78358615Y-39145343D01*
X78408096Y-39179296D01*
X78478696Y-39258988D01*
X78514104Y-39298956D01*
X78566474Y-39335104D01*
X78610464Y-39389386D01*
X78618124Y-39458835D01*
X78587021Y-39521400D01*
X78583715Y-39524835D01*
X78084326Y-40024224D01*
X78276216Y-40141815D01*
X78276219Y-40141817D01*
X78496166Y-40232921D01*
X78727657Y-40288497D01*
X78965000Y-40307176D01*
X79202342Y-40288497D01*
X79433833Y-40232921D01*
X79433834Y-40232921D01*
X79653780Y-40141817D01*
X79653783Y-40141815D01*
X79845672Y-40024225D01*
X79845672Y-40024224D01*
X79346283Y-39524836D01*
X79312798Y-39463513D01*
X79317782Y-39393822D01*
X79359653Y-39337888D01*
X79363493Y-39335126D01*
X79415896Y-39298956D01*
X79521902Y-39179297D01*
X79581090Y-39142173D01*
X79650956Y-39142940D01*
X79702398Y-39173845D01*
X80199224Y-39670672D01*
X80199225Y-39670672D01*
X80316815Y-39478783D01*
X80316817Y-39478780D01*
X80407921Y-39258834D01*
X80407921Y-39258833D01*
X80463497Y-39027342D01*
X80482176Y-38790000D01*
X80947823Y-38790000D01*
X80966502Y-39027342D01*
X81022078Y-39258833D01*
X81022078Y-39258834D01*
X81113182Y-39478780D01*
X81113184Y-39478783D01*
X81230774Y-39670672D01*
X81727601Y-39173844D01*
X81788924Y-39140359D01*
X81858615Y-39145343D01*
X81908096Y-39179296D01*
X81978696Y-39258988D01*
X82014104Y-39298956D01*
X82066474Y-39335104D01*
X82110464Y-39389386D01*
X82118124Y-39458835D01*
X82087021Y-39521400D01*
X82083715Y-39524835D01*
X81584326Y-40024224D01*
X81776216Y-40141815D01*
X81776219Y-40141817D01*
X81996166Y-40232921D01*
X82227657Y-40288497D01*
X82465000Y-40307176D01*
X82702342Y-40288497D01*
X82933833Y-40232921D01*
X82933834Y-40232921D01*
X83153780Y-40141817D01*
X83153783Y-40141815D01*
X83345672Y-40024225D01*
X83345672Y-40024224D01*
X82846283Y-39524836D01*
X82812798Y-39463513D01*
X82817782Y-39393822D01*
X82859653Y-39337888D01*
X82863493Y-39335126D01*
X82915896Y-39298956D01*
X83021902Y-39179297D01*
X83081090Y-39142173D01*
X83150956Y-39142940D01*
X83202398Y-39173845D01*
X83699224Y-39670672D01*
X83699225Y-39670672D01*
X83816815Y-39478783D01*
X83816817Y-39478780D01*
X83907921Y-39258834D01*
X83907921Y-39258833D01*
X83963497Y-39027342D01*
X83982176Y-38790000D01*
X84447823Y-38790000D01*
X84466502Y-39027342D01*
X84522078Y-39258833D01*
X84522078Y-39258834D01*
X84613182Y-39478780D01*
X84613184Y-39478783D01*
X84730774Y-39670672D01*
X85227601Y-39173844D01*
X85288924Y-39140359D01*
X85358615Y-39145343D01*
X85408096Y-39179296D01*
X85478696Y-39258988D01*
X85514104Y-39298956D01*
X85566474Y-39335104D01*
X85610464Y-39389386D01*
X85618124Y-39458835D01*
X85587021Y-39521400D01*
X85583715Y-39524835D01*
X85084326Y-40024224D01*
X85276216Y-40141815D01*
X85276219Y-40141817D01*
X85496166Y-40232921D01*
X85727657Y-40288497D01*
X85964999Y-40307176D01*
X86202342Y-40288497D01*
X86433833Y-40232921D01*
X86433834Y-40232921D01*
X86653780Y-40141817D01*
X86653783Y-40141815D01*
X86845672Y-40024225D01*
X86845672Y-40024224D01*
X86346283Y-39524836D01*
X86312798Y-39463513D01*
X86317782Y-39393822D01*
X86359653Y-39337888D01*
X86363493Y-39335126D01*
X86415896Y-39298956D01*
X86521902Y-39179297D01*
X86581090Y-39142173D01*
X86650956Y-39142940D01*
X86702398Y-39173845D01*
X87199224Y-39670672D01*
X87199225Y-39670672D01*
X87316815Y-39478783D01*
X87316817Y-39478780D01*
X87407921Y-39258834D01*
X87407921Y-39258833D01*
X87463497Y-39027342D01*
X87482176Y-38790000D01*
X87947823Y-38790000D01*
X87966502Y-39027342D01*
X88022078Y-39258833D01*
X88022078Y-39258834D01*
X88113182Y-39478780D01*
X88113184Y-39478783D01*
X88230774Y-39670672D01*
X88727601Y-39173844D01*
X88788924Y-39140359D01*
X88858615Y-39145343D01*
X88908096Y-39179296D01*
X88978696Y-39258988D01*
X89014104Y-39298956D01*
X89066474Y-39335104D01*
X89110464Y-39389386D01*
X89118124Y-39458835D01*
X89087021Y-39521400D01*
X89083715Y-39524835D01*
X88584326Y-40024224D01*
X88776216Y-40141815D01*
X88776219Y-40141817D01*
X88996166Y-40232921D01*
X89227657Y-40288497D01*
X89465000Y-40307176D01*
X89702342Y-40288497D01*
X89933833Y-40232921D01*
X89933834Y-40232921D01*
X90153780Y-40141817D01*
X90153783Y-40141815D01*
X90345672Y-40024225D01*
X90345672Y-40024224D01*
X89846283Y-39524836D01*
X89812798Y-39463513D01*
X89817782Y-39393822D01*
X89859653Y-39337888D01*
X89863493Y-39335126D01*
X89915896Y-39298956D01*
X90021902Y-39179297D01*
X90081090Y-39142173D01*
X90150956Y-39142940D01*
X90202398Y-39173845D01*
X90699224Y-39670672D01*
X90699225Y-39670672D01*
X90816815Y-39478783D01*
X90816817Y-39478780D01*
X90907921Y-39258834D01*
X90907921Y-39258833D01*
X90963497Y-39027342D01*
X90982176Y-38790000D01*
X90982176Y-38789999D01*
X93182322Y-38789999D01*
X93201006Y-39027414D01*
X93256600Y-39258983D01*
X93347738Y-39479011D01*
X93472169Y-39682064D01*
X93472170Y-39682065D01*
X93472171Y-39682067D01*
X93472173Y-39682069D01*
X93626840Y-39863160D01*
X93807931Y-40017827D01*
X93807933Y-40017828D01*
X93807934Y-40017829D01*
X93807935Y-40017830D01*
X94010988Y-40142261D01*
X94053066Y-40159690D01*
X94231012Y-40233398D01*
X94462583Y-40288993D01*
X94700000Y-40307678D01*
X94937417Y-40288993D01*
X95168988Y-40233398D01*
X95389011Y-40142261D01*
X95592069Y-40017827D01*
X95773160Y-39863160D01*
X95784106Y-39850344D01*
X96687500Y-39850344D01*
X96693901Y-39909872D01*
X96693903Y-39909879D01*
X96744145Y-40044586D01*
X96744149Y-40044593D01*
X96830309Y-40159687D01*
X96830312Y-40159690D01*
X96945406Y-40245850D01*
X96945413Y-40245854D01*
X97080120Y-40296096D01*
X97080127Y-40296098D01*
X97139655Y-40302499D01*
X97139672Y-40302500D01*
X97950000Y-40302500D01*
X97950000Y-39579570D01*
X97969685Y-39512531D01*
X98022489Y-39466776D01*
X98088947Y-39456474D01*
X98159164Y-39465000D01*
X98159166Y-39465000D01*
X98240836Y-39465000D01*
X98311053Y-39456474D01*
X98379977Y-39467934D01*
X98431763Y-39514838D01*
X98450000Y-39579570D01*
X98450000Y-40302500D01*
X99260328Y-40302500D01*
X99260344Y-40302499D01*
X99319872Y-40296098D01*
X99319879Y-40296096D01*
X99454586Y-40245854D01*
X99454593Y-40245850D01*
X99569687Y-40159690D01*
X99569690Y-40159687D01*
X99655850Y-40044593D01*
X99655854Y-40044586D01*
X99706096Y-39909879D01*
X99706098Y-39909872D01*
X99712499Y-39850344D01*
X99712500Y-39850327D01*
X99712500Y-39040000D01*
X98991856Y-39040000D01*
X98924817Y-39020315D01*
X98879062Y-38967511D01*
X98869118Y-38898353D01*
X98871460Y-38886324D01*
X98874999Y-38871964D01*
X98875000Y-38871960D01*
X98875000Y-38708039D01*
X98874999Y-38708035D01*
X98871460Y-38693676D01*
X98874528Y-38623874D01*
X98914847Y-38566812D01*
X98979616Y-38540606D01*
X98991856Y-38540000D01*
X99712500Y-38540000D01*
X99712500Y-37729672D01*
X99712499Y-37729655D01*
X99706098Y-37670127D01*
X99706096Y-37670120D01*
X99655854Y-37535413D01*
X99655850Y-37535406D01*
X99569690Y-37420312D01*
X99569687Y-37420309D01*
X99454593Y-37334149D01*
X99454586Y-37334145D01*
X99319879Y-37283903D01*
X99319872Y-37283901D01*
X99260344Y-37277500D01*
X98450000Y-37277500D01*
X98449999Y-38000429D01*
X98430314Y-38067469D01*
X98377510Y-38113223D01*
X98311054Y-38123525D01*
X98240839Y-38115000D01*
X98240834Y-38115000D01*
X98159166Y-38115000D01*
X98159161Y-38115000D01*
X98088945Y-38123525D01*
X98020022Y-38112064D01*
X97968236Y-38065160D01*
X97950000Y-38000429D01*
X97950000Y-37277500D01*
X97139655Y-37277500D01*
X97080127Y-37283901D01*
X97080120Y-37283903D01*
X96945413Y-37334145D01*
X96945406Y-37334149D01*
X96830312Y-37420309D01*
X96830309Y-37420312D01*
X96744149Y-37535406D01*
X96744145Y-37535413D01*
X96693903Y-37670120D01*
X96693901Y-37670127D01*
X96687500Y-37729655D01*
X96687500Y-38540000D01*
X97408144Y-38540000D01*
X97475183Y-38559685D01*
X97520938Y-38612489D01*
X97530882Y-38681647D01*
X97528540Y-38693676D01*
X97525000Y-38708035D01*
X97525000Y-38871964D01*
X97528540Y-38886324D01*
X97525472Y-38956126D01*
X97485153Y-39013188D01*
X97420384Y-39039394D01*
X97408144Y-39040000D01*
X96687500Y-39040000D01*
X96687500Y-39850344D01*
X95784106Y-39850344D01*
X95927827Y-39682069D01*
X96052261Y-39479011D01*
X96143398Y-39258988D01*
X96198993Y-39027417D01*
X96217678Y-38790000D01*
X96198993Y-38552583D01*
X96143398Y-38321012D01*
X96061596Y-38123525D01*
X96052261Y-38100988D01*
X95927830Y-37897935D01*
X95927829Y-37897934D01*
X95927828Y-37897933D01*
X95927827Y-37897931D01*
X95773160Y-37716840D01*
X95592069Y-37562173D01*
X95592067Y-37562171D01*
X95592065Y-37562170D01*
X95592064Y-37562169D01*
X95389011Y-37437738D01*
X95168983Y-37346600D01*
X94937413Y-37291006D01*
X94937414Y-37291006D01*
X94700000Y-37272322D01*
X94462585Y-37291006D01*
X94231016Y-37346600D01*
X94010988Y-37437738D01*
X93807935Y-37562169D01*
X93807934Y-37562170D01*
X93626840Y-37716840D01*
X93472170Y-37897934D01*
X93472169Y-37897935D01*
X93347738Y-38100988D01*
X93256600Y-38321016D01*
X93201006Y-38552585D01*
X93182322Y-38789999D01*
X90982176Y-38789999D01*
X90963497Y-38552657D01*
X90907921Y-38321166D01*
X90907921Y-38321165D01*
X90816817Y-38101219D01*
X90816815Y-38101216D01*
X90699224Y-37909326D01*
X90202397Y-38406154D01*
X90141074Y-38439639D01*
X90071382Y-38434655D01*
X90021902Y-38400701D01*
X89915896Y-38281044D01*
X89863522Y-38244893D01*
X89819533Y-38190612D01*
X89811873Y-38121163D01*
X89842976Y-38058598D01*
X89846282Y-38055163D01*
X90345672Y-37555774D01*
X90153783Y-37438184D01*
X90153780Y-37438182D01*
X89933833Y-37347078D01*
X89702342Y-37291502D01*
X89464999Y-37272823D01*
X89227657Y-37291502D01*
X88996166Y-37347078D01*
X88996165Y-37347078D01*
X88776227Y-37438179D01*
X88776224Y-37438181D01*
X88584327Y-37555775D01*
X89083716Y-38055163D01*
X89117201Y-38116486D01*
X89112217Y-38186177D01*
X89070346Y-38242111D01*
X89066476Y-38244893D01*
X89014103Y-38281044D01*
X88908097Y-38400700D01*
X88848908Y-38437827D01*
X88779042Y-38437059D01*
X88727601Y-38406154D01*
X88230775Y-37909327D01*
X88113181Y-38101224D01*
X88113179Y-38101227D01*
X88022078Y-38321165D01*
X88022078Y-38321166D01*
X87966502Y-38552657D01*
X87947823Y-38790000D01*
X87482176Y-38790000D01*
X87463497Y-38552657D01*
X87407921Y-38321166D01*
X87407921Y-38321165D01*
X87316817Y-38101219D01*
X87316815Y-38101216D01*
X87199224Y-37909326D01*
X86702397Y-38406154D01*
X86641074Y-38439639D01*
X86571382Y-38434655D01*
X86521902Y-38400701D01*
X86415896Y-38281044D01*
X86363522Y-38244893D01*
X86319533Y-38190612D01*
X86311873Y-38121163D01*
X86342976Y-38058598D01*
X86346282Y-38055163D01*
X86845672Y-37555774D01*
X86653783Y-37438184D01*
X86653780Y-37438182D01*
X86433833Y-37347078D01*
X86202342Y-37291502D01*
X85965000Y-37272823D01*
X85727657Y-37291502D01*
X85496166Y-37347078D01*
X85496165Y-37347078D01*
X85276227Y-37438179D01*
X85276224Y-37438181D01*
X85084327Y-37555775D01*
X85583716Y-38055163D01*
X85617201Y-38116486D01*
X85612217Y-38186177D01*
X85570346Y-38242111D01*
X85566476Y-38244893D01*
X85514103Y-38281044D01*
X85408097Y-38400700D01*
X85348908Y-38437827D01*
X85279042Y-38437059D01*
X85227601Y-38406154D01*
X84730775Y-37909327D01*
X84613181Y-38101224D01*
X84613179Y-38101227D01*
X84522078Y-38321165D01*
X84522078Y-38321166D01*
X84466502Y-38552657D01*
X84447823Y-38790000D01*
X83982176Y-38790000D01*
X83963497Y-38552657D01*
X83907921Y-38321166D01*
X83907921Y-38321165D01*
X83816817Y-38101219D01*
X83816815Y-38101216D01*
X83699224Y-37909326D01*
X83202397Y-38406154D01*
X83141074Y-38439639D01*
X83071382Y-38434655D01*
X83021902Y-38400701D01*
X82915896Y-38281044D01*
X82863522Y-38244893D01*
X82819533Y-38190612D01*
X82811873Y-38121163D01*
X82842976Y-38058598D01*
X82846282Y-38055163D01*
X83345672Y-37555774D01*
X83153783Y-37438184D01*
X83153780Y-37438182D01*
X82933833Y-37347078D01*
X82702342Y-37291502D01*
X82465000Y-37272823D01*
X82227657Y-37291502D01*
X81996166Y-37347078D01*
X81996165Y-37347078D01*
X81776227Y-37438179D01*
X81776224Y-37438181D01*
X81584327Y-37555775D01*
X82083716Y-38055163D01*
X82117201Y-38116486D01*
X82112217Y-38186177D01*
X82070346Y-38242111D01*
X82066476Y-38244893D01*
X82014103Y-38281044D01*
X81908097Y-38400700D01*
X81848908Y-38437827D01*
X81779042Y-38437059D01*
X81727601Y-38406154D01*
X81230775Y-37909327D01*
X81113181Y-38101224D01*
X81113179Y-38101227D01*
X81022078Y-38321165D01*
X81022078Y-38321166D01*
X80966502Y-38552657D01*
X80947823Y-38790000D01*
X80482176Y-38790000D01*
X80482176Y-38789999D01*
X80463497Y-38552657D01*
X80407921Y-38321166D01*
X80407921Y-38321165D01*
X80316817Y-38101219D01*
X80316815Y-38101216D01*
X80199224Y-37909326D01*
X79702397Y-38406154D01*
X79641074Y-38439639D01*
X79571382Y-38434655D01*
X79521902Y-38400701D01*
X79415896Y-38281044D01*
X79363522Y-38244893D01*
X79319533Y-38190612D01*
X79311873Y-38121163D01*
X79342976Y-38058598D01*
X79346282Y-38055163D01*
X79845672Y-37555774D01*
X79653783Y-37438184D01*
X79653780Y-37438182D01*
X79433833Y-37347078D01*
X79202342Y-37291502D01*
X78965000Y-37272823D01*
X78727657Y-37291502D01*
X78496166Y-37347078D01*
X78496165Y-37347078D01*
X78276227Y-37438179D01*
X78276224Y-37438181D01*
X78084327Y-37555775D01*
X78583716Y-38055163D01*
X78617201Y-38116486D01*
X78612217Y-38186177D01*
X78570346Y-38242111D01*
X78566476Y-38244893D01*
X78514103Y-38281044D01*
X78408097Y-38400700D01*
X78348908Y-38437827D01*
X78279042Y-38437059D01*
X78227601Y-38406154D01*
X77730775Y-37909327D01*
X77613181Y-38101224D01*
X77613179Y-38101227D01*
X77522078Y-38321165D01*
X77522078Y-38321166D01*
X77466502Y-38552657D01*
X77447823Y-38790000D01*
X76982678Y-38790000D01*
X76963993Y-38552583D01*
X76908398Y-38321012D01*
X76826596Y-38123525D01*
X76817261Y-38100988D01*
X76692830Y-37897935D01*
X76692829Y-37897934D01*
X76692828Y-37897933D01*
X76692827Y-37897931D01*
X76538160Y-37716840D01*
X76357069Y-37562173D01*
X76357067Y-37562171D01*
X76357065Y-37562170D01*
X76357064Y-37562169D01*
X76154011Y-37437738D01*
X75933983Y-37346600D01*
X75702413Y-37291006D01*
X75702414Y-37291006D01*
X75465000Y-37272322D01*
X75227585Y-37291006D01*
X74996016Y-37346600D01*
X74775988Y-37437738D01*
X74572935Y-37562169D01*
X74572934Y-37562170D01*
X74391840Y-37716840D01*
X74237170Y-37897934D01*
X74237169Y-37897935D01*
X74112738Y-38100988D01*
X74021600Y-38321016D01*
X73966006Y-38552585D01*
X73947322Y-38789999D01*
X73482678Y-38789999D01*
X73463993Y-38552583D01*
X73408398Y-38321012D01*
X73326596Y-38123525D01*
X73317261Y-38100988D01*
X73192830Y-37897935D01*
X73192829Y-37897934D01*
X73192828Y-37897933D01*
X73192827Y-37897931D01*
X73038160Y-37716840D01*
X72857069Y-37562173D01*
X72857067Y-37562171D01*
X72857065Y-37562170D01*
X72857064Y-37562169D01*
X72654011Y-37437738D01*
X72433983Y-37346600D01*
X72202413Y-37291006D01*
X72202414Y-37291006D01*
X71965000Y-37272322D01*
X71727585Y-37291006D01*
X71496016Y-37346600D01*
X71275988Y-37437738D01*
X71072935Y-37562169D01*
X71072934Y-37562170D01*
X70891840Y-37716840D01*
X70737170Y-37897934D01*
X70737169Y-37897935D01*
X70612738Y-38100988D01*
X70521600Y-38321016D01*
X70466006Y-38552585D01*
X70447322Y-38789999D01*
X69982678Y-38789999D01*
X69963993Y-38552583D01*
X69908398Y-38321012D01*
X69826596Y-38123525D01*
X69817261Y-38100988D01*
X69692830Y-37897935D01*
X69692829Y-37897934D01*
X69692828Y-37897933D01*
X69692827Y-37897931D01*
X69538160Y-37716840D01*
X69357069Y-37562173D01*
X69357067Y-37562171D01*
X69357065Y-37562170D01*
X69357064Y-37562169D01*
X69154011Y-37437738D01*
X68933983Y-37346600D01*
X68702413Y-37291006D01*
X68702414Y-37291006D01*
X68487174Y-37274067D01*
X68465000Y-37272322D01*
X68464999Y-37272322D01*
X68227585Y-37291006D01*
X67996016Y-37346600D01*
X67775988Y-37437738D01*
X67572935Y-37562169D01*
X67572934Y-37562170D01*
X67391840Y-37716840D01*
X67237170Y-37897934D01*
X67237169Y-37897935D01*
X67112738Y-38100988D01*
X67021600Y-38321016D01*
X66966006Y-38552585D01*
X66947322Y-38789999D01*
X66482678Y-38789999D01*
X66463993Y-38552583D01*
X66408398Y-38321012D01*
X66326596Y-38123525D01*
X66317261Y-38100988D01*
X66192830Y-37897935D01*
X66192829Y-37897934D01*
X66192828Y-37897933D01*
X66192827Y-37897931D01*
X66038160Y-37716840D01*
X65857069Y-37562173D01*
X65857067Y-37562171D01*
X65857065Y-37562170D01*
X65857064Y-37562169D01*
X65654011Y-37437738D01*
X65433983Y-37346600D01*
X65202413Y-37291006D01*
X65202414Y-37291006D01*
X64987174Y-37274067D01*
X64965000Y-37272322D01*
X64964999Y-37272322D01*
X64727585Y-37291006D01*
X64496016Y-37346600D01*
X64275988Y-37437738D01*
X64072935Y-37562169D01*
X64072934Y-37562170D01*
X63891840Y-37716840D01*
X63737170Y-37897934D01*
X63737169Y-37897935D01*
X63612738Y-38100988D01*
X63521600Y-38321016D01*
X63466006Y-38552585D01*
X63447322Y-38789999D01*
X61247678Y-38789999D01*
X61228993Y-38552583D01*
X61173398Y-38321012D01*
X61091596Y-38123525D01*
X61082261Y-38100988D01*
X60957830Y-37897935D01*
X60957829Y-37897934D01*
X60957828Y-37897933D01*
X60957827Y-37897931D01*
X60803160Y-37716840D01*
X60622069Y-37562173D01*
X60622067Y-37562171D01*
X60622065Y-37562170D01*
X60622064Y-37562169D01*
X60419011Y-37437738D01*
X60198983Y-37346600D01*
X59967413Y-37291006D01*
X59967414Y-37291006D01*
X59730000Y-37272322D01*
X59492585Y-37291006D01*
X59261016Y-37346600D01*
X59040988Y-37437738D01*
X58837935Y-37562169D01*
X58837934Y-37562170D01*
X58656840Y-37716840D01*
X58502170Y-37897934D01*
X58502169Y-37897935D01*
X58377738Y-38100988D01*
X58286600Y-38321016D01*
X58231006Y-38552585D01*
X58212322Y-38789999D01*
X57747678Y-38789999D01*
X57728993Y-38552583D01*
X57673398Y-38321012D01*
X57591596Y-38123525D01*
X57582261Y-38100988D01*
X57457830Y-37897935D01*
X57457829Y-37897934D01*
X57457828Y-37897933D01*
X57457827Y-37897931D01*
X57303160Y-37716840D01*
X57122069Y-37562173D01*
X57122067Y-37562171D01*
X57122065Y-37562170D01*
X57122064Y-37562169D01*
X56919011Y-37437738D01*
X56698983Y-37346600D01*
X56467413Y-37291006D01*
X56467414Y-37291006D01*
X56230000Y-37272322D01*
X55992585Y-37291006D01*
X55761016Y-37346600D01*
X55540988Y-37437738D01*
X55337935Y-37562169D01*
X55337934Y-37562170D01*
X55156840Y-37716840D01*
X55002170Y-37897934D01*
X55002169Y-37897935D01*
X54877738Y-38100988D01*
X54786600Y-38321016D01*
X54731006Y-38552585D01*
X54712322Y-38790000D01*
X54247678Y-38790000D01*
X54228993Y-38552583D01*
X54173398Y-38321012D01*
X54091596Y-38123525D01*
X54082261Y-38100988D01*
X53957830Y-37897935D01*
X53957829Y-37897934D01*
X53957828Y-37897933D01*
X53957827Y-37897931D01*
X53803160Y-37716840D01*
X53622069Y-37562173D01*
X53622067Y-37562171D01*
X53622065Y-37562170D01*
X53622064Y-37562169D01*
X53419011Y-37437738D01*
X53198983Y-37346600D01*
X52967413Y-37291006D01*
X52967414Y-37291006D01*
X52752174Y-37274067D01*
X52730000Y-37272322D01*
X52729999Y-37272322D01*
X52492585Y-37291006D01*
X52261016Y-37346600D01*
X52040988Y-37437738D01*
X51837935Y-37562169D01*
X51837934Y-37562170D01*
X51656840Y-37716840D01*
X51502170Y-37897934D01*
X51502169Y-37897935D01*
X51377738Y-38100988D01*
X51286600Y-38321016D01*
X51231006Y-38552585D01*
X51212322Y-38789999D01*
X50747678Y-38789999D01*
X50728993Y-38552583D01*
X50673398Y-38321012D01*
X50591596Y-38123525D01*
X50582261Y-38100988D01*
X50457830Y-37897935D01*
X50457829Y-37897934D01*
X50457828Y-37897933D01*
X50457827Y-37897931D01*
X50303160Y-37716840D01*
X50122069Y-37562173D01*
X50122067Y-37562171D01*
X50122065Y-37562170D01*
X50122064Y-37562169D01*
X49919011Y-37437738D01*
X49698983Y-37346600D01*
X49467413Y-37291006D01*
X49467414Y-37291006D01*
X49230000Y-37272322D01*
X48992585Y-37291006D01*
X48761016Y-37346600D01*
X48540988Y-37437738D01*
X48337935Y-37562169D01*
X48337934Y-37562170D01*
X48156840Y-37716840D01*
X48002170Y-37897934D01*
X48002169Y-37897935D01*
X47877738Y-38100988D01*
X47786600Y-38321016D01*
X47731006Y-38552585D01*
X47712322Y-38789999D01*
X47247678Y-38789999D01*
X47228993Y-38552583D01*
X47173398Y-38321012D01*
X47091596Y-38123525D01*
X47082261Y-38100988D01*
X46957830Y-37897935D01*
X46957829Y-37897934D01*
X46957828Y-37897933D01*
X46957827Y-37897931D01*
X46803160Y-37716840D01*
X46622069Y-37562173D01*
X46622067Y-37562171D01*
X46622065Y-37562170D01*
X46622064Y-37562169D01*
X46419011Y-37437738D01*
X46198983Y-37346600D01*
X45967413Y-37291006D01*
X45967414Y-37291006D01*
X45752174Y-37274067D01*
X45730000Y-37272322D01*
X45729999Y-37272322D01*
X45492585Y-37291006D01*
X45261016Y-37346600D01*
X45040988Y-37437738D01*
X44837935Y-37562169D01*
X44837934Y-37562170D01*
X44656840Y-37716840D01*
X44502170Y-37897934D01*
X44502169Y-37897935D01*
X44377738Y-38100988D01*
X44286600Y-38321016D01*
X44231006Y-38552585D01*
X44212322Y-38789999D01*
X43747678Y-38789999D01*
X43728993Y-38552583D01*
X43673398Y-38321012D01*
X43591596Y-38123525D01*
X43582261Y-38100988D01*
X43457830Y-37897935D01*
X43457829Y-37897934D01*
X43457828Y-37897933D01*
X43457827Y-37897931D01*
X43303160Y-37716840D01*
X43122069Y-37562173D01*
X43122067Y-37562171D01*
X43122065Y-37562170D01*
X43122064Y-37562169D01*
X42919011Y-37437738D01*
X42698983Y-37346600D01*
X42467413Y-37291006D01*
X42467414Y-37291006D01*
X42230000Y-37272322D01*
X41992585Y-37291006D01*
X41761016Y-37346600D01*
X41540988Y-37437738D01*
X41337935Y-37562169D01*
X41337934Y-37562170D01*
X41156840Y-37716840D01*
X41002170Y-37897934D01*
X41002169Y-37897935D01*
X40877738Y-38100988D01*
X40786600Y-38321016D01*
X40731006Y-38552585D01*
X40712322Y-38790000D01*
X40247678Y-38790000D01*
X40228993Y-38552583D01*
X40173398Y-38321012D01*
X40091596Y-38123525D01*
X40082261Y-38100988D01*
X39957830Y-37897935D01*
X39957829Y-37897934D01*
X39957828Y-37897933D01*
X39957827Y-37897931D01*
X39803160Y-37716840D01*
X39622069Y-37562173D01*
X39622067Y-37562171D01*
X39622065Y-37562170D01*
X39622064Y-37562169D01*
X39419011Y-37437738D01*
X39198983Y-37346600D01*
X38967413Y-37291006D01*
X38967414Y-37291006D01*
X38730000Y-37272322D01*
X38492585Y-37291006D01*
X38261016Y-37346600D01*
X38040988Y-37437738D01*
X37837935Y-37562169D01*
X37837934Y-37562170D01*
X37656840Y-37716840D01*
X37502170Y-37897934D01*
X37502169Y-37897935D01*
X37377738Y-38100988D01*
X37286600Y-38321016D01*
X37231006Y-38552585D01*
X37212322Y-38790000D01*
X35905000Y-38790000D01*
X35905000Y-38708039D01*
X35904999Y-38708035D01*
X35901460Y-38693676D01*
X35904528Y-38623874D01*
X35944847Y-38566812D01*
X36009616Y-38540606D01*
X36021856Y-38540000D01*
X36742500Y-38540000D01*
X36742500Y-37729672D01*
X36742499Y-37729655D01*
X36736098Y-37670127D01*
X36736096Y-37670120D01*
X36685854Y-37535413D01*
X36685850Y-37535406D01*
X36599690Y-37420312D01*
X36599687Y-37420309D01*
X36484593Y-37334149D01*
X36484586Y-37334145D01*
X36349879Y-37283903D01*
X36349872Y-37283901D01*
X36290344Y-37277500D01*
X35480000Y-37277500D01*
X35480000Y-38000429D01*
X35460315Y-38067468D01*
X35407511Y-38113223D01*
X35341055Y-38123525D01*
X35270839Y-38115000D01*
X35270834Y-38115000D01*
X35189166Y-38115000D01*
X35189161Y-38115000D01*
X35118945Y-38123525D01*
X35050022Y-38112064D01*
X34998236Y-38065160D01*
X34980000Y-38000429D01*
X34980000Y-37277500D01*
X34169655Y-37277500D01*
X34110127Y-37283901D01*
X34110120Y-37283903D01*
X33975413Y-37334145D01*
X33975406Y-37334149D01*
X33860312Y-37420309D01*
X33860309Y-37420312D01*
X33774149Y-37535406D01*
X33774145Y-37535413D01*
X33723903Y-37670120D01*
X33723901Y-37670127D01*
X33717500Y-37729655D01*
X33717500Y-38540000D01*
X34438144Y-38540000D01*
X34505183Y-38559685D01*
X34550938Y-38612489D01*
X34560882Y-38681647D01*
X34558540Y-38693676D01*
X34555000Y-38708035D01*
X34555000Y-38871964D01*
X34558540Y-38886324D01*
X34555472Y-38956126D01*
X34515153Y-39013188D01*
X34450384Y-39039394D01*
X34438144Y-39040000D01*
X33717500Y-39040000D01*
X33717500Y-39850344D01*
X25400500Y-39850344D01*
X25400500Y-36580328D01*
X25420185Y-36513289D01*
X25472989Y-36467534D01*
X25542147Y-36457590D01*
X25605703Y-36486615D01*
X25643477Y-36545393D01*
X25644275Y-36548235D01*
X25686262Y-36704936D01*
X25825244Y-37066994D01*
X26001310Y-37412543D01*
X26212531Y-37737793D01*
X26421095Y-37995350D01*
X26421096Y-37995350D01*
X27817413Y-36599032D01*
X27878736Y-36565547D01*
X27948427Y-36570531D01*
X27999381Y-36606179D01*
X28075130Y-36694870D01*
X28138855Y-36749296D01*
X28163816Y-36770615D01*
X28202009Y-36829122D01*
X28202507Y-36898990D01*
X28170965Y-36952586D01*
X26774648Y-38348903D01*
X26774649Y-38348904D01*
X27032206Y-38557468D01*
X27357456Y-38768689D01*
X27703005Y-38944755D01*
X28065063Y-39083737D01*
X28439669Y-39184112D01*
X28439676Y-39184113D01*
X28822712Y-39244780D01*
X29209999Y-39265078D01*
X29210001Y-39265078D01*
X29597287Y-39244780D01*
X29980323Y-39184113D01*
X29980330Y-39184112D01*
X30354936Y-39083737D01*
X30716994Y-38944755D01*
X31062543Y-38768689D01*
X31387783Y-38557476D01*
X31387793Y-38557469D01*
X31645349Y-38348902D01*
X30249033Y-36952586D01*
X30215548Y-36891263D01*
X30220532Y-36821571D01*
X30256180Y-36770617D01*
X30344870Y-36694870D01*
X30420617Y-36606180D01*
X30479121Y-36567990D01*
X30548989Y-36567490D01*
X30602586Y-36599033D01*
X31998902Y-37995349D01*
X32207475Y-37737785D01*
X32207476Y-37737783D01*
X32418689Y-37412543D01*
X32594755Y-37066994D01*
X32733737Y-36704936D01*
X32834112Y-36330330D01*
X32834113Y-36330323D01*
X32894780Y-35947287D01*
X32915078Y-35560000D01*
X32915078Y-35559999D01*
X32894780Y-35172712D01*
X32834113Y-34789676D01*
X32834112Y-34789669D01*
X32733737Y-34415063D01*
X32708894Y-34350344D01*
X33717500Y-34350344D01*
X33723901Y-34409872D01*
X33723903Y-34409879D01*
X33774145Y-34544586D01*
X33774149Y-34544593D01*
X33860309Y-34659687D01*
X33860312Y-34659690D01*
X33975406Y-34745850D01*
X33975413Y-34745854D01*
X34110120Y-34796096D01*
X34110127Y-34796098D01*
X34169655Y-34802499D01*
X34169672Y-34802500D01*
X34980000Y-34802500D01*
X34980000Y-34079570D01*
X34999685Y-34012531D01*
X35052489Y-33966776D01*
X35118947Y-33956474D01*
X35189164Y-33965000D01*
X35189166Y-33965000D01*
X35270836Y-33965000D01*
X35341053Y-33956474D01*
X35409977Y-33967934D01*
X35461763Y-34014838D01*
X35480000Y-34079570D01*
X35480000Y-34802500D01*
X36290328Y-34802500D01*
X36290344Y-34802499D01*
X36349872Y-34796098D01*
X36349879Y-34796096D01*
X36484586Y-34745854D01*
X36484593Y-34745850D01*
X36599687Y-34659690D01*
X36599690Y-34659687D01*
X36685850Y-34544593D01*
X36685854Y-34544586D01*
X36736096Y-34409879D01*
X36736098Y-34409872D01*
X36742499Y-34350344D01*
X36742500Y-34350327D01*
X36742500Y-33540000D01*
X36021856Y-33540000D01*
X35954817Y-33520315D01*
X35909062Y-33467511D01*
X35899118Y-33398353D01*
X35901460Y-33386324D01*
X35904999Y-33371964D01*
X35905000Y-33371960D01*
X35905000Y-33289999D01*
X37212322Y-33289999D01*
X37231006Y-33527414D01*
X37286600Y-33758983D01*
X37377738Y-33979011D01*
X37502169Y-34182064D01*
X37502170Y-34182065D01*
X37502171Y-34182067D01*
X37502173Y-34182069D01*
X37656840Y-34363160D01*
X37837931Y-34517827D01*
X37837933Y-34517828D01*
X37837934Y-34517829D01*
X37837935Y-34517830D01*
X38040988Y-34642261D01*
X38089630Y-34662409D01*
X38261012Y-34733398D01*
X38492583Y-34788993D01*
X38730000Y-34807678D01*
X38967417Y-34788993D01*
X39198988Y-34733398D01*
X39419011Y-34642261D01*
X39622069Y-34517827D01*
X39803160Y-34363160D01*
X39957827Y-34182069D01*
X40082261Y-33979011D01*
X40173398Y-33758988D01*
X40228993Y-33527417D01*
X40247678Y-33290000D01*
X40247678Y-33289999D01*
X40712322Y-33289999D01*
X40731006Y-33527414D01*
X40786600Y-33758983D01*
X40877738Y-33979011D01*
X41002169Y-34182064D01*
X41002170Y-34182065D01*
X41002171Y-34182067D01*
X41002173Y-34182069D01*
X41156840Y-34363160D01*
X41337931Y-34517827D01*
X41337933Y-34517828D01*
X41337934Y-34517829D01*
X41337935Y-34517830D01*
X41540988Y-34642261D01*
X41589630Y-34662409D01*
X41761012Y-34733398D01*
X41992583Y-34788993D01*
X42230000Y-34807678D01*
X42467417Y-34788993D01*
X42698988Y-34733398D01*
X42919011Y-34642261D01*
X43122069Y-34517827D01*
X43303160Y-34363160D01*
X43457827Y-34182069D01*
X43582261Y-33979011D01*
X43673398Y-33758988D01*
X43728993Y-33527417D01*
X43747678Y-33290000D01*
X43747678Y-33289999D01*
X44212322Y-33289999D01*
X44231006Y-33527414D01*
X44286600Y-33758983D01*
X44377738Y-33979011D01*
X44502169Y-34182064D01*
X44502170Y-34182065D01*
X44502171Y-34182067D01*
X44502173Y-34182069D01*
X44656840Y-34363160D01*
X44837931Y-34517827D01*
X44837933Y-34517828D01*
X44837934Y-34517829D01*
X44837935Y-34517830D01*
X45040988Y-34642261D01*
X45089630Y-34662409D01*
X45261012Y-34733398D01*
X45492583Y-34788993D01*
X45730000Y-34807678D01*
X45967417Y-34788993D01*
X46198988Y-34733398D01*
X46419011Y-34642261D01*
X46622069Y-34517827D01*
X46803160Y-34363160D01*
X46957827Y-34182069D01*
X47082261Y-33979011D01*
X47173398Y-33758988D01*
X47228993Y-33527417D01*
X47247678Y-33290000D01*
X47247678Y-33289999D01*
X47712322Y-33289999D01*
X47731006Y-33527414D01*
X47786600Y-33758983D01*
X47877738Y-33979011D01*
X48002169Y-34182064D01*
X48002170Y-34182065D01*
X48002171Y-34182067D01*
X48002173Y-34182069D01*
X48156840Y-34363160D01*
X48337931Y-34517827D01*
X48337933Y-34517828D01*
X48337934Y-34517829D01*
X48337935Y-34517830D01*
X48540988Y-34642261D01*
X48589630Y-34662409D01*
X48761012Y-34733398D01*
X48992583Y-34788993D01*
X49230000Y-34807678D01*
X49467417Y-34788993D01*
X49698988Y-34733398D01*
X49919011Y-34642261D01*
X50122069Y-34517827D01*
X50303160Y-34363160D01*
X50457827Y-34182069D01*
X50582261Y-33979011D01*
X50673398Y-33758988D01*
X50728993Y-33527417D01*
X50747678Y-33290000D01*
X50747678Y-33289999D01*
X51212322Y-33289999D01*
X51231006Y-33527414D01*
X51286600Y-33758983D01*
X51377738Y-33979011D01*
X51502169Y-34182064D01*
X51502170Y-34182065D01*
X51502171Y-34182067D01*
X51502173Y-34182069D01*
X51656840Y-34363160D01*
X51837931Y-34517827D01*
X51837933Y-34517828D01*
X51837934Y-34517829D01*
X51837935Y-34517830D01*
X52040988Y-34642261D01*
X52089630Y-34662409D01*
X52261012Y-34733398D01*
X52492583Y-34788993D01*
X52730000Y-34807678D01*
X52967417Y-34788993D01*
X53198988Y-34733398D01*
X53419011Y-34642261D01*
X53622069Y-34517827D01*
X53803160Y-34363160D01*
X53957827Y-34182069D01*
X54082261Y-33979011D01*
X54173398Y-33758988D01*
X54228993Y-33527417D01*
X54247678Y-33290000D01*
X54247678Y-33289999D01*
X54712322Y-33289999D01*
X54731006Y-33527414D01*
X54786600Y-33758983D01*
X54877738Y-33979011D01*
X55002169Y-34182064D01*
X55002170Y-34182065D01*
X55002171Y-34182067D01*
X55002173Y-34182069D01*
X55156840Y-34363160D01*
X55337931Y-34517827D01*
X55337933Y-34517828D01*
X55337934Y-34517829D01*
X55337935Y-34517830D01*
X55540988Y-34642261D01*
X55589630Y-34662409D01*
X55761012Y-34733398D01*
X55992583Y-34788993D01*
X56230000Y-34807678D01*
X56467417Y-34788993D01*
X56698988Y-34733398D01*
X56919011Y-34642261D01*
X57122069Y-34517827D01*
X57303160Y-34363160D01*
X57457827Y-34182069D01*
X57582261Y-33979011D01*
X57673398Y-33758988D01*
X57728993Y-33527417D01*
X57747678Y-33290000D01*
X58212322Y-33290000D01*
X58231006Y-33527414D01*
X58286600Y-33758983D01*
X58377738Y-33979011D01*
X58502169Y-34182064D01*
X58502170Y-34182065D01*
X58502171Y-34182067D01*
X58502173Y-34182069D01*
X58656840Y-34363160D01*
X58837931Y-34517827D01*
X58837933Y-34517828D01*
X58837934Y-34517829D01*
X58837935Y-34517830D01*
X59040988Y-34642261D01*
X59089630Y-34662409D01*
X59261012Y-34733398D01*
X59492583Y-34788993D01*
X59730000Y-34807678D01*
X59967417Y-34788993D01*
X60198988Y-34733398D01*
X60419011Y-34642261D01*
X60622069Y-34517827D01*
X60803160Y-34363160D01*
X60957827Y-34182069D01*
X61082261Y-33979011D01*
X61173398Y-33758988D01*
X61228993Y-33527417D01*
X61247678Y-33290000D01*
X61247678Y-33289999D01*
X63447322Y-33289999D01*
X63466006Y-33527414D01*
X63521600Y-33758983D01*
X63612738Y-33979011D01*
X63737169Y-34182064D01*
X63737170Y-34182065D01*
X63737171Y-34182067D01*
X63737173Y-34182069D01*
X63891840Y-34363160D01*
X64072931Y-34517827D01*
X64072933Y-34517828D01*
X64072934Y-34517829D01*
X64072935Y-34517830D01*
X64275988Y-34642261D01*
X64324630Y-34662409D01*
X64496012Y-34733398D01*
X64727583Y-34788993D01*
X64965000Y-34807678D01*
X65202417Y-34788993D01*
X65433988Y-34733398D01*
X65654011Y-34642261D01*
X65857069Y-34517827D01*
X66038160Y-34363160D01*
X66192827Y-34182069D01*
X66317261Y-33979011D01*
X66408398Y-33758988D01*
X66463993Y-33527417D01*
X66482678Y-33290000D01*
X66482678Y-33289999D01*
X66947322Y-33289999D01*
X66966006Y-33527414D01*
X67021600Y-33758983D01*
X67112738Y-33979011D01*
X67237169Y-34182064D01*
X67237170Y-34182065D01*
X67237171Y-34182067D01*
X67237173Y-34182069D01*
X67391840Y-34363160D01*
X67572931Y-34517827D01*
X67572933Y-34517828D01*
X67572934Y-34517829D01*
X67572935Y-34517830D01*
X67775988Y-34642261D01*
X67824630Y-34662409D01*
X67996012Y-34733398D01*
X68227583Y-34788993D01*
X68465000Y-34807678D01*
X68702417Y-34788993D01*
X68933988Y-34733398D01*
X69154011Y-34642261D01*
X69357069Y-34517827D01*
X69538160Y-34363160D01*
X69692827Y-34182069D01*
X69817261Y-33979011D01*
X69908398Y-33758988D01*
X69963993Y-33527417D01*
X69982678Y-33290000D01*
X69982678Y-33289999D01*
X70447322Y-33289999D01*
X70466006Y-33527414D01*
X70521600Y-33758983D01*
X70612738Y-33979011D01*
X70737169Y-34182064D01*
X70737170Y-34182065D01*
X70737171Y-34182067D01*
X70737173Y-34182069D01*
X70891840Y-34363160D01*
X71072931Y-34517827D01*
X71072933Y-34517828D01*
X71072934Y-34517829D01*
X71072935Y-34517830D01*
X71275988Y-34642261D01*
X71324630Y-34662409D01*
X71496012Y-34733398D01*
X71727583Y-34788993D01*
X71965000Y-34807678D01*
X72202417Y-34788993D01*
X72433988Y-34733398D01*
X72654011Y-34642261D01*
X72857069Y-34517827D01*
X73038160Y-34363160D01*
X73192827Y-34182069D01*
X73317261Y-33979011D01*
X73408398Y-33758988D01*
X73463993Y-33527417D01*
X73482678Y-33290000D01*
X73482678Y-33289999D01*
X73947322Y-33289999D01*
X73966006Y-33527414D01*
X74021600Y-33758983D01*
X74112738Y-33979011D01*
X74237169Y-34182064D01*
X74237170Y-34182065D01*
X74237171Y-34182067D01*
X74237173Y-34182069D01*
X74391840Y-34363160D01*
X74572931Y-34517827D01*
X74572933Y-34517828D01*
X74572934Y-34517829D01*
X74572935Y-34517830D01*
X74775988Y-34642261D01*
X74824630Y-34662409D01*
X74996012Y-34733398D01*
X75227583Y-34788993D01*
X75465000Y-34807678D01*
X75702417Y-34788993D01*
X75933988Y-34733398D01*
X76154011Y-34642261D01*
X76357069Y-34517827D01*
X76538160Y-34363160D01*
X76692827Y-34182069D01*
X76817261Y-33979011D01*
X76908398Y-33758988D01*
X76963993Y-33527417D01*
X76982678Y-33290000D01*
X76982678Y-33289999D01*
X77447823Y-33289999D01*
X77466502Y-33527342D01*
X77522078Y-33758833D01*
X77522078Y-33758834D01*
X77613182Y-33978780D01*
X77613184Y-33978783D01*
X77730774Y-34170672D01*
X78227601Y-33673844D01*
X78288924Y-33640359D01*
X78358615Y-33645343D01*
X78408096Y-33679296D01*
X78478696Y-33758988D01*
X78514104Y-33798956D01*
X78566474Y-33835104D01*
X78610464Y-33889386D01*
X78618124Y-33958835D01*
X78587021Y-34021400D01*
X78583715Y-34024835D01*
X78084326Y-34524224D01*
X78276216Y-34641815D01*
X78276219Y-34641817D01*
X78496166Y-34732921D01*
X78727657Y-34788497D01*
X78965000Y-34807176D01*
X79202342Y-34788497D01*
X79433833Y-34732921D01*
X79433834Y-34732921D01*
X79653780Y-34641817D01*
X79653783Y-34641815D01*
X79845672Y-34524225D01*
X79845672Y-34524224D01*
X79346283Y-34024836D01*
X79312798Y-33963513D01*
X79317782Y-33893822D01*
X79359653Y-33837888D01*
X79363493Y-33835126D01*
X79415896Y-33798956D01*
X79521902Y-33679297D01*
X79581090Y-33642173D01*
X79650956Y-33642940D01*
X79702398Y-33673845D01*
X80199224Y-34170672D01*
X80199225Y-34170672D01*
X80316815Y-33978783D01*
X80316817Y-33978780D01*
X80407921Y-33758834D01*
X80407921Y-33758833D01*
X80463497Y-33527342D01*
X80482176Y-33289999D01*
X80947823Y-33289999D01*
X80966502Y-33527342D01*
X81022078Y-33758833D01*
X81022078Y-33758834D01*
X81113182Y-33978780D01*
X81113184Y-33978783D01*
X81230774Y-34170672D01*
X81727601Y-33673844D01*
X81788924Y-33640359D01*
X81858615Y-33645343D01*
X81908096Y-33679296D01*
X81978696Y-33758988D01*
X82014104Y-33798956D01*
X82066474Y-33835104D01*
X82110464Y-33889386D01*
X82118124Y-33958835D01*
X82087021Y-34021400D01*
X82083715Y-34024835D01*
X81584326Y-34524224D01*
X81776216Y-34641815D01*
X81776219Y-34641817D01*
X81996166Y-34732921D01*
X82227657Y-34788497D01*
X82465000Y-34807176D01*
X82702342Y-34788497D01*
X82933833Y-34732921D01*
X82933834Y-34732921D01*
X83153780Y-34641817D01*
X83153783Y-34641815D01*
X83345672Y-34524225D01*
X83345672Y-34524224D01*
X82846283Y-34024836D01*
X82812798Y-33963513D01*
X82817782Y-33893822D01*
X82859653Y-33837888D01*
X82863493Y-33835126D01*
X82915896Y-33798956D01*
X83021902Y-33679297D01*
X83081090Y-33642173D01*
X83150956Y-33642940D01*
X83202398Y-33673845D01*
X83699224Y-34170672D01*
X83699225Y-34170672D01*
X83816815Y-33978783D01*
X83816817Y-33978780D01*
X83907921Y-33758834D01*
X83907921Y-33758833D01*
X83963497Y-33527342D01*
X83982176Y-33290000D01*
X84447823Y-33290000D01*
X84466502Y-33527342D01*
X84522078Y-33758833D01*
X84522078Y-33758834D01*
X84613182Y-33978780D01*
X84613184Y-33978783D01*
X84730774Y-34170672D01*
X85227601Y-33673844D01*
X85288924Y-33640359D01*
X85358615Y-33645343D01*
X85408096Y-33679296D01*
X85478696Y-33758988D01*
X85514104Y-33798956D01*
X85566474Y-33835104D01*
X85610464Y-33889386D01*
X85618124Y-33958835D01*
X85587021Y-34021400D01*
X85583715Y-34024835D01*
X85084326Y-34524224D01*
X85276216Y-34641815D01*
X85276219Y-34641817D01*
X85496166Y-34732921D01*
X85727657Y-34788497D01*
X85965000Y-34807176D01*
X86202342Y-34788497D01*
X86433833Y-34732921D01*
X86433834Y-34732921D01*
X86653780Y-34641817D01*
X86653783Y-34641815D01*
X86845672Y-34524225D01*
X86845672Y-34524224D01*
X86346283Y-34024836D01*
X86312798Y-33963513D01*
X86317782Y-33893822D01*
X86359653Y-33837888D01*
X86363493Y-33835126D01*
X86415896Y-33798956D01*
X86521902Y-33679297D01*
X86581090Y-33642173D01*
X86650956Y-33642940D01*
X86702398Y-33673845D01*
X87199224Y-34170672D01*
X87199225Y-34170672D01*
X87316815Y-33978783D01*
X87316817Y-33978780D01*
X87407921Y-33758834D01*
X87407921Y-33758833D01*
X87463497Y-33527342D01*
X87482176Y-33290000D01*
X87482176Y-33289999D01*
X87947823Y-33289999D01*
X87966502Y-33527342D01*
X88022078Y-33758833D01*
X88022078Y-33758834D01*
X88113182Y-33978780D01*
X88113184Y-33978783D01*
X88230774Y-34170672D01*
X88727601Y-33673844D01*
X88788924Y-33640359D01*
X88858615Y-33645343D01*
X88908096Y-33679296D01*
X88978696Y-33758988D01*
X89014104Y-33798956D01*
X89066474Y-33835104D01*
X89110464Y-33889386D01*
X89118124Y-33958835D01*
X89087021Y-34021400D01*
X89083715Y-34024835D01*
X88584326Y-34524224D01*
X88776216Y-34641815D01*
X88776219Y-34641817D01*
X88996166Y-34732921D01*
X89227657Y-34788497D01*
X89464999Y-34807176D01*
X89702342Y-34788497D01*
X89933833Y-34732921D01*
X89933834Y-34732921D01*
X90153780Y-34641817D01*
X90153783Y-34641815D01*
X90345672Y-34524225D01*
X90345672Y-34524224D01*
X89846283Y-34024836D01*
X89812798Y-33963513D01*
X89817782Y-33893822D01*
X89859653Y-33837888D01*
X89863493Y-33835126D01*
X89915896Y-33798956D01*
X90021902Y-33679297D01*
X90081090Y-33642173D01*
X90150956Y-33642940D01*
X90202398Y-33673845D01*
X90699224Y-34170672D01*
X90699225Y-34170672D01*
X90816815Y-33978783D01*
X90816817Y-33978780D01*
X90907921Y-33758834D01*
X90907921Y-33758833D01*
X90963497Y-33527342D01*
X90982176Y-33289999D01*
X93182322Y-33289999D01*
X93201006Y-33527414D01*
X93256600Y-33758983D01*
X93347738Y-33979011D01*
X93472169Y-34182064D01*
X93472170Y-34182065D01*
X93472171Y-34182067D01*
X93472173Y-34182069D01*
X93626840Y-34363160D01*
X93807931Y-34517827D01*
X93807933Y-34517828D01*
X93807934Y-34517829D01*
X93807935Y-34517830D01*
X94010988Y-34642261D01*
X94059630Y-34662409D01*
X94231012Y-34733398D01*
X94462583Y-34788993D01*
X94700000Y-34807678D01*
X94937417Y-34788993D01*
X95168988Y-34733398D01*
X95389011Y-34642261D01*
X95592069Y-34517827D01*
X95773160Y-34363160D01*
X95784106Y-34350344D01*
X96687500Y-34350344D01*
X96693901Y-34409872D01*
X96693903Y-34409879D01*
X96744145Y-34544586D01*
X96744149Y-34544593D01*
X96830309Y-34659687D01*
X96830312Y-34659690D01*
X96945406Y-34745850D01*
X96945413Y-34745854D01*
X97080120Y-34796096D01*
X97080127Y-34796098D01*
X97139655Y-34802499D01*
X97139672Y-34802500D01*
X97950000Y-34802500D01*
X97950000Y-34079570D01*
X97969685Y-34012531D01*
X98022489Y-33966776D01*
X98088947Y-33956474D01*
X98159164Y-33965000D01*
X98159166Y-33965000D01*
X98240836Y-33965000D01*
X98311053Y-33956474D01*
X98379977Y-33967934D01*
X98431763Y-34014838D01*
X98450000Y-34079570D01*
X98450000Y-34802500D01*
X99260328Y-34802500D01*
X99260344Y-34802499D01*
X99319872Y-34796098D01*
X99319879Y-34796096D01*
X99454586Y-34745854D01*
X99454593Y-34745850D01*
X99569687Y-34659690D01*
X99569690Y-34659687D01*
X99655850Y-34544593D01*
X99655854Y-34544586D01*
X99706096Y-34409879D01*
X99706098Y-34409872D01*
X99712499Y-34350344D01*
X99712500Y-34350327D01*
X99712500Y-33540000D01*
X98991856Y-33540000D01*
X98924817Y-33520315D01*
X98879062Y-33467511D01*
X98869118Y-33398353D01*
X98871460Y-33386324D01*
X98874999Y-33371964D01*
X98875000Y-33371960D01*
X98875000Y-33208039D01*
X98874999Y-33208035D01*
X98871460Y-33193676D01*
X98874528Y-33123874D01*
X98914847Y-33066812D01*
X98979616Y-33040606D01*
X98991856Y-33040000D01*
X99712500Y-33040000D01*
X99712500Y-32229672D01*
X99712499Y-32229655D01*
X99706098Y-32170127D01*
X99706096Y-32170120D01*
X99655854Y-32035413D01*
X99655850Y-32035406D01*
X99569690Y-31920312D01*
X99569687Y-31920309D01*
X99454593Y-31834149D01*
X99454586Y-31834145D01*
X99319879Y-31783903D01*
X99319872Y-31783901D01*
X99260344Y-31777500D01*
X98450000Y-31777500D01*
X98449999Y-32500429D01*
X98430314Y-32567469D01*
X98377510Y-32613223D01*
X98311054Y-32623525D01*
X98240839Y-32615000D01*
X98240834Y-32615000D01*
X98159166Y-32615000D01*
X98159161Y-32615000D01*
X98088945Y-32623525D01*
X98020022Y-32612064D01*
X97968236Y-32565160D01*
X97950000Y-32500429D01*
X97950000Y-31777500D01*
X97139655Y-31777500D01*
X97080127Y-31783901D01*
X97080120Y-31783903D01*
X96945413Y-31834145D01*
X96945406Y-31834149D01*
X96830312Y-31920309D01*
X96830309Y-31920312D01*
X96744149Y-32035406D01*
X96744145Y-32035413D01*
X96693903Y-32170120D01*
X96693901Y-32170127D01*
X96687500Y-32229655D01*
X96687500Y-33040000D01*
X97408144Y-33040000D01*
X97475183Y-33059685D01*
X97520938Y-33112489D01*
X97530882Y-33181647D01*
X97528540Y-33193676D01*
X97525000Y-33208035D01*
X97525000Y-33371964D01*
X97528540Y-33386324D01*
X97525472Y-33456126D01*
X97485153Y-33513188D01*
X97420384Y-33539394D01*
X97408144Y-33540000D01*
X96687500Y-33540000D01*
X96687500Y-34350344D01*
X95784106Y-34350344D01*
X95927827Y-34182069D01*
X96052261Y-33979011D01*
X96143398Y-33758988D01*
X96198993Y-33527417D01*
X96217678Y-33290000D01*
X96198993Y-33052583D01*
X96143398Y-32821012D01*
X96061596Y-32623525D01*
X96052261Y-32600988D01*
X95927830Y-32397935D01*
X95927829Y-32397934D01*
X95927828Y-32397933D01*
X95927827Y-32397931D01*
X95773160Y-32216840D01*
X95592069Y-32062173D01*
X95592067Y-32062171D01*
X95592065Y-32062170D01*
X95592064Y-32062169D01*
X95389011Y-31937738D01*
X95168983Y-31846600D01*
X94937413Y-31791006D01*
X94937414Y-31791006D01*
X94700000Y-31772322D01*
X94462585Y-31791006D01*
X94231016Y-31846600D01*
X94010988Y-31937738D01*
X93807935Y-32062169D01*
X93807934Y-32062170D01*
X93626840Y-32216840D01*
X93472170Y-32397934D01*
X93472169Y-32397935D01*
X93347738Y-32600988D01*
X93256600Y-32821016D01*
X93201006Y-33052585D01*
X93182322Y-33289999D01*
X90982176Y-33289999D01*
X90963497Y-33052657D01*
X90907921Y-32821166D01*
X90907921Y-32821165D01*
X90816817Y-32601219D01*
X90816815Y-32601216D01*
X90699224Y-32409326D01*
X90202397Y-32906154D01*
X90141074Y-32939639D01*
X90071382Y-32934655D01*
X90021902Y-32900701D01*
X89915896Y-32781044D01*
X89901482Y-32771095D01*
X89863523Y-32744894D01*
X89819533Y-32690612D01*
X89811873Y-32621163D01*
X89842976Y-32558598D01*
X89846282Y-32555163D01*
X90345672Y-32055774D01*
X90153783Y-31938184D01*
X90153780Y-31938182D01*
X89933833Y-31847078D01*
X89702342Y-31791502D01*
X89465000Y-31772823D01*
X89227657Y-31791502D01*
X88996166Y-31847078D01*
X88996165Y-31847078D01*
X88776227Y-31938179D01*
X88776224Y-31938181D01*
X88584327Y-32055775D01*
X89083716Y-32555163D01*
X89117201Y-32616486D01*
X89112217Y-32686177D01*
X89070346Y-32742111D01*
X89066476Y-32744893D01*
X89014103Y-32781044D01*
X88908097Y-32900700D01*
X88848908Y-32937827D01*
X88779042Y-32937059D01*
X88727601Y-32906154D01*
X88230775Y-32409327D01*
X88113181Y-32601224D01*
X88113179Y-32601227D01*
X88022078Y-32821165D01*
X88022078Y-32821166D01*
X87966502Y-33052657D01*
X87947823Y-33289999D01*
X87482176Y-33289999D01*
X87463497Y-33052657D01*
X87407921Y-32821166D01*
X87407921Y-32821165D01*
X87316817Y-32601219D01*
X87316815Y-32601216D01*
X87199224Y-32409326D01*
X86702397Y-32906154D01*
X86641074Y-32939639D01*
X86571382Y-32934655D01*
X86521902Y-32900701D01*
X86415896Y-32781044D01*
X86401482Y-32771095D01*
X86363523Y-32744894D01*
X86319533Y-32690612D01*
X86311873Y-32621163D01*
X86342976Y-32558598D01*
X86346282Y-32555163D01*
X86845672Y-32055774D01*
X86653783Y-31938184D01*
X86653780Y-31938182D01*
X86433833Y-31847078D01*
X86202342Y-31791502D01*
X85965000Y-31772823D01*
X85727657Y-31791502D01*
X85496166Y-31847078D01*
X85496165Y-31847078D01*
X85276227Y-31938179D01*
X85276224Y-31938181D01*
X85084327Y-32055775D01*
X85583716Y-32555163D01*
X85617201Y-32616486D01*
X85612217Y-32686177D01*
X85570346Y-32742111D01*
X85566476Y-32744893D01*
X85514103Y-32781044D01*
X85408097Y-32900700D01*
X85348908Y-32937827D01*
X85279042Y-32937059D01*
X85227601Y-32906154D01*
X84730775Y-32409327D01*
X84613181Y-32601224D01*
X84613179Y-32601227D01*
X84522078Y-32821165D01*
X84522078Y-32821166D01*
X84466502Y-33052657D01*
X84447823Y-33290000D01*
X83982176Y-33290000D01*
X83982176Y-33289999D01*
X83963497Y-33052657D01*
X83907921Y-32821166D01*
X83907921Y-32821165D01*
X83816817Y-32601219D01*
X83816815Y-32601216D01*
X83699224Y-32409326D01*
X83202397Y-32906154D01*
X83141074Y-32939639D01*
X83071382Y-32934655D01*
X83021902Y-32900701D01*
X82915896Y-32781044D01*
X82901482Y-32771095D01*
X82863523Y-32744894D01*
X82819533Y-32690612D01*
X82811873Y-32621163D01*
X82842976Y-32558598D01*
X82846282Y-32555163D01*
X83345672Y-32055774D01*
X83153783Y-31938184D01*
X83153780Y-31938182D01*
X82933833Y-31847078D01*
X82702342Y-31791502D01*
X82465000Y-31772823D01*
X82227657Y-31791502D01*
X81996166Y-31847078D01*
X81996165Y-31847078D01*
X81776227Y-31938179D01*
X81776224Y-31938181D01*
X81584327Y-32055775D01*
X82083716Y-32555163D01*
X82117201Y-32616486D01*
X82112217Y-32686177D01*
X82070346Y-32742111D01*
X82066476Y-32744893D01*
X82014103Y-32781044D01*
X81908097Y-32900700D01*
X81848908Y-32937827D01*
X81779042Y-32937059D01*
X81727601Y-32906154D01*
X81230775Y-32409327D01*
X81113181Y-32601224D01*
X81113179Y-32601227D01*
X81022078Y-32821165D01*
X81022078Y-32821166D01*
X80966502Y-33052657D01*
X80947823Y-33289999D01*
X80482176Y-33289999D01*
X80463497Y-33052657D01*
X80407921Y-32821166D01*
X80407921Y-32821165D01*
X80316817Y-32601219D01*
X80316815Y-32601216D01*
X80199224Y-32409326D01*
X79702397Y-32906154D01*
X79641074Y-32939639D01*
X79571382Y-32934655D01*
X79521902Y-32900701D01*
X79415896Y-32781044D01*
X79401482Y-32771095D01*
X79363523Y-32744894D01*
X79319533Y-32690612D01*
X79311873Y-32621163D01*
X79342976Y-32558598D01*
X79346282Y-32555163D01*
X79845672Y-32055774D01*
X79653783Y-31938184D01*
X79653780Y-31938182D01*
X79433833Y-31847078D01*
X79202342Y-31791502D01*
X78964999Y-31772823D01*
X78727657Y-31791502D01*
X78496166Y-31847078D01*
X78496165Y-31847078D01*
X78276227Y-31938179D01*
X78276224Y-31938181D01*
X78084327Y-32055775D01*
X78583716Y-32555163D01*
X78617201Y-32616486D01*
X78612217Y-32686177D01*
X78570346Y-32742111D01*
X78566476Y-32744893D01*
X78514103Y-32781044D01*
X78408097Y-32900700D01*
X78348908Y-32937827D01*
X78279042Y-32937059D01*
X78227601Y-32906154D01*
X77730775Y-32409327D01*
X77613181Y-32601224D01*
X77613179Y-32601227D01*
X77522078Y-32821165D01*
X77522078Y-32821166D01*
X77466502Y-33052657D01*
X77447823Y-33289999D01*
X76982678Y-33289999D01*
X76963993Y-33052583D01*
X76908398Y-32821012D01*
X76826596Y-32623525D01*
X76817261Y-32600988D01*
X76692830Y-32397935D01*
X76692829Y-32397934D01*
X76692828Y-32397933D01*
X76692827Y-32397931D01*
X76538160Y-32216840D01*
X76357069Y-32062173D01*
X76357067Y-32062171D01*
X76357065Y-32062170D01*
X76357064Y-32062169D01*
X76154011Y-31937738D01*
X75933983Y-31846600D01*
X75702413Y-31791006D01*
X75702414Y-31791006D01*
X75465000Y-31772322D01*
X75227585Y-31791006D01*
X74996016Y-31846600D01*
X74775988Y-31937738D01*
X74572935Y-32062169D01*
X74572934Y-32062170D01*
X74391840Y-32216840D01*
X74237170Y-32397934D01*
X74237169Y-32397935D01*
X74112738Y-32600988D01*
X74021600Y-32821016D01*
X73966006Y-33052585D01*
X73947322Y-33289999D01*
X73482678Y-33289999D01*
X73463993Y-33052583D01*
X73408398Y-32821012D01*
X73326596Y-32623525D01*
X73317261Y-32600988D01*
X73192830Y-32397935D01*
X73192829Y-32397934D01*
X73192828Y-32397933D01*
X73192827Y-32397931D01*
X73038160Y-32216840D01*
X72857069Y-32062173D01*
X72857067Y-32062171D01*
X72857065Y-32062170D01*
X72857064Y-32062169D01*
X72654011Y-31937738D01*
X72433983Y-31846600D01*
X72202413Y-31791006D01*
X72202414Y-31791006D01*
X71965000Y-31772322D01*
X71727585Y-31791006D01*
X71496016Y-31846600D01*
X71275988Y-31937738D01*
X71072935Y-32062169D01*
X71072934Y-32062170D01*
X70891840Y-32216840D01*
X70737170Y-32397934D01*
X70737169Y-32397935D01*
X70612738Y-32600988D01*
X70521600Y-32821016D01*
X70466006Y-33052585D01*
X70447322Y-33289999D01*
X69982678Y-33289999D01*
X69963993Y-33052583D01*
X69908398Y-32821012D01*
X69826596Y-32623525D01*
X69817261Y-32600988D01*
X69692830Y-32397935D01*
X69692829Y-32397934D01*
X69692828Y-32397933D01*
X69692827Y-32397931D01*
X69538160Y-32216840D01*
X69357069Y-32062173D01*
X69357067Y-32062171D01*
X69357065Y-32062170D01*
X69357064Y-32062169D01*
X69154011Y-31937738D01*
X68933983Y-31846600D01*
X68702413Y-31791006D01*
X68702414Y-31791006D01*
X68487174Y-31774067D01*
X68465000Y-31772322D01*
X68464999Y-31772322D01*
X68227585Y-31791006D01*
X67996016Y-31846600D01*
X67775988Y-31937738D01*
X67572935Y-32062169D01*
X67572934Y-32062170D01*
X67391840Y-32216840D01*
X67237170Y-32397934D01*
X67237169Y-32397935D01*
X67112738Y-32600988D01*
X67021600Y-32821016D01*
X66966006Y-33052585D01*
X66947322Y-33289999D01*
X66482678Y-33289999D01*
X66463993Y-33052583D01*
X66408398Y-32821012D01*
X66326596Y-32623525D01*
X66317261Y-32600988D01*
X66192830Y-32397935D01*
X66192829Y-32397934D01*
X66192828Y-32397933D01*
X66192827Y-32397931D01*
X66038160Y-32216840D01*
X65857069Y-32062173D01*
X65857067Y-32062171D01*
X65857065Y-32062170D01*
X65857064Y-32062169D01*
X65654011Y-31937738D01*
X65433983Y-31846600D01*
X65202413Y-31791006D01*
X65202414Y-31791006D01*
X64965000Y-31772322D01*
X64727585Y-31791006D01*
X64496016Y-31846600D01*
X64275988Y-31937738D01*
X64072935Y-32062169D01*
X64072934Y-32062170D01*
X63891840Y-32216840D01*
X63737170Y-32397934D01*
X63737169Y-32397935D01*
X63612738Y-32600988D01*
X63521600Y-32821016D01*
X63466006Y-33052585D01*
X63447322Y-33289999D01*
X61247678Y-33289999D01*
X61228993Y-33052583D01*
X61173398Y-32821012D01*
X61091596Y-32623525D01*
X61082261Y-32600988D01*
X60957830Y-32397935D01*
X60957829Y-32397934D01*
X60957828Y-32397933D01*
X60957827Y-32397931D01*
X60803160Y-32216840D01*
X60622069Y-32062173D01*
X60622067Y-32062171D01*
X60622065Y-32062170D01*
X60622064Y-32062169D01*
X60419011Y-31937738D01*
X60198983Y-31846600D01*
X59967413Y-31791006D01*
X59967414Y-31791006D01*
X59730000Y-31772322D01*
X59492585Y-31791006D01*
X59261016Y-31846600D01*
X59040988Y-31937738D01*
X58837935Y-32062169D01*
X58837934Y-32062170D01*
X58656840Y-32216840D01*
X58502170Y-32397934D01*
X58502169Y-32397935D01*
X58377738Y-32600988D01*
X58286600Y-32821016D01*
X58231006Y-33052585D01*
X58212322Y-33290000D01*
X57747678Y-33290000D01*
X57728993Y-33052583D01*
X57673398Y-32821012D01*
X57591596Y-32623525D01*
X57582261Y-32600988D01*
X57457830Y-32397935D01*
X57457829Y-32397934D01*
X57457828Y-32397933D01*
X57457827Y-32397931D01*
X57303160Y-32216840D01*
X57122069Y-32062173D01*
X57122067Y-32062171D01*
X57122065Y-32062170D01*
X57122064Y-32062169D01*
X56919011Y-31937738D01*
X56698983Y-31846600D01*
X56467413Y-31791006D01*
X56467414Y-31791006D01*
X56252174Y-31774067D01*
X56230000Y-31772322D01*
X56229999Y-31772322D01*
X55992585Y-31791006D01*
X55761016Y-31846600D01*
X55540988Y-31937738D01*
X55337935Y-32062169D01*
X55337934Y-32062170D01*
X55156840Y-32216840D01*
X55002170Y-32397934D01*
X55002169Y-32397935D01*
X54877738Y-32600988D01*
X54786600Y-32821016D01*
X54731006Y-33052585D01*
X54712322Y-33289999D01*
X54247678Y-33289999D01*
X54228993Y-33052583D01*
X54173398Y-32821012D01*
X54091596Y-32623525D01*
X54082261Y-32600988D01*
X53957830Y-32397935D01*
X53957829Y-32397934D01*
X53957828Y-32397933D01*
X53957827Y-32397931D01*
X53803160Y-32216840D01*
X53622069Y-32062173D01*
X53622067Y-32062171D01*
X53622065Y-32062170D01*
X53622064Y-32062169D01*
X53419011Y-31937738D01*
X53198983Y-31846600D01*
X52967413Y-31791006D01*
X52967414Y-31791006D01*
X52730000Y-31772322D01*
X52492585Y-31791006D01*
X52261016Y-31846600D01*
X52040988Y-31937738D01*
X51837935Y-32062169D01*
X51837934Y-32062170D01*
X51656840Y-32216840D01*
X51502170Y-32397934D01*
X51502169Y-32397935D01*
X51377738Y-32600988D01*
X51286600Y-32821016D01*
X51231006Y-33052585D01*
X51212322Y-33289999D01*
X50747678Y-33289999D01*
X50728993Y-33052583D01*
X50673398Y-32821012D01*
X50591596Y-32623525D01*
X50582261Y-32600988D01*
X50457830Y-32397935D01*
X50457829Y-32397934D01*
X50457828Y-32397933D01*
X50457827Y-32397931D01*
X50303160Y-32216840D01*
X50122069Y-32062173D01*
X50122067Y-32062171D01*
X50122065Y-32062170D01*
X50122064Y-32062169D01*
X49919011Y-31937738D01*
X49698983Y-31846600D01*
X49467413Y-31791006D01*
X49467414Y-31791006D01*
X49230000Y-31772322D01*
X48992585Y-31791006D01*
X48761016Y-31846600D01*
X48540988Y-31937738D01*
X48337935Y-32062169D01*
X48337934Y-32062170D01*
X48156840Y-32216840D01*
X48002170Y-32397934D01*
X48002169Y-32397935D01*
X47877738Y-32600988D01*
X47786600Y-32821016D01*
X47731006Y-33052585D01*
X47712322Y-33289999D01*
X47247678Y-33289999D01*
X47228993Y-33052583D01*
X47173398Y-32821012D01*
X47091596Y-32623525D01*
X47082261Y-32600988D01*
X46957830Y-32397935D01*
X46957829Y-32397934D01*
X46957828Y-32397933D01*
X46957827Y-32397931D01*
X46803160Y-32216840D01*
X46622069Y-32062173D01*
X46622067Y-32062171D01*
X46622065Y-32062170D01*
X46622064Y-32062169D01*
X46419011Y-31937738D01*
X46198983Y-31846600D01*
X45967413Y-31791006D01*
X45967414Y-31791006D01*
X45730000Y-31772322D01*
X45492585Y-31791006D01*
X45261016Y-31846600D01*
X45040988Y-31937738D01*
X44837935Y-32062169D01*
X44837934Y-32062170D01*
X44656840Y-32216840D01*
X44502170Y-32397934D01*
X44502169Y-32397935D01*
X44377738Y-32600988D01*
X44286600Y-32821016D01*
X44231006Y-33052585D01*
X44212322Y-33289999D01*
X43747678Y-33289999D01*
X43728993Y-33052583D01*
X43673398Y-32821012D01*
X43591596Y-32623525D01*
X43582261Y-32600988D01*
X43457830Y-32397935D01*
X43457829Y-32397934D01*
X43457828Y-32397933D01*
X43457827Y-32397931D01*
X43303160Y-32216840D01*
X43122069Y-32062173D01*
X43122067Y-32062171D01*
X43122065Y-32062170D01*
X43122064Y-32062169D01*
X42919011Y-31937738D01*
X42698983Y-31846600D01*
X42467413Y-31791006D01*
X42467414Y-31791006D01*
X42230000Y-31772322D01*
X41992585Y-31791006D01*
X41761016Y-31846600D01*
X41540988Y-31937738D01*
X41337935Y-32062169D01*
X41337934Y-32062170D01*
X41156840Y-32216840D01*
X41002170Y-32397934D01*
X41002169Y-32397935D01*
X40877738Y-32600988D01*
X40786600Y-32821016D01*
X40731006Y-33052585D01*
X40712322Y-33289999D01*
X40247678Y-33289999D01*
X40228993Y-33052583D01*
X40173398Y-32821012D01*
X40091596Y-32623525D01*
X40082261Y-32600988D01*
X39957830Y-32397935D01*
X39957829Y-32397934D01*
X39957828Y-32397933D01*
X39957827Y-32397931D01*
X39803160Y-32216840D01*
X39622069Y-32062173D01*
X39622067Y-32062171D01*
X39622065Y-32062170D01*
X39622064Y-32062169D01*
X39419011Y-31937738D01*
X39198983Y-31846600D01*
X38967413Y-31791006D01*
X38967414Y-31791006D01*
X38752174Y-31774067D01*
X38730000Y-31772322D01*
X38729999Y-31772322D01*
X38492585Y-31791006D01*
X38261016Y-31846600D01*
X38040988Y-31937738D01*
X37837935Y-32062169D01*
X37837934Y-32062170D01*
X37656840Y-32216840D01*
X37502170Y-32397934D01*
X37502169Y-32397935D01*
X37377738Y-32600988D01*
X37286600Y-32821016D01*
X37231006Y-33052585D01*
X37212322Y-33289999D01*
X35905000Y-33289999D01*
X35905000Y-33208039D01*
X35904999Y-33208035D01*
X35901460Y-33193676D01*
X35904528Y-33123874D01*
X35944847Y-33066812D01*
X36009616Y-33040606D01*
X36021856Y-33040000D01*
X36742500Y-33040000D01*
X36742500Y-32229672D01*
X36742499Y-32229655D01*
X36736098Y-32170127D01*
X36736096Y-32170120D01*
X36685854Y-32035413D01*
X36685850Y-32035406D01*
X36599690Y-31920312D01*
X36599687Y-31920309D01*
X36484593Y-31834149D01*
X36484586Y-31834145D01*
X36349879Y-31783903D01*
X36349872Y-31783901D01*
X36290344Y-31777500D01*
X35480000Y-31777500D01*
X35480000Y-32500429D01*
X35460315Y-32567468D01*
X35407511Y-32613223D01*
X35341055Y-32623525D01*
X35270839Y-32615000D01*
X35270834Y-32615000D01*
X35189166Y-32615000D01*
X35189161Y-32615000D01*
X35118945Y-32623525D01*
X35050022Y-32612064D01*
X34998236Y-32565160D01*
X34980000Y-32500429D01*
X34980000Y-31777500D01*
X34169655Y-31777500D01*
X34110127Y-31783901D01*
X34110120Y-31783903D01*
X33975413Y-31834145D01*
X33975406Y-31834149D01*
X33860312Y-31920309D01*
X33860309Y-31920312D01*
X33774149Y-32035406D01*
X33774145Y-32035413D01*
X33723903Y-32170120D01*
X33723901Y-32170127D01*
X33717500Y-32229655D01*
X33717500Y-33040000D01*
X34438144Y-33040000D01*
X34505183Y-33059685D01*
X34550938Y-33112489D01*
X34560882Y-33181647D01*
X34558540Y-33193676D01*
X34555000Y-33208035D01*
X34555000Y-33371964D01*
X34558540Y-33386324D01*
X34555472Y-33456126D01*
X34515153Y-33513188D01*
X34450384Y-33539394D01*
X34438144Y-33540000D01*
X33717500Y-33540000D01*
X33717500Y-34350344D01*
X32708894Y-34350344D01*
X32594755Y-34053005D01*
X32418689Y-33707456D01*
X32207468Y-33382206D01*
X31998904Y-33124649D01*
X31998903Y-33124648D01*
X30602586Y-34520965D01*
X30541263Y-34554450D01*
X30471571Y-34549466D01*
X30420615Y-34513816D01*
X30399296Y-34488855D01*
X30344870Y-34425130D01*
X30256179Y-34349381D01*
X30217989Y-34290878D01*
X30217489Y-34221010D01*
X30249032Y-34167413D01*
X31645350Y-32771096D01*
X31645350Y-32771095D01*
X31387793Y-32562531D01*
X31062543Y-32351310D01*
X30716994Y-32175244D01*
X30354936Y-32036262D01*
X29980330Y-31935887D01*
X29980323Y-31935886D01*
X29597287Y-31875219D01*
X29210001Y-31854922D01*
X29209999Y-31854922D01*
X28822712Y-31875219D01*
X28439676Y-31935886D01*
X28439669Y-31935887D01*
X28065063Y-32036262D01*
X27703005Y-32175244D01*
X27357456Y-32351310D01*
X27032206Y-32562531D01*
X26774648Y-32771095D01*
X26774648Y-32771096D01*
X28170966Y-34167413D01*
X28204451Y-34228736D01*
X28199467Y-34298428D01*
X28163817Y-34349384D01*
X28075130Y-34425130D01*
X27999384Y-34513817D01*
X27940877Y-34552010D01*
X27871009Y-34552508D01*
X27817413Y-34520966D01*
X26421096Y-33124648D01*
X26421095Y-33124648D01*
X26212531Y-33382206D01*
X26001310Y-33707456D01*
X25825244Y-34053005D01*
X25686262Y-34415063D01*
X25644275Y-34571764D01*
X25607910Y-34631425D01*
X25545063Y-34661954D01*
X25475687Y-34653659D01*
X25421810Y-34609174D01*
X25400535Y-34542622D01*
X25400500Y-34539671D01*
X25400500Y-29211527D01*
X25400575Y-29208485D01*
X25407985Y-29057636D01*
X25407986Y-29057627D01*
X25407988Y-29057566D01*
X25419812Y-28831960D01*
X25420392Y-28826162D01*
X25447020Y-28646647D01*
X25478190Y-28449852D01*
X25479269Y-28444559D01*
X25524715Y-28263132D01*
X25574936Y-28075705D01*
X25576441Y-28070886D01*
X25640246Y-27892564D01*
X25709086Y-27713231D01*
X25710885Y-27709026D01*
X25792437Y-27536597D01*
X25879223Y-27366271D01*
X25881237Y-27362632D01*
X25979754Y-27198267D01*
X26083607Y-27038349D01*
X26085789Y-27035209D01*
X26200237Y-26880894D01*
X26320193Y-26732759D01*
X26322381Y-26730207D01*
X26450694Y-26588636D01*
X26452707Y-26586522D01*
X26586522Y-26452707D01*
X26588636Y-26450694D01*
X26730207Y-26322381D01*
X26732759Y-26320193D01*
X26880882Y-26200246D01*
X27035216Y-26085783D01*
X27038349Y-26083607D01*
X27198267Y-25979754D01*
X27362632Y-25881237D01*
X27366271Y-25879223D01*
X27536600Y-25792436D01*
X27709026Y-25710885D01*
X27713231Y-25709086D01*
X27892564Y-25640246D01*
X28070886Y-25576441D01*
X28075705Y-25574936D01*
X28263132Y-25524715D01*
X28444559Y-25479269D01*
X28449852Y-25478190D01*
X28646637Y-25447022D01*
X28826162Y-25420392D01*
X28831960Y-25419812D01*
X29057447Y-25407994D01*
X29156841Y-25403111D01*
X29208487Y-25400575D01*
X29211529Y-25400500D01*
X104138471Y-25400500D01*
X104141513Y-25400575D01*
G37*
G04 #@! TD.AperFunction*
M02*
