G04 #@! TF.GenerationSoftware,KiCad,Pcbnew,7.0.7*
G04 #@! TF.CreationDate,2024-09-25T18:01:08-07:00*
G04 #@! TF.ProjectId,LAF Board Proto V1.0,4c414620-426f-4617-9264-2050726f746f,rev?*
G04 #@! TF.SameCoordinates,Original*
G04 #@! TF.FileFunction,Copper,L1,Top*
G04 #@! TF.FilePolarity,Positive*
%FSLAX46Y46*%
G04 Gerber Fmt 4.6, Leading zero omitted, Abs format (unit mm)*
G04 Created by KiCad (PCBNEW 7.0.7) date 2024-09-25 18:01:08*
%MOMM*%
%LPD*%
G01*
G04 APERTURE LIST*
G04 Aperture macros list*
%AMRoundRect*
0 Rectangle with rounded corners*
0 $1 Rounding radius*
0 $2 $3 $4 $5 $6 $7 $8 $9 X,Y pos of 4 corners*
0 Add a 4 corners polygon primitive as box body*
4,1,4,$2,$3,$4,$5,$6,$7,$8,$9,$2,$3,0*
0 Add four circle primitives for the rounded corners*
1,1,$1+$1,$2,$3*
1,1,$1+$1,$4,$5*
1,1,$1+$1,$6,$7*
1,1,$1+$1,$8,$9*
0 Add four rect primitives between the rounded corners*
20,1,$1+$1,$2,$3,$4,$5,0*
20,1,$1+$1,$4,$5,$6,$7,0*
20,1,$1+$1,$6,$7,$8,$9,0*
20,1,$1+$1,$8,$9,$2,$3,0*%
%AMFreePoly0*
4,1,15,-0.124998,0.730000,0.725000,0.730000,0.728536,0.728536,0.730000,0.725000,0.730000,-0.725000,0.728536,-0.728536,0.725000,-0.730000,-0.725000,-0.730000,-0.728536,-0.728536,-0.730000,-0.725000,-0.730001,0.125000,-0.728536,0.128536,-0.128536,0.728536,-0.125000,0.730001,-0.124998,0.730000,-0.124998,0.730000,$1*%
G04 Aperture macros list end*
G04 #@! TA.AperFunction,ComponentPad*
%ADD10R,2.200000X2.200000*%
G04 #@! TD*
G04 #@! TA.AperFunction,ComponentPad*
%ADD11C,2.200000*%
G04 #@! TD*
G04 #@! TA.AperFunction,SMDPad,CuDef*
%ADD12RoundRect,0.250000X-0.850000X0.375000X-0.850000X-0.375000X0.850000X-0.375000X0.850000X0.375000X0*%
G04 #@! TD*
G04 #@! TA.AperFunction,SMDPad,CuDef*
%ADD13RoundRect,0.135000X-0.135000X-0.185000X0.135000X-0.185000X0.135000X0.185000X-0.135000X0.185000X0*%
G04 #@! TD*
G04 #@! TA.AperFunction,SMDPad,CuDef*
%ADD14RoundRect,0.135000X0.185000X-0.135000X0.185000X0.135000X-0.185000X0.135000X-0.185000X-0.135000X0*%
G04 #@! TD*
G04 #@! TA.AperFunction,SMDPad,CuDef*
%ADD15RoundRect,0.140000X-0.170000X0.140000X-0.170000X-0.140000X0.170000X-0.140000X0.170000X0.140000X0*%
G04 #@! TD*
G04 #@! TA.AperFunction,SMDPad,CuDef*
%ADD16RoundRect,0.073750X-0.221250X0.801250X-0.221250X-0.801250X0.221250X-0.801250X0.221250X0.801250X0*%
G04 #@! TD*
G04 #@! TA.AperFunction,SMDPad,CuDef*
%ADD17RoundRect,0.250000X-1.100000X0.325000X-1.100000X-0.325000X1.100000X-0.325000X1.100000X0.325000X0*%
G04 #@! TD*
G04 #@! TA.AperFunction,SMDPad,CuDef*
%ADD18RoundRect,0.250000X-0.450000X0.262500X-0.450000X-0.262500X0.450000X-0.262500X0.450000X0.262500X0*%
G04 #@! TD*
G04 #@! TA.AperFunction,SMDPad,CuDef*
%ADD19RoundRect,0.135000X-0.185000X0.135000X-0.185000X-0.135000X0.185000X-0.135000X0.185000X0.135000X0*%
G04 #@! TD*
G04 #@! TA.AperFunction,SMDPad,CuDef*
%ADD20R,0.952500X0.508000*%
G04 #@! TD*
G04 #@! TA.AperFunction,SMDPad,CuDef*
%ADD21RoundRect,0.075000X0.662500X0.075000X-0.662500X0.075000X-0.662500X-0.075000X0.662500X-0.075000X0*%
G04 #@! TD*
G04 #@! TA.AperFunction,SMDPad,CuDef*
%ADD22RoundRect,0.218750X0.256250X-0.218750X0.256250X0.218750X-0.256250X0.218750X-0.256250X-0.218750X0*%
G04 #@! TD*
G04 #@! TA.AperFunction,SMDPad,CuDef*
%ADD23RoundRect,0.140000X-0.140000X-0.170000X0.140000X-0.170000X0.140000X0.170000X-0.140000X0.170000X0*%
G04 #@! TD*
G04 #@! TA.AperFunction,SMDPad,CuDef*
%ADD24RoundRect,0.225000X-0.250000X0.225000X-0.250000X-0.225000X0.250000X-0.225000X0.250000X0.225000X0*%
G04 #@! TD*
G04 #@! TA.AperFunction,SMDPad,CuDef*
%ADD25RoundRect,0.250000X0.450000X-0.262500X0.450000X0.262500X-0.450000X0.262500X-0.450000X-0.262500X0*%
G04 #@! TD*
G04 #@! TA.AperFunction,SMDPad,CuDef*
%ADD26RoundRect,0.135000X0.135000X0.185000X-0.135000X0.185000X-0.135000X-0.185000X0.135000X-0.185000X0*%
G04 #@! TD*
G04 #@! TA.AperFunction,SMDPad,CuDef*
%ADD27RoundRect,0.062500X-0.350000X-0.062500X0.350000X-0.062500X0.350000X0.062500X-0.350000X0.062500X0*%
G04 #@! TD*
G04 #@! TA.AperFunction,SMDPad,CuDef*
%ADD28RoundRect,0.062500X-0.062500X-0.350000X0.062500X-0.350000X0.062500X0.350000X-0.062500X0.350000X0*%
G04 #@! TD*
G04 #@! TA.AperFunction,SMDPad,CuDef*
%ADD29R,2.700000X2.700000*%
G04 #@! TD*
G04 #@! TA.AperFunction,ComponentPad*
%ADD30C,5.600000*%
G04 #@! TD*
G04 #@! TA.AperFunction,SMDPad,CuDef*
%ADD31RoundRect,0.218750X-0.256250X0.218750X-0.256250X-0.218750X0.256250X-0.218750X0.256250X0.218750X0*%
G04 #@! TD*
G04 #@! TA.AperFunction,SMDPad,CuDef*
%ADD32RoundRect,0.150000X-0.500000X0.150000X-0.500000X-0.150000X0.500000X-0.150000X0.500000X0.150000X0*%
G04 #@! TD*
G04 #@! TA.AperFunction,SMDPad,CuDef*
%ADD33RoundRect,0.075000X-0.575000X0.075000X-0.575000X-0.075000X0.575000X-0.075000X0.575000X0.075000X0*%
G04 #@! TD*
G04 #@! TA.AperFunction,ComponentPad*
%ADD34O,2.100000X1.000000*%
G04 #@! TD*
G04 #@! TA.AperFunction,ComponentPad*
%ADD35O,1.600000X1.000000*%
G04 #@! TD*
G04 #@! TA.AperFunction,SMDPad,CuDef*
%ADD36RoundRect,0.140000X0.140000X0.170000X-0.140000X0.170000X-0.140000X-0.170000X0.140000X-0.170000X0*%
G04 #@! TD*
G04 #@! TA.AperFunction,SMDPad,CuDef*
%ADD37RoundRect,0.133350X-0.615950X-0.133350X0.615950X-0.133350X0.615950X0.133350X-0.615950X0.133350X0*%
G04 #@! TD*
G04 #@! TA.AperFunction,SMDPad,CuDef*
%ADD38RoundRect,0.140000X0.170000X-0.140000X0.170000X0.140000X-0.170000X0.140000X-0.170000X-0.140000X0*%
G04 #@! TD*
G04 #@! TA.AperFunction,SMDPad,CuDef*
%ADD39R,0.650000X0.400000*%
G04 #@! TD*
G04 #@! TA.AperFunction,SMDPad,CuDef*
%ADD40R,0.889000X1.397000*%
G04 #@! TD*
G04 #@! TA.AperFunction,SMDPad,CuDef*
%ADD41RoundRect,0.225000X-0.225000X-0.250000X0.225000X-0.250000X0.225000X0.250000X-0.225000X0.250000X0*%
G04 #@! TD*
G04 #@! TA.AperFunction,SMDPad,CuDef*
%ADD42RoundRect,0.250000X-0.475000X0.250000X-0.475000X-0.250000X0.475000X-0.250000X0.475000X0.250000X0*%
G04 #@! TD*
G04 #@! TA.AperFunction,SMDPad,CuDef*
%ADD43RoundRect,0.150000X0.150000X-0.512500X0.150000X0.512500X-0.150000X0.512500X-0.150000X-0.512500X0*%
G04 #@! TD*
G04 #@! TA.AperFunction,SMDPad,CuDef*
%ADD44R,1.981200X0.540800*%
G04 #@! TD*
G04 #@! TA.AperFunction,SMDPad,CuDef*
%ADD45RoundRect,0.250000X0.250000X0.475000X-0.250000X0.475000X-0.250000X-0.475000X0.250000X-0.475000X0*%
G04 #@! TD*
G04 #@! TA.AperFunction,SMDPad,CuDef*
%ADD46R,0.400000X0.800000*%
G04 #@! TD*
G04 #@! TA.AperFunction,SMDPad,CuDef*
%ADD47R,0.800000X0.400000*%
G04 #@! TD*
G04 #@! TA.AperFunction,SMDPad,CuDef*
%ADD48R,1.450000X1.450000*%
G04 #@! TD*
G04 #@! TA.AperFunction,SMDPad,CuDef*
%ADD49R,0.700000X0.700000*%
G04 #@! TD*
G04 #@! TA.AperFunction,SMDPad,CuDef*
%ADD50FreePoly0,270.000000*%
G04 #@! TD*
G04 #@! TA.AperFunction,SMDPad,CuDef*
%ADD51RoundRect,0.250000X0.475000X-0.250000X0.475000X0.250000X-0.475000X0.250000X-0.475000X-0.250000X0*%
G04 #@! TD*
G04 #@! TA.AperFunction,SMDPad,CuDef*
%ADD52RoundRect,0.218750X-0.218750X-0.256250X0.218750X-0.256250X0.218750X0.256250X-0.218750X0.256250X0*%
G04 #@! TD*
G04 #@! TA.AperFunction,SMDPad,CuDef*
%ADD53R,2.150000X0.950000*%
G04 #@! TD*
G04 #@! TA.AperFunction,SMDPad,CuDef*
%ADD54R,2.150000X3.250000*%
G04 #@! TD*
G04 #@! TA.AperFunction,ComponentPad*
%ADD55C,2.000000*%
G04 #@! TD*
G04 #@! TA.AperFunction,ComponentPad*
%ADD56O,2.200000X2.200000*%
G04 #@! TD*
G04 #@! TA.AperFunction,ViaPad*
%ADD57C,1.000000*%
G04 #@! TD*
G04 #@! TA.AperFunction,ViaPad*
%ADD58C,0.700000*%
G04 #@! TD*
G04 #@! TA.AperFunction,Conductor*
%ADD59C,0.300000*%
G04 #@! TD*
G04 #@! TA.AperFunction,Conductor*
%ADD60C,0.500000*%
G04 #@! TD*
G04 #@! TA.AperFunction,Conductor*
%ADD61C,1.000000*%
G04 #@! TD*
G04 APERTURE END LIST*
D10*
X72930000Y-72530000D03*
D11*
X70390000Y-72530000D03*
X67850000Y-72530000D03*
X65310000Y-72530000D03*
X62770000Y-72530000D03*
X60230000Y-72530000D03*
X57690000Y-72530000D03*
X55150000Y-72530000D03*
D10*
X51050000Y-72520000D03*
D11*
X48510000Y-72520000D03*
X45970000Y-72520000D03*
X43430000Y-72520000D03*
X28910000Y-67460000D03*
X28910000Y-64920000D03*
D10*
X28910000Y-62380000D03*
D12*
X39300000Y-35715000D03*
X39300000Y-37865000D03*
D13*
X32930001Y-35655000D03*
X33950001Y-35655000D03*
D14*
X35200001Y-34180000D03*
X35200001Y-33160000D03*
X79270000Y-63071250D03*
X79270000Y-62051250D03*
D15*
X39940000Y-53797500D03*
X39940000Y-54757500D03*
D14*
X47470000Y-48040000D03*
X47470000Y-47020000D03*
D16*
X54385000Y-54635000D03*
X53115000Y-54635000D03*
X51845000Y-54635000D03*
X50575000Y-54635000D03*
X50575000Y-59805000D03*
X51845000Y-59805000D03*
X53115000Y-59805000D03*
X54385000Y-59805000D03*
D17*
X66840000Y-34265000D03*
X66840000Y-37215000D03*
D15*
X38549999Y-56630000D03*
X38549999Y-57590000D03*
D13*
X48460000Y-45090000D03*
X49480000Y-45090000D03*
D18*
X53880000Y-62492500D03*
X53880000Y-64317500D03*
D19*
X72810000Y-27160000D03*
X72810000Y-28180000D03*
D20*
X45762050Y-38930040D03*
X45762050Y-39880000D03*
X45762050Y-40829960D03*
X48517950Y-40829960D03*
X48517950Y-38930040D03*
D21*
X60922500Y-41060000D03*
X60922500Y-40560000D03*
X60922500Y-40060000D03*
X60922500Y-39560000D03*
X60922500Y-39060000D03*
X60922500Y-38560000D03*
X60922500Y-38060000D03*
X60922500Y-37560000D03*
X60922500Y-37060000D03*
X60922500Y-36560000D03*
X60922500Y-36060000D03*
X60922500Y-35560000D03*
X60922500Y-35060000D03*
X60922500Y-34560000D03*
X60922500Y-34060000D03*
X60922500Y-33560000D03*
X60922500Y-33060000D03*
X60922500Y-32560000D03*
X60922500Y-32060000D03*
X55197500Y-32060000D03*
X55197500Y-32560000D03*
X55197500Y-33060000D03*
X55197500Y-33560000D03*
X55197500Y-34060000D03*
X55197500Y-34560000D03*
X55197500Y-35060000D03*
X55197500Y-35560000D03*
X55197500Y-36060000D03*
X55197500Y-36560000D03*
X55197500Y-37060000D03*
X55197500Y-37560000D03*
X55197500Y-38060000D03*
X55197500Y-38560000D03*
X55197500Y-39060000D03*
X55197500Y-39560000D03*
X55197500Y-40060000D03*
X55197500Y-40560000D03*
X55197500Y-41060000D03*
D22*
X72810000Y-31145000D03*
X72810000Y-29570000D03*
D23*
X35200001Y-39530000D03*
X36160001Y-39530000D03*
D24*
X64310000Y-35965000D03*
X64310000Y-37515000D03*
D25*
X36490000Y-65922500D03*
X36490000Y-64097500D03*
D26*
X43020001Y-55807500D03*
X42000001Y-55807500D03*
D27*
X42207500Y-51360000D03*
X42207500Y-51860000D03*
X42207500Y-52360000D03*
X42207500Y-52860000D03*
X42207500Y-53360000D03*
X42207500Y-53860000D03*
D28*
X42920000Y-54572500D03*
X43420000Y-54572500D03*
X43920000Y-54572500D03*
X44420000Y-54572500D03*
X44920000Y-54572500D03*
X45420000Y-54572500D03*
D27*
X46132500Y-53860000D03*
X46132500Y-53360000D03*
X46132500Y-52860000D03*
X46132500Y-52360000D03*
X46132500Y-51860000D03*
X46132500Y-51360000D03*
D28*
X45420000Y-50647500D03*
X44920000Y-50647500D03*
X44420000Y-50647500D03*
X43920000Y-50647500D03*
X43420000Y-50647500D03*
X42920000Y-50647500D03*
D29*
X44170000Y-52610000D03*
D24*
X60215001Y-46745318D03*
X60215001Y-48295318D03*
D19*
X60215450Y-44480318D03*
X60215450Y-45500318D03*
D24*
X50170000Y-39095000D03*
X50170000Y-40645000D03*
D30*
X29210000Y-29210000D03*
D25*
X50860000Y-64320000D03*
X50860000Y-62495000D03*
D19*
X31200000Y-39720002D03*
X31200000Y-40740002D03*
D26*
X40130000Y-71050000D03*
X39110000Y-71050000D03*
D31*
X45640001Y-33142502D03*
X45640001Y-34717502D03*
X41460000Y-33645000D03*
X41460000Y-35220000D03*
D24*
X62730000Y-35515000D03*
X62730000Y-37065000D03*
D31*
X79270000Y-59193751D03*
X79270000Y-60768751D03*
D30*
X29210000Y-72390000D03*
D26*
X44970000Y-55817500D03*
X43950000Y-55817500D03*
D32*
X32760000Y-51470000D03*
X32760000Y-52270000D03*
D33*
X32760000Y-53420000D03*
X32760000Y-54420000D03*
X32760000Y-54920000D03*
X32760000Y-55920000D03*
D32*
X32760000Y-57070000D03*
X32760000Y-57870000D03*
X32760000Y-57870000D03*
X32760000Y-57070000D03*
D33*
X32760000Y-56420000D03*
X32760000Y-55420000D03*
X32760000Y-53920000D03*
X32760000Y-52920000D03*
D32*
X32760000Y-52270000D03*
X32760000Y-51470000D03*
D34*
X32120000Y-50350000D03*
D35*
X27940000Y-50350000D03*
D34*
X32120000Y-58990000D03*
D35*
X27940000Y-58990000D03*
D36*
X39790000Y-68250000D03*
X38830000Y-68250000D03*
D30*
X78740000Y-29210000D03*
D37*
X67882400Y-64875000D03*
X67882400Y-66145000D03*
X67882400Y-67415000D03*
X67882400Y-68685000D03*
X75197600Y-68685000D03*
X75197600Y-67415000D03*
X75197600Y-66145000D03*
X75197600Y-64875000D03*
D38*
X76850000Y-64860000D03*
X76850000Y-63900000D03*
D24*
X44100001Y-39155001D03*
X44100001Y-40705001D03*
D39*
X48710000Y-46410000D03*
X48710000Y-47060000D03*
X48710000Y-47710000D03*
X50610000Y-47710000D03*
X50610000Y-47060000D03*
X50610000Y-46410000D03*
D14*
X41460000Y-37519999D03*
X41460000Y-36499999D03*
D40*
X52094999Y-46390318D03*
X58595001Y-46390318D03*
D41*
X42410000Y-43300000D03*
X43960000Y-43300000D03*
D42*
X42710000Y-45690000D03*
X42710000Y-47590000D03*
D19*
X31190000Y-41760000D03*
X31190000Y-42780000D03*
D13*
X34400000Y-56180000D03*
X35420000Y-56180000D03*
D24*
X53330000Y-35515000D03*
X53330000Y-37065000D03*
D13*
X34410000Y-53140000D03*
X35430000Y-53140000D03*
D43*
X35200000Y-37930000D03*
X36150000Y-37930000D03*
X37100000Y-37930000D03*
X37100000Y-35655000D03*
X36150000Y-35655000D03*
X35200000Y-35655000D03*
D14*
X45640000Y-36940000D03*
X45640000Y-35920000D03*
D15*
X52370000Y-63707500D03*
X52370000Y-64667500D03*
D44*
X43904999Y-66795000D03*
X43904999Y-65525000D03*
X43904999Y-64255000D03*
X43904999Y-62985000D03*
X38975001Y-62985000D03*
X38975001Y-64255000D03*
X38975001Y-65525000D03*
X38975001Y-66795000D03*
D14*
X77960000Y-37710000D03*
X77960000Y-36690000D03*
D45*
X73550000Y-38650000D03*
X71650000Y-38650000D03*
D36*
X38040000Y-39530000D03*
X37080000Y-39530000D03*
D15*
X37540000Y-56610000D03*
X37540000Y-57570000D03*
D46*
X75270000Y-40700000D03*
X74470000Y-40700000D03*
X73670000Y-40700000D03*
X72870000Y-40700000D03*
X72070000Y-40700000D03*
X71270000Y-40700000D03*
X70470000Y-40700000D03*
X69670000Y-40700000D03*
X68870000Y-40700000D03*
X68070000Y-40700000D03*
X67270000Y-40700000D03*
D47*
X66370000Y-41800000D03*
X66370000Y-42600000D03*
X66370000Y-43400000D03*
X66370000Y-44200000D03*
X66370000Y-45000000D03*
X66370000Y-45800000D03*
X66370000Y-46600000D03*
X66370000Y-47400000D03*
X66370000Y-48200000D03*
X66370000Y-49000000D03*
X66370000Y-49800000D03*
X66370000Y-50600000D03*
X66370000Y-51400000D03*
D46*
X67270000Y-52500000D03*
X68070000Y-52500000D03*
X68870000Y-52500000D03*
X69670000Y-52500000D03*
X70470000Y-52500000D03*
X71270000Y-52500000D03*
X72070000Y-52500000D03*
X72870000Y-52500000D03*
X73670000Y-52500000D03*
X74470000Y-52500000D03*
X75270000Y-52500000D03*
D47*
X76170000Y-51400000D03*
X76170000Y-50600000D03*
X76170000Y-49800000D03*
X76170000Y-49000000D03*
X76170000Y-48200000D03*
X76170000Y-47400000D03*
X76170000Y-46600000D03*
X76170000Y-45800000D03*
X76170000Y-45000000D03*
X76170000Y-44200000D03*
X76170000Y-43400000D03*
X76170000Y-42600000D03*
X76170000Y-41800000D03*
D48*
X71270000Y-46600000D03*
D49*
X76220000Y-52550000D03*
X66320000Y-52550000D03*
X66320000Y-40650000D03*
X76220000Y-40650000D03*
D48*
X71270000Y-44650000D03*
X69320000Y-44650000D03*
X69320000Y-46600000D03*
X69320000Y-48550000D03*
X71270000Y-48550000D03*
X73220000Y-48550000D03*
X73220000Y-46600000D03*
D50*
X73220000Y-44650000D03*
D51*
X53140000Y-40900000D03*
X53140000Y-39000000D03*
D30*
X78740000Y-72380000D03*
D31*
X77960000Y-33822500D03*
X77960000Y-35397500D03*
D52*
X36272501Y-71050000D03*
X37847501Y-71050000D03*
D23*
X51950000Y-52940000D03*
X52910000Y-52940000D03*
D41*
X62695000Y-39060000D03*
X64245000Y-39060000D03*
D23*
X37460000Y-34220000D03*
X38420000Y-34220000D03*
D15*
X40980001Y-53797500D03*
X40980001Y-54757500D03*
D53*
X40230000Y-47900000D03*
X40230000Y-45600000D03*
X40230000Y-43300000D03*
D54*
X34430000Y-45600000D03*
D41*
X73655000Y-36850000D03*
X75205000Y-36850000D03*
D55*
X73540000Y-55260000D03*
X34410000Y-67130000D03*
X34370000Y-62680000D03*
X46810000Y-66500000D03*
X30010000Y-48060000D03*
D56*
X28790000Y-44160000D03*
D10*
X28790000Y-41620000D03*
D11*
X28790000Y-39080000D03*
D10*
X28790000Y-36540000D03*
D55*
X33860000Y-27360000D03*
X73090000Y-59160000D03*
X54170000Y-67000000D03*
X36880000Y-29630000D03*
D10*
X41260000Y-28850000D03*
D11*
X43800000Y-28850000D03*
X46340000Y-28850000D03*
X48880000Y-28850000D03*
X51420000Y-28850000D03*
X53960000Y-28850000D03*
X56500000Y-28850000D03*
X59040000Y-28850000D03*
X61580000Y-28850000D03*
X64120000Y-28850000D03*
X66660000Y-28850000D03*
X69200000Y-28850000D03*
D55*
X49750000Y-36960000D03*
X50450000Y-67000000D03*
X55190000Y-42440001D03*
X56810000Y-56400000D03*
X44280000Y-60270000D03*
X68090000Y-57670000D03*
X65330000Y-64400000D03*
X40840000Y-40770000D03*
X63670000Y-41940000D03*
X57640000Y-50440000D03*
X47070000Y-62810000D03*
D57*
X36080000Y-33330000D03*
X56540000Y-38380000D03*
D58*
X44100000Y-41490000D03*
X42320000Y-48480000D03*
X65540000Y-52550000D03*
X76400000Y-63320000D03*
D57*
X74940000Y-46510000D03*
X74940000Y-49160000D03*
D58*
X44480000Y-33140000D03*
D57*
X53280000Y-58170000D03*
X35340000Y-71050000D03*
X52280000Y-62740000D03*
D58*
X32930001Y-36330000D03*
X52940000Y-41750000D03*
X41490000Y-32569999D03*
X59395450Y-48295318D03*
D57*
X74940000Y-45185000D03*
X56508284Y-33058767D03*
X59609106Y-36054748D03*
X72810000Y-32080000D03*
X59439380Y-33116796D03*
D58*
X65050000Y-39000000D03*
X30930000Y-43390000D03*
X79250000Y-58081251D03*
X36051486Y-55881110D03*
D57*
X68690000Y-34260000D03*
X59640000Y-39800000D03*
D58*
X65260000Y-43989500D03*
X45550000Y-56500000D03*
X41160000Y-51580000D03*
X40980000Y-55517500D03*
X63350000Y-34830000D03*
D57*
X74940000Y-47835000D03*
D58*
X49540000Y-41240000D03*
D57*
X56660000Y-36010000D03*
D58*
X35460000Y-52470000D03*
D57*
X40470000Y-62990000D03*
D58*
X43070000Y-48500000D03*
D57*
X59485500Y-38080000D03*
X53035001Y-46390318D03*
X44910000Y-43300000D03*
X53090000Y-56020000D03*
X55200000Y-31000000D03*
X74940000Y-43860000D03*
D58*
X46499016Y-39880000D03*
D57*
X60920000Y-30990000D03*
D58*
X76000000Y-36840000D03*
D57*
X36610000Y-40400000D03*
X38050000Y-68250000D03*
X53870000Y-52940000D03*
D58*
X66790000Y-68700000D03*
X53330000Y-34710000D03*
X66350000Y-39850000D03*
X70800000Y-38670000D03*
X64910000Y-35280000D03*
X77790000Y-32909999D03*
X37970000Y-58570000D03*
X79270000Y-63681251D03*
D57*
X73670000Y-35660000D03*
D58*
X59530000Y-44500000D03*
D57*
X37350000Y-44550000D03*
D58*
X74100000Y-66145000D03*
D57*
X37400000Y-45650000D03*
X36300000Y-46750000D03*
X37400000Y-46750000D03*
D58*
X66790000Y-67410000D03*
X52290000Y-38280000D03*
D57*
X36300000Y-45640000D03*
D58*
X77150000Y-65510000D03*
D57*
X36300000Y-44550000D03*
D58*
X69540000Y-39330000D03*
X63790000Y-44230000D03*
X51950000Y-51930000D03*
X49520000Y-61300000D03*
X51120000Y-44760000D03*
X40570000Y-66110000D03*
X54340000Y-47640000D03*
X67530000Y-49920000D03*
X46450000Y-48170000D03*
X46825813Y-50790863D03*
X55310000Y-62320000D03*
X67960000Y-51610000D03*
X32570000Y-41660000D03*
X68850000Y-38480000D03*
X74400000Y-41850000D03*
X77920000Y-38340000D03*
X70410000Y-56360000D03*
X69880189Y-53830567D03*
X70470000Y-51379500D03*
X56640000Y-41010000D03*
X60922500Y-42560000D03*
X59450000Y-42790000D03*
X67650000Y-46270000D03*
X69510000Y-64670000D03*
X73340000Y-51550000D03*
X67570000Y-53441000D03*
X64095628Y-54125628D03*
X55580000Y-52710000D03*
X65520000Y-49900500D03*
X65290000Y-51400000D03*
X68420000Y-54840000D03*
X70850000Y-54840000D03*
X62696128Y-52740000D03*
X63923175Y-57343175D03*
X62225122Y-54941422D03*
X63230500Y-58085837D03*
X61800893Y-52827508D03*
X61464804Y-55701740D03*
X62533774Y-58732575D03*
X60901599Y-52846847D03*
X60828760Y-56337784D03*
X60002191Y-52833788D03*
X60192716Y-56973828D03*
X61897730Y-59368620D03*
X61303671Y-60044045D03*
X59106833Y-52747539D03*
X59556672Y-57609873D03*
X60716198Y-60725206D03*
X58920628Y-58245917D03*
X58338209Y-52280291D03*
D59*
X46539006Y-40829960D02*
X47199016Y-40169950D01*
X47199016Y-39149016D02*
X46980040Y-38930040D01*
X47199016Y-40169950D02*
X47199016Y-39149016D01*
X46980040Y-38930040D02*
X45762050Y-38930040D01*
X35910000Y-33160000D02*
X36080000Y-33330000D01*
X35200001Y-33160000D02*
X35910000Y-33160000D01*
X45762050Y-40829960D02*
X46539006Y-40829960D01*
X37970000Y-58570000D02*
X37970000Y-58060000D01*
X56540000Y-38380000D02*
X56220000Y-38060000D01*
X52094999Y-46390318D02*
X53035001Y-46390318D01*
X64310000Y-35965000D02*
X64310000Y-35880000D01*
D60*
X52370000Y-63707500D02*
X52370000Y-62830000D01*
X52370000Y-62830000D02*
X52280000Y-62740000D01*
X53280000Y-58170000D02*
X54385000Y-59275000D01*
D59*
X75990000Y-36850000D02*
X76000000Y-36840000D01*
X66320000Y-40650000D02*
X66320000Y-39880000D01*
X75205000Y-36850000D02*
X75990000Y-36850000D01*
X77790000Y-32909999D02*
X77960000Y-33079999D01*
D60*
X53115000Y-55995000D02*
X53090000Y-56020000D01*
D59*
X56220000Y-38060000D02*
X55197500Y-38060000D01*
X35420000Y-56180000D02*
X35752596Y-56180000D01*
X32760000Y-58350000D02*
X32120000Y-58990000D01*
X65849500Y-43400000D02*
X65260000Y-43989500D01*
X40980001Y-54757500D02*
X40980001Y-55517499D01*
X56507051Y-33060000D02*
X56508284Y-33058767D01*
X32760000Y-50990000D02*
X32120000Y-50350000D01*
D60*
X52910000Y-52940000D02*
X53870000Y-52940000D01*
X68685000Y-34265000D02*
X68690000Y-34260000D01*
D59*
X37970000Y-58000000D02*
X37540000Y-57570000D01*
X40980001Y-55517499D02*
X40980000Y-55517500D01*
X79270000Y-59193752D02*
X79270000Y-58101250D01*
X64990000Y-39060000D02*
X64245000Y-39060000D01*
X55197500Y-32060000D02*
X55197500Y-31002500D01*
X39940000Y-54757500D02*
X40220000Y-54757500D01*
X65050000Y-39000000D02*
X64990000Y-39060000D01*
X59640000Y-39800000D02*
X59900000Y-40060000D01*
X36272501Y-71050000D02*
X35340000Y-71050000D01*
D60*
X53115000Y-54635000D02*
X53115000Y-55995000D01*
D59*
X56540000Y-38380000D02*
X56360000Y-38560000D01*
X59614358Y-36060000D02*
X59609106Y-36054748D01*
X53140000Y-40900000D02*
X53140000Y-41550000D01*
X41490000Y-33615000D02*
X41460000Y-33645000D01*
X44970000Y-55920000D02*
X44970000Y-55817500D01*
X59485500Y-38080000D02*
X59965500Y-38560000D01*
X56610000Y-36060000D02*
X55197500Y-36060000D01*
X67270000Y-40700000D02*
X66370000Y-40700000D01*
X59485500Y-38080000D02*
X59485500Y-37924500D01*
X35752596Y-56180000D02*
X36051486Y-55881110D01*
X45762050Y-39880000D02*
X46499016Y-39880000D01*
X45640001Y-33142502D02*
X44482502Y-33142502D01*
X76850000Y-63900000D02*
X76850000Y-63770000D01*
X53140000Y-41550000D02*
X52940000Y-41750000D01*
X59850000Y-37560000D02*
X60922500Y-37560000D01*
X65540000Y-52550000D02*
X66320000Y-52550000D01*
D60*
X66840000Y-34265000D02*
X68685000Y-34265000D01*
D59*
X59900000Y-40060000D02*
X60922500Y-40060000D01*
X44100001Y-41489999D02*
X44100000Y-41490000D01*
X55197500Y-33060000D02*
X56507051Y-33060000D01*
X41490000Y-32569999D02*
X41490000Y-33615000D01*
X40465000Y-62985000D02*
X40470000Y-62990000D01*
X32930001Y-36330000D02*
X32930001Y-35655000D01*
X62730000Y-35450000D02*
X63350000Y-34830000D01*
X60922500Y-30992500D02*
X60920000Y-30990000D01*
X38440000Y-57590000D02*
X38549999Y-57590000D01*
X44482502Y-33142502D02*
X44480000Y-33140000D01*
X49540000Y-41240000D02*
X49575000Y-41240000D01*
X31190000Y-43130000D02*
X31190000Y-42780000D01*
X59496176Y-33060000D02*
X59439380Y-33116796D01*
X71650000Y-38650000D02*
X70820000Y-38650000D01*
X30930000Y-43390000D02*
X31190000Y-43130000D01*
X37970000Y-58060000D02*
X38440000Y-57590000D01*
X55720000Y-37560000D02*
X55197500Y-37560000D01*
X67882400Y-68685000D02*
X66805000Y-68685000D01*
X41160000Y-51580000D02*
X41440000Y-51860000D01*
X66320000Y-39880000D02*
X66350000Y-39850000D01*
X60922500Y-32060000D02*
X60922500Y-30992500D01*
X60922500Y-33060000D02*
X59496176Y-33060000D01*
X59485500Y-37924500D02*
X59850000Y-37560000D01*
D60*
X43960000Y-43300000D02*
X44910000Y-43300000D01*
D59*
X56660000Y-36010000D02*
X56110000Y-36560000D01*
X64310000Y-35880000D02*
X64910000Y-35280000D01*
X59965500Y-38560000D02*
X60922500Y-38560000D01*
D60*
X54385000Y-59275000D02*
X54385000Y-59805000D01*
D59*
X60922500Y-39560000D02*
X59880000Y-39560000D01*
X44170000Y-52610000D02*
X43420000Y-51860000D01*
X59395450Y-48295318D02*
X60215001Y-48295318D01*
X41440000Y-51860000D02*
X42207500Y-51860000D01*
X66370000Y-40700000D02*
X66320000Y-40650000D01*
X66805000Y-68685000D02*
X66790000Y-68700000D01*
X76850000Y-63770000D02*
X76400000Y-63320000D01*
X53330000Y-35515000D02*
X53330000Y-34710000D01*
X60922500Y-36060000D02*
X59614358Y-36060000D01*
X79270000Y-58101250D02*
X79250000Y-58081251D01*
X56540000Y-38380000D02*
X55720000Y-37560000D01*
X45550000Y-56500000D02*
X44970000Y-55920000D01*
X32760000Y-51470000D02*
X32760000Y-50990000D01*
X38830000Y-68250000D02*
X38050000Y-68250000D01*
X38975001Y-62985000D02*
X40465000Y-62985000D01*
X70820000Y-38650000D02*
X70800000Y-38670000D01*
X35430000Y-53140000D02*
X35430000Y-52500000D01*
X56110000Y-36560000D02*
X55197500Y-36560000D01*
X56360000Y-38560000D02*
X55197500Y-38560000D01*
X77960000Y-33079999D02*
X77960000Y-33822499D01*
X56660000Y-36010000D02*
X56610000Y-36060000D01*
X37970000Y-58570000D02*
X37970000Y-58000000D01*
X44100001Y-40705001D02*
X44100001Y-41489999D01*
X72810000Y-31145000D02*
X72810000Y-32080000D01*
X49575000Y-41240000D02*
X50170000Y-40645000D01*
X59880000Y-39560000D02*
X59640000Y-39800000D01*
X43420000Y-51860000D02*
X42207500Y-51860000D01*
X35430000Y-52500000D02*
X35460000Y-52470000D01*
X55197500Y-31002500D02*
X55200000Y-31000000D01*
X32760000Y-57870000D02*
X32760000Y-58350000D01*
X40220000Y-54757500D02*
X40980000Y-55517500D01*
X62730000Y-35515000D02*
X62730000Y-35450000D01*
X66370000Y-43400000D02*
X65849500Y-43400000D01*
X67882400Y-67415000D02*
X66795000Y-67415000D01*
X55197500Y-39060000D02*
X53200000Y-39060000D01*
X79270000Y-63071249D02*
X79270000Y-63681251D01*
X75212600Y-64860000D02*
X75197600Y-64875000D01*
X53200000Y-39060000D02*
X53140000Y-39000000D01*
X77150000Y-65160000D02*
X76850000Y-64860000D01*
X74100000Y-66145000D02*
X75197600Y-66145000D01*
X66795000Y-67415000D02*
X66790000Y-67410000D01*
X59530000Y-44500000D02*
X59549682Y-44480318D01*
X53140000Y-39000000D02*
X53010000Y-39000000D01*
X53010000Y-39000000D02*
X52290000Y-38280000D01*
X77150000Y-65510000D02*
X77150000Y-65160000D01*
X76850000Y-64860000D02*
X75212600Y-64860000D01*
X59549682Y-44480318D02*
X60215450Y-44480318D01*
D60*
X73670000Y-40700000D02*
X73670000Y-35660000D01*
D59*
X51300000Y-48400000D02*
X57295319Y-48400000D01*
X57295319Y-48400000D02*
X58950001Y-46745318D01*
X61010319Y-45950000D02*
X60215001Y-46745318D01*
X62070000Y-45950000D02*
X61010319Y-45950000D01*
X69670000Y-39460000D02*
X69540000Y-39330000D01*
X63790000Y-44230000D02*
X62070000Y-45950000D01*
X58950001Y-46745318D02*
X60215001Y-46745318D01*
X50610000Y-47710000D02*
X51300000Y-48400000D01*
X69670000Y-40700000D02*
X69670000Y-39460000D01*
X31400000Y-56311041D02*
X32158959Y-57070000D01*
X31400000Y-53025305D02*
X31400000Y-56311041D01*
D60*
X38549999Y-56630000D02*
X41177501Y-56630000D01*
X35920000Y-57070000D02*
X36380000Y-56610000D01*
X41177501Y-56630000D02*
X42000001Y-55807500D01*
D59*
X42920000Y-54887501D02*
X42000001Y-55807500D01*
X32155305Y-52270000D02*
X31400000Y-53025305D01*
D60*
X37540000Y-56610000D02*
X38529999Y-56610000D01*
X38529999Y-56610000D02*
X38549999Y-56630000D01*
D59*
X32158959Y-57070000D02*
X32760000Y-57070000D01*
X32760000Y-52270000D02*
X32155305Y-52270000D01*
X42920000Y-54572500D02*
X42920000Y-54887501D01*
D60*
X32760000Y-57070000D02*
X35920000Y-57070000D01*
X36380000Y-56610000D02*
X37540000Y-56610000D01*
D59*
X40980001Y-53797500D02*
X41417501Y-53360000D01*
X41042501Y-53860000D02*
X40980001Y-53797500D01*
X41417501Y-53360000D02*
X42207500Y-53360000D01*
X39940000Y-53797500D02*
X40980001Y-53797500D01*
X42207500Y-53860000D02*
X41042501Y-53860000D01*
D60*
X39790000Y-68250000D02*
X39790000Y-67609999D01*
X50575000Y-59805000D02*
X50575000Y-57895000D01*
X51100000Y-44740000D02*
X51100000Y-40025000D01*
X49450000Y-53590000D02*
X50100000Y-52940000D01*
D59*
X62725000Y-37060000D02*
X62730000Y-37065000D01*
D60*
X39790000Y-67609999D02*
X38975001Y-66795000D01*
X51120000Y-44760000D02*
X51100000Y-44740000D01*
X50575000Y-57895000D02*
X49450000Y-56770000D01*
X50100000Y-52940000D02*
X51950000Y-52940000D01*
D59*
X53330000Y-37065000D02*
X53335000Y-37060000D01*
X60922500Y-37060000D02*
X62725000Y-37060000D01*
D60*
X51950000Y-54530000D02*
X51845000Y-54635000D01*
D59*
X45640000Y-36940000D02*
X46527910Y-36940000D01*
X53335000Y-37060000D02*
X55197500Y-37060000D01*
X46527910Y-36940000D02*
X48517950Y-38930040D01*
D60*
X40570000Y-66110000D02*
X39885000Y-66795000D01*
X51950000Y-52940000D02*
X51950000Y-51930000D01*
X50575000Y-60245000D02*
X49520000Y-61300000D01*
D59*
X53225000Y-36960000D02*
X53330000Y-37065000D01*
D60*
X39885000Y-66795000D02*
X38975001Y-66795000D01*
X51100000Y-40025000D02*
X50170000Y-39095000D01*
X51950000Y-52940000D02*
X51950000Y-54530000D01*
X50575000Y-59805000D02*
X50575000Y-60245000D01*
D59*
X49750000Y-36960000D02*
X53225000Y-36960000D01*
X55197500Y-37060000D02*
X60922500Y-37060000D01*
D60*
X49450000Y-56770000D02*
X49450000Y-53590000D01*
X46340000Y-28850000D02*
X46340000Y-28160000D01*
X53960000Y-28860000D02*
X53960000Y-28190000D01*
D61*
X27234366Y-44160000D02*
X26670000Y-43595634D01*
D60*
X28560000Y-33410000D02*
X33100000Y-33410000D01*
X61580000Y-28850000D02*
X61580000Y-28140000D01*
D61*
X26670000Y-39730000D02*
X27320000Y-39080000D01*
X27320000Y-39080000D02*
X28790000Y-39080000D01*
D60*
X28790000Y-39080000D02*
X28230000Y-39080000D01*
X40140000Y-26370000D02*
X72020000Y-26370000D01*
X28230000Y-39080000D02*
X26860000Y-37710000D01*
D61*
X26670000Y-43595634D02*
X26670000Y-39730000D01*
D60*
X72020000Y-26370000D02*
X72810000Y-27160000D01*
X53960000Y-28190000D02*
X52140000Y-26370000D01*
X53920000Y-28900000D02*
X53960000Y-28860000D01*
X46340000Y-28160000D02*
X44550000Y-26370000D01*
D61*
X28790000Y-44160000D02*
X27234366Y-44160000D01*
D60*
X69200000Y-28850000D02*
X69200000Y-28380000D01*
X33100000Y-33410000D02*
X40140000Y-26370000D01*
X69200000Y-28380000D02*
X67190000Y-26370000D01*
X26860000Y-37710000D02*
X26860000Y-35110000D01*
X26860000Y-35110000D02*
X28560000Y-33410000D01*
X61580000Y-28140000D02*
X59810000Y-26370000D01*
D59*
X38205000Y-36810000D02*
X39300000Y-35715000D01*
X36150000Y-37930000D02*
X36150000Y-37300000D01*
X36150000Y-37300000D02*
X36640000Y-36810000D01*
X36640000Y-36810000D02*
X38205000Y-36810000D01*
X52720000Y-64317500D02*
X52370000Y-64667500D01*
X52022500Y-64320000D02*
X52370000Y-64667500D01*
X53880000Y-64317500D02*
X52720000Y-64317500D01*
X50860000Y-64320000D02*
X52022500Y-64320000D01*
D60*
X66840000Y-37215000D02*
X64610000Y-37215000D01*
D59*
X60922500Y-38060000D02*
X63765000Y-38060000D01*
D60*
X64610000Y-37215000D02*
X64310000Y-37515000D01*
D59*
X63765000Y-38060000D02*
X64310000Y-37515000D01*
X60922500Y-39060000D02*
X62695000Y-39060000D01*
X37847501Y-71050000D02*
X39110000Y-71050000D01*
X45640001Y-35919999D02*
X45640000Y-35920000D01*
X45640001Y-34717502D02*
X45640001Y-35919999D01*
X79270000Y-62051249D02*
X79270000Y-60768751D01*
X72810000Y-28180000D02*
X72810000Y-29570000D01*
X41460000Y-35220000D02*
X41460000Y-36499999D01*
X77960000Y-36689999D02*
X77960000Y-35397499D01*
X32760000Y-53420000D02*
X34130000Y-53420000D01*
X34130000Y-53420000D02*
X34410000Y-53140000D01*
X35390000Y-54420000D02*
X37450000Y-52360000D01*
X32760000Y-54420000D02*
X35390000Y-54420000D01*
X37450000Y-52360000D02*
X42207500Y-52360000D01*
X37657106Y-52860000D02*
X35597106Y-54920000D01*
X42207500Y-52860000D02*
X37657106Y-52860000D01*
X35597106Y-54920000D02*
X32760000Y-54920000D01*
X34160000Y-56420000D02*
X34400000Y-56180000D01*
X32760000Y-56420000D02*
X34160000Y-56420000D01*
D60*
X34080000Y-67460000D02*
X34410000Y-67130000D01*
X34410000Y-67130000D02*
X35282500Y-67130000D01*
X38975001Y-65525000D02*
X36887500Y-65525000D01*
X35282500Y-67130000D02*
X36490000Y-65922500D01*
X28910000Y-67460000D02*
X34080000Y-67460000D01*
X36887500Y-65525000D02*
X36490000Y-65922500D01*
X38975001Y-64255000D02*
X36647500Y-64255000D01*
X34370000Y-62680000D02*
X35072500Y-62680000D01*
X35072500Y-62680000D02*
X36490000Y-64097500D01*
X32130000Y-64920000D02*
X34370000Y-62680000D01*
X36647500Y-64255000D02*
X36490000Y-64097500D01*
X28910000Y-64920000D02*
X32130000Y-64920000D01*
D59*
X66660000Y-30090000D02*
X66660000Y-28850000D01*
X63190000Y-33560000D02*
X66660000Y-30090000D01*
X60922500Y-33560000D02*
X63190000Y-33560000D01*
X60083959Y-32560000D02*
X59040000Y-31516041D01*
X60922500Y-32560000D02*
X60083959Y-32560000D01*
X59040000Y-31516041D02*
X59040000Y-28850000D01*
X51420000Y-30405634D02*
X53574366Y-32560000D01*
X51420000Y-28850000D02*
X51420000Y-30405634D01*
X53574366Y-32560000D02*
X55197500Y-32560000D01*
X48510000Y-33560000D02*
X55197500Y-33560000D01*
X43800000Y-28850000D02*
X48510000Y-33560000D01*
X67530000Y-49920000D02*
X66850000Y-50600000D01*
X51300499Y-46475499D02*
X51300499Y-47250499D01*
X66850000Y-50600000D02*
X66370000Y-50600000D01*
X51235000Y-46410000D02*
X51300499Y-46475499D01*
X51690000Y-47640000D02*
X54340000Y-47640000D01*
X50610000Y-46410000D02*
X51235000Y-46410000D01*
X51300499Y-47250499D02*
X51690000Y-47640000D01*
D60*
X51050000Y-72520000D02*
X51050000Y-70120000D01*
X55640000Y-61130000D02*
X56110000Y-61600000D01*
X56110000Y-61600000D02*
X56110000Y-65060000D01*
X53470000Y-61130000D02*
X55640000Y-61130000D01*
X56110000Y-65060000D02*
X54170000Y-67000000D01*
X53115000Y-60775000D02*
X53470000Y-61130000D01*
X46670000Y-74850000D02*
X50080000Y-74850000D01*
X51050000Y-73880000D02*
X51050000Y-72520000D01*
X50080000Y-74850000D02*
X51050000Y-73880000D01*
X45970000Y-72520000D02*
X45970000Y-74150000D01*
X45970000Y-74150000D02*
X46670000Y-74850000D01*
X53115000Y-59805000D02*
X53115000Y-60775000D01*
X51050000Y-70120000D02*
X54170000Y-67000000D01*
X43430000Y-72520000D02*
X43430000Y-71100000D01*
X47800000Y-70490000D02*
X48510000Y-71200000D01*
X49130000Y-65680000D02*
X48510000Y-65680000D01*
X48510000Y-65680000D02*
X48510000Y-64845000D01*
X48510000Y-64845000D02*
X50860000Y-62495000D01*
X51845000Y-61510000D02*
X50860000Y-62495000D01*
X51845000Y-59805000D02*
X51845000Y-61510000D01*
X43430000Y-71100000D02*
X44040000Y-70490000D01*
X48510000Y-72520000D02*
X48510000Y-65680000D01*
X48510000Y-71200000D02*
X48510000Y-72520000D01*
X50450000Y-67000000D02*
X49130000Y-65680000D01*
X44040000Y-70490000D02*
X47800000Y-70490000D01*
D59*
X43420000Y-50064106D02*
X47084106Y-46400000D01*
X47084106Y-46400000D02*
X48700000Y-46400000D01*
X43420000Y-50647500D02*
X43420000Y-50151637D01*
X48460000Y-45090000D02*
X48460000Y-46160000D01*
X43420000Y-50090000D02*
X43420000Y-50064106D01*
X48460000Y-46160000D02*
X48710000Y-46410000D01*
X48700000Y-46400000D02*
X48710000Y-46410000D01*
X47470000Y-47020000D02*
X48670000Y-47020000D01*
X48670000Y-47020000D02*
X48710000Y-47060000D01*
X48380000Y-48040000D02*
X48710000Y-47710000D01*
X46825813Y-50790863D02*
X46682450Y-50647500D01*
X46980000Y-47980000D02*
X47410000Y-47980000D01*
X47470000Y-48040000D02*
X48380000Y-48040000D01*
X46790000Y-48170000D02*
X46980000Y-47980000D01*
X47410000Y-47980000D02*
X47470000Y-48040000D01*
X46450000Y-48170000D02*
X46790000Y-48170000D01*
X46682450Y-50647500D02*
X45420000Y-50647500D01*
X49480000Y-46555000D02*
X49985000Y-47060000D01*
X49985000Y-47060000D02*
X50610000Y-47060000D01*
X49480000Y-45090000D02*
X49480000Y-46555000D01*
X43420000Y-54572500D02*
X43420000Y-55407501D01*
X43420000Y-55407501D02*
X43020001Y-55807500D01*
X43950000Y-55817500D02*
X43540001Y-55407501D01*
X43540001Y-55407501D02*
X43420000Y-55407501D01*
X53880000Y-62492500D02*
X55137500Y-62492500D01*
X55137500Y-62492500D02*
X55310000Y-62320000D01*
X41840000Y-64880000D02*
X42485000Y-65525000D01*
X41840000Y-69340000D02*
X40130000Y-71050000D01*
X41840000Y-64880000D02*
X41840000Y-69340000D01*
X42465000Y-64255000D02*
X41840000Y-64880000D01*
X68070000Y-51720000D02*
X68070000Y-52500000D01*
X43904999Y-64255000D02*
X42465000Y-64255000D01*
X45625000Y-64255000D02*
X47070000Y-62810000D01*
X44355000Y-65525000D02*
X45625000Y-64255000D01*
X42485000Y-65525000D02*
X43904999Y-65525000D01*
X43904999Y-64255000D02*
X45625000Y-64255000D01*
X43904999Y-65525000D02*
X44355000Y-65525000D01*
X67960000Y-51610000D02*
X68070000Y-51720000D01*
X68840000Y-38490000D02*
X68840000Y-40670000D01*
X31200000Y-41750000D02*
X31190000Y-41760000D01*
X32160000Y-41250000D02*
X32570000Y-41660000D01*
X31200000Y-41250000D02*
X31200000Y-41750000D01*
X68840000Y-40670000D02*
X68870000Y-40700000D01*
X68850000Y-38480000D02*
X68840000Y-38490000D01*
X31200000Y-40740002D02*
X31200000Y-41250000D01*
X31200000Y-41250000D02*
X32160000Y-41250000D01*
X66990000Y-44200000D02*
X66370000Y-44200000D01*
X74400000Y-41850000D02*
X74380000Y-41870000D01*
X77920000Y-38340000D02*
X77920000Y-37750000D01*
X69320000Y-41870000D02*
X66990000Y-44200000D01*
X77920000Y-37750000D02*
X77960000Y-37710000D01*
X74380000Y-41870000D02*
X69320000Y-41870000D01*
X70470000Y-53240756D02*
X70470000Y-52500000D01*
X70470000Y-51379500D02*
X70470000Y-52500000D01*
X68600000Y-57670000D02*
X70410000Y-59480000D01*
X70410000Y-64950000D02*
X70410000Y-59480000D01*
X56190000Y-40560000D02*
X56640000Y-41010000D01*
X55197500Y-40560000D02*
X56190000Y-40560000D01*
X72875000Y-67415000D02*
X70410000Y-64950000D01*
X75197600Y-67415000D02*
X72875000Y-67415000D01*
X70410000Y-56360000D02*
X70410000Y-59480000D01*
X69880189Y-53830567D02*
X70470000Y-53240756D01*
X68090000Y-57670000D02*
X68600000Y-57670000D01*
X71740000Y-57060000D02*
X73540000Y-55260000D01*
X73200811Y-62430000D02*
X71740000Y-60969189D01*
X71740000Y-60969189D02*
X71740000Y-57060000D01*
X77940000Y-67281250D02*
X77940000Y-63420000D01*
X76536250Y-68685000D02*
X77940000Y-67281250D01*
X75197600Y-68685000D02*
X76536250Y-68685000D01*
X60922500Y-42560000D02*
X60922500Y-41060000D01*
X76950000Y-62430000D02*
X73200811Y-62430000D01*
X77940000Y-63420000D02*
X76950000Y-62430000D01*
X73540000Y-55260000D02*
X73670000Y-55130000D01*
X73670000Y-55130000D02*
X73670000Y-52500000D01*
X75270000Y-59205460D02*
X75270000Y-52500000D01*
X74150000Y-50680000D02*
X69300000Y-50680000D01*
X75270000Y-52500000D02*
X75270000Y-51800000D01*
X69300000Y-50680000D02*
X67650000Y-49030000D01*
X67882400Y-66145000D02*
X68835000Y-66145000D01*
X69510000Y-65470000D02*
X69510000Y-64670000D01*
X75224540Y-59160000D02*
X73090000Y-59160000D01*
X56720000Y-40060000D02*
X55197500Y-40060000D01*
X59450000Y-42790000D02*
X56720000Y-40060000D01*
X68835000Y-66145000D02*
X69510000Y-65470000D01*
X67650000Y-49030000D02*
X67650000Y-46270000D01*
X75270000Y-51800000D02*
X74150000Y-50680000D01*
X75270000Y-59205460D02*
X75224540Y-59160000D01*
X64919189Y-42600000D02*
X64029189Y-43490000D01*
X55197500Y-42432501D02*
X55190000Y-42440001D01*
X56239999Y-43490000D02*
X55190000Y-42440001D01*
X64029189Y-43490000D02*
X56239999Y-43490000D01*
X55197500Y-41060000D02*
X55197500Y-42432501D01*
X66370000Y-42600000D02*
X64919189Y-42600000D01*
X73340000Y-51550000D02*
X74020000Y-51550000D01*
X67877400Y-64870000D02*
X66250000Y-64870000D01*
X74020000Y-51550000D02*
X74470000Y-52000000D01*
X66250000Y-64870000D02*
X66040000Y-64660000D01*
X67882400Y-64875000D02*
X67877400Y-64870000D01*
X74470000Y-52000000D02*
X74470000Y-52500000D01*
X63810000Y-41800000D02*
X63670000Y-41940000D01*
X62290000Y-40560000D02*
X63670000Y-41940000D01*
X60922500Y-40560000D02*
X62290000Y-40560000D01*
X66370000Y-41800000D02*
X63810000Y-41800000D01*
X46515000Y-66795000D02*
X46810000Y-66500000D01*
X68870000Y-53000000D02*
X68870000Y-52500000D01*
X68430000Y-53440000D02*
X68870000Y-53000000D01*
X43904999Y-66795000D02*
X46515000Y-66795000D01*
X67571000Y-53440000D02*
X68430000Y-53440000D01*
X67570000Y-53441000D02*
X67571000Y-53440000D01*
X67389550Y-54130000D02*
X67400050Y-54140500D01*
X67400050Y-54140500D02*
X68436606Y-54140500D01*
X68436606Y-54140500D02*
X69670000Y-52907106D01*
X44280000Y-62609999D02*
X43904999Y-62985000D01*
X69670000Y-52907106D02*
X69670000Y-52500000D01*
X44280000Y-60270000D02*
X44280000Y-62609999D01*
X64095628Y-54125628D02*
X64100000Y-54130000D01*
X64100000Y-54130000D02*
X67389550Y-54130000D01*
X54385000Y-54635000D02*
X54385000Y-53905000D01*
X65520000Y-49900500D02*
X65419500Y-49800000D01*
X65419500Y-49800000D02*
X66370000Y-49800000D01*
X54385000Y-53905000D02*
X55580000Y-52710000D01*
X50575000Y-54986773D02*
X50570000Y-54991773D01*
X51940000Y-57320000D02*
X55890000Y-57320000D01*
X65290000Y-51400000D02*
X66370000Y-51400000D01*
X50575000Y-54635000D02*
X50575000Y-54986773D01*
X50570000Y-54991773D02*
X50570000Y-55950000D01*
X50570000Y-55950000D02*
X51940000Y-57320000D01*
X55890000Y-57320000D02*
X56810000Y-56400000D01*
X44920000Y-50647500D02*
X44920000Y-50067106D01*
X53510050Y-49550000D02*
X58010050Y-54050000D01*
X63812944Y-55540000D02*
X69160000Y-55540000D01*
X58010050Y-54050000D02*
X62322944Y-54050000D01*
X69160000Y-55540000D02*
X71270000Y-53430000D01*
X44920000Y-50067106D02*
X45437106Y-49550000D01*
X62322944Y-54050000D02*
X63812944Y-55540000D01*
X45437106Y-49550000D02*
X53510050Y-49550000D01*
X71270000Y-53430000D02*
X71270000Y-52500000D01*
X68420000Y-54840000D02*
X63820050Y-54840000D01*
X70850000Y-54840000D02*
X72070000Y-53620000D01*
X63820050Y-54840000D02*
X62530050Y-53550000D01*
X54117968Y-49050000D02*
X45229999Y-49050000D01*
X44420000Y-49860000D02*
X44420000Y-50647500D01*
X45229999Y-49050000D02*
X44420000Y-49860000D01*
X72070000Y-53620000D02*
X72070000Y-52500000D01*
X58617968Y-53550000D02*
X54117968Y-49050000D01*
X62530050Y-53550000D02*
X58617968Y-53550000D01*
X62225122Y-55645122D02*
X63923175Y-57343175D01*
X65430550Y-49000000D02*
X66370000Y-49000000D01*
X62696128Y-51734422D02*
X65430550Y-49000000D01*
X62696128Y-52740000D02*
X62696128Y-51734422D01*
X62225122Y-54941422D02*
X62225122Y-55645122D01*
X61800893Y-52827508D02*
X61800893Y-51922551D01*
X61528760Y-56384097D02*
X63230500Y-58085837D01*
X61800893Y-51922551D02*
X65523444Y-48200000D01*
X65523444Y-48200000D02*
X66370000Y-48200000D01*
X61528760Y-55765696D02*
X61528760Y-56384097D01*
X61464804Y-55701740D02*
X61528760Y-55765696D01*
X60828760Y-56337784D02*
X60892716Y-56401740D01*
X60892716Y-57091517D02*
X62533774Y-58732575D01*
X60901599Y-52846847D02*
X60901599Y-52114739D01*
X60892716Y-56401740D02*
X60892716Y-57091517D01*
X65616338Y-47400000D02*
X66370000Y-47400000D01*
X60901599Y-52114739D02*
X65616338Y-47400000D01*
X60250000Y-58283268D02*
X61310777Y-59344045D01*
X60002191Y-52833788D02*
X60002191Y-52267809D01*
X61873155Y-59344045D02*
X61897730Y-59368620D01*
X60256672Y-57037784D02*
X60256672Y-57899823D01*
X65670000Y-46600000D02*
X66370000Y-46600000D01*
X60002191Y-52267809D02*
X65670000Y-46600000D01*
X60256672Y-57899823D02*
X60250000Y-57906495D01*
X61310777Y-59344045D02*
X61873155Y-59344045D01*
X60192716Y-56973828D02*
X60256672Y-57037784D01*
X60250000Y-57906495D02*
X60250000Y-58283268D01*
X59620628Y-58361002D02*
X61303671Y-60044045D01*
X59106833Y-52363167D02*
X65670000Y-45800000D01*
X59620628Y-57673829D02*
X59620628Y-58361002D01*
X65670000Y-45800000D02*
X66370000Y-45800000D01*
X59106833Y-52747539D02*
X59106833Y-52363167D01*
X59556672Y-57609873D02*
X59620628Y-57673829D01*
X60716198Y-60725206D02*
X58920628Y-58929636D01*
X58920628Y-58929636D02*
X58920628Y-58245917D01*
X58338209Y-52121791D02*
X65460000Y-45000000D01*
X65460000Y-45000000D02*
X66370000Y-45000000D01*
X58338209Y-52280291D02*
X58338209Y-52121791D01*
G04 #@! TA.AperFunction,Conductor*
G36*
X40736973Y-37046745D02*
G01*
X40803960Y-37066604D01*
X40824331Y-37083064D01*
X40882396Y-37141129D01*
X40882400Y-37141132D01*
X40882402Y-37141134D01*
X41020607Y-37222868D01*
X41038065Y-37227940D01*
X41174791Y-37267663D01*
X41174794Y-37267663D01*
X41174796Y-37267664D01*
X41186803Y-37268609D01*
X41210817Y-37270499D01*
X41210818Y-37270498D01*
X41210819Y-37270499D01*
X41542997Y-37270498D01*
X41709181Y-37270498D01*
X41712015Y-37270274D01*
X41745204Y-37267664D01*
X41899393Y-37222868D01*
X41999581Y-37163616D01*
X42067305Y-37146434D01*
X42133568Y-37168594D01*
X42141457Y-37174571D01*
X43680000Y-38440000D01*
X46316447Y-38478209D01*
X46383193Y-38498863D01*
X46428178Y-38552324D01*
X46438642Y-38603559D01*
X46435109Y-38925031D01*
X46414688Y-38991850D01*
X46361385Y-39037022D01*
X46336898Y-39044958D01*
X46234750Y-39066670D01*
X46126693Y-39114780D01*
X46076258Y-39125500D01*
X45237929Y-39125500D01*
X45237923Y-39125501D01*
X45178316Y-39131908D01*
X45043471Y-39182202D01*
X45043464Y-39182206D01*
X44928255Y-39268452D01*
X44928252Y-39268455D01*
X44842006Y-39383664D01*
X44842002Y-39383671D01*
X44791708Y-39518517D01*
X44785301Y-39578116D01*
X44785300Y-39578135D01*
X44785300Y-39676000D01*
X44765615Y-39743039D01*
X44712811Y-39788794D01*
X44661300Y-39800000D01*
X44624393Y-39800000D01*
X44585389Y-39793706D01*
X44497710Y-39764652D01*
X44398347Y-39754501D01*
X43801663Y-39754501D01*
X43801645Y-39754502D01*
X43702293Y-39764651D01*
X43702290Y-39764652D01*
X43614613Y-39793706D01*
X43575609Y-39800000D01*
X43550000Y-39800000D01*
X43547713Y-39803144D01*
X43512530Y-39835745D01*
X43396957Y-39907032D01*
X43277030Y-40026960D01*
X43188002Y-40171295D01*
X43187997Y-40171306D01*
X43134651Y-40332293D01*
X43134650Y-40332298D01*
X43133437Y-40344173D01*
X43110364Y-40404498D01*
X43070000Y-40459999D01*
X43069999Y-40460000D01*
X43035977Y-42834747D01*
X43029697Y-42871973D01*
X43019651Y-42902291D01*
X43009500Y-43001647D01*
X43009500Y-43598337D01*
X43009501Y-43598355D01*
X43019651Y-43697708D01*
X43020432Y-43701358D01*
X43023164Y-43729082D01*
X43021742Y-43828371D01*
X43001100Y-43895121D01*
X42947646Y-43940115D01*
X42898361Y-43950594D01*
X39056673Y-43969380D01*
X38989538Y-43950023D01*
X38943526Y-43897443D01*
X38932084Y-43843344D01*
X38970000Y-41540000D01*
X38969999Y-41539999D01*
X38969999Y-41539998D01*
X37932853Y-40171306D01*
X37838344Y-40046585D01*
X37813545Y-39981267D01*
X37818099Y-39937101D01*
X37830015Y-39896087D01*
X37857643Y-39800993D01*
X37860500Y-39764690D01*
X37860500Y-39295310D01*
X37857643Y-39259007D01*
X37835329Y-39182204D01*
X37812495Y-39103609D01*
X37812494Y-39103605D01*
X37805104Y-39091109D01*
X37767268Y-39027130D01*
X37750000Y-38964010D01*
X37750000Y-38908860D01*
X37767268Y-38845739D01*
X37778072Y-38827471D01*
X37851744Y-38702898D01*
X37897598Y-38545069D01*
X37900500Y-38508194D01*
X37900500Y-37584499D01*
X37920185Y-37517461D01*
X37972989Y-37471706D01*
X38024500Y-37460500D01*
X38119495Y-37460500D01*
X38135505Y-37462267D01*
X38135528Y-37462026D01*
X38143289Y-37462758D01*
X38143296Y-37462760D01*
X38215203Y-37460500D01*
X38245925Y-37460500D01*
X38253190Y-37459581D01*
X38259016Y-37459122D01*
X38307569Y-37457597D01*
X38327956Y-37451673D01*
X38346996Y-37447731D01*
X38368058Y-37445071D01*
X38413235Y-37427183D01*
X38418735Y-37425300D01*
X38465398Y-37411744D01*
X38483665Y-37400939D01*
X38501136Y-37392380D01*
X38520871Y-37384568D01*
X38560177Y-37356010D01*
X38565043Y-37352813D01*
X38606865Y-37328081D01*
X38621870Y-37313075D01*
X38636668Y-37300436D01*
X38653837Y-37287963D01*
X38684809Y-37250522D01*
X38688723Y-37246221D01*
X38856541Y-37078403D01*
X38917859Y-37044922D01*
X38944523Y-37042089D01*
X40736973Y-37046745D01*
G37*
G04 #@! TD.AperFunction*
G04 #@! TA.AperFunction,Conductor*
G36*
X37625303Y-33689685D02*
G01*
X37671058Y-33742489D01*
X37681002Y-33811647D01*
X37677340Y-33828595D01*
X37642357Y-33949002D01*
X37642356Y-33949008D01*
X37639500Y-33985308D01*
X37639500Y-34454692D01*
X37642356Y-34490991D01*
X37642357Y-34490997D01*
X37687504Y-34646390D01*
X37687504Y-34646391D01*
X37746275Y-34745769D01*
X37763457Y-34813493D01*
X37741296Y-34879755D01*
X37725980Y-34897796D01*
X37589999Y-35030000D01*
X37610609Y-36032953D01*
X37592306Y-36100382D01*
X37540453Y-36147212D01*
X37486635Y-36159500D01*
X37074500Y-36159500D01*
X37007461Y-36139815D01*
X36961706Y-36087011D01*
X36950500Y-36035500D01*
X36950500Y-35076804D01*
X36947598Y-35039932D01*
X36947597Y-35039926D01*
X36913836Y-34923724D01*
X36901744Y-34882102D01*
X36818081Y-34740635D01*
X36701865Y-34624419D01*
X36701859Y-34624415D01*
X36695699Y-34619637D01*
X36697445Y-34617385D01*
X36658978Y-34576173D01*
X36645803Y-34518902D01*
X36649355Y-34249017D01*
X36669919Y-34182246D01*
X36683982Y-34164684D01*
X37073304Y-33760095D01*
X37123414Y-33708021D01*
X37184082Y-33673363D01*
X37212765Y-33670000D01*
X37558264Y-33670000D01*
X37625303Y-33689685D01*
G37*
G04 #@! TD.AperFunction*
G04 #@! TA.AperFunction,Conductor*
G36*
X50414419Y-35959685D02*
G01*
X50436560Y-35977843D01*
X50934887Y-36493655D01*
X50967309Y-36555544D01*
X50969704Y-36580536D01*
X50953293Y-39382405D01*
X50933216Y-39449328D01*
X50921020Y-39465120D01*
X50725988Y-39679515D01*
X50666316Y-39715860D01*
X50596466Y-39714173D01*
X50595260Y-39713780D01*
X50567711Y-39704651D01*
X50468346Y-39694500D01*
X49871662Y-39694500D01*
X49871644Y-39694501D01*
X49772292Y-39704650D01*
X49772289Y-39704651D01*
X49611305Y-39757996D01*
X49611296Y-39758000D01*
X49501759Y-39825563D01*
X49437100Y-39844023D01*
X48288776Y-39848067D01*
X48221667Y-39828619D01*
X48217992Y-39826182D01*
X47903169Y-39609297D01*
X47859129Y-39555054D01*
X47849516Y-39507183D01*
X47849516Y-39234519D01*
X47851284Y-39218507D01*
X47851042Y-39218485D01*
X47851776Y-39210722D01*
X47849516Y-39138798D01*
X47849516Y-39108094D01*
X47849516Y-39108091D01*
X47848595Y-39100808D01*
X47848139Y-39095003D01*
X47846614Y-39046447D01*
X47840691Y-39026061D01*
X47836745Y-39007006D01*
X47834087Y-38985959D01*
X47834087Y-38985958D01*
X47816202Y-38940788D01*
X47814313Y-38935268D01*
X47811314Y-38924947D01*
X47800760Y-38888618D01*
X47789956Y-38870350D01*
X47781394Y-38852872D01*
X47773584Y-38833145D01*
X47773580Y-38833139D01*
X47753681Y-38805749D01*
X47730202Y-38739943D01*
X47730000Y-38732865D01*
X47730000Y-36492791D01*
X47749685Y-36425752D01*
X47768052Y-36403411D01*
X48213998Y-35974616D01*
X48275965Y-35942340D01*
X48299943Y-35940000D01*
X50347380Y-35940000D01*
X50414419Y-35959685D01*
G37*
G04 #@! TD.AperFunction*
G04 #@! TA.AperFunction,Conductor*
G36*
X39490136Y-33759690D02*
G01*
X39557052Y-33779791D01*
X39575766Y-33794744D01*
X39734564Y-33949005D01*
X40480802Y-34673922D01*
X40515173Y-34734754D01*
X40512108Y-34801867D01*
X40494564Y-34854814D01*
X40484500Y-34953318D01*
X40484500Y-35486681D01*
X40494563Y-35585183D01*
X40547450Y-35744784D01*
X40547454Y-35744793D01*
X40597492Y-35825918D01*
X40615919Y-35888114D01*
X40627020Y-36362630D01*
X40608909Y-36430111D01*
X40557189Y-36477089D01*
X40502596Y-36489529D01*
X38161159Y-36480889D01*
X38094193Y-36460957D01*
X38048633Y-36407985D01*
X38038945Y-36338790D01*
X38047786Y-36307712D01*
X38080153Y-36232804D01*
X38098456Y-36165375D01*
X38098456Y-36165374D01*
X38098459Y-36165348D01*
X38098885Y-36162154D01*
X38098919Y-36161608D01*
X38102393Y-36133327D01*
X38116002Y-36022568D01*
X38100849Y-35285210D01*
X38119152Y-35217781D01*
X38126571Y-35207015D01*
X38126645Y-35206917D01*
X38126655Y-35206907D01*
X38156105Y-35168656D01*
X38220695Y-35040088D01*
X38242856Y-34973826D01*
X38242859Y-34973818D01*
X38268608Y-34832261D01*
X38253434Y-34689183D01*
X38236252Y-34621459D01*
X38231395Y-34609687D01*
X38224026Y-34540209D01*
X38226942Y-34527823D01*
X38237643Y-34490993D01*
X38240500Y-34454690D01*
X38240500Y-33985310D01*
X38237643Y-33949007D01*
X38226653Y-33911179D01*
X38226852Y-33841310D01*
X38264793Y-33782640D01*
X38328432Y-33753796D01*
X38346486Y-33752586D01*
X39490136Y-33759690D01*
G37*
G04 #@! TD.AperFunction*
G04 #@! TA.AperFunction,Conductor*
G36*
X61397938Y-45038605D02*
G01*
X61464745Y-45059053D01*
X61509894Y-45112377D01*
X61520517Y-45162071D01*
X61529470Y-47275127D01*
X61510070Y-47342249D01*
X61457460Y-47388227D01*
X61405125Y-47399652D01*
X60761809Y-47397859D01*
X60723152Y-47391565D01*
X60612712Y-47354969D01*
X60513347Y-47344818D01*
X59916663Y-47344818D01*
X59916645Y-47344819D01*
X59817289Y-47354969D01*
X59715970Y-47388542D01*
X59676623Y-47394836D01*
X58064956Y-47390348D01*
X57997971Y-47370476D01*
X57952364Y-47317545D01*
X57941308Y-47265050D01*
X57958715Y-45602702D01*
X57979100Y-45535872D01*
X58032380Y-45490672D01*
X58082708Y-45480000D01*
X59220000Y-45480000D01*
X59341898Y-45378048D01*
X59405946Y-45350141D01*
X59434419Y-45349848D01*
X59440601Y-45350498D01*
X59440609Y-45350500D01*
X59440617Y-45350500D01*
X59619389Y-45350500D01*
X59619391Y-45350500D01*
X59794267Y-45313329D01*
X59910819Y-45261436D01*
X59966149Y-45250813D01*
X59966257Y-45250817D01*
X59966269Y-45250818D01*
X59966281Y-45250817D01*
X59966282Y-45250818D01*
X60464631Y-45250817D01*
X60467465Y-45250593D01*
X60500654Y-45247983D01*
X60654843Y-45203187D01*
X60793048Y-45121453D01*
X60844888Y-45069612D01*
X60906209Y-45036128D01*
X60933978Y-45033302D01*
X61397938Y-45038605D01*
G37*
G04 #@! TD.AperFunction*
G04 #@! TA.AperFunction,Conductor*
G36*
X76702844Y-40109896D02*
G01*
X76748794Y-40162530D01*
X76760191Y-40214268D01*
X76779809Y-52965809D01*
X76760227Y-53032879D01*
X76707494Y-53078715D01*
X76655809Y-53090000D01*
X76093265Y-53090000D01*
X76026226Y-53070315D01*
X75980471Y-53017511D01*
X75969976Y-52952742D01*
X75970500Y-52947873D01*
X75970499Y-52052128D01*
X75964091Y-51992517D01*
X75930562Y-51902622D01*
X75922806Y-51863186D01*
X75922759Y-51861705D01*
X75922760Y-51861703D01*
X75920500Y-51789795D01*
X75920500Y-51759075D01*
X75919579Y-51751788D01*
X75919122Y-51745979D01*
X75917597Y-51697430D01*
X75911676Y-51677052D01*
X75907731Y-51658003D01*
X75905071Y-51636942D01*
X75887186Y-51591772D01*
X75885297Y-51586252D01*
X75871743Y-51539599D01*
X75860941Y-51521335D01*
X75852379Y-51503858D01*
X75851351Y-51501262D01*
X75844568Y-51484129D01*
X75816014Y-51444828D01*
X75812810Y-51439950D01*
X75788082Y-51398137D01*
X75788081Y-51398135D01*
X75773074Y-51383128D01*
X75760435Y-51368330D01*
X75747961Y-51351160D01*
X75710528Y-51320194D01*
X75706206Y-51316260D01*
X75672496Y-51282550D01*
X75639011Y-51221227D01*
X75636198Y-51197091D01*
X75630000Y-50850000D01*
X75629999Y-50849999D01*
X75629999Y-50849998D01*
X74170000Y-49490000D01*
X69081308Y-49490000D01*
X69014269Y-49470315D01*
X68993627Y-49453681D01*
X68461766Y-48921820D01*
X68428281Y-48860497D01*
X68425451Y-48835013D01*
X68410540Y-46687792D01*
X68427152Y-46624931D01*
X68431250Y-46617835D01*
X68486497Y-46447803D01*
X68505185Y-46270000D01*
X68486497Y-46092197D01*
X68431250Y-45922165D01*
X68421287Y-45904909D01*
X68404678Y-45843775D01*
X68390798Y-43844861D01*
X68410017Y-43777686D01*
X68462502Y-43731566D01*
X68514795Y-43720000D01*
X74170000Y-43720000D01*
X75520000Y-42470000D01*
X75540000Y-41320000D01*
X75122454Y-41320000D01*
X75055415Y-41300315D01*
X75030304Y-41278972D01*
X74972231Y-41214475D01*
X74962608Y-41207483D01*
X74827593Y-41109388D01*
X74664267Y-41036671D01*
X74664265Y-41036670D01*
X74530562Y-41008251D01*
X74500163Y-41001789D01*
X74438682Y-40968598D01*
X74404906Y-40907435D01*
X74405287Y-40851904D01*
X74420500Y-40787721D01*
X74420500Y-40222204D01*
X74440185Y-40155166D01*
X74492989Y-40109411D01*
X74544035Y-40098207D01*
X76635732Y-40090460D01*
X76702844Y-40109896D01*
G37*
G04 #@! TD.AperFunction*
G04 #@! TA.AperFunction,Conductor*
G36*
X43546664Y-46938715D02*
G01*
X43613494Y-46959097D01*
X43658697Y-47012374D01*
X43669370Y-47063341D01*
X43660633Y-48775854D01*
X43640607Y-48842792D01*
X43587570Y-48888277D01*
X43535855Y-48899219D01*
X39011981Y-48870767D01*
X38945067Y-48850661D01*
X38899645Y-48797570D01*
X38888767Y-48748025D01*
X38871278Y-47016561D01*
X38890285Y-46949329D01*
X38942624Y-46903043D01*
X38996562Y-46891318D01*
X43546664Y-46938715D01*
G37*
G04 #@! TD.AperFunction*
G04 #@! TA.AperFunction,Conductor*
G36*
X34544106Y-33772718D02*
G01*
X34611016Y-33792831D01*
X34619308Y-33798735D01*
X34622400Y-33801133D01*
X34622402Y-33801134D01*
X34622403Y-33801135D01*
X34760608Y-33882869D01*
X34780121Y-33888538D01*
X34914792Y-33927664D01*
X34914795Y-33927664D01*
X34914797Y-33927665D01*
X34950820Y-33930500D01*
X35219879Y-33930499D01*
X35286918Y-33950183D01*
X35315728Y-33975830D01*
X35369117Y-34040883D01*
X35369122Y-34040887D01*
X35521460Y-34165909D01*
X35608512Y-34212439D01*
X35658356Y-34261401D01*
X35674052Y-34323155D01*
X35671991Y-34511365D01*
X35651573Y-34578185D01*
X35611125Y-34616736D01*
X35598132Y-34624420D01*
X35598131Y-34624420D01*
X35481923Y-34740629D01*
X35481917Y-34740637D01*
X35398255Y-34882103D01*
X35398254Y-34882106D01*
X35352402Y-35039926D01*
X35352401Y-35039932D01*
X35349500Y-35076804D01*
X35349500Y-36233196D01*
X35352401Y-36270067D01*
X35352402Y-36270073D01*
X35379463Y-36363215D01*
X35379264Y-36433084D01*
X35341322Y-36491754D01*
X35277683Y-36520598D01*
X35260964Y-36521809D01*
X33902654Y-36528127D01*
X33835523Y-36508754D01*
X33789523Y-36456164D01*
X33778756Y-36391169D01*
X33785186Y-36330000D01*
X33766498Y-36152197D01*
X33711251Y-35982165D01*
X33711250Y-35982164D01*
X33711250Y-35982162D01*
X33709709Y-35978700D01*
X33699371Y-35918537D01*
X33700501Y-35904183D01*
X33700500Y-35405819D01*
X33700257Y-35402742D01*
X33697666Y-35369796D01*
X33652870Y-35215607D01*
X33571136Y-35077402D01*
X33536318Y-35042584D01*
X33502833Y-34981261D01*
X33500000Y-34954912D01*
X33500000Y-34689291D01*
X33519684Y-34622256D01*
X33522607Y-34617912D01*
X34082664Y-33822991D01*
X34137366Y-33779528D01*
X34184822Y-33770415D01*
X34544106Y-33772718D01*
G37*
G04 #@! TD.AperFunction*
G04 #@! TA.AperFunction,Conductor*
G36*
X37338039Y-37480185D02*
G01*
X37383794Y-37532989D01*
X37395000Y-37584500D01*
X37395000Y-38445486D01*
X37390074Y-38480088D01*
X37388499Y-38485508D01*
X37376157Y-38514027D01*
X37332166Y-38588412D01*
X37332164Y-38588415D01*
X37279682Y-38712356D01*
X37279680Y-38712361D01*
X37262415Y-38775471D01*
X37244500Y-38908854D01*
X37244500Y-38964015D01*
X37262416Y-39097399D01*
X37262418Y-39097407D01*
X37275929Y-39146794D01*
X37275401Y-39214108D01*
X37262356Y-39259008D01*
X37259500Y-39295308D01*
X37259500Y-39764692D01*
X37262356Y-39800991D01*
X37262357Y-39800997D01*
X37305097Y-39948105D01*
X37310011Y-39984278D01*
X37309552Y-40020277D01*
X37309553Y-40020284D01*
X37340959Y-40160691D01*
X37365760Y-40226015D01*
X37402568Y-40292494D01*
X37435450Y-40351883D01*
X37534831Y-40483033D01*
X37559630Y-40548351D01*
X37560000Y-40557921D01*
X37560000Y-40560700D01*
X37540315Y-40627739D01*
X37526150Y-40645841D01*
X37426700Y-40751141D01*
X37366358Y-40786364D01*
X37336550Y-40790000D01*
X35963884Y-40790000D01*
X35896845Y-40770315D01*
X35873233Y-40750607D01*
X35802078Y-40674369D01*
X35770726Y-40611928D01*
X35768771Y-40593003D01*
X35759565Y-40240881D01*
X35777491Y-40173353D01*
X35795834Y-40149970D01*
X35850118Y-40095687D01*
X35932495Y-39956395D01*
X35977644Y-39800993D01*
X35980501Y-39764690D01*
X35980501Y-39295310D01*
X35977644Y-39259007D01*
X35975491Y-39251595D01*
X35975690Y-39181726D01*
X36013632Y-39123056D01*
X36077270Y-39094212D01*
X36094567Y-39093000D01*
X36365696Y-39093000D01*
X36384131Y-39091549D01*
X36402569Y-39090098D01*
X36402571Y-39090097D01*
X36402573Y-39090097D01*
X36462198Y-39072774D01*
X36560398Y-39044244D01*
X36701865Y-38960581D01*
X36818081Y-38844365D01*
X36901744Y-38702898D01*
X36947598Y-38545069D01*
X36950500Y-38508194D01*
X36950500Y-37584499D01*
X36970185Y-37517461D01*
X37022989Y-37471706D01*
X37074500Y-37460500D01*
X37271000Y-37460500D01*
X37338039Y-37480185D01*
G37*
G04 #@! TD.AperFunction*
G04 #@! TA.AperFunction,Conductor*
G36*
X35230239Y-37176172D02*
G01*
X35297105Y-37196426D01*
X35342409Y-37249617D01*
X35352798Y-37309895D01*
X35349500Y-37351803D01*
X35349500Y-38508196D01*
X35352401Y-38545067D01*
X35352402Y-38545073D01*
X35398254Y-38702893D01*
X35398255Y-38702896D01*
X35481919Y-38844366D01*
X35486387Y-38850126D01*
X35511921Y-38915163D01*
X35498239Y-38983680D01*
X35495139Y-38989244D01*
X35427505Y-39103608D01*
X35427505Y-39103609D01*
X35382358Y-39259002D01*
X35382357Y-39259008D01*
X35379501Y-39295308D01*
X35379501Y-39764692D01*
X35382855Y-39807310D01*
X35380004Y-39807534D01*
X35373992Y-39864692D01*
X35361304Y-39888042D01*
X35345245Y-39911258D01*
X35345239Y-39911268D01*
X35288916Y-40043647D01*
X35288911Y-40043661D01*
X35287626Y-40048502D01*
X35251396Y-40108245D01*
X35188619Y-40138917D01*
X35167928Y-40140681D01*
X31874921Y-40144677D01*
X31807858Y-40125074D01*
X31787090Y-40108358D01*
X31777603Y-40098871D01*
X31777595Y-40098865D01*
X31639393Y-40017133D01*
X31639388Y-40017131D01*
X31485208Y-39972337D01*
X31485202Y-39972336D01*
X31449183Y-39969502D01*
X31449181Y-39969502D01*
X31116629Y-39969502D01*
X30950819Y-39969503D01*
X30914794Y-39972337D01*
X30760611Y-40017131D01*
X30760606Y-40017133D01*
X30622407Y-40098863D01*
X30622401Y-40098868D01*
X30611267Y-40110002D01*
X30549942Y-40143485D01*
X30523738Y-40146318D01*
X30267828Y-40146628D01*
X30200765Y-40127025D01*
X30193368Y-40121895D01*
X30132334Y-40076206D01*
X30132328Y-40076202D01*
X29997482Y-40025908D01*
X29997483Y-40025908D01*
X29937883Y-40019501D01*
X29937881Y-40019500D01*
X29937873Y-40019500D01*
X29937864Y-40019500D01*
X27642129Y-40019500D01*
X27642113Y-40019501D01*
X27626088Y-40021224D01*
X27557329Y-40008815D01*
X27506194Y-39961202D01*
X27488841Y-39898508D01*
X27481298Y-38261819D01*
X27500673Y-38194696D01*
X27553265Y-38148698D01*
X27618551Y-38137965D01*
X27642127Y-38140500D01*
X29937872Y-38140499D01*
X29997483Y-38134091D01*
X30132331Y-38083796D01*
X30230085Y-38010617D01*
X30295547Y-37986200D01*
X30304634Y-37985884D01*
X32280000Y-37990000D01*
X33295732Y-37187087D01*
X33360528Y-37160958D01*
X33373665Y-37160371D01*
X35230239Y-37176172D01*
G37*
G04 #@! TD.AperFunction*
G04 #@! TA.AperFunction,Conductor*
G36*
X37375129Y-43799685D02*
G01*
X37383303Y-43805415D01*
X38870000Y-44940000D01*
X43508248Y-44959488D01*
X43575203Y-44979454D01*
X43620736Y-45032450D01*
X43631714Y-45081741D01*
X43648232Y-46254520D01*
X43629493Y-46321830D01*
X43577339Y-46368324D01*
X43524507Y-46380266D01*
X39322703Y-46389187D01*
X39001840Y-46385844D01*
X39001821Y-46385845D01*
X38964689Y-46389639D01*
X38958516Y-46389960D01*
X38938720Y-46390002D01*
X38917218Y-46394488D01*
X38889189Y-46397353D01*
X38835259Y-46409076D01*
X38835252Y-46409077D01*
X38835247Y-46409079D01*
X38835240Y-46409081D01*
X38835234Y-46409083D01*
X38728004Y-46445365D01*
X38727993Y-46445371D01*
X38607751Y-46524372D01*
X38555409Y-46570661D01*
X38555405Y-46570666D01*
X38462298Y-46680335D01*
X38444571Y-46720210D01*
X38403014Y-46770968D01*
X37492232Y-47417133D01*
X37426165Y-47439870D01*
X37420482Y-47440000D01*
X33274340Y-47440000D01*
X33207301Y-47420315D01*
X33161546Y-47367511D01*
X33150340Y-47315661D01*
X33159662Y-43903661D01*
X33179530Y-43836676D01*
X33232459Y-43791065D01*
X33283662Y-43780000D01*
X37308090Y-43780000D01*
X37375129Y-43799685D01*
G37*
G04 #@! TD.AperFunction*
M02*
