G04 #@! TF.GenerationSoftware,KiCad,Pcbnew,7.0.7*
G04 #@! TF.CreationDate,2024-09-25T18:01:08-07:00*
G04 #@! TF.ProjectId,LAF Board Proto V1.0,4c414620-426f-4617-9264-2050726f746f,rev?*
G04 #@! TF.SameCoordinates,Original*
G04 #@! TF.FileFunction,Copper,L4,Bot*
G04 #@! TF.FilePolarity,Positive*
%FSLAX46Y46*%
G04 Gerber Fmt 4.6, Leading zero omitted, Abs format (unit mm)*
G04 Created by KiCad (PCBNEW 7.0.7) date 2024-09-25 18:01:08*
%MOMM*%
%LPD*%
G01*
G04 APERTURE LIST*
G04 Aperture macros list*
%AMFreePoly0*
4,1,19,0.500000,-0.750000,0.000000,-0.750000,0.000000,-0.744911,-0.071157,-0.744911,-0.207708,-0.704816,-0.327430,-0.627875,-0.420627,-0.520320,-0.479746,-0.390866,-0.500000,-0.250000,-0.500000,0.250000,-0.479746,0.390866,-0.420627,0.520320,-0.327430,0.627875,-0.207708,0.704816,-0.071157,0.744911,0.000000,0.744911,0.000000,0.750000,0.500000,0.750000,0.500000,-0.750000,0.500000,-0.750000,
$1*%
%AMFreePoly1*
4,1,19,0.000000,0.744911,0.071157,0.744911,0.207708,0.704816,0.327430,0.627875,0.420627,0.520320,0.479746,0.390866,0.500000,0.250000,0.500000,-0.250000,0.479746,-0.390866,0.420627,-0.520320,0.327430,-0.627875,0.207708,-0.704816,0.071157,-0.744911,0.000000,-0.744911,0.000000,-0.750000,-0.500000,-0.750000,-0.500000,0.750000,0.000000,0.750000,0.000000,0.744911,0.000000,0.744911,
$1*%
G04 Aperture macros list end*
G04 #@! TA.AperFunction,ComponentPad*
%ADD10R,2.200000X2.200000*%
G04 #@! TD*
G04 #@! TA.AperFunction,ComponentPad*
%ADD11C,2.200000*%
G04 #@! TD*
G04 #@! TA.AperFunction,ComponentPad*
%ADD12C,5.600000*%
G04 #@! TD*
G04 #@! TA.AperFunction,ComponentPad*
%ADD13O,2.100000X1.000000*%
G04 #@! TD*
G04 #@! TA.AperFunction,ComponentPad*
%ADD14O,1.600000X1.000000*%
G04 #@! TD*
G04 #@! TA.AperFunction,ComponentPad*
%ADD15C,2.000000*%
G04 #@! TD*
G04 #@! TA.AperFunction,ComponentPad*
%ADD16O,2.200000X2.200000*%
G04 #@! TD*
G04 #@! TA.AperFunction,SMDPad,CuDef*
%ADD17FreePoly0,90.000000*%
G04 #@! TD*
G04 #@! TA.AperFunction,SMDPad,CuDef*
%ADD18FreePoly1,90.000000*%
G04 #@! TD*
G04 #@! TA.AperFunction,ViaPad*
%ADD19C,1.000000*%
G04 #@! TD*
G04 #@! TA.AperFunction,ViaPad*
%ADD20C,0.700000*%
G04 #@! TD*
G04 #@! TA.AperFunction,Conductor*
%ADD21C,0.300000*%
G04 #@! TD*
G04 #@! TA.AperFunction,Conductor*
%ADD22C,0.500000*%
G04 #@! TD*
G04 APERTURE END LIST*
D10*
X72930000Y-72530000D03*
D11*
X70390000Y-72530000D03*
X67850000Y-72530000D03*
X65310000Y-72530000D03*
X62770000Y-72530000D03*
X60230000Y-72530000D03*
X57690000Y-72530000D03*
X55150000Y-72530000D03*
D10*
X51050000Y-72520000D03*
D11*
X48510000Y-72520000D03*
X45970000Y-72520000D03*
X43430000Y-72520000D03*
X28910000Y-67460000D03*
X28910000Y-64920000D03*
D10*
X28910000Y-62380000D03*
D12*
X29210000Y-29210000D03*
X29210000Y-72390000D03*
D13*
X32120000Y-50350000D03*
D14*
X27940000Y-50350000D03*
D13*
X32120000Y-58990000D03*
D14*
X27940000Y-58990000D03*
D12*
X78740000Y-29210000D03*
X78740000Y-72380000D03*
D15*
X73540000Y-55260000D03*
X34410000Y-67130000D03*
X34370000Y-62680000D03*
X46810000Y-66500000D03*
X30010000Y-48060000D03*
D16*
X28790000Y-44160000D03*
D10*
X28790000Y-41620000D03*
D11*
X28790000Y-39080000D03*
D10*
X28790000Y-36540000D03*
D15*
X33860000Y-27360000D03*
X73090000Y-59160000D03*
X54170000Y-67000000D03*
X36880000Y-29630000D03*
D10*
X41260000Y-28850000D03*
D11*
X43800000Y-28850000D03*
X46340000Y-28850000D03*
X48880000Y-28850000D03*
X51420000Y-28850000D03*
X53960000Y-28850000D03*
X56500000Y-28850000D03*
X59040000Y-28850000D03*
X61580000Y-28850000D03*
X64120000Y-28850000D03*
X66660000Y-28850000D03*
X69200000Y-28850000D03*
D15*
X49750000Y-36960000D03*
X50450000Y-67000000D03*
X55190000Y-42440001D03*
X56810000Y-56400000D03*
X44280000Y-60270000D03*
X68090000Y-57670000D03*
X65330000Y-64400000D03*
X40840000Y-40770000D03*
D17*
X53890000Y-63777501D03*
D18*
X53890000Y-62477501D03*
D15*
X63670000Y-41940000D03*
X57640000Y-50440000D03*
X47070000Y-62810000D03*
D19*
X36080000Y-33330000D03*
X56540000Y-38380000D03*
D20*
X44100000Y-41490000D03*
X42320000Y-48480000D03*
X65540000Y-52550000D03*
X76400000Y-63320000D03*
D19*
X74940000Y-46510000D03*
X74940000Y-49160000D03*
D20*
X44480000Y-33140000D03*
D19*
X53280000Y-58170000D03*
X35340000Y-71050000D03*
X52280000Y-62740000D03*
D20*
X32930001Y-36330000D03*
X52940000Y-41750000D03*
X41490000Y-32569999D03*
X59395450Y-48295318D03*
D19*
X74940000Y-45185000D03*
X56508284Y-33058767D03*
X59609106Y-36054748D03*
X72810000Y-32080000D03*
X59439380Y-33116796D03*
D20*
X65050000Y-39000000D03*
X30930000Y-43390000D03*
X79250000Y-58081251D03*
X36051486Y-55881110D03*
D19*
X68690000Y-34260000D03*
X59640000Y-39800000D03*
D20*
X65260000Y-43989500D03*
X45550000Y-56500000D03*
X41160000Y-51580000D03*
X40980000Y-55517500D03*
X63350000Y-34830000D03*
D19*
X74940000Y-47835000D03*
D20*
X49540000Y-41240000D03*
D19*
X56660000Y-36010000D03*
D20*
X35460000Y-52470000D03*
D19*
X40470000Y-62990000D03*
D20*
X43070000Y-48500000D03*
D19*
X59485500Y-38080000D03*
X53035001Y-46390318D03*
X44910000Y-43300000D03*
X53090000Y-56020000D03*
X55200000Y-31000000D03*
X74940000Y-43860000D03*
D20*
X46499016Y-39880000D03*
D19*
X60920000Y-30990000D03*
D20*
X76000000Y-36840000D03*
D19*
X36610000Y-40400000D03*
X38050000Y-68250000D03*
X53870000Y-52940000D03*
D20*
X66790000Y-68700000D03*
X53330000Y-34710000D03*
X66350000Y-39850000D03*
X70800000Y-38670000D03*
X64910000Y-35280000D03*
X77790000Y-32909999D03*
X37970000Y-58570000D03*
X79270000Y-63681251D03*
D19*
X73670000Y-35660000D03*
D20*
X59530000Y-44500000D03*
D19*
X37350000Y-44550000D03*
D20*
X74100000Y-66145000D03*
D19*
X37400000Y-45650000D03*
X36300000Y-46750000D03*
X37400000Y-46750000D03*
D20*
X66790000Y-67410000D03*
X52290000Y-38280000D03*
D19*
X36300000Y-45640000D03*
D20*
X77150000Y-65510000D03*
D19*
X36300000Y-44550000D03*
D20*
X69540000Y-39330000D03*
X63790000Y-44230000D03*
X51950000Y-51930000D03*
X49520000Y-61300000D03*
X51120000Y-44760000D03*
X40570000Y-66110000D03*
X54340000Y-47640000D03*
X67530000Y-49920000D03*
X46450000Y-48170000D03*
X46825813Y-50790863D03*
X55310000Y-62320000D03*
X67960000Y-51610000D03*
X32570000Y-41660000D03*
X68850000Y-38480000D03*
X74400000Y-41850000D03*
X77920000Y-38340000D03*
X70410000Y-56360000D03*
X69880189Y-53830567D03*
X70470000Y-51379500D03*
X56640000Y-41010000D03*
X60922500Y-42560000D03*
X59450000Y-42790000D03*
X67650000Y-46270000D03*
X69510000Y-64670000D03*
X73340000Y-51550000D03*
X67570000Y-53441000D03*
X64095628Y-54125628D03*
X55580000Y-52710000D03*
X65520000Y-49900500D03*
X65290000Y-51400000D03*
X68420000Y-54840000D03*
X70850000Y-54840000D03*
X62696128Y-52740000D03*
X63923175Y-57343175D03*
X62225122Y-54941422D03*
X63230500Y-58085837D03*
X61800893Y-52827508D03*
X61464804Y-55701740D03*
X62533774Y-58732575D03*
X60901599Y-52846847D03*
X60828760Y-56337784D03*
X60002191Y-52833788D03*
X60192716Y-56973828D03*
X61897730Y-59368620D03*
X61303671Y-60044045D03*
X59106833Y-52747539D03*
X59556672Y-57609873D03*
X60716198Y-60725206D03*
X58920628Y-58245917D03*
X58338209Y-52280291D03*
D21*
X36080000Y-33330000D02*
X40840000Y-38090000D01*
X40840000Y-38090000D02*
X40840000Y-40770000D01*
X69540000Y-39330000D02*
X68690000Y-39330000D01*
X68690000Y-39330000D02*
X63790000Y-44230000D01*
D22*
X51950000Y-45590000D02*
X51950000Y-51930000D01*
X40570000Y-66060000D02*
X40570000Y-66110000D01*
X49520000Y-61300000D02*
X45330000Y-61300000D01*
X51120000Y-44760000D02*
X51950000Y-45590000D01*
X45330000Y-61300000D02*
X40570000Y-66060000D01*
D21*
X54340000Y-47640000D02*
X55730000Y-49030000D01*
X66640000Y-49030000D02*
X67530000Y-49920000D01*
X55730000Y-49030000D02*
X66640000Y-49030000D01*
D22*
X54170000Y-64057501D02*
X53890000Y-63777501D01*
X54170000Y-67000000D02*
X54170000Y-64057501D01*
D21*
X46825813Y-48545813D02*
X46450000Y-48170000D01*
X46825813Y-50790863D02*
X46825813Y-48545813D01*
X55310000Y-62320000D02*
X54047501Y-62320000D01*
X54047501Y-62320000D02*
X53890000Y-62477501D01*
X50300812Y-62810000D02*
X47070000Y-62810000D01*
X53080811Y-60030000D02*
X50300812Y-62810000D01*
X67960000Y-51610000D02*
X59540000Y-60030000D01*
X59540000Y-60030000D02*
X53080811Y-60030000D01*
X70960000Y-36370000D02*
X70960000Y-27700000D01*
X68850000Y-38480000D02*
X70960000Y-36370000D01*
X69390000Y-26130000D02*
X39870000Y-26130000D01*
X31800000Y-35030000D02*
X31800000Y-40890000D01*
X36470000Y-32460000D02*
X34370000Y-32460000D01*
X70960000Y-27700000D02*
X69390000Y-26130000D01*
X39870000Y-26130000D02*
X39140000Y-26860000D01*
X34370000Y-32460000D02*
X31800000Y-35030000D01*
X39140000Y-29790000D02*
X36470000Y-32460000D01*
X31800000Y-40890000D02*
X32570000Y-41660000D01*
X39140000Y-26860000D02*
X39140000Y-29790000D01*
X77910000Y-38340000D02*
X77920000Y-38340000D01*
X74400000Y-41850000D02*
X77910000Y-38340000D01*
X62570050Y-48530000D02*
X67620500Y-48530000D01*
X70830517Y-53830567D02*
X71570000Y-54570050D01*
X71570000Y-54570050D02*
X71570000Y-55200000D01*
X56640000Y-41010000D02*
X56640000Y-42599950D01*
X56640000Y-42599950D02*
X62570050Y-48530000D01*
X67620500Y-48530000D02*
X70470000Y-51379500D01*
X71570000Y-55200000D02*
X70410000Y-56360000D01*
X69880189Y-53830567D02*
X70830517Y-53830567D01*
X74040000Y-54760000D02*
X73540000Y-55260000D01*
X63572500Y-45210000D02*
X67989950Y-45210000D01*
X60922500Y-42560000D02*
X63572500Y-45210000D01*
X67989950Y-45210000D02*
X74040000Y-51260050D01*
X74040000Y-51260050D02*
X74040000Y-54760000D01*
X63642550Y-46270000D02*
X67650000Y-46270000D01*
X69510000Y-64670000D02*
X73090000Y-61090000D01*
X59450000Y-42790000D02*
X60162550Y-42790000D01*
X73090000Y-61090000D02*
X73090000Y-59160000D01*
X60162550Y-42790000D02*
X63642550Y-46270000D01*
X73340000Y-51550000D02*
X72670000Y-51550000D01*
X72670000Y-51550000D02*
X72190000Y-52030000D01*
X72190000Y-55660000D02*
X68170000Y-59680000D01*
X68170000Y-59680000D02*
X68170000Y-61350000D01*
X65330000Y-64190000D02*
X65330000Y-64400000D01*
X72190000Y-52030000D02*
X72190000Y-55660000D01*
X68170000Y-61350000D02*
X65330000Y-64190000D01*
X53287918Y-60530000D02*
X47317918Y-66500000D01*
X66836106Y-53441000D02*
X59747106Y-60530000D01*
X59747106Y-60530000D02*
X53287918Y-60530000D01*
X67570000Y-53441000D02*
X66836106Y-53441000D01*
X47317918Y-66500000D02*
X46810000Y-66500000D01*
X64095628Y-54125628D02*
X64095628Y-54767266D01*
X64095628Y-54767266D02*
X59332894Y-59530000D01*
X45020000Y-59530000D02*
X44280000Y-60270000D01*
X59332894Y-59530000D02*
X45020000Y-59530000D01*
X57640000Y-50440000D02*
X64980500Y-50440000D01*
X57640000Y-50650000D02*
X57640000Y-50440000D01*
X55580000Y-52710000D02*
X57640000Y-50650000D01*
X64980500Y-50440000D02*
X65520000Y-49900500D01*
X57590000Y-59030000D02*
X56810000Y-58250000D01*
X56810000Y-58250000D02*
X56810000Y-56400000D01*
X63395628Y-54760160D02*
X59125788Y-59030000D01*
X59125788Y-59030000D02*
X57590000Y-59030000D01*
X63395628Y-52504372D02*
X63395628Y-54760160D01*
X65290000Y-51400000D02*
X64500000Y-51400000D01*
X64500000Y-51400000D02*
X63395628Y-52504372D01*
X70850000Y-54840000D02*
X68420000Y-54840000D01*
X67107106Y-71080000D02*
X68940000Y-71080000D01*
X62225122Y-54941422D02*
X62696128Y-54470416D01*
X68940000Y-71080000D02*
X70390000Y-72530000D01*
X62696128Y-54470416D02*
X62696128Y-52740000D01*
X63923175Y-57343175D02*
X63930000Y-57350000D01*
X63930000Y-57350000D02*
X63930000Y-67902894D01*
X63930000Y-67902894D02*
X67107106Y-71080000D01*
X63230500Y-58085837D02*
X63430000Y-58285337D01*
X61464804Y-54712369D02*
X61800893Y-54376280D01*
X61464804Y-55701740D02*
X61464804Y-54712369D01*
X63430000Y-68110000D02*
X67850000Y-72530000D01*
X63430000Y-58285337D02*
X63430000Y-68110000D01*
X61800893Y-54376280D02*
X61800893Y-52827508D01*
X65310000Y-70697106D02*
X65310000Y-72530000D01*
X62533774Y-58732575D02*
X62930000Y-59128801D01*
X60828760Y-56337784D02*
X60828760Y-56055646D01*
X60764804Y-52983642D02*
X60901599Y-52846847D01*
X60828760Y-56055646D02*
X60764804Y-55991690D01*
X62930000Y-68317106D02*
X65310000Y-70697106D01*
X60764804Y-55991690D02*
X60764804Y-52983642D01*
X62930000Y-59128801D02*
X62930000Y-68317106D01*
X60192716Y-56973828D02*
X60002191Y-56783303D01*
X60002191Y-56783303D02*
X60002191Y-52833788D01*
X62430000Y-59900890D02*
X62430000Y-72190000D01*
X62430000Y-72190000D02*
X62770000Y-72530000D01*
X61897730Y-59368620D02*
X62430000Y-59900890D01*
X61930000Y-60670374D02*
X61930000Y-70830000D01*
X59492716Y-53314263D02*
X59106833Y-52928380D01*
X59492716Y-57545917D02*
X59492716Y-53314263D01*
X59556672Y-57609873D02*
X59492716Y-57545917D01*
X61370000Y-60110374D02*
X61930000Y-60670374D01*
X59106833Y-52928380D02*
X59106833Y-52747539D01*
X61930000Y-70830000D02*
X60230000Y-72530000D01*
X58856672Y-58181961D02*
X58856672Y-53487328D01*
X60716198Y-60725206D02*
X60735206Y-60725206D01*
X58338209Y-52968865D02*
X58338209Y-52280291D01*
X58920628Y-58245917D02*
X58856672Y-58181961D01*
X58856672Y-53487328D02*
X58338209Y-52968865D01*
X61430000Y-68790000D02*
X57690000Y-72530000D01*
X60735206Y-60725206D02*
X61430000Y-61420000D01*
X61430000Y-61420000D02*
X61430000Y-68790000D01*
M02*
