M48
; DRILL file {KiCad 9.0.0} date 2025-02-28T23:18:16-0800
; FORMAT={-:-/ absolute / metric / decimal}
; #@! TF.CreationDate,2025-02-28T23:18:16-08:00
; #@! TF.GenerationSoftware,Kicad,Pcbnew,9.0.0
; #@! TF.FileFunction,Plated,1,2,PTH
FMAT,2
METRIC
; #@! TA.AperFunction,Plated,PTH,ViaDrill
T1C0.300
; #@! TA.AperFunction,Plated,PTH,ViaDrill
T2C0.500
; #@! TA.AperFunction,Plated,PTH,ComponentDrill
T3C1.200
%
G90
G05
T1
X52.27Y-67.2
X52.61Y-60.28
X54.28Y-65.09
X54.34Y-54.62
X56.36Y-52.43
T2
X50.59Y-55.32
X58.06Y-58.09
X59.86Y-58.3
T3
X36.35Y-73.58
X36.35Y-78.58
X39.85Y-73.58
X39.85Y-78.58
X43.35Y-73.58
X43.35Y-78.58
X50.19Y-73.58
X50.19Y-78.58
X53.69Y-73.58
X53.69Y-78.58
X57.19Y-73.58
X57.19Y-78.58
X63.5Y-30.11
X63.5Y-33.61
X63.5Y-37.11
X63.5Y-40.61
X63.5Y-44.11
X63.5Y-47.61
X63.5Y-51.11
X63.5Y-54.61
X63.5Y-61.27
X63.5Y-64.77
X64.195Y-73.58
X64.195Y-78.58
X67.695Y-73.58
X67.695Y-78.58
X68.5Y-51.11
X68.5Y-30.11
X68.5Y-33.61
X68.5Y-37.11
X68.5Y-40.61
X68.5Y-44.11
X68.5Y-47.61
X68.5Y-54.61
X68.5Y-61.27
X68.5Y-64.77
X71.195Y-73.58
X71.195Y-78.58
M30
