G04 #@! TF.GenerationSoftware,KiCad,Pcbnew,(6.0.7)*
G04 #@! TF.CreationDate,2023-06-27T12:53:43-07:00*
G04 #@! TF.ProjectId,Power Supply Board Ground Systems,506f7765-7220-4537-9570-706c7920426f,rev?*
G04 #@! TF.SameCoordinates,Original*
G04 #@! TF.FileFunction,Copper,L2,Bot*
G04 #@! TF.FilePolarity,Positive*
%FSLAX46Y46*%
G04 Gerber Fmt 4.6, Leading zero omitted, Abs format (unit mm)*
G04 Created by KiCad (PCBNEW (6.0.7)) date 2023-06-27 12:53:43*
%MOMM*%
%LPD*%
G01*
G04 APERTURE LIST*
G04 #@! TA.AperFunction,ComponentPad*
%ADD10R,3.000000X3.000000*%
G04 #@! TD*
G04 #@! TA.AperFunction,ConnectorPad*
%ADD11C,6.400000*%
G04 #@! TD*
G04 #@! TA.AperFunction,ComponentPad*
%ADD12C,3.600000*%
G04 #@! TD*
G04 #@! TA.AperFunction,ComponentPad*
%ADD13R,2.200000X2.200000*%
G04 #@! TD*
G04 #@! TA.AperFunction,ComponentPad*
%ADD14C,2.200000*%
G04 #@! TD*
G04 #@! TA.AperFunction,ViaPad*
%ADD15C,0.800000*%
G04 #@! TD*
G04 APERTURE END LIST*
D10*
X44536342Y-43490000D03*
X44536342Y-48190000D03*
X44536342Y-52890000D03*
X75292110Y-43490000D03*
X75292110Y-48190000D03*
X75292110Y-52890000D03*
X52225284Y-43490000D03*
X52225284Y-48190000D03*
X52225284Y-52890000D03*
X36847400Y-43490000D03*
X36847400Y-48190000D03*
X36847400Y-52890000D03*
D11*
X96520000Y-57150000D03*
D12*
X96520000Y-57150000D03*
D13*
X75410000Y-30180000D03*
D14*
X72870000Y-30180000D03*
X70330000Y-30180000D03*
X67790000Y-30180000D03*
X65250000Y-30180000D03*
X62710000Y-30180000D03*
X60170000Y-30180000D03*
X57630000Y-30180000D03*
D13*
X63840000Y-59500000D03*
D14*
X66380000Y-59500000D03*
D12*
X30480000Y-57150000D03*
D11*
X30480000Y-57150000D03*
D10*
X90670000Y-43490000D03*
X90670000Y-48190000D03*
X90670000Y-52890000D03*
D11*
X96520000Y-31750000D03*
D12*
X96520000Y-31750000D03*
D10*
X82981052Y-43490000D03*
X82981052Y-48190000D03*
X82981052Y-52890000D03*
X67603168Y-43490000D03*
X67603168Y-48190000D03*
X67603168Y-52890000D03*
X59914226Y-43490000D03*
X59914226Y-48190000D03*
X59914226Y-52890000D03*
D11*
X30480000Y-31750000D03*
D12*
X30480000Y-31750000D03*
D15*
X44529084Y-34677200D03*
X54701252Y-59570000D03*
X75288484Y-34677200D03*
X52225284Y-34677200D03*
X83010084Y-34677200D03*
X59896084Y-34677200D03*
X67592284Y-34677200D03*
X36832884Y-34677200D03*
X90706284Y-34677200D03*
G04 #@! TA.AperFunction,Conductor*
G36*
X101033621Y-25928502D02*
G01*
X101080114Y-25982158D01*
X101091500Y-26034500D01*
X101091500Y-62865500D01*
X101071498Y-62933621D01*
X101017842Y-62980114D01*
X100965500Y-62991500D01*
X26034500Y-62991500D01*
X25966379Y-62971498D01*
X25919886Y-62917842D01*
X25908500Y-62865500D01*
X25908500Y-60648134D01*
X62231500Y-60648134D01*
X62238255Y-60710316D01*
X62289385Y-60846705D01*
X62376739Y-60963261D01*
X62493295Y-61050615D01*
X62629684Y-61101745D01*
X62691866Y-61108500D01*
X64988134Y-61108500D01*
X65050316Y-61101745D01*
X65186705Y-61050615D01*
X65303261Y-60963261D01*
X65390615Y-60846705D01*
X65441745Y-60710316D01*
X65448500Y-60648134D01*
X65448500Y-58351866D01*
X65441745Y-58289684D01*
X65390615Y-58153295D01*
X65303261Y-58036739D01*
X65186705Y-57949385D01*
X65050316Y-57898255D01*
X64988134Y-57891500D01*
X62691866Y-57891500D01*
X62629684Y-57898255D01*
X62493295Y-57949385D01*
X62376739Y-58036739D01*
X62289385Y-58153295D01*
X62238255Y-58289684D01*
X62231500Y-58351866D01*
X62231500Y-60648134D01*
X25908500Y-60648134D01*
X25908500Y-54438134D01*
X34838900Y-54438134D01*
X34845655Y-54500316D01*
X34896785Y-54636705D01*
X34984139Y-54753261D01*
X35100695Y-54840615D01*
X35237084Y-54891745D01*
X35299266Y-54898500D01*
X38395534Y-54898500D01*
X38457716Y-54891745D01*
X38594105Y-54840615D01*
X38710661Y-54753261D01*
X38798015Y-54636705D01*
X38849145Y-54500316D01*
X38855900Y-54438134D01*
X42527842Y-54438134D01*
X42534597Y-54500316D01*
X42585727Y-54636705D01*
X42673081Y-54753261D01*
X42789637Y-54840615D01*
X42926026Y-54891745D01*
X42988208Y-54898500D01*
X46084476Y-54898500D01*
X46146658Y-54891745D01*
X46283047Y-54840615D01*
X46399603Y-54753261D01*
X46486957Y-54636705D01*
X46538087Y-54500316D01*
X46544842Y-54438134D01*
X50216784Y-54438134D01*
X50223539Y-54500316D01*
X50274669Y-54636705D01*
X50362023Y-54753261D01*
X50478579Y-54840615D01*
X50614968Y-54891745D01*
X50677150Y-54898500D01*
X53773418Y-54898500D01*
X53835600Y-54891745D01*
X53971989Y-54840615D01*
X54088545Y-54753261D01*
X54175899Y-54636705D01*
X54227029Y-54500316D01*
X54233784Y-54438134D01*
X57905726Y-54438134D01*
X57912481Y-54500316D01*
X57963611Y-54636705D01*
X58050965Y-54753261D01*
X58167521Y-54840615D01*
X58303910Y-54891745D01*
X58366092Y-54898500D01*
X61462360Y-54898500D01*
X61524542Y-54891745D01*
X61660931Y-54840615D01*
X61777487Y-54753261D01*
X61864841Y-54636705D01*
X61915971Y-54500316D01*
X61922726Y-54438134D01*
X65594668Y-54438134D01*
X65601423Y-54500316D01*
X65652553Y-54636705D01*
X65739907Y-54753261D01*
X65856463Y-54840615D01*
X65992852Y-54891745D01*
X66055034Y-54898500D01*
X69151302Y-54898500D01*
X69213484Y-54891745D01*
X69349873Y-54840615D01*
X69466429Y-54753261D01*
X69553783Y-54636705D01*
X69604913Y-54500316D01*
X69611668Y-54438134D01*
X73283610Y-54438134D01*
X73290365Y-54500316D01*
X73341495Y-54636705D01*
X73428849Y-54753261D01*
X73545405Y-54840615D01*
X73681794Y-54891745D01*
X73743976Y-54898500D01*
X76840244Y-54898500D01*
X76902426Y-54891745D01*
X77038815Y-54840615D01*
X77155371Y-54753261D01*
X77242725Y-54636705D01*
X77293855Y-54500316D01*
X77300610Y-54438134D01*
X80972552Y-54438134D01*
X80979307Y-54500316D01*
X81030437Y-54636705D01*
X81117791Y-54753261D01*
X81234347Y-54840615D01*
X81370736Y-54891745D01*
X81432918Y-54898500D01*
X84529186Y-54898500D01*
X84591368Y-54891745D01*
X84727757Y-54840615D01*
X84844313Y-54753261D01*
X84931667Y-54636705D01*
X84982797Y-54500316D01*
X84989552Y-54438134D01*
X88661500Y-54438134D01*
X88668255Y-54500316D01*
X88719385Y-54636705D01*
X88806739Y-54753261D01*
X88923295Y-54840615D01*
X89059684Y-54891745D01*
X89121866Y-54898500D01*
X92218134Y-54898500D01*
X92280316Y-54891745D01*
X92416705Y-54840615D01*
X92533261Y-54753261D01*
X92620615Y-54636705D01*
X92671745Y-54500316D01*
X92678500Y-54438134D01*
X92678500Y-51341866D01*
X92671745Y-51279684D01*
X92620615Y-51143295D01*
X92533261Y-51026739D01*
X92416705Y-50939385D01*
X92280316Y-50888255D01*
X92218134Y-50881500D01*
X89121866Y-50881500D01*
X89059684Y-50888255D01*
X88923295Y-50939385D01*
X88806739Y-51026739D01*
X88719385Y-51143295D01*
X88668255Y-51279684D01*
X88661500Y-51341866D01*
X88661500Y-54438134D01*
X84989552Y-54438134D01*
X84989552Y-51341866D01*
X84982797Y-51279684D01*
X84931667Y-51143295D01*
X84844313Y-51026739D01*
X84727757Y-50939385D01*
X84591368Y-50888255D01*
X84529186Y-50881500D01*
X81432918Y-50881500D01*
X81370736Y-50888255D01*
X81234347Y-50939385D01*
X81117791Y-51026739D01*
X81030437Y-51143295D01*
X80979307Y-51279684D01*
X80972552Y-51341866D01*
X80972552Y-54438134D01*
X77300610Y-54438134D01*
X77300610Y-51341866D01*
X77293855Y-51279684D01*
X77242725Y-51143295D01*
X77155371Y-51026739D01*
X77038815Y-50939385D01*
X76902426Y-50888255D01*
X76840244Y-50881500D01*
X73743976Y-50881500D01*
X73681794Y-50888255D01*
X73545405Y-50939385D01*
X73428849Y-51026739D01*
X73341495Y-51143295D01*
X73290365Y-51279684D01*
X73283610Y-51341866D01*
X73283610Y-54438134D01*
X69611668Y-54438134D01*
X69611668Y-51341866D01*
X69604913Y-51279684D01*
X69553783Y-51143295D01*
X69466429Y-51026739D01*
X69349873Y-50939385D01*
X69213484Y-50888255D01*
X69151302Y-50881500D01*
X66055034Y-50881500D01*
X65992852Y-50888255D01*
X65856463Y-50939385D01*
X65739907Y-51026739D01*
X65652553Y-51143295D01*
X65601423Y-51279684D01*
X65594668Y-51341866D01*
X65594668Y-54438134D01*
X61922726Y-54438134D01*
X61922726Y-51341866D01*
X61915971Y-51279684D01*
X61864841Y-51143295D01*
X61777487Y-51026739D01*
X61660931Y-50939385D01*
X61524542Y-50888255D01*
X61462360Y-50881500D01*
X58366092Y-50881500D01*
X58303910Y-50888255D01*
X58167521Y-50939385D01*
X58050965Y-51026739D01*
X57963611Y-51143295D01*
X57912481Y-51279684D01*
X57905726Y-51341866D01*
X57905726Y-54438134D01*
X54233784Y-54438134D01*
X54233784Y-51341866D01*
X54227029Y-51279684D01*
X54175899Y-51143295D01*
X54088545Y-51026739D01*
X53971989Y-50939385D01*
X53835600Y-50888255D01*
X53773418Y-50881500D01*
X50677150Y-50881500D01*
X50614968Y-50888255D01*
X50478579Y-50939385D01*
X50362023Y-51026739D01*
X50274669Y-51143295D01*
X50223539Y-51279684D01*
X50216784Y-51341866D01*
X50216784Y-54438134D01*
X46544842Y-54438134D01*
X46544842Y-51341866D01*
X46538087Y-51279684D01*
X46486957Y-51143295D01*
X46399603Y-51026739D01*
X46283047Y-50939385D01*
X46146658Y-50888255D01*
X46084476Y-50881500D01*
X42988208Y-50881500D01*
X42926026Y-50888255D01*
X42789637Y-50939385D01*
X42673081Y-51026739D01*
X42585727Y-51143295D01*
X42534597Y-51279684D01*
X42527842Y-51341866D01*
X42527842Y-54438134D01*
X38855900Y-54438134D01*
X38855900Y-51341866D01*
X38849145Y-51279684D01*
X38798015Y-51143295D01*
X38710661Y-51026739D01*
X38594105Y-50939385D01*
X38457716Y-50888255D01*
X38395534Y-50881500D01*
X35299266Y-50881500D01*
X35237084Y-50888255D01*
X35100695Y-50939385D01*
X34984139Y-51026739D01*
X34896785Y-51143295D01*
X34845655Y-51279684D01*
X34838900Y-51341866D01*
X34838900Y-54438134D01*
X25908500Y-54438134D01*
X25908500Y-49738134D01*
X34838900Y-49738134D01*
X34845655Y-49800316D01*
X34896785Y-49936705D01*
X34984139Y-50053261D01*
X35100695Y-50140615D01*
X35237084Y-50191745D01*
X35299266Y-50198500D01*
X38395534Y-50198500D01*
X38457716Y-50191745D01*
X38594105Y-50140615D01*
X38710661Y-50053261D01*
X38798015Y-49936705D01*
X38849145Y-49800316D01*
X38855900Y-49738134D01*
X42527842Y-49738134D01*
X42534597Y-49800316D01*
X42585727Y-49936705D01*
X42673081Y-50053261D01*
X42789637Y-50140615D01*
X42926026Y-50191745D01*
X42988208Y-50198500D01*
X46084476Y-50198500D01*
X46146658Y-50191745D01*
X46283047Y-50140615D01*
X46399603Y-50053261D01*
X46486957Y-49936705D01*
X46538087Y-49800316D01*
X46544842Y-49738134D01*
X50216784Y-49738134D01*
X50223539Y-49800316D01*
X50274669Y-49936705D01*
X50362023Y-50053261D01*
X50478579Y-50140615D01*
X50614968Y-50191745D01*
X50677150Y-50198500D01*
X53773418Y-50198500D01*
X53835600Y-50191745D01*
X53971989Y-50140615D01*
X54088545Y-50053261D01*
X54175899Y-49936705D01*
X54227029Y-49800316D01*
X54233784Y-49738134D01*
X57905726Y-49738134D01*
X57912481Y-49800316D01*
X57963611Y-49936705D01*
X58050965Y-50053261D01*
X58167521Y-50140615D01*
X58303910Y-50191745D01*
X58366092Y-50198500D01*
X61462360Y-50198500D01*
X61524542Y-50191745D01*
X61660931Y-50140615D01*
X61777487Y-50053261D01*
X61864841Y-49936705D01*
X61915971Y-49800316D01*
X61922726Y-49738134D01*
X65594668Y-49738134D01*
X65601423Y-49800316D01*
X65652553Y-49936705D01*
X65739907Y-50053261D01*
X65856463Y-50140615D01*
X65992852Y-50191745D01*
X66055034Y-50198500D01*
X69151302Y-50198500D01*
X69213484Y-50191745D01*
X69349873Y-50140615D01*
X69466429Y-50053261D01*
X69553783Y-49936705D01*
X69604913Y-49800316D01*
X69611668Y-49738134D01*
X73283610Y-49738134D01*
X73290365Y-49800316D01*
X73341495Y-49936705D01*
X73428849Y-50053261D01*
X73545405Y-50140615D01*
X73681794Y-50191745D01*
X73743976Y-50198500D01*
X76840244Y-50198500D01*
X76902426Y-50191745D01*
X77038815Y-50140615D01*
X77155371Y-50053261D01*
X77242725Y-49936705D01*
X77293855Y-49800316D01*
X77300610Y-49738134D01*
X80972552Y-49738134D01*
X80979307Y-49800316D01*
X81030437Y-49936705D01*
X81117791Y-50053261D01*
X81234347Y-50140615D01*
X81370736Y-50191745D01*
X81432918Y-50198500D01*
X84529186Y-50198500D01*
X84591368Y-50191745D01*
X84727757Y-50140615D01*
X84844313Y-50053261D01*
X84931667Y-49936705D01*
X84982797Y-49800316D01*
X84989552Y-49738134D01*
X88661500Y-49738134D01*
X88668255Y-49800316D01*
X88719385Y-49936705D01*
X88806739Y-50053261D01*
X88923295Y-50140615D01*
X89059684Y-50191745D01*
X89121866Y-50198500D01*
X92218134Y-50198500D01*
X92280316Y-50191745D01*
X92416705Y-50140615D01*
X92533261Y-50053261D01*
X92620615Y-49936705D01*
X92671745Y-49800316D01*
X92678500Y-49738134D01*
X92678500Y-46641866D01*
X92671745Y-46579684D01*
X92620615Y-46443295D01*
X92533261Y-46326739D01*
X92416705Y-46239385D01*
X92280316Y-46188255D01*
X92218134Y-46181500D01*
X89121866Y-46181500D01*
X89059684Y-46188255D01*
X88923295Y-46239385D01*
X88806739Y-46326739D01*
X88719385Y-46443295D01*
X88668255Y-46579684D01*
X88661500Y-46641866D01*
X88661500Y-49738134D01*
X84989552Y-49738134D01*
X84989552Y-46641866D01*
X84982797Y-46579684D01*
X84931667Y-46443295D01*
X84844313Y-46326739D01*
X84727757Y-46239385D01*
X84591368Y-46188255D01*
X84529186Y-46181500D01*
X81432918Y-46181500D01*
X81370736Y-46188255D01*
X81234347Y-46239385D01*
X81117791Y-46326739D01*
X81030437Y-46443295D01*
X80979307Y-46579684D01*
X80972552Y-46641866D01*
X80972552Y-49738134D01*
X77300610Y-49738134D01*
X77300610Y-46641866D01*
X77293855Y-46579684D01*
X77242725Y-46443295D01*
X77155371Y-46326739D01*
X77038815Y-46239385D01*
X76902426Y-46188255D01*
X76840244Y-46181500D01*
X73743976Y-46181500D01*
X73681794Y-46188255D01*
X73545405Y-46239385D01*
X73428849Y-46326739D01*
X73341495Y-46443295D01*
X73290365Y-46579684D01*
X73283610Y-46641866D01*
X73283610Y-49738134D01*
X69611668Y-49738134D01*
X69611668Y-46641866D01*
X69604913Y-46579684D01*
X69553783Y-46443295D01*
X69466429Y-46326739D01*
X69349873Y-46239385D01*
X69213484Y-46188255D01*
X69151302Y-46181500D01*
X66055034Y-46181500D01*
X65992852Y-46188255D01*
X65856463Y-46239385D01*
X65739907Y-46326739D01*
X65652553Y-46443295D01*
X65601423Y-46579684D01*
X65594668Y-46641866D01*
X65594668Y-49738134D01*
X61922726Y-49738134D01*
X61922726Y-46641866D01*
X61915971Y-46579684D01*
X61864841Y-46443295D01*
X61777487Y-46326739D01*
X61660931Y-46239385D01*
X61524542Y-46188255D01*
X61462360Y-46181500D01*
X58366092Y-46181500D01*
X58303910Y-46188255D01*
X58167521Y-46239385D01*
X58050965Y-46326739D01*
X57963611Y-46443295D01*
X57912481Y-46579684D01*
X57905726Y-46641866D01*
X57905726Y-49738134D01*
X54233784Y-49738134D01*
X54233784Y-46641866D01*
X54227029Y-46579684D01*
X54175899Y-46443295D01*
X54088545Y-46326739D01*
X53971989Y-46239385D01*
X53835600Y-46188255D01*
X53773418Y-46181500D01*
X50677150Y-46181500D01*
X50614968Y-46188255D01*
X50478579Y-46239385D01*
X50362023Y-46326739D01*
X50274669Y-46443295D01*
X50223539Y-46579684D01*
X50216784Y-46641866D01*
X50216784Y-49738134D01*
X46544842Y-49738134D01*
X46544842Y-46641866D01*
X46538087Y-46579684D01*
X46486957Y-46443295D01*
X46399603Y-46326739D01*
X46283047Y-46239385D01*
X46146658Y-46188255D01*
X46084476Y-46181500D01*
X42988208Y-46181500D01*
X42926026Y-46188255D01*
X42789637Y-46239385D01*
X42673081Y-46326739D01*
X42585727Y-46443295D01*
X42534597Y-46579684D01*
X42527842Y-46641866D01*
X42527842Y-49738134D01*
X38855900Y-49738134D01*
X38855900Y-46641866D01*
X38849145Y-46579684D01*
X38798015Y-46443295D01*
X38710661Y-46326739D01*
X38594105Y-46239385D01*
X38457716Y-46188255D01*
X38395534Y-46181500D01*
X35299266Y-46181500D01*
X35237084Y-46188255D01*
X35100695Y-46239385D01*
X34984139Y-46326739D01*
X34896785Y-46443295D01*
X34845655Y-46579684D01*
X34838900Y-46641866D01*
X34838900Y-49738134D01*
X25908500Y-49738134D01*
X25908500Y-45038134D01*
X34838900Y-45038134D01*
X34845655Y-45100316D01*
X34896785Y-45236705D01*
X34984139Y-45353261D01*
X35100695Y-45440615D01*
X35237084Y-45491745D01*
X35299266Y-45498500D01*
X38395534Y-45498500D01*
X38457716Y-45491745D01*
X38594105Y-45440615D01*
X38710661Y-45353261D01*
X38798015Y-45236705D01*
X38849145Y-45100316D01*
X38855900Y-45038134D01*
X42527842Y-45038134D01*
X42534597Y-45100316D01*
X42585727Y-45236705D01*
X42673081Y-45353261D01*
X42789637Y-45440615D01*
X42926026Y-45491745D01*
X42988208Y-45498500D01*
X46084476Y-45498500D01*
X46146658Y-45491745D01*
X46283047Y-45440615D01*
X46399603Y-45353261D01*
X46486957Y-45236705D01*
X46538087Y-45100316D01*
X46544842Y-45038134D01*
X50216784Y-45038134D01*
X50223539Y-45100316D01*
X50274669Y-45236705D01*
X50362023Y-45353261D01*
X50478579Y-45440615D01*
X50614968Y-45491745D01*
X50677150Y-45498500D01*
X53773418Y-45498500D01*
X53835600Y-45491745D01*
X53971989Y-45440615D01*
X54088545Y-45353261D01*
X54175899Y-45236705D01*
X54227029Y-45100316D01*
X54233784Y-45038134D01*
X57905726Y-45038134D01*
X57912481Y-45100316D01*
X57963611Y-45236705D01*
X58050965Y-45353261D01*
X58167521Y-45440615D01*
X58303910Y-45491745D01*
X58366092Y-45498500D01*
X61462360Y-45498500D01*
X61524542Y-45491745D01*
X61660931Y-45440615D01*
X61777487Y-45353261D01*
X61864841Y-45236705D01*
X61915971Y-45100316D01*
X61922726Y-45038134D01*
X65594668Y-45038134D01*
X65601423Y-45100316D01*
X65652553Y-45236705D01*
X65739907Y-45353261D01*
X65856463Y-45440615D01*
X65992852Y-45491745D01*
X66055034Y-45498500D01*
X69151302Y-45498500D01*
X69213484Y-45491745D01*
X69349873Y-45440615D01*
X69466429Y-45353261D01*
X69553783Y-45236705D01*
X69604913Y-45100316D01*
X69611668Y-45038134D01*
X73283610Y-45038134D01*
X73290365Y-45100316D01*
X73341495Y-45236705D01*
X73428849Y-45353261D01*
X73545405Y-45440615D01*
X73681794Y-45491745D01*
X73743976Y-45498500D01*
X76840244Y-45498500D01*
X76902426Y-45491745D01*
X77038815Y-45440615D01*
X77155371Y-45353261D01*
X77242725Y-45236705D01*
X77293855Y-45100316D01*
X77300610Y-45038134D01*
X80972552Y-45038134D01*
X80979307Y-45100316D01*
X81030437Y-45236705D01*
X81117791Y-45353261D01*
X81234347Y-45440615D01*
X81370736Y-45491745D01*
X81432918Y-45498500D01*
X84529186Y-45498500D01*
X84591368Y-45491745D01*
X84727757Y-45440615D01*
X84844313Y-45353261D01*
X84931667Y-45236705D01*
X84982797Y-45100316D01*
X84989552Y-45038134D01*
X88661500Y-45038134D01*
X88668255Y-45100316D01*
X88719385Y-45236705D01*
X88806739Y-45353261D01*
X88923295Y-45440615D01*
X89059684Y-45491745D01*
X89121866Y-45498500D01*
X92218134Y-45498500D01*
X92280316Y-45491745D01*
X92416705Y-45440615D01*
X92533261Y-45353261D01*
X92620615Y-45236705D01*
X92671745Y-45100316D01*
X92678500Y-45038134D01*
X92678500Y-41941866D01*
X92671745Y-41879684D01*
X92620615Y-41743295D01*
X92533261Y-41626739D01*
X92416705Y-41539385D01*
X92280316Y-41488255D01*
X92218134Y-41481500D01*
X89121866Y-41481500D01*
X89059684Y-41488255D01*
X88923295Y-41539385D01*
X88806739Y-41626739D01*
X88719385Y-41743295D01*
X88668255Y-41879684D01*
X88661500Y-41941866D01*
X88661500Y-45038134D01*
X84989552Y-45038134D01*
X84989552Y-41941866D01*
X84982797Y-41879684D01*
X84931667Y-41743295D01*
X84844313Y-41626739D01*
X84727757Y-41539385D01*
X84591368Y-41488255D01*
X84529186Y-41481500D01*
X81432918Y-41481500D01*
X81370736Y-41488255D01*
X81234347Y-41539385D01*
X81117791Y-41626739D01*
X81030437Y-41743295D01*
X80979307Y-41879684D01*
X80972552Y-41941866D01*
X80972552Y-45038134D01*
X77300610Y-45038134D01*
X77300610Y-41941866D01*
X77293855Y-41879684D01*
X77242725Y-41743295D01*
X77155371Y-41626739D01*
X77038815Y-41539385D01*
X76902426Y-41488255D01*
X76840244Y-41481500D01*
X73743976Y-41481500D01*
X73681794Y-41488255D01*
X73545405Y-41539385D01*
X73428849Y-41626739D01*
X73341495Y-41743295D01*
X73290365Y-41879684D01*
X73283610Y-41941866D01*
X73283610Y-45038134D01*
X69611668Y-45038134D01*
X69611668Y-41941866D01*
X69604913Y-41879684D01*
X69553783Y-41743295D01*
X69466429Y-41626739D01*
X69349873Y-41539385D01*
X69213484Y-41488255D01*
X69151302Y-41481500D01*
X66055034Y-41481500D01*
X65992852Y-41488255D01*
X65856463Y-41539385D01*
X65739907Y-41626739D01*
X65652553Y-41743295D01*
X65601423Y-41879684D01*
X65594668Y-41941866D01*
X65594668Y-45038134D01*
X61922726Y-45038134D01*
X61922726Y-41941866D01*
X61915971Y-41879684D01*
X61864841Y-41743295D01*
X61777487Y-41626739D01*
X61660931Y-41539385D01*
X61524542Y-41488255D01*
X61462360Y-41481500D01*
X58366092Y-41481500D01*
X58303910Y-41488255D01*
X58167521Y-41539385D01*
X58050965Y-41626739D01*
X57963611Y-41743295D01*
X57912481Y-41879684D01*
X57905726Y-41941866D01*
X57905726Y-45038134D01*
X54233784Y-45038134D01*
X54233784Y-41941866D01*
X54227029Y-41879684D01*
X54175899Y-41743295D01*
X54088545Y-41626739D01*
X53971989Y-41539385D01*
X53835600Y-41488255D01*
X53773418Y-41481500D01*
X50677150Y-41481500D01*
X50614968Y-41488255D01*
X50478579Y-41539385D01*
X50362023Y-41626739D01*
X50274669Y-41743295D01*
X50223539Y-41879684D01*
X50216784Y-41941866D01*
X50216784Y-45038134D01*
X46544842Y-45038134D01*
X46544842Y-41941866D01*
X46538087Y-41879684D01*
X46486957Y-41743295D01*
X46399603Y-41626739D01*
X46283047Y-41539385D01*
X46146658Y-41488255D01*
X46084476Y-41481500D01*
X42988208Y-41481500D01*
X42926026Y-41488255D01*
X42789637Y-41539385D01*
X42673081Y-41626739D01*
X42585727Y-41743295D01*
X42534597Y-41879684D01*
X42527842Y-41941866D01*
X42527842Y-45038134D01*
X38855900Y-45038134D01*
X38855900Y-41941866D01*
X38849145Y-41879684D01*
X38798015Y-41743295D01*
X38710661Y-41626739D01*
X38594105Y-41539385D01*
X38457716Y-41488255D01*
X38395534Y-41481500D01*
X35299266Y-41481500D01*
X35237084Y-41488255D01*
X35100695Y-41539385D01*
X34984139Y-41626739D01*
X34896785Y-41743295D01*
X34845655Y-41879684D01*
X34838900Y-41941866D01*
X34838900Y-45038134D01*
X25908500Y-45038134D01*
X25908500Y-30180000D01*
X56016526Y-30180000D01*
X56036391Y-30432403D01*
X56095495Y-30678591D01*
X56192384Y-30912502D01*
X56324672Y-31128376D01*
X56489102Y-31320898D01*
X56681624Y-31485328D01*
X56897498Y-31617616D01*
X56902068Y-31619509D01*
X56902072Y-31619511D01*
X56972401Y-31648642D01*
X57131409Y-31714505D01*
X57198513Y-31730615D01*
X57372784Y-31772454D01*
X57372790Y-31772455D01*
X57377597Y-31773609D01*
X57630000Y-31793474D01*
X57882403Y-31773609D01*
X57887210Y-31772455D01*
X57887216Y-31772454D01*
X58061487Y-31730615D01*
X58128591Y-31714505D01*
X58287599Y-31648642D01*
X58357928Y-31619511D01*
X58357932Y-31619509D01*
X58362502Y-31617616D01*
X58578376Y-31485328D01*
X58770898Y-31320898D01*
X58774106Y-31317142D01*
X58774113Y-31317135D01*
X58804190Y-31281920D01*
X58863641Y-31243111D01*
X58934635Y-31242605D01*
X58995810Y-31281920D01*
X59025887Y-31317135D01*
X59025894Y-31317142D01*
X59029102Y-31320898D01*
X59221624Y-31485328D01*
X59437498Y-31617616D01*
X59442068Y-31619509D01*
X59442072Y-31619511D01*
X59512401Y-31648642D01*
X59671409Y-31714505D01*
X59738513Y-31730615D01*
X59912784Y-31772454D01*
X59912790Y-31772455D01*
X59917597Y-31773609D01*
X60170000Y-31793474D01*
X60422403Y-31773609D01*
X60427210Y-31772455D01*
X60427216Y-31772454D01*
X60601487Y-31730615D01*
X60668591Y-31714505D01*
X60827599Y-31648642D01*
X60897928Y-31619511D01*
X60897932Y-31619509D01*
X60902502Y-31617616D01*
X61118376Y-31485328D01*
X61310898Y-31320898D01*
X61314106Y-31317142D01*
X61314113Y-31317135D01*
X61344190Y-31281920D01*
X61403641Y-31243111D01*
X61474635Y-31242605D01*
X61535810Y-31281920D01*
X61565887Y-31317135D01*
X61565894Y-31317142D01*
X61569102Y-31320898D01*
X61761624Y-31485328D01*
X61977498Y-31617616D01*
X61982068Y-31619509D01*
X61982072Y-31619511D01*
X62052401Y-31648642D01*
X62211409Y-31714505D01*
X62278513Y-31730615D01*
X62452784Y-31772454D01*
X62452790Y-31772455D01*
X62457597Y-31773609D01*
X62710000Y-31793474D01*
X62962403Y-31773609D01*
X62967210Y-31772455D01*
X62967216Y-31772454D01*
X63141487Y-31730615D01*
X63208591Y-31714505D01*
X63367599Y-31648642D01*
X63437928Y-31619511D01*
X63437932Y-31619509D01*
X63442502Y-31617616D01*
X63658376Y-31485328D01*
X63850898Y-31320898D01*
X63854106Y-31317142D01*
X63854113Y-31317135D01*
X63884190Y-31281920D01*
X63943641Y-31243111D01*
X64014635Y-31242605D01*
X64075810Y-31281920D01*
X64105887Y-31317135D01*
X64105894Y-31317142D01*
X64109102Y-31320898D01*
X64301624Y-31485328D01*
X64517498Y-31617616D01*
X64522068Y-31619509D01*
X64522072Y-31619511D01*
X64592401Y-31648642D01*
X64751409Y-31714505D01*
X64818513Y-31730615D01*
X64992784Y-31772454D01*
X64992790Y-31772455D01*
X64997597Y-31773609D01*
X65250000Y-31793474D01*
X65502403Y-31773609D01*
X65507210Y-31772455D01*
X65507216Y-31772454D01*
X65681487Y-31730615D01*
X65748591Y-31714505D01*
X65907599Y-31648642D01*
X65977928Y-31619511D01*
X65977932Y-31619509D01*
X65982502Y-31617616D01*
X66198376Y-31485328D01*
X66390898Y-31320898D01*
X66394106Y-31317142D01*
X66394113Y-31317135D01*
X66424190Y-31281920D01*
X66483641Y-31243111D01*
X66554635Y-31242605D01*
X66615810Y-31281920D01*
X66645887Y-31317135D01*
X66645894Y-31317142D01*
X66649102Y-31320898D01*
X66841624Y-31485328D01*
X67057498Y-31617616D01*
X67062068Y-31619509D01*
X67062072Y-31619511D01*
X67132401Y-31648642D01*
X67291409Y-31714505D01*
X67358513Y-31730615D01*
X67532784Y-31772454D01*
X67532790Y-31772455D01*
X67537597Y-31773609D01*
X67790000Y-31793474D01*
X68042403Y-31773609D01*
X68047210Y-31772455D01*
X68047216Y-31772454D01*
X68221487Y-31730615D01*
X68288591Y-31714505D01*
X68447599Y-31648642D01*
X68517928Y-31619511D01*
X68517932Y-31619509D01*
X68522502Y-31617616D01*
X68738376Y-31485328D01*
X68930898Y-31320898D01*
X68934106Y-31317142D01*
X68934113Y-31317135D01*
X68964190Y-31281920D01*
X69023641Y-31243111D01*
X69094635Y-31242605D01*
X69155810Y-31281920D01*
X69185887Y-31317135D01*
X69185894Y-31317142D01*
X69189102Y-31320898D01*
X69381624Y-31485328D01*
X69597498Y-31617616D01*
X69602068Y-31619509D01*
X69602072Y-31619511D01*
X69672401Y-31648642D01*
X69831409Y-31714505D01*
X69898513Y-31730615D01*
X70072784Y-31772454D01*
X70072790Y-31772455D01*
X70077597Y-31773609D01*
X70330000Y-31793474D01*
X70582403Y-31773609D01*
X70587210Y-31772455D01*
X70587216Y-31772454D01*
X70761487Y-31730615D01*
X70828591Y-31714505D01*
X70987599Y-31648642D01*
X71057928Y-31619511D01*
X71057932Y-31619509D01*
X71062502Y-31617616D01*
X71278376Y-31485328D01*
X71470898Y-31320898D01*
X71474106Y-31317142D01*
X71474113Y-31317135D01*
X71504190Y-31281920D01*
X71563641Y-31243111D01*
X71634635Y-31242605D01*
X71695810Y-31281920D01*
X71725887Y-31317135D01*
X71725894Y-31317142D01*
X71729102Y-31320898D01*
X71921624Y-31485328D01*
X72137498Y-31617616D01*
X72142068Y-31619509D01*
X72142072Y-31619511D01*
X72212401Y-31648642D01*
X72371409Y-31714505D01*
X72438513Y-31730615D01*
X72612784Y-31772454D01*
X72612790Y-31772455D01*
X72617597Y-31773609D01*
X72870000Y-31793474D01*
X73122403Y-31773609D01*
X73127210Y-31772455D01*
X73127216Y-31772454D01*
X73301487Y-31730615D01*
X73368591Y-31714505D01*
X73527599Y-31648642D01*
X73597928Y-31619511D01*
X73597932Y-31619509D01*
X73602502Y-31617616D01*
X73727386Y-31541087D01*
X73795920Y-31522549D01*
X73863596Y-31544005D01*
X73894046Y-31572953D01*
X73946739Y-31643261D01*
X74063295Y-31730615D01*
X74199684Y-31781745D01*
X74261866Y-31788500D01*
X76558134Y-31788500D01*
X76620316Y-31781745D01*
X76756705Y-31730615D01*
X76873261Y-31643261D01*
X76960615Y-31526705D01*
X77011745Y-31390316D01*
X77018500Y-31328134D01*
X77018500Y-29031866D01*
X77011745Y-28969684D01*
X76960615Y-28833295D01*
X76873261Y-28716739D01*
X76756705Y-28629385D01*
X76620316Y-28578255D01*
X76558134Y-28571500D01*
X74261866Y-28571500D01*
X74199684Y-28578255D01*
X74063295Y-28629385D01*
X73946739Y-28716739D01*
X73894047Y-28787046D01*
X73837187Y-28829560D01*
X73766369Y-28834585D01*
X73727386Y-28818913D01*
X73606722Y-28744970D01*
X73602502Y-28742384D01*
X73597932Y-28740491D01*
X73597928Y-28740489D01*
X73373164Y-28647389D01*
X73373162Y-28647388D01*
X73368591Y-28645495D01*
X73283968Y-28625179D01*
X73127216Y-28587546D01*
X73127210Y-28587545D01*
X73122403Y-28586391D01*
X72870000Y-28566526D01*
X72617597Y-28586391D01*
X72612790Y-28587545D01*
X72612784Y-28587546D01*
X72456032Y-28625179D01*
X72371409Y-28645495D01*
X72366838Y-28647388D01*
X72366836Y-28647389D01*
X72142072Y-28740489D01*
X72142068Y-28740491D01*
X72137498Y-28742384D01*
X71921624Y-28874672D01*
X71729102Y-29039102D01*
X71725894Y-29042858D01*
X71725887Y-29042865D01*
X71695810Y-29078080D01*
X71636359Y-29116889D01*
X71565365Y-29117395D01*
X71504190Y-29078080D01*
X71474113Y-29042865D01*
X71474106Y-29042858D01*
X71470898Y-29039102D01*
X71278376Y-28874672D01*
X71062502Y-28742384D01*
X71057932Y-28740491D01*
X71057928Y-28740489D01*
X70833164Y-28647389D01*
X70833162Y-28647388D01*
X70828591Y-28645495D01*
X70743968Y-28625179D01*
X70587216Y-28587546D01*
X70587210Y-28587545D01*
X70582403Y-28586391D01*
X70330000Y-28566526D01*
X70077597Y-28586391D01*
X70072790Y-28587545D01*
X70072784Y-28587546D01*
X69916032Y-28625179D01*
X69831409Y-28645495D01*
X69826838Y-28647388D01*
X69826836Y-28647389D01*
X69602072Y-28740489D01*
X69602068Y-28740491D01*
X69597498Y-28742384D01*
X69381624Y-28874672D01*
X69189102Y-29039102D01*
X69185894Y-29042858D01*
X69185887Y-29042865D01*
X69155810Y-29078080D01*
X69096359Y-29116889D01*
X69025365Y-29117395D01*
X68964190Y-29078080D01*
X68934113Y-29042865D01*
X68934106Y-29042858D01*
X68930898Y-29039102D01*
X68738376Y-28874672D01*
X68522502Y-28742384D01*
X68517932Y-28740491D01*
X68517928Y-28740489D01*
X68293164Y-28647389D01*
X68293162Y-28647388D01*
X68288591Y-28645495D01*
X68203968Y-28625179D01*
X68047216Y-28587546D01*
X68047210Y-28587545D01*
X68042403Y-28586391D01*
X67790000Y-28566526D01*
X67537597Y-28586391D01*
X67532790Y-28587545D01*
X67532784Y-28587546D01*
X67376032Y-28625179D01*
X67291409Y-28645495D01*
X67286838Y-28647388D01*
X67286836Y-28647389D01*
X67062072Y-28740489D01*
X67062068Y-28740491D01*
X67057498Y-28742384D01*
X66841624Y-28874672D01*
X66649102Y-29039102D01*
X66645894Y-29042858D01*
X66645887Y-29042865D01*
X66615810Y-29078080D01*
X66556359Y-29116889D01*
X66485365Y-29117395D01*
X66424190Y-29078080D01*
X66394113Y-29042865D01*
X66394106Y-29042858D01*
X66390898Y-29039102D01*
X66198376Y-28874672D01*
X65982502Y-28742384D01*
X65977932Y-28740491D01*
X65977928Y-28740489D01*
X65753164Y-28647389D01*
X65753162Y-28647388D01*
X65748591Y-28645495D01*
X65663968Y-28625179D01*
X65507216Y-28587546D01*
X65507210Y-28587545D01*
X65502403Y-28586391D01*
X65250000Y-28566526D01*
X64997597Y-28586391D01*
X64992790Y-28587545D01*
X64992784Y-28587546D01*
X64836032Y-28625179D01*
X64751409Y-28645495D01*
X64746838Y-28647388D01*
X64746836Y-28647389D01*
X64522072Y-28740489D01*
X64522068Y-28740491D01*
X64517498Y-28742384D01*
X64301624Y-28874672D01*
X64109102Y-29039102D01*
X64105894Y-29042858D01*
X64105887Y-29042865D01*
X64075810Y-29078080D01*
X64016359Y-29116889D01*
X63945365Y-29117395D01*
X63884190Y-29078080D01*
X63854113Y-29042865D01*
X63854106Y-29042858D01*
X63850898Y-29039102D01*
X63658376Y-28874672D01*
X63442502Y-28742384D01*
X63437932Y-28740491D01*
X63437928Y-28740489D01*
X63213164Y-28647389D01*
X63213162Y-28647388D01*
X63208591Y-28645495D01*
X63123968Y-28625179D01*
X62967216Y-28587546D01*
X62967210Y-28587545D01*
X62962403Y-28586391D01*
X62710000Y-28566526D01*
X62457597Y-28586391D01*
X62452790Y-28587545D01*
X62452784Y-28587546D01*
X62296032Y-28625179D01*
X62211409Y-28645495D01*
X62206838Y-28647388D01*
X62206836Y-28647389D01*
X61982072Y-28740489D01*
X61982068Y-28740491D01*
X61977498Y-28742384D01*
X61761624Y-28874672D01*
X61569102Y-29039102D01*
X61565894Y-29042858D01*
X61565887Y-29042865D01*
X61535810Y-29078080D01*
X61476359Y-29116889D01*
X61405365Y-29117395D01*
X61344190Y-29078080D01*
X61314113Y-29042865D01*
X61314106Y-29042858D01*
X61310898Y-29039102D01*
X61118376Y-28874672D01*
X60902502Y-28742384D01*
X60897932Y-28740491D01*
X60897928Y-28740489D01*
X60673164Y-28647389D01*
X60673162Y-28647388D01*
X60668591Y-28645495D01*
X60583968Y-28625179D01*
X60427216Y-28587546D01*
X60427210Y-28587545D01*
X60422403Y-28586391D01*
X60170000Y-28566526D01*
X59917597Y-28586391D01*
X59912790Y-28587545D01*
X59912784Y-28587546D01*
X59756032Y-28625179D01*
X59671409Y-28645495D01*
X59666838Y-28647388D01*
X59666836Y-28647389D01*
X59442072Y-28740489D01*
X59442068Y-28740491D01*
X59437498Y-28742384D01*
X59221624Y-28874672D01*
X59029102Y-29039102D01*
X59025894Y-29042858D01*
X59025887Y-29042865D01*
X58995810Y-29078080D01*
X58936359Y-29116889D01*
X58865365Y-29117395D01*
X58804190Y-29078080D01*
X58774113Y-29042865D01*
X58774106Y-29042858D01*
X58770898Y-29039102D01*
X58578376Y-28874672D01*
X58362502Y-28742384D01*
X58357932Y-28740491D01*
X58357928Y-28740489D01*
X58133164Y-28647389D01*
X58133162Y-28647388D01*
X58128591Y-28645495D01*
X58043968Y-28625179D01*
X57887216Y-28587546D01*
X57887210Y-28587545D01*
X57882403Y-28586391D01*
X57630000Y-28566526D01*
X57377597Y-28586391D01*
X57372790Y-28587545D01*
X57372784Y-28587546D01*
X57216032Y-28625179D01*
X57131409Y-28645495D01*
X57126838Y-28647388D01*
X57126836Y-28647389D01*
X56902072Y-28740489D01*
X56902068Y-28740491D01*
X56897498Y-28742384D01*
X56681624Y-28874672D01*
X56489102Y-29039102D01*
X56324672Y-29231624D01*
X56192384Y-29447498D01*
X56095495Y-29681409D01*
X56036391Y-29927597D01*
X56016526Y-30180000D01*
X25908500Y-30180000D01*
X25908500Y-26034500D01*
X25928502Y-25966379D01*
X25982158Y-25919886D01*
X26034500Y-25908500D01*
X100965500Y-25908500D01*
X101033621Y-25928502D01*
G37*
G04 #@! TD.AperFunction*
M02*
