G04 #@! TF.GenerationSoftware,KiCad,Pcbnew,8.0.6*
G04 #@! TF.CreationDate,2025-01-17T02:24:04-08:00*
G04 #@! TF.ProjectId,Constellation Stack V2.0,436f6e73-7465-46c6-9c61-74696f6e2053,rev?*
G04 #@! TF.SameCoordinates,Original*
G04 #@! TF.FileFunction,Soldermask,Bot*
G04 #@! TF.FilePolarity,Negative*
%FSLAX46Y46*%
G04 Gerber Fmt 4.6, Leading zero omitted, Abs format (unit mm)*
G04 Created by KiCad (PCBNEW 8.0.6) date 2025-01-17 02:24:04*
%MOMM*%
%LPD*%
G01*
G04 APERTURE LIST*
G04 Aperture macros list*
%AMFreePoly0*
4,1,19,0.500000,-0.750000,0.000000,-0.750000,0.000000,-0.744911,-0.071157,-0.744911,-0.207708,-0.704816,-0.327430,-0.627875,-0.420627,-0.520320,-0.479746,-0.390866,-0.500000,-0.250000,-0.500000,0.250000,-0.479746,0.390866,-0.420627,0.520320,-0.327430,0.627875,-0.207708,0.704816,-0.071157,0.744911,0.000000,0.744911,0.000000,0.750000,0.500000,0.750000,0.500000,-0.750000,0.500000,-0.750000,
$1*%
%AMFreePoly1*
4,1,19,0.000000,0.744911,0.071157,0.744911,0.207708,0.704816,0.327430,0.627875,0.420627,0.520320,0.479746,0.390866,0.500000,0.250000,0.500000,-0.250000,0.479746,-0.390866,0.420627,-0.520320,0.327430,-0.627875,0.207708,-0.704816,0.071157,-0.744911,0.000000,-0.744911,0.000000,-0.750000,-0.500000,-0.750000,-0.500000,0.750000,0.000000,0.750000,0.000000,0.744911,0.000000,0.744911,
$1*%
G04 Aperture macros list end*
%ADD10C,5.600000*%
%ADD11C,0.650000*%
%ADD12O,2.100000X1.000000*%
%ADD13O,1.600000X1.000000*%
%ADD14C,3.000000*%
%ADD15C,1.700000*%
%ADD16O,1.700000X1.700000*%
%ADD17R,1.700000X1.700000*%
%ADD18FreePoly0,0.000000*%
%ADD19FreePoly1,0.000000*%
G04 APERTURE END LIST*
D10*
X78740000Y-78740000D03*
D11*
X31815000Y-41560000D03*
X31815000Y-47340000D03*
D12*
X32315000Y-40130000D03*
D13*
X28135000Y-40130000D03*
D12*
X32315000Y-48770000D03*
D13*
X28135000Y-48770000D03*
D10*
X29210000Y-78740000D03*
X78740000Y-29210000D03*
X29210000Y-29210000D03*
D14*
X62860000Y-27980000D03*
X42870000Y-56080000D03*
X40175000Y-79490000D03*
X50370000Y-41190000D03*
X56580000Y-50380000D03*
X36200000Y-31870000D03*
X42180000Y-62470000D03*
X41410000Y-31850000D03*
X44600000Y-77610000D03*
D15*
X38100000Y-27940000D03*
D16*
X40640000Y-27940000D03*
D17*
X43179999Y-27940000D03*
D15*
X57150000Y-27940000D03*
D16*
X54610000Y-27940000D03*
D14*
X42140000Y-67850000D03*
X63246000Y-50038000D03*
X73725000Y-28350000D03*
X44510000Y-44590000D03*
X52240000Y-50310000D03*
X72500000Y-32375000D03*
D15*
X27940000Y-66040000D03*
D16*
X27940000Y-63500000D03*
X27940000Y-60960001D03*
X27940000Y-58420000D03*
D14*
X48220000Y-46710000D03*
D17*
X69850000Y-27940000D03*
D16*
X67310000Y-27940000D03*
D14*
X59850000Y-31710000D03*
D18*
X55425001Y-35292500D03*
D19*
X56724999Y-35292500D03*
D14*
X75280000Y-45110000D03*
X35890000Y-79490000D03*
X55690000Y-31880000D03*
D15*
X80010000Y-36830000D03*
D16*
X80010000Y-39370000D03*
X80010000Y-41910000D03*
X80010000Y-44450000D03*
X80010000Y-46990000D03*
X80010000Y-49530000D03*
X80010000Y-52070000D03*
X80010000Y-54610000D03*
X80010000Y-57150000D03*
X80010000Y-59690000D03*
X80010000Y-62230000D03*
X80010000Y-64770000D03*
X80010000Y-67310000D03*
D17*
X80010000Y-69850000D03*
M02*
