G04 #@! TF.GenerationSoftware,KiCad,Pcbnew,8.0.6*
G04 #@! TF.CreationDate,2025-01-17T02:24:04-08:00*
G04 #@! TF.ProjectId,Constellation Stack V2.0,436f6e73-7465-46c6-9c61-74696f6e2053,rev?*
G04 #@! TF.SameCoordinates,Original*
G04 #@! TF.FileFunction,Copper,L4,Bot*
G04 #@! TF.FilePolarity,Positive*
%FSLAX46Y46*%
G04 Gerber Fmt 4.6, Leading zero omitted, Abs format (unit mm)*
G04 Created by KiCad (PCBNEW 8.0.6) date 2025-01-17 02:24:04*
%MOMM*%
%LPD*%
G01*
G04 APERTURE LIST*
G04 Aperture macros list*
%AMFreePoly0*
4,1,19,0.500000,-0.750000,0.000000,-0.750000,0.000000,-0.744911,-0.071157,-0.744911,-0.207708,-0.704816,-0.327430,-0.627875,-0.420627,-0.520320,-0.479746,-0.390866,-0.500000,-0.250000,-0.500000,0.250000,-0.479746,0.390866,-0.420627,0.520320,-0.327430,0.627875,-0.207708,0.704816,-0.071157,0.744911,0.000000,0.744911,0.000000,0.750000,0.500000,0.750000,0.500000,-0.750000,0.500000,-0.750000,
$1*%
%AMFreePoly1*
4,1,19,0.000000,0.744911,0.071157,0.744911,0.207708,0.704816,0.327430,0.627875,0.420627,0.520320,0.479746,0.390866,0.500000,0.250000,0.500000,-0.250000,0.479746,-0.390866,0.420627,-0.520320,0.327430,-0.627875,0.207708,-0.704816,0.071157,-0.744911,0.000000,-0.744911,0.000000,-0.750000,-0.500000,-0.750000,-0.500000,0.750000,0.000000,0.750000,0.000000,0.744911,0.000000,0.744911,
$1*%
G04 Aperture macros list end*
G04 #@! TA.AperFunction,ComponentPad*
%ADD10C,5.600000*%
G04 #@! TD*
G04 #@! TA.AperFunction,ComponentPad*
%ADD11O,2.100000X1.000000*%
G04 #@! TD*
G04 #@! TA.AperFunction,ComponentPad*
%ADD12O,1.600000X1.000000*%
G04 #@! TD*
G04 #@! TA.AperFunction,ComponentPad*
%ADD13C,3.000000*%
G04 #@! TD*
G04 #@! TA.AperFunction,ComponentPad*
%ADD14C,1.700000*%
G04 #@! TD*
G04 #@! TA.AperFunction,ComponentPad*
%ADD15O,1.700000X1.700000*%
G04 #@! TD*
G04 #@! TA.AperFunction,ComponentPad*
%ADD16R,1.700000X1.700000*%
G04 #@! TD*
G04 #@! TA.AperFunction,SMDPad,CuDef*
%ADD17FreePoly0,0.000000*%
G04 #@! TD*
G04 #@! TA.AperFunction,SMDPad,CuDef*
%ADD18FreePoly1,0.000000*%
G04 #@! TD*
G04 #@! TA.AperFunction,ViaPad*
%ADD19C,1.000000*%
G04 #@! TD*
G04 #@! TA.AperFunction,ViaPad*
%ADD20C,0.700000*%
G04 #@! TD*
G04 #@! TA.AperFunction,Conductor*
%ADD21C,0.500000*%
G04 #@! TD*
G04 #@! TA.AperFunction,Conductor*
%ADD22C,0.300000*%
G04 #@! TD*
G04 APERTURE END LIST*
D10*
X78740000Y-78740000D03*
D11*
X32315000Y-40130000D03*
D12*
X28135000Y-40130000D03*
D11*
X32315000Y-48770000D03*
D12*
X28135000Y-48770000D03*
D10*
X29210000Y-78740000D03*
X78740000Y-29210000D03*
X29210000Y-29210000D03*
D13*
X62860000Y-27980000D03*
X42870000Y-56080000D03*
X40175000Y-79490000D03*
X50370000Y-41190000D03*
X56580000Y-50380000D03*
X36200000Y-31870000D03*
X42180000Y-62470000D03*
X41410000Y-31850000D03*
X44600000Y-77610000D03*
D14*
X38100000Y-27940000D03*
D15*
X40640000Y-27940000D03*
D16*
X43179999Y-27940000D03*
D14*
X57150000Y-27940000D03*
D15*
X54610000Y-27940000D03*
D13*
X42140000Y-67850000D03*
X63246000Y-50038000D03*
X73725000Y-28350000D03*
X44510000Y-44590000D03*
X52240000Y-50310000D03*
X72500000Y-32375000D03*
D14*
X27940000Y-66040000D03*
D15*
X27940000Y-63500000D03*
X27940000Y-60960001D03*
X27940000Y-58420000D03*
D13*
X48220000Y-46710000D03*
D16*
X69850000Y-27940000D03*
D15*
X67310000Y-27940000D03*
D13*
X59850000Y-31710000D03*
D17*
X55425001Y-35292500D03*
D18*
X56724999Y-35292500D03*
D13*
X75280000Y-45110000D03*
X35890000Y-79490000D03*
X55690000Y-31880000D03*
D14*
X80010000Y-36830000D03*
D15*
X80010000Y-39370000D03*
X80010000Y-41910000D03*
X80010000Y-44450000D03*
X80010000Y-46990000D03*
X80010000Y-49530000D03*
X80010000Y-52070000D03*
X80010000Y-54610000D03*
X80010000Y-57150000D03*
X80010000Y-59690000D03*
X80010000Y-62230000D03*
X80010000Y-64770000D03*
X80010000Y-67310000D03*
D16*
X80010000Y-69850000D03*
D19*
X52665578Y-79705467D03*
D20*
X33290000Y-67150000D03*
X73450000Y-70120000D03*
D19*
X36412500Y-64030000D03*
D20*
X30100000Y-65310000D03*
X30080000Y-59570000D03*
X71630000Y-45560000D03*
X35753750Y-49312500D03*
X80567500Y-33391362D03*
X31553744Y-64071773D03*
X38500000Y-55620000D03*
X43169999Y-48281593D03*
X48060000Y-70330000D03*
D19*
X38160000Y-60800000D03*
D20*
X35380000Y-56670000D03*
X33440000Y-53680000D03*
D19*
X56640579Y-79705467D03*
D20*
X36350000Y-69050000D03*
X43420000Y-73920000D03*
X40127500Y-46190000D03*
D19*
X51340579Y-79705467D03*
D20*
X36213750Y-45732500D03*
X28080000Y-34544000D03*
X46870000Y-27460001D03*
X61710000Y-81020000D03*
X55785000Y-48025000D03*
X73800000Y-39810000D03*
D19*
X53990579Y-79705467D03*
D20*
X64860000Y-56130000D03*
X60155000Y-65879998D03*
X60780000Y-41492501D03*
X58715000Y-58440000D03*
X58850000Y-34900000D03*
X67100000Y-32990000D03*
X60910000Y-71430000D03*
X42985000Y-42730000D03*
D19*
X55315578Y-79705467D03*
D20*
X74000000Y-55780000D03*
X63200000Y-35170000D03*
X74950000Y-53120000D03*
X65260000Y-46340000D03*
X74010000Y-55050000D03*
X67110000Y-33710000D03*
D19*
X34662499Y-64247525D03*
D20*
X63630000Y-81460000D03*
X38800000Y-53300000D03*
X71110000Y-47120000D03*
X57170000Y-71850000D03*
X64436031Y-39100001D03*
X34412559Y-60690221D03*
X37393750Y-48992500D03*
D19*
X32620000Y-76220000D03*
D20*
X31514365Y-60765555D03*
X35223750Y-41442500D03*
X55755000Y-65870000D03*
X41974999Y-36160000D03*
X54935000Y-41505000D03*
X56240000Y-44200000D03*
D19*
X36375889Y-61005000D03*
D20*
X68359999Y-38410001D03*
X33700000Y-57150000D03*
D19*
X69550000Y-53090000D03*
X32620000Y-74970000D03*
X68450000Y-51990000D03*
X43530000Y-72330000D03*
X68450000Y-53080000D03*
D20*
X41800000Y-73380000D03*
D19*
X69550000Y-54190000D03*
D20*
X32690000Y-34554000D03*
D19*
X69500000Y-51990000D03*
D20*
X37250000Y-67800000D03*
D19*
X68450000Y-54190000D03*
D20*
X52797500Y-58460000D03*
D19*
X64600000Y-78900000D03*
D20*
X41450000Y-42760000D03*
X57520000Y-48030000D03*
X35440000Y-67760000D03*
X35500000Y-57760000D03*
X61380000Y-74600000D03*
X55755000Y-59070000D03*
X56617475Y-55755025D03*
X54300000Y-35300000D03*
X51720000Y-64550000D03*
X49930000Y-69600000D03*
X59585000Y-54000000D03*
X60105000Y-60790000D03*
X45390000Y-50800000D03*
X57112500Y-52870000D03*
X44360000Y-53880000D03*
X59242500Y-56570000D03*
X58700000Y-74600000D03*
X66120000Y-35160000D03*
X56273892Y-71933637D03*
X62760000Y-71620000D03*
X57525000Y-34200000D03*
X41890000Y-74960000D03*
X48830000Y-75400000D03*
X57975000Y-73333637D03*
X58675000Y-72320000D03*
D21*
X57540000Y-48050000D02*
X57520000Y-48030000D01*
X39406141Y-56376141D02*
X39420000Y-56390000D01*
X61318000Y-50038000D02*
X59330000Y-48050000D01*
X43326371Y-41940000D02*
X47590000Y-41940000D01*
X78807919Y-36830000D02*
X65599919Y-50038000D01*
X41450000Y-42760000D02*
X41450000Y-54332283D01*
X52875000Y-47225000D02*
X56715000Y-47225000D01*
X65599919Y-50038000D02*
X63246000Y-50038000D01*
X80010000Y-36830000D02*
X78807919Y-36830000D01*
X43316371Y-41930000D02*
X43326371Y-41940000D01*
X41450000Y-42760000D02*
X42280000Y-41930000D01*
X42280000Y-41930000D02*
X43316371Y-41930000D01*
X39420000Y-63780000D02*
X35440000Y-67760000D01*
X39420000Y-56390000D02*
X39420000Y-63780000D01*
X41450000Y-54332283D02*
X38022283Y-57760000D01*
X38022283Y-57760000D02*
X35500000Y-57760000D01*
X63246000Y-50038000D02*
X61318000Y-50038000D01*
X59330000Y-48050000D02*
X57540000Y-48050000D01*
X56715000Y-47225000D02*
X57520000Y-48030000D01*
X47590000Y-41940000D02*
X52875000Y-47225000D01*
D22*
X57640000Y-63110000D02*
X55755000Y-61225000D01*
X56617475Y-55755025D02*
X56617475Y-56717525D01*
X55755000Y-57580000D02*
X55755000Y-59070000D01*
X56617475Y-56717525D02*
X55755000Y-57580000D01*
X61380000Y-74600000D02*
X63490000Y-74600000D01*
X63020000Y-63110000D02*
X57640000Y-63110000D01*
X64430000Y-73660000D02*
X64430000Y-64520000D01*
X63490000Y-74600000D02*
X64430000Y-73660000D01*
X55755000Y-61225000D02*
X55755000Y-59070000D01*
X64430000Y-64520000D02*
X63020000Y-63110000D01*
X54307500Y-35292500D02*
X55425001Y-35292500D01*
X54300000Y-35300000D02*
X54307500Y-35292500D01*
X60105000Y-54520000D02*
X59585000Y-54000000D01*
X49930000Y-65490000D02*
X49930000Y-69600000D01*
X50870000Y-64550000D02*
X49930000Y-65490000D01*
X60105000Y-60790000D02*
X60105000Y-54520000D01*
X51720000Y-64550000D02*
X50870000Y-64550000D01*
X57112500Y-52870000D02*
X47460000Y-52870000D01*
X47460000Y-52870000D02*
X45390000Y-50800000D01*
X56552500Y-53880000D02*
X59242500Y-56570000D01*
X44360000Y-53880000D02*
X56552500Y-53880000D01*
X78960000Y-53320000D02*
X80810000Y-53320000D01*
X64850000Y-75430000D02*
X66460000Y-73820000D01*
X58700000Y-74600000D02*
X58700000Y-75170000D01*
X81550000Y-52580000D02*
X81550000Y-36040000D01*
X66460000Y-69730000D02*
X78440000Y-57750000D01*
X81550000Y-36040000D02*
X80690000Y-35180000D01*
X78440000Y-53840000D02*
X78960000Y-53320000D01*
X66460000Y-73820000D02*
X66460000Y-69730000D01*
X80810000Y-53320000D02*
X81550000Y-52580000D01*
X66140000Y-35180000D02*
X66120000Y-35160000D01*
X80690000Y-35180000D02*
X66140000Y-35180000D01*
X58700000Y-75170000D02*
X58960000Y-75430000D01*
X58960000Y-75430000D02*
X64850000Y-75430000D01*
X78440000Y-57750000D02*
X78440000Y-53840000D01*
X56880050Y-71150000D02*
X59020000Y-71150000D01*
X59020000Y-71150000D02*
X60000000Y-72130000D01*
X60000000Y-72130000D02*
X62250000Y-72130000D01*
X56273892Y-71756158D02*
X56880050Y-71150000D01*
X56273892Y-71933637D02*
X56273892Y-71756158D01*
X62250000Y-72130000D02*
X62760000Y-71620000D01*
X57525000Y-34492499D02*
X56724999Y-35292500D01*
X57525000Y-34200000D02*
X57525000Y-34492499D01*
X41890000Y-74960000D02*
X48390000Y-74960000D01*
X48390000Y-74960000D02*
X48830000Y-75400000D01*
X46770000Y-71167107D02*
X46770000Y-67060000D01*
X57775000Y-73133637D02*
X48736530Y-73133637D01*
X57975000Y-73333637D02*
X57775000Y-73133637D01*
X48736530Y-73133637D02*
X46770000Y-71167107D01*
X46770000Y-67060000D02*
X42180000Y-62470000D01*
X58361363Y-72633637D02*
X48943637Y-72633637D01*
X48943637Y-72633637D02*
X47280000Y-70970000D01*
X58675000Y-72320000D02*
X58361363Y-72633637D01*
X42870000Y-56470000D02*
X42870000Y-56080000D01*
X47280000Y-60880000D02*
X42870000Y-56470000D01*
X47280000Y-70970000D02*
X47280000Y-60880000D01*
M02*
