G04 #@! TF.GenerationSoftware,KiCad,Pcbnew,7.0.7*
G04 #@! TF.CreationDate,2023-10-17T18:54:51-07:00*
G04 #@! TF.ProjectId,Load Cell Ground Systems,4c6f6164-2043-4656-9c6c-2047726f756e,rev?*
G04 #@! TF.SameCoordinates,Original*
G04 #@! TF.FileFunction,Copper,L1,Top*
G04 #@! TF.FilePolarity,Positive*
%FSLAX46Y46*%
G04 Gerber Fmt 4.6, Leading zero omitted, Abs format (unit mm)*
G04 Created by KiCad (PCBNEW 7.0.7) date 2023-10-17 18:54:51*
%MOMM*%
%LPD*%
G01*
G04 APERTURE LIST*
G04 #@! TA.AperFunction,ComponentPad*
%ADD10R,1.800000X1.800000*%
G04 #@! TD*
G04 #@! TA.AperFunction,ComponentPad*
%ADD11C,1.800000*%
G04 #@! TD*
G04 #@! TA.AperFunction,ComponentPad*
%ADD12C,1.400000*%
G04 #@! TD*
G04 #@! TA.AperFunction,ComponentPad*
%ADD13O,1.400000X1.400000*%
G04 #@! TD*
G04 #@! TA.AperFunction,ComponentPad*
%ADD14R,1.600000X1.600000*%
G04 #@! TD*
G04 #@! TA.AperFunction,ComponentPad*
%ADD15C,1.600000*%
G04 #@! TD*
G04 #@! TA.AperFunction,ComponentPad*
%ADD16R,1.200000X1.200000*%
G04 #@! TD*
G04 #@! TA.AperFunction,ComponentPad*
%ADD17C,1.200000*%
G04 #@! TD*
G04 #@! TA.AperFunction,ComponentPad*
%ADD18R,1.700000X1.700000*%
G04 #@! TD*
G04 #@! TA.AperFunction,ComponentPad*
%ADD19O,1.700000X1.700000*%
G04 #@! TD*
G04 #@! TA.AperFunction,Conductor*
%ADD20C,1.000000*%
G04 #@! TD*
G04 APERTURE END LIST*
D10*
X39370000Y-60790000D03*
D11*
X44450000Y-60790000D03*
X39370000Y-63330000D03*
X44450000Y-63330000D03*
X39370000Y-65870000D03*
X44450000Y-65870000D03*
X39370000Y-68410000D03*
X44450000Y-68410000D03*
X39370000Y-70950000D03*
X44450000Y-70950000D03*
X39370000Y-73490000D03*
X44450000Y-73490000D03*
X39370000Y-76030000D03*
X44450000Y-76030000D03*
X39370000Y-78570000D03*
X44450000Y-78570000D03*
D12*
X48890000Y-73530000D03*
D13*
X48890000Y-68450000D03*
D14*
X34850000Y-47760000D03*
D15*
X37390000Y-47760000D03*
X39930000Y-47760000D03*
X42470000Y-47760000D03*
X45010000Y-47760000D03*
X47550000Y-47760000D03*
X50090000Y-47760000D03*
X52630000Y-47760000D03*
X55170000Y-47760000D03*
X57710000Y-47760000D03*
X60250000Y-47760000D03*
X62790000Y-47760000D03*
X65330000Y-47760000D03*
X67870000Y-47760000D03*
X70410000Y-47760000D03*
X72950000Y-47760000D03*
X72950000Y-27440000D03*
X70410000Y-27440000D03*
X67870000Y-27440000D03*
X65330000Y-27440000D03*
X62790000Y-27440000D03*
X60250000Y-27440000D03*
X57710000Y-27440000D03*
X55170000Y-27440000D03*
X52630000Y-27440000D03*
X50090000Y-27440000D03*
X47550000Y-27440000D03*
X45010000Y-27440000D03*
D12*
X61910000Y-61260000D03*
D13*
X61910000Y-66340000D03*
D16*
X59660000Y-73380000D03*
D17*
X59660000Y-70840000D03*
X52040000Y-70840000D03*
X52040000Y-73380000D03*
D18*
X37915000Y-53840000D03*
D19*
X37915000Y-56380000D03*
D12*
X48910000Y-65900000D03*
D13*
X48910000Y-60820000D03*
D18*
X73160000Y-55750000D03*
D19*
X73160000Y-58290000D03*
X73160000Y-60830000D03*
X73160000Y-63370000D03*
X73160000Y-65910000D03*
X73160000Y-68450000D03*
X73160000Y-70990000D03*
X73160000Y-73530000D03*
X73160000Y-76070000D03*
X73160000Y-78610000D03*
D20*
X48910000Y-65900000D02*
X48910000Y-67110000D01*
X50430000Y-67110000D02*
X48910000Y-67110000D01*
X48910000Y-67110000D02*
X48910000Y-68430000D01*
X48910000Y-68430000D02*
X48890000Y-68450000D01*
X51760000Y-65780000D02*
X50430000Y-67110000D01*
X45010000Y-49980000D02*
X51760000Y-56730000D01*
X45010000Y-47760000D02*
X45010000Y-49980000D01*
X51760000Y-56730000D02*
X51760000Y-65780000D01*
X74080000Y-63370000D02*
X73160000Y-63370000D01*
X80650000Y-33300000D02*
X80650000Y-56800000D01*
X74790000Y-27440000D02*
X80650000Y-33300000D01*
X80650000Y-56800000D02*
X74080000Y-63370000D01*
X72950000Y-27440000D02*
X74790000Y-27440000D01*
X77850000Y-56140000D02*
X73160000Y-60830000D01*
X70410000Y-27440000D02*
X70420000Y-27450000D01*
X77850000Y-45710000D02*
X77850000Y-56140000D01*
X70420000Y-38280000D02*
X77850000Y-45710000D01*
X70420000Y-27450000D02*
X70420000Y-38280000D01*
X57680000Y-52790000D02*
X61910000Y-57020000D01*
X57710000Y-47760000D02*
X57680000Y-47790000D01*
X61910000Y-57020000D02*
X61910000Y-61260000D01*
X57680000Y-47790000D02*
X57680000Y-52790000D01*
X70970000Y-42790000D02*
X75340000Y-47160000D01*
X50090000Y-27440000D02*
X50090000Y-30680000D01*
X75340000Y-53570000D02*
X73160000Y-55750000D01*
X62200000Y-42790000D02*
X70970000Y-42790000D01*
X50090000Y-30680000D02*
X62200000Y-42790000D01*
X75340000Y-47160000D02*
X75340000Y-53570000D01*
X61910000Y-71840000D02*
X61910000Y-66340000D01*
X59660000Y-73380000D02*
X60370000Y-73380000D01*
X60370000Y-73380000D02*
X61910000Y-71840000D01*
X39370000Y-73490000D02*
X44450000Y-73490000D01*
X51890000Y-73530000D02*
X52040000Y-73380000D01*
X48850000Y-73490000D02*
X48890000Y-73530000D01*
X44450000Y-73490000D02*
X48850000Y-73490000D01*
X48890000Y-73530000D02*
X51890000Y-73530000D01*
X39370000Y-76030000D02*
X44450000Y-76030000D01*
X44450000Y-76030000D02*
X63280000Y-76030000D01*
X68890000Y-70990000D02*
X73160000Y-70990000D01*
X63280000Y-76030000D02*
X68320000Y-70990000D01*
X68320000Y-70990000D02*
X68890000Y-70990000D01*
X65840000Y-78570000D02*
X44450000Y-78570000D01*
X73160000Y-73530000D02*
X70880000Y-73530000D01*
X39370000Y-78570000D02*
X44450000Y-78570000D01*
X67140000Y-77270000D02*
X65840000Y-78570000D01*
X70880000Y-73530000D02*
X67140000Y-77270000D01*
G04 #@! TA.AperFunction,Conductor*
G36*
X44973130Y-54669244D02*
G01*
X44995640Y-54687537D01*
X45138611Y-54834640D01*
X46624263Y-56363231D01*
X46656871Y-56425024D01*
X46659332Y-56451267D01*
X46521591Y-67037719D01*
X46501035Y-67104497D01*
X46447641Y-67149561D01*
X46397709Y-67160106D01*
X45116529Y-67161225D01*
X45057405Y-67146280D01*
X45014515Y-67123069D01*
X45014495Y-67123061D01*
X44794984Y-67047702D01*
X44623281Y-67019050D01*
X44566049Y-67009500D01*
X44333951Y-67009500D01*
X44288164Y-67017140D01*
X44105015Y-67047702D01*
X43885505Y-67123061D01*
X43885489Y-67123067D01*
X43840439Y-67147447D01*
X43781532Y-67162391D01*
X40044713Y-67165654D01*
X39985588Y-67150709D01*
X39934510Y-67123067D01*
X39934498Y-67123062D01*
X39714984Y-67047702D01*
X39543281Y-67019050D01*
X39486049Y-67009500D01*
X39253951Y-67009500D01*
X39208164Y-67017140D01*
X39025015Y-67047702D01*
X38805504Y-67123061D01*
X38805490Y-67123067D01*
X38752230Y-67151890D01*
X38693321Y-67166835D01*
X35192721Y-67169892D01*
X35125665Y-67150266D01*
X35079864Y-67097502D01*
X35068621Y-67047285D01*
X35068514Y-67037719D01*
X34931400Y-54834638D01*
X34950330Y-54767384D01*
X35002617Y-54721038D01*
X35054642Y-54709249D01*
X36449219Y-54700857D01*
X36516371Y-54720137D01*
X36562443Y-54772665D01*
X36570636Y-54796330D01*
X36570908Y-54797481D01*
X36621202Y-54932328D01*
X36621206Y-54932335D01*
X36707452Y-55047544D01*
X36707455Y-55047547D01*
X36822664Y-55133793D01*
X36822671Y-55133797D01*
X36957517Y-55184091D01*
X36957516Y-55184091D01*
X36964444Y-55184835D01*
X37017127Y-55190500D01*
X38812872Y-55190499D01*
X38872483Y-55184091D01*
X39007331Y-55133796D01*
X39122546Y-55047546D01*
X39208796Y-54932331D01*
X39259091Y-54797483D01*
X39259471Y-54793948D01*
X39260531Y-54791388D01*
X39260874Y-54789938D01*
X39261109Y-54789993D01*
X39286207Y-54729399D01*
X39343599Y-54689550D01*
X39382004Y-54683207D01*
X44900000Y-54650000D01*
X44900001Y-54649998D01*
X44905974Y-54649963D01*
X44973130Y-54669244D01*
G37*
G04 #@! TD.AperFunction*
M02*
