G04 #@! TF.GenerationSoftware,KiCad,Pcbnew,7.0.7*
G04 #@! TF.CreationDate,2023-10-17T18:54:52-07:00*
G04 #@! TF.ProjectId,Load Cell Ground Systems,4c6f6164-2043-4656-9c6c-2047726f756e,rev?*
G04 #@! TF.SameCoordinates,Original*
G04 #@! TF.FileFunction,Copper,L2,Bot*
G04 #@! TF.FilePolarity,Positive*
%FSLAX46Y46*%
G04 Gerber Fmt 4.6, Leading zero omitted, Abs format (unit mm)*
G04 Created by KiCad (PCBNEW 7.0.7) date 2023-10-17 18:54:52*
%MOMM*%
%LPD*%
G01*
G04 APERTURE LIST*
G04 #@! TA.AperFunction,ComponentPad*
%ADD10R,1.800000X1.800000*%
G04 #@! TD*
G04 #@! TA.AperFunction,ComponentPad*
%ADD11C,1.800000*%
G04 #@! TD*
G04 #@! TA.AperFunction,ComponentPad*
%ADD12C,1.400000*%
G04 #@! TD*
G04 #@! TA.AperFunction,ComponentPad*
%ADD13O,1.400000X1.400000*%
G04 #@! TD*
G04 #@! TA.AperFunction,ComponentPad*
%ADD14R,1.600000X1.600000*%
G04 #@! TD*
G04 #@! TA.AperFunction,ComponentPad*
%ADD15C,1.600000*%
G04 #@! TD*
G04 #@! TA.AperFunction,ComponentPad*
%ADD16R,1.200000X1.200000*%
G04 #@! TD*
G04 #@! TA.AperFunction,ComponentPad*
%ADD17C,1.200000*%
G04 #@! TD*
G04 #@! TA.AperFunction,ComponentPad*
%ADD18R,1.700000X1.700000*%
G04 #@! TD*
G04 #@! TA.AperFunction,ComponentPad*
%ADD19O,1.700000X1.700000*%
G04 #@! TD*
G04 APERTURE END LIST*
D10*
X39370000Y-60790000D03*
D11*
X44450000Y-60790000D03*
X39370000Y-63330000D03*
X44450000Y-63330000D03*
X39370000Y-65870000D03*
X44450000Y-65870000D03*
X39370000Y-68410000D03*
X44450000Y-68410000D03*
X39370000Y-70950000D03*
X44450000Y-70950000D03*
X39370000Y-73490000D03*
X44450000Y-73490000D03*
X39370000Y-76030000D03*
X44450000Y-76030000D03*
X39370000Y-78570000D03*
X44450000Y-78570000D03*
D12*
X48890000Y-73530000D03*
D13*
X48890000Y-68450000D03*
D14*
X34850000Y-47760000D03*
D15*
X37390000Y-47760000D03*
X39930000Y-47760000D03*
X42470000Y-47760000D03*
X45010000Y-47760000D03*
X47550000Y-47760000D03*
X50090000Y-47760000D03*
X52630000Y-47760000D03*
X55170000Y-47760000D03*
X57710000Y-47760000D03*
X60250000Y-47760000D03*
X62790000Y-47760000D03*
X65330000Y-47760000D03*
X67870000Y-47760000D03*
X70410000Y-47760000D03*
X72950000Y-47760000D03*
X72950000Y-27440000D03*
X70410000Y-27440000D03*
X67870000Y-27440000D03*
X65330000Y-27440000D03*
X62790000Y-27440000D03*
X60250000Y-27440000D03*
X57710000Y-27440000D03*
X55170000Y-27440000D03*
X52630000Y-27440000D03*
X50090000Y-27440000D03*
X47550000Y-27440000D03*
X45010000Y-27440000D03*
D12*
X61910000Y-61260000D03*
D13*
X61910000Y-66340000D03*
D16*
X59660000Y-73380000D03*
D17*
X59660000Y-70840000D03*
X52040000Y-70840000D03*
X52040000Y-73380000D03*
D18*
X37915000Y-53840000D03*
D19*
X37915000Y-56380000D03*
D12*
X48910000Y-65900000D03*
D13*
X48910000Y-60820000D03*
D18*
X73160000Y-55750000D03*
D19*
X73160000Y-58290000D03*
X73160000Y-60830000D03*
X73160000Y-63370000D03*
X73160000Y-65910000D03*
X73160000Y-68450000D03*
X73160000Y-70990000D03*
X73160000Y-73530000D03*
X73160000Y-76070000D03*
X73160000Y-78610000D03*
G04 #@! TA.AperFunction,Conductor*
G36*
X82425526Y-25409972D02*
G01*
X82492558Y-25429667D01*
X82538303Y-25482479D01*
X82549500Y-25533971D01*
X82549500Y-82425500D01*
X82529815Y-82492539D01*
X82477011Y-82538294D01*
X82425500Y-82549500D01*
X62566523Y-82549500D01*
X25524435Y-82530074D01*
X25457406Y-82510354D01*
X25411679Y-82457526D01*
X25400500Y-82406074D01*
X25400500Y-78570006D01*
X37964700Y-78570006D01*
X37983864Y-78801297D01*
X37983866Y-78801308D01*
X38040842Y-79026300D01*
X38134075Y-79238848D01*
X38261016Y-79433147D01*
X38261019Y-79433151D01*
X38261021Y-79433153D01*
X38418216Y-79603913D01*
X38418219Y-79603915D01*
X38418222Y-79603918D01*
X38601365Y-79746464D01*
X38601371Y-79746468D01*
X38601374Y-79746470D01*
X38805497Y-79856936D01*
X38884055Y-79883905D01*
X39025015Y-79932297D01*
X39025017Y-79932297D01*
X39025019Y-79932298D01*
X39253951Y-79970500D01*
X39253952Y-79970500D01*
X39486048Y-79970500D01*
X39486049Y-79970500D01*
X39714981Y-79932298D01*
X39934503Y-79856936D01*
X40138626Y-79746470D01*
X40321784Y-79603913D01*
X40478979Y-79433153D01*
X40605924Y-79238849D01*
X40699157Y-79026300D01*
X40756134Y-78801305D01*
X40775300Y-78570006D01*
X43044700Y-78570006D01*
X43063864Y-78801297D01*
X43063866Y-78801308D01*
X43120842Y-79026300D01*
X43214075Y-79238848D01*
X43341016Y-79433147D01*
X43341019Y-79433151D01*
X43341021Y-79433153D01*
X43498216Y-79603913D01*
X43498219Y-79603915D01*
X43498222Y-79603918D01*
X43681365Y-79746464D01*
X43681371Y-79746468D01*
X43681374Y-79746470D01*
X43885497Y-79856936D01*
X43964055Y-79883905D01*
X44105015Y-79932297D01*
X44105017Y-79932297D01*
X44105019Y-79932298D01*
X44333951Y-79970500D01*
X44333952Y-79970500D01*
X44566048Y-79970500D01*
X44566049Y-79970500D01*
X44794981Y-79932298D01*
X45014503Y-79856936D01*
X45218626Y-79746470D01*
X45401784Y-79603913D01*
X45558979Y-79433153D01*
X45685924Y-79238849D01*
X45779157Y-79026300D01*
X45836134Y-78801305D01*
X45851986Y-78610000D01*
X71804341Y-78610000D01*
X71824936Y-78845403D01*
X71824938Y-78845413D01*
X71886094Y-79073655D01*
X71886096Y-79073659D01*
X71886097Y-79073663D01*
X71963124Y-79238848D01*
X71985965Y-79287830D01*
X71985967Y-79287834D01*
X72087717Y-79433147D01*
X72121505Y-79481401D01*
X72288599Y-79648495D01*
X72385384Y-79716264D01*
X72482165Y-79784032D01*
X72482167Y-79784033D01*
X72482170Y-79784035D01*
X72696337Y-79883903D01*
X72924592Y-79945063D01*
X73112918Y-79961539D01*
X73159999Y-79965659D01*
X73160000Y-79965659D01*
X73160001Y-79965659D01*
X73199234Y-79962226D01*
X73395408Y-79945063D01*
X73623663Y-79883903D01*
X73837830Y-79784035D01*
X74031401Y-79648495D01*
X74198495Y-79481401D01*
X74334035Y-79287830D01*
X74433903Y-79073663D01*
X74495063Y-78845408D01*
X74515659Y-78610000D01*
X74495063Y-78374592D01*
X74433903Y-78146337D01*
X74334035Y-77932171D01*
X74297515Y-77880014D01*
X74198494Y-77738597D01*
X74031402Y-77571506D01*
X74031396Y-77571501D01*
X73845842Y-77441575D01*
X73802217Y-77386998D01*
X73795023Y-77317500D01*
X73826546Y-77255145D01*
X73845842Y-77238425D01*
X73948447Y-77166580D01*
X74031401Y-77108495D01*
X74198495Y-76941401D01*
X74334035Y-76747830D01*
X74433903Y-76533663D01*
X74495063Y-76305408D01*
X74498357Y-76267763D01*
X76885787Y-76267763D01*
X76915413Y-76537013D01*
X76915415Y-76537024D01*
X76957722Y-76698849D01*
X76983928Y-76799088D01*
X77089870Y-77048390D01*
X77126552Y-77108495D01*
X77230979Y-77279605D01*
X77230986Y-77279615D01*
X77404253Y-77487819D01*
X77404259Y-77487824D01*
X77458121Y-77536084D01*
X77605998Y-77668582D01*
X77831910Y-77818044D01*
X78077176Y-77933020D01*
X78077183Y-77933022D01*
X78077185Y-77933023D01*
X78336557Y-78011057D01*
X78336564Y-78011058D01*
X78336569Y-78011060D01*
X78604561Y-78050500D01*
X78604566Y-78050500D01*
X78807636Y-78050500D01*
X78859133Y-78046730D01*
X79010156Y-78035677D01*
X79122758Y-78010593D01*
X79274546Y-77976782D01*
X79274548Y-77976781D01*
X79274553Y-77976780D01*
X79527558Y-77880014D01*
X79763777Y-77747441D01*
X79978177Y-77581888D01*
X80166186Y-77386881D01*
X80323799Y-77166579D01*
X80397787Y-77022669D01*
X80447649Y-76925690D01*
X80447651Y-76925684D01*
X80447656Y-76925675D01*
X80535118Y-76669305D01*
X80584319Y-76402933D01*
X80594212Y-76132235D01*
X80564586Y-75862982D01*
X80496072Y-75600912D01*
X80390130Y-75351610D01*
X80249018Y-75120390D01*
X80247845Y-75118981D01*
X80075746Y-74912180D01*
X80075740Y-74912175D01*
X79874002Y-74731418D01*
X79648092Y-74581957D01*
X79619371Y-74568493D01*
X79402824Y-74466980D01*
X79402819Y-74466978D01*
X79402814Y-74466976D01*
X79143442Y-74388942D01*
X79143428Y-74388939D01*
X79027791Y-74371921D01*
X78875439Y-74349500D01*
X78672369Y-74349500D01*
X78672364Y-74349500D01*
X78469844Y-74364323D01*
X78469831Y-74364325D01*
X78205453Y-74423217D01*
X78205446Y-74423220D01*
X77952439Y-74519987D01*
X77716226Y-74652557D01*
X77716224Y-74652558D01*
X77716223Y-74652559D01*
X77668231Y-74689617D01*
X77501822Y-74818112D01*
X77313822Y-75013109D01*
X77313816Y-75013116D01*
X77156202Y-75233419D01*
X77156199Y-75233424D01*
X77032350Y-75474309D01*
X77032343Y-75474327D01*
X76944884Y-75730685D01*
X76944881Y-75730699D01*
X76895681Y-75997068D01*
X76895680Y-75997075D01*
X76885787Y-76267763D01*
X74498357Y-76267763D01*
X74515659Y-76070000D01*
X74495063Y-75834592D01*
X74433903Y-75606337D01*
X74334035Y-75392171D01*
X74222877Y-75233419D01*
X74198494Y-75198597D01*
X74031402Y-75031506D01*
X74031396Y-75031501D01*
X73845842Y-74901575D01*
X73802217Y-74846998D01*
X73795023Y-74777500D01*
X73826546Y-74715145D01*
X73845842Y-74698425D01*
X74012175Y-74581957D01*
X74031401Y-74568495D01*
X74198495Y-74401401D01*
X74334035Y-74207830D01*
X74433903Y-73993663D01*
X74495063Y-73765408D01*
X74515659Y-73530000D01*
X74495063Y-73294592D01*
X74433903Y-73066337D01*
X74334035Y-72852171D01*
X74249986Y-72732135D01*
X74198494Y-72658597D01*
X74031402Y-72491506D01*
X74031396Y-72491501D01*
X73845842Y-72361575D01*
X73802217Y-72306998D01*
X73795023Y-72237500D01*
X73826546Y-72175145D01*
X73845842Y-72158425D01*
X73944277Y-72089500D01*
X74031401Y-72028495D01*
X74198495Y-71861401D01*
X74334035Y-71667830D01*
X74433903Y-71453663D01*
X74495063Y-71225408D01*
X74515659Y-70990000D01*
X74495063Y-70754592D01*
X74433903Y-70526337D01*
X74334035Y-70312171D01*
X74327320Y-70302580D01*
X74198494Y-70118597D01*
X74031402Y-69951506D01*
X74031396Y-69951501D01*
X73845842Y-69821575D01*
X73802217Y-69766998D01*
X73795023Y-69697500D01*
X73826546Y-69635145D01*
X73845842Y-69618425D01*
X73973204Y-69529245D01*
X74031401Y-69488495D01*
X74198495Y-69321401D01*
X74334035Y-69127830D01*
X74433903Y-68913663D01*
X74495063Y-68685408D01*
X74515659Y-68450000D01*
X74495063Y-68214592D01*
X74433903Y-67986337D01*
X74334035Y-67772171D01*
X74303520Y-67728590D01*
X74198494Y-67578597D01*
X74031402Y-67411506D01*
X74031396Y-67411501D01*
X73845842Y-67281575D01*
X73802217Y-67226998D01*
X73795023Y-67157500D01*
X73826546Y-67095145D01*
X73845842Y-67078425D01*
X73897202Y-67042462D01*
X74031401Y-66948495D01*
X74198495Y-66781401D01*
X74334035Y-66587830D01*
X74433903Y-66373663D01*
X74495063Y-66145408D01*
X74515659Y-65910000D01*
X74495063Y-65674592D01*
X74433903Y-65446337D01*
X74334035Y-65232171D01*
X74297773Y-65180382D01*
X74198494Y-65038597D01*
X74031402Y-64871506D01*
X74031396Y-64871501D01*
X73845842Y-64741575D01*
X73802217Y-64686998D01*
X73795023Y-64617500D01*
X73826546Y-64555145D01*
X73845842Y-64538425D01*
X73897655Y-64502145D01*
X74031401Y-64408495D01*
X74198495Y-64241401D01*
X74334035Y-64047830D01*
X74433903Y-63833663D01*
X74495063Y-63605408D01*
X74515659Y-63370000D01*
X74495063Y-63134592D01*
X74433903Y-62906337D01*
X74334035Y-62692171D01*
X74198495Y-62498599D01*
X74198494Y-62498597D01*
X74031402Y-62331506D01*
X74031396Y-62331501D01*
X73845842Y-62201575D01*
X73802217Y-62146998D01*
X73795023Y-62077500D01*
X73826546Y-62015145D01*
X73845842Y-61998425D01*
X73940238Y-61932328D01*
X74031401Y-61868495D01*
X74198495Y-61701401D01*
X74334035Y-61507830D01*
X74433903Y-61293663D01*
X74495063Y-61065408D01*
X74515659Y-60830000D01*
X74495063Y-60594592D01*
X74433903Y-60366337D01*
X74334035Y-60152171D01*
X74297773Y-60100382D01*
X74198494Y-59958597D01*
X74031402Y-59791506D01*
X74031401Y-59791505D01*
X73845405Y-59661269D01*
X73801781Y-59606692D01*
X73794588Y-59537193D01*
X73826110Y-59474839D01*
X73845405Y-59458119D01*
X74031082Y-59328105D01*
X74198105Y-59161082D01*
X74333600Y-58967578D01*
X74433429Y-58753492D01*
X74433432Y-58753486D01*
X74490636Y-58540000D01*
X73773347Y-58540000D01*
X73706308Y-58520315D01*
X73660553Y-58467511D01*
X73650609Y-58398353D01*
X73654369Y-58381067D01*
X73660000Y-58361888D01*
X73660000Y-58218111D01*
X73654369Y-58198933D01*
X73654370Y-58129064D01*
X73692145Y-58070286D01*
X73755701Y-58041262D01*
X73773347Y-58040000D01*
X74490636Y-58040000D01*
X74490635Y-58039999D01*
X74433432Y-57826513D01*
X74433429Y-57826507D01*
X74333600Y-57612422D01*
X74333599Y-57612420D01*
X74198113Y-57418926D01*
X74198108Y-57418920D01*
X74076053Y-57296865D01*
X74042568Y-57235542D01*
X74047552Y-57165850D01*
X74089424Y-57109917D01*
X74120400Y-57093002D01*
X74252331Y-57043796D01*
X74367546Y-56957546D01*
X74453796Y-56842331D01*
X74504091Y-56707483D01*
X74510500Y-56647873D01*
X74510499Y-54852128D01*
X74504091Y-54792517D01*
X74483699Y-54737844D01*
X74453797Y-54657671D01*
X74453793Y-54657664D01*
X74367547Y-54542455D01*
X74367544Y-54542452D01*
X74252335Y-54456206D01*
X74252328Y-54456202D01*
X74117482Y-54405908D01*
X74117483Y-54405908D01*
X74057883Y-54399501D01*
X74057881Y-54399500D01*
X74057873Y-54399500D01*
X74057864Y-54399500D01*
X72262129Y-54399500D01*
X72262123Y-54399501D01*
X72202516Y-54405908D01*
X72067671Y-54456202D01*
X72067664Y-54456206D01*
X71952455Y-54542452D01*
X71952452Y-54542455D01*
X71866206Y-54657664D01*
X71866202Y-54657671D01*
X71815908Y-54792517D01*
X71809501Y-54852116D01*
X71809501Y-54852123D01*
X71809500Y-54852135D01*
X71809500Y-56647870D01*
X71809501Y-56647876D01*
X71815908Y-56707483D01*
X71866202Y-56842328D01*
X71866206Y-56842335D01*
X71952452Y-56957544D01*
X71952455Y-56957547D01*
X72067664Y-57043793D01*
X72067671Y-57043797D01*
X72067674Y-57043798D01*
X72199598Y-57093002D01*
X72255531Y-57134873D01*
X72279949Y-57200337D01*
X72265098Y-57268610D01*
X72243947Y-57296865D01*
X72121886Y-57418926D01*
X71986400Y-57612420D01*
X71986399Y-57612422D01*
X71886570Y-57826507D01*
X71886567Y-57826513D01*
X71829364Y-58039999D01*
X71829364Y-58040000D01*
X72546653Y-58040000D01*
X72613692Y-58059685D01*
X72659447Y-58112489D01*
X72669391Y-58181647D01*
X72665631Y-58198933D01*
X72660000Y-58218111D01*
X72660000Y-58361888D01*
X72665631Y-58381067D01*
X72665630Y-58450936D01*
X72627855Y-58509714D01*
X72564299Y-58538738D01*
X72546653Y-58540000D01*
X71829364Y-58540000D01*
X71886567Y-58753486D01*
X71886570Y-58753492D01*
X71986399Y-58967578D01*
X72121894Y-59161082D01*
X72288917Y-59328105D01*
X72474595Y-59458119D01*
X72518219Y-59512696D01*
X72525412Y-59582195D01*
X72493890Y-59644549D01*
X72474595Y-59661269D01*
X72288594Y-59791508D01*
X72121505Y-59958597D01*
X71985965Y-60152169D01*
X71985964Y-60152171D01*
X71886098Y-60366335D01*
X71886094Y-60366344D01*
X71824938Y-60594586D01*
X71824936Y-60594596D01*
X71804341Y-60829999D01*
X71804341Y-60830000D01*
X71824936Y-61065403D01*
X71824938Y-61065413D01*
X71886094Y-61293655D01*
X71886096Y-61293659D01*
X71886097Y-61293663D01*
X71961062Y-61454425D01*
X71985965Y-61507830D01*
X71985967Y-61507834D01*
X72121501Y-61701395D01*
X72121506Y-61701402D01*
X72288597Y-61868493D01*
X72288603Y-61868498D01*
X72474158Y-61998425D01*
X72517783Y-62053002D01*
X72524977Y-62122500D01*
X72493454Y-62184855D01*
X72474158Y-62201575D01*
X72288597Y-62331505D01*
X72121505Y-62498597D01*
X71985965Y-62692169D01*
X71985964Y-62692171D01*
X71886098Y-62906335D01*
X71886094Y-62906344D01*
X71824938Y-63134586D01*
X71824936Y-63134596D01*
X71804341Y-63369999D01*
X71804341Y-63370000D01*
X71824936Y-63605403D01*
X71824938Y-63605413D01*
X71886094Y-63833655D01*
X71886096Y-63833659D01*
X71886097Y-63833663D01*
X71963124Y-63998848D01*
X71985965Y-64047830D01*
X71985967Y-64047834D01*
X72121501Y-64241395D01*
X72121506Y-64241402D01*
X72288597Y-64408493D01*
X72288603Y-64408498D01*
X72474158Y-64538425D01*
X72517783Y-64593002D01*
X72524977Y-64662500D01*
X72493454Y-64724855D01*
X72474158Y-64741575D01*
X72288597Y-64871505D01*
X72121505Y-65038597D01*
X71985965Y-65232169D01*
X71985964Y-65232171D01*
X71886098Y-65446335D01*
X71886094Y-65446344D01*
X71824938Y-65674586D01*
X71824936Y-65674596D01*
X71804341Y-65909999D01*
X71804341Y-65910000D01*
X71824936Y-66145403D01*
X71824938Y-66145413D01*
X71886094Y-66373655D01*
X71886096Y-66373659D01*
X71886097Y-66373663D01*
X71961182Y-66534683D01*
X71985965Y-66587830D01*
X71985967Y-66587834D01*
X72121501Y-66781395D01*
X72121506Y-66781402D01*
X72288597Y-66948493D01*
X72288603Y-66948498D01*
X72474158Y-67078425D01*
X72517783Y-67133002D01*
X72524977Y-67202500D01*
X72493454Y-67264855D01*
X72474158Y-67281575D01*
X72288597Y-67411505D01*
X72121505Y-67578597D01*
X71985965Y-67772169D01*
X71985964Y-67772171D01*
X71886098Y-67986335D01*
X71886094Y-67986344D01*
X71824938Y-68214586D01*
X71824936Y-68214596D01*
X71804341Y-68449999D01*
X71804341Y-68450000D01*
X71824936Y-68685403D01*
X71824938Y-68685413D01*
X71886094Y-68913655D01*
X71886096Y-68913659D01*
X71886097Y-68913663D01*
X71963013Y-69078609D01*
X71985965Y-69127830D01*
X71985967Y-69127834D01*
X72121501Y-69321395D01*
X72121506Y-69321402D01*
X72288597Y-69488493D01*
X72288603Y-69488498D01*
X72474158Y-69618425D01*
X72517783Y-69673002D01*
X72524977Y-69742500D01*
X72493454Y-69804855D01*
X72474158Y-69821575D01*
X72288597Y-69951505D01*
X72121505Y-70118597D01*
X71985965Y-70312169D01*
X71985964Y-70312171D01*
X71886098Y-70526335D01*
X71886094Y-70526344D01*
X71824938Y-70754586D01*
X71824936Y-70754596D01*
X71804341Y-70989999D01*
X71804341Y-70990000D01*
X71824936Y-71225403D01*
X71824938Y-71225413D01*
X71886094Y-71453655D01*
X71886096Y-71453659D01*
X71886097Y-71453663D01*
X71963013Y-71618609D01*
X71985965Y-71667830D01*
X71985967Y-71667834D01*
X72121501Y-71861395D01*
X72121506Y-71861402D01*
X72288597Y-72028493D01*
X72288603Y-72028498D01*
X72474158Y-72158425D01*
X72517783Y-72213002D01*
X72524977Y-72282500D01*
X72493454Y-72344855D01*
X72474158Y-72361575D01*
X72288597Y-72491505D01*
X72121505Y-72658597D01*
X71985965Y-72852169D01*
X71985964Y-72852171D01*
X71886098Y-73066335D01*
X71886094Y-73066344D01*
X71824938Y-73294586D01*
X71824936Y-73294596D01*
X71804341Y-73529999D01*
X71804341Y-73530000D01*
X71824936Y-73765403D01*
X71824938Y-73765413D01*
X71886094Y-73993655D01*
X71886096Y-73993659D01*
X71886097Y-73993663D01*
X71947145Y-74124581D01*
X71985965Y-74207830D01*
X71985967Y-74207834D01*
X72121501Y-74401395D01*
X72121506Y-74401402D01*
X72288597Y-74568493D01*
X72288603Y-74568498D01*
X72474158Y-74698425D01*
X72517783Y-74753002D01*
X72524977Y-74822500D01*
X72493454Y-74884855D01*
X72474158Y-74901575D01*
X72288597Y-75031505D01*
X72121505Y-75198597D01*
X71985965Y-75392169D01*
X71985964Y-75392171D01*
X71886098Y-75606335D01*
X71886094Y-75606344D01*
X71824938Y-75834586D01*
X71824936Y-75834596D01*
X71804341Y-76069999D01*
X71804341Y-76070000D01*
X71824936Y-76305403D01*
X71824938Y-76305413D01*
X71886094Y-76533655D01*
X71886096Y-76533659D01*
X71886097Y-76533663D01*
X71949346Y-76669300D01*
X71985965Y-76747830D01*
X71985967Y-76747834D01*
X72021852Y-76799082D01*
X72110491Y-76925672D01*
X72121501Y-76941395D01*
X72121506Y-76941402D01*
X72288597Y-77108493D01*
X72288603Y-77108498D01*
X72474158Y-77238425D01*
X72517783Y-77293002D01*
X72524977Y-77362500D01*
X72493454Y-77424855D01*
X72474158Y-77441575D01*
X72288597Y-77571505D01*
X72121505Y-77738597D01*
X71985965Y-77932169D01*
X71985964Y-77932171D01*
X71886098Y-78146335D01*
X71886094Y-78146344D01*
X71824938Y-78374586D01*
X71824936Y-78374596D01*
X71804341Y-78609999D01*
X71804341Y-78610000D01*
X45851986Y-78610000D01*
X45855300Y-78570000D01*
X45855300Y-78569993D01*
X45836135Y-78338702D01*
X45836133Y-78338691D01*
X45779157Y-78113699D01*
X45685924Y-77901151D01*
X45558983Y-77706852D01*
X45558980Y-77706849D01*
X45558979Y-77706847D01*
X45401784Y-77536087D01*
X45224180Y-77397853D01*
X45183368Y-77341143D01*
X45179693Y-77271370D01*
X45214324Y-77210687D01*
X45224181Y-77202146D01*
X45401784Y-77063913D01*
X45558979Y-76893153D01*
X45685924Y-76698849D01*
X45779157Y-76486300D01*
X45836134Y-76261305D01*
X45855300Y-76030000D01*
X45855300Y-76029993D01*
X45836135Y-75798702D01*
X45836133Y-75798691D01*
X45779157Y-75573699D01*
X45685924Y-75361151D01*
X45558983Y-75166852D01*
X45558980Y-75166849D01*
X45558979Y-75166847D01*
X45401784Y-74996087D01*
X45224180Y-74857853D01*
X45183368Y-74801143D01*
X45179693Y-74731370D01*
X45214324Y-74670687D01*
X45224181Y-74662146D01*
X45401784Y-74523913D01*
X45558979Y-74353153D01*
X45685924Y-74158849D01*
X45779157Y-73946300D01*
X45836134Y-73721305D01*
X45836135Y-73721297D01*
X45851986Y-73530000D01*
X47684357Y-73530000D01*
X47704884Y-73751535D01*
X47704885Y-73751537D01*
X47765769Y-73965523D01*
X47765775Y-73965538D01*
X47864938Y-74164683D01*
X47864943Y-74164691D01*
X47999020Y-74342238D01*
X48163437Y-74492123D01*
X48163439Y-74492125D01*
X48352595Y-74609245D01*
X48352596Y-74609245D01*
X48352599Y-74609247D01*
X48560060Y-74689618D01*
X48778757Y-74730500D01*
X48778759Y-74730500D01*
X49001241Y-74730500D01*
X49001243Y-74730500D01*
X49219940Y-74689618D01*
X49427401Y-74609247D01*
X49616562Y-74492124D01*
X49780981Y-74342236D01*
X49915058Y-74164689D01*
X49917967Y-74158848D01*
X50014224Y-73965538D01*
X50014223Y-73965538D01*
X50014229Y-73965528D01*
X50075115Y-73751536D01*
X50095643Y-73530000D01*
X50081744Y-73380000D01*
X50934785Y-73380000D01*
X50953602Y-73583082D01*
X51009417Y-73779247D01*
X51009422Y-73779260D01*
X51100327Y-73961821D01*
X51223237Y-74124581D01*
X51373958Y-74261980D01*
X51373960Y-74261982D01*
X51473141Y-74323392D01*
X51547363Y-74369348D01*
X51737544Y-74443024D01*
X51938024Y-74480500D01*
X51938026Y-74480500D01*
X52141974Y-74480500D01*
X52141976Y-74480500D01*
X52342456Y-74443024D01*
X52532637Y-74369348D01*
X52706041Y-74261981D01*
X52856764Y-74124579D01*
X52929795Y-74027870D01*
X58559500Y-74027870D01*
X58559501Y-74027876D01*
X58565908Y-74087483D01*
X58616202Y-74222328D01*
X58616206Y-74222335D01*
X58702452Y-74337544D01*
X58702455Y-74337547D01*
X58817664Y-74423793D01*
X58817671Y-74423797D01*
X58952517Y-74474091D01*
X58952516Y-74474091D01*
X58959444Y-74474835D01*
X59012127Y-74480500D01*
X60307872Y-74480499D01*
X60367483Y-74474091D01*
X60502331Y-74423796D01*
X60617546Y-74337546D01*
X60703796Y-74222331D01*
X60754091Y-74087483D01*
X60760500Y-74027873D01*
X60760499Y-72732128D01*
X60754091Y-72672517D01*
X60748899Y-72658597D01*
X60703797Y-72537671D01*
X60703793Y-72537664D01*
X60617547Y-72422455D01*
X60617544Y-72422452D01*
X60502335Y-72336206D01*
X60502328Y-72336202D01*
X60367482Y-72285908D01*
X60367483Y-72285908D01*
X60307883Y-72279501D01*
X60307881Y-72279500D01*
X60307873Y-72279500D01*
X60307864Y-72279500D01*
X59012129Y-72279500D01*
X59012123Y-72279501D01*
X58952516Y-72285908D01*
X58817671Y-72336202D01*
X58817664Y-72336206D01*
X58702455Y-72422452D01*
X58702452Y-72422455D01*
X58616206Y-72537664D01*
X58616202Y-72537671D01*
X58565908Y-72672517D01*
X58561044Y-72717764D01*
X58559501Y-72732123D01*
X58559500Y-72732135D01*
X58559500Y-74027870D01*
X52929795Y-74027870D01*
X52979673Y-73961821D01*
X53070582Y-73779250D01*
X53126397Y-73583083D01*
X53145215Y-73380000D01*
X53126397Y-73176917D01*
X53070582Y-72980750D01*
X52979673Y-72798179D01*
X52856764Y-72635421D01*
X52856762Y-72635418D01*
X52706041Y-72498019D01*
X52706039Y-72498017D01*
X52532642Y-72390655D01*
X52532635Y-72390651D01*
X52414420Y-72344855D01*
X52342456Y-72316976D01*
X52141976Y-72279500D01*
X51938024Y-72279500D01*
X51737544Y-72316976D01*
X51737541Y-72316976D01*
X51737541Y-72316977D01*
X51547364Y-72390651D01*
X51547357Y-72390655D01*
X51373960Y-72498017D01*
X51373958Y-72498019D01*
X51223237Y-72635418D01*
X51100327Y-72798178D01*
X51009422Y-72980739D01*
X51009417Y-72980752D01*
X50953602Y-73176917D01*
X50934785Y-73379999D01*
X50934785Y-73380000D01*
X50081744Y-73380000D01*
X50075115Y-73308464D01*
X50014229Y-73094472D01*
X50000223Y-73066344D01*
X49915061Y-72895316D01*
X49915056Y-72895308D01*
X49780979Y-72717761D01*
X49616562Y-72567876D01*
X49616560Y-72567874D01*
X49427404Y-72450754D01*
X49427398Y-72450752D01*
X49219940Y-72370382D01*
X49001243Y-72329500D01*
X48778757Y-72329500D01*
X48560060Y-72370382D01*
X48428864Y-72421207D01*
X48352601Y-72450752D01*
X48352595Y-72450754D01*
X48163439Y-72567874D01*
X48163437Y-72567876D01*
X47999020Y-72717761D01*
X47864943Y-72895308D01*
X47864938Y-72895316D01*
X47765775Y-73094461D01*
X47765769Y-73094476D01*
X47704885Y-73308462D01*
X47704884Y-73308464D01*
X47684357Y-73529999D01*
X47684357Y-73530000D01*
X45851986Y-73530000D01*
X45855300Y-73490006D01*
X45855300Y-73489993D01*
X45836135Y-73258702D01*
X45836133Y-73258691D01*
X45779157Y-73033699D01*
X45685924Y-72821151D01*
X45558983Y-72626852D01*
X45558980Y-72626849D01*
X45558979Y-72626847D01*
X45401784Y-72456087D01*
X45317713Y-72390652D01*
X45223773Y-72317535D01*
X45182960Y-72260825D01*
X45179286Y-72191052D01*
X45213918Y-72130369D01*
X45223774Y-72121828D01*
X45248798Y-72102351D01*
X44777856Y-71631409D01*
X44744371Y-71570086D01*
X44749355Y-71500394D01*
X44790049Y-71445353D01*
X44877925Y-71377925D01*
X44945354Y-71290048D01*
X45001779Y-71248848D01*
X45071525Y-71244693D01*
X45131409Y-71277856D01*
X45601186Y-71747634D01*
X45685484Y-71618606D01*
X45778682Y-71406135D01*
X45835638Y-71181218D01*
X45854798Y-70950005D01*
X45854798Y-70949994D01*
X45845683Y-70840000D01*
X50935287Y-70840000D01*
X50954096Y-71042989D01*
X50954097Y-71042992D01*
X51009883Y-71239063D01*
X51009886Y-71239069D01*
X51100754Y-71421556D01*
X51100755Y-71421557D01*
X51102533Y-71423912D01*
X51502580Y-71023865D01*
X51563903Y-70990380D01*
X51633594Y-70995364D01*
X51689528Y-71037235D01*
X51700742Y-71055246D01*
X51707296Y-71068109D01*
X51712358Y-71078044D01*
X51712363Y-71078050D01*
X51801949Y-71167636D01*
X51801951Y-71167637D01*
X51801955Y-71167641D01*
X51824747Y-71179254D01*
X51875542Y-71227228D01*
X51892337Y-71295049D01*
X51869799Y-71361184D01*
X51856132Y-71377419D01*
X51459310Y-71774240D01*
X51459311Y-71774241D01*
X51547581Y-71828895D01*
X51547588Y-71828899D01*
X51737678Y-71902539D01*
X51938072Y-71940000D01*
X52141928Y-71940000D01*
X52342321Y-71902539D01*
X52532414Y-71828897D01*
X52620688Y-71774240D01*
X52223866Y-71377419D01*
X52190381Y-71316096D01*
X52195365Y-71246405D01*
X52237236Y-71190471D01*
X52255245Y-71179258D01*
X52278045Y-71167641D01*
X52367641Y-71078045D01*
X52379254Y-71055252D01*
X52427225Y-71004458D01*
X52495046Y-70987661D01*
X52561181Y-71010197D01*
X52577419Y-71023866D01*
X52977465Y-71423912D01*
X52979247Y-71421552D01*
X52979249Y-71421550D01*
X53070113Y-71239069D01*
X53070116Y-71239063D01*
X53125902Y-71042992D01*
X53125903Y-71042989D01*
X53144713Y-70840000D01*
X58555287Y-70840000D01*
X58574096Y-71042989D01*
X58574097Y-71042992D01*
X58629883Y-71239063D01*
X58629886Y-71239069D01*
X58720754Y-71421556D01*
X58720755Y-71421557D01*
X58722533Y-71423912D01*
X59122580Y-71023865D01*
X59183903Y-70990380D01*
X59253594Y-70995364D01*
X59309528Y-71037235D01*
X59320742Y-71055246D01*
X59327296Y-71068109D01*
X59332358Y-71078044D01*
X59332363Y-71078050D01*
X59421949Y-71167636D01*
X59421951Y-71167637D01*
X59421955Y-71167641D01*
X59444747Y-71179254D01*
X59495542Y-71227228D01*
X59512337Y-71295049D01*
X59489799Y-71361184D01*
X59476132Y-71377419D01*
X59079310Y-71774240D01*
X59079311Y-71774241D01*
X59167581Y-71828895D01*
X59167588Y-71828899D01*
X59357678Y-71902539D01*
X59558072Y-71940000D01*
X59761928Y-71940000D01*
X59962321Y-71902539D01*
X60152414Y-71828897D01*
X60240688Y-71774240D01*
X59843866Y-71377419D01*
X59810381Y-71316096D01*
X59815365Y-71246405D01*
X59857236Y-71190471D01*
X59875245Y-71179258D01*
X59898045Y-71167641D01*
X59987641Y-71078045D01*
X59999254Y-71055252D01*
X60047225Y-71004458D01*
X60115046Y-70987661D01*
X60181181Y-71010197D01*
X60197419Y-71023866D01*
X60597465Y-71423912D01*
X60599247Y-71421552D01*
X60599249Y-71421550D01*
X60690113Y-71239069D01*
X60690116Y-71239063D01*
X60745902Y-71042992D01*
X60745903Y-71042989D01*
X60764713Y-70840000D01*
X60764713Y-70839999D01*
X60745903Y-70637010D01*
X60745902Y-70637007D01*
X60690116Y-70440936D01*
X60690113Y-70440930D01*
X60599244Y-70258441D01*
X60597466Y-70256086D01*
X60597465Y-70256085D01*
X60197419Y-70656132D01*
X60136096Y-70689617D01*
X60066404Y-70684633D01*
X60010471Y-70642761D01*
X59999256Y-70624751D01*
X59987641Y-70601955D01*
X59987637Y-70601951D01*
X59987636Y-70601949D01*
X59898050Y-70512363D01*
X59898047Y-70512361D01*
X59898045Y-70512359D01*
X59875250Y-70500744D01*
X59824456Y-70452771D01*
X59807661Y-70384950D01*
X59830198Y-70318815D01*
X59843866Y-70302580D01*
X60240688Y-69905758D01*
X60240687Y-69905757D01*
X60152418Y-69851104D01*
X60152411Y-69851100D01*
X59962321Y-69777460D01*
X59761928Y-69740000D01*
X59558072Y-69740000D01*
X59357678Y-69777460D01*
X59167588Y-69851100D01*
X59167584Y-69851102D01*
X59079310Y-69905758D01*
X59476133Y-70302580D01*
X59509618Y-70363903D01*
X59504634Y-70433594D01*
X59462763Y-70489528D01*
X59444748Y-70500745D01*
X59421956Y-70512358D01*
X59421949Y-70512363D01*
X59332363Y-70601949D01*
X59332358Y-70601956D01*
X59320745Y-70624748D01*
X59272770Y-70675544D01*
X59204949Y-70692338D01*
X59138814Y-70669800D01*
X59122580Y-70656133D01*
X58722533Y-70256085D01*
X58720754Y-70258443D01*
X58629886Y-70440930D01*
X58629883Y-70440936D01*
X58574097Y-70637007D01*
X58574096Y-70637010D01*
X58555287Y-70839999D01*
X58555287Y-70840000D01*
X53144713Y-70840000D01*
X53144713Y-70839999D01*
X53125903Y-70637010D01*
X53125902Y-70637007D01*
X53070116Y-70440936D01*
X53070113Y-70440930D01*
X52979244Y-70258441D01*
X52977466Y-70256086D01*
X52977465Y-70256085D01*
X52577419Y-70656132D01*
X52516096Y-70689617D01*
X52446404Y-70684633D01*
X52390471Y-70642761D01*
X52379256Y-70624751D01*
X52367641Y-70601955D01*
X52367637Y-70601951D01*
X52367636Y-70601949D01*
X52278050Y-70512363D01*
X52278047Y-70512361D01*
X52278045Y-70512359D01*
X52255250Y-70500744D01*
X52204456Y-70452771D01*
X52187661Y-70384950D01*
X52210198Y-70318815D01*
X52223866Y-70302580D01*
X52620688Y-69905758D01*
X52620687Y-69905757D01*
X52532418Y-69851104D01*
X52532411Y-69851100D01*
X52342321Y-69777460D01*
X52141928Y-69740000D01*
X51938072Y-69740000D01*
X51737678Y-69777460D01*
X51547588Y-69851100D01*
X51547584Y-69851102D01*
X51459310Y-69905758D01*
X51856133Y-70302580D01*
X51889618Y-70363903D01*
X51884634Y-70433594D01*
X51842763Y-70489528D01*
X51824748Y-70500745D01*
X51801956Y-70512358D01*
X51801949Y-70512363D01*
X51712363Y-70601949D01*
X51712358Y-70601956D01*
X51700745Y-70624748D01*
X51652770Y-70675544D01*
X51584949Y-70692338D01*
X51518814Y-70669800D01*
X51502580Y-70656133D01*
X51102533Y-70256085D01*
X51100754Y-70258443D01*
X51009886Y-70440930D01*
X51009883Y-70440936D01*
X50954097Y-70637007D01*
X50954096Y-70637010D01*
X50935287Y-70839999D01*
X50935287Y-70840000D01*
X45845683Y-70840000D01*
X45835638Y-70718781D01*
X45778682Y-70493864D01*
X45685483Y-70281390D01*
X45601186Y-70152364D01*
X45131408Y-70622142D01*
X45070085Y-70655627D01*
X45000393Y-70650643D01*
X44945351Y-70609947D01*
X44877925Y-70522075D01*
X44790049Y-70454645D01*
X44748847Y-70398219D01*
X44744692Y-70328473D01*
X44777855Y-70268590D01*
X45248799Y-69797647D01*
X45248798Y-69797646D01*
X45223368Y-69777854D01*
X45182553Y-69721144D01*
X45178878Y-69651371D01*
X45213508Y-69590688D01*
X45223367Y-69582145D01*
X45248798Y-69562351D01*
X44777856Y-69091409D01*
X44744371Y-69030086D01*
X44749355Y-68960394D01*
X44790049Y-68905353D01*
X44877925Y-68837925D01*
X44945354Y-68750048D01*
X45001779Y-68708848D01*
X45071525Y-68704693D01*
X45131409Y-68737856D01*
X45601186Y-69207634D01*
X45685484Y-69078606D01*
X45778682Y-68866135D01*
X45835638Y-68641218D01*
X45851484Y-68450000D01*
X47684357Y-68450000D01*
X47704884Y-68671535D01*
X47704885Y-68671537D01*
X47765769Y-68885523D01*
X47765775Y-68885538D01*
X47864938Y-69084683D01*
X47864943Y-69084691D01*
X47999020Y-69262238D01*
X48163437Y-69412123D01*
X48163439Y-69412125D01*
X48352595Y-69529245D01*
X48352596Y-69529245D01*
X48352599Y-69529247D01*
X48560060Y-69609618D01*
X48778757Y-69650500D01*
X48778759Y-69650500D01*
X49001241Y-69650500D01*
X49001243Y-69650500D01*
X49219940Y-69609618D01*
X49427401Y-69529247D01*
X49616562Y-69412124D01*
X49780981Y-69262236D01*
X49915058Y-69084689D01*
X49918086Y-69078609D01*
X50014224Y-68885538D01*
X50014223Y-68885538D01*
X50014229Y-68885528D01*
X50075115Y-68671536D01*
X50095643Y-68450000D01*
X50075115Y-68228464D01*
X50014229Y-68014472D01*
X50000223Y-67986344D01*
X49915061Y-67815316D01*
X49915056Y-67815308D01*
X49780979Y-67637761D01*
X49616562Y-67487876D01*
X49616560Y-67487874D01*
X49427404Y-67370754D01*
X49427398Y-67370752D01*
X49229950Y-67294260D01*
X49174552Y-67251689D01*
X49150961Y-67185922D01*
X49166672Y-67117842D01*
X49216696Y-67069063D01*
X49234654Y-67061844D01*
X49234594Y-67061688D01*
X49239934Y-67059618D01*
X49239940Y-67059618D01*
X49447401Y-66979247D01*
X49636562Y-66862124D01*
X49800981Y-66712236D01*
X49935058Y-66534689D01*
X50032002Y-66340000D01*
X60704357Y-66340000D01*
X60724884Y-66561535D01*
X60724885Y-66561537D01*
X60785769Y-66775523D01*
X60785775Y-66775538D01*
X60884938Y-66974683D01*
X60884943Y-66974691D01*
X61019020Y-67152238D01*
X61183437Y-67302123D01*
X61183439Y-67302125D01*
X61372595Y-67419245D01*
X61372596Y-67419245D01*
X61372599Y-67419247D01*
X61580060Y-67499618D01*
X61798757Y-67540500D01*
X61798759Y-67540500D01*
X62021241Y-67540500D01*
X62021243Y-67540500D01*
X62239940Y-67499618D01*
X62447401Y-67419247D01*
X62636562Y-67302124D01*
X62795207Y-67157500D01*
X62800979Y-67152238D01*
X62815506Y-67133002D01*
X62935058Y-66974689D01*
X63034229Y-66775528D01*
X63095115Y-66561536D01*
X63115643Y-66340000D01*
X63095115Y-66118464D01*
X63034229Y-65904472D01*
X63034224Y-65904461D01*
X62935061Y-65705316D01*
X62935056Y-65705308D01*
X62800979Y-65527761D01*
X62636562Y-65377876D01*
X62636560Y-65377874D01*
X62447404Y-65260754D01*
X62447398Y-65260752D01*
X62239940Y-65180382D01*
X62021243Y-65139500D01*
X61798757Y-65139500D01*
X61580060Y-65180382D01*
X61448864Y-65231207D01*
X61372601Y-65260752D01*
X61372595Y-65260754D01*
X61183439Y-65377874D01*
X61183437Y-65377876D01*
X61019020Y-65527761D01*
X60884943Y-65705308D01*
X60884938Y-65705316D01*
X60785775Y-65904461D01*
X60785769Y-65904476D01*
X60724885Y-66118462D01*
X60724884Y-66118464D01*
X60704357Y-66339999D01*
X60704357Y-66340000D01*
X50032002Y-66340000D01*
X50034229Y-66335528D01*
X50095115Y-66121536D01*
X50115643Y-65900000D01*
X50112862Y-65869993D01*
X50095115Y-65678464D01*
X50095114Y-65678462D01*
X50094011Y-65674586D01*
X50034229Y-65464472D01*
X50034224Y-65464461D01*
X49935061Y-65265316D01*
X49935056Y-65265308D01*
X49800979Y-65087761D01*
X49636562Y-64937876D01*
X49636560Y-64937874D01*
X49447404Y-64820754D01*
X49447398Y-64820752D01*
X49239940Y-64740382D01*
X49021243Y-64699500D01*
X48798757Y-64699500D01*
X48580060Y-64740382D01*
X48576981Y-64741575D01*
X48372601Y-64820752D01*
X48372595Y-64820754D01*
X48183439Y-64937874D01*
X48183437Y-64937876D01*
X48019020Y-65087761D01*
X47884943Y-65265308D01*
X47884938Y-65265316D01*
X47785775Y-65464461D01*
X47785769Y-65464476D01*
X47724885Y-65678462D01*
X47724884Y-65678464D01*
X47704357Y-65899999D01*
X47704357Y-65900000D01*
X47724884Y-66121535D01*
X47724885Y-66121537D01*
X47785769Y-66335523D01*
X47785775Y-66335538D01*
X47884938Y-66534683D01*
X47884943Y-66534691D01*
X48019020Y-66712238D01*
X48183437Y-66862123D01*
X48183439Y-66862125D01*
X48372595Y-66979245D01*
X48372597Y-66979246D01*
X48372599Y-66979247D01*
X48570048Y-67055739D01*
X48625447Y-67098310D01*
X48649038Y-67164076D01*
X48633327Y-67232157D01*
X48583304Y-67280936D01*
X48565345Y-67288156D01*
X48565406Y-67288312D01*
X48560065Y-67290381D01*
X48560060Y-67290382D01*
X48390003Y-67356262D01*
X48352601Y-67370752D01*
X48352595Y-67370754D01*
X48163439Y-67487874D01*
X48163437Y-67487876D01*
X47999020Y-67637761D01*
X47864943Y-67815308D01*
X47864938Y-67815316D01*
X47765775Y-68014461D01*
X47765769Y-68014476D01*
X47704885Y-68228462D01*
X47704884Y-68228464D01*
X47684357Y-68449999D01*
X47684357Y-68450000D01*
X45851484Y-68450000D01*
X45854798Y-68410005D01*
X45854798Y-68409994D01*
X45835638Y-68178781D01*
X45778682Y-67953864D01*
X45685483Y-67741390D01*
X45601186Y-67612364D01*
X45131408Y-68082142D01*
X45070085Y-68115627D01*
X45000393Y-68110643D01*
X44945351Y-68069947D01*
X44877925Y-67982075D01*
X44790049Y-67914645D01*
X44748847Y-67858219D01*
X44744692Y-67788473D01*
X44777855Y-67728590D01*
X45248799Y-67257647D01*
X45223775Y-67238171D01*
X45182961Y-67181461D01*
X45179286Y-67111688D01*
X45213916Y-67051004D01*
X45223760Y-67042473D01*
X45401784Y-66903913D01*
X45558979Y-66733153D01*
X45685924Y-66538849D01*
X45779157Y-66326300D01*
X45836134Y-66101305D01*
X45851986Y-65909999D01*
X45855300Y-65870006D01*
X45855300Y-65869993D01*
X45836135Y-65638702D01*
X45836133Y-65638691D01*
X45779157Y-65413699D01*
X45685924Y-65201151D01*
X45558983Y-65006852D01*
X45558980Y-65006849D01*
X45558979Y-65006847D01*
X45401784Y-64836087D01*
X45401779Y-64836083D01*
X45401777Y-64836081D01*
X45224181Y-64697852D01*
X45183368Y-64641142D01*
X45179693Y-64571369D01*
X45214325Y-64510686D01*
X45224165Y-64502158D01*
X45401784Y-64363913D01*
X45558979Y-64193153D01*
X45685924Y-63998849D01*
X45779157Y-63786300D01*
X45836134Y-63561305D01*
X45855300Y-63330000D01*
X45855300Y-63329993D01*
X45836135Y-63098702D01*
X45836133Y-63098691D01*
X45779157Y-62873699D01*
X45685924Y-62661151D01*
X45558983Y-62466852D01*
X45558980Y-62466849D01*
X45558979Y-62466847D01*
X45401784Y-62296087D01*
X45224180Y-62157853D01*
X45183368Y-62101143D01*
X45179693Y-62031370D01*
X45214324Y-61970687D01*
X45224181Y-61962146D01*
X45401784Y-61823913D01*
X45558979Y-61653153D01*
X45685924Y-61458849D01*
X45779157Y-61246300D01*
X45823803Y-61070000D01*
X47733505Y-61070000D01*
X47786239Y-61255349D01*
X47885368Y-61454425D01*
X48019391Y-61631900D01*
X48183738Y-61781721D01*
X48372820Y-61898797D01*
X48372822Y-61898798D01*
X48580195Y-61979135D01*
X48659999Y-61994052D01*
X48660000Y-61277898D01*
X48679685Y-61210859D01*
X48732489Y-61165104D01*
X48801647Y-61155160D01*
X48824259Y-61160615D01*
X48851595Y-61170000D01*
X48939004Y-61170000D01*
X48939005Y-61170000D01*
X49015590Y-61157220D01*
X49084955Y-61165602D01*
X49138777Y-61210155D01*
X49159968Y-61276733D01*
X49160000Y-61279529D01*
X49160000Y-61994052D01*
X49239804Y-61979135D01*
X49447177Y-61898798D01*
X49447179Y-61898797D01*
X49636261Y-61781721D01*
X49800608Y-61631900D01*
X49934631Y-61454425D01*
X50031444Y-61260000D01*
X60704357Y-61260000D01*
X60724884Y-61481535D01*
X60724885Y-61481537D01*
X60785769Y-61695523D01*
X60785775Y-61695538D01*
X60884938Y-61894683D01*
X60884943Y-61894691D01*
X61019020Y-62072238D01*
X61183437Y-62222123D01*
X61183439Y-62222125D01*
X61372595Y-62339245D01*
X61372596Y-62339245D01*
X61372599Y-62339247D01*
X61580060Y-62419618D01*
X61798757Y-62460500D01*
X61798759Y-62460500D01*
X62021241Y-62460500D01*
X62021243Y-62460500D01*
X62239940Y-62419618D01*
X62447401Y-62339247D01*
X62636562Y-62222124D01*
X62800981Y-62072236D01*
X62935058Y-61894689D01*
X63034229Y-61695528D01*
X63095115Y-61481536D01*
X63115643Y-61260000D01*
X63111089Y-61210859D01*
X63095115Y-61038464D01*
X63095114Y-61038462D01*
X63090233Y-61021308D01*
X63034229Y-60824472D01*
X63034224Y-60824461D01*
X62935061Y-60625316D01*
X62935056Y-60625308D01*
X62800979Y-60447761D01*
X62636562Y-60297876D01*
X62636560Y-60297874D01*
X62447404Y-60180754D01*
X62447398Y-60180752D01*
X62239940Y-60100382D01*
X62021243Y-60059500D01*
X61798757Y-60059500D01*
X61580060Y-60100382D01*
X61448864Y-60151207D01*
X61372601Y-60180752D01*
X61372595Y-60180754D01*
X61183439Y-60297874D01*
X61183437Y-60297876D01*
X61019020Y-60447761D01*
X60884943Y-60625308D01*
X60884938Y-60625316D01*
X60785775Y-60824461D01*
X60785769Y-60824476D01*
X60724885Y-61038462D01*
X60724884Y-61038464D01*
X60704357Y-61259999D01*
X60704357Y-61260000D01*
X50031444Y-61260000D01*
X50033760Y-61255349D01*
X50086495Y-61070000D01*
X49372047Y-61070000D01*
X49305008Y-61050315D01*
X49259253Y-60997511D01*
X49249309Y-60928353D01*
X49251842Y-60915557D01*
X49253979Y-60907114D01*
X49253982Y-60907108D01*
X49263628Y-60790698D01*
X49246849Y-60724438D01*
X49249475Y-60654619D01*
X49289431Y-60597302D01*
X49354032Y-60570686D01*
X49367055Y-60570000D01*
X50086495Y-60570000D01*
X50033760Y-60384650D01*
X49934631Y-60185574D01*
X49800608Y-60008099D01*
X49636261Y-59858278D01*
X49447179Y-59741202D01*
X49447177Y-59741201D01*
X49239799Y-59660864D01*
X49160000Y-59645946D01*
X49160000Y-60362101D01*
X49140315Y-60429140D01*
X49087511Y-60474895D01*
X49018353Y-60484839D01*
X48995738Y-60479383D01*
X48968406Y-60470000D01*
X48968405Y-60470000D01*
X48880995Y-60470000D01*
X48880994Y-60470000D01*
X48804408Y-60482779D01*
X48735043Y-60474396D01*
X48681222Y-60429843D01*
X48660031Y-60363264D01*
X48660000Y-60360470D01*
X48660000Y-59645946D01*
X48580200Y-59660864D01*
X48372822Y-59741201D01*
X48372820Y-59741202D01*
X48183738Y-59858278D01*
X48019391Y-60008099D01*
X47885368Y-60185574D01*
X47786239Y-60384650D01*
X47733505Y-60570000D01*
X48447953Y-60570000D01*
X48514992Y-60589685D01*
X48560747Y-60642489D01*
X48570691Y-60711647D01*
X48568158Y-60724443D01*
X48566017Y-60732896D01*
X48556371Y-60849299D01*
X48556371Y-60849302D01*
X48556372Y-60849302D01*
X48571010Y-60907108D01*
X48573151Y-60915560D01*
X48570525Y-60985381D01*
X48530569Y-61042698D01*
X48465968Y-61069314D01*
X48452945Y-61070000D01*
X47733505Y-61070000D01*
X45823803Y-61070000D01*
X45836134Y-61021305D01*
X45839111Y-60985381D01*
X45855300Y-60790006D01*
X45855300Y-60789993D01*
X45836135Y-60558702D01*
X45836133Y-60558691D01*
X45779157Y-60333699D01*
X45685924Y-60121151D01*
X45558983Y-59926852D01*
X45558980Y-59926849D01*
X45558979Y-59926847D01*
X45401784Y-59756087D01*
X45401779Y-59756083D01*
X45401777Y-59756081D01*
X45218634Y-59613535D01*
X45218628Y-59613531D01*
X45014504Y-59503064D01*
X45014495Y-59503061D01*
X44794984Y-59427702D01*
X44604450Y-59395908D01*
X44566049Y-59389500D01*
X44333951Y-59389500D01*
X44295550Y-59395908D01*
X44105015Y-59427702D01*
X43885504Y-59503061D01*
X43885495Y-59503064D01*
X43681371Y-59613531D01*
X43681365Y-59613535D01*
X43498222Y-59756081D01*
X43498219Y-59756084D01*
X43498216Y-59756086D01*
X43498216Y-59756087D01*
X43473886Y-59782517D01*
X43341016Y-59926852D01*
X43214075Y-60121151D01*
X43120842Y-60333699D01*
X43063866Y-60558691D01*
X43063864Y-60558702D01*
X43044700Y-60789993D01*
X43044700Y-60790006D01*
X43063864Y-61021297D01*
X43063866Y-61021308D01*
X43120842Y-61246300D01*
X43214075Y-61458848D01*
X43341016Y-61653147D01*
X43341019Y-61653151D01*
X43341021Y-61653153D01*
X43498216Y-61823913D01*
X43498219Y-61823915D01*
X43498222Y-61823918D01*
X43675818Y-61962147D01*
X43716631Y-62018857D01*
X43720306Y-62088630D01*
X43685674Y-62149313D01*
X43675818Y-62157853D01*
X43498222Y-62296081D01*
X43498219Y-62296084D01*
X43498216Y-62296086D01*
X43498216Y-62296087D01*
X43458485Y-62339247D01*
X43341016Y-62466852D01*
X43214075Y-62661151D01*
X43120842Y-62873699D01*
X43063866Y-63098691D01*
X43063864Y-63098702D01*
X43044700Y-63329993D01*
X43044700Y-63330006D01*
X43063864Y-63561297D01*
X43063866Y-63561308D01*
X43120842Y-63786300D01*
X43214075Y-63998848D01*
X43341016Y-64193147D01*
X43341019Y-64193151D01*
X43341021Y-64193153D01*
X43498216Y-64363913D01*
X43498219Y-64363915D01*
X43498222Y-64363918D01*
X43675818Y-64502147D01*
X43716631Y-64558857D01*
X43720306Y-64628630D01*
X43685674Y-64689313D01*
X43675818Y-64697853D01*
X43498222Y-64836081D01*
X43498219Y-64836084D01*
X43341016Y-65006852D01*
X43214075Y-65201151D01*
X43120842Y-65413699D01*
X43063866Y-65638691D01*
X43063864Y-65638702D01*
X43044700Y-65869993D01*
X43044700Y-65870006D01*
X43063864Y-66101297D01*
X43063866Y-66101308D01*
X43120842Y-66326300D01*
X43214075Y-66538848D01*
X43341016Y-66733147D01*
X43341019Y-66733151D01*
X43341021Y-66733153D01*
X43498216Y-66903913D01*
X43676225Y-67042462D01*
X43717038Y-67099173D01*
X43720713Y-67168946D01*
X43686082Y-67229629D01*
X43676223Y-67238171D01*
X43651200Y-67257645D01*
X43651200Y-67257647D01*
X44122143Y-67728590D01*
X44155628Y-67789913D01*
X44150644Y-67859605D01*
X44109949Y-67914646D01*
X44022075Y-67982074D01*
X44022074Y-67982075D01*
X43954646Y-68069949D01*
X43898218Y-68111151D01*
X43828472Y-68115306D01*
X43768590Y-68082143D01*
X43298812Y-67612365D01*
X43214516Y-67741391D01*
X43214514Y-67741395D01*
X43121317Y-67953864D01*
X43064361Y-68178781D01*
X43045202Y-68409994D01*
X43045202Y-68410005D01*
X43064361Y-68641218D01*
X43121317Y-68866135D01*
X43214516Y-69078609D01*
X43298811Y-69207633D01*
X43768590Y-68737855D01*
X43829913Y-68704370D01*
X43899604Y-68709354D01*
X43954645Y-68750049D01*
X44022075Y-68837925D01*
X44084113Y-68885528D01*
X44109947Y-68905351D01*
X44151150Y-68961779D01*
X44155305Y-69031525D01*
X44122142Y-69091408D01*
X43651199Y-69562350D01*
X43651200Y-69562351D01*
X43676630Y-69582144D01*
X43717445Y-69638853D01*
X43721120Y-69708626D01*
X43686490Y-69769310D01*
X43676630Y-69777854D01*
X43651200Y-69797645D01*
X43651200Y-69797647D01*
X44122143Y-70268590D01*
X44155628Y-70329913D01*
X44150644Y-70399605D01*
X44109949Y-70454646D01*
X44022075Y-70522074D01*
X44022074Y-70522075D01*
X43954646Y-70609949D01*
X43898218Y-70651151D01*
X43828472Y-70655306D01*
X43768590Y-70622143D01*
X43298812Y-70152365D01*
X43214516Y-70281391D01*
X43214514Y-70281395D01*
X43121317Y-70493864D01*
X43064361Y-70718781D01*
X43045202Y-70949994D01*
X43045202Y-70950005D01*
X43064361Y-71181218D01*
X43121317Y-71406135D01*
X43214516Y-71618609D01*
X43298811Y-71747633D01*
X43768590Y-71277855D01*
X43829913Y-71244370D01*
X43899604Y-71249354D01*
X43954645Y-71290049D01*
X44022075Y-71377925D01*
X44078938Y-71421557D01*
X44109947Y-71445351D01*
X44151150Y-71501779D01*
X44155305Y-71571525D01*
X44122142Y-71631408D01*
X43651199Y-72102350D01*
X43651200Y-72102351D01*
X43676224Y-72121828D01*
X43717038Y-72178538D01*
X43720713Y-72248311D01*
X43686083Y-72308995D01*
X43676225Y-72317536D01*
X43498222Y-72456081D01*
X43498219Y-72456084D01*
X43341016Y-72626852D01*
X43214075Y-72821151D01*
X43120842Y-73033699D01*
X43063866Y-73258691D01*
X43063864Y-73258702D01*
X43044700Y-73489993D01*
X43044700Y-73490006D01*
X43063864Y-73721297D01*
X43063866Y-73721308D01*
X43120842Y-73946300D01*
X43214075Y-74158848D01*
X43341016Y-74353147D01*
X43341019Y-74353151D01*
X43341021Y-74353153D01*
X43498216Y-74523913D01*
X43498219Y-74523915D01*
X43498222Y-74523918D01*
X43675818Y-74662147D01*
X43716631Y-74718857D01*
X43720306Y-74788630D01*
X43685674Y-74849313D01*
X43675818Y-74857853D01*
X43498222Y-74996081D01*
X43498219Y-74996084D01*
X43341016Y-75166852D01*
X43214075Y-75361151D01*
X43120842Y-75573699D01*
X43063866Y-75798691D01*
X43063864Y-75798702D01*
X43044700Y-76029993D01*
X43044700Y-76030006D01*
X43063864Y-76261297D01*
X43063866Y-76261308D01*
X43120842Y-76486300D01*
X43214075Y-76698848D01*
X43341016Y-76893147D01*
X43341019Y-76893151D01*
X43341021Y-76893153D01*
X43498216Y-77063913D01*
X43498219Y-77063915D01*
X43498222Y-77063918D01*
X43675818Y-77202147D01*
X43716631Y-77258857D01*
X43720306Y-77328630D01*
X43685674Y-77389313D01*
X43675818Y-77397853D01*
X43498222Y-77536081D01*
X43498219Y-77536084D01*
X43341016Y-77706852D01*
X43214075Y-77901151D01*
X43120842Y-78113699D01*
X43063866Y-78338691D01*
X43063864Y-78338702D01*
X43044700Y-78569993D01*
X43044700Y-78570006D01*
X40775300Y-78570006D01*
X40775300Y-78570000D01*
X40775300Y-78569993D01*
X40756135Y-78338702D01*
X40756133Y-78338691D01*
X40699157Y-78113699D01*
X40605924Y-77901151D01*
X40478983Y-77706852D01*
X40478980Y-77706849D01*
X40478979Y-77706847D01*
X40321784Y-77536087D01*
X40144180Y-77397853D01*
X40103368Y-77341143D01*
X40099693Y-77271370D01*
X40134324Y-77210687D01*
X40144181Y-77202146D01*
X40321784Y-77063913D01*
X40478979Y-76893153D01*
X40605924Y-76698849D01*
X40699157Y-76486300D01*
X40756134Y-76261305D01*
X40775300Y-76030000D01*
X40775300Y-76029993D01*
X40756135Y-75798702D01*
X40756133Y-75798691D01*
X40699157Y-75573699D01*
X40605924Y-75361151D01*
X40478983Y-75166852D01*
X40478980Y-75166849D01*
X40478979Y-75166847D01*
X40321784Y-74996087D01*
X40144180Y-74857853D01*
X40103368Y-74801143D01*
X40099693Y-74731370D01*
X40134324Y-74670687D01*
X40144181Y-74662146D01*
X40321784Y-74523913D01*
X40478979Y-74353153D01*
X40605924Y-74158849D01*
X40699157Y-73946300D01*
X40756134Y-73721305D01*
X40756135Y-73721297D01*
X40775300Y-73490006D01*
X40775300Y-73489993D01*
X40756135Y-73258702D01*
X40756133Y-73258691D01*
X40699157Y-73033699D01*
X40605924Y-72821151D01*
X40478983Y-72626852D01*
X40478980Y-72626849D01*
X40478979Y-72626847D01*
X40321784Y-72456087D01*
X40237713Y-72390652D01*
X40143773Y-72317535D01*
X40102960Y-72260825D01*
X40099286Y-72191052D01*
X40133918Y-72130369D01*
X40143774Y-72121828D01*
X40168798Y-72102351D01*
X39697856Y-71631409D01*
X39664371Y-71570086D01*
X39669355Y-71500394D01*
X39710049Y-71445353D01*
X39797925Y-71377925D01*
X39865354Y-71290048D01*
X39921779Y-71248848D01*
X39991525Y-71244693D01*
X40051409Y-71277856D01*
X40521186Y-71747634D01*
X40605484Y-71618606D01*
X40698682Y-71406135D01*
X40755638Y-71181218D01*
X40774798Y-70950005D01*
X40774798Y-70949994D01*
X40755638Y-70718781D01*
X40698682Y-70493864D01*
X40605483Y-70281390D01*
X40521186Y-70152364D01*
X40051408Y-70622142D01*
X39990085Y-70655627D01*
X39920393Y-70650643D01*
X39865351Y-70609947D01*
X39797925Y-70522075D01*
X39710049Y-70454645D01*
X39668847Y-70398219D01*
X39664692Y-70328473D01*
X39697855Y-70268590D01*
X40168799Y-69797647D01*
X40168798Y-69797646D01*
X40143368Y-69777854D01*
X40102553Y-69721144D01*
X40098878Y-69651371D01*
X40133508Y-69590688D01*
X40143367Y-69582145D01*
X40168798Y-69562351D01*
X39697856Y-69091409D01*
X39664371Y-69030086D01*
X39669355Y-68960394D01*
X39710049Y-68905353D01*
X39797925Y-68837925D01*
X39865354Y-68750048D01*
X39921779Y-68708848D01*
X39991525Y-68704693D01*
X40051409Y-68737856D01*
X40521186Y-69207634D01*
X40605484Y-69078606D01*
X40698682Y-68866135D01*
X40755638Y-68641218D01*
X40774798Y-68410005D01*
X40774798Y-68409994D01*
X40755638Y-68178781D01*
X40698682Y-67953864D01*
X40605483Y-67741390D01*
X40521186Y-67612364D01*
X40051408Y-68082142D01*
X39990085Y-68115627D01*
X39920393Y-68110643D01*
X39865351Y-68069947D01*
X39797925Y-67982075D01*
X39710049Y-67914645D01*
X39668847Y-67858219D01*
X39664692Y-67788473D01*
X39697855Y-67728590D01*
X40168799Y-67257647D01*
X40143775Y-67238171D01*
X40102961Y-67181461D01*
X40099286Y-67111688D01*
X40133916Y-67051004D01*
X40143760Y-67042473D01*
X40321784Y-66903913D01*
X40478979Y-66733153D01*
X40605924Y-66538849D01*
X40699157Y-66326300D01*
X40756134Y-66101305D01*
X40771986Y-65909999D01*
X40775300Y-65870006D01*
X40775300Y-65869993D01*
X40756135Y-65638702D01*
X40756133Y-65638691D01*
X40699157Y-65413699D01*
X40605924Y-65201151D01*
X40478983Y-65006852D01*
X40478980Y-65006849D01*
X40478979Y-65006847D01*
X40321784Y-64836087D01*
X40144180Y-64697853D01*
X40103368Y-64641143D01*
X40099693Y-64571370D01*
X40134324Y-64510687D01*
X40144181Y-64502146D01*
X40321784Y-64363913D01*
X40478979Y-64193153D01*
X40605924Y-63998849D01*
X40699157Y-63786300D01*
X40756134Y-63561305D01*
X40775300Y-63330000D01*
X40775300Y-63329993D01*
X40756135Y-63098702D01*
X40756133Y-63098691D01*
X40699157Y-62873699D01*
X40605924Y-62661151D01*
X40478983Y-62466852D01*
X40478980Y-62466849D01*
X40478979Y-62466847D01*
X40384195Y-62363884D01*
X40353275Y-62301232D01*
X40361135Y-62231806D01*
X40405283Y-62177651D01*
X40432095Y-62163722D01*
X40512326Y-62133798D01*
X40512326Y-62133797D01*
X40512331Y-62133796D01*
X40627546Y-62047546D01*
X40713796Y-61932331D01*
X40764091Y-61797483D01*
X40770500Y-61737873D01*
X40770499Y-59842128D01*
X40764091Y-59782517D01*
X40754233Y-59756087D01*
X40713797Y-59647671D01*
X40713793Y-59647664D01*
X40627547Y-59532455D01*
X40627544Y-59532452D01*
X40512335Y-59446206D01*
X40512328Y-59446202D01*
X40377482Y-59395908D01*
X40377483Y-59395908D01*
X40317883Y-59389501D01*
X40317881Y-59389500D01*
X40317873Y-59389500D01*
X40317864Y-59389500D01*
X38422129Y-59389500D01*
X38422123Y-59389501D01*
X38362516Y-59395908D01*
X38227671Y-59446202D01*
X38227664Y-59446206D01*
X38112455Y-59532452D01*
X38112452Y-59532455D01*
X38026206Y-59647664D01*
X38026202Y-59647671D01*
X37975908Y-59782517D01*
X37969501Y-59842116D01*
X37969501Y-59842123D01*
X37969500Y-59842135D01*
X37969500Y-61737870D01*
X37969501Y-61737876D01*
X37975908Y-61797483D01*
X38026202Y-61932328D01*
X38026206Y-61932335D01*
X38112452Y-62047544D01*
X38112455Y-62047547D01*
X38227664Y-62133793D01*
X38227673Y-62133798D01*
X38307904Y-62163722D01*
X38363838Y-62205593D01*
X38388256Y-62271057D01*
X38373405Y-62339330D01*
X38355802Y-62363886D01*
X38261019Y-62466849D01*
X38134075Y-62661151D01*
X38040842Y-62873699D01*
X37983866Y-63098691D01*
X37983864Y-63098702D01*
X37964700Y-63329993D01*
X37964700Y-63330006D01*
X37983864Y-63561297D01*
X37983866Y-63561308D01*
X38040842Y-63786300D01*
X38134075Y-63998848D01*
X38261016Y-64193147D01*
X38261019Y-64193151D01*
X38261021Y-64193153D01*
X38418216Y-64363913D01*
X38418219Y-64363915D01*
X38418222Y-64363918D01*
X38595818Y-64502147D01*
X38636631Y-64558857D01*
X38640306Y-64628630D01*
X38605674Y-64689313D01*
X38595818Y-64697853D01*
X38418222Y-64836081D01*
X38418219Y-64836084D01*
X38261016Y-65006852D01*
X38134075Y-65201151D01*
X38040842Y-65413699D01*
X37983866Y-65638691D01*
X37983864Y-65638702D01*
X37964700Y-65869993D01*
X37964700Y-65870006D01*
X37983864Y-66101297D01*
X37983866Y-66101308D01*
X38040842Y-66326300D01*
X38134075Y-66538848D01*
X38261016Y-66733147D01*
X38261019Y-66733151D01*
X38261021Y-66733153D01*
X38418216Y-66903913D01*
X38596225Y-67042462D01*
X38637038Y-67099173D01*
X38640713Y-67168946D01*
X38606082Y-67229629D01*
X38596223Y-67238171D01*
X38571200Y-67257645D01*
X38571200Y-67257647D01*
X39042143Y-67728590D01*
X39075628Y-67789913D01*
X39070644Y-67859605D01*
X39029949Y-67914646D01*
X38942075Y-67982074D01*
X38942074Y-67982075D01*
X38874646Y-68069949D01*
X38818218Y-68111151D01*
X38748472Y-68115306D01*
X38688590Y-68082143D01*
X38218812Y-67612365D01*
X38134516Y-67741391D01*
X38134514Y-67741395D01*
X38041317Y-67953864D01*
X37984361Y-68178781D01*
X37965202Y-68409994D01*
X37965202Y-68410005D01*
X37984361Y-68641218D01*
X38041317Y-68866135D01*
X38134516Y-69078609D01*
X38218811Y-69207633D01*
X38688590Y-68737855D01*
X38749913Y-68704370D01*
X38819604Y-68709354D01*
X38874645Y-68750049D01*
X38942075Y-68837925D01*
X39004113Y-68885528D01*
X39029947Y-68905351D01*
X39071150Y-68961779D01*
X39075305Y-69031525D01*
X39042142Y-69091408D01*
X38571199Y-69562350D01*
X38571200Y-69562351D01*
X38596630Y-69582144D01*
X38637445Y-69638853D01*
X38641120Y-69708626D01*
X38606490Y-69769310D01*
X38596630Y-69777854D01*
X38571200Y-69797645D01*
X38571200Y-69797647D01*
X39042143Y-70268590D01*
X39075628Y-70329913D01*
X39070644Y-70399605D01*
X39029949Y-70454646D01*
X38942075Y-70522074D01*
X38942074Y-70522075D01*
X38874646Y-70609949D01*
X38818218Y-70651151D01*
X38748472Y-70655306D01*
X38688590Y-70622143D01*
X38218812Y-70152365D01*
X38134516Y-70281391D01*
X38134514Y-70281395D01*
X38041317Y-70493864D01*
X37984361Y-70718781D01*
X37965202Y-70949994D01*
X37965202Y-70950005D01*
X37984361Y-71181218D01*
X38041317Y-71406135D01*
X38134516Y-71618609D01*
X38218811Y-71747633D01*
X38688590Y-71277855D01*
X38749913Y-71244370D01*
X38819604Y-71249354D01*
X38874645Y-71290049D01*
X38942075Y-71377925D01*
X38998938Y-71421557D01*
X39029947Y-71445351D01*
X39071150Y-71501779D01*
X39075305Y-71571525D01*
X39042142Y-71631408D01*
X38571199Y-72102350D01*
X38571200Y-72102351D01*
X38596224Y-72121828D01*
X38637038Y-72178538D01*
X38640713Y-72248311D01*
X38606083Y-72308995D01*
X38596225Y-72317536D01*
X38418222Y-72456081D01*
X38418219Y-72456084D01*
X38261016Y-72626852D01*
X38134075Y-72821151D01*
X38040842Y-73033699D01*
X37983866Y-73258691D01*
X37983864Y-73258702D01*
X37964700Y-73489993D01*
X37964700Y-73490006D01*
X37983864Y-73721297D01*
X37983866Y-73721308D01*
X38040842Y-73946300D01*
X38134075Y-74158848D01*
X38261016Y-74353147D01*
X38261019Y-74353151D01*
X38261021Y-74353153D01*
X38418216Y-74523913D01*
X38418219Y-74523915D01*
X38418222Y-74523918D01*
X38595818Y-74662147D01*
X38636631Y-74718857D01*
X38640306Y-74788630D01*
X38605674Y-74849313D01*
X38595818Y-74857853D01*
X38418222Y-74996081D01*
X38418219Y-74996084D01*
X38261016Y-75166852D01*
X38134075Y-75361151D01*
X38040842Y-75573699D01*
X37983866Y-75798691D01*
X37983864Y-75798702D01*
X37964700Y-76029993D01*
X37964700Y-76030006D01*
X37983864Y-76261297D01*
X37983866Y-76261308D01*
X38040842Y-76486300D01*
X38134075Y-76698848D01*
X38261016Y-76893147D01*
X38261019Y-76893151D01*
X38261021Y-76893153D01*
X38418216Y-77063913D01*
X38418219Y-77063915D01*
X38418222Y-77063918D01*
X38595818Y-77202147D01*
X38636631Y-77258857D01*
X38640306Y-77328630D01*
X38605674Y-77389313D01*
X38595818Y-77397853D01*
X38418222Y-77536081D01*
X38418219Y-77536084D01*
X38261016Y-77706852D01*
X38134075Y-77901151D01*
X38040842Y-78113699D01*
X37983866Y-78338691D01*
X37983864Y-78338702D01*
X37964700Y-78569993D01*
X37964700Y-78570006D01*
X25400500Y-78570006D01*
X25400500Y-76267763D01*
X27355787Y-76267763D01*
X27385413Y-76537013D01*
X27385415Y-76537024D01*
X27427722Y-76698849D01*
X27453928Y-76799088D01*
X27559870Y-77048390D01*
X27596552Y-77108495D01*
X27700979Y-77279605D01*
X27700986Y-77279615D01*
X27874253Y-77487819D01*
X27874259Y-77487824D01*
X27928121Y-77536084D01*
X28075998Y-77668582D01*
X28301910Y-77818044D01*
X28547176Y-77933020D01*
X28547183Y-77933022D01*
X28547185Y-77933023D01*
X28806557Y-78011057D01*
X28806564Y-78011058D01*
X28806569Y-78011060D01*
X29074561Y-78050500D01*
X29074566Y-78050500D01*
X29277636Y-78050500D01*
X29329133Y-78046730D01*
X29480156Y-78035677D01*
X29592758Y-78010593D01*
X29744546Y-77976782D01*
X29744548Y-77976781D01*
X29744553Y-77976780D01*
X29997558Y-77880014D01*
X30233777Y-77747441D01*
X30448177Y-77581888D01*
X30636186Y-77386881D01*
X30793799Y-77166579D01*
X30867787Y-77022669D01*
X30917649Y-76925690D01*
X30917651Y-76925684D01*
X30917656Y-76925675D01*
X31005118Y-76669305D01*
X31054319Y-76402933D01*
X31064212Y-76132235D01*
X31034586Y-75862982D01*
X30966072Y-75600912D01*
X30860130Y-75351610D01*
X30719018Y-75120390D01*
X30717845Y-75118981D01*
X30545746Y-74912180D01*
X30545740Y-74912175D01*
X30344002Y-74731418D01*
X30118092Y-74581957D01*
X30089371Y-74568493D01*
X29872824Y-74466980D01*
X29872819Y-74466978D01*
X29872814Y-74466976D01*
X29613442Y-74388942D01*
X29613428Y-74388939D01*
X29497791Y-74371921D01*
X29345439Y-74349500D01*
X29142369Y-74349500D01*
X29142364Y-74349500D01*
X28939844Y-74364323D01*
X28939831Y-74364325D01*
X28675453Y-74423217D01*
X28675446Y-74423220D01*
X28422439Y-74519987D01*
X28186226Y-74652557D01*
X28186224Y-74652558D01*
X28186223Y-74652559D01*
X28138231Y-74689617D01*
X27971822Y-74818112D01*
X27783822Y-75013109D01*
X27783816Y-75013116D01*
X27626202Y-75233419D01*
X27626199Y-75233424D01*
X27502350Y-75474309D01*
X27502343Y-75474327D01*
X27414884Y-75730685D01*
X27414881Y-75730699D01*
X27365681Y-75997068D01*
X27365680Y-75997075D01*
X27355787Y-76267763D01*
X25400500Y-76267763D01*
X25400500Y-56380000D01*
X36559341Y-56380000D01*
X36579936Y-56615403D01*
X36579938Y-56615413D01*
X36641094Y-56843655D01*
X36641096Y-56843659D01*
X36641097Y-56843663D01*
X36694201Y-56957544D01*
X36740965Y-57057830D01*
X36740967Y-57057834D01*
X36794911Y-57134873D01*
X36876505Y-57251401D01*
X37043599Y-57418495D01*
X37044215Y-57418926D01*
X37237165Y-57554032D01*
X37237167Y-57554033D01*
X37237170Y-57554035D01*
X37451337Y-57653903D01*
X37679592Y-57715063D01*
X37867918Y-57731539D01*
X37914999Y-57735659D01*
X37915000Y-57735659D01*
X37915001Y-57735659D01*
X37954234Y-57732226D01*
X38150408Y-57715063D01*
X38378663Y-57653903D01*
X38592830Y-57554035D01*
X38786401Y-57418495D01*
X38953495Y-57251401D01*
X39089035Y-57057830D01*
X39188903Y-56843663D01*
X39250063Y-56615408D01*
X39270659Y-56380000D01*
X39250063Y-56144592D01*
X39188903Y-55916337D01*
X39089035Y-55702171D01*
X38953495Y-55508599D01*
X38831179Y-55386283D01*
X38797696Y-55324963D01*
X38802680Y-55255271D01*
X38844551Y-55199337D01*
X38875529Y-55182422D01*
X39007086Y-55133354D01*
X39007093Y-55133350D01*
X39122187Y-55047190D01*
X39122190Y-55047187D01*
X39208350Y-54932093D01*
X39208354Y-54932086D01*
X39258596Y-54797379D01*
X39258598Y-54797372D01*
X39264999Y-54737844D01*
X39265000Y-54737827D01*
X39265000Y-54090000D01*
X38528347Y-54090000D01*
X38461308Y-54070315D01*
X38415553Y-54017511D01*
X38405609Y-53948353D01*
X38409369Y-53931067D01*
X38415000Y-53911888D01*
X38415000Y-53768111D01*
X38409369Y-53748933D01*
X38409370Y-53679064D01*
X38447145Y-53620286D01*
X38510701Y-53591262D01*
X38528347Y-53590000D01*
X39265000Y-53590000D01*
X39265000Y-52942172D01*
X39264999Y-52942155D01*
X39258598Y-52882627D01*
X39258596Y-52882620D01*
X39208354Y-52747913D01*
X39208350Y-52747906D01*
X39122190Y-52632812D01*
X39122187Y-52632809D01*
X39007093Y-52546649D01*
X39007086Y-52546645D01*
X38872379Y-52496403D01*
X38872372Y-52496401D01*
X38812844Y-52490000D01*
X38165000Y-52490000D01*
X38165000Y-53227698D01*
X38145315Y-53294737D01*
X38092511Y-53340492D01*
X38023355Y-53350436D01*
X37950766Y-53340000D01*
X37950763Y-53340000D01*
X37879237Y-53340000D01*
X37879233Y-53340000D01*
X37806645Y-53350436D01*
X37737487Y-53340492D01*
X37684684Y-53294736D01*
X37665000Y-53227698D01*
X37665000Y-52490000D01*
X37017155Y-52490000D01*
X36957627Y-52496401D01*
X36957620Y-52496403D01*
X36822913Y-52546645D01*
X36822906Y-52546649D01*
X36707812Y-52632809D01*
X36707809Y-52632812D01*
X36621649Y-52747906D01*
X36621645Y-52747913D01*
X36571403Y-52882620D01*
X36571401Y-52882627D01*
X36565000Y-52942155D01*
X36565000Y-53590000D01*
X37301653Y-53590000D01*
X37368692Y-53609685D01*
X37414447Y-53662489D01*
X37424391Y-53731647D01*
X37420631Y-53748933D01*
X37415000Y-53768111D01*
X37415000Y-53911888D01*
X37420631Y-53931067D01*
X37420630Y-54000936D01*
X37382855Y-54059714D01*
X37319299Y-54088738D01*
X37301653Y-54090000D01*
X36565000Y-54090000D01*
X36565000Y-54737844D01*
X36571401Y-54797372D01*
X36571403Y-54797379D01*
X36621645Y-54932086D01*
X36621649Y-54932093D01*
X36707809Y-55047187D01*
X36707812Y-55047190D01*
X36822906Y-55133350D01*
X36822913Y-55133354D01*
X36954470Y-55182421D01*
X37010403Y-55224292D01*
X37034821Y-55289756D01*
X37019970Y-55358029D01*
X36998819Y-55386284D01*
X36876503Y-55508600D01*
X36740965Y-55702169D01*
X36740964Y-55702171D01*
X36641098Y-55916335D01*
X36641094Y-55916344D01*
X36579938Y-56144586D01*
X36579936Y-56144596D01*
X36559341Y-56379999D01*
X36559341Y-56380000D01*
X25400500Y-56380000D01*
X25400500Y-50867763D01*
X27355787Y-50867763D01*
X27385413Y-51137013D01*
X27385415Y-51137024D01*
X27453926Y-51399082D01*
X27453928Y-51399088D01*
X27559870Y-51648390D01*
X27631998Y-51766575D01*
X27700979Y-51879605D01*
X27700986Y-51879615D01*
X27874253Y-52087819D01*
X27874259Y-52087824D01*
X28075998Y-52268582D01*
X28301910Y-52418044D01*
X28547176Y-52533020D01*
X28547183Y-52533022D01*
X28547185Y-52533023D01*
X28806557Y-52611057D01*
X28806564Y-52611058D01*
X28806569Y-52611060D01*
X29074561Y-52650500D01*
X29074566Y-52650500D01*
X29277636Y-52650500D01*
X29329133Y-52646730D01*
X29480156Y-52635677D01*
X29592758Y-52610593D01*
X29744546Y-52576782D01*
X29744548Y-52576781D01*
X29744553Y-52576780D01*
X29997558Y-52480014D01*
X30233777Y-52347441D01*
X30448177Y-52181888D01*
X30636186Y-51986881D01*
X30793799Y-51766579D01*
X30867787Y-51622669D01*
X30917649Y-51525690D01*
X30917651Y-51525684D01*
X30917656Y-51525675D01*
X31005118Y-51269305D01*
X31054319Y-51002933D01*
X31064212Y-50732235D01*
X31034586Y-50462982D01*
X30966072Y-50200912D01*
X30860130Y-49951610D01*
X30719018Y-49720390D01*
X30629747Y-49613119D01*
X30545746Y-49512180D01*
X30545740Y-49512175D01*
X30344002Y-49331418D01*
X30118092Y-49181957D01*
X30118090Y-49181956D01*
X29872824Y-49066980D01*
X29872819Y-49066978D01*
X29872814Y-49066976D01*
X29613442Y-48988942D01*
X29613428Y-48988939D01*
X29497791Y-48971921D01*
X29345439Y-48949500D01*
X29142369Y-48949500D01*
X29142364Y-48949500D01*
X28939844Y-48964323D01*
X28939831Y-48964325D01*
X28675453Y-49023217D01*
X28675446Y-49023220D01*
X28422439Y-49119987D01*
X28186226Y-49252557D01*
X27971822Y-49418112D01*
X27783822Y-49613109D01*
X27783816Y-49613116D01*
X27626202Y-49833419D01*
X27626199Y-49833424D01*
X27502350Y-50074309D01*
X27502343Y-50074327D01*
X27414884Y-50330685D01*
X27414881Y-50330699D01*
X27365681Y-50597068D01*
X27365680Y-50597075D01*
X27355787Y-50867763D01*
X25400500Y-50867763D01*
X25400500Y-48607870D01*
X33549500Y-48607870D01*
X33549501Y-48607876D01*
X33555908Y-48667483D01*
X33606202Y-48802328D01*
X33606206Y-48802335D01*
X33692452Y-48917544D01*
X33692455Y-48917547D01*
X33807664Y-49003793D01*
X33807671Y-49003797D01*
X33942517Y-49054091D01*
X33942516Y-49054091D01*
X33949444Y-49054835D01*
X34002127Y-49060500D01*
X35697872Y-49060499D01*
X35757483Y-49054091D01*
X35892331Y-49003796D01*
X36007546Y-48917546D01*
X36093796Y-48802331D01*
X36144091Y-48667483D01*
X36147862Y-48632401D01*
X36174599Y-48567855D01*
X36231990Y-48528006D01*
X36301816Y-48525511D01*
X36361905Y-48561163D01*
X36372726Y-48574536D01*
X36389956Y-48599143D01*
X36550858Y-48760045D01*
X36550861Y-48760047D01*
X36737266Y-48890568D01*
X36943504Y-48986739D01*
X36943509Y-48986740D01*
X36943511Y-48986741D01*
X36996415Y-49000916D01*
X37163308Y-49045635D01*
X37325230Y-49059801D01*
X37389998Y-49065468D01*
X37390000Y-49065468D01*
X37390002Y-49065468D01*
X37446807Y-49060498D01*
X37616692Y-49045635D01*
X37836496Y-48986739D01*
X38042734Y-48890568D01*
X38229139Y-48760047D01*
X38390047Y-48599139D01*
X38520568Y-48412734D01*
X38547618Y-48354724D01*
X38593790Y-48302285D01*
X38660983Y-48283133D01*
X38727865Y-48303348D01*
X38772382Y-48354725D01*
X38799429Y-48412728D01*
X38799432Y-48412734D01*
X38929954Y-48599141D01*
X39090858Y-48760045D01*
X39090861Y-48760047D01*
X39277266Y-48890568D01*
X39483504Y-48986739D01*
X39483509Y-48986740D01*
X39483511Y-48986741D01*
X39536415Y-49000916D01*
X39703308Y-49045635D01*
X39865230Y-49059801D01*
X39929998Y-49065468D01*
X39930000Y-49065468D01*
X39930002Y-49065468D01*
X39986807Y-49060498D01*
X40156692Y-49045635D01*
X40376496Y-48986739D01*
X40582734Y-48890568D01*
X40769139Y-48760047D01*
X40930047Y-48599139D01*
X41060568Y-48412734D01*
X41087895Y-48354129D01*
X41134064Y-48301695D01*
X41201257Y-48282542D01*
X41268139Y-48302757D01*
X41312657Y-48354133D01*
X41339865Y-48412481D01*
X41339866Y-48412483D01*
X41390973Y-48485471D01*
X41390973Y-48485472D01*
X41861049Y-48015395D01*
X41922372Y-47981910D01*
X41992063Y-47986894D01*
X42047997Y-48028765D01*
X42053045Y-48036036D01*
X42088238Y-48090797D01*
X42088239Y-48090798D01*
X42166799Y-48158870D01*
X42203602Y-48190759D01*
X42201293Y-48193422D01*
X42236006Y-48233499D01*
X42245935Y-48302660D01*
X42216898Y-48366210D01*
X42210882Y-48372669D01*
X41744526Y-48839025D01*
X41744526Y-48839026D01*
X41817512Y-48890131D01*
X41817516Y-48890133D01*
X42023673Y-48986265D01*
X42023682Y-48986269D01*
X42243389Y-49045139D01*
X42243400Y-49045141D01*
X42469998Y-49064966D01*
X42470002Y-49064966D01*
X42696599Y-49045141D01*
X42696610Y-49045139D01*
X42916317Y-48986269D01*
X42916331Y-48986264D01*
X43122478Y-48890136D01*
X43195472Y-48839025D01*
X42729116Y-48372669D01*
X42695631Y-48311346D01*
X42700615Y-48241654D01*
X42737641Y-48192193D01*
X42736398Y-48190759D01*
X42743100Y-48184952D01*
X42851761Y-48090798D01*
X42886955Y-48036034D01*
X42939754Y-47990283D01*
X43008913Y-47980338D01*
X43072469Y-48009362D01*
X43078949Y-48015395D01*
X43549025Y-48485472D01*
X43600133Y-48412482D01*
X43627341Y-48354135D01*
X43673513Y-48301696D01*
X43740707Y-48282543D01*
X43807588Y-48302758D01*
X43852105Y-48354132D01*
X43879432Y-48412734D01*
X43930363Y-48485471D01*
X44009954Y-48599141D01*
X44170858Y-48760045D01*
X44170861Y-48760047D01*
X44357266Y-48890568D01*
X44563504Y-48986739D01*
X44563509Y-48986740D01*
X44563511Y-48986741D01*
X44616415Y-49000916D01*
X44783308Y-49045635D01*
X44945230Y-49059801D01*
X45009998Y-49065468D01*
X45010000Y-49065468D01*
X45010002Y-49065468D01*
X45066807Y-49060498D01*
X45236692Y-49045635D01*
X45456496Y-48986739D01*
X45662734Y-48890568D01*
X45849139Y-48760047D01*
X46010047Y-48599139D01*
X46140568Y-48412734D01*
X46167618Y-48354724D01*
X46213790Y-48302285D01*
X46280983Y-48283133D01*
X46347865Y-48303348D01*
X46392382Y-48354725D01*
X46419429Y-48412728D01*
X46419432Y-48412734D01*
X46549954Y-48599141D01*
X46710858Y-48760045D01*
X46710861Y-48760047D01*
X46897266Y-48890568D01*
X47103504Y-48986739D01*
X47103509Y-48986740D01*
X47103511Y-48986741D01*
X47156415Y-49000916D01*
X47323308Y-49045635D01*
X47485230Y-49059801D01*
X47549998Y-49065468D01*
X47550000Y-49065468D01*
X47550002Y-49065468D01*
X47606807Y-49060498D01*
X47776692Y-49045635D01*
X47996496Y-48986739D01*
X48202734Y-48890568D01*
X48389139Y-48760047D01*
X48550047Y-48599139D01*
X48680568Y-48412734D01*
X48707618Y-48354724D01*
X48753790Y-48302285D01*
X48820983Y-48283133D01*
X48887865Y-48303348D01*
X48932382Y-48354725D01*
X48959429Y-48412728D01*
X48959432Y-48412734D01*
X49089954Y-48599141D01*
X49250858Y-48760045D01*
X49250861Y-48760047D01*
X49437266Y-48890568D01*
X49643504Y-48986739D01*
X49643509Y-48986740D01*
X49643511Y-48986741D01*
X49696415Y-49000916D01*
X49863308Y-49045635D01*
X50025230Y-49059801D01*
X50089998Y-49065468D01*
X50090000Y-49065468D01*
X50090002Y-49065468D01*
X50146807Y-49060498D01*
X50316692Y-49045635D01*
X50536496Y-48986739D01*
X50742734Y-48890568D01*
X50929139Y-48760047D01*
X51090047Y-48599139D01*
X51220568Y-48412734D01*
X51247618Y-48354724D01*
X51293790Y-48302285D01*
X51360983Y-48283133D01*
X51427865Y-48303348D01*
X51472382Y-48354725D01*
X51499429Y-48412728D01*
X51499432Y-48412734D01*
X51629954Y-48599141D01*
X51790858Y-48760045D01*
X51790861Y-48760047D01*
X51977266Y-48890568D01*
X52183504Y-48986739D01*
X52183509Y-48986740D01*
X52183511Y-48986741D01*
X52236415Y-49000916D01*
X52403308Y-49045635D01*
X52565230Y-49059801D01*
X52629998Y-49065468D01*
X52630000Y-49065468D01*
X52630002Y-49065468D01*
X52686807Y-49060498D01*
X52856692Y-49045635D01*
X53076496Y-48986739D01*
X53282734Y-48890568D01*
X53469139Y-48760047D01*
X53630047Y-48599139D01*
X53760568Y-48412734D01*
X53787618Y-48354724D01*
X53833790Y-48302285D01*
X53900983Y-48283133D01*
X53967865Y-48303348D01*
X54012382Y-48354725D01*
X54039429Y-48412728D01*
X54039432Y-48412734D01*
X54169954Y-48599141D01*
X54330858Y-48760045D01*
X54330861Y-48760047D01*
X54517266Y-48890568D01*
X54723504Y-48986739D01*
X54723509Y-48986740D01*
X54723511Y-48986741D01*
X54776415Y-49000916D01*
X54943308Y-49045635D01*
X55105230Y-49059801D01*
X55169998Y-49065468D01*
X55170000Y-49065468D01*
X55170002Y-49065468D01*
X55226807Y-49060498D01*
X55396692Y-49045635D01*
X55616496Y-48986739D01*
X55822734Y-48890568D01*
X56009139Y-48760047D01*
X56170047Y-48599139D01*
X56300568Y-48412734D01*
X56327619Y-48354721D01*
X56373788Y-48302286D01*
X56440981Y-48283133D01*
X56507862Y-48303348D01*
X56552380Y-48354722D01*
X56579432Y-48412734D01*
X56630363Y-48485471D01*
X56709954Y-48599141D01*
X56870858Y-48760045D01*
X56870861Y-48760047D01*
X57057266Y-48890568D01*
X57263504Y-48986739D01*
X57263509Y-48986740D01*
X57263511Y-48986741D01*
X57316415Y-49000916D01*
X57483308Y-49045635D01*
X57645230Y-49059801D01*
X57709998Y-49065468D01*
X57710000Y-49065468D01*
X57710002Y-49065468D01*
X57766807Y-49060498D01*
X57936692Y-49045635D01*
X58156496Y-48986739D01*
X58362734Y-48890568D01*
X58549139Y-48760047D01*
X58710047Y-48599139D01*
X58840568Y-48412734D01*
X58867619Y-48354721D01*
X58913788Y-48302286D01*
X58980981Y-48283133D01*
X59047862Y-48303348D01*
X59092380Y-48354722D01*
X59119432Y-48412734D01*
X59170363Y-48485471D01*
X59249954Y-48599141D01*
X59410858Y-48760045D01*
X59410861Y-48760047D01*
X59597266Y-48890568D01*
X59803504Y-48986739D01*
X59803509Y-48986740D01*
X59803511Y-48986741D01*
X59856415Y-49000916D01*
X60023308Y-49045635D01*
X60185230Y-49059801D01*
X60249998Y-49065468D01*
X60250000Y-49065468D01*
X60250002Y-49065468D01*
X60306807Y-49060498D01*
X60476692Y-49045635D01*
X60696496Y-48986739D01*
X60902734Y-48890568D01*
X61089139Y-48760047D01*
X61250047Y-48599139D01*
X61380568Y-48412734D01*
X61407619Y-48354721D01*
X61453788Y-48302286D01*
X61520981Y-48283133D01*
X61587862Y-48303348D01*
X61632380Y-48354722D01*
X61659432Y-48412734D01*
X61710363Y-48485471D01*
X61789954Y-48599141D01*
X61950858Y-48760045D01*
X61950861Y-48760047D01*
X62137266Y-48890568D01*
X62343504Y-48986739D01*
X62343509Y-48986740D01*
X62343511Y-48986741D01*
X62396415Y-49000916D01*
X62563308Y-49045635D01*
X62725230Y-49059801D01*
X62789998Y-49065468D01*
X62790000Y-49065468D01*
X62790002Y-49065468D01*
X62846807Y-49060498D01*
X63016692Y-49045635D01*
X63236496Y-48986739D01*
X63442734Y-48890568D01*
X63629139Y-48760047D01*
X63790047Y-48599139D01*
X63920568Y-48412734D01*
X63947619Y-48354721D01*
X63993788Y-48302286D01*
X64060981Y-48283133D01*
X64127862Y-48303348D01*
X64172380Y-48354722D01*
X64199432Y-48412734D01*
X64250363Y-48485471D01*
X64329954Y-48599141D01*
X64490858Y-48760045D01*
X64490861Y-48760047D01*
X64677266Y-48890568D01*
X64883504Y-48986739D01*
X64883509Y-48986740D01*
X64883511Y-48986741D01*
X64936415Y-49000916D01*
X65103308Y-49045635D01*
X65265230Y-49059801D01*
X65329998Y-49065468D01*
X65330000Y-49065468D01*
X65330002Y-49065468D01*
X65386807Y-49060498D01*
X65556692Y-49045635D01*
X65776496Y-48986739D01*
X65982734Y-48890568D01*
X66169139Y-48760047D01*
X66330047Y-48599139D01*
X66460568Y-48412734D01*
X66487618Y-48354724D01*
X66533790Y-48302285D01*
X66600983Y-48283133D01*
X66667865Y-48303348D01*
X66712382Y-48354725D01*
X66739429Y-48412728D01*
X66739432Y-48412734D01*
X66869954Y-48599141D01*
X67030858Y-48760045D01*
X67030861Y-48760047D01*
X67217266Y-48890568D01*
X67423504Y-48986739D01*
X67423509Y-48986740D01*
X67423511Y-48986741D01*
X67476415Y-49000916D01*
X67643308Y-49045635D01*
X67805230Y-49059801D01*
X67869998Y-49065468D01*
X67870000Y-49065468D01*
X67870002Y-49065468D01*
X67926807Y-49060498D01*
X68096692Y-49045635D01*
X68316496Y-48986739D01*
X68522734Y-48890568D01*
X68709139Y-48760047D01*
X68870047Y-48599139D01*
X69000568Y-48412734D01*
X69027618Y-48354724D01*
X69073790Y-48302285D01*
X69140983Y-48283133D01*
X69207865Y-48303348D01*
X69252382Y-48354725D01*
X69279429Y-48412728D01*
X69279432Y-48412734D01*
X69409954Y-48599141D01*
X69570858Y-48760045D01*
X69570861Y-48760047D01*
X69757266Y-48890568D01*
X69963504Y-48986739D01*
X69963509Y-48986740D01*
X69963511Y-48986741D01*
X70016415Y-49000916D01*
X70183308Y-49045635D01*
X70345230Y-49059801D01*
X70409998Y-49065468D01*
X70410000Y-49065468D01*
X70410002Y-49065468D01*
X70466807Y-49060498D01*
X70636692Y-49045635D01*
X70856496Y-48986739D01*
X71062734Y-48890568D01*
X71249139Y-48760047D01*
X71410047Y-48599139D01*
X71540568Y-48412734D01*
X71567618Y-48354724D01*
X71613790Y-48302285D01*
X71680983Y-48283133D01*
X71747865Y-48303348D01*
X71792382Y-48354725D01*
X71819429Y-48412728D01*
X71819432Y-48412734D01*
X71949954Y-48599141D01*
X72110858Y-48760045D01*
X72110861Y-48760047D01*
X72297266Y-48890568D01*
X72503504Y-48986739D01*
X72503509Y-48986740D01*
X72503511Y-48986741D01*
X72556415Y-49000916D01*
X72723308Y-49045635D01*
X72885230Y-49059801D01*
X72949998Y-49065468D01*
X72950000Y-49065468D01*
X72950002Y-49065468D01*
X73006807Y-49060498D01*
X73176692Y-49045635D01*
X73396496Y-48986739D01*
X73602734Y-48890568D01*
X73789139Y-48760047D01*
X73950047Y-48599139D01*
X74080568Y-48412734D01*
X74176739Y-48206496D01*
X74235635Y-47986692D01*
X74255468Y-47760000D01*
X74235635Y-47533308D01*
X74176739Y-47313504D01*
X74080568Y-47107266D01*
X73950047Y-46920861D01*
X73950045Y-46920858D01*
X73789141Y-46759954D01*
X73602734Y-46629432D01*
X73602732Y-46629431D01*
X73396497Y-46533261D01*
X73396488Y-46533258D01*
X73176697Y-46474366D01*
X73176693Y-46474365D01*
X73176692Y-46474365D01*
X73176691Y-46474364D01*
X73176686Y-46474364D01*
X72950002Y-46454532D01*
X72949998Y-46454532D01*
X72723313Y-46474364D01*
X72723302Y-46474366D01*
X72503511Y-46533258D01*
X72503502Y-46533261D01*
X72297267Y-46629431D01*
X72297265Y-46629432D01*
X72110858Y-46759954D01*
X71949954Y-46920858D01*
X71819432Y-47107265D01*
X71819431Y-47107267D01*
X71792382Y-47165275D01*
X71746209Y-47217714D01*
X71679016Y-47236866D01*
X71612135Y-47216650D01*
X71567618Y-47165275D01*
X71540686Y-47107520D01*
X71540568Y-47107266D01*
X71410047Y-46920861D01*
X71410045Y-46920858D01*
X71249141Y-46759954D01*
X71062734Y-46629432D01*
X71062732Y-46629431D01*
X70856497Y-46533261D01*
X70856488Y-46533258D01*
X70636697Y-46474366D01*
X70636693Y-46474365D01*
X70636692Y-46474365D01*
X70636691Y-46474364D01*
X70636686Y-46474364D01*
X70410002Y-46454532D01*
X70409998Y-46454532D01*
X70183313Y-46474364D01*
X70183302Y-46474366D01*
X69963511Y-46533258D01*
X69963502Y-46533261D01*
X69757267Y-46629431D01*
X69757265Y-46629432D01*
X69570858Y-46759954D01*
X69409954Y-46920858D01*
X69279432Y-47107265D01*
X69279431Y-47107267D01*
X69252382Y-47165275D01*
X69206209Y-47217714D01*
X69139016Y-47236866D01*
X69072135Y-47216650D01*
X69027618Y-47165275D01*
X69000686Y-47107520D01*
X69000568Y-47107266D01*
X68870047Y-46920861D01*
X68870045Y-46920858D01*
X68709141Y-46759954D01*
X68522734Y-46629432D01*
X68522732Y-46629431D01*
X68316497Y-46533261D01*
X68316488Y-46533258D01*
X68096697Y-46474366D01*
X68096693Y-46474365D01*
X68096692Y-46474365D01*
X68096691Y-46474364D01*
X68096686Y-46474364D01*
X67870002Y-46454532D01*
X67869998Y-46454532D01*
X67643313Y-46474364D01*
X67643302Y-46474366D01*
X67423511Y-46533258D01*
X67423502Y-46533261D01*
X67217267Y-46629431D01*
X67217265Y-46629432D01*
X67030858Y-46759954D01*
X66869954Y-46920858D01*
X66739432Y-47107265D01*
X66739431Y-47107267D01*
X66712382Y-47165275D01*
X66666209Y-47217714D01*
X66599016Y-47236866D01*
X66532135Y-47216650D01*
X66487618Y-47165275D01*
X66460686Y-47107520D01*
X66460568Y-47107266D01*
X66330047Y-46920861D01*
X66330045Y-46920858D01*
X66169141Y-46759954D01*
X65982734Y-46629432D01*
X65982732Y-46629431D01*
X65776497Y-46533261D01*
X65776488Y-46533258D01*
X65556697Y-46474366D01*
X65556693Y-46474365D01*
X65556692Y-46474365D01*
X65556691Y-46474364D01*
X65556686Y-46474364D01*
X65330002Y-46454532D01*
X65329998Y-46454532D01*
X65103313Y-46474364D01*
X65103302Y-46474366D01*
X64883511Y-46533258D01*
X64883502Y-46533261D01*
X64677267Y-46629431D01*
X64677265Y-46629432D01*
X64490858Y-46759954D01*
X64329954Y-46920858D01*
X64199432Y-47107265D01*
X64199430Y-47107268D01*
X64172380Y-47165277D01*
X64126207Y-47217715D01*
X64059013Y-47236866D01*
X63992132Y-47216649D01*
X63947619Y-47165277D01*
X63920568Y-47107266D01*
X63842856Y-46996280D01*
X63790045Y-46920858D01*
X63629141Y-46759954D01*
X63442734Y-46629432D01*
X63442732Y-46629431D01*
X63236497Y-46533261D01*
X63236488Y-46533258D01*
X63016697Y-46474366D01*
X63016693Y-46474365D01*
X63016692Y-46474365D01*
X63016691Y-46474364D01*
X63016686Y-46474364D01*
X62790002Y-46454532D01*
X62789998Y-46454532D01*
X62563313Y-46474364D01*
X62563302Y-46474366D01*
X62343511Y-46533258D01*
X62343502Y-46533261D01*
X62137267Y-46629431D01*
X62137265Y-46629432D01*
X61950858Y-46759954D01*
X61789954Y-46920858D01*
X61659432Y-47107265D01*
X61659430Y-47107268D01*
X61632380Y-47165277D01*
X61586207Y-47217715D01*
X61519013Y-47236866D01*
X61452132Y-47216649D01*
X61407619Y-47165277D01*
X61380568Y-47107266D01*
X61302856Y-46996280D01*
X61250045Y-46920858D01*
X61089141Y-46759954D01*
X60902734Y-46629432D01*
X60902732Y-46629431D01*
X60696497Y-46533261D01*
X60696488Y-46533258D01*
X60476697Y-46474366D01*
X60476693Y-46474365D01*
X60476692Y-46474365D01*
X60476691Y-46474364D01*
X60476686Y-46474364D01*
X60250002Y-46454532D01*
X60249998Y-46454532D01*
X60023313Y-46474364D01*
X60023302Y-46474366D01*
X59803511Y-46533258D01*
X59803502Y-46533261D01*
X59597267Y-46629431D01*
X59597265Y-46629432D01*
X59410858Y-46759954D01*
X59249954Y-46920858D01*
X59119432Y-47107265D01*
X59119431Y-47107267D01*
X59092382Y-47165275D01*
X59046209Y-47217714D01*
X58979016Y-47236866D01*
X58912135Y-47216650D01*
X58867618Y-47165275D01*
X58840686Y-47107520D01*
X58840568Y-47107266D01*
X58710047Y-46920861D01*
X58710045Y-46920858D01*
X58549141Y-46759954D01*
X58362734Y-46629432D01*
X58362732Y-46629431D01*
X58156497Y-46533261D01*
X58156488Y-46533258D01*
X57936697Y-46474366D01*
X57936693Y-46474365D01*
X57936692Y-46474365D01*
X57936691Y-46474364D01*
X57936686Y-46474364D01*
X57710002Y-46454532D01*
X57709998Y-46454532D01*
X57483313Y-46474364D01*
X57483302Y-46474366D01*
X57263511Y-46533258D01*
X57263502Y-46533261D01*
X57057267Y-46629431D01*
X57057265Y-46629432D01*
X56870858Y-46759954D01*
X56709954Y-46920858D01*
X56579432Y-47107265D01*
X56579431Y-47107267D01*
X56552382Y-47165275D01*
X56506209Y-47217714D01*
X56439016Y-47236866D01*
X56372135Y-47216650D01*
X56327618Y-47165275D01*
X56300686Y-47107520D01*
X56300568Y-47107266D01*
X56170047Y-46920861D01*
X56170045Y-46920858D01*
X56009141Y-46759954D01*
X55822734Y-46629432D01*
X55822732Y-46629431D01*
X55616497Y-46533261D01*
X55616488Y-46533258D01*
X55396697Y-46474366D01*
X55396693Y-46474365D01*
X55396692Y-46474365D01*
X55396691Y-46474364D01*
X55396686Y-46474364D01*
X55170002Y-46454532D01*
X55169998Y-46454532D01*
X54943313Y-46474364D01*
X54943302Y-46474366D01*
X54723511Y-46533258D01*
X54723502Y-46533261D01*
X54517267Y-46629431D01*
X54517265Y-46629432D01*
X54330858Y-46759954D01*
X54169954Y-46920858D01*
X54039432Y-47107265D01*
X54039431Y-47107267D01*
X54012382Y-47165275D01*
X53966209Y-47217714D01*
X53899016Y-47236866D01*
X53832135Y-47216650D01*
X53787618Y-47165275D01*
X53760686Y-47107520D01*
X53760568Y-47107266D01*
X53630047Y-46920861D01*
X53630045Y-46920858D01*
X53469141Y-46759954D01*
X53282734Y-46629432D01*
X53282732Y-46629431D01*
X53076497Y-46533261D01*
X53076488Y-46533258D01*
X52856697Y-46474366D01*
X52856693Y-46474365D01*
X52856692Y-46474365D01*
X52856691Y-46474364D01*
X52856686Y-46474364D01*
X52630002Y-46454532D01*
X52629998Y-46454532D01*
X52403313Y-46474364D01*
X52403302Y-46474366D01*
X52183511Y-46533258D01*
X52183502Y-46533261D01*
X51977267Y-46629431D01*
X51977265Y-46629432D01*
X51790858Y-46759954D01*
X51629954Y-46920858D01*
X51499432Y-47107265D01*
X51499431Y-47107267D01*
X51472382Y-47165275D01*
X51426209Y-47217714D01*
X51359016Y-47236866D01*
X51292135Y-47216650D01*
X51247618Y-47165275D01*
X51220686Y-47107520D01*
X51220568Y-47107266D01*
X51090047Y-46920861D01*
X51090045Y-46920858D01*
X50929141Y-46759954D01*
X50742734Y-46629432D01*
X50742732Y-46629431D01*
X50536497Y-46533261D01*
X50536488Y-46533258D01*
X50316697Y-46474366D01*
X50316693Y-46474365D01*
X50316692Y-46474365D01*
X50316691Y-46474364D01*
X50316686Y-46474364D01*
X50090002Y-46454532D01*
X50089998Y-46454532D01*
X49863313Y-46474364D01*
X49863302Y-46474366D01*
X49643511Y-46533258D01*
X49643502Y-46533261D01*
X49437267Y-46629431D01*
X49437265Y-46629432D01*
X49250858Y-46759954D01*
X49089954Y-46920858D01*
X48959432Y-47107265D01*
X48959431Y-47107267D01*
X48932382Y-47165275D01*
X48886209Y-47217714D01*
X48819016Y-47236866D01*
X48752135Y-47216650D01*
X48707618Y-47165275D01*
X48680686Y-47107520D01*
X48680568Y-47107266D01*
X48550047Y-46920861D01*
X48550045Y-46920858D01*
X48389141Y-46759954D01*
X48202734Y-46629432D01*
X48202732Y-46629431D01*
X47996497Y-46533261D01*
X47996488Y-46533258D01*
X47776697Y-46474366D01*
X47776693Y-46474365D01*
X47776692Y-46474365D01*
X47776691Y-46474364D01*
X47776686Y-46474364D01*
X47550002Y-46454532D01*
X47549998Y-46454532D01*
X47323313Y-46474364D01*
X47323302Y-46474366D01*
X47103511Y-46533258D01*
X47103502Y-46533261D01*
X46897267Y-46629431D01*
X46897265Y-46629432D01*
X46710858Y-46759954D01*
X46549954Y-46920858D01*
X46419432Y-47107265D01*
X46419431Y-47107267D01*
X46392382Y-47165275D01*
X46346209Y-47217714D01*
X46279016Y-47236866D01*
X46212135Y-47216650D01*
X46167618Y-47165275D01*
X46140686Y-47107520D01*
X46140568Y-47107266D01*
X46010047Y-46920861D01*
X46010045Y-46920858D01*
X45849141Y-46759954D01*
X45662734Y-46629432D01*
X45662732Y-46629431D01*
X45456497Y-46533261D01*
X45456488Y-46533258D01*
X45236697Y-46474366D01*
X45236693Y-46474365D01*
X45236692Y-46474365D01*
X45236691Y-46474364D01*
X45236686Y-46474364D01*
X45010002Y-46454532D01*
X45009998Y-46454532D01*
X44783313Y-46474364D01*
X44783302Y-46474366D01*
X44563511Y-46533258D01*
X44563502Y-46533261D01*
X44357267Y-46629431D01*
X44357265Y-46629432D01*
X44170858Y-46759954D01*
X44009954Y-46920858D01*
X43879434Y-47107263D01*
X43879432Y-47107266D01*
X43852383Y-47165274D01*
X43852106Y-47165867D01*
X43805933Y-47218306D01*
X43738739Y-47237457D01*
X43671858Y-47217241D01*
X43627342Y-47165865D01*
X43600135Y-47107520D01*
X43600131Y-47107512D01*
X43549025Y-47034526D01*
X43078949Y-47504603D01*
X43017626Y-47538088D01*
X42947934Y-47533104D01*
X42892001Y-47491232D01*
X42886952Y-47483961D01*
X42851761Y-47429202D01*
X42743100Y-47335048D01*
X42743099Y-47335047D01*
X42736398Y-47329241D01*
X42738698Y-47326585D01*
X42703960Y-47286428D01*
X42694074Y-47217261D01*
X42723152Y-47153729D01*
X42729116Y-47147329D01*
X43195472Y-46680973D01*
X43122483Y-46629866D01*
X43122481Y-46629865D01*
X42916326Y-46533734D01*
X42916317Y-46533730D01*
X42696610Y-46474860D01*
X42696599Y-46474858D01*
X42470002Y-46455034D01*
X42469998Y-46455034D01*
X42243400Y-46474858D01*
X42243389Y-46474860D01*
X42023682Y-46533730D01*
X42023673Y-46533734D01*
X41817513Y-46629868D01*
X41744526Y-46680973D01*
X42210883Y-47147330D01*
X42244368Y-47208653D01*
X42239384Y-47278345D01*
X42202357Y-47327805D01*
X42203602Y-47329241D01*
X42088237Y-47429203D01*
X42053046Y-47483962D01*
X42000242Y-47529717D01*
X41931084Y-47539661D01*
X41867528Y-47510636D01*
X41861050Y-47504604D01*
X41390973Y-47034526D01*
X41390972Y-47034527D01*
X41339869Y-47107511D01*
X41312657Y-47165867D01*
X41266484Y-47218306D01*
X41199290Y-47237457D01*
X41132409Y-47217241D01*
X41087893Y-47165865D01*
X41087617Y-47165274D01*
X41060568Y-47107266D01*
X40930047Y-46920861D01*
X40930045Y-46920858D01*
X40769141Y-46759954D01*
X40582734Y-46629432D01*
X40582732Y-46629431D01*
X40376497Y-46533261D01*
X40376488Y-46533258D01*
X40156697Y-46474366D01*
X40156693Y-46474365D01*
X40156692Y-46474365D01*
X40156691Y-46474364D01*
X40156686Y-46474364D01*
X39930002Y-46454532D01*
X39929998Y-46454532D01*
X39703313Y-46474364D01*
X39703302Y-46474366D01*
X39483511Y-46533258D01*
X39483502Y-46533261D01*
X39277267Y-46629431D01*
X39277265Y-46629432D01*
X39090858Y-46759954D01*
X38929954Y-46920858D01*
X38799432Y-47107265D01*
X38799431Y-47107267D01*
X38772382Y-47165275D01*
X38726209Y-47217714D01*
X38659016Y-47236866D01*
X38592135Y-47216650D01*
X38547618Y-47165275D01*
X38520686Y-47107520D01*
X38520568Y-47107266D01*
X38390047Y-46920861D01*
X38390045Y-46920858D01*
X38229141Y-46759954D01*
X38042734Y-46629432D01*
X38042732Y-46629431D01*
X37836497Y-46533261D01*
X37836488Y-46533258D01*
X37616697Y-46474366D01*
X37616693Y-46474365D01*
X37616692Y-46474365D01*
X37616691Y-46474364D01*
X37616686Y-46474364D01*
X37390002Y-46454532D01*
X37389998Y-46454532D01*
X37163313Y-46474364D01*
X37163302Y-46474366D01*
X36943511Y-46533258D01*
X36943502Y-46533261D01*
X36737267Y-46629431D01*
X36737265Y-46629432D01*
X36550858Y-46759954D01*
X36389954Y-46920858D01*
X36372725Y-46945464D01*
X36318147Y-46989088D01*
X36248648Y-46996280D01*
X36186294Y-46964757D01*
X36150882Y-46904526D01*
X36147861Y-46887591D01*
X36144091Y-46852516D01*
X36093797Y-46717671D01*
X36093793Y-46717664D01*
X36007547Y-46602455D01*
X36007544Y-46602452D01*
X35892335Y-46516206D01*
X35892328Y-46516202D01*
X35757482Y-46465908D01*
X35757483Y-46465908D01*
X35697883Y-46459501D01*
X35697881Y-46459500D01*
X35697873Y-46459500D01*
X35697864Y-46459500D01*
X34002129Y-46459500D01*
X34002123Y-46459501D01*
X33942516Y-46465908D01*
X33807671Y-46516202D01*
X33807664Y-46516206D01*
X33692455Y-46602452D01*
X33692452Y-46602455D01*
X33606206Y-46717664D01*
X33606202Y-46717671D01*
X33555908Y-46852517D01*
X33549501Y-46912116D01*
X33549500Y-46912135D01*
X33549500Y-48607870D01*
X25400500Y-48607870D01*
X25400500Y-43491166D01*
X25403295Y-38167763D01*
X74345787Y-38167763D01*
X74375413Y-38437013D01*
X74375415Y-38437024D01*
X74443926Y-38699082D01*
X74443928Y-38699088D01*
X74549870Y-38948390D01*
X74621998Y-39066575D01*
X74690979Y-39179605D01*
X74690986Y-39179615D01*
X74864253Y-39387819D01*
X74864259Y-39387824D01*
X75065998Y-39568582D01*
X75291910Y-39718044D01*
X75537176Y-39833020D01*
X75537183Y-39833022D01*
X75537185Y-39833023D01*
X75796557Y-39911057D01*
X75796564Y-39911058D01*
X75796569Y-39911060D01*
X76064561Y-39950500D01*
X76064566Y-39950500D01*
X76267636Y-39950500D01*
X76319133Y-39946730D01*
X76470156Y-39935677D01*
X76582758Y-39910593D01*
X76734546Y-39876782D01*
X76734548Y-39876781D01*
X76734553Y-39876780D01*
X76987558Y-39780014D01*
X77223777Y-39647441D01*
X77438177Y-39481888D01*
X77626186Y-39286881D01*
X77783799Y-39066579D01*
X77857787Y-38922669D01*
X77907649Y-38825690D01*
X77907651Y-38825684D01*
X77907656Y-38825675D01*
X77995118Y-38569305D01*
X78044319Y-38302933D01*
X78054212Y-38032235D01*
X78024586Y-37762982D01*
X77956072Y-37500912D01*
X77850130Y-37251610D01*
X77709018Y-37020390D01*
X77619747Y-36913119D01*
X77535746Y-36812180D01*
X77535740Y-36812175D01*
X77334002Y-36631418D01*
X77108092Y-36481957D01*
X77108090Y-36481956D01*
X76862824Y-36366980D01*
X76862819Y-36366978D01*
X76862814Y-36366976D01*
X76603442Y-36288942D01*
X76603428Y-36288939D01*
X76487791Y-36271921D01*
X76335439Y-36249500D01*
X76132369Y-36249500D01*
X76132364Y-36249500D01*
X75929844Y-36264323D01*
X75929831Y-36264325D01*
X75665453Y-36323217D01*
X75665446Y-36323220D01*
X75412439Y-36419987D01*
X75176226Y-36552557D01*
X74961822Y-36718112D01*
X74773822Y-36913109D01*
X74773816Y-36913116D01*
X74616202Y-37133419D01*
X74616199Y-37133424D01*
X74492350Y-37374309D01*
X74492343Y-37374327D01*
X74404884Y-37630685D01*
X74404881Y-37630699D01*
X74355681Y-37897068D01*
X74355680Y-37897075D01*
X74345787Y-38167763D01*
X25403295Y-38167763D01*
X25408929Y-27440001D01*
X43704532Y-27440001D01*
X43724364Y-27666686D01*
X43724366Y-27666697D01*
X43783258Y-27886488D01*
X43783261Y-27886497D01*
X43879431Y-28092732D01*
X43879432Y-28092734D01*
X44009954Y-28279141D01*
X44170858Y-28440045D01*
X44170861Y-28440047D01*
X44357266Y-28570568D01*
X44563504Y-28666739D01*
X44783308Y-28725635D01*
X44945230Y-28739801D01*
X45009998Y-28745468D01*
X45010000Y-28745468D01*
X45010002Y-28745468D01*
X45066672Y-28740509D01*
X45236692Y-28725635D01*
X45456496Y-28666739D01*
X45662734Y-28570568D01*
X45849139Y-28440047D01*
X46010047Y-28279139D01*
X46140568Y-28092734D01*
X46167618Y-28034724D01*
X46213790Y-27982285D01*
X46280983Y-27963133D01*
X46347865Y-27983348D01*
X46392382Y-28034725D01*
X46419429Y-28092728D01*
X46419432Y-28092734D01*
X46549954Y-28279141D01*
X46710858Y-28440045D01*
X46710861Y-28440047D01*
X46897266Y-28570568D01*
X47103504Y-28666739D01*
X47323308Y-28725635D01*
X47485230Y-28739801D01*
X47549998Y-28745468D01*
X47550000Y-28745468D01*
X47550002Y-28745468D01*
X47606672Y-28740509D01*
X47776692Y-28725635D01*
X47996496Y-28666739D01*
X48202734Y-28570568D01*
X48389139Y-28440047D01*
X48550047Y-28279139D01*
X48680568Y-28092734D01*
X48707618Y-28034724D01*
X48753790Y-27982285D01*
X48820983Y-27963133D01*
X48887865Y-27983348D01*
X48932382Y-28034725D01*
X48959429Y-28092728D01*
X48959432Y-28092734D01*
X49089954Y-28279141D01*
X49250858Y-28440045D01*
X49250861Y-28440047D01*
X49437266Y-28570568D01*
X49643504Y-28666739D01*
X49863308Y-28725635D01*
X50025230Y-28739801D01*
X50089998Y-28745468D01*
X50090000Y-28745468D01*
X50090002Y-28745468D01*
X50146672Y-28740509D01*
X50316692Y-28725635D01*
X50536496Y-28666739D01*
X50742734Y-28570568D01*
X50929139Y-28440047D01*
X51090047Y-28279139D01*
X51220568Y-28092734D01*
X51247618Y-28034724D01*
X51293790Y-27982285D01*
X51360983Y-27963133D01*
X51427865Y-27983348D01*
X51472382Y-28034725D01*
X51499429Y-28092728D01*
X51499432Y-28092734D01*
X51629954Y-28279141D01*
X51790858Y-28440045D01*
X51790861Y-28440047D01*
X51977266Y-28570568D01*
X52183504Y-28666739D01*
X52403308Y-28725635D01*
X52565230Y-28739801D01*
X52629998Y-28745468D01*
X52630000Y-28745468D01*
X52630002Y-28745468D01*
X52686673Y-28740509D01*
X52856692Y-28725635D01*
X53076496Y-28666739D01*
X53282734Y-28570568D01*
X53469139Y-28440047D01*
X53630047Y-28279139D01*
X53760568Y-28092734D01*
X53787618Y-28034724D01*
X53833790Y-27982285D01*
X53900983Y-27963133D01*
X53967865Y-27983348D01*
X54012382Y-28034725D01*
X54039429Y-28092728D01*
X54039432Y-28092734D01*
X54169954Y-28279141D01*
X54330858Y-28440045D01*
X54330861Y-28440047D01*
X54517266Y-28570568D01*
X54723504Y-28666739D01*
X54943308Y-28725635D01*
X55105230Y-28739801D01*
X55169998Y-28745468D01*
X55170000Y-28745468D01*
X55170002Y-28745468D01*
X55226672Y-28740509D01*
X55396692Y-28725635D01*
X55616496Y-28666739D01*
X55822734Y-28570568D01*
X56009139Y-28440047D01*
X56170047Y-28279139D01*
X56300568Y-28092734D01*
X56327619Y-28034721D01*
X56373788Y-27982286D01*
X56440981Y-27963133D01*
X56507862Y-27983348D01*
X56552380Y-28034722D01*
X56579432Y-28092734D01*
X56579433Y-28092735D01*
X56709954Y-28279141D01*
X56870858Y-28440045D01*
X56870861Y-28440047D01*
X57057266Y-28570568D01*
X57263504Y-28666739D01*
X57483308Y-28725635D01*
X57645230Y-28739801D01*
X57709998Y-28745468D01*
X57710000Y-28745468D01*
X57710002Y-28745468D01*
X57766672Y-28740509D01*
X57936692Y-28725635D01*
X58156496Y-28666739D01*
X58362734Y-28570568D01*
X58549139Y-28440047D01*
X58710047Y-28279139D01*
X58840568Y-28092734D01*
X58867619Y-28034721D01*
X58913788Y-27982286D01*
X58980981Y-27963133D01*
X59047862Y-27983348D01*
X59092380Y-28034722D01*
X59119432Y-28092734D01*
X59119433Y-28092735D01*
X59249954Y-28279141D01*
X59410858Y-28440045D01*
X59410861Y-28440047D01*
X59597266Y-28570568D01*
X59803504Y-28666739D01*
X60023308Y-28725635D01*
X60185230Y-28739801D01*
X60249998Y-28745468D01*
X60250000Y-28745468D01*
X60250002Y-28745468D01*
X60306672Y-28740509D01*
X60476692Y-28725635D01*
X60696496Y-28666739D01*
X60902734Y-28570568D01*
X61089139Y-28440047D01*
X61250047Y-28279139D01*
X61380568Y-28092734D01*
X61407619Y-28034721D01*
X61453788Y-27982286D01*
X61520981Y-27963133D01*
X61587862Y-27983348D01*
X61632380Y-28034722D01*
X61659432Y-28092734D01*
X61659433Y-28092735D01*
X61789954Y-28279141D01*
X61950858Y-28440045D01*
X61950861Y-28440047D01*
X62137266Y-28570568D01*
X62343504Y-28666739D01*
X62563308Y-28725635D01*
X62725230Y-28739801D01*
X62789998Y-28745468D01*
X62790000Y-28745468D01*
X62790002Y-28745468D01*
X62846673Y-28740509D01*
X63016692Y-28725635D01*
X63236496Y-28666739D01*
X63442734Y-28570568D01*
X63629139Y-28440047D01*
X63790047Y-28279139D01*
X63920568Y-28092734D01*
X63947619Y-28034721D01*
X63993788Y-27982286D01*
X64060981Y-27963133D01*
X64127862Y-27983348D01*
X64172380Y-28034722D01*
X64199432Y-28092734D01*
X64199433Y-28092735D01*
X64329954Y-28279141D01*
X64490858Y-28440045D01*
X64490861Y-28440047D01*
X64677266Y-28570568D01*
X64883504Y-28666739D01*
X65103308Y-28725635D01*
X65265230Y-28739801D01*
X65329998Y-28745468D01*
X65330000Y-28745468D01*
X65330002Y-28745468D01*
X65386672Y-28740509D01*
X65556692Y-28725635D01*
X65776496Y-28666739D01*
X65982734Y-28570568D01*
X66169139Y-28440047D01*
X66330047Y-28279139D01*
X66460568Y-28092734D01*
X66487618Y-28034724D01*
X66533790Y-27982285D01*
X66600983Y-27963133D01*
X66667865Y-27983348D01*
X66712382Y-28034725D01*
X66739429Y-28092728D01*
X66739432Y-28092734D01*
X66869954Y-28279141D01*
X67030858Y-28440045D01*
X67030861Y-28440047D01*
X67217266Y-28570568D01*
X67423504Y-28666739D01*
X67643308Y-28725635D01*
X67805230Y-28739801D01*
X67869998Y-28745468D01*
X67870000Y-28745468D01*
X67870002Y-28745468D01*
X67926672Y-28740509D01*
X68096692Y-28725635D01*
X68316496Y-28666739D01*
X68522734Y-28570568D01*
X68709139Y-28440047D01*
X68870047Y-28279139D01*
X69000568Y-28092734D01*
X69027618Y-28034724D01*
X69073790Y-27982285D01*
X69140983Y-27963133D01*
X69207865Y-27983348D01*
X69252382Y-28034725D01*
X69279429Y-28092728D01*
X69279432Y-28092734D01*
X69409954Y-28279141D01*
X69570858Y-28440045D01*
X69570861Y-28440047D01*
X69757266Y-28570568D01*
X69963504Y-28666739D01*
X70183308Y-28725635D01*
X70345230Y-28739801D01*
X70409998Y-28745468D01*
X70410000Y-28745468D01*
X70410002Y-28745468D01*
X70466672Y-28740509D01*
X70636692Y-28725635D01*
X70856496Y-28666739D01*
X71062734Y-28570568D01*
X71249139Y-28440047D01*
X71410047Y-28279139D01*
X71540568Y-28092734D01*
X71567618Y-28034724D01*
X71613790Y-27982285D01*
X71680983Y-27963133D01*
X71747865Y-27983348D01*
X71792382Y-28034725D01*
X71819429Y-28092728D01*
X71819432Y-28092734D01*
X71949954Y-28279141D01*
X72110858Y-28440045D01*
X72110861Y-28440047D01*
X72297266Y-28570568D01*
X72503504Y-28666739D01*
X72723308Y-28725635D01*
X72885230Y-28739801D01*
X72949998Y-28745468D01*
X72950000Y-28745468D01*
X72950002Y-28745468D01*
X73006673Y-28740509D01*
X73176692Y-28725635D01*
X73396496Y-28666739D01*
X73602734Y-28570568D01*
X73789139Y-28440047D01*
X73950047Y-28279139D01*
X74080568Y-28092734D01*
X74176739Y-27886496D01*
X74235635Y-27666692D01*
X74255468Y-27440000D01*
X74235635Y-27213308D01*
X74176739Y-26993504D01*
X74080568Y-26787266D01*
X73950047Y-26600861D01*
X73950045Y-26600858D01*
X73789141Y-26439954D01*
X73602734Y-26309432D01*
X73602732Y-26309431D01*
X73396497Y-26213261D01*
X73396488Y-26213258D01*
X73176697Y-26154366D01*
X73176693Y-26154365D01*
X73176692Y-26154365D01*
X73176691Y-26154364D01*
X73176686Y-26154364D01*
X72950002Y-26134532D01*
X72949998Y-26134532D01*
X72723313Y-26154364D01*
X72723302Y-26154366D01*
X72503511Y-26213258D01*
X72503502Y-26213261D01*
X72297267Y-26309431D01*
X72297265Y-26309432D01*
X72110858Y-26439954D01*
X71949954Y-26600858D01*
X71819432Y-26787265D01*
X71819431Y-26787267D01*
X71792382Y-26845275D01*
X71746209Y-26897714D01*
X71679016Y-26916866D01*
X71612135Y-26896650D01*
X71567618Y-26845275D01*
X71567618Y-26845274D01*
X71540568Y-26787266D01*
X71410047Y-26600861D01*
X71410045Y-26600858D01*
X71249141Y-26439954D01*
X71062734Y-26309432D01*
X71062732Y-26309431D01*
X70856497Y-26213261D01*
X70856488Y-26213258D01*
X70636697Y-26154366D01*
X70636693Y-26154365D01*
X70636692Y-26154365D01*
X70636691Y-26154364D01*
X70636686Y-26154364D01*
X70410002Y-26134532D01*
X70409998Y-26134532D01*
X70183313Y-26154364D01*
X70183302Y-26154366D01*
X69963511Y-26213258D01*
X69963502Y-26213261D01*
X69757267Y-26309431D01*
X69757265Y-26309432D01*
X69570858Y-26439954D01*
X69409954Y-26600858D01*
X69279432Y-26787265D01*
X69279431Y-26787267D01*
X69252382Y-26845275D01*
X69206209Y-26897714D01*
X69139016Y-26916866D01*
X69072135Y-26896650D01*
X69027618Y-26845275D01*
X69027618Y-26845274D01*
X69000568Y-26787266D01*
X68870047Y-26600861D01*
X68870045Y-26600858D01*
X68709141Y-26439954D01*
X68522734Y-26309432D01*
X68522732Y-26309431D01*
X68316497Y-26213261D01*
X68316488Y-26213258D01*
X68096697Y-26154366D01*
X68096693Y-26154365D01*
X68096692Y-26154365D01*
X68096691Y-26154364D01*
X68096686Y-26154364D01*
X67870002Y-26134532D01*
X67869998Y-26134532D01*
X67643313Y-26154364D01*
X67643302Y-26154366D01*
X67423511Y-26213258D01*
X67423502Y-26213261D01*
X67217267Y-26309431D01*
X67217265Y-26309432D01*
X67030858Y-26439954D01*
X66869954Y-26600858D01*
X66739432Y-26787265D01*
X66739431Y-26787267D01*
X66712382Y-26845275D01*
X66666209Y-26897714D01*
X66599016Y-26916866D01*
X66532135Y-26896650D01*
X66487618Y-26845275D01*
X66487618Y-26845274D01*
X66460568Y-26787266D01*
X66330047Y-26600861D01*
X66330045Y-26600858D01*
X66169141Y-26439954D01*
X65982734Y-26309432D01*
X65982732Y-26309431D01*
X65776497Y-26213261D01*
X65776488Y-26213258D01*
X65556697Y-26154366D01*
X65556693Y-26154365D01*
X65556692Y-26154365D01*
X65556691Y-26154364D01*
X65556686Y-26154364D01*
X65330002Y-26134532D01*
X65329998Y-26134532D01*
X65103313Y-26154364D01*
X65103302Y-26154366D01*
X64883511Y-26213258D01*
X64883502Y-26213261D01*
X64677267Y-26309431D01*
X64677265Y-26309432D01*
X64490858Y-26439954D01*
X64329954Y-26600858D01*
X64199432Y-26787265D01*
X64199430Y-26787268D01*
X64172380Y-26845277D01*
X64126207Y-26897715D01*
X64059013Y-26916866D01*
X63992132Y-26896649D01*
X63947619Y-26845277D01*
X63920568Y-26787266D01*
X63790047Y-26600861D01*
X63790045Y-26600858D01*
X63629141Y-26439954D01*
X63442734Y-26309432D01*
X63442732Y-26309431D01*
X63236497Y-26213261D01*
X63236488Y-26213258D01*
X63016697Y-26154366D01*
X63016693Y-26154365D01*
X63016692Y-26154365D01*
X63016691Y-26154364D01*
X63016686Y-26154364D01*
X62790002Y-26134532D01*
X62789998Y-26134532D01*
X62563313Y-26154364D01*
X62563302Y-26154366D01*
X62343511Y-26213258D01*
X62343502Y-26213261D01*
X62137267Y-26309431D01*
X62137265Y-26309432D01*
X61950858Y-26439954D01*
X61789954Y-26600858D01*
X61659432Y-26787265D01*
X61659430Y-26787268D01*
X61632380Y-26845277D01*
X61586207Y-26897715D01*
X61519013Y-26916866D01*
X61452132Y-26896649D01*
X61407619Y-26845277D01*
X61380568Y-26787266D01*
X61250047Y-26600861D01*
X61250045Y-26600858D01*
X61089141Y-26439954D01*
X60902734Y-26309432D01*
X60902732Y-26309431D01*
X60696497Y-26213261D01*
X60696488Y-26213258D01*
X60476697Y-26154366D01*
X60476693Y-26154365D01*
X60476692Y-26154365D01*
X60476691Y-26154364D01*
X60476686Y-26154364D01*
X60250002Y-26134532D01*
X60249998Y-26134532D01*
X60023313Y-26154364D01*
X60023302Y-26154366D01*
X59803511Y-26213258D01*
X59803502Y-26213261D01*
X59597267Y-26309431D01*
X59597265Y-26309432D01*
X59410858Y-26439954D01*
X59249954Y-26600858D01*
X59119432Y-26787265D01*
X59119431Y-26787267D01*
X59092382Y-26845275D01*
X59046209Y-26897714D01*
X58979016Y-26916866D01*
X58912135Y-26896650D01*
X58867618Y-26845275D01*
X58867618Y-26845274D01*
X58840568Y-26787266D01*
X58710047Y-26600861D01*
X58710045Y-26600858D01*
X58549141Y-26439954D01*
X58362734Y-26309432D01*
X58362732Y-26309431D01*
X58156497Y-26213261D01*
X58156488Y-26213258D01*
X57936697Y-26154366D01*
X57936693Y-26154365D01*
X57936692Y-26154365D01*
X57936691Y-26154364D01*
X57936686Y-26154364D01*
X57710002Y-26134532D01*
X57709998Y-26134532D01*
X57483313Y-26154364D01*
X57483302Y-26154366D01*
X57263511Y-26213258D01*
X57263502Y-26213261D01*
X57057267Y-26309431D01*
X57057265Y-26309432D01*
X56870858Y-26439954D01*
X56709954Y-26600858D01*
X56579432Y-26787265D01*
X56579431Y-26787267D01*
X56552382Y-26845275D01*
X56506209Y-26897714D01*
X56439016Y-26916866D01*
X56372135Y-26896650D01*
X56327618Y-26845275D01*
X56327618Y-26845274D01*
X56300568Y-26787266D01*
X56170047Y-26600861D01*
X56170045Y-26600858D01*
X56009141Y-26439954D01*
X55822734Y-26309432D01*
X55822732Y-26309431D01*
X55616497Y-26213261D01*
X55616488Y-26213258D01*
X55396697Y-26154366D01*
X55396693Y-26154365D01*
X55396692Y-26154365D01*
X55396691Y-26154364D01*
X55396686Y-26154364D01*
X55170002Y-26134532D01*
X55169998Y-26134532D01*
X54943313Y-26154364D01*
X54943302Y-26154366D01*
X54723511Y-26213258D01*
X54723502Y-26213261D01*
X54517267Y-26309431D01*
X54517265Y-26309432D01*
X54330858Y-26439954D01*
X54169954Y-26600858D01*
X54039432Y-26787265D01*
X54039431Y-26787267D01*
X54012382Y-26845275D01*
X53966209Y-26897714D01*
X53899016Y-26916866D01*
X53832135Y-26896650D01*
X53787618Y-26845275D01*
X53787618Y-26845274D01*
X53760568Y-26787266D01*
X53630047Y-26600861D01*
X53630045Y-26600858D01*
X53469141Y-26439954D01*
X53282734Y-26309432D01*
X53282732Y-26309431D01*
X53076497Y-26213261D01*
X53076488Y-26213258D01*
X52856697Y-26154366D01*
X52856693Y-26154365D01*
X52856692Y-26154365D01*
X52856691Y-26154364D01*
X52856686Y-26154364D01*
X52630002Y-26134532D01*
X52629998Y-26134532D01*
X52403313Y-26154364D01*
X52403302Y-26154366D01*
X52183511Y-26213258D01*
X52183502Y-26213261D01*
X51977267Y-26309431D01*
X51977265Y-26309432D01*
X51790858Y-26439954D01*
X51629954Y-26600858D01*
X51499432Y-26787265D01*
X51499431Y-26787267D01*
X51472382Y-26845275D01*
X51426209Y-26897714D01*
X51359016Y-26916866D01*
X51292135Y-26896650D01*
X51247618Y-26845275D01*
X51247618Y-26845274D01*
X51220568Y-26787266D01*
X51090047Y-26600861D01*
X51090045Y-26600858D01*
X50929141Y-26439954D01*
X50742734Y-26309432D01*
X50742732Y-26309431D01*
X50536497Y-26213261D01*
X50536488Y-26213258D01*
X50316697Y-26154366D01*
X50316693Y-26154365D01*
X50316692Y-26154365D01*
X50316691Y-26154364D01*
X50316686Y-26154364D01*
X50090002Y-26134532D01*
X50089998Y-26134532D01*
X49863313Y-26154364D01*
X49863302Y-26154366D01*
X49643511Y-26213258D01*
X49643502Y-26213261D01*
X49437267Y-26309431D01*
X49437265Y-26309432D01*
X49250858Y-26439954D01*
X49089954Y-26600858D01*
X48959432Y-26787265D01*
X48959431Y-26787267D01*
X48932382Y-26845275D01*
X48886209Y-26897714D01*
X48819016Y-26916866D01*
X48752135Y-26896650D01*
X48707618Y-26845275D01*
X48707618Y-26845274D01*
X48680568Y-26787266D01*
X48550047Y-26600861D01*
X48550045Y-26600858D01*
X48389141Y-26439954D01*
X48202734Y-26309432D01*
X48202732Y-26309431D01*
X47996497Y-26213261D01*
X47996488Y-26213258D01*
X47776697Y-26154366D01*
X47776693Y-26154365D01*
X47776692Y-26154365D01*
X47776691Y-26154364D01*
X47776686Y-26154364D01*
X47550002Y-26134532D01*
X47549998Y-26134532D01*
X47323313Y-26154364D01*
X47323302Y-26154366D01*
X47103511Y-26213258D01*
X47103502Y-26213261D01*
X46897267Y-26309431D01*
X46897265Y-26309432D01*
X46710858Y-26439954D01*
X46549954Y-26600858D01*
X46419432Y-26787265D01*
X46419431Y-26787267D01*
X46392382Y-26845275D01*
X46346209Y-26897714D01*
X46279016Y-26916866D01*
X46212135Y-26896650D01*
X46167618Y-26845275D01*
X46167618Y-26845274D01*
X46140568Y-26787266D01*
X46010047Y-26600861D01*
X46010045Y-26600858D01*
X45849141Y-26439954D01*
X45662734Y-26309432D01*
X45662732Y-26309431D01*
X45456497Y-26213261D01*
X45456488Y-26213258D01*
X45236697Y-26154366D01*
X45236693Y-26154365D01*
X45236692Y-26154365D01*
X45236691Y-26154364D01*
X45236686Y-26154364D01*
X45010002Y-26134532D01*
X45009998Y-26134532D01*
X44783313Y-26154364D01*
X44783302Y-26154366D01*
X44563511Y-26213258D01*
X44563502Y-26213261D01*
X44357267Y-26309431D01*
X44357265Y-26309432D01*
X44170858Y-26439954D01*
X44009954Y-26600858D01*
X43879432Y-26787265D01*
X43879431Y-26787267D01*
X43783261Y-26993502D01*
X43783258Y-26993511D01*
X43724366Y-27213302D01*
X43724364Y-27213313D01*
X43704532Y-27439998D01*
X43704532Y-27440001D01*
X25408929Y-27440001D01*
X25409935Y-25524435D01*
X25429655Y-25457406D01*
X25482483Y-25411679D01*
X25533935Y-25400500D01*
X28268715Y-25400500D01*
X82425526Y-25409972D01*
G37*
G04 #@! TD.AperFunction*
M02*
