M48
; DRILL file {KiCad 9.0.0} date 2025-02-28T23:28:11-0800
; FORMAT={-:-/ absolute / metric / decimal}
; #@! TF.CreationDate,2025-02-28T23:28:11-08:00
; #@! TF.GenerationSoftware,Kicad,Pcbnew,9.0.0
; #@! TF.FileFunction,Plated,1,2,PTH
FMAT,2
METRIC
; #@! TA.AperFunction,Plated,PTH,ViaDrill
T1C0.300
; #@! TA.AperFunction,Plated,PTH,ComponentDrill
T2C0.900
; #@! TA.AperFunction,Plated,PTH,ComponentDrill
T3C1.000
; #@! TA.AperFunction,Plated,PTH,ComponentDrill
T4C1.200
; #@! TA.AperFunction,Plated,PTH,ComponentDrill
T5C1.550
; #@! TA.AperFunction,Plated,PTH,ComponentDrill
T6C1.600
; #@! TA.AperFunction,Plated,PTH,ComponentDrill
T7C3.200
%
G90
G05
T1
X32.7Y-67.47
X32.7Y-71.64
X32.71Y-72.95
X33.64Y-66.6
X58.53Y-22.74
X58.78Y-10.51
X58.85Y-15.63
X60.79Y-10.55
X60.8Y-14.05
X65.27Y-7.64
X68.51Y-18.86
X68.94Y-24.58
X73.23Y-19.5
X97.04Y-49.77
T2
X38.86Y-21.078
X41.15Y-21.078
X42.15Y-14.478
X43.17Y-16.258
X44.19Y-14.478
X45.21Y-16.258
X46.23Y-14.478
X47.25Y-16.258
X48.27Y-14.478
X49.29Y-16.258
X50.29Y-21.078
X52.58Y-21.078
T3
X27.94Y-39.37
X27.94Y-41.91
X27.94Y-44.45
X27.94Y-46.99
X27.94Y-49.53
X27.94Y-52.07
X27.94Y-54.61
X27.94Y-57.15
X52.07Y-27.94
X54.61Y-27.94
X57.15Y-27.94
X59.69Y-27.94
X62.23Y-27.94
X64.77Y-27.94
X67.31Y-27.94
X69.85Y-27.94
X80.01Y-44.45
X80.01Y-46.99
X80.01Y-49.53
X80.01Y-52.07
X80.01Y-54.61
X80.01Y-57.15
X80.01Y-59.69
X80.01Y-62.23
T4
X15.32Y-36.83
X15.32Y-40.33
X15.32Y-46.99
X15.32Y-53.99
X15.32Y-57.49
X15.32Y-60.99
X15.32Y-64.49
X15.32Y-67.99
X15.32Y-71.49
X15.32Y-50.49
X20.32Y-36.83
X20.32Y-40.33
X20.32Y-46.99
X20.32Y-50.49
X20.32Y-53.99
X20.32Y-57.49
X20.32Y-60.99
X20.32Y-64.49
X20.32Y-67.99
X20.32Y-71.49
X39.37Y-87.63
X39.37Y-92.63
X42.87Y-87.63
X42.87Y-92.63
X46.37Y-87.63
X46.37Y-92.63
X49.87Y-87.63
X49.87Y-92.63
X58.42Y-87.63
X58.42Y-92.63
X61.92Y-87.63
X61.92Y-92.63
X65.42Y-87.63
X65.42Y-92.63
X68.92Y-87.63
X68.92Y-92.63
X87.63Y-39.03
X87.63Y-42.53
X87.63Y-46.03
X87.63Y-49.53
X87.63Y-59.35
X87.63Y-62.85
X87.63Y-66.35
X87.63Y-69.85
X92.63Y-39.03
X92.63Y-42.53
X92.63Y-46.03
X92.63Y-49.53
X92.63Y-59.35
X92.63Y-62.85
X92.63Y-66.35
X92.63Y-69.85
T5
X67.15Y-11.1
X67.15Y-15.9
T6
X37.595Y-15.368
X53.845Y-15.368
T7
X29.21Y-29.21
X29.21Y-78.74
X78.74Y-29.21
X78.74Y-78.74
M30
