G04 #@! TF.GenerationSoftware,KiCad,Pcbnew,9.0.0*
G04 #@! TF.CreationDate,2025-02-28T23:28:00-08:00*
G04 #@! TF.ProjectId,Constellation Saddle V1.1,436f6e73-7465-46c6-9c61-74696f6e2053,rev?*
G04 #@! TF.SameCoordinates,Original*
G04 #@! TF.FileFunction,Legend,Bot*
G04 #@! TF.FilePolarity,Positive*
%FSLAX46Y46*%
G04 Gerber Fmt 4.6, Leading zero omitted, Abs format (unit mm)*
G04 Created by KiCad (PCBNEW 9.0.0) date 2025-02-28 23:28:00*
%MOMM*%
%LPD*%
G01*
G04 APERTURE LIST*
G04 Aperture macros list*
%AMRoundRect*
0 Rectangle with rounded corners*
0 $1 Rounding radius*
0 $2 $3 $4 $5 $6 $7 $8 $9 X,Y pos of 4 corners*
0 Add a 4 corners polygon primitive as box body*
4,1,4,$2,$3,$4,$5,$6,$7,$8,$9,$2,$3,0*
0 Add four circle primitives for the rounded corners*
1,1,$1+$1,$2,$3*
1,1,$1+$1,$4,$5*
1,1,$1+$1,$6,$7*
1,1,$1+$1,$8,$9*
0 Add four rect primitives between the rounded corners*
20,1,$1+$1,$2,$3,$4,$5,0*
20,1,$1+$1,$4,$5,$6,$7,0*
20,1,$1+$1,$6,$7,$8,$9,0*
20,1,$1+$1,$8,$9,$2,$3,0*%
G04 Aperture macros list end*
%ADD10C,0.508000*%
%ADD11C,0.000000*%
%ADD12R,1.700000X1.700000*%
%ADD13O,1.700000X1.700000*%
%ADD14C,3.200000*%
%ADD15R,1.408000X1.408000*%
%ADD16C,1.408000*%
%ADD17C,2.400000*%
%ADD18C,1.900000*%
%ADD19C,5.600000*%
%ADD20C,2.800000*%
%ADD21RoundRect,0.249999X1.025001X-1.025001X1.025001X1.025001X-1.025001X1.025001X-1.025001X-1.025001X0*%
%ADD22C,2.550000*%
G04 APERTURE END LIST*
D10*
X39751000Y-85699600D02*
G75*
G02*
X38989000Y-85699600I-381000J0D01*
G01*
X38989000Y-85699600D02*
G75*
G02*
X39751000Y-85699600I381000J0D01*
G01*
X22605999Y-46990000D02*
G75*
G02*
X21844001Y-46990000I-380999J0D01*
G01*
X21844001Y-46990000D02*
G75*
G02*
X22605999Y-46990000I380999J0D01*
G01*
X58801000Y-85699600D02*
G75*
G02*
X58039000Y-85699600I-381000J0D01*
G01*
X58039000Y-85699600D02*
G75*
G02*
X58801000Y-85699600I381000J0D01*
G01*
X86131401Y-69850000D02*
G75*
G02*
X85369399Y-69850000I-381001J0D01*
G01*
X85369399Y-69850000D02*
G75*
G02*
X86131401Y-69850000I381001J0D01*
G01*
X22606000Y-36830000D02*
G75*
G02*
X21844000Y-36830000I-381000J0D01*
G01*
X21844000Y-36830000D02*
G75*
G02*
X22606000Y-36830000I381000J0D01*
G01*
X86131401Y-49530000D02*
G75*
G02*
X85369399Y-49530000I-381001J0D01*
G01*
X85369399Y-49530000D02*
G75*
G02*
X86131401Y-49530000I381001J0D01*
G01*
D11*
G36*
X65900218Y-76196323D02*
G01*
X65958575Y-76259937D01*
X66029624Y-76362065D01*
X66043163Y-76425310D01*
X65984325Y-76446351D01*
X65828127Y-76460888D01*
X65580021Y-76467027D01*
X65244640Y-76464540D01*
X64478982Y-76450593D01*
X64416779Y-76235553D01*
X64354577Y-76020513D01*
X65039492Y-76020513D01*
X65724407Y-76020513D01*
X65900218Y-76196323D01*
G37*
G36*
X55972424Y-76209350D02*
G01*
X56008322Y-76263785D01*
X56074500Y-76375432D01*
X56100742Y-76438263D01*
X56073455Y-76447901D01*
X55960636Y-76457992D01*
X55775646Y-76464459D01*
X55535049Y-76466788D01*
X55255408Y-76464466D01*
X54410074Y-76450593D01*
X54347863Y-76235553D01*
X54285653Y-76020513D01*
X55064879Y-76020513D01*
X55844106Y-76020513D01*
X55972424Y-76209350D01*
G37*
G36*
X52231823Y-76031081D02*
G01*
X52298157Y-76073546D01*
X52341668Y-76169166D01*
X52390043Y-76339272D01*
X52395132Y-76384270D01*
X52363283Y-76412039D01*
X52271760Y-76420543D01*
X52099981Y-76415168D01*
X52035632Y-76411994D01*
X51888795Y-76399634D01*
X51805884Y-76372010D01*
X51758673Y-76313943D01*
X51718937Y-76210254D01*
X51653450Y-76020513D01*
X51976276Y-76020513D01*
X52114976Y-76020441D01*
X52231823Y-76031081D01*
G37*
G36*
X53850946Y-76031081D02*
G01*
X53917281Y-76073546D01*
X53960791Y-76169166D01*
X54009167Y-76339272D01*
X54014255Y-76384270D01*
X53982406Y-76412039D01*
X53890883Y-76420543D01*
X53719105Y-76415168D01*
X53654755Y-76411994D01*
X53507919Y-76399634D01*
X53425007Y-76372010D01*
X53377796Y-76313943D01*
X53338061Y-76210254D01*
X53272573Y-76020513D01*
X53595399Y-76020513D01*
X53734100Y-76020441D01*
X53850946Y-76031081D01*
G37*
G36*
X46395555Y-76020519D02*
G01*
X46557412Y-76024168D01*
X46648866Y-76043366D01*
X46698584Y-76090975D01*
X46735235Y-76179856D01*
X46736596Y-76183782D01*
X46774912Y-76314309D01*
X46790782Y-76407546D01*
X46774689Y-76439578D01*
X46687901Y-76467352D01*
X46514275Y-76475892D01*
X46345515Y-76468070D01*
X46232569Y-76427902D01*
X46164894Y-76332662D01*
X46113750Y-76159657D01*
X46080487Y-76020513D01*
X46380087Y-76020513D01*
X46395555Y-76020519D01*
G37*
G36*
X49300347Y-78203168D02*
G01*
X49395498Y-78225259D01*
X49471817Y-78277571D01*
X49561001Y-78369894D01*
X49613065Y-78429224D01*
X49693678Y-78535428D01*
X49725443Y-78600248D01*
X49689561Y-78624564D01*
X49573732Y-78644221D01*
X49400363Y-78651589D01*
X49350027Y-78651501D01*
X49188356Y-78645220D01*
X49080210Y-78617723D01*
X48987059Y-78553377D01*
X48870375Y-78436549D01*
X48665467Y-78221509D01*
X49031013Y-78206194D01*
X49154670Y-78201507D01*
X49300347Y-78203168D01*
G37*
G36*
X46591693Y-76637439D02*
G01*
X46862433Y-76652983D01*
X47027160Y-77234856D01*
X47027668Y-77236651D01*
X47091598Y-77462965D01*
X47144208Y-77650123D01*
X47180062Y-77778727D01*
X47193725Y-77829378D01*
X47154564Y-77835476D01*
X47039333Y-77840213D01*
X46874384Y-77842027D01*
X46553206Y-77842027D01*
X46400325Y-77272804D01*
X46345996Y-77057644D01*
X46304063Y-76863572D01*
X46282138Y-76724973D01*
X46284199Y-76662738D01*
X46318973Y-76648301D01*
X46433544Y-76635795D01*
X46591693Y-76637439D01*
G37*
G36*
X47884955Y-76021139D02*
G01*
X48688192Y-76021766D01*
X48802037Y-76197522D01*
X48826510Y-76236505D01*
X48890305Y-76352787D01*
X48915882Y-76424584D01*
X48913081Y-76429901D01*
X48840614Y-76449448D01*
X48674695Y-76463884D01*
X48421503Y-76472826D01*
X48087216Y-76475892D01*
X47993255Y-76475863D01*
X47692672Y-76474047D01*
X47474809Y-76466170D01*
X47325019Y-76447782D01*
X47228655Y-76414435D01*
X47171069Y-76361677D01*
X47137614Y-76285060D01*
X47113642Y-76180133D01*
X47081718Y-76020513D01*
X47884955Y-76021139D01*
G37*
G36*
X50338085Y-78199054D02*
G01*
X50443323Y-78214920D01*
X50500144Y-78253882D01*
X50536257Y-78325998D01*
X50567642Y-78431046D01*
X50585603Y-78553688D01*
X50582887Y-78585709D01*
X50552093Y-78627845D01*
X50467722Y-78647037D01*
X50306064Y-78651589D01*
X50196797Y-78650806D01*
X50084714Y-78637038D01*
X50015188Y-78589586D01*
X49963738Y-78487557D01*
X49905882Y-78310055D01*
X49903063Y-78300892D01*
X49892787Y-78242109D01*
X49921467Y-78210838D01*
X50009845Y-78198425D01*
X50178665Y-78196210D01*
X50338085Y-78199054D01*
G37*
G36*
X53682367Y-78196255D02*
G01*
X53847466Y-78201535D01*
X53952576Y-78225450D01*
X54032928Y-78281912D01*
X54123752Y-78384830D01*
X54174144Y-78448084D01*
X54249552Y-78553628D01*
X54279228Y-78612520D01*
X54249720Y-78625265D01*
X54137725Y-78638881D01*
X53961661Y-78648160D01*
X53742322Y-78651589D01*
X53205416Y-78651589D01*
X53240940Y-78462233D01*
X53246729Y-78432432D01*
X53276046Y-78305680D01*
X53300154Y-78234544D01*
X53350426Y-78216317D01*
X53475836Y-78201782D01*
X53646061Y-78196210D01*
X53682367Y-78196255D01*
G37*
G36*
X56530822Y-78197463D02*
G01*
X56644666Y-78373219D01*
X56669139Y-78412202D01*
X56732934Y-78528484D01*
X56758511Y-78600282D01*
X56754116Y-78606825D01*
X56675775Y-78625881D01*
X56503947Y-78639928D01*
X56244499Y-78648615D01*
X55903301Y-78651589D01*
X55048092Y-78651589D01*
X54992544Y-78492246D01*
X54981526Y-78460778D01*
X54949230Y-78360388D01*
X54942528Y-78289260D01*
X54974019Y-78242374D01*
X55056303Y-78214709D01*
X55201980Y-78201245D01*
X55423649Y-78196961D01*
X55733909Y-78196837D01*
X56530822Y-78197463D01*
G37*
G36*
X56280957Y-79144916D02*
G01*
X56313101Y-79258929D01*
X56377634Y-79486826D01*
X56434163Y-79685374D01*
X56458490Y-79774606D01*
X56492268Y-79917715D01*
X56505523Y-80004134D01*
X56479568Y-80043658D01*
X56388650Y-80060864D01*
X56215339Y-80058198D01*
X55925154Y-80043023D01*
X55787326Y-79537047D01*
X55735017Y-79344855D01*
X55680536Y-79131827D01*
X55656345Y-78991458D01*
X55665431Y-78908617D01*
X55710783Y-78868177D01*
X55795389Y-78855007D01*
X55922237Y-78853979D01*
X56199110Y-78853979D01*
X56280957Y-79144916D01*
G37*
G36*
X57962575Y-76215432D02*
G01*
X57991920Y-76271297D01*
X58036753Y-76383469D01*
X58039356Y-76443122D01*
X58015787Y-76449830D01*
X57905623Y-76460161D01*
X57722853Y-76468424D01*
X57485515Y-76473906D01*
X57211652Y-76475892D01*
X57176733Y-76475888D01*
X56867932Y-76474492D01*
X56643913Y-76467326D01*
X56489712Y-76449682D01*
X56390366Y-76416849D01*
X56330909Y-76364119D01*
X56296378Y-76286784D01*
X56271810Y-76180133D01*
X56239886Y-76020513D01*
X57046455Y-76020513D01*
X57853024Y-76020513D01*
X57962575Y-76215432D01*
G37*
G36*
X49859899Y-76020739D02*
G01*
X50014629Y-76027405D01*
X50113950Y-76052734D01*
X50190854Y-76109164D01*
X50278333Y-76209133D01*
X50328726Y-76272386D01*
X50404134Y-76377931D01*
X50433810Y-76436822D01*
X50409771Y-76451107D01*
X50307368Y-76465475D01*
X50148021Y-76473423D01*
X49957444Y-76475219D01*
X49761350Y-76471125D01*
X49585451Y-76461406D01*
X49455460Y-76446328D01*
X49397091Y-76426155D01*
X49394001Y-76419834D01*
X49385339Y-76330533D01*
X49399736Y-76198465D01*
X49433120Y-76020513D01*
X49777988Y-76020513D01*
X49859899Y-76020739D01*
G37*
G36*
X52430655Y-78353245D02*
G01*
X52484099Y-78403411D01*
X52573982Y-78507604D01*
X52609507Y-78580934D01*
X52607389Y-78592021D01*
X52575682Y-78616669D01*
X52495614Y-78633749D01*
X52353986Y-78644461D01*
X52137599Y-78650007D01*
X51833253Y-78651589D01*
X51056999Y-78651589D01*
X50998393Y-78455978D01*
X50986301Y-78414929D01*
X50953112Y-78293074D01*
X50939786Y-78228288D01*
X50941475Y-78225983D01*
X51005486Y-78214337D01*
X51148416Y-78204880D01*
X51351456Y-78198531D01*
X51595794Y-78196210D01*
X52251803Y-78196210D01*
X52430655Y-78353245D01*
G37*
G36*
X59110526Y-76023792D02*
G01*
X59366793Y-76035413D01*
X59557460Y-76054213D01*
X59664783Y-76078909D01*
X59753920Y-76135265D01*
X59854809Y-76238025D01*
X59917742Y-76345508D01*
X59919978Y-76426723D01*
X59905125Y-76434960D01*
X59805303Y-76451542D01*
X59625865Y-76464480D01*
X59381766Y-76472891D01*
X59087965Y-76475892D01*
X58286339Y-76475892D01*
X58230791Y-76316548D01*
X58202333Y-76233754D01*
X58179829Y-76142434D01*
X58192220Y-76081799D01*
X58252767Y-76045568D01*
X58374728Y-76027463D01*
X58571363Y-76021204D01*
X58855931Y-76020513D01*
X59110526Y-76023792D01*
G37*
G36*
X63380843Y-76021153D02*
G01*
X63560437Y-76026043D01*
X63681670Y-76039655D01*
X63766653Y-76066462D01*
X63837497Y-76110935D01*
X63916312Y-76177548D01*
X63969756Y-76227713D01*
X64059639Y-76331907D01*
X64095164Y-76405237D01*
X64087632Y-76424189D01*
X64043558Y-76445572D01*
X63948906Y-76460395D01*
X63791027Y-76469697D01*
X63557276Y-76474516D01*
X63235005Y-76475892D01*
X62374846Y-76475892D01*
X62374846Y-76340732D01*
X62380994Y-76245868D01*
X62416307Y-76148877D01*
X62495642Y-76083795D01*
X62633209Y-76044673D01*
X62843221Y-76025562D01*
X63139891Y-76020513D01*
X63380843Y-76021153D01*
G37*
G36*
X42670803Y-76201681D02*
G01*
X42717674Y-76382849D01*
X42928108Y-76201681D01*
X42987651Y-76151738D01*
X43113774Y-76066547D01*
X43240744Y-76028949D01*
X43418449Y-76020513D01*
X43533703Y-76023808D01*
X43662389Y-76037731D01*
X43722047Y-76058847D01*
X43726146Y-76067072D01*
X43752317Y-76153675D01*
X43781262Y-76286536D01*
X43816785Y-76475892D01*
X42973712Y-76475892D01*
X42130638Y-76475892D01*
X42057324Y-76300425D01*
X42047083Y-76275403D01*
X42002225Y-76150691D01*
X41984009Y-76072736D01*
X42015879Y-76048741D01*
X42129231Y-76028162D01*
X42303970Y-76020513D01*
X42623931Y-76020513D01*
X42670803Y-76201681D01*
G37*
G36*
X45139085Y-76021044D02*
G01*
X45325205Y-76025471D01*
X45449854Y-76038053D01*
X45534762Y-76063048D01*
X45601661Y-76104714D01*
X45672284Y-76167307D01*
X45707674Y-76202481D01*
X45794626Y-76312322D01*
X45829427Y-76396220D01*
X45828911Y-76404920D01*
X45813473Y-76432698D01*
X45766239Y-76451845D01*
X45673336Y-76463479D01*
X45520895Y-76468715D01*
X45295046Y-76468672D01*
X44981917Y-76464466D01*
X44134407Y-76450593D01*
X44145614Y-76299177D01*
X44157811Y-76215224D01*
X44198367Y-76130874D01*
X44280251Y-76074573D01*
X44418375Y-76040976D01*
X44627651Y-76024738D01*
X44922990Y-76020513D01*
X45139085Y-76021044D01*
G37*
G36*
X48082963Y-76627732D02*
G01*
X48231002Y-76637049D01*
X48312645Y-76670937D01*
X48359220Y-76741529D01*
X48364976Y-76756186D01*
X48400131Y-76862152D01*
X48449944Y-77026219D01*
X48507102Y-77222555D01*
X48564290Y-77425331D01*
X48614193Y-77608715D01*
X48649500Y-77746878D01*
X48662894Y-77813988D01*
X48633294Y-77826239D01*
X48527071Y-77837630D01*
X48370210Y-77842027D01*
X48077527Y-77842027D01*
X47923163Y-77260256D01*
X47865456Y-77033289D01*
X47821707Y-76842400D01*
X47796539Y-76708995D01*
X47794200Y-76653085D01*
X47816369Y-76644711D01*
X47917096Y-76632490D01*
X48065240Y-76627684D01*
X48082963Y-76627732D01*
G37*
G36*
X54172219Y-76969218D02*
G01*
X54223905Y-77146570D01*
X54292092Y-77381075D01*
X54348726Y-77576390D01*
X54425567Y-77842027D01*
X53774777Y-77842027D01*
X53123987Y-77842027D01*
X52963690Y-77639637D01*
X52803394Y-77437246D01*
X53157691Y-77437246D01*
X53311281Y-77436865D01*
X53490083Y-77428691D01*
X53590787Y-77399259D01*
X53627737Y-77334914D01*
X53615275Y-77222002D01*
X53567745Y-77046867D01*
X53567517Y-77046067D01*
X53523419Y-76872985D01*
X53498966Y-76738270D01*
X53499448Y-76671028D01*
X53531650Y-76654124D01*
X53642576Y-76635091D01*
X53799394Y-76627684D01*
X54072553Y-76627684D01*
X54172219Y-76969218D01*
G37*
G36*
X57830935Y-78198146D02*
G01*
X58051006Y-78205664D01*
X58203957Y-78220548D01*
X58307419Y-78244572D01*
X58379026Y-78279509D01*
X58456194Y-78335709D01*
X58584663Y-78466993D01*
X58630623Y-78585363D01*
X58628962Y-78593535D01*
X58594305Y-78616943D01*
X58505774Y-78633512D01*
X58351550Y-78644182D01*
X58119814Y-78649894D01*
X57798748Y-78651589D01*
X57600979Y-78650495D01*
X57345454Y-78645469D01*
X57139082Y-78637069D01*
X56999210Y-78626072D01*
X56943182Y-78613255D01*
X56939083Y-78605030D01*
X56912912Y-78518427D01*
X56883968Y-78385566D01*
X56848444Y-78196210D01*
X57551183Y-78196210D01*
X57830935Y-78198146D01*
G37*
G36*
X57249563Y-76627858D02*
G01*
X57393053Y-76637971D01*
X57472080Y-76672004D01*
X57517388Y-76741529D01*
X57523144Y-76756186D01*
X57558298Y-76862152D01*
X57608112Y-77026219D01*
X57665269Y-77222555D01*
X57722457Y-77425331D01*
X57772361Y-77608715D01*
X57807667Y-77746878D01*
X57821061Y-77813988D01*
X57791054Y-77826295D01*
X57684418Y-77837647D01*
X57527200Y-77842027D01*
X57233338Y-77842027D01*
X57097120Y-77316407D01*
X57046506Y-77120879D01*
X56994482Y-76907138D01*
X56971047Y-76766188D01*
X56978790Y-76682897D01*
X57020299Y-76642137D01*
X57098164Y-76628776D01*
X57214974Y-76627684D01*
X57249563Y-76627858D01*
G37*
G36*
X52760636Y-79043720D02*
G01*
X52800270Y-79198480D01*
X52842893Y-79455641D01*
X52848025Y-79667894D01*
X52814007Y-79811392D01*
X52812773Y-79813653D01*
X52722570Y-79913162D01*
X52592874Y-79994563D01*
X52591653Y-79995089D01*
X52445669Y-80032231D01*
X52221523Y-80056799D01*
X51941467Y-80066341D01*
X51450519Y-80068322D01*
X51397825Y-79878581D01*
X51393002Y-79861215D01*
X51356325Y-79714679D01*
X51357055Y-79626128D01*
X51411138Y-79580958D01*
X51534521Y-79564565D01*
X51743152Y-79562346D01*
X51825722Y-79561923D01*
X52037427Y-79550971D01*
X52164164Y-79515769D01*
X52218151Y-79443837D01*
X52211604Y-79322696D01*
X52156743Y-79139865D01*
X52058384Y-78853979D01*
X52382165Y-78853979D01*
X52705946Y-78853979D01*
X52760636Y-79043720D01*
G37*
G36*
X50788583Y-79220812D02*
G01*
X50791196Y-79229844D01*
X50850345Y-79431676D01*
X50904601Y-79612569D01*
X50942519Y-79734338D01*
X50974860Y-79858221D01*
X50990384Y-79974677D01*
X50986495Y-80008291D01*
X50951491Y-80046417D01*
X50861062Y-80064039D01*
X50692417Y-80068322D01*
X50394450Y-80068322D01*
X50304887Y-79737450D01*
X50254506Y-79568358D01*
X50207430Y-79439698D01*
X50174406Y-79381289D01*
X50167417Y-79381070D01*
X50118178Y-79431768D01*
X50042657Y-79548779D01*
X49954128Y-79712161D01*
X49774769Y-80068322D01*
X49471819Y-80068322D01*
X49345865Y-80064306D01*
X49216187Y-80045393D01*
X49168870Y-80013948D01*
X49172032Y-79998388D01*
X49209285Y-79904776D01*
X49279622Y-79755337D01*
X49371873Y-79574261D01*
X49574877Y-79188947D01*
X49412546Y-79021463D01*
X49250214Y-78853979D01*
X49966363Y-78853979D01*
X50682513Y-78853979D01*
X50788583Y-79220812D01*
G37*
G36*
X60592969Y-76020554D02*
G01*
X60745791Y-76024655D01*
X60828954Y-76043758D01*
X60868386Y-76089461D01*
X60890016Y-76173359D01*
X60922156Y-76287751D01*
X60956631Y-76348482D01*
X60978505Y-76345800D01*
X61056942Y-76293290D01*
X61162411Y-76195636D01*
X61259261Y-76103034D01*
X61351184Y-76048087D01*
X61468369Y-76025131D01*
X61648728Y-76020513D01*
X61965308Y-76020513D01*
X62016387Y-76205506D01*
X62024194Y-76235547D01*
X62045878Y-76360612D01*
X62041078Y-76433195D01*
X62017538Y-76442188D01*
X61907922Y-76455555D01*
X61725654Y-76466241D01*
X61488521Y-76473326D01*
X61214310Y-76475892D01*
X61169738Y-76475886D01*
X60862302Y-76474424D01*
X60639306Y-76467141D01*
X60485838Y-76449373D01*
X60386988Y-76416454D01*
X60327842Y-76363717D01*
X60293490Y-76286499D01*
X60269021Y-76180133D01*
X60237097Y-76020513D01*
X60548272Y-76020513D01*
X60592969Y-76020554D01*
G37*
G36*
X65802126Y-76627727D02*
G01*
X65978801Y-76639414D01*
X66089095Y-76686676D01*
X66160012Y-76791031D01*
X66218554Y-76973999D01*
X66253370Y-77120968D01*
X66282600Y-77386395D01*
X66247627Y-77585083D01*
X66147649Y-77725545D01*
X66128383Y-77741716D01*
X66061217Y-77787348D01*
X65980176Y-77816625D01*
X65863436Y-77833117D01*
X65689171Y-77840395D01*
X65435558Y-77842027D01*
X64858885Y-77842027D01*
X64806191Y-77652286D01*
X64796932Y-77618369D01*
X64765888Y-77494038D01*
X64753216Y-77424597D01*
X64756571Y-77419653D01*
X64825495Y-77402848D01*
X64965179Y-77391081D01*
X65151519Y-77386649D01*
X65200918Y-77386477D01*
X65428008Y-77376452D01*
X65568666Y-77343338D01*
X65634984Y-77276527D01*
X65639054Y-77165411D01*
X65592969Y-76999382D01*
X65547225Y-76860490D01*
X65518326Y-76729282D01*
X65541448Y-76659792D01*
X65626650Y-76632450D01*
X65783989Y-76627684D01*
X65802126Y-76627727D01*
G37*
G36*
X53840161Y-78814603D02*
G01*
X54502555Y-78828681D01*
X54947465Y-79404144D01*
X55010316Y-79485882D01*
X55160809Y-79685559D01*
X55282054Y-79852113D01*
X55362944Y-79970072D01*
X55392376Y-80023965D01*
X55392110Y-80025688D01*
X55339448Y-80047233D01*
X55213096Y-80062514D01*
X55038659Y-80068322D01*
X54684942Y-80068322D01*
X54421124Y-79688840D01*
X54408439Y-79670601D01*
X54285704Y-79497832D01*
X54198096Y-79391344D01*
X54125518Y-79335116D01*
X54047872Y-79313127D01*
X53945060Y-79309358D01*
X53732813Y-79309358D01*
X53648386Y-79688840D01*
X53563959Y-80068322D01*
X53238526Y-80068322D01*
X53079856Y-80065801D01*
X52959235Y-80058688D01*
X52913093Y-80048593D01*
X52914872Y-80035105D01*
X52931935Y-79943453D01*
X52962887Y-79788228D01*
X53002546Y-79594400D01*
X53045733Y-79386941D01*
X53087266Y-79190820D01*
X53121966Y-79031007D01*
X53144651Y-78932473D01*
X53177768Y-78800526D01*
X53840161Y-78814603D01*
G37*
G36*
X44873803Y-77045115D02*
G01*
X44923450Y-77193402D01*
X44974117Y-77319981D01*
X45023822Y-77387272D01*
X45089886Y-77416269D01*
X45189629Y-77427968D01*
X45330357Y-77436263D01*
X45438433Y-77422018D01*
X45482577Y-77364214D01*
X45473482Y-77245354D01*
X45421838Y-77047942D01*
X45417741Y-77033607D01*
X45370081Y-76865031D01*
X45336290Y-76742293D01*
X45323451Y-76691093D01*
X45354512Y-76685405D01*
X45462217Y-76680264D01*
X45620369Y-76678282D01*
X45917288Y-76678282D01*
X45999852Y-76972538D01*
X46040558Y-77130657D01*
X46078469Y-77372928D01*
X46062057Y-77551763D01*
X45988438Y-77683280D01*
X45854726Y-77783600D01*
X45763517Y-77810611D01*
X45591599Y-77830796D01*
X45379964Y-77838796D01*
X45161279Y-77834463D01*
X44968208Y-77817651D01*
X44833419Y-77788211D01*
X44813499Y-77780514D01*
X44680047Y-77715301D01*
X44570431Y-77627033D01*
X44475267Y-77500617D01*
X44385169Y-77320956D01*
X44290753Y-77072959D01*
X44182634Y-76741529D01*
X44195457Y-76707836D01*
X44282368Y-76685223D01*
X44457961Y-76678282D01*
X44753040Y-76678282D01*
X44873803Y-77045115D01*
G37*
G36*
X58731818Y-78966978D02*
G01*
X58731065Y-78999817D01*
X58700681Y-79134073D01*
X58615050Y-79222417D01*
X58459337Y-79274474D01*
X58218708Y-79299866D01*
X58130117Y-79305252D01*
X57928453Y-79327381D01*
X57815539Y-79361777D01*
X57782205Y-79412673D01*
X57819281Y-79484305D01*
X57822201Y-79487679D01*
X57879167Y-79523947D01*
X57983155Y-79546881D01*
X58152160Y-79558880D01*
X58404179Y-79562346D01*
X58924309Y-79562346D01*
X58979856Y-79721689D01*
X59019019Y-79861427D01*
X59035404Y-79974677D01*
X59028573Y-80011465D01*
X58997639Y-80037349D01*
X58927184Y-80053946D01*
X58801791Y-80063287D01*
X58606044Y-80067402D01*
X58324524Y-80068322D01*
X58258434Y-80068241D01*
X57952949Y-80063859D01*
X57725905Y-80049391D01*
X57558157Y-80020128D01*
X57430563Y-79971363D01*
X57323982Y-79898387D01*
X57219270Y-79796494D01*
X57131011Y-79659831D01*
X57074580Y-79421474D01*
X57074125Y-79416695D01*
X57068664Y-79252628D01*
X57099313Y-79138703D01*
X57178541Y-79027692D01*
X57306078Y-78879278D01*
X58018948Y-78862804D01*
X58731818Y-78846331D01*
X58731818Y-78966978D01*
G37*
G36*
X61441195Y-76629805D02*
G01*
X61680462Y-76633549D01*
X61884566Y-76640861D01*
X62032585Y-76651795D01*
X62103597Y-76666407D01*
X62135667Y-76720363D01*
X62187206Y-76853858D01*
X62249227Y-77045009D01*
X62314425Y-77272804D01*
X62467617Y-77842027D01*
X62171833Y-77842027D01*
X61876050Y-77842027D01*
X61793135Y-77551091D01*
X61758903Y-77430492D01*
X61700923Y-77224530D01*
X61654521Y-77057764D01*
X61641720Y-77012976D01*
X61600283Y-76887468D01*
X61569135Y-76819687D01*
X61544736Y-76818045D01*
X61460376Y-76861198D01*
X61344001Y-76948088D01*
X61148554Y-77112176D01*
X61251825Y-77477101D01*
X61355096Y-77842027D01*
X61033520Y-77842027D01*
X60943939Y-77841178D01*
X60797460Y-77830638D01*
X60718772Y-77803362D01*
X60684754Y-77753481D01*
X60677830Y-77730779D01*
X60615271Y-77513232D01*
X60554419Y-77282577D01*
X60500443Y-77060909D01*
X60458514Y-76870324D01*
X60433799Y-76732919D01*
X60431468Y-76670790D01*
X60449681Y-76662686D01*
X60550934Y-76649412D01*
X60721635Y-76639433D01*
X60940860Y-76632802D01*
X61187687Y-76629574D01*
X61441195Y-76629805D01*
G37*
G36*
X55456492Y-76628666D02*
G01*
X55713511Y-76634488D01*
X55887124Y-76646309D01*
X55988095Y-76665003D01*
X56027190Y-76691444D01*
X56044144Y-76745102D01*
X56083394Y-76881052D01*
X56137046Y-77073162D01*
X56198654Y-77298615D01*
X56345652Y-77842027D01*
X55567806Y-77842027D01*
X54789961Y-77842027D01*
X54737267Y-77652286D01*
X54728007Y-77618369D01*
X54696964Y-77494038D01*
X54684291Y-77424597D01*
X54688322Y-77419226D01*
X54759395Y-77402624D01*
X54900857Y-77391016D01*
X55088790Y-77386649D01*
X55249000Y-77385940D01*
X55386941Y-77379655D01*
X55459931Y-77361611D01*
X55488599Y-77325639D01*
X55493571Y-77265568D01*
X55487172Y-77203495D01*
X55448332Y-77142074D01*
X55359322Y-77105409D01*
X55203220Y-77087679D01*
X54963107Y-77083063D01*
X54823890Y-77082563D01*
X54687862Y-77075643D01*
X54611291Y-77053057D01*
X54569339Y-77005513D01*
X54537166Y-76923720D01*
X54533494Y-76913207D01*
X54497540Y-76805211D01*
X54485987Y-76728574D01*
X54511632Y-76677923D01*
X54587274Y-76647882D01*
X54725713Y-76633079D01*
X54939745Y-76628137D01*
X55242171Y-76627684D01*
X55456492Y-76628666D01*
G37*
G36*
X59582388Y-76678880D02*
G01*
X59791323Y-76682492D01*
X59926707Y-76691192D01*
X60004121Y-76707020D01*
X60039144Y-76732016D01*
X60047356Y-76768219D01*
X60028766Y-76852628D01*
X59968590Y-76970609D01*
X59924708Y-77021815D01*
X59852546Y-77060776D01*
X59735179Y-77078725D01*
X59544706Y-77083063D01*
X59337823Y-77090542D01*
X59205233Y-77116310D01*
X59132055Y-77164435D01*
X59098411Y-77222136D01*
X59119739Y-77295200D01*
X59234275Y-77346489D01*
X59444041Y-77376730D01*
X59751062Y-77386649D01*
X60244990Y-77386649D01*
X60297683Y-77576390D01*
X60306943Y-77610307D01*
X60337986Y-77734638D01*
X60350659Y-77804079D01*
X60335636Y-77811512D01*
X60239335Y-77823598D01*
X60068698Y-77833274D01*
X59840997Y-77839698D01*
X59573502Y-77842027D01*
X59527364Y-77842013D01*
X59239283Y-77840611D01*
X59032309Y-77835459D01*
X58888754Y-77824508D01*
X58790932Y-77805709D01*
X58721154Y-77777011D01*
X58661734Y-77736364D01*
X58555159Y-77635834D01*
X58427579Y-77433673D01*
X58377949Y-77216870D01*
X58409518Y-77007135D01*
X58525535Y-76826183D01*
X58673436Y-76678282D01*
X59360396Y-76678282D01*
X59582388Y-76678880D01*
G37*
G36*
X63103656Y-76993478D02*
G01*
X63150599Y-77147572D01*
X63203762Y-77292606D01*
X63244641Y-77372960D01*
X63264782Y-77388886D01*
X63371389Y-77423461D01*
X63519487Y-77437246D01*
X63627428Y-77433205D01*
X63709287Y-77406974D01*
X63738607Y-77340167D01*
X63721615Y-77214521D01*
X63664537Y-77011774D01*
X63637852Y-76921037D01*
X63602880Y-76790360D01*
X63589188Y-76720838D01*
X63620464Y-76701899D01*
X63728346Y-76684852D01*
X63886623Y-76678282D01*
X64184057Y-76678282D01*
X64266105Y-77004916D01*
X64312428Y-77201107D01*
X64339537Y-77374913D01*
X64331488Y-77498165D01*
X64285865Y-77596143D01*
X64200252Y-77694126D01*
X64132857Y-77757418D01*
X64059260Y-77804400D01*
X63964699Y-77829702D01*
X63822435Y-77839967D01*
X63605730Y-77841838D01*
X63402148Y-77838519D01*
X63225268Y-77823202D01*
X63096479Y-77790887D01*
X62986910Y-77736670D01*
X62868270Y-77657574D01*
X62766527Y-77565236D01*
X62683600Y-77448557D01*
X62609091Y-77288972D01*
X62532604Y-77067917D01*
X62443742Y-76766828D01*
X62438440Y-76731328D01*
X62464734Y-76697405D01*
X62550815Y-76681949D01*
X62717324Y-76678282D01*
X63016024Y-76678282D01*
X63103656Y-76993478D01*
G37*
G36*
X43250069Y-76630956D02*
G01*
X43487264Y-76638464D01*
X43685661Y-76649486D01*
X43824569Y-76663832D01*
X43883292Y-76681312D01*
X43901394Y-76730313D01*
X43940768Y-76856524D01*
X43993406Y-77034085D01*
X44052291Y-77238347D01*
X44110409Y-77444658D01*
X44160744Y-77628368D01*
X44196281Y-77764825D01*
X44210006Y-77829378D01*
X44179755Y-77834953D01*
X44072864Y-77840058D01*
X43915372Y-77842027D01*
X43620439Y-77842027D01*
X43478850Y-77335056D01*
X43433703Y-77178579D01*
X43375547Y-76992412D01*
X43328943Y-76860955D01*
X43301123Y-76805750D01*
X43279608Y-76808215D01*
X43201439Y-76860232D01*
X43096246Y-76957508D01*
X43030095Y-77028790D01*
X42978874Y-77105191D01*
X42958465Y-77191552D01*
X42968312Y-77309653D01*
X43007859Y-77481270D01*
X43076549Y-77728182D01*
X43081693Y-77746938D01*
X43086434Y-77800366D01*
X43051490Y-77828768D01*
X42956363Y-77840026D01*
X42780550Y-77842027D01*
X42452140Y-77842027D01*
X42300548Y-77272804D01*
X42245696Y-77058209D01*
X42200922Y-76864587D01*
X42174427Y-76726786D01*
X42170663Y-76665633D01*
X42206449Y-76652742D01*
X42327213Y-76639843D01*
X42512651Y-76631404D01*
X42742069Y-76627236D01*
X42994773Y-76627150D01*
X43250069Y-76630956D01*
G37*
G36*
X40961305Y-73321791D02*
G01*
X40988432Y-73422109D01*
X41021479Y-73575166D01*
X41085914Y-73867027D01*
X41201432Y-74243634D01*
X41346066Y-74540509D01*
X41530998Y-74770344D01*
X41767407Y-74945828D01*
X42066477Y-75079655D01*
X42439388Y-75184514D01*
X42647598Y-75232909D01*
X42808052Y-75275797D01*
X42876270Y-75308806D01*
X42855805Y-75338548D01*
X42750210Y-75371638D01*
X42563038Y-75414689D01*
X42314573Y-75474931D01*
X41959168Y-75591532D01*
X41681795Y-75736971D01*
X41467932Y-75925555D01*
X41303057Y-76171588D01*
X41172649Y-76489378D01*
X41062185Y-76893230D01*
X40954271Y-77355948D01*
X40839042Y-76886197D01*
X40815991Y-76795942D01*
X40747882Y-76558552D01*
X40677094Y-76345123D01*
X40615702Y-76193120D01*
X40568589Y-76106009D01*
X40370771Y-75864410D01*
X40093644Y-75669243D01*
X39732363Y-75517653D01*
X39282082Y-75406781D01*
X39280970Y-75406576D01*
X39118577Y-75371053D01*
X39008675Y-75336237D01*
X38975001Y-75309639D01*
X38994210Y-75296359D01*
X39090559Y-75265672D01*
X39234968Y-75237616D01*
X39344695Y-75219846D01*
X39766450Y-75118202D01*
X40106053Y-74969549D01*
X40373958Y-74763993D01*
X40580617Y-74491640D01*
X40736485Y-74142593D01*
X40852014Y-73706959D01*
X40862430Y-73656615D01*
X40900879Y-73479026D01*
X40931326Y-73350796D01*
X40947935Y-73296879D01*
X40961305Y-73321791D01*
G37*
G36*
X50661499Y-76631754D02*
G01*
X50889188Y-76937135D01*
X50903235Y-76955973D01*
X51056204Y-77158627D01*
X51169006Y-77294513D01*
X51260483Y-77376974D01*
X51349477Y-77419354D01*
X51454832Y-77434997D01*
X51595388Y-77437246D01*
X51657592Y-77437202D01*
X51852545Y-77431875D01*
X51964613Y-77406014D01*
X52008495Y-77343230D01*
X51998893Y-77227133D01*
X51950508Y-77041333D01*
X51948914Y-77035575D01*
X51908088Y-76862292D01*
X51889417Y-76728499D01*
X51896938Y-76662738D01*
X51932335Y-76648449D01*
X52048126Y-76635818D01*
X52206741Y-76637439D01*
X52293041Y-76643415D01*
X52415410Y-76663417D01*
X52478561Y-76704332D01*
X52511021Y-76779477D01*
X52522165Y-76819894D01*
X52561032Y-76960622D01*
X52614794Y-77155115D01*
X52675332Y-77373999D01*
X52804815Y-77842027D01*
X51805692Y-77842027D01*
X50806569Y-77842027D01*
X50539674Y-77459766D01*
X50532370Y-77449307D01*
X50406932Y-77273178D01*
X50318576Y-77164761D01*
X50248468Y-77108771D01*
X50177773Y-77089924D01*
X50087657Y-77092933D01*
X50014775Y-77100371D01*
X49945495Y-77122527D01*
X49898288Y-77178025D01*
X49857331Y-77288401D01*
X49806799Y-77475194D01*
X49711062Y-77842027D01*
X49389368Y-77842027D01*
X49234231Y-77839565D01*
X49113790Y-77832445D01*
X49067674Y-77822298D01*
X49070803Y-77799031D01*
X49090363Y-77694005D01*
X49123257Y-77529786D01*
X49164117Y-77331959D01*
X49207572Y-77126107D01*
X49248253Y-76937812D01*
X49280791Y-76792659D01*
X49299816Y-76716230D01*
X49308583Y-76695775D01*
X49341923Y-76665758D01*
X49410767Y-76646189D01*
X49531532Y-76635022D01*
X49720635Y-76630213D01*
X49994490Y-76629719D01*
X50661499Y-76631754D01*
G37*
%LPC*%
D12*
X69850000Y-27940000D03*
D13*
X67310000Y-27940000D03*
X64770001Y-27940000D03*
X62230000Y-27940000D03*
X59690000Y-27940000D03*
X57150000Y-27940000D03*
X54610000Y-27940000D03*
X52069999Y-27940000D03*
D14*
X52070000Y-11938000D03*
X39370000Y-11938000D03*
D15*
X42150000Y-14478000D03*
D16*
X43170000Y-16258000D03*
X44190000Y-14478000D03*
X45210000Y-16258000D03*
X46230000Y-14478000D03*
X47250000Y-16258000D03*
X48270000Y-14478000D03*
X49290000Y-16258000D03*
X38860000Y-21077999D03*
X41150000Y-21078000D03*
X50290000Y-21078000D03*
X52580000Y-21077999D03*
D17*
X53845000Y-15368000D03*
X37595000Y-15368000D03*
D18*
X39370000Y-87630000D03*
X39370000Y-92630000D03*
X42870003Y-87630000D03*
X42870003Y-92630000D03*
X46370004Y-87630000D03*
X46370004Y-92630000D03*
X49870004Y-87630000D03*
X49870004Y-92630000D03*
D19*
X78740000Y-78740000D03*
D12*
X27940000Y-57150000D03*
D13*
X27940000Y-54610000D03*
X27940000Y-52070001D03*
X27940000Y-49530000D03*
X27940000Y-46990000D03*
X27940000Y-44450000D03*
X27940000Y-41910000D03*
X27940000Y-39369999D03*
D19*
X29210000Y-78740000D03*
D18*
X20320000Y-46990000D03*
X15320000Y-46990000D03*
X20320000Y-50490000D03*
X15320001Y-50490001D03*
X20320000Y-53990002D03*
X15320000Y-53990002D03*
X20320000Y-57490003D03*
X15320000Y-57490003D03*
X20320000Y-60990003D03*
X15320000Y-60990003D03*
X20320000Y-64490003D03*
X15320000Y-64490003D03*
X20320000Y-67990004D03*
X15320000Y-67990004D03*
X20320000Y-71490005D03*
X15320000Y-71490005D03*
X58420000Y-87630000D03*
X58420000Y-92630000D03*
X61920003Y-87630000D03*
X61920003Y-92630000D03*
X65420004Y-87630000D03*
X65420004Y-92630000D03*
X68920004Y-87630000D03*
X68920004Y-92630000D03*
X87630000Y-69850000D03*
X92630000Y-69850000D03*
X87630000Y-66349997D03*
X92630000Y-66349997D03*
X87630000Y-62849996D03*
X92630000Y-62849996D03*
X87630000Y-59349996D03*
X92630000Y-59349996D03*
D12*
X80010000Y-44450000D03*
D13*
X80010000Y-46990000D03*
X80010000Y-49530000D03*
X80010000Y-52070000D03*
X80010000Y-54610000D03*
X80010000Y-57150000D03*
X80010000Y-59690000D03*
X80010000Y-62230000D03*
D18*
X20320000Y-36830000D03*
X15320000Y-36830000D03*
X20320000Y-40330000D03*
X15320000Y-40330000D03*
D19*
X78740000Y-29210000D03*
D20*
X72865000Y-15900000D03*
X72865000Y-11100000D03*
D21*
X67150000Y-15900000D03*
D22*
X67150000Y-11099999D03*
D19*
X29210000Y-29210000D03*
D18*
X87630000Y-49530000D03*
X92630000Y-49530000D03*
X87630000Y-46029997D03*
X92630000Y-46029997D03*
X87630000Y-42529996D03*
X92630000Y-42529996D03*
X87630000Y-39029996D03*
X92630000Y-39029996D03*
%LPD*%
M02*
