G04 #@! TF.GenerationSoftware,KiCad,Pcbnew,9.0.0*
G04 #@! TF.CreationDate,2025-02-28T23:28:00-08:00*
G04 #@! TF.ProjectId,Constellation Saddle V1.1,436f6e73-7465-46c6-9c61-74696f6e2053,rev?*
G04 #@! TF.SameCoordinates,Original*
G04 #@! TF.FileFunction,Copper,L1,Top*
G04 #@! TF.FilePolarity,Positive*
%FSLAX46Y46*%
G04 Gerber Fmt 4.6, Leading zero omitted, Abs format (unit mm)*
G04 Created by KiCad (PCBNEW 9.0.0) date 2025-02-28 23:28:00*
%MOMM*%
%LPD*%
G01*
G04 APERTURE LIST*
G04 Aperture macros list*
%AMRoundRect*
0 Rectangle with rounded corners*
0 $1 Rounding radius*
0 $2 $3 $4 $5 $6 $7 $8 $9 X,Y pos of 4 corners*
0 Add a 4 corners polygon primitive as box body*
4,1,4,$2,$3,$4,$5,$6,$7,$8,$9,$2,$3,0*
0 Add four circle primitives for the rounded corners*
1,1,$1+$1,$2,$3*
1,1,$1+$1,$4,$5*
1,1,$1+$1,$6,$7*
1,1,$1+$1,$8,$9*
0 Add four rect primitives between the rounded corners*
20,1,$1+$1,$2,$3,$4,$5,0*
20,1,$1+$1,$4,$5,$6,$7,0*
20,1,$1+$1,$6,$7,$8,$9,0*
20,1,$1+$1,$8,$9,$2,$3,0*%
G04 Aperture macros list end*
G04 #@! TA.AperFunction,ComponentPad*
%ADD10R,1.700000X1.700000*%
G04 #@! TD*
G04 #@! TA.AperFunction,ComponentPad*
%ADD11O,1.700000X1.700000*%
G04 #@! TD*
G04 #@! TA.AperFunction,SMDPad,CuDef*
%ADD12RoundRect,0.243750X0.456250X-0.243750X0.456250X0.243750X-0.456250X0.243750X-0.456250X-0.243750X0*%
G04 #@! TD*
G04 #@! TA.AperFunction,ComponentPad*
%ADD13R,1.408000X1.408000*%
G04 #@! TD*
G04 #@! TA.AperFunction,ComponentPad*
%ADD14C,1.408000*%
G04 #@! TD*
G04 #@! TA.AperFunction,ComponentPad*
%ADD15C,2.400000*%
G04 #@! TD*
G04 #@! TA.AperFunction,ComponentPad*
%ADD16C,1.900000*%
G04 #@! TD*
G04 #@! TA.AperFunction,SMDPad,CuDef*
%ADD17RoundRect,0.250000X-0.450000X0.262500X-0.450000X-0.262500X0.450000X-0.262500X0.450000X0.262500X0*%
G04 #@! TD*
G04 #@! TA.AperFunction,SMDPad,CuDef*
%ADD18RoundRect,0.250000X-0.262500X-0.450000X0.262500X-0.450000X0.262500X0.450000X-0.262500X0.450000X0*%
G04 #@! TD*
G04 #@! TA.AperFunction,ComponentPad*
%ADD19C,5.600000*%
G04 #@! TD*
G04 #@! TA.AperFunction,SMDPad,CuDef*
%ADD20RoundRect,0.112500X-0.187500X-0.112500X0.187500X-0.112500X0.187500X0.112500X-0.187500X0.112500X0*%
G04 #@! TD*
G04 #@! TA.AperFunction,SMDPad,CuDef*
%ADD21RoundRect,0.150000X-0.512500X-0.150000X0.512500X-0.150000X0.512500X0.150000X-0.512500X0.150000X0*%
G04 #@! TD*
G04 #@! TA.AperFunction,SMDPad,CuDef*
%ADD22RoundRect,0.243750X-0.456250X0.243750X-0.456250X-0.243750X0.456250X-0.243750X0.456250X0.243750X0*%
G04 #@! TD*
G04 #@! TA.AperFunction,SMDPad,CuDef*
%ADD23RoundRect,0.243750X0.243750X0.456250X-0.243750X0.456250X-0.243750X-0.456250X0.243750X-0.456250X0*%
G04 #@! TD*
G04 #@! TA.AperFunction,SMDPad,CuDef*
%ADD24RoundRect,0.150000X-0.150000X0.512500X-0.150000X-0.512500X0.150000X-0.512500X0.150000X0.512500X0*%
G04 #@! TD*
G04 #@! TA.AperFunction,SMDPad,CuDef*
%ADD25RoundRect,0.250000X0.450000X-0.262500X0.450000X0.262500X-0.450000X0.262500X-0.450000X-0.262500X0*%
G04 #@! TD*
G04 #@! TA.AperFunction,ComponentPad*
%ADD26RoundRect,0.249999X1.025001X-1.025001X1.025001X1.025001X-1.025001X1.025001X-1.025001X-1.025001X0*%
G04 #@! TD*
G04 #@! TA.AperFunction,ComponentPad*
%ADD27C,2.550000*%
G04 #@! TD*
G04 #@! TA.AperFunction,SMDPad,CuDef*
%ADD28RoundRect,0.150000X0.512500X0.150000X-0.512500X0.150000X-0.512500X-0.150000X0.512500X-0.150000X0*%
G04 #@! TD*
G04 #@! TA.AperFunction,SMDPad,CuDef*
%ADD29RoundRect,0.250000X-0.250000X-0.475000X0.250000X-0.475000X0.250000X0.475000X-0.250000X0.475000X0*%
G04 #@! TD*
G04 #@! TA.AperFunction,ViaPad*
%ADD30C,0.700000*%
G04 #@! TD*
G04 #@! TA.AperFunction,Conductor*
%ADD31C,0.750000*%
G04 #@! TD*
G04 #@! TA.AperFunction,Conductor*
%ADD32C,0.500000*%
G04 #@! TD*
G04 APERTURE END LIST*
D10*
X69850000Y-27940000D03*
D11*
X67310000Y-27940000D03*
X64770001Y-27940000D03*
X62230000Y-27940000D03*
X59690000Y-27940000D03*
X57150000Y-27940000D03*
X54610000Y-27940000D03*
X52069999Y-27940000D03*
D12*
X58540000Y-23425002D03*
X58540000Y-21550000D03*
D13*
X42150000Y-14478000D03*
D14*
X43170000Y-16258000D03*
X44190000Y-14478000D03*
X45210000Y-16258000D03*
X46230000Y-14478000D03*
X47250000Y-16258000D03*
X48270000Y-14478000D03*
X49290000Y-16258000D03*
X38860000Y-21077999D03*
X41150000Y-21078000D03*
X50290000Y-21078000D03*
X52580000Y-21077999D03*
D15*
X53845000Y-15368000D03*
X37595000Y-15368000D03*
D16*
X39370000Y-87630000D03*
X39370000Y-92630000D03*
X42870003Y-87630000D03*
X42870003Y-92630000D03*
X46370004Y-87630000D03*
X46370004Y-92630000D03*
X49870004Y-87630000D03*
X49870004Y-92630000D03*
D17*
X64050000Y-17567500D03*
X64050000Y-19392500D03*
X56560000Y-12630000D03*
X56560000Y-14455000D03*
D18*
X60600000Y-7620000D03*
X62425000Y-7620000D03*
D19*
X78740000Y-78740000D03*
D10*
X27940000Y-57150000D03*
D11*
X27940000Y-54610000D03*
X27940000Y-52070001D03*
X27940000Y-49530000D03*
X27940000Y-46990000D03*
X27940000Y-44450000D03*
X27940000Y-41910000D03*
X27940000Y-39369999D03*
D17*
X58540000Y-18095000D03*
X58540000Y-19920000D03*
D19*
X29210000Y-78740000D03*
D20*
X66202500Y-22360000D03*
X68302500Y-22360000D03*
D21*
X61622500Y-14047501D03*
X61622500Y-15947499D03*
X63897500Y-14997500D03*
D16*
X20320000Y-46990000D03*
X15320000Y-46990000D03*
X20320000Y-50490000D03*
X15320001Y-50490001D03*
X20320000Y-53990002D03*
X15320000Y-53990002D03*
X20320000Y-57490003D03*
X15320000Y-57490003D03*
X20320000Y-60990003D03*
X15320000Y-60990003D03*
X20320000Y-64490003D03*
X15320000Y-64490003D03*
X20320000Y-67990004D03*
X15320000Y-67990004D03*
X20320000Y-71490005D03*
X15320000Y-71490005D03*
D22*
X73240000Y-18844998D03*
X73240000Y-20720000D03*
D23*
X65927501Y-7620000D03*
X64052499Y-7620000D03*
D24*
X62232499Y-17722500D03*
X60332501Y-17722500D03*
X61282500Y-19997500D03*
D16*
X58420000Y-87630000D03*
X58420000Y-92630000D03*
X61920003Y-87630000D03*
X61920003Y-92630000D03*
X65420004Y-87630000D03*
X65420004Y-92630000D03*
X68920004Y-87630000D03*
X68920004Y-92630000D03*
X87630000Y-69850000D03*
X92630000Y-69850000D03*
X87630000Y-66349997D03*
X92630000Y-66349997D03*
X87630000Y-62849996D03*
X92630000Y-62849996D03*
X87630000Y-59349996D03*
X92630000Y-59349996D03*
D10*
X80010000Y-44450000D03*
D11*
X80010000Y-46990000D03*
X80010000Y-49530000D03*
X80010000Y-52070000D03*
X80010000Y-54610000D03*
X80010000Y-57150000D03*
X80010000Y-59690000D03*
X80010000Y-62230000D03*
D21*
X61682500Y-22820001D03*
X61682500Y-24719999D03*
X63957500Y-23770000D03*
D25*
X62820000Y-11242500D03*
X62820000Y-9417500D03*
D18*
X66007500Y-18850000D03*
X67832500Y-18850000D03*
D16*
X20320000Y-36830000D03*
X15320000Y-36830000D03*
X20320000Y-40330000D03*
X15320000Y-40330000D03*
D19*
X78740000Y-29210000D03*
D17*
X60800000Y-9417500D03*
X60800000Y-11242500D03*
D18*
X56377500Y-16260000D03*
X58202500Y-16260000D03*
D25*
X73240000Y-24175000D03*
X73240000Y-22350000D03*
D26*
X67150000Y-15900000D03*
D27*
X67150000Y-11099999D03*
D28*
X58797499Y-10989999D03*
X58797499Y-9090001D03*
X56522499Y-10040000D03*
D19*
X29210000Y-29210000D03*
D16*
X87630000Y-49530000D03*
X92630000Y-49530000D03*
X87630000Y-46029997D03*
X92630000Y-46029997D03*
X87630000Y-42529996D03*
X92630000Y-42529996D03*
X87630000Y-39029996D03*
X92630000Y-39029996D03*
D29*
X66380000Y-24430000D03*
X68280000Y-24430000D03*
D30*
X58530000Y-22740000D03*
X60800000Y-14050000D03*
X58850000Y-15630000D03*
X65270000Y-7640000D03*
X68940000Y-24580000D03*
X58780000Y-10510000D03*
X73230000Y-19500000D03*
X68510000Y-18860000D03*
X60790000Y-10550000D03*
X32710000Y-72950000D03*
X33640000Y-66600000D03*
X32700000Y-71640000D03*
X32700000Y-67470000D03*
X97040000Y-49770000D03*
D31*
X84140003Y-66349997D02*
X87630000Y-66349997D01*
X70810000Y-94530000D02*
X71550000Y-93790000D01*
X71550000Y-78940000D02*
X84140003Y-66349997D01*
X63820003Y-94530000D02*
X70810000Y-94530000D01*
X71550000Y-93790000D02*
X71550000Y-78940000D01*
X61920003Y-92630000D02*
X63820003Y-94530000D01*
D32*
X82830000Y-69850000D02*
X87630000Y-69850000D01*
X73550000Y-79130000D02*
X82830000Y-69850000D01*
X73550000Y-95100000D02*
X73550000Y-79130000D01*
X60776000Y-96556000D02*
X72094000Y-96556000D01*
X58420000Y-94200000D02*
X60776000Y-96556000D01*
X72094000Y-96556000D02*
X73550000Y-95100000D01*
X85636824Y-62849996D02*
X87630000Y-62849996D01*
X85580364Y-62906456D02*
X85636824Y-62849996D01*
X70027456Y-78459364D02*
X85580364Y-62906456D01*
X69510000Y-78870000D02*
X69616820Y-78870000D01*
X69036092Y-78870000D02*
X69510000Y-78870000D01*
X69616820Y-78870000D02*
X70027456Y-78459364D01*
X62352092Y-78870000D02*
X69036092Y-78870000D01*
X61771364Y-78870000D02*
X62352092Y-78870000D01*
X36447636Y-78869000D02*
X37028364Y-78869000D01*
X37028364Y-78869000D02*
X61770364Y-78869000D01*
X36311728Y-78869000D02*
X36447636Y-78869000D01*
X31140000Y-73697272D02*
X36311728Y-78869000D01*
X31140000Y-53280000D02*
X31140000Y-73697272D01*
X29930001Y-52070001D02*
X31140000Y-53280000D01*
X27940000Y-52070001D02*
X29930001Y-52070001D01*
X61770364Y-78869000D02*
X61771364Y-78870000D01*
X87070004Y-42529996D02*
X87630000Y-42529996D01*
X85290000Y-62205456D02*
X85290000Y-44310000D01*
X69326456Y-78169000D02*
X85290000Y-62205456D01*
X62060728Y-78168000D02*
X62061728Y-78169000D01*
X31900000Y-73330000D02*
X36738000Y-78168000D01*
X31900000Y-52287919D02*
X31900000Y-73330000D01*
X36738000Y-78168000D02*
X62060728Y-78168000D01*
X62061728Y-78169000D02*
X69326456Y-78169000D01*
X29142081Y-49530000D02*
X31900000Y-52287919D01*
X27940000Y-49530000D02*
X29142081Y-49530000D01*
X85290000Y-44310000D02*
X87070004Y-42529996D01*
X69036092Y-77468000D02*
X78180000Y-68324092D01*
X78180000Y-68324092D02*
X78180000Y-67610000D01*
X62352092Y-77468000D02*
X69036092Y-77468000D01*
X62351092Y-77467000D02*
X62352092Y-77468000D01*
X32710000Y-72950000D02*
X37227000Y-77467000D01*
X37227000Y-77467000D02*
X62351092Y-77467000D01*
X78930000Y-57160000D02*
X80000000Y-57160000D01*
X78180000Y-57910000D02*
X78930000Y-57160000D01*
X78180000Y-67610000D02*
X78180000Y-57910000D01*
X80000000Y-57160000D02*
X80010000Y-57150000D01*
X38413272Y-76766000D02*
X38014636Y-76766000D01*
X38994000Y-76766000D02*
X38595364Y-76766000D01*
X62641456Y-76766000D02*
X39574728Y-76766000D01*
X39574728Y-76766000D02*
X38994000Y-76766000D01*
X62642456Y-76767000D02*
X62641456Y-76766000D01*
X38595364Y-76766000D02*
X38413272Y-76766000D01*
X63803912Y-76767000D02*
X63223184Y-76767000D01*
X67553000Y-76767000D02*
X63803912Y-76767000D01*
X37826000Y-76766000D02*
X32700000Y-71640000D01*
X67584272Y-76767000D02*
X67553000Y-76767000D01*
X38014636Y-76766000D02*
X37826000Y-76766000D01*
X68474364Y-76767000D02*
X68165000Y-76767000D01*
X68745728Y-76767000D02*
X68474364Y-76767000D01*
X63223184Y-76767000D02*
X62642456Y-76767000D01*
X69156364Y-76356364D02*
X68745728Y-76767000D01*
X68165000Y-76767000D02*
X67893636Y-76767000D01*
X69567000Y-75945728D02*
X69334364Y-76178364D01*
X67893636Y-76767000D02*
X67584272Y-76767000D01*
X76628728Y-68884000D02*
X69567000Y-75945728D01*
X77039364Y-68473364D02*
X76628728Y-68884000D01*
X77450000Y-68062728D02*
X77039364Y-68473364D01*
X77450000Y-67210636D02*
X77450000Y-67482000D01*
X69334364Y-76178364D02*
X69156364Y-76356364D01*
X77450000Y-55660000D02*
X77450000Y-66901272D01*
X77451000Y-55659000D02*
X77450000Y-55660000D01*
X77450000Y-66901272D02*
X77450000Y-67210636D01*
X77450000Y-67791364D02*
X77450000Y-68062728D01*
X78500000Y-54610000D02*
X77451000Y-55659000D01*
X77450000Y-67482000D02*
X77450000Y-67791364D01*
X80010000Y-54610000D02*
X78500000Y-54610000D01*
X78770000Y-52070000D02*
X80010000Y-52070000D01*
X76750000Y-54090000D02*
X78770000Y-52070000D01*
X76750000Y-55368636D02*
X76750000Y-54090000D01*
X76749000Y-55369636D02*
X76750000Y-55368636D01*
X76749000Y-67191636D02*
X76749000Y-55369636D01*
X76749000Y-67501000D02*
X76749000Y-67191636D01*
X76749000Y-67772364D02*
X76749000Y-67501000D01*
X76338364Y-68183000D02*
X76749000Y-67772364D01*
X68866000Y-75655364D02*
X76338364Y-68183000D01*
X67874636Y-76066000D02*
X68184000Y-76066000D01*
X63513548Y-76066000D02*
X67874636Y-76066000D01*
X62932820Y-76066000D02*
X63513548Y-76066000D01*
X62931820Y-76065000D02*
X62932820Y-76066000D01*
X38305000Y-76065000D02*
X38703636Y-76065000D01*
X32700000Y-70460000D02*
X38305000Y-76065000D01*
X38703636Y-76065000D02*
X39284364Y-76065000D01*
X68455364Y-76066000D02*
X68866000Y-75655364D01*
X39284364Y-76065000D02*
X62931820Y-76065000D01*
X68184000Y-76066000D02*
X68455364Y-76066000D01*
X32700000Y-67470000D02*
X32700000Y-70460000D01*
X78800000Y-49530000D02*
X80010000Y-49530000D01*
X68165000Y-75365000D02*
X76048000Y-67482000D01*
X76048000Y-67482000D02*
X76048000Y-52282000D01*
X76048000Y-52282000D02*
X78800000Y-49530000D01*
X63223184Y-75365000D02*
X68165000Y-75365000D01*
X63222184Y-75364000D02*
X63223184Y-75365000D01*
X38994000Y-75364000D02*
X63222184Y-75364000D01*
X33640000Y-70010000D02*
X38994000Y-75364000D01*
X33640000Y-66600000D02*
X33640000Y-70010000D01*
X58540000Y-22750000D02*
X58530000Y-22740000D01*
X60800000Y-10560000D02*
X60790000Y-10550000D01*
X58797499Y-10527499D02*
X58780000Y-10510000D01*
X68790000Y-24430000D02*
X68940000Y-24580000D01*
X61622500Y-14047501D02*
X60802499Y-14047501D01*
X68500000Y-18850000D02*
X68510000Y-18860000D01*
X60800000Y-11242500D02*
X60800000Y-10560000D01*
X60802499Y-14047501D02*
X60800000Y-14050000D01*
X65290000Y-7620000D02*
X65270000Y-7640000D01*
X73240000Y-18844998D02*
X73240000Y-19490000D01*
X73240000Y-19490000D02*
X73230000Y-19500000D01*
X68280000Y-24430000D02*
X68790000Y-24430000D01*
X67832500Y-18850000D02*
X68500000Y-18850000D01*
X58202500Y-16260000D02*
X58220000Y-16260000D01*
X58797499Y-10989999D02*
X58797499Y-10527499D01*
X65927501Y-7620000D02*
X65290000Y-7620000D01*
X58220000Y-16260000D02*
X58850000Y-15630000D01*
X58540000Y-23425002D02*
X58540000Y-22750000D01*
X58540000Y-19920000D02*
X58540000Y-21550000D01*
X73240000Y-20720000D02*
X73240000Y-22350000D01*
X62425000Y-7620000D02*
X64052499Y-7620000D01*
X60800000Y-9417500D02*
X62820000Y-9417500D01*
X60600000Y-7900000D02*
X60600000Y-7620000D01*
X59107498Y-9400000D02*
X58797499Y-9090001D01*
X60782500Y-9400000D02*
X59107498Y-9400000D01*
X60800000Y-9417500D02*
X60782500Y-9400000D01*
X59409999Y-9090001D02*
X60600000Y-7900000D01*
X62997500Y-9240000D02*
X62820000Y-9417500D01*
X69760000Y-10740000D02*
X68260000Y-9240000D01*
X69760000Y-20902500D02*
X69760000Y-10740000D01*
X68260000Y-9240000D02*
X62997500Y-9240000D01*
X68302500Y-22360000D02*
X69760000Y-20902500D01*
X58797499Y-9090001D02*
X59409999Y-9090001D01*
X65770000Y-15900000D02*
X64867500Y-14997500D01*
X64050000Y-15150000D02*
X63897500Y-14997500D01*
X67150000Y-15900000D02*
X65770000Y-15900000D01*
X64867500Y-14997500D02*
X63897500Y-14997500D01*
X64050000Y-17567500D02*
X64050000Y-15150000D01*
X42015000Y-18615000D02*
X49840000Y-26440000D01*
X42150000Y-14478000D02*
X42015000Y-14613000D01*
X49840000Y-26440000D02*
X49840000Y-29300000D01*
X49840000Y-29300000D02*
X50350000Y-29810000D01*
X42015000Y-14613000D02*
X42015000Y-18615000D01*
X50350000Y-29810000D02*
X55280000Y-29810000D01*
X55280000Y-29810000D02*
X57150000Y-27940000D01*
X53410000Y-25620000D02*
X54610000Y-26820000D01*
X50720000Y-25620000D02*
X53410000Y-25620000D01*
X43170000Y-18070000D02*
X50720000Y-25620000D01*
X54610000Y-26820000D02*
X54610000Y-27940000D01*
X43170000Y-16258000D02*
X43170000Y-18070000D01*
X48270000Y-14478000D02*
X48270000Y-11390000D01*
X48270000Y-11390000D02*
X49919999Y-9740001D01*
X56522499Y-12592499D02*
X56560000Y-12630000D01*
X56222500Y-9740001D02*
X56522499Y-10040000D01*
X56522499Y-10040000D02*
X56522499Y-12592499D01*
X49919999Y-9740001D02*
X56222500Y-9740001D01*
D31*
X67310000Y-27940000D02*
X67310000Y-30200000D01*
D32*
X66202500Y-22360000D02*
X66202500Y-24252500D01*
D31*
X95390000Y-48789997D02*
X95390000Y-63589997D01*
X87630000Y-66349997D02*
X92630000Y-66349997D01*
X43780000Y-95730000D02*
X52810000Y-95730000D01*
X95230000Y-43429997D02*
X92630000Y-46029997D01*
X42870003Y-87630000D02*
X42870003Y-92630000D01*
X72810000Y-35700000D02*
X92340000Y-35700000D01*
X92630000Y-46029997D02*
X95390000Y-48789997D01*
X42870003Y-94820003D02*
X43780000Y-95730000D01*
X20320000Y-40330000D02*
X22270000Y-40330000D01*
X67310000Y-30200000D02*
X72810000Y-35700000D01*
X54140000Y-86350000D02*
X54790000Y-85700000D01*
X61920003Y-87630000D02*
X61920003Y-92630000D01*
D32*
X66202500Y-24252500D02*
X66380000Y-24430000D01*
X63957500Y-23770000D02*
X65720000Y-23770000D01*
D31*
X60950000Y-34300000D02*
X67310000Y-27940000D01*
X87630000Y-46029997D02*
X92630000Y-46029997D01*
X28300000Y-34300000D02*
X60950000Y-34300000D01*
X61920003Y-86530003D02*
X61920003Y-87630000D01*
X95390000Y-63589997D02*
X92630000Y-66349997D01*
D32*
X67310000Y-27940000D02*
X69310000Y-25940000D01*
D31*
X54140000Y-94400000D02*
X54140000Y-86350000D01*
X92340000Y-35700000D02*
X95230000Y-38590000D01*
D32*
X69310000Y-25940000D02*
X72330000Y-25940000D01*
X73240000Y-25030000D02*
X73240000Y-24175000D01*
D31*
X42870003Y-92630000D02*
X42870003Y-94820003D01*
X95230000Y-38590000D02*
X95230000Y-43429997D01*
X15320000Y-40330000D02*
X20320000Y-40330000D01*
D32*
X65720000Y-23770000D02*
X66380000Y-24430000D01*
D31*
X61090000Y-85700000D02*
X61920003Y-86530003D01*
X52810000Y-95730000D02*
X54140000Y-94400000D01*
X54790000Y-85700000D02*
X61090000Y-85700000D01*
X22270000Y-40330000D02*
X28300000Y-34300000D01*
D32*
X72330000Y-25940000D02*
X73240000Y-25030000D01*
X66380000Y-27010000D02*
X67310000Y-27940000D01*
X66380000Y-24430000D02*
X66380000Y-27010000D01*
X65465000Y-19392500D02*
X66007500Y-18850000D01*
X64050000Y-19392500D02*
X65465000Y-19392500D01*
X66007500Y-18850000D02*
X66007500Y-19582500D01*
X62844000Y-24874000D02*
X64770001Y-26800001D01*
X64770001Y-26800001D02*
X64770001Y-27940000D01*
X62844000Y-22746000D02*
X62844000Y-24874000D01*
X66007500Y-19582500D02*
X62844000Y-22746000D01*
X56560000Y-16077500D02*
X56377500Y-16260000D01*
X58420000Y-25920000D02*
X61430000Y-25920000D01*
X61430000Y-25920000D02*
X62230000Y-26720000D01*
X62230000Y-26720000D02*
X62230000Y-27940000D01*
X56377500Y-23877500D02*
X58420000Y-25920000D01*
X56560000Y-14455000D02*
X56560000Y-16077500D01*
X56377500Y-16260000D02*
X56377500Y-23877500D01*
X15320000Y-67990004D02*
X20320000Y-67990004D01*
X15320001Y-50490001D02*
X20320000Y-50490000D01*
X25410000Y-41900000D02*
X25410000Y-40050000D01*
X20320000Y-46990000D02*
X25410000Y-41900000D01*
X25410000Y-40050000D02*
X26090001Y-39369999D01*
X26090001Y-39369999D02*
X27940000Y-39369999D01*
X15320000Y-46990000D02*
X20320000Y-46990000D01*
X15320000Y-60990003D02*
X20320000Y-60990003D01*
X20320000Y-64490003D02*
X23840000Y-60970003D01*
X23840000Y-60970003D02*
X23840000Y-47570000D01*
X23840000Y-47570000D02*
X26960000Y-44450000D01*
X26960000Y-44450000D02*
X27940000Y-44450000D01*
X15320000Y-64490003D02*
X20320000Y-64490003D01*
X15320000Y-53990002D02*
X20320000Y-53990002D01*
X25020000Y-66790005D02*
X25020000Y-48970000D01*
X15320000Y-71490005D02*
X20320000Y-71490005D01*
X27000000Y-46990000D02*
X27940000Y-46990000D01*
X25020000Y-48970000D02*
X27000000Y-46990000D01*
X20320000Y-71490005D02*
X25020000Y-66790005D01*
X15320000Y-57490003D02*
X20320000Y-57490003D01*
X22930000Y-45980000D02*
X22930000Y-55770000D01*
X21209997Y-57490003D02*
X20320000Y-57490003D01*
X22930000Y-55770000D02*
X21209997Y-57490003D01*
X27940000Y-41910000D02*
X27000000Y-41910000D01*
X27000000Y-41910000D02*
X22930000Y-45980000D01*
X39370000Y-95370000D02*
X40556000Y-96556000D01*
X39370000Y-87630000D02*
X39370000Y-92630000D01*
X92630000Y-69850000D02*
X97600000Y-64880000D01*
X97600000Y-50330000D02*
X97040000Y-49770000D01*
X58420000Y-87630000D02*
X58420000Y-92630000D01*
X56064000Y-96556000D02*
X58420000Y-94200000D01*
X87630000Y-69850000D02*
X92630000Y-69850000D01*
X87630000Y-49530000D02*
X92630000Y-49530000D01*
X39370000Y-92630000D02*
X39370000Y-95370000D01*
X58420000Y-94200000D02*
X58420000Y-92630000D01*
X40556000Y-96556000D02*
X56064000Y-96556000D01*
X97600000Y-64880000D02*
X97600000Y-50330000D01*
X46370004Y-81410004D02*
X46370004Y-87630000D01*
X27940000Y-72480000D02*
X35750000Y-80290000D01*
X27940000Y-57150000D02*
X27940000Y-72480000D01*
X45250000Y-80290000D02*
X46370004Y-81410004D01*
X46370004Y-92630000D02*
X46370004Y-87630000D01*
X35750000Y-80290000D02*
X45250000Y-80290000D01*
X87630000Y-62849996D02*
X92630000Y-62849996D01*
X30439000Y-55719000D02*
X29330000Y-54610000D01*
X65420004Y-83510004D02*
X61480000Y-79570000D01*
X36021364Y-79570000D02*
X30439000Y-73987636D01*
X29330000Y-54610000D02*
X27940000Y-54610000D01*
X30439000Y-73987636D02*
X30439000Y-55719000D01*
X65420004Y-92630000D02*
X65420004Y-87630000D01*
X61480000Y-79570000D02*
X36021364Y-79570000D01*
X65420004Y-87630000D02*
X65420004Y-83510004D01*
X87630000Y-42529996D02*
X92630000Y-42529996D01*
X58540000Y-18095000D02*
X59960001Y-18095000D01*
X60912501Y-15947499D02*
X60332501Y-16527499D01*
X60332501Y-16527499D02*
X60332501Y-17722500D01*
X61622500Y-15947499D02*
X60912501Y-15947499D01*
X59960001Y-18095000D02*
X60332501Y-17722500D01*
X60320000Y-24170000D02*
X60869999Y-24719999D01*
X61282500Y-20717500D02*
X60320000Y-21680000D01*
X60869999Y-24719999D02*
X61682500Y-24719999D01*
X60320000Y-21680000D02*
X60320000Y-24170000D01*
X61282500Y-19997500D02*
X61282500Y-20717500D01*
X62232499Y-22270002D02*
X62232499Y-17722500D01*
X62784000Y-11278500D02*
X62784000Y-17170999D01*
X61682500Y-22820001D02*
X62232499Y-22270002D01*
X62784000Y-17170999D02*
X62232499Y-17722500D01*
X62820000Y-11242500D02*
X62784000Y-11278500D01*
M02*
