G04 #@! TF.GenerationSoftware,KiCad,Pcbnew,7.0.7*
G04 #@! TF.CreationDate,2024-02-07T12:50:48-08:00*
G04 #@! TF.ProjectId,EthBreakoutBoard,45746842-7265-4616-9b6f-7574426f6172,rev?*
G04 #@! TF.SameCoordinates,Original*
G04 #@! TF.FileFunction,Legend,Bot*
G04 #@! TF.FilePolarity,Positive*
%FSLAX46Y46*%
G04 Gerber Fmt 4.6, Leading zero omitted, Abs format (unit mm)*
G04 Created by KiCad (PCBNEW 7.0.7) date 2024-02-07 12:50:48*
%MOMM*%
%LPD*%
G01*
G04 APERTURE LIST*
%ADD10C,0.200000*%
%ADD11C,0.508000*%
%ADD12C,1.397000*%
%ADD13C,3.200400*%
%ADD14C,3.200000*%
%ADD15R,2.025000X2.025000*%
%ADD16C,2.025000*%
G04 APERTURE END LIST*
D10*
X54215564Y-30457219D02*
X54882231Y-30457219D01*
X54882231Y-31504838D02*
X54882231Y-29504838D01*
X54882231Y-29504838D02*
X53929850Y-29504838D01*
X52310802Y-31504838D02*
X52310802Y-30457219D01*
X52310802Y-30457219D02*
X52406040Y-30266742D01*
X52406040Y-30266742D02*
X52596516Y-30171504D01*
X52596516Y-30171504D02*
X52977469Y-30171504D01*
X52977469Y-30171504D02*
X53167945Y-30266742D01*
X52310802Y-31409600D02*
X52501278Y-31504838D01*
X52501278Y-31504838D02*
X52977469Y-31504838D01*
X52977469Y-31504838D02*
X53167945Y-31409600D01*
X53167945Y-31409600D02*
X53263183Y-31219123D01*
X53263183Y-31219123D02*
X53263183Y-31028647D01*
X53263183Y-31028647D02*
X53167945Y-30838171D01*
X53167945Y-30838171D02*
X52977469Y-30742933D01*
X52977469Y-30742933D02*
X52501278Y-30742933D01*
X52501278Y-30742933D02*
X52310802Y-30647695D01*
X51358421Y-31504838D02*
X51358421Y-29504838D01*
X51167945Y-30742933D02*
X50596516Y-31504838D01*
X50596516Y-30171504D02*
X51358421Y-30933409D01*
X48977468Y-31409600D02*
X49167944Y-31504838D01*
X49167944Y-31504838D02*
X49548897Y-31504838D01*
X49548897Y-31504838D02*
X49739373Y-31409600D01*
X49739373Y-31409600D02*
X49834611Y-31219123D01*
X49834611Y-31219123D02*
X49834611Y-30457219D01*
X49834611Y-30457219D02*
X49739373Y-30266742D01*
X49739373Y-30266742D02*
X49548897Y-30171504D01*
X49548897Y-30171504D02*
X49167944Y-30171504D01*
X49167944Y-30171504D02*
X48977468Y-30266742D01*
X48977468Y-30266742D02*
X48882230Y-30457219D01*
X48882230Y-30457219D02*
X48882230Y-30647695D01*
X48882230Y-30647695D02*
X49834611Y-30838171D01*
X46501277Y-30457219D02*
X45834610Y-30457219D01*
X45548896Y-31504838D02*
X46501277Y-31504838D01*
X46501277Y-31504838D02*
X46501277Y-29504838D01*
X46501277Y-29504838D02*
X45548896Y-29504838D01*
X44977467Y-30171504D02*
X44215563Y-30171504D01*
X44691753Y-29504838D02*
X44691753Y-31219123D01*
X44691753Y-31219123D02*
X44596515Y-31409600D01*
X44596515Y-31409600D02*
X44406039Y-31504838D01*
X44406039Y-31504838D02*
X44215563Y-31504838D01*
X43548896Y-31504838D02*
X43548896Y-29504838D01*
X42691753Y-31504838D02*
X42691753Y-30457219D01*
X42691753Y-30457219D02*
X42786991Y-30266742D01*
X42786991Y-30266742D02*
X42977467Y-30171504D01*
X42977467Y-30171504D02*
X43263182Y-30171504D01*
X43263182Y-30171504D02*
X43453658Y-30266742D01*
X43453658Y-30266742D02*
X43548896Y-30361980D01*
X40977467Y-31409600D02*
X41167943Y-31504838D01*
X41167943Y-31504838D02*
X41548896Y-31504838D01*
X41548896Y-31504838D02*
X41739372Y-31409600D01*
X41739372Y-31409600D02*
X41834610Y-31219123D01*
X41834610Y-31219123D02*
X41834610Y-30457219D01*
X41834610Y-30457219D02*
X41739372Y-30266742D01*
X41739372Y-30266742D02*
X41548896Y-30171504D01*
X41548896Y-30171504D02*
X41167943Y-30171504D01*
X41167943Y-30171504D02*
X40977467Y-30266742D01*
X40977467Y-30266742D02*
X40882229Y-30457219D01*
X40882229Y-30457219D02*
X40882229Y-30647695D01*
X40882229Y-30647695D02*
X41834610Y-30838171D01*
X40025086Y-31504838D02*
X40025086Y-30171504D01*
X40025086Y-30552457D02*
X39929848Y-30361980D01*
X39929848Y-30361980D02*
X39834610Y-30266742D01*
X39834610Y-30266742D02*
X39644134Y-30171504D01*
X39644134Y-30171504D02*
X39453657Y-30171504D01*
X38786991Y-30171504D02*
X38786991Y-31504838D01*
X38786991Y-30361980D02*
X38691753Y-30266742D01*
X38691753Y-30266742D02*
X38501277Y-30171504D01*
X38501277Y-30171504D02*
X38215562Y-30171504D01*
X38215562Y-30171504D02*
X38025086Y-30266742D01*
X38025086Y-30266742D02*
X37929848Y-30457219D01*
X37929848Y-30457219D02*
X37929848Y-31504838D01*
X36215562Y-31409600D02*
X36406038Y-31504838D01*
X36406038Y-31504838D02*
X36786991Y-31504838D01*
X36786991Y-31504838D02*
X36977467Y-31409600D01*
X36977467Y-31409600D02*
X37072705Y-31219123D01*
X37072705Y-31219123D02*
X37072705Y-30457219D01*
X37072705Y-30457219D02*
X36977467Y-30266742D01*
X36977467Y-30266742D02*
X36786991Y-30171504D01*
X36786991Y-30171504D02*
X36406038Y-30171504D01*
X36406038Y-30171504D02*
X36215562Y-30266742D01*
X36215562Y-30266742D02*
X36120324Y-30457219D01*
X36120324Y-30457219D02*
X36120324Y-30647695D01*
X36120324Y-30647695D02*
X37072705Y-30838171D01*
X35548895Y-30171504D02*
X34786991Y-30171504D01*
X35263181Y-29504838D02*
X35263181Y-31219123D01*
X35263181Y-31219123D02*
X35167943Y-31409600D01*
X35167943Y-31409600D02*
X34977467Y-31504838D01*
X34977467Y-31504838D02*
X34786991Y-31504838D01*
X31929847Y-30457219D02*
X32596514Y-30457219D01*
X32596514Y-31504838D02*
X32596514Y-29504838D01*
X32596514Y-29504838D02*
X31644133Y-29504838D01*
X31167942Y-29504838D02*
X30025085Y-29504838D01*
X30596514Y-31504838D02*
X30596514Y-29504838D01*
X29548894Y-29504838D02*
X29072704Y-31504838D01*
X29072704Y-31504838D02*
X28691751Y-30076266D01*
X28691751Y-30076266D02*
X28310799Y-31504838D01*
X28310799Y-31504838D02*
X27834609Y-29504838D01*
X50657469Y-45779600D02*
X50371755Y-45874838D01*
X50371755Y-45874838D02*
X49895564Y-45874838D01*
X49895564Y-45874838D02*
X49705088Y-45779600D01*
X49705088Y-45779600D02*
X49609850Y-45684361D01*
X49609850Y-45684361D02*
X49514612Y-45493885D01*
X49514612Y-45493885D02*
X49514612Y-45303409D01*
X49514612Y-45303409D02*
X49609850Y-45112933D01*
X49609850Y-45112933D02*
X49705088Y-45017695D01*
X49705088Y-45017695D02*
X49895564Y-44922457D01*
X49895564Y-44922457D02*
X50276517Y-44827219D01*
X50276517Y-44827219D02*
X50466993Y-44731980D01*
X50466993Y-44731980D02*
X50562231Y-44636742D01*
X50562231Y-44636742D02*
X50657469Y-44446266D01*
X50657469Y-44446266D02*
X50657469Y-44255790D01*
X50657469Y-44255790D02*
X50562231Y-44065314D01*
X50562231Y-44065314D02*
X50466993Y-43970076D01*
X50466993Y-43970076D02*
X50276517Y-43874838D01*
X50276517Y-43874838D02*
X49800326Y-43874838D01*
X49800326Y-43874838D02*
X49514612Y-43970076D01*
X48657469Y-45874838D02*
X48657469Y-43874838D01*
X48657469Y-43874838D02*
X48181279Y-43874838D01*
X48181279Y-43874838D02*
X47895564Y-43970076D01*
X47895564Y-43970076D02*
X47705088Y-44160552D01*
X47705088Y-44160552D02*
X47609850Y-44351028D01*
X47609850Y-44351028D02*
X47514612Y-44731980D01*
X47514612Y-44731980D02*
X47514612Y-45017695D01*
X47514612Y-45017695D02*
X47609850Y-45398647D01*
X47609850Y-45398647D02*
X47705088Y-45589123D01*
X47705088Y-45589123D02*
X47895564Y-45779600D01*
X47895564Y-45779600D02*
X48181279Y-45874838D01*
X48181279Y-45874838D02*
X48657469Y-45874838D01*
X46752707Y-45779600D02*
X46466993Y-45874838D01*
X46466993Y-45874838D02*
X45990802Y-45874838D01*
X45990802Y-45874838D02*
X45800326Y-45779600D01*
X45800326Y-45779600D02*
X45705088Y-45684361D01*
X45705088Y-45684361D02*
X45609850Y-45493885D01*
X45609850Y-45493885D02*
X45609850Y-45303409D01*
X45609850Y-45303409D02*
X45705088Y-45112933D01*
X45705088Y-45112933D02*
X45800326Y-45017695D01*
X45800326Y-45017695D02*
X45990802Y-44922457D01*
X45990802Y-44922457D02*
X46371755Y-44827219D01*
X46371755Y-44827219D02*
X46562231Y-44731980D01*
X46562231Y-44731980D02*
X46657469Y-44636742D01*
X46657469Y-44636742D02*
X46752707Y-44446266D01*
X46752707Y-44446266D02*
X46752707Y-44255790D01*
X46752707Y-44255790D02*
X46657469Y-44065314D01*
X46657469Y-44065314D02*
X46562231Y-43970076D01*
X46562231Y-43970076D02*
X46371755Y-43874838D01*
X46371755Y-43874838D02*
X45895564Y-43874838D01*
X45895564Y-43874838D02*
X45609850Y-43970076D01*
X44752707Y-43874838D02*
X44752707Y-45493885D01*
X44752707Y-45493885D02*
X44657469Y-45684361D01*
X44657469Y-45684361D02*
X44562231Y-45779600D01*
X44562231Y-45779600D02*
X44371755Y-45874838D01*
X44371755Y-45874838D02*
X43990802Y-45874838D01*
X43990802Y-45874838D02*
X43800326Y-45779600D01*
X43800326Y-45779600D02*
X43705088Y-45684361D01*
X43705088Y-45684361D02*
X43609850Y-45493885D01*
X43609850Y-45493885D02*
X43609850Y-43874838D01*
X41514612Y-45874838D02*
X42181279Y-44922457D01*
X42657469Y-45874838D02*
X42657469Y-43874838D01*
X42657469Y-43874838D02*
X41895564Y-43874838D01*
X41895564Y-43874838D02*
X41705088Y-43970076D01*
X41705088Y-43970076D02*
X41609850Y-44065314D01*
X41609850Y-44065314D02*
X41514612Y-44255790D01*
X41514612Y-44255790D02*
X41514612Y-44541504D01*
X41514612Y-44541504D02*
X41609850Y-44731980D01*
X41609850Y-44731980D02*
X41705088Y-44827219D01*
X41705088Y-44827219D02*
X41895564Y-44922457D01*
X41895564Y-44922457D02*
X42657469Y-44922457D01*
X40657469Y-45874838D02*
X40657469Y-43874838D01*
X40657469Y-43874838D02*
X39895564Y-43874838D01*
X39895564Y-43874838D02*
X39705088Y-43970076D01*
X39705088Y-43970076D02*
X39609850Y-44065314D01*
X39609850Y-44065314D02*
X39514612Y-44255790D01*
X39514612Y-44255790D02*
X39514612Y-44541504D01*
X39514612Y-44541504D02*
X39609850Y-44731980D01*
X39609850Y-44731980D02*
X39705088Y-44827219D01*
X39705088Y-44827219D02*
X39895564Y-44922457D01*
X39895564Y-44922457D02*
X40657469Y-44922457D01*
X37228897Y-44065314D02*
X37133659Y-43970076D01*
X37133659Y-43970076D02*
X36943183Y-43874838D01*
X36943183Y-43874838D02*
X36466992Y-43874838D01*
X36466992Y-43874838D02*
X36276516Y-43970076D01*
X36276516Y-43970076D02*
X36181278Y-44065314D01*
X36181278Y-44065314D02*
X36086040Y-44255790D01*
X36086040Y-44255790D02*
X36086040Y-44446266D01*
X36086040Y-44446266D02*
X36181278Y-44731980D01*
X36181278Y-44731980D02*
X37324135Y-45874838D01*
X37324135Y-45874838D02*
X36086040Y-45874838D01*
X34847945Y-43874838D02*
X34657468Y-43874838D01*
X34657468Y-43874838D02*
X34466992Y-43970076D01*
X34466992Y-43970076D02*
X34371754Y-44065314D01*
X34371754Y-44065314D02*
X34276516Y-44255790D01*
X34276516Y-44255790D02*
X34181278Y-44636742D01*
X34181278Y-44636742D02*
X34181278Y-45112933D01*
X34181278Y-45112933D02*
X34276516Y-45493885D01*
X34276516Y-45493885D02*
X34371754Y-45684361D01*
X34371754Y-45684361D02*
X34466992Y-45779600D01*
X34466992Y-45779600D02*
X34657468Y-45874838D01*
X34657468Y-45874838D02*
X34847945Y-45874838D01*
X34847945Y-45874838D02*
X35038421Y-45779600D01*
X35038421Y-45779600D02*
X35133659Y-45684361D01*
X35133659Y-45684361D02*
X35228897Y-45493885D01*
X35228897Y-45493885D02*
X35324135Y-45112933D01*
X35324135Y-45112933D02*
X35324135Y-44636742D01*
X35324135Y-44636742D02*
X35228897Y-44255790D01*
X35228897Y-44255790D02*
X35133659Y-44065314D01*
X35133659Y-44065314D02*
X35038421Y-43970076D01*
X35038421Y-43970076D02*
X34847945Y-43874838D01*
X33419373Y-44065314D02*
X33324135Y-43970076D01*
X33324135Y-43970076D02*
X33133659Y-43874838D01*
X33133659Y-43874838D02*
X32657468Y-43874838D01*
X32657468Y-43874838D02*
X32466992Y-43970076D01*
X32466992Y-43970076D02*
X32371754Y-44065314D01*
X32371754Y-44065314D02*
X32276516Y-44255790D01*
X32276516Y-44255790D02*
X32276516Y-44446266D01*
X32276516Y-44446266D02*
X32371754Y-44731980D01*
X32371754Y-44731980D02*
X33514611Y-45874838D01*
X33514611Y-45874838D02*
X32276516Y-45874838D01*
X30562230Y-44541504D02*
X30562230Y-45874838D01*
X31038421Y-43779600D02*
X31514611Y-45208171D01*
X31514611Y-45208171D02*
X30276516Y-45208171D01*
X51675564Y-53217219D02*
X51389850Y-53312457D01*
X51389850Y-53312457D02*
X51294612Y-53407695D01*
X51294612Y-53407695D02*
X51199374Y-53598171D01*
X51199374Y-53598171D02*
X51199374Y-53883885D01*
X51199374Y-53883885D02*
X51294612Y-54074361D01*
X51294612Y-54074361D02*
X51389850Y-54169600D01*
X51389850Y-54169600D02*
X51580326Y-54264838D01*
X51580326Y-54264838D02*
X52342231Y-54264838D01*
X52342231Y-54264838D02*
X52342231Y-52264838D01*
X52342231Y-52264838D02*
X51675564Y-52264838D01*
X51675564Y-52264838D02*
X51485088Y-52360076D01*
X51485088Y-52360076D02*
X51389850Y-52455314D01*
X51389850Y-52455314D02*
X51294612Y-52645790D01*
X51294612Y-52645790D02*
X51294612Y-52836266D01*
X51294612Y-52836266D02*
X51389850Y-53026742D01*
X51389850Y-53026742D02*
X51485088Y-53121980D01*
X51485088Y-53121980D02*
X51675564Y-53217219D01*
X51675564Y-53217219D02*
X52342231Y-53217219D01*
X50532707Y-52931504D02*
X50056517Y-54264838D01*
X49580326Y-52931504D02*
X50056517Y-54264838D01*
X50056517Y-54264838D02*
X50246993Y-54741028D01*
X50246993Y-54741028D02*
X50342231Y-54836266D01*
X50342231Y-54836266D02*
X50532707Y-54931504D01*
X48818421Y-54074361D02*
X48723183Y-54169600D01*
X48723183Y-54169600D02*
X48818421Y-54264838D01*
X48818421Y-54264838D02*
X48913659Y-54169600D01*
X48913659Y-54169600D02*
X48818421Y-54074361D01*
X48818421Y-54074361D02*
X48818421Y-54264838D01*
X48818421Y-53026742D02*
X48723183Y-53121980D01*
X48723183Y-53121980D02*
X48818421Y-53217219D01*
X48818421Y-53217219D02*
X48913659Y-53121980D01*
X48913659Y-53121980D02*
X48818421Y-53026742D01*
X48818421Y-53026742D02*
X48818421Y-53217219D01*
X46437468Y-53693409D02*
X45485087Y-53693409D01*
X46627944Y-54264838D02*
X45961278Y-52264838D01*
X45961278Y-52264838D02*
X45294611Y-54264838D01*
X44342230Y-54264838D02*
X44532706Y-54169600D01*
X44532706Y-54169600D02*
X44627944Y-53979123D01*
X44627944Y-53979123D02*
X44627944Y-52264838D01*
X42818420Y-54169600D02*
X43008896Y-54264838D01*
X43008896Y-54264838D02*
X43389849Y-54264838D01*
X43389849Y-54264838D02*
X43580325Y-54169600D01*
X43580325Y-54169600D02*
X43675563Y-53979123D01*
X43675563Y-53979123D02*
X43675563Y-53217219D01*
X43675563Y-53217219D02*
X43580325Y-53026742D01*
X43580325Y-53026742D02*
X43389849Y-52931504D01*
X43389849Y-52931504D02*
X43008896Y-52931504D01*
X43008896Y-52931504D02*
X42818420Y-53026742D01*
X42818420Y-53026742D02*
X42723182Y-53217219D01*
X42723182Y-53217219D02*
X42723182Y-53407695D01*
X42723182Y-53407695D02*
X43675563Y-53598171D01*
X42056515Y-54264838D02*
X41008896Y-52931504D01*
X42056515Y-52931504D02*
X41008896Y-54264838D01*
X38818419Y-53693409D02*
X37866038Y-53693409D01*
X39008895Y-54264838D02*
X38342229Y-52264838D01*
X38342229Y-52264838D02*
X37675562Y-54264838D01*
X36151752Y-54264838D02*
X36151752Y-53217219D01*
X36151752Y-53217219D02*
X36246990Y-53026742D01*
X36246990Y-53026742D02*
X36437466Y-52931504D01*
X36437466Y-52931504D02*
X36818419Y-52931504D01*
X36818419Y-52931504D02*
X37008895Y-53026742D01*
X36151752Y-54169600D02*
X36342228Y-54264838D01*
X36342228Y-54264838D02*
X36818419Y-54264838D01*
X36818419Y-54264838D02*
X37008895Y-54169600D01*
X37008895Y-54169600D02*
X37104133Y-53979123D01*
X37104133Y-53979123D02*
X37104133Y-53788647D01*
X37104133Y-53788647D02*
X37008895Y-53598171D01*
X37008895Y-53598171D02*
X36818419Y-53502933D01*
X36818419Y-53502933D02*
X36342228Y-53502933D01*
X36342228Y-53502933D02*
X36151752Y-53407695D01*
X35199371Y-54264838D02*
X35199371Y-52931504D01*
X35199371Y-53312457D02*
X35104133Y-53121980D01*
X35104133Y-53121980D02*
X35008895Y-53026742D01*
X35008895Y-53026742D02*
X34818419Y-52931504D01*
X34818419Y-52931504D02*
X34627942Y-52931504D01*
X33961276Y-54264838D02*
X33961276Y-52264838D01*
X33104133Y-54264838D02*
X33104133Y-53217219D01*
X33104133Y-53217219D02*
X33199371Y-53026742D01*
X33199371Y-53026742D02*
X33389847Y-52931504D01*
X33389847Y-52931504D02*
X33675562Y-52931504D01*
X33675562Y-52931504D02*
X33866038Y-53026742D01*
X33866038Y-53026742D02*
X33961276Y-53121980D01*
X31294609Y-52931504D02*
X31294609Y-54264838D01*
X32151752Y-52931504D02*
X32151752Y-53979123D01*
X32151752Y-53979123D02*
X32056514Y-54169600D01*
X32056514Y-54169600D02*
X31866038Y-54264838D01*
X31866038Y-54264838D02*
X31580323Y-54264838D01*
X31580323Y-54264838D02*
X31389847Y-54169600D01*
X31389847Y-54169600D02*
X31294609Y-54074361D01*
X30437466Y-54169600D02*
X30246990Y-54264838D01*
X30246990Y-54264838D02*
X29866038Y-54264838D01*
X29866038Y-54264838D02*
X29675561Y-54169600D01*
X29675561Y-54169600D02*
X29580323Y-53979123D01*
X29580323Y-53979123D02*
X29580323Y-53883885D01*
X29580323Y-53883885D02*
X29675561Y-53693409D01*
X29675561Y-53693409D02*
X29866038Y-53598171D01*
X29866038Y-53598171D02*
X30151752Y-53598171D01*
X30151752Y-53598171D02*
X30342228Y-53502933D01*
X30342228Y-53502933D02*
X30437466Y-53312457D01*
X30437466Y-53312457D02*
X30437466Y-53217219D01*
X30437466Y-53217219D02*
X30342228Y-53026742D01*
X30342228Y-53026742D02*
X30151752Y-52931504D01*
X30151752Y-52931504D02*
X29866038Y-52931504D01*
X29866038Y-52931504D02*
X29675561Y-53026742D01*
D11*
X33061000Y-43180000D02*
G75*
G03*
X33061000Y-43180000I-381000J0D01*
G01*
G36*
X46329120Y-36887337D02*
G01*
X46329120Y-36968554D01*
X46142430Y-36969887D01*
X45955740Y-36971220D01*
X45954447Y-37498270D01*
X45953153Y-38025320D01*
X45874437Y-38025320D01*
X45795720Y-38025320D01*
X45795720Y-37497000D01*
X45795720Y-36968680D01*
X45623000Y-36968680D01*
X45450280Y-36968680D01*
X45450280Y-36887400D01*
X45450280Y-36806120D01*
X45889700Y-36806120D01*
X46329120Y-36806120D01*
X46329120Y-36887337D01*
G37*
G36*
X38668480Y-36887371D02*
G01*
X38668480Y-36968680D01*
X38483060Y-36968680D01*
X38297640Y-36968680D01*
X38297640Y-37497128D01*
X38297640Y-38025577D01*
X38217630Y-38024178D01*
X38137620Y-38022780D01*
X38136327Y-37495730D01*
X38135033Y-36968680D01*
X37962208Y-36968680D01*
X37789383Y-36968680D01*
X37790782Y-36888670D01*
X37792180Y-36808660D01*
X38230330Y-36807361D01*
X38668480Y-36806063D01*
X38668480Y-36887371D01*
G37*
G36*
X47309560Y-37415720D02*
G01*
X47309560Y-38025375D01*
X46863790Y-38024077D01*
X46418020Y-38022780D01*
X46416618Y-37945310D01*
X46415216Y-37867840D01*
X46783648Y-37867840D01*
X47152080Y-37867840D01*
X47152080Y-37684960D01*
X47152080Y-37502080D01*
X46862520Y-37502080D01*
X46572960Y-37502080D01*
X46572960Y-37420800D01*
X46572960Y-37339520D01*
X46862520Y-37339520D01*
X47152080Y-37339520D01*
X47152080Y-37154100D01*
X47152080Y-36968680D01*
X46783652Y-36968680D01*
X46415223Y-36968680D01*
X46416622Y-36888670D01*
X46418020Y-36808660D01*
X46863790Y-36807362D01*
X47309560Y-36806064D01*
X47309560Y-37415720D01*
G37*
G36*
X40598880Y-37415720D02*
G01*
X40598880Y-38025320D01*
X40151840Y-38025320D01*
X39704800Y-38025320D01*
X39704800Y-37946580D01*
X39704800Y-37867840D01*
X40070560Y-37867840D01*
X40436320Y-37867840D01*
X40436320Y-37684960D01*
X40436320Y-37502080D01*
X40149300Y-37502080D01*
X39862280Y-37502080D01*
X39862280Y-37420800D01*
X39862280Y-37339520D01*
X40149300Y-37339520D01*
X40436320Y-37339520D01*
X40436320Y-37154100D01*
X40436320Y-36968680D01*
X40070560Y-36968680D01*
X39704800Y-36968680D01*
X39704800Y-36887400D01*
X39704800Y-36806120D01*
X40151840Y-36806120D01*
X40598880Y-36806120D01*
X40598880Y-37415720D01*
G37*
G36*
X40949400Y-37334440D02*
G01*
X40949400Y-37862760D01*
X41004828Y-37862760D01*
X41048155Y-37860875D01*
X41084776Y-37854761D01*
X41116995Y-37843779D01*
X41147371Y-37827296D01*
X41148104Y-37826822D01*
X41173502Y-37807115D01*
X41199492Y-37781563D01*
X41222887Y-37753607D01*
X41240502Y-37726689D01*
X41243049Y-37721582D01*
X41250748Y-37702667D01*
X41258915Y-37678695D01*
X41266716Y-37652571D01*
X41273319Y-37627200D01*
X41277891Y-37605484D01*
X41279600Y-37590328D01*
X41279600Y-37578280D01*
X41356567Y-37578280D01*
X41433533Y-37578280D01*
X41430380Y-37625270D01*
X41424396Y-37674695D01*
X41409249Y-37736177D01*
X41386329Y-37794071D01*
X41356280Y-37847278D01*
X41319744Y-37894700D01*
X41277365Y-37935237D01*
X41229787Y-37967793D01*
X41215613Y-37975543D01*
X41179103Y-37992543D01*
X41142867Y-38004294D01*
X41102097Y-38012477D01*
X41085671Y-38014438D01*
X41056547Y-38016545D01*
X41019335Y-38018163D01*
X40975190Y-38019247D01*
X40925270Y-38019747D01*
X40791920Y-38020240D01*
X40791920Y-37413180D01*
X40791920Y-36806120D01*
X40870660Y-36806120D01*
X40949400Y-36806120D01*
X40949400Y-37334440D01*
G37*
G36*
X48582118Y-36106498D02*
G01*
X48607390Y-36107083D01*
X48627506Y-36108086D01*
X48640799Y-36109414D01*
X48645600Y-36110972D01*
X48645481Y-36112253D01*
X48642796Y-36115660D01*
X48634788Y-36118731D01*
X48619113Y-36122486D01*
X48617464Y-36122879D01*
X48611913Y-36125020D01*
X48607308Y-36128851D01*
X48603571Y-36135220D01*
X48600626Y-36144972D01*
X48598394Y-36158955D01*
X48596799Y-36178015D01*
X48595762Y-36203000D01*
X48595207Y-36234756D01*
X48595056Y-36274130D01*
X48595232Y-36321969D01*
X48595657Y-36379120D01*
X48595936Y-36411502D01*
X48596429Y-36460593D01*
X48597027Y-36500923D01*
X48597841Y-36533382D01*
X48598985Y-36558860D01*
X48600571Y-36578246D01*
X48602711Y-36592430D01*
X48605518Y-36602301D01*
X48609104Y-36608750D01*
X48613582Y-36612666D01*
X48619064Y-36614939D01*
X48625662Y-36616458D01*
X48636960Y-36619824D01*
X48643466Y-36623896D01*
X48640027Y-36625235D01*
X48627915Y-36626473D01*
X48608564Y-36627449D01*
X48583478Y-36628089D01*
X48554160Y-36628320D01*
X48527291Y-36628131D01*
X48499019Y-36627351D01*
X48478965Y-36626028D01*
X48467519Y-36624233D01*
X48465066Y-36622032D01*
X48471996Y-36619497D01*
X48488696Y-36616695D01*
X48494490Y-36615986D01*
X48502152Y-36614945D01*
X48508475Y-36613198D01*
X48513592Y-36609883D01*
X48517638Y-36604144D01*
X48520746Y-36595119D01*
X48523050Y-36581951D01*
X48524685Y-36563779D01*
X48525783Y-36539744D01*
X48526480Y-36508987D01*
X48526908Y-36470649D01*
X48527203Y-36423870D01*
X48527498Y-36367792D01*
X48527647Y-36330181D01*
X48527660Y-36284959D01*
X48527487Y-36243584D01*
X48527144Y-36207109D01*
X48526645Y-36176585D01*
X48526002Y-36153065D01*
X48525231Y-36137600D01*
X48524344Y-36131242D01*
X48524127Y-36130928D01*
X48515964Y-36125237D01*
X48503127Y-36120952D01*
X48501872Y-36120681D01*
X48490271Y-36116668D01*
X48484485Y-36111952D01*
X48484762Y-36110953D01*
X48491182Y-36108901D01*
X48506204Y-36107480D01*
X48530344Y-36106653D01*
X48564115Y-36106386D01*
X48582118Y-36106498D01*
G37*
G36*
X41680835Y-36107636D02*
G01*
X41710588Y-36108095D01*
X41733269Y-36109135D01*
X41747853Y-36110692D01*
X41753310Y-36112700D01*
X41753338Y-36112830D01*
X41749611Y-36116842D01*
X41739340Y-36119475D01*
X41736816Y-36119741D01*
X41729531Y-36120546D01*
X41723507Y-36121938D01*
X41718626Y-36124785D01*
X41714766Y-36129958D01*
X41711809Y-36138328D01*
X41709634Y-36150765D01*
X41708123Y-36168139D01*
X41707155Y-36191321D01*
X41706610Y-36221182D01*
X41706369Y-36258591D01*
X41706313Y-36304419D01*
X41706320Y-36359536D01*
X41706321Y-36361460D01*
X41706360Y-36418983D01*
X41706548Y-36467194D01*
X41706994Y-36506915D01*
X41707807Y-36538969D01*
X41709095Y-36564179D01*
X41710969Y-36583366D01*
X41713538Y-36597353D01*
X41716909Y-36606963D01*
X41721193Y-36613019D01*
X41726499Y-36616342D01*
X41732935Y-36617756D01*
X41740610Y-36618082D01*
X41747733Y-36619244D01*
X41752040Y-36623240D01*
X41750881Y-36624222D01*
X41741282Y-36625959D01*
X41722533Y-36627245D01*
X41695314Y-36628045D01*
X41660301Y-36628320D01*
X41644505Y-36628275D01*
X41612001Y-36627787D01*
X41588857Y-36626776D01*
X41575336Y-36625255D01*
X41571700Y-36623240D01*
X41577899Y-36619750D01*
X41589541Y-36618160D01*
X41610508Y-36615134D01*
X41625837Y-36605156D01*
X41633846Y-36588173D01*
X41634278Y-36584815D01*
X41635081Y-36571166D01*
X41635813Y-36549114D01*
X41636456Y-36519823D01*
X41636989Y-36484455D01*
X41637394Y-36444172D01*
X41637651Y-36400137D01*
X41637740Y-36353514D01*
X41637737Y-36301903D01*
X41637656Y-36256236D01*
X41637387Y-36219020D01*
X41636818Y-36189377D01*
X41635839Y-36166428D01*
X41634337Y-36149292D01*
X41632203Y-36137091D01*
X41629325Y-36128947D01*
X41625592Y-36123979D01*
X41620893Y-36121308D01*
X41615117Y-36120056D01*
X41608152Y-36119343D01*
X41607032Y-36119222D01*
X41596795Y-36116592D01*
X41593290Y-36112700D01*
X41593668Y-36112214D01*
X41601260Y-36110302D01*
X41617748Y-36108855D01*
X41642104Y-36107939D01*
X41673300Y-36107620D01*
X41680835Y-36107636D01*
G37*
G36*
X39110209Y-36106906D02*
G01*
X39120679Y-36107028D01*
X39150345Y-36107779D01*
X39172867Y-36109022D01*
X39187243Y-36110685D01*
X39192466Y-36112700D01*
X39192318Y-36113614D01*
X39186455Y-36117636D01*
X39174624Y-36120799D01*
X39170401Y-36121502D01*
X39158747Y-36124366D01*
X39152086Y-36129547D01*
X39148345Y-36139637D01*
X39145451Y-36157223D01*
X39145404Y-36157560D01*
X39144291Y-36171315D01*
X39143380Y-36193619D01*
X39142670Y-36222927D01*
X39142162Y-36257689D01*
X39141856Y-36296358D01*
X39141752Y-36337386D01*
X39141851Y-36379224D01*
X39142152Y-36420326D01*
X39142657Y-36459143D01*
X39143365Y-36494126D01*
X39144277Y-36523729D01*
X39145392Y-36546404D01*
X39146661Y-36563694D01*
X39149405Y-36587272D01*
X39153392Y-36603019D01*
X39159340Y-36612423D01*
X39167967Y-36616974D01*
X39179991Y-36618160D01*
X39187405Y-36619310D01*
X39191720Y-36623240D01*
X39190561Y-36624222D01*
X39180962Y-36625959D01*
X39162213Y-36627245D01*
X39134994Y-36628045D01*
X39099981Y-36628320D01*
X39084185Y-36628275D01*
X39051681Y-36627787D01*
X39028537Y-36626776D01*
X39015016Y-36625255D01*
X39011380Y-36623240D01*
X39011607Y-36622925D01*
X39018984Y-36619549D01*
X39031438Y-36618160D01*
X39046564Y-36615422D01*
X39060348Y-36608452D01*
X39064555Y-36604578D01*
X39068876Y-36597942D01*
X39071778Y-36587935D01*
X39073840Y-36572295D01*
X39075641Y-36548762D01*
X39075999Y-36542733D01*
X39076956Y-36519256D01*
X39077728Y-36489107D01*
X39078315Y-36453814D01*
X39078718Y-36414909D01*
X39078939Y-36373921D01*
X39078977Y-36332381D01*
X39078835Y-36291818D01*
X39078511Y-36253763D01*
X39078008Y-36219746D01*
X39077326Y-36191297D01*
X39076467Y-36169946D01*
X39075430Y-36157223D01*
X39074715Y-36152268D01*
X39071904Y-36136883D01*
X39067950Y-36128293D01*
X39060912Y-36123840D01*
X39048848Y-36120870D01*
X39047952Y-36120679D01*
X39036393Y-36116676D01*
X39030573Y-36111856D01*
X39031162Y-36110516D01*
X39038073Y-36108623D01*
X39053100Y-36107418D01*
X39076920Y-36106860D01*
X39110209Y-36106906D01*
G37*
G36*
X47164598Y-36342114D02*
G01*
X47164835Y-36392685D01*
X47155448Y-36443919D01*
X47136284Y-36494918D01*
X47135643Y-36496250D01*
X47111847Y-36534299D01*
X47080125Y-36568423D01*
X47042353Y-36597187D01*
X47000404Y-36619154D01*
X46956153Y-36632889D01*
X46944299Y-36634832D01*
X46913366Y-36637076D01*
X46878573Y-36636709D01*
X46843389Y-36633950D01*
X46811279Y-36629018D01*
X46785713Y-36622133D01*
X46784121Y-36621542D01*
X46734333Y-36598176D01*
X46692134Y-36568171D01*
X46657643Y-36531628D01*
X46630978Y-36488648D01*
X46613559Y-36445637D01*
X46602031Y-36395634D01*
X46600213Y-36361727D01*
X46674865Y-36361727D01*
X46675336Y-36397618D01*
X46677911Y-36431914D01*
X46682532Y-36460704D01*
X46693294Y-36494074D01*
X46712964Y-36530080D01*
X46738861Y-36560678D01*
X46769676Y-36584373D01*
X46804100Y-36599669D01*
X46828441Y-36605653D01*
X46873883Y-36609704D01*
X46918247Y-36603832D01*
X46962572Y-36587961D01*
X46984473Y-36575752D01*
X47017854Y-36548535D01*
X47046231Y-36514104D01*
X47068436Y-36473990D01*
X47083298Y-36429727D01*
X47087932Y-36401994D01*
X47090451Y-36367484D01*
X47090507Y-36331448D01*
X47088102Y-36297681D01*
X47083236Y-36269977D01*
X47071761Y-36236864D01*
X47050200Y-36199586D01*
X47021833Y-36169178D01*
X46987459Y-36146146D01*
X46947871Y-36130992D01*
X46903866Y-36124220D01*
X46856239Y-36126334D01*
X46815421Y-36136617D01*
X46777182Y-36155894D01*
X46743571Y-36183053D01*
X46715555Y-36217131D01*
X46694101Y-36257161D01*
X46680174Y-36302180D01*
X46676557Y-36328150D01*
X46674865Y-36361727D01*
X46600213Y-36361727D01*
X46599370Y-36346004D01*
X46605415Y-36297907D01*
X46620008Y-36252504D01*
X46642989Y-36210954D01*
X46674198Y-36174419D01*
X46684185Y-36165330D01*
X46725548Y-36135793D01*
X46771762Y-36114872D01*
X46823217Y-36102425D01*
X46880300Y-36098308D01*
X46918429Y-36099852D01*
X46965394Y-36107439D01*
X47007042Y-36121960D01*
X47045136Y-36144085D01*
X47081441Y-36174480D01*
X47107678Y-36203347D01*
X47135866Y-36246548D01*
X47154890Y-36293103D01*
X47162485Y-36331448D01*
X47164598Y-36342114D01*
G37*
G36*
X45654866Y-36142644D02*
G01*
X45656916Y-36152034D01*
X45660037Y-36171788D01*
X45660227Y-36184562D01*
X45657713Y-36189611D01*
X45652720Y-36186193D01*
X45645474Y-36173562D01*
X45644277Y-36171123D01*
X45637042Y-36159894D01*
X45627436Y-36151737D01*
X45613907Y-36146193D01*
X45594903Y-36142801D01*
X45568873Y-36141103D01*
X45534264Y-36140640D01*
X45465520Y-36140640D01*
X45465520Y-36361289D01*
X45465555Y-36416810D01*
X45465734Y-36465441D01*
X45466167Y-36505530D01*
X45466963Y-36537902D01*
X45468232Y-36563382D01*
X45470082Y-36582796D01*
X45472622Y-36596967D01*
X45475963Y-36606723D01*
X45480213Y-36612886D01*
X45485482Y-36616284D01*
X45491878Y-36617741D01*
X45499511Y-36618082D01*
X45506696Y-36619115D01*
X45513780Y-36623240D01*
X45513315Y-36624232D01*
X45504987Y-36625999D01*
X45486881Y-36627279D01*
X45459248Y-36628057D01*
X45422340Y-36628320D01*
X45403899Y-36628262D01*
X45371308Y-36627756D01*
X45348110Y-36626741D01*
X45334557Y-36625231D01*
X45330900Y-36623240D01*
X45337099Y-36619750D01*
X45348741Y-36618160D01*
X45348941Y-36618159D01*
X45367411Y-36615365D01*
X45383208Y-36608228D01*
X45392613Y-36598421D01*
X45393199Y-36594783D01*
X45394062Y-36581671D01*
X45394929Y-36560220D01*
X45395773Y-36531503D01*
X45396566Y-36496593D01*
X45397284Y-36456562D01*
X45397899Y-36412483D01*
X45398384Y-36365430D01*
X45400305Y-36140640D01*
X45337663Y-36140668D01*
X45312983Y-36141058D01*
X45288532Y-36142187D01*
X45268646Y-36143877D01*
X45256120Y-36145945D01*
X45239503Y-36153549D01*
X45226410Y-36167437D01*
X45221680Y-36184950D01*
X45220619Y-36192207D01*
X45216912Y-36196520D01*
X45214202Y-36194264D01*
X45210763Y-36184086D01*
X45208242Y-36167981D01*
X45206988Y-36148455D01*
X45207353Y-36128016D01*
X45208980Y-36102692D01*
X45231840Y-36105156D01*
X45239087Y-36105656D01*
X45257127Y-36106276D01*
X45282697Y-36106774D01*
X45314239Y-36107150D01*
X45350198Y-36107404D01*
X45389018Y-36107536D01*
X45429142Y-36107546D01*
X45469014Y-36107436D01*
X45507079Y-36107205D01*
X45541779Y-36106853D01*
X45571560Y-36106382D01*
X45594864Y-36105790D01*
X45610135Y-36105080D01*
X45645530Y-36102540D01*
X45654866Y-36142644D01*
G37*
G36*
X39519279Y-36099697D02*
G01*
X39555522Y-36108554D01*
X39585538Y-36123973D01*
X39609991Y-36146128D01*
X39618465Y-36157192D01*
X39633256Y-36187250D01*
X39638796Y-36219515D01*
X39635154Y-36252719D01*
X39622399Y-36285594D01*
X39600602Y-36316874D01*
X39597935Y-36319799D01*
X39583602Y-36333762D01*
X39563904Y-36351235D01*
X39541085Y-36370273D01*
X39517387Y-36388935D01*
X39507702Y-36396360D01*
X39476277Y-36421417D01*
X39452399Y-36442647D01*
X39435219Y-36461273D01*
X39423887Y-36478517D01*
X39417553Y-36495602D01*
X39415367Y-36513753D01*
X39416479Y-36534193D01*
X39421899Y-36556754D01*
X39435947Y-36579636D01*
X39457673Y-36596331D01*
X39486645Y-36606529D01*
X39522431Y-36609921D01*
X39552844Y-36607508D01*
X39584677Y-36598228D01*
X39609498Y-36582284D01*
X39626840Y-36559995D01*
X39636240Y-36531681D01*
X39637112Y-36527151D01*
X39640458Y-36515959D01*
X39643831Y-36511480D01*
X39645598Y-36514662D01*
X39647916Y-36525630D01*
X39650168Y-36541864D01*
X39652089Y-36560685D01*
X39653412Y-36579412D01*
X39653871Y-36595365D01*
X39653200Y-36605863D01*
X39652960Y-36606875D01*
X39645022Y-36617146D01*
X39627776Y-36626122D01*
X39601970Y-36633400D01*
X39593113Y-36634683D01*
X39573815Y-36636062D01*
X39549847Y-36636741D01*
X39524460Y-36636586D01*
X39520922Y-36636494D01*
X39493804Y-36635279D01*
X39473693Y-36633067D01*
X39457761Y-36629415D01*
X39443180Y-36623883D01*
X39430453Y-36617527D01*
X39400463Y-36595537D01*
X39378161Y-36567659D01*
X39364245Y-36534937D01*
X39359410Y-36498414D01*
X39359436Y-36494748D01*
X39362489Y-36464529D01*
X39371186Y-36436774D01*
X39386321Y-36410338D01*
X39408692Y-36384076D01*
X39439094Y-36356846D01*
X39478324Y-36327502D01*
X39493776Y-36316534D01*
X39526126Y-36292222D01*
X39550672Y-36271219D01*
X39568271Y-36252529D01*
X39579781Y-36235161D01*
X39586058Y-36218120D01*
X39587960Y-36200413D01*
X39583710Y-36175960D01*
X39570909Y-36154916D01*
X39550482Y-36138996D01*
X39523361Y-36128918D01*
X39490478Y-36125400D01*
X39475906Y-36125908D01*
X39444229Y-36131285D01*
X39419056Y-36142118D01*
X39401343Y-36157897D01*
X39392047Y-36178107D01*
X39388959Y-36190119D01*
X39384644Y-36199221D01*
X39380765Y-36199029D01*
X39377616Y-36190056D01*
X39375489Y-36172814D01*
X39374678Y-36147814D01*
X39374600Y-36106728D01*
X39431750Y-36100238D01*
X39476142Y-36097233D01*
X39519279Y-36099697D01*
G37*
G36*
X38867647Y-36099336D02*
G01*
X38871887Y-36106545D01*
X38871921Y-36106623D01*
X38876058Y-36118850D01*
X38880248Y-36135453D01*
X38883968Y-36153593D01*
X38886693Y-36170427D01*
X38887899Y-36183114D01*
X38887062Y-36188812D01*
X38885495Y-36188689D01*
X38879246Y-36183186D01*
X38871157Y-36172357D01*
X38867027Y-36166256D01*
X38858707Y-36156383D01*
X38848995Y-36149429D01*
X38836139Y-36144889D01*
X38818388Y-36142260D01*
X38793989Y-36141036D01*
X38761190Y-36140714D01*
X38688800Y-36140640D01*
X38689024Y-36334950D01*
X38689149Y-36389781D01*
X38689492Y-36442355D01*
X38690151Y-36486237D01*
X38691232Y-36522204D01*
X38692842Y-36551033D01*
X38695088Y-36573500D01*
X38698076Y-36590380D01*
X38701912Y-36602451D01*
X38706704Y-36610488D01*
X38712556Y-36615267D01*
X38719577Y-36617566D01*
X38727871Y-36618160D01*
X38735285Y-36619310D01*
X38739600Y-36623240D01*
X38738441Y-36624222D01*
X38728842Y-36625959D01*
X38710093Y-36627245D01*
X38682874Y-36628045D01*
X38647861Y-36628320D01*
X38621009Y-36628131D01*
X38592769Y-36627349D01*
X38572803Y-36626021D01*
X38561488Y-36624217D01*
X38559200Y-36622004D01*
X38566317Y-36619451D01*
X38583215Y-36616625D01*
X38588357Y-36615971D01*
X38596580Y-36614785D01*
X38603379Y-36612883D01*
X38608888Y-36609409D01*
X38613242Y-36603501D01*
X38616578Y-36594303D01*
X38619030Y-36580956D01*
X38620734Y-36562600D01*
X38621824Y-36538378D01*
X38622437Y-36507430D01*
X38622707Y-36468899D01*
X38622770Y-36421925D01*
X38622760Y-36365650D01*
X38622760Y-36139665D01*
X38552003Y-36141422D01*
X38534690Y-36141896D01*
X38510632Y-36142886D01*
X38493744Y-36144298D01*
X38482106Y-36146413D01*
X38473802Y-36149512D01*
X38466913Y-36153876D01*
X38466481Y-36154204D01*
X38455862Y-36166002D01*
X38449991Y-36179276D01*
X38448890Y-36184707D01*
X38445717Y-36193043D01*
X38442606Y-36192509D01*
X38439927Y-36184046D01*
X38438049Y-36168593D01*
X38437340Y-36147089D01*
X38437340Y-36102739D01*
X38460200Y-36105179D01*
X38465830Y-36105672D01*
X38484992Y-36106648D01*
X38511123Y-36107358D01*
X38542795Y-36107814D01*
X38578582Y-36108032D01*
X38617056Y-36108024D01*
X38656789Y-36107803D01*
X38696354Y-36107385D01*
X38734324Y-36106781D01*
X38769272Y-36106006D01*
X38799769Y-36105073D01*
X38824390Y-36103996D01*
X38841705Y-36102789D01*
X38850288Y-36101465D01*
X38861514Y-36098006D01*
X38867647Y-36099336D01*
G37*
G36*
X44605728Y-37001977D02*
G01*
X44606042Y-37054053D01*
X44606319Y-37111886D01*
X44606554Y-37174756D01*
X44606743Y-37241944D01*
X44606884Y-37312731D01*
X44606971Y-37386396D01*
X44607000Y-37462220D01*
X44607000Y-38025320D01*
X44525720Y-38025320D01*
X44444440Y-38025320D01*
X44444440Y-37763700D01*
X44444440Y-37502080D01*
X44283017Y-37502080D01*
X44268065Y-37502057D01*
X44226479Y-37501772D01*
X44186727Y-37501191D01*
X44150474Y-37500359D01*
X44119385Y-37499318D01*
X44095125Y-37498112D01*
X44079360Y-37496784D01*
X44068861Y-37495307D01*
X44012931Y-37481570D01*
X43960824Y-37458427D01*
X43912523Y-37425868D01*
X43868013Y-37383885D01*
X43847780Y-37359498D01*
X43817594Y-37311408D01*
X43796094Y-37259527D01*
X43783408Y-37205018D01*
X43780004Y-37154100D01*
X43944115Y-37154100D01*
X43944138Y-37163106D01*
X43944772Y-37185818D01*
X43946627Y-37202353D01*
X43950177Y-37215721D01*
X43955896Y-37228931D01*
X43957594Y-37232287D01*
X43981114Y-37267440D01*
X44011782Y-37297602D01*
X44047138Y-37320314D01*
X44080973Y-37336980D01*
X44262707Y-37338543D01*
X44444440Y-37340106D01*
X44444440Y-37154393D01*
X44444440Y-36968680D01*
X44288230Y-36968782D01*
X44246623Y-36968891D01*
X44200766Y-36969321D01*
X44163071Y-36970165D01*
X44132412Y-36971517D01*
X44107661Y-36973472D01*
X44087692Y-36976125D01*
X44071379Y-36979570D01*
X44057595Y-36983902D01*
X44045212Y-36989216D01*
X44025206Y-37001334D01*
X43999511Y-37022992D01*
X43976279Y-37048843D01*
X43958584Y-37075814D01*
X43953195Y-37086610D01*
X43948388Y-37099082D01*
X43945654Y-37112425D01*
X43944420Y-37129733D01*
X43944115Y-37154100D01*
X43780004Y-37154100D01*
X43779666Y-37149041D01*
X43784998Y-37092758D01*
X43799532Y-37037331D01*
X43823400Y-36983920D01*
X43828062Y-36975921D01*
X43849493Y-36945957D01*
X43876606Y-36915437D01*
X43906889Y-36886793D01*
X43937831Y-36862459D01*
X43966920Y-36844867D01*
X43974603Y-36841091D01*
X43988816Y-36834199D01*
X44001721Y-36828384D01*
X44014273Y-36823549D01*
X44027427Y-36819595D01*
X44042140Y-36816424D01*
X44059367Y-36813938D01*
X44080064Y-36812038D01*
X44105186Y-36810626D01*
X44135690Y-36809603D01*
X44172530Y-36808872D01*
X44216662Y-36808333D01*
X44269043Y-36807889D01*
X44330627Y-36807441D01*
X44600354Y-36805484D01*
X44603677Y-36852302D01*
X44603731Y-36853135D01*
X44604174Y-36865633D01*
X44604599Y-36887486D01*
X44605003Y-36917974D01*
X44605380Y-36956378D01*
X44605474Y-36968680D01*
X44605728Y-37001977D01*
G37*
G36*
X44570956Y-36099866D02*
G01*
X44575808Y-36109201D01*
X44578534Y-36117189D01*
X44582941Y-36134072D01*
X44586692Y-36152727D01*
X44589308Y-36170254D01*
X44590309Y-36183754D01*
X44589216Y-36190325D01*
X44587387Y-36191288D01*
X44583103Y-36187873D01*
X44579269Y-36179516D01*
X44569063Y-36164474D01*
X44556974Y-36151883D01*
X44545983Y-36145171D01*
X44544595Y-36144859D01*
X44532965Y-36143550D01*
X44513999Y-36142421D01*
X44489994Y-36141582D01*
X44463247Y-36141146D01*
X44393154Y-36140640D01*
X44394667Y-36368712D01*
X44395030Y-36420815D01*
X44395409Y-36466147D01*
X44395829Y-36503111D01*
X44396335Y-36532623D01*
X44396968Y-36555600D01*
X44397773Y-36572955D01*
X44398790Y-36585606D01*
X44400065Y-36594468D01*
X44401639Y-36600455D01*
X44403556Y-36604485D01*
X44405858Y-36607472D01*
X44415144Y-36614522D01*
X44427148Y-36618160D01*
X44434851Y-36619211D01*
X44441900Y-36623240D01*
X44441634Y-36624116D01*
X44433956Y-36625932D01*
X44416499Y-36627248D01*
X44389526Y-36628049D01*
X44353300Y-36628320D01*
X44325766Y-36628115D01*
X44300077Y-36627494D01*
X44279746Y-36626533D01*
X44266373Y-36625310D01*
X44261560Y-36623900D01*
X44262743Y-36622383D01*
X44271138Y-36619260D01*
X44284944Y-36616845D01*
X44291371Y-36616200D01*
X44299532Y-36615289D01*
X44306261Y-36613661D01*
X44311704Y-36610456D01*
X44316004Y-36604816D01*
X44319305Y-36595884D01*
X44321753Y-36582800D01*
X44323490Y-36564707D01*
X44324662Y-36540747D01*
X44325412Y-36510060D01*
X44325884Y-36471790D01*
X44326223Y-36425077D01*
X44326574Y-36369063D01*
X44328087Y-36140640D01*
X44268154Y-36140668D01*
X44267024Y-36140669D01*
X44229526Y-36141518D01*
X44200884Y-36144224D01*
X44179927Y-36149200D01*
X44165484Y-36156862D01*
X44156384Y-36167621D01*
X44151456Y-36181892D01*
X44148277Y-36192147D01*
X44144623Y-36196520D01*
X44143088Y-36193158D01*
X44141237Y-36182116D01*
X44139534Y-36166056D01*
X44138181Y-36147760D01*
X44137376Y-36130013D01*
X44137320Y-36115595D01*
X44138212Y-36107290D01*
X44142193Y-36104890D01*
X44154826Y-36104381D01*
X44176653Y-36106411D01*
X44179174Y-36106692D01*
X44196588Y-36107863D01*
X44221268Y-36108695D01*
X44251762Y-36109207D01*
X44286617Y-36109419D01*
X44324381Y-36109351D01*
X44363603Y-36109024D01*
X44402830Y-36108458D01*
X44440610Y-36107672D01*
X44475491Y-36106687D01*
X44506021Y-36105522D01*
X44530748Y-36104199D01*
X44548219Y-36102736D01*
X44556983Y-36101155D01*
X44564438Y-36098509D01*
X44570956Y-36099866D01*
G37*
G36*
X48629090Y-36807608D02*
G01*
X48638944Y-36807725D01*
X48693517Y-36808438D01*
X48739316Y-36809232D01*
X48777532Y-36810222D01*
X48809356Y-36811523D01*
X48835979Y-36813251D01*
X48858591Y-36815521D01*
X48878384Y-36818450D01*
X48896548Y-36822153D01*
X48914275Y-36826745D01*
X48932755Y-36832341D01*
X48953179Y-36839058D01*
X48988514Y-36852577D01*
X49033135Y-36873536D01*
X49076005Y-36897532D01*
X49112960Y-36922393D01*
X49113261Y-36922620D01*
X49137125Y-36942328D01*
X49164209Y-36967396D01*
X49192268Y-36995496D01*
X49219061Y-37024303D01*
X49242345Y-37051492D01*
X49259876Y-37074737D01*
X49266621Y-37084942D01*
X49301320Y-37147850D01*
X49328241Y-37216001D01*
X49347178Y-37288053D01*
X49357925Y-37362664D01*
X49360275Y-37438493D01*
X49354022Y-37514199D01*
X49338958Y-37588440D01*
X49337564Y-37593481D01*
X49324809Y-37631290D01*
X49307631Y-37672341D01*
X49287625Y-37713331D01*
X49266387Y-37750956D01*
X49245511Y-37781915D01*
X49225255Y-37806452D01*
X49197392Y-37836284D01*
X49166267Y-37866566D01*
X49134206Y-37895143D01*
X49103533Y-37919858D01*
X49076573Y-37938557D01*
X49034588Y-37961686D01*
X48970736Y-37988555D01*
X48903410Y-38008238D01*
X48835568Y-38019739D01*
X48822618Y-38020658D01*
X48800137Y-38021612D01*
X48770286Y-38022492D01*
X48734518Y-38023266D01*
X48694285Y-38023903D01*
X48651038Y-38024373D01*
X48606230Y-38024644D01*
X48417000Y-38025320D01*
X48417000Y-37946580D01*
X48417000Y-37867840D01*
X48596973Y-37867840D01*
X48629626Y-37867753D01*
X48672413Y-37867384D01*
X48712561Y-37866759D01*
X48748566Y-37865915D01*
X48778925Y-37864888D01*
X48802131Y-37863716D01*
X48816683Y-37862435D01*
X48837509Y-37859067D01*
X48900022Y-37842225D01*
X48959543Y-37815862D01*
X49015482Y-37780274D01*
X49067252Y-37735760D01*
X49105289Y-37694177D01*
X49141859Y-37642481D01*
X49169096Y-37587809D01*
X49187303Y-37529381D01*
X49196780Y-37466415D01*
X49197832Y-37398128D01*
X49196157Y-37369954D01*
X49190965Y-37326573D01*
X49182209Y-37288114D01*
X49169082Y-37251408D01*
X49150779Y-37213288D01*
X49129479Y-37177054D01*
X49088518Y-37122990D01*
X49040650Y-37076122D01*
X48986464Y-37036920D01*
X48926551Y-37005852D01*
X48861500Y-36983387D01*
X48851736Y-36980909D01*
X48840761Y-36978578D01*
X48828714Y-36976672D01*
X48814457Y-36975130D01*
X48796857Y-36973887D01*
X48774776Y-36972883D01*
X48747078Y-36972052D01*
X48712629Y-36971334D01*
X48670292Y-36970665D01*
X48618930Y-36969982D01*
X48417000Y-36967432D01*
X48417000Y-36886270D01*
X48417000Y-36805107D01*
X48629090Y-36807608D01*
G37*
G36*
X40996378Y-36106605D02*
G01*
X41020853Y-36107651D01*
X41037166Y-36109408D01*
X41044821Y-36111788D01*
X41043317Y-36114700D01*
X41032158Y-36118055D01*
X41019788Y-36120968D01*
X41010082Y-36124637D01*
X41006069Y-36129693D01*
X41005280Y-36137965D01*
X41005562Y-36140409D01*
X41008765Y-36152730D01*
X41015139Y-36172642D01*
X41024185Y-36198840D01*
X41035402Y-36230019D01*
X41048291Y-36264876D01*
X41062352Y-36302107D01*
X41077084Y-36340406D01*
X41091988Y-36378470D01*
X41106564Y-36414995D01*
X41120311Y-36448676D01*
X41132730Y-36478209D01*
X41143321Y-36502290D01*
X41151584Y-36519614D01*
X41160753Y-36537488D01*
X41238575Y-36336718D01*
X41247643Y-36313221D01*
X41263459Y-36271726D01*
X41277752Y-36233566D01*
X41290155Y-36199761D01*
X41300302Y-36171329D01*
X41307824Y-36149292D01*
X41312356Y-36134668D01*
X41313530Y-36128477D01*
X41313338Y-36128046D01*
X41306192Y-36122556D01*
X41293862Y-36119393D01*
X41292184Y-36119206D01*
X41281862Y-36116535D01*
X41278326Y-36112700D01*
X41279595Y-36111777D01*
X41289369Y-36110032D01*
X41308026Y-36108725D01*
X41334691Y-36107904D01*
X41368490Y-36107620D01*
X41383859Y-36107671D01*
X41414952Y-36108188D01*
X41438093Y-36109226D01*
X41452551Y-36110744D01*
X41457590Y-36112700D01*
X41456211Y-36114633D01*
X41447526Y-36118329D01*
X41433465Y-36121338D01*
X41428157Y-36122225D01*
X41410446Y-36128092D01*
X41398175Y-36138619D01*
X41394265Y-36145584D01*
X41386851Y-36161098D01*
X41376443Y-36184077D01*
X41363472Y-36213534D01*
X41348369Y-36248479D01*
X41331564Y-36287924D01*
X41313488Y-36330880D01*
X41294572Y-36376361D01*
X41276617Y-36419705D01*
X41258535Y-36463203D01*
X41241758Y-36503407D01*
X41226713Y-36539300D01*
X41213828Y-36569865D01*
X41203530Y-36594087D01*
X41196246Y-36610947D01*
X41192405Y-36619430D01*
X41189981Y-36623896D01*
X41182394Y-36634316D01*
X41176088Y-36638480D01*
X41173631Y-36637360D01*
X41169975Y-36633185D01*
X41165022Y-36625317D01*
X41158477Y-36613124D01*
X41150047Y-36595978D01*
X41139440Y-36573247D01*
X41126361Y-36544302D01*
X41110516Y-36508512D01*
X41091613Y-36465248D01*
X41069357Y-36413879D01*
X41043455Y-36353775D01*
X41039219Y-36343934D01*
X41021480Y-36302899D01*
X41004736Y-36264426D01*
X40989486Y-36229644D01*
X40976228Y-36199685D01*
X40965463Y-36175678D01*
X40957690Y-36158753D01*
X40953409Y-36150041D01*
X40946439Y-36139402D01*
X40930396Y-36125516D01*
X40909158Y-36119261D01*
X40900922Y-36117038D01*
X40895017Y-36112186D01*
X40894979Y-36111709D01*
X40899586Y-36109392D01*
X40912785Y-36107755D01*
X40935092Y-36106755D01*
X40967026Y-36106349D01*
X40996378Y-36106605D01*
G37*
G36*
X38963120Y-36808781D02*
G01*
X39007555Y-36808853D01*
X39058165Y-36809145D01*
X39100753Y-36809765D01*
X39136531Y-36810825D01*
X39166716Y-36812441D01*
X39192523Y-36814724D01*
X39215166Y-36817791D01*
X39235860Y-36821753D01*
X39255820Y-36826724D01*
X39276262Y-36832819D01*
X39298400Y-36840151D01*
X39357327Y-36864249D01*
X39421663Y-36900321D01*
X39481378Y-36944448D01*
X39535675Y-36995767D01*
X39583755Y-37053414D01*
X39624821Y-37116527D01*
X39658075Y-37184243D01*
X39682718Y-37255700D01*
X39685686Y-37266659D01*
X39689571Y-37282292D01*
X39692415Y-37296799D01*
X39694379Y-37312059D01*
X39695625Y-37329953D01*
X39696313Y-37352364D01*
X39696605Y-37381173D01*
X39696663Y-37418260D01*
X39696645Y-37438770D01*
X39696466Y-37471442D01*
X39695963Y-37496819D01*
X39694979Y-37516786D01*
X39693355Y-37533228D01*
X39690932Y-37548030D01*
X39687553Y-37563076D01*
X39683059Y-37580251D01*
X39674745Y-37607387D01*
X39656663Y-37654328D01*
X39634392Y-37701807D01*
X39609653Y-37746272D01*
X39584169Y-37784175D01*
X39567510Y-37804993D01*
X39537431Y-37838489D01*
X39504601Y-37871093D01*
X39471689Y-37900206D01*
X39441367Y-37923226D01*
X39436121Y-37926737D01*
X39377665Y-37960037D01*
X39313277Y-37987250D01*
X39245597Y-38007413D01*
X39177267Y-38019563D01*
X39164083Y-38020532D01*
X39141672Y-38021438D01*
X39111901Y-38022206D01*
X39076203Y-38022812D01*
X39036011Y-38023232D01*
X38992759Y-38023441D01*
X38947880Y-38023415D01*
X38757380Y-38022780D01*
X38755981Y-37945749D01*
X38754581Y-37868719D01*
X38961721Y-37866475D01*
X38998817Y-37866045D01*
X39046534Y-37865371D01*
X39085789Y-37864618D01*
X39117601Y-37863740D01*
X39142987Y-37862695D01*
X39162966Y-37861436D01*
X39178556Y-37859918D01*
X39190774Y-37858097D01*
X39200640Y-37855927D01*
X39220713Y-37850181D01*
X39282422Y-37825885D01*
X39339590Y-37793234D01*
X39391376Y-37753054D01*
X39436943Y-37706171D01*
X39475452Y-37653412D01*
X39506063Y-37595602D01*
X39527939Y-37533568D01*
X39530093Y-37524517D01*
X39534808Y-37494580D01*
X39537906Y-37458913D01*
X39539316Y-37420657D01*
X39538968Y-37382949D01*
X39536790Y-37348931D01*
X39532713Y-37321740D01*
X39514500Y-37261458D01*
X39486709Y-37202740D01*
X39450438Y-37148357D01*
X39406362Y-37099178D01*
X39355159Y-37056071D01*
X39297506Y-37019906D01*
X39285142Y-37013488D01*
X39262712Y-37003017D01*
X39239982Y-36994269D01*
X39215859Y-36987099D01*
X39189247Y-36981358D01*
X39159051Y-36976901D01*
X39124176Y-36973580D01*
X39083529Y-36971249D01*
X39036014Y-36969760D01*
X38980536Y-36968967D01*
X38916002Y-36968723D01*
X38754583Y-36968680D01*
X38755982Y-36888670D01*
X38757380Y-36808660D01*
X38963120Y-36808781D01*
G37*
G36*
X51388800Y-36004916D02*
G01*
X51416745Y-36007631D01*
X51451915Y-36016270D01*
X51481069Y-36031036D01*
X51505911Y-36052622D01*
X51522120Y-36072308D01*
X51534460Y-36094673D01*
X51540933Y-36119670D01*
X51542855Y-36150800D01*
X51542845Y-36153560D01*
X51540017Y-36184630D01*
X51531670Y-36213753D01*
X51517051Y-36242138D01*
X51495403Y-36270997D01*
X51465972Y-36301541D01*
X51428003Y-36334979D01*
X51390434Y-36367323D01*
X51357986Y-36398127D01*
X51334404Y-36424302D01*
X51319628Y-36445911D01*
X51314448Y-36460120D01*
X51310806Y-36483137D01*
X51310281Y-36508415D01*
X51312907Y-36531987D01*
X51318718Y-36549888D01*
X51321698Y-36555005D01*
X51337984Y-36575649D01*
X51357985Y-36592987D01*
X51378218Y-36603859D01*
X51379234Y-36604197D01*
X51401262Y-36608538D01*
X51427982Y-36609865D01*
X51454660Y-36608193D01*
X51476560Y-36603536D01*
X51481506Y-36601694D01*
X51507525Y-36586482D01*
X51528025Y-36564974D01*
X51541459Y-36539217D01*
X51546280Y-36511259D01*
X51546378Y-36506116D01*
X51548234Y-36494772D01*
X51552630Y-36492420D01*
X51555498Y-36498074D01*
X51557844Y-36511435D01*
X51559577Y-36530040D01*
X51560622Y-36551429D01*
X51560904Y-36573144D01*
X51560347Y-36592725D01*
X51558875Y-36607714D01*
X51556414Y-36615652D01*
X51550808Y-36619236D01*
X51537001Y-36624706D01*
X51518028Y-36630618D01*
X51496533Y-36636160D01*
X51475160Y-36640524D01*
X51461324Y-36641564D01*
X51438916Y-36640945D01*
X51413526Y-36638655D01*
X51388900Y-36635049D01*
X51368783Y-36630479D01*
X51365252Y-36629383D01*
X51330845Y-36613513D01*
X51300984Y-36590386D01*
X51278170Y-36561894D01*
X51267369Y-36542385D01*
X51257147Y-36516026D01*
X51252616Y-36488475D01*
X51252790Y-36455600D01*
X51253477Y-36446791D01*
X51257767Y-36421259D01*
X51265961Y-36397238D01*
X51278867Y-36373615D01*
X51297291Y-36349274D01*
X51322040Y-36323102D01*
X51353919Y-36293983D01*
X51393735Y-36260804D01*
X51399977Y-36255737D01*
X51430311Y-36230030D01*
X51453172Y-36208180D01*
X51469534Y-36188892D01*
X51480367Y-36170869D01*
X51486645Y-36152819D01*
X51489339Y-36133444D01*
X51489567Y-36122404D01*
X51484704Y-36091886D01*
X51471806Y-36067287D01*
X51451369Y-36049102D01*
X51423889Y-36037828D01*
X51389861Y-36033960D01*
X51362870Y-36035336D01*
X51331920Y-36042106D01*
X51308560Y-36054864D01*
X51292177Y-36073986D01*
X51282157Y-36099847D01*
X51279532Y-36109401D01*
X51275113Y-36120909D01*
X51271454Y-36125400D01*
X51270412Y-36124244D01*
X51268426Y-36115426D01*
X51266877Y-36099815D01*
X51266034Y-36079680D01*
X51265861Y-36070621D01*
X51265433Y-36050172D01*
X51265045Y-36034147D01*
X51264764Y-36025415D01*
X51265355Y-36023282D01*
X51273166Y-36017805D01*
X51288571Y-36012884D01*
X51309703Y-36008826D01*
X51334696Y-36005939D01*
X51361684Y-36004533D01*
X51388800Y-36004916D01*
G37*
G36*
X47564364Y-36097719D02*
G01*
X47584870Y-36099617D01*
X47613706Y-36103488D01*
X47661013Y-36114110D01*
X47701582Y-36129817D01*
X47737117Y-36151345D01*
X47769325Y-36179432D01*
X47795317Y-36211014D01*
X47818158Y-36252275D01*
X47833212Y-36297132D01*
X47840510Y-36344104D01*
X47840082Y-36391711D01*
X47831956Y-36438472D01*
X47816164Y-36482906D01*
X47792734Y-36523533D01*
X47761696Y-36558873D01*
X47729626Y-36583668D01*
X47687312Y-36606807D01*
X47640403Y-36624255D01*
X47591500Y-36634850D01*
X47590014Y-36635051D01*
X47554686Y-36637863D01*
X47515977Y-36637786D01*
X47476573Y-36635087D01*
X47439156Y-36630033D01*
X47406411Y-36622890D01*
X47381022Y-36613925D01*
X47362900Y-36605406D01*
X47359903Y-36506373D01*
X47359825Y-36503816D01*
X47358679Y-36472809D01*
X47357317Y-36445046D01*
X47355849Y-36422255D01*
X47354383Y-36406165D01*
X47353031Y-36398505D01*
X47351966Y-36396770D01*
X47342951Y-36389821D01*
X47329358Y-36384339D01*
X47324975Y-36383047D01*
X47313969Y-36378524D01*
X47309560Y-36374524D01*
X47312601Y-36373342D01*
X47324271Y-36372009D01*
X47343148Y-36370936D01*
X47367581Y-36370213D01*
X47395920Y-36369926D01*
X47416176Y-36370016D01*
X47442965Y-36370567D01*
X47463860Y-36371549D01*
X47477438Y-36372888D01*
X47482280Y-36374509D01*
X47479114Y-36378261D01*
X47469580Y-36381843D01*
X47459927Y-36383842D01*
X47444741Y-36386976D01*
X47436406Y-36390431D01*
X47428655Y-36398406D01*
X47427018Y-36406853D01*
X47425483Y-36423275D01*
X47424125Y-36445438D01*
X47423010Y-36471126D01*
X47422204Y-36498124D01*
X47421773Y-36524217D01*
X47421783Y-36547190D01*
X47422300Y-36564828D01*
X47423391Y-36574916D01*
X47425412Y-36580156D01*
X47436808Y-36591992D01*
X47455620Y-36600487D01*
X47480249Y-36605607D01*
X47509093Y-36607319D01*
X47540553Y-36605587D01*
X47573028Y-36600378D01*
X47604919Y-36591659D01*
X47634624Y-36579395D01*
X47667019Y-36559888D01*
X47703329Y-36528046D01*
X47732726Y-36489743D01*
X47754577Y-36446040D01*
X47768249Y-36398004D01*
X47773108Y-36346698D01*
X47771113Y-36306891D01*
X47761761Y-36259716D01*
X47744914Y-36219342D01*
X47720744Y-36185940D01*
X47689420Y-36159680D01*
X47651111Y-36140735D01*
X47605987Y-36129276D01*
X47554218Y-36125475D01*
X47512877Y-36127256D01*
X47468118Y-36134349D01*
X47431646Y-36146789D01*
X47403586Y-36164514D01*
X47384064Y-36187462D01*
X47373205Y-36215570D01*
X47372638Y-36218097D01*
X47368544Y-36229381D01*
X47364562Y-36231116D01*
X47361540Y-36223806D01*
X47360324Y-36207950D01*
X47360033Y-36195122D01*
X47358882Y-36172851D01*
X47357163Y-36150740D01*
X47354037Y-36117660D01*
X47399109Y-36111242D01*
X47399225Y-36111226D01*
X47441002Y-36105432D01*
X47474613Y-36101210D01*
X47501906Y-36098443D01*
X47524730Y-36097016D01*
X47544934Y-36096813D01*
X47564364Y-36097719D01*
G37*
G36*
X45958338Y-36007711D02*
G01*
X45997724Y-36018322D01*
X46030608Y-36035792D01*
X46056520Y-36059957D01*
X46074986Y-36090653D01*
X46080571Y-36105246D01*
X46083893Y-36119844D01*
X46084984Y-36137087D01*
X46084338Y-36160694D01*
X46083188Y-36178567D01*
X46080459Y-36198271D01*
X46075652Y-36214320D01*
X46067863Y-36230541D01*
X46063912Y-36237054D01*
X46049896Y-36255820D01*
X46030810Y-36277829D01*
X46008677Y-36300927D01*
X45985520Y-36322961D01*
X45963360Y-36341778D01*
X45951222Y-36351740D01*
X45929903Y-36370859D01*
X45908794Y-36391478D01*
X45889812Y-36411617D01*
X45874871Y-36429295D01*
X45865889Y-36442532D01*
X45862105Y-36451376D01*
X45856313Y-36471323D01*
X45852889Y-36491873D01*
X45852365Y-36498424D01*
X45852432Y-36515804D01*
X45856005Y-36531118D01*
X45864112Y-36549650D01*
X45870031Y-36560569D01*
X45888363Y-36583267D01*
X45912336Y-36598819D01*
X45943650Y-36608483D01*
X45962768Y-36611014D01*
X45995724Y-36609252D01*
X46025869Y-36600219D01*
X46051797Y-36584858D01*
X46072106Y-36564109D01*
X46085391Y-36538912D01*
X46090249Y-36510210D01*
X46090635Y-36503057D01*
X46093320Y-36493258D01*
X46097645Y-36491644D01*
X46102517Y-36499195D01*
X46103436Y-36504018D01*
X46104553Y-36517834D01*
X46105317Y-36537490D01*
X46105600Y-36560441D01*
X46105600Y-36613651D01*
X46082914Y-36623686D01*
X46073525Y-36627327D01*
X46052130Y-36633652D01*
X46030844Y-36638021D01*
X46014361Y-36640356D01*
X45997026Y-36642246D01*
X45982874Y-36642525D01*
X45967905Y-36641205D01*
X45948120Y-36638301D01*
X45931014Y-36635031D01*
X45889550Y-36621248D01*
X45855189Y-36600592D01*
X45828334Y-36573543D01*
X45809388Y-36540578D01*
X45798755Y-36502176D01*
X45796837Y-36458815D01*
X45798431Y-36440686D01*
X45803154Y-36416015D01*
X45811435Y-36393052D01*
X45824113Y-36370606D01*
X45842027Y-36347491D01*
X45866015Y-36322517D01*
X45896916Y-36294495D01*
X45935570Y-36262238D01*
X45947583Y-36252378D01*
X45977832Y-36226137D01*
X46000592Y-36203537D01*
X46016749Y-36183346D01*
X46027192Y-36164332D01*
X46032806Y-36145262D01*
X46034480Y-36124906D01*
X46032614Y-36105541D01*
X46022194Y-36078901D01*
X46002326Y-36055721D01*
X46002160Y-36055575D01*
X45985585Y-36043891D01*
X45966793Y-36036970D01*
X45943292Y-36034243D01*
X45912591Y-36035136D01*
X45897502Y-36036758D01*
X45868389Y-36044476D01*
X45846895Y-36058245D01*
X45832211Y-36078713D01*
X45823531Y-36106525D01*
X45819948Y-36120522D01*
X45816499Y-36124904D01*
X45813494Y-36120084D01*
X45811231Y-36106543D01*
X45810008Y-36084760D01*
X45809927Y-36081322D01*
X45809433Y-36060220D01*
X45809009Y-36042053D01*
X45808738Y-36030432D01*
X45808725Y-36027310D01*
X45809995Y-36021185D01*
X45814863Y-36017154D01*
X45825475Y-36014001D01*
X45843980Y-36010514D01*
X45861954Y-36007719D01*
X45912924Y-36004122D01*
X45958338Y-36007711D01*
G37*
G36*
X43677360Y-37415720D02*
G01*
X43677360Y-38025320D01*
X43596080Y-38025320D01*
X43514800Y-38025320D01*
X43514800Y-37763030D01*
X43514800Y-37500740D01*
X43434790Y-37503316D01*
X43404550Y-37504680D01*
X43369451Y-37507282D01*
X43339292Y-37510662D01*
X43316680Y-37514574D01*
X43313372Y-37515353D01*
X43271746Y-37528596D01*
X43228315Y-37547919D01*
X43186964Y-37571380D01*
X43151580Y-37597039D01*
X43138393Y-37608600D01*
X43104355Y-37642937D01*
X43072837Y-37680953D01*
X43045412Y-37720462D01*
X43023650Y-37759277D01*
X43009123Y-37795213D01*
X43005781Y-37808442D01*
X43001191Y-37833021D01*
X42996732Y-37863125D01*
X42992718Y-37896110D01*
X42989462Y-37929332D01*
X42987278Y-37960150D01*
X42986480Y-37985918D01*
X42986480Y-38025320D01*
X42905200Y-38025320D01*
X42823920Y-38025320D01*
X42824001Y-37983410D01*
X42824425Y-37957288D01*
X42827032Y-37907817D01*
X42831721Y-37859090D01*
X42838162Y-37814224D01*
X42846024Y-37776341D01*
X42854048Y-37747555D01*
X42870757Y-37701260D01*
X42891951Y-37658086D01*
X42918776Y-37616107D01*
X42952379Y-37573400D01*
X42993905Y-37528039D01*
X43006199Y-37515175D01*
X43022867Y-37497052D01*
X43035572Y-37482366D01*
X43043243Y-37472371D01*
X43044814Y-37468320D01*
X43037621Y-37465020D01*
X43020858Y-37454888D01*
X43000381Y-37440560D01*
X42978514Y-37423775D01*
X42957577Y-37406272D01*
X42939896Y-37389789D01*
X42917638Y-37364731D01*
X42889208Y-37321009D01*
X42869053Y-37272026D01*
X42857023Y-37217372D01*
X42852962Y-37156640D01*
X42852987Y-37154100D01*
X43014420Y-37154100D01*
X43014450Y-37162148D01*
X43015174Y-37183461D01*
X43017415Y-37199447D01*
X43021900Y-37213805D01*
X43029354Y-37230235D01*
X43036587Y-37243486D01*
X43060546Y-37275759D01*
X43090065Y-37303271D01*
X43122443Y-37323324D01*
X43151580Y-37336980D01*
X43333190Y-37338594D01*
X43514800Y-37340209D01*
X43514800Y-37154444D01*
X43514800Y-36968680D01*
X43358590Y-36968782D01*
X43346478Y-36968803D01*
X43306274Y-36969063D01*
X43268326Y-36969582D01*
X43234215Y-36970321D01*
X43205522Y-36971241D01*
X43183828Y-36972302D01*
X43170713Y-36973464D01*
X43158647Y-36975619D01*
X43118550Y-36989149D01*
X43082841Y-37011295D01*
X43052717Y-37041173D01*
X43029374Y-37077900D01*
X43026752Y-37083335D01*
X43020267Y-37098769D01*
X43016535Y-37113240D01*
X43014828Y-37130449D01*
X43014420Y-37154100D01*
X42852987Y-37154100D01*
X42853108Y-37141708D01*
X42855836Y-37102304D01*
X42862687Y-37066561D01*
X42874551Y-37030738D01*
X42892316Y-36991097D01*
X42899274Y-36977738D01*
X42930637Y-36931157D01*
X42969687Y-36890771D01*
X43015653Y-36857282D01*
X43067760Y-36831394D01*
X43079481Y-36826912D01*
X43093368Y-36822262D01*
X43107898Y-36818368D01*
X43124023Y-36815163D01*
X43142694Y-36812580D01*
X43164863Y-36810553D01*
X43191482Y-36809013D01*
X43223502Y-36807895D01*
X43261876Y-36807131D01*
X43307554Y-36806655D01*
X43361488Y-36806399D01*
X43424630Y-36806297D01*
X43677360Y-36806120D01*
X43677360Y-36968680D01*
X43677360Y-37415720D01*
G37*
G36*
X42716173Y-37453462D02*
G01*
X42712982Y-37500422D01*
X42707651Y-37543550D01*
X42700293Y-37579773D01*
X42681335Y-37638987D01*
X42651651Y-37705357D01*
X42614643Y-37767861D01*
X42571181Y-37825487D01*
X42522136Y-37877223D01*
X42468378Y-37922055D01*
X42410778Y-37958972D01*
X42350206Y-37986962D01*
X42342941Y-37989486D01*
X42318601Y-37996436D01*
X42287866Y-38003736D01*
X42253391Y-38010822D01*
X42217831Y-38017136D01*
X42183840Y-38022116D01*
X42167504Y-38023222D01*
X42141480Y-38023219D01*
X42110728Y-38021975D01*
X42078111Y-38019659D01*
X42046494Y-38016438D01*
X42018740Y-38012478D01*
X42009140Y-38010762D01*
X41944252Y-37995077D01*
X41885253Y-37972854D01*
X41830447Y-37943198D01*
X41778141Y-37905212D01*
X41726640Y-37858001D01*
X41687265Y-37814750D01*
X41641481Y-37752250D01*
X41604898Y-37685665D01*
X41577341Y-37614711D01*
X41567723Y-37580318D01*
X41554617Y-37509500D01*
X41549055Y-37435955D01*
X41549529Y-37418260D01*
X41725409Y-37418260D01*
X41726936Y-37464411D01*
X41734305Y-37521867D01*
X41748378Y-37574816D01*
X41769815Y-37625569D01*
X41799277Y-37676435D01*
X41809914Y-37692141D01*
X41851694Y-37743700D01*
X41898164Y-37786371D01*
X41949176Y-37820053D01*
X42004580Y-37844642D01*
X42064231Y-37860037D01*
X42087619Y-37863664D01*
X42126691Y-37866895D01*
X42164490Y-37865576D01*
X42206097Y-37859697D01*
X42259254Y-37846373D01*
X42309870Y-37825002D01*
X42356959Y-37795190D01*
X42402142Y-37756080D01*
X42443265Y-37710255D01*
X42481434Y-37653742D01*
X42511228Y-37591640D01*
X42532839Y-37523605D01*
X42538018Y-37494105D01*
X42541083Y-37456726D01*
X42541806Y-37415696D01*
X42540223Y-37374188D01*
X42536371Y-37335374D01*
X42530287Y-37302429D01*
X42524380Y-37280773D01*
X42501454Y-37219383D01*
X42471051Y-37163033D01*
X42433892Y-37112492D01*
X42390697Y-37068530D01*
X42342187Y-37031916D01*
X42289081Y-37003422D01*
X42232100Y-36983815D01*
X42201568Y-36977997D01*
X42161403Y-36974173D01*
X42119222Y-36973386D01*
X42078912Y-36975692D01*
X42044358Y-36981145D01*
X41989224Y-36998487D01*
X41934676Y-37025821D01*
X41884563Y-37062088D01*
X41839249Y-37107022D01*
X41799101Y-37160354D01*
X41777111Y-37197005D01*
X41753510Y-37247612D01*
X41737462Y-37299829D01*
X41728314Y-37355948D01*
X41725409Y-37418260D01*
X41549529Y-37418260D01*
X41551033Y-37362069D01*
X41560552Y-37290227D01*
X41577609Y-37222813D01*
X41579511Y-37217032D01*
X41607649Y-37147668D01*
X41643792Y-37082711D01*
X41687133Y-37022942D01*
X41736865Y-36969145D01*
X41792181Y-36922102D01*
X41852273Y-36882594D01*
X41916334Y-36851405D01*
X41983557Y-36829317D01*
X42045201Y-36816169D01*
X42103963Y-36809288D01*
X42161103Y-36809119D01*
X42219660Y-36815660D01*
X42282674Y-36828905D01*
X42301597Y-36834031D01*
X42368792Y-36858746D01*
X42432030Y-36892206D01*
X42490671Y-36933693D01*
X42544078Y-36982486D01*
X42591613Y-37037867D01*
X42632638Y-37099118D01*
X42666514Y-37165518D01*
X42692605Y-37236348D01*
X42710271Y-37310890D01*
X42711760Y-37320323D01*
X42715676Y-37360339D01*
X42717109Y-37405743D01*
X42716914Y-37415696D01*
X42716173Y-37453462D01*
G37*
G36*
X48236204Y-36807268D02*
G01*
X48317940Y-36808660D01*
X48319248Y-37410640D01*
X48319347Y-37459953D01*
X48319465Y-37535704D01*
X48319539Y-37608267D01*
X48319570Y-37677007D01*
X48319558Y-37741291D01*
X48319506Y-37800486D01*
X48319413Y-37853957D01*
X48319282Y-37901070D01*
X48319113Y-37941193D01*
X48318909Y-37973690D01*
X48318669Y-37997929D01*
X48318395Y-38013276D01*
X48318089Y-38019096D01*
X48318002Y-38019296D01*
X48314252Y-38021746D01*
X48305046Y-38023389D01*
X48289210Y-38024295D01*
X48265573Y-38024534D01*
X48232961Y-38024176D01*
X48150300Y-38022780D01*
X48148985Y-37760073D01*
X48147669Y-37497367D01*
X48126125Y-37491814D01*
X48124033Y-37491274D01*
X48086346Y-37481369D01*
X48056343Y-37473027D01*
X48031901Y-37465607D01*
X48010899Y-37458465D01*
X47991214Y-37450960D01*
X47987259Y-37449391D01*
X47969148Y-37442607D01*
X47954776Y-37437840D01*
X47946960Y-37436040D01*
X47943705Y-37437448D01*
X47934142Y-37445497D01*
X47920479Y-37459447D01*
X47903934Y-37477881D01*
X47885727Y-37499382D01*
X47867076Y-37522533D01*
X47849200Y-37545918D01*
X47833319Y-37568120D01*
X47814789Y-37596001D01*
X47788480Y-37639138D01*
X47764243Y-37683883D01*
X47741461Y-37731641D01*
X47719521Y-37783815D01*
X47697808Y-37841809D01*
X47675708Y-37907026D01*
X47652605Y-37980870D01*
X47639146Y-38025320D01*
X47553093Y-38025320D01*
X47532542Y-38025196D01*
X47506102Y-38024603D01*
X47485387Y-38023595D01*
X47471873Y-38022250D01*
X47467040Y-38020650D01*
X47467079Y-38019584D01*
X47469073Y-38007566D01*
X47473748Y-37987769D01*
X47480633Y-37961798D01*
X47489253Y-37931260D01*
X47499139Y-37897759D01*
X47509816Y-37862901D01*
X47520814Y-37828291D01*
X47531659Y-37795536D01*
X47541879Y-37766240D01*
X47573468Y-37684429D01*
X47614873Y-37592592D01*
X47659586Y-37509393D01*
X47707956Y-37434190D01*
X47760334Y-37366342D01*
X47764252Y-37361685D01*
X47775891Y-37347449D01*
X47784022Y-37336883D01*
X47787080Y-37331999D01*
X47784159Y-37328268D01*
X47775088Y-37318438D01*
X47760987Y-37303747D01*
X47742998Y-37285384D01*
X47722263Y-37264536D01*
X47714525Y-37256759D01*
X47673981Y-37214045D01*
X47635975Y-37170257D01*
X47598864Y-37123333D01*
X47561001Y-37071211D01*
X47520743Y-37011829D01*
X47517048Y-37006194D01*
X47500448Y-36980270D01*
X47482549Y-36951502D01*
X47464315Y-36921522D01*
X47446710Y-36891961D01*
X47430697Y-36864452D01*
X47417239Y-36840624D01*
X47407302Y-36822110D01*
X47401847Y-36810542D01*
X47404954Y-36809299D01*
X47416675Y-36808029D01*
X47435600Y-36807022D01*
X47460142Y-36806359D01*
X47488712Y-36806120D01*
X47577270Y-36806120D01*
X47613348Y-36866774D01*
X47642797Y-36914253D01*
X47695470Y-36990267D01*
X47751040Y-37060120D01*
X47808894Y-37123256D01*
X47868418Y-37179116D01*
X47928997Y-37227143D01*
X47990018Y-37266780D01*
X48050867Y-37297468D01*
X48110930Y-37318651D01*
X48147760Y-37328712D01*
X48147760Y-37182537D01*
X48147820Y-37153019D01*
X48148120Y-37104481D01*
X48148639Y-37053995D01*
X48149336Y-37004588D01*
X48150175Y-36959287D01*
X48151114Y-36921119D01*
X48154468Y-36805876D01*
X48236204Y-36807268D01*
G37*
G36*
X40476960Y-36105080D02*
G01*
X40485702Y-36105691D01*
X40503500Y-36106243D01*
X40528467Y-36106663D01*
X40559050Y-36106933D01*
X40593697Y-36107034D01*
X40630855Y-36106947D01*
X40635866Y-36106924D01*
X40678706Y-36106870D01*
X40712131Y-36107144D01*
X40736810Y-36107771D01*
X40753415Y-36108777D01*
X40762616Y-36110187D01*
X40765083Y-36112027D01*
X40764825Y-36112582D01*
X40758022Y-36116812D01*
X40745809Y-36119447D01*
X40743384Y-36119666D01*
X40735532Y-36120378D01*
X40729045Y-36121627D01*
X40723793Y-36124287D01*
X40719646Y-36129234D01*
X40716473Y-36137341D01*
X40714146Y-36149485D01*
X40712533Y-36166539D01*
X40711505Y-36189379D01*
X40710932Y-36218879D01*
X40710683Y-36255914D01*
X40710630Y-36301360D01*
X40710640Y-36356090D01*
X40710646Y-36367043D01*
X40710809Y-36417634D01*
X40711188Y-36463644D01*
X40711762Y-36504143D01*
X40712513Y-36538201D01*
X40713421Y-36564889D01*
X40714466Y-36583277D01*
X40715628Y-36592436D01*
X40721045Y-36606192D01*
X40730407Y-36615380D01*
X40744930Y-36618082D01*
X40752052Y-36619220D01*
X40756360Y-36623130D01*
X40753462Y-36624541D01*
X40741431Y-36626227D01*
X40720957Y-36627675D01*
X40693013Y-36628819D01*
X40658570Y-36629596D01*
X40630129Y-36630049D01*
X40595648Y-36630641D01*
X40563362Y-36631237D01*
X40535927Y-36631788D01*
X40515997Y-36632246D01*
X40507896Y-36632371D01*
X40487350Y-36631935D01*
X40471015Y-36630539D01*
X40461858Y-36628393D01*
X40456570Y-36623054D01*
X40451181Y-36609721D01*
X40446467Y-36587600D01*
X40445016Y-36578299D01*
X40442963Y-36558415D01*
X40443248Y-36545550D01*
X40445641Y-36540466D01*
X40449912Y-36543921D01*
X40455830Y-36556676D01*
X40461757Y-36570463D01*
X40470410Y-36583387D01*
X40482024Y-36592033D01*
X40498383Y-36597208D01*
X40521275Y-36599721D01*
X40552486Y-36600380D01*
X40562881Y-36600373D01*
X40587747Y-36599955D01*
X40607067Y-36598090D01*
X40621514Y-36593690D01*
X40631762Y-36585666D01*
X40638485Y-36572928D01*
X40642355Y-36554387D01*
X40644046Y-36528955D01*
X40644232Y-36495542D01*
X40643587Y-36453060D01*
X40642060Y-36366700D01*
X40581100Y-36368496D01*
X40565233Y-36369067D01*
X40536872Y-36370987D01*
X40516779Y-36374125D01*
X40503666Y-36378865D01*
X40496243Y-36385591D01*
X40493221Y-36394687D01*
X40490710Y-36410100D01*
X40487397Y-36418962D01*
X40483915Y-36418486D01*
X40480532Y-36409104D01*
X40477512Y-36391247D01*
X40475121Y-36365345D01*
X40471979Y-36318270D01*
X40485660Y-36327245D01*
X40486984Y-36328078D01*
X40494499Y-36331529D01*
X40504782Y-36333873D01*
X40519678Y-36335307D01*
X40541036Y-36336024D01*
X40570701Y-36336220D01*
X40642060Y-36336220D01*
X40642060Y-36237160D01*
X40642060Y-36138100D01*
X40597311Y-36136627D01*
X40572662Y-36136475D01*
X40542589Y-36138240D01*
X40517349Y-36141994D01*
X40498699Y-36147453D01*
X40488390Y-36154332D01*
X40484196Y-36163676D01*
X40482040Y-36177594D01*
X40481982Y-36180709D01*
X40480279Y-36190176D01*
X40476896Y-36191305D01*
X40472748Y-36185285D01*
X40468750Y-36173302D01*
X40465817Y-36156544D01*
X40464135Y-36141753D01*
X40462130Y-36124793D01*
X40460737Y-36113778D01*
X40460700Y-36106645D01*
X40465198Y-36104070D01*
X40476960Y-36105080D01*
G37*
G36*
X38257006Y-36106351D02*
G01*
X38288728Y-36106710D01*
X38310684Y-36107725D01*
X38323230Y-36109423D01*
X38326717Y-36111831D01*
X38326693Y-36111898D01*
X38320826Y-36116915D01*
X38309463Y-36121310D01*
X38300135Y-36125690D01*
X38285838Y-36136047D01*
X38271540Y-36149483D01*
X38262882Y-36160106D01*
X38249844Y-36178030D01*
X38233721Y-36201388D01*
X38215493Y-36228644D01*
X38196144Y-36258266D01*
X38176653Y-36288717D01*
X38158004Y-36318464D01*
X38141178Y-36345972D01*
X38127156Y-36369707D01*
X38116920Y-36388134D01*
X38111452Y-36399720D01*
X38111277Y-36400226D01*
X38108699Y-36413316D01*
X38106755Y-36433709D01*
X38105448Y-36459227D01*
X38104781Y-36487689D01*
X38104757Y-36516914D01*
X38105379Y-36544722D01*
X38106651Y-36568932D01*
X38108577Y-36587365D01*
X38111158Y-36597840D01*
X38120363Y-36608306D01*
X38133697Y-36615797D01*
X38134462Y-36616049D01*
X38146464Y-36620715D01*
X38153461Y-36624687D01*
X38150049Y-36625809D01*
X38137985Y-36626814D01*
X38118749Y-36627609D01*
X38093852Y-36628132D01*
X38064807Y-36628320D01*
X38036777Y-36628110D01*
X38011058Y-36627487D01*
X37990712Y-36626527D01*
X37977334Y-36625306D01*
X37972520Y-36623900D01*
X37973703Y-36622383D01*
X37982098Y-36619260D01*
X37995904Y-36616845D01*
X37997205Y-36616698D01*
X38009821Y-36614941D01*
X38019362Y-36612066D01*
X38026283Y-36606780D01*
X38031042Y-36597792D01*
X38034095Y-36583810D01*
X38035899Y-36563545D01*
X38036912Y-36535702D01*
X38037589Y-36498992D01*
X38038141Y-36469507D01*
X38038449Y-36444591D01*
X38037941Y-36424458D01*
X38036075Y-36407416D01*
X38032312Y-36391772D01*
X38026109Y-36375833D01*
X38016925Y-36357905D01*
X38004220Y-36336296D01*
X37987452Y-36309311D01*
X37966080Y-36275260D01*
X37955183Y-36257891D01*
X37931417Y-36220650D01*
X37911647Y-36190949D01*
X37895103Y-36167888D01*
X37881015Y-36150568D01*
X37868614Y-36138089D01*
X37857131Y-36129552D01*
X37845795Y-36124058D01*
X37833839Y-36120707D01*
X37824042Y-36117246D01*
X37819864Y-36112700D01*
X37823284Y-36111050D01*
X37834782Y-36109406D01*
X37852183Y-36108146D01*
X37873194Y-36107306D01*
X37895525Y-36106920D01*
X37916883Y-36107025D01*
X37934976Y-36107657D01*
X37947512Y-36108851D01*
X37952200Y-36110642D01*
X37950063Y-36114379D01*
X37942040Y-36120320D01*
X37936925Y-36123964D01*
X37933446Y-36129959D01*
X37933201Y-36138656D01*
X37936558Y-36151035D01*
X37943884Y-36168076D01*
X37955549Y-36190758D01*
X37971919Y-36220060D01*
X37993363Y-36256963D01*
X38004853Y-36276481D01*
X38021293Y-36304261D01*
X38035636Y-36328320D01*
X38047125Y-36347398D01*
X38055002Y-36360229D01*
X38058510Y-36365552D01*
X38058923Y-36365520D01*
X38063481Y-36360307D01*
X38072124Y-36348040D01*
X38084016Y-36330076D01*
X38098322Y-36307776D01*
X38114207Y-36282496D01*
X38130836Y-36255596D01*
X38147374Y-36228435D01*
X38162986Y-36202370D01*
X38176837Y-36178760D01*
X38188091Y-36158964D01*
X38195913Y-36144340D01*
X38199469Y-36136247D01*
X38199494Y-36128835D01*
X38191460Y-36119453D01*
X38184599Y-36114407D01*
X38180800Y-36109573D01*
X38181720Y-36109066D01*
X38190329Y-36107994D01*
X38206547Y-36107132D01*
X38228589Y-36106558D01*
X38254672Y-36106350D01*
X38257006Y-36106351D01*
G37*
G36*
X50640200Y-37428662D02*
G01*
X50634257Y-37507988D01*
X50618857Y-37587794D01*
X50614774Y-37602344D01*
X50601223Y-37640684D01*
X50583406Y-37682162D01*
X50562898Y-37723509D01*
X50541274Y-37761454D01*
X50520111Y-37792728D01*
X50485019Y-37834699D01*
X50439139Y-37880194D01*
X50389714Y-37920573D01*
X50338716Y-37954248D01*
X50288116Y-37979632D01*
X50255574Y-37991333D01*
X50213727Y-38002980D01*
X50168054Y-38012849D01*
X50121838Y-38020140D01*
X50111207Y-38021304D01*
X50064868Y-38023199D01*
X50013436Y-38021101D01*
X49960146Y-38015332D01*
X49908236Y-38006216D01*
X49860944Y-37994077D01*
X49827226Y-37982017D01*
X49769240Y-37953549D01*
X49713570Y-37916675D01*
X49661333Y-37872504D01*
X49613643Y-37822142D01*
X49571619Y-37766696D01*
X49536375Y-37707274D01*
X49509028Y-37644984D01*
X49486500Y-37569379D01*
X49473202Y-37492233D01*
X49469376Y-37418260D01*
X49649396Y-37418260D01*
X49649441Y-37443081D01*
X49649764Y-37470590D01*
X49650593Y-37491679D01*
X49652150Y-37508527D01*
X49654658Y-37523313D01*
X49658339Y-37538218D01*
X49663417Y-37555420D01*
X49678412Y-37597432D01*
X49708563Y-37657905D01*
X49747499Y-37713545D01*
X49795525Y-37764833D01*
X49834358Y-37797026D01*
X49884907Y-37827805D01*
X49939638Y-37849521D01*
X49999420Y-37862591D01*
X50037276Y-37866177D01*
X50098331Y-37864284D01*
X50156982Y-37853036D01*
X50212598Y-37832870D01*
X50264550Y-37804229D01*
X50312208Y-37767553D01*
X50354942Y-37723282D01*
X50392123Y-37671857D01*
X50423120Y-37613718D01*
X50447304Y-37549306D01*
X50448165Y-37546471D01*
X50453129Y-37529023D01*
X50456633Y-37513361D01*
X50458937Y-37497097D01*
X50460299Y-37477841D01*
X50460977Y-37453205D01*
X50461232Y-37420800D01*
X50461102Y-37386571D01*
X50460294Y-37358828D01*
X50458635Y-37336923D01*
X50455956Y-37318662D01*
X50452088Y-37301849D01*
X50438514Y-37258763D01*
X50411882Y-37198130D01*
X50378407Y-37143242D01*
X50338749Y-37094765D01*
X50293570Y-37053365D01*
X50243528Y-37019708D01*
X50189285Y-36994462D01*
X50131500Y-36978292D01*
X50125191Y-36977200D01*
X50093890Y-36974097D01*
X50057494Y-36973282D01*
X50019777Y-36974643D01*
X49984507Y-36978070D01*
X49955458Y-36983453D01*
X49954924Y-36983590D01*
X49899067Y-37003141D01*
X49846652Y-37031701D01*
X49798449Y-37068483D01*
X49755229Y-37112699D01*
X49717764Y-37163562D01*
X49686824Y-37220284D01*
X49663180Y-37282078D01*
X49659613Y-37293932D01*
X49655577Y-37309120D01*
X49652767Y-37323631D01*
X49650963Y-37339634D01*
X49649946Y-37359295D01*
X49649497Y-37384781D01*
X49649396Y-37418260D01*
X49469376Y-37418260D01*
X49469220Y-37415253D01*
X49474306Y-37339233D01*
X49488210Y-37264962D01*
X49510685Y-37193231D01*
X49541482Y-37124833D01*
X49580352Y-37060557D01*
X49627047Y-37001196D01*
X49681319Y-36947540D01*
X49742918Y-36900380D01*
X49748020Y-36897020D01*
X49800861Y-36867583D01*
X49859500Y-36843369D01*
X49921568Y-36824967D01*
X49984697Y-36812965D01*
X50046517Y-36807951D01*
X50104659Y-36810513D01*
X50160040Y-36819046D01*
X50233114Y-36837539D01*
X50300445Y-36863907D01*
X50362904Y-36898581D01*
X50421364Y-36941991D01*
X50476697Y-36994569D01*
X50487763Y-37006634D01*
X50534623Y-37066637D01*
X50573152Y-37131818D01*
X50603161Y-37201394D01*
X50624464Y-37274582D01*
X50636873Y-37350599D01*
X50639865Y-37420800D01*
X50640200Y-37428662D01*
G37*
G36*
X48024280Y-36106075D02*
G01*
X48031422Y-36106987D01*
X48049257Y-36108102D01*
X48074333Y-36108926D01*
X48104920Y-36109422D01*
X48139286Y-36109553D01*
X48175700Y-36109283D01*
X48182675Y-36109196D01*
X48224933Y-36108905D01*
X48258599Y-36109121D01*
X48283286Y-36109832D01*
X48298603Y-36111028D01*
X48304160Y-36112700D01*
X48303888Y-36114033D01*
X48297433Y-36117792D01*
X48285009Y-36120674D01*
X48281033Y-36121328D01*
X48266959Y-36125143D01*
X48258150Y-36129820D01*
X48257779Y-36130303D01*
X48256245Y-36135423D01*
X48254978Y-36145820D01*
X48253958Y-36162190D01*
X48253166Y-36185232D01*
X48252584Y-36215643D01*
X48252192Y-36254120D01*
X48251970Y-36301362D01*
X48251900Y-36358065D01*
X48251936Y-36387778D01*
X48252130Y-36433213D01*
X48252476Y-36475196D01*
X48252958Y-36512609D01*
X48253554Y-36544334D01*
X48254248Y-36569253D01*
X48255019Y-36586249D01*
X48255851Y-36594202D01*
X48261409Y-36604824D01*
X48271091Y-36612839D01*
X48279188Y-36616093D01*
X48292540Y-36621556D01*
X48291711Y-36623019D01*
X48281750Y-36624568D01*
X48263208Y-36626038D01*
X48236899Y-36627365D01*
X48203640Y-36628486D01*
X48166477Y-36629496D01*
X48125074Y-36630594D01*
X48092012Y-36631416D01*
X48066253Y-36631972D01*
X48046759Y-36632272D01*
X48032493Y-36632324D01*
X48022417Y-36632138D01*
X48015494Y-36631722D01*
X48010687Y-36631087D01*
X48006959Y-36630242D01*
X48001538Y-36628330D01*
X47996323Y-36623976D01*
X47992574Y-36615663D01*
X47989459Y-36601341D01*
X47986147Y-36578961D01*
X47986045Y-36578195D01*
X47984548Y-36560751D01*
X47984817Y-36547080D01*
X47986532Y-36538776D01*
X47989374Y-36537432D01*
X47993023Y-36544642D01*
X47997942Y-36559018D01*
X48005120Y-36575654D01*
X48013596Y-36587114D01*
X48025141Y-36594357D01*
X48041525Y-36598343D01*
X48064519Y-36600030D01*
X48095896Y-36600380D01*
X48098275Y-36600379D01*
X48123788Y-36600297D01*
X48141293Y-36599797D01*
X48152786Y-36598499D01*
X48160263Y-36596022D01*
X48165722Y-36591985D01*
X48171158Y-36586005D01*
X48174418Y-36582114D01*
X48177766Y-36577085D01*
X48180133Y-36570837D01*
X48181659Y-36561881D01*
X48182483Y-36548725D01*
X48182747Y-36529881D01*
X48182591Y-36503858D01*
X48182154Y-36469165D01*
X48180780Y-36366700D01*
X48119820Y-36368469D01*
X48098735Y-36369285D01*
X48073060Y-36371394D01*
X48055097Y-36374987D01*
X48043360Y-36380604D01*
X48036366Y-36388781D01*
X48032631Y-36400056D01*
X48031416Y-36405570D01*
X48027806Y-36415422D01*
X48024363Y-36415300D01*
X48021225Y-36405342D01*
X48018528Y-36385688D01*
X48016650Y-36368211D01*
X48014210Y-36348342D01*
X48012094Y-36333861D01*
X48009061Y-36316263D01*
X48023801Y-36326230D01*
X48026442Y-36327906D01*
X48034310Y-36331528D01*
X48044825Y-36334091D01*
X48059867Y-36335849D01*
X48081312Y-36337053D01*
X48111039Y-36337957D01*
X48183538Y-36339717D01*
X48182159Y-36238908D01*
X48180780Y-36138100D01*
X48145220Y-36136472D01*
X48104797Y-36136066D01*
X48072079Y-36138842D01*
X48047857Y-36144715D01*
X48032749Y-36153589D01*
X48032744Y-36153595D01*
X48024280Y-36165858D01*
X48020760Y-36178509D01*
X48019533Y-36187084D01*
X48015911Y-36191440D01*
X48014191Y-36190831D01*
X48011360Y-36185971D01*
X48008729Y-36175097D01*
X48006007Y-36156836D01*
X48002904Y-36129811D01*
X47999860Y-36101203D01*
X48024280Y-36106075D01*
G37*
G36*
X51597080Y-37415399D02*
G01*
X51597080Y-38025320D01*
X51518340Y-38025320D01*
X51439600Y-38025320D01*
X51439600Y-37763700D01*
X51439600Y-37502080D01*
X51379910Y-37502109D01*
X51358292Y-37502448D01*
X51312233Y-37505185D01*
X51267923Y-37510362D01*
X51228136Y-37517612D01*
X51195646Y-37526566D01*
X51159717Y-37541062D01*
X51109409Y-37569244D01*
X51062362Y-37605804D01*
X51017875Y-37651314D01*
X50975247Y-37706346D01*
X50975172Y-37706455D01*
X50958514Y-37732134D01*
X50945129Y-37757505D01*
X50934535Y-37784313D01*
X50926249Y-37814300D01*
X50919791Y-37849209D01*
X50914677Y-37890785D01*
X50910425Y-37940771D01*
X50904280Y-38025320D01*
X50826341Y-38025320D01*
X50811629Y-38025291D01*
X50785069Y-38024974D01*
X50766605Y-38024196D01*
X50754808Y-38022824D01*
X50748250Y-38020725D01*
X50745503Y-38017765D01*
X50744910Y-38011971D01*
X50744836Y-37997331D01*
X50745374Y-37975889D01*
X50746478Y-37949435D01*
X50748100Y-37919759D01*
X50750278Y-37889525D01*
X50757926Y-37824613D01*
X50769731Y-37766880D01*
X50786445Y-37714571D01*
X50808819Y-37665931D01*
X50837605Y-37619205D01*
X50873555Y-37572639D01*
X50917420Y-37524478D01*
X50923813Y-37517867D01*
X50940866Y-37499997D01*
X50954624Y-37485230D01*
X50963814Y-37474950D01*
X50967160Y-37470538D01*
X50966970Y-37470142D01*
X50961331Y-37465627D01*
X50949444Y-37457821D01*
X50933451Y-37448145D01*
X50911609Y-37434124D01*
X50870893Y-37400454D01*
X50836501Y-37361384D01*
X50810296Y-37318870D01*
X50801967Y-37301091D01*
X50787968Y-37263881D01*
X50779319Y-37226522D01*
X50775420Y-37185889D01*
X50775588Y-37154209D01*
X50934284Y-37154209D01*
X50938694Y-37195769D01*
X50951964Y-37233891D01*
X50974742Y-37270437D01*
X50987623Y-37284547D01*
X51012714Y-37304357D01*
X51041767Y-37320866D01*
X51071098Y-37331732D01*
X51079503Y-37333266D01*
X51098120Y-37335187D01*
X51123342Y-37336805D01*
X51153772Y-37338116D01*
X51188013Y-37339114D01*
X51224670Y-37339795D01*
X51262345Y-37340151D01*
X51299642Y-37340179D01*
X51335165Y-37339873D01*
X51367518Y-37339227D01*
X51395302Y-37338236D01*
X51417123Y-37336895D01*
X51431584Y-37335198D01*
X51437287Y-37333141D01*
X51437747Y-37328326D01*
X51438184Y-37314255D01*
X51438499Y-37292250D01*
X51438686Y-37263516D01*
X51438736Y-37229258D01*
X51438642Y-37190681D01*
X51438398Y-37148991D01*
X51437060Y-36971220D01*
X51256601Y-36971220D01*
X51076142Y-36971220D01*
X51042521Y-36987777D01*
X51038908Y-36989591D01*
X51002512Y-37012971D01*
X50973603Y-37042484D01*
X50950698Y-37079613D01*
X50950690Y-37079629D01*
X50941959Y-37098694D01*
X50936973Y-37114459D01*
X50934744Y-37131399D01*
X50934284Y-37153993D01*
X50934284Y-37154209D01*
X50775588Y-37154209D01*
X50775670Y-37138860D01*
X50775812Y-37135649D01*
X50781335Y-37081159D01*
X50792998Y-37033297D01*
X50811635Y-36990108D01*
X50838078Y-36949637D01*
X50873159Y-36909929D01*
X50878071Y-36905028D01*
X50903810Y-36881414D01*
X50928131Y-36863322D01*
X50954460Y-36848150D01*
X50963554Y-36843488D01*
X50978205Y-36836106D01*
X50991572Y-36829874D01*
X51004607Y-36824689D01*
X51018266Y-36820447D01*
X51033500Y-36817042D01*
X51051265Y-36814370D01*
X51072514Y-36812328D01*
X51098200Y-36810812D01*
X51129277Y-36809715D01*
X51166699Y-36808935D01*
X51211419Y-36808368D01*
X51264392Y-36807908D01*
X51326570Y-36807451D01*
X51597080Y-36805478D01*
X51597080Y-37229258D01*
X51597080Y-37415399D01*
G37*
G36*
X50424706Y-36096190D02*
G01*
X50424742Y-36096354D01*
X50425027Y-36103035D01*
X50425395Y-36118747D01*
X50425831Y-36142516D01*
X50426321Y-36173368D01*
X50426848Y-36210327D01*
X50427400Y-36252419D01*
X50427961Y-36298669D01*
X50428516Y-36348103D01*
X50431220Y-36598746D01*
X50443213Y-36608453D01*
X50454429Y-36615004D01*
X50467043Y-36618160D01*
X50474985Y-36619239D01*
X50482020Y-36623240D01*
X50482085Y-36623769D01*
X50476202Y-36625732D01*
X50460536Y-36627157D01*
X50435384Y-36628026D01*
X50401040Y-36628320D01*
X50390010Y-36628290D01*
X50359176Y-36627811D01*
X50336208Y-36626779D01*
X50321869Y-36625239D01*
X50316920Y-36623240D01*
X50321273Y-36619661D01*
X50331830Y-36618160D01*
X50351480Y-36615924D01*
X50367838Y-36607284D01*
X50377274Y-36591805D01*
X50377797Y-36589070D01*
X50378994Y-36576932D01*
X50380364Y-36557020D01*
X50381854Y-36530711D01*
X50383413Y-36499385D01*
X50384988Y-36464419D01*
X50386530Y-36427194D01*
X50387985Y-36389086D01*
X50389303Y-36351476D01*
X50390432Y-36315741D01*
X50391320Y-36283261D01*
X50391915Y-36255414D01*
X50392167Y-36233578D01*
X50392023Y-36219133D01*
X50391432Y-36213457D01*
X50391322Y-36213468D01*
X50386764Y-36217517D01*
X50376267Y-36227929D01*
X50360730Y-36243782D01*
X50341052Y-36264151D01*
X50318131Y-36288114D01*
X50292866Y-36314746D01*
X50271796Y-36336903D01*
X50236744Y-36373342D01*
X50198387Y-36412816D01*
X50159071Y-36452926D01*
X50121141Y-36491270D01*
X50086944Y-36525450D01*
X50076992Y-36535287D01*
X50050029Y-36561585D01*
X50025421Y-36585083D01*
X50004127Y-36604896D01*
X49987106Y-36620143D01*
X49975318Y-36629938D01*
X49969721Y-36633400D01*
X49967180Y-36632618D01*
X49965203Y-36629522D01*
X49963723Y-36622993D01*
X49962671Y-36611908D01*
X49961974Y-36595148D01*
X49961564Y-36571590D01*
X49961370Y-36540115D01*
X49961320Y-36499600D01*
X49961279Y-36474034D01*
X49960990Y-36425827D01*
X49960455Y-36377710D01*
X49959703Y-36330800D01*
X49958767Y-36286217D01*
X49957676Y-36245079D01*
X49956464Y-36208506D01*
X49955160Y-36177617D01*
X49953797Y-36153531D01*
X49952405Y-36137367D01*
X49951015Y-36130244D01*
X49950788Y-36129914D01*
X49943148Y-36124927D01*
X49930607Y-36120952D01*
X49929348Y-36120680D01*
X49917755Y-36116684D01*
X49911982Y-36112005D01*
X49912025Y-36111348D01*
X49917581Y-36109161D01*
X49932042Y-36107607D01*
X49955821Y-36106655D01*
X49989333Y-36106274D01*
X50011456Y-36106310D01*
X50037525Y-36106793D01*
X50054842Y-36107847D01*
X50064250Y-36109535D01*
X50066596Y-36111918D01*
X50065666Y-36113245D01*
X50057416Y-36117043D01*
X50044023Y-36119315D01*
X50040395Y-36119586D01*
X50030756Y-36120616D01*
X50023022Y-36122736D01*
X50016949Y-36126955D01*
X50012296Y-36134280D01*
X50008821Y-36145717D01*
X50006281Y-36162274D01*
X50004435Y-36184958D01*
X50003041Y-36214777D01*
X50001856Y-36252737D01*
X50000639Y-36299847D01*
X50000306Y-36313345D01*
X49999399Y-36353982D01*
X49998674Y-36392462D01*
X49998153Y-36427186D01*
X49997858Y-36456552D01*
X49997810Y-36478963D01*
X49998031Y-36492817D01*
X49999420Y-36527494D01*
X50206794Y-36311207D01*
X50227955Y-36289145D01*
X50269448Y-36245956D01*
X50304691Y-36209406D01*
X50334194Y-36178990D01*
X50358465Y-36154207D01*
X50378015Y-36134554D01*
X50393353Y-36119527D01*
X50404989Y-36108623D01*
X50413432Y-36101341D01*
X50419193Y-36097176D01*
X50422781Y-36095627D01*
X50424706Y-36096190D01*
G37*
G36*
X49352176Y-36259089D02*
G01*
X49352017Y-36304165D01*
X49352010Y-36349532D01*
X49352155Y-36393962D01*
X49352456Y-36436225D01*
X49352914Y-36475091D01*
X49353532Y-36509330D01*
X49354311Y-36537714D01*
X49355256Y-36559012D01*
X49356367Y-36571995D01*
X49357460Y-36578417D01*
X49365247Y-36600299D01*
X49377998Y-36613645D01*
X49395463Y-36618160D01*
X49403271Y-36619358D01*
X49407600Y-36623240D01*
X49404913Y-36624953D01*
X49393379Y-36626874D01*
X49373946Y-36628226D01*
X49347910Y-36628888D01*
X49330170Y-36629188D01*
X49297989Y-36630213D01*
X49266310Y-36631720D01*
X49239960Y-36633501D01*
X49221553Y-36634679D01*
X49191302Y-36635731D01*
X49158698Y-36636103D01*
X49128200Y-36635707D01*
X49114334Y-36635168D01*
X49058849Y-36629615D01*
X49010457Y-36618438D01*
X48967704Y-36601080D01*
X48929136Y-36576983D01*
X48893299Y-36545590D01*
X48873566Y-36523635D01*
X48843189Y-36478367D01*
X48821176Y-36427802D01*
X48807778Y-36372585D01*
X48806637Y-36357684D01*
X48877036Y-36357684D01*
X48879983Y-36396454D01*
X48886396Y-36430200D01*
X48890156Y-36442921D01*
X48909568Y-36488576D01*
X48936304Y-36527194D01*
X48970301Y-36558715D01*
X49011498Y-36583078D01*
X49059832Y-36600221D01*
X49061028Y-36600524D01*
X49083769Y-36604360D01*
X49112708Y-36606709D01*
X49144597Y-36607557D01*
X49176188Y-36606889D01*
X49204235Y-36604691D01*
X49225489Y-36600949D01*
X49241017Y-36596169D01*
X49260661Y-36586696D01*
X49272677Y-36574565D01*
X49278652Y-36558508D01*
X49279361Y-36550171D01*
X49280067Y-36532577D01*
X49280725Y-36506960D01*
X49281318Y-36474409D01*
X49281829Y-36436015D01*
X49282240Y-36392868D01*
X49282536Y-36346056D01*
X49282699Y-36296670D01*
X49282725Y-36281814D01*
X49282772Y-36227470D01*
X49282713Y-36182250D01*
X49282524Y-36145320D01*
X49282180Y-36115850D01*
X49281658Y-36093008D01*
X49280932Y-36075962D01*
X49279980Y-36063880D01*
X49278777Y-36055929D01*
X49277298Y-36051279D01*
X49275520Y-36049098D01*
X49267070Y-36046798D01*
X49250350Y-36045198D01*
X49227812Y-36044425D01*
X49201669Y-36044445D01*
X49174137Y-36045224D01*
X49147429Y-36046726D01*
X49123759Y-36048917D01*
X49105340Y-36051762D01*
X49063496Y-36063804D01*
X49015801Y-36086595D01*
X48973578Y-36117361D01*
X48937669Y-36155337D01*
X48908911Y-36199759D01*
X48888143Y-36249860D01*
X48881399Y-36279906D01*
X48877520Y-36317599D01*
X48877036Y-36357684D01*
X48806637Y-36357684D01*
X48803244Y-36313360D01*
X48803762Y-36293774D01*
X48811325Y-36238835D01*
X48827618Y-36188788D01*
X48852273Y-36144101D01*
X48884923Y-36105241D01*
X48925201Y-36072676D01*
X48972740Y-36046873D01*
X49027172Y-36028298D01*
X49027677Y-36028169D01*
X49040017Y-36025208D01*
X49052286Y-36022815D01*
X49065763Y-36020916D01*
X49081727Y-36019436D01*
X49101456Y-36018301D01*
X49126230Y-36017438D01*
X49157328Y-36016771D01*
X49196027Y-36016227D01*
X49243608Y-36015731D01*
X49248899Y-36015682D01*
X49302603Y-36015385D01*
X49346245Y-36015548D01*
X49379904Y-36016176D01*
X49403661Y-36017274D01*
X49417597Y-36018848D01*
X49421790Y-36020903D01*
X49416322Y-36023445D01*
X49401272Y-36026479D01*
X49387602Y-36029128D01*
X49372583Y-36034366D01*
X49363382Y-36042392D01*
X49357335Y-36054930D01*
X49357305Y-36055020D01*
X49356157Y-36063624D01*
X49355144Y-36081127D01*
X49354268Y-36106299D01*
X49353530Y-36137910D01*
X49352934Y-36174733D01*
X49352482Y-36215535D01*
X49352398Y-36227470D01*
X49352176Y-36259089D01*
G37*
G36*
X43698882Y-36104109D02*
G01*
X43714075Y-36106369D01*
X43716365Y-36106740D01*
X43732418Y-36108113D01*
X43756904Y-36108998D01*
X43788417Y-36109376D01*
X43825556Y-36109227D01*
X43866916Y-36108531D01*
X43880219Y-36108239D01*
X43918306Y-36107560D01*
X43947378Y-36107356D01*
X43968308Y-36107647D01*
X43981970Y-36108458D01*
X43989237Y-36109809D01*
X43990983Y-36111724D01*
X43990590Y-36112497D01*
X43983393Y-36116768D01*
X43970877Y-36119324D01*
X43955361Y-36123381D01*
X43943329Y-36131287D01*
X43942903Y-36131769D01*
X43940398Y-36135387D01*
X43938379Y-36140537D01*
X43936777Y-36148297D01*
X43935526Y-36159747D01*
X43934558Y-36175965D01*
X43933807Y-36198029D01*
X43933204Y-36227018D01*
X43932683Y-36264010D01*
X43932177Y-36310083D01*
X43931820Y-36360546D01*
X43931960Y-36424875D01*
X43932884Y-36479395D01*
X43934603Y-36524298D01*
X43937128Y-36559772D01*
X43940469Y-36586010D01*
X43944639Y-36603202D01*
X43949647Y-36611538D01*
X43956846Y-36615286D01*
X43970431Y-36618160D01*
X43977844Y-36619285D01*
X43982160Y-36623130D01*
X43979262Y-36624541D01*
X43967231Y-36626227D01*
X43946757Y-36627675D01*
X43918813Y-36628819D01*
X43884370Y-36629596D01*
X43856100Y-36630046D01*
X43821392Y-36630638D01*
X43788773Y-36631235D01*
X43760933Y-36631788D01*
X43740561Y-36632246D01*
X43716980Y-36632287D01*
X43696626Y-36630578D01*
X43685646Y-36626894D01*
X43684841Y-36626204D01*
X43679442Y-36616759D01*
X43674530Y-36601261D01*
X43670655Y-36582847D01*
X43668364Y-36564654D01*
X43668205Y-36549820D01*
X43670726Y-36541482D01*
X43671952Y-36540493D01*
X43676053Y-36542232D01*
X43679342Y-36553468D01*
X43684786Y-36569743D01*
X43697377Y-36584878D01*
X43717200Y-36595170D01*
X43744985Y-36600971D01*
X43781467Y-36602633D01*
X43802127Y-36602074D01*
X43827512Y-36599325D01*
X43845280Y-36593824D01*
X43856880Y-36585040D01*
X43863764Y-36572440D01*
X43865717Y-36563580D01*
X43867704Y-36545810D01*
X43869145Y-36522549D01*
X43870039Y-36495750D01*
X43870384Y-36467368D01*
X43870180Y-36439358D01*
X43869426Y-36413675D01*
X43868120Y-36392273D01*
X43866263Y-36377106D01*
X43863854Y-36370130D01*
X43863578Y-36369929D01*
X43855026Y-36367956D01*
X43839067Y-36367163D01*
X43818180Y-36367398D01*
X43794844Y-36368507D01*
X43771536Y-36370337D01*
X43750734Y-36372734D01*
X43734916Y-36375546D01*
X43726560Y-36378620D01*
X43726022Y-36379104D01*
X43720035Y-36388792D01*
X43715735Y-36402582D01*
X43714499Y-36408103D01*
X43710679Y-36416479D01*
X43706846Y-36415825D01*
X43703850Y-36406917D01*
X43702539Y-36390530D01*
X43702431Y-36385887D01*
X43700888Y-36364657D01*
X43698167Y-36345249D01*
X43696289Y-36333722D01*
X43696426Y-36323180D01*
X43700620Y-36321238D01*
X43709227Y-36327318D01*
X43711782Y-36329334D01*
X43718058Y-36332294D01*
X43727655Y-36334283D01*
X43742281Y-36335479D01*
X43763646Y-36336064D01*
X43793460Y-36336220D01*
X43867860Y-36336220D01*
X43867860Y-36237160D01*
X43867860Y-36138100D01*
X43804360Y-36138420D01*
X43774400Y-36138988D01*
X43748492Y-36140872D01*
X43730212Y-36144488D01*
X43718229Y-36150275D01*
X43711215Y-36158668D01*
X43707840Y-36170104D01*
X43705327Y-36181616D01*
X43701612Y-36187131D01*
X43697533Y-36183172D01*
X43693390Y-36170095D01*
X43689483Y-36148260D01*
X43688712Y-36142656D01*
X43686497Y-36124243D01*
X43685353Y-36110647D01*
X43685514Y-36104482D01*
X43688382Y-36103655D01*
X43698882Y-36104109D01*
G37*
G36*
X45037705Y-36439927D02*
G01*
X45054388Y-36481787D01*
X45068509Y-36516273D01*
X45080459Y-36544122D01*
X45090628Y-36566075D01*
X45099409Y-36582869D01*
X45107190Y-36595244D01*
X45114365Y-36603937D01*
X45121323Y-36609689D01*
X45128456Y-36613238D01*
X45136154Y-36615323D01*
X45144809Y-36616682D01*
X45149899Y-36617479D01*
X45162444Y-36620572D01*
X45168764Y-36623925D01*
X45167188Y-36624938D01*
X45157410Y-36626282D01*
X45140188Y-36627354D01*
X45117144Y-36628063D01*
X45089900Y-36628320D01*
X45081068Y-36628300D01*
X45050431Y-36627841D01*
X45027565Y-36626811D01*
X45013264Y-36625261D01*
X45008320Y-36623240D01*
X45008321Y-36623225D01*
X45012759Y-36619647D01*
X45023382Y-36618160D01*
X45026453Y-36618042D01*
X45039614Y-36613085D01*
X45045642Y-36601056D01*
X45044353Y-36582268D01*
X45041286Y-36571124D01*
X45035381Y-36552807D01*
X45027719Y-36530709D01*
X45019129Y-36507065D01*
X45010444Y-36484112D01*
X45002495Y-36464084D01*
X44996112Y-36449218D01*
X44992127Y-36441750D01*
X44991773Y-36441369D01*
X44986626Y-36438892D01*
X44976348Y-36437233D01*
X44959685Y-36436320D01*
X44935384Y-36436077D01*
X44902189Y-36436430D01*
X44817820Y-36437820D01*
X44783188Y-36523583D01*
X44773016Y-36549171D01*
X44762542Y-36577022D01*
X44756018Y-36596803D01*
X44753233Y-36609167D01*
X44753978Y-36614769D01*
X44756237Y-36617399D01*
X44759400Y-36624255D01*
X44758123Y-36624995D01*
X44748837Y-36626310D01*
X44732037Y-36627364D01*
X44709474Y-36628065D01*
X44682901Y-36628320D01*
X44669790Y-36628256D01*
X44642505Y-36627585D01*
X44623049Y-36626269D01*
X44611889Y-36624415D01*
X44609491Y-36622133D01*
X44616321Y-36619529D01*
X44632843Y-36616712D01*
X44633366Y-36616640D01*
X44656907Y-36608197D01*
X44677767Y-36590038D01*
X44695810Y-36562280D01*
X44698008Y-36557625D01*
X44704439Y-36542994D01*
X44713944Y-36520701D01*
X44726065Y-36491845D01*
X44740346Y-36457521D01*
X44756328Y-36418827D01*
X44761564Y-36406070D01*
X44833849Y-36406070D01*
X44834656Y-36406531D01*
X44843185Y-36407848D01*
X44859357Y-36408910D01*
X44881270Y-36409621D01*
X44907020Y-36409880D01*
X44934803Y-36409706D01*
X44955615Y-36409061D01*
X44968844Y-36407817D01*
X44975812Y-36405845D01*
X44977840Y-36403017D01*
X44977822Y-36402727D01*
X44975880Y-36395107D01*
X44971204Y-36379991D01*
X44964434Y-36359243D01*
X44956214Y-36334730D01*
X44947185Y-36308315D01*
X44937990Y-36281865D01*
X44929272Y-36257245D01*
X44921673Y-36236319D01*
X44915835Y-36220953D01*
X44912400Y-36213012D01*
X44909122Y-36208958D01*
X44904626Y-36211039D01*
X44903034Y-36214123D01*
X44897937Y-36226015D01*
X44890736Y-36244209D01*
X44882070Y-36266951D01*
X44872574Y-36292485D01*
X44862886Y-36319056D01*
X44853643Y-36344911D01*
X44845481Y-36368295D01*
X44839037Y-36387452D01*
X44834947Y-36400628D01*
X44833849Y-36406070D01*
X44761564Y-36406070D01*
X44773554Y-36376861D01*
X44791565Y-36332720D01*
X44808607Y-36290853D01*
X44827752Y-36243928D01*
X44843682Y-36205098D01*
X44856736Y-36173614D01*
X44867251Y-36148726D01*
X44875564Y-36129684D01*
X44882014Y-36115740D01*
X44886938Y-36106144D01*
X44890673Y-36100146D01*
X44893559Y-36096998D01*
X44895931Y-36095949D01*
X44898129Y-36096250D01*
X44898676Y-36096825D01*
X44902703Y-36104569D01*
X44909900Y-36120620D01*
X44919900Y-36144079D01*
X44932332Y-36174053D01*
X44946827Y-36209644D01*
X44963017Y-36249956D01*
X44980533Y-36294094D01*
X44999005Y-36341160D01*
X45018069Y-36389953D01*
X45023202Y-36403017D01*
X45037705Y-36439927D01*
G37*
G36*
X42428771Y-36102327D02*
G01*
X42430037Y-36116200D01*
X42431079Y-36139063D01*
X42431904Y-36171150D01*
X42432517Y-36212694D01*
X42432924Y-36263930D01*
X42433131Y-36325089D01*
X42433214Y-36354907D01*
X42433479Y-36401560D01*
X42433889Y-36445232D01*
X42434423Y-36484725D01*
X42435061Y-36518844D01*
X42435782Y-36546393D01*
X42436567Y-36566174D01*
X42437396Y-36576991D01*
X42439412Y-36588041D01*
X42446320Y-36605613D01*
X42457596Y-36615233D01*
X42474371Y-36618160D01*
X42484250Y-36619582D01*
X42488640Y-36623240D01*
X42488157Y-36623906D01*
X42480218Y-36625768D01*
X42463124Y-36627155D01*
X42437638Y-36628021D01*
X42404521Y-36628320D01*
X42384568Y-36628196D01*
X42356822Y-36627461D01*
X42337098Y-36626138D01*
X42325824Y-36624314D01*
X42323428Y-36622074D01*
X42330336Y-36619506D01*
X42346976Y-36616695D01*
X42351334Y-36615987D01*
X42365833Y-36611942D01*
X42375167Y-36606810D01*
X42377216Y-36604263D01*
X42380784Y-36596544D01*
X42383815Y-36584513D01*
X42386380Y-36567336D01*
X42388548Y-36544177D01*
X42390389Y-36514201D01*
X42391975Y-36476571D01*
X42393376Y-36430452D01*
X42394661Y-36375009D01*
X42398066Y-36210599D01*
X42348103Y-36263129D01*
X42305222Y-36308145D01*
X42245637Y-36370427D01*
X42192616Y-36425495D01*
X42146208Y-36473301D01*
X42106458Y-36513796D01*
X42073415Y-36546932D01*
X42047126Y-36572659D01*
X42027639Y-36590931D01*
X42026459Y-36591995D01*
X42007974Y-36608113D01*
X41991767Y-36621274D01*
X41979548Y-36630146D01*
X41973029Y-36633400D01*
X41972337Y-36633278D01*
X41970672Y-36631468D01*
X41969290Y-36626851D01*
X41968166Y-36618610D01*
X41967273Y-36605929D01*
X41966585Y-36587990D01*
X41966078Y-36563975D01*
X41965724Y-36533069D01*
X41965498Y-36494454D01*
X41965374Y-36447313D01*
X41965326Y-36390830D01*
X41965312Y-36353466D01*
X41965243Y-36300585D01*
X41965036Y-36256532D01*
X41964599Y-36220484D01*
X41963841Y-36191616D01*
X41962670Y-36169105D01*
X41960993Y-36152127D01*
X41958720Y-36139859D01*
X41955758Y-36131475D01*
X41952016Y-36126154D01*
X41947402Y-36123070D01*
X41941824Y-36121399D01*
X41935190Y-36120320D01*
X41933624Y-36120067D01*
X41921889Y-36116585D01*
X41916050Y-36112028D01*
X41916607Y-36110629D01*
X41923204Y-36108704D01*
X41937643Y-36107483D01*
X41960692Y-36106914D01*
X41993119Y-36106948D01*
X42000797Y-36107030D01*
X42030587Y-36107740D01*
X42053053Y-36108967D01*
X42067253Y-36110643D01*
X42072241Y-36112700D01*
X42068432Y-36116587D01*
X42058268Y-36119172D01*
X42052219Y-36119822D01*
X42033866Y-36123073D01*
X42022596Y-36128142D01*
X42015965Y-36135999D01*
X42015049Y-36140601D01*
X42013757Y-36154344D01*
X42012360Y-36175659D01*
X42010904Y-36203181D01*
X42009431Y-36235549D01*
X42007985Y-36271399D01*
X42006611Y-36309367D01*
X42005353Y-36348091D01*
X42004253Y-36386208D01*
X42003355Y-36422354D01*
X42002705Y-36455166D01*
X42002344Y-36483281D01*
X42002318Y-36505336D01*
X42002669Y-36519969D01*
X42003442Y-36525815D01*
X42004661Y-36525327D01*
X42011674Y-36519391D01*
X42023726Y-36507848D01*
X42039556Y-36491923D01*
X42057906Y-36472843D01*
X42077946Y-36451738D01*
X42104043Y-36424334D01*
X42133672Y-36393283D01*
X42165778Y-36359685D01*
X42199307Y-36324640D01*
X42233205Y-36289248D01*
X42266418Y-36254610D01*
X42297891Y-36221825D01*
X42326571Y-36191994D01*
X42351402Y-36166216D01*
X42371331Y-36145591D01*
X42385304Y-36131220D01*
X42396691Y-36120007D01*
X42410942Y-36107283D01*
X42421720Y-36099227D01*
X42427309Y-36097230D01*
X42428771Y-36102327D01*
G37*
G36*
X42724590Y-36014777D02*
G01*
X42753470Y-36015447D01*
X42773947Y-36016731D01*
X42785672Y-36018563D01*
X42788293Y-36020879D01*
X42781460Y-36023615D01*
X42764822Y-36026707D01*
X42755482Y-36028485D01*
X42736981Y-36036260D01*
X42725613Y-36049920D01*
X42719648Y-36071170D01*
X42719070Y-36078235D01*
X42718478Y-36095454D01*
X42718082Y-36120440D01*
X42717891Y-36151838D01*
X42717911Y-36188289D01*
X42718148Y-36228438D01*
X42718611Y-36270926D01*
X42718678Y-36275860D01*
X42719414Y-36324443D01*
X42720212Y-36364107D01*
X42721130Y-36395989D01*
X42722230Y-36421225D01*
X42723573Y-36440954D01*
X42725218Y-36456311D01*
X42727226Y-36468434D01*
X42729658Y-36478460D01*
X42738907Y-36505265D01*
X42758592Y-36541496D01*
X42784763Y-36570302D01*
X42817873Y-36592266D01*
X42835697Y-36599630D01*
X42870026Y-36607289D01*
X42906936Y-36609082D01*
X42942843Y-36604950D01*
X42974166Y-36594834D01*
X42995357Y-36581409D01*
X43017472Y-36561630D01*
X43036993Y-36538921D01*
X43050713Y-36516560D01*
X43053159Y-36511200D01*
X43058796Y-36497877D01*
X43063395Y-36484699D01*
X43067060Y-36470521D01*
X43069896Y-36454198D01*
X43072009Y-36434585D01*
X43073502Y-36410537D01*
X43074481Y-36380910D01*
X43075051Y-36344557D01*
X43075316Y-36300335D01*
X43075380Y-36247099D01*
X43075381Y-36225329D01*
X43075331Y-36176897D01*
X43075081Y-36137330D01*
X43074470Y-36105700D01*
X43073339Y-36081077D01*
X43071528Y-36062534D01*
X43068875Y-36049142D01*
X43065221Y-36039972D01*
X43060405Y-36034096D01*
X43054267Y-36030585D01*
X43046648Y-36028511D01*
X43037386Y-36026946D01*
X43026067Y-36024817D01*
X43018333Y-36022065D01*
X43020247Y-36019692D01*
X43031509Y-36017742D01*
X43051819Y-36016260D01*
X43080879Y-36015291D01*
X43118389Y-36014878D01*
X43151524Y-36015024D01*
X43181266Y-36015757D01*
X43202633Y-36017040D01*
X43215266Y-36018821D01*
X43218812Y-36021046D01*
X43212914Y-36023663D01*
X43197215Y-36026618D01*
X43191457Y-36027690D01*
X43174874Y-36032771D01*
X43162827Y-36039187D01*
X43160759Y-36040936D01*
X43158277Y-36043757D01*
X43156256Y-36047872D01*
X43154628Y-36054268D01*
X43153324Y-36063927D01*
X43152275Y-36077836D01*
X43151412Y-36096979D01*
X43150668Y-36122342D01*
X43149973Y-36154908D01*
X43149259Y-36195664D01*
X43148458Y-36245593D01*
X43147908Y-36278850D01*
X43146925Y-36328708D01*
X43145788Y-36370145D01*
X43144373Y-36404264D01*
X43142555Y-36432164D01*
X43140210Y-36454947D01*
X43137213Y-36473713D01*
X43133440Y-36489564D01*
X43128766Y-36503599D01*
X43123067Y-36516920D01*
X43116218Y-36530627D01*
X43106878Y-36546671D01*
X43079066Y-36580681D01*
X43044349Y-36607503D01*
X43003257Y-36626781D01*
X42956317Y-36638162D01*
X42948205Y-36639331D01*
X42926809Y-36641878D01*
X42909227Y-36642547D01*
X42890858Y-36641344D01*
X42867100Y-36638274D01*
X42859450Y-36637041D01*
X42818390Y-36625703D01*
X42779960Y-36607502D01*
X42746000Y-36583686D01*
X42718348Y-36555500D01*
X42698843Y-36524191D01*
X42694077Y-36513587D01*
X42687941Y-36498858D01*
X42682922Y-36484547D01*
X42678887Y-36469476D01*
X42675703Y-36452472D01*
X42673234Y-36432360D01*
X42671347Y-36407963D01*
X42669910Y-36378107D01*
X42668787Y-36341617D01*
X42667845Y-36297318D01*
X42666950Y-36244034D01*
X42666182Y-36196704D01*
X42665431Y-36155732D01*
X42664682Y-36122972D01*
X42663870Y-36097423D01*
X42662935Y-36078085D01*
X42661814Y-36063959D01*
X42660444Y-36054043D01*
X42658764Y-36047339D01*
X42656711Y-36042846D01*
X42654223Y-36039564D01*
X42645461Y-36032432D01*
X42635589Y-36028880D01*
X42625561Y-36027762D01*
X42614974Y-36023932D01*
X42610560Y-36018882D01*
X42614150Y-36017792D01*
X42626401Y-36016645D01*
X42645787Y-36015697D01*
X42670682Y-36015026D01*
X42699460Y-36014707D01*
X42724590Y-36014777D01*
G37*
G36*
X51016008Y-36416449D02*
G01*
X51032002Y-36457105D01*
X51046471Y-36493634D01*
X51058988Y-36524966D01*
X51069126Y-36550030D01*
X51076460Y-36567756D01*
X51080563Y-36577074D01*
X51080755Y-36577459D01*
X51096164Y-36599351D01*
X51115937Y-36613257D01*
X51138610Y-36618141D01*
X51139859Y-36618156D01*
X51150679Y-36619777D01*
X51155120Y-36623240D01*
X51154947Y-36623653D01*
X51148222Y-36625614D01*
X51132331Y-36627081D01*
X51108107Y-36628001D01*
X51076380Y-36628320D01*
X51069977Y-36628308D01*
X51039577Y-36627874D01*
X51016833Y-36626849D01*
X51002577Y-36625286D01*
X50997640Y-36623240D01*
X50999358Y-36620368D01*
X51007385Y-36618160D01*
X51021684Y-36616370D01*
X51030584Y-36609169D01*
X51033200Y-36595120D01*
X51033062Y-36593152D01*
X51030455Y-36580763D01*
X51025150Y-36561869D01*
X51017936Y-36538788D01*
X51009603Y-36513836D01*
X51000940Y-36489327D01*
X50992737Y-36467580D01*
X50985784Y-36450908D01*
X50980870Y-36441630D01*
X50978246Y-36439887D01*
X50968893Y-36437766D01*
X50952297Y-36436338D01*
X50927489Y-36435532D01*
X50893500Y-36435280D01*
X50871119Y-36435377D01*
X50842926Y-36435971D01*
X50823317Y-36437164D01*
X50811328Y-36439027D01*
X50805996Y-36441630D01*
X50803920Y-36445374D01*
X50798251Y-36457592D01*
X50790084Y-36476329D01*
X50780164Y-36499865D01*
X50769235Y-36526480D01*
X50762906Y-36542200D01*
X50752689Y-36568451D01*
X50745999Y-36587415D01*
X50742433Y-36600436D01*
X50741588Y-36608863D01*
X50743062Y-36614041D01*
X50746345Y-36619785D01*
X50748720Y-36625711D01*
X50747443Y-36626185D01*
X50738158Y-36627029D01*
X50721358Y-36627706D01*
X50698794Y-36628156D01*
X50672221Y-36628320D01*
X50670389Y-36628319D01*
X50638466Y-36627965D01*
X50615680Y-36626985D01*
X50602366Y-36625402D01*
X50598860Y-36623240D01*
X50604419Y-36619860D01*
X50615670Y-36618141D01*
X50616791Y-36618109D01*
X50630905Y-36614938D01*
X50645671Y-36608165D01*
X50650421Y-36605202D01*
X50655876Y-36601333D01*
X50661079Y-36596632D01*
X50666369Y-36590382D01*
X50672085Y-36581868D01*
X50678567Y-36570376D01*
X50686153Y-36555189D01*
X50695182Y-36535593D01*
X50705994Y-36510873D01*
X50718926Y-36480313D01*
X50734319Y-36443198D01*
X50750015Y-36404901D01*
X50819840Y-36404901D01*
X50820373Y-36405500D01*
X50827943Y-36407107D01*
X50842778Y-36408368D01*
X50862703Y-36409267D01*
X50885541Y-36409785D01*
X50909117Y-36409905D01*
X50931255Y-36409612D01*
X50949779Y-36408886D01*
X50962512Y-36407711D01*
X50967279Y-36406070D01*
X50965977Y-36400315D01*
X50961797Y-36386783D01*
X50955339Y-36367360D01*
X50947220Y-36343770D01*
X50938057Y-36317736D01*
X50928469Y-36290980D01*
X50919073Y-36265226D01*
X50910488Y-36242196D01*
X50903331Y-36223613D01*
X50898220Y-36211200D01*
X50895773Y-36206680D01*
X50893576Y-36210299D01*
X50888405Y-36221883D01*
X50880998Y-36239775D01*
X50872011Y-36262266D01*
X50862098Y-36287647D01*
X50851914Y-36314208D01*
X50842114Y-36340240D01*
X50833351Y-36364035D01*
X50826282Y-36383883D01*
X50821560Y-36398075D01*
X50819840Y-36404901D01*
X50750015Y-36404901D01*
X50752511Y-36398812D01*
X50773840Y-36346441D01*
X50798647Y-36285369D01*
X50803784Y-36272716D01*
X50822093Y-36227633D01*
X50837048Y-36190895D01*
X50849028Y-36161647D01*
X50858414Y-36139037D01*
X50865584Y-36122211D01*
X50870918Y-36110316D01*
X50874797Y-36102497D01*
X50877599Y-36097902D01*
X50879704Y-36095676D01*
X50881491Y-36094966D01*
X50883340Y-36094920D01*
X50884639Y-36094901D01*
X50886264Y-36095205D01*
X50888050Y-36096585D01*
X50890315Y-36099803D01*
X50893380Y-36105623D01*
X50897566Y-36114807D01*
X50903193Y-36128119D01*
X50910582Y-36146321D01*
X50920052Y-36170177D01*
X50931925Y-36200449D01*
X50946521Y-36237901D01*
X50964159Y-36283295D01*
X50985162Y-36337395D01*
X50998913Y-36372737D01*
X51011949Y-36406070D01*
X51016008Y-36416449D01*
G37*
G36*
X40233210Y-36301551D02*
G01*
X40233242Y-36356400D01*
X40233276Y-36377718D01*
X40233503Y-36423105D01*
X40233917Y-36465428D01*
X40234493Y-36503504D01*
X40235210Y-36536152D01*
X40236041Y-36562188D01*
X40236964Y-36580429D01*
X40237954Y-36589693D01*
X40243723Y-36606262D01*
X40252866Y-36615377D01*
X40267111Y-36618082D01*
X40274296Y-36619115D01*
X40281380Y-36623240D01*
X40281095Y-36624128D01*
X40273348Y-36625940D01*
X40255822Y-36627252D01*
X40228779Y-36628050D01*
X40192480Y-36628320D01*
X40165369Y-36628129D01*
X40137108Y-36627345D01*
X40117129Y-36626018D01*
X40105807Y-36624214D01*
X40103517Y-36622003D01*
X40110635Y-36619451D01*
X40127535Y-36616625D01*
X40132703Y-36615873D01*
X40144131Y-36613209D01*
X40152642Y-36608502D01*
X40158755Y-36600400D01*
X40162987Y-36587551D01*
X40165859Y-36568601D01*
X40167889Y-36542199D01*
X40169595Y-36506991D01*
X40170416Y-36485086D01*
X40171061Y-36458714D01*
X40171191Y-36437113D01*
X40170801Y-36422072D01*
X40169884Y-36415386D01*
X40168702Y-36414414D01*
X40158962Y-36411999D01*
X40141092Y-36410435D01*
X40116596Y-36409880D01*
X40066712Y-36409880D01*
X40037224Y-36449250D01*
X40034557Y-36452804D01*
X40008563Y-36486826D01*
X39983306Y-36518829D01*
X39959825Y-36547566D01*
X39939156Y-36571789D01*
X39922337Y-36590252D01*
X39910405Y-36601708D01*
X39899479Y-36609804D01*
X39882181Y-36618734D01*
X39861625Y-36624428D01*
X39835552Y-36627439D01*
X39801701Y-36628320D01*
X39784859Y-36628079D01*
X39765909Y-36626886D01*
X39755504Y-36624889D01*
X39754046Y-36622307D01*
X39761941Y-36619361D01*
X39779592Y-36616271D01*
X39789548Y-36614448D01*
X39804446Y-36609628D01*
X39819724Y-36601699D01*
X39836183Y-36589931D01*
X39854622Y-36573594D01*
X39875842Y-36551959D01*
X39900642Y-36524298D01*
X39929822Y-36489881D01*
X39964181Y-36447980D01*
X39973629Y-36436313D01*
X39987285Y-36419387D01*
X39998009Y-36406016D01*
X40004063Y-36398365D01*
X40005473Y-36396339D01*
X40006883Y-36391081D01*
X40004167Y-36384385D01*
X39996271Y-36374370D01*
X39982144Y-36359153D01*
X39961912Y-36335746D01*
X39941429Y-36303309D01*
X39929653Y-36270014D01*
X39928776Y-36261766D01*
X39989531Y-36261766D01*
X39991762Y-36294651D01*
X39999634Y-36325340D01*
X40012962Y-36351633D01*
X40031559Y-36371329D01*
X40037323Y-36375048D01*
X40048621Y-36379379D01*
X40064381Y-36381810D01*
X40087439Y-36382928D01*
X40108621Y-36382970D01*
X40137425Y-36380827D01*
X40157246Y-36375970D01*
X40167659Y-36368477D01*
X40168954Y-36362703D01*
X40170162Y-36348114D01*
X40171052Y-36326845D01*
X40171627Y-36300767D01*
X40171892Y-36271749D01*
X40171850Y-36241662D01*
X40171506Y-36212375D01*
X40170863Y-36185760D01*
X40169924Y-36163685D01*
X40168695Y-36148022D01*
X40167179Y-36140640D01*
X40164292Y-36137842D01*
X40155881Y-36134995D01*
X40140963Y-36133516D01*
X40117727Y-36133131D01*
X40112489Y-36133181D01*
X40079491Y-36135935D01*
X40053604Y-36143494D01*
X40032812Y-36156709D01*
X40015097Y-36176431D01*
X40002737Y-36198208D01*
X39993128Y-36228885D01*
X39989531Y-36261766D01*
X39928776Y-36261766D01*
X39925846Y-36234221D01*
X39926108Y-36218552D01*
X39928000Y-36202216D01*
X39932661Y-36188593D01*
X39941179Y-36173357D01*
X39948457Y-36162295D01*
X39961125Y-36146781D01*
X39975605Y-36134442D01*
X39993085Y-36124935D01*
X40014753Y-36117915D01*
X40041798Y-36113037D01*
X40075408Y-36109955D01*
X40116773Y-36108325D01*
X40167080Y-36107802D01*
X40171503Y-36107798D01*
X40211248Y-36107994D01*
X40243547Y-36108610D01*
X40267724Y-36109618D01*
X40283101Y-36110990D01*
X40289000Y-36112700D01*
X40288965Y-36114091D01*
X40282853Y-36117325D01*
X40270037Y-36119337D01*
X40268872Y-36119420D01*
X40260421Y-36120052D01*
X40253418Y-36121253D01*
X40247727Y-36123896D01*
X40243213Y-36128852D01*
X40239741Y-36136993D01*
X40237176Y-36149191D01*
X40235382Y-36166318D01*
X40234223Y-36189246D01*
X40233565Y-36218846D01*
X40233273Y-36255990D01*
X40233251Y-36271749D01*
X40233210Y-36301551D01*
G37*
G36*
X53205151Y-34512804D02*
G01*
X53238418Y-34513263D01*
X53264585Y-34514403D01*
X53286188Y-34516448D01*
X53305761Y-34519623D01*
X53325840Y-34524151D01*
X53339510Y-34527723D01*
X53405784Y-34550339D01*
X53464996Y-34580107D01*
X53517520Y-34617282D01*
X53563730Y-34662120D01*
X53603997Y-34714878D01*
X53630877Y-34760945D01*
X53659881Y-34827417D01*
X53682269Y-34901387D01*
X53698016Y-34982715D01*
X53707096Y-35071258D01*
X53709483Y-35166873D01*
X53705151Y-35269420D01*
X53698860Y-35342656D01*
X53686044Y-35450359D01*
X53668761Y-35559226D01*
X53646801Y-35670011D01*
X53619954Y-35783463D01*
X53588011Y-35900334D01*
X53550762Y-36021376D01*
X53507998Y-36147340D01*
X53459509Y-36278977D01*
X53405085Y-36417040D01*
X53344517Y-36562280D01*
X53265396Y-36741774D01*
X53172589Y-36939701D01*
X53073157Y-37139333D01*
X52966843Y-37341121D01*
X52853393Y-37545512D01*
X52732550Y-37752955D01*
X52604060Y-37963899D01*
X52467665Y-38178792D01*
X52323111Y-38398082D01*
X52170141Y-38622220D01*
X52045147Y-38800392D01*
X51870858Y-39041944D01*
X51695739Y-39276447D01*
X51518555Y-39505432D01*
X51338072Y-39730432D01*
X51153055Y-39952977D01*
X50962268Y-40174599D01*
X50764478Y-40396829D01*
X50558449Y-40621200D01*
X50541276Y-40639565D01*
X50480152Y-40704071D01*
X50413601Y-40773132D01*
X50342845Y-40845539D01*
X50269106Y-40920079D01*
X50193607Y-40995543D01*
X50117571Y-41070720D01*
X50042219Y-41144399D01*
X49968775Y-41215369D01*
X49898462Y-41282421D01*
X49832500Y-41344342D01*
X49772114Y-41399923D01*
X49681191Y-41481609D01*
X49559720Y-41587806D01*
X49436788Y-41692085D01*
X49313364Y-41793689D01*
X49190416Y-41891859D01*
X49068912Y-41985836D01*
X48949821Y-42074864D01*
X48834110Y-42158183D01*
X48722749Y-42235036D01*
X48616704Y-42304664D01*
X48600091Y-42315215D01*
X48489955Y-42382659D01*
X48380372Y-42445510D01*
X48271993Y-42503494D01*
X48165468Y-42556342D01*
X48061448Y-42603782D01*
X47960583Y-42645541D01*
X47863523Y-42681349D01*
X47770919Y-42710935D01*
X47683421Y-42734026D01*
X47601680Y-42750352D01*
X47526347Y-42759640D01*
X47508478Y-42760855D01*
X47434743Y-42761756D01*
X47362965Y-42756182D01*
X47294806Y-42744401D01*
X47231928Y-42726680D01*
X47175990Y-42703286D01*
X47135814Y-42680353D01*
X47084254Y-42641711D01*
X47039269Y-42596520D01*
X47001670Y-42545764D01*
X46972268Y-42490425D01*
X46951872Y-42431486D01*
X46946209Y-42408337D01*
X46943945Y-42393849D01*
X46945820Y-42387935D01*
X46952523Y-42390316D01*
X46964743Y-42400715D01*
X46983170Y-42418853D01*
X46990325Y-42425949D01*
X47037605Y-42467207D01*
X47086452Y-42499646D01*
X47138838Y-42524411D01*
X47196737Y-42542644D01*
X47216266Y-42546795D01*
X47261084Y-42552383D01*
X47311607Y-42554409D01*
X47365306Y-42552904D01*
X47419653Y-42547897D01*
X47472120Y-42539417D01*
X47479024Y-42538017D01*
X47565750Y-42518760D01*
X47652220Y-42496619D01*
X47735956Y-42472310D01*
X47814485Y-42446548D01*
X47885328Y-42420048D01*
X47917449Y-42406556D01*
X47958188Y-42388421D01*
X48003653Y-42367370D01*
X48051699Y-42344429D01*
X48100177Y-42320623D01*
X48146941Y-42296980D01*
X48189844Y-42274524D01*
X48217265Y-42259736D01*
X48317882Y-42203243D01*
X48419100Y-42142838D01*
X48521426Y-42078142D01*
X48625367Y-42008779D01*
X48731428Y-41934370D01*
X48840117Y-41854537D01*
X48951940Y-41768902D01*
X49067404Y-41677087D01*
X49187015Y-41578715D01*
X49311280Y-41473407D01*
X49440704Y-41360786D01*
X49575796Y-41240473D01*
X49787086Y-41046796D01*
X50075049Y-40771025D01*
X50355659Y-40488264D01*
X50628852Y-40198591D01*
X50894561Y-39902084D01*
X51152723Y-39598821D01*
X51403273Y-39288882D01*
X51646146Y-38972344D01*
X51881279Y-38649287D01*
X52108605Y-38319788D01*
X52328061Y-37983926D01*
X52539582Y-37641780D01*
X52608845Y-37525374D01*
X52694501Y-37377646D01*
X52773859Y-37236089D01*
X52847274Y-37099980D01*
X52915098Y-36968594D01*
X52977684Y-36841209D01*
X53035386Y-36717102D01*
X53088556Y-36595549D01*
X53137548Y-36475826D01*
X53182715Y-36357212D01*
X53224410Y-36238981D01*
X53231167Y-36218950D01*
X53239793Y-36193034D01*
X53248052Y-36167694D01*
X53256254Y-36141894D01*
X53264706Y-36114597D01*
X53273718Y-36084767D01*
X53283599Y-36051368D01*
X53294657Y-36013362D01*
X53307202Y-35969714D01*
X53321542Y-35919386D01*
X53337987Y-35861343D01*
X53356844Y-35794548D01*
X53381693Y-35705150D01*
X53407224Y-35609695D01*
X53429252Y-35522573D01*
X53447838Y-35443158D01*
X53463041Y-35370825D01*
X53474920Y-35304949D01*
X53483536Y-35244904D01*
X53488948Y-35190066D01*
X53491215Y-35139809D01*
X53490396Y-35093509D01*
X53486552Y-35050540D01*
X53479742Y-35010276D01*
X53470026Y-34972094D01*
X53457463Y-34935367D01*
X53442112Y-34899470D01*
X53430224Y-34875339D01*
X53405798Y-34833570D01*
X53378484Y-34797429D01*
X53346151Y-34763905D01*
X53325369Y-34745622D01*
X53287291Y-34717918D01*
X53246810Y-34696073D01*
X53202974Y-34679900D01*
X53154830Y-34669217D01*
X53101423Y-34663840D01*
X53041802Y-34663583D01*
X52975012Y-34668263D01*
X52900100Y-34677695D01*
X52895699Y-34678350D01*
X52849376Y-34685770D01*
X52804555Y-34694025D01*
X52760421Y-34703400D01*
X52716159Y-34714181D01*
X52670956Y-34726653D01*
X52623995Y-34741100D01*
X52574463Y-34757808D01*
X52521545Y-34777061D01*
X52464426Y-34799145D01*
X52402291Y-34824344D01*
X52334325Y-34852943D01*
X52259715Y-34885227D01*
X52177645Y-34921482D01*
X52087300Y-34961992D01*
X52081318Y-34964689D01*
X52041456Y-34982590D01*
X52004267Y-34999178D01*
X51970848Y-35013971D01*
X51942296Y-35026488D01*
X51919706Y-35036249D01*
X51904176Y-35042773D01*
X51896800Y-35045577D01*
X51884100Y-35048977D01*
X51896246Y-35038424D01*
X51900482Y-35035265D01*
X51913558Y-35026608D01*
X51933605Y-35013939D01*
X51959519Y-34997916D01*
X51990197Y-34979198D01*
X52024537Y-34958442D01*
X52061436Y-34936308D01*
X52099791Y-34913454D01*
X52138499Y-34890538D01*
X52176458Y-34868220D01*
X52212565Y-34847156D01*
X52245717Y-34828007D01*
X52274811Y-34811429D01*
X52298745Y-34798083D01*
X52358383Y-34766000D01*
X52467485Y-34710907D01*
X52572059Y-34663137D01*
X52673268Y-34622270D01*
X52772278Y-34587882D01*
X52870250Y-34559554D01*
X52968350Y-34536862D01*
X53067740Y-34519386D01*
X53075863Y-34518326D01*
X53100832Y-34516076D01*
X53131485Y-34514293D01*
X53164681Y-34513139D01*
X53197280Y-34512774D01*
X53205151Y-34512804D01*
G37*
G36*
X49582814Y-38688691D02*
G01*
X49561941Y-38723588D01*
X49538519Y-38760796D01*
X49511930Y-38801261D01*
X49481551Y-38845931D01*
X49466980Y-38866801D01*
X49446765Y-38895754D01*
X49406950Y-38951678D01*
X49361486Y-39014650D01*
X49342211Y-39041205D01*
X49312257Y-39082471D01*
X49277639Y-39130158D01*
X49239099Y-39183248D01*
X49197376Y-39240719D01*
X49153213Y-39301552D01*
X49107348Y-39364727D01*
X49060523Y-39429223D01*
X49013478Y-39494021D01*
X48966955Y-39558100D01*
X48921693Y-39620440D01*
X48908230Y-39638985D01*
X48903931Y-39644907D01*
X48860287Y-39705060D01*
X48811792Y-39771938D01*
X48759202Y-39844495D01*
X48703275Y-39921685D01*
X48694985Y-39933131D01*
X48680314Y-39953386D01*
X48644767Y-40002463D01*
X48584436Y-40085784D01*
X48523037Y-40170602D01*
X48461329Y-40255871D01*
X48400068Y-40340547D01*
X48340011Y-40423584D01*
X48281915Y-40503937D01*
X48254197Y-40542288D01*
X48226537Y-40580560D01*
X48225737Y-40581666D01*
X48173953Y-40653325D01*
X48121818Y-40725457D01*
X48069858Y-40797337D01*
X48018598Y-40868237D01*
X47986836Y-40912161D01*
X47977906Y-40924511D01*
X47968562Y-40937433D01*
X47920276Y-41004200D01*
X47874264Y-41067810D01*
X47831052Y-41127539D01*
X47791165Y-41182661D01*
X47755127Y-41232449D01*
X47723463Y-41276179D01*
X47696698Y-41313124D01*
X47675358Y-41342560D01*
X47672869Y-41345991D01*
X47643987Y-41385906D01*
X47627441Y-41408872D01*
X47616949Y-41423436D01*
X47592348Y-41457750D01*
X47570774Y-41488015D01*
X47552819Y-41513399D01*
X47539075Y-41533070D01*
X47530132Y-41546195D01*
X47526582Y-41551941D01*
X47525922Y-41555984D01*
X47526844Y-41568984D01*
X47527866Y-41573700D01*
X47530308Y-41584961D01*
X47530357Y-41585135D01*
X47540861Y-41622061D01*
X47557371Y-41680852D01*
X47571367Y-41731735D01*
X47582773Y-41774409D01*
X47591509Y-41808575D01*
X47597498Y-41833930D01*
X47600662Y-41850174D01*
X47600922Y-41857007D01*
X47599656Y-41859067D01*
X47590637Y-41872652D01*
X47577590Y-41891199D01*
X47561515Y-41913390D01*
X47543414Y-41937906D01*
X47524284Y-41963430D01*
X47505127Y-41988643D01*
X47486943Y-42012228D01*
X47470732Y-42032866D01*
X47457493Y-42049239D01*
X47448227Y-42060030D01*
X47443934Y-42063920D01*
X47440931Y-42063570D01*
X47428824Y-42061542D01*
X47409138Y-42057950D01*
X47383362Y-42053073D01*
X47352987Y-42047190D01*
X47319502Y-42040581D01*
X47299646Y-42036699D01*
X47267363Y-42030707D01*
X47238822Y-42025804D01*
X47215575Y-42022237D01*
X47199172Y-42020253D01*
X47191163Y-42020100D01*
X47186188Y-42022674D01*
X47175829Y-42032327D01*
X47165579Y-42045986D01*
X47147495Y-42069739D01*
X47117692Y-42096961D01*
X47088683Y-42114657D01*
X47083500Y-42117819D01*
X47073432Y-42122166D01*
X47056910Y-42127717D01*
X47044709Y-42129910D01*
X47044187Y-42129900D01*
X47031762Y-42126366D01*
X47013981Y-42117352D01*
X46992887Y-42104133D01*
X46970525Y-42087984D01*
X46948940Y-42070180D01*
X46940189Y-42062132D01*
X46934828Y-42055767D01*
X46961380Y-42055767D01*
X46961786Y-42058377D01*
X46967387Y-42064696D01*
X46976716Y-42073369D01*
X46988302Y-42083038D01*
X47000680Y-42092348D01*
X47012380Y-42099942D01*
X47023489Y-42106102D01*
X47035930Y-42112266D01*
X47042752Y-42114672D01*
X47042898Y-42114657D01*
X47040755Y-42111659D01*
X47032391Y-42104474D01*
X47019789Y-42094587D01*
X47004932Y-42083481D01*
X46989803Y-42072643D01*
X46976385Y-42063556D01*
X46966660Y-42057706D01*
X46961380Y-42055767D01*
X46934828Y-42055767D01*
X46931733Y-42052092D01*
X46928205Y-42042032D01*
X46927684Y-42028150D01*
X46930347Y-42004033D01*
X46939158Y-41970799D01*
X46944010Y-41959102D01*
X47114279Y-41959102D01*
X47118383Y-41966837D01*
X47120951Y-41967050D01*
X47125496Y-41964053D01*
X47132434Y-41957147D01*
X47142261Y-41945708D01*
X47155477Y-41929109D01*
X47172577Y-41906725D01*
X47194061Y-41877929D01*
X47220425Y-41842097D01*
X47252167Y-41798601D01*
X47272676Y-41770323D01*
X47308770Y-41719930D01*
X47338552Y-41677403D01*
X47362050Y-41642702D01*
X47379291Y-41615785D01*
X47390302Y-41596610D01*
X47395110Y-41585135D01*
X47393742Y-41581320D01*
X47393707Y-41581323D01*
X47390017Y-41585132D01*
X47381151Y-41596181D01*
X47367003Y-41614616D01*
X47347465Y-41640581D01*
X47322428Y-41674220D01*
X47291785Y-41715676D01*
X47255428Y-41765095D01*
X47213249Y-41822620D01*
X47202996Y-41836620D01*
X47180504Y-41867312D01*
X47160170Y-41895033D01*
X47142764Y-41918737D01*
X47129052Y-41937380D01*
X47119802Y-41949915D01*
X47115785Y-41955295D01*
X47114279Y-41959102D01*
X46944010Y-41959102D01*
X46952641Y-41938292D01*
X46969280Y-41910791D01*
X46978943Y-41896723D01*
X46986590Y-41882977D01*
X46989520Y-41873973D01*
X46988494Y-41870396D01*
X46983090Y-41858473D01*
X46973681Y-41840017D01*
X46960980Y-41816373D01*
X46945702Y-41788889D01*
X46928560Y-41758913D01*
X46917265Y-41739293D01*
X46901278Y-41711037D01*
X46887609Y-41686286D01*
X46876966Y-41666352D01*
X46870060Y-41652546D01*
X46867600Y-41646183D01*
X46867886Y-41645195D01*
X46872402Y-41637147D01*
X46881645Y-41622739D01*
X46894634Y-41603365D01*
X46910384Y-41580418D01*
X46915070Y-41573700D01*
X47395920Y-41573700D01*
X47398460Y-41576240D01*
X47401000Y-41573700D01*
X47398460Y-41571160D01*
X47395920Y-41573700D01*
X46915070Y-41573700D01*
X46927911Y-41555292D01*
X46946234Y-41529380D01*
X46964368Y-41504075D01*
X46981331Y-41480772D01*
X46996138Y-41460864D01*
X47007806Y-41445743D01*
X47015353Y-41436804D01*
X47016894Y-41435320D01*
X47021295Y-41432402D01*
X47027910Y-41430109D01*
X47038062Y-41428295D01*
X47053077Y-41426813D01*
X47074276Y-41425514D01*
X47102985Y-41424253D01*
X47140527Y-41422881D01*
X47176798Y-41421597D01*
X47217000Y-41420045D01*
X47249009Y-41418536D01*
X47273944Y-41416923D01*
X47292927Y-41415055D01*
X47307076Y-41412785D01*
X47317514Y-41409963D01*
X47325359Y-41406441D01*
X47331733Y-41402071D01*
X47337755Y-41396703D01*
X47337831Y-41396627D01*
X47338924Y-41395257D01*
X47498822Y-41395257D01*
X47499352Y-41403654D01*
X47508950Y-41413966D01*
X47518312Y-41420717D01*
X47528295Y-41423130D01*
X47537144Y-41417744D01*
X47538671Y-41416151D01*
X47542676Y-41408872D01*
X47539086Y-41402038D01*
X47527000Y-41393493D01*
X47523302Y-41391336D01*
X47511765Y-41386881D01*
X47504140Y-41389110D01*
X47498822Y-41395257D01*
X47338924Y-41395257D01*
X47342445Y-41390845D01*
X47352764Y-41377170D01*
X47356028Y-41372778D01*
X47513365Y-41372778D01*
X47527033Y-41382236D01*
X47527034Y-41382237D01*
X47538487Y-41389955D01*
X47546831Y-41395231D01*
X47550887Y-41393933D01*
X47560331Y-41384686D01*
X47574320Y-41367276D01*
X47592551Y-41342053D01*
X47592944Y-41341490D01*
X47605293Y-41324009D01*
X47622649Y-41299707D01*
X47644060Y-41269908D01*
X47668571Y-41235933D01*
X47695228Y-41199105D01*
X47723078Y-41160746D01*
X47751166Y-41122179D01*
X47757786Y-41113099D01*
X47784041Y-41076989D01*
X47808571Y-41043096D01*
X47830663Y-41012417D01*
X47849603Y-40985948D01*
X47864678Y-40964686D01*
X47875173Y-40949626D01*
X47880377Y-40941765D01*
X47890562Y-40924511D01*
X47875651Y-40912581D01*
X47873151Y-40910610D01*
X47863431Y-40903567D01*
X47858200Y-40900793D01*
X47858026Y-40900917D01*
X47853685Y-40906270D01*
X47844085Y-40918949D01*
X47829802Y-40938169D01*
X47811413Y-40963144D01*
X47789496Y-40993089D01*
X47764627Y-41027217D01*
X47737383Y-41064744D01*
X47708340Y-41104883D01*
X47707387Y-41106204D01*
X47677446Y-41147631D01*
X47648595Y-41187513D01*
X47621525Y-41224894D01*
X47596932Y-41258817D01*
X47575508Y-41288326D01*
X47557948Y-41312464D01*
X47544945Y-41330276D01*
X47537193Y-41340805D01*
X47513365Y-41372778D01*
X47356028Y-41372778D01*
X47368551Y-41355927D01*
X47389572Y-41327440D01*
X47415588Y-41292034D01*
X47446364Y-41250033D01*
X47481664Y-41201762D01*
X47521250Y-41147545D01*
X47564888Y-41087707D01*
X47612340Y-41022573D01*
X47663371Y-40952466D01*
X47710032Y-40888313D01*
X47866447Y-40888313D01*
X47870922Y-40894314D01*
X47883126Y-40902840D01*
X47887699Y-40905633D01*
X47904379Y-40913798D01*
X47915061Y-40915795D01*
X47918913Y-40912161D01*
X47915100Y-40903435D01*
X47902788Y-40890153D01*
X47897443Y-40885436D01*
X47885307Y-40877121D01*
X47876401Y-40876307D01*
X47868609Y-40882520D01*
X47868311Y-40882887D01*
X47866447Y-40888313D01*
X47710032Y-40888313D01*
X47717743Y-40877711D01*
X47775221Y-40798634D01*
X47835569Y-40715558D01*
X47898550Y-40628807D01*
X47963927Y-40538707D01*
X47978604Y-40518470D01*
X48132520Y-40518470D01*
X48135629Y-40527702D01*
X48143950Y-40538005D01*
X48147188Y-40540833D01*
X48160294Y-40551811D01*
X48168117Y-40556836D01*
X48172456Y-40556734D01*
X48175107Y-40552334D01*
X48176667Y-40548017D01*
X48178240Y-40542288D01*
X48176290Y-40540188D01*
X48167987Y-40533667D01*
X48155380Y-40524680D01*
X48146818Y-40518907D01*
X48137603Y-40513645D01*
X48133473Y-40513672D01*
X48132520Y-40518470D01*
X47978604Y-40518470D01*
X47991316Y-40500942D01*
X48147760Y-40500942D01*
X48147884Y-40501382D01*
X48152749Y-40506534D01*
X48162510Y-40514170D01*
X48177260Y-40524673D01*
X48228973Y-40450374D01*
X48234210Y-40442882D01*
X48250746Y-40419466D01*
X48271922Y-40389720D01*
X48296786Y-40354972D01*
X48324381Y-40316554D01*
X48353753Y-40275794D01*
X48383950Y-40234022D01*
X48414015Y-40192567D01*
X48432173Y-40167560D01*
X48459940Y-40129264D01*
X48486041Y-40093198D01*
X48509759Y-40060359D01*
X48530373Y-40031745D01*
X48547164Y-40008353D01*
X48559414Y-39991179D01*
X48566403Y-39981223D01*
X48585462Y-39953386D01*
X48571615Y-39942345D01*
X48557768Y-39931304D01*
X48530051Y-39969935D01*
X48523998Y-39978348D01*
X48511591Y-39995543D01*
X48494362Y-40019393D01*
X48472942Y-40049025D01*
X48447961Y-40083567D01*
X48420050Y-40122147D01*
X48389841Y-40163892D01*
X48357963Y-40207931D01*
X48325048Y-40253392D01*
X48294521Y-40295588D01*
X48264358Y-40337367D01*
X48236534Y-40375991D01*
X48211569Y-40410736D01*
X48189980Y-40440879D01*
X48172287Y-40465694D01*
X48159007Y-40484459D01*
X48150658Y-40496450D01*
X48147760Y-40500942D01*
X47991316Y-40500942D01*
X48031465Y-40445582D01*
X48100927Y-40349756D01*
X48172076Y-40251553D01*
X48244678Y-40151300D01*
X48309639Y-40061574D01*
X48382115Y-39961471D01*
X48412520Y-39919476D01*
X48556384Y-39919476D01*
X48562542Y-39928203D01*
X48569129Y-39933233D01*
X48581505Y-39941165D01*
X48588923Y-39942575D01*
X48592952Y-39937969D01*
X48593444Y-39933131D01*
X48588879Y-39922686D01*
X48579669Y-39913772D01*
X48568913Y-39910000D01*
X48559345Y-39912485D01*
X48556384Y-39919476D01*
X48412520Y-39919476D01*
X48453292Y-39863162D01*
X48522912Y-39767006D01*
X48532325Y-39754005D01*
X48697345Y-39754005D01*
X48699253Y-39759923D01*
X48707196Y-39766062D01*
X48718415Y-39765006D01*
X48730135Y-39756541D01*
X48736163Y-39749481D01*
X48750577Y-39730895D01*
X48766634Y-39708605D01*
X48781984Y-39685923D01*
X48794276Y-39666160D01*
X48800157Y-39654282D01*
X48803562Y-39638985D01*
X48799748Y-39629056D01*
X48788850Y-39625520D01*
X48783397Y-39628569D01*
X48773304Y-39638649D01*
X48760404Y-39654005D01*
X48746006Y-39672798D01*
X48731418Y-39693191D01*
X48717949Y-39713346D01*
X48706908Y-39731425D01*
X48699604Y-39745591D01*
X48697345Y-39754005D01*
X48532325Y-39754005D01*
X48590715Y-39673359D01*
X48643610Y-39600303D01*
X48809087Y-39600303D01*
X48812264Y-39612705D01*
X48817300Y-39621382D01*
X48822022Y-39625315D01*
X48825033Y-39621807D01*
X48833516Y-39610723D01*
X48846932Y-39592755D01*
X48864769Y-39568613D01*
X48886514Y-39539005D01*
X48911653Y-39504642D01*
X48939673Y-39466232D01*
X48970061Y-39424485D01*
X49002304Y-39380110D01*
X49035889Y-39333817D01*
X49070302Y-39286315D01*
X49105031Y-39238313D01*
X49139562Y-39190521D01*
X49173382Y-39143647D01*
X49205977Y-39098402D01*
X49236836Y-39055494D01*
X49265443Y-39015634D01*
X49291287Y-38979529D01*
X49313855Y-38947891D01*
X49332632Y-38921427D01*
X49347106Y-38900847D01*
X49356763Y-38886861D01*
X49361091Y-38880178D01*
X49363602Y-38875115D01*
X49365104Y-38866801D01*
X49360215Y-38859677D01*
X49354396Y-38855664D01*
X49345665Y-38854596D01*
X49344034Y-38856265D01*
X49336865Y-38865224D01*
X49324594Y-38881279D01*
X49307744Y-38903711D01*
X49286837Y-38931802D01*
X49262399Y-38964832D01*
X49234951Y-39002082D01*
X49205018Y-39042834D01*
X49173122Y-39086369D01*
X49139788Y-39131967D01*
X49105538Y-39178910D01*
X49070895Y-39226478D01*
X49036385Y-39273953D01*
X49002529Y-39320616D01*
X48969851Y-39365748D01*
X48938874Y-39408630D01*
X48910122Y-39448543D01*
X48884119Y-39484767D01*
X48861387Y-39516585D01*
X48842450Y-39543277D01*
X48827831Y-39564124D01*
X48818055Y-39578407D01*
X48813643Y-39585408D01*
X48812669Y-39587423D01*
X48809087Y-39600303D01*
X48643610Y-39600303D01*
X48656443Y-39582579D01*
X48719837Y-39495024D01*
X48780638Y-39411052D01*
X48838587Y-39331019D01*
X48893425Y-39255283D01*
X48944894Y-39184201D01*
X48992735Y-39118132D01*
X49036688Y-39057433D01*
X49076495Y-39002460D01*
X49111898Y-38953573D01*
X49142636Y-38911127D01*
X49168452Y-38875481D01*
X49189086Y-38846993D01*
X49195862Y-38837639D01*
X49358064Y-38837639D01*
X49364566Y-38846474D01*
X49370493Y-38850464D01*
X49375958Y-38852384D01*
X49381733Y-38851249D01*
X49388756Y-38846194D01*
X49397966Y-38836353D01*
X49410299Y-38820863D01*
X49426694Y-38798858D01*
X49448089Y-38769473D01*
X49453954Y-38761383D01*
X49473453Y-38734259D01*
X49487715Y-38713790D01*
X49497403Y-38698788D01*
X49503178Y-38688060D01*
X49505704Y-38680416D01*
X49505644Y-38674665D01*
X49503659Y-38669617D01*
X49502973Y-38668377D01*
X49497989Y-38662124D01*
X49492013Y-38660348D01*
X49484275Y-38663716D01*
X49474007Y-38672894D01*
X49460443Y-38688549D01*
X49442815Y-38711348D01*
X49420354Y-38741958D01*
X49417942Y-38745295D01*
X49399813Y-38770580D01*
X49383808Y-38793248D01*
X49370895Y-38811904D01*
X49362042Y-38825151D01*
X49358218Y-38831592D01*
X49358064Y-38837639D01*
X49195862Y-38837639D01*
X49204280Y-38826018D01*
X49213775Y-38812916D01*
X49243819Y-38771672D01*
X49284521Y-38716701D01*
X49321796Y-38667818D01*
X49356791Y-38623793D01*
X49390649Y-38583393D01*
X49424518Y-38545386D01*
X49459542Y-38508542D01*
X49496866Y-38471629D01*
X49537637Y-38433415D01*
X49582999Y-38392669D01*
X49634099Y-38348159D01*
X49692080Y-38298653D01*
X49694509Y-38296593D01*
X49725013Y-38270751D01*
X49748580Y-38250985D01*
X49765979Y-38236846D01*
X49777980Y-38227883D01*
X49785352Y-38223648D01*
X49788864Y-38223690D01*
X49789286Y-38227561D01*
X49787388Y-38234811D01*
X49783939Y-38244990D01*
X49779610Y-38257120D01*
X49767704Y-38288285D01*
X49752565Y-38325879D01*
X49734992Y-38368064D01*
X49715784Y-38412999D01*
X49695742Y-38458848D01*
X49675665Y-38503771D01*
X49656352Y-38545930D01*
X49638602Y-38583486D01*
X49623216Y-38614600D01*
X49619394Y-38622036D01*
X49601758Y-38655156D01*
X49587489Y-38680416D01*
X49582814Y-38688691D01*
G37*
%LPC*%
D12*
X45720000Y-40640000D03*
X44450000Y-43180000D03*
X43180000Y-40640000D03*
X41910000Y-43180000D03*
X40640000Y-40640000D03*
X39370000Y-43180000D03*
X38100000Y-40640000D03*
X36830000Y-43180000D03*
D13*
X46990000Y-49530000D03*
X35560000Y-49530000D03*
D14*
X53340000Y-41910000D03*
X29210000Y-41910000D03*
D15*
X29210000Y-33020000D03*
D16*
X29210000Y-27520000D03*
X32710000Y-33020000D03*
X32710000Y-27520000D03*
X36210000Y-33020000D03*
X36210000Y-27520000D03*
X39710000Y-33020000D03*
X39710000Y-27520000D03*
X43210000Y-33020000D03*
X43210000Y-27520000D03*
X46710000Y-33020000D03*
X46710000Y-27520000D03*
X50210000Y-33020000D03*
X50210000Y-27520000D03*
X53710000Y-33020000D03*
X53710000Y-27520000D03*
%LPD*%
M02*
