%TF.GenerationSoftware,KiCad,Pcbnew,7.0.7*%
%TF.CreationDate,2024-02-07T12:50:50-08:00*%
%TF.ProjectId,EthBreakoutBoard,45746842-7265-4616-9b6f-7574426f6172,rev?*%
%TF.SameCoordinates,Original*%
%TF.FileFunction,Drillmap*%
%TF.FilePolarity,Positive*%
%FSLAX45Y45*%
G04 Gerber Fmt 4.5, Leading zero omitted, Abs format (unit mm)*
G04 Created by KiCad (PCBNEW 7.0.7) date 2024-02-07 12:50:50*
%MOMM*%
%LPD*%
G01*
G04 APERTURE LIST*
%ADD10C,0.100000*%
%ADD11C,0.200000*%
%ADD12C,0.320000*%
%ADD13C,0.320040*%
G04 APERTURE END LIST*
D10*
X2540000Y-2540000D02*
X5715000Y-2540000D01*
X5715000Y-5715000D01*
X2540000Y-5715000D01*
X2540000Y-2540000D01*
D11*
D12*
X2761000Y-4031000D02*
X3081000Y-4351000D01*
X3081000Y-4031000D02*
X2761000Y-4351000D01*
X5174000Y-4031000D02*
X5494000Y-4351000D01*
X5494000Y-4031000D02*
X5174000Y-4351000D01*
D13*
X3716020Y-4953000D02*
G75*
G03*
X3716020Y-4953000I-160020J0D01*
G01*
X4859020Y-4953000D02*
G75*
G03*
X4859020Y-4953000I-160020J0D01*
G01*
D11*
X2795777Y-6031484D02*
X2795777Y-5831484D01*
X2795777Y-5831484D02*
X2843396Y-5831484D01*
X2843396Y-5831484D02*
X2871967Y-5841008D01*
X2871967Y-5841008D02*
X2891015Y-5860055D01*
X2891015Y-5860055D02*
X2900539Y-5879103D01*
X2900539Y-5879103D02*
X2910062Y-5917198D01*
X2910062Y-5917198D02*
X2910062Y-5945769D01*
X2910062Y-5945769D02*
X2900539Y-5983865D01*
X2900539Y-5983865D02*
X2891015Y-6002912D01*
X2891015Y-6002912D02*
X2871967Y-6021960D01*
X2871967Y-6021960D02*
X2843396Y-6031484D01*
X2843396Y-6031484D02*
X2795777Y-6031484D01*
X2995777Y-6031484D02*
X2995777Y-5898150D01*
X2995777Y-5936246D02*
X3005301Y-5917198D01*
X3005301Y-5917198D02*
X3014824Y-5907674D01*
X3014824Y-5907674D02*
X3033872Y-5898150D01*
X3033872Y-5898150D02*
X3052920Y-5898150D01*
X3119586Y-6031484D02*
X3119586Y-5898150D01*
X3119586Y-5831484D02*
X3110062Y-5841008D01*
X3110062Y-5841008D02*
X3119586Y-5850531D01*
X3119586Y-5850531D02*
X3129110Y-5841008D01*
X3129110Y-5841008D02*
X3119586Y-5831484D01*
X3119586Y-5831484D02*
X3119586Y-5850531D01*
X3243396Y-6031484D02*
X3224348Y-6021960D01*
X3224348Y-6021960D02*
X3214824Y-6002912D01*
X3214824Y-6002912D02*
X3214824Y-5831484D01*
X3348158Y-6031484D02*
X3329110Y-6021960D01*
X3329110Y-6021960D02*
X3319586Y-6002912D01*
X3319586Y-6002912D02*
X3319586Y-5831484D01*
X3576729Y-6031484D02*
X3576729Y-5831484D01*
X3576729Y-5831484D02*
X3643396Y-5974341D01*
X3643396Y-5974341D02*
X3710062Y-5831484D01*
X3710062Y-5831484D02*
X3710062Y-6031484D01*
X3891015Y-6031484D02*
X3891015Y-5926722D01*
X3891015Y-5926722D02*
X3881491Y-5907674D01*
X3881491Y-5907674D02*
X3862443Y-5898150D01*
X3862443Y-5898150D02*
X3824348Y-5898150D01*
X3824348Y-5898150D02*
X3805301Y-5907674D01*
X3891015Y-6021960D02*
X3871967Y-6031484D01*
X3871967Y-6031484D02*
X3824348Y-6031484D01*
X3824348Y-6031484D02*
X3805301Y-6021960D01*
X3805301Y-6021960D02*
X3795777Y-6002912D01*
X3795777Y-6002912D02*
X3795777Y-5983865D01*
X3795777Y-5983865D02*
X3805301Y-5964817D01*
X3805301Y-5964817D02*
X3824348Y-5955293D01*
X3824348Y-5955293D02*
X3871967Y-5955293D01*
X3871967Y-5955293D02*
X3891015Y-5945769D01*
X3986253Y-5898150D02*
X3986253Y-6098150D01*
X3986253Y-5907674D02*
X4005301Y-5898150D01*
X4005301Y-5898150D02*
X4043396Y-5898150D01*
X4043396Y-5898150D02*
X4062443Y-5907674D01*
X4062443Y-5907674D02*
X4071967Y-5917198D01*
X4071967Y-5917198D02*
X4081491Y-5936246D01*
X4081491Y-5936246D02*
X4081491Y-5993388D01*
X4081491Y-5993388D02*
X4071967Y-6012436D01*
X4071967Y-6012436D02*
X4062443Y-6021960D01*
X4062443Y-6021960D02*
X4043396Y-6031484D01*
X4043396Y-6031484D02*
X4005301Y-6031484D01*
X4005301Y-6031484D02*
X3986253Y-6021960D01*
X4167205Y-6012436D02*
X4176729Y-6021960D01*
X4176729Y-6021960D02*
X4167205Y-6031484D01*
X4167205Y-6031484D02*
X4157682Y-6021960D01*
X4157682Y-6021960D02*
X4167205Y-6012436D01*
X4167205Y-6012436D02*
X4167205Y-6031484D01*
X4167205Y-5907674D02*
X4176729Y-5917198D01*
X4176729Y-5917198D02*
X4167205Y-5926722D01*
X4167205Y-5926722D02*
X4157682Y-5917198D01*
X4157682Y-5917198D02*
X4167205Y-5907674D01*
X4167205Y-5907674D02*
X4167205Y-5926722D01*
X2335000Y-6260000D02*
X2535000Y-6460000D01*
X2535000Y-6260000D02*
X2335000Y-6460000D01*
X2776729Y-6251484D02*
X2900539Y-6251484D01*
X2900539Y-6251484D02*
X2833872Y-6327674D01*
X2833872Y-6327674D02*
X2862443Y-6327674D01*
X2862443Y-6327674D02*
X2881491Y-6337198D01*
X2881491Y-6337198D02*
X2891015Y-6346722D01*
X2891015Y-6346722D02*
X2900539Y-6365769D01*
X2900539Y-6365769D02*
X2900539Y-6413388D01*
X2900539Y-6413388D02*
X2891015Y-6432436D01*
X2891015Y-6432436D02*
X2881491Y-6441960D01*
X2881491Y-6441960D02*
X2862443Y-6451484D01*
X2862443Y-6451484D02*
X2805301Y-6451484D01*
X2805301Y-6451484D02*
X2786253Y-6441960D01*
X2786253Y-6441960D02*
X2776729Y-6432436D01*
X2986253Y-6432436D02*
X2995777Y-6441960D01*
X2995777Y-6441960D02*
X2986253Y-6451484D01*
X2986253Y-6451484D02*
X2976729Y-6441960D01*
X2976729Y-6441960D02*
X2986253Y-6432436D01*
X2986253Y-6432436D02*
X2986253Y-6451484D01*
X3071967Y-6270531D02*
X3081491Y-6261008D01*
X3081491Y-6261008D02*
X3100539Y-6251484D01*
X3100539Y-6251484D02*
X3148158Y-6251484D01*
X3148158Y-6251484D02*
X3167205Y-6261008D01*
X3167205Y-6261008D02*
X3176729Y-6270531D01*
X3176729Y-6270531D02*
X3186253Y-6289579D01*
X3186253Y-6289579D02*
X3186253Y-6308627D01*
X3186253Y-6308627D02*
X3176729Y-6337198D01*
X3176729Y-6337198D02*
X3062443Y-6451484D01*
X3062443Y-6451484D02*
X3186253Y-6451484D01*
X3310062Y-6251484D02*
X3329110Y-6251484D01*
X3329110Y-6251484D02*
X3348158Y-6261008D01*
X3348158Y-6261008D02*
X3357682Y-6270531D01*
X3357682Y-6270531D02*
X3367205Y-6289579D01*
X3367205Y-6289579D02*
X3376729Y-6327674D01*
X3376729Y-6327674D02*
X3376729Y-6375293D01*
X3376729Y-6375293D02*
X3367205Y-6413388D01*
X3367205Y-6413388D02*
X3357682Y-6432436D01*
X3357682Y-6432436D02*
X3348158Y-6441960D01*
X3348158Y-6441960D02*
X3329110Y-6451484D01*
X3329110Y-6451484D02*
X3310062Y-6451484D01*
X3310062Y-6451484D02*
X3291015Y-6441960D01*
X3291015Y-6441960D02*
X3281491Y-6432436D01*
X3281491Y-6432436D02*
X3271967Y-6413388D01*
X3271967Y-6413388D02*
X3262443Y-6375293D01*
X3262443Y-6375293D02*
X3262443Y-6327674D01*
X3262443Y-6327674D02*
X3271967Y-6289579D01*
X3271967Y-6289579D02*
X3281491Y-6270531D01*
X3281491Y-6270531D02*
X3291015Y-6261008D01*
X3291015Y-6261008D02*
X3310062Y-6251484D01*
X3500539Y-6251484D02*
X3519586Y-6251484D01*
X3519586Y-6251484D02*
X3538634Y-6261008D01*
X3538634Y-6261008D02*
X3548158Y-6270531D01*
X3548158Y-6270531D02*
X3557682Y-6289579D01*
X3557682Y-6289579D02*
X3567205Y-6327674D01*
X3567205Y-6327674D02*
X3567205Y-6375293D01*
X3567205Y-6375293D02*
X3557682Y-6413388D01*
X3557682Y-6413388D02*
X3548158Y-6432436D01*
X3548158Y-6432436D02*
X3538634Y-6441960D01*
X3538634Y-6441960D02*
X3519586Y-6451484D01*
X3519586Y-6451484D02*
X3500539Y-6451484D01*
X3500539Y-6451484D02*
X3481491Y-6441960D01*
X3481491Y-6441960D02*
X3471967Y-6432436D01*
X3471967Y-6432436D02*
X3462443Y-6413388D01*
X3462443Y-6413388D02*
X3452920Y-6375293D01*
X3452920Y-6375293D02*
X3452920Y-6327674D01*
X3452920Y-6327674D02*
X3462443Y-6289579D01*
X3462443Y-6289579D02*
X3471967Y-6270531D01*
X3471967Y-6270531D02*
X3481491Y-6261008D01*
X3481491Y-6261008D02*
X3500539Y-6251484D01*
X3652920Y-6451484D02*
X3652920Y-6318150D01*
X3652920Y-6337198D02*
X3662443Y-6327674D01*
X3662443Y-6327674D02*
X3681491Y-6318150D01*
X3681491Y-6318150D02*
X3710063Y-6318150D01*
X3710063Y-6318150D02*
X3729110Y-6327674D01*
X3729110Y-6327674D02*
X3738634Y-6346722D01*
X3738634Y-6346722D02*
X3738634Y-6451484D01*
X3738634Y-6346722D02*
X3748158Y-6327674D01*
X3748158Y-6327674D02*
X3767205Y-6318150D01*
X3767205Y-6318150D02*
X3795777Y-6318150D01*
X3795777Y-6318150D02*
X3814824Y-6327674D01*
X3814824Y-6327674D02*
X3824348Y-6346722D01*
X3824348Y-6346722D02*
X3824348Y-6451484D01*
X3919586Y-6451484D02*
X3919586Y-6318150D01*
X3919586Y-6337198D02*
X3929110Y-6327674D01*
X3929110Y-6327674D02*
X3948158Y-6318150D01*
X3948158Y-6318150D02*
X3976729Y-6318150D01*
X3976729Y-6318150D02*
X3995777Y-6327674D01*
X3995777Y-6327674D02*
X4005301Y-6346722D01*
X4005301Y-6346722D02*
X4005301Y-6451484D01*
X4005301Y-6346722D02*
X4014824Y-6327674D01*
X4014824Y-6327674D02*
X4033872Y-6318150D01*
X4033872Y-6318150D02*
X4062443Y-6318150D01*
X4062443Y-6318150D02*
X4081491Y-6327674D01*
X4081491Y-6327674D02*
X4091015Y-6346722D01*
X4091015Y-6346722D02*
X4091015Y-6451484D01*
X4481491Y-6241960D02*
X4310063Y-6499103D01*
X4738634Y-6251484D02*
X4757682Y-6251484D01*
X4757682Y-6251484D02*
X4776729Y-6261008D01*
X4776729Y-6261008D02*
X4786253Y-6270531D01*
X4786253Y-6270531D02*
X4795777Y-6289579D01*
X4795777Y-6289579D02*
X4805301Y-6327674D01*
X4805301Y-6327674D02*
X4805301Y-6375293D01*
X4805301Y-6375293D02*
X4795777Y-6413388D01*
X4795777Y-6413388D02*
X4786253Y-6432436D01*
X4786253Y-6432436D02*
X4776729Y-6441960D01*
X4776729Y-6441960D02*
X4757682Y-6451484D01*
X4757682Y-6451484D02*
X4738634Y-6451484D01*
X4738634Y-6451484D02*
X4719587Y-6441960D01*
X4719587Y-6441960D02*
X4710063Y-6432436D01*
X4710063Y-6432436D02*
X4700539Y-6413388D01*
X4700539Y-6413388D02*
X4691015Y-6375293D01*
X4691015Y-6375293D02*
X4691015Y-6327674D01*
X4691015Y-6327674D02*
X4700539Y-6289579D01*
X4700539Y-6289579D02*
X4710063Y-6270531D01*
X4710063Y-6270531D02*
X4719587Y-6261008D01*
X4719587Y-6261008D02*
X4738634Y-6251484D01*
X4891015Y-6432436D02*
X4900539Y-6441960D01*
X4900539Y-6441960D02*
X4891015Y-6451484D01*
X4891015Y-6451484D02*
X4881491Y-6441960D01*
X4881491Y-6441960D02*
X4891015Y-6432436D01*
X4891015Y-6432436D02*
X4891015Y-6451484D01*
X5091015Y-6451484D02*
X4976729Y-6451484D01*
X5033872Y-6451484D02*
X5033872Y-6251484D01*
X5033872Y-6251484D02*
X5014825Y-6280055D01*
X5014825Y-6280055D02*
X4995777Y-6299103D01*
X4995777Y-6299103D02*
X4976729Y-6308627D01*
X5167206Y-6270531D02*
X5176729Y-6261008D01*
X5176729Y-6261008D02*
X5195777Y-6251484D01*
X5195777Y-6251484D02*
X5243396Y-6251484D01*
X5243396Y-6251484D02*
X5262444Y-6261008D01*
X5262444Y-6261008D02*
X5271968Y-6270531D01*
X5271968Y-6270531D02*
X5281491Y-6289579D01*
X5281491Y-6289579D02*
X5281491Y-6308627D01*
X5281491Y-6308627D02*
X5271968Y-6337198D01*
X5271968Y-6337198D02*
X5157682Y-6451484D01*
X5157682Y-6451484D02*
X5281491Y-6451484D01*
X5452920Y-6251484D02*
X5414825Y-6251484D01*
X5414825Y-6251484D02*
X5395777Y-6261008D01*
X5395777Y-6261008D02*
X5386253Y-6270531D01*
X5386253Y-6270531D02*
X5367206Y-6299103D01*
X5367206Y-6299103D02*
X5357682Y-6337198D01*
X5357682Y-6337198D02*
X5357682Y-6413388D01*
X5357682Y-6413388D02*
X5367206Y-6432436D01*
X5367206Y-6432436D02*
X5376729Y-6441960D01*
X5376729Y-6441960D02*
X5395777Y-6451484D01*
X5395777Y-6451484D02*
X5433872Y-6451484D01*
X5433872Y-6451484D02*
X5452920Y-6441960D01*
X5452920Y-6441960D02*
X5462444Y-6432436D01*
X5462444Y-6432436D02*
X5471968Y-6413388D01*
X5471968Y-6413388D02*
X5471968Y-6365769D01*
X5471968Y-6365769D02*
X5462444Y-6346722D01*
X5462444Y-6346722D02*
X5452920Y-6337198D01*
X5452920Y-6337198D02*
X5433872Y-6327674D01*
X5433872Y-6327674D02*
X5395777Y-6327674D01*
X5395777Y-6327674D02*
X5376729Y-6337198D01*
X5376729Y-6337198D02*
X5367206Y-6346722D01*
X5367206Y-6346722D02*
X5357682Y-6365769D01*
X5595777Y-6251484D02*
X5614825Y-6251484D01*
X5614825Y-6251484D02*
X5633872Y-6261008D01*
X5633872Y-6261008D02*
X5643396Y-6270531D01*
X5643396Y-6270531D02*
X5652920Y-6289579D01*
X5652920Y-6289579D02*
X5662444Y-6327674D01*
X5662444Y-6327674D02*
X5662444Y-6375293D01*
X5662444Y-6375293D02*
X5652920Y-6413388D01*
X5652920Y-6413388D02*
X5643396Y-6432436D01*
X5643396Y-6432436D02*
X5633872Y-6441960D01*
X5633872Y-6441960D02*
X5614825Y-6451484D01*
X5614825Y-6451484D02*
X5595777Y-6451484D01*
X5595777Y-6451484D02*
X5576729Y-6441960D01*
X5576729Y-6441960D02*
X5567206Y-6432436D01*
X5567206Y-6432436D02*
X5557682Y-6413388D01*
X5557682Y-6413388D02*
X5548158Y-6375293D01*
X5548158Y-6375293D02*
X5548158Y-6327674D01*
X5548158Y-6327674D02*
X5557682Y-6289579D01*
X5557682Y-6289579D02*
X5567206Y-6270531D01*
X5567206Y-6270531D02*
X5576729Y-6261008D01*
X5576729Y-6261008D02*
X5595777Y-6251484D01*
X5738634Y-6251484D02*
X5738634Y-6289579D01*
X5814825Y-6251484D02*
X5814825Y-6289579D01*
X6110063Y-6527674D02*
X6100539Y-6518150D01*
X6100539Y-6518150D02*
X6081491Y-6489579D01*
X6081491Y-6489579D02*
X6071968Y-6470531D01*
X6071968Y-6470531D02*
X6062444Y-6441960D01*
X6062444Y-6441960D02*
X6052920Y-6394341D01*
X6052920Y-6394341D02*
X6052920Y-6356246D01*
X6052920Y-6356246D02*
X6062444Y-6308627D01*
X6062444Y-6308627D02*
X6071968Y-6280055D01*
X6071968Y-6280055D02*
X6081491Y-6261008D01*
X6081491Y-6261008D02*
X6100539Y-6232436D01*
X6100539Y-6232436D02*
X6110063Y-6222912D01*
X6176729Y-6270531D02*
X6186253Y-6261008D01*
X6186253Y-6261008D02*
X6205301Y-6251484D01*
X6205301Y-6251484D02*
X6252920Y-6251484D01*
X6252920Y-6251484D02*
X6271968Y-6261008D01*
X6271968Y-6261008D02*
X6281491Y-6270531D01*
X6281491Y-6270531D02*
X6291015Y-6289579D01*
X6291015Y-6289579D02*
X6291015Y-6308627D01*
X6291015Y-6308627D02*
X6281491Y-6337198D01*
X6281491Y-6337198D02*
X6167206Y-6451484D01*
X6167206Y-6451484D02*
X6291015Y-6451484D01*
X6529110Y-6451484D02*
X6529110Y-6251484D01*
X6614825Y-6451484D02*
X6614825Y-6346722D01*
X6614825Y-6346722D02*
X6605301Y-6327674D01*
X6605301Y-6327674D02*
X6586253Y-6318150D01*
X6586253Y-6318150D02*
X6557682Y-6318150D01*
X6557682Y-6318150D02*
X6538634Y-6327674D01*
X6538634Y-6327674D02*
X6529110Y-6337198D01*
X6738634Y-6451484D02*
X6719587Y-6441960D01*
X6719587Y-6441960D02*
X6710063Y-6432436D01*
X6710063Y-6432436D02*
X6700539Y-6413388D01*
X6700539Y-6413388D02*
X6700539Y-6356246D01*
X6700539Y-6356246D02*
X6710063Y-6337198D01*
X6710063Y-6337198D02*
X6719587Y-6327674D01*
X6719587Y-6327674D02*
X6738634Y-6318150D01*
X6738634Y-6318150D02*
X6767206Y-6318150D01*
X6767206Y-6318150D02*
X6786253Y-6327674D01*
X6786253Y-6327674D02*
X6795777Y-6337198D01*
X6795777Y-6337198D02*
X6805301Y-6356246D01*
X6805301Y-6356246D02*
X6805301Y-6413388D01*
X6805301Y-6413388D02*
X6795777Y-6432436D01*
X6795777Y-6432436D02*
X6786253Y-6441960D01*
X6786253Y-6441960D02*
X6767206Y-6451484D01*
X6767206Y-6451484D02*
X6738634Y-6451484D01*
X6919587Y-6451484D02*
X6900539Y-6441960D01*
X6900539Y-6441960D02*
X6891015Y-6422912D01*
X6891015Y-6422912D02*
X6891015Y-6251484D01*
X7071968Y-6441960D02*
X7052920Y-6451484D01*
X7052920Y-6451484D02*
X7014825Y-6451484D01*
X7014825Y-6451484D02*
X6995777Y-6441960D01*
X6995777Y-6441960D02*
X6986253Y-6422912D01*
X6986253Y-6422912D02*
X6986253Y-6346722D01*
X6986253Y-6346722D02*
X6995777Y-6327674D01*
X6995777Y-6327674D02*
X7014825Y-6318150D01*
X7014825Y-6318150D02*
X7052920Y-6318150D01*
X7052920Y-6318150D02*
X7071968Y-6327674D01*
X7071968Y-6327674D02*
X7081491Y-6346722D01*
X7081491Y-6346722D02*
X7081491Y-6365769D01*
X7081491Y-6365769D02*
X6986253Y-6384817D01*
X7157682Y-6441960D02*
X7176730Y-6451484D01*
X7176730Y-6451484D02*
X7214825Y-6451484D01*
X7214825Y-6451484D02*
X7233872Y-6441960D01*
X7233872Y-6441960D02*
X7243396Y-6422912D01*
X7243396Y-6422912D02*
X7243396Y-6413388D01*
X7243396Y-6413388D02*
X7233872Y-6394341D01*
X7233872Y-6394341D02*
X7214825Y-6384817D01*
X7214825Y-6384817D02*
X7186253Y-6384817D01*
X7186253Y-6384817D02*
X7167206Y-6375293D01*
X7167206Y-6375293D02*
X7157682Y-6356246D01*
X7157682Y-6356246D02*
X7157682Y-6346722D01*
X7157682Y-6346722D02*
X7167206Y-6327674D01*
X7167206Y-6327674D02*
X7186253Y-6318150D01*
X7186253Y-6318150D02*
X7214825Y-6318150D01*
X7214825Y-6318150D02*
X7233872Y-6327674D01*
X7310063Y-6527674D02*
X7319587Y-6518150D01*
X7319587Y-6518150D02*
X7338634Y-6489579D01*
X7338634Y-6489579D02*
X7348158Y-6470531D01*
X7348158Y-6470531D02*
X7357682Y-6441960D01*
X7357682Y-6441960D02*
X7367206Y-6394341D01*
X7367206Y-6394341D02*
X7367206Y-6356246D01*
X7367206Y-6356246D02*
X7357682Y-6308627D01*
X7357682Y-6308627D02*
X7348158Y-6280055D01*
X7348158Y-6280055D02*
X7338634Y-6261008D01*
X7338634Y-6261008D02*
X7319587Y-6232436D01*
X7319587Y-6232436D02*
X7310063Y-6222912D01*
X7671968Y-6527674D02*
X7662444Y-6518150D01*
X7662444Y-6518150D02*
X7643396Y-6489579D01*
X7643396Y-6489579D02*
X7633872Y-6470531D01*
X7633872Y-6470531D02*
X7624349Y-6441960D01*
X7624349Y-6441960D02*
X7614825Y-6394341D01*
X7614825Y-6394341D02*
X7614825Y-6356246D01*
X7614825Y-6356246D02*
X7624349Y-6308627D01*
X7624349Y-6308627D02*
X7633872Y-6280055D01*
X7633872Y-6280055D02*
X7643396Y-6261008D01*
X7643396Y-6261008D02*
X7662444Y-6232436D01*
X7662444Y-6232436D02*
X7671968Y-6222912D01*
X7748158Y-6318150D02*
X7748158Y-6451484D01*
X7748158Y-6337198D02*
X7757682Y-6327674D01*
X7757682Y-6327674D02*
X7776730Y-6318150D01*
X7776730Y-6318150D02*
X7805301Y-6318150D01*
X7805301Y-6318150D02*
X7824349Y-6327674D01*
X7824349Y-6327674D02*
X7833872Y-6346722D01*
X7833872Y-6346722D02*
X7833872Y-6451484D01*
X7957682Y-6451484D02*
X7938634Y-6441960D01*
X7938634Y-6441960D02*
X7929111Y-6432436D01*
X7929111Y-6432436D02*
X7919587Y-6413388D01*
X7919587Y-6413388D02*
X7919587Y-6356246D01*
X7919587Y-6356246D02*
X7929111Y-6337198D01*
X7929111Y-6337198D02*
X7938634Y-6327674D01*
X7938634Y-6327674D02*
X7957682Y-6318150D01*
X7957682Y-6318150D02*
X7986253Y-6318150D01*
X7986253Y-6318150D02*
X8005301Y-6327674D01*
X8005301Y-6327674D02*
X8014825Y-6337198D01*
X8014825Y-6337198D02*
X8024349Y-6356246D01*
X8024349Y-6356246D02*
X8024349Y-6413388D01*
X8024349Y-6413388D02*
X8014825Y-6432436D01*
X8014825Y-6432436D02*
X8005301Y-6441960D01*
X8005301Y-6441960D02*
X7986253Y-6451484D01*
X7986253Y-6451484D02*
X7957682Y-6451484D01*
X8081492Y-6318150D02*
X8157682Y-6318150D01*
X8110063Y-6251484D02*
X8110063Y-6422912D01*
X8110063Y-6422912D02*
X8119587Y-6441960D01*
X8119587Y-6441960D02*
X8138634Y-6451484D01*
X8138634Y-6451484D02*
X8157682Y-6451484D01*
X8376730Y-6318150D02*
X8376730Y-6518150D01*
X8376730Y-6327674D02*
X8395777Y-6318150D01*
X8395777Y-6318150D02*
X8433873Y-6318150D01*
X8433873Y-6318150D02*
X8452920Y-6327674D01*
X8452920Y-6327674D02*
X8462444Y-6337198D01*
X8462444Y-6337198D02*
X8471968Y-6356246D01*
X8471968Y-6356246D02*
X8471968Y-6413388D01*
X8471968Y-6413388D02*
X8462444Y-6432436D01*
X8462444Y-6432436D02*
X8452920Y-6441960D01*
X8452920Y-6441960D02*
X8433873Y-6451484D01*
X8433873Y-6451484D02*
X8395777Y-6451484D01*
X8395777Y-6451484D02*
X8376730Y-6441960D01*
X8586254Y-6451484D02*
X8567206Y-6441960D01*
X8567206Y-6441960D02*
X8557682Y-6422912D01*
X8557682Y-6422912D02*
X8557682Y-6251484D01*
X8748158Y-6451484D02*
X8748158Y-6346722D01*
X8748158Y-6346722D02*
X8738635Y-6327674D01*
X8738635Y-6327674D02*
X8719587Y-6318150D01*
X8719587Y-6318150D02*
X8681492Y-6318150D01*
X8681492Y-6318150D02*
X8662444Y-6327674D01*
X8748158Y-6441960D02*
X8729111Y-6451484D01*
X8729111Y-6451484D02*
X8681492Y-6451484D01*
X8681492Y-6451484D02*
X8662444Y-6441960D01*
X8662444Y-6441960D02*
X8652920Y-6422912D01*
X8652920Y-6422912D02*
X8652920Y-6403865D01*
X8652920Y-6403865D02*
X8662444Y-6384817D01*
X8662444Y-6384817D02*
X8681492Y-6375293D01*
X8681492Y-6375293D02*
X8729111Y-6375293D01*
X8729111Y-6375293D02*
X8748158Y-6365769D01*
X8814825Y-6318150D02*
X8891015Y-6318150D01*
X8843396Y-6251484D02*
X8843396Y-6422912D01*
X8843396Y-6422912D02*
X8852920Y-6441960D01*
X8852920Y-6441960D02*
X8871968Y-6451484D01*
X8871968Y-6451484D02*
X8891015Y-6451484D01*
X9033873Y-6441960D02*
X9014825Y-6451484D01*
X9014825Y-6451484D02*
X8976730Y-6451484D01*
X8976730Y-6451484D02*
X8957682Y-6441960D01*
X8957682Y-6441960D02*
X8948158Y-6422912D01*
X8948158Y-6422912D02*
X8948158Y-6346722D01*
X8948158Y-6346722D02*
X8957682Y-6327674D01*
X8957682Y-6327674D02*
X8976730Y-6318150D01*
X8976730Y-6318150D02*
X9014825Y-6318150D01*
X9014825Y-6318150D02*
X9033873Y-6327674D01*
X9033873Y-6327674D02*
X9043396Y-6346722D01*
X9043396Y-6346722D02*
X9043396Y-6365769D01*
X9043396Y-6365769D02*
X8948158Y-6384817D01*
X9214825Y-6451484D02*
X9214825Y-6251484D01*
X9214825Y-6441960D02*
X9195777Y-6451484D01*
X9195777Y-6451484D02*
X9157682Y-6451484D01*
X9157682Y-6451484D02*
X9138635Y-6441960D01*
X9138635Y-6441960D02*
X9129111Y-6432436D01*
X9129111Y-6432436D02*
X9119587Y-6413388D01*
X9119587Y-6413388D02*
X9119587Y-6356246D01*
X9119587Y-6356246D02*
X9129111Y-6337198D01*
X9129111Y-6337198D02*
X9138635Y-6327674D01*
X9138635Y-6327674D02*
X9157682Y-6318150D01*
X9157682Y-6318150D02*
X9195777Y-6318150D01*
X9195777Y-6318150D02*
X9214825Y-6327674D01*
X9291016Y-6527674D02*
X9300539Y-6518150D01*
X9300539Y-6518150D02*
X9319587Y-6489579D01*
X9319587Y-6489579D02*
X9329111Y-6470531D01*
X9329111Y-6470531D02*
X9338635Y-6441960D01*
X9338635Y-6441960D02*
X9348158Y-6394341D01*
X9348158Y-6394341D02*
X9348158Y-6356246D01*
X9348158Y-6356246D02*
X9338635Y-6308627D01*
X9338635Y-6308627D02*
X9329111Y-6280055D01*
X9329111Y-6280055D02*
X9319587Y-6261008D01*
X9319587Y-6261008D02*
X9300539Y-6232436D01*
X9300539Y-6232436D02*
X9291016Y-6222912D01*
X2535000Y-6680000D02*
G75*
G03*
X2535000Y-6680000I-100000J0D01*
G01*
X2776729Y-6571484D02*
X2900539Y-6571484D01*
X2900539Y-6571484D02*
X2833872Y-6647674D01*
X2833872Y-6647674D02*
X2862443Y-6647674D01*
X2862443Y-6647674D02*
X2881491Y-6657198D01*
X2881491Y-6657198D02*
X2891015Y-6666722D01*
X2891015Y-6666722D02*
X2900539Y-6685769D01*
X2900539Y-6685769D02*
X2900539Y-6733388D01*
X2900539Y-6733388D02*
X2891015Y-6752436D01*
X2891015Y-6752436D02*
X2881491Y-6761960D01*
X2881491Y-6761960D02*
X2862443Y-6771484D01*
X2862443Y-6771484D02*
X2805301Y-6771484D01*
X2805301Y-6771484D02*
X2786253Y-6761960D01*
X2786253Y-6761960D02*
X2776729Y-6752436D01*
X2986253Y-6752436D02*
X2995777Y-6761960D01*
X2995777Y-6761960D02*
X2986253Y-6771484D01*
X2986253Y-6771484D02*
X2976729Y-6761960D01*
X2976729Y-6761960D02*
X2986253Y-6752436D01*
X2986253Y-6752436D02*
X2986253Y-6771484D01*
X3071967Y-6590531D02*
X3081491Y-6581008D01*
X3081491Y-6581008D02*
X3100539Y-6571484D01*
X3100539Y-6571484D02*
X3148158Y-6571484D01*
X3148158Y-6571484D02*
X3167205Y-6581008D01*
X3167205Y-6581008D02*
X3176729Y-6590531D01*
X3176729Y-6590531D02*
X3186253Y-6609579D01*
X3186253Y-6609579D02*
X3186253Y-6628627D01*
X3186253Y-6628627D02*
X3176729Y-6657198D01*
X3176729Y-6657198D02*
X3062443Y-6771484D01*
X3062443Y-6771484D02*
X3186253Y-6771484D01*
X3310062Y-6571484D02*
X3329110Y-6571484D01*
X3329110Y-6571484D02*
X3348158Y-6581008D01*
X3348158Y-6581008D02*
X3357682Y-6590531D01*
X3357682Y-6590531D02*
X3367205Y-6609579D01*
X3367205Y-6609579D02*
X3376729Y-6647674D01*
X3376729Y-6647674D02*
X3376729Y-6695293D01*
X3376729Y-6695293D02*
X3367205Y-6733388D01*
X3367205Y-6733388D02*
X3357682Y-6752436D01*
X3357682Y-6752436D02*
X3348158Y-6761960D01*
X3348158Y-6761960D02*
X3329110Y-6771484D01*
X3329110Y-6771484D02*
X3310062Y-6771484D01*
X3310062Y-6771484D02*
X3291015Y-6761960D01*
X3291015Y-6761960D02*
X3281491Y-6752436D01*
X3281491Y-6752436D02*
X3271967Y-6733388D01*
X3271967Y-6733388D02*
X3262443Y-6695293D01*
X3262443Y-6695293D02*
X3262443Y-6647674D01*
X3262443Y-6647674D02*
X3271967Y-6609579D01*
X3271967Y-6609579D02*
X3281491Y-6590531D01*
X3281491Y-6590531D02*
X3291015Y-6581008D01*
X3291015Y-6581008D02*
X3310062Y-6571484D01*
X3500539Y-6571484D02*
X3519586Y-6571484D01*
X3519586Y-6571484D02*
X3538634Y-6581008D01*
X3538634Y-6581008D02*
X3548158Y-6590531D01*
X3548158Y-6590531D02*
X3557682Y-6609579D01*
X3557682Y-6609579D02*
X3567205Y-6647674D01*
X3567205Y-6647674D02*
X3567205Y-6695293D01*
X3567205Y-6695293D02*
X3557682Y-6733388D01*
X3557682Y-6733388D02*
X3548158Y-6752436D01*
X3548158Y-6752436D02*
X3538634Y-6761960D01*
X3538634Y-6761960D02*
X3519586Y-6771484D01*
X3519586Y-6771484D02*
X3500539Y-6771484D01*
X3500539Y-6771484D02*
X3481491Y-6761960D01*
X3481491Y-6761960D02*
X3471967Y-6752436D01*
X3471967Y-6752436D02*
X3462443Y-6733388D01*
X3462443Y-6733388D02*
X3452920Y-6695293D01*
X3452920Y-6695293D02*
X3452920Y-6647674D01*
X3452920Y-6647674D02*
X3462443Y-6609579D01*
X3462443Y-6609579D02*
X3471967Y-6590531D01*
X3471967Y-6590531D02*
X3481491Y-6581008D01*
X3481491Y-6581008D02*
X3500539Y-6571484D01*
X3652920Y-6771484D02*
X3652920Y-6638150D01*
X3652920Y-6657198D02*
X3662443Y-6647674D01*
X3662443Y-6647674D02*
X3681491Y-6638150D01*
X3681491Y-6638150D02*
X3710063Y-6638150D01*
X3710063Y-6638150D02*
X3729110Y-6647674D01*
X3729110Y-6647674D02*
X3738634Y-6666722D01*
X3738634Y-6666722D02*
X3738634Y-6771484D01*
X3738634Y-6666722D02*
X3748158Y-6647674D01*
X3748158Y-6647674D02*
X3767205Y-6638150D01*
X3767205Y-6638150D02*
X3795777Y-6638150D01*
X3795777Y-6638150D02*
X3814824Y-6647674D01*
X3814824Y-6647674D02*
X3824348Y-6666722D01*
X3824348Y-6666722D02*
X3824348Y-6771484D01*
X3919586Y-6771484D02*
X3919586Y-6638150D01*
X3919586Y-6657198D02*
X3929110Y-6647674D01*
X3929110Y-6647674D02*
X3948158Y-6638150D01*
X3948158Y-6638150D02*
X3976729Y-6638150D01*
X3976729Y-6638150D02*
X3995777Y-6647674D01*
X3995777Y-6647674D02*
X4005301Y-6666722D01*
X4005301Y-6666722D02*
X4005301Y-6771484D01*
X4005301Y-6666722D02*
X4014824Y-6647674D01*
X4014824Y-6647674D02*
X4033872Y-6638150D01*
X4033872Y-6638150D02*
X4062443Y-6638150D01*
X4062443Y-6638150D02*
X4081491Y-6647674D01*
X4081491Y-6647674D02*
X4091015Y-6666722D01*
X4091015Y-6666722D02*
X4091015Y-6771484D01*
X4481491Y-6561960D02*
X4310063Y-6819103D01*
X4738634Y-6571484D02*
X4757682Y-6571484D01*
X4757682Y-6571484D02*
X4776729Y-6581008D01*
X4776729Y-6581008D02*
X4786253Y-6590531D01*
X4786253Y-6590531D02*
X4795777Y-6609579D01*
X4795777Y-6609579D02*
X4805301Y-6647674D01*
X4805301Y-6647674D02*
X4805301Y-6695293D01*
X4805301Y-6695293D02*
X4795777Y-6733388D01*
X4795777Y-6733388D02*
X4786253Y-6752436D01*
X4786253Y-6752436D02*
X4776729Y-6761960D01*
X4776729Y-6761960D02*
X4757682Y-6771484D01*
X4757682Y-6771484D02*
X4738634Y-6771484D01*
X4738634Y-6771484D02*
X4719587Y-6761960D01*
X4719587Y-6761960D02*
X4710063Y-6752436D01*
X4710063Y-6752436D02*
X4700539Y-6733388D01*
X4700539Y-6733388D02*
X4691015Y-6695293D01*
X4691015Y-6695293D02*
X4691015Y-6647674D01*
X4691015Y-6647674D02*
X4700539Y-6609579D01*
X4700539Y-6609579D02*
X4710063Y-6590531D01*
X4710063Y-6590531D02*
X4719587Y-6581008D01*
X4719587Y-6581008D02*
X4738634Y-6571484D01*
X4891015Y-6752436D02*
X4900539Y-6761960D01*
X4900539Y-6761960D02*
X4891015Y-6771484D01*
X4891015Y-6771484D02*
X4881491Y-6761960D01*
X4881491Y-6761960D02*
X4891015Y-6752436D01*
X4891015Y-6752436D02*
X4891015Y-6771484D01*
X5091015Y-6771484D02*
X4976729Y-6771484D01*
X5033872Y-6771484D02*
X5033872Y-6571484D01*
X5033872Y-6571484D02*
X5014825Y-6600055D01*
X5014825Y-6600055D02*
X4995777Y-6619103D01*
X4995777Y-6619103D02*
X4976729Y-6628627D01*
X5167206Y-6590531D02*
X5176729Y-6581008D01*
X5176729Y-6581008D02*
X5195777Y-6571484D01*
X5195777Y-6571484D02*
X5243396Y-6571484D01*
X5243396Y-6571484D02*
X5262444Y-6581008D01*
X5262444Y-6581008D02*
X5271968Y-6590531D01*
X5271968Y-6590531D02*
X5281491Y-6609579D01*
X5281491Y-6609579D02*
X5281491Y-6628627D01*
X5281491Y-6628627D02*
X5271968Y-6657198D01*
X5271968Y-6657198D02*
X5157682Y-6771484D01*
X5157682Y-6771484D02*
X5281491Y-6771484D01*
X5452920Y-6571484D02*
X5414825Y-6571484D01*
X5414825Y-6571484D02*
X5395777Y-6581008D01*
X5395777Y-6581008D02*
X5386253Y-6590531D01*
X5386253Y-6590531D02*
X5367206Y-6619103D01*
X5367206Y-6619103D02*
X5357682Y-6657198D01*
X5357682Y-6657198D02*
X5357682Y-6733388D01*
X5357682Y-6733388D02*
X5367206Y-6752436D01*
X5367206Y-6752436D02*
X5376729Y-6761960D01*
X5376729Y-6761960D02*
X5395777Y-6771484D01*
X5395777Y-6771484D02*
X5433872Y-6771484D01*
X5433872Y-6771484D02*
X5452920Y-6761960D01*
X5452920Y-6761960D02*
X5462444Y-6752436D01*
X5462444Y-6752436D02*
X5471968Y-6733388D01*
X5471968Y-6733388D02*
X5471968Y-6685769D01*
X5471968Y-6685769D02*
X5462444Y-6666722D01*
X5462444Y-6666722D02*
X5452920Y-6657198D01*
X5452920Y-6657198D02*
X5433872Y-6647674D01*
X5433872Y-6647674D02*
X5395777Y-6647674D01*
X5395777Y-6647674D02*
X5376729Y-6657198D01*
X5376729Y-6657198D02*
X5367206Y-6666722D01*
X5367206Y-6666722D02*
X5357682Y-6685769D01*
X5595777Y-6571484D02*
X5614825Y-6571484D01*
X5614825Y-6571484D02*
X5633872Y-6581008D01*
X5633872Y-6581008D02*
X5643396Y-6590531D01*
X5643396Y-6590531D02*
X5652920Y-6609579D01*
X5652920Y-6609579D02*
X5662444Y-6647674D01*
X5662444Y-6647674D02*
X5662444Y-6695293D01*
X5662444Y-6695293D02*
X5652920Y-6733388D01*
X5652920Y-6733388D02*
X5643396Y-6752436D01*
X5643396Y-6752436D02*
X5633872Y-6761960D01*
X5633872Y-6761960D02*
X5614825Y-6771484D01*
X5614825Y-6771484D02*
X5595777Y-6771484D01*
X5595777Y-6771484D02*
X5576729Y-6761960D01*
X5576729Y-6761960D02*
X5567206Y-6752436D01*
X5567206Y-6752436D02*
X5557682Y-6733388D01*
X5557682Y-6733388D02*
X5548158Y-6695293D01*
X5548158Y-6695293D02*
X5548158Y-6647674D01*
X5548158Y-6647674D02*
X5557682Y-6609579D01*
X5557682Y-6609579D02*
X5567206Y-6590531D01*
X5567206Y-6590531D02*
X5576729Y-6581008D01*
X5576729Y-6581008D02*
X5595777Y-6571484D01*
X5738634Y-6571484D02*
X5738634Y-6609579D01*
X5814825Y-6571484D02*
X5814825Y-6609579D01*
X6110063Y-6847674D02*
X6100539Y-6838150D01*
X6100539Y-6838150D02*
X6081491Y-6809579D01*
X6081491Y-6809579D02*
X6071968Y-6790531D01*
X6071968Y-6790531D02*
X6062444Y-6761960D01*
X6062444Y-6761960D02*
X6052920Y-6714341D01*
X6052920Y-6714341D02*
X6052920Y-6676246D01*
X6052920Y-6676246D02*
X6062444Y-6628627D01*
X6062444Y-6628627D02*
X6071968Y-6600055D01*
X6071968Y-6600055D02*
X6081491Y-6581008D01*
X6081491Y-6581008D02*
X6100539Y-6552436D01*
X6100539Y-6552436D02*
X6110063Y-6542912D01*
X6176729Y-6590531D02*
X6186253Y-6581008D01*
X6186253Y-6581008D02*
X6205301Y-6571484D01*
X6205301Y-6571484D02*
X6252920Y-6571484D01*
X6252920Y-6571484D02*
X6271968Y-6581008D01*
X6271968Y-6581008D02*
X6281491Y-6590531D01*
X6281491Y-6590531D02*
X6291015Y-6609579D01*
X6291015Y-6609579D02*
X6291015Y-6628627D01*
X6291015Y-6628627D02*
X6281491Y-6657198D01*
X6281491Y-6657198D02*
X6167206Y-6771484D01*
X6167206Y-6771484D02*
X6291015Y-6771484D01*
X6529110Y-6771484D02*
X6529110Y-6571484D01*
X6614825Y-6771484D02*
X6614825Y-6666722D01*
X6614825Y-6666722D02*
X6605301Y-6647674D01*
X6605301Y-6647674D02*
X6586253Y-6638150D01*
X6586253Y-6638150D02*
X6557682Y-6638150D01*
X6557682Y-6638150D02*
X6538634Y-6647674D01*
X6538634Y-6647674D02*
X6529110Y-6657198D01*
X6738634Y-6771484D02*
X6719587Y-6761960D01*
X6719587Y-6761960D02*
X6710063Y-6752436D01*
X6710063Y-6752436D02*
X6700539Y-6733388D01*
X6700539Y-6733388D02*
X6700539Y-6676246D01*
X6700539Y-6676246D02*
X6710063Y-6657198D01*
X6710063Y-6657198D02*
X6719587Y-6647674D01*
X6719587Y-6647674D02*
X6738634Y-6638150D01*
X6738634Y-6638150D02*
X6767206Y-6638150D01*
X6767206Y-6638150D02*
X6786253Y-6647674D01*
X6786253Y-6647674D02*
X6795777Y-6657198D01*
X6795777Y-6657198D02*
X6805301Y-6676246D01*
X6805301Y-6676246D02*
X6805301Y-6733388D01*
X6805301Y-6733388D02*
X6795777Y-6752436D01*
X6795777Y-6752436D02*
X6786253Y-6761960D01*
X6786253Y-6761960D02*
X6767206Y-6771484D01*
X6767206Y-6771484D02*
X6738634Y-6771484D01*
X6919587Y-6771484D02*
X6900539Y-6761960D01*
X6900539Y-6761960D02*
X6891015Y-6742912D01*
X6891015Y-6742912D02*
X6891015Y-6571484D01*
X7071968Y-6761960D02*
X7052920Y-6771484D01*
X7052920Y-6771484D02*
X7014825Y-6771484D01*
X7014825Y-6771484D02*
X6995777Y-6761960D01*
X6995777Y-6761960D02*
X6986253Y-6742912D01*
X6986253Y-6742912D02*
X6986253Y-6666722D01*
X6986253Y-6666722D02*
X6995777Y-6647674D01*
X6995777Y-6647674D02*
X7014825Y-6638150D01*
X7014825Y-6638150D02*
X7052920Y-6638150D01*
X7052920Y-6638150D02*
X7071968Y-6647674D01*
X7071968Y-6647674D02*
X7081491Y-6666722D01*
X7081491Y-6666722D02*
X7081491Y-6685769D01*
X7081491Y-6685769D02*
X6986253Y-6704817D01*
X7157682Y-6761960D02*
X7176730Y-6771484D01*
X7176730Y-6771484D02*
X7214825Y-6771484D01*
X7214825Y-6771484D02*
X7233872Y-6761960D01*
X7233872Y-6761960D02*
X7243396Y-6742912D01*
X7243396Y-6742912D02*
X7243396Y-6733388D01*
X7243396Y-6733388D02*
X7233872Y-6714341D01*
X7233872Y-6714341D02*
X7214825Y-6704817D01*
X7214825Y-6704817D02*
X7186253Y-6704817D01*
X7186253Y-6704817D02*
X7167206Y-6695293D01*
X7167206Y-6695293D02*
X7157682Y-6676246D01*
X7157682Y-6676246D02*
X7157682Y-6666722D01*
X7157682Y-6666722D02*
X7167206Y-6647674D01*
X7167206Y-6647674D02*
X7186253Y-6638150D01*
X7186253Y-6638150D02*
X7214825Y-6638150D01*
X7214825Y-6638150D02*
X7233872Y-6647674D01*
X7310063Y-6847674D02*
X7319587Y-6838150D01*
X7319587Y-6838150D02*
X7338634Y-6809579D01*
X7338634Y-6809579D02*
X7348158Y-6790531D01*
X7348158Y-6790531D02*
X7357682Y-6761960D01*
X7357682Y-6761960D02*
X7367206Y-6714341D01*
X7367206Y-6714341D02*
X7367206Y-6676246D01*
X7367206Y-6676246D02*
X7357682Y-6628627D01*
X7357682Y-6628627D02*
X7348158Y-6600055D01*
X7348158Y-6600055D02*
X7338634Y-6581008D01*
X7338634Y-6581008D02*
X7319587Y-6552436D01*
X7319587Y-6552436D02*
X7310063Y-6542912D01*
X7671968Y-6847674D02*
X7662444Y-6838150D01*
X7662444Y-6838150D02*
X7643396Y-6809579D01*
X7643396Y-6809579D02*
X7633872Y-6790531D01*
X7633872Y-6790531D02*
X7624349Y-6761960D01*
X7624349Y-6761960D02*
X7614825Y-6714341D01*
X7614825Y-6714341D02*
X7614825Y-6676246D01*
X7614825Y-6676246D02*
X7624349Y-6628627D01*
X7624349Y-6628627D02*
X7633872Y-6600055D01*
X7633872Y-6600055D02*
X7643396Y-6581008D01*
X7643396Y-6581008D02*
X7662444Y-6552436D01*
X7662444Y-6552436D02*
X7671968Y-6542912D01*
X7748158Y-6638150D02*
X7748158Y-6771484D01*
X7748158Y-6657198D02*
X7757682Y-6647674D01*
X7757682Y-6647674D02*
X7776730Y-6638150D01*
X7776730Y-6638150D02*
X7805301Y-6638150D01*
X7805301Y-6638150D02*
X7824349Y-6647674D01*
X7824349Y-6647674D02*
X7833872Y-6666722D01*
X7833872Y-6666722D02*
X7833872Y-6771484D01*
X7957682Y-6771484D02*
X7938634Y-6761960D01*
X7938634Y-6761960D02*
X7929111Y-6752436D01*
X7929111Y-6752436D02*
X7919587Y-6733388D01*
X7919587Y-6733388D02*
X7919587Y-6676246D01*
X7919587Y-6676246D02*
X7929111Y-6657198D01*
X7929111Y-6657198D02*
X7938634Y-6647674D01*
X7938634Y-6647674D02*
X7957682Y-6638150D01*
X7957682Y-6638150D02*
X7986253Y-6638150D01*
X7986253Y-6638150D02*
X8005301Y-6647674D01*
X8005301Y-6647674D02*
X8014825Y-6657198D01*
X8014825Y-6657198D02*
X8024349Y-6676246D01*
X8024349Y-6676246D02*
X8024349Y-6733388D01*
X8024349Y-6733388D02*
X8014825Y-6752436D01*
X8014825Y-6752436D02*
X8005301Y-6761960D01*
X8005301Y-6761960D02*
X7986253Y-6771484D01*
X7986253Y-6771484D02*
X7957682Y-6771484D01*
X8081492Y-6638150D02*
X8157682Y-6638150D01*
X8110063Y-6571484D02*
X8110063Y-6742912D01*
X8110063Y-6742912D02*
X8119587Y-6761960D01*
X8119587Y-6761960D02*
X8138634Y-6771484D01*
X8138634Y-6771484D02*
X8157682Y-6771484D01*
X8376730Y-6638150D02*
X8376730Y-6838150D01*
X8376730Y-6647674D02*
X8395777Y-6638150D01*
X8395777Y-6638150D02*
X8433873Y-6638150D01*
X8433873Y-6638150D02*
X8452920Y-6647674D01*
X8452920Y-6647674D02*
X8462444Y-6657198D01*
X8462444Y-6657198D02*
X8471968Y-6676246D01*
X8471968Y-6676246D02*
X8471968Y-6733388D01*
X8471968Y-6733388D02*
X8462444Y-6752436D01*
X8462444Y-6752436D02*
X8452920Y-6761960D01*
X8452920Y-6761960D02*
X8433873Y-6771484D01*
X8433873Y-6771484D02*
X8395777Y-6771484D01*
X8395777Y-6771484D02*
X8376730Y-6761960D01*
X8586254Y-6771484D02*
X8567206Y-6761960D01*
X8567206Y-6761960D02*
X8557682Y-6742912D01*
X8557682Y-6742912D02*
X8557682Y-6571484D01*
X8748158Y-6771484D02*
X8748158Y-6666722D01*
X8748158Y-6666722D02*
X8738635Y-6647674D01*
X8738635Y-6647674D02*
X8719587Y-6638150D01*
X8719587Y-6638150D02*
X8681492Y-6638150D01*
X8681492Y-6638150D02*
X8662444Y-6647674D01*
X8748158Y-6761960D02*
X8729111Y-6771484D01*
X8729111Y-6771484D02*
X8681492Y-6771484D01*
X8681492Y-6771484D02*
X8662444Y-6761960D01*
X8662444Y-6761960D02*
X8652920Y-6742912D01*
X8652920Y-6742912D02*
X8652920Y-6723865D01*
X8652920Y-6723865D02*
X8662444Y-6704817D01*
X8662444Y-6704817D02*
X8681492Y-6695293D01*
X8681492Y-6695293D02*
X8729111Y-6695293D01*
X8729111Y-6695293D02*
X8748158Y-6685769D01*
X8814825Y-6638150D02*
X8891015Y-6638150D01*
X8843396Y-6571484D02*
X8843396Y-6742912D01*
X8843396Y-6742912D02*
X8852920Y-6761960D01*
X8852920Y-6761960D02*
X8871968Y-6771484D01*
X8871968Y-6771484D02*
X8891015Y-6771484D01*
X9033873Y-6761960D02*
X9014825Y-6771484D01*
X9014825Y-6771484D02*
X8976730Y-6771484D01*
X8976730Y-6771484D02*
X8957682Y-6761960D01*
X8957682Y-6761960D02*
X8948158Y-6742912D01*
X8948158Y-6742912D02*
X8948158Y-6666722D01*
X8948158Y-6666722D02*
X8957682Y-6647674D01*
X8957682Y-6647674D02*
X8976730Y-6638150D01*
X8976730Y-6638150D02*
X9014825Y-6638150D01*
X9014825Y-6638150D02*
X9033873Y-6647674D01*
X9033873Y-6647674D02*
X9043396Y-6666722D01*
X9043396Y-6666722D02*
X9043396Y-6685769D01*
X9043396Y-6685769D02*
X8948158Y-6704817D01*
X9214825Y-6771484D02*
X9214825Y-6571484D01*
X9214825Y-6761960D02*
X9195777Y-6771484D01*
X9195777Y-6771484D02*
X9157682Y-6771484D01*
X9157682Y-6771484D02*
X9138635Y-6761960D01*
X9138635Y-6761960D02*
X9129111Y-6752436D01*
X9129111Y-6752436D02*
X9119587Y-6733388D01*
X9119587Y-6733388D02*
X9119587Y-6676246D01*
X9119587Y-6676246D02*
X9129111Y-6657198D01*
X9129111Y-6657198D02*
X9138635Y-6647674D01*
X9138635Y-6647674D02*
X9157682Y-6638150D01*
X9157682Y-6638150D02*
X9195777Y-6638150D01*
X9195777Y-6638150D02*
X9214825Y-6647674D01*
X9291016Y-6847674D02*
X9300539Y-6838150D01*
X9300539Y-6838150D02*
X9319587Y-6809579D01*
X9319587Y-6809579D02*
X9329111Y-6790531D01*
X9329111Y-6790531D02*
X9338635Y-6761960D01*
X9338635Y-6761960D02*
X9348158Y-6714341D01*
X9348158Y-6714341D02*
X9348158Y-6676246D01*
X9348158Y-6676246D02*
X9338635Y-6628627D01*
X9338635Y-6628627D02*
X9329111Y-6600055D01*
X9329111Y-6600055D02*
X9319587Y-6581008D01*
X9319587Y-6581008D02*
X9300539Y-6552436D01*
X9300539Y-6552436D02*
X9291016Y-6542912D01*
M02*
