%TF.GenerationSoftware,KiCad,Pcbnew,8.0.6*%
%TF.CreationDate,2024-11-26T19:15:19-08:00*%
%TF.ProjectId,Constellation STAR UAF V1.0,436f6e73-7465-46c6-9c61-74696f6e2053,rev?*%
%TF.SameCoordinates,Original*%
%TF.FileFunction,Drillmap*%
%TF.FilePolarity,Positive*%
%FSLAX45Y45*%
G04 Gerber Fmt 4.5, Leading zero omitted, Abs format (unit mm)*
G04 Created by KiCad (PCBNEW 8.0.6) date 2024-11-26 19:15:19*
%MOMM*%
%LPD*%
G01*
G04 APERTURE LIST*
%ADD10C,0.100000*%
%ADD11C,0.200000*%
%ADD12C,0.320000*%
G04 APERTURE END LIST*
D10*
X2540000Y-8509000D02*
X2540000Y-2921000D01*
X2921000Y-8890000D02*
G75*
G02*
X2540000Y-8509000I0J381000D01*
G01*
X8255000Y-8509000D02*
G75*
G02*
X7874000Y-8890000I-381000J0D01*
G01*
X2540000Y-2921000D02*
G75*
G02*
X2921000Y-2540000I381000J0D01*
G01*
X7874000Y-8890000D02*
X2921000Y-8890000D01*
X8255000Y-2921000D02*
X8255000Y-8509000D01*
X7874000Y-2540000D02*
G75*
G02*
X8255000Y-2921000I0J-381000D01*
G01*
X2921000Y-2540000D02*
X7874000Y-2540000D01*
D11*
D12*
X2761000Y-8349000D02*
X3081000Y-8669000D01*
X3081000Y-8349000D02*
X2761000Y-8669000D01*
X5237500Y-2761000D02*
X5557500Y-3081000D01*
X5557500Y-2761000D02*
X5237500Y-3081000D01*
X7714000Y-8349000D02*
X8034000Y-8669000D01*
X8034000Y-8349000D02*
X7714000Y-8669000D01*
D11*
X2795777Y-9206484D02*
X2795777Y-9006484D01*
X2795777Y-9006484D02*
X2843396Y-9006484D01*
X2843396Y-9006484D02*
X2871967Y-9016008D01*
X2871967Y-9016008D02*
X2891015Y-9035055D01*
X2891015Y-9035055D02*
X2900539Y-9054103D01*
X2900539Y-9054103D02*
X2910062Y-9092198D01*
X2910062Y-9092198D02*
X2910062Y-9120770D01*
X2910062Y-9120770D02*
X2900539Y-9158865D01*
X2900539Y-9158865D02*
X2891015Y-9177912D01*
X2891015Y-9177912D02*
X2871967Y-9196960D01*
X2871967Y-9196960D02*
X2843396Y-9206484D01*
X2843396Y-9206484D02*
X2795777Y-9206484D01*
X2995777Y-9206484D02*
X2995777Y-9073150D01*
X2995777Y-9111246D02*
X3005301Y-9092198D01*
X3005301Y-9092198D02*
X3014824Y-9082674D01*
X3014824Y-9082674D02*
X3033872Y-9073150D01*
X3033872Y-9073150D02*
X3052920Y-9073150D01*
X3119586Y-9206484D02*
X3119586Y-9073150D01*
X3119586Y-9006484D02*
X3110062Y-9016008D01*
X3110062Y-9016008D02*
X3119586Y-9025531D01*
X3119586Y-9025531D02*
X3129110Y-9016008D01*
X3129110Y-9016008D02*
X3119586Y-9006484D01*
X3119586Y-9006484D02*
X3119586Y-9025531D01*
X3243396Y-9206484D02*
X3224348Y-9196960D01*
X3224348Y-9196960D02*
X3214824Y-9177912D01*
X3214824Y-9177912D02*
X3214824Y-9006484D01*
X3348158Y-9206484D02*
X3329110Y-9196960D01*
X3329110Y-9196960D02*
X3319586Y-9177912D01*
X3319586Y-9177912D02*
X3319586Y-9006484D01*
X3576729Y-9206484D02*
X3576729Y-9006484D01*
X3576729Y-9006484D02*
X3643396Y-9149341D01*
X3643396Y-9149341D02*
X3710062Y-9006484D01*
X3710062Y-9006484D02*
X3710062Y-9206484D01*
X3891015Y-9206484D02*
X3891015Y-9101722D01*
X3891015Y-9101722D02*
X3881491Y-9082674D01*
X3881491Y-9082674D02*
X3862443Y-9073150D01*
X3862443Y-9073150D02*
X3824348Y-9073150D01*
X3824348Y-9073150D02*
X3805301Y-9082674D01*
X3891015Y-9196960D02*
X3871967Y-9206484D01*
X3871967Y-9206484D02*
X3824348Y-9206484D01*
X3824348Y-9206484D02*
X3805301Y-9196960D01*
X3805301Y-9196960D02*
X3795777Y-9177912D01*
X3795777Y-9177912D02*
X3795777Y-9158865D01*
X3795777Y-9158865D02*
X3805301Y-9139817D01*
X3805301Y-9139817D02*
X3824348Y-9130293D01*
X3824348Y-9130293D02*
X3871967Y-9130293D01*
X3871967Y-9130293D02*
X3891015Y-9120770D01*
X3986253Y-9073150D02*
X3986253Y-9273150D01*
X3986253Y-9082674D02*
X4005301Y-9073150D01*
X4005301Y-9073150D02*
X4043396Y-9073150D01*
X4043396Y-9073150D02*
X4062443Y-9082674D01*
X4062443Y-9082674D02*
X4071967Y-9092198D01*
X4071967Y-9092198D02*
X4081491Y-9111246D01*
X4081491Y-9111246D02*
X4081491Y-9168389D01*
X4081491Y-9168389D02*
X4071967Y-9187436D01*
X4071967Y-9187436D02*
X4062443Y-9196960D01*
X4062443Y-9196960D02*
X4043396Y-9206484D01*
X4043396Y-9206484D02*
X4005301Y-9206484D01*
X4005301Y-9206484D02*
X3986253Y-9196960D01*
X4167205Y-9187436D02*
X4176729Y-9196960D01*
X4176729Y-9196960D02*
X4167205Y-9206484D01*
X4167205Y-9206484D02*
X4157682Y-9196960D01*
X4157682Y-9196960D02*
X4167205Y-9187436D01*
X4167205Y-9187436D02*
X4167205Y-9206484D01*
X4167205Y-9082674D02*
X4176729Y-9092198D01*
X4176729Y-9092198D02*
X4167205Y-9101722D01*
X4167205Y-9101722D02*
X4157682Y-9092198D01*
X4157682Y-9092198D02*
X4167205Y-9082674D01*
X4167205Y-9082674D02*
X4167205Y-9101722D01*
X2335000Y-9435000D02*
X2535000Y-9635000D01*
X2535000Y-9435000D02*
X2335000Y-9635000D01*
X2776729Y-9426484D02*
X2900539Y-9426484D01*
X2900539Y-9426484D02*
X2833872Y-9502674D01*
X2833872Y-9502674D02*
X2862443Y-9502674D01*
X2862443Y-9502674D02*
X2881491Y-9512198D01*
X2881491Y-9512198D02*
X2891015Y-9521722D01*
X2891015Y-9521722D02*
X2900539Y-9540770D01*
X2900539Y-9540770D02*
X2900539Y-9588389D01*
X2900539Y-9588389D02*
X2891015Y-9607436D01*
X2891015Y-9607436D02*
X2881491Y-9616960D01*
X2881491Y-9616960D02*
X2862443Y-9626484D01*
X2862443Y-9626484D02*
X2805301Y-9626484D01*
X2805301Y-9626484D02*
X2786253Y-9616960D01*
X2786253Y-9616960D02*
X2776729Y-9607436D01*
X2986253Y-9607436D02*
X2995777Y-9616960D01*
X2995777Y-9616960D02*
X2986253Y-9626484D01*
X2986253Y-9626484D02*
X2976729Y-9616960D01*
X2976729Y-9616960D02*
X2986253Y-9607436D01*
X2986253Y-9607436D02*
X2986253Y-9626484D01*
X3071967Y-9445531D02*
X3081491Y-9436008D01*
X3081491Y-9436008D02*
X3100539Y-9426484D01*
X3100539Y-9426484D02*
X3148158Y-9426484D01*
X3148158Y-9426484D02*
X3167205Y-9436008D01*
X3167205Y-9436008D02*
X3176729Y-9445531D01*
X3176729Y-9445531D02*
X3186253Y-9464579D01*
X3186253Y-9464579D02*
X3186253Y-9483627D01*
X3186253Y-9483627D02*
X3176729Y-9512198D01*
X3176729Y-9512198D02*
X3062443Y-9626484D01*
X3062443Y-9626484D02*
X3186253Y-9626484D01*
X3310062Y-9426484D02*
X3329110Y-9426484D01*
X3329110Y-9426484D02*
X3348158Y-9436008D01*
X3348158Y-9436008D02*
X3357682Y-9445531D01*
X3357682Y-9445531D02*
X3367205Y-9464579D01*
X3367205Y-9464579D02*
X3376729Y-9502674D01*
X3376729Y-9502674D02*
X3376729Y-9550293D01*
X3376729Y-9550293D02*
X3367205Y-9588389D01*
X3367205Y-9588389D02*
X3357682Y-9607436D01*
X3357682Y-9607436D02*
X3348158Y-9616960D01*
X3348158Y-9616960D02*
X3329110Y-9626484D01*
X3329110Y-9626484D02*
X3310062Y-9626484D01*
X3310062Y-9626484D02*
X3291015Y-9616960D01*
X3291015Y-9616960D02*
X3281491Y-9607436D01*
X3281491Y-9607436D02*
X3271967Y-9588389D01*
X3271967Y-9588389D02*
X3262443Y-9550293D01*
X3262443Y-9550293D02*
X3262443Y-9502674D01*
X3262443Y-9502674D02*
X3271967Y-9464579D01*
X3271967Y-9464579D02*
X3281491Y-9445531D01*
X3281491Y-9445531D02*
X3291015Y-9436008D01*
X3291015Y-9436008D02*
X3310062Y-9426484D01*
X3500539Y-9426484D02*
X3519586Y-9426484D01*
X3519586Y-9426484D02*
X3538634Y-9436008D01*
X3538634Y-9436008D02*
X3548158Y-9445531D01*
X3548158Y-9445531D02*
X3557682Y-9464579D01*
X3557682Y-9464579D02*
X3567205Y-9502674D01*
X3567205Y-9502674D02*
X3567205Y-9550293D01*
X3567205Y-9550293D02*
X3557682Y-9588389D01*
X3557682Y-9588389D02*
X3548158Y-9607436D01*
X3548158Y-9607436D02*
X3538634Y-9616960D01*
X3538634Y-9616960D02*
X3519586Y-9626484D01*
X3519586Y-9626484D02*
X3500539Y-9626484D01*
X3500539Y-9626484D02*
X3481491Y-9616960D01*
X3481491Y-9616960D02*
X3471967Y-9607436D01*
X3471967Y-9607436D02*
X3462443Y-9588389D01*
X3462443Y-9588389D02*
X3452920Y-9550293D01*
X3452920Y-9550293D02*
X3452920Y-9502674D01*
X3452920Y-9502674D02*
X3462443Y-9464579D01*
X3462443Y-9464579D02*
X3471967Y-9445531D01*
X3471967Y-9445531D02*
X3481491Y-9436008D01*
X3481491Y-9436008D02*
X3500539Y-9426484D01*
X3652920Y-9626484D02*
X3652920Y-9493150D01*
X3652920Y-9512198D02*
X3662443Y-9502674D01*
X3662443Y-9502674D02*
X3681491Y-9493150D01*
X3681491Y-9493150D02*
X3710063Y-9493150D01*
X3710063Y-9493150D02*
X3729110Y-9502674D01*
X3729110Y-9502674D02*
X3738634Y-9521722D01*
X3738634Y-9521722D02*
X3738634Y-9626484D01*
X3738634Y-9521722D02*
X3748158Y-9502674D01*
X3748158Y-9502674D02*
X3767205Y-9493150D01*
X3767205Y-9493150D02*
X3795777Y-9493150D01*
X3795777Y-9493150D02*
X3814824Y-9502674D01*
X3814824Y-9502674D02*
X3824348Y-9521722D01*
X3824348Y-9521722D02*
X3824348Y-9626484D01*
X3919586Y-9626484D02*
X3919586Y-9493150D01*
X3919586Y-9512198D02*
X3929110Y-9502674D01*
X3929110Y-9502674D02*
X3948158Y-9493150D01*
X3948158Y-9493150D02*
X3976729Y-9493150D01*
X3976729Y-9493150D02*
X3995777Y-9502674D01*
X3995777Y-9502674D02*
X4005301Y-9521722D01*
X4005301Y-9521722D02*
X4005301Y-9626484D01*
X4005301Y-9521722D02*
X4014824Y-9502674D01*
X4014824Y-9502674D02*
X4033872Y-9493150D01*
X4033872Y-9493150D02*
X4062443Y-9493150D01*
X4062443Y-9493150D02*
X4081491Y-9502674D01*
X4081491Y-9502674D02*
X4091015Y-9521722D01*
X4091015Y-9521722D02*
X4091015Y-9626484D01*
X4481491Y-9416960D02*
X4310063Y-9674103D01*
X4738634Y-9426484D02*
X4757682Y-9426484D01*
X4757682Y-9426484D02*
X4776729Y-9436008D01*
X4776729Y-9436008D02*
X4786253Y-9445531D01*
X4786253Y-9445531D02*
X4795777Y-9464579D01*
X4795777Y-9464579D02*
X4805301Y-9502674D01*
X4805301Y-9502674D02*
X4805301Y-9550293D01*
X4805301Y-9550293D02*
X4795777Y-9588389D01*
X4795777Y-9588389D02*
X4786253Y-9607436D01*
X4786253Y-9607436D02*
X4776729Y-9616960D01*
X4776729Y-9616960D02*
X4757682Y-9626484D01*
X4757682Y-9626484D02*
X4738634Y-9626484D01*
X4738634Y-9626484D02*
X4719587Y-9616960D01*
X4719587Y-9616960D02*
X4710063Y-9607436D01*
X4710063Y-9607436D02*
X4700539Y-9588389D01*
X4700539Y-9588389D02*
X4691015Y-9550293D01*
X4691015Y-9550293D02*
X4691015Y-9502674D01*
X4691015Y-9502674D02*
X4700539Y-9464579D01*
X4700539Y-9464579D02*
X4710063Y-9445531D01*
X4710063Y-9445531D02*
X4719587Y-9436008D01*
X4719587Y-9436008D02*
X4738634Y-9426484D01*
X4891015Y-9607436D02*
X4900539Y-9616960D01*
X4900539Y-9616960D02*
X4891015Y-9626484D01*
X4891015Y-9626484D02*
X4881491Y-9616960D01*
X4881491Y-9616960D02*
X4891015Y-9607436D01*
X4891015Y-9607436D02*
X4891015Y-9626484D01*
X5091015Y-9626484D02*
X4976729Y-9626484D01*
X5033872Y-9626484D02*
X5033872Y-9426484D01*
X5033872Y-9426484D02*
X5014825Y-9455055D01*
X5014825Y-9455055D02*
X4995777Y-9474103D01*
X4995777Y-9474103D02*
X4976729Y-9483627D01*
X5167206Y-9445531D02*
X5176729Y-9436008D01*
X5176729Y-9436008D02*
X5195777Y-9426484D01*
X5195777Y-9426484D02*
X5243396Y-9426484D01*
X5243396Y-9426484D02*
X5262444Y-9436008D01*
X5262444Y-9436008D02*
X5271968Y-9445531D01*
X5271968Y-9445531D02*
X5281491Y-9464579D01*
X5281491Y-9464579D02*
X5281491Y-9483627D01*
X5281491Y-9483627D02*
X5271968Y-9512198D01*
X5271968Y-9512198D02*
X5157682Y-9626484D01*
X5157682Y-9626484D02*
X5281491Y-9626484D01*
X5452920Y-9426484D02*
X5414825Y-9426484D01*
X5414825Y-9426484D02*
X5395777Y-9436008D01*
X5395777Y-9436008D02*
X5386253Y-9445531D01*
X5386253Y-9445531D02*
X5367206Y-9474103D01*
X5367206Y-9474103D02*
X5357682Y-9512198D01*
X5357682Y-9512198D02*
X5357682Y-9588389D01*
X5357682Y-9588389D02*
X5367206Y-9607436D01*
X5367206Y-9607436D02*
X5376729Y-9616960D01*
X5376729Y-9616960D02*
X5395777Y-9626484D01*
X5395777Y-9626484D02*
X5433872Y-9626484D01*
X5433872Y-9626484D02*
X5452920Y-9616960D01*
X5452920Y-9616960D02*
X5462444Y-9607436D01*
X5462444Y-9607436D02*
X5471968Y-9588389D01*
X5471968Y-9588389D02*
X5471968Y-9540770D01*
X5471968Y-9540770D02*
X5462444Y-9521722D01*
X5462444Y-9521722D02*
X5452920Y-9512198D01*
X5452920Y-9512198D02*
X5433872Y-9502674D01*
X5433872Y-9502674D02*
X5395777Y-9502674D01*
X5395777Y-9502674D02*
X5376729Y-9512198D01*
X5376729Y-9512198D02*
X5367206Y-9521722D01*
X5367206Y-9521722D02*
X5357682Y-9540770D01*
X5595777Y-9426484D02*
X5614825Y-9426484D01*
X5614825Y-9426484D02*
X5633872Y-9436008D01*
X5633872Y-9436008D02*
X5643396Y-9445531D01*
X5643396Y-9445531D02*
X5652920Y-9464579D01*
X5652920Y-9464579D02*
X5662444Y-9502674D01*
X5662444Y-9502674D02*
X5662444Y-9550293D01*
X5662444Y-9550293D02*
X5652920Y-9588389D01*
X5652920Y-9588389D02*
X5643396Y-9607436D01*
X5643396Y-9607436D02*
X5633872Y-9616960D01*
X5633872Y-9616960D02*
X5614825Y-9626484D01*
X5614825Y-9626484D02*
X5595777Y-9626484D01*
X5595777Y-9626484D02*
X5576729Y-9616960D01*
X5576729Y-9616960D02*
X5567206Y-9607436D01*
X5567206Y-9607436D02*
X5557682Y-9588389D01*
X5557682Y-9588389D02*
X5548158Y-9550293D01*
X5548158Y-9550293D02*
X5548158Y-9502674D01*
X5548158Y-9502674D02*
X5557682Y-9464579D01*
X5557682Y-9464579D02*
X5567206Y-9445531D01*
X5567206Y-9445531D02*
X5576729Y-9436008D01*
X5576729Y-9436008D02*
X5595777Y-9426484D01*
X5738634Y-9426484D02*
X5738634Y-9464579D01*
X5814825Y-9426484D02*
X5814825Y-9464579D01*
X6110063Y-9702674D02*
X6100539Y-9693150D01*
X6100539Y-9693150D02*
X6081491Y-9664579D01*
X6081491Y-9664579D02*
X6071968Y-9645531D01*
X6071968Y-9645531D02*
X6062444Y-9616960D01*
X6062444Y-9616960D02*
X6052920Y-9569341D01*
X6052920Y-9569341D02*
X6052920Y-9531246D01*
X6052920Y-9531246D02*
X6062444Y-9483627D01*
X6062444Y-9483627D02*
X6071968Y-9455055D01*
X6071968Y-9455055D02*
X6081491Y-9436008D01*
X6081491Y-9436008D02*
X6100539Y-9407436D01*
X6100539Y-9407436D02*
X6110063Y-9397912D01*
X6167206Y-9426484D02*
X6291015Y-9426484D01*
X6291015Y-9426484D02*
X6224348Y-9502674D01*
X6224348Y-9502674D02*
X6252920Y-9502674D01*
X6252920Y-9502674D02*
X6271968Y-9512198D01*
X6271968Y-9512198D02*
X6281491Y-9521722D01*
X6281491Y-9521722D02*
X6291015Y-9540770D01*
X6291015Y-9540770D02*
X6291015Y-9588389D01*
X6291015Y-9588389D02*
X6281491Y-9607436D01*
X6281491Y-9607436D02*
X6271968Y-9616960D01*
X6271968Y-9616960D02*
X6252920Y-9626484D01*
X6252920Y-9626484D02*
X6195777Y-9626484D01*
X6195777Y-9626484D02*
X6176729Y-9616960D01*
X6176729Y-9616960D02*
X6167206Y-9607436D01*
X6529110Y-9626484D02*
X6529110Y-9426484D01*
X6614825Y-9626484D02*
X6614825Y-9521722D01*
X6614825Y-9521722D02*
X6605301Y-9502674D01*
X6605301Y-9502674D02*
X6586253Y-9493150D01*
X6586253Y-9493150D02*
X6557682Y-9493150D01*
X6557682Y-9493150D02*
X6538634Y-9502674D01*
X6538634Y-9502674D02*
X6529110Y-9512198D01*
X6738634Y-9626484D02*
X6719587Y-9616960D01*
X6719587Y-9616960D02*
X6710063Y-9607436D01*
X6710063Y-9607436D02*
X6700539Y-9588389D01*
X6700539Y-9588389D02*
X6700539Y-9531246D01*
X6700539Y-9531246D02*
X6710063Y-9512198D01*
X6710063Y-9512198D02*
X6719587Y-9502674D01*
X6719587Y-9502674D02*
X6738634Y-9493150D01*
X6738634Y-9493150D02*
X6767206Y-9493150D01*
X6767206Y-9493150D02*
X6786253Y-9502674D01*
X6786253Y-9502674D02*
X6795777Y-9512198D01*
X6795777Y-9512198D02*
X6805301Y-9531246D01*
X6805301Y-9531246D02*
X6805301Y-9588389D01*
X6805301Y-9588389D02*
X6795777Y-9607436D01*
X6795777Y-9607436D02*
X6786253Y-9616960D01*
X6786253Y-9616960D02*
X6767206Y-9626484D01*
X6767206Y-9626484D02*
X6738634Y-9626484D01*
X6919587Y-9626484D02*
X6900539Y-9616960D01*
X6900539Y-9616960D02*
X6891015Y-9597912D01*
X6891015Y-9597912D02*
X6891015Y-9426484D01*
X7071968Y-9616960D02*
X7052920Y-9626484D01*
X7052920Y-9626484D02*
X7014825Y-9626484D01*
X7014825Y-9626484D02*
X6995777Y-9616960D01*
X6995777Y-9616960D02*
X6986253Y-9597912D01*
X6986253Y-9597912D02*
X6986253Y-9521722D01*
X6986253Y-9521722D02*
X6995777Y-9502674D01*
X6995777Y-9502674D02*
X7014825Y-9493150D01*
X7014825Y-9493150D02*
X7052920Y-9493150D01*
X7052920Y-9493150D02*
X7071968Y-9502674D01*
X7071968Y-9502674D02*
X7081491Y-9521722D01*
X7081491Y-9521722D02*
X7081491Y-9540770D01*
X7081491Y-9540770D02*
X6986253Y-9559817D01*
X7157682Y-9616960D02*
X7176730Y-9626484D01*
X7176730Y-9626484D02*
X7214825Y-9626484D01*
X7214825Y-9626484D02*
X7233872Y-9616960D01*
X7233872Y-9616960D02*
X7243396Y-9597912D01*
X7243396Y-9597912D02*
X7243396Y-9588389D01*
X7243396Y-9588389D02*
X7233872Y-9569341D01*
X7233872Y-9569341D02*
X7214825Y-9559817D01*
X7214825Y-9559817D02*
X7186253Y-9559817D01*
X7186253Y-9559817D02*
X7167206Y-9550293D01*
X7167206Y-9550293D02*
X7157682Y-9531246D01*
X7157682Y-9531246D02*
X7157682Y-9521722D01*
X7157682Y-9521722D02*
X7167206Y-9502674D01*
X7167206Y-9502674D02*
X7186253Y-9493150D01*
X7186253Y-9493150D02*
X7214825Y-9493150D01*
X7214825Y-9493150D02*
X7233872Y-9502674D01*
X7310063Y-9702674D02*
X7319587Y-9693150D01*
X7319587Y-9693150D02*
X7338634Y-9664579D01*
X7338634Y-9664579D02*
X7348158Y-9645531D01*
X7348158Y-9645531D02*
X7357682Y-9616960D01*
X7357682Y-9616960D02*
X7367206Y-9569341D01*
X7367206Y-9569341D02*
X7367206Y-9531246D01*
X7367206Y-9531246D02*
X7357682Y-9483627D01*
X7357682Y-9483627D02*
X7348158Y-9455055D01*
X7348158Y-9455055D02*
X7338634Y-9436008D01*
X7338634Y-9436008D02*
X7319587Y-9407436D01*
X7319587Y-9407436D02*
X7310063Y-9397912D01*
X7671968Y-9702674D02*
X7662444Y-9693150D01*
X7662444Y-9693150D02*
X7643396Y-9664579D01*
X7643396Y-9664579D02*
X7633872Y-9645531D01*
X7633872Y-9645531D02*
X7624349Y-9616960D01*
X7624349Y-9616960D02*
X7614825Y-9569341D01*
X7614825Y-9569341D02*
X7614825Y-9531246D01*
X7614825Y-9531246D02*
X7624349Y-9483627D01*
X7624349Y-9483627D02*
X7633872Y-9455055D01*
X7633872Y-9455055D02*
X7643396Y-9436008D01*
X7643396Y-9436008D02*
X7662444Y-9407436D01*
X7662444Y-9407436D02*
X7671968Y-9397912D01*
X7748158Y-9493150D02*
X7748158Y-9626484D01*
X7748158Y-9512198D02*
X7757682Y-9502674D01*
X7757682Y-9502674D02*
X7776730Y-9493150D01*
X7776730Y-9493150D02*
X7805301Y-9493150D01*
X7805301Y-9493150D02*
X7824349Y-9502674D01*
X7824349Y-9502674D02*
X7833872Y-9521722D01*
X7833872Y-9521722D02*
X7833872Y-9626484D01*
X7957682Y-9626484D02*
X7938634Y-9616960D01*
X7938634Y-9616960D02*
X7929111Y-9607436D01*
X7929111Y-9607436D02*
X7919587Y-9588389D01*
X7919587Y-9588389D02*
X7919587Y-9531246D01*
X7919587Y-9531246D02*
X7929111Y-9512198D01*
X7929111Y-9512198D02*
X7938634Y-9502674D01*
X7938634Y-9502674D02*
X7957682Y-9493150D01*
X7957682Y-9493150D02*
X7986253Y-9493150D01*
X7986253Y-9493150D02*
X8005301Y-9502674D01*
X8005301Y-9502674D02*
X8014825Y-9512198D01*
X8014825Y-9512198D02*
X8024349Y-9531246D01*
X8024349Y-9531246D02*
X8024349Y-9588389D01*
X8024349Y-9588389D02*
X8014825Y-9607436D01*
X8014825Y-9607436D02*
X8005301Y-9616960D01*
X8005301Y-9616960D02*
X7986253Y-9626484D01*
X7986253Y-9626484D02*
X7957682Y-9626484D01*
X8081492Y-9493150D02*
X8157682Y-9493150D01*
X8110063Y-9426484D02*
X8110063Y-9597912D01*
X8110063Y-9597912D02*
X8119587Y-9616960D01*
X8119587Y-9616960D02*
X8138634Y-9626484D01*
X8138634Y-9626484D02*
X8157682Y-9626484D01*
X8376730Y-9493150D02*
X8376730Y-9693150D01*
X8376730Y-9502674D02*
X8395777Y-9493150D01*
X8395777Y-9493150D02*
X8433873Y-9493150D01*
X8433873Y-9493150D02*
X8452920Y-9502674D01*
X8452920Y-9502674D02*
X8462444Y-9512198D01*
X8462444Y-9512198D02*
X8471968Y-9531246D01*
X8471968Y-9531246D02*
X8471968Y-9588389D01*
X8471968Y-9588389D02*
X8462444Y-9607436D01*
X8462444Y-9607436D02*
X8452920Y-9616960D01*
X8452920Y-9616960D02*
X8433873Y-9626484D01*
X8433873Y-9626484D02*
X8395777Y-9626484D01*
X8395777Y-9626484D02*
X8376730Y-9616960D01*
X8586254Y-9626484D02*
X8567206Y-9616960D01*
X8567206Y-9616960D02*
X8557682Y-9597912D01*
X8557682Y-9597912D02*
X8557682Y-9426484D01*
X8748158Y-9626484D02*
X8748158Y-9521722D01*
X8748158Y-9521722D02*
X8738635Y-9502674D01*
X8738635Y-9502674D02*
X8719587Y-9493150D01*
X8719587Y-9493150D02*
X8681492Y-9493150D01*
X8681492Y-9493150D02*
X8662444Y-9502674D01*
X8748158Y-9616960D02*
X8729111Y-9626484D01*
X8729111Y-9626484D02*
X8681492Y-9626484D01*
X8681492Y-9626484D02*
X8662444Y-9616960D01*
X8662444Y-9616960D02*
X8652920Y-9597912D01*
X8652920Y-9597912D02*
X8652920Y-9578865D01*
X8652920Y-9578865D02*
X8662444Y-9559817D01*
X8662444Y-9559817D02*
X8681492Y-9550293D01*
X8681492Y-9550293D02*
X8729111Y-9550293D01*
X8729111Y-9550293D02*
X8748158Y-9540770D01*
X8814825Y-9493150D02*
X8891015Y-9493150D01*
X8843396Y-9426484D02*
X8843396Y-9597912D01*
X8843396Y-9597912D02*
X8852920Y-9616960D01*
X8852920Y-9616960D02*
X8871968Y-9626484D01*
X8871968Y-9626484D02*
X8891015Y-9626484D01*
X9033873Y-9616960D02*
X9014825Y-9626484D01*
X9014825Y-9626484D02*
X8976730Y-9626484D01*
X8976730Y-9626484D02*
X8957682Y-9616960D01*
X8957682Y-9616960D02*
X8948158Y-9597912D01*
X8948158Y-9597912D02*
X8948158Y-9521722D01*
X8948158Y-9521722D02*
X8957682Y-9502674D01*
X8957682Y-9502674D02*
X8976730Y-9493150D01*
X8976730Y-9493150D02*
X9014825Y-9493150D01*
X9014825Y-9493150D02*
X9033873Y-9502674D01*
X9033873Y-9502674D02*
X9043396Y-9521722D01*
X9043396Y-9521722D02*
X9043396Y-9540770D01*
X9043396Y-9540770D02*
X8948158Y-9559817D01*
X9214825Y-9626484D02*
X9214825Y-9426484D01*
X9214825Y-9616960D02*
X9195777Y-9626484D01*
X9195777Y-9626484D02*
X9157682Y-9626484D01*
X9157682Y-9626484D02*
X9138635Y-9616960D01*
X9138635Y-9616960D02*
X9129111Y-9607436D01*
X9129111Y-9607436D02*
X9119587Y-9588389D01*
X9119587Y-9588389D02*
X9119587Y-9531246D01*
X9119587Y-9531246D02*
X9129111Y-9512198D01*
X9129111Y-9512198D02*
X9138635Y-9502674D01*
X9138635Y-9502674D02*
X9157682Y-9493150D01*
X9157682Y-9493150D02*
X9195777Y-9493150D01*
X9195777Y-9493150D02*
X9214825Y-9502674D01*
X9291016Y-9702674D02*
X9300539Y-9693150D01*
X9300539Y-9693150D02*
X9319587Y-9664579D01*
X9319587Y-9664579D02*
X9329111Y-9645531D01*
X9329111Y-9645531D02*
X9338635Y-9616960D01*
X9338635Y-9616960D02*
X9348158Y-9569341D01*
X9348158Y-9569341D02*
X9348158Y-9531246D01*
X9348158Y-9531246D02*
X9338635Y-9483627D01*
X9338635Y-9483627D02*
X9329111Y-9455055D01*
X9329111Y-9455055D02*
X9319587Y-9436008D01*
X9319587Y-9436008D02*
X9300539Y-9407436D01*
X9300539Y-9407436D02*
X9291016Y-9397912D01*
M02*
