%TF.GenerationSoftware,KiCad,Pcbnew,(6.0.7)*%
%TF.CreationDate,2023-06-27T12:32:27-07:00*%
%TF.ProjectId,OBC-Attempt-5_Matcha_2_Layer_3,4f42432d-4174-4746-956d-70742d355f4d,rev?*%
%TF.SameCoordinates,Original*%
%TF.FileFunction,Drillmap*%
%TF.FilePolarity,Positive*%
%FSLAX45Y45*%
G04 Gerber Fmt 4.5, Leading zero omitted, Abs format (unit mm)*
G04 Created by KiCad (PCBNEW (6.0.7)) date 2023-06-27 12:32:27*
%MOMM*%
%LPD*%
G01*
G04 APERTURE LIST*
%ADD10C,0.100000*%
%ADD11C,0.200000*%
%ADD12C,0.040000*%
%ADD13C,0.110000*%
G04 APERTURE END LIST*
D10*
X8255000Y-3175000D02*
X8255000Y-7620000D01*
X8255000Y-3175000D02*
G75*
G03*
X7620000Y-2540000I-635000J0D01*
G01*
X7620000Y-8255000D02*
G75*
G03*
X8255000Y-7620000I0J635000D01*
G01*
X7620000Y-8255000D02*
X3175000Y-8255000D01*
X3175000Y-2540000D02*
G75*
G03*
X2540000Y-3175000I0J-635000D01*
G01*
X2540000Y-7620000D02*
G75*
G03*
X3175000Y-8255000I627335J-7665D01*
G01*
X3175000Y-2540000D02*
X7620000Y-2540000D01*
X2540000Y-7620000D02*
X2540000Y-3175000D01*
D11*
D12*
X3467000Y-3731000D02*
X3507000Y-3771000D01*
X3507000Y-3731000D02*
X3467000Y-3771000D01*
X3467000Y-4442000D02*
X3507000Y-4482000D01*
X3507000Y-4442000D02*
X3467000Y-4482000D01*
X3470000Y-5152000D02*
X3510000Y-5192000D01*
X3510000Y-5152000D02*
X3470000Y-5192000D01*
X3470000Y-5859000D02*
X3510000Y-5899000D01*
X3510000Y-5859000D02*
X3470000Y-5899000D01*
X4175000Y-3876000D02*
X4215000Y-3916000D01*
X4215000Y-3876000D02*
X4175000Y-3916000D01*
X4176000Y-4583000D02*
X4216000Y-4623000D01*
X4216000Y-4583000D02*
X4176000Y-4623000D01*
X4178000Y-6007000D02*
X4218000Y-6047000D01*
X4218000Y-6007000D02*
X4178000Y-6047000D01*
X4183000Y-5296000D02*
X4223000Y-5336000D01*
X4223000Y-5296000D02*
X4183000Y-5336000D01*
X4255000Y-7308000D02*
X4295000Y-7348000D01*
X4295000Y-7308000D02*
X4255000Y-7348000D01*
X4307000Y-3432000D02*
X4347000Y-3472000D01*
X4347000Y-3432000D02*
X4307000Y-3472000D01*
X4358000Y-3235000D02*
X4398000Y-3275000D01*
X4398000Y-3235000D02*
X4358000Y-3275000D01*
X4396000Y-3741000D02*
X4436000Y-3781000D01*
X4436000Y-3741000D02*
X4396000Y-3781000D01*
X4417000Y-6591000D02*
X4457000Y-6631000D01*
X4457000Y-6591000D02*
X4417000Y-6631000D01*
X4603000Y-4387000D02*
X4643000Y-4427000D01*
X4643000Y-4387000D02*
X4603000Y-4427000D01*
X4612021Y-4479210D02*
X4652021Y-4519210D01*
X4652021Y-4479210D02*
X4612021Y-4519210D01*
X4613000Y-4601000D02*
X4653000Y-4641000D01*
X4653000Y-4601000D02*
X4613000Y-4641000D01*
X4614000Y-4706000D02*
X4654000Y-4746000D01*
X4654000Y-4706000D02*
X4614000Y-4746000D01*
X4905000Y-4096000D02*
X4945000Y-4136000D01*
X4945000Y-4096000D02*
X4905000Y-4136000D01*
X4942000Y-4865000D02*
X4982000Y-4905000D01*
X4982000Y-4865000D02*
X4942000Y-4905000D01*
X4964000Y-7304000D02*
X5004000Y-7344000D01*
X5004000Y-7304000D02*
X4964000Y-7344000D01*
X4983000Y-3063000D02*
X5023000Y-3103000D01*
X5023000Y-3063000D02*
X4983000Y-3103000D01*
X5069000Y-3065000D02*
X5109000Y-3105000D01*
X5109000Y-3065000D02*
X5069000Y-3105000D01*
X5075000Y-4959000D02*
X5115000Y-4999000D01*
X5115000Y-4959000D02*
X5075000Y-4999000D01*
X5087000Y-4387000D02*
X5127000Y-4427000D01*
X5127000Y-4387000D02*
X5087000Y-4427000D01*
X5096106Y-4479202D02*
X5136106Y-4519202D01*
X5136106Y-4479202D02*
X5096106Y-4519202D01*
X5103000Y-6592000D02*
X5143000Y-6632000D01*
X5143000Y-6592000D02*
X5103000Y-6632000D01*
X5118000Y-5100000D02*
X5158000Y-5140000D01*
X5158000Y-5100000D02*
X5118000Y-5140000D01*
X5194000Y-5606000D02*
X5234000Y-5646000D01*
X5234000Y-5606000D02*
X5194000Y-5646000D01*
X5208000Y-3736000D02*
X5248000Y-3776000D01*
X5248000Y-3736000D02*
X5208000Y-3776000D01*
X5309000Y-5004000D02*
X5349000Y-5044000D01*
X5349000Y-5004000D02*
X5309000Y-5044000D01*
X5315000Y-5606000D02*
X5355000Y-5646000D01*
X5355000Y-5606000D02*
X5315000Y-5646000D01*
X5322000Y-5706000D02*
X5362000Y-5746000D01*
X5362000Y-5706000D02*
X5322000Y-5746000D01*
X5378000Y-4519000D02*
X5418000Y-4559000D01*
X5418000Y-4519000D02*
X5378000Y-4559000D01*
X5387000Y-4068000D02*
X5427000Y-4108000D01*
X5427000Y-4068000D02*
X5387000Y-4108000D01*
X5389000Y-4409000D02*
X5429000Y-4449000D01*
X5429000Y-4409000D02*
X5389000Y-4449000D01*
X5392000Y-4684000D02*
X5432000Y-4724000D01*
X5432000Y-4684000D02*
X5392000Y-4724000D01*
X5411000Y-5403000D02*
X5451000Y-5443000D01*
X5451000Y-5403000D02*
X5411000Y-5443000D01*
X5545000Y-5604000D02*
X5585000Y-5644000D01*
X5585000Y-5604000D02*
X5545000Y-5644000D01*
X5666000Y-3957000D02*
X5706000Y-3997000D01*
X5706000Y-3957000D02*
X5666000Y-3997000D01*
X5675000Y-7305000D02*
X5715000Y-7345000D01*
X5715000Y-7305000D02*
X5675000Y-7345000D01*
X5695000Y-3664000D02*
X5735000Y-3704000D01*
X5735000Y-3664000D02*
X5695000Y-3704000D01*
X5750000Y-5289000D02*
X5790000Y-5329000D01*
X5790000Y-5289000D02*
X5750000Y-5329000D01*
X5772000Y-3564000D02*
X5812000Y-3604000D01*
X5812000Y-3564000D02*
X5772000Y-3604000D01*
X5816000Y-6579000D02*
X5856000Y-6619000D01*
X5856000Y-6579000D02*
X5816000Y-6619000D01*
X5821000Y-5364000D02*
X5861000Y-5404000D01*
X5861000Y-5364000D02*
X5821000Y-5404000D01*
X5858970Y-5129680D02*
X5898970Y-5169680D01*
X5898970Y-5129680D02*
X5858970Y-5169680D01*
X5893000Y-5444000D02*
X5933000Y-5484000D01*
X5933000Y-5444000D02*
X5893000Y-5484000D01*
X5905000Y-4824000D02*
X5945000Y-4864000D01*
X5945000Y-4824000D02*
X5905000Y-4864000D01*
X5938000Y-5188000D02*
X5978000Y-5228000D01*
X5978000Y-5188000D02*
X5938000Y-5228000D01*
X5959000Y-3142000D02*
X5999000Y-3182000D01*
X5999000Y-3142000D02*
X5959000Y-3182000D01*
X5969000Y-5516000D02*
X6009000Y-5556000D01*
X6009000Y-5516000D02*
X5969000Y-5556000D01*
X6045000Y-4819000D02*
X6085000Y-4859000D01*
X6085000Y-4819000D02*
X6045000Y-4859000D01*
X6155000Y-4805000D02*
X6195000Y-4845000D01*
X6195000Y-4805000D02*
X6155000Y-4845000D01*
X6237000Y-4083000D02*
X6277000Y-4123000D01*
X6277000Y-4083000D02*
X6237000Y-4123000D01*
X6241000Y-3557000D02*
X6281000Y-3597000D01*
X6281000Y-3557000D02*
X6241000Y-3597000D01*
X6293000Y-3749000D02*
X6333000Y-3789000D01*
X6333000Y-3749000D02*
X6293000Y-3789000D01*
X6317000Y-5037000D02*
X6357000Y-5077000D01*
X6357000Y-5037000D02*
X6317000Y-5077000D01*
X6390000Y-7305000D02*
X6430000Y-7345000D01*
X6430000Y-7305000D02*
X6390000Y-7345000D01*
X6399000Y-3381000D02*
X6439000Y-3421000D01*
X6439000Y-3381000D02*
X6399000Y-3421000D01*
X6538000Y-6588000D02*
X6578000Y-6628000D01*
X6578000Y-6588000D02*
X6538000Y-6628000D01*
X6540000Y-3828000D02*
X6580000Y-3868000D01*
X6580000Y-3828000D02*
X6540000Y-3868000D01*
X6777000Y-4087000D02*
X6817000Y-4127000D01*
X6817000Y-4087000D02*
X6777000Y-4127000D01*
X7002000Y-3954000D02*
X7042000Y-3994000D01*
X7042000Y-3954000D02*
X7002000Y-3994000D01*
X7631000Y-5722000D02*
X7671000Y-5762000D01*
X7671000Y-5722000D02*
X7631000Y-5762000D01*
D10*
X6620000Y-5015000D02*
G75*
G03*
X6620000Y-5015000I-50000J0D01*
G01*
X6620000Y-5269000D02*
G75*
G03*
X6620000Y-5269000I-50000J0D01*
G01*
X6620000Y-5523000D02*
G75*
G03*
X6620000Y-5523000I-50000J0D01*
G01*
X6620000Y-5777000D02*
G75*
G03*
X6620000Y-5777000I-50000J0D01*
G01*
X7411000Y-4388000D02*
G75*
G03*
X7411000Y-4388000I-50000J0D01*
G01*
X7911000Y-4388000D02*
G75*
G03*
X7911000Y-4388000I-50000J0D01*
G01*
D13*
X2912000Y-4006000D02*
X2912000Y-4116000D01*
X2857000Y-4061000D02*
X2967000Y-4061000D01*
X2912000Y-4260000D02*
X2912000Y-4370000D01*
X2857000Y-4315000D02*
X2967000Y-4315000D01*
X2912000Y-4514000D02*
X2912000Y-4624000D01*
X2857000Y-4569000D02*
X2967000Y-4569000D01*
X2912000Y-4768000D02*
X2912000Y-4878000D01*
X2857000Y-4823000D02*
X2967000Y-4823000D01*
X2912000Y-5022000D02*
X2912000Y-5132000D01*
X2857000Y-5077000D02*
X2967000Y-5077000D01*
X2912000Y-5276000D02*
X2912000Y-5386000D01*
X2857000Y-5331000D02*
X2967000Y-5331000D01*
X2912000Y-5530000D02*
X2912000Y-5640000D01*
X2857000Y-5585000D02*
X2967000Y-5585000D01*
X2912000Y-5784000D02*
X2912000Y-5894000D01*
X2857000Y-5839000D02*
X2967000Y-5839000D01*
X3708000Y-2851000D02*
X3708000Y-2961000D01*
X3653000Y-2906000D02*
X3763000Y-2906000D01*
X3962000Y-2851000D02*
X3962000Y-2961000D01*
X3907000Y-2906000D02*
X4017000Y-2906000D01*
X4655040Y-7828660D02*
X4655040Y-7938660D01*
X4600040Y-7883660D02*
X4710040Y-7883660D01*
X4909040Y-7828660D02*
X4909040Y-7938660D01*
X4854040Y-7883660D02*
X4964040Y-7883660D01*
X5163040Y-7828660D02*
X5163040Y-7938660D01*
X5108040Y-7883660D02*
X5218040Y-7883660D01*
X5417040Y-7828660D02*
X5417040Y-7938660D01*
X5362040Y-7883660D02*
X5472040Y-7883660D01*
X5470000Y-2845000D02*
X5470000Y-2955000D01*
X5415000Y-2900000D02*
X5525000Y-2900000D01*
X5671040Y-7828660D02*
X5671040Y-7938660D01*
X5616040Y-7883660D02*
X5726040Y-7883660D01*
X5724000Y-2845000D02*
X5724000Y-2955000D01*
X5669000Y-2900000D02*
X5779000Y-2900000D01*
X5925040Y-7828660D02*
X5925040Y-7938660D01*
X5870040Y-7883660D02*
X5980040Y-7883660D01*
X6179040Y-7828660D02*
X6179040Y-7938660D01*
X6124040Y-7883660D02*
X6234040Y-7883660D01*
X6433040Y-7828660D02*
X6433040Y-7938660D01*
X6378040Y-7883660D02*
X6488040Y-7883660D01*
D11*
X2792572Y-8570523D02*
X2792572Y-8370523D01*
X2840191Y-8370523D01*
X2868763Y-8380047D01*
X2887810Y-8399094D01*
X2897334Y-8418142D01*
X2906858Y-8456237D01*
X2906858Y-8484809D01*
X2897334Y-8522904D01*
X2887810Y-8541952D01*
X2868763Y-8560999D01*
X2840191Y-8570523D01*
X2792572Y-8570523D01*
X2992572Y-8570523D02*
X2992572Y-8437190D01*
X2992572Y-8475285D02*
X3002096Y-8456237D01*
X3011620Y-8446713D01*
X3030667Y-8437190D01*
X3049715Y-8437190D01*
X3116382Y-8570523D02*
X3116382Y-8437190D01*
X3116382Y-8370523D02*
X3106858Y-8380047D01*
X3116382Y-8389571D01*
X3125905Y-8380047D01*
X3116382Y-8370523D01*
X3116382Y-8389571D01*
X3240191Y-8570523D02*
X3221144Y-8560999D01*
X3211620Y-8541952D01*
X3211620Y-8370523D01*
X3344953Y-8570523D02*
X3325905Y-8560999D01*
X3316382Y-8541952D01*
X3316382Y-8370523D01*
X3573525Y-8570523D02*
X3573525Y-8370523D01*
X3640191Y-8513380D01*
X3706858Y-8370523D01*
X3706858Y-8570523D01*
X3887810Y-8570523D02*
X3887810Y-8465761D01*
X3878286Y-8446713D01*
X3859239Y-8437190D01*
X3821144Y-8437190D01*
X3802096Y-8446713D01*
X3887810Y-8560999D02*
X3868763Y-8570523D01*
X3821144Y-8570523D01*
X3802096Y-8560999D01*
X3792572Y-8541952D01*
X3792572Y-8522904D01*
X3802096Y-8503856D01*
X3821144Y-8494333D01*
X3868763Y-8494333D01*
X3887810Y-8484809D01*
X3983048Y-8437190D02*
X3983048Y-8637190D01*
X3983048Y-8446713D02*
X4002096Y-8437190D01*
X4040191Y-8437190D01*
X4059239Y-8446713D01*
X4068763Y-8456237D01*
X4078286Y-8475285D01*
X4078286Y-8532428D01*
X4068763Y-8551475D01*
X4059239Y-8560999D01*
X4040191Y-8570523D01*
X4002096Y-8570523D01*
X3983048Y-8560999D01*
X4164001Y-8551475D02*
X4173525Y-8560999D01*
X4164001Y-8570523D01*
X4154477Y-8560999D01*
X4164001Y-8551475D01*
X4164001Y-8570523D01*
X4164001Y-8446713D02*
X4173525Y-8456237D01*
X4164001Y-8465761D01*
X4154477Y-8456237D01*
X4164001Y-8446713D01*
X4164001Y-8465761D01*
D12*
X2494953Y-8880047D02*
X2534953Y-8920047D01*
X2534953Y-8880047D02*
X2494953Y-8920047D01*
D11*
X2830667Y-8790523D02*
X2849715Y-8790523D01*
X2868763Y-8800047D01*
X2878286Y-8809571D01*
X2887810Y-8828618D01*
X2897334Y-8866713D01*
X2897334Y-8914333D01*
X2887810Y-8952428D01*
X2878286Y-8971475D01*
X2868763Y-8980999D01*
X2849715Y-8990523D01*
X2830667Y-8990523D01*
X2811620Y-8980999D01*
X2802096Y-8971475D01*
X2792572Y-8952428D01*
X2783048Y-8914333D01*
X2783048Y-8866713D01*
X2792572Y-8828618D01*
X2802096Y-8809571D01*
X2811620Y-8800047D01*
X2830667Y-8790523D01*
X2983048Y-8971475D02*
X2992572Y-8980999D01*
X2983048Y-8990523D01*
X2973525Y-8980999D01*
X2983048Y-8971475D01*
X2983048Y-8990523D01*
X3164001Y-8857190D02*
X3164001Y-8990523D01*
X3116382Y-8780999D02*
X3068763Y-8923856D01*
X3192572Y-8923856D01*
X3306858Y-8790523D02*
X3325905Y-8790523D01*
X3344953Y-8800047D01*
X3354477Y-8809571D01*
X3364001Y-8828618D01*
X3373525Y-8866713D01*
X3373525Y-8914333D01*
X3364001Y-8952428D01*
X3354477Y-8971475D01*
X3344953Y-8980999D01*
X3325905Y-8990523D01*
X3306858Y-8990523D01*
X3287810Y-8980999D01*
X3278286Y-8971475D01*
X3268763Y-8952428D01*
X3259239Y-8914333D01*
X3259239Y-8866713D01*
X3268763Y-8828618D01*
X3278286Y-8809571D01*
X3287810Y-8800047D01*
X3306858Y-8790523D01*
X3497334Y-8790523D02*
X3516382Y-8790523D01*
X3535429Y-8800047D01*
X3544953Y-8809571D01*
X3554477Y-8828618D01*
X3564001Y-8866713D01*
X3564001Y-8914333D01*
X3554477Y-8952428D01*
X3544953Y-8971475D01*
X3535429Y-8980999D01*
X3516382Y-8990523D01*
X3497334Y-8990523D01*
X3478286Y-8980999D01*
X3468763Y-8971475D01*
X3459239Y-8952428D01*
X3449715Y-8914333D01*
X3449715Y-8866713D01*
X3459239Y-8828618D01*
X3468763Y-8809571D01*
X3478286Y-8800047D01*
X3497334Y-8790523D01*
X3649715Y-8990523D02*
X3649715Y-8857190D01*
X3649715Y-8876237D02*
X3659239Y-8866713D01*
X3678286Y-8857190D01*
X3706858Y-8857190D01*
X3725905Y-8866713D01*
X3735429Y-8885761D01*
X3735429Y-8990523D01*
X3735429Y-8885761D02*
X3744953Y-8866713D01*
X3764001Y-8857190D01*
X3792572Y-8857190D01*
X3811620Y-8866713D01*
X3821144Y-8885761D01*
X3821144Y-8990523D01*
X3916382Y-8990523D02*
X3916382Y-8857190D01*
X3916382Y-8876237D02*
X3925905Y-8866713D01*
X3944953Y-8857190D01*
X3973525Y-8857190D01*
X3992572Y-8866713D01*
X4002096Y-8885761D01*
X4002096Y-8990523D01*
X4002096Y-8885761D02*
X4011620Y-8866713D01*
X4030667Y-8857190D01*
X4059239Y-8857190D01*
X4078286Y-8866713D01*
X4087810Y-8885761D01*
X4087810Y-8990523D01*
X4478287Y-8780999D02*
X4306858Y-9038142D01*
X4735429Y-8790523D02*
X4754477Y-8790523D01*
X4773525Y-8800047D01*
X4783048Y-8809571D01*
X4792572Y-8828618D01*
X4802096Y-8866713D01*
X4802096Y-8914333D01*
X4792572Y-8952428D01*
X4783048Y-8971475D01*
X4773525Y-8980999D01*
X4754477Y-8990523D01*
X4735429Y-8990523D01*
X4716382Y-8980999D01*
X4706858Y-8971475D01*
X4697334Y-8952428D01*
X4687810Y-8914333D01*
X4687810Y-8866713D01*
X4697334Y-8828618D01*
X4706858Y-8809571D01*
X4716382Y-8800047D01*
X4735429Y-8790523D01*
X4887810Y-8971475D02*
X4897334Y-8980999D01*
X4887810Y-8990523D01*
X4878287Y-8980999D01*
X4887810Y-8971475D01*
X4887810Y-8990523D01*
X5021144Y-8790523D02*
X5040191Y-8790523D01*
X5059239Y-8800047D01*
X5068763Y-8809571D01*
X5078287Y-8828618D01*
X5087810Y-8866713D01*
X5087810Y-8914333D01*
X5078287Y-8952428D01*
X5068763Y-8971475D01*
X5059239Y-8980999D01*
X5040191Y-8990523D01*
X5021144Y-8990523D01*
X5002096Y-8980999D01*
X4992572Y-8971475D01*
X4983048Y-8952428D01*
X4973525Y-8914333D01*
X4973525Y-8866713D01*
X4983048Y-8828618D01*
X4992572Y-8809571D01*
X5002096Y-8800047D01*
X5021144Y-8790523D01*
X5278287Y-8990523D02*
X5164001Y-8990523D01*
X5221144Y-8990523D02*
X5221144Y-8790523D01*
X5202096Y-8819094D01*
X5183048Y-8838142D01*
X5164001Y-8847666D01*
X5459239Y-8790523D02*
X5364001Y-8790523D01*
X5354477Y-8885761D01*
X5364001Y-8876237D01*
X5383048Y-8866713D01*
X5430667Y-8866713D01*
X5449715Y-8876237D01*
X5459239Y-8885761D01*
X5468763Y-8904809D01*
X5468763Y-8952428D01*
X5459239Y-8971475D01*
X5449715Y-8980999D01*
X5430667Y-8990523D01*
X5383048Y-8990523D01*
X5364001Y-8980999D01*
X5354477Y-8971475D01*
X5535429Y-8790523D02*
X5668763Y-8790523D01*
X5583048Y-8990523D01*
X5735429Y-8790523D02*
X5735429Y-8828618D01*
X5811620Y-8790523D02*
X5811620Y-8828618D01*
X6106858Y-9066713D02*
X6097334Y-9057190D01*
X6078286Y-9028618D01*
X6068763Y-9009571D01*
X6059239Y-8980999D01*
X6049715Y-8933380D01*
X6049715Y-8895285D01*
X6059239Y-8847666D01*
X6068763Y-8819094D01*
X6078286Y-8800047D01*
X6097334Y-8771475D01*
X6106858Y-8761952D01*
X6268763Y-8790523D02*
X6230667Y-8790523D01*
X6211620Y-8800047D01*
X6202096Y-8809571D01*
X6183048Y-8838142D01*
X6173525Y-8876237D01*
X6173525Y-8952428D01*
X6183048Y-8971475D01*
X6192572Y-8980999D01*
X6211620Y-8990523D01*
X6249715Y-8990523D01*
X6268763Y-8980999D01*
X6278286Y-8971475D01*
X6287810Y-8952428D01*
X6287810Y-8904809D01*
X6278286Y-8885761D01*
X6268763Y-8876237D01*
X6249715Y-8866713D01*
X6211620Y-8866713D01*
X6192572Y-8876237D01*
X6183048Y-8885761D01*
X6173525Y-8904809D01*
X6459239Y-8857190D02*
X6459239Y-8990523D01*
X6411620Y-8780999D02*
X6364001Y-8923856D01*
X6487810Y-8923856D01*
X6716382Y-8990523D02*
X6716382Y-8790523D01*
X6802096Y-8990523D02*
X6802096Y-8885761D01*
X6792572Y-8866713D01*
X6773525Y-8857190D01*
X6744953Y-8857190D01*
X6725905Y-8866713D01*
X6716382Y-8876237D01*
X6925905Y-8990523D02*
X6906858Y-8980999D01*
X6897334Y-8971475D01*
X6887810Y-8952428D01*
X6887810Y-8895285D01*
X6897334Y-8876237D01*
X6906858Y-8866713D01*
X6925905Y-8857190D01*
X6954477Y-8857190D01*
X6973525Y-8866713D01*
X6983048Y-8876237D01*
X6992572Y-8895285D01*
X6992572Y-8952428D01*
X6983048Y-8971475D01*
X6973525Y-8980999D01*
X6954477Y-8990523D01*
X6925905Y-8990523D01*
X7106858Y-8990523D02*
X7087810Y-8980999D01*
X7078286Y-8961952D01*
X7078286Y-8790523D01*
X7259239Y-8980999D02*
X7240191Y-8990523D01*
X7202096Y-8990523D01*
X7183048Y-8980999D01*
X7173525Y-8961952D01*
X7173525Y-8885761D01*
X7183048Y-8866713D01*
X7202096Y-8857190D01*
X7240191Y-8857190D01*
X7259239Y-8866713D01*
X7268763Y-8885761D01*
X7268763Y-8904809D01*
X7173525Y-8923856D01*
X7344953Y-8980999D02*
X7364001Y-8990523D01*
X7402096Y-8990523D01*
X7421144Y-8980999D01*
X7430667Y-8961952D01*
X7430667Y-8952428D01*
X7421144Y-8933380D01*
X7402096Y-8923856D01*
X7373525Y-8923856D01*
X7354477Y-8914333D01*
X7344953Y-8895285D01*
X7344953Y-8885761D01*
X7354477Y-8866713D01*
X7373525Y-8857190D01*
X7402096Y-8857190D01*
X7421144Y-8866713D01*
X7497334Y-9066713D02*
X7506858Y-9057190D01*
X7525905Y-9028618D01*
X7535429Y-9009571D01*
X7544953Y-8980999D01*
X7554477Y-8933380D01*
X7554477Y-8895285D01*
X7544953Y-8847666D01*
X7535429Y-8819094D01*
X7525905Y-8800047D01*
X7506858Y-8771475D01*
X7497334Y-8761952D01*
D10*
X2534953Y-9164047D02*
G75*
G03*
X2534953Y-9164047I-50000J0D01*
G01*
D11*
X2897334Y-9254523D02*
X2783048Y-9254523D01*
X2840191Y-9254523D02*
X2840191Y-9054523D01*
X2821144Y-9083094D01*
X2802096Y-9102142D01*
X2783048Y-9111666D01*
X2983048Y-9235475D02*
X2992572Y-9244999D01*
X2983048Y-9254523D01*
X2973525Y-9244999D01*
X2983048Y-9235475D01*
X2983048Y-9254523D01*
X3116382Y-9054523D02*
X3135429Y-9054523D01*
X3154477Y-9064047D01*
X3164001Y-9073571D01*
X3173525Y-9092618D01*
X3183048Y-9130713D01*
X3183048Y-9178333D01*
X3173525Y-9216428D01*
X3164001Y-9235475D01*
X3154477Y-9244999D01*
X3135429Y-9254523D01*
X3116382Y-9254523D01*
X3097334Y-9244999D01*
X3087810Y-9235475D01*
X3078286Y-9216428D01*
X3068763Y-9178333D01*
X3068763Y-9130713D01*
X3078286Y-9092618D01*
X3087810Y-9073571D01*
X3097334Y-9064047D01*
X3116382Y-9054523D01*
X3306858Y-9054523D02*
X3325905Y-9054523D01*
X3344953Y-9064047D01*
X3354477Y-9073571D01*
X3364001Y-9092618D01*
X3373525Y-9130713D01*
X3373525Y-9178333D01*
X3364001Y-9216428D01*
X3354477Y-9235475D01*
X3344953Y-9244999D01*
X3325905Y-9254523D01*
X3306858Y-9254523D01*
X3287810Y-9244999D01*
X3278286Y-9235475D01*
X3268763Y-9216428D01*
X3259239Y-9178333D01*
X3259239Y-9130713D01*
X3268763Y-9092618D01*
X3278286Y-9073571D01*
X3287810Y-9064047D01*
X3306858Y-9054523D01*
X3497334Y-9054523D02*
X3516382Y-9054523D01*
X3535429Y-9064047D01*
X3544953Y-9073571D01*
X3554477Y-9092618D01*
X3564001Y-9130713D01*
X3564001Y-9178333D01*
X3554477Y-9216428D01*
X3544953Y-9235475D01*
X3535429Y-9244999D01*
X3516382Y-9254523D01*
X3497334Y-9254523D01*
X3478286Y-9244999D01*
X3468763Y-9235475D01*
X3459239Y-9216428D01*
X3449715Y-9178333D01*
X3449715Y-9130713D01*
X3459239Y-9092618D01*
X3468763Y-9073571D01*
X3478286Y-9064047D01*
X3497334Y-9054523D01*
X3649715Y-9254523D02*
X3649715Y-9121190D01*
X3649715Y-9140237D02*
X3659239Y-9130713D01*
X3678286Y-9121190D01*
X3706858Y-9121190D01*
X3725905Y-9130713D01*
X3735429Y-9149761D01*
X3735429Y-9254523D01*
X3735429Y-9149761D02*
X3744953Y-9130713D01*
X3764001Y-9121190D01*
X3792572Y-9121190D01*
X3811620Y-9130713D01*
X3821144Y-9149761D01*
X3821144Y-9254523D01*
X3916382Y-9254523D02*
X3916382Y-9121190D01*
X3916382Y-9140237D02*
X3925905Y-9130713D01*
X3944953Y-9121190D01*
X3973525Y-9121190D01*
X3992572Y-9130713D01*
X4002096Y-9149761D01*
X4002096Y-9254523D01*
X4002096Y-9149761D02*
X4011620Y-9130713D01*
X4030667Y-9121190D01*
X4059239Y-9121190D01*
X4078286Y-9130713D01*
X4087810Y-9149761D01*
X4087810Y-9254523D01*
X4478287Y-9044999D02*
X4306858Y-9302142D01*
X4735429Y-9054523D02*
X4754477Y-9054523D01*
X4773525Y-9064047D01*
X4783048Y-9073571D01*
X4792572Y-9092618D01*
X4802096Y-9130713D01*
X4802096Y-9178333D01*
X4792572Y-9216428D01*
X4783048Y-9235475D01*
X4773525Y-9244999D01*
X4754477Y-9254523D01*
X4735429Y-9254523D01*
X4716382Y-9244999D01*
X4706858Y-9235475D01*
X4697334Y-9216428D01*
X4687810Y-9178333D01*
X4687810Y-9130713D01*
X4697334Y-9092618D01*
X4706858Y-9073571D01*
X4716382Y-9064047D01*
X4735429Y-9054523D01*
X4887810Y-9235475D02*
X4897334Y-9244999D01*
X4887810Y-9254523D01*
X4878287Y-9244999D01*
X4887810Y-9235475D01*
X4887810Y-9254523D01*
X5021144Y-9054523D02*
X5040191Y-9054523D01*
X5059239Y-9064047D01*
X5068763Y-9073571D01*
X5078287Y-9092618D01*
X5087810Y-9130713D01*
X5087810Y-9178333D01*
X5078287Y-9216428D01*
X5068763Y-9235475D01*
X5059239Y-9244999D01*
X5040191Y-9254523D01*
X5021144Y-9254523D01*
X5002096Y-9244999D01*
X4992572Y-9235475D01*
X4983048Y-9216428D01*
X4973525Y-9178333D01*
X4973525Y-9130713D01*
X4983048Y-9092618D01*
X4992572Y-9073571D01*
X5002096Y-9064047D01*
X5021144Y-9054523D01*
X5154477Y-9054523D02*
X5278287Y-9054523D01*
X5211620Y-9130713D01*
X5240191Y-9130713D01*
X5259239Y-9140237D01*
X5268763Y-9149761D01*
X5278287Y-9168809D01*
X5278287Y-9216428D01*
X5268763Y-9235475D01*
X5259239Y-9244999D01*
X5240191Y-9254523D01*
X5183048Y-9254523D01*
X5164001Y-9244999D01*
X5154477Y-9235475D01*
X5373525Y-9254523D02*
X5411620Y-9254523D01*
X5430667Y-9244999D01*
X5440191Y-9235475D01*
X5459239Y-9206904D01*
X5468763Y-9168809D01*
X5468763Y-9092618D01*
X5459239Y-9073571D01*
X5449715Y-9064047D01*
X5430667Y-9054523D01*
X5392572Y-9054523D01*
X5373525Y-9064047D01*
X5364001Y-9073571D01*
X5354477Y-9092618D01*
X5354477Y-9140237D01*
X5364001Y-9159285D01*
X5373525Y-9168809D01*
X5392572Y-9178333D01*
X5430667Y-9178333D01*
X5449715Y-9168809D01*
X5459239Y-9159285D01*
X5468763Y-9140237D01*
X5640191Y-9121190D02*
X5640191Y-9254523D01*
X5592572Y-9044999D02*
X5544953Y-9187856D01*
X5668763Y-9187856D01*
X5735429Y-9054523D02*
X5735429Y-9092618D01*
X5811620Y-9054523D02*
X5811620Y-9092618D01*
X6106858Y-9330713D02*
X6097334Y-9321190D01*
X6078286Y-9292618D01*
X6068763Y-9273571D01*
X6059239Y-9244999D01*
X6049715Y-9197380D01*
X6049715Y-9159285D01*
X6059239Y-9111666D01*
X6068763Y-9083094D01*
X6078286Y-9064047D01*
X6097334Y-9035475D01*
X6106858Y-9025952D01*
X6268763Y-9054523D02*
X6230667Y-9054523D01*
X6211620Y-9064047D01*
X6202096Y-9073571D01*
X6183048Y-9102142D01*
X6173525Y-9140237D01*
X6173525Y-9216428D01*
X6183048Y-9235475D01*
X6192572Y-9244999D01*
X6211620Y-9254523D01*
X6249715Y-9254523D01*
X6268763Y-9244999D01*
X6278286Y-9235475D01*
X6287810Y-9216428D01*
X6287810Y-9168809D01*
X6278286Y-9149761D01*
X6268763Y-9140237D01*
X6249715Y-9130713D01*
X6211620Y-9130713D01*
X6192572Y-9140237D01*
X6183048Y-9149761D01*
X6173525Y-9168809D01*
X6525905Y-9254523D02*
X6525905Y-9054523D01*
X6611620Y-9254523D02*
X6611620Y-9149761D01*
X6602096Y-9130713D01*
X6583048Y-9121190D01*
X6554477Y-9121190D01*
X6535429Y-9130713D01*
X6525905Y-9140237D01*
X6735429Y-9254523D02*
X6716382Y-9244999D01*
X6706858Y-9235475D01*
X6697334Y-9216428D01*
X6697334Y-9159285D01*
X6706858Y-9140237D01*
X6716382Y-9130713D01*
X6735429Y-9121190D01*
X6764001Y-9121190D01*
X6783048Y-9130713D01*
X6792572Y-9140237D01*
X6802096Y-9159285D01*
X6802096Y-9216428D01*
X6792572Y-9235475D01*
X6783048Y-9244999D01*
X6764001Y-9254523D01*
X6735429Y-9254523D01*
X6916382Y-9254523D02*
X6897334Y-9244999D01*
X6887810Y-9225952D01*
X6887810Y-9054523D01*
X7068763Y-9244999D02*
X7049715Y-9254523D01*
X7011620Y-9254523D01*
X6992572Y-9244999D01*
X6983048Y-9225952D01*
X6983048Y-9149761D01*
X6992572Y-9130713D01*
X7011620Y-9121190D01*
X7049715Y-9121190D01*
X7068763Y-9130713D01*
X7078286Y-9149761D01*
X7078286Y-9168809D01*
X6983048Y-9187856D01*
X7154477Y-9244999D02*
X7173525Y-9254523D01*
X7211620Y-9254523D01*
X7230667Y-9244999D01*
X7240191Y-9225952D01*
X7240191Y-9216428D01*
X7230667Y-9197380D01*
X7211620Y-9187856D01*
X7183048Y-9187856D01*
X7164001Y-9178333D01*
X7154477Y-9159285D01*
X7154477Y-9149761D01*
X7164001Y-9130713D01*
X7183048Y-9121190D01*
X7211620Y-9121190D01*
X7230667Y-9130713D01*
X7306858Y-9330713D02*
X7316382Y-9321190D01*
X7335429Y-9292618D01*
X7344953Y-9273571D01*
X7354477Y-9244999D01*
X7364001Y-9197380D01*
X7364001Y-9159285D01*
X7354477Y-9111666D01*
X7344953Y-9083094D01*
X7335429Y-9064047D01*
X7316382Y-9035475D01*
X7306858Y-9025952D01*
D13*
X2479953Y-9373047D02*
X2479953Y-9483047D01*
X2424953Y-9428047D02*
X2534953Y-9428047D01*
D11*
X2897334Y-9518523D02*
X2783048Y-9518523D01*
X2840191Y-9518523D02*
X2840191Y-9318523D01*
X2821144Y-9347094D01*
X2802096Y-9366142D01*
X2783048Y-9375666D01*
X2983048Y-9499475D02*
X2992572Y-9508999D01*
X2983048Y-9518523D01*
X2973525Y-9508999D01*
X2983048Y-9499475D01*
X2983048Y-9518523D01*
X3183048Y-9518523D02*
X3068763Y-9518523D01*
X3125905Y-9518523D02*
X3125905Y-9318523D01*
X3106858Y-9347094D01*
X3087810Y-9366142D01*
X3068763Y-9375666D01*
X3306858Y-9318523D02*
X3325905Y-9318523D01*
X3344953Y-9328047D01*
X3354477Y-9337571D01*
X3364001Y-9356618D01*
X3373525Y-9394713D01*
X3373525Y-9442333D01*
X3364001Y-9480428D01*
X3354477Y-9499475D01*
X3344953Y-9508999D01*
X3325905Y-9518523D01*
X3306858Y-9518523D01*
X3287810Y-9508999D01*
X3278286Y-9499475D01*
X3268763Y-9480428D01*
X3259239Y-9442333D01*
X3259239Y-9394713D01*
X3268763Y-9356618D01*
X3278286Y-9337571D01*
X3287810Y-9328047D01*
X3306858Y-9318523D01*
X3497334Y-9318523D02*
X3516382Y-9318523D01*
X3535429Y-9328047D01*
X3544953Y-9337571D01*
X3554477Y-9356618D01*
X3564001Y-9394713D01*
X3564001Y-9442333D01*
X3554477Y-9480428D01*
X3544953Y-9499475D01*
X3535429Y-9508999D01*
X3516382Y-9518523D01*
X3497334Y-9518523D01*
X3478286Y-9508999D01*
X3468763Y-9499475D01*
X3459239Y-9480428D01*
X3449715Y-9442333D01*
X3449715Y-9394713D01*
X3459239Y-9356618D01*
X3468763Y-9337571D01*
X3478286Y-9328047D01*
X3497334Y-9318523D01*
X3649715Y-9518523D02*
X3649715Y-9385190D01*
X3649715Y-9404237D02*
X3659239Y-9394713D01*
X3678286Y-9385190D01*
X3706858Y-9385190D01*
X3725905Y-9394713D01*
X3735429Y-9413761D01*
X3735429Y-9518523D01*
X3735429Y-9413761D02*
X3744953Y-9394713D01*
X3764001Y-9385190D01*
X3792572Y-9385190D01*
X3811620Y-9394713D01*
X3821144Y-9413761D01*
X3821144Y-9518523D01*
X3916382Y-9518523D02*
X3916382Y-9385190D01*
X3916382Y-9404237D02*
X3925905Y-9394713D01*
X3944953Y-9385190D01*
X3973525Y-9385190D01*
X3992572Y-9394713D01*
X4002096Y-9413761D01*
X4002096Y-9518523D01*
X4002096Y-9413761D02*
X4011620Y-9394713D01*
X4030667Y-9385190D01*
X4059239Y-9385190D01*
X4078286Y-9394713D01*
X4087810Y-9413761D01*
X4087810Y-9518523D01*
X4478287Y-9308999D02*
X4306858Y-9566142D01*
X4735429Y-9318523D02*
X4754477Y-9318523D01*
X4773525Y-9328047D01*
X4783048Y-9337571D01*
X4792572Y-9356618D01*
X4802096Y-9394713D01*
X4802096Y-9442333D01*
X4792572Y-9480428D01*
X4783048Y-9499475D01*
X4773525Y-9508999D01*
X4754477Y-9518523D01*
X4735429Y-9518523D01*
X4716382Y-9508999D01*
X4706858Y-9499475D01*
X4697334Y-9480428D01*
X4687810Y-9442333D01*
X4687810Y-9394713D01*
X4697334Y-9356618D01*
X4706858Y-9337571D01*
X4716382Y-9328047D01*
X4735429Y-9318523D01*
X4887810Y-9499475D02*
X4897334Y-9508999D01*
X4887810Y-9518523D01*
X4878287Y-9508999D01*
X4887810Y-9499475D01*
X4887810Y-9518523D01*
X5021144Y-9318523D02*
X5040191Y-9318523D01*
X5059239Y-9328047D01*
X5068763Y-9337571D01*
X5078287Y-9356618D01*
X5087810Y-9394713D01*
X5087810Y-9442333D01*
X5078287Y-9480428D01*
X5068763Y-9499475D01*
X5059239Y-9508999D01*
X5040191Y-9518523D01*
X5021144Y-9518523D01*
X5002096Y-9508999D01*
X4992572Y-9499475D01*
X4983048Y-9480428D01*
X4973525Y-9442333D01*
X4973525Y-9394713D01*
X4983048Y-9356618D01*
X4992572Y-9337571D01*
X5002096Y-9328047D01*
X5021144Y-9318523D01*
X5259239Y-9385190D02*
X5259239Y-9518523D01*
X5211620Y-9308999D02*
X5164001Y-9451856D01*
X5287810Y-9451856D01*
X5344953Y-9318523D02*
X5468763Y-9318523D01*
X5402096Y-9394713D01*
X5430667Y-9394713D01*
X5449715Y-9404237D01*
X5459239Y-9413761D01*
X5468763Y-9432809D01*
X5468763Y-9480428D01*
X5459239Y-9499475D01*
X5449715Y-9508999D01*
X5430667Y-9518523D01*
X5373525Y-9518523D01*
X5354477Y-9508999D01*
X5344953Y-9499475D01*
X5535429Y-9318523D02*
X5659239Y-9318523D01*
X5592572Y-9394713D01*
X5621144Y-9394713D01*
X5640191Y-9404237D01*
X5649715Y-9413761D01*
X5659239Y-9432809D01*
X5659239Y-9480428D01*
X5649715Y-9499475D01*
X5640191Y-9508999D01*
X5621144Y-9518523D01*
X5564001Y-9518523D01*
X5544953Y-9508999D01*
X5535429Y-9499475D01*
X5735429Y-9318523D02*
X5735429Y-9356618D01*
X5811620Y-9318523D02*
X5811620Y-9356618D01*
X6106858Y-9594713D02*
X6097334Y-9585190D01*
X6078286Y-9556618D01*
X6068763Y-9537571D01*
X6059239Y-9508999D01*
X6049715Y-9461380D01*
X6049715Y-9423285D01*
X6059239Y-9375666D01*
X6068763Y-9347094D01*
X6078286Y-9328047D01*
X6097334Y-9299475D01*
X6106858Y-9289952D01*
X6173525Y-9337571D02*
X6183048Y-9328047D01*
X6202096Y-9318523D01*
X6249715Y-9318523D01*
X6268763Y-9328047D01*
X6278286Y-9337571D01*
X6287810Y-9356618D01*
X6287810Y-9375666D01*
X6278286Y-9404237D01*
X6164001Y-9518523D01*
X6287810Y-9518523D01*
X6411620Y-9318523D02*
X6430667Y-9318523D01*
X6449715Y-9328047D01*
X6459239Y-9337571D01*
X6468763Y-9356618D01*
X6478286Y-9394713D01*
X6478286Y-9442333D01*
X6468763Y-9480428D01*
X6459239Y-9499475D01*
X6449715Y-9508999D01*
X6430667Y-9518523D01*
X6411620Y-9518523D01*
X6392572Y-9508999D01*
X6383048Y-9499475D01*
X6373525Y-9480428D01*
X6364001Y-9442333D01*
X6364001Y-9394713D01*
X6373525Y-9356618D01*
X6383048Y-9337571D01*
X6392572Y-9328047D01*
X6411620Y-9318523D01*
X6716382Y-9518523D02*
X6716382Y-9318523D01*
X6802096Y-9518523D02*
X6802096Y-9413761D01*
X6792572Y-9394713D01*
X6773525Y-9385190D01*
X6744953Y-9385190D01*
X6725905Y-9394713D01*
X6716382Y-9404237D01*
X6925905Y-9518523D02*
X6906858Y-9508999D01*
X6897334Y-9499475D01*
X6887810Y-9480428D01*
X6887810Y-9423285D01*
X6897334Y-9404237D01*
X6906858Y-9394713D01*
X6925905Y-9385190D01*
X6954477Y-9385190D01*
X6973525Y-9394713D01*
X6983048Y-9404237D01*
X6992572Y-9423285D01*
X6992572Y-9480428D01*
X6983048Y-9499475D01*
X6973525Y-9508999D01*
X6954477Y-9518523D01*
X6925905Y-9518523D01*
X7106858Y-9518523D02*
X7087810Y-9508999D01*
X7078286Y-9489952D01*
X7078286Y-9318523D01*
X7259239Y-9508999D02*
X7240191Y-9518523D01*
X7202096Y-9518523D01*
X7183048Y-9508999D01*
X7173525Y-9489952D01*
X7173525Y-9413761D01*
X7183048Y-9394713D01*
X7202096Y-9385190D01*
X7240191Y-9385190D01*
X7259239Y-9394713D01*
X7268763Y-9413761D01*
X7268763Y-9432809D01*
X7173525Y-9451856D01*
X7344953Y-9508999D02*
X7364001Y-9518523D01*
X7402096Y-9518523D01*
X7421144Y-9508999D01*
X7430667Y-9489952D01*
X7430667Y-9480428D01*
X7421144Y-9461380D01*
X7402096Y-9451856D01*
X7373525Y-9451856D01*
X7354477Y-9442333D01*
X7344953Y-9423285D01*
X7344953Y-9413761D01*
X7354477Y-9394713D01*
X7373525Y-9385190D01*
X7402096Y-9385190D01*
X7421144Y-9394713D01*
X7497334Y-9594713D02*
X7506858Y-9585190D01*
X7525905Y-9556618D01*
X7535429Y-9537571D01*
X7544953Y-9508999D01*
X7554477Y-9461380D01*
X7554477Y-9423285D01*
X7544953Y-9375666D01*
X7535429Y-9347094D01*
X7525905Y-9328047D01*
X7506858Y-9299475D01*
X7497334Y-9289952D01*
M02*
