G04 #@! TF.GenerationSoftware,KiCad,Pcbnew,(6.0.7)*
G04 #@! TF.CreationDate,2023-06-27T13:09:13-07:00*
G04 #@! TF.ProjectId,OBC-Attempt-5_Matcha_2_Layer_3,4f42432d-4174-4746-956d-70742d355f4d,rev?*
G04 #@! TF.SameCoordinates,Original*
G04 #@! TF.FileFunction,Legend,Bot*
G04 #@! TF.FilePolarity,Positive*
%FSLAX46Y46*%
G04 Gerber Fmt 4.6, Leading zero omitted, Abs format (unit mm)*
G04 Created by KiCad (PCBNEW (6.0.7)) date 2023-06-27 13:09:13*
%MOMM*%
%LPD*%
G01*
G04 APERTURE LIST*
%ADD10C,0.300000*%
%ADD11C,0.400000*%
%ADD12C,0.150000*%
%ADD13C,0.120000*%
%ADD14C,3.200000*%
%ADD15C,0.900000*%
%ADD16R,2.200000X2.200000*%
%ADD17C,2.200000*%
%ADD18R,2.000000X2.000000*%
%ADD19C,2.000000*%
%ADD20R,1.700000X1.700000*%
%ADD21O,1.700000X1.700000*%
G04 APERTURE END LIST*
D10*
X70920476Y-72862857D02*
X70825238Y-72577142D01*
X70825238Y-72100952D01*
X70920476Y-71910476D01*
X71015714Y-71815238D01*
X71206190Y-71720000D01*
X71396666Y-71720000D01*
X71587142Y-71815238D01*
X71682380Y-71910476D01*
X71777619Y-72100952D01*
X71872857Y-72481904D01*
X71968095Y-72672380D01*
X72063333Y-72767619D01*
X72253809Y-72862857D01*
X72444285Y-72862857D01*
X72634761Y-72767619D01*
X72730000Y-72672380D01*
X72825238Y-72481904D01*
X72825238Y-72005714D01*
X72730000Y-71720000D01*
X70825238Y-70862857D02*
X72825238Y-70862857D01*
X72825238Y-70386666D01*
X72730000Y-70100952D01*
X72539523Y-69910476D01*
X72349047Y-69815238D01*
X71968095Y-69720000D01*
X71682380Y-69720000D01*
X71301428Y-69815238D01*
X71110952Y-69910476D01*
X70920476Y-70100952D01*
X70825238Y-70386666D01*
X70825238Y-70862857D01*
X70920476Y-68958095D02*
X70825238Y-68672380D01*
X70825238Y-68196190D01*
X70920476Y-68005714D01*
X71015714Y-67910476D01*
X71206190Y-67815238D01*
X71396666Y-67815238D01*
X71587142Y-67910476D01*
X71682380Y-68005714D01*
X71777619Y-68196190D01*
X71872857Y-68577142D01*
X71968095Y-68767619D01*
X72063333Y-68862857D01*
X72253809Y-68958095D01*
X72444285Y-68958095D01*
X72634761Y-68862857D01*
X72730000Y-68767619D01*
X72825238Y-68577142D01*
X72825238Y-68100952D01*
X72730000Y-67815238D01*
X72825238Y-66958095D02*
X71206190Y-66958095D01*
X71015714Y-66862857D01*
X70920476Y-66767619D01*
X70825238Y-66577142D01*
X70825238Y-66196190D01*
X70920476Y-66005714D01*
X71015714Y-65910476D01*
X71206190Y-65815238D01*
X72825238Y-65815238D01*
X70825238Y-63720000D02*
X71777619Y-64386666D01*
X70825238Y-64862857D02*
X72825238Y-64862857D01*
X72825238Y-64100952D01*
X72730000Y-63910476D01*
X72634761Y-63815238D01*
X72444285Y-63720000D01*
X72158571Y-63720000D01*
X71968095Y-63815238D01*
X71872857Y-63910476D01*
X71777619Y-64100952D01*
X71777619Y-64862857D01*
X70825238Y-62862857D02*
X72825238Y-62862857D01*
X72825238Y-62100952D01*
X72730000Y-61910476D01*
X72634761Y-61815238D01*
X72444285Y-61720000D01*
X72158571Y-61720000D01*
X71968095Y-61815238D01*
X71872857Y-61910476D01*
X71777619Y-62100952D01*
X71777619Y-62862857D01*
X72634761Y-59434285D02*
X72730000Y-59339047D01*
X72825238Y-59148571D01*
X72825238Y-58672380D01*
X72730000Y-58481904D01*
X72634761Y-58386666D01*
X72444285Y-58291428D01*
X72253809Y-58291428D01*
X71968095Y-58386666D01*
X70825238Y-59529523D01*
X70825238Y-58291428D01*
X72825238Y-57053333D02*
X72825238Y-56862857D01*
X72730000Y-56672380D01*
X72634761Y-56577142D01*
X72444285Y-56481904D01*
X72063333Y-56386666D01*
X71587142Y-56386666D01*
X71206190Y-56481904D01*
X71015714Y-56577142D01*
X70920476Y-56672380D01*
X70825238Y-56862857D01*
X70825238Y-57053333D01*
X70920476Y-57243809D01*
X71015714Y-57339047D01*
X71206190Y-57434285D01*
X71587142Y-57529523D01*
X72063333Y-57529523D01*
X72444285Y-57434285D01*
X72634761Y-57339047D01*
X72730000Y-57243809D01*
X72825238Y-57053333D01*
X72634761Y-55624761D02*
X72730000Y-55529523D01*
X72825238Y-55339047D01*
X72825238Y-54862857D01*
X72730000Y-54672380D01*
X72634761Y-54577142D01*
X72444285Y-54481904D01*
X72253809Y-54481904D01*
X71968095Y-54577142D01*
X70825238Y-55720000D01*
X70825238Y-54481904D01*
X72825238Y-53815238D02*
X72825238Y-52577142D01*
X72063333Y-53243809D01*
X72063333Y-52958095D01*
X71968095Y-52767619D01*
X71872857Y-52672380D01*
X71682380Y-52577142D01*
X71206190Y-52577142D01*
X71015714Y-52672380D01*
X70920476Y-52767619D01*
X70825238Y-52958095D01*
X70825238Y-53529523D01*
X70920476Y-53720000D01*
X71015714Y-53815238D01*
X77205238Y-71870476D02*
X79205238Y-71870476D01*
X77776666Y-71203809D01*
X79205238Y-70537142D01*
X77205238Y-70537142D01*
X77776666Y-69680000D02*
X77776666Y-68727619D01*
X77205238Y-69870476D02*
X79205238Y-69203809D01*
X77205238Y-68537142D01*
X79205238Y-68156190D02*
X79205238Y-67013333D01*
X77205238Y-67584761D02*
X79205238Y-67584761D01*
X77395714Y-65203809D02*
X77300476Y-65299047D01*
X77205238Y-65584761D01*
X77205238Y-65775238D01*
X77300476Y-66060952D01*
X77490952Y-66251428D01*
X77681428Y-66346666D01*
X78062380Y-66441904D01*
X78348095Y-66441904D01*
X78729047Y-66346666D01*
X78919523Y-66251428D01*
X79110000Y-66060952D01*
X79205238Y-65775238D01*
X79205238Y-65584761D01*
X79110000Y-65299047D01*
X79014761Y-65203809D01*
X77205238Y-64346666D02*
X79205238Y-64346666D01*
X78252857Y-64346666D02*
X78252857Y-63203809D01*
X77205238Y-63203809D02*
X79205238Y-63203809D01*
X77776666Y-62346666D02*
X77776666Y-61394285D01*
X77205238Y-62537142D02*
X79205238Y-61870476D01*
X77205238Y-61203809D01*
X79205238Y-59299047D02*
X77205238Y-58632380D01*
X79205238Y-57965714D01*
X79205238Y-57489523D02*
X79205238Y-56251428D01*
X78443333Y-56918095D01*
X78443333Y-56632380D01*
X78348095Y-56441904D01*
X78252857Y-56346666D01*
X78062380Y-56251428D01*
X77586190Y-56251428D01*
X77395714Y-56346666D01*
X77300476Y-56441904D01*
X77205238Y-56632380D01*
X77205238Y-57203809D01*
X77300476Y-57394285D01*
X77395714Y-57489523D01*
X77395714Y-55394285D02*
X77300476Y-55299047D01*
X77205238Y-55394285D01*
X77300476Y-55489523D01*
X77395714Y-55394285D01*
X77205238Y-55394285D01*
X79205238Y-54060952D02*
X79205238Y-53870476D01*
X79110000Y-53679999D01*
X79014761Y-53584761D01*
X78824285Y-53489523D01*
X78443333Y-53394285D01*
X77967142Y-53394285D01*
X77586190Y-53489523D01*
X77395714Y-53584761D01*
X77300476Y-53679999D01*
X77205238Y-53870476D01*
X77205238Y-54060952D01*
X77300476Y-54251428D01*
X77395714Y-54346666D01*
X77586190Y-54441904D01*
X77967142Y-54537142D01*
X78443333Y-54537142D01*
X78824285Y-54441904D01*
X79014761Y-54346666D01*
X79110000Y-54251428D01*
X79205238Y-54060952D01*
D11*
X64999523Y-67800000D02*
X65190000Y-67704761D01*
X65475714Y-67704761D01*
X65761428Y-67800000D01*
X65951904Y-67990476D01*
X66047142Y-68180952D01*
X66142380Y-68561904D01*
X66142380Y-68847619D01*
X66047142Y-69228571D01*
X65951904Y-69419047D01*
X65761428Y-69609523D01*
X65475714Y-69704761D01*
X65285238Y-69704761D01*
X64999523Y-69609523D01*
X64904285Y-69514285D01*
X64904285Y-68847619D01*
X65285238Y-68847619D01*
X63666190Y-67704761D02*
X63285238Y-67704761D01*
X63094761Y-67800000D01*
X62904285Y-67990476D01*
X62809047Y-68371428D01*
X62809047Y-69038095D01*
X62904285Y-69419047D01*
X63094761Y-69609523D01*
X63285238Y-69704761D01*
X63666190Y-69704761D01*
X63856666Y-69609523D01*
X64047142Y-69419047D01*
X64142380Y-69038095D01*
X64142380Y-68371428D01*
X64047142Y-67990476D01*
X63856666Y-67800000D01*
X63666190Y-67704761D01*
X60523333Y-69609523D02*
X60237619Y-69704761D01*
X59761428Y-69704761D01*
X59570952Y-69609523D01*
X59475714Y-69514285D01*
X59380476Y-69323809D01*
X59380476Y-69133333D01*
X59475714Y-68942857D01*
X59570952Y-68847619D01*
X59761428Y-68752380D01*
X60142380Y-68657142D01*
X60332857Y-68561904D01*
X60428095Y-68466666D01*
X60523333Y-68276190D01*
X60523333Y-68085714D01*
X60428095Y-67895238D01*
X60332857Y-67800000D01*
X60142380Y-67704761D01*
X59666190Y-67704761D01*
X59380476Y-67800000D01*
X58618571Y-69133333D02*
X57666190Y-69133333D01*
X58809047Y-69704761D02*
X58142380Y-67704761D01*
X57475714Y-69704761D01*
X56809047Y-69704761D02*
X56809047Y-67704761D01*
X55666190Y-69704761D01*
X55666190Y-67704761D01*
X53190000Y-69704761D02*
X53190000Y-67704761D01*
X52713809Y-67704761D01*
X52428095Y-67800000D01*
X52237619Y-67990476D01*
X52142380Y-68180952D01*
X52047142Y-68561904D01*
X52047142Y-68847619D01*
X52142380Y-69228571D01*
X52237619Y-69419047D01*
X52428095Y-69609523D01*
X52713809Y-69704761D01*
X53190000Y-69704761D01*
X51190000Y-69704761D02*
X51190000Y-67704761D01*
X50237619Y-68657142D02*
X49570952Y-68657142D01*
X49285238Y-69704761D02*
X50237619Y-69704761D01*
X50237619Y-67704761D01*
X49285238Y-67704761D01*
X47380476Y-67800000D02*
X47570952Y-67704761D01*
X47856666Y-67704761D01*
X48142380Y-67800000D01*
X48332857Y-67990476D01*
X48428095Y-68180952D01*
X48523333Y-68561904D01*
X48523333Y-68847619D01*
X48428095Y-69228571D01*
X48332857Y-69419047D01*
X48142380Y-69609523D01*
X47856666Y-69704761D01*
X47666190Y-69704761D01*
X47380476Y-69609523D01*
X47285238Y-69514285D01*
X47285238Y-68847619D01*
X47666190Y-68847619D01*
X46047142Y-67704761D02*
X45666190Y-67704761D01*
X45475714Y-67800000D01*
X45285238Y-67990476D01*
X45190000Y-68371428D01*
X45190000Y-69038095D01*
X45285238Y-69419047D01*
X45475714Y-69609523D01*
X45666190Y-69704761D01*
X46047142Y-69704761D01*
X46237619Y-69609523D01*
X46428095Y-69419047D01*
X46523333Y-69038095D01*
X46523333Y-68371428D01*
X46428095Y-67990476D01*
X46237619Y-67800000D01*
X46047142Y-67704761D01*
X44332857Y-69514285D02*
X44237619Y-69609523D01*
X44332857Y-69704761D01*
X44428095Y-69609523D01*
X44332857Y-69514285D01*
X44332857Y-69704761D01*
X44332857Y-68942857D02*
X44428095Y-67800000D01*
X44332857Y-67704761D01*
X44237619Y-67800000D01*
X44332857Y-68942857D01*
X44332857Y-67704761D01*
X63178571Y-62630000D02*
X63369047Y-62534761D01*
X63654761Y-62534761D01*
X63940476Y-62630000D01*
X64130952Y-62820476D01*
X64226190Y-63010952D01*
X64321428Y-63391904D01*
X64321428Y-63677619D01*
X64226190Y-64058571D01*
X64130952Y-64249047D01*
X63940476Y-64439523D01*
X63654761Y-64534761D01*
X63464285Y-64534761D01*
X63178571Y-64439523D01*
X63083333Y-64344285D01*
X63083333Y-63677619D01*
X63464285Y-63677619D01*
X61845238Y-62534761D02*
X61464285Y-62534761D01*
X61273809Y-62630000D01*
X61083333Y-62820476D01*
X60988095Y-63201428D01*
X60988095Y-63868095D01*
X61083333Y-64249047D01*
X61273809Y-64439523D01*
X61464285Y-64534761D01*
X61845238Y-64534761D01*
X62035714Y-64439523D01*
X62226190Y-64249047D01*
X62321428Y-63868095D01*
X62321428Y-63201428D01*
X62226190Y-62820476D01*
X62035714Y-62630000D01*
X61845238Y-62534761D01*
X58607142Y-64534761D02*
X58607142Y-62534761D01*
X57464285Y-64534761D02*
X58321428Y-63391904D01*
X57464285Y-62534761D02*
X58607142Y-63677619D01*
X56702380Y-63963333D02*
X55750000Y-63963333D01*
X56892857Y-64534761D02*
X56226190Y-62534761D01*
X55559523Y-64534761D01*
X53750000Y-64534761D02*
X54416666Y-63582380D01*
X54892857Y-64534761D02*
X54892857Y-62534761D01*
X54130952Y-62534761D01*
X53940476Y-62630000D01*
X53845238Y-62725238D01*
X53750000Y-62915714D01*
X53750000Y-63201428D01*
X53845238Y-63391904D01*
X53940476Y-63487142D01*
X54130952Y-63582380D01*
X54892857Y-63582380D01*
X52892857Y-64534761D02*
X52892857Y-62534761D01*
X52226190Y-63963333D01*
X51559523Y-62534761D01*
X51559523Y-64534761D01*
X50702380Y-63963333D02*
X49750000Y-63963333D01*
X50892857Y-64534761D02*
X50226190Y-62534761D01*
X49559523Y-64534761D01*
X48892857Y-64534761D02*
X48892857Y-62534761D01*
X47750000Y-64534761D01*
X47750000Y-62534761D01*
X46797619Y-64344285D02*
X46702380Y-64439523D01*
X46797619Y-64534761D01*
X46892857Y-64439523D01*
X46797619Y-64344285D01*
X46797619Y-64534761D01*
X46797619Y-63772857D02*
X46892857Y-62630000D01*
X46797619Y-62534761D01*
X46702380Y-62630000D01*
X46797619Y-63772857D01*
X46797619Y-62534761D01*
D10*
X34642857Y-70747142D02*
X34642857Y-69604285D01*
X34071428Y-66890000D02*
X34785714Y-67390000D01*
X34071428Y-67747142D02*
X35571428Y-67747142D01*
X35571428Y-67175714D01*
X35500000Y-67032857D01*
X35428571Y-66961428D01*
X35285714Y-66890000D01*
X35071428Y-66890000D01*
X34928571Y-66961428D01*
X34857142Y-67032857D01*
X34785714Y-67175714D01*
X34785714Y-67747142D01*
X34214285Y-65390000D02*
X34142857Y-65461428D01*
X34071428Y-65675714D01*
X34071428Y-65818571D01*
X34142857Y-66032857D01*
X34285714Y-66175714D01*
X34428571Y-66247142D01*
X34714285Y-66318571D01*
X34928571Y-66318571D01*
X35214285Y-66247142D01*
X35357142Y-66175714D01*
X35500000Y-66032857D01*
X35571428Y-65818571D01*
X35571428Y-65675714D01*
X35500000Y-65461428D01*
X35428571Y-65390000D01*
X34142857Y-64818571D02*
X34071428Y-64604285D01*
X34071428Y-64247142D01*
X34142857Y-64104285D01*
X34214285Y-64032857D01*
X34357142Y-63961428D01*
X34500000Y-63961428D01*
X34642857Y-64032857D01*
X34714285Y-64104285D01*
X34785714Y-64247142D01*
X34857142Y-64532857D01*
X34928571Y-64675714D01*
X35000000Y-64747142D01*
X35142857Y-64818571D01*
X35285714Y-64818571D01*
X35428571Y-64747142D01*
X35500000Y-64675714D01*
X35571428Y-64532857D01*
X35571428Y-64175714D01*
X35500000Y-63961428D01*
X74396666Y-72106665D02*
X74396666Y-71154284D01*
X73825238Y-72297141D02*
X75825238Y-71630475D01*
X73825238Y-70963808D01*
X73825238Y-69344760D02*
X73825238Y-70297141D01*
X75825238Y-70297141D01*
X74872857Y-68678094D02*
X74872857Y-68011427D01*
X73825238Y-67725713D02*
X73825238Y-68678094D01*
X75825238Y-68678094D01*
X75825238Y-67725713D01*
X75825238Y-67059046D02*
X73825238Y-65725713D01*
X75825238Y-65725713D02*
X73825238Y-67059046D01*
X74396666Y-63535237D02*
X74396666Y-62582856D01*
X73825238Y-63725713D02*
X75825238Y-63059046D01*
X73825238Y-62392379D01*
X74396666Y-61820951D02*
X74396666Y-60868570D01*
X73825238Y-62011427D02*
X75825238Y-61344760D01*
X73825238Y-60678094D01*
X73825238Y-58868570D02*
X74777619Y-59535237D01*
X73825238Y-60011427D02*
X75825238Y-60011427D01*
X75825238Y-59249522D01*
X75730000Y-59059046D01*
X75634761Y-58963808D01*
X75444285Y-58868570D01*
X75158571Y-58868570D01*
X74968095Y-58963808D01*
X74872857Y-59059046D01*
X74777619Y-59249522D01*
X74777619Y-60011427D01*
X73825238Y-58011427D02*
X75825238Y-58011427D01*
X74872857Y-58011427D02*
X74872857Y-56868570D01*
X73825238Y-56868570D02*
X75825238Y-56868570D01*
X75825238Y-55916189D02*
X74206190Y-55916189D01*
X74015714Y-55820951D01*
X73920476Y-55725713D01*
X73825238Y-55535237D01*
X73825238Y-55154284D01*
X73920476Y-54963808D01*
X74015714Y-54868570D01*
X74206190Y-54773332D01*
X75825238Y-54773332D01*
X73920476Y-53916189D02*
X73825238Y-53630475D01*
X73825238Y-53154284D01*
X73920476Y-52963808D01*
X74015714Y-52868570D01*
X74206190Y-52773332D01*
X74396666Y-52773332D01*
X74587142Y-52868570D01*
X74682380Y-52963808D01*
X74777619Y-53154284D01*
X74872857Y-53535237D01*
X74968095Y-53725713D01*
X75063333Y-53820951D01*
X75253809Y-53916189D01*
X75444285Y-53916189D01*
X75634761Y-53820951D01*
X75730000Y-53725713D01*
X75825238Y-53535237D01*
X75825238Y-53059046D01*
X75730000Y-52773332D01*
D11*
X36432857Y-70651428D02*
X39432857Y-70651428D01*
X39432857Y-69508571D01*
X39290000Y-69222857D01*
X39147142Y-69080000D01*
X38861428Y-68937142D01*
X38432857Y-68937142D01*
X38147142Y-69080000D01*
X38004285Y-69222857D01*
X37861428Y-69508571D01*
X37861428Y-70651428D01*
X36575714Y-67794285D02*
X36432857Y-67365714D01*
X36432857Y-66651428D01*
X36575714Y-66365714D01*
X36718571Y-66222857D01*
X37004285Y-66080000D01*
X37290000Y-66080000D01*
X37575714Y-66222857D01*
X37718571Y-66365714D01*
X37861428Y-66651428D01*
X38004285Y-67222857D01*
X38147142Y-67508571D01*
X38290000Y-67651428D01*
X38575714Y-67794285D01*
X38861428Y-67794285D01*
X39147142Y-67651428D01*
X39290000Y-67508571D01*
X39432857Y-67222857D01*
X39432857Y-66508571D01*
X39290000Y-66080000D01*
X36432857Y-64794285D02*
X39432857Y-64794285D01*
X38004285Y-64794285D02*
X38004285Y-63080000D01*
X36432857Y-63080000D02*
X39432857Y-63080000D01*
X36432857Y-61651428D02*
X39432857Y-61651428D01*
X38004285Y-61651428D02*
X38004285Y-59937142D01*
X36432857Y-59937142D02*
X39432857Y-59937142D01*
X36432857Y-58508571D02*
X39432857Y-58508571D01*
X38004285Y-58508571D02*
X38004285Y-56794285D01*
X36432857Y-56794285D02*
X39432857Y-56794285D01*
X36432857Y-55365714D02*
X39432857Y-55365714D01*
X38004285Y-55365714D02*
X38004285Y-53651428D01*
X36432857Y-53651428D02*
X39432857Y-53651428D01*
X36432857Y-52222857D02*
X39432857Y-52222857D01*
X38004285Y-52222857D02*
X38004285Y-50508571D01*
X36432857Y-50508571D02*
X39432857Y-50508571D01*
X36432857Y-49080000D02*
X39432857Y-49080000D01*
X38004285Y-49080000D02*
X38004285Y-47365714D01*
X36432857Y-47365714D02*
X39432857Y-47365714D01*
X36432857Y-45937142D02*
X39432857Y-45937142D01*
X38004285Y-45937142D02*
X38004285Y-44222857D01*
X36432857Y-44222857D02*
X39432857Y-44222857D01*
X36432857Y-42794285D02*
X39432857Y-42794285D01*
X38004285Y-42794285D02*
X38004285Y-41080000D01*
X36432857Y-41080000D02*
X39432857Y-41080000D01*
X36432857Y-39651428D02*
X39432857Y-39651428D01*
X38004285Y-39651428D02*
X38004285Y-37937142D01*
X36432857Y-37937142D02*
X39432857Y-37937142D01*
X36718571Y-36508571D02*
X36575714Y-36365714D01*
X36432857Y-36508571D01*
X36575714Y-36651428D01*
X36718571Y-36508571D01*
X36432857Y-36508571D01*
X37575714Y-36508571D02*
X39290000Y-36651428D01*
X39432857Y-36508571D01*
X39290000Y-36365714D01*
X37575714Y-36508571D01*
X39432857Y-36508571D01*
D12*
X63817857Y-55679285D02*
X63817857Y-54929285D01*
X63639285Y-54929285D01*
X63532142Y-54965000D01*
X63460714Y-55036428D01*
X63425000Y-55107857D01*
X63389285Y-55250714D01*
X63389285Y-55357857D01*
X63425000Y-55500714D01*
X63460714Y-55572142D01*
X63532142Y-55643571D01*
X63639285Y-55679285D01*
X63817857Y-55679285D01*
X63067857Y-55679285D02*
X63067857Y-54929285D01*
X62567857Y-54929285D02*
X62425000Y-54929285D01*
X62353571Y-54965000D01*
X62282142Y-55036428D01*
X62246428Y-55179285D01*
X62246428Y-55429285D01*
X62282142Y-55572142D01*
X62353571Y-55643571D01*
X62425000Y-55679285D01*
X62567857Y-55679285D01*
X62639285Y-55643571D01*
X62710714Y-55572142D01*
X62746428Y-55429285D01*
X62746428Y-55179285D01*
X62710714Y-55036428D01*
X62639285Y-54965000D01*
X62567857Y-54929285D01*
X62971971Y-57449000D02*
X63043400Y-57413285D01*
X63150542Y-57413285D01*
X63257685Y-57449000D01*
X63329114Y-57520428D01*
X63364828Y-57591857D01*
X63400542Y-57734714D01*
X63400542Y-57841857D01*
X63364828Y-57984714D01*
X63329114Y-58056142D01*
X63257685Y-58127571D01*
X63150542Y-58163285D01*
X63079114Y-58163285D01*
X62971971Y-58127571D01*
X62936257Y-58091857D01*
X62936257Y-57841857D01*
X63079114Y-57841857D01*
X66894828Y-48011857D02*
X66930542Y-48047571D01*
X67037685Y-48083285D01*
X67109114Y-48083285D01*
X67216257Y-48047571D01*
X67287685Y-47976142D01*
X67323400Y-47904714D01*
X67359114Y-47761857D01*
X67359114Y-47654714D01*
X67323400Y-47511857D01*
X67287685Y-47440428D01*
X67216257Y-47369000D01*
X67109114Y-47333285D01*
X67037685Y-47333285D01*
X66930542Y-47369000D01*
X66894828Y-47404714D01*
X66216257Y-48083285D02*
X66573400Y-48083285D01*
X66573400Y-47333285D01*
X65966257Y-48083285D02*
X65966257Y-47333285D01*
X65537685Y-48083285D02*
X65859114Y-47654714D01*
X65537685Y-47333285D02*
X65966257Y-47761857D01*
X63725714Y-52969285D02*
X63261428Y-52969285D01*
X63511428Y-53255000D01*
X63404285Y-53255000D01*
X63332857Y-53290714D01*
X63297142Y-53326428D01*
X63261428Y-53397857D01*
X63261428Y-53576428D01*
X63297142Y-53647857D01*
X63332857Y-53683571D01*
X63404285Y-53719285D01*
X63618571Y-53719285D01*
X63690000Y-53683571D01*
X63725714Y-53647857D01*
X62940000Y-53647857D02*
X62904285Y-53683571D01*
X62940000Y-53719285D01*
X62975714Y-53683571D01*
X62940000Y-53647857D01*
X62940000Y-53719285D01*
X62654285Y-52969285D02*
X62190000Y-52969285D01*
X62440000Y-53255000D01*
X62332857Y-53255000D01*
X62261428Y-53290714D01*
X62225714Y-53326428D01*
X62190000Y-53397857D01*
X62190000Y-53576428D01*
X62225714Y-53647857D01*
X62261428Y-53683571D01*
X62332857Y-53719285D01*
X62547142Y-53719285D01*
X62618571Y-53683571D01*
X62654285Y-53647857D01*
X38683333Y-32672380D02*
X38683333Y-33386666D01*
X38730952Y-33529523D01*
X38826190Y-33624761D01*
X38969047Y-33672380D01*
X39064285Y-33672380D01*
X38064285Y-33100952D02*
X38159523Y-33053333D01*
X38207142Y-33005714D01*
X38254761Y-32910476D01*
X38254761Y-32862857D01*
X38207142Y-32767619D01*
X38159523Y-32720000D01*
X38064285Y-32672380D01*
X37873809Y-32672380D01*
X37778571Y-32720000D01*
X37730952Y-32767619D01*
X37683333Y-32862857D01*
X37683333Y-32910476D01*
X37730952Y-33005714D01*
X37778571Y-33053333D01*
X37873809Y-33100952D01*
X38064285Y-33100952D01*
X38159523Y-33148571D01*
X38207142Y-33196190D01*
X38254761Y-33291428D01*
X38254761Y-33481904D01*
X38207142Y-33577142D01*
X38159523Y-33624761D01*
X38064285Y-33672380D01*
X37873809Y-33672380D01*
X37778571Y-33624761D01*
X37730952Y-33577142D01*
X37683333Y-33481904D01*
X37683333Y-33291428D01*
X37730952Y-33196190D01*
X37778571Y-33148571D01*
X37873809Y-33100952D01*
X76990952Y-50978571D02*
X76848095Y-51026190D01*
X76800476Y-51073809D01*
X76752857Y-51169047D01*
X76752857Y-51311904D01*
X76800476Y-51407142D01*
X76848095Y-51454761D01*
X76943333Y-51502380D01*
X77324285Y-51502380D01*
X77324285Y-50502380D01*
X76990952Y-50502380D01*
X76895714Y-50550000D01*
X76848095Y-50597619D01*
X76800476Y-50692857D01*
X76800476Y-50788095D01*
X76848095Y-50883333D01*
X76895714Y-50930952D01*
X76990952Y-50978571D01*
X77324285Y-50978571D01*
X76419523Y-50502380D02*
X75752857Y-50502380D01*
X76419523Y-51502380D01*
X75752857Y-51502380D01*
X74848095Y-51502380D02*
X75419523Y-51502380D01*
X75133809Y-51502380D02*
X75133809Y-50502380D01*
X75229047Y-50645238D01*
X75324285Y-50740476D01*
X75419523Y-50788095D01*
X66083333Y-59362380D02*
X66083333Y-60076666D01*
X66130952Y-60219523D01*
X66226190Y-60314761D01*
X66369047Y-60362380D01*
X66464285Y-60362380D01*
X65130952Y-59362380D02*
X65607142Y-59362380D01*
X65654761Y-59838571D01*
X65607142Y-59790952D01*
X65511904Y-59743333D01*
X65273809Y-59743333D01*
X65178571Y-59790952D01*
X65130952Y-59838571D01*
X65083333Y-59933809D01*
X65083333Y-60171904D01*
X65130952Y-60267142D01*
X65178571Y-60314761D01*
X65273809Y-60362380D01*
X65511904Y-60362380D01*
X65607142Y-60314761D01*
X65654761Y-60267142D01*
X32732380Y-49166666D02*
X33446666Y-49166666D01*
X33589523Y-49119047D01*
X33684761Y-49023809D01*
X33732380Y-48880952D01*
X33732380Y-48785714D01*
X32827619Y-49595238D02*
X32780000Y-49642857D01*
X32732380Y-49738095D01*
X32732380Y-49976190D01*
X32780000Y-50071428D01*
X32827619Y-50119047D01*
X32922857Y-50166666D01*
X33018095Y-50166666D01*
X33160952Y-50119047D01*
X33732380Y-49547619D01*
X33732380Y-50166666D01*
X55773733Y-74128980D02*
X55773733Y-74843266D01*
X55821352Y-74986123D01*
X55916590Y-75081361D01*
X56059447Y-75128980D01*
X56154685Y-75128980D01*
X55392780Y-74128980D02*
X54773733Y-74128980D01*
X55107066Y-74509933D01*
X54964209Y-74509933D01*
X54868971Y-74557552D01*
X54821352Y-74605171D01*
X54773733Y-74700409D01*
X54773733Y-74938504D01*
X54821352Y-75033742D01*
X54868971Y-75081361D01*
X54964209Y-75128980D01*
X55249923Y-75128980D01*
X55345161Y-75081361D01*
X55392780Y-75033742D01*
X56303333Y-32612380D02*
X56303333Y-33326666D01*
X56350952Y-33469523D01*
X56446190Y-33564761D01*
X56589047Y-33612380D01*
X56684285Y-33612380D01*
X55922380Y-32612380D02*
X55255714Y-32612380D01*
X55684285Y-33612380D01*
D13*
X35520000Y-31760000D02*
X41180000Y-31760000D01*
X35520000Y-32220000D02*
X41180000Y-32220000D01*
X41180000Y-32220000D02*
X41180000Y-25900000D01*
X40410000Y-26460000D02*
X41180000Y-26460000D01*
X35280000Y-26400000D02*
X35280000Y-25660000D01*
X40410000Y-25900000D02*
X41180000Y-25900000D01*
X35520000Y-25900000D02*
X40580000Y-25900000D01*
X35280000Y-25660000D02*
X35780000Y-25660000D01*
X35520000Y-26460000D02*
X40440000Y-26460000D01*
X35520000Y-32220000D02*
X35520000Y-25900000D01*
X69710000Y-42380001D02*
G75*
G03*
X69710000Y-45380000I6400000J-1499999D01*
G01*
X82340000Y-43880000D02*
G75*
G03*
X82340000Y-43880000I-6230000J0D01*
G01*
X67030000Y-51420000D02*
X67030000Y-59100000D01*
X67030000Y-51420000D02*
X64370000Y-51420000D01*
X67030000Y-50150000D02*
X67030000Y-48820000D01*
X64370000Y-51420000D02*
X64370000Y-59100000D01*
X67030000Y-59100000D02*
X64370000Y-59100000D01*
X67030000Y-48820000D02*
X65700000Y-48820000D01*
X32280000Y-59950000D02*
X25960000Y-59950000D01*
X32280000Y-39049000D02*
X25960000Y-39049000D01*
X25720000Y-60190000D02*
X25720000Y-59690000D01*
X25960000Y-59950000D02*
X25960000Y-39049000D01*
X31820000Y-59950000D02*
X31820000Y-39049000D01*
X26460000Y-60190000D02*
X25720000Y-60190000D01*
X26520000Y-59950000D02*
X26520000Y-39049000D01*
X32280000Y-59950000D02*
X32280000Y-39049000D01*
X66130400Y-82236600D02*
X65630400Y-82236600D01*
X66130400Y-81496600D02*
X66130400Y-82236600D01*
X65890400Y-75676600D02*
X44989400Y-75676600D01*
X44989400Y-75676600D02*
X44989400Y-81996600D01*
X65890400Y-75676600D02*
X65890400Y-81996600D01*
X65890400Y-76136600D02*
X44989400Y-76136600D01*
X65890400Y-81436600D02*
X44989400Y-81436600D01*
X65890400Y-81996600D02*
X44989400Y-81996600D01*
X58030000Y-26400000D02*
X58800000Y-26400000D01*
X53140000Y-31700000D02*
X58800000Y-31700000D01*
X52900000Y-26340000D02*
X52900000Y-25600000D01*
X58030000Y-25840000D02*
X58800000Y-25840000D01*
X52900000Y-25600000D02*
X53400000Y-25600000D01*
X53140000Y-25840000D02*
X58190000Y-25840000D01*
X53140000Y-32160000D02*
X58800000Y-32160000D01*
X53140000Y-32160000D02*
X53140000Y-25840000D01*
X58800000Y-32160000D02*
X58800000Y-25840000D01*
X53140000Y-26400000D02*
X58130000Y-26400000D01*
%LPC*%
D14*
X76200000Y-76200000D03*
X31750000Y-31750000D03*
X76200000Y-31750000D03*
X31750000Y-76200000D03*
D15*
X69699340Y-34929340D03*
X71820660Y-37050660D03*
D16*
X37080000Y-29060000D03*
D17*
X39620000Y-29060000D03*
D18*
X73610000Y-43880000D03*
D19*
X78610000Y-43880000D03*
D20*
X65700000Y-50150000D03*
D21*
X65700000Y-52690000D03*
X65700000Y-55230000D03*
X65700000Y-57770000D03*
D16*
X29120000Y-58390000D03*
D17*
X29120000Y-55850000D03*
X29120000Y-53310000D03*
X29120000Y-50770000D03*
X29120000Y-48230000D03*
X29120000Y-45690000D03*
X29120000Y-43150000D03*
X29120000Y-40610000D03*
D16*
X64330400Y-78836600D03*
D17*
X61790400Y-78836600D03*
X59250400Y-78836600D03*
X56710400Y-78836600D03*
X54170400Y-78836600D03*
X51630400Y-78836600D03*
X49090400Y-78836600D03*
X46550400Y-78836600D03*
D16*
X54700000Y-29000000D03*
D17*
X57240000Y-29000000D03*
M02*
