G04 #@! TF.GenerationSoftware,KiCad,Pcbnew,(6.0.7)*
G04 #@! TF.CreationDate,2023-06-27T13:09:13-07:00*
G04 #@! TF.ProjectId,OBC-Attempt-5_Matcha_2_Layer_3,4f42432d-4174-4746-956d-70742d355f4d,rev?*
G04 #@! TF.SameCoordinates,Original*
G04 #@! TF.FileFunction,Copper,L2,Bot*
G04 #@! TF.FilePolarity,Positive*
%FSLAX46Y46*%
G04 Gerber Fmt 4.6, Leading zero omitted, Abs format (unit mm)*
G04 Created by KiCad (PCBNEW (6.0.7)) date 2023-06-27 13:09:13*
%MOMM*%
%LPD*%
G01*
G04 APERTURE LIST*
G04 #@! TA.AperFunction,ComponentPad*
%ADD10R,2.200000X2.200000*%
G04 #@! TD*
G04 #@! TA.AperFunction,ComponentPad*
%ADD11C,2.200000*%
G04 #@! TD*
G04 #@! TA.AperFunction,ComponentPad*
%ADD12R,2.000000X2.000000*%
G04 #@! TD*
G04 #@! TA.AperFunction,ComponentPad*
%ADD13C,2.000000*%
G04 #@! TD*
G04 #@! TA.AperFunction,ComponentPad*
%ADD14R,1.700000X1.700000*%
G04 #@! TD*
G04 #@! TA.AperFunction,ComponentPad*
%ADD15O,1.700000X1.700000*%
G04 #@! TD*
G04 #@! TA.AperFunction,ViaPad*
%ADD16C,0.800000*%
G04 #@! TD*
G04 #@! TA.AperFunction,Conductor*
%ADD17C,0.500000*%
G04 #@! TD*
G04 #@! TA.AperFunction,Conductor*
%ADD18C,0.300000*%
G04 #@! TD*
G04 APERTURE END LIST*
D10*
X37080000Y-29060000D03*
D11*
X39620000Y-29060000D03*
D12*
X73610000Y-43880000D03*
D13*
X78610000Y-43880000D03*
D14*
X65700000Y-50150000D03*
D15*
X65700000Y-52690000D03*
X65700000Y-55230000D03*
X65700000Y-57770000D03*
D10*
X29120000Y-58390000D03*
D11*
X29120000Y-55850000D03*
X29120000Y-53310000D03*
X29120000Y-50770000D03*
X29120000Y-48230000D03*
X29120000Y-45690000D03*
X29120000Y-43150000D03*
X29120000Y-40610000D03*
D10*
X64330400Y-78836600D03*
D11*
X61790400Y-78836600D03*
X59250400Y-78836600D03*
X56710400Y-78836600D03*
X54170400Y-78836600D03*
X51630400Y-78836600D03*
X49090400Y-78836600D03*
X46550400Y-78836600D03*
D10*
X54700000Y-29000000D03*
D11*
X57240000Y-29000000D03*
D16*
X59790000Y-31620000D03*
X50030000Y-30830000D03*
X64100000Y-73250000D03*
X76510000Y-57420000D03*
X55650000Y-56240000D03*
X58360000Y-65990000D03*
X57150000Y-36840000D03*
X41950000Y-38960000D03*
X50890000Y-30850000D03*
X65580000Y-66080000D03*
X42030000Y-53160000D03*
X62610000Y-35770000D03*
X43780000Y-32550000D03*
X34900000Y-51720000D03*
X61750000Y-48250000D03*
X52280000Y-37560000D03*
X44370000Y-66110000D03*
X52140000Y-56260000D03*
X56950000Y-73250000D03*
X34900000Y-58790000D03*
X54120000Y-47040000D03*
X63130000Y-37690000D03*
X64190000Y-34010000D03*
X62570000Y-41030000D03*
X49840000Y-73240000D03*
X54070000Y-40880000D03*
X51380000Y-51200000D03*
X43270000Y-34520000D03*
X41980000Y-60270000D03*
X67970000Y-41070000D03*
X65600000Y-38480000D03*
X53420000Y-57260000D03*
X42750000Y-73280000D03*
X49620000Y-48850000D03*
X44160000Y-37610000D03*
X53350000Y-56260000D03*
X56860000Y-39770000D03*
X57920000Y-35840000D03*
X49250000Y-41160000D03*
X63370000Y-50570000D03*
X34870000Y-37510000D03*
X50950000Y-49790000D03*
X70220000Y-39740000D03*
X34870000Y-44620000D03*
X41960000Y-46030000D03*
X51230000Y-66120000D03*
X54310000Y-54230000D03*
X53290000Y-50240000D03*
X51161063Y-44992016D03*
X46320206Y-44992101D03*
X54090000Y-44290000D03*
X46330000Y-46210000D03*
X51070000Y-44070000D03*
X46230000Y-44070000D03*
X53980000Y-45390000D03*
X46340000Y-47260000D03*
X57700000Y-53090000D03*
X58789699Y-51496801D03*
X59890000Y-55360000D03*
X60650000Y-48390000D03*
X58410000Y-53840000D03*
X59580000Y-52080000D03*
X59130000Y-54640000D03*
X59250000Y-48440000D03*
D17*
X53290000Y-50240000D02*
X53290000Y-53210000D01*
X53290000Y-53210000D02*
X54310000Y-54230000D01*
D18*
X51161063Y-44992016D02*
X46320291Y-44992016D01*
X46320291Y-44992016D02*
X46320206Y-44992101D01*
X54020000Y-44360000D02*
X52630000Y-44360000D01*
X54090000Y-44290000D02*
X54020000Y-44360000D01*
X52420000Y-46080000D02*
X52290000Y-46210000D01*
X52630000Y-44360000D02*
X52420000Y-44570000D01*
X52290000Y-46210000D02*
X46330000Y-46210000D01*
X52420000Y-44570000D02*
X52420000Y-46080000D01*
X51070000Y-44070000D02*
X46230000Y-44070000D01*
X53980000Y-45390000D02*
X52110000Y-47260000D01*
X52110000Y-47260000D02*
X46340000Y-47260000D01*
X58789699Y-52000301D02*
X57700000Y-53090000D01*
X58789699Y-51496801D02*
X58789699Y-52000301D01*
X61170000Y-48910000D02*
X61170000Y-53670000D01*
X60650000Y-48390000D02*
X61170000Y-48910000D01*
X61170000Y-53670000D02*
X61170000Y-54080000D01*
X61170000Y-54080000D02*
X59890000Y-55360000D01*
X59580000Y-52670000D02*
X58410000Y-53840000D01*
X59580000Y-52080000D02*
X59580000Y-52670000D01*
X60400000Y-53370000D02*
X59130000Y-54640000D01*
X60400000Y-52810000D02*
X60400000Y-53370000D01*
X59250000Y-48440000D02*
X60400000Y-49590000D01*
X60400000Y-49590000D02*
X60400000Y-52810000D01*
G04 #@! TA.AperFunction,Conductor*
G36*
X76184563Y-25702414D02*
G01*
X76200000Y-25705136D01*
X76210855Y-25703222D01*
X76215141Y-25703222D01*
X76235011Y-25701876D01*
X76669688Y-25718955D01*
X76679550Y-25719731D01*
X77141438Y-25774398D01*
X77151210Y-25775946D01*
X77607374Y-25866683D01*
X77616995Y-25868993D01*
X78064631Y-25995240D01*
X78074040Y-25998297D01*
X78510400Y-26159278D01*
X78519537Y-26163063D01*
X78941926Y-26357786D01*
X78950741Y-26362278D01*
X79356530Y-26589531D01*
X79364966Y-26594700D01*
X79751696Y-26853105D01*
X79759685Y-26858909D01*
X80124964Y-27146872D01*
X80132467Y-27153280D01*
X80385753Y-27387416D01*
X80474007Y-27468998D01*
X80481002Y-27475993D01*
X80796720Y-27817533D01*
X80803128Y-27825036D01*
X81091085Y-28190307D01*
X81096895Y-28198304D01*
X81099741Y-28202563D01*
X81355300Y-28585034D01*
X81360469Y-28593470D01*
X81587722Y-28999259D01*
X81592213Y-29008072D01*
X81750695Y-29351846D01*
X81786936Y-29430460D01*
X81790722Y-29439600D01*
X81951703Y-29875960D01*
X81954760Y-29885369D01*
X82081007Y-30333005D01*
X82083317Y-30342626D01*
X82174054Y-30798790D01*
X82175602Y-30808562D01*
X82230269Y-31270450D01*
X82231045Y-31280312D01*
X82248124Y-31714989D01*
X82246778Y-31734859D01*
X82246778Y-31739145D01*
X82244864Y-31750000D01*
X82246778Y-31760855D01*
X82247586Y-31765437D01*
X82249500Y-31787317D01*
X82249500Y-76162683D01*
X82247586Y-76184563D01*
X82244864Y-76200000D01*
X82246778Y-76210855D01*
X82246778Y-76215141D01*
X82248124Y-76235011D01*
X82231045Y-76669688D01*
X82230269Y-76679550D01*
X82175602Y-77141438D01*
X82174054Y-77151210D01*
X82083317Y-77607374D01*
X82081007Y-77616995D01*
X81954760Y-78064631D01*
X81951703Y-78074040D01*
X81790722Y-78510400D01*
X81786937Y-78519537D01*
X81592214Y-78941926D01*
X81587722Y-78950741D01*
X81360469Y-79356530D01*
X81355300Y-79364966D01*
X81343115Y-79383202D01*
X81099764Y-79747403D01*
X81096900Y-79751689D01*
X81091091Y-79759685D01*
X80803128Y-80124964D01*
X80796720Y-80132467D01*
X80664349Y-80275664D01*
X80481002Y-80474007D01*
X80474007Y-80481002D01*
X80132467Y-80796720D01*
X80124964Y-80803128D01*
X79759685Y-81091091D01*
X79751696Y-81096895D01*
X79444313Y-81302282D01*
X79364966Y-81355300D01*
X79356530Y-81360469D01*
X78950741Y-81587722D01*
X78941928Y-81592213D01*
X78657669Y-81723258D01*
X78519540Y-81786936D01*
X78510400Y-81790722D01*
X78074040Y-81951703D01*
X78064631Y-81954760D01*
X77616995Y-82081007D01*
X77607374Y-82083317D01*
X77151210Y-82174054D01*
X77141438Y-82175602D01*
X76679550Y-82230269D01*
X76669688Y-82231045D01*
X76235011Y-82248124D01*
X76215141Y-82246778D01*
X76210855Y-82246778D01*
X76200000Y-82244864D01*
X76189145Y-82246778D01*
X76184563Y-82247586D01*
X76162683Y-82249500D01*
X31784691Y-82249500D01*
X31764330Y-82247844D01*
X31762754Y-82247586D01*
X31746272Y-82244887D01*
X31735438Y-82246934D01*
X31730956Y-82246989D01*
X31711327Y-82248554D01*
X31527387Y-82243464D01*
X31275224Y-82236487D01*
X31265200Y-82235809D01*
X31077565Y-82215575D01*
X30801613Y-82185816D01*
X30791692Y-82184343D01*
X30333571Y-82097573D01*
X30323780Y-82095311D01*
X29874038Y-81972318D01*
X29864466Y-81969286D01*
X29425918Y-81810836D01*
X29416646Y-81807061D01*
X28992142Y-81614186D01*
X28983181Y-81609676D01*
X28654586Y-81427494D01*
X28575383Y-81383582D01*
X28566798Y-81378364D01*
X28178329Y-81120511D01*
X28170186Y-81114625D01*
X28140213Y-81091085D01*
X27803490Y-80826632D01*
X27795848Y-80820122D01*
X27453264Y-80503829D01*
X27446165Y-80496730D01*
X27431645Y-80481002D01*
X27129873Y-80154146D01*
X27123362Y-80146504D01*
X27123358Y-80146498D01*
X27119818Y-80141990D01*
X45609840Y-80141990D01*
X45615567Y-80149640D01*
X45813906Y-80271183D01*
X45822700Y-80275664D01*
X46047391Y-80368734D01*
X46056776Y-80371783D01*
X46293263Y-80428559D01*
X46303010Y-80430102D01*
X46545470Y-80449184D01*
X46555330Y-80449184D01*
X46797790Y-80430102D01*
X46807537Y-80428559D01*
X47044024Y-80371783D01*
X47053409Y-80368734D01*
X47278100Y-80275664D01*
X47286894Y-80271183D01*
X47481567Y-80151887D01*
X47491027Y-80141430D01*
X47487244Y-80132654D01*
X46563212Y-79208622D01*
X46549268Y-79201008D01*
X46547435Y-79201139D01*
X46540820Y-79205390D01*
X45616600Y-80129610D01*
X45609840Y-80141990D01*
X27119818Y-80141990D01*
X26835373Y-79779812D01*
X26829489Y-79771671D01*
X26821539Y-79759693D01*
X26571636Y-79383202D01*
X26566418Y-79374617D01*
X26340328Y-78966826D01*
X26335811Y-78957851D01*
X26332581Y-78950741D01*
X26282960Y-78841530D01*
X44937816Y-78841530D01*
X44956898Y-79083990D01*
X44958441Y-79093737D01*
X45015217Y-79330224D01*
X45018266Y-79339609D01*
X45111336Y-79564300D01*
X45115817Y-79573094D01*
X45235113Y-79767767D01*
X45245570Y-79777227D01*
X45254346Y-79773444D01*
X46178378Y-78849412D01*
X46184756Y-78837732D01*
X46914808Y-78837732D01*
X46914939Y-78839565D01*
X46919190Y-78846180D01*
X47843410Y-79770400D01*
X47855790Y-79777160D01*
X47880992Y-79758294D01*
X47947512Y-79733483D01*
X48016886Y-79748574D01*
X48051738Y-79776664D01*
X48107163Y-79840648D01*
X48284353Y-79987754D01*
X48483190Y-80103945D01*
X48488015Y-80105787D01*
X48488016Y-80105788D01*
X48519920Y-80117971D01*
X48698334Y-80186101D01*
X48703400Y-80187132D01*
X48703401Y-80187132D01*
X48734923Y-80193545D01*
X48924007Y-80232014D01*
X49053752Y-80236772D01*
X49148985Y-80240264D01*
X49148989Y-80240264D01*
X49154149Y-80240453D01*
X49159269Y-80239797D01*
X49159271Y-80239797D01*
X49233602Y-80230275D01*
X49382578Y-80211191D01*
X49387526Y-80209706D01*
X49387533Y-80209705D01*
X49598211Y-80146498D01*
X49598210Y-80146498D01*
X49603161Y-80145013D01*
X49609332Y-80141990D01*
X50689840Y-80141990D01*
X50695567Y-80149640D01*
X50893906Y-80271183D01*
X50902700Y-80275664D01*
X51127391Y-80368734D01*
X51136776Y-80371783D01*
X51373263Y-80428559D01*
X51383010Y-80430102D01*
X51625470Y-80449184D01*
X51635330Y-80449184D01*
X51877790Y-80430102D01*
X51887537Y-80428559D01*
X52124024Y-80371783D01*
X52133409Y-80368734D01*
X52358100Y-80275664D01*
X52366894Y-80271183D01*
X52561567Y-80151887D01*
X52571027Y-80141430D01*
X52567244Y-80132654D01*
X51643212Y-79208622D01*
X51629268Y-79201008D01*
X51627435Y-79201139D01*
X51620820Y-79205390D01*
X50696600Y-80129610D01*
X50689840Y-80141990D01*
X49609332Y-80141990D01*
X49809974Y-80043696D01*
X49997462Y-79909963D01*
X50001117Y-79906321D01*
X50001125Y-79906314D01*
X50138661Y-79769256D01*
X50201032Y-79735339D01*
X50271839Y-79740527D01*
X50312134Y-79765071D01*
X50325570Y-79777227D01*
X50334346Y-79773444D01*
X51258378Y-78849412D01*
X51264756Y-78837732D01*
X51994808Y-78837732D01*
X51994939Y-78839565D01*
X51999190Y-78846180D01*
X52923410Y-79770400D01*
X52935790Y-79777160D01*
X52960992Y-79758294D01*
X53027512Y-79733483D01*
X53096886Y-79748574D01*
X53131738Y-79776664D01*
X53187163Y-79840648D01*
X53364353Y-79987754D01*
X53563190Y-80103945D01*
X53568015Y-80105787D01*
X53568016Y-80105788D01*
X53599920Y-80117971D01*
X53778334Y-80186101D01*
X53783400Y-80187132D01*
X53783401Y-80187132D01*
X53814923Y-80193545D01*
X54004007Y-80232014D01*
X54133752Y-80236772D01*
X54228985Y-80240264D01*
X54228989Y-80240264D01*
X54234149Y-80240453D01*
X54239269Y-80239797D01*
X54239271Y-80239797D01*
X54313602Y-80230275D01*
X54462578Y-80211191D01*
X54467526Y-80209706D01*
X54467533Y-80209705D01*
X54678211Y-80146498D01*
X54678210Y-80146498D01*
X54683161Y-80145013D01*
X54689332Y-80141990D01*
X55769840Y-80141990D01*
X55775567Y-80149640D01*
X55973906Y-80271183D01*
X55982700Y-80275664D01*
X56207391Y-80368734D01*
X56216776Y-80371783D01*
X56453263Y-80428559D01*
X56463010Y-80430102D01*
X56705470Y-80449184D01*
X56715330Y-80449184D01*
X56957790Y-80430102D01*
X56967537Y-80428559D01*
X57204024Y-80371783D01*
X57213409Y-80368734D01*
X57438100Y-80275664D01*
X57446894Y-80271183D01*
X57641567Y-80151887D01*
X57651027Y-80141430D01*
X57647244Y-80132654D01*
X56723212Y-79208622D01*
X56709268Y-79201008D01*
X56707435Y-79201139D01*
X56700820Y-79205390D01*
X55776600Y-80129610D01*
X55769840Y-80141990D01*
X54689332Y-80141990D01*
X54889974Y-80043696D01*
X55077462Y-79909963D01*
X55081117Y-79906321D01*
X55081125Y-79906314D01*
X55218661Y-79769256D01*
X55281032Y-79735339D01*
X55351839Y-79740527D01*
X55392134Y-79765071D01*
X55405570Y-79777227D01*
X55414346Y-79773444D01*
X56338378Y-78849412D01*
X56344756Y-78837732D01*
X57074808Y-78837732D01*
X57074939Y-78839565D01*
X57079190Y-78846180D01*
X58003410Y-79770400D01*
X58015790Y-79777160D01*
X58040992Y-79758294D01*
X58107512Y-79733483D01*
X58176886Y-79748574D01*
X58211738Y-79776664D01*
X58267163Y-79840648D01*
X58444353Y-79987754D01*
X58643190Y-80103945D01*
X58648015Y-80105787D01*
X58648016Y-80105788D01*
X58679920Y-80117971D01*
X58858334Y-80186101D01*
X58863400Y-80187132D01*
X58863401Y-80187132D01*
X58894923Y-80193545D01*
X59084007Y-80232014D01*
X59213752Y-80236772D01*
X59308985Y-80240264D01*
X59308989Y-80240264D01*
X59314149Y-80240453D01*
X59319269Y-80239797D01*
X59319271Y-80239797D01*
X59393602Y-80230275D01*
X59542578Y-80211191D01*
X59547526Y-80209706D01*
X59547533Y-80209705D01*
X59758211Y-80146498D01*
X59758210Y-80146498D01*
X59763161Y-80145013D01*
X59969974Y-80043696D01*
X60157462Y-79909963D01*
X60161117Y-79906321D01*
X60161125Y-79906314D01*
X60298661Y-79769256D01*
X60361032Y-79735339D01*
X60431839Y-79740527D01*
X60472134Y-79765071D01*
X60485570Y-79777227D01*
X60494346Y-79773444D01*
X61418378Y-78849412D01*
X61425992Y-78835468D01*
X61425861Y-78833635D01*
X61421610Y-78827020D01*
X60497390Y-77902800D01*
X60485011Y-77896040D01*
X60459575Y-77915081D01*
X60393054Y-77939891D01*
X60323680Y-77924799D01*
X60290873Y-77899012D01*
X60212290Y-77812651D01*
X60212289Y-77812650D01*
X60208812Y-77808829D01*
X60204761Y-77805630D01*
X60204757Y-77805626D01*
X60032135Y-77669297D01*
X60032130Y-77669293D01*
X60028081Y-77666096D01*
X60023565Y-77663603D01*
X60023562Y-77663601D01*
X59830989Y-77557295D01*
X59830985Y-77557293D01*
X59826465Y-77554798D01*
X59821596Y-77553074D01*
X59821592Y-77553072D01*
X59761437Y-77531770D01*
X60849773Y-77531770D01*
X60853556Y-77540546D01*
X62060515Y-78747505D01*
X62094541Y-78809817D01*
X62089476Y-78880632D01*
X62060515Y-78925695D01*
X60856600Y-80129610D01*
X60849840Y-80141990D01*
X60855567Y-80149640D01*
X61053906Y-80271183D01*
X61062700Y-80275664D01*
X61287391Y-80368734D01*
X61296776Y-80371783D01*
X61533263Y-80428559D01*
X61543010Y-80430102D01*
X61785470Y-80449184D01*
X61795330Y-80449184D01*
X62037790Y-80430102D01*
X62047537Y-80428559D01*
X62284024Y-80371783D01*
X62293409Y-80368734D01*
X62518100Y-80275664D01*
X62526894Y-80271183D01*
X62734267Y-80144104D01*
X62742240Y-80138312D01*
X62798675Y-80090111D01*
X62863465Y-80061080D01*
X62933665Y-80071685D01*
X62978336Y-80109473D01*
X62978461Y-80109753D01*
X62986692Y-80117970D01*
X62986693Y-80117971D01*
X63015270Y-80146498D01*
X63057687Y-80188841D01*
X63068324Y-80193544D01*
X63068326Y-80193545D01*
X63108241Y-80211191D01*
X63160073Y-80234106D01*
X63185754Y-80237100D01*
X65475046Y-80237100D01*
X65478750Y-80236659D01*
X65478753Y-80236659D01*
X65486146Y-80235779D01*
X65501246Y-80233982D01*
X65555902Y-80209705D01*
X65592918Y-80193263D01*
X65603553Y-80188539D01*
X65682641Y-80109313D01*
X65691131Y-80090111D01*
X65724075Y-80015592D01*
X65727906Y-80006927D01*
X65730900Y-79981246D01*
X65730900Y-77691954D01*
X65727782Y-77665754D01*
X65719650Y-77647445D01*
X65687063Y-77574082D01*
X65682339Y-77563447D01*
X65662448Y-77543590D01*
X65640131Y-77521313D01*
X65603113Y-77484359D01*
X65592476Y-77479656D01*
X65592474Y-77479655D01*
X65532938Y-77453335D01*
X65500727Y-77439094D01*
X65475046Y-77436100D01*
X63185754Y-77436100D01*
X63182050Y-77436541D01*
X63182047Y-77436541D01*
X63174654Y-77437421D01*
X63159554Y-77439218D01*
X63150914Y-77443056D01*
X63150913Y-77443056D01*
X63068517Y-77479655D01*
X63057247Y-77484661D01*
X63049028Y-77492894D01*
X63049027Y-77492895D01*
X63044078Y-77497853D01*
X62978159Y-77563887D01*
X62978001Y-77563729D01*
X62929473Y-77603360D01*
X62858935Y-77611410D01*
X62798666Y-77583080D01*
X62742247Y-77534893D01*
X62734267Y-77529096D01*
X62526894Y-77402017D01*
X62518100Y-77397536D01*
X62293409Y-77304466D01*
X62284024Y-77301417D01*
X62047537Y-77244641D01*
X62037790Y-77243098D01*
X61795330Y-77224016D01*
X61785470Y-77224016D01*
X61543010Y-77243098D01*
X61533263Y-77244641D01*
X61296776Y-77301417D01*
X61287391Y-77304466D01*
X61062700Y-77397536D01*
X61053906Y-77402017D01*
X60859233Y-77521313D01*
X60849773Y-77531770D01*
X59761437Y-77531770D01*
X59614253Y-77479649D01*
X59614249Y-77479648D01*
X59609378Y-77477923D01*
X59604285Y-77477016D01*
X59604282Y-77477015D01*
X59508107Y-77459884D01*
X59382650Y-77437537D01*
X59296202Y-77436481D01*
X59157541Y-77434786D01*
X59157539Y-77434786D01*
X59152371Y-77434723D01*
X58924725Y-77469558D01*
X58705824Y-77541106D01*
X58501549Y-77647445D01*
X58317384Y-77785719D01*
X58313810Y-77789459D01*
X58205481Y-77902820D01*
X58143957Y-77938250D01*
X58073045Y-77934793D01*
X58029854Y-77909204D01*
X58015230Y-77895973D01*
X58006454Y-77899756D01*
X57082422Y-78823788D01*
X57074808Y-78837732D01*
X56344756Y-78837732D01*
X56345992Y-78835468D01*
X56345861Y-78833635D01*
X56341610Y-78827020D01*
X55417390Y-77902800D01*
X55405011Y-77896040D01*
X55379575Y-77915081D01*
X55313054Y-77939891D01*
X55243680Y-77924799D01*
X55210873Y-77899012D01*
X55132290Y-77812651D01*
X55132289Y-77812650D01*
X55128812Y-77808829D01*
X55124761Y-77805630D01*
X55124757Y-77805626D01*
X54952135Y-77669297D01*
X54952130Y-77669293D01*
X54948081Y-77666096D01*
X54943565Y-77663603D01*
X54943562Y-77663601D01*
X54750989Y-77557295D01*
X54750985Y-77557293D01*
X54746465Y-77554798D01*
X54741596Y-77553074D01*
X54741592Y-77553072D01*
X54681437Y-77531770D01*
X55769773Y-77531770D01*
X55773556Y-77540546D01*
X56697588Y-78464578D01*
X56711532Y-78472192D01*
X56713365Y-78472061D01*
X56719980Y-78467810D01*
X57644200Y-77543590D01*
X57650960Y-77531210D01*
X57645233Y-77523560D01*
X57446894Y-77402017D01*
X57438100Y-77397536D01*
X57213409Y-77304466D01*
X57204024Y-77301417D01*
X56967537Y-77244641D01*
X56957790Y-77243098D01*
X56715330Y-77224016D01*
X56705470Y-77224016D01*
X56463010Y-77243098D01*
X56453263Y-77244641D01*
X56216776Y-77301417D01*
X56207391Y-77304466D01*
X55982700Y-77397536D01*
X55973906Y-77402017D01*
X55779233Y-77521313D01*
X55769773Y-77531770D01*
X54681437Y-77531770D01*
X54534253Y-77479649D01*
X54534249Y-77479648D01*
X54529378Y-77477923D01*
X54524285Y-77477016D01*
X54524282Y-77477015D01*
X54428107Y-77459884D01*
X54302650Y-77437537D01*
X54216202Y-77436481D01*
X54077541Y-77434786D01*
X54077539Y-77434786D01*
X54072371Y-77434723D01*
X53844725Y-77469558D01*
X53625824Y-77541106D01*
X53421549Y-77647445D01*
X53237384Y-77785719D01*
X53233810Y-77789459D01*
X53125481Y-77902820D01*
X53063957Y-77938250D01*
X52993045Y-77934793D01*
X52949854Y-77909204D01*
X52935230Y-77895973D01*
X52926454Y-77899756D01*
X52002422Y-78823788D01*
X51994808Y-78837732D01*
X51264756Y-78837732D01*
X51265992Y-78835468D01*
X51265861Y-78833635D01*
X51261610Y-78827020D01*
X50337390Y-77902800D01*
X50325011Y-77896040D01*
X50299575Y-77915081D01*
X50233054Y-77939891D01*
X50163680Y-77924799D01*
X50130873Y-77899012D01*
X50052290Y-77812651D01*
X50052289Y-77812650D01*
X50048812Y-77808829D01*
X50044761Y-77805630D01*
X50044757Y-77805626D01*
X49872135Y-77669297D01*
X49872130Y-77669293D01*
X49868081Y-77666096D01*
X49863565Y-77663603D01*
X49863562Y-77663601D01*
X49670989Y-77557295D01*
X49670985Y-77557293D01*
X49666465Y-77554798D01*
X49661596Y-77553074D01*
X49661592Y-77553072D01*
X49601437Y-77531770D01*
X50689773Y-77531770D01*
X50693556Y-77540546D01*
X51617588Y-78464578D01*
X51631532Y-78472192D01*
X51633365Y-78472061D01*
X51639980Y-78467810D01*
X52564200Y-77543590D01*
X52570960Y-77531210D01*
X52565233Y-77523560D01*
X52366894Y-77402017D01*
X52358100Y-77397536D01*
X52133409Y-77304466D01*
X52124024Y-77301417D01*
X51887537Y-77244641D01*
X51877790Y-77243098D01*
X51635330Y-77224016D01*
X51625470Y-77224016D01*
X51383010Y-77243098D01*
X51373263Y-77244641D01*
X51136776Y-77301417D01*
X51127391Y-77304466D01*
X50902700Y-77397536D01*
X50893906Y-77402017D01*
X50699233Y-77521313D01*
X50689773Y-77531770D01*
X49601437Y-77531770D01*
X49454253Y-77479649D01*
X49454249Y-77479648D01*
X49449378Y-77477923D01*
X49444285Y-77477016D01*
X49444282Y-77477015D01*
X49348107Y-77459884D01*
X49222650Y-77437537D01*
X49136202Y-77436481D01*
X48997541Y-77434786D01*
X48997539Y-77434786D01*
X48992371Y-77434723D01*
X48764725Y-77469558D01*
X48545824Y-77541106D01*
X48341549Y-77647445D01*
X48157384Y-77785719D01*
X48153810Y-77789459D01*
X48045481Y-77902820D01*
X47983957Y-77938250D01*
X47913045Y-77934793D01*
X47869854Y-77909204D01*
X47855230Y-77895973D01*
X47846454Y-77899756D01*
X46922422Y-78823788D01*
X46914808Y-78837732D01*
X46184756Y-78837732D01*
X46185992Y-78835468D01*
X46185861Y-78833635D01*
X46181610Y-78827020D01*
X45257390Y-77902800D01*
X45245010Y-77896040D01*
X45237360Y-77901767D01*
X45115817Y-78100106D01*
X45111336Y-78108900D01*
X45018266Y-78333591D01*
X45015217Y-78342976D01*
X44958441Y-78579463D01*
X44956898Y-78589210D01*
X44937816Y-78831670D01*
X44937816Y-78841530D01*
X26282960Y-78841530D01*
X26142939Y-78533354D01*
X26139164Y-78524082D01*
X25980714Y-78085534D01*
X25977682Y-78075962D01*
X25854689Y-77626220D01*
X25852427Y-77616431D01*
X25824913Y-77471165D01*
X25765657Y-77158308D01*
X25764183Y-77148379D01*
X25763965Y-77146350D01*
X25734425Y-76872435D01*
X25714191Y-76684800D01*
X25713513Y-76674776D01*
X25701572Y-76243233D01*
X29844906Y-76243233D01*
X29871102Y-76517792D01*
X29872187Y-76522226D01*
X29872188Y-76522232D01*
X29910684Y-76679550D01*
X29936657Y-76785694D01*
X30040199Y-77041326D01*
X30042500Y-77045256D01*
X30042503Y-77045262D01*
X30177255Y-77275403D01*
X30177260Y-77275410D01*
X30179558Y-77279335D01*
X30182405Y-77282895D01*
X30339759Y-77479655D01*
X30351816Y-77494732D01*
X30355157Y-77497853D01*
X30534894Y-77665754D01*
X30553364Y-77683008D01*
X30779979Y-77840216D01*
X30784055Y-77842244D01*
X30784057Y-77842245D01*
X31022827Y-77961032D01*
X31022830Y-77961033D01*
X31026914Y-77963065D01*
X31288998Y-78048980D01*
X31293489Y-78049760D01*
X31293490Y-78049760D01*
X31556957Y-78095506D01*
X31556965Y-78095507D01*
X31560738Y-78096162D01*
X31564575Y-78096353D01*
X31646305Y-78100422D01*
X31646313Y-78100422D01*
X31647876Y-78100500D01*
X31820070Y-78100500D01*
X31822338Y-78100335D01*
X31822350Y-78100335D01*
X31956603Y-78090594D01*
X32025083Y-78085625D01*
X32029538Y-78084641D01*
X32029541Y-78084641D01*
X32289947Y-78027148D01*
X32289950Y-78027147D01*
X32294403Y-78026164D01*
X32552319Y-77928449D01*
X32610667Y-77896040D01*
X32789435Y-77796743D01*
X32789436Y-77796742D01*
X32793428Y-77794525D01*
X32936143Y-77685608D01*
X33009046Y-77629970D01*
X33009047Y-77629969D01*
X33012678Y-77627198D01*
X33015873Y-77623930D01*
X33105965Y-77531770D01*
X45609773Y-77531770D01*
X45613556Y-77540546D01*
X46537588Y-78464578D01*
X46551532Y-78472192D01*
X46553365Y-78472061D01*
X46559980Y-78467810D01*
X47484200Y-77543590D01*
X47490960Y-77531210D01*
X47485233Y-77523560D01*
X47286894Y-77402017D01*
X47278100Y-77397536D01*
X47053409Y-77304466D01*
X47044024Y-77301417D01*
X46807537Y-77244641D01*
X46797790Y-77243098D01*
X46555330Y-77224016D01*
X46545470Y-77224016D01*
X46303010Y-77243098D01*
X46293263Y-77244641D01*
X46056776Y-77301417D01*
X46047391Y-77304466D01*
X45822700Y-77397536D01*
X45813906Y-77402017D01*
X45619233Y-77521313D01*
X45609773Y-77531770D01*
X33105965Y-77531770D01*
X33202283Y-77433242D01*
X33202287Y-77433237D01*
X33205477Y-77429974D01*
X33208166Y-77426280D01*
X33365100Y-77210676D01*
X33365102Y-77210673D01*
X33367787Y-77206984D01*
X33496206Y-76962899D01*
X33588045Y-76702832D01*
X33624516Y-76517792D01*
X33640499Y-76436704D01*
X33640500Y-76436698D01*
X33641380Y-76432232D01*
X33641607Y-76427676D01*
X33650790Y-76243233D01*
X74294906Y-76243233D01*
X74321102Y-76517792D01*
X74322187Y-76522226D01*
X74322188Y-76522232D01*
X74360684Y-76679550D01*
X74386657Y-76785694D01*
X74490199Y-77041326D01*
X74492500Y-77045256D01*
X74492503Y-77045262D01*
X74627255Y-77275403D01*
X74627260Y-77275410D01*
X74629558Y-77279335D01*
X74632405Y-77282895D01*
X74789759Y-77479655D01*
X74801816Y-77494732D01*
X74805157Y-77497853D01*
X74984894Y-77665754D01*
X75003364Y-77683008D01*
X75229979Y-77840216D01*
X75234055Y-77842244D01*
X75234057Y-77842245D01*
X75472827Y-77961032D01*
X75472830Y-77961033D01*
X75476914Y-77963065D01*
X75738998Y-78048980D01*
X75743489Y-78049760D01*
X75743490Y-78049760D01*
X76006957Y-78095506D01*
X76006965Y-78095507D01*
X76010738Y-78096162D01*
X76014575Y-78096353D01*
X76096305Y-78100422D01*
X76096313Y-78100422D01*
X76097876Y-78100500D01*
X76270070Y-78100500D01*
X76272338Y-78100335D01*
X76272350Y-78100335D01*
X76406603Y-78090594D01*
X76475083Y-78085625D01*
X76479538Y-78084641D01*
X76479541Y-78084641D01*
X76739947Y-78027148D01*
X76739950Y-78027147D01*
X76744403Y-78026164D01*
X77002319Y-77928449D01*
X77060667Y-77896040D01*
X77239435Y-77796743D01*
X77239436Y-77796742D01*
X77243428Y-77794525D01*
X77386143Y-77685608D01*
X77459046Y-77629970D01*
X77459047Y-77629969D01*
X77462678Y-77627198D01*
X77465873Y-77623930D01*
X77652283Y-77433242D01*
X77652287Y-77433237D01*
X77655477Y-77429974D01*
X77658166Y-77426280D01*
X77815100Y-77210676D01*
X77815102Y-77210673D01*
X77817787Y-77206984D01*
X77946206Y-76962899D01*
X78038045Y-76702832D01*
X78074516Y-76517792D01*
X78090499Y-76436704D01*
X78090500Y-76436698D01*
X78091380Y-76432232D01*
X78091607Y-76427676D01*
X78104867Y-76161336D01*
X78104867Y-76161330D01*
X78105094Y-76156767D01*
X78078898Y-75882208D01*
X78013343Y-75614306D01*
X77909801Y-75358674D01*
X77907500Y-75354744D01*
X77907497Y-75354738D01*
X77772745Y-75124597D01*
X77772740Y-75124590D01*
X77770442Y-75120665D01*
X77652927Y-74973720D01*
X77601036Y-74908834D01*
X77601035Y-74908833D01*
X77598184Y-74905268D01*
X77396636Y-74716992D01*
X77170021Y-74559784D01*
X76992667Y-74471551D01*
X76927173Y-74438968D01*
X76927170Y-74438967D01*
X76923086Y-74436935D01*
X76661002Y-74351020D01*
X76656510Y-74350240D01*
X76393043Y-74304494D01*
X76393035Y-74304493D01*
X76389262Y-74303838D01*
X76379029Y-74303329D01*
X76303695Y-74299578D01*
X76303687Y-74299578D01*
X76302124Y-74299500D01*
X76129930Y-74299500D01*
X76127662Y-74299665D01*
X76127650Y-74299665D01*
X75993397Y-74309406D01*
X75924917Y-74314375D01*
X75920462Y-74315359D01*
X75920459Y-74315359D01*
X75660053Y-74372852D01*
X75660050Y-74372853D01*
X75655597Y-74373836D01*
X75397681Y-74471551D01*
X75156572Y-74605475D01*
X74937322Y-74772802D01*
X74934129Y-74776068D01*
X74934127Y-74776070D01*
X74747717Y-74966758D01*
X74747713Y-74966763D01*
X74744523Y-74970026D01*
X74582213Y-75193016D01*
X74453794Y-75437101D01*
X74361955Y-75697168D01*
X74361075Y-75701634D01*
X74324587Y-75886760D01*
X74308620Y-75967768D01*
X74308393Y-75972322D01*
X74308393Y-75972324D01*
X74295808Y-76225118D01*
X74294906Y-76243233D01*
X33650790Y-76243233D01*
X33654867Y-76161336D01*
X33654867Y-76161330D01*
X33655094Y-76156767D01*
X33628898Y-75882208D01*
X33563343Y-75614306D01*
X33459801Y-75358674D01*
X33457500Y-75354744D01*
X33457497Y-75354738D01*
X33322745Y-75124597D01*
X33322740Y-75124590D01*
X33320442Y-75120665D01*
X33202927Y-74973720D01*
X33151036Y-74908834D01*
X33151035Y-74908833D01*
X33148184Y-74905268D01*
X32946636Y-74716992D01*
X32720021Y-74559784D01*
X32542667Y-74471551D01*
X32477173Y-74438968D01*
X32477170Y-74438967D01*
X32473086Y-74436935D01*
X32211002Y-74351020D01*
X32206510Y-74350240D01*
X31943043Y-74304494D01*
X31943035Y-74304493D01*
X31939262Y-74303838D01*
X31929029Y-74303329D01*
X31853695Y-74299578D01*
X31853687Y-74299578D01*
X31852124Y-74299500D01*
X31679930Y-74299500D01*
X31677662Y-74299665D01*
X31677650Y-74299665D01*
X31543397Y-74309406D01*
X31474917Y-74314375D01*
X31470462Y-74315359D01*
X31470459Y-74315359D01*
X31210053Y-74372852D01*
X31210050Y-74372853D01*
X31205597Y-74373836D01*
X30947681Y-74471551D01*
X30706572Y-74605475D01*
X30487322Y-74772802D01*
X30484129Y-74776068D01*
X30484127Y-74776070D01*
X30297717Y-74966758D01*
X30297713Y-74966763D01*
X30294523Y-74970026D01*
X30132213Y-75193016D01*
X30003794Y-75437101D01*
X29911955Y-75697168D01*
X29911075Y-75701634D01*
X29874587Y-75886760D01*
X29858620Y-75967768D01*
X29858393Y-75972322D01*
X29858393Y-75972324D01*
X29845808Y-76225118D01*
X29844906Y-76243233D01*
X25701572Y-76243233D01*
X25701446Y-76238674D01*
X25703011Y-76219044D01*
X25703066Y-76214562D01*
X25705113Y-76203728D01*
X25702156Y-76185670D01*
X25700500Y-76165309D01*
X25700500Y-55854930D01*
X27507416Y-55854930D01*
X27526498Y-56097390D01*
X27528041Y-56107137D01*
X27584817Y-56343624D01*
X27587866Y-56353009D01*
X27680936Y-56577700D01*
X27685417Y-56586494D01*
X27812496Y-56793867D01*
X27818288Y-56801840D01*
X27866489Y-56858275D01*
X27895520Y-56923065D01*
X27884915Y-56993265D01*
X27847127Y-57037936D01*
X27846847Y-57038061D01*
X27767759Y-57117287D01*
X27763056Y-57127924D01*
X27763055Y-57127926D01*
X27736735Y-57187462D01*
X27722494Y-57219673D01*
X27719500Y-57245354D01*
X27719500Y-59534646D01*
X27722618Y-59560846D01*
X27768061Y-59663153D01*
X27847287Y-59742241D01*
X27857924Y-59746944D01*
X27857926Y-59746945D01*
X27917462Y-59773265D01*
X27949673Y-59787506D01*
X27975354Y-59790500D01*
X30264646Y-59790500D01*
X30268350Y-59790059D01*
X30268353Y-59790059D01*
X30275746Y-59789179D01*
X30290846Y-59787382D01*
X30393153Y-59741939D01*
X30472241Y-59662713D01*
X30517506Y-59560327D01*
X30520500Y-59534646D01*
X30520500Y-58037966D01*
X64368257Y-58037966D01*
X64398565Y-58172446D01*
X64401645Y-58182275D01*
X64481770Y-58379603D01*
X64486413Y-58388794D01*
X64597694Y-58570388D01*
X64603777Y-58578699D01*
X64743213Y-58739667D01*
X64750580Y-58746883D01*
X64914434Y-58882916D01*
X64922881Y-58888831D01*
X65106756Y-58996279D01*
X65116042Y-59000729D01*
X65315001Y-59076703D01*
X65324899Y-59079579D01*
X65428250Y-59100606D01*
X65442299Y-59099410D01*
X65446000Y-59089065D01*
X65446000Y-59088517D01*
X65954000Y-59088517D01*
X65958064Y-59102359D01*
X65971478Y-59104393D01*
X65978184Y-59103534D01*
X65988262Y-59101392D01*
X66192255Y-59040191D01*
X66201842Y-59036433D01*
X66393095Y-58942739D01*
X66401945Y-58937464D01*
X66575328Y-58813792D01*
X66583200Y-58807139D01*
X66734052Y-58656812D01*
X66740730Y-58648965D01*
X66865003Y-58476020D01*
X66870313Y-58467183D01*
X66964670Y-58276267D01*
X66968469Y-58266672D01*
X67030377Y-58062910D01*
X67032555Y-58052837D01*
X67033986Y-58041962D01*
X67031775Y-58027778D01*
X67018617Y-58024000D01*
X65972115Y-58024000D01*
X65956876Y-58028475D01*
X65955671Y-58029865D01*
X65954000Y-58037548D01*
X65954000Y-59088517D01*
X65446000Y-59088517D01*
X65446000Y-58042115D01*
X65441525Y-58026876D01*
X65440135Y-58025671D01*
X65432452Y-58024000D01*
X64383225Y-58024000D01*
X64369694Y-58027973D01*
X64368257Y-58037966D01*
X30520500Y-58037966D01*
X30520500Y-57504183D01*
X64364389Y-57504183D01*
X64365912Y-57512607D01*
X64378292Y-57516000D01*
X67018344Y-57516000D01*
X67031875Y-57512027D01*
X67033180Y-57502947D01*
X66991214Y-57335875D01*
X66987894Y-57326124D01*
X66902972Y-57130814D01*
X66898105Y-57121739D01*
X66782426Y-56942926D01*
X66776136Y-56934757D01*
X66632806Y-56777240D01*
X66625273Y-56770215D01*
X66458139Y-56638222D01*
X66449552Y-56632517D01*
X66263117Y-56529599D01*
X66253705Y-56525369D01*
X66202178Y-56507122D01*
X66144642Y-56465528D01*
X66118726Y-56399430D01*
X66132660Y-56329814D01*
X66182672Y-56278415D01*
X66197041Y-56270368D01*
X66354442Y-56182219D01*
X66517012Y-56047012D01*
X66652219Y-55884442D01*
X66655043Y-55879399D01*
X66655046Y-55879395D01*
X66752713Y-55704998D01*
X66752714Y-55704996D01*
X66755537Y-55699955D01*
X66757393Y-55694488D01*
X66757395Y-55694483D01*
X66816238Y-55521135D01*
X66823504Y-55499730D01*
X66826190Y-55481210D01*
X66853314Y-55294140D01*
X66853314Y-55294138D01*
X66853846Y-55290470D01*
X66855429Y-55230000D01*
X66836081Y-55019440D01*
X66778686Y-54815931D01*
X66774907Y-54808266D01*
X66687719Y-54631469D01*
X66685165Y-54626290D01*
X66558651Y-54456867D01*
X66436454Y-54343909D01*
X66407622Y-54317257D01*
X66407620Y-54317255D01*
X66403381Y-54313337D01*
X66294722Y-54244778D01*
X66229434Y-54203584D01*
X66229433Y-54203584D01*
X66224554Y-54200505D01*
X66028160Y-54122152D01*
X66022503Y-54121027D01*
X66022497Y-54121025D01*
X65825234Y-54081788D01*
X65762324Y-54048881D01*
X65727192Y-53987186D01*
X65730992Y-53916291D01*
X65772517Y-53858705D01*
X65831734Y-53833513D01*
X65964015Y-53814333D01*
X65964019Y-53814332D01*
X65969730Y-53813504D01*
X66042276Y-53788878D01*
X66164483Y-53747395D01*
X66164488Y-53747393D01*
X66169955Y-53745537D01*
X66175437Y-53742467D01*
X66349395Y-53645046D01*
X66349399Y-53645043D01*
X66354442Y-53642219D01*
X66517012Y-53507012D01*
X66652219Y-53344442D01*
X66655043Y-53339399D01*
X66655046Y-53339395D01*
X66752713Y-53164998D01*
X66752714Y-53164996D01*
X66755537Y-53159955D01*
X66757393Y-53154488D01*
X66757395Y-53154483D01*
X66807290Y-53007494D01*
X66823504Y-52959730D01*
X66830061Y-52914513D01*
X66853314Y-52754140D01*
X66853314Y-52754138D01*
X66853846Y-52750470D01*
X66855429Y-52690000D01*
X66836081Y-52479440D01*
X66778686Y-52275931D01*
X66770396Y-52259119D01*
X66687719Y-52091469D01*
X66685165Y-52086290D01*
X66599709Y-51971850D01*
X66562104Y-51921491D01*
X66562103Y-51921490D01*
X66558651Y-51916867D01*
X66403381Y-51773337D01*
X66224554Y-51660505D01*
X66028160Y-51582152D01*
X66022503Y-51581027D01*
X66022497Y-51581025D01*
X65866916Y-51550079D01*
X65804006Y-51517172D01*
X65768874Y-51455477D01*
X65772674Y-51384582D01*
X65814199Y-51326996D01*
X65880266Y-51301002D01*
X65891497Y-51300500D01*
X66594646Y-51300500D01*
X66598350Y-51300059D01*
X66598353Y-51300059D01*
X66605746Y-51299179D01*
X66620846Y-51297382D01*
X66639823Y-51288953D01*
X66712518Y-51256663D01*
X66723153Y-51251939D01*
X66802241Y-51172713D01*
X66817239Y-51138790D01*
X66843675Y-51078992D01*
X66847506Y-51070327D01*
X66850500Y-51044646D01*
X66850500Y-49255354D01*
X66847382Y-49229154D01*
X66817510Y-49161901D01*
X66806663Y-49137482D01*
X66801939Y-49126847D01*
X66722713Y-49047759D01*
X66712076Y-49043056D01*
X66712074Y-49043055D01*
X66637479Y-49010077D01*
X66620327Y-49002494D01*
X66594646Y-48999500D01*
X64805354Y-48999500D01*
X64801650Y-48999941D01*
X64801647Y-48999941D01*
X64794254Y-49000821D01*
X64779154Y-49002618D01*
X64770514Y-49006456D01*
X64770513Y-49006456D01*
X64688117Y-49043055D01*
X64676847Y-49048061D01*
X64668628Y-49056294D01*
X64668627Y-49056295D01*
X64642258Y-49082710D01*
X64597759Y-49127287D01*
X64593056Y-49137924D01*
X64593055Y-49137926D01*
X64582456Y-49161901D01*
X64552494Y-49229673D01*
X64549500Y-49255354D01*
X64549500Y-51044646D01*
X64552618Y-51070846D01*
X64556456Y-51079486D01*
X64556456Y-51079487D01*
X64584233Y-51142022D01*
X64598061Y-51173153D01*
X64677287Y-51252241D01*
X64687924Y-51256944D01*
X64687926Y-51256945D01*
X64747462Y-51283265D01*
X64779673Y-51297506D01*
X64805354Y-51300500D01*
X65514988Y-51300500D01*
X65583109Y-51320502D01*
X65629602Y-51374158D01*
X65639706Y-51444432D01*
X65610212Y-51509012D01*
X65550486Y-51547396D01*
X65536326Y-51550680D01*
X65406650Y-51572962D01*
X65406649Y-51572962D01*
X65400953Y-51573941D01*
X65202575Y-51647127D01*
X65197614Y-51650079D01*
X65197613Y-51650079D01*
X65095841Y-51710627D01*
X65020856Y-51755238D01*
X64861881Y-51894655D01*
X64730976Y-52060708D01*
X64728287Y-52065819D01*
X64728285Y-52065822D01*
X64688063Y-52142272D01*
X64632523Y-52247836D01*
X64569820Y-52449773D01*
X64544967Y-52659754D01*
X64558796Y-52870749D01*
X64560217Y-52876345D01*
X64560218Y-52876350D01*
X64604780Y-53051810D01*
X64610845Y-53075690D01*
X64613262Y-53080933D01*
X64617442Y-53090000D01*
X64699369Y-53267714D01*
X64821405Y-53440391D01*
X64833809Y-53452474D01*
X64953811Y-53569375D01*
X64972865Y-53587937D01*
X64977661Y-53591142D01*
X64977664Y-53591144D01*
X65093910Y-53668817D01*
X65148677Y-53705411D01*
X65153985Y-53707692D01*
X65153986Y-53707692D01*
X65337650Y-53786600D01*
X65337653Y-53786601D01*
X65342953Y-53788878D01*
X65348582Y-53790152D01*
X65348583Y-53790152D01*
X65543550Y-53834269D01*
X65543553Y-53834269D01*
X65549186Y-53835544D01*
X65554958Y-53835771D01*
X65560687Y-53836525D01*
X65560327Y-53839257D01*
X65616604Y-53858216D01*
X65660950Y-53913659D01*
X65668282Y-53984276D01*
X65636271Y-54047647D01*
X65575081Y-54083651D01*
X65565704Y-54085632D01*
X65406650Y-54112962D01*
X65406649Y-54112962D01*
X65400953Y-54113941D01*
X65202575Y-54187127D01*
X65197614Y-54190079D01*
X65197613Y-54190079D01*
X65032977Y-54288027D01*
X65020856Y-54295238D01*
X64861881Y-54434655D01*
X64730976Y-54600708D01*
X64728287Y-54605819D01*
X64728285Y-54605822D01*
X64717006Y-54627260D01*
X64632523Y-54787836D01*
X64569820Y-54989773D01*
X64544967Y-55199754D01*
X64558796Y-55410749D01*
X64560217Y-55416345D01*
X64560218Y-55416350D01*
X64592291Y-55542634D01*
X64610845Y-55615690D01*
X64613262Y-55620933D01*
X64646439Y-55692900D01*
X64699369Y-55807714D01*
X64821405Y-55980391D01*
X64825539Y-55984418D01*
X64964836Y-56120115D01*
X64972865Y-56127937D01*
X64977661Y-56131142D01*
X64977664Y-56131144D01*
X65058333Y-56185045D01*
X65148677Y-56245411D01*
X65153980Y-56247690D01*
X65153985Y-56247692D01*
X65188818Y-56262657D01*
X65206768Y-56270369D01*
X65261460Y-56315636D01*
X65282998Y-56383287D01*
X65264541Y-56451842D01*
X65211951Y-56499537D01*
X65196175Y-56505901D01*
X65176868Y-56512212D01*
X65167359Y-56516209D01*
X64978463Y-56614542D01*
X64969738Y-56620036D01*
X64799433Y-56747905D01*
X64791726Y-56754748D01*
X64644590Y-56908717D01*
X64638104Y-56916727D01*
X64518098Y-57092649D01*
X64513000Y-57101623D01*
X64423338Y-57294783D01*
X64419775Y-57304470D01*
X64364389Y-57504183D01*
X30520500Y-57504183D01*
X30520500Y-57245354D01*
X30517382Y-57219154D01*
X30471939Y-57116847D01*
X30456689Y-57101623D01*
X30400946Y-57045978D01*
X30392713Y-57037759D01*
X30392871Y-57037601D01*
X30353240Y-56989073D01*
X30345190Y-56918535D01*
X30373520Y-56858266D01*
X30421707Y-56801847D01*
X30427504Y-56793867D01*
X30554583Y-56586494D01*
X30559064Y-56577700D01*
X30652134Y-56353009D01*
X30655183Y-56343624D01*
X30711959Y-56107137D01*
X30713502Y-56097390D01*
X30732584Y-55854930D01*
X30732584Y-55845070D01*
X30713502Y-55602610D01*
X30711959Y-55592863D01*
X30655183Y-55356376D01*
X30652134Y-55346991D01*
X30559064Y-55122300D01*
X30554583Y-55113506D01*
X30435287Y-54918833D01*
X30424830Y-54909373D01*
X30416054Y-54913156D01*
X29209095Y-56120115D01*
X29146783Y-56154141D01*
X29075968Y-56149076D01*
X29030905Y-56120115D01*
X27826990Y-54916200D01*
X27814610Y-54909440D01*
X27806960Y-54915167D01*
X27685417Y-55113506D01*
X27680936Y-55122300D01*
X27587866Y-55346991D01*
X27584817Y-55356376D01*
X27528041Y-55592863D01*
X27526498Y-55602610D01*
X27507416Y-55845070D01*
X27507416Y-55854930D01*
X25700500Y-55854930D01*
X25700500Y-53275665D01*
X27715119Y-53275665D01*
X27715416Y-53280817D01*
X27715416Y-53280821D01*
X27720864Y-53375296D01*
X27728376Y-53505580D01*
X27729513Y-53510626D01*
X27729514Y-53510632D01*
X27751226Y-53606975D01*
X27779006Y-53730242D01*
X27780948Y-53735024D01*
X27780949Y-53735028D01*
X27863705Y-53938831D01*
X27865649Y-53943618D01*
X27933645Y-54054577D01*
X27969424Y-54112962D01*
X27985979Y-54139978D01*
X28136763Y-54314048D01*
X28179350Y-54349404D01*
X28218985Y-54408306D01*
X28220483Y-54479287D01*
X28192301Y-54530880D01*
X28179373Y-54545169D01*
X28183157Y-54553947D01*
X29107188Y-55477978D01*
X29121132Y-55485592D01*
X29122965Y-55485461D01*
X29129580Y-55481210D01*
X30053800Y-54556990D01*
X30060560Y-54544610D01*
X30042657Y-54520694D01*
X30017847Y-54454174D01*
X30032939Y-54384800D01*
X30054586Y-54355935D01*
X30115508Y-54295225D01*
X30190190Y-54220803D01*
X30228052Y-54168113D01*
X30321559Y-54037983D01*
X30324577Y-54033783D01*
X30330802Y-54021189D01*
X30418450Y-53843846D01*
X30426615Y-53827325D01*
X30474774Y-53668817D01*
X30492059Y-53611927D01*
X30492060Y-53611921D01*
X30493563Y-53606975D01*
X30513903Y-53452474D01*
X30523185Y-53381971D01*
X30523185Y-53381965D01*
X30523622Y-53378649D01*
X30523704Y-53375296D01*
X30525218Y-53313364D01*
X30525218Y-53313360D01*
X30525300Y-53310000D01*
X30506430Y-53080478D01*
X30450326Y-52857120D01*
X30367017Y-52665520D01*
X30360556Y-52650661D01*
X30360554Y-52650658D01*
X30358496Y-52645924D01*
X30233405Y-52452563D01*
X30225847Y-52444256D01*
X30081888Y-52286049D01*
X30078412Y-52282229D01*
X30064334Y-52271111D01*
X30023270Y-52213194D01*
X30020037Y-52142272D01*
X30048988Y-52087695D01*
X30060626Y-52074831D01*
X30056843Y-52066053D01*
X29132812Y-51142022D01*
X29118868Y-51134408D01*
X29117035Y-51134539D01*
X29110420Y-51138790D01*
X28186200Y-52063010D01*
X28179440Y-52075390D01*
X28195933Y-52097422D01*
X28220744Y-52163942D01*
X28205653Y-52233316D01*
X28186159Y-52259982D01*
X28065129Y-52386634D01*
X28027877Y-52425616D01*
X28024963Y-52429888D01*
X28024962Y-52429889D01*
X27975163Y-52502892D01*
X27898099Y-52615863D01*
X27895923Y-52620552D01*
X27895919Y-52620558D01*
X27829509Y-52763627D01*
X27801136Y-52824752D01*
X27739592Y-53046673D01*
X27739043Y-53051810D01*
X27715969Y-53267714D01*
X27715119Y-53275665D01*
X25700500Y-53275665D01*
X25700500Y-50774930D01*
X27507416Y-50774930D01*
X27526498Y-51017390D01*
X27528041Y-51027137D01*
X27584817Y-51263624D01*
X27587866Y-51273009D01*
X27680936Y-51497700D01*
X27685417Y-51506494D01*
X27804713Y-51701167D01*
X27815170Y-51710627D01*
X27823946Y-51706844D01*
X28747978Y-50782812D01*
X28754356Y-50771132D01*
X29484408Y-50771132D01*
X29484539Y-50772965D01*
X29488790Y-50779580D01*
X30413010Y-51703800D01*
X30425390Y-51710560D01*
X30433040Y-51704833D01*
X30554583Y-51506494D01*
X30559064Y-51497700D01*
X30652134Y-51273009D01*
X30655183Y-51263624D01*
X30711959Y-51027137D01*
X30713502Y-51017390D01*
X30732584Y-50774930D01*
X30732584Y-50765070D01*
X30713502Y-50522610D01*
X30711959Y-50512863D01*
X30655183Y-50276376D01*
X30652134Y-50266991D01*
X30637893Y-50232611D01*
X52584394Y-50232611D01*
X52602999Y-50401135D01*
X52661266Y-50560356D01*
X52665502Y-50566659D01*
X52665504Y-50566664D01*
X52718082Y-50644909D01*
X52739500Y-50715184D01*
X52739500Y-53195007D01*
X52739389Y-53200283D01*
X52736790Y-53262294D01*
X52738752Y-53270659D01*
X52746727Y-53304662D01*
X52748890Y-53316333D01*
X52754794Y-53359432D01*
X52758206Y-53367316D01*
X52758206Y-53367317D01*
X52760765Y-53373230D01*
X52767799Y-53394499D01*
X52771232Y-53409136D01*
X52775368Y-53416660D01*
X52775370Y-53416664D01*
X52792195Y-53447268D01*
X52797411Y-53457913D01*
X52814695Y-53497855D01*
X52824158Y-53509541D01*
X52836645Y-53528125D01*
X52843893Y-53541308D01*
X52850897Y-53549422D01*
X52875433Y-53573958D01*
X52884258Y-53583759D01*
X52898905Y-53601846D01*
X52909614Y-53615070D01*
X52916613Y-53620044D01*
X52916614Y-53620045D01*
X52924946Y-53625966D01*
X52941051Y-53639576D01*
X53583072Y-54281596D01*
X53617097Y-54343909D01*
X53619215Y-54356863D01*
X53622999Y-54391135D01*
X53625608Y-54398266D01*
X53625609Y-54398268D01*
X53677855Y-54541036D01*
X53681266Y-54550356D01*
X53685502Y-54556659D01*
X53685502Y-54556660D01*
X53698574Y-54576113D01*
X53775830Y-54691083D01*
X53781442Y-54696190D01*
X53781445Y-54696193D01*
X53895612Y-54800077D01*
X53895616Y-54800080D01*
X53901233Y-54805191D01*
X53907906Y-54808814D01*
X53907910Y-54808817D01*
X54043558Y-54882467D01*
X54043560Y-54882468D01*
X54050235Y-54886092D01*
X54057584Y-54888020D01*
X54206883Y-54927188D01*
X54206885Y-54927188D01*
X54214233Y-54929116D01*
X54300609Y-54930473D01*
X54376161Y-54931660D01*
X54376164Y-54931660D01*
X54383760Y-54931779D01*
X54391165Y-54930083D01*
X54391166Y-54930083D01*
X54481591Y-54909373D01*
X54549029Y-54893928D01*
X54700498Y-54817747D01*
X54829423Y-54707634D01*
X54928361Y-54569947D01*
X54938547Y-54544610D01*
X54988766Y-54419687D01*
X54988767Y-54419685D01*
X54991601Y-54412634D01*
X55007523Y-54300758D01*
X55014909Y-54248862D01*
X55014909Y-54248859D01*
X55015490Y-54244778D01*
X55015645Y-54230000D01*
X55014974Y-54224451D01*
X55006354Y-54153222D01*
X54995276Y-54061680D01*
X54935345Y-53903077D01*
X54902150Y-53854778D01*
X54843614Y-53769608D01*
X54843613Y-53769607D01*
X54839312Y-53763349D01*
X54833641Y-53758296D01*
X54718392Y-53655612D01*
X54718388Y-53655610D01*
X54712721Y-53650560D01*
X54689984Y-53638521D01*
X54594446Y-53587937D01*
X54562881Y-53571224D01*
X54443782Y-53541308D01*
X54418865Y-53535049D01*
X54360466Y-53501941D01*
X54120819Y-53262294D01*
X53941135Y-53082611D01*
X56994394Y-53082611D01*
X57012999Y-53251135D01*
X57071266Y-53410356D01*
X57165830Y-53551083D01*
X57171442Y-53556190D01*
X57171445Y-53556193D01*
X57285612Y-53660077D01*
X57285616Y-53660080D01*
X57291233Y-53665191D01*
X57297906Y-53668814D01*
X57297910Y-53668817D01*
X57433558Y-53742467D01*
X57433560Y-53742468D01*
X57440235Y-53746092D01*
X57447584Y-53748020D01*
X57596890Y-53787190D01*
X57596893Y-53787190D01*
X57604233Y-53789116D01*
X57605900Y-53789142D01*
X57668372Y-53817169D01*
X57707153Y-53876637D01*
X57711736Y-53899115D01*
X57722999Y-54001135D01*
X57752189Y-54080901D01*
X57775600Y-54144872D01*
X57781266Y-54160356D01*
X57875830Y-54301083D01*
X57881442Y-54306190D01*
X57881445Y-54306193D01*
X57995612Y-54410077D01*
X57995616Y-54410080D01*
X58001233Y-54415191D01*
X58007906Y-54418814D01*
X58007910Y-54418817D01*
X58143558Y-54492467D01*
X58143560Y-54492468D01*
X58150235Y-54496092D01*
X58157584Y-54498020D01*
X58306882Y-54537188D01*
X58306886Y-54537189D01*
X58314233Y-54539116D01*
X58319178Y-54539194D01*
X58382920Y-54567791D01*
X58421702Y-54627260D01*
X58426285Y-54649738D01*
X58442999Y-54801135D01*
X58474089Y-54886092D01*
X58490765Y-54931660D01*
X58501266Y-54960356D01*
X58595830Y-55101083D01*
X58601442Y-55106190D01*
X58601445Y-55106193D01*
X58715612Y-55210077D01*
X58715616Y-55210080D01*
X58721233Y-55215191D01*
X58727906Y-55218814D01*
X58727910Y-55218817D01*
X58863558Y-55292467D01*
X58863560Y-55292468D01*
X58870235Y-55296092D01*
X58877584Y-55298020D01*
X59026883Y-55337188D01*
X59026885Y-55337188D01*
X59034233Y-55339116D01*
X59061461Y-55339544D01*
X59072093Y-55339711D01*
X59139891Y-55360781D01*
X59185535Y-55415160D01*
X59195352Y-55451869D01*
X59202999Y-55521135D01*
X59261266Y-55680356D01*
X59265502Y-55686659D01*
X59265502Y-55686660D01*
X59274436Y-55699955D01*
X59355830Y-55821083D01*
X59361442Y-55826190D01*
X59361445Y-55826193D01*
X59475612Y-55930077D01*
X59475616Y-55930080D01*
X59481233Y-55935191D01*
X59487906Y-55938814D01*
X59487910Y-55938817D01*
X59623558Y-56012467D01*
X59623560Y-56012468D01*
X59630235Y-56016092D01*
X59637584Y-56018020D01*
X59786883Y-56057188D01*
X59786885Y-56057188D01*
X59794233Y-56059116D01*
X59880609Y-56060473D01*
X59956161Y-56061660D01*
X59956164Y-56061660D01*
X59963760Y-56061779D01*
X59971165Y-56060083D01*
X59971166Y-56060083D01*
X60047615Y-56042574D01*
X60129029Y-56023928D01*
X60280498Y-55947747D01*
X60409423Y-55837634D01*
X60508361Y-55699947D01*
X60516237Y-55680356D01*
X60568766Y-55549687D01*
X60568767Y-55549685D01*
X60571601Y-55542634D01*
X60590371Y-55410749D01*
X60594909Y-55378862D01*
X60594909Y-55378859D01*
X60595490Y-55374778D01*
X60595645Y-55360000D01*
X60595148Y-55355894D01*
X60594922Y-55351789D01*
X60597000Y-55351675D01*
X60607195Y-55289887D01*
X60631604Y-55255499D01*
X61464350Y-54422753D01*
X61475439Y-54412899D01*
X61494709Y-54397707D01*
X61494711Y-54397705D01*
X61502110Y-54391872D01*
X61507839Y-54383584D01*
X61535455Y-54343625D01*
X61537757Y-54340403D01*
X61567040Y-54300758D01*
X61567041Y-54300757D01*
X61572634Y-54293184D01*
X61575027Y-54286368D01*
X61579131Y-54280431D01*
X61596826Y-54224481D01*
X61598071Y-54220750D01*
X61614396Y-54174263D01*
X61614396Y-54174261D01*
X61617519Y-54165369D01*
X61617801Y-54158181D01*
X61617812Y-54158122D01*
X61619980Y-54151270D01*
X61620500Y-54144663D01*
X61620500Y-54091984D01*
X61620597Y-54087037D01*
X61621593Y-54061680D01*
X61622838Y-54030006D01*
X61620954Y-54022900D01*
X61620500Y-54014656D01*
X61620500Y-48944220D01*
X61621373Y-48929411D01*
X61624257Y-48905043D01*
X61625364Y-48895690D01*
X61619507Y-48863618D01*
X61614828Y-48837999D01*
X61614178Y-48834096D01*
X61606850Y-48785355D01*
X61606850Y-48785354D01*
X61605449Y-48776038D01*
X61602321Y-48769525D01*
X61601025Y-48762427D01*
X61573975Y-48710353D01*
X61572225Y-48706850D01*
X61550885Y-48662410D01*
X61546809Y-48653921D01*
X61541923Y-48648635D01*
X61541890Y-48648587D01*
X61538579Y-48642212D01*
X61534275Y-48637172D01*
X61497048Y-48599945D01*
X61493618Y-48596379D01*
X61461246Y-48561359D01*
X61454854Y-48554444D01*
X61448495Y-48550751D01*
X61442337Y-48545234D01*
X61392382Y-48495279D01*
X61358356Y-48432967D01*
X61356328Y-48404787D01*
X61355490Y-48404778D01*
X61355602Y-48394135D01*
X61355602Y-48394129D01*
X61355645Y-48390000D01*
X61335276Y-48221680D01*
X61275345Y-48063077D01*
X61212619Y-47971810D01*
X61183614Y-47929608D01*
X61183613Y-47929607D01*
X61179312Y-47923349D01*
X61167514Y-47912837D01*
X61058392Y-47815612D01*
X61058388Y-47815610D01*
X61052721Y-47810560D01*
X61004024Y-47784776D01*
X60920757Y-47740689D01*
X60902881Y-47731224D01*
X60738441Y-47689919D01*
X60730843Y-47689879D01*
X60730841Y-47689879D01*
X60653668Y-47689475D01*
X60568895Y-47689031D01*
X60561508Y-47690805D01*
X60561504Y-47690805D01*
X60435392Y-47721083D01*
X60404032Y-47728612D01*
X60397288Y-47732093D01*
X60397285Y-47732094D01*
X60300339Y-47782132D01*
X60253369Y-47806375D01*
X60247647Y-47811367D01*
X60247645Y-47811368D01*
X60220336Y-47835191D01*
X60125604Y-47917831D01*
X60086096Y-47974045D01*
X60035475Y-48046072D01*
X59979941Y-48090303D01*
X59909309Y-48097489D01*
X59846004Y-48065348D01*
X59828548Y-48044988D01*
X59783614Y-47979608D01*
X59783613Y-47979607D01*
X59779312Y-47973349D01*
X59767514Y-47962837D01*
X59658392Y-47865612D01*
X59658388Y-47865610D01*
X59652721Y-47860560D01*
X59628522Y-47847747D01*
X59558287Y-47810560D01*
X59502881Y-47781224D01*
X59338441Y-47739919D01*
X59330843Y-47739879D01*
X59330841Y-47739879D01*
X59253668Y-47739475D01*
X59168895Y-47739031D01*
X59161508Y-47740805D01*
X59161504Y-47740805D01*
X59029985Y-47772381D01*
X59004032Y-47778612D01*
X58997288Y-47782093D01*
X58997285Y-47782094D01*
X58904320Y-47830077D01*
X58853369Y-47856375D01*
X58725604Y-47967831D01*
X58721237Y-47974045D01*
X58663254Y-48056547D01*
X58628113Y-48106547D01*
X58566524Y-48264513D01*
X58565532Y-48272046D01*
X58565532Y-48272047D01*
X58550004Y-48390000D01*
X58544394Y-48432611D01*
X58562999Y-48601135D01*
X58565609Y-48608266D01*
X58618196Y-48751966D01*
X58621266Y-48760356D01*
X58715830Y-48901083D01*
X58721442Y-48906190D01*
X58721445Y-48906193D01*
X58835612Y-49010077D01*
X58835616Y-49010080D01*
X58841233Y-49015191D01*
X58847906Y-49018814D01*
X58847910Y-49018817D01*
X58983558Y-49092467D01*
X58983560Y-49092468D01*
X58990235Y-49096092D01*
X58997584Y-49098020D01*
X59146883Y-49137188D01*
X59146885Y-49137188D01*
X59154233Y-49139116D01*
X59263503Y-49140832D01*
X59331300Y-49161901D01*
X59350618Y-49177721D01*
X59912595Y-49739698D01*
X59946621Y-49802010D01*
X59949500Y-49828793D01*
X59949500Y-51288953D01*
X59929498Y-51357074D01*
X59875842Y-51403567D01*
X59805568Y-51413671D01*
X59792804Y-51411157D01*
X59675810Y-51381770D01*
X59668441Y-51379919D01*
X59660843Y-51379879D01*
X59660841Y-51379879D01*
X59580663Y-51379459D01*
X59512648Y-51359101D01*
X59466437Y-51305202D01*
X59463457Y-51297999D01*
X59417728Y-51176981D01*
X59415044Y-51169878D01*
X59352920Y-51079487D01*
X59323313Y-51036409D01*
X59323312Y-51036408D01*
X59319011Y-51030150D01*
X59304690Y-51017390D01*
X59198091Y-50922413D01*
X59198087Y-50922411D01*
X59192420Y-50917361D01*
X59042580Y-50838025D01*
X58878140Y-50796720D01*
X58870542Y-50796680D01*
X58870540Y-50796680D01*
X58793367Y-50796276D01*
X58708594Y-50795832D01*
X58701207Y-50797606D01*
X58701203Y-50797606D01*
X58557861Y-50832021D01*
X58543731Y-50835413D01*
X58536987Y-50838894D01*
X58536984Y-50838895D01*
X58531788Y-50841577D01*
X58393068Y-50913176D01*
X58265303Y-51024632D01*
X58251237Y-51044646D01*
X58185072Y-51138790D01*
X58167812Y-51163348D01*
X58106223Y-51321314D01*
X58105231Y-51328847D01*
X58105231Y-51328848D01*
X58088561Y-51455477D01*
X58084093Y-51489412D01*
X58102698Y-51657936D01*
X58160965Y-51817157D01*
X58165203Y-51823464D01*
X58165204Y-51823466D01*
X58173382Y-51835637D01*
X58194772Y-51903335D01*
X58176165Y-51971850D01*
X58157893Y-51995004D01*
X57800289Y-52352608D01*
X57737977Y-52386634D01*
X57710536Y-52389511D01*
X57618895Y-52389031D01*
X57611508Y-52390805D01*
X57611504Y-52390805D01*
X57482080Y-52421878D01*
X57454032Y-52428612D01*
X57447288Y-52432093D01*
X57447285Y-52432094D01*
X57310117Y-52502892D01*
X57303369Y-52506375D01*
X57175604Y-52617831D01*
X57078113Y-52756547D01*
X57016524Y-52914513D01*
X57015532Y-52922046D01*
X57015532Y-52922047D01*
X56996042Y-53070095D01*
X56994394Y-53082611D01*
X53941135Y-53082611D01*
X53877405Y-53018881D01*
X53843380Y-52956568D01*
X53840500Y-52929785D01*
X53840500Y-50714962D01*
X53864177Y-50641436D01*
X53903930Y-50586113D01*
X53908361Y-50579947D01*
X53916237Y-50560356D01*
X53968766Y-50429687D01*
X53968767Y-50429685D01*
X53971601Y-50422634D01*
X53995490Y-50254778D01*
X53995645Y-50240000D01*
X53993840Y-50225080D01*
X53976188Y-50079220D01*
X53975276Y-50071680D01*
X53915345Y-49913077D01*
X53861799Y-49835167D01*
X53823614Y-49779608D01*
X53823613Y-49779607D01*
X53819312Y-49773349D01*
X53807514Y-49762837D01*
X53698392Y-49665612D01*
X53698388Y-49665610D01*
X53692721Y-49660560D01*
X53542881Y-49581224D01*
X53378441Y-49539919D01*
X53370843Y-49539879D01*
X53370841Y-49539879D01*
X53293668Y-49539475D01*
X53208895Y-49539031D01*
X53201508Y-49540805D01*
X53201504Y-49540805D01*
X53058162Y-49575220D01*
X53044032Y-49578612D01*
X53037288Y-49582093D01*
X53037285Y-49582094D01*
X52900117Y-49652892D01*
X52893369Y-49656375D01*
X52765604Y-49767831D01*
X52668113Y-49906547D01*
X52606524Y-50064513D01*
X52584394Y-50232611D01*
X30637893Y-50232611D01*
X30559064Y-50042300D01*
X30554583Y-50033506D01*
X30435287Y-49838833D01*
X30424830Y-49829373D01*
X30416054Y-49833156D01*
X29492022Y-50757188D01*
X29484408Y-50771132D01*
X28754356Y-50771132D01*
X28755592Y-50768868D01*
X28755461Y-50767035D01*
X28751210Y-50760420D01*
X27826990Y-49836200D01*
X27814610Y-49829440D01*
X27806960Y-49835167D01*
X27685417Y-50033506D01*
X27680936Y-50042300D01*
X27587866Y-50266991D01*
X27584817Y-50276376D01*
X27528041Y-50512863D01*
X27526498Y-50522610D01*
X27507416Y-50765070D01*
X27507416Y-50774930D01*
X25700500Y-50774930D01*
X25700500Y-48195665D01*
X27715119Y-48195665D01*
X27715416Y-48200817D01*
X27715416Y-48200821D01*
X27719089Y-48264513D01*
X27728376Y-48425580D01*
X27729513Y-48430626D01*
X27729514Y-48430632D01*
X27751226Y-48526975D01*
X27779006Y-48650242D01*
X27780948Y-48655024D01*
X27780949Y-48655028D01*
X27853661Y-48834096D01*
X27865649Y-48863618D01*
X27891739Y-48906193D01*
X27975609Y-49043055D01*
X27985979Y-49059978D01*
X28136763Y-49234048D01*
X28179350Y-49269404D01*
X28218985Y-49328306D01*
X28220483Y-49399287D01*
X28192301Y-49450880D01*
X28179373Y-49465169D01*
X28183157Y-49473947D01*
X29107188Y-50397978D01*
X29121132Y-50405592D01*
X29122965Y-50405461D01*
X29129580Y-50401210D01*
X30053800Y-49476990D01*
X30060560Y-49464610D01*
X30042657Y-49440694D01*
X30017847Y-49374174D01*
X30032939Y-49304800D01*
X30054586Y-49275935D01*
X30186529Y-49144451D01*
X30190190Y-49140803D01*
X30200219Y-49126847D01*
X30321559Y-48957983D01*
X30324577Y-48953783D01*
X30329304Y-48944220D01*
X30419151Y-48762427D01*
X30426615Y-48747325D01*
X30458551Y-48642212D01*
X30492059Y-48531927D01*
X30492060Y-48531921D01*
X30493563Y-48526975D01*
X30523622Y-48298649D01*
X30524281Y-48271680D01*
X30525218Y-48233364D01*
X30525218Y-48233360D01*
X30525300Y-48230000D01*
X30506430Y-48000478D01*
X30450326Y-47777120D01*
X30389559Y-47637365D01*
X30360556Y-47570661D01*
X30360554Y-47570658D01*
X30358496Y-47565924D01*
X30233405Y-47372563D01*
X30131127Y-47260161D01*
X30081888Y-47206049D01*
X30078412Y-47202229D01*
X30064334Y-47191111D01*
X30023270Y-47133194D01*
X30020037Y-47062272D01*
X30048988Y-47007695D01*
X30060626Y-46994831D01*
X30056843Y-46986053D01*
X29132812Y-46062022D01*
X29118868Y-46054408D01*
X29117035Y-46054539D01*
X29110420Y-46058790D01*
X28186200Y-46983010D01*
X28179440Y-46995390D01*
X28195933Y-47017422D01*
X28220744Y-47083942D01*
X28205653Y-47153316D01*
X28186159Y-47179982D01*
X28116754Y-47252611D01*
X28027877Y-47345616D01*
X27898099Y-47535863D01*
X27895923Y-47540552D01*
X27895919Y-47540558D01*
X27803773Y-47739071D01*
X27801136Y-47744752D01*
X27776055Y-47835191D01*
X27741420Y-47960083D01*
X27739592Y-47966673D01*
X27739043Y-47971810D01*
X27723887Y-48113627D01*
X27715119Y-48195665D01*
X25700500Y-48195665D01*
X25700500Y-45694930D01*
X27507416Y-45694930D01*
X27526498Y-45937390D01*
X27528041Y-45947137D01*
X27584817Y-46183624D01*
X27587866Y-46193009D01*
X27680936Y-46417700D01*
X27685417Y-46426494D01*
X27804713Y-46621167D01*
X27815170Y-46630627D01*
X27823946Y-46626844D01*
X28747978Y-45702812D01*
X28754356Y-45691132D01*
X29484408Y-45691132D01*
X29484539Y-45692965D01*
X29488790Y-45699580D01*
X30413010Y-46623800D01*
X30425390Y-46630560D01*
X30433040Y-46624833D01*
X30554583Y-46426494D01*
X30559064Y-46417700D01*
X30652134Y-46193009D01*
X30655183Y-46183624D01*
X30711959Y-45947137D01*
X30713502Y-45937390D01*
X30732584Y-45694930D01*
X30732584Y-45685070D01*
X30713502Y-45442610D01*
X30711959Y-45432863D01*
X30655183Y-45196376D01*
X30652134Y-45186991D01*
X30559064Y-44962300D01*
X30554583Y-44953506D01*
X30435287Y-44758833D01*
X30424830Y-44749373D01*
X30416054Y-44753156D01*
X29492022Y-45677188D01*
X29484408Y-45691132D01*
X28754356Y-45691132D01*
X28755592Y-45688868D01*
X28755461Y-45687035D01*
X28751210Y-45680420D01*
X27826990Y-44756200D01*
X27814610Y-44749440D01*
X27806960Y-44755167D01*
X27685417Y-44953506D01*
X27680936Y-44962300D01*
X27587866Y-45186991D01*
X27584817Y-45196376D01*
X27528041Y-45432863D01*
X27526498Y-45442610D01*
X27507416Y-45685070D01*
X27507416Y-45694930D01*
X25700500Y-45694930D01*
X25700500Y-43115665D01*
X27715119Y-43115665D01*
X27715416Y-43120817D01*
X27715416Y-43120821D01*
X27719350Y-43189042D01*
X27728376Y-43345580D01*
X27729513Y-43350626D01*
X27729514Y-43350632D01*
X27751226Y-43446975D01*
X27779006Y-43570242D01*
X27780948Y-43575024D01*
X27780949Y-43575028D01*
X27844011Y-43730330D01*
X27865649Y-43783618D01*
X27985979Y-43979978D01*
X28136763Y-44154048D01*
X28179350Y-44189404D01*
X28218985Y-44248306D01*
X28220483Y-44319287D01*
X28192301Y-44370880D01*
X28179373Y-44385169D01*
X28183157Y-44393947D01*
X29107188Y-45317978D01*
X29121132Y-45325592D01*
X29122965Y-45325461D01*
X29129580Y-45321210D01*
X30053800Y-44396990D01*
X30060560Y-44384610D01*
X30042657Y-44360694D01*
X30017847Y-44294174D01*
X30032939Y-44224800D01*
X30054586Y-44195935D01*
X30167879Y-44083036D01*
X30188376Y-44062611D01*
X45524394Y-44062611D01*
X45542999Y-44231135D01*
X45569949Y-44304778D01*
X45583800Y-44342627D01*
X45601266Y-44390356D01*
X45605502Y-44396659D01*
X45605502Y-44396660D01*
X45614662Y-44410292D01*
X45693525Y-44527653D01*
X45714917Y-44595349D01*
X45700422Y-44655656D01*
X45698319Y-44658648D01*
X45636730Y-44816614D01*
X45635738Y-44824147D01*
X45635738Y-44824148D01*
X45616194Y-44972605D01*
X45614600Y-44984712D01*
X45633205Y-45153236D01*
X45691472Y-45312457D01*
X45786036Y-45453184D01*
X45794328Y-45460729D01*
X45850725Y-45512047D01*
X45887647Y-45572687D01*
X45885924Y-45643663D01*
X45848754Y-45700189D01*
X45805604Y-45737831D01*
X45801237Y-45744045D01*
X45718058Y-45862397D01*
X45708113Y-45876547D01*
X45646524Y-46034513D01*
X45645532Y-46042046D01*
X45645532Y-46042047D01*
X45626894Y-46183624D01*
X45624394Y-46202611D01*
X45642999Y-46371135D01*
X45701266Y-46530356D01*
X45705502Y-46536659D01*
X45705502Y-46536660D01*
X45795830Y-46671083D01*
X45793580Y-46672595D01*
X45817659Y-46725584D01*
X45807424Y-46795839D01*
X45795999Y-46815727D01*
X45718113Y-46926547D01*
X45656524Y-47084513D01*
X45655532Y-47092046D01*
X45655532Y-47092047D01*
X45640524Y-47206049D01*
X45634394Y-47252611D01*
X45652999Y-47421135D01*
X45655609Y-47428266D01*
X45705985Y-47565924D01*
X45711266Y-47580356D01*
X45805830Y-47721083D01*
X45811442Y-47726190D01*
X45811445Y-47726193D01*
X45925612Y-47830077D01*
X45925616Y-47830080D01*
X45931233Y-47835191D01*
X45937906Y-47838814D01*
X45937910Y-47838817D01*
X46073558Y-47912467D01*
X46073560Y-47912468D01*
X46080235Y-47916092D01*
X46087584Y-47918020D01*
X46236883Y-47957188D01*
X46236885Y-47957188D01*
X46244233Y-47959116D01*
X46330609Y-47960473D01*
X46406161Y-47961660D01*
X46406164Y-47961660D01*
X46413760Y-47961779D01*
X46421165Y-47960083D01*
X46421166Y-47960083D01*
X46481586Y-47946245D01*
X46579029Y-47923928D01*
X46730498Y-47847747D01*
X46855846Y-47740689D01*
X46920636Y-47711658D01*
X46937677Y-47710500D01*
X52075780Y-47710500D01*
X52090589Y-47711373D01*
X52124310Y-47715364D01*
X52133574Y-47713672D01*
X52133575Y-47713672D01*
X52182001Y-47704828D01*
X52185904Y-47704178D01*
X52234645Y-47696850D01*
X52234646Y-47696850D01*
X52243962Y-47695449D01*
X52250475Y-47692321D01*
X52257573Y-47691025D01*
X52309647Y-47663975D01*
X52313137Y-47662232D01*
X52366079Y-47636809D01*
X52371365Y-47631923D01*
X52371413Y-47631890D01*
X52377788Y-47628579D01*
X52382828Y-47624275D01*
X52420055Y-47587048D01*
X52423621Y-47583618D01*
X52458641Y-47551246D01*
X52465556Y-47544854D01*
X52469249Y-47538495D01*
X52474766Y-47532337D01*
X53879738Y-46127365D01*
X53942050Y-46093339D01*
X53970812Y-46090476D01*
X54046161Y-46091660D01*
X54046164Y-46091660D01*
X54053760Y-46091779D01*
X54061165Y-46090083D01*
X54061166Y-46090083D01*
X54121586Y-46076245D01*
X54219029Y-46053928D01*
X54370498Y-45977747D01*
X54480698Y-45883627D01*
X54493651Y-45872564D01*
X54493652Y-45872563D01*
X54499423Y-45867634D01*
X54598361Y-45729947D01*
X54628110Y-45655944D01*
X54658766Y-45579687D01*
X54658767Y-45579685D01*
X54661601Y-45572634D01*
X54675823Y-45472705D01*
X54684909Y-45408862D01*
X54684909Y-45408859D01*
X54685490Y-45404778D01*
X54685645Y-45390000D01*
X54683840Y-45375080D01*
X54666188Y-45229220D01*
X54665276Y-45221680D01*
X54605345Y-45063077D01*
X54543165Y-44972605D01*
X54527456Y-44924646D01*
X72309500Y-44924646D01*
X72312618Y-44950846D01*
X72316456Y-44959486D01*
X72316456Y-44959487D01*
X72327661Y-44984712D01*
X72358061Y-45053153D01*
X72366294Y-45061372D01*
X72366295Y-45061373D01*
X72397835Y-45092858D01*
X72437287Y-45132241D01*
X72447924Y-45136944D01*
X72447926Y-45136945D01*
X72484776Y-45153236D01*
X72539673Y-45177506D01*
X72565354Y-45180500D01*
X74654646Y-45180500D01*
X74658350Y-45180059D01*
X74658353Y-45180059D01*
X74665746Y-45179179D01*
X74680846Y-45177382D01*
X74719153Y-45160367D01*
X74772518Y-45136663D01*
X74783153Y-45131939D01*
X74802389Y-45112670D01*
X77742160Y-45112670D01*
X77747887Y-45120320D01*
X77919042Y-45225205D01*
X77927837Y-45229687D01*
X78137988Y-45316734D01*
X78147373Y-45319783D01*
X78368554Y-45372885D01*
X78378301Y-45374428D01*
X78605070Y-45392275D01*
X78614930Y-45392275D01*
X78841699Y-45374428D01*
X78851446Y-45372885D01*
X79072627Y-45319783D01*
X79082012Y-45316734D01*
X79292163Y-45229687D01*
X79300958Y-45225205D01*
X79468445Y-45122568D01*
X79477907Y-45112110D01*
X79474124Y-45103334D01*
X78622812Y-44252022D01*
X78608868Y-44244408D01*
X78607035Y-44244539D01*
X78600420Y-44248790D01*
X77748920Y-45100290D01*
X77742160Y-45112670D01*
X74802389Y-45112670D01*
X74854023Y-45060945D01*
X74862241Y-45052713D01*
X74888967Y-44992262D01*
X74903675Y-44958992D01*
X74907506Y-44950327D01*
X74910500Y-44924646D01*
X74910500Y-43884930D01*
X77097725Y-43884930D01*
X77115572Y-44111699D01*
X77117115Y-44121446D01*
X77170217Y-44342627D01*
X77173266Y-44352012D01*
X77260313Y-44562163D01*
X77264795Y-44570958D01*
X77367432Y-44738445D01*
X77377890Y-44747907D01*
X77386666Y-44744124D01*
X78237978Y-43892812D01*
X78244356Y-43881132D01*
X78974408Y-43881132D01*
X78974539Y-43882965D01*
X78978790Y-43889580D01*
X79830290Y-44741080D01*
X79842670Y-44747840D01*
X79850320Y-44742113D01*
X79955205Y-44570958D01*
X79959687Y-44562163D01*
X80046734Y-44352012D01*
X80049783Y-44342627D01*
X80102885Y-44121446D01*
X80104428Y-44111699D01*
X80122275Y-43884930D01*
X80122275Y-43875070D01*
X80104428Y-43648301D01*
X80102885Y-43638554D01*
X80049783Y-43417373D01*
X80046734Y-43407988D01*
X79959687Y-43197837D01*
X79955205Y-43189042D01*
X79852568Y-43021555D01*
X79842110Y-43012093D01*
X79833334Y-43015876D01*
X78982022Y-43867188D01*
X78974408Y-43881132D01*
X78244356Y-43881132D01*
X78245592Y-43878868D01*
X78245461Y-43877035D01*
X78241210Y-43870420D01*
X77389710Y-43018920D01*
X77377330Y-43012160D01*
X77369680Y-43017887D01*
X77264795Y-43189042D01*
X77260313Y-43197837D01*
X77173266Y-43407988D01*
X77170217Y-43417373D01*
X77117115Y-43638554D01*
X77115572Y-43648301D01*
X77097725Y-43875070D01*
X77097725Y-43884930D01*
X74910500Y-43884930D01*
X74910500Y-42835354D01*
X74907382Y-42809154D01*
X74861939Y-42706847D01*
X74802879Y-42647890D01*
X77742093Y-42647890D01*
X77745876Y-42656666D01*
X78597188Y-43507978D01*
X78611132Y-43515592D01*
X78612965Y-43515461D01*
X78619580Y-43511210D01*
X79471080Y-42659710D01*
X79477840Y-42647330D01*
X79472113Y-42639680D01*
X79300958Y-42534795D01*
X79292163Y-42530313D01*
X79082012Y-42443266D01*
X79072627Y-42440217D01*
X78851446Y-42387115D01*
X78841699Y-42385572D01*
X78614930Y-42367725D01*
X78605070Y-42367725D01*
X78378301Y-42385572D01*
X78368554Y-42387115D01*
X78147373Y-42440217D01*
X78137988Y-42443266D01*
X77927837Y-42530313D01*
X77919042Y-42534795D01*
X77751555Y-42637432D01*
X77742093Y-42647890D01*
X74802879Y-42647890D01*
X74782713Y-42627759D01*
X74772076Y-42623056D01*
X74772074Y-42623055D01*
X74712538Y-42596735D01*
X74680327Y-42582494D01*
X74654646Y-42579500D01*
X72565354Y-42579500D01*
X72561650Y-42579941D01*
X72561647Y-42579941D01*
X72554254Y-42580821D01*
X72539154Y-42582618D01*
X72436847Y-42628061D01*
X72428628Y-42636294D01*
X72428627Y-42636295D01*
X72408292Y-42656666D01*
X72357759Y-42707287D01*
X72312494Y-42809673D01*
X72309500Y-42835354D01*
X72309500Y-44924646D01*
X54527456Y-44924646D01*
X54521065Y-44905136D01*
X54538950Y-44836429D01*
X54565174Y-44805428D01*
X54603647Y-44772569D01*
X54603655Y-44772561D01*
X54609423Y-44767634D01*
X54708361Y-44629947D01*
X54721576Y-44597075D01*
X54768766Y-44479687D01*
X54768767Y-44479685D01*
X54771601Y-44472634D01*
X54782367Y-44396990D01*
X54794909Y-44308862D01*
X54794909Y-44308859D01*
X54795490Y-44304778D01*
X54795562Y-44297932D01*
X54795602Y-44294135D01*
X54795602Y-44294129D01*
X54795645Y-44290000D01*
X54775276Y-44121680D01*
X54715345Y-43963077D01*
X54691015Y-43927677D01*
X54623614Y-43829608D01*
X54623613Y-43829607D01*
X54619312Y-43823349D01*
X54607514Y-43812837D01*
X54498392Y-43715612D01*
X54498388Y-43715610D01*
X54492721Y-43710560D01*
X54342881Y-43631224D01*
X54178441Y-43589919D01*
X54170843Y-43589879D01*
X54170841Y-43589879D01*
X54093668Y-43589475D01*
X54008895Y-43589031D01*
X54001508Y-43590805D01*
X54001504Y-43590805D01*
X53887579Y-43618157D01*
X53844032Y-43628612D01*
X53837288Y-43632093D01*
X53837285Y-43632094D01*
X53760035Y-43671966D01*
X53693369Y-43706375D01*
X53687647Y-43711367D01*
X53687645Y-43711368D01*
X53650666Y-43743627D01*
X53565604Y-43817831D01*
X53561234Y-43824049D01*
X53538813Y-43855950D01*
X53483279Y-43900182D01*
X53435726Y-43909500D01*
X52664220Y-43909500D01*
X52649411Y-43908627D01*
X52625043Y-43905743D01*
X52615690Y-43904636D01*
X52606426Y-43906328D01*
X52606422Y-43906328D01*
X52557989Y-43915173D01*
X52554088Y-43915822D01*
X52505355Y-43923149D01*
X52505347Y-43923151D01*
X52496038Y-43924551D01*
X52489528Y-43927677D01*
X52482427Y-43928974D01*
X52474072Y-43933314D01*
X52430363Y-43956018D01*
X52426825Y-43957786D01*
X52389777Y-43975577D01*
X52373921Y-43983191D01*
X52368635Y-43988078D01*
X52368595Y-43988105D01*
X52362212Y-43991420D01*
X52357172Y-43995725D01*
X52319945Y-44032952D01*
X52316380Y-44036381D01*
X52274444Y-44075146D01*
X52270751Y-44081505D01*
X52265234Y-44087663D01*
X52125650Y-44227247D01*
X52114561Y-44237101D01*
X52095291Y-44252293D01*
X52095289Y-44252295D01*
X52087890Y-44258128D01*
X52058500Y-44300653D01*
X52054545Y-44306375D01*
X52052250Y-44309587D01*
X52017366Y-44356816D01*
X52014973Y-44363632D01*
X52010869Y-44369569D01*
X52008029Y-44378549D01*
X52008028Y-44378551D01*
X51993182Y-44425495D01*
X51991929Y-44429250D01*
X51978273Y-44468139D01*
X51972481Y-44484631D01*
X51972199Y-44491819D01*
X51972188Y-44491878D01*
X51970020Y-44498730D01*
X51969500Y-44505337D01*
X51969500Y-44525708D01*
X51949498Y-44593829D01*
X51895842Y-44640322D01*
X51825568Y-44650426D01*
X51760988Y-44620932D01*
X51739660Y-44597075D01*
X51697416Y-44535609D01*
X51675316Y-44468139D01*
X51689219Y-44410292D01*
X51688361Y-44409947D01*
X51690700Y-44404129D01*
X51690700Y-44404128D01*
X51698547Y-44384610D01*
X51748766Y-44259687D01*
X51748767Y-44259685D01*
X51751601Y-44252634D01*
X51770238Y-44121680D01*
X51774909Y-44088862D01*
X51774909Y-44088859D01*
X51775490Y-44084778D01*
X51775645Y-44070000D01*
X51774974Y-44064451D01*
X51764751Y-43979978D01*
X51755276Y-43901680D01*
X51695345Y-43743077D01*
X51670120Y-43706375D01*
X51603614Y-43609608D01*
X51603613Y-43609607D01*
X51599312Y-43603349D01*
X51581609Y-43587576D01*
X51478392Y-43495612D01*
X51478388Y-43495610D01*
X51472721Y-43490560D01*
X51322881Y-43411224D01*
X51158441Y-43369919D01*
X51150843Y-43369879D01*
X51150841Y-43369879D01*
X51073668Y-43369475D01*
X50988895Y-43369031D01*
X50981508Y-43370805D01*
X50981504Y-43370805D01*
X50838162Y-43405220D01*
X50824032Y-43408612D01*
X50817288Y-43412093D01*
X50817285Y-43412094D01*
X50680117Y-43482892D01*
X50673369Y-43486375D01*
X50667647Y-43491367D01*
X50667645Y-43491368D01*
X50556359Y-43588449D01*
X50491877Y-43618157D01*
X50473530Y-43619500D01*
X46825428Y-43619500D01*
X46757307Y-43599498D01*
X46741609Y-43587576D01*
X46638392Y-43495613D01*
X46638391Y-43495612D01*
X46632721Y-43490560D01*
X46482881Y-43411224D01*
X46318441Y-43369919D01*
X46310843Y-43369879D01*
X46310841Y-43369879D01*
X46233668Y-43369475D01*
X46148895Y-43369031D01*
X46141508Y-43370805D01*
X46141504Y-43370805D01*
X45998162Y-43405220D01*
X45984032Y-43408612D01*
X45977288Y-43412093D01*
X45977285Y-43412094D01*
X45840117Y-43482892D01*
X45833369Y-43486375D01*
X45705604Y-43597831D01*
X45608113Y-43736547D01*
X45546524Y-43894513D01*
X45545532Y-43902046D01*
X45545532Y-43902047D01*
X45528299Y-44032952D01*
X45524394Y-44062611D01*
X30188376Y-44062611D01*
X30190190Y-44060803D01*
X30194303Y-44055080D01*
X30321559Y-43877983D01*
X30324577Y-43873783D01*
X30327837Y-43867188D01*
X30402750Y-43715612D01*
X30426615Y-43667325D01*
X30457643Y-43565200D01*
X30492059Y-43451927D01*
X30492060Y-43451921D01*
X30493563Y-43446975D01*
X30523622Y-43218649D01*
X30525300Y-43150000D01*
X30506430Y-42920478D01*
X30450326Y-42697120D01*
X30358496Y-42485924D01*
X30233405Y-42292563D01*
X30078412Y-42122229D01*
X30064334Y-42111111D01*
X30023270Y-42053194D01*
X30020037Y-41982272D01*
X30048988Y-41927695D01*
X30060626Y-41914831D01*
X30056843Y-41906053D01*
X29132812Y-40982022D01*
X29118868Y-40974408D01*
X29117035Y-40974539D01*
X29110420Y-40978790D01*
X28186200Y-41903010D01*
X28179440Y-41915390D01*
X28195933Y-41937422D01*
X28220744Y-42003942D01*
X28205653Y-42073316D01*
X28186159Y-42099982D01*
X28161249Y-42126049D01*
X28027877Y-42265616D01*
X27898099Y-42455863D01*
X27895923Y-42460552D01*
X27895919Y-42460558D01*
X27812774Y-42639680D01*
X27801136Y-42664752D01*
X27739592Y-42886673D01*
X27739043Y-42891810D01*
X27725784Y-43015876D01*
X27715119Y-43115665D01*
X25700500Y-43115665D01*
X25700500Y-40614930D01*
X27507416Y-40614930D01*
X27526498Y-40857390D01*
X27528041Y-40867137D01*
X27584817Y-41103624D01*
X27587866Y-41113009D01*
X27680936Y-41337700D01*
X27685417Y-41346494D01*
X27804713Y-41541167D01*
X27815170Y-41550627D01*
X27823946Y-41546844D01*
X28747978Y-40622812D01*
X28754356Y-40611132D01*
X29484408Y-40611132D01*
X29484539Y-40612965D01*
X29488790Y-40619580D01*
X30413010Y-41543800D01*
X30425390Y-41550560D01*
X30433040Y-41544833D01*
X30554583Y-41346494D01*
X30559064Y-41337700D01*
X30652134Y-41113009D01*
X30655183Y-41103624D01*
X30711959Y-40867137D01*
X30713502Y-40857390D01*
X30732584Y-40614930D01*
X30732584Y-40605070D01*
X30713502Y-40362610D01*
X30711959Y-40352863D01*
X30655183Y-40116376D01*
X30652134Y-40106991D01*
X30559064Y-39882300D01*
X30554583Y-39873506D01*
X30435287Y-39678833D01*
X30424830Y-39669373D01*
X30416054Y-39673156D01*
X29492022Y-40597188D01*
X29484408Y-40611132D01*
X28754356Y-40611132D01*
X28755592Y-40608868D01*
X28755461Y-40607035D01*
X28751210Y-40600420D01*
X27826990Y-39676200D01*
X27814610Y-39669440D01*
X27806960Y-39675167D01*
X27685417Y-39873506D01*
X27680936Y-39882300D01*
X27587866Y-40106991D01*
X27584817Y-40116376D01*
X27528041Y-40352863D01*
X27526498Y-40362610D01*
X27507416Y-40605070D01*
X27507416Y-40614930D01*
X25700500Y-40614930D01*
X25700500Y-39305170D01*
X28179373Y-39305170D01*
X28183156Y-39313946D01*
X29107188Y-40237978D01*
X29121132Y-40245592D01*
X29122965Y-40245461D01*
X29129580Y-40241210D01*
X30053800Y-39316990D01*
X30060560Y-39304610D01*
X30054833Y-39296960D01*
X29856494Y-39175417D01*
X29847700Y-39170936D01*
X29623009Y-39077866D01*
X29613624Y-39074817D01*
X29377137Y-39018041D01*
X29367390Y-39016498D01*
X29124930Y-38997416D01*
X29115070Y-38997416D01*
X28872610Y-39016498D01*
X28862863Y-39018041D01*
X28626376Y-39074817D01*
X28616991Y-39077866D01*
X28392300Y-39170936D01*
X28383506Y-39175417D01*
X28188833Y-39294713D01*
X28179373Y-39305170D01*
X25700500Y-39305170D01*
X25700500Y-37091522D01*
X71066157Y-37091522D01*
X71067397Y-37098738D01*
X71067397Y-37098740D01*
X71094554Y-37256785D01*
X71095794Y-37264000D01*
X71164314Y-37425033D01*
X71268043Y-37565984D01*
X71273621Y-37570723D01*
X71273624Y-37570726D01*
X71395836Y-37674553D01*
X71395840Y-37674556D01*
X71401415Y-37679292D01*
X71482232Y-37720559D01*
X71498347Y-37728788D01*
X71557276Y-37758879D01*
X71564381Y-37760618D01*
X71564385Y-37760619D01*
X71645518Y-37780471D01*
X71727266Y-37800475D01*
X71732866Y-37800822D01*
X71732870Y-37800823D01*
X71736369Y-37801040D01*
X71736378Y-37801040D01*
X71738308Y-37801160D01*
X71864482Y-37801160D01*
X71956029Y-37790487D01*
X71987216Y-37786851D01*
X71987218Y-37786851D01*
X71994488Y-37786003D01*
X72001365Y-37783507D01*
X72001368Y-37783506D01*
X72152112Y-37728788D01*
X72158991Y-37726291D01*
X72305345Y-37630337D01*
X72425700Y-37503288D01*
X72513599Y-37351958D01*
X72564327Y-37184467D01*
X72575163Y-37009798D01*
X72560448Y-36924158D01*
X72546766Y-36844535D01*
X72546765Y-36844533D01*
X72545526Y-36837320D01*
X72477006Y-36676287D01*
X72373277Y-36535336D01*
X72367699Y-36530597D01*
X72367696Y-36530594D01*
X72245484Y-36426767D01*
X72245480Y-36426764D01*
X72239905Y-36422028D01*
X72155722Y-36379042D01*
X72090560Y-36345768D01*
X72090558Y-36345767D01*
X72084044Y-36342441D01*
X72076939Y-36340702D01*
X72076935Y-36340701D01*
X71983401Y-36317814D01*
X71914054Y-36300845D01*
X71908454Y-36300498D01*
X71908450Y-36300497D01*
X71904951Y-36300280D01*
X71904942Y-36300280D01*
X71903012Y-36300160D01*
X71776838Y-36300160D01*
X71685291Y-36310833D01*
X71654104Y-36314469D01*
X71654102Y-36314469D01*
X71646832Y-36315317D01*
X71639955Y-36317813D01*
X71639952Y-36317814D01*
X71562941Y-36345768D01*
X71482329Y-36375029D01*
X71335975Y-36470983D01*
X71215620Y-36598032D01*
X71127721Y-36749362D01*
X71076993Y-36916853D01*
X71066157Y-37091522D01*
X25700500Y-37091522D01*
X25700500Y-34970202D01*
X68944837Y-34970202D01*
X68946077Y-34977418D01*
X68946077Y-34977420D01*
X68973234Y-35135465D01*
X68974474Y-35142680D01*
X69042994Y-35303713D01*
X69146723Y-35444664D01*
X69152301Y-35449403D01*
X69152304Y-35449406D01*
X69274516Y-35553233D01*
X69274520Y-35553236D01*
X69280095Y-35557972D01*
X69360912Y-35599239D01*
X69377027Y-35607468D01*
X69435956Y-35637559D01*
X69443061Y-35639298D01*
X69443065Y-35639299D01*
X69524198Y-35659151D01*
X69605946Y-35679155D01*
X69611546Y-35679502D01*
X69611550Y-35679503D01*
X69615049Y-35679720D01*
X69615058Y-35679720D01*
X69616988Y-35679840D01*
X69743162Y-35679840D01*
X69834709Y-35669167D01*
X69865896Y-35665531D01*
X69865898Y-35665531D01*
X69873168Y-35664683D01*
X69880045Y-35662187D01*
X69880048Y-35662186D01*
X70030792Y-35607468D01*
X70037671Y-35604971D01*
X70184025Y-35509017D01*
X70304380Y-35381968D01*
X70392279Y-35230638D01*
X70443007Y-35063147D01*
X70453843Y-34888478D01*
X70439128Y-34802838D01*
X70425446Y-34723215D01*
X70425445Y-34723213D01*
X70424206Y-34716000D01*
X70355686Y-34554967D01*
X70251957Y-34414016D01*
X70246379Y-34409277D01*
X70246376Y-34409274D01*
X70124164Y-34305447D01*
X70124160Y-34305444D01*
X70118585Y-34300708D01*
X70034402Y-34257722D01*
X69969240Y-34224448D01*
X69969238Y-34224447D01*
X69962724Y-34221121D01*
X69955619Y-34219382D01*
X69955615Y-34219381D01*
X69862081Y-34196494D01*
X69792734Y-34179525D01*
X69787134Y-34179178D01*
X69787130Y-34179177D01*
X69783631Y-34178960D01*
X69783622Y-34178960D01*
X69781692Y-34178840D01*
X69655518Y-34178840D01*
X69563971Y-34189513D01*
X69532784Y-34193149D01*
X69532782Y-34193149D01*
X69525512Y-34193997D01*
X69518635Y-34196493D01*
X69518632Y-34196494D01*
X69441621Y-34224448D01*
X69361009Y-34253709D01*
X69214655Y-34349663D01*
X69094300Y-34476712D01*
X69006401Y-34628042D01*
X68955673Y-34795533D01*
X68944837Y-34970202D01*
X25700500Y-34970202D01*
X25700500Y-31793233D01*
X29844906Y-31793233D01*
X29871102Y-32067792D01*
X29936657Y-32335694D01*
X30040199Y-32591326D01*
X30042500Y-32595256D01*
X30042503Y-32595262D01*
X30177255Y-32825403D01*
X30177260Y-32825410D01*
X30179558Y-32829335D01*
X30182405Y-32832895D01*
X30300028Y-32979974D01*
X30351816Y-33044732D01*
X30553364Y-33233008D01*
X30779979Y-33390216D01*
X30784055Y-33392244D01*
X30784057Y-33392245D01*
X31022827Y-33511032D01*
X31022830Y-33511033D01*
X31026914Y-33513065D01*
X31288998Y-33598980D01*
X31293489Y-33599760D01*
X31293490Y-33599760D01*
X31556957Y-33645506D01*
X31556965Y-33645507D01*
X31560738Y-33646162D01*
X31564575Y-33646353D01*
X31646305Y-33650422D01*
X31646313Y-33650422D01*
X31647876Y-33650500D01*
X31820070Y-33650500D01*
X31822338Y-33650335D01*
X31822350Y-33650335D01*
X31956603Y-33640594D01*
X32025083Y-33635625D01*
X32029538Y-33634641D01*
X32029541Y-33634641D01*
X32289947Y-33577148D01*
X32289950Y-33577147D01*
X32294403Y-33576164D01*
X32552319Y-33478449D01*
X32793428Y-33344525D01*
X33012678Y-33177198D01*
X33015873Y-33173930D01*
X33202283Y-32983242D01*
X33202287Y-32983237D01*
X33205477Y-32979974D01*
X33367787Y-32756984D01*
X33496206Y-32512899D01*
X33588045Y-32252832D01*
X33624516Y-32067792D01*
X33640499Y-31986704D01*
X33640500Y-31986698D01*
X33641380Y-31982232D01*
X33641607Y-31977676D01*
X33650790Y-31793233D01*
X74294906Y-31793233D01*
X74321102Y-32067792D01*
X74386657Y-32335694D01*
X74490199Y-32591326D01*
X74492500Y-32595256D01*
X74492503Y-32595262D01*
X74627255Y-32825403D01*
X74627260Y-32825410D01*
X74629558Y-32829335D01*
X74632405Y-32832895D01*
X74750028Y-32979974D01*
X74801816Y-33044732D01*
X75003364Y-33233008D01*
X75229979Y-33390216D01*
X75234055Y-33392244D01*
X75234057Y-33392245D01*
X75472827Y-33511032D01*
X75472830Y-33511033D01*
X75476914Y-33513065D01*
X75738998Y-33598980D01*
X75743489Y-33599760D01*
X75743490Y-33599760D01*
X76006957Y-33645506D01*
X76006965Y-33645507D01*
X76010738Y-33646162D01*
X76014575Y-33646353D01*
X76096305Y-33650422D01*
X76096313Y-33650422D01*
X76097876Y-33650500D01*
X76270070Y-33650500D01*
X76272338Y-33650335D01*
X76272350Y-33650335D01*
X76406603Y-33640594D01*
X76475083Y-33635625D01*
X76479538Y-33634641D01*
X76479541Y-33634641D01*
X76739947Y-33577148D01*
X76739950Y-33577147D01*
X76744403Y-33576164D01*
X77002319Y-33478449D01*
X77243428Y-33344525D01*
X77462678Y-33177198D01*
X77465873Y-33173930D01*
X77652283Y-32983242D01*
X77652287Y-32983237D01*
X77655477Y-32979974D01*
X77817787Y-32756984D01*
X77946206Y-32512899D01*
X78038045Y-32252832D01*
X78074516Y-32067792D01*
X78090499Y-31986704D01*
X78090500Y-31986698D01*
X78091380Y-31982232D01*
X78091607Y-31977676D01*
X78104867Y-31711336D01*
X78104867Y-31711330D01*
X78105094Y-31706767D01*
X78078898Y-31432208D01*
X78041730Y-31280312D01*
X78014429Y-31168744D01*
X78013343Y-31164306D01*
X77909801Y-30908674D01*
X77907500Y-30904744D01*
X77907497Y-30904738D01*
X77772745Y-30674597D01*
X77772740Y-30674590D01*
X77770442Y-30670665D01*
X77652927Y-30523720D01*
X77601036Y-30458834D01*
X77601035Y-30458833D01*
X77598184Y-30455268D01*
X77551801Y-30411939D01*
X77399972Y-30270108D01*
X77399969Y-30270106D01*
X77396636Y-30266992D01*
X77170021Y-30109784D01*
X77165943Y-30107755D01*
X76927173Y-29988968D01*
X76927170Y-29988967D01*
X76923086Y-29986935D01*
X76661002Y-29901020D01*
X76656510Y-29900240D01*
X76393043Y-29854494D01*
X76393035Y-29854493D01*
X76389262Y-29853838D01*
X76379029Y-29853329D01*
X76303695Y-29849578D01*
X76303687Y-29849578D01*
X76302124Y-29849500D01*
X76129930Y-29849500D01*
X76127662Y-29849665D01*
X76127650Y-29849665D01*
X75993397Y-29859406D01*
X75924917Y-29864375D01*
X75920462Y-29865359D01*
X75920459Y-29865359D01*
X75660053Y-29922852D01*
X75660050Y-29922853D01*
X75655597Y-29923836D01*
X75397681Y-30021551D01*
X75393694Y-30023765D01*
X75393693Y-30023766D01*
X75196381Y-30133363D01*
X75156572Y-30155475D01*
X75101620Y-30197413D01*
X74995833Y-30278148D01*
X74937322Y-30322802D01*
X74934129Y-30326068D01*
X74934127Y-30326070D01*
X74747717Y-30516758D01*
X74747713Y-30516763D01*
X74744523Y-30520026D01*
X74741836Y-30523718D01*
X74741834Y-30523720D01*
X74733491Y-30535183D01*
X74582213Y-30743016D01*
X74453794Y-30987101D01*
X74361955Y-31247168D01*
X74342303Y-31346874D01*
X74324587Y-31436760D01*
X74308620Y-31517768D01*
X74308393Y-31522322D01*
X74308393Y-31522324D01*
X74295201Y-31787317D01*
X74294906Y-31793233D01*
X33650790Y-31793233D01*
X33654867Y-31711336D01*
X33654867Y-31711330D01*
X33655094Y-31706767D01*
X33628898Y-31432208D01*
X33591730Y-31280312D01*
X33564429Y-31168744D01*
X33563343Y-31164306D01*
X33459801Y-30908674D01*
X33457500Y-30904744D01*
X33457497Y-30904738D01*
X33322745Y-30674597D01*
X33322740Y-30674590D01*
X33320442Y-30670665D01*
X33202927Y-30523720D01*
X33151036Y-30458834D01*
X33151035Y-30458833D01*
X33148184Y-30455268D01*
X33101801Y-30411939D01*
X32949972Y-30270108D01*
X32949969Y-30270106D01*
X32946636Y-30266992D01*
X32856764Y-30204646D01*
X35679500Y-30204646D01*
X35679941Y-30208350D01*
X35679941Y-30208353D01*
X35680585Y-30213764D01*
X35682618Y-30230846D01*
X35686456Y-30239486D01*
X35686456Y-30239487D01*
X35705061Y-30281373D01*
X35728061Y-30333153D01*
X35736294Y-30341372D01*
X35736295Y-30341373D01*
X35764870Y-30369898D01*
X35807287Y-30412241D01*
X35817924Y-30416944D01*
X35817926Y-30416945D01*
X35877462Y-30443265D01*
X35909673Y-30457506D01*
X35935354Y-30460500D01*
X38224646Y-30460500D01*
X38228350Y-30460059D01*
X38228353Y-30460059D01*
X38238645Y-30458834D01*
X38250846Y-30457382D01*
X38305502Y-30433105D01*
X38342518Y-30416663D01*
X38353153Y-30411939D01*
X38364997Y-30400075D01*
X38413048Y-30351939D01*
X38432241Y-30332713D01*
X38437849Y-30320030D01*
X38473675Y-30238992D01*
X38477506Y-30230327D01*
X38480500Y-30204646D01*
X38480500Y-30200980D01*
X38480712Y-30197335D01*
X38482049Y-30197413D01*
X38500502Y-30134566D01*
X38554158Y-30088073D01*
X38624432Y-30077969D01*
X38686985Y-30105743D01*
X38813953Y-30211154D01*
X39012790Y-30327345D01*
X39017615Y-30329187D01*
X39017616Y-30329188D01*
X39049525Y-30341373D01*
X39227934Y-30409501D01*
X39233000Y-30410532D01*
X39233001Y-30410532D01*
X39264523Y-30416945D01*
X39453607Y-30455414D01*
X39583352Y-30460172D01*
X39678585Y-30463664D01*
X39678589Y-30463664D01*
X39683749Y-30463853D01*
X39688869Y-30463197D01*
X39688871Y-30463197D01*
X39763202Y-30453675D01*
X39912178Y-30434591D01*
X39917126Y-30433106D01*
X39917133Y-30433105D01*
X40127811Y-30369898D01*
X40127810Y-30369898D01*
X40132761Y-30368413D01*
X40339574Y-30267096D01*
X40511244Y-30144646D01*
X53299500Y-30144646D01*
X53302618Y-30170846D01*
X53306456Y-30179486D01*
X53306456Y-30179487D01*
X53319278Y-30208353D01*
X53348061Y-30273153D01*
X53427287Y-30352241D01*
X53437924Y-30356944D01*
X53437926Y-30356945D01*
X53497462Y-30383265D01*
X53529673Y-30397506D01*
X53555354Y-30400500D01*
X55844646Y-30400500D01*
X55848350Y-30400059D01*
X55848353Y-30400059D01*
X55855746Y-30399179D01*
X55870846Y-30397382D01*
X55932722Y-30369898D01*
X55962518Y-30356663D01*
X55973153Y-30351939D01*
X55987296Y-30337772D01*
X56020180Y-30304830D01*
X56052241Y-30272713D01*
X56052399Y-30272871D01*
X56100927Y-30233240D01*
X56171465Y-30225190D01*
X56231734Y-30253520D01*
X56288153Y-30301707D01*
X56296133Y-30307504D01*
X56503506Y-30434583D01*
X56512300Y-30439064D01*
X56736991Y-30532134D01*
X56746376Y-30535183D01*
X56982863Y-30591959D01*
X56992610Y-30593502D01*
X57235070Y-30612584D01*
X57244930Y-30612584D01*
X57487390Y-30593502D01*
X57497137Y-30591959D01*
X57733624Y-30535183D01*
X57743009Y-30532134D01*
X57967700Y-30439064D01*
X57976494Y-30434583D01*
X58171167Y-30315287D01*
X58180627Y-30304830D01*
X58176844Y-30296054D01*
X56969885Y-29089095D01*
X56935859Y-29026783D01*
X56937694Y-29001132D01*
X57604408Y-29001132D01*
X57604539Y-29002965D01*
X57608790Y-29009580D01*
X58533010Y-29933800D01*
X58545390Y-29940560D01*
X58553040Y-29934833D01*
X58674583Y-29736494D01*
X58679064Y-29727700D01*
X58772134Y-29503009D01*
X58775183Y-29493624D01*
X58831959Y-29257137D01*
X58833502Y-29247390D01*
X58852584Y-29004930D01*
X58852584Y-28995070D01*
X58833502Y-28752610D01*
X58831959Y-28742863D01*
X58775183Y-28506376D01*
X58772134Y-28496991D01*
X58679064Y-28272300D01*
X58674583Y-28263506D01*
X58555287Y-28068833D01*
X58544830Y-28059373D01*
X58536054Y-28063156D01*
X57612022Y-28987188D01*
X57604408Y-29001132D01*
X56937694Y-29001132D01*
X56940924Y-28955968D01*
X56969885Y-28910905D01*
X58173800Y-27706990D01*
X58180560Y-27694610D01*
X58174833Y-27686960D01*
X57976494Y-27565417D01*
X57967700Y-27560936D01*
X57743009Y-27467866D01*
X57733624Y-27464817D01*
X57497137Y-27408041D01*
X57487390Y-27406498D01*
X57244930Y-27387416D01*
X57235070Y-27387416D01*
X56992610Y-27406498D01*
X56982863Y-27408041D01*
X56746376Y-27464817D01*
X56736991Y-27467866D01*
X56512300Y-27560936D01*
X56503506Y-27565417D01*
X56296133Y-27692496D01*
X56288160Y-27698288D01*
X56231725Y-27746489D01*
X56166935Y-27775520D01*
X56096735Y-27764915D01*
X56052064Y-27727127D01*
X56051939Y-27726847D01*
X56032048Y-27706990D01*
X56011982Y-27686960D01*
X55972713Y-27647759D01*
X55962076Y-27643056D01*
X55962074Y-27643055D01*
X55902538Y-27616735D01*
X55870327Y-27602494D01*
X55844646Y-27599500D01*
X53555354Y-27599500D01*
X53551650Y-27599941D01*
X53551647Y-27599941D01*
X53546287Y-27600579D01*
X53529154Y-27602618D01*
X53426847Y-27648061D01*
X53418628Y-27656294D01*
X53418627Y-27656295D01*
X53414056Y-27660874D01*
X53347759Y-27727287D01*
X53343056Y-27737924D01*
X53343055Y-27737926D01*
X53324872Y-27779055D01*
X53302494Y-27829673D01*
X53299500Y-27855354D01*
X53299500Y-30144646D01*
X40511244Y-30144646D01*
X40527062Y-30133363D01*
X40690190Y-29970803D01*
X40740895Y-29900240D01*
X40821559Y-29787983D01*
X40824577Y-29783783D01*
X40926615Y-29577325D01*
X40952046Y-29493624D01*
X40992059Y-29361927D01*
X40992060Y-29361921D01*
X40993563Y-29356975D01*
X41023622Y-29128649D01*
X41025300Y-29060000D01*
X41006430Y-28830478D01*
X40950326Y-28607120D01*
X40858496Y-28395924D01*
X40733405Y-28202563D01*
X40611720Y-28068833D01*
X40581890Y-28036051D01*
X40581889Y-28036050D01*
X40578412Y-28032229D01*
X40574361Y-28029030D01*
X40574357Y-28029026D01*
X40401735Y-27892697D01*
X40401730Y-27892693D01*
X40397681Y-27889496D01*
X40393165Y-27887003D01*
X40393162Y-27887001D01*
X40200589Y-27780695D01*
X40200585Y-27780693D01*
X40196065Y-27778198D01*
X40191196Y-27776474D01*
X40191192Y-27776472D01*
X39983853Y-27703049D01*
X39983849Y-27703048D01*
X39978978Y-27701323D01*
X39973885Y-27700416D01*
X39973882Y-27700415D01*
X39877707Y-27683284D01*
X39752250Y-27660937D01*
X39665802Y-27659881D01*
X39527141Y-27658186D01*
X39527139Y-27658186D01*
X39521971Y-27658123D01*
X39294325Y-27692958D01*
X39075424Y-27764506D01*
X38871149Y-27870845D01*
X38686984Y-28009119D01*
X38686599Y-28008606D01*
X38625795Y-28037273D01*
X38555403Y-28028025D01*
X38501186Y-27982187D01*
X38480569Y-27920247D01*
X38480500Y-27919083D01*
X38480500Y-27915354D01*
X38480060Y-27911653D01*
X38480059Y-27911644D01*
X38478499Y-27898541D01*
X38477382Y-27889154D01*
X38469250Y-27870845D01*
X38436663Y-27797482D01*
X38431939Y-27786847D01*
X38420593Y-27775520D01*
X38367022Y-27722043D01*
X38352713Y-27707759D01*
X38342076Y-27703056D01*
X38342074Y-27703055D01*
X38282538Y-27676735D01*
X38250327Y-27662494D01*
X38224646Y-27659500D01*
X35935354Y-27659500D01*
X35931650Y-27659941D01*
X35931647Y-27659941D01*
X35924254Y-27660821D01*
X35909154Y-27662618D01*
X35900514Y-27666456D01*
X35900513Y-27666456D01*
X35818117Y-27703055D01*
X35806847Y-27708061D01*
X35798628Y-27716294D01*
X35798627Y-27716295D01*
X35787654Y-27727287D01*
X35727759Y-27787287D01*
X35723056Y-27797924D01*
X35723055Y-27797926D01*
X35709020Y-27829673D01*
X35682494Y-27889673D01*
X35679500Y-27915354D01*
X35679500Y-30204646D01*
X32856764Y-30204646D01*
X32720021Y-30109784D01*
X32715943Y-30107755D01*
X32477173Y-29988968D01*
X32477170Y-29988967D01*
X32473086Y-29986935D01*
X32211002Y-29901020D01*
X32206510Y-29900240D01*
X31943043Y-29854494D01*
X31943035Y-29854493D01*
X31939262Y-29853838D01*
X31929029Y-29853329D01*
X31853695Y-29849578D01*
X31853687Y-29849578D01*
X31852124Y-29849500D01*
X31679930Y-29849500D01*
X31677662Y-29849665D01*
X31677650Y-29849665D01*
X31543397Y-29859406D01*
X31474917Y-29864375D01*
X31470462Y-29865359D01*
X31470459Y-29865359D01*
X31210053Y-29922852D01*
X31210050Y-29922853D01*
X31205597Y-29923836D01*
X30947681Y-30021551D01*
X30943694Y-30023765D01*
X30943693Y-30023766D01*
X30746381Y-30133363D01*
X30706572Y-30155475D01*
X30651620Y-30197413D01*
X30545833Y-30278148D01*
X30487322Y-30322802D01*
X30484129Y-30326068D01*
X30484127Y-30326070D01*
X30297717Y-30516758D01*
X30297713Y-30516763D01*
X30294523Y-30520026D01*
X30291836Y-30523718D01*
X30291834Y-30523720D01*
X30283491Y-30535183D01*
X30132213Y-30743016D01*
X30003794Y-30987101D01*
X29911955Y-31247168D01*
X29892303Y-31346874D01*
X29874587Y-31436760D01*
X29858620Y-31517768D01*
X29858393Y-31522322D01*
X29858393Y-31522324D01*
X29845201Y-31787317D01*
X29844906Y-31793233D01*
X25700500Y-31793233D01*
X25700500Y-31787317D01*
X25702414Y-31765437D01*
X25703222Y-31760855D01*
X25705136Y-31750000D01*
X25703222Y-31739145D01*
X25703222Y-31734859D01*
X25701876Y-31714989D01*
X25718955Y-31280312D01*
X25719731Y-31270450D01*
X25774398Y-30808562D01*
X25775946Y-30798790D01*
X25866683Y-30342626D01*
X25868993Y-30333005D01*
X25995240Y-29885369D01*
X25998297Y-29875960D01*
X26159278Y-29439600D01*
X26163064Y-29430460D01*
X26199306Y-29351846D01*
X26357787Y-29008072D01*
X26362278Y-28999259D01*
X26589531Y-28593470D01*
X26594700Y-28585034D01*
X26850259Y-28202563D01*
X26853105Y-28198304D01*
X26858915Y-28190307D01*
X27146872Y-27825036D01*
X27153280Y-27817533D01*
X27468998Y-27475993D01*
X27475993Y-27468998D01*
X27564247Y-27387416D01*
X27817533Y-27153280D01*
X27825036Y-27146872D01*
X28190315Y-26858909D01*
X28198304Y-26853105D01*
X28585034Y-26594700D01*
X28593470Y-26589531D01*
X28999259Y-26362278D01*
X29008074Y-26357786D01*
X29430463Y-26163063D01*
X29439600Y-26159278D01*
X29875960Y-25998297D01*
X29885369Y-25995240D01*
X30333005Y-25868993D01*
X30342626Y-25866683D01*
X30798790Y-25775946D01*
X30808562Y-25774398D01*
X31270450Y-25719731D01*
X31280312Y-25718955D01*
X31714989Y-25701876D01*
X31734859Y-25703222D01*
X31739145Y-25703222D01*
X31750000Y-25705136D01*
X31765437Y-25702414D01*
X31787317Y-25700500D01*
X76162683Y-25700500D01*
X76184563Y-25702414D01*
G37*
G04 #@! TD.AperFunction*
M02*
