G04 #@! TF.GenerationSoftware,KiCad,Pcbnew,8.0.6*
G04 #@! TF.CreationDate,2024-11-26T20:52:07-08:00*
G04 #@! TF.ProjectId,Constellation Stack V1.1,436f6e73-7465-46c6-9c61-74696f6e2053,rev?*
G04 #@! TF.SameCoordinates,Original*
G04 #@! TF.FileFunction,Legend,Top*
G04 #@! TF.FilePolarity,Positive*
%FSLAX46Y46*%
G04 Gerber Fmt 4.6, Leading zero omitted, Abs format (unit mm)*
G04 Created by KiCad (PCBNEW 8.0.6) date 2024-11-26 20:52:07*
%MOMM*%
%LPD*%
G01*
G04 APERTURE LIST*
G04 Aperture macros list*
%AMRoundRect*
0 Rectangle with rounded corners*
0 $1 Rounding radius*
0 $2 $3 $4 $5 $6 $7 $8 $9 X,Y pos of 4 corners*
0 Add a 4 corners polygon primitive as box body*
4,1,4,$2,$3,$4,$5,$6,$7,$8,$9,$2,$3,0*
0 Add four circle primitives for the rounded corners*
1,1,$1+$1,$2,$3*
1,1,$1+$1,$4,$5*
1,1,$1+$1,$6,$7*
1,1,$1+$1,$8,$9*
0 Add four rect primitives between the rounded corners*
20,1,$1+$1,$2,$3,$4,$5,0*
20,1,$1+$1,$4,$5,$6,$7,0*
20,1,$1+$1,$6,$7,$8,$9,0*
20,1,$1+$1,$8,$9,$2,$3,0*%
G04 Aperture macros list end*
%ADD10C,0.150000*%
%ADD11C,0.152400*%
%ADD12C,0.120000*%
%ADD13C,0.127000*%
%ADD14C,0.200000*%
%ADD15C,0.010000*%
%ADD16R,0.889000X1.397000*%
%ADD17C,2.000000*%
%ADD18R,1.397000X0.889000*%
%ADD19RoundRect,0.225000X0.225000X0.250000X-0.225000X0.250000X-0.225000X-0.250000X0.225000X-0.250000X0*%
%ADD20RoundRect,0.250000X0.850000X-0.375000X0.850000X0.375000X-0.850000X0.375000X-0.850000X-0.375000X0*%
%ADD21RoundRect,0.135000X-0.135000X-0.185000X0.135000X-0.185000X0.135000X0.185000X-0.135000X0.185000X0*%
%ADD22RoundRect,0.135000X-0.185000X0.135000X-0.185000X-0.135000X0.185000X-0.135000X0.185000X0.135000X0*%
%ADD23RoundRect,0.135000X0.185000X-0.135000X0.185000X0.135000X-0.185000X0.135000X-0.185000X-0.135000X0*%
%ADD24RoundRect,0.140000X-0.170000X0.140000X-0.170000X-0.140000X0.170000X-0.140000X0.170000X0.140000X0*%
%ADD25RoundRect,0.099250X-0.297750X0.877750X-0.297750X-0.877750X0.297750X-0.877750X0.297750X0.877750X0*%
%ADD26RoundRect,0.250000X-1.100000X0.325000X-1.100000X-0.325000X1.100000X-0.325000X1.100000X0.325000X0*%
%ADD27RoundRect,0.250000X-0.450000X0.262500X-0.450000X-0.262500X0.450000X-0.262500X0.450000X0.262500X0*%
%ADD28R,0.952500X0.508000*%
%ADD29RoundRect,0.075000X0.662500X0.075000X-0.662500X0.075000X-0.662500X-0.075000X0.662500X-0.075000X0*%
%ADD30RoundRect,0.218750X0.256250X-0.218750X0.256250X0.218750X-0.256250X0.218750X-0.256250X-0.218750X0*%
%ADD31RoundRect,0.140000X-0.140000X-0.170000X0.140000X-0.170000X0.140000X0.170000X-0.140000X0.170000X0*%
%ADD32RoundRect,0.225000X-0.250000X0.225000X-0.250000X-0.225000X0.250000X-0.225000X0.250000X0.225000X0*%
%ADD33RoundRect,0.250000X0.450000X-0.262500X0.450000X0.262500X-0.450000X0.262500X-0.450000X-0.262500X0*%
%ADD34RoundRect,0.135000X0.135000X0.185000X-0.135000X0.185000X-0.135000X-0.185000X0.135000X-0.185000X0*%
%ADD35RoundRect,0.062500X-0.350000X-0.062500X0.350000X-0.062500X0.350000X0.062500X-0.350000X0.062500X0*%
%ADD36RoundRect,0.062500X-0.062500X-0.350000X0.062500X-0.350000X0.062500X0.350000X-0.062500X0.350000X0*%
%ADD37R,2.700000X2.700000*%
%ADD38C,5.600000*%
%ADD39RoundRect,0.218750X-0.256250X0.218750X-0.256250X-0.218750X0.256250X-0.218750X0.256250X0.218750X0*%
%ADD40C,0.650000*%
%ADD41RoundRect,0.150000X-0.500000X0.150000X-0.500000X-0.150000X0.500000X-0.150000X0.500000X0.150000X0*%
%ADD42RoundRect,0.075000X-0.575000X0.075000X-0.575000X-0.075000X0.575000X-0.075000X0.575000X0.075000X0*%
%ADD43O,2.100000X1.000000*%
%ADD44O,1.600000X1.000000*%
%ADD45RoundRect,0.140000X0.140000X0.170000X-0.140000X0.170000X-0.140000X-0.170000X0.140000X-0.170000X0*%
%ADD46RoundRect,0.133350X-0.615950X-0.133350X0.615950X-0.133350X0.615950X0.133350X-0.615950X0.133350X0*%
%ADD47RoundRect,0.140000X0.170000X-0.140000X0.170000X0.140000X-0.170000X0.140000X-0.170000X-0.140000X0*%
%ADD48R,0.650000X0.400000*%
%ADD49RoundRect,0.225000X-0.225000X-0.250000X0.225000X-0.250000X0.225000X0.250000X-0.225000X0.250000X0*%
%ADD50RoundRect,0.250000X-0.475000X0.250000X-0.475000X-0.250000X0.475000X-0.250000X0.475000X0.250000X0*%
%ADD51RoundRect,0.150000X-0.150000X0.512500X-0.150000X-0.512500X0.150000X-0.512500X0.150000X0.512500X0*%
%ADD52R,1.981200X0.540800*%
%ADD53RoundRect,0.250000X0.250000X0.475000X-0.250000X0.475000X-0.250000X-0.475000X0.250000X-0.475000X0*%
%ADD54RoundRect,0.102000X-0.200000X0.400000X-0.200000X-0.400000X0.200000X-0.400000X0.200000X0.400000X0*%
%ADD55RoundRect,0.102000X-0.400000X0.200000X-0.400000X-0.200000X0.400000X-0.200000X0.400000X0.200000X0*%
%ADD56RoundRect,0.102000X-0.725000X0.725000X-0.725000X-0.725000X0.725000X-0.725000X0.725000X0.725000X0*%
%ADD57RoundRect,0.102000X-0.350000X0.350000X-0.350000X-0.350000X0.350000X-0.350000X0.350000X0.350000X0*%
%ADD58RoundRect,0.250000X0.475000X-0.250000X0.475000X0.250000X-0.475000X0.250000X-0.475000X-0.250000X0*%
%ADD59RoundRect,0.218750X-0.218750X-0.256250X0.218750X-0.256250X0.218750X0.256250X-0.218750X0.256250X0*%
%ADD60RoundRect,0.102000X1.075000X0.475000X-1.075000X0.475000X-1.075000X-0.475000X1.075000X-0.475000X0*%
%ADD61RoundRect,0.102000X1.075000X1.625000X-1.075000X1.625000X-1.075000X-1.625000X1.075000X-1.625000X0*%
%ADD62O,2.200000X2.200000*%
%ADD63R,2.200000X2.200000*%
%ADD64C,2.200000*%
G04 APERTURE END LIST*
D10*
X61347438Y-66299411D02*
X61299819Y-66394649D01*
X61299819Y-66394649D02*
X61299819Y-66537506D01*
X61299819Y-66537506D02*
X61347438Y-66680363D01*
X61347438Y-66680363D02*
X61442676Y-66775601D01*
X61442676Y-66775601D02*
X61537914Y-66823220D01*
X61537914Y-66823220D02*
X61728390Y-66870839D01*
X61728390Y-66870839D02*
X61871247Y-66870839D01*
X61871247Y-66870839D02*
X62061723Y-66823220D01*
X62061723Y-66823220D02*
X62156961Y-66775601D01*
X62156961Y-66775601D02*
X62252200Y-66680363D01*
X62252200Y-66680363D02*
X62299819Y-66537506D01*
X62299819Y-66537506D02*
X62299819Y-66442268D01*
X62299819Y-66442268D02*
X62252200Y-66299411D01*
X62252200Y-66299411D02*
X62204580Y-66251792D01*
X62204580Y-66251792D02*
X61871247Y-66251792D01*
X61871247Y-66251792D02*
X61871247Y-66442268D01*
X62299819Y-65823220D02*
X61299819Y-65823220D01*
X61299819Y-65823220D02*
X61299819Y-65442268D01*
X61299819Y-65442268D02*
X61347438Y-65347030D01*
X61347438Y-65347030D02*
X61395057Y-65299411D01*
X61395057Y-65299411D02*
X61490295Y-65251792D01*
X61490295Y-65251792D02*
X61633152Y-65251792D01*
X61633152Y-65251792D02*
X61728390Y-65299411D01*
X61728390Y-65299411D02*
X61776009Y-65347030D01*
X61776009Y-65347030D02*
X61823628Y-65442268D01*
X61823628Y-65442268D02*
X61823628Y-65823220D01*
X62299819Y-64823220D02*
X61299819Y-64823220D01*
X61299819Y-64156554D02*
X61299819Y-63966078D01*
X61299819Y-63966078D02*
X61347438Y-63870840D01*
X61347438Y-63870840D02*
X61442676Y-63775602D01*
X61442676Y-63775602D02*
X61633152Y-63727983D01*
X61633152Y-63727983D02*
X61966485Y-63727983D01*
X61966485Y-63727983D02*
X62156961Y-63775602D01*
X62156961Y-63775602D02*
X62252200Y-63870840D01*
X62252200Y-63870840D02*
X62299819Y-63966078D01*
X62299819Y-63966078D02*
X62299819Y-64156554D01*
X62299819Y-64156554D02*
X62252200Y-64251792D01*
X62252200Y-64251792D02*
X62156961Y-64347030D01*
X62156961Y-64347030D02*
X61966485Y-64394649D01*
X61966485Y-64394649D02*
X61633152Y-64394649D01*
X61633152Y-64394649D02*
X61442676Y-64347030D01*
X61442676Y-64347030D02*
X61347438Y-64251792D01*
X61347438Y-64251792D02*
X61299819Y-64156554D01*
X62395057Y-63537507D02*
X62395057Y-62775602D01*
X61299819Y-62347030D02*
X61299819Y-62251792D01*
X61299819Y-62251792D02*
X61347438Y-62156554D01*
X61347438Y-62156554D02*
X61395057Y-62108935D01*
X61395057Y-62108935D02*
X61490295Y-62061316D01*
X61490295Y-62061316D02*
X61680771Y-62013697D01*
X61680771Y-62013697D02*
X61918866Y-62013697D01*
X61918866Y-62013697D02*
X62109342Y-62061316D01*
X62109342Y-62061316D02*
X62204580Y-62108935D01*
X62204580Y-62108935D02*
X62252200Y-62156554D01*
X62252200Y-62156554D02*
X62299819Y-62251792D01*
X62299819Y-62251792D02*
X62299819Y-62347030D01*
X62299819Y-62347030D02*
X62252200Y-62442268D01*
X62252200Y-62442268D02*
X62204580Y-62489887D01*
X62204580Y-62489887D02*
X62109342Y-62537506D01*
X62109342Y-62537506D02*
X61918866Y-62585125D01*
X61918866Y-62585125D02*
X61680771Y-62585125D01*
X61680771Y-62585125D02*
X61490295Y-62537506D01*
X61490295Y-62537506D02*
X61395057Y-62489887D01*
X61395057Y-62489887D02*
X61347438Y-62442268D01*
X61347438Y-62442268D02*
X61299819Y-62347030D01*
X27012561Y-40730588D02*
X27060180Y-40635350D01*
X27060180Y-40635350D02*
X27060180Y-40492493D01*
X27060180Y-40492493D02*
X27012561Y-40349636D01*
X27012561Y-40349636D02*
X26917323Y-40254398D01*
X26917323Y-40254398D02*
X26822085Y-40206779D01*
X26822085Y-40206779D02*
X26631609Y-40159160D01*
X26631609Y-40159160D02*
X26488752Y-40159160D01*
X26488752Y-40159160D02*
X26298276Y-40206779D01*
X26298276Y-40206779D02*
X26203038Y-40254398D01*
X26203038Y-40254398D02*
X26107800Y-40349636D01*
X26107800Y-40349636D02*
X26060180Y-40492493D01*
X26060180Y-40492493D02*
X26060180Y-40587731D01*
X26060180Y-40587731D02*
X26107800Y-40730588D01*
X26107800Y-40730588D02*
X26155419Y-40778207D01*
X26155419Y-40778207D02*
X26488752Y-40778207D01*
X26488752Y-40778207D02*
X26488752Y-40587731D01*
X26060180Y-41206779D02*
X27060180Y-41206779D01*
X27060180Y-41206779D02*
X26060180Y-41778207D01*
X26060180Y-41778207D02*
X27060180Y-41778207D01*
X26060180Y-42254398D02*
X27060180Y-42254398D01*
X27060180Y-42254398D02*
X27060180Y-42492493D01*
X27060180Y-42492493D02*
X27012561Y-42635350D01*
X27012561Y-42635350D02*
X26917323Y-42730588D01*
X26917323Y-42730588D02*
X26822085Y-42778207D01*
X26822085Y-42778207D02*
X26631609Y-42825826D01*
X26631609Y-42825826D02*
X26488752Y-42825826D01*
X26488752Y-42825826D02*
X26298276Y-42778207D01*
X26298276Y-42778207D02*
X26203038Y-42730588D01*
X26203038Y-42730588D02*
X26107800Y-42635350D01*
X26107800Y-42635350D02*
X26060180Y-42492493D01*
X26060180Y-42492493D02*
X26060180Y-42254398D01*
X60492095Y-74489819D02*
X60015905Y-74489819D01*
X60015905Y-74489819D02*
X59968286Y-74966009D01*
X59968286Y-74966009D02*
X60015905Y-74918390D01*
X60015905Y-74918390D02*
X60111143Y-74870771D01*
X60111143Y-74870771D02*
X60349238Y-74870771D01*
X60349238Y-74870771D02*
X60444476Y-74918390D01*
X60444476Y-74918390D02*
X60492095Y-74966009D01*
X60492095Y-74966009D02*
X60539714Y-75061247D01*
X60539714Y-75061247D02*
X60539714Y-75299342D01*
X60539714Y-75299342D02*
X60492095Y-75394580D01*
X60492095Y-75394580D02*
X60444476Y-75442200D01*
X60444476Y-75442200D02*
X60349238Y-75489819D01*
X60349238Y-75489819D02*
X60111143Y-75489819D01*
X60111143Y-75489819D02*
X60015905Y-75442200D01*
X60015905Y-75442200D02*
X59968286Y-75394580D01*
X48352506Y-26488866D02*
X49114411Y-26488866D01*
X50778280Y-25869819D02*
X51397327Y-25869819D01*
X51397327Y-25869819D02*
X51063994Y-26250771D01*
X51063994Y-26250771D02*
X51206851Y-26250771D01*
X51206851Y-26250771D02*
X51302089Y-26298390D01*
X51302089Y-26298390D02*
X51349708Y-26346009D01*
X51349708Y-26346009D02*
X51397327Y-26441247D01*
X51397327Y-26441247D02*
X51397327Y-26679342D01*
X51397327Y-26679342D02*
X51349708Y-26774580D01*
X51349708Y-26774580D02*
X51302089Y-26822200D01*
X51302089Y-26822200D02*
X51206851Y-26869819D01*
X51206851Y-26869819D02*
X50921137Y-26869819D01*
X50921137Y-26869819D02*
X50825899Y-26822200D01*
X50825899Y-26822200D02*
X50778280Y-26774580D01*
X57500588Y-69547438D02*
X57405350Y-69499819D01*
X57405350Y-69499819D02*
X57262493Y-69499819D01*
X57262493Y-69499819D02*
X57119636Y-69547438D01*
X57119636Y-69547438D02*
X57024398Y-69642676D01*
X57024398Y-69642676D02*
X56976779Y-69737914D01*
X56976779Y-69737914D02*
X56929160Y-69928390D01*
X56929160Y-69928390D02*
X56929160Y-70071247D01*
X56929160Y-70071247D02*
X56976779Y-70261723D01*
X56976779Y-70261723D02*
X57024398Y-70356961D01*
X57024398Y-70356961D02*
X57119636Y-70452200D01*
X57119636Y-70452200D02*
X57262493Y-70499819D01*
X57262493Y-70499819D02*
X57357731Y-70499819D01*
X57357731Y-70499819D02*
X57500588Y-70452200D01*
X57500588Y-70452200D02*
X57548207Y-70404580D01*
X57548207Y-70404580D02*
X57548207Y-70071247D01*
X57548207Y-70071247D02*
X57357731Y-70071247D01*
X57976779Y-70499819D02*
X57976779Y-69499819D01*
X57976779Y-69499819D02*
X58357731Y-69499819D01*
X58357731Y-69499819D02*
X58452969Y-69547438D01*
X58452969Y-69547438D02*
X58500588Y-69595057D01*
X58500588Y-69595057D02*
X58548207Y-69690295D01*
X58548207Y-69690295D02*
X58548207Y-69833152D01*
X58548207Y-69833152D02*
X58500588Y-69928390D01*
X58500588Y-69928390D02*
X58452969Y-69976009D01*
X58452969Y-69976009D02*
X58357731Y-70023628D01*
X58357731Y-70023628D02*
X57976779Y-70023628D01*
X58976779Y-70499819D02*
X58976779Y-69499819D01*
X59643445Y-69499819D02*
X59833921Y-69499819D01*
X59833921Y-69499819D02*
X59929159Y-69547438D01*
X59929159Y-69547438D02*
X60024397Y-69642676D01*
X60024397Y-69642676D02*
X60072016Y-69833152D01*
X60072016Y-69833152D02*
X60072016Y-70166485D01*
X60072016Y-70166485D02*
X60024397Y-70356961D01*
X60024397Y-70356961D02*
X59929159Y-70452200D01*
X59929159Y-70452200D02*
X59833921Y-70499819D01*
X59833921Y-70499819D02*
X59643445Y-70499819D01*
X59643445Y-70499819D02*
X59548207Y-70452200D01*
X59548207Y-70452200D02*
X59452969Y-70356961D01*
X59452969Y-70356961D02*
X59405350Y-70166485D01*
X59405350Y-70166485D02*
X59405350Y-69833152D01*
X59405350Y-69833152D02*
X59452969Y-69642676D01*
X59452969Y-69642676D02*
X59548207Y-69547438D01*
X59548207Y-69547438D02*
X59643445Y-69499819D01*
X60452969Y-70452200D02*
X60595826Y-70499819D01*
X60595826Y-70499819D02*
X60833921Y-70499819D01*
X60833921Y-70499819D02*
X60929159Y-70452200D01*
X60929159Y-70452200D02*
X60976778Y-70404580D01*
X60976778Y-70404580D02*
X61024397Y-70309342D01*
X61024397Y-70309342D02*
X61024397Y-70214104D01*
X61024397Y-70214104D02*
X60976778Y-70118866D01*
X60976778Y-70118866D02*
X60929159Y-70071247D01*
X60929159Y-70071247D02*
X60833921Y-70023628D01*
X60833921Y-70023628D02*
X60643445Y-69976009D01*
X60643445Y-69976009D02*
X60548207Y-69928390D01*
X60548207Y-69928390D02*
X60500588Y-69880771D01*
X60500588Y-69880771D02*
X60452969Y-69785533D01*
X60452969Y-69785533D02*
X60452969Y-69690295D01*
X60452969Y-69690295D02*
X60500588Y-69595057D01*
X60500588Y-69595057D02*
X60548207Y-69547438D01*
X60548207Y-69547438D02*
X60643445Y-69499819D01*
X60643445Y-69499819D02*
X60881540Y-69499819D01*
X60881540Y-69499819D02*
X61024397Y-69547438D01*
X62405350Y-69499819D02*
X62595826Y-69499819D01*
X62595826Y-69499819D02*
X62691064Y-69547438D01*
X62691064Y-69547438D02*
X62786302Y-69642676D01*
X62786302Y-69642676D02*
X62833921Y-69833152D01*
X62833921Y-69833152D02*
X62833921Y-70166485D01*
X62833921Y-70166485D02*
X62786302Y-70356961D01*
X62786302Y-70356961D02*
X62691064Y-70452200D01*
X62691064Y-70452200D02*
X62595826Y-70499819D01*
X62595826Y-70499819D02*
X62405350Y-70499819D01*
X62405350Y-70499819D02*
X62310112Y-70452200D01*
X62310112Y-70452200D02*
X62214874Y-70356961D01*
X62214874Y-70356961D02*
X62167255Y-70166485D01*
X62167255Y-70166485D02*
X62167255Y-69833152D01*
X62167255Y-69833152D02*
X62214874Y-69642676D01*
X62214874Y-69642676D02*
X62310112Y-69547438D01*
X62310112Y-69547438D02*
X62405350Y-69499819D01*
X63262493Y-69499819D02*
X63262493Y-70309342D01*
X63262493Y-70309342D02*
X63310112Y-70404580D01*
X63310112Y-70404580D02*
X63357731Y-70452200D01*
X63357731Y-70452200D02*
X63452969Y-70499819D01*
X63452969Y-70499819D02*
X63643445Y-70499819D01*
X63643445Y-70499819D02*
X63738683Y-70452200D01*
X63738683Y-70452200D02*
X63786302Y-70404580D01*
X63786302Y-70404580D02*
X63833921Y-70309342D01*
X63833921Y-70309342D02*
X63833921Y-69499819D01*
X64167255Y-69499819D02*
X64738683Y-69499819D01*
X64452969Y-70499819D02*
X64452969Y-69499819D01*
X64948667Y-74489819D02*
X65567714Y-74489819D01*
X65567714Y-74489819D02*
X65234381Y-74870771D01*
X65234381Y-74870771D02*
X65377238Y-74870771D01*
X65377238Y-74870771D02*
X65472476Y-74918390D01*
X65472476Y-74918390D02*
X65520095Y-74966009D01*
X65520095Y-74966009D02*
X65567714Y-75061247D01*
X65567714Y-75061247D02*
X65567714Y-75299342D01*
X65567714Y-75299342D02*
X65520095Y-75394580D01*
X65520095Y-75394580D02*
X65472476Y-75442200D01*
X65472476Y-75442200D02*
X65377238Y-75489819D01*
X65377238Y-75489819D02*
X65091524Y-75489819D01*
X65091524Y-75489819D02*
X64996286Y-75442200D01*
X64996286Y-75442200D02*
X64948667Y-75394580D01*
X70595714Y-75489819D02*
X70024286Y-75489819D01*
X70310000Y-75489819D02*
X70310000Y-74489819D01*
X70310000Y-74489819D02*
X70214762Y-74632676D01*
X70214762Y-74632676D02*
X70119524Y-74727914D01*
X70119524Y-74727914D02*
X70024286Y-74775533D01*
X46043943Y-25990982D02*
X46043943Y-26752887D01*
X45662990Y-26371934D02*
X46424895Y-26371934D01*
X66368781Y-26869819D02*
X65797353Y-26869819D01*
X66083067Y-26869819D02*
X66083067Y-25869819D01*
X66083067Y-25869819D02*
X65987829Y-26012676D01*
X65987829Y-26012676D02*
X65892591Y-26107914D01*
X65892591Y-26107914D02*
X65797353Y-26155533D01*
X33616666Y-74309819D02*
X33283333Y-73833628D01*
X33045238Y-74309819D02*
X33045238Y-73309819D01*
X33045238Y-73309819D02*
X33426190Y-73309819D01*
X33426190Y-73309819D02*
X33521428Y-73357438D01*
X33521428Y-73357438D02*
X33569047Y-73405057D01*
X33569047Y-73405057D02*
X33616666Y-73500295D01*
X33616666Y-73500295D02*
X33616666Y-73643152D01*
X33616666Y-73643152D02*
X33569047Y-73738390D01*
X33569047Y-73738390D02*
X33521428Y-73786009D01*
X33521428Y-73786009D02*
X33426190Y-73833628D01*
X33426190Y-73833628D02*
X33045238Y-73833628D01*
X33997619Y-74262200D02*
X34140476Y-74309819D01*
X34140476Y-74309819D02*
X34378571Y-74309819D01*
X34378571Y-74309819D02*
X34473809Y-74262200D01*
X34473809Y-74262200D02*
X34521428Y-74214580D01*
X34521428Y-74214580D02*
X34569047Y-74119342D01*
X34569047Y-74119342D02*
X34569047Y-74024104D01*
X34569047Y-74024104D02*
X34521428Y-73928866D01*
X34521428Y-73928866D02*
X34473809Y-73881247D01*
X34473809Y-73881247D02*
X34378571Y-73833628D01*
X34378571Y-73833628D02*
X34188095Y-73786009D01*
X34188095Y-73786009D02*
X34092857Y-73738390D01*
X34092857Y-73738390D02*
X34045238Y-73690771D01*
X34045238Y-73690771D02*
X33997619Y-73595533D01*
X33997619Y-73595533D02*
X33997619Y-73500295D01*
X33997619Y-73500295D02*
X34045238Y-73405057D01*
X34045238Y-73405057D02*
X34092857Y-73357438D01*
X34092857Y-73357438D02*
X34188095Y-73309819D01*
X34188095Y-73309819D02*
X34426190Y-73309819D01*
X34426190Y-73309819D02*
X34569047Y-73357438D01*
X35426190Y-73643152D02*
X35426190Y-74309819D01*
X35188095Y-73262200D02*
X34950000Y-73976485D01*
X34950000Y-73976485D02*
X35569047Y-73976485D01*
X36092857Y-73738390D02*
X35997619Y-73690771D01*
X35997619Y-73690771D02*
X35950000Y-73643152D01*
X35950000Y-73643152D02*
X35902381Y-73547914D01*
X35902381Y-73547914D02*
X35902381Y-73500295D01*
X35902381Y-73500295D02*
X35950000Y-73405057D01*
X35950000Y-73405057D02*
X35997619Y-73357438D01*
X35997619Y-73357438D02*
X36092857Y-73309819D01*
X36092857Y-73309819D02*
X36283333Y-73309819D01*
X36283333Y-73309819D02*
X36378571Y-73357438D01*
X36378571Y-73357438D02*
X36426190Y-73405057D01*
X36426190Y-73405057D02*
X36473809Y-73500295D01*
X36473809Y-73500295D02*
X36473809Y-73547914D01*
X36473809Y-73547914D02*
X36426190Y-73643152D01*
X36426190Y-73643152D02*
X36378571Y-73690771D01*
X36378571Y-73690771D02*
X36283333Y-73738390D01*
X36283333Y-73738390D02*
X36092857Y-73738390D01*
X36092857Y-73738390D02*
X35997619Y-73786009D01*
X35997619Y-73786009D02*
X35950000Y-73833628D01*
X35950000Y-73833628D02*
X35902381Y-73928866D01*
X35902381Y-73928866D02*
X35902381Y-74119342D01*
X35902381Y-74119342D02*
X35950000Y-74214580D01*
X35950000Y-74214580D02*
X35997619Y-74262200D01*
X35997619Y-74262200D02*
X36092857Y-74309819D01*
X36092857Y-74309819D02*
X36283333Y-74309819D01*
X36283333Y-74309819D02*
X36378571Y-74262200D01*
X36378571Y-74262200D02*
X36426190Y-74214580D01*
X36426190Y-74214580D02*
X36473809Y-74119342D01*
X36473809Y-74119342D02*
X36473809Y-73928866D01*
X36473809Y-73928866D02*
X36426190Y-73833628D01*
X36426190Y-73833628D02*
X36378571Y-73786009D01*
X36378571Y-73786009D02*
X36283333Y-73738390D01*
X37378571Y-73309819D02*
X36902381Y-73309819D01*
X36902381Y-73309819D02*
X36854762Y-73786009D01*
X36854762Y-73786009D02*
X36902381Y-73738390D01*
X36902381Y-73738390D02*
X36997619Y-73690771D01*
X36997619Y-73690771D02*
X37235714Y-73690771D01*
X37235714Y-73690771D02*
X37330952Y-73738390D01*
X37330952Y-73738390D02*
X37378571Y-73786009D01*
X37378571Y-73786009D02*
X37426190Y-73881247D01*
X37426190Y-73881247D02*
X37426190Y-74119342D01*
X37426190Y-74119342D02*
X37378571Y-74214580D01*
X37378571Y-74214580D02*
X37330952Y-74262200D01*
X37330952Y-74262200D02*
X37235714Y-74309819D01*
X37235714Y-74309819D02*
X36997619Y-74309819D01*
X36997619Y-74309819D02*
X36902381Y-74262200D01*
X36902381Y-74262200D02*
X36854762Y-74214580D01*
X39092857Y-74309819D02*
X38616667Y-74309819D01*
X38616667Y-74309819D02*
X38616667Y-73309819D01*
X39426191Y-73786009D02*
X39759524Y-73786009D01*
X39902381Y-74309819D02*
X39426191Y-74309819D01*
X39426191Y-74309819D02*
X39426191Y-73309819D01*
X39426191Y-73309819D02*
X39902381Y-73309819D01*
X40330953Y-74309819D02*
X40330953Y-73309819D01*
X40330953Y-73309819D02*
X40569048Y-73309819D01*
X40569048Y-73309819D02*
X40711905Y-73357438D01*
X40711905Y-73357438D02*
X40807143Y-73452676D01*
X40807143Y-73452676D02*
X40854762Y-73547914D01*
X40854762Y-73547914D02*
X40902381Y-73738390D01*
X40902381Y-73738390D02*
X40902381Y-73881247D01*
X40902381Y-73881247D02*
X40854762Y-74071723D01*
X40854762Y-74071723D02*
X40807143Y-74166961D01*
X40807143Y-74166961D02*
X40711905Y-74262200D01*
X40711905Y-74262200D02*
X40569048Y-74309819D01*
X40569048Y-74309819D02*
X40330953Y-74309819D01*
X47187970Y-33599821D02*
X46711780Y-33599821D01*
X46711780Y-33599821D02*
X46664161Y-34076011D01*
X46664161Y-34076011D02*
X46711780Y-34028392D01*
X46711780Y-34028392D02*
X46807018Y-33980773D01*
X46807018Y-33980773D02*
X47045113Y-33980773D01*
X47045113Y-33980773D02*
X47140351Y-34028392D01*
X47140351Y-34028392D02*
X47187970Y-34076011D01*
X47187970Y-34076011D02*
X47235589Y-34171249D01*
X47235589Y-34171249D02*
X47235589Y-34409344D01*
X47235589Y-34409344D02*
X47187970Y-34504582D01*
X47187970Y-34504582D02*
X47140351Y-34552202D01*
X47140351Y-34552202D02*
X47045113Y-34599821D01*
X47045113Y-34599821D02*
X46807018Y-34599821D01*
X46807018Y-34599821D02*
X46711780Y-34552202D01*
X46711780Y-34552202D02*
X46664161Y-34504582D01*
X47521304Y-33599821D02*
X47854637Y-34599821D01*
X47854637Y-34599821D02*
X48187970Y-33599821D01*
X49759399Y-34599821D02*
X49283209Y-34599821D01*
X49283209Y-34599821D02*
X49283209Y-33599821D01*
X50092733Y-34076011D02*
X50426066Y-34076011D01*
X50568923Y-34599821D02*
X50092733Y-34599821D01*
X50092733Y-34599821D02*
X50092733Y-33599821D01*
X50092733Y-33599821D02*
X50568923Y-33599821D01*
X50997495Y-34599821D02*
X50997495Y-33599821D01*
X50997495Y-33599821D02*
X51235590Y-33599821D01*
X51235590Y-33599821D02*
X51378447Y-33647440D01*
X51378447Y-33647440D02*
X51473685Y-33742678D01*
X51473685Y-33742678D02*
X51521304Y-33837916D01*
X51521304Y-33837916D02*
X51568923Y-34028392D01*
X51568923Y-34028392D02*
X51568923Y-34171249D01*
X51568923Y-34171249D02*
X51521304Y-34361725D01*
X51521304Y-34361725D02*
X51473685Y-34456963D01*
X51473685Y-34456963D02*
X51378447Y-34552202D01*
X51378447Y-34552202D02*
X51235590Y-34599821D01*
X51235590Y-34599821D02*
X50997495Y-34599821D01*
X68983922Y-30789819D02*
X69317255Y-31789819D01*
X69317255Y-31789819D02*
X69650588Y-30789819D01*
X70745827Y-31789819D02*
X70745827Y-30789819D01*
X71222017Y-31789819D02*
X71222017Y-30789819D01*
X71222017Y-30789819D02*
X71793445Y-31789819D01*
X71793445Y-31789819D02*
X71793445Y-30789819D01*
X30250180Y-52496779D02*
X29440657Y-52496779D01*
X29440657Y-52496779D02*
X29345419Y-52544398D01*
X29345419Y-52544398D02*
X29297800Y-52592017D01*
X29297800Y-52592017D02*
X29250180Y-52687255D01*
X29250180Y-52687255D02*
X29250180Y-52877731D01*
X29250180Y-52877731D02*
X29297800Y-52972969D01*
X29297800Y-52972969D02*
X29345419Y-53020588D01*
X29345419Y-53020588D02*
X29440657Y-53068207D01*
X29440657Y-53068207D02*
X30250180Y-53068207D01*
X29297800Y-53496779D02*
X29250180Y-53639636D01*
X29250180Y-53639636D02*
X29250180Y-53877731D01*
X29250180Y-53877731D02*
X29297800Y-53972969D01*
X29297800Y-53972969D02*
X29345419Y-54020588D01*
X29345419Y-54020588D02*
X29440657Y-54068207D01*
X29440657Y-54068207D02*
X29535895Y-54068207D01*
X29535895Y-54068207D02*
X29631133Y-54020588D01*
X29631133Y-54020588D02*
X29678752Y-53972969D01*
X29678752Y-53972969D02*
X29726371Y-53877731D01*
X29726371Y-53877731D02*
X29773990Y-53687255D01*
X29773990Y-53687255D02*
X29821609Y-53592017D01*
X29821609Y-53592017D02*
X29869228Y-53544398D01*
X29869228Y-53544398D02*
X29964466Y-53496779D01*
X29964466Y-53496779D02*
X30059704Y-53496779D01*
X30059704Y-53496779D02*
X30154942Y-53544398D01*
X30154942Y-53544398D02*
X30202561Y-53592017D01*
X30202561Y-53592017D02*
X30250180Y-53687255D01*
X30250180Y-53687255D02*
X30250180Y-53925350D01*
X30250180Y-53925350D02*
X30202561Y-54068207D01*
X29773990Y-54830112D02*
X29726371Y-54972969D01*
X29726371Y-54972969D02*
X29678752Y-55020588D01*
X29678752Y-55020588D02*
X29583514Y-55068207D01*
X29583514Y-55068207D02*
X29440657Y-55068207D01*
X29440657Y-55068207D02*
X29345419Y-55020588D01*
X29345419Y-55020588D02*
X29297800Y-54972969D01*
X29297800Y-54972969D02*
X29250180Y-54877731D01*
X29250180Y-54877731D02*
X29250180Y-54496779D01*
X29250180Y-54496779D02*
X30250180Y-54496779D01*
X30250180Y-54496779D02*
X30250180Y-54830112D01*
X30250180Y-54830112D02*
X30202561Y-54925350D01*
X30202561Y-54925350D02*
X30154942Y-54972969D01*
X30154942Y-54972969D02*
X30059704Y-55020588D01*
X30059704Y-55020588D02*
X29964466Y-55020588D01*
X29964466Y-55020588D02*
X29869228Y-54972969D01*
X29869228Y-54972969D02*
X29821609Y-54925350D01*
X29821609Y-54925350D02*
X29773990Y-54830112D01*
X29773990Y-54830112D02*
X29773990Y-54496779D01*
X29345419Y-56830112D02*
X29297800Y-56782493D01*
X29297800Y-56782493D02*
X29250180Y-56639636D01*
X29250180Y-56639636D02*
X29250180Y-56544398D01*
X29250180Y-56544398D02*
X29297800Y-56401541D01*
X29297800Y-56401541D02*
X29393038Y-56306303D01*
X29393038Y-56306303D02*
X29488276Y-56258684D01*
X29488276Y-56258684D02*
X29678752Y-56211065D01*
X29678752Y-56211065D02*
X29821609Y-56211065D01*
X29821609Y-56211065D02*
X30012085Y-56258684D01*
X30012085Y-56258684D02*
X30107323Y-56306303D01*
X30107323Y-56306303D02*
X30202561Y-56401541D01*
X30202561Y-56401541D02*
X30250180Y-56544398D01*
X30250180Y-56544398D02*
X30250180Y-56639636D01*
X30250180Y-56639636D02*
X30202561Y-56782493D01*
X30202561Y-56782493D02*
X30154942Y-56830112D01*
X63323960Y-26488866D02*
X64085865Y-26488866D01*
X26176779Y-34339819D02*
X26176779Y-33339819D01*
X26176779Y-33339819D02*
X26557731Y-33339819D01*
X26557731Y-33339819D02*
X26652969Y-33387438D01*
X26652969Y-33387438D02*
X26700588Y-33435057D01*
X26700588Y-33435057D02*
X26748207Y-33530295D01*
X26748207Y-33530295D02*
X26748207Y-33673152D01*
X26748207Y-33673152D02*
X26700588Y-33768390D01*
X26700588Y-33768390D02*
X26652969Y-33816009D01*
X26652969Y-33816009D02*
X26557731Y-33863628D01*
X26557731Y-33863628D02*
X26176779Y-33863628D01*
X27081541Y-33339819D02*
X27319636Y-34339819D01*
X27319636Y-34339819D02*
X27510112Y-33625533D01*
X27510112Y-33625533D02*
X27700588Y-34339819D01*
X27700588Y-34339819D02*
X27938684Y-33339819D01*
X28891064Y-34339819D02*
X28557731Y-33863628D01*
X28319636Y-34339819D02*
X28319636Y-33339819D01*
X28319636Y-33339819D02*
X28700588Y-33339819D01*
X28700588Y-33339819D02*
X28795826Y-33387438D01*
X28795826Y-33387438D02*
X28843445Y-33435057D01*
X28843445Y-33435057D02*
X28891064Y-33530295D01*
X28891064Y-33530295D02*
X28891064Y-33673152D01*
X28891064Y-33673152D02*
X28843445Y-33768390D01*
X28843445Y-33768390D02*
X28795826Y-33816009D01*
X28795826Y-33816009D02*
X28700588Y-33863628D01*
X28700588Y-33863628D02*
X28319636Y-33863628D01*
X30081541Y-34339819D02*
X30081541Y-33339819D01*
X30557731Y-34339819D02*
X30557731Y-33339819D01*
X30557731Y-33339819D02*
X31129159Y-34339819D01*
X31129159Y-34339819D02*
X31129159Y-33339819D01*
X43779523Y-75359819D02*
X43303333Y-75359819D01*
X43303333Y-75359819D02*
X43303333Y-74359819D01*
X45316779Y-31509819D02*
X45316779Y-30509819D01*
X45316779Y-30509819D02*
X45697731Y-30509819D01*
X45697731Y-30509819D02*
X45792969Y-30557438D01*
X45792969Y-30557438D02*
X45840588Y-30605057D01*
X45840588Y-30605057D02*
X45888207Y-30700295D01*
X45888207Y-30700295D02*
X45888207Y-30843152D01*
X45888207Y-30843152D02*
X45840588Y-30938390D01*
X45840588Y-30938390D02*
X45792969Y-30986009D01*
X45792969Y-30986009D02*
X45697731Y-31033628D01*
X45697731Y-31033628D02*
X45316779Y-31033628D01*
X46173922Y-30509819D02*
X46745350Y-30509819D01*
X46459636Y-31509819D02*
X46459636Y-30509819D01*
X47840589Y-31509819D02*
X47840589Y-30509819D01*
X47840589Y-30509819D02*
X48221541Y-30509819D01*
X48221541Y-30509819D02*
X48316779Y-30557438D01*
X48316779Y-30557438D02*
X48364398Y-30605057D01*
X48364398Y-30605057D02*
X48412017Y-30700295D01*
X48412017Y-30700295D02*
X48412017Y-30843152D01*
X48412017Y-30843152D02*
X48364398Y-30938390D01*
X48364398Y-30938390D02*
X48316779Y-30986009D01*
X48316779Y-30986009D02*
X48221541Y-31033628D01*
X48221541Y-31033628D02*
X47840589Y-31033628D01*
X49031065Y-30509819D02*
X49221541Y-30509819D01*
X49221541Y-30509819D02*
X49316779Y-30557438D01*
X49316779Y-30557438D02*
X49412017Y-30652676D01*
X49412017Y-30652676D02*
X49459636Y-30843152D01*
X49459636Y-30843152D02*
X49459636Y-31176485D01*
X49459636Y-31176485D02*
X49412017Y-31366961D01*
X49412017Y-31366961D02*
X49316779Y-31462200D01*
X49316779Y-31462200D02*
X49221541Y-31509819D01*
X49221541Y-31509819D02*
X49031065Y-31509819D01*
X49031065Y-31509819D02*
X48935827Y-31462200D01*
X48935827Y-31462200D02*
X48840589Y-31366961D01*
X48840589Y-31366961D02*
X48792970Y-31176485D01*
X48792970Y-31176485D02*
X48792970Y-30843152D01*
X48792970Y-30843152D02*
X48840589Y-30652676D01*
X48840589Y-30652676D02*
X48935827Y-30557438D01*
X48935827Y-30557438D02*
X49031065Y-30509819D01*
X50459636Y-31509819D02*
X50126303Y-31033628D01*
X49888208Y-31509819D02*
X49888208Y-30509819D01*
X49888208Y-30509819D02*
X50269160Y-30509819D01*
X50269160Y-30509819D02*
X50364398Y-30557438D01*
X50364398Y-30557438D02*
X50412017Y-30605057D01*
X50412017Y-30605057D02*
X50459636Y-30700295D01*
X50459636Y-30700295D02*
X50459636Y-30843152D01*
X50459636Y-30843152D02*
X50412017Y-30938390D01*
X50412017Y-30938390D02*
X50364398Y-30986009D01*
X50364398Y-30986009D02*
X50269160Y-31033628D01*
X50269160Y-31033628D02*
X49888208Y-31033628D01*
X50745351Y-30509819D02*
X51316779Y-30509819D01*
X51031065Y-31509819D02*
X51031065Y-30509819D01*
X51602494Y-31462200D02*
X51745351Y-31509819D01*
X51745351Y-31509819D02*
X51983446Y-31509819D01*
X51983446Y-31509819D02*
X52078684Y-31462200D01*
X52078684Y-31462200D02*
X52126303Y-31414580D01*
X52126303Y-31414580D02*
X52173922Y-31319342D01*
X52173922Y-31319342D02*
X52173922Y-31224104D01*
X52173922Y-31224104D02*
X52126303Y-31128866D01*
X52126303Y-31128866D02*
X52078684Y-31081247D01*
X52078684Y-31081247D02*
X51983446Y-31033628D01*
X51983446Y-31033628D02*
X51792970Y-30986009D01*
X51792970Y-30986009D02*
X51697732Y-30938390D01*
X51697732Y-30938390D02*
X51650113Y-30890771D01*
X51650113Y-30890771D02*
X51602494Y-30795533D01*
X51602494Y-30795533D02*
X51602494Y-30700295D01*
X51602494Y-30700295D02*
X51650113Y-30605057D01*
X51650113Y-30605057D02*
X51697732Y-30557438D01*
X51697732Y-30557438D02*
X51792970Y-30509819D01*
X51792970Y-30509819D02*
X52031065Y-30509819D01*
X52031065Y-30509819D02*
X52173922Y-30557438D01*
X53364399Y-31509819D02*
X53364399Y-30509819D01*
X53840589Y-31509819D02*
X53840589Y-30509819D01*
X53840589Y-30509819D02*
X54412017Y-31509819D01*
X54412017Y-31509819D02*
X54412017Y-30509819D01*
X71258572Y-75148866D02*
X72020477Y-75148866D01*
X71639524Y-75529819D02*
X71639524Y-74767914D01*
X72401429Y-74529819D02*
X73020476Y-74529819D01*
X73020476Y-74529819D02*
X72687143Y-74910771D01*
X72687143Y-74910771D02*
X72830000Y-74910771D01*
X72830000Y-74910771D02*
X72925238Y-74958390D01*
X72925238Y-74958390D02*
X72972857Y-75006009D01*
X72972857Y-75006009D02*
X73020476Y-75101247D01*
X73020476Y-75101247D02*
X73020476Y-75339342D01*
X73020476Y-75339342D02*
X72972857Y-75434580D01*
X72972857Y-75434580D02*
X72925238Y-75482200D01*
X72925238Y-75482200D02*
X72830000Y-75529819D01*
X72830000Y-75529819D02*
X72544286Y-75529819D01*
X72544286Y-75529819D02*
X72449048Y-75482200D01*
X72449048Y-75482200D02*
X72401429Y-75434580D01*
X73449048Y-75434580D02*
X73496667Y-75482200D01*
X73496667Y-75482200D02*
X73449048Y-75529819D01*
X73449048Y-75529819D02*
X73401429Y-75482200D01*
X73401429Y-75482200D02*
X73449048Y-75434580D01*
X73449048Y-75434580D02*
X73449048Y-75529819D01*
X73830000Y-74529819D02*
X74449047Y-74529819D01*
X74449047Y-74529819D02*
X74115714Y-74910771D01*
X74115714Y-74910771D02*
X74258571Y-74910771D01*
X74258571Y-74910771D02*
X74353809Y-74958390D01*
X74353809Y-74958390D02*
X74401428Y-75006009D01*
X74401428Y-75006009D02*
X74449047Y-75101247D01*
X74449047Y-75101247D02*
X74449047Y-75339342D01*
X74449047Y-75339342D02*
X74401428Y-75434580D01*
X74401428Y-75434580D02*
X74353809Y-75482200D01*
X74353809Y-75482200D02*
X74258571Y-75529819D01*
X74258571Y-75529819D02*
X73972857Y-75529819D01*
X73972857Y-75529819D02*
X73877619Y-75482200D01*
X73877619Y-75482200D02*
X73830000Y-75434580D01*
X37520112Y-31536009D02*
X37662969Y-31583628D01*
X37662969Y-31583628D02*
X37710588Y-31631247D01*
X37710588Y-31631247D02*
X37758207Y-31726485D01*
X37758207Y-31726485D02*
X37758207Y-31869342D01*
X37758207Y-31869342D02*
X37710588Y-31964580D01*
X37710588Y-31964580D02*
X37662969Y-32012200D01*
X37662969Y-32012200D02*
X37567731Y-32059819D01*
X37567731Y-32059819D02*
X37186779Y-32059819D01*
X37186779Y-32059819D02*
X37186779Y-31059819D01*
X37186779Y-31059819D02*
X37520112Y-31059819D01*
X37520112Y-31059819D02*
X37615350Y-31107438D01*
X37615350Y-31107438D02*
X37662969Y-31155057D01*
X37662969Y-31155057D02*
X37710588Y-31250295D01*
X37710588Y-31250295D02*
X37710588Y-31345533D01*
X37710588Y-31345533D02*
X37662969Y-31440771D01*
X37662969Y-31440771D02*
X37615350Y-31488390D01*
X37615350Y-31488390D02*
X37520112Y-31536009D01*
X37520112Y-31536009D02*
X37186779Y-31536009D01*
X38186779Y-31059819D02*
X38186779Y-31869342D01*
X38186779Y-31869342D02*
X38234398Y-31964580D01*
X38234398Y-31964580D02*
X38282017Y-32012200D01*
X38282017Y-32012200D02*
X38377255Y-32059819D01*
X38377255Y-32059819D02*
X38567731Y-32059819D01*
X38567731Y-32059819D02*
X38662969Y-32012200D01*
X38662969Y-32012200D02*
X38710588Y-31964580D01*
X38710588Y-31964580D02*
X38758207Y-31869342D01*
X38758207Y-31869342D02*
X38758207Y-31059819D01*
X39805826Y-31964580D02*
X39758207Y-32012200D01*
X39758207Y-32012200D02*
X39615350Y-32059819D01*
X39615350Y-32059819D02*
X39520112Y-32059819D01*
X39520112Y-32059819D02*
X39377255Y-32012200D01*
X39377255Y-32012200D02*
X39282017Y-31916961D01*
X39282017Y-31916961D02*
X39234398Y-31821723D01*
X39234398Y-31821723D02*
X39186779Y-31631247D01*
X39186779Y-31631247D02*
X39186779Y-31488390D01*
X39186779Y-31488390D02*
X39234398Y-31297914D01*
X39234398Y-31297914D02*
X39282017Y-31202676D01*
X39282017Y-31202676D02*
X39377255Y-31107438D01*
X39377255Y-31107438D02*
X39520112Y-31059819D01*
X39520112Y-31059819D02*
X39615350Y-31059819D01*
X39615350Y-31059819D02*
X39758207Y-31107438D01*
X39758207Y-31107438D02*
X39805826Y-31155057D01*
X40234398Y-32059819D02*
X40234398Y-31059819D01*
X40805826Y-32059819D02*
X40377255Y-31488390D01*
X40805826Y-31059819D02*
X40234398Y-31631247D01*
X42472493Y-32059819D02*
X41996303Y-32059819D01*
X41996303Y-32059819D02*
X41996303Y-31059819D01*
X42805827Y-31536009D02*
X43139160Y-31536009D01*
X43282017Y-32059819D02*
X42805827Y-32059819D01*
X42805827Y-32059819D02*
X42805827Y-31059819D01*
X42805827Y-31059819D02*
X43282017Y-31059819D01*
X43710589Y-32059819D02*
X43710589Y-31059819D01*
X43710589Y-31059819D02*
X43948684Y-31059819D01*
X43948684Y-31059819D02*
X44091541Y-31107438D01*
X44091541Y-31107438D02*
X44186779Y-31202676D01*
X44186779Y-31202676D02*
X44234398Y-31297914D01*
X44234398Y-31297914D02*
X44282017Y-31488390D01*
X44282017Y-31488390D02*
X44282017Y-31631247D01*
X44282017Y-31631247D02*
X44234398Y-31821723D01*
X44234398Y-31821723D02*
X44186779Y-31916961D01*
X44186779Y-31916961D02*
X44091541Y-32012200D01*
X44091541Y-32012200D02*
X43948684Y-32059819D01*
X43948684Y-32059819D02*
X43710589Y-32059819D01*
X76121541Y-54499819D02*
X76740588Y-54499819D01*
X76740588Y-54499819D02*
X76407255Y-54880771D01*
X76407255Y-54880771D02*
X76550112Y-54880771D01*
X76550112Y-54880771D02*
X76645350Y-54928390D01*
X76645350Y-54928390D02*
X76692969Y-54976009D01*
X76692969Y-54976009D02*
X76740588Y-55071247D01*
X76740588Y-55071247D02*
X76740588Y-55309342D01*
X76740588Y-55309342D02*
X76692969Y-55404580D01*
X76692969Y-55404580D02*
X76645350Y-55452200D01*
X76645350Y-55452200D02*
X76550112Y-55499819D01*
X76550112Y-55499819D02*
X76264398Y-55499819D01*
X76264398Y-55499819D02*
X76169160Y-55452200D01*
X76169160Y-55452200D02*
X76121541Y-55404580D01*
X77169160Y-55404580D02*
X77216779Y-55452200D01*
X77216779Y-55452200D02*
X77169160Y-55499819D01*
X77169160Y-55499819D02*
X77121541Y-55452200D01*
X77121541Y-55452200D02*
X77169160Y-55404580D01*
X77169160Y-55404580D02*
X77169160Y-55499819D01*
X77550112Y-54499819D02*
X78169159Y-54499819D01*
X78169159Y-54499819D02*
X77835826Y-54880771D01*
X77835826Y-54880771D02*
X77978683Y-54880771D01*
X77978683Y-54880771D02*
X78073921Y-54928390D01*
X78073921Y-54928390D02*
X78121540Y-54976009D01*
X78121540Y-54976009D02*
X78169159Y-55071247D01*
X78169159Y-55071247D02*
X78169159Y-55309342D01*
X78169159Y-55309342D02*
X78121540Y-55404580D01*
X78121540Y-55404580D02*
X78073921Y-55452200D01*
X78073921Y-55452200D02*
X77978683Y-55499819D01*
X77978683Y-55499819D02*
X77692969Y-55499819D01*
X77692969Y-55499819D02*
X77597731Y-55452200D01*
X77597731Y-55452200D02*
X77550112Y-55404580D01*
X79359636Y-55499819D02*
X79359636Y-54499819D01*
X79359636Y-54499819D02*
X79740588Y-54499819D01*
X79740588Y-54499819D02*
X79835826Y-54547438D01*
X79835826Y-54547438D02*
X79883445Y-54595057D01*
X79883445Y-54595057D02*
X79931064Y-54690295D01*
X79931064Y-54690295D02*
X79931064Y-54833152D01*
X79931064Y-54833152D02*
X79883445Y-54928390D01*
X79883445Y-54928390D02*
X79835826Y-54976009D01*
X79835826Y-54976009D02*
X79740588Y-55023628D01*
X79740588Y-55023628D02*
X79359636Y-55023628D01*
X80264398Y-54499819D02*
X80502493Y-55499819D01*
X80502493Y-55499819D02*
X80692969Y-54785533D01*
X80692969Y-54785533D02*
X80883445Y-55499819D01*
X80883445Y-55499819D02*
X81121541Y-54499819D01*
X82073921Y-55499819D02*
X81740588Y-55023628D01*
X81502493Y-55499819D02*
X81502493Y-54499819D01*
X81502493Y-54499819D02*
X81883445Y-54499819D01*
X81883445Y-54499819D02*
X81978683Y-54547438D01*
X81978683Y-54547438D02*
X82026302Y-54595057D01*
X82026302Y-54595057D02*
X82073921Y-54690295D01*
X82073921Y-54690295D02*
X82073921Y-54833152D01*
X82073921Y-54833152D02*
X82026302Y-54928390D01*
X82026302Y-54928390D02*
X81978683Y-54976009D01*
X81978683Y-54976009D02*
X81883445Y-55023628D01*
X81883445Y-55023628D02*
X81502493Y-55023628D01*
X50972345Y-75359819D02*
X50972345Y-74359819D01*
X50972345Y-74836009D02*
X51543773Y-74836009D01*
X51543773Y-75359819D02*
X51543773Y-74359819D01*
X75202969Y-34119819D02*
X74726779Y-34119819D01*
X74726779Y-34119819D02*
X74726779Y-33119819D01*
X75536303Y-33596009D02*
X75869636Y-33596009D01*
X76012493Y-34119819D02*
X75536303Y-34119819D01*
X75536303Y-34119819D02*
X75536303Y-33119819D01*
X75536303Y-33119819D02*
X76012493Y-33119819D01*
X76441065Y-34119819D02*
X76441065Y-33119819D01*
X76441065Y-33119819D02*
X76679160Y-33119819D01*
X76679160Y-33119819D02*
X76822017Y-33167438D01*
X76822017Y-33167438D02*
X76917255Y-33262676D01*
X76917255Y-33262676D02*
X76964874Y-33357914D01*
X76964874Y-33357914D02*
X77012493Y-33548390D01*
X77012493Y-33548390D02*
X77012493Y-33691247D01*
X77012493Y-33691247D02*
X76964874Y-33881723D01*
X76964874Y-33881723D02*
X76917255Y-33976961D01*
X76917255Y-33976961D02*
X76822017Y-34072200D01*
X76822017Y-34072200D02*
X76679160Y-34119819D01*
X76679160Y-34119819D02*
X76441065Y-34119819D01*
X68501133Y-25990982D02*
X68501133Y-26752887D01*
X68120180Y-26371934D02*
X68882085Y-26371934D01*
X62958476Y-74823152D02*
X62958476Y-75489819D01*
X62720381Y-74442200D02*
X62482286Y-75156485D01*
X62482286Y-75156485D02*
X63101333Y-75156485D01*
X26493990Y-67540112D02*
X26446371Y-67682969D01*
X26446371Y-67682969D02*
X26398752Y-67730588D01*
X26398752Y-67730588D02*
X26303514Y-67778207D01*
X26303514Y-67778207D02*
X26160657Y-67778207D01*
X26160657Y-67778207D02*
X26065419Y-67730588D01*
X26065419Y-67730588D02*
X26017800Y-67682969D01*
X26017800Y-67682969D02*
X25970180Y-67587731D01*
X25970180Y-67587731D02*
X25970180Y-67206779D01*
X25970180Y-67206779D02*
X26970180Y-67206779D01*
X26970180Y-67206779D02*
X26970180Y-67540112D01*
X26970180Y-67540112D02*
X26922561Y-67635350D01*
X26922561Y-67635350D02*
X26874942Y-67682969D01*
X26874942Y-67682969D02*
X26779704Y-67730588D01*
X26779704Y-67730588D02*
X26684466Y-67730588D01*
X26684466Y-67730588D02*
X26589228Y-67682969D01*
X26589228Y-67682969D02*
X26541609Y-67635350D01*
X26541609Y-67635350D02*
X26493990Y-67540112D01*
X26493990Y-67540112D02*
X26493990Y-67206779D01*
X50878207Y-44299819D02*
X50544874Y-43823628D01*
X50306779Y-44299819D02*
X50306779Y-43299819D01*
X50306779Y-43299819D02*
X50687731Y-43299819D01*
X50687731Y-43299819D02*
X50782969Y-43347438D01*
X50782969Y-43347438D02*
X50830588Y-43395057D01*
X50830588Y-43395057D02*
X50878207Y-43490295D01*
X50878207Y-43490295D02*
X50878207Y-43633152D01*
X50878207Y-43633152D02*
X50830588Y-43728390D01*
X50830588Y-43728390D02*
X50782969Y-43776009D01*
X50782969Y-43776009D02*
X50687731Y-43823628D01*
X50687731Y-43823628D02*
X50306779Y-43823628D01*
X51306779Y-43776009D02*
X51640112Y-43776009D01*
X51782969Y-44299819D02*
X51306779Y-44299819D01*
X51306779Y-44299819D02*
X51306779Y-43299819D01*
X51306779Y-43299819D02*
X51782969Y-43299819D01*
X52163922Y-44252200D02*
X52306779Y-44299819D01*
X52306779Y-44299819D02*
X52544874Y-44299819D01*
X52544874Y-44299819D02*
X52640112Y-44252200D01*
X52640112Y-44252200D02*
X52687731Y-44204580D01*
X52687731Y-44204580D02*
X52735350Y-44109342D01*
X52735350Y-44109342D02*
X52735350Y-44014104D01*
X52735350Y-44014104D02*
X52687731Y-43918866D01*
X52687731Y-43918866D02*
X52640112Y-43871247D01*
X52640112Y-43871247D02*
X52544874Y-43823628D01*
X52544874Y-43823628D02*
X52354398Y-43776009D01*
X52354398Y-43776009D02*
X52259160Y-43728390D01*
X52259160Y-43728390D02*
X52211541Y-43680771D01*
X52211541Y-43680771D02*
X52163922Y-43585533D01*
X52163922Y-43585533D02*
X52163922Y-43490295D01*
X52163922Y-43490295D02*
X52211541Y-43395057D01*
X52211541Y-43395057D02*
X52259160Y-43347438D01*
X52259160Y-43347438D02*
X52354398Y-43299819D01*
X52354398Y-43299819D02*
X52592493Y-43299819D01*
X52592493Y-43299819D02*
X52735350Y-43347438D01*
X53163922Y-43776009D02*
X53497255Y-43776009D01*
X53640112Y-44299819D02*
X53163922Y-44299819D01*
X53163922Y-44299819D02*
X53163922Y-43299819D01*
X53163922Y-43299819D02*
X53640112Y-43299819D01*
X53925827Y-43299819D02*
X54497255Y-43299819D01*
X54211541Y-44299819D02*
X54211541Y-43299819D01*
X45780305Y-75359819D02*
X45780305Y-74359819D01*
X45780305Y-74836009D02*
X46351733Y-74836009D01*
X46351733Y-75359819D02*
X46351733Y-74359819D01*
X30720180Y-61548207D02*
X31196371Y-61214874D01*
X30720180Y-60976779D02*
X31720180Y-60976779D01*
X31720180Y-60976779D02*
X31720180Y-61357731D01*
X31720180Y-61357731D02*
X31672561Y-61452969D01*
X31672561Y-61452969D02*
X31624942Y-61500588D01*
X31624942Y-61500588D02*
X31529704Y-61548207D01*
X31529704Y-61548207D02*
X31386847Y-61548207D01*
X31386847Y-61548207D02*
X31291609Y-61500588D01*
X31291609Y-61500588D02*
X31243990Y-61452969D01*
X31243990Y-61452969D02*
X31196371Y-61357731D01*
X31196371Y-61357731D02*
X31196371Y-60976779D01*
X30767800Y-61929160D02*
X30720180Y-62072017D01*
X30720180Y-62072017D02*
X30720180Y-62310112D01*
X30720180Y-62310112D02*
X30767800Y-62405350D01*
X30767800Y-62405350D02*
X30815419Y-62452969D01*
X30815419Y-62452969D02*
X30910657Y-62500588D01*
X30910657Y-62500588D02*
X31005895Y-62500588D01*
X31005895Y-62500588D02*
X31101133Y-62452969D01*
X31101133Y-62452969D02*
X31148752Y-62405350D01*
X31148752Y-62405350D02*
X31196371Y-62310112D01*
X31196371Y-62310112D02*
X31243990Y-62119636D01*
X31243990Y-62119636D02*
X31291609Y-62024398D01*
X31291609Y-62024398D02*
X31339228Y-61976779D01*
X31339228Y-61976779D02*
X31434466Y-61929160D01*
X31434466Y-61929160D02*
X31529704Y-61929160D01*
X31529704Y-61929160D02*
X31624942Y-61976779D01*
X31624942Y-61976779D02*
X31672561Y-62024398D01*
X31672561Y-62024398D02*
X31720180Y-62119636D01*
X31720180Y-62119636D02*
X31720180Y-62357731D01*
X31720180Y-62357731D02*
X31672561Y-62500588D01*
X31386847Y-63357731D02*
X30720180Y-63357731D01*
X31767800Y-63119636D02*
X31053514Y-62881541D01*
X31053514Y-62881541D02*
X31053514Y-63500588D01*
X31291609Y-64024398D02*
X31339228Y-63929160D01*
X31339228Y-63929160D02*
X31386847Y-63881541D01*
X31386847Y-63881541D02*
X31482085Y-63833922D01*
X31482085Y-63833922D02*
X31529704Y-63833922D01*
X31529704Y-63833922D02*
X31624942Y-63881541D01*
X31624942Y-63881541D02*
X31672561Y-63929160D01*
X31672561Y-63929160D02*
X31720180Y-64024398D01*
X31720180Y-64024398D02*
X31720180Y-64214874D01*
X31720180Y-64214874D02*
X31672561Y-64310112D01*
X31672561Y-64310112D02*
X31624942Y-64357731D01*
X31624942Y-64357731D02*
X31529704Y-64405350D01*
X31529704Y-64405350D02*
X31482085Y-64405350D01*
X31482085Y-64405350D02*
X31386847Y-64357731D01*
X31386847Y-64357731D02*
X31339228Y-64310112D01*
X31339228Y-64310112D02*
X31291609Y-64214874D01*
X31291609Y-64214874D02*
X31291609Y-64024398D01*
X31291609Y-64024398D02*
X31243990Y-63929160D01*
X31243990Y-63929160D02*
X31196371Y-63881541D01*
X31196371Y-63881541D02*
X31101133Y-63833922D01*
X31101133Y-63833922D02*
X30910657Y-63833922D01*
X30910657Y-63833922D02*
X30815419Y-63881541D01*
X30815419Y-63881541D02*
X30767800Y-63929160D01*
X30767800Y-63929160D02*
X30720180Y-64024398D01*
X30720180Y-64024398D02*
X30720180Y-64214874D01*
X30720180Y-64214874D02*
X30767800Y-64310112D01*
X30767800Y-64310112D02*
X30815419Y-64357731D01*
X30815419Y-64357731D02*
X30910657Y-64405350D01*
X30910657Y-64405350D02*
X31101133Y-64405350D01*
X31101133Y-64405350D02*
X31196371Y-64357731D01*
X31196371Y-64357731D02*
X31243990Y-64310112D01*
X31243990Y-64310112D02*
X31291609Y-64214874D01*
X31720180Y-65310112D02*
X31720180Y-64833922D01*
X31720180Y-64833922D02*
X31243990Y-64786303D01*
X31243990Y-64786303D02*
X31291609Y-64833922D01*
X31291609Y-64833922D02*
X31339228Y-64929160D01*
X31339228Y-64929160D02*
X31339228Y-65167255D01*
X31339228Y-65167255D02*
X31291609Y-65262493D01*
X31291609Y-65262493D02*
X31243990Y-65310112D01*
X31243990Y-65310112D02*
X31148752Y-65357731D01*
X31148752Y-65357731D02*
X30910657Y-65357731D01*
X30910657Y-65357731D02*
X30815419Y-65310112D01*
X30815419Y-65310112D02*
X30767800Y-65262493D01*
X30767800Y-65262493D02*
X30720180Y-65167255D01*
X30720180Y-65167255D02*
X30720180Y-64929160D01*
X30720180Y-64929160D02*
X30767800Y-64833922D01*
X30767800Y-64833922D02*
X30815419Y-64786303D01*
X31720180Y-66738684D02*
X31720180Y-66929160D01*
X31720180Y-66929160D02*
X31672561Y-67024398D01*
X31672561Y-67024398D02*
X31577323Y-67119636D01*
X31577323Y-67119636D02*
X31386847Y-67167255D01*
X31386847Y-67167255D02*
X31053514Y-67167255D01*
X31053514Y-67167255D02*
X30863038Y-67119636D01*
X30863038Y-67119636D02*
X30767800Y-67024398D01*
X30767800Y-67024398D02*
X30720180Y-66929160D01*
X30720180Y-66929160D02*
X30720180Y-66738684D01*
X30720180Y-66738684D02*
X30767800Y-66643446D01*
X30767800Y-66643446D02*
X30863038Y-66548208D01*
X30863038Y-66548208D02*
X31053514Y-66500589D01*
X31053514Y-66500589D02*
X31386847Y-66500589D01*
X31386847Y-66500589D02*
X31577323Y-66548208D01*
X31577323Y-66548208D02*
X31672561Y-66643446D01*
X31672561Y-66643446D02*
X31720180Y-66738684D01*
X31720180Y-67595827D02*
X30910657Y-67595827D01*
X30910657Y-67595827D02*
X30815419Y-67643446D01*
X30815419Y-67643446D02*
X30767800Y-67691065D01*
X30767800Y-67691065D02*
X30720180Y-67786303D01*
X30720180Y-67786303D02*
X30720180Y-67976779D01*
X30720180Y-67976779D02*
X30767800Y-68072017D01*
X30767800Y-68072017D02*
X30815419Y-68119636D01*
X30815419Y-68119636D02*
X30910657Y-68167255D01*
X30910657Y-68167255D02*
X31720180Y-68167255D01*
X31720180Y-68500589D02*
X31720180Y-69072017D01*
X30720180Y-68786303D02*
X31720180Y-68786303D01*
X40866779Y-26488866D02*
X41628684Y-26488866D01*
X42918207Y-70614580D02*
X42870588Y-70662200D01*
X42870588Y-70662200D02*
X42727731Y-70709819D01*
X42727731Y-70709819D02*
X42632493Y-70709819D01*
X42632493Y-70709819D02*
X42489636Y-70662200D01*
X42489636Y-70662200D02*
X42394398Y-70566961D01*
X42394398Y-70566961D02*
X42346779Y-70471723D01*
X42346779Y-70471723D02*
X42299160Y-70281247D01*
X42299160Y-70281247D02*
X42299160Y-70138390D01*
X42299160Y-70138390D02*
X42346779Y-69947914D01*
X42346779Y-69947914D02*
X42394398Y-69852676D01*
X42394398Y-69852676D02*
X42489636Y-69757438D01*
X42489636Y-69757438D02*
X42632493Y-69709819D01*
X42632493Y-69709819D02*
X42727731Y-69709819D01*
X42727731Y-69709819D02*
X42870588Y-69757438D01*
X42870588Y-69757438D02*
X42918207Y-69805057D01*
X43299160Y-70424104D02*
X43775350Y-70424104D01*
X43203922Y-70709819D02*
X43537255Y-69709819D01*
X43537255Y-69709819D02*
X43870588Y-70709819D01*
X44203922Y-70709819D02*
X44203922Y-69709819D01*
X44203922Y-69709819D02*
X44775350Y-70709819D01*
X44775350Y-70709819D02*
X44775350Y-69709819D01*
X46346779Y-70186009D02*
X46489636Y-70233628D01*
X46489636Y-70233628D02*
X46537255Y-70281247D01*
X46537255Y-70281247D02*
X46584874Y-70376485D01*
X46584874Y-70376485D02*
X46584874Y-70519342D01*
X46584874Y-70519342D02*
X46537255Y-70614580D01*
X46537255Y-70614580D02*
X46489636Y-70662200D01*
X46489636Y-70662200D02*
X46394398Y-70709819D01*
X46394398Y-70709819D02*
X46013446Y-70709819D01*
X46013446Y-70709819D02*
X46013446Y-69709819D01*
X46013446Y-69709819D02*
X46346779Y-69709819D01*
X46346779Y-69709819D02*
X46442017Y-69757438D01*
X46442017Y-69757438D02*
X46489636Y-69805057D01*
X46489636Y-69805057D02*
X46537255Y-69900295D01*
X46537255Y-69900295D02*
X46537255Y-69995533D01*
X46537255Y-69995533D02*
X46489636Y-70090771D01*
X46489636Y-70090771D02*
X46442017Y-70138390D01*
X46442017Y-70138390D02*
X46346779Y-70186009D01*
X46346779Y-70186009D02*
X46013446Y-70186009D01*
X47013446Y-69709819D02*
X47013446Y-70519342D01*
X47013446Y-70519342D02*
X47061065Y-70614580D01*
X47061065Y-70614580D02*
X47108684Y-70662200D01*
X47108684Y-70662200D02*
X47203922Y-70709819D01*
X47203922Y-70709819D02*
X47394398Y-70709819D01*
X47394398Y-70709819D02*
X47489636Y-70662200D01*
X47489636Y-70662200D02*
X47537255Y-70614580D01*
X47537255Y-70614580D02*
X47584874Y-70519342D01*
X47584874Y-70519342D02*
X47584874Y-69709819D01*
X48013446Y-70662200D02*
X48156303Y-70709819D01*
X48156303Y-70709819D02*
X48394398Y-70709819D01*
X48394398Y-70709819D02*
X48489636Y-70662200D01*
X48489636Y-70662200D02*
X48537255Y-70614580D01*
X48537255Y-70614580D02*
X48584874Y-70519342D01*
X48584874Y-70519342D02*
X48584874Y-70424104D01*
X48584874Y-70424104D02*
X48537255Y-70328866D01*
X48537255Y-70328866D02*
X48489636Y-70281247D01*
X48489636Y-70281247D02*
X48394398Y-70233628D01*
X48394398Y-70233628D02*
X48203922Y-70186009D01*
X48203922Y-70186009D02*
X48108684Y-70138390D01*
X48108684Y-70138390D02*
X48061065Y-70090771D01*
X48061065Y-70090771D02*
X48013446Y-69995533D01*
X48013446Y-69995533D02*
X48013446Y-69900295D01*
X48013446Y-69900295D02*
X48061065Y-69805057D01*
X48061065Y-69805057D02*
X48108684Y-69757438D01*
X48108684Y-69757438D02*
X48203922Y-69709819D01*
X48203922Y-69709819D02*
X48442017Y-69709819D01*
X48442017Y-69709819D02*
X48584874Y-69757438D01*
X49965827Y-69709819D02*
X50156303Y-69709819D01*
X50156303Y-69709819D02*
X50251541Y-69757438D01*
X50251541Y-69757438D02*
X50346779Y-69852676D01*
X50346779Y-69852676D02*
X50394398Y-70043152D01*
X50394398Y-70043152D02*
X50394398Y-70376485D01*
X50394398Y-70376485D02*
X50346779Y-70566961D01*
X50346779Y-70566961D02*
X50251541Y-70662200D01*
X50251541Y-70662200D02*
X50156303Y-70709819D01*
X50156303Y-70709819D02*
X49965827Y-70709819D01*
X49965827Y-70709819D02*
X49870589Y-70662200D01*
X49870589Y-70662200D02*
X49775351Y-70566961D01*
X49775351Y-70566961D02*
X49727732Y-70376485D01*
X49727732Y-70376485D02*
X49727732Y-70043152D01*
X49727732Y-70043152D02*
X49775351Y-69852676D01*
X49775351Y-69852676D02*
X49870589Y-69757438D01*
X49870589Y-69757438D02*
X49965827Y-69709819D01*
X50822970Y-69709819D02*
X50822970Y-70519342D01*
X50822970Y-70519342D02*
X50870589Y-70614580D01*
X50870589Y-70614580D02*
X50918208Y-70662200D01*
X50918208Y-70662200D02*
X51013446Y-70709819D01*
X51013446Y-70709819D02*
X51203922Y-70709819D01*
X51203922Y-70709819D02*
X51299160Y-70662200D01*
X51299160Y-70662200D02*
X51346779Y-70614580D01*
X51346779Y-70614580D02*
X51394398Y-70519342D01*
X51394398Y-70519342D02*
X51394398Y-69709819D01*
X51727732Y-69709819D02*
X52299160Y-69709819D01*
X52013446Y-70709819D02*
X52013446Y-69709819D01*
X26441133Y-43786779D02*
X26441133Y-44548684D01*
X26060180Y-44167731D02*
X26822085Y-44167731D01*
X58311626Y-25965057D02*
X58359245Y-25917438D01*
X58359245Y-25917438D02*
X58454483Y-25869819D01*
X58454483Y-25869819D02*
X58692578Y-25869819D01*
X58692578Y-25869819D02*
X58787816Y-25917438D01*
X58787816Y-25917438D02*
X58835435Y-25965057D01*
X58835435Y-25965057D02*
X58883054Y-26060295D01*
X58883054Y-26060295D02*
X58883054Y-26155533D01*
X58883054Y-26155533D02*
X58835435Y-26298390D01*
X58835435Y-26298390D02*
X58264007Y-26869819D01*
X58264007Y-26869819D02*
X58883054Y-26869819D01*
X26922561Y-61460588D02*
X26970180Y-61365350D01*
X26970180Y-61365350D02*
X26970180Y-61222493D01*
X26970180Y-61222493D02*
X26922561Y-61079636D01*
X26922561Y-61079636D02*
X26827323Y-60984398D01*
X26827323Y-60984398D02*
X26732085Y-60936779D01*
X26732085Y-60936779D02*
X26541609Y-60889160D01*
X26541609Y-60889160D02*
X26398752Y-60889160D01*
X26398752Y-60889160D02*
X26208276Y-60936779D01*
X26208276Y-60936779D02*
X26113038Y-60984398D01*
X26113038Y-60984398D02*
X26017800Y-61079636D01*
X26017800Y-61079636D02*
X25970180Y-61222493D01*
X25970180Y-61222493D02*
X25970180Y-61317731D01*
X25970180Y-61317731D02*
X26017800Y-61460588D01*
X26017800Y-61460588D02*
X26065419Y-61508207D01*
X26065419Y-61508207D02*
X26398752Y-61508207D01*
X26398752Y-61508207D02*
X26398752Y-61317731D01*
X25970180Y-61936779D02*
X26970180Y-61936779D01*
X26970180Y-61936779D02*
X25970180Y-62508207D01*
X25970180Y-62508207D02*
X26970180Y-62508207D01*
X25970180Y-62984398D02*
X26970180Y-62984398D01*
X26970180Y-62984398D02*
X26970180Y-63222493D01*
X26970180Y-63222493D02*
X26922561Y-63365350D01*
X26922561Y-63365350D02*
X26827323Y-63460588D01*
X26827323Y-63460588D02*
X26732085Y-63508207D01*
X26732085Y-63508207D02*
X26541609Y-63555826D01*
X26541609Y-63555826D02*
X26398752Y-63555826D01*
X26398752Y-63555826D02*
X26208276Y-63508207D01*
X26208276Y-63508207D02*
X26113038Y-63460588D01*
X26113038Y-63460588D02*
X26017800Y-63365350D01*
X26017800Y-63365350D02*
X25970180Y-63222493D01*
X25970180Y-63222493D02*
X25970180Y-62984398D01*
X27012561Y-35690588D02*
X27060180Y-35595350D01*
X27060180Y-35595350D02*
X27060180Y-35452493D01*
X27060180Y-35452493D02*
X27012561Y-35309636D01*
X27012561Y-35309636D02*
X26917323Y-35214398D01*
X26917323Y-35214398D02*
X26822085Y-35166779D01*
X26822085Y-35166779D02*
X26631609Y-35119160D01*
X26631609Y-35119160D02*
X26488752Y-35119160D01*
X26488752Y-35119160D02*
X26298276Y-35166779D01*
X26298276Y-35166779D02*
X26203038Y-35214398D01*
X26203038Y-35214398D02*
X26107800Y-35309636D01*
X26107800Y-35309636D02*
X26060180Y-35452493D01*
X26060180Y-35452493D02*
X26060180Y-35547731D01*
X26060180Y-35547731D02*
X26107800Y-35690588D01*
X26107800Y-35690588D02*
X26155419Y-35738207D01*
X26155419Y-35738207D02*
X26488752Y-35738207D01*
X26488752Y-35738207D02*
X26488752Y-35547731D01*
X26060180Y-36166779D02*
X27060180Y-36166779D01*
X27060180Y-36166779D02*
X26060180Y-36738207D01*
X26060180Y-36738207D02*
X27060180Y-36738207D01*
X26060180Y-37214398D02*
X27060180Y-37214398D01*
X27060180Y-37214398D02*
X27060180Y-37452493D01*
X27060180Y-37452493D02*
X27012561Y-37595350D01*
X27012561Y-37595350D02*
X26917323Y-37690588D01*
X26917323Y-37690588D02*
X26822085Y-37738207D01*
X26822085Y-37738207D02*
X26631609Y-37785826D01*
X26631609Y-37785826D02*
X26488752Y-37785826D01*
X26488752Y-37785826D02*
X26298276Y-37738207D01*
X26298276Y-37738207D02*
X26203038Y-37690588D01*
X26203038Y-37690588D02*
X26107800Y-37595350D01*
X26107800Y-37595350D02*
X26060180Y-37452493D01*
X26060180Y-37452493D02*
X26060180Y-37214398D01*
X61015397Y-25990982D02*
X61015397Y-26752887D01*
X60634444Y-26371934D02*
X61396349Y-26371934D01*
X26255895Y-64779160D02*
X26255895Y-65255350D01*
X25970180Y-64683922D02*
X26970180Y-65017255D01*
X26970180Y-65017255D02*
X25970180Y-65350588D01*
X43816362Y-26203152D02*
X43816362Y-26869819D01*
X43578267Y-25822200D02*
X43340172Y-26536485D01*
X43340172Y-26536485D02*
X43959219Y-26536485D01*
X26441133Y-38706779D02*
X26441133Y-39468684D01*
X26060180Y-39087731D02*
X26822085Y-39087731D01*
X57930476Y-74489819D02*
X57740000Y-74489819D01*
X57740000Y-74489819D02*
X57644762Y-74537438D01*
X57644762Y-74537438D02*
X57597143Y-74585057D01*
X57597143Y-74585057D02*
X57501905Y-74727914D01*
X57501905Y-74727914D02*
X57454286Y-74918390D01*
X57454286Y-74918390D02*
X57454286Y-75299342D01*
X57454286Y-75299342D02*
X57501905Y-75394580D01*
X57501905Y-75394580D02*
X57549524Y-75442200D01*
X57549524Y-75442200D02*
X57644762Y-75489819D01*
X57644762Y-75489819D02*
X57835238Y-75489819D01*
X57835238Y-75489819D02*
X57930476Y-75442200D01*
X57930476Y-75442200D02*
X57978095Y-75394580D01*
X57978095Y-75394580D02*
X58025714Y-75299342D01*
X58025714Y-75299342D02*
X58025714Y-75061247D01*
X58025714Y-75061247D02*
X57978095Y-74966009D01*
X57978095Y-74966009D02*
X57930476Y-74918390D01*
X57930476Y-74918390D02*
X57835238Y-74870771D01*
X57835238Y-74870771D02*
X57644762Y-74870771D01*
X57644762Y-74870771D02*
X57549524Y-74918390D01*
X57549524Y-74918390D02*
X57501905Y-74966009D01*
X57501905Y-74966009D02*
X57454286Y-75061247D01*
X54298095Y-74567438D02*
X54202857Y-74519819D01*
X54202857Y-74519819D02*
X54060000Y-74519819D01*
X54060000Y-74519819D02*
X53917143Y-74567438D01*
X53917143Y-74567438D02*
X53821905Y-74662676D01*
X53821905Y-74662676D02*
X53774286Y-74757914D01*
X53774286Y-74757914D02*
X53726667Y-74948390D01*
X53726667Y-74948390D02*
X53726667Y-75091247D01*
X53726667Y-75091247D02*
X53774286Y-75281723D01*
X53774286Y-75281723D02*
X53821905Y-75376961D01*
X53821905Y-75376961D02*
X53917143Y-75472200D01*
X53917143Y-75472200D02*
X54060000Y-75519819D01*
X54060000Y-75519819D02*
X54155238Y-75519819D01*
X54155238Y-75519819D02*
X54298095Y-75472200D01*
X54298095Y-75472200D02*
X54345714Y-75424580D01*
X54345714Y-75424580D02*
X54345714Y-75091247D01*
X54345714Y-75091247D02*
X54155238Y-75091247D01*
X54774286Y-75519819D02*
X54774286Y-74519819D01*
X54774286Y-74519819D02*
X55345714Y-75519819D01*
X55345714Y-75519819D02*
X55345714Y-74519819D01*
X55821905Y-75519819D02*
X55821905Y-74519819D01*
X55821905Y-74519819D02*
X56060000Y-74519819D01*
X56060000Y-74519819D02*
X56202857Y-74567438D01*
X56202857Y-74567438D02*
X56298095Y-74662676D01*
X56298095Y-74662676D02*
X56345714Y-74757914D01*
X56345714Y-74757914D02*
X56393333Y-74948390D01*
X56393333Y-74948390D02*
X56393333Y-75091247D01*
X56393333Y-75091247D02*
X56345714Y-75281723D01*
X56345714Y-75281723D02*
X56298095Y-75376961D01*
X56298095Y-75376961D02*
X56202857Y-75472200D01*
X56202857Y-75472200D02*
X56060000Y-75519819D01*
X56060000Y-75519819D02*
X55821905Y-75519819D01*
X53529670Y-25990982D02*
X53529670Y-26752887D01*
X53148717Y-26371934D02*
X53910622Y-26371934D01*
X67510286Y-74585057D02*
X67557905Y-74537438D01*
X67557905Y-74537438D02*
X67653143Y-74489819D01*
X67653143Y-74489819D02*
X67891238Y-74489819D01*
X67891238Y-74489819D02*
X67986476Y-74537438D01*
X67986476Y-74537438D02*
X68034095Y-74585057D01*
X68034095Y-74585057D02*
X68081714Y-74680295D01*
X68081714Y-74680295D02*
X68081714Y-74775533D01*
X68081714Y-74775533D02*
X68034095Y-74918390D01*
X68034095Y-74918390D02*
X67462667Y-75489819D01*
X67462667Y-75489819D02*
X68081714Y-75489819D01*
X55838233Y-26488866D02*
X56600138Y-26488866D01*
X48971562Y-75359819D02*
X48495372Y-75359819D01*
X48495372Y-75359819D02*
X48495372Y-74359819D01*
X54011667Y-46797518D02*
X54154524Y-46845137D01*
X54154524Y-46845137D02*
X54392619Y-46845137D01*
X54392619Y-46845137D02*
X54487857Y-46797518D01*
X54487857Y-46797518D02*
X54535476Y-46749898D01*
X54535476Y-46749898D02*
X54583095Y-46654660D01*
X54583095Y-46654660D02*
X54583095Y-46559422D01*
X54583095Y-46559422D02*
X54535476Y-46464184D01*
X54535476Y-46464184D02*
X54487857Y-46416565D01*
X54487857Y-46416565D02*
X54392619Y-46368946D01*
X54392619Y-46368946D02*
X54202143Y-46321327D01*
X54202143Y-46321327D02*
X54106905Y-46273708D01*
X54106905Y-46273708D02*
X54059286Y-46226089D01*
X54059286Y-46226089D02*
X54011667Y-46130851D01*
X54011667Y-46130851D02*
X54011667Y-46035613D01*
X54011667Y-46035613D02*
X54059286Y-45940375D01*
X54059286Y-45940375D02*
X54106905Y-45892756D01*
X54106905Y-45892756D02*
X54202143Y-45845137D01*
X54202143Y-45845137D02*
X54440238Y-45845137D01*
X54440238Y-45845137D02*
X54583095Y-45892756D01*
X54916429Y-45845137D02*
X55154524Y-46845137D01*
X55154524Y-46845137D02*
X55345000Y-46130851D01*
X55345000Y-46130851D02*
X55535476Y-46845137D01*
X55535476Y-46845137D02*
X55773572Y-45845137D01*
X56678333Y-46845137D02*
X56106905Y-46845137D01*
X56392619Y-46845137D02*
X56392619Y-45845137D01*
X56392619Y-45845137D02*
X56297381Y-45987994D01*
X56297381Y-45987994D02*
X56202143Y-46083232D01*
X56202143Y-46083232D02*
X56106905Y-46130851D01*
X59167200Y-66273333D02*
X59214819Y-66130476D01*
X59214819Y-66130476D02*
X59214819Y-65892381D01*
X59214819Y-65892381D02*
X59167200Y-65797143D01*
X59167200Y-65797143D02*
X59119580Y-65749524D01*
X59119580Y-65749524D02*
X59024342Y-65701905D01*
X59024342Y-65701905D02*
X58929104Y-65701905D01*
X58929104Y-65701905D02*
X58833866Y-65749524D01*
X58833866Y-65749524D02*
X58786247Y-65797143D01*
X58786247Y-65797143D02*
X58738628Y-65892381D01*
X58738628Y-65892381D02*
X58691009Y-66082857D01*
X58691009Y-66082857D02*
X58643390Y-66178095D01*
X58643390Y-66178095D02*
X58595771Y-66225714D01*
X58595771Y-66225714D02*
X58500533Y-66273333D01*
X58500533Y-66273333D02*
X58405295Y-66273333D01*
X58405295Y-66273333D02*
X58310057Y-66225714D01*
X58310057Y-66225714D02*
X58262438Y-66178095D01*
X58262438Y-66178095D02*
X58214819Y-66082857D01*
X58214819Y-66082857D02*
X58214819Y-65844762D01*
X58214819Y-65844762D02*
X58262438Y-65701905D01*
X58214819Y-65368571D02*
X59214819Y-65130476D01*
X59214819Y-65130476D02*
X58500533Y-64940000D01*
X58500533Y-64940000D02*
X59214819Y-64749524D01*
X59214819Y-64749524D02*
X58214819Y-64511429D01*
X58214819Y-64225714D02*
X58214819Y-63606667D01*
X58214819Y-63606667D02*
X58595771Y-63940000D01*
X58595771Y-63940000D02*
X58595771Y-63797143D01*
X58595771Y-63797143D02*
X58643390Y-63701905D01*
X58643390Y-63701905D02*
X58691009Y-63654286D01*
X58691009Y-63654286D02*
X58786247Y-63606667D01*
X58786247Y-63606667D02*
X59024342Y-63606667D01*
X59024342Y-63606667D02*
X59119580Y-63654286D01*
X59119580Y-63654286D02*
X59167200Y-63701905D01*
X59167200Y-63701905D02*
X59214819Y-63797143D01*
X59214819Y-63797143D02*
X59214819Y-64082857D01*
X59214819Y-64082857D02*
X59167200Y-64178095D01*
X59167200Y-64178095D02*
X59119580Y-64225714D01*
X57293333Y-59079580D02*
X57245714Y-59127200D01*
X57245714Y-59127200D02*
X57102857Y-59174819D01*
X57102857Y-59174819D02*
X57007619Y-59174819D01*
X57007619Y-59174819D02*
X56864762Y-59127200D01*
X56864762Y-59127200D02*
X56769524Y-59031961D01*
X56769524Y-59031961D02*
X56721905Y-58936723D01*
X56721905Y-58936723D02*
X56674286Y-58746247D01*
X56674286Y-58746247D02*
X56674286Y-58603390D01*
X56674286Y-58603390D02*
X56721905Y-58412914D01*
X56721905Y-58412914D02*
X56769524Y-58317676D01*
X56769524Y-58317676D02*
X56864762Y-58222438D01*
X56864762Y-58222438D02*
X57007619Y-58174819D01*
X57007619Y-58174819D02*
X57102857Y-58174819D01*
X57102857Y-58174819D02*
X57245714Y-58222438D01*
X57245714Y-58222438D02*
X57293333Y-58270057D01*
X58198095Y-58174819D02*
X57721905Y-58174819D01*
X57721905Y-58174819D02*
X57674286Y-58651009D01*
X57674286Y-58651009D02*
X57721905Y-58603390D01*
X57721905Y-58603390D02*
X57817143Y-58555771D01*
X57817143Y-58555771D02*
X58055238Y-58555771D01*
X58055238Y-58555771D02*
X58150476Y-58603390D01*
X58150476Y-58603390D02*
X58198095Y-58651009D01*
X58198095Y-58651009D02*
X58245714Y-58746247D01*
X58245714Y-58746247D02*
X58245714Y-58984342D01*
X58245714Y-58984342D02*
X58198095Y-59079580D01*
X58198095Y-59079580D02*
X58150476Y-59127200D01*
X58150476Y-59127200D02*
X58055238Y-59174819D01*
X58055238Y-59174819D02*
X57817143Y-59174819D01*
X57817143Y-59174819D02*
X57721905Y-59127200D01*
X57721905Y-59127200D02*
X57674286Y-59079580D01*
X39893333Y-39634819D02*
X39417143Y-39634819D01*
X39417143Y-39634819D02*
X39417143Y-38634819D01*
X40750476Y-39634819D02*
X40179048Y-39634819D01*
X40464762Y-39634819D02*
X40464762Y-38634819D01*
X40464762Y-38634819D02*
X40369524Y-38777676D01*
X40369524Y-38777676D02*
X40274286Y-38872914D01*
X40274286Y-38872914D02*
X40179048Y-38920533D01*
X33273332Y-37259819D02*
X32939999Y-36783628D01*
X32701904Y-37259819D02*
X32701904Y-36259819D01*
X32701904Y-36259819D02*
X33082856Y-36259819D01*
X33082856Y-36259819D02*
X33178094Y-36307438D01*
X33178094Y-36307438D02*
X33225713Y-36355057D01*
X33225713Y-36355057D02*
X33273332Y-36450295D01*
X33273332Y-36450295D02*
X33273332Y-36593152D01*
X33273332Y-36593152D02*
X33225713Y-36688390D01*
X33225713Y-36688390D02*
X33178094Y-36736009D01*
X33178094Y-36736009D02*
X33082856Y-36783628D01*
X33082856Y-36783628D02*
X32701904Y-36783628D01*
X33749523Y-37259819D02*
X33939999Y-37259819D01*
X33939999Y-37259819D02*
X34035237Y-37212200D01*
X34035237Y-37212200D02*
X34082856Y-37164580D01*
X34082856Y-37164580D02*
X34178094Y-37021723D01*
X34178094Y-37021723D02*
X34225713Y-36831247D01*
X34225713Y-36831247D02*
X34225713Y-36450295D01*
X34225713Y-36450295D02*
X34178094Y-36355057D01*
X34178094Y-36355057D02*
X34130475Y-36307438D01*
X34130475Y-36307438D02*
X34035237Y-36259819D01*
X34035237Y-36259819D02*
X33844761Y-36259819D01*
X33844761Y-36259819D02*
X33749523Y-36307438D01*
X33749523Y-36307438D02*
X33701904Y-36355057D01*
X33701904Y-36355057D02*
X33654285Y-36450295D01*
X33654285Y-36450295D02*
X33654285Y-36688390D01*
X33654285Y-36688390D02*
X33701904Y-36783628D01*
X33701904Y-36783628D02*
X33749523Y-36831247D01*
X33749523Y-36831247D02*
X33844761Y-36878866D01*
X33844761Y-36878866D02*
X34035237Y-36878866D01*
X34035237Y-36878866D02*
X34130475Y-36831247D01*
X34130475Y-36831247D02*
X34178094Y-36783628D01*
X34178094Y-36783628D02*
X34225713Y-36688390D01*
X36123333Y-41694819D02*
X35790000Y-41218628D01*
X35551905Y-41694819D02*
X35551905Y-40694819D01*
X35551905Y-40694819D02*
X35932857Y-40694819D01*
X35932857Y-40694819D02*
X36028095Y-40742438D01*
X36028095Y-40742438D02*
X36075714Y-40790057D01*
X36075714Y-40790057D02*
X36123333Y-40885295D01*
X36123333Y-40885295D02*
X36123333Y-41028152D01*
X36123333Y-41028152D02*
X36075714Y-41123390D01*
X36075714Y-41123390D02*
X36028095Y-41171009D01*
X36028095Y-41171009D02*
X35932857Y-41218628D01*
X35932857Y-41218628D02*
X35551905Y-41218628D01*
X36456667Y-40694819D02*
X37123333Y-40694819D01*
X37123333Y-40694819D02*
X36694762Y-41694819D01*
X79977142Y-61054819D02*
X79643809Y-60578628D01*
X79405714Y-61054819D02*
X79405714Y-60054819D01*
X79405714Y-60054819D02*
X79786666Y-60054819D01*
X79786666Y-60054819D02*
X79881904Y-60102438D01*
X79881904Y-60102438D02*
X79929523Y-60150057D01*
X79929523Y-60150057D02*
X79977142Y-60245295D01*
X79977142Y-60245295D02*
X79977142Y-60388152D01*
X79977142Y-60388152D02*
X79929523Y-60483390D01*
X79929523Y-60483390D02*
X79881904Y-60531009D01*
X79881904Y-60531009D02*
X79786666Y-60578628D01*
X79786666Y-60578628D02*
X79405714Y-60578628D01*
X80929523Y-61054819D02*
X80358095Y-61054819D01*
X80643809Y-61054819D02*
X80643809Y-60054819D01*
X80643809Y-60054819D02*
X80548571Y-60197676D01*
X80548571Y-60197676D02*
X80453333Y-60292914D01*
X80453333Y-60292914D02*
X80358095Y-60340533D01*
X81262857Y-60054819D02*
X81929523Y-60054819D01*
X81929523Y-60054819D02*
X81500952Y-61054819D01*
X38263333Y-54779580D02*
X38215714Y-54827200D01*
X38215714Y-54827200D02*
X38072857Y-54874819D01*
X38072857Y-54874819D02*
X37977619Y-54874819D01*
X37977619Y-54874819D02*
X37834762Y-54827200D01*
X37834762Y-54827200D02*
X37739524Y-54731961D01*
X37739524Y-54731961D02*
X37691905Y-54636723D01*
X37691905Y-54636723D02*
X37644286Y-54446247D01*
X37644286Y-54446247D02*
X37644286Y-54303390D01*
X37644286Y-54303390D02*
X37691905Y-54112914D01*
X37691905Y-54112914D02*
X37739524Y-54017676D01*
X37739524Y-54017676D02*
X37834762Y-53922438D01*
X37834762Y-53922438D02*
X37977619Y-53874819D01*
X37977619Y-53874819D02*
X38072857Y-53874819D01*
X38072857Y-53874819D02*
X38215714Y-53922438D01*
X38215714Y-53922438D02*
X38263333Y-53970057D01*
X38739524Y-54874819D02*
X38930000Y-54874819D01*
X38930000Y-54874819D02*
X39025238Y-54827200D01*
X39025238Y-54827200D02*
X39072857Y-54779580D01*
X39072857Y-54779580D02*
X39168095Y-54636723D01*
X39168095Y-54636723D02*
X39215714Y-54446247D01*
X39215714Y-54446247D02*
X39215714Y-54065295D01*
X39215714Y-54065295D02*
X39168095Y-53970057D01*
X39168095Y-53970057D02*
X39120476Y-53922438D01*
X39120476Y-53922438D02*
X39025238Y-53874819D01*
X39025238Y-53874819D02*
X38834762Y-53874819D01*
X38834762Y-53874819D02*
X38739524Y-53922438D01*
X38739524Y-53922438D02*
X38691905Y-53970057D01*
X38691905Y-53970057D02*
X38644286Y-54065295D01*
X38644286Y-54065295D02*
X38644286Y-54303390D01*
X38644286Y-54303390D02*
X38691905Y-54398628D01*
X38691905Y-54398628D02*
X38739524Y-54446247D01*
X38739524Y-54446247D02*
X38834762Y-54493866D01*
X38834762Y-54493866D02*
X39025238Y-54493866D01*
X39025238Y-54493866D02*
X39120476Y-54446247D01*
X39120476Y-54446247D02*
X39168095Y-54398628D01*
X39168095Y-54398628D02*
X39215714Y-54303390D01*
X46743333Y-46404819D02*
X46410000Y-45928628D01*
X46171905Y-46404819D02*
X46171905Y-45404819D01*
X46171905Y-45404819D02*
X46552857Y-45404819D01*
X46552857Y-45404819D02*
X46648095Y-45452438D01*
X46648095Y-45452438D02*
X46695714Y-45500057D01*
X46695714Y-45500057D02*
X46743333Y-45595295D01*
X46743333Y-45595295D02*
X46743333Y-45738152D01*
X46743333Y-45738152D02*
X46695714Y-45833390D01*
X46695714Y-45833390D02*
X46648095Y-45881009D01*
X46648095Y-45881009D02*
X46552857Y-45928628D01*
X46552857Y-45928628D02*
X46171905Y-45928628D01*
X47600476Y-45738152D02*
X47600476Y-46404819D01*
X47362381Y-45357200D02*
X47124286Y-46071485D01*
X47124286Y-46071485D02*
X47743333Y-46071485D01*
X48168095Y-56644819D02*
X48168095Y-57454342D01*
X48168095Y-57454342D02*
X48215714Y-57549580D01*
X48215714Y-57549580D02*
X48263333Y-57597200D01*
X48263333Y-57597200D02*
X48358571Y-57644819D01*
X48358571Y-57644819D02*
X48549047Y-57644819D01*
X48549047Y-57644819D02*
X48644285Y-57597200D01*
X48644285Y-57597200D02*
X48691904Y-57549580D01*
X48691904Y-57549580D02*
X48739523Y-57454342D01*
X48739523Y-57454342D02*
X48739523Y-56644819D01*
X49168095Y-56740057D02*
X49215714Y-56692438D01*
X49215714Y-56692438D02*
X49310952Y-56644819D01*
X49310952Y-56644819D02*
X49549047Y-56644819D01*
X49549047Y-56644819D02*
X49644285Y-56692438D01*
X49644285Y-56692438D02*
X49691904Y-56740057D01*
X49691904Y-56740057D02*
X49739523Y-56835295D01*
X49739523Y-56835295D02*
X49739523Y-56930533D01*
X49739523Y-56930533D02*
X49691904Y-57073390D01*
X49691904Y-57073390D02*
X49120476Y-57644819D01*
X49120476Y-57644819D02*
X49739523Y-57644819D01*
X69077142Y-36109580D02*
X69029523Y-36157200D01*
X69029523Y-36157200D02*
X68886666Y-36204819D01*
X68886666Y-36204819D02*
X68791428Y-36204819D01*
X68791428Y-36204819D02*
X68648571Y-36157200D01*
X68648571Y-36157200D02*
X68553333Y-36061961D01*
X68553333Y-36061961D02*
X68505714Y-35966723D01*
X68505714Y-35966723D02*
X68458095Y-35776247D01*
X68458095Y-35776247D02*
X68458095Y-35633390D01*
X68458095Y-35633390D02*
X68505714Y-35442914D01*
X68505714Y-35442914D02*
X68553333Y-35347676D01*
X68553333Y-35347676D02*
X68648571Y-35252438D01*
X68648571Y-35252438D02*
X68791428Y-35204819D01*
X68791428Y-35204819D02*
X68886666Y-35204819D01*
X68886666Y-35204819D02*
X69029523Y-35252438D01*
X69029523Y-35252438D02*
X69077142Y-35300057D01*
X69458095Y-35300057D02*
X69505714Y-35252438D01*
X69505714Y-35252438D02*
X69600952Y-35204819D01*
X69600952Y-35204819D02*
X69839047Y-35204819D01*
X69839047Y-35204819D02*
X69934285Y-35252438D01*
X69934285Y-35252438D02*
X69981904Y-35300057D01*
X69981904Y-35300057D02*
X70029523Y-35395295D01*
X70029523Y-35395295D02*
X70029523Y-35490533D01*
X70029523Y-35490533D02*
X69981904Y-35633390D01*
X69981904Y-35633390D02*
X69410476Y-36204819D01*
X69410476Y-36204819D02*
X70029523Y-36204819D01*
X70886666Y-35538152D02*
X70886666Y-36204819D01*
X70648571Y-35157200D02*
X70410476Y-35871485D01*
X70410476Y-35871485D02*
X71029523Y-35871485D01*
X39763333Y-57889580D02*
X39715714Y-57937200D01*
X39715714Y-57937200D02*
X39572857Y-57984819D01*
X39572857Y-57984819D02*
X39477619Y-57984819D01*
X39477619Y-57984819D02*
X39334762Y-57937200D01*
X39334762Y-57937200D02*
X39239524Y-57841961D01*
X39239524Y-57841961D02*
X39191905Y-57746723D01*
X39191905Y-57746723D02*
X39144286Y-57556247D01*
X39144286Y-57556247D02*
X39144286Y-57413390D01*
X39144286Y-57413390D02*
X39191905Y-57222914D01*
X39191905Y-57222914D02*
X39239524Y-57127676D01*
X39239524Y-57127676D02*
X39334762Y-57032438D01*
X39334762Y-57032438D02*
X39477619Y-56984819D01*
X39477619Y-56984819D02*
X39572857Y-56984819D01*
X39572857Y-56984819D02*
X39715714Y-57032438D01*
X39715714Y-57032438D02*
X39763333Y-57080057D01*
X40334762Y-57413390D02*
X40239524Y-57365771D01*
X40239524Y-57365771D02*
X40191905Y-57318152D01*
X40191905Y-57318152D02*
X40144286Y-57222914D01*
X40144286Y-57222914D02*
X40144286Y-57175295D01*
X40144286Y-57175295D02*
X40191905Y-57080057D01*
X40191905Y-57080057D02*
X40239524Y-57032438D01*
X40239524Y-57032438D02*
X40334762Y-56984819D01*
X40334762Y-56984819D02*
X40525238Y-56984819D01*
X40525238Y-56984819D02*
X40620476Y-57032438D01*
X40620476Y-57032438D02*
X40668095Y-57080057D01*
X40668095Y-57080057D02*
X40715714Y-57175295D01*
X40715714Y-57175295D02*
X40715714Y-57222914D01*
X40715714Y-57222914D02*
X40668095Y-57318152D01*
X40668095Y-57318152D02*
X40620476Y-57365771D01*
X40620476Y-57365771D02*
X40525238Y-57413390D01*
X40525238Y-57413390D02*
X40334762Y-57413390D01*
X40334762Y-57413390D02*
X40239524Y-57461009D01*
X40239524Y-57461009D02*
X40191905Y-57508628D01*
X40191905Y-57508628D02*
X40144286Y-57603866D01*
X40144286Y-57603866D02*
X40144286Y-57794342D01*
X40144286Y-57794342D02*
X40191905Y-57889580D01*
X40191905Y-57889580D02*
X40239524Y-57937200D01*
X40239524Y-57937200D02*
X40334762Y-57984819D01*
X40334762Y-57984819D02*
X40525238Y-57984819D01*
X40525238Y-57984819D02*
X40620476Y-57937200D01*
X40620476Y-57937200D02*
X40668095Y-57889580D01*
X40668095Y-57889580D02*
X40715714Y-57794342D01*
X40715714Y-57794342D02*
X40715714Y-57603866D01*
X40715714Y-57603866D02*
X40668095Y-57508628D01*
X40668095Y-57508628D02*
X40620476Y-57461009D01*
X40620476Y-57461009D02*
X40525238Y-57413390D01*
X48793333Y-44514819D02*
X48460000Y-44038628D01*
X48221905Y-44514819D02*
X48221905Y-43514819D01*
X48221905Y-43514819D02*
X48602857Y-43514819D01*
X48602857Y-43514819D02*
X48698095Y-43562438D01*
X48698095Y-43562438D02*
X48745714Y-43610057D01*
X48745714Y-43610057D02*
X48793333Y-43705295D01*
X48793333Y-43705295D02*
X48793333Y-43848152D01*
X48793333Y-43848152D02*
X48745714Y-43943390D01*
X48745714Y-43943390D02*
X48698095Y-43991009D01*
X48698095Y-43991009D02*
X48602857Y-44038628D01*
X48602857Y-44038628D02*
X48221905Y-44038628D01*
X49698095Y-43514819D02*
X49221905Y-43514819D01*
X49221905Y-43514819D02*
X49174286Y-43991009D01*
X49174286Y-43991009D02*
X49221905Y-43943390D01*
X49221905Y-43943390D02*
X49317143Y-43895771D01*
X49317143Y-43895771D02*
X49555238Y-43895771D01*
X49555238Y-43895771D02*
X49650476Y-43943390D01*
X49650476Y-43943390D02*
X49698095Y-43991009D01*
X49698095Y-43991009D02*
X49745714Y-44086247D01*
X49745714Y-44086247D02*
X49745714Y-44324342D01*
X49745714Y-44324342D02*
X49698095Y-44419580D01*
X49698095Y-44419580D02*
X49650476Y-44467200D01*
X49650476Y-44467200D02*
X49555238Y-44514819D01*
X49555238Y-44514819D02*
X49317143Y-44514819D01*
X49317143Y-44514819D02*
X49221905Y-44467200D01*
X49221905Y-44467200D02*
X49174286Y-44419580D01*
X56164819Y-64602857D02*
X55688628Y-64936190D01*
X56164819Y-65174285D02*
X55164819Y-65174285D01*
X55164819Y-65174285D02*
X55164819Y-64793333D01*
X55164819Y-64793333D02*
X55212438Y-64698095D01*
X55212438Y-64698095D02*
X55260057Y-64650476D01*
X55260057Y-64650476D02*
X55355295Y-64602857D01*
X55355295Y-64602857D02*
X55498152Y-64602857D01*
X55498152Y-64602857D02*
X55593390Y-64650476D01*
X55593390Y-64650476D02*
X55641009Y-64698095D01*
X55641009Y-64698095D02*
X55688628Y-64793333D01*
X55688628Y-64793333D02*
X55688628Y-65174285D01*
X56164819Y-63650476D02*
X56164819Y-64221904D01*
X56164819Y-63936190D02*
X55164819Y-63936190D01*
X55164819Y-63936190D02*
X55307676Y-64031428D01*
X55307676Y-64031428D02*
X55402914Y-64126666D01*
X55402914Y-64126666D02*
X55450533Y-64221904D01*
X55164819Y-63031428D02*
X55164819Y-62936190D01*
X55164819Y-62936190D02*
X55212438Y-62840952D01*
X55212438Y-62840952D02*
X55260057Y-62793333D01*
X55260057Y-62793333D02*
X55355295Y-62745714D01*
X55355295Y-62745714D02*
X55545771Y-62698095D01*
X55545771Y-62698095D02*
X55783866Y-62698095D01*
X55783866Y-62698095D02*
X55974342Y-62745714D01*
X55974342Y-62745714D02*
X56069580Y-62793333D01*
X56069580Y-62793333D02*
X56117200Y-62840952D01*
X56117200Y-62840952D02*
X56164819Y-62936190D01*
X56164819Y-62936190D02*
X56164819Y-63031428D01*
X56164819Y-63031428D02*
X56117200Y-63126666D01*
X56117200Y-63126666D02*
X56069580Y-63174285D01*
X56069580Y-63174285D02*
X55974342Y-63221904D01*
X55974342Y-63221904D02*
X55783866Y-63269523D01*
X55783866Y-63269523D02*
X55545771Y-63269523D01*
X55545771Y-63269523D02*
X55355295Y-63221904D01*
X55355295Y-63221904D02*
X55260057Y-63174285D01*
X55260057Y-63174285D02*
X55212438Y-63126666D01*
X55212438Y-63126666D02*
X55164819Y-63031428D01*
X74057142Y-27204819D02*
X73723809Y-26728628D01*
X73485714Y-27204819D02*
X73485714Y-26204819D01*
X73485714Y-26204819D02*
X73866666Y-26204819D01*
X73866666Y-26204819D02*
X73961904Y-26252438D01*
X73961904Y-26252438D02*
X74009523Y-26300057D01*
X74009523Y-26300057D02*
X74057142Y-26395295D01*
X74057142Y-26395295D02*
X74057142Y-26538152D01*
X74057142Y-26538152D02*
X74009523Y-26633390D01*
X74009523Y-26633390D02*
X73961904Y-26681009D01*
X73961904Y-26681009D02*
X73866666Y-26728628D01*
X73866666Y-26728628D02*
X73485714Y-26728628D01*
X75009523Y-27204819D02*
X74438095Y-27204819D01*
X74723809Y-27204819D02*
X74723809Y-26204819D01*
X74723809Y-26204819D02*
X74628571Y-26347676D01*
X74628571Y-26347676D02*
X74533333Y-26442914D01*
X74533333Y-26442914D02*
X74438095Y-26490533D01*
X75580952Y-26633390D02*
X75485714Y-26585771D01*
X75485714Y-26585771D02*
X75438095Y-26538152D01*
X75438095Y-26538152D02*
X75390476Y-26442914D01*
X75390476Y-26442914D02*
X75390476Y-26395295D01*
X75390476Y-26395295D02*
X75438095Y-26300057D01*
X75438095Y-26300057D02*
X75485714Y-26252438D01*
X75485714Y-26252438D02*
X75580952Y-26204819D01*
X75580952Y-26204819D02*
X75771428Y-26204819D01*
X75771428Y-26204819D02*
X75866666Y-26252438D01*
X75866666Y-26252438D02*
X75914285Y-26300057D01*
X75914285Y-26300057D02*
X75961904Y-26395295D01*
X75961904Y-26395295D02*
X75961904Y-26442914D01*
X75961904Y-26442914D02*
X75914285Y-26538152D01*
X75914285Y-26538152D02*
X75866666Y-26585771D01*
X75866666Y-26585771D02*
X75771428Y-26633390D01*
X75771428Y-26633390D02*
X75580952Y-26633390D01*
X75580952Y-26633390D02*
X75485714Y-26681009D01*
X75485714Y-26681009D02*
X75438095Y-26728628D01*
X75438095Y-26728628D02*
X75390476Y-26823866D01*
X75390476Y-26823866D02*
X75390476Y-27014342D01*
X75390476Y-27014342D02*
X75438095Y-27109580D01*
X75438095Y-27109580D02*
X75485714Y-27157200D01*
X75485714Y-27157200D02*
X75580952Y-27204819D01*
X75580952Y-27204819D02*
X75771428Y-27204819D01*
X75771428Y-27204819D02*
X75866666Y-27157200D01*
X75866666Y-27157200D02*
X75914285Y-27109580D01*
X75914285Y-27109580D02*
X75961904Y-27014342D01*
X75961904Y-27014342D02*
X75961904Y-26823866D01*
X75961904Y-26823866D02*
X75914285Y-26728628D01*
X75914285Y-26728628D02*
X75866666Y-26681009D01*
X75866666Y-26681009D02*
X75771428Y-26633390D01*
X46398095Y-41784819D02*
X46398095Y-42594342D01*
X46398095Y-42594342D02*
X46445714Y-42689580D01*
X46445714Y-42689580D02*
X46493333Y-42737200D01*
X46493333Y-42737200D02*
X46588571Y-42784819D01*
X46588571Y-42784819D02*
X46779047Y-42784819D01*
X46779047Y-42784819D02*
X46874285Y-42737200D01*
X46874285Y-42737200D02*
X46921904Y-42689580D01*
X46921904Y-42689580D02*
X46969523Y-42594342D01*
X46969523Y-42594342D02*
X46969523Y-41784819D01*
X47921904Y-41784819D02*
X47445714Y-41784819D01*
X47445714Y-41784819D02*
X47398095Y-42261009D01*
X47398095Y-42261009D02*
X47445714Y-42213390D01*
X47445714Y-42213390D02*
X47540952Y-42165771D01*
X47540952Y-42165771D02*
X47779047Y-42165771D01*
X47779047Y-42165771D02*
X47874285Y-42213390D01*
X47874285Y-42213390D02*
X47921904Y-42261009D01*
X47921904Y-42261009D02*
X47969523Y-42356247D01*
X47969523Y-42356247D02*
X47969523Y-42594342D01*
X47969523Y-42594342D02*
X47921904Y-42689580D01*
X47921904Y-42689580D02*
X47874285Y-42737200D01*
X47874285Y-42737200D02*
X47779047Y-42784819D01*
X47779047Y-42784819D02*
X47540952Y-42784819D01*
X47540952Y-42784819D02*
X47445714Y-42737200D01*
X47445714Y-42737200D02*
X47398095Y-42689580D01*
X45650000Y-37774819D02*
X45650000Y-38012914D01*
X45411905Y-37917676D02*
X45650000Y-38012914D01*
X45650000Y-38012914D02*
X45888095Y-37917676D01*
X45507143Y-38203390D02*
X45650000Y-38012914D01*
X45650000Y-38012914D02*
X45792857Y-38203390D01*
X57318095Y-41804819D02*
X57318095Y-42614342D01*
X57318095Y-42614342D02*
X57365714Y-42709580D01*
X57365714Y-42709580D02*
X57413333Y-42757200D01*
X57413333Y-42757200D02*
X57508571Y-42804819D01*
X57508571Y-42804819D02*
X57699047Y-42804819D01*
X57699047Y-42804819D02*
X57794285Y-42757200D01*
X57794285Y-42757200D02*
X57841904Y-42709580D01*
X57841904Y-42709580D02*
X57889523Y-42614342D01*
X57889523Y-42614342D02*
X57889523Y-41804819D01*
X58270476Y-41804819D02*
X58937142Y-41804819D01*
X58937142Y-41804819D02*
X58508571Y-42804819D01*
X73801905Y-31054819D02*
X73801905Y-30054819D01*
X73801905Y-30054819D02*
X74040000Y-30054819D01*
X74040000Y-30054819D02*
X74182857Y-30102438D01*
X74182857Y-30102438D02*
X74278095Y-30197676D01*
X74278095Y-30197676D02*
X74325714Y-30292914D01*
X74325714Y-30292914D02*
X74373333Y-30483390D01*
X74373333Y-30483390D02*
X74373333Y-30626247D01*
X74373333Y-30626247D02*
X74325714Y-30816723D01*
X74325714Y-30816723D02*
X74278095Y-30911961D01*
X74278095Y-30911961D02*
X74182857Y-31007200D01*
X74182857Y-31007200D02*
X74040000Y-31054819D01*
X74040000Y-31054819D02*
X73801905Y-31054819D01*
X75230476Y-30388152D02*
X75230476Y-31054819D01*
X74992381Y-30007200D02*
X74754286Y-30721485D01*
X74754286Y-30721485D02*
X75373333Y-30721485D01*
X34197142Y-33519580D02*
X34149523Y-33567200D01*
X34149523Y-33567200D02*
X34006666Y-33614819D01*
X34006666Y-33614819D02*
X33911428Y-33614819D01*
X33911428Y-33614819D02*
X33768571Y-33567200D01*
X33768571Y-33567200D02*
X33673333Y-33471961D01*
X33673333Y-33471961D02*
X33625714Y-33376723D01*
X33625714Y-33376723D02*
X33578095Y-33186247D01*
X33578095Y-33186247D02*
X33578095Y-33043390D01*
X33578095Y-33043390D02*
X33625714Y-32852914D01*
X33625714Y-32852914D02*
X33673333Y-32757676D01*
X33673333Y-32757676D02*
X33768571Y-32662438D01*
X33768571Y-32662438D02*
X33911428Y-32614819D01*
X33911428Y-32614819D02*
X34006666Y-32614819D01*
X34006666Y-32614819D02*
X34149523Y-32662438D01*
X34149523Y-32662438D02*
X34197142Y-32710057D01*
X35149523Y-33614819D02*
X34578095Y-33614819D01*
X34863809Y-33614819D02*
X34863809Y-32614819D01*
X34863809Y-32614819D02*
X34768571Y-32757676D01*
X34768571Y-32757676D02*
X34673333Y-32852914D01*
X34673333Y-32852914D02*
X34578095Y-32900533D01*
X36054285Y-32614819D02*
X35578095Y-32614819D01*
X35578095Y-32614819D02*
X35530476Y-33091009D01*
X35530476Y-33091009D02*
X35578095Y-33043390D01*
X35578095Y-33043390D02*
X35673333Y-32995771D01*
X35673333Y-32995771D02*
X35911428Y-32995771D01*
X35911428Y-32995771D02*
X36006666Y-33043390D01*
X36006666Y-33043390D02*
X36054285Y-33091009D01*
X36054285Y-33091009D02*
X36101904Y-33186247D01*
X36101904Y-33186247D02*
X36101904Y-33424342D01*
X36101904Y-33424342D02*
X36054285Y-33519580D01*
X36054285Y-33519580D02*
X36006666Y-33567200D01*
X36006666Y-33567200D02*
X35911428Y-33614819D01*
X35911428Y-33614819D02*
X35673333Y-33614819D01*
X35673333Y-33614819D02*
X35578095Y-33567200D01*
X35578095Y-33567200D02*
X35530476Y-33519580D01*
X64649693Y-34538830D02*
X64649693Y-34606174D01*
X64649693Y-34606174D02*
X64582349Y-34740861D01*
X64582349Y-34740861D02*
X64515006Y-34808204D01*
X64515006Y-34808204D02*
X64380319Y-34875548D01*
X64380319Y-34875548D02*
X64245632Y-34875548D01*
X64245632Y-34875548D02*
X64144617Y-34841876D01*
X64144617Y-34841876D02*
X63976258Y-34740861D01*
X63976258Y-34740861D02*
X63875243Y-34639846D01*
X63875243Y-34639846D02*
X63774227Y-34471487D01*
X63774227Y-34471487D02*
X63740556Y-34370472D01*
X63740556Y-34370472D02*
X63740556Y-34235785D01*
X63740556Y-34235785D02*
X63807899Y-34101098D01*
X63807899Y-34101098D02*
X63875243Y-34033754D01*
X63875243Y-34033754D02*
X64009930Y-33966411D01*
X64009930Y-33966411D02*
X64077273Y-33966411D01*
X64346647Y-33697037D02*
X64346647Y-33629693D01*
X64346647Y-33629693D02*
X64380319Y-33528678D01*
X64380319Y-33528678D02*
X64548678Y-33360319D01*
X64548678Y-33360319D02*
X64649693Y-33326647D01*
X64649693Y-33326647D02*
X64717036Y-33326647D01*
X64717036Y-33326647D02*
X64818052Y-33360319D01*
X64818052Y-33360319D02*
X64885395Y-33427663D01*
X64885395Y-33427663D02*
X64952739Y-33562350D01*
X64952739Y-33562350D02*
X64952739Y-34370472D01*
X64952739Y-34370472D02*
X65390471Y-33932739D01*
X65323128Y-32585869D02*
X64986410Y-32922586D01*
X64986410Y-32922586D02*
X65289456Y-33292975D01*
X65289456Y-33292975D02*
X65289456Y-33225632D01*
X65289456Y-33225632D02*
X65323128Y-33124617D01*
X65323128Y-33124617D02*
X65491487Y-32956258D01*
X65491487Y-32956258D02*
X65592502Y-32922586D01*
X65592502Y-32922586D02*
X65659846Y-32922586D01*
X65659846Y-32922586D02*
X65760861Y-32956258D01*
X65760861Y-32956258D02*
X65929220Y-33124617D01*
X65929220Y-33124617D02*
X65962891Y-33225632D01*
X65962891Y-33225632D02*
X65962891Y-33292975D01*
X65962891Y-33292975D02*
X65929220Y-33393991D01*
X65929220Y-33393991D02*
X65760861Y-33562349D01*
X65760861Y-33562349D02*
X65659846Y-33596021D01*
X65659846Y-33596021D02*
X65592502Y-33596021D01*
X33647142Y-65474819D02*
X33313809Y-64998628D01*
X33075714Y-65474819D02*
X33075714Y-64474819D01*
X33075714Y-64474819D02*
X33456666Y-64474819D01*
X33456666Y-64474819D02*
X33551904Y-64522438D01*
X33551904Y-64522438D02*
X33599523Y-64570057D01*
X33599523Y-64570057D02*
X33647142Y-64665295D01*
X33647142Y-64665295D02*
X33647142Y-64808152D01*
X33647142Y-64808152D02*
X33599523Y-64903390D01*
X33599523Y-64903390D02*
X33551904Y-64951009D01*
X33551904Y-64951009D02*
X33456666Y-64998628D01*
X33456666Y-64998628D02*
X33075714Y-64998628D01*
X34599523Y-65474819D02*
X34028095Y-65474819D01*
X34313809Y-65474819D02*
X34313809Y-64474819D01*
X34313809Y-64474819D02*
X34218571Y-64617676D01*
X34218571Y-64617676D02*
X34123333Y-64712914D01*
X34123333Y-64712914D02*
X34028095Y-64760533D01*
X34980476Y-64570057D02*
X35028095Y-64522438D01*
X35028095Y-64522438D02*
X35123333Y-64474819D01*
X35123333Y-64474819D02*
X35361428Y-64474819D01*
X35361428Y-64474819D02*
X35456666Y-64522438D01*
X35456666Y-64522438D02*
X35504285Y-64570057D01*
X35504285Y-64570057D02*
X35551904Y-64665295D01*
X35551904Y-64665295D02*
X35551904Y-64760533D01*
X35551904Y-64760533D02*
X35504285Y-64903390D01*
X35504285Y-64903390D02*
X34932857Y-65474819D01*
X34932857Y-65474819D02*
X35551904Y-65474819D01*
X42373333Y-57454819D02*
X42040000Y-56978628D01*
X41801905Y-57454819D02*
X41801905Y-56454819D01*
X41801905Y-56454819D02*
X42182857Y-56454819D01*
X42182857Y-56454819D02*
X42278095Y-56502438D01*
X42278095Y-56502438D02*
X42325714Y-56550057D01*
X42325714Y-56550057D02*
X42373333Y-56645295D01*
X42373333Y-56645295D02*
X42373333Y-56788152D01*
X42373333Y-56788152D02*
X42325714Y-56883390D01*
X42325714Y-56883390D02*
X42278095Y-56931009D01*
X42278095Y-56931009D02*
X42182857Y-56978628D01*
X42182857Y-56978628D02*
X41801905Y-56978628D01*
X43230476Y-56454819D02*
X43040000Y-56454819D01*
X43040000Y-56454819D02*
X42944762Y-56502438D01*
X42944762Y-56502438D02*
X42897143Y-56550057D01*
X42897143Y-56550057D02*
X42801905Y-56692914D01*
X42801905Y-56692914D02*
X42754286Y-56883390D01*
X42754286Y-56883390D02*
X42754286Y-57264342D01*
X42754286Y-57264342D02*
X42801905Y-57359580D01*
X42801905Y-57359580D02*
X42849524Y-57407200D01*
X42849524Y-57407200D02*
X42944762Y-57454819D01*
X42944762Y-57454819D02*
X43135238Y-57454819D01*
X43135238Y-57454819D02*
X43230476Y-57407200D01*
X43230476Y-57407200D02*
X43278095Y-57359580D01*
X43278095Y-57359580D02*
X43325714Y-57264342D01*
X43325714Y-57264342D02*
X43325714Y-57026247D01*
X43325714Y-57026247D02*
X43278095Y-56931009D01*
X43278095Y-56931009D02*
X43230476Y-56883390D01*
X43230476Y-56883390D02*
X43135238Y-56835771D01*
X43135238Y-56835771D02*
X42944762Y-56835771D01*
X42944762Y-56835771D02*
X42849524Y-56883390D01*
X42849524Y-56883390D02*
X42801905Y-56931009D01*
X42801905Y-56931009D02*
X42754286Y-57026247D01*
X40228095Y-49944819D02*
X40228095Y-50754342D01*
X40228095Y-50754342D02*
X40275714Y-50849580D01*
X40275714Y-50849580D02*
X40323333Y-50897200D01*
X40323333Y-50897200D02*
X40418571Y-50944819D01*
X40418571Y-50944819D02*
X40609047Y-50944819D01*
X40609047Y-50944819D02*
X40704285Y-50897200D01*
X40704285Y-50897200D02*
X40751904Y-50849580D01*
X40751904Y-50849580D02*
X40799523Y-50754342D01*
X40799523Y-50754342D02*
X40799523Y-49944819D01*
X41180476Y-49944819D02*
X41799523Y-49944819D01*
X41799523Y-49944819D02*
X41466190Y-50325771D01*
X41466190Y-50325771D02*
X41609047Y-50325771D01*
X41609047Y-50325771D02*
X41704285Y-50373390D01*
X41704285Y-50373390D02*
X41751904Y-50421009D01*
X41751904Y-50421009D02*
X41799523Y-50516247D01*
X41799523Y-50516247D02*
X41799523Y-50754342D01*
X41799523Y-50754342D02*
X41751904Y-50849580D01*
X41751904Y-50849580D02*
X41704285Y-50897200D01*
X41704285Y-50897200D02*
X41609047Y-50944819D01*
X41609047Y-50944819D02*
X41323333Y-50944819D01*
X41323333Y-50944819D02*
X41228095Y-50897200D01*
X41228095Y-50897200D02*
X41180476Y-50849580D01*
X61678783Y-47899898D02*
X61631164Y-47947518D01*
X61631164Y-47947518D02*
X61488307Y-47995137D01*
X61488307Y-47995137D02*
X61393069Y-47995137D01*
X61393069Y-47995137D02*
X61250212Y-47947518D01*
X61250212Y-47947518D02*
X61154974Y-47852279D01*
X61154974Y-47852279D02*
X61107355Y-47757041D01*
X61107355Y-47757041D02*
X61059736Y-47566565D01*
X61059736Y-47566565D02*
X61059736Y-47423708D01*
X61059736Y-47423708D02*
X61107355Y-47233232D01*
X61107355Y-47233232D02*
X61154974Y-47137994D01*
X61154974Y-47137994D02*
X61250212Y-47042756D01*
X61250212Y-47042756D02*
X61393069Y-46995137D01*
X61393069Y-46995137D02*
X61488307Y-46995137D01*
X61488307Y-46995137D02*
X61631164Y-47042756D01*
X61631164Y-47042756D02*
X61678783Y-47090375D01*
X62012117Y-46995137D02*
X62678783Y-46995137D01*
X62678783Y-46995137D02*
X62250212Y-47995137D01*
X61438334Y-45025137D02*
X61105001Y-44548946D01*
X60866906Y-45025137D02*
X60866906Y-44025137D01*
X60866906Y-44025137D02*
X61247858Y-44025137D01*
X61247858Y-44025137D02*
X61343096Y-44072756D01*
X61343096Y-44072756D02*
X61390715Y-44120375D01*
X61390715Y-44120375D02*
X61438334Y-44215613D01*
X61438334Y-44215613D02*
X61438334Y-44358470D01*
X61438334Y-44358470D02*
X61390715Y-44453708D01*
X61390715Y-44453708D02*
X61343096Y-44501327D01*
X61343096Y-44501327D02*
X61247858Y-44548946D01*
X61247858Y-44548946D02*
X60866906Y-44548946D01*
X62390715Y-45025137D02*
X61819287Y-45025137D01*
X62105001Y-45025137D02*
X62105001Y-44025137D01*
X62105001Y-44025137D02*
X62009763Y-44167994D01*
X62009763Y-44167994D02*
X61914525Y-44263232D01*
X61914525Y-44263232D02*
X61819287Y-44310851D01*
X49327142Y-42499580D02*
X49279523Y-42547200D01*
X49279523Y-42547200D02*
X49136666Y-42594819D01*
X49136666Y-42594819D02*
X49041428Y-42594819D01*
X49041428Y-42594819D02*
X48898571Y-42547200D01*
X48898571Y-42547200D02*
X48803333Y-42451961D01*
X48803333Y-42451961D02*
X48755714Y-42356723D01*
X48755714Y-42356723D02*
X48708095Y-42166247D01*
X48708095Y-42166247D02*
X48708095Y-42023390D01*
X48708095Y-42023390D02*
X48755714Y-41832914D01*
X48755714Y-41832914D02*
X48803333Y-41737676D01*
X48803333Y-41737676D02*
X48898571Y-41642438D01*
X48898571Y-41642438D02*
X49041428Y-41594819D01*
X49041428Y-41594819D02*
X49136666Y-41594819D01*
X49136666Y-41594819D02*
X49279523Y-41642438D01*
X49279523Y-41642438D02*
X49327142Y-41690057D01*
X50279523Y-42594819D02*
X49708095Y-42594819D01*
X49993809Y-42594819D02*
X49993809Y-41594819D01*
X49993809Y-41594819D02*
X49898571Y-41737676D01*
X49898571Y-41737676D02*
X49803333Y-41832914D01*
X49803333Y-41832914D02*
X49708095Y-41880533D01*
X51136666Y-41928152D02*
X51136666Y-42594819D01*
X50898571Y-41547200D02*
X50660476Y-42261485D01*
X50660476Y-42261485D02*
X51279523Y-42261485D01*
X48047142Y-64854819D02*
X47713809Y-64378628D01*
X47475714Y-64854819D02*
X47475714Y-63854819D01*
X47475714Y-63854819D02*
X47856666Y-63854819D01*
X47856666Y-63854819D02*
X47951904Y-63902438D01*
X47951904Y-63902438D02*
X47999523Y-63950057D01*
X47999523Y-63950057D02*
X48047142Y-64045295D01*
X48047142Y-64045295D02*
X48047142Y-64188152D01*
X48047142Y-64188152D02*
X47999523Y-64283390D01*
X47999523Y-64283390D02*
X47951904Y-64331009D01*
X47951904Y-64331009D02*
X47856666Y-64378628D01*
X47856666Y-64378628D02*
X47475714Y-64378628D01*
X48999523Y-64854819D02*
X48428095Y-64854819D01*
X48713809Y-64854819D02*
X48713809Y-63854819D01*
X48713809Y-63854819D02*
X48618571Y-63997676D01*
X48618571Y-63997676D02*
X48523333Y-64092914D01*
X48523333Y-64092914D02*
X48428095Y-64140533D01*
X49951904Y-64854819D02*
X49380476Y-64854819D01*
X49666190Y-64854819D02*
X49666190Y-63854819D01*
X49666190Y-63854819D02*
X49570952Y-63997676D01*
X49570952Y-63997676D02*
X49475714Y-64092914D01*
X49475714Y-64092914D02*
X49380476Y-64140533D01*
X32337142Y-41124819D02*
X32003809Y-40648628D01*
X31765714Y-41124819D02*
X31765714Y-40124819D01*
X31765714Y-40124819D02*
X32146666Y-40124819D01*
X32146666Y-40124819D02*
X32241904Y-40172438D01*
X32241904Y-40172438D02*
X32289523Y-40220057D01*
X32289523Y-40220057D02*
X32337142Y-40315295D01*
X32337142Y-40315295D02*
X32337142Y-40458152D01*
X32337142Y-40458152D02*
X32289523Y-40553390D01*
X32289523Y-40553390D02*
X32241904Y-40601009D01*
X32241904Y-40601009D02*
X32146666Y-40648628D01*
X32146666Y-40648628D02*
X31765714Y-40648628D01*
X33289523Y-41124819D02*
X32718095Y-41124819D01*
X33003809Y-41124819D02*
X33003809Y-40124819D01*
X33003809Y-40124819D02*
X32908571Y-40267676D01*
X32908571Y-40267676D02*
X32813333Y-40362914D01*
X32813333Y-40362914D02*
X32718095Y-40410533D01*
X34146666Y-40458152D02*
X34146666Y-41124819D01*
X33908571Y-40077200D02*
X33670476Y-40791485D01*
X33670476Y-40791485D02*
X34289523Y-40791485D01*
X39357142Y-72734819D02*
X39023809Y-72258628D01*
X38785714Y-72734819D02*
X38785714Y-71734819D01*
X38785714Y-71734819D02*
X39166666Y-71734819D01*
X39166666Y-71734819D02*
X39261904Y-71782438D01*
X39261904Y-71782438D02*
X39309523Y-71830057D01*
X39309523Y-71830057D02*
X39357142Y-71925295D01*
X39357142Y-71925295D02*
X39357142Y-72068152D01*
X39357142Y-72068152D02*
X39309523Y-72163390D01*
X39309523Y-72163390D02*
X39261904Y-72211009D01*
X39261904Y-72211009D02*
X39166666Y-72258628D01*
X39166666Y-72258628D02*
X38785714Y-72258628D01*
X40309523Y-72734819D02*
X39738095Y-72734819D01*
X40023809Y-72734819D02*
X40023809Y-71734819D01*
X40023809Y-71734819D02*
X39928571Y-71877676D01*
X39928571Y-71877676D02*
X39833333Y-71972914D01*
X39833333Y-71972914D02*
X39738095Y-72020533D01*
X40642857Y-71734819D02*
X41261904Y-71734819D01*
X41261904Y-71734819D02*
X40928571Y-72115771D01*
X40928571Y-72115771D02*
X41071428Y-72115771D01*
X41071428Y-72115771D02*
X41166666Y-72163390D01*
X41166666Y-72163390D02*
X41214285Y-72211009D01*
X41214285Y-72211009D02*
X41261904Y-72306247D01*
X41261904Y-72306247D02*
X41261904Y-72544342D01*
X41261904Y-72544342D02*
X41214285Y-72639580D01*
X41214285Y-72639580D02*
X41166666Y-72687200D01*
X41166666Y-72687200D02*
X41071428Y-72734819D01*
X41071428Y-72734819D02*
X40785714Y-72734819D01*
X40785714Y-72734819D02*
X40690476Y-72687200D01*
X40690476Y-72687200D02*
X40642857Y-72639580D01*
X46611905Y-33144819D02*
X46611905Y-32144819D01*
X46611905Y-32144819D02*
X46850000Y-32144819D01*
X46850000Y-32144819D02*
X46992857Y-32192438D01*
X46992857Y-32192438D02*
X47088095Y-32287676D01*
X47088095Y-32287676D02*
X47135714Y-32382914D01*
X47135714Y-32382914D02*
X47183333Y-32573390D01*
X47183333Y-32573390D02*
X47183333Y-32716247D01*
X47183333Y-32716247D02*
X47135714Y-32906723D01*
X47135714Y-32906723D02*
X47088095Y-33001961D01*
X47088095Y-33001961D02*
X46992857Y-33097200D01*
X46992857Y-33097200D02*
X46850000Y-33144819D01*
X46850000Y-33144819D02*
X46611905Y-33144819D01*
X47564286Y-32240057D02*
X47611905Y-32192438D01*
X47611905Y-32192438D02*
X47707143Y-32144819D01*
X47707143Y-32144819D02*
X47945238Y-32144819D01*
X47945238Y-32144819D02*
X48040476Y-32192438D01*
X48040476Y-32192438D02*
X48088095Y-32240057D01*
X48088095Y-32240057D02*
X48135714Y-32335295D01*
X48135714Y-32335295D02*
X48135714Y-32430533D01*
X48135714Y-32430533D02*
X48088095Y-32573390D01*
X48088095Y-32573390D02*
X47516667Y-33144819D01*
X47516667Y-33144819D02*
X48135714Y-33144819D01*
X42411905Y-33784818D02*
X42411905Y-32784818D01*
X42411905Y-32784818D02*
X42650000Y-32784818D01*
X42650000Y-32784818D02*
X42792857Y-32832437D01*
X42792857Y-32832437D02*
X42888095Y-32927675D01*
X42888095Y-32927675D02*
X42935714Y-33022913D01*
X42935714Y-33022913D02*
X42983333Y-33213389D01*
X42983333Y-33213389D02*
X42983333Y-33356246D01*
X42983333Y-33356246D02*
X42935714Y-33546722D01*
X42935714Y-33546722D02*
X42888095Y-33641960D01*
X42888095Y-33641960D02*
X42792857Y-33737199D01*
X42792857Y-33737199D02*
X42650000Y-33784818D01*
X42650000Y-33784818D02*
X42411905Y-33784818D01*
X43888095Y-32784818D02*
X43411905Y-32784818D01*
X43411905Y-32784818D02*
X43364286Y-33261008D01*
X43364286Y-33261008D02*
X43411905Y-33213389D01*
X43411905Y-33213389D02*
X43507143Y-33165770D01*
X43507143Y-33165770D02*
X43745238Y-33165770D01*
X43745238Y-33165770D02*
X43840476Y-33213389D01*
X43840476Y-33213389D02*
X43888095Y-33261008D01*
X43888095Y-33261008D02*
X43935714Y-33356246D01*
X43935714Y-33356246D02*
X43935714Y-33594341D01*
X43935714Y-33594341D02*
X43888095Y-33689579D01*
X43888095Y-33689579D02*
X43840476Y-33737199D01*
X43840476Y-33737199D02*
X43745238Y-33784818D01*
X43745238Y-33784818D02*
X43507143Y-33784818D01*
X43507143Y-33784818D02*
X43411905Y-33737199D01*
X43411905Y-33737199D02*
X43364286Y-33689579D01*
X63019693Y-34208830D02*
X63019693Y-34276174D01*
X63019693Y-34276174D02*
X62952349Y-34410861D01*
X62952349Y-34410861D02*
X62885006Y-34478204D01*
X62885006Y-34478204D02*
X62750319Y-34545548D01*
X62750319Y-34545548D02*
X62615632Y-34545548D01*
X62615632Y-34545548D02*
X62514617Y-34511876D01*
X62514617Y-34511876D02*
X62346258Y-34410861D01*
X62346258Y-34410861D02*
X62245243Y-34309846D01*
X62245243Y-34309846D02*
X62144227Y-34141487D01*
X62144227Y-34141487D02*
X62110556Y-34040472D01*
X62110556Y-34040472D02*
X62110556Y-33905785D01*
X62110556Y-33905785D02*
X62177899Y-33771098D01*
X62177899Y-33771098D02*
X62245243Y-33703754D01*
X62245243Y-33703754D02*
X62379930Y-33636411D01*
X62379930Y-33636411D02*
X62447273Y-33636411D01*
X62716647Y-33367037D02*
X62716647Y-33299693D01*
X62716647Y-33299693D02*
X62750319Y-33198678D01*
X62750319Y-33198678D02*
X62918678Y-33030319D01*
X62918678Y-33030319D02*
X63019693Y-32996647D01*
X63019693Y-32996647D02*
X63087036Y-32996647D01*
X63087036Y-32996647D02*
X63188052Y-33030319D01*
X63188052Y-33030319D02*
X63255395Y-33097663D01*
X63255395Y-33097663D02*
X63322739Y-33232350D01*
X63322739Y-33232350D02*
X63322739Y-34040472D01*
X63322739Y-34040472D02*
X63760471Y-33602739D01*
X63289067Y-32659930D02*
X63726800Y-32222197D01*
X63726800Y-32222197D02*
X63760472Y-32727273D01*
X63760472Y-32727273D02*
X63861487Y-32626258D01*
X63861487Y-32626258D02*
X63962502Y-32592586D01*
X63962502Y-32592586D02*
X64029846Y-32592586D01*
X64029846Y-32592586D02*
X64130861Y-32626258D01*
X64130861Y-32626258D02*
X64299220Y-32794617D01*
X64299220Y-32794617D02*
X64332891Y-32895632D01*
X64332891Y-32895632D02*
X64332891Y-32962975D01*
X64332891Y-32962975D02*
X64299220Y-33063991D01*
X64299220Y-33063991D02*
X64097189Y-33266021D01*
X64097189Y-33266021D02*
X63996174Y-33299693D01*
X63996174Y-33299693D02*
X63928830Y-33299693D01*
X79851905Y-57806070D02*
X79851905Y-56806070D01*
X79851905Y-56806070D02*
X80090000Y-56806070D01*
X80090000Y-56806070D02*
X80232857Y-56853689D01*
X80232857Y-56853689D02*
X80328095Y-56948927D01*
X80328095Y-56948927D02*
X80375714Y-57044165D01*
X80375714Y-57044165D02*
X80423333Y-57234641D01*
X80423333Y-57234641D02*
X80423333Y-57377498D01*
X80423333Y-57377498D02*
X80375714Y-57567974D01*
X80375714Y-57567974D02*
X80328095Y-57663212D01*
X80328095Y-57663212D02*
X80232857Y-57758451D01*
X80232857Y-57758451D02*
X80090000Y-57806070D01*
X80090000Y-57806070D02*
X79851905Y-57806070D01*
X80756667Y-56806070D02*
X81375714Y-56806070D01*
X81375714Y-56806070D02*
X81042381Y-57187022D01*
X81042381Y-57187022D02*
X81185238Y-57187022D01*
X81185238Y-57187022D02*
X81280476Y-57234641D01*
X81280476Y-57234641D02*
X81328095Y-57282260D01*
X81328095Y-57282260D02*
X81375714Y-57377498D01*
X81375714Y-57377498D02*
X81375714Y-57615593D01*
X81375714Y-57615593D02*
X81328095Y-57710831D01*
X81328095Y-57710831D02*
X81280476Y-57758451D01*
X81280476Y-57758451D02*
X81185238Y-57806070D01*
X81185238Y-57806070D02*
X80899524Y-57806070D01*
X80899524Y-57806070D02*
X80804286Y-57758451D01*
X80804286Y-57758451D02*
X80756667Y-57710831D01*
X44563333Y-57544819D02*
X44230000Y-57068628D01*
X43991905Y-57544819D02*
X43991905Y-56544819D01*
X43991905Y-56544819D02*
X44372857Y-56544819D01*
X44372857Y-56544819D02*
X44468095Y-56592438D01*
X44468095Y-56592438D02*
X44515714Y-56640057D01*
X44515714Y-56640057D02*
X44563333Y-56735295D01*
X44563333Y-56735295D02*
X44563333Y-56878152D01*
X44563333Y-56878152D02*
X44515714Y-56973390D01*
X44515714Y-56973390D02*
X44468095Y-57021009D01*
X44468095Y-57021009D02*
X44372857Y-57068628D01*
X44372857Y-57068628D02*
X43991905Y-57068628D01*
X45134762Y-56973390D02*
X45039524Y-56925771D01*
X45039524Y-56925771D02*
X44991905Y-56878152D01*
X44991905Y-56878152D02*
X44944286Y-56782914D01*
X44944286Y-56782914D02*
X44944286Y-56735295D01*
X44944286Y-56735295D02*
X44991905Y-56640057D01*
X44991905Y-56640057D02*
X45039524Y-56592438D01*
X45039524Y-56592438D02*
X45134762Y-56544819D01*
X45134762Y-56544819D02*
X45325238Y-56544819D01*
X45325238Y-56544819D02*
X45420476Y-56592438D01*
X45420476Y-56592438D02*
X45468095Y-56640057D01*
X45468095Y-56640057D02*
X45515714Y-56735295D01*
X45515714Y-56735295D02*
X45515714Y-56782914D01*
X45515714Y-56782914D02*
X45468095Y-56878152D01*
X45468095Y-56878152D02*
X45420476Y-56925771D01*
X45420476Y-56925771D02*
X45325238Y-56973390D01*
X45325238Y-56973390D02*
X45134762Y-56973390D01*
X45134762Y-56973390D02*
X45039524Y-57021009D01*
X45039524Y-57021009D02*
X44991905Y-57068628D01*
X44991905Y-57068628D02*
X44944286Y-57163866D01*
X44944286Y-57163866D02*
X44944286Y-57354342D01*
X44944286Y-57354342D02*
X44991905Y-57449580D01*
X44991905Y-57449580D02*
X45039524Y-57497200D01*
X45039524Y-57497200D02*
X45134762Y-57544819D01*
X45134762Y-57544819D02*
X45325238Y-57544819D01*
X45325238Y-57544819D02*
X45420476Y-57497200D01*
X45420476Y-57497200D02*
X45468095Y-57449580D01*
X45468095Y-57449580D02*
X45515714Y-57354342D01*
X45515714Y-57354342D02*
X45515714Y-57163866D01*
X45515714Y-57163866D02*
X45468095Y-57068628D01*
X45468095Y-57068628D02*
X45420476Y-57021009D01*
X45420476Y-57021009D02*
X45325238Y-56973390D01*
X38537142Y-69879580D02*
X38489523Y-69927200D01*
X38489523Y-69927200D02*
X38346666Y-69974819D01*
X38346666Y-69974819D02*
X38251428Y-69974819D01*
X38251428Y-69974819D02*
X38108571Y-69927200D01*
X38108571Y-69927200D02*
X38013333Y-69831961D01*
X38013333Y-69831961D02*
X37965714Y-69736723D01*
X37965714Y-69736723D02*
X37918095Y-69546247D01*
X37918095Y-69546247D02*
X37918095Y-69403390D01*
X37918095Y-69403390D02*
X37965714Y-69212914D01*
X37965714Y-69212914D02*
X38013333Y-69117676D01*
X38013333Y-69117676D02*
X38108571Y-69022438D01*
X38108571Y-69022438D02*
X38251428Y-68974819D01*
X38251428Y-68974819D02*
X38346666Y-68974819D01*
X38346666Y-68974819D02*
X38489523Y-69022438D01*
X38489523Y-69022438D02*
X38537142Y-69070057D01*
X39489523Y-69974819D02*
X38918095Y-69974819D01*
X39203809Y-69974819D02*
X39203809Y-68974819D01*
X39203809Y-68974819D02*
X39108571Y-69117676D01*
X39108571Y-69117676D02*
X39013333Y-69212914D01*
X39013333Y-69212914D02*
X38918095Y-69260533D01*
X39965714Y-69974819D02*
X40156190Y-69974819D01*
X40156190Y-69974819D02*
X40251428Y-69927200D01*
X40251428Y-69927200D02*
X40299047Y-69879580D01*
X40299047Y-69879580D02*
X40394285Y-69736723D01*
X40394285Y-69736723D02*
X40441904Y-69546247D01*
X40441904Y-69546247D02*
X40441904Y-69165295D01*
X40441904Y-69165295D02*
X40394285Y-69070057D01*
X40394285Y-69070057D02*
X40346666Y-69022438D01*
X40346666Y-69022438D02*
X40251428Y-68974819D01*
X40251428Y-68974819D02*
X40060952Y-68974819D01*
X40060952Y-68974819D02*
X39965714Y-69022438D01*
X39965714Y-69022438D02*
X39918095Y-69070057D01*
X39918095Y-69070057D02*
X39870476Y-69165295D01*
X39870476Y-69165295D02*
X39870476Y-69403390D01*
X39870476Y-69403390D02*
X39918095Y-69498628D01*
X39918095Y-69498628D02*
X39965714Y-69546247D01*
X39965714Y-69546247D02*
X40060952Y-69593866D01*
X40060952Y-69593866D02*
X40251428Y-69593866D01*
X40251428Y-69593866D02*
X40346666Y-69546247D01*
X40346666Y-69546247D02*
X40394285Y-69498628D01*
X40394285Y-69498628D02*
X40441904Y-69403390D01*
X75785180Y-69418095D02*
X74975657Y-69418095D01*
X74975657Y-69418095D02*
X74880419Y-69465714D01*
X74880419Y-69465714D02*
X74832800Y-69513333D01*
X74832800Y-69513333D02*
X74785180Y-69608571D01*
X74785180Y-69608571D02*
X74785180Y-69799047D01*
X74785180Y-69799047D02*
X74832800Y-69894285D01*
X74832800Y-69894285D02*
X74880419Y-69941904D01*
X74880419Y-69941904D02*
X74975657Y-69989523D01*
X74975657Y-69989523D02*
X75785180Y-69989523D01*
X74785180Y-70513333D02*
X74785180Y-70703809D01*
X74785180Y-70703809D02*
X74832800Y-70799047D01*
X74832800Y-70799047D02*
X74880419Y-70846666D01*
X74880419Y-70846666D02*
X75023276Y-70941904D01*
X75023276Y-70941904D02*
X75213752Y-70989523D01*
X75213752Y-70989523D02*
X75594704Y-70989523D01*
X75594704Y-70989523D02*
X75689942Y-70941904D01*
X75689942Y-70941904D02*
X75737561Y-70894285D01*
X75737561Y-70894285D02*
X75785180Y-70799047D01*
X75785180Y-70799047D02*
X75785180Y-70608571D01*
X75785180Y-70608571D02*
X75737561Y-70513333D01*
X75737561Y-70513333D02*
X75689942Y-70465714D01*
X75689942Y-70465714D02*
X75594704Y-70418095D01*
X75594704Y-70418095D02*
X75356609Y-70418095D01*
X75356609Y-70418095D02*
X75261371Y-70465714D01*
X75261371Y-70465714D02*
X75213752Y-70513333D01*
X75213752Y-70513333D02*
X75166133Y-70608571D01*
X75166133Y-70608571D02*
X75166133Y-70799047D01*
X75166133Y-70799047D02*
X75213752Y-70894285D01*
X75213752Y-70894285D02*
X75261371Y-70941904D01*
X75261371Y-70941904D02*
X75356609Y-70989523D01*
X67920000Y-63924819D02*
X67920000Y-64162914D01*
X67681905Y-64067676D02*
X67920000Y-64162914D01*
X67920000Y-64162914D02*
X68158095Y-64067676D01*
X67777143Y-64353390D02*
X67920000Y-64162914D01*
X67920000Y-64162914D02*
X68062857Y-64353390D01*
X77667142Y-62889580D02*
X77619523Y-62937200D01*
X77619523Y-62937200D02*
X77476666Y-62984819D01*
X77476666Y-62984819D02*
X77381428Y-62984819D01*
X77381428Y-62984819D02*
X77238571Y-62937200D01*
X77238571Y-62937200D02*
X77143333Y-62841961D01*
X77143333Y-62841961D02*
X77095714Y-62746723D01*
X77095714Y-62746723D02*
X77048095Y-62556247D01*
X77048095Y-62556247D02*
X77048095Y-62413390D01*
X77048095Y-62413390D02*
X77095714Y-62222914D01*
X77095714Y-62222914D02*
X77143333Y-62127676D01*
X77143333Y-62127676D02*
X77238571Y-62032438D01*
X77238571Y-62032438D02*
X77381428Y-61984819D01*
X77381428Y-61984819D02*
X77476666Y-61984819D01*
X77476666Y-61984819D02*
X77619523Y-62032438D01*
X77619523Y-62032438D02*
X77667142Y-62080057D01*
X78048095Y-62080057D02*
X78095714Y-62032438D01*
X78095714Y-62032438D02*
X78190952Y-61984819D01*
X78190952Y-61984819D02*
X78429047Y-61984819D01*
X78429047Y-61984819D02*
X78524285Y-62032438D01*
X78524285Y-62032438D02*
X78571904Y-62080057D01*
X78571904Y-62080057D02*
X78619523Y-62175295D01*
X78619523Y-62175295D02*
X78619523Y-62270533D01*
X78619523Y-62270533D02*
X78571904Y-62413390D01*
X78571904Y-62413390D02*
X78000476Y-62984819D01*
X78000476Y-62984819D02*
X78619523Y-62984819D01*
X79238571Y-61984819D02*
X79333809Y-61984819D01*
X79333809Y-61984819D02*
X79429047Y-62032438D01*
X79429047Y-62032438D02*
X79476666Y-62080057D01*
X79476666Y-62080057D02*
X79524285Y-62175295D01*
X79524285Y-62175295D02*
X79571904Y-62365771D01*
X79571904Y-62365771D02*
X79571904Y-62603866D01*
X79571904Y-62603866D02*
X79524285Y-62794342D01*
X79524285Y-62794342D02*
X79476666Y-62889580D01*
X79476666Y-62889580D02*
X79429047Y-62937200D01*
X79429047Y-62937200D02*
X79333809Y-62984819D01*
X79333809Y-62984819D02*
X79238571Y-62984819D01*
X79238571Y-62984819D02*
X79143333Y-62937200D01*
X79143333Y-62937200D02*
X79095714Y-62889580D01*
X79095714Y-62889580D02*
X79048095Y-62794342D01*
X79048095Y-62794342D02*
X79000476Y-62603866D01*
X79000476Y-62603866D02*
X79000476Y-62365771D01*
X79000476Y-62365771D02*
X79048095Y-62175295D01*
X79048095Y-62175295D02*
X79095714Y-62080057D01*
X79095714Y-62080057D02*
X79143333Y-62032438D01*
X79143333Y-62032438D02*
X79238571Y-61984819D01*
X43277142Y-38439580D02*
X43229523Y-38487200D01*
X43229523Y-38487200D02*
X43086666Y-38534819D01*
X43086666Y-38534819D02*
X42991428Y-38534819D01*
X42991428Y-38534819D02*
X42848571Y-38487200D01*
X42848571Y-38487200D02*
X42753333Y-38391961D01*
X42753333Y-38391961D02*
X42705714Y-38296723D01*
X42705714Y-38296723D02*
X42658095Y-38106247D01*
X42658095Y-38106247D02*
X42658095Y-37963390D01*
X42658095Y-37963390D02*
X42705714Y-37772914D01*
X42705714Y-37772914D02*
X42753333Y-37677676D01*
X42753333Y-37677676D02*
X42848571Y-37582438D01*
X42848571Y-37582438D02*
X42991428Y-37534819D01*
X42991428Y-37534819D02*
X43086666Y-37534819D01*
X43086666Y-37534819D02*
X43229523Y-37582438D01*
X43229523Y-37582438D02*
X43277142Y-37630057D01*
X44229523Y-38534819D02*
X43658095Y-38534819D01*
X43943809Y-38534819D02*
X43943809Y-37534819D01*
X43943809Y-37534819D02*
X43848571Y-37677676D01*
X43848571Y-37677676D02*
X43753333Y-37772914D01*
X43753333Y-37772914D02*
X43658095Y-37820533D01*
X44610476Y-37630057D02*
X44658095Y-37582438D01*
X44658095Y-37582438D02*
X44753333Y-37534819D01*
X44753333Y-37534819D02*
X44991428Y-37534819D01*
X44991428Y-37534819D02*
X45086666Y-37582438D01*
X45086666Y-37582438D02*
X45134285Y-37630057D01*
X45134285Y-37630057D02*
X45181904Y-37725295D01*
X45181904Y-37725295D02*
X45181904Y-37820533D01*
X45181904Y-37820533D02*
X45134285Y-37963390D01*
X45134285Y-37963390D02*
X44562857Y-38534819D01*
X44562857Y-38534819D02*
X45181904Y-38534819D01*
X49604761Y-49530057D02*
X49509523Y-49482438D01*
X49509523Y-49482438D02*
X49414285Y-49387200D01*
X49414285Y-49387200D02*
X49271428Y-49244342D01*
X49271428Y-49244342D02*
X49176190Y-49196723D01*
X49176190Y-49196723D02*
X49080952Y-49196723D01*
X49128571Y-49434819D02*
X49033333Y-49387200D01*
X49033333Y-49387200D02*
X48938095Y-49291961D01*
X48938095Y-49291961D02*
X48890476Y-49101485D01*
X48890476Y-49101485D02*
X48890476Y-48768152D01*
X48890476Y-48768152D02*
X48938095Y-48577676D01*
X48938095Y-48577676D02*
X49033333Y-48482438D01*
X49033333Y-48482438D02*
X49128571Y-48434819D01*
X49128571Y-48434819D02*
X49319047Y-48434819D01*
X49319047Y-48434819D02*
X49414285Y-48482438D01*
X49414285Y-48482438D02*
X49509523Y-48577676D01*
X49509523Y-48577676D02*
X49557142Y-48768152D01*
X49557142Y-48768152D02*
X49557142Y-49101485D01*
X49557142Y-49101485D02*
X49509523Y-49291961D01*
X49509523Y-49291961D02*
X49414285Y-49387200D01*
X49414285Y-49387200D02*
X49319047Y-49434819D01*
X49319047Y-49434819D02*
X49128571Y-49434819D01*
X50509523Y-49434819D02*
X49938095Y-49434819D01*
X50223809Y-49434819D02*
X50223809Y-48434819D01*
X50223809Y-48434819D02*
X50128571Y-48577676D01*
X50128571Y-48577676D02*
X50033333Y-48672914D01*
X50033333Y-48672914D02*
X49938095Y-48720533D01*
X42687142Y-37104818D02*
X42353809Y-36628627D01*
X42115714Y-37104818D02*
X42115714Y-36104818D01*
X42115714Y-36104818D02*
X42496666Y-36104818D01*
X42496666Y-36104818D02*
X42591904Y-36152437D01*
X42591904Y-36152437D02*
X42639523Y-36200056D01*
X42639523Y-36200056D02*
X42687142Y-36295294D01*
X42687142Y-36295294D02*
X42687142Y-36438151D01*
X42687142Y-36438151D02*
X42639523Y-36533389D01*
X42639523Y-36533389D02*
X42591904Y-36581008D01*
X42591904Y-36581008D02*
X42496666Y-36628627D01*
X42496666Y-36628627D02*
X42115714Y-36628627D01*
X43639523Y-37104818D02*
X43068095Y-37104818D01*
X43353809Y-37104818D02*
X43353809Y-36104818D01*
X43353809Y-36104818D02*
X43258571Y-36247675D01*
X43258571Y-36247675D02*
X43163333Y-36342913D01*
X43163333Y-36342913D02*
X43068095Y-36390532D01*
X44115714Y-37104818D02*
X44306190Y-37104818D01*
X44306190Y-37104818D02*
X44401428Y-37057199D01*
X44401428Y-37057199D02*
X44449047Y-37009579D01*
X44449047Y-37009579D02*
X44544285Y-36866722D01*
X44544285Y-36866722D02*
X44591904Y-36676246D01*
X44591904Y-36676246D02*
X44591904Y-36295294D01*
X44591904Y-36295294D02*
X44544285Y-36200056D01*
X44544285Y-36200056D02*
X44496666Y-36152437D01*
X44496666Y-36152437D02*
X44401428Y-36104818D01*
X44401428Y-36104818D02*
X44210952Y-36104818D01*
X44210952Y-36104818D02*
X44115714Y-36152437D01*
X44115714Y-36152437D02*
X44068095Y-36200056D01*
X44068095Y-36200056D02*
X44020476Y-36295294D01*
X44020476Y-36295294D02*
X44020476Y-36533389D01*
X44020476Y-36533389D02*
X44068095Y-36628627D01*
X44068095Y-36628627D02*
X44115714Y-36676246D01*
X44115714Y-36676246D02*
X44210952Y-36723865D01*
X44210952Y-36723865D02*
X44401428Y-36723865D01*
X44401428Y-36723865D02*
X44496666Y-36676246D01*
X44496666Y-36676246D02*
X44544285Y-36628627D01*
X44544285Y-36628627D02*
X44591904Y-36533389D01*
X42318333Y-42509580D02*
X42270714Y-42557200D01*
X42270714Y-42557200D02*
X42127857Y-42604819D01*
X42127857Y-42604819D02*
X42032619Y-42604819D01*
X42032619Y-42604819D02*
X41889762Y-42557200D01*
X41889762Y-42557200D02*
X41794524Y-42461961D01*
X41794524Y-42461961D02*
X41746905Y-42366723D01*
X41746905Y-42366723D02*
X41699286Y-42176247D01*
X41699286Y-42176247D02*
X41699286Y-42033390D01*
X41699286Y-42033390D02*
X41746905Y-41842914D01*
X41746905Y-41842914D02*
X41794524Y-41747676D01*
X41794524Y-41747676D02*
X41889762Y-41652438D01*
X41889762Y-41652438D02*
X42032619Y-41604819D01*
X42032619Y-41604819D02*
X42127857Y-41604819D01*
X42127857Y-41604819D02*
X42270714Y-41652438D01*
X42270714Y-41652438D02*
X42318333Y-41700057D01*
X43270714Y-42604819D02*
X42699286Y-42604819D01*
X42985000Y-42604819D02*
X42985000Y-41604819D01*
X42985000Y-41604819D02*
X42889762Y-41747676D01*
X42889762Y-41747676D02*
X42794524Y-41842914D01*
X42794524Y-41842914D02*
X42699286Y-41890533D01*
X44293333Y-46999580D02*
X44245714Y-47047200D01*
X44245714Y-47047200D02*
X44102857Y-47094819D01*
X44102857Y-47094819D02*
X44007619Y-47094819D01*
X44007619Y-47094819D02*
X43864762Y-47047200D01*
X43864762Y-47047200D02*
X43769524Y-46951961D01*
X43769524Y-46951961D02*
X43721905Y-46856723D01*
X43721905Y-46856723D02*
X43674286Y-46666247D01*
X43674286Y-46666247D02*
X43674286Y-46523390D01*
X43674286Y-46523390D02*
X43721905Y-46332914D01*
X43721905Y-46332914D02*
X43769524Y-46237676D01*
X43769524Y-46237676D02*
X43864762Y-46142438D01*
X43864762Y-46142438D02*
X44007619Y-46094819D01*
X44007619Y-46094819D02*
X44102857Y-46094819D01*
X44102857Y-46094819D02*
X44245714Y-46142438D01*
X44245714Y-46142438D02*
X44293333Y-46190057D01*
X44674286Y-46190057D02*
X44721905Y-46142438D01*
X44721905Y-46142438D02*
X44817143Y-46094819D01*
X44817143Y-46094819D02*
X45055238Y-46094819D01*
X45055238Y-46094819D02*
X45150476Y-46142438D01*
X45150476Y-46142438D02*
X45198095Y-46190057D01*
X45198095Y-46190057D02*
X45245714Y-46285295D01*
X45245714Y-46285295D02*
X45245714Y-46380533D01*
X45245714Y-46380533D02*
X45198095Y-46523390D01*
X45198095Y-46523390D02*
X44626667Y-47094819D01*
X44626667Y-47094819D02*
X45245714Y-47094819D01*
X32357142Y-43164819D02*
X32023809Y-42688628D01*
X31785714Y-43164819D02*
X31785714Y-42164819D01*
X31785714Y-42164819D02*
X32166666Y-42164819D01*
X32166666Y-42164819D02*
X32261904Y-42212438D01*
X32261904Y-42212438D02*
X32309523Y-42260057D01*
X32309523Y-42260057D02*
X32357142Y-42355295D01*
X32357142Y-42355295D02*
X32357142Y-42498152D01*
X32357142Y-42498152D02*
X32309523Y-42593390D01*
X32309523Y-42593390D02*
X32261904Y-42641009D01*
X32261904Y-42641009D02*
X32166666Y-42688628D01*
X32166666Y-42688628D02*
X31785714Y-42688628D01*
X33309523Y-43164819D02*
X32738095Y-43164819D01*
X33023809Y-43164819D02*
X33023809Y-42164819D01*
X33023809Y-42164819D02*
X32928571Y-42307676D01*
X32928571Y-42307676D02*
X32833333Y-42402914D01*
X32833333Y-42402914D02*
X32738095Y-42450533D01*
X34214285Y-42164819D02*
X33738095Y-42164819D01*
X33738095Y-42164819D02*
X33690476Y-42641009D01*
X33690476Y-42641009D02*
X33738095Y-42593390D01*
X33738095Y-42593390D02*
X33833333Y-42545771D01*
X33833333Y-42545771D02*
X34071428Y-42545771D01*
X34071428Y-42545771D02*
X34166666Y-42593390D01*
X34166666Y-42593390D02*
X34214285Y-42641009D01*
X34214285Y-42641009D02*
X34261904Y-42736247D01*
X34261904Y-42736247D02*
X34261904Y-42974342D01*
X34261904Y-42974342D02*
X34214285Y-43069580D01*
X34214285Y-43069580D02*
X34166666Y-43117200D01*
X34166666Y-43117200D02*
X34071428Y-43164819D01*
X34071428Y-43164819D02*
X33833333Y-43164819D01*
X33833333Y-43164819D02*
X33738095Y-43117200D01*
X33738095Y-43117200D02*
X33690476Y-43069580D01*
X34743333Y-55644819D02*
X34410000Y-55168628D01*
X34171905Y-55644819D02*
X34171905Y-54644819D01*
X34171905Y-54644819D02*
X34552857Y-54644819D01*
X34552857Y-54644819D02*
X34648095Y-54692438D01*
X34648095Y-54692438D02*
X34695714Y-54740057D01*
X34695714Y-54740057D02*
X34743333Y-54835295D01*
X34743333Y-54835295D02*
X34743333Y-54978152D01*
X34743333Y-54978152D02*
X34695714Y-55073390D01*
X34695714Y-55073390D02*
X34648095Y-55121009D01*
X34648095Y-55121009D02*
X34552857Y-55168628D01*
X34552857Y-55168628D02*
X34171905Y-55168628D01*
X35076667Y-54644819D02*
X35695714Y-54644819D01*
X35695714Y-54644819D02*
X35362381Y-55025771D01*
X35362381Y-55025771D02*
X35505238Y-55025771D01*
X35505238Y-55025771D02*
X35600476Y-55073390D01*
X35600476Y-55073390D02*
X35648095Y-55121009D01*
X35648095Y-55121009D02*
X35695714Y-55216247D01*
X35695714Y-55216247D02*
X35695714Y-55454342D01*
X35695714Y-55454342D02*
X35648095Y-55549580D01*
X35648095Y-55549580D02*
X35600476Y-55597200D01*
X35600476Y-55597200D02*
X35505238Y-55644819D01*
X35505238Y-55644819D02*
X35219524Y-55644819D01*
X35219524Y-55644819D02*
X35124286Y-55597200D01*
X35124286Y-55597200D02*
X35076667Y-55549580D01*
X50847142Y-35749580D02*
X50799523Y-35797200D01*
X50799523Y-35797200D02*
X50656666Y-35844819D01*
X50656666Y-35844819D02*
X50561428Y-35844819D01*
X50561428Y-35844819D02*
X50418571Y-35797200D01*
X50418571Y-35797200D02*
X50323333Y-35701961D01*
X50323333Y-35701961D02*
X50275714Y-35606723D01*
X50275714Y-35606723D02*
X50228095Y-35416247D01*
X50228095Y-35416247D02*
X50228095Y-35273390D01*
X50228095Y-35273390D02*
X50275714Y-35082914D01*
X50275714Y-35082914D02*
X50323333Y-34987676D01*
X50323333Y-34987676D02*
X50418571Y-34892438D01*
X50418571Y-34892438D02*
X50561428Y-34844819D01*
X50561428Y-34844819D02*
X50656666Y-34844819D01*
X50656666Y-34844819D02*
X50799523Y-34892438D01*
X50799523Y-34892438D02*
X50847142Y-34940057D01*
X51228095Y-34940057D02*
X51275714Y-34892438D01*
X51275714Y-34892438D02*
X51370952Y-34844819D01*
X51370952Y-34844819D02*
X51609047Y-34844819D01*
X51609047Y-34844819D02*
X51704285Y-34892438D01*
X51704285Y-34892438D02*
X51751904Y-34940057D01*
X51751904Y-34940057D02*
X51799523Y-35035295D01*
X51799523Y-35035295D02*
X51799523Y-35130533D01*
X51799523Y-35130533D02*
X51751904Y-35273390D01*
X51751904Y-35273390D02*
X51180476Y-35844819D01*
X51180476Y-35844819D02*
X51799523Y-35844819D01*
X52180476Y-34940057D02*
X52228095Y-34892438D01*
X52228095Y-34892438D02*
X52323333Y-34844819D01*
X52323333Y-34844819D02*
X52561428Y-34844819D01*
X52561428Y-34844819D02*
X52656666Y-34892438D01*
X52656666Y-34892438D02*
X52704285Y-34940057D01*
X52704285Y-34940057D02*
X52751904Y-35035295D01*
X52751904Y-35035295D02*
X52751904Y-35130533D01*
X52751904Y-35130533D02*
X52704285Y-35273390D01*
X52704285Y-35273390D02*
X52132857Y-35844819D01*
X52132857Y-35844819D02*
X52751904Y-35844819D01*
X34853333Y-51954819D02*
X34520000Y-51478628D01*
X34281905Y-51954819D02*
X34281905Y-50954819D01*
X34281905Y-50954819D02*
X34662857Y-50954819D01*
X34662857Y-50954819D02*
X34758095Y-51002438D01*
X34758095Y-51002438D02*
X34805714Y-51050057D01*
X34805714Y-51050057D02*
X34853333Y-51145295D01*
X34853333Y-51145295D02*
X34853333Y-51288152D01*
X34853333Y-51288152D02*
X34805714Y-51383390D01*
X34805714Y-51383390D02*
X34758095Y-51431009D01*
X34758095Y-51431009D02*
X34662857Y-51478628D01*
X34662857Y-51478628D02*
X34281905Y-51478628D01*
X35234286Y-51050057D02*
X35281905Y-51002438D01*
X35281905Y-51002438D02*
X35377143Y-50954819D01*
X35377143Y-50954819D02*
X35615238Y-50954819D01*
X35615238Y-50954819D02*
X35710476Y-51002438D01*
X35710476Y-51002438D02*
X35758095Y-51050057D01*
X35758095Y-51050057D02*
X35805714Y-51145295D01*
X35805714Y-51145295D02*
X35805714Y-51240533D01*
X35805714Y-51240533D02*
X35758095Y-51383390D01*
X35758095Y-51383390D02*
X35186667Y-51954819D01*
X35186667Y-51954819D02*
X35805714Y-51954819D01*
X33008095Y-34754819D02*
X33008095Y-35564342D01*
X33008095Y-35564342D02*
X33055714Y-35659580D01*
X33055714Y-35659580D02*
X33103333Y-35707200D01*
X33103333Y-35707200D02*
X33198571Y-35754819D01*
X33198571Y-35754819D02*
X33389047Y-35754819D01*
X33389047Y-35754819D02*
X33484285Y-35707200D01*
X33484285Y-35707200D02*
X33531904Y-35659580D01*
X33531904Y-35659580D02*
X33579523Y-35564342D01*
X33579523Y-35564342D02*
X33579523Y-34754819D01*
X34484285Y-35088152D02*
X34484285Y-35754819D01*
X34246190Y-34707200D02*
X34008095Y-35421485D01*
X34008095Y-35421485D02*
X34627142Y-35421485D01*
X46847142Y-36554819D02*
X46513809Y-36078628D01*
X46275714Y-36554819D02*
X46275714Y-35554819D01*
X46275714Y-35554819D02*
X46656666Y-35554819D01*
X46656666Y-35554819D02*
X46751904Y-35602438D01*
X46751904Y-35602438D02*
X46799523Y-35650057D01*
X46799523Y-35650057D02*
X46847142Y-35745295D01*
X46847142Y-35745295D02*
X46847142Y-35888152D01*
X46847142Y-35888152D02*
X46799523Y-35983390D01*
X46799523Y-35983390D02*
X46751904Y-36031009D01*
X46751904Y-36031009D02*
X46656666Y-36078628D01*
X46656666Y-36078628D02*
X46275714Y-36078628D01*
X47799523Y-36554819D02*
X47228095Y-36554819D01*
X47513809Y-36554819D02*
X47513809Y-35554819D01*
X47513809Y-35554819D02*
X47418571Y-35697676D01*
X47418571Y-35697676D02*
X47323333Y-35792914D01*
X47323333Y-35792914D02*
X47228095Y-35840533D01*
X48656666Y-35554819D02*
X48466190Y-35554819D01*
X48466190Y-35554819D02*
X48370952Y-35602438D01*
X48370952Y-35602438D02*
X48323333Y-35650057D01*
X48323333Y-35650057D02*
X48228095Y-35792914D01*
X48228095Y-35792914D02*
X48180476Y-35983390D01*
X48180476Y-35983390D02*
X48180476Y-36364342D01*
X48180476Y-36364342D02*
X48228095Y-36459580D01*
X48228095Y-36459580D02*
X48275714Y-36507200D01*
X48275714Y-36507200D02*
X48370952Y-36554819D01*
X48370952Y-36554819D02*
X48561428Y-36554819D01*
X48561428Y-36554819D02*
X48656666Y-36507200D01*
X48656666Y-36507200D02*
X48704285Y-36459580D01*
X48704285Y-36459580D02*
X48751904Y-36364342D01*
X48751904Y-36364342D02*
X48751904Y-36126247D01*
X48751904Y-36126247D02*
X48704285Y-36031009D01*
X48704285Y-36031009D02*
X48656666Y-35983390D01*
X48656666Y-35983390D02*
X48561428Y-35935771D01*
X48561428Y-35935771D02*
X48370952Y-35935771D01*
X48370952Y-35935771D02*
X48275714Y-35983390D01*
X48275714Y-35983390D02*
X48228095Y-36031009D01*
X48228095Y-36031009D02*
X48180476Y-36126247D01*
X51717142Y-65939580D02*
X51669523Y-65987200D01*
X51669523Y-65987200D02*
X51526666Y-66034819D01*
X51526666Y-66034819D02*
X51431428Y-66034819D01*
X51431428Y-66034819D02*
X51288571Y-65987200D01*
X51288571Y-65987200D02*
X51193333Y-65891961D01*
X51193333Y-65891961D02*
X51145714Y-65796723D01*
X51145714Y-65796723D02*
X51098095Y-65606247D01*
X51098095Y-65606247D02*
X51098095Y-65463390D01*
X51098095Y-65463390D02*
X51145714Y-65272914D01*
X51145714Y-65272914D02*
X51193333Y-65177676D01*
X51193333Y-65177676D02*
X51288571Y-65082438D01*
X51288571Y-65082438D02*
X51431428Y-65034819D01*
X51431428Y-65034819D02*
X51526666Y-65034819D01*
X51526666Y-65034819D02*
X51669523Y-65082438D01*
X51669523Y-65082438D02*
X51717142Y-65130057D01*
X52669523Y-66034819D02*
X52098095Y-66034819D01*
X52383809Y-66034819D02*
X52383809Y-65034819D01*
X52383809Y-65034819D02*
X52288571Y-65177676D01*
X52288571Y-65177676D02*
X52193333Y-65272914D01*
X52193333Y-65272914D02*
X52098095Y-65320533D01*
X53240952Y-65463390D02*
X53145714Y-65415771D01*
X53145714Y-65415771D02*
X53098095Y-65368152D01*
X53098095Y-65368152D02*
X53050476Y-65272914D01*
X53050476Y-65272914D02*
X53050476Y-65225295D01*
X53050476Y-65225295D02*
X53098095Y-65130057D01*
X53098095Y-65130057D02*
X53145714Y-65082438D01*
X53145714Y-65082438D02*
X53240952Y-65034819D01*
X53240952Y-65034819D02*
X53431428Y-65034819D01*
X53431428Y-65034819D02*
X53526666Y-65082438D01*
X53526666Y-65082438D02*
X53574285Y-65130057D01*
X53574285Y-65130057D02*
X53621904Y-65225295D01*
X53621904Y-65225295D02*
X53621904Y-65272914D01*
X53621904Y-65272914D02*
X53574285Y-65368152D01*
X53574285Y-65368152D02*
X53526666Y-65415771D01*
X53526666Y-65415771D02*
X53431428Y-65463390D01*
X53431428Y-65463390D02*
X53240952Y-65463390D01*
X53240952Y-65463390D02*
X53145714Y-65511009D01*
X53145714Y-65511009D02*
X53098095Y-65558628D01*
X53098095Y-65558628D02*
X53050476Y-65653866D01*
X53050476Y-65653866D02*
X53050476Y-65844342D01*
X53050476Y-65844342D02*
X53098095Y-65939580D01*
X53098095Y-65939580D02*
X53145714Y-65987200D01*
X53145714Y-65987200D02*
X53240952Y-66034819D01*
X53240952Y-66034819D02*
X53431428Y-66034819D01*
X53431428Y-66034819D02*
X53526666Y-65987200D01*
X53526666Y-65987200D02*
X53574285Y-65939580D01*
X53574285Y-65939580D02*
X53621904Y-65844342D01*
X53621904Y-65844342D02*
X53621904Y-65653866D01*
X53621904Y-65653866D02*
X53574285Y-65558628D01*
X53574285Y-65558628D02*
X53526666Y-65511009D01*
X53526666Y-65511009D02*
X53431428Y-65463390D01*
X39478095Y-61024819D02*
X39478095Y-61834342D01*
X39478095Y-61834342D02*
X39525714Y-61929580D01*
X39525714Y-61929580D02*
X39573333Y-61977200D01*
X39573333Y-61977200D02*
X39668571Y-62024819D01*
X39668571Y-62024819D02*
X39859047Y-62024819D01*
X39859047Y-62024819D02*
X39954285Y-61977200D01*
X39954285Y-61977200D02*
X40001904Y-61929580D01*
X40001904Y-61929580D02*
X40049523Y-61834342D01*
X40049523Y-61834342D02*
X40049523Y-61024819D01*
X40668571Y-61453390D02*
X40573333Y-61405771D01*
X40573333Y-61405771D02*
X40525714Y-61358152D01*
X40525714Y-61358152D02*
X40478095Y-61262914D01*
X40478095Y-61262914D02*
X40478095Y-61215295D01*
X40478095Y-61215295D02*
X40525714Y-61120057D01*
X40525714Y-61120057D02*
X40573333Y-61072438D01*
X40573333Y-61072438D02*
X40668571Y-61024819D01*
X40668571Y-61024819D02*
X40859047Y-61024819D01*
X40859047Y-61024819D02*
X40954285Y-61072438D01*
X40954285Y-61072438D02*
X41001904Y-61120057D01*
X41001904Y-61120057D02*
X41049523Y-61215295D01*
X41049523Y-61215295D02*
X41049523Y-61262914D01*
X41049523Y-61262914D02*
X41001904Y-61358152D01*
X41001904Y-61358152D02*
X40954285Y-61405771D01*
X40954285Y-61405771D02*
X40859047Y-61453390D01*
X40859047Y-61453390D02*
X40668571Y-61453390D01*
X40668571Y-61453390D02*
X40573333Y-61501009D01*
X40573333Y-61501009D02*
X40525714Y-61548628D01*
X40525714Y-61548628D02*
X40478095Y-61643866D01*
X40478095Y-61643866D02*
X40478095Y-61834342D01*
X40478095Y-61834342D02*
X40525714Y-61929580D01*
X40525714Y-61929580D02*
X40573333Y-61977200D01*
X40573333Y-61977200D02*
X40668571Y-62024819D01*
X40668571Y-62024819D02*
X40859047Y-62024819D01*
X40859047Y-62024819D02*
X40954285Y-61977200D01*
X40954285Y-61977200D02*
X41001904Y-61929580D01*
X41001904Y-61929580D02*
X41049523Y-61834342D01*
X41049523Y-61834342D02*
X41049523Y-61643866D01*
X41049523Y-61643866D02*
X41001904Y-61548628D01*
X41001904Y-61548628D02*
X40954285Y-61501009D01*
X40954285Y-61501009D02*
X40859047Y-61453390D01*
X44309999Y-67735180D02*
X44309999Y-67497085D01*
X44548094Y-67592323D02*
X44309999Y-67497085D01*
X44309999Y-67497085D02*
X44071904Y-67592323D01*
X44452856Y-67306609D02*
X44309999Y-67497085D01*
X44309999Y-67497085D02*
X44167142Y-67306609D01*
X79267142Y-37597318D02*
X78933809Y-37121127D01*
X78695714Y-37597318D02*
X78695714Y-36597318D01*
X78695714Y-36597318D02*
X79076666Y-36597318D01*
X79076666Y-36597318D02*
X79171904Y-36644937D01*
X79171904Y-36644937D02*
X79219523Y-36692556D01*
X79219523Y-36692556D02*
X79267142Y-36787794D01*
X79267142Y-36787794D02*
X79267142Y-36930651D01*
X79267142Y-36930651D02*
X79219523Y-37025889D01*
X79219523Y-37025889D02*
X79171904Y-37073508D01*
X79171904Y-37073508D02*
X79076666Y-37121127D01*
X79076666Y-37121127D02*
X78695714Y-37121127D01*
X79648095Y-36692556D02*
X79695714Y-36644937D01*
X79695714Y-36644937D02*
X79790952Y-36597318D01*
X79790952Y-36597318D02*
X80029047Y-36597318D01*
X80029047Y-36597318D02*
X80124285Y-36644937D01*
X80124285Y-36644937D02*
X80171904Y-36692556D01*
X80171904Y-36692556D02*
X80219523Y-36787794D01*
X80219523Y-36787794D02*
X80219523Y-36883032D01*
X80219523Y-36883032D02*
X80171904Y-37025889D01*
X80171904Y-37025889D02*
X79600476Y-37597318D01*
X79600476Y-37597318D02*
X80219523Y-37597318D01*
X80838571Y-36597318D02*
X80933809Y-36597318D01*
X80933809Y-36597318D02*
X81029047Y-36644937D01*
X81029047Y-36644937D02*
X81076666Y-36692556D01*
X81076666Y-36692556D02*
X81124285Y-36787794D01*
X81124285Y-36787794D02*
X81171904Y-36978270D01*
X81171904Y-36978270D02*
X81171904Y-37216365D01*
X81171904Y-37216365D02*
X81124285Y-37406841D01*
X81124285Y-37406841D02*
X81076666Y-37502079D01*
X81076666Y-37502079D02*
X81029047Y-37549699D01*
X81029047Y-37549699D02*
X80933809Y-37597318D01*
X80933809Y-37597318D02*
X80838571Y-37597318D01*
X80838571Y-37597318D02*
X80743333Y-37549699D01*
X80743333Y-37549699D02*
X80695714Y-37502079D01*
X80695714Y-37502079D02*
X80648095Y-37406841D01*
X80648095Y-37406841D02*
X80600476Y-37216365D01*
X80600476Y-37216365D02*
X80600476Y-36978270D01*
X80600476Y-36978270D02*
X80648095Y-36787794D01*
X80648095Y-36787794D02*
X80695714Y-36692556D01*
X80695714Y-36692556D02*
X80743333Y-36644937D01*
X80743333Y-36644937D02*
X80838571Y-36597318D01*
X75043333Y-38889580D02*
X74995714Y-38937200D01*
X74995714Y-38937200D02*
X74852857Y-38984819D01*
X74852857Y-38984819D02*
X74757619Y-38984819D01*
X74757619Y-38984819D02*
X74614762Y-38937200D01*
X74614762Y-38937200D02*
X74519524Y-38841961D01*
X74519524Y-38841961D02*
X74471905Y-38746723D01*
X74471905Y-38746723D02*
X74424286Y-38556247D01*
X74424286Y-38556247D02*
X74424286Y-38413390D01*
X74424286Y-38413390D02*
X74471905Y-38222914D01*
X74471905Y-38222914D02*
X74519524Y-38127676D01*
X74519524Y-38127676D02*
X74614762Y-38032438D01*
X74614762Y-38032438D02*
X74757619Y-37984819D01*
X74757619Y-37984819D02*
X74852857Y-37984819D01*
X74852857Y-37984819D02*
X74995714Y-38032438D01*
X74995714Y-38032438D02*
X75043333Y-38080057D01*
X75376667Y-37984819D02*
X75995714Y-37984819D01*
X75995714Y-37984819D02*
X75662381Y-38365771D01*
X75662381Y-38365771D02*
X75805238Y-38365771D01*
X75805238Y-38365771D02*
X75900476Y-38413390D01*
X75900476Y-38413390D02*
X75948095Y-38461009D01*
X75948095Y-38461009D02*
X75995714Y-38556247D01*
X75995714Y-38556247D02*
X75995714Y-38794342D01*
X75995714Y-38794342D02*
X75948095Y-38889580D01*
X75948095Y-38889580D02*
X75900476Y-38937200D01*
X75900476Y-38937200D02*
X75805238Y-38984819D01*
X75805238Y-38984819D02*
X75519524Y-38984819D01*
X75519524Y-38984819D02*
X75424286Y-38937200D01*
X75424286Y-38937200D02*
X75376667Y-38889580D01*
X37997142Y-33519580D02*
X37949523Y-33567200D01*
X37949523Y-33567200D02*
X37806666Y-33614819D01*
X37806666Y-33614819D02*
X37711428Y-33614819D01*
X37711428Y-33614819D02*
X37568571Y-33567200D01*
X37568571Y-33567200D02*
X37473333Y-33471961D01*
X37473333Y-33471961D02*
X37425714Y-33376723D01*
X37425714Y-33376723D02*
X37378095Y-33186247D01*
X37378095Y-33186247D02*
X37378095Y-33043390D01*
X37378095Y-33043390D02*
X37425714Y-32852914D01*
X37425714Y-32852914D02*
X37473333Y-32757676D01*
X37473333Y-32757676D02*
X37568571Y-32662438D01*
X37568571Y-32662438D02*
X37711428Y-32614819D01*
X37711428Y-32614819D02*
X37806666Y-32614819D01*
X37806666Y-32614819D02*
X37949523Y-32662438D01*
X37949523Y-32662438D02*
X37997142Y-32710057D01*
X38949523Y-33614819D02*
X38378095Y-33614819D01*
X38663809Y-33614819D02*
X38663809Y-32614819D01*
X38663809Y-32614819D02*
X38568571Y-32757676D01*
X38568571Y-32757676D02*
X38473333Y-32852914D01*
X38473333Y-32852914D02*
X38378095Y-32900533D01*
X39282857Y-32614819D02*
X39949523Y-32614819D01*
X39949523Y-32614819D02*
X39520952Y-33614819D01*
X35027142Y-57879580D02*
X34979523Y-57927200D01*
X34979523Y-57927200D02*
X34836666Y-57974819D01*
X34836666Y-57974819D02*
X34741428Y-57974819D01*
X34741428Y-57974819D02*
X34598571Y-57927200D01*
X34598571Y-57927200D02*
X34503333Y-57831961D01*
X34503333Y-57831961D02*
X34455714Y-57736723D01*
X34455714Y-57736723D02*
X34408095Y-57546247D01*
X34408095Y-57546247D02*
X34408095Y-57403390D01*
X34408095Y-57403390D02*
X34455714Y-57212914D01*
X34455714Y-57212914D02*
X34503333Y-57117676D01*
X34503333Y-57117676D02*
X34598571Y-57022438D01*
X34598571Y-57022438D02*
X34741428Y-56974819D01*
X34741428Y-56974819D02*
X34836666Y-56974819D01*
X34836666Y-56974819D02*
X34979523Y-57022438D01*
X34979523Y-57022438D02*
X35027142Y-57070057D01*
X35979523Y-57974819D02*
X35408095Y-57974819D01*
X35693809Y-57974819D02*
X35693809Y-56974819D01*
X35693809Y-56974819D02*
X35598571Y-57117676D01*
X35598571Y-57117676D02*
X35503333Y-57212914D01*
X35503333Y-57212914D02*
X35408095Y-57260533D01*
X36931904Y-57974819D02*
X36360476Y-57974819D01*
X36646190Y-57974819D02*
X36646190Y-56974819D01*
X36646190Y-56974819D02*
X36550952Y-57117676D01*
X36550952Y-57117676D02*
X36455714Y-57212914D01*
X36455714Y-57212914D02*
X36360476Y-57260533D01*
X52109580Y-40622857D02*
X52157200Y-40670476D01*
X52157200Y-40670476D02*
X52204819Y-40813333D01*
X52204819Y-40813333D02*
X52204819Y-40908571D01*
X52204819Y-40908571D02*
X52157200Y-41051428D01*
X52157200Y-41051428D02*
X52061961Y-41146666D01*
X52061961Y-41146666D02*
X51966723Y-41194285D01*
X51966723Y-41194285D02*
X51776247Y-41241904D01*
X51776247Y-41241904D02*
X51633390Y-41241904D01*
X51633390Y-41241904D02*
X51442914Y-41194285D01*
X51442914Y-41194285D02*
X51347676Y-41146666D01*
X51347676Y-41146666D02*
X51252438Y-41051428D01*
X51252438Y-41051428D02*
X51204819Y-40908571D01*
X51204819Y-40908571D02*
X51204819Y-40813333D01*
X51204819Y-40813333D02*
X51252438Y-40670476D01*
X51252438Y-40670476D02*
X51300057Y-40622857D01*
X51300057Y-40241904D02*
X51252438Y-40194285D01*
X51252438Y-40194285D02*
X51204819Y-40099047D01*
X51204819Y-40099047D02*
X51204819Y-39860952D01*
X51204819Y-39860952D02*
X51252438Y-39765714D01*
X51252438Y-39765714D02*
X51300057Y-39718095D01*
X51300057Y-39718095D02*
X51395295Y-39670476D01*
X51395295Y-39670476D02*
X51490533Y-39670476D01*
X51490533Y-39670476D02*
X51633390Y-39718095D01*
X51633390Y-39718095D02*
X52204819Y-40289523D01*
X52204819Y-40289523D02*
X52204819Y-39670476D01*
X52204819Y-38718095D02*
X52204819Y-39289523D01*
X52204819Y-39003809D02*
X51204819Y-39003809D01*
X51204819Y-39003809D02*
X51347676Y-39099047D01*
X51347676Y-39099047D02*
X51442914Y-39194285D01*
X51442914Y-39194285D02*
X51490533Y-39289523D01*
X78991905Y-34127318D02*
X78991905Y-33127318D01*
X78991905Y-33127318D02*
X79230000Y-33127318D01*
X79230000Y-33127318D02*
X79372857Y-33174937D01*
X79372857Y-33174937D02*
X79468095Y-33270175D01*
X79468095Y-33270175D02*
X79515714Y-33365413D01*
X79515714Y-33365413D02*
X79563333Y-33555889D01*
X79563333Y-33555889D02*
X79563333Y-33698746D01*
X79563333Y-33698746D02*
X79515714Y-33889222D01*
X79515714Y-33889222D02*
X79468095Y-33984460D01*
X79468095Y-33984460D02*
X79372857Y-34079699D01*
X79372857Y-34079699D02*
X79230000Y-34127318D01*
X79230000Y-34127318D02*
X78991905Y-34127318D01*
X80420476Y-33127318D02*
X80230000Y-33127318D01*
X80230000Y-33127318D02*
X80134762Y-33174937D01*
X80134762Y-33174937D02*
X80087143Y-33222556D01*
X80087143Y-33222556D02*
X79991905Y-33365413D01*
X79991905Y-33365413D02*
X79944286Y-33555889D01*
X79944286Y-33555889D02*
X79944286Y-33936841D01*
X79944286Y-33936841D02*
X79991905Y-34032079D01*
X79991905Y-34032079D02*
X80039524Y-34079699D01*
X80039524Y-34079699D02*
X80134762Y-34127318D01*
X80134762Y-34127318D02*
X80325238Y-34127318D01*
X80325238Y-34127318D02*
X80420476Y-34079699D01*
X80420476Y-34079699D02*
X80468095Y-34032079D01*
X80468095Y-34032079D02*
X80515714Y-33936841D01*
X80515714Y-33936841D02*
X80515714Y-33698746D01*
X80515714Y-33698746D02*
X80468095Y-33603508D01*
X80468095Y-33603508D02*
X80420476Y-33555889D01*
X80420476Y-33555889D02*
X80325238Y-33508270D01*
X80325238Y-33508270D02*
X80134762Y-33508270D01*
X80134762Y-33508270D02*
X80039524Y-33555889D01*
X80039524Y-33555889D02*
X79991905Y-33603508D01*
X79991905Y-33603508D02*
X79944286Y-33698746D01*
X35641905Y-72954819D02*
X35641905Y-71954819D01*
X35641905Y-71954819D02*
X35880000Y-71954819D01*
X35880000Y-71954819D02*
X36022857Y-72002438D01*
X36022857Y-72002438D02*
X36118095Y-72097676D01*
X36118095Y-72097676D02*
X36165714Y-72192914D01*
X36165714Y-72192914D02*
X36213333Y-72383390D01*
X36213333Y-72383390D02*
X36213333Y-72526247D01*
X36213333Y-72526247D02*
X36165714Y-72716723D01*
X36165714Y-72716723D02*
X36118095Y-72811961D01*
X36118095Y-72811961D02*
X36022857Y-72907200D01*
X36022857Y-72907200D02*
X35880000Y-72954819D01*
X35880000Y-72954819D02*
X35641905Y-72954819D01*
X37165714Y-72954819D02*
X36594286Y-72954819D01*
X36880000Y-72954819D02*
X36880000Y-71954819D01*
X36880000Y-71954819D02*
X36784762Y-72097676D01*
X36784762Y-72097676D02*
X36689524Y-72192914D01*
X36689524Y-72192914D02*
X36594286Y-72240533D01*
X53077142Y-52209580D02*
X53029523Y-52257200D01*
X53029523Y-52257200D02*
X52886666Y-52304819D01*
X52886666Y-52304819D02*
X52791428Y-52304819D01*
X52791428Y-52304819D02*
X52648571Y-52257200D01*
X52648571Y-52257200D02*
X52553333Y-52161961D01*
X52553333Y-52161961D02*
X52505714Y-52066723D01*
X52505714Y-52066723D02*
X52458095Y-51876247D01*
X52458095Y-51876247D02*
X52458095Y-51733390D01*
X52458095Y-51733390D02*
X52505714Y-51542914D01*
X52505714Y-51542914D02*
X52553333Y-51447676D01*
X52553333Y-51447676D02*
X52648571Y-51352438D01*
X52648571Y-51352438D02*
X52791428Y-51304819D01*
X52791428Y-51304819D02*
X52886666Y-51304819D01*
X52886666Y-51304819D02*
X53029523Y-51352438D01*
X53029523Y-51352438D02*
X53077142Y-51400057D01*
X54029523Y-52304819D02*
X53458095Y-52304819D01*
X53743809Y-52304819D02*
X53743809Y-51304819D01*
X53743809Y-51304819D02*
X53648571Y-51447676D01*
X53648571Y-51447676D02*
X53553333Y-51542914D01*
X53553333Y-51542914D02*
X53458095Y-51590533D01*
X54362857Y-51304819D02*
X54981904Y-51304819D01*
X54981904Y-51304819D02*
X54648571Y-51685771D01*
X54648571Y-51685771D02*
X54791428Y-51685771D01*
X54791428Y-51685771D02*
X54886666Y-51733390D01*
X54886666Y-51733390D02*
X54934285Y-51781009D01*
X54934285Y-51781009D02*
X54981904Y-51876247D01*
X54981904Y-51876247D02*
X54981904Y-52114342D01*
X54981904Y-52114342D02*
X54934285Y-52209580D01*
X54934285Y-52209580D02*
X54886666Y-52257200D01*
X54886666Y-52257200D02*
X54791428Y-52304819D01*
X54791428Y-52304819D02*
X54505714Y-52304819D01*
X54505714Y-52304819D02*
X54410476Y-52257200D01*
X54410476Y-52257200D02*
X54362857Y-52209580D01*
X62867142Y-40629580D02*
X62819523Y-40677200D01*
X62819523Y-40677200D02*
X62676666Y-40724819D01*
X62676666Y-40724819D02*
X62581428Y-40724819D01*
X62581428Y-40724819D02*
X62438571Y-40677200D01*
X62438571Y-40677200D02*
X62343333Y-40581961D01*
X62343333Y-40581961D02*
X62295714Y-40486723D01*
X62295714Y-40486723D02*
X62248095Y-40296247D01*
X62248095Y-40296247D02*
X62248095Y-40153390D01*
X62248095Y-40153390D02*
X62295714Y-39962914D01*
X62295714Y-39962914D02*
X62343333Y-39867676D01*
X62343333Y-39867676D02*
X62438571Y-39772438D01*
X62438571Y-39772438D02*
X62581428Y-39724819D01*
X62581428Y-39724819D02*
X62676666Y-39724819D01*
X62676666Y-39724819D02*
X62819523Y-39772438D01*
X62819523Y-39772438D02*
X62867142Y-39820057D01*
X63248095Y-39820057D02*
X63295714Y-39772438D01*
X63295714Y-39772438D02*
X63390952Y-39724819D01*
X63390952Y-39724819D02*
X63629047Y-39724819D01*
X63629047Y-39724819D02*
X63724285Y-39772438D01*
X63724285Y-39772438D02*
X63771904Y-39820057D01*
X63771904Y-39820057D02*
X63819523Y-39915295D01*
X63819523Y-39915295D02*
X63819523Y-40010533D01*
X63819523Y-40010533D02*
X63771904Y-40153390D01*
X63771904Y-40153390D02*
X63200476Y-40724819D01*
X63200476Y-40724819D02*
X63819523Y-40724819D01*
X64676666Y-39724819D02*
X64486190Y-39724819D01*
X64486190Y-39724819D02*
X64390952Y-39772438D01*
X64390952Y-39772438D02*
X64343333Y-39820057D01*
X64343333Y-39820057D02*
X64248095Y-39962914D01*
X64248095Y-39962914D02*
X64200476Y-40153390D01*
X64200476Y-40153390D02*
X64200476Y-40534342D01*
X64200476Y-40534342D02*
X64248095Y-40629580D01*
X64248095Y-40629580D02*
X64295714Y-40677200D01*
X64295714Y-40677200D02*
X64390952Y-40724819D01*
X64390952Y-40724819D02*
X64581428Y-40724819D01*
X64581428Y-40724819D02*
X64676666Y-40677200D01*
X64676666Y-40677200D02*
X64724285Y-40629580D01*
X64724285Y-40629580D02*
X64771904Y-40534342D01*
X64771904Y-40534342D02*
X64771904Y-40296247D01*
X64771904Y-40296247D02*
X64724285Y-40201009D01*
X64724285Y-40201009D02*
X64676666Y-40153390D01*
X64676666Y-40153390D02*
X64581428Y-40105771D01*
X64581428Y-40105771D02*
X64390952Y-40105771D01*
X64390952Y-40105771D02*
X64295714Y-40153390D01*
X64295714Y-40153390D02*
X64248095Y-40201009D01*
X64248095Y-40201009D02*
X64200476Y-40296247D01*
X37997142Y-40889580D02*
X37949523Y-40937200D01*
X37949523Y-40937200D02*
X37806666Y-40984819D01*
X37806666Y-40984819D02*
X37711428Y-40984819D01*
X37711428Y-40984819D02*
X37568571Y-40937200D01*
X37568571Y-40937200D02*
X37473333Y-40841961D01*
X37473333Y-40841961D02*
X37425714Y-40746723D01*
X37425714Y-40746723D02*
X37378095Y-40556247D01*
X37378095Y-40556247D02*
X37378095Y-40413390D01*
X37378095Y-40413390D02*
X37425714Y-40222914D01*
X37425714Y-40222914D02*
X37473333Y-40127676D01*
X37473333Y-40127676D02*
X37568571Y-40032438D01*
X37568571Y-40032438D02*
X37711428Y-39984819D01*
X37711428Y-39984819D02*
X37806666Y-39984819D01*
X37806666Y-39984819D02*
X37949523Y-40032438D01*
X37949523Y-40032438D02*
X37997142Y-40080057D01*
X38949523Y-40984819D02*
X38378095Y-40984819D01*
X38663809Y-40984819D02*
X38663809Y-39984819D01*
X38663809Y-39984819D02*
X38568571Y-40127676D01*
X38568571Y-40127676D02*
X38473333Y-40222914D01*
X38473333Y-40222914D02*
X38378095Y-40270533D01*
X39806666Y-39984819D02*
X39616190Y-39984819D01*
X39616190Y-39984819D02*
X39520952Y-40032438D01*
X39520952Y-40032438D02*
X39473333Y-40080057D01*
X39473333Y-40080057D02*
X39378095Y-40222914D01*
X39378095Y-40222914D02*
X39330476Y-40413390D01*
X39330476Y-40413390D02*
X39330476Y-40794342D01*
X39330476Y-40794342D02*
X39378095Y-40889580D01*
X39378095Y-40889580D02*
X39425714Y-40937200D01*
X39425714Y-40937200D02*
X39520952Y-40984819D01*
X39520952Y-40984819D02*
X39711428Y-40984819D01*
X39711428Y-40984819D02*
X39806666Y-40937200D01*
X39806666Y-40937200D02*
X39854285Y-40889580D01*
X39854285Y-40889580D02*
X39901904Y-40794342D01*
X39901904Y-40794342D02*
X39901904Y-40556247D01*
X39901904Y-40556247D02*
X39854285Y-40461009D01*
X39854285Y-40461009D02*
X39806666Y-40413390D01*
X39806666Y-40413390D02*
X39711428Y-40365771D01*
X39711428Y-40365771D02*
X39520952Y-40365771D01*
X39520952Y-40365771D02*
X39425714Y-40413390D01*
X39425714Y-40413390D02*
X39378095Y-40461009D01*
X39378095Y-40461009D02*
X39330476Y-40556247D01*
X39521169Y-51927193D02*
X39453825Y-51927193D01*
X39453825Y-51927193D02*
X39319138Y-51859849D01*
X39319138Y-51859849D02*
X39251795Y-51792506D01*
X39251795Y-51792506D02*
X39184451Y-51657819D01*
X39184451Y-51657819D02*
X39184451Y-51523132D01*
X39184451Y-51523132D02*
X39218123Y-51422117D01*
X39218123Y-51422117D02*
X39319138Y-51253758D01*
X39319138Y-51253758D02*
X39420153Y-51152743D01*
X39420153Y-51152743D02*
X39588512Y-51051727D01*
X39588512Y-51051727D02*
X39689527Y-51018056D01*
X39689527Y-51018056D02*
X39824214Y-51018056D01*
X39824214Y-51018056D02*
X39958901Y-51085399D01*
X39958901Y-51085399D02*
X40026245Y-51152743D01*
X40026245Y-51152743D02*
X40093588Y-51287430D01*
X40093588Y-51287430D02*
X40093588Y-51354773D01*
X40127260Y-52667971D02*
X39723199Y-52263910D01*
X39925230Y-52465941D02*
X40632336Y-51758834D01*
X40632336Y-51758834D02*
X40463978Y-51792506D01*
X40463978Y-51792506D02*
X40329291Y-51792506D01*
X40329291Y-51792506D02*
X40228275Y-51758834D01*
X41272100Y-52398598D02*
X41339443Y-52465941D01*
X41339443Y-52465941D02*
X41373115Y-52566956D01*
X41373115Y-52566956D02*
X41373115Y-52634300D01*
X41373115Y-52634300D02*
X41339443Y-52735315D01*
X41339443Y-52735315D02*
X41238428Y-52903674D01*
X41238428Y-52903674D02*
X41070069Y-53072033D01*
X41070069Y-53072033D02*
X40901711Y-53173048D01*
X40901711Y-53173048D02*
X40800695Y-53206720D01*
X40800695Y-53206720D02*
X40733352Y-53206720D01*
X40733352Y-53206720D02*
X40632337Y-53173048D01*
X40632337Y-53173048D02*
X40564993Y-53105704D01*
X40564993Y-53105704D02*
X40531321Y-53004689D01*
X40531321Y-53004689D02*
X40531321Y-52937346D01*
X40531321Y-52937346D02*
X40564993Y-52836330D01*
X40564993Y-52836330D02*
X40666008Y-52667972D01*
X40666008Y-52667972D02*
X40834367Y-52499613D01*
X40834367Y-52499613D02*
X41002726Y-52398598D01*
X41002726Y-52398598D02*
X41103741Y-52364926D01*
X41103741Y-52364926D02*
X41171085Y-52364926D01*
X41171085Y-52364926D02*
X41272100Y-52398598D01*
X33798095Y-47854819D02*
X33798095Y-48664342D01*
X33798095Y-48664342D02*
X33845714Y-48759580D01*
X33845714Y-48759580D02*
X33893333Y-48807200D01*
X33893333Y-48807200D02*
X33988571Y-48854819D01*
X33988571Y-48854819D02*
X34179047Y-48854819D01*
X34179047Y-48854819D02*
X34274285Y-48807200D01*
X34274285Y-48807200D02*
X34321904Y-48759580D01*
X34321904Y-48759580D02*
X34369523Y-48664342D01*
X34369523Y-48664342D02*
X34369523Y-47854819D01*
X35274285Y-47854819D02*
X35083809Y-47854819D01*
X35083809Y-47854819D02*
X34988571Y-47902438D01*
X34988571Y-47902438D02*
X34940952Y-47950057D01*
X34940952Y-47950057D02*
X34845714Y-48092914D01*
X34845714Y-48092914D02*
X34798095Y-48283390D01*
X34798095Y-48283390D02*
X34798095Y-48664342D01*
X34798095Y-48664342D02*
X34845714Y-48759580D01*
X34845714Y-48759580D02*
X34893333Y-48807200D01*
X34893333Y-48807200D02*
X34988571Y-48854819D01*
X34988571Y-48854819D02*
X35179047Y-48854819D01*
X35179047Y-48854819D02*
X35274285Y-48807200D01*
X35274285Y-48807200D02*
X35321904Y-48759580D01*
X35321904Y-48759580D02*
X35369523Y-48664342D01*
X35369523Y-48664342D02*
X35369523Y-48426247D01*
X35369523Y-48426247D02*
X35321904Y-48331009D01*
X35321904Y-48331009D02*
X35274285Y-48283390D01*
X35274285Y-48283390D02*
X35179047Y-48235771D01*
X35179047Y-48235771D02*
X34988571Y-48235771D01*
X34988571Y-48235771D02*
X34893333Y-48283390D01*
X34893333Y-48283390D02*
X34845714Y-48331009D01*
X34845714Y-48331009D02*
X34798095Y-48426247D01*
X71853333Y-37019580D02*
X71805714Y-37067200D01*
X71805714Y-37067200D02*
X71662857Y-37114819D01*
X71662857Y-37114819D02*
X71567619Y-37114819D01*
X71567619Y-37114819D02*
X71424762Y-37067200D01*
X71424762Y-37067200D02*
X71329524Y-36971961D01*
X71329524Y-36971961D02*
X71281905Y-36876723D01*
X71281905Y-36876723D02*
X71234286Y-36686247D01*
X71234286Y-36686247D02*
X71234286Y-36543390D01*
X71234286Y-36543390D02*
X71281905Y-36352914D01*
X71281905Y-36352914D02*
X71329524Y-36257676D01*
X71329524Y-36257676D02*
X71424762Y-36162438D01*
X71424762Y-36162438D02*
X71567619Y-36114819D01*
X71567619Y-36114819D02*
X71662857Y-36114819D01*
X71662857Y-36114819D02*
X71805714Y-36162438D01*
X71805714Y-36162438D02*
X71853333Y-36210057D01*
X72710476Y-36448152D02*
X72710476Y-37114819D01*
X72472381Y-36067200D02*
X72234286Y-36781485D01*
X72234286Y-36781485D02*
X72853333Y-36781485D01*
D11*
X52220800Y-44510718D02*
X52220800Y-45359078D01*
X52220800Y-47421558D02*
X52220800Y-48269918D01*
X52220800Y-48269918D02*
X58469200Y-48269918D01*
X58469200Y-44510718D02*
X52220800Y-44510718D01*
X58469200Y-45359078D02*
X58469200Y-44510718D01*
X58469200Y-48269918D02*
X58469200Y-47421558D01*
X52678000Y-47406318D02*
G75*
G02*
X52424000Y-47406318I-127000J0D01*
G01*
X52424000Y-47406318D02*
G75*
G02*
X52678000Y-47406318I127000J0D01*
G01*
X56880400Y-68064201D02*
X57728760Y-68064201D01*
X59791240Y-68064201D02*
X60639600Y-68064201D01*
X60639600Y-68064201D02*
X60639600Y-61815801D01*
X56880400Y-61815801D02*
X56880400Y-68064201D01*
X57728760Y-61815801D02*
X56880400Y-61815801D01*
X60639600Y-61815801D02*
X59791240Y-61815801D01*
X58887001Y-69180601D02*
G75*
G02*
X58632999Y-69180601I-127001J0D01*
G01*
X58632999Y-69180601D02*
G75*
G02*
X58887001Y-69180601I127001J0D01*
G01*
D12*
X57550581Y-60600000D02*
X57269419Y-60600000D01*
X57550581Y-59580000D02*
X57269419Y-59580000D01*
X38190000Y-37051253D02*
X38190000Y-36528747D01*
X40410000Y-37051253D02*
X40410000Y-36528747D01*
X33296359Y-37550000D02*
X33603641Y-37550000D01*
X33296359Y-38310000D02*
X33603641Y-38310000D01*
X35570000Y-39716359D02*
X35570000Y-40023641D01*
X34810000Y-39716359D02*
X34810000Y-40023641D01*
X79240000Y-60764891D02*
X79240000Y-60457609D01*
X78480000Y-60764891D02*
X78480000Y-60457609D01*
X39580000Y-54169664D02*
X39580000Y-54385336D01*
X40300000Y-54169664D02*
X40300000Y-54385336D01*
X47090000Y-47683641D02*
X47090000Y-47376359D01*
X47850000Y-47683641D02*
X47850000Y-47376359D01*
D13*
X49960000Y-55270000D02*
X49960000Y-59170000D01*
X55000000Y-55270000D02*
X55000000Y-59170000D01*
D14*
X54780000Y-53120000D02*
G75*
G02*
X54580000Y-53120000I-100000J0D01*
G01*
X54580000Y-53120000D02*
G75*
G02*
X54780000Y-53120000I100000J0D01*
G01*
D12*
X65480000Y-35028748D02*
X65480000Y-36451252D01*
X68200000Y-35028748D02*
X68200000Y-36451252D01*
X38189999Y-57002164D02*
X38189999Y-57217836D01*
X38909999Y-57002164D02*
X38909999Y-57217836D01*
X48816359Y-44710000D02*
X49123641Y-44710000D01*
X48816359Y-45470000D02*
X49123641Y-45470000D01*
X53145000Y-63177936D02*
X53145000Y-63632064D01*
X54615000Y-63177936D02*
X54615000Y-63632064D01*
X72430000Y-27516359D02*
X72430000Y-27823641D01*
X73190000Y-27516359D02*
X73190000Y-27823641D01*
D11*
X46111300Y-41556400D02*
X48168700Y-41556400D01*
X48168700Y-38203600D02*
X46111300Y-38203600D01*
X48168700Y-40243220D02*
X48168700Y-39516780D01*
D12*
X58060000Y-31600000D02*
X55860000Y-31600000D01*
X58060000Y-31600000D02*
X60260000Y-31600000D01*
X58060000Y-41520000D02*
X55860000Y-41520000D01*
X58060000Y-41520000D02*
X61660000Y-41520000D01*
X72075000Y-29557500D02*
X72075000Y-31842500D01*
X72075000Y-31842500D02*
X73545000Y-31842500D01*
X73545000Y-31842500D02*
X73545000Y-29557500D01*
X35532164Y-33810000D02*
X35747836Y-33810000D01*
X35532164Y-34530000D02*
X35747836Y-34530000D01*
X63800000Y-36599420D02*
X63800000Y-36880580D01*
X64820000Y-36599420D02*
X64820000Y-36880580D01*
X35755000Y-65237064D02*
X35755000Y-64782936D01*
X37225000Y-65237064D02*
X37225000Y-64782936D01*
X42663642Y-55427500D02*
X42356360Y-55427500D01*
X42663642Y-56187500D02*
X42356360Y-56187500D01*
X42060000Y-54720000D02*
X42060000Y-54245000D01*
X42535000Y-50500000D02*
X42060000Y-50500000D01*
X42535000Y-54720000D02*
X42060000Y-54720000D01*
X45805000Y-50500000D02*
X46280000Y-50500000D01*
X45805000Y-54720000D02*
X46280000Y-54720000D01*
X46280000Y-50500000D02*
X46280000Y-50975000D01*
X46280000Y-54720000D02*
X46280000Y-54245000D01*
X59705001Y-47379738D02*
X59705001Y-47660898D01*
X60725001Y-47379738D02*
X60725001Y-47660898D01*
X59835450Y-44836677D02*
X59835450Y-45143959D01*
X60595450Y-44836677D02*
X60595450Y-45143959D01*
X49660000Y-39729420D02*
X49660000Y-40010580D01*
X50680000Y-39729420D02*
X50680000Y-40010580D01*
X50125000Y-63634564D02*
X50125000Y-63180436D01*
X51595000Y-63634564D02*
X51595000Y-63180436D01*
X30820000Y-40076361D02*
X30820000Y-40383643D01*
X31580000Y-40076361D02*
X31580000Y-40383643D01*
X39773641Y-70670000D02*
X39466359Y-70670000D01*
X39773641Y-71430000D02*
X39466359Y-71430000D01*
X44905001Y-32445002D02*
X44905001Y-34730002D01*
X46375001Y-32445002D02*
X44905001Y-32445002D01*
X46375001Y-34730002D02*
X46375001Y-32445002D01*
X40725000Y-32947500D02*
X40725000Y-35232500D01*
X42195000Y-32947500D02*
X40725000Y-32947500D01*
X42195000Y-35232500D02*
X42195000Y-32947500D01*
X62220000Y-36149420D02*
X62220000Y-36430580D01*
X63240000Y-36149420D02*
X63240000Y-36430580D01*
X79595000Y-58831251D02*
X79595000Y-56546251D01*
X79595000Y-56546251D02*
X78125000Y-56546251D01*
X78125000Y-56546251D02*
X78125000Y-58831251D01*
X44613641Y-55437500D02*
X44306359Y-55437500D01*
X44613641Y-56197500D02*
X44306359Y-56197500D01*
X30795000Y-49970000D02*
X29015000Y-49970000D01*
X30795000Y-59370000D02*
X29015000Y-59370000D01*
X33715000Y-51870000D02*
X33715000Y-51070000D01*
X39417836Y-67890000D02*
X39202164Y-67890000D01*
X39417836Y-68610000D02*
X39202164Y-68610000D01*
D11*
X68720600Y-63960600D02*
X68720600Y-64287656D01*
X68720600Y-69272344D02*
X68720600Y-69599400D01*
X68720600Y-69599400D02*
X74359400Y-69599400D01*
X74359400Y-63960600D02*
X68720600Y-63960600D01*
X74359400Y-64287656D02*
X74359400Y-63960600D01*
X74359400Y-69599400D02*
X74359400Y-69272344D01*
D12*
X76490000Y-64487836D02*
X76490000Y-64272164D01*
X77210000Y-64487836D02*
X77210000Y-64272164D01*
X43590001Y-39789421D02*
X43590001Y-40070581D01*
X44610001Y-39789421D02*
X44610001Y-40070581D01*
X48960000Y-48220000D02*
X50360000Y-48220000D01*
X50360000Y-45900000D02*
X48460000Y-45900000D01*
X41080000Y-37163640D02*
X41080000Y-36856358D01*
X41840000Y-37163640D02*
X41840000Y-36856358D01*
X43044420Y-42790000D02*
X43325580Y-42790000D01*
X43044420Y-43810000D02*
X43325580Y-43810000D01*
X41975000Y-46378748D02*
X41975000Y-46901252D01*
X43445000Y-46378748D02*
X43445000Y-46901252D01*
X30810000Y-42116359D02*
X30810000Y-42423641D01*
X31570000Y-42116359D02*
X31570000Y-42423641D01*
X34756359Y-55800000D02*
X35063641Y-55800000D01*
X34756359Y-56560000D02*
X35063641Y-56560000D01*
X52820000Y-36149420D02*
X52820000Y-36430580D01*
X53840000Y-36149420D02*
X53840000Y-36430580D01*
X34766359Y-52760000D02*
X35073641Y-52760000D01*
X34766359Y-53520000D02*
X35073641Y-53520000D01*
X37710001Y-36792500D02*
X37710000Y-37592500D01*
X37710001Y-36792500D02*
X37710000Y-34992500D01*
X34589999Y-36792500D02*
X34590000Y-37592500D01*
X34589999Y-36792500D02*
X34590000Y-35992500D01*
X45260000Y-36583641D02*
X45260000Y-36276359D01*
X46020000Y-36583641D02*
X46020000Y-36276359D01*
X52010000Y-64079664D02*
X52010000Y-64295336D01*
X52730000Y-64079664D02*
X52730000Y-64295336D01*
D11*
X39313000Y-67517000D02*
X43567000Y-67517000D01*
X43567000Y-62263000D02*
X39313000Y-62263000D01*
D12*
X77580000Y-37353641D02*
X77580000Y-37046359D01*
X78340000Y-37353641D02*
X78340000Y-37046359D01*
X72861252Y-37915000D02*
X72338748Y-37915000D01*
X72861252Y-39385000D02*
X72338748Y-39385000D01*
X37697836Y-33810000D02*
X37482164Y-33810000D01*
X37697836Y-34530000D02*
X37482164Y-34530000D01*
X37180000Y-56982164D02*
X37180000Y-57197836D01*
X37900000Y-56982164D02*
X37900000Y-57197836D01*
D13*
X76870000Y-40000000D02*
X82270000Y-40000000D01*
X82270000Y-40000000D02*
X82270000Y-53200000D01*
X82270000Y-53200000D02*
X76870000Y-53200000D01*
D14*
X75370000Y-39250000D02*
G75*
G02*
X75170000Y-39250000I-100000J0D01*
G01*
X75170000Y-39250000D02*
G75*
G02*
X75370000Y-39250000I100000J0D01*
G01*
D12*
X52405000Y-40211252D02*
X52405000Y-39688748D01*
X53875000Y-40211252D02*
X53875000Y-39688748D01*
X77225000Y-33125000D02*
X77225000Y-35410000D01*
X78695000Y-33125000D02*
X77225000Y-33125000D01*
X78695000Y-35410000D02*
X78695000Y-33125000D01*
X35575001Y-70315000D02*
X35575001Y-71785000D01*
X35575001Y-71785000D02*
X37860001Y-71785000D01*
X37860001Y-70315000D02*
X35575001Y-70315000D01*
X52322164Y-52580000D02*
X52537836Y-52580000D01*
X52322164Y-53300000D02*
X52537836Y-53300000D01*
X63329420Y-38550000D02*
X63610580Y-38550000D01*
X63329420Y-39570000D02*
X63610580Y-39570000D01*
X37632164Y-39800000D02*
X37847836Y-39800000D01*
X37632164Y-39080000D02*
X37847836Y-39080000D01*
X40620001Y-54169664D02*
X40620001Y-54385336D01*
X41340001Y-54169664D02*
X41340001Y-54385336D01*
D13*
X35580000Y-42350000D02*
X35580000Y-43590000D01*
X35580000Y-48850000D02*
X35580000Y-47610000D01*
X39080000Y-42350000D02*
X35580000Y-42350000D01*
X39080000Y-48850000D02*
X35580000Y-48850000D01*
D14*
X40351000Y-48902000D02*
G75*
G02*
X40151000Y-48902000I-100000J0D01*
G01*
X40151000Y-48902000D02*
G75*
G02*
X40351000Y-48902000I100000J0D01*
G01*
D12*
X74289420Y-36340000D02*
X74570580Y-36340000D01*
X74289420Y-37360000D02*
X74570580Y-37360000D01*
%LPC*%
D15*
X74045000Y-44425000D02*
X74045000Y-45475000D01*
X72395000Y-45475000D01*
X72395000Y-43825000D01*
X73445000Y-43825000D01*
X74045000Y-44425000D01*
G36*
X74045000Y-44425000D02*
G01*
X74045000Y-45475000D01*
X72395000Y-45475000D01*
X72395000Y-43825000D01*
X73445000Y-43825000D01*
X74045000Y-44425000D01*
G37*
D16*
X52094999Y-46390318D03*
X58595001Y-46390318D03*
D17*
X50450000Y-67000000D03*
X54170000Y-67000000D03*
X56810000Y-56400000D03*
X57640000Y-50440000D03*
X34410000Y-67130000D03*
X34370000Y-62680000D03*
X47070000Y-62810000D03*
X44280000Y-60270000D03*
X46810000Y-66500000D03*
X63670000Y-41940000D03*
X65330000Y-64400000D03*
X55190000Y-42440001D03*
X73090000Y-59160000D03*
X73540000Y-55260000D03*
X68090000Y-57670000D03*
X30010000Y-48060000D03*
X49750000Y-36960000D03*
X42160000Y-40440000D03*
X36880000Y-29630000D03*
X33860000Y-27360000D03*
D18*
X58760000Y-68190002D03*
X58760000Y-61690000D03*
D19*
X58185000Y-60090000D03*
X56635000Y-60090000D03*
D20*
X39300000Y-35715000D03*
X39300000Y-37865000D03*
D21*
X32940000Y-37930000D03*
X33960000Y-37930000D03*
D22*
X35190000Y-39360001D03*
X35190000Y-40379999D03*
D23*
X78860000Y-60101250D03*
X78860000Y-61121250D03*
D24*
X39940000Y-53797500D03*
X39940000Y-54757500D03*
D23*
X47470000Y-48040000D03*
X47470000Y-47020000D03*
D25*
X54385000Y-54635000D03*
X53115000Y-54635000D03*
X51845000Y-54635000D03*
X50575000Y-54635000D03*
X50575000Y-59805000D03*
X51845000Y-59805000D03*
X53115000Y-59805000D03*
X54385000Y-59805000D03*
D26*
X66840000Y-34265000D03*
X66840000Y-37215000D03*
D24*
X38549999Y-56630000D03*
X38549999Y-57590000D03*
D21*
X48460000Y-45090000D03*
X49480000Y-45090000D03*
D27*
X53880000Y-62492500D03*
X53880000Y-64317500D03*
D22*
X72810000Y-27160000D03*
X72810000Y-28180000D03*
D28*
X45762050Y-38930040D03*
X45762050Y-39880000D03*
X45762050Y-40829960D03*
X48517950Y-40829960D03*
X48517950Y-38930040D03*
D29*
X60922500Y-41060000D03*
X60922500Y-40560000D03*
X60922500Y-40060000D03*
X60922500Y-39560000D03*
X60922500Y-39060000D03*
X60922500Y-38560000D03*
X60922500Y-38060000D03*
X60922500Y-37560000D03*
X60922500Y-37060000D03*
X60922500Y-36560000D03*
X60922500Y-36060000D03*
X60922500Y-35560000D03*
X60922500Y-35060000D03*
X60922500Y-34560000D03*
X60922500Y-34060000D03*
X60922500Y-33560000D03*
X60922500Y-33060000D03*
X60922500Y-32560000D03*
X60922500Y-32060000D03*
X55197500Y-32060000D03*
X55197500Y-32560000D03*
X55197500Y-33060000D03*
X55197500Y-33560000D03*
X55197500Y-34060000D03*
X55197500Y-34560000D03*
X55197500Y-35060000D03*
X55197500Y-35560000D03*
X55197500Y-36060000D03*
X55197500Y-36560000D03*
X55197500Y-37060000D03*
X55197500Y-37560000D03*
X55197500Y-38060000D03*
X55197500Y-38560000D03*
X55197500Y-39060000D03*
X55197500Y-39560000D03*
X55197500Y-40060000D03*
X55197500Y-40560000D03*
X55197500Y-41060000D03*
D30*
X72810000Y-31145000D03*
X72810000Y-29570000D03*
D31*
X35160000Y-34170000D03*
X36120000Y-34170000D03*
D32*
X64310000Y-35965000D03*
X64310000Y-37515000D03*
D33*
X36490000Y-65922500D03*
X36490000Y-64097500D03*
D34*
X43020001Y-55807500D03*
X42000001Y-55807500D03*
D35*
X42207500Y-51360000D03*
X42207500Y-51860000D03*
X42207500Y-52360000D03*
X42207500Y-52860000D03*
X42207500Y-53360000D03*
X42207500Y-53860000D03*
D36*
X42920000Y-54572500D03*
X43420000Y-54572500D03*
X43920000Y-54572500D03*
X44420000Y-54572500D03*
X44920000Y-54572500D03*
X45420000Y-54572500D03*
D35*
X46132500Y-53860000D03*
X46132500Y-53360000D03*
X46132500Y-52860000D03*
X46132500Y-52360000D03*
X46132500Y-51860000D03*
X46132500Y-51360000D03*
D36*
X45420000Y-50647500D03*
X44920000Y-50647500D03*
X44420000Y-50647500D03*
X43920000Y-50647500D03*
X43420000Y-50647500D03*
X42920000Y-50647500D03*
D37*
X44170000Y-52610000D03*
D32*
X60215001Y-46745318D03*
X60215001Y-48295318D03*
D22*
X60215450Y-44480318D03*
X60215450Y-45500318D03*
D32*
X50170000Y-39095000D03*
X50170000Y-40645000D03*
D38*
X29210000Y-29210000D03*
D33*
X50860000Y-64320000D03*
X50860000Y-62495000D03*
D22*
X31200000Y-39720002D03*
X31200000Y-40740002D03*
D34*
X40130000Y-71050000D03*
X39110000Y-71050000D03*
D39*
X45640001Y-33142502D03*
X45640001Y-34717502D03*
X41460000Y-33645000D03*
X41460000Y-35220000D03*
D32*
X62730000Y-35515000D03*
X62730000Y-37065000D03*
D39*
X78860000Y-58818751D03*
X78860000Y-57243751D03*
D38*
X29210000Y-72390000D03*
D34*
X44970000Y-55817500D03*
X43950000Y-55817500D03*
D40*
X31620000Y-51780000D03*
X31620000Y-57560000D03*
D41*
X32760000Y-51470000D03*
X32760000Y-52270000D03*
D42*
X32760000Y-53420000D03*
X32760000Y-54420000D03*
X32760000Y-54920000D03*
X32760000Y-55920000D03*
D41*
X32760000Y-57070000D03*
X32760000Y-57870000D03*
X32760000Y-57870000D03*
X32760000Y-57070000D03*
D42*
X32760000Y-56420000D03*
X32760000Y-55420000D03*
X32760000Y-53920000D03*
X32760000Y-52920000D03*
D41*
X32760000Y-52270000D03*
X32760000Y-51470000D03*
D43*
X32120000Y-50350000D03*
D44*
X27940000Y-50350000D03*
D43*
X32120000Y-58990000D03*
D44*
X27940000Y-58990000D03*
D45*
X39790000Y-68250000D03*
X38830000Y-68250000D03*
D38*
X78740000Y-29210000D03*
D46*
X67882400Y-64875000D03*
X67882400Y-66145000D03*
X67882400Y-67415000D03*
X67882400Y-68685000D03*
X75197600Y-68685000D03*
X75197600Y-67415000D03*
X75197600Y-66145000D03*
X75197600Y-64875000D03*
D47*
X76850000Y-64860000D03*
X76850000Y-63900000D03*
D32*
X44100001Y-39155001D03*
X44100001Y-40705001D03*
D48*
X48710000Y-46410000D03*
X48710000Y-47060000D03*
X48710000Y-47710000D03*
X50610000Y-47710000D03*
X50610000Y-47060000D03*
X50610000Y-46410000D03*
D23*
X41460000Y-37519999D03*
X41460000Y-36499999D03*
D49*
X42410000Y-43300000D03*
X43960000Y-43300000D03*
D50*
X42710000Y-45690000D03*
X42710000Y-47590000D03*
D22*
X31190000Y-41760000D03*
X31190000Y-42780000D03*
D21*
X34400000Y-56180000D03*
X35420000Y-56180000D03*
D32*
X53330000Y-35515000D03*
X53330000Y-37065000D03*
D21*
X34410000Y-53140000D03*
X35430000Y-53140000D03*
D51*
X37099999Y-35655000D03*
X36150000Y-35655000D03*
X35200001Y-35655000D03*
X35200001Y-37930000D03*
X36150000Y-37930000D03*
X37099999Y-37930000D03*
D23*
X45640000Y-36940000D03*
X45640000Y-35920000D03*
D24*
X52370000Y-63707500D03*
X52370000Y-64667500D03*
D52*
X43904999Y-66795000D03*
X43904999Y-65525000D03*
X43904999Y-64255000D03*
X43904999Y-62985000D03*
X38975001Y-62985000D03*
X38975001Y-64255000D03*
X38975001Y-65525000D03*
X38975001Y-66795000D03*
D23*
X77960000Y-37710000D03*
X77960000Y-36690000D03*
D53*
X73550000Y-38650000D03*
X71650000Y-38650000D03*
D45*
X38070000Y-34170000D03*
X37110000Y-34170000D03*
D24*
X37540000Y-56610000D03*
X37540000Y-57570000D03*
D54*
X75270000Y-40700000D03*
X74470000Y-40700000D03*
X73670000Y-40700000D03*
X72870000Y-40700000D03*
X72070000Y-40700000D03*
X71270000Y-40700000D03*
X70470000Y-40700000D03*
X69670000Y-40700000D03*
X68870000Y-40700000D03*
X68070000Y-40700000D03*
X67270000Y-40700000D03*
D55*
X66370000Y-41800000D03*
X66370000Y-42600000D03*
X66370000Y-43400000D03*
X66370000Y-44200000D03*
X66370000Y-45000000D03*
X66370000Y-45800000D03*
X66370000Y-46600000D03*
X66370000Y-47400000D03*
X66370000Y-48200000D03*
X66370000Y-49000000D03*
X66370000Y-49800000D03*
X66370000Y-50600000D03*
X66370000Y-51400000D03*
D54*
X67270000Y-52500000D03*
X68070000Y-52500000D03*
X68870000Y-52500000D03*
X69670000Y-52500000D03*
X70470000Y-52500000D03*
X71270000Y-52500000D03*
X72070000Y-52500000D03*
X72870000Y-52500000D03*
X73670000Y-52500000D03*
X74470000Y-52500000D03*
X75270000Y-52500000D03*
D55*
X76170000Y-51400000D03*
X76170000Y-50600000D03*
X76170000Y-49800000D03*
X76170000Y-49000000D03*
X76170000Y-48200000D03*
X76170000Y-47400000D03*
X76170000Y-46600000D03*
X76170000Y-45800000D03*
X76170000Y-45000000D03*
X76170000Y-44200000D03*
X76170000Y-43400000D03*
X76170000Y-42600000D03*
X76170000Y-41800000D03*
D56*
X71270000Y-46600000D03*
D57*
X76220000Y-52550000D03*
X66320000Y-52550000D03*
X66320000Y-40650000D03*
X76220000Y-40650000D03*
D56*
X71270000Y-44650000D03*
X69320000Y-44650000D03*
X69320000Y-46600000D03*
X69320000Y-48550000D03*
X71270000Y-48550000D03*
X73220000Y-48550000D03*
X73220000Y-46600000D03*
D58*
X53140000Y-40900000D03*
X53140000Y-39000000D03*
D38*
X78740000Y-72380000D03*
D39*
X77960000Y-33822500D03*
X77960000Y-35397500D03*
D59*
X36272501Y-71050000D03*
X37847501Y-71050000D03*
D31*
X51950000Y-52940000D03*
X52910000Y-52940000D03*
D49*
X62695000Y-39060000D03*
X64245000Y-39060000D03*
D31*
X38220000Y-39440000D03*
X37260000Y-39440000D03*
D24*
X40980001Y-53797500D03*
X40980001Y-54757500D03*
D60*
X40230000Y-47900000D03*
X40230000Y-45600000D03*
X40230000Y-43300000D03*
D61*
X34430000Y-45600000D03*
D49*
X73655000Y-36850000D03*
X75205000Y-36850000D03*
D62*
X28790000Y-44160000D03*
D63*
X28790000Y-41620000D03*
D64*
X28790000Y-39080000D03*
D63*
X28790000Y-36540000D03*
X41260000Y-28850000D03*
D64*
X43800000Y-28850000D03*
X46340000Y-28850000D03*
X48880000Y-28850000D03*
X51420000Y-28850000D03*
X53960000Y-28850000D03*
X56500000Y-28850000D03*
X59040000Y-28850000D03*
X61580000Y-28850000D03*
X64120000Y-28850000D03*
X66660000Y-28850000D03*
X69200000Y-28850000D03*
D63*
X51050000Y-72520000D03*
D64*
X48510000Y-72520000D03*
X45970000Y-72520000D03*
X43430000Y-72520000D03*
X28910000Y-67460000D03*
X28910000Y-64920000D03*
D63*
X28910000Y-62380000D03*
X72930000Y-72530000D03*
D64*
X70390000Y-72530000D03*
X67850000Y-72530000D03*
X65310000Y-72530000D03*
X62770000Y-72530000D03*
X60230000Y-72530000D03*
X57690000Y-72530000D03*
X55150000Y-72530000D03*
%LPD*%
M02*
