%TF.GenerationSoftware,KiCad,Pcbnew,8.0.6*%
%TF.CreationDate,2024-11-26T20:52:16-08:00*%
%TF.ProjectId,Constellation Stack V1.1,436f6e73-7465-46c6-9c61-74696f6e2053,rev?*%
%TF.SameCoordinates,Original*%
%TF.FileFunction,Drillmap*%
%TF.FilePolarity,Positive*%
%FSLAX45Y45*%
G04 Gerber Fmt 4.5, Leading zero omitted, Abs format (unit mm)*
G04 Created by KiCad (PCBNEW 8.0.6) date 2024-11-26 20:52:16*
%MOMM*%
%LPD*%
G01*
G04 APERTURE LIST*
%ADD10C,0.100000*%
%ADD11C,0.200000*%
G04 APERTURE END LIST*
D10*
X7874000Y-2540000D02*
G75*
G02*
X8255000Y-2921000I0J-381000D01*
G01*
X2540000Y-2921000D02*
G75*
G02*
X2921000Y-2540000I381000J0D01*
G01*
X7874000Y-7620000D02*
X2921000Y-7620000D01*
X8255000Y-2921000D02*
X8255000Y-7239000D01*
X2921000Y-7620000D02*
G75*
G02*
X2540000Y-7239000I0J381000D01*
G01*
X2540000Y-7239000D02*
X2540000Y-2921000D01*
X8255000Y-7239000D02*
G75*
G02*
X7874000Y-7620000I-381000J0D01*
G01*
X2921000Y-2540000D02*
X7874000Y-2540000D01*
D11*
D10*
X3129500Y-5145500D02*
X3194500Y-5210500D01*
X3194500Y-5145500D02*
X3129500Y-5210500D01*
X3129500Y-5723500D02*
X3194500Y-5788500D01*
X3194500Y-5723500D02*
X3129500Y-5788500D01*
D11*
X2795777Y-7936484D02*
X2795777Y-7736484D01*
X2795777Y-7736484D02*
X2843396Y-7736484D01*
X2843396Y-7736484D02*
X2871967Y-7746008D01*
X2871967Y-7746008D02*
X2891015Y-7765055D01*
X2891015Y-7765055D02*
X2900539Y-7784103D01*
X2900539Y-7784103D02*
X2910062Y-7822198D01*
X2910062Y-7822198D02*
X2910062Y-7850769D01*
X2910062Y-7850769D02*
X2900539Y-7888865D01*
X2900539Y-7888865D02*
X2891015Y-7907912D01*
X2891015Y-7907912D02*
X2871967Y-7926960D01*
X2871967Y-7926960D02*
X2843396Y-7936484D01*
X2843396Y-7936484D02*
X2795777Y-7936484D01*
X2995777Y-7936484D02*
X2995777Y-7803150D01*
X2995777Y-7841246D02*
X3005301Y-7822198D01*
X3005301Y-7822198D02*
X3014824Y-7812674D01*
X3014824Y-7812674D02*
X3033872Y-7803150D01*
X3033872Y-7803150D02*
X3052920Y-7803150D01*
X3119586Y-7936484D02*
X3119586Y-7803150D01*
X3119586Y-7736484D02*
X3110062Y-7746008D01*
X3110062Y-7746008D02*
X3119586Y-7755531D01*
X3119586Y-7755531D02*
X3129110Y-7746008D01*
X3129110Y-7746008D02*
X3119586Y-7736484D01*
X3119586Y-7736484D02*
X3119586Y-7755531D01*
X3243396Y-7936484D02*
X3224348Y-7926960D01*
X3224348Y-7926960D02*
X3214824Y-7907912D01*
X3214824Y-7907912D02*
X3214824Y-7736484D01*
X3348158Y-7936484D02*
X3329110Y-7926960D01*
X3329110Y-7926960D02*
X3319586Y-7907912D01*
X3319586Y-7907912D02*
X3319586Y-7736484D01*
X3576729Y-7936484D02*
X3576729Y-7736484D01*
X3576729Y-7736484D02*
X3643396Y-7879341D01*
X3643396Y-7879341D02*
X3710062Y-7736484D01*
X3710062Y-7736484D02*
X3710062Y-7936484D01*
X3891015Y-7936484D02*
X3891015Y-7831722D01*
X3891015Y-7831722D02*
X3881491Y-7812674D01*
X3881491Y-7812674D02*
X3862443Y-7803150D01*
X3862443Y-7803150D02*
X3824348Y-7803150D01*
X3824348Y-7803150D02*
X3805301Y-7812674D01*
X3891015Y-7926960D02*
X3871967Y-7936484D01*
X3871967Y-7936484D02*
X3824348Y-7936484D01*
X3824348Y-7936484D02*
X3805301Y-7926960D01*
X3805301Y-7926960D02*
X3795777Y-7907912D01*
X3795777Y-7907912D02*
X3795777Y-7888865D01*
X3795777Y-7888865D02*
X3805301Y-7869817D01*
X3805301Y-7869817D02*
X3824348Y-7860293D01*
X3824348Y-7860293D02*
X3871967Y-7860293D01*
X3871967Y-7860293D02*
X3891015Y-7850769D01*
X3986253Y-7803150D02*
X3986253Y-8003150D01*
X3986253Y-7812674D02*
X4005301Y-7803150D01*
X4005301Y-7803150D02*
X4043396Y-7803150D01*
X4043396Y-7803150D02*
X4062443Y-7812674D01*
X4062443Y-7812674D02*
X4071967Y-7822198D01*
X4071967Y-7822198D02*
X4081491Y-7841246D01*
X4081491Y-7841246D02*
X4081491Y-7898388D01*
X4081491Y-7898388D02*
X4071967Y-7917436D01*
X4071967Y-7917436D02*
X4062443Y-7926960D01*
X4062443Y-7926960D02*
X4043396Y-7936484D01*
X4043396Y-7936484D02*
X4005301Y-7936484D01*
X4005301Y-7936484D02*
X3986253Y-7926960D01*
X4167205Y-7917436D02*
X4176729Y-7926960D01*
X4176729Y-7926960D02*
X4167205Y-7936484D01*
X4167205Y-7936484D02*
X4157682Y-7926960D01*
X4157682Y-7926960D02*
X4167205Y-7917436D01*
X4167205Y-7917436D02*
X4167205Y-7936484D01*
X4167205Y-7812674D02*
X4176729Y-7822198D01*
X4176729Y-7822198D02*
X4167205Y-7831722D01*
X4167205Y-7831722D02*
X4157682Y-7822198D01*
X4157682Y-7822198D02*
X4167205Y-7812674D01*
X4167205Y-7812674D02*
X4167205Y-7831722D01*
D10*
X2470000Y-8232500D02*
X2535000Y-8297500D01*
X2535000Y-8232500D02*
X2470000Y-8297500D01*
D11*
X2833872Y-8156484D02*
X2852920Y-8156484D01*
X2852920Y-8156484D02*
X2871967Y-8166008D01*
X2871967Y-8166008D02*
X2881491Y-8175531D01*
X2881491Y-8175531D02*
X2891015Y-8194579D01*
X2891015Y-8194579D02*
X2900539Y-8232674D01*
X2900539Y-8232674D02*
X2900539Y-8280293D01*
X2900539Y-8280293D02*
X2891015Y-8318388D01*
X2891015Y-8318388D02*
X2881491Y-8337436D01*
X2881491Y-8337436D02*
X2871967Y-8346960D01*
X2871967Y-8346960D02*
X2852920Y-8356484D01*
X2852920Y-8356484D02*
X2833872Y-8356484D01*
X2833872Y-8356484D02*
X2814824Y-8346960D01*
X2814824Y-8346960D02*
X2805301Y-8337436D01*
X2805301Y-8337436D02*
X2795777Y-8318388D01*
X2795777Y-8318388D02*
X2786253Y-8280293D01*
X2786253Y-8280293D02*
X2786253Y-8232674D01*
X2786253Y-8232674D02*
X2795777Y-8194579D01*
X2795777Y-8194579D02*
X2805301Y-8175531D01*
X2805301Y-8175531D02*
X2814824Y-8166008D01*
X2814824Y-8166008D02*
X2833872Y-8156484D01*
X2986253Y-8337436D02*
X2995777Y-8346960D01*
X2995777Y-8346960D02*
X2986253Y-8356484D01*
X2986253Y-8356484D02*
X2976729Y-8346960D01*
X2976729Y-8346960D02*
X2986253Y-8337436D01*
X2986253Y-8337436D02*
X2986253Y-8356484D01*
X3167205Y-8156484D02*
X3129110Y-8156484D01*
X3129110Y-8156484D02*
X3110062Y-8166008D01*
X3110062Y-8166008D02*
X3100539Y-8175531D01*
X3100539Y-8175531D02*
X3081491Y-8204103D01*
X3081491Y-8204103D02*
X3071967Y-8242198D01*
X3071967Y-8242198D02*
X3071967Y-8318388D01*
X3071967Y-8318388D02*
X3081491Y-8337436D01*
X3081491Y-8337436D02*
X3091015Y-8346960D01*
X3091015Y-8346960D02*
X3110062Y-8356484D01*
X3110062Y-8356484D02*
X3148158Y-8356484D01*
X3148158Y-8356484D02*
X3167205Y-8346960D01*
X3167205Y-8346960D02*
X3176729Y-8337436D01*
X3176729Y-8337436D02*
X3186253Y-8318388D01*
X3186253Y-8318388D02*
X3186253Y-8270769D01*
X3186253Y-8270769D02*
X3176729Y-8251722D01*
X3176729Y-8251722D02*
X3167205Y-8242198D01*
X3167205Y-8242198D02*
X3148158Y-8232674D01*
X3148158Y-8232674D02*
X3110062Y-8232674D01*
X3110062Y-8232674D02*
X3091015Y-8242198D01*
X3091015Y-8242198D02*
X3081491Y-8251722D01*
X3081491Y-8251722D02*
X3071967Y-8270769D01*
X3367205Y-8156484D02*
X3271967Y-8156484D01*
X3271967Y-8156484D02*
X3262443Y-8251722D01*
X3262443Y-8251722D02*
X3271967Y-8242198D01*
X3271967Y-8242198D02*
X3291015Y-8232674D01*
X3291015Y-8232674D02*
X3338634Y-8232674D01*
X3338634Y-8232674D02*
X3357682Y-8242198D01*
X3357682Y-8242198D02*
X3367205Y-8251722D01*
X3367205Y-8251722D02*
X3376729Y-8270769D01*
X3376729Y-8270769D02*
X3376729Y-8318388D01*
X3376729Y-8318388D02*
X3367205Y-8337436D01*
X3367205Y-8337436D02*
X3357682Y-8346960D01*
X3357682Y-8346960D02*
X3338634Y-8356484D01*
X3338634Y-8356484D02*
X3291015Y-8356484D01*
X3291015Y-8356484D02*
X3271967Y-8346960D01*
X3271967Y-8346960D02*
X3262443Y-8337436D01*
X3500539Y-8156484D02*
X3519586Y-8156484D01*
X3519586Y-8156484D02*
X3538634Y-8166008D01*
X3538634Y-8166008D02*
X3548158Y-8175531D01*
X3548158Y-8175531D02*
X3557682Y-8194579D01*
X3557682Y-8194579D02*
X3567205Y-8232674D01*
X3567205Y-8232674D02*
X3567205Y-8280293D01*
X3567205Y-8280293D02*
X3557682Y-8318388D01*
X3557682Y-8318388D02*
X3548158Y-8337436D01*
X3548158Y-8337436D02*
X3538634Y-8346960D01*
X3538634Y-8346960D02*
X3519586Y-8356484D01*
X3519586Y-8356484D02*
X3500539Y-8356484D01*
X3500539Y-8356484D02*
X3481491Y-8346960D01*
X3481491Y-8346960D02*
X3471967Y-8337436D01*
X3471967Y-8337436D02*
X3462443Y-8318388D01*
X3462443Y-8318388D02*
X3452920Y-8280293D01*
X3452920Y-8280293D02*
X3452920Y-8232674D01*
X3452920Y-8232674D02*
X3462443Y-8194579D01*
X3462443Y-8194579D02*
X3471967Y-8175531D01*
X3471967Y-8175531D02*
X3481491Y-8166008D01*
X3481491Y-8166008D02*
X3500539Y-8156484D01*
X3652920Y-8356484D02*
X3652920Y-8223150D01*
X3652920Y-8242198D02*
X3662443Y-8232674D01*
X3662443Y-8232674D02*
X3681491Y-8223150D01*
X3681491Y-8223150D02*
X3710063Y-8223150D01*
X3710063Y-8223150D02*
X3729110Y-8232674D01*
X3729110Y-8232674D02*
X3738634Y-8251722D01*
X3738634Y-8251722D02*
X3738634Y-8356484D01*
X3738634Y-8251722D02*
X3748158Y-8232674D01*
X3748158Y-8232674D02*
X3767205Y-8223150D01*
X3767205Y-8223150D02*
X3795777Y-8223150D01*
X3795777Y-8223150D02*
X3814824Y-8232674D01*
X3814824Y-8232674D02*
X3824348Y-8251722D01*
X3824348Y-8251722D02*
X3824348Y-8356484D01*
X3919586Y-8356484D02*
X3919586Y-8223150D01*
X3919586Y-8242198D02*
X3929110Y-8232674D01*
X3929110Y-8232674D02*
X3948158Y-8223150D01*
X3948158Y-8223150D02*
X3976729Y-8223150D01*
X3976729Y-8223150D02*
X3995777Y-8232674D01*
X3995777Y-8232674D02*
X4005301Y-8251722D01*
X4005301Y-8251722D02*
X4005301Y-8356484D01*
X4005301Y-8251722D02*
X4014824Y-8232674D01*
X4014824Y-8232674D02*
X4033872Y-8223150D01*
X4033872Y-8223150D02*
X4062443Y-8223150D01*
X4062443Y-8223150D02*
X4081491Y-8232674D01*
X4081491Y-8232674D02*
X4091015Y-8251722D01*
X4091015Y-8251722D02*
X4091015Y-8356484D01*
X4481491Y-8146960D02*
X4310063Y-8404103D01*
X4738634Y-8156484D02*
X4757682Y-8156484D01*
X4757682Y-8156484D02*
X4776729Y-8166008D01*
X4776729Y-8166008D02*
X4786253Y-8175531D01*
X4786253Y-8175531D02*
X4795777Y-8194579D01*
X4795777Y-8194579D02*
X4805301Y-8232674D01*
X4805301Y-8232674D02*
X4805301Y-8280293D01*
X4805301Y-8280293D02*
X4795777Y-8318388D01*
X4795777Y-8318388D02*
X4786253Y-8337436D01*
X4786253Y-8337436D02*
X4776729Y-8346960D01*
X4776729Y-8346960D02*
X4757682Y-8356484D01*
X4757682Y-8356484D02*
X4738634Y-8356484D01*
X4738634Y-8356484D02*
X4719587Y-8346960D01*
X4719587Y-8346960D02*
X4710063Y-8337436D01*
X4710063Y-8337436D02*
X4700539Y-8318388D01*
X4700539Y-8318388D02*
X4691015Y-8280293D01*
X4691015Y-8280293D02*
X4691015Y-8232674D01*
X4691015Y-8232674D02*
X4700539Y-8194579D01*
X4700539Y-8194579D02*
X4710063Y-8175531D01*
X4710063Y-8175531D02*
X4719587Y-8166008D01*
X4719587Y-8166008D02*
X4738634Y-8156484D01*
X4891015Y-8337436D02*
X4900539Y-8346960D01*
X4900539Y-8346960D02*
X4891015Y-8356484D01*
X4891015Y-8356484D02*
X4881491Y-8346960D01*
X4881491Y-8346960D02*
X4891015Y-8337436D01*
X4891015Y-8337436D02*
X4891015Y-8356484D01*
X5024348Y-8156484D02*
X5043396Y-8156484D01*
X5043396Y-8156484D02*
X5062444Y-8166008D01*
X5062444Y-8166008D02*
X5071968Y-8175531D01*
X5071968Y-8175531D02*
X5081491Y-8194579D01*
X5081491Y-8194579D02*
X5091015Y-8232674D01*
X5091015Y-8232674D02*
X5091015Y-8280293D01*
X5091015Y-8280293D02*
X5081491Y-8318388D01*
X5081491Y-8318388D02*
X5071968Y-8337436D01*
X5071968Y-8337436D02*
X5062444Y-8346960D01*
X5062444Y-8346960D02*
X5043396Y-8356484D01*
X5043396Y-8356484D02*
X5024348Y-8356484D01*
X5024348Y-8356484D02*
X5005301Y-8346960D01*
X5005301Y-8346960D02*
X4995777Y-8337436D01*
X4995777Y-8337436D02*
X4986253Y-8318388D01*
X4986253Y-8318388D02*
X4976729Y-8280293D01*
X4976729Y-8280293D02*
X4976729Y-8232674D01*
X4976729Y-8232674D02*
X4986253Y-8194579D01*
X4986253Y-8194579D02*
X4995777Y-8175531D01*
X4995777Y-8175531D02*
X5005301Y-8166008D01*
X5005301Y-8166008D02*
X5024348Y-8156484D01*
X5167206Y-8175531D02*
X5176729Y-8166008D01*
X5176729Y-8166008D02*
X5195777Y-8156484D01*
X5195777Y-8156484D02*
X5243396Y-8156484D01*
X5243396Y-8156484D02*
X5262444Y-8166008D01*
X5262444Y-8166008D02*
X5271968Y-8175531D01*
X5271968Y-8175531D02*
X5281491Y-8194579D01*
X5281491Y-8194579D02*
X5281491Y-8213627D01*
X5281491Y-8213627D02*
X5271968Y-8242198D01*
X5271968Y-8242198D02*
X5157682Y-8356484D01*
X5157682Y-8356484D02*
X5281491Y-8356484D01*
X5462444Y-8156484D02*
X5367206Y-8156484D01*
X5367206Y-8156484D02*
X5357682Y-8251722D01*
X5357682Y-8251722D02*
X5367206Y-8242198D01*
X5367206Y-8242198D02*
X5386253Y-8232674D01*
X5386253Y-8232674D02*
X5433872Y-8232674D01*
X5433872Y-8232674D02*
X5452920Y-8242198D01*
X5452920Y-8242198D02*
X5462444Y-8251722D01*
X5462444Y-8251722D02*
X5471968Y-8270769D01*
X5471968Y-8270769D02*
X5471968Y-8318388D01*
X5471968Y-8318388D02*
X5462444Y-8337436D01*
X5462444Y-8337436D02*
X5452920Y-8346960D01*
X5452920Y-8346960D02*
X5433872Y-8356484D01*
X5433872Y-8356484D02*
X5386253Y-8356484D01*
X5386253Y-8356484D02*
X5367206Y-8346960D01*
X5367206Y-8346960D02*
X5357682Y-8337436D01*
X5643396Y-8156484D02*
X5605301Y-8156484D01*
X5605301Y-8156484D02*
X5586253Y-8166008D01*
X5586253Y-8166008D02*
X5576729Y-8175531D01*
X5576729Y-8175531D02*
X5557682Y-8204103D01*
X5557682Y-8204103D02*
X5548158Y-8242198D01*
X5548158Y-8242198D02*
X5548158Y-8318388D01*
X5548158Y-8318388D02*
X5557682Y-8337436D01*
X5557682Y-8337436D02*
X5567206Y-8346960D01*
X5567206Y-8346960D02*
X5586253Y-8356484D01*
X5586253Y-8356484D02*
X5624348Y-8356484D01*
X5624348Y-8356484D02*
X5643396Y-8346960D01*
X5643396Y-8346960D02*
X5652920Y-8337436D01*
X5652920Y-8337436D02*
X5662444Y-8318388D01*
X5662444Y-8318388D02*
X5662444Y-8270769D01*
X5662444Y-8270769D02*
X5652920Y-8251722D01*
X5652920Y-8251722D02*
X5643396Y-8242198D01*
X5643396Y-8242198D02*
X5624348Y-8232674D01*
X5624348Y-8232674D02*
X5586253Y-8232674D01*
X5586253Y-8232674D02*
X5567206Y-8242198D01*
X5567206Y-8242198D02*
X5557682Y-8251722D01*
X5557682Y-8251722D02*
X5548158Y-8270769D01*
X5738634Y-8156484D02*
X5738634Y-8194579D01*
X5814825Y-8156484D02*
X5814825Y-8194579D01*
X6110063Y-8432674D02*
X6100539Y-8423150D01*
X6100539Y-8423150D02*
X6081491Y-8394579D01*
X6081491Y-8394579D02*
X6071968Y-8375531D01*
X6071968Y-8375531D02*
X6062444Y-8346960D01*
X6062444Y-8346960D02*
X6052920Y-8299341D01*
X6052920Y-8299341D02*
X6052920Y-8261246D01*
X6052920Y-8261246D02*
X6062444Y-8213627D01*
X6062444Y-8213627D02*
X6071968Y-8185055D01*
X6071968Y-8185055D02*
X6081491Y-8166008D01*
X6081491Y-8166008D02*
X6100539Y-8137436D01*
X6100539Y-8137436D02*
X6110063Y-8127912D01*
X6176729Y-8175531D02*
X6186253Y-8166008D01*
X6186253Y-8166008D02*
X6205301Y-8156484D01*
X6205301Y-8156484D02*
X6252920Y-8156484D01*
X6252920Y-8156484D02*
X6271968Y-8166008D01*
X6271968Y-8166008D02*
X6281491Y-8175531D01*
X6281491Y-8175531D02*
X6291015Y-8194579D01*
X6291015Y-8194579D02*
X6291015Y-8213627D01*
X6291015Y-8213627D02*
X6281491Y-8242198D01*
X6281491Y-8242198D02*
X6167206Y-8356484D01*
X6167206Y-8356484D02*
X6291015Y-8356484D01*
X6529110Y-8356484D02*
X6529110Y-8156484D01*
X6614825Y-8356484D02*
X6614825Y-8251722D01*
X6614825Y-8251722D02*
X6605301Y-8232674D01*
X6605301Y-8232674D02*
X6586253Y-8223150D01*
X6586253Y-8223150D02*
X6557682Y-8223150D01*
X6557682Y-8223150D02*
X6538634Y-8232674D01*
X6538634Y-8232674D02*
X6529110Y-8242198D01*
X6738634Y-8356484D02*
X6719587Y-8346960D01*
X6719587Y-8346960D02*
X6710063Y-8337436D01*
X6710063Y-8337436D02*
X6700539Y-8318388D01*
X6700539Y-8318388D02*
X6700539Y-8261246D01*
X6700539Y-8261246D02*
X6710063Y-8242198D01*
X6710063Y-8242198D02*
X6719587Y-8232674D01*
X6719587Y-8232674D02*
X6738634Y-8223150D01*
X6738634Y-8223150D02*
X6767206Y-8223150D01*
X6767206Y-8223150D02*
X6786253Y-8232674D01*
X6786253Y-8232674D02*
X6795777Y-8242198D01*
X6795777Y-8242198D02*
X6805301Y-8261246D01*
X6805301Y-8261246D02*
X6805301Y-8318388D01*
X6805301Y-8318388D02*
X6795777Y-8337436D01*
X6795777Y-8337436D02*
X6786253Y-8346960D01*
X6786253Y-8346960D02*
X6767206Y-8356484D01*
X6767206Y-8356484D02*
X6738634Y-8356484D01*
X6919587Y-8356484D02*
X6900539Y-8346960D01*
X6900539Y-8346960D02*
X6891015Y-8327912D01*
X6891015Y-8327912D02*
X6891015Y-8156484D01*
X7071968Y-8346960D02*
X7052920Y-8356484D01*
X7052920Y-8356484D02*
X7014825Y-8356484D01*
X7014825Y-8356484D02*
X6995777Y-8346960D01*
X6995777Y-8346960D02*
X6986253Y-8327912D01*
X6986253Y-8327912D02*
X6986253Y-8251722D01*
X6986253Y-8251722D02*
X6995777Y-8232674D01*
X6995777Y-8232674D02*
X7014825Y-8223150D01*
X7014825Y-8223150D02*
X7052920Y-8223150D01*
X7052920Y-8223150D02*
X7071968Y-8232674D01*
X7071968Y-8232674D02*
X7081491Y-8251722D01*
X7081491Y-8251722D02*
X7081491Y-8270769D01*
X7081491Y-8270769D02*
X6986253Y-8289817D01*
X7157682Y-8346960D02*
X7176730Y-8356484D01*
X7176730Y-8356484D02*
X7214825Y-8356484D01*
X7214825Y-8356484D02*
X7233872Y-8346960D01*
X7233872Y-8346960D02*
X7243396Y-8327912D01*
X7243396Y-8327912D02*
X7243396Y-8318388D01*
X7243396Y-8318388D02*
X7233872Y-8299341D01*
X7233872Y-8299341D02*
X7214825Y-8289817D01*
X7214825Y-8289817D02*
X7186253Y-8289817D01*
X7186253Y-8289817D02*
X7167206Y-8280293D01*
X7167206Y-8280293D02*
X7157682Y-8261246D01*
X7157682Y-8261246D02*
X7157682Y-8251722D01*
X7157682Y-8251722D02*
X7167206Y-8232674D01*
X7167206Y-8232674D02*
X7186253Y-8223150D01*
X7186253Y-8223150D02*
X7214825Y-8223150D01*
X7214825Y-8223150D02*
X7233872Y-8232674D01*
X7310063Y-8432674D02*
X7319587Y-8423150D01*
X7319587Y-8423150D02*
X7338634Y-8394579D01*
X7338634Y-8394579D02*
X7348158Y-8375531D01*
X7348158Y-8375531D02*
X7357682Y-8346960D01*
X7357682Y-8346960D02*
X7367206Y-8299341D01*
X7367206Y-8299341D02*
X7367206Y-8261246D01*
X7367206Y-8261246D02*
X7357682Y-8213627D01*
X7357682Y-8213627D02*
X7348158Y-8185055D01*
X7348158Y-8185055D02*
X7338634Y-8166008D01*
X7338634Y-8166008D02*
X7319587Y-8137436D01*
X7319587Y-8137436D02*
X7310063Y-8127912D01*
X7671968Y-8432674D02*
X7662444Y-8423150D01*
X7662444Y-8423150D02*
X7643396Y-8394579D01*
X7643396Y-8394579D02*
X7633872Y-8375531D01*
X7633872Y-8375531D02*
X7624349Y-8346960D01*
X7624349Y-8346960D02*
X7614825Y-8299341D01*
X7614825Y-8299341D02*
X7614825Y-8261246D01*
X7614825Y-8261246D02*
X7624349Y-8213627D01*
X7624349Y-8213627D02*
X7633872Y-8185055D01*
X7633872Y-8185055D02*
X7643396Y-8166008D01*
X7643396Y-8166008D02*
X7662444Y-8137436D01*
X7662444Y-8137436D02*
X7671968Y-8127912D01*
X7748158Y-8223150D02*
X7748158Y-8356484D01*
X7748158Y-8242198D02*
X7757682Y-8232674D01*
X7757682Y-8232674D02*
X7776730Y-8223150D01*
X7776730Y-8223150D02*
X7805301Y-8223150D01*
X7805301Y-8223150D02*
X7824349Y-8232674D01*
X7824349Y-8232674D02*
X7833872Y-8251722D01*
X7833872Y-8251722D02*
X7833872Y-8356484D01*
X7957682Y-8356484D02*
X7938634Y-8346960D01*
X7938634Y-8346960D02*
X7929111Y-8337436D01*
X7929111Y-8337436D02*
X7919587Y-8318388D01*
X7919587Y-8318388D02*
X7919587Y-8261246D01*
X7919587Y-8261246D02*
X7929111Y-8242198D01*
X7929111Y-8242198D02*
X7938634Y-8232674D01*
X7938634Y-8232674D02*
X7957682Y-8223150D01*
X7957682Y-8223150D02*
X7986253Y-8223150D01*
X7986253Y-8223150D02*
X8005301Y-8232674D01*
X8005301Y-8232674D02*
X8014825Y-8242198D01*
X8014825Y-8242198D02*
X8024349Y-8261246D01*
X8024349Y-8261246D02*
X8024349Y-8318388D01*
X8024349Y-8318388D02*
X8014825Y-8337436D01*
X8014825Y-8337436D02*
X8005301Y-8346960D01*
X8005301Y-8346960D02*
X7986253Y-8356484D01*
X7986253Y-8356484D02*
X7957682Y-8356484D01*
X8081492Y-8223150D02*
X8157682Y-8223150D01*
X8110063Y-8156484D02*
X8110063Y-8327912D01*
X8110063Y-8327912D02*
X8119587Y-8346960D01*
X8119587Y-8346960D02*
X8138634Y-8356484D01*
X8138634Y-8356484D02*
X8157682Y-8356484D01*
X8376730Y-8223150D02*
X8376730Y-8423150D01*
X8376730Y-8232674D02*
X8395777Y-8223150D01*
X8395777Y-8223150D02*
X8433873Y-8223150D01*
X8433873Y-8223150D02*
X8452920Y-8232674D01*
X8452920Y-8232674D02*
X8462444Y-8242198D01*
X8462444Y-8242198D02*
X8471968Y-8261246D01*
X8471968Y-8261246D02*
X8471968Y-8318388D01*
X8471968Y-8318388D02*
X8462444Y-8337436D01*
X8462444Y-8337436D02*
X8452920Y-8346960D01*
X8452920Y-8346960D02*
X8433873Y-8356484D01*
X8433873Y-8356484D02*
X8395777Y-8356484D01*
X8395777Y-8356484D02*
X8376730Y-8346960D01*
X8586254Y-8356484D02*
X8567206Y-8346960D01*
X8567206Y-8346960D02*
X8557682Y-8327912D01*
X8557682Y-8327912D02*
X8557682Y-8156484D01*
X8748158Y-8356484D02*
X8748158Y-8251722D01*
X8748158Y-8251722D02*
X8738635Y-8232674D01*
X8738635Y-8232674D02*
X8719587Y-8223150D01*
X8719587Y-8223150D02*
X8681492Y-8223150D01*
X8681492Y-8223150D02*
X8662444Y-8232674D01*
X8748158Y-8346960D02*
X8729111Y-8356484D01*
X8729111Y-8356484D02*
X8681492Y-8356484D01*
X8681492Y-8356484D02*
X8662444Y-8346960D01*
X8662444Y-8346960D02*
X8652920Y-8327912D01*
X8652920Y-8327912D02*
X8652920Y-8308865D01*
X8652920Y-8308865D02*
X8662444Y-8289817D01*
X8662444Y-8289817D02*
X8681492Y-8280293D01*
X8681492Y-8280293D02*
X8729111Y-8280293D01*
X8729111Y-8280293D02*
X8748158Y-8270769D01*
X8814825Y-8223150D02*
X8891015Y-8223150D01*
X8843396Y-8156484D02*
X8843396Y-8327912D01*
X8843396Y-8327912D02*
X8852920Y-8346960D01*
X8852920Y-8346960D02*
X8871968Y-8356484D01*
X8871968Y-8356484D02*
X8891015Y-8356484D01*
X9033873Y-8346960D02*
X9014825Y-8356484D01*
X9014825Y-8356484D02*
X8976730Y-8356484D01*
X8976730Y-8356484D02*
X8957682Y-8346960D01*
X8957682Y-8346960D02*
X8948158Y-8327912D01*
X8948158Y-8327912D02*
X8948158Y-8251722D01*
X8948158Y-8251722D02*
X8957682Y-8232674D01*
X8957682Y-8232674D02*
X8976730Y-8223150D01*
X8976730Y-8223150D02*
X9014825Y-8223150D01*
X9014825Y-8223150D02*
X9033873Y-8232674D01*
X9033873Y-8232674D02*
X9043396Y-8251722D01*
X9043396Y-8251722D02*
X9043396Y-8270769D01*
X9043396Y-8270769D02*
X8948158Y-8289817D01*
X9214825Y-8356484D02*
X9214825Y-8156484D01*
X9214825Y-8346960D02*
X9195777Y-8356484D01*
X9195777Y-8356484D02*
X9157682Y-8356484D01*
X9157682Y-8356484D02*
X9138635Y-8346960D01*
X9138635Y-8346960D02*
X9129111Y-8337436D01*
X9129111Y-8337436D02*
X9119587Y-8318388D01*
X9119587Y-8318388D02*
X9119587Y-8261246D01*
X9119587Y-8261246D02*
X9129111Y-8242198D01*
X9129111Y-8242198D02*
X9138635Y-8232674D01*
X9138635Y-8232674D02*
X9157682Y-8223150D01*
X9157682Y-8223150D02*
X9195777Y-8223150D01*
X9195777Y-8223150D02*
X9214825Y-8232674D01*
X9291016Y-8432674D02*
X9300539Y-8423150D01*
X9300539Y-8423150D02*
X9319587Y-8394579D01*
X9319587Y-8394579D02*
X9329111Y-8375531D01*
X9329111Y-8375531D02*
X9338635Y-8346960D01*
X9338635Y-8346960D02*
X9348158Y-8299341D01*
X9348158Y-8299341D02*
X9348158Y-8261246D01*
X9348158Y-8261246D02*
X9338635Y-8213627D01*
X9338635Y-8213627D02*
X9329111Y-8185055D01*
X9329111Y-8185055D02*
X9319587Y-8166008D01*
X9319587Y-8166008D02*
X9300539Y-8137436D01*
X9300539Y-8137436D02*
X9291016Y-8127912D01*
M02*
