M48
; DRILL file {KiCad (6.0.7)} date Tue Jun 27 12:53:48 2023
; FORMAT={-:-/ absolute / metric / decimal}
; #@! TF.CreationDate,2023-06-27T12:53:48-07:00
; #@! TF.GenerationSoftware,Kicad,Pcbnew,(6.0.7)
; #@! TF.FileFunction,Plated,1,2,PTH
FMAT,2
METRIC
; #@! TA.AperFunction,Plated,PTH,ViaDrill
T1C0.400
; #@! TA.AperFunction,Plated,PTH,ComponentDrill
T2C1.100
; #@! TA.AperFunction,Plated,PTH,ComponentDrill
T3C1.850
; #@! TA.AperFunction,Plated,PTH,ComponentDrill
T4C3.200
%
G90
G05
T1
X36.833Y-34.677
X44.529Y-34.677
X52.225Y-34.677
X54.701Y-59.57
X59.896Y-34.677
X67.592Y-34.677
X75.288Y-34.677
X83.01Y-34.677
X90.706Y-34.677
T2
X57.63Y-30.18
X60.17Y-30.18
X62.71Y-30.18
X63.84Y-59.5
X65.25Y-30.18
X66.38Y-59.5
X67.79Y-30.18
X70.33Y-30.18
X72.87Y-30.18
X75.41Y-30.18
T3
X36.847Y-43.49
X36.847Y-48.19
X36.847Y-52.89
X44.536Y-43.49
X44.536Y-48.19
X44.536Y-52.89
X52.225Y-43.49
X52.225Y-48.19
X52.225Y-52.89
X59.914Y-43.49
X59.914Y-48.19
X59.914Y-52.89
X67.603Y-43.49
X67.603Y-48.19
X67.603Y-52.89
X75.292Y-43.49
X75.292Y-48.19
X75.292Y-52.89
X82.981Y-43.49
X82.981Y-48.19
X82.981Y-52.89
X90.67Y-43.49
X90.67Y-48.19
X90.67Y-52.89
T4
X30.48Y-31.75
X30.48Y-57.15
X96.52Y-31.75
X96.52Y-57.15
T0
M30
