%TF.GenerationSoftware,KiCad,Pcbnew,(6.0.7)*%
%TF.CreationDate,2023-06-27T12:53:49-07:00*%
%TF.ProjectId,Power Supply Board Ground Systems,506f7765-7220-4537-9570-706c7920426f,rev?*%
%TF.SameCoordinates,Original*%
%TF.FileFunction,Drillmap*%
%TF.FilePolarity,Positive*%
%FSLAX45Y45*%
G04 Gerber Fmt 4.5, Leading zero omitted, Abs format (unit mm)*
G04 Created by KiCad (PCBNEW (6.0.7)) date 2023-06-27 12:53:49*
%MOMM*%
%LPD*%
G01*
G04 APERTURE LIST*
%ADD10C,0.100000*%
%ADD11C,0.200000*%
G04 APERTURE END LIST*
D10*
X2540000Y-2540000D02*
X10160000Y-2540000D01*
X10160000Y-2540000D02*
X10160000Y-6350000D01*
X10160000Y-6350000D02*
X2540000Y-6350000D01*
X2540000Y-6350000D02*
X2540000Y-2540000D01*
D11*
X2792619Y-6665476D02*
X2792619Y-6465476D01*
X2840238Y-6465476D01*
X2868809Y-6475000D01*
X2887857Y-6494048D01*
X2897381Y-6513095D01*
X2906905Y-6551190D01*
X2906905Y-6579762D01*
X2897381Y-6617857D01*
X2887857Y-6636905D01*
X2868809Y-6655952D01*
X2840238Y-6665476D01*
X2792619Y-6665476D01*
X2992619Y-6665476D02*
X2992619Y-6532143D01*
X2992619Y-6570238D02*
X3002143Y-6551190D01*
X3011667Y-6541667D01*
X3030714Y-6532143D01*
X3049762Y-6532143D01*
X3116428Y-6665476D02*
X3116428Y-6532143D01*
X3116428Y-6465476D02*
X3106905Y-6475000D01*
X3116428Y-6484524D01*
X3125952Y-6475000D01*
X3116428Y-6465476D01*
X3116428Y-6484524D01*
X3240238Y-6665476D02*
X3221190Y-6655952D01*
X3211667Y-6636905D01*
X3211667Y-6465476D01*
X3345000Y-6665476D02*
X3325952Y-6655952D01*
X3316428Y-6636905D01*
X3316428Y-6465476D01*
X3573571Y-6665476D02*
X3573571Y-6465476D01*
X3640238Y-6608333D01*
X3706905Y-6465476D01*
X3706905Y-6665476D01*
X3887857Y-6665476D02*
X3887857Y-6560714D01*
X3878333Y-6541667D01*
X3859286Y-6532143D01*
X3821190Y-6532143D01*
X3802143Y-6541667D01*
X3887857Y-6655952D02*
X3868809Y-6665476D01*
X3821190Y-6665476D01*
X3802143Y-6655952D01*
X3792619Y-6636905D01*
X3792619Y-6617857D01*
X3802143Y-6598809D01*
X3821190Y-6589286D01*
X3868809Y-6589286D01*
X3887857Y-6579762D01*
X3983095Y-6532143D02*
X3983095Y-6732143D01*
X3983095Y-6541667D02*
X4002143Y-6532143D01*
X4040238Y-6532143D01*
X4059286Y-6541667D01*
X4068809Y-6551190D01*
X4078333Y-6570238D01*
X4078333Y-6627381D01*
X4068809Y-6646428D01*
X4059286Y-6655952D01*
X4040238Y-6665476D01*
X4002143Y-6665476D01*
X3983095Y-6655952D01*
X4164048Y-6646428D02*
X4173571Y-6655952D01*
X4164048Y-6665476D01*
X4154524Y-6655952D01*
X4164048Y-6646428D01*
X4164048Y-6665476D01*
X4164048Y-6541667D02*
X4173571Y-6551190D01*
X4164048Y-6560714D01*
X4154524Y-6551190D01*
X4164048Y-6541667D01*
X4164048Y-6560714D01*
M02*
