G04 #@! TF.GenerationSoftware,KiCad,Pcbnew,(6.0.7)*
G04 #@! TF.CreationDate,2023-06-27T12:53:43-07:00*
G04 #@! TF.ProjectId,Power Supply Board Ground Systems,506f7765-7220-4537-9570-706c7920426f,rev?*
G04 #@! TF.SameCoordinates,Original*
G04 #@! TF.FileFunction,Copper,L1,Top*
G04 #@! TF.FilePolarity,Positive*
%FSLAX46Y46*%
G04 Gerber Fmt 4.6, Leading zero omitted, Abs format (unit mm)*
G04 Created by KiCad (PCBNEW (6.0.7)) date 2023-06-27 12:53:43*
%MOMM*%
%LPD*%
G01*
G04 APERTURE LIST*
G04 Aperture macros list*
%AMRoundRect*
0 Rectangle with rounded corners*
0 $1 Rounding radius*
0 $2 $3 $4 $5 $6 $7 $8 $9 X,Y pos of 4 corners*
0 Add a 4 corners polygon primitive as box body*
4,1,4,$2,$3,$4,$5,$6,$7,$8,$9,$2,$3,0*
0 Add four circle primitives for the rounded corners*
1,1,$1+$1,$2,$3*
1,1,$1+$1,$4,$5*
1,1,$1+$1,$6,$7*
1,1,$1+$1,$8,$9*
0 Add four rect primitives between the rounded corners*
20,1,$1+$1,$2,$3,$4,$5,0*
20,1,$1+$1,$4,$5,$6,$7,0*
20,1,$1+$1,$6,$7,$8,$9,0*
20,1,$1+$1,$8,$9,$2,$3,0*%
G04 Aperture macros list end*
G04 #@! TA.AperFunction,ComponentPad*
%ADD10R,3.000000X3.000000*%
G04 #@! TD*
G04 #@! TA.AperFunction,SMDPad,CuDef*
%ADD11RoundRect,0.243750X-0.456250X0.243750X-0.456250X-0.243750X0.456250X-0.243750X0.456250X0.243750X0*%
G04 #@! TD*
G04 #@! TA.AperFunction,SMDPad,CuDef*
%ADD12RoundRect,0.200000X-0.200000X-0.275000X0.200000X-0.275000X0.200000X0.275000X-0.200000X0.275000X0*%
G04 #@! TD*
G04 #@! TA.AperFunction,ComponentPad*
%ADD13C,3.600000*%
G04 #@! TD*
G04 #@! TA.AperFunction,ConnectorPad*
%ADD14C,6.400000*%
G04 #@! TD*
G04 #@! TA.AperFunction,ComponentPad*
%ADD15R,2.200000X2.200000*%
G04 #@! TD*
G04 #@! TA.AperFunction,ComponentPad*
%ADD16C,2.200000*%
G04 #@! TD*
G04 #@! TA.AperFunction,SMDPad,CuDef*
%ADD17RoundRect,0.243750X-0.243750X-0.456250X0.243750X-0.456250X0.243750X0.456250X-0.243750X0.456250X0*%
G04 #@! TD*
G04 #@! TA.AperFunction,ViaPad*
%ADD18C,0.800000*%
G04 #@! TD*
G04 #@! TA.AperFunction,Conductor*
%ADD19C,1.000000*%
G04 #@! TD*
G04 #@! TA.AperFunction,Conductor*
%ADD20C,0.500000*%
G04 #@! TD*
G04 APERTURE END LIST*
D10*
X44536342Y-43490000D03*
X44536342Y-48190000D03*
X44536342Y-52890000D03*
X75292110Y-43490000D03*
X75292110Y-48190000D03*
X75292110Y-52890000D03*
D11*
X59935997Y-35898700D03*
X59935997Y-37773700D03*
D12*
X92370484Y-39300000D03*
X94020484Y-39300000D03*
D10*
X52225284Y-43490000D03*
X52225284Y-48190000D03*
X52225284Y-52890000D03*
D11*
X83013710Y-35898700D03*
X83013710Y-37773700D03*
D10*
X36847400Y-43490000D03*
X36847400Y-48190000D03*
X36847400Y-52890000D03*
D12*
X76978084Y-39300000D03*
X78628084Y-39300000D03*
X61585684Y-39300000D03*
X63235684Y-39300000D03*
X46193284Y-39300000D03*
X47843284Y-39300000D03*
D11*
X44550855Y-35898700D03*
X44550855Y-37773700D03*
D12*
X53889484Y-39300000D03*
X55539484Y-39300000D03*
D13*
X96520000Y-57150000D03*
D14*
X96520000Y-57150000D03*
D15*
X75410000Y-30180000D03*
D16*
X72870000Y-30180000D03*
X70330000Y-30180000D03*
X67790000Y-30180000D03*
X65250000Y-30180000D03*
X62710000Y-30180000D03*
X60170000Y-30180000D03*
X57630000Y-30180000D03*
D15*
X63840000Y-59500000D03*
D16*
X66380000Y-59500000D03*
D12*
X84674284Y-39300000D03*
X86324284Y-39300000D03*
X38497084Y-39300000D03*
X40147084Y-39300000D03*
D14*
X30480000Y-57150000D03*
D13*
X30480000Y-57150000D03*
D17*
X55926250Y-59570001D03*
X57801250Y-59570001D03*
D11*
X75321139Y-35898700D03*
X75321139Y-37773700D03*
D10*
X90670000Y-43490000D03*
X90670000Y-48190000D03*
X90670000Y-52890000D03*
D12*
X69281884Y-39300000D03*
X70931884Y-39300000D03*
D11*
X36858284Y-35898700D03*
X36858284Y-37773700D03*
D12*
X59408749Y-59560000D03*
X61058749Y-59560000D03*
D11*
X90706284Y-35898700D03*
X90706284Y-37773700D03*
D14*
X96520000Y-31750000D03*
D13*
X96520000Y-31750000D03*
D10*
X82981052Y-43490000D03*
X82981052Y-48190000D03*
X82981052Y-52890000D03*
X67603168Y-43490000D03*
X67603168Y-48190000D03*
X67603168Y-52890000D03*
D11*
X52243426Y-35898700D03*
X52243426Y-37773700D03*
D10*
X59914226Y-43490000D03*
X59914226Y-48190000D03*
X59914226Y-52890000D03*
D11*
X67628568Y-35898700D03*
X67628568Y-37773700D03*
D13*
X30480000Y-31750000D03*
D14*
X30480000Y-31750000D03*
D18*
X44529084Y-34677200D03*
X54701252Y-59570000D03*
X75288484Y-34677200D03*
X52225284Y-34677200D03*
X83010084Y-34677200D03*
X59896084Y-34677200D03*
X67592284Y-34677200D03*
X36832884Y-34677200D03*
X90706284Y-34677200D03*
D19*
X40147084Y-33542916D02*
X40147084Y-39300000D01*
X57630000Y-30180000D02*
X43510000Y-30180000D01*
X38941084Y-48190000D02*
X40147084Y-46984000D01*
X43510000Y-30180000D02*
X40147084Y-33542916D01*
X36847400Y-48190000D02*
X38941084Y-48190000D01*
X40147084Y-46984000D02*
X40147084Y-39300000D01*
D20*
X57811251Y-59560000D02*
X57801250Y-59570001D01*
X59408749Y-59560000D02*
X57811251Y-59560000D01*
D19*
X59715634Y-32190000D02*
X51240000Y-32190000D01*
X47843284Y-35586716D02*
X47843284Y-39300000D01*
X51240000Y-32190000D02*
X47843284Y-35586716D01*
X60170000Y-31735634D02*
X59715634Y-32190000D01*
X47843284Y-47390400D02*
X47843284Y-39300000D01*
X60170000Y-30180000D02*
X60170000Y-31735634D01*
X44536342Y-48190000D02*
X47043684Y-48190000D01*
X47043684Y-48190000D02*
X47843284Y-47390400D01*
D20*
X44550855Y-38762971D02*
X45087884Y-39300000D01*
X44550855Y-37773700D02*
X44550855Y-38762971D01*
X45087884Y-39300000D02*
X46193284Y-39300000D01*
D19*
X62710000Y-30180000D02*
X62710000Y-31750000D01*
X57720000Y-33410000D02*
X55539484Y-35590516D01*
X55539484Y-39300000D02*
X55539484Y-46755400D01*
X62710000Y-31750000D02*
X61050000Y-33410000D01*
X54104884Y-48190000D02*
X52225284Y-48190000D01*
X61050000Y-33410000D02*
X57720000Y-33410000D01*
X55539484Y-46755400D02*
X54104884Y-48190000D01*
X55539484Y-35590516D02*
X55539484Y-39300000D01*
D20*
X59935997Y-37773700D02*
X59935997Y-38933513D01*
X60302484Y-39300000D02*
X61585684Y-39300000D01*
X59935997Y-38933513D02*
X60302484Y-39300000D01*
D19*
X65250000Y-34360000D02*
X63235684Y-36374316D01*
X63235684Y-39300000D02*
X63235684Y-47085600D01*
X62131284Y-48190000D02*
X59914226Y-48190000D01*
X63235684Y-36374316D02*
X63235684Y-39300000D01*
X63235684Y-47085600D02*
X62131284Y-48190000D01*
X65250000Y-30180000D02*
X65250000Y-34360000D01*
D20*
X36858284Y-37773700D02*
X36858284Y-39020600D01*
X37137684Y-39300000D02*
X38497084Y-39300000D01*
X36858284Y-39020600D02*
X37137684Y-39300000D01*
X75321139Y-34709855D02*
X75321139Y-35898700D01*
X59935997Y-34717113D02*
X59935997Y-35898700D01*
X67592284Y-34677200D02*
X67628568Y-34713484D01*
X52243426Y-34695342D02*
X52243426Y-35898700D01*
X36858284Y-34702600D02*
X36858284Y-35898700D01*
X90706284Y-34677200D02*
X90706284Y-35898700D01*
X36832884Y-34677200D02*
X36858284Y-34702600D01*
X83013710Y-34680826D02*
X83013710Y-35898700D01*
X83010084Y-34677200D02*
X83013710Y-34680826D01*
X44529084Y-34677200D02*
X44550855Y-34698971D01*
X55926250Y-59570001D02*
X54701252Y-59570000D01*
X44550855Y-34698971D02*
X44550855Y-35898700D01*
X52225284Y-34677200D02*
X52243426Y-34695342D01*
X75288484Y-34677200D02*
X75321139Y-34709855D01*
X67628568Y-34713484D02*
X67628568Y-35898700D01*
X59896084Y-34677200D02*
X59935997Y-34717113D01*
X52243426Y-38810142D02*
X52733284Y-39300000D01*
X52733284Y-39300000D02*
X53889484Y-39300000D01*
X52243426Y-37773700D02*
X52243426Y-38810142D01*
X67628568Y-38675884D02*
X68252684Y-39300000D01*
X68252684Y-39300000D02*
X69281884Y-39300000D01*
X67628568Y-37773700D02*
X67628568Y-38675884D01*
X75321139Y-38545255D02*
X76075884Y-39300000D01*
X75321139Y-37773700D02*
X75321139Y-38545255D01*
X76075884Y-39300000D02*
X76978084Y-39300000D01*
X83441884Y-39300000D02*
X84674284Y-39300000D01*
X83010084Y-38868200D02*
X83441884Y-39300000D01*
X83013710Y-37773700D02*
X83013710Y-38864574D01*
X83013710Y-38864574D02*
X83010084Y-38868200D01*
X91138084Y-39300000D02*
X92370484Y-39300000D01*
X90706284Y-38868200D02*
X91138084Y-39300000D01*
X90706284Y-37773700D02*
X90706284Y-38868200D01*
D19*
X94020484Y-44839516D02*
X90670000Y-48190000D01*
X75410000Y-30180000D02*
X88560000Y-30180000D01*
X94020484Y-35640484D02*
X94020484Y-39300000D01*
X88560000Y-30180000D02*
X94020484Y-35640484D01*
X94020484Y-39300000D02*
X94020484Y-44839516D01*
X84330884Y-48190000D02*
X82981052Y-48190000D01*
X72870000Y-30180000D02*
X72870000Y-31735634D01*
X84320000Y-32280000D02*
X86324284Y-34284284D01*
X86324284Y-39300000D02*
X86324284Y-46196600D01*
X73414366Y-32280000D02*
X84320000Y-32280000D01*
X72870000Y-31735634D02*
X73414366Y-32280000D01*
X86324284Y-46196600D02*
X84330884Y-48190000D01*
X86324284Y-34284284D02*
X86324284Y-39300000D01*
X75817200Y-33577200D02*
X78628084Y-36388084D01*
X78628084Y-36388084D02*
X78628084Y-39300000D01*
X78628084Y-46374400D02*
X76812484Y-48190000D01*
X70330000Y-30180000D02*
X70330000Y-31630000D01*
X72290000Y-33590000D02*
X72302800Y-33577200D01*
X72302800Y-33577200D02*
X75817200Y-33577200D01*
X76812484Y-48190000D02*
X75292110Y-48190000D01*
X70330000Y-31630000D02*
X72290000Y-33590000D01*
X78628084Y-39300000D02*
X78628084Y-46374400D01*
X68608284Y-48190000D02*
X67603168Y-48190000D01*
X67790000Y-32010000D02*
X70931884Y-35151884D01*
X67790000Y-30180000D02*
X67790000Y-32010000D01*
X70931884Y-45866400D02*
X68608284Y-48190000D01*
X70931884Y-35151884D02*
X70931884Y-39300000D01*
X70931884Y-39300000D02*
X70931884Y-45866400D01*
G04 #@! TA.AperFunction,Conductor*
G36*
X92360012Y-51219335D02*
G01*
X92406505Y-51272991D01*
X92417891Y-51325360D01*
X92417368Y-53562571D01*
X92416833Y-55851176D01*
X92396815Y-55919293D01*
X92343148Y-55965773D01*
X92290734Y-55977147D01*
X67556804Y-55957248D01*
X65070000Y-57970000D01*
X65070306Y-57980957D01*
X65070306Y-57980958D01*
X65084697Y-58496130D01*
X65066179Y-58565483D01*
X65007340Y-58661500D01*
X64942384Y-58767498D01*
X64940491Y-58772068D01*
X64940489Y-58772072D01*
X64910439Y-58844619D01*
X64845495Y-59001409D01*
X64844340Y-59006221D01*
X64791008Y-59228366D01*
X64786391Y-59247597D01*
X64766526Y-59500000D01*
X64786391Y-59752403D01*
X64787545Y-59757210D01*
X64787546Y-59757216D01*
X64819817Y-59891635D01*
X64845495Y-59998591D01*
X64942384Y-60232502D01*
X65074672Y-60448376D01*
X65106355Y-60485472D01*
X65112519Y-60492689D01*
X65141550Y-60557479D01*
X65142659Y-60571001D01*
X65144302Y-60629814D01*
X65126210Y-60698467D01*
X65073873Y-60746440D01*
X65018351Y-60759333D01*
X60736684Y-60759333D01*
X60668563Y-60739331D01*
X60622070Y-60685675D01*
X60610714Y-60630599D01*
X60619455Y-60227928D01*
X60651056Y-58772072D01*
X60659607Y-58378113D01*
X60659607Y-58378112D01*
X60660000Y-58360000D01*
X60115409Y-57970000D01*
X57416660Y-56037334D01*
X57416659Y-56037334D01*
X57400604Y-56025836D01*
X57380856Y-56025844D01*
X57380855Y-56025844D01*
X35313781Y-56035116D01*
X35245652Y-56015143D01*
X35199136Y-55961506D01*
X35187731Y-55909913D01*
X35158722Y-51326128D01*
X35178292Y-51257884D01*
X35231652Y-51211053D01*
X35284719Y-51199333D01*
X92291891Y-51199333D01*
X92360012Y-51219335D01*
G37*
G04 #@! TD.AperFunction*
M02*
