M48
; DRILL file {KiCad 8.0.5} date 2024-12-14T16:31:42-0800
; FORMAT={-:-/ absolute / metric / decimal}
; #@! TF.CreationDate,2024-12-14T16:31:42-08:00
; #@! TF.GenerationSoftware,Kicad,Pcbnew,8.0.5
; #@! TF.FileFunction,Plated,1,2,PTH
FMAT,2
METRIC
; #@! TA.AperFunction,Plated,PTH,ViaDrill
T1C0.300
; #@! TA.AperFunction,Plated,PTH,ComponentDrill
T2C1.000
%
G90
G05
T1
X30.46Y-33.182
X31.2Y-38.21
X33.8Y-29.883
X34.071Y-31.152
X34.12Y-34.22
X34.15Y-35.95
X37.23Y-31.072
X37.418Y-35.967
X37.58Y-37.71
X37.616Y-33.963
X37.74Y-29.842
X40.98Y-32.913
X42.53Y-33.352
X42.54Y-37.032
X44.4Y-33.142
T2
X27.305Y-41.91
X29.845Y-41.91
X32.385Y-27.94
X32.385Y-41.91
X34.925Y-27.94
X34.925Y-41.91
X37.465Y-27.94
X37.465Y-41.91
X40.005Y-27.94
X40.005Y-41.91
X42.545Y-41.91
X45.085Y-41.91
M30
