G04 #@! TF.GenerationSoftware,KiCad,Pcbnew,9.0.0*
G04 #@! TF.CreationDate,2025-02-28T23:18:11-08:00*
G04 #@! TF.ProjectId,Constellation STAR LAF V1.1,436f6e73-7465-46c6-9c61-74696f6e2053,rev?*
G04 #@! TF.SameCoordinates,Original*
G04 #@! TF.FileFunction,Soldermask,Bot*
G04 #@! TF.FilePolarity,Negative*
%FSLAX46Y46*%
G04 Gerber Fmt 4.6, Leading zero omitted, Abs format (unit mm)*
G04 Created by KiCad (PCBNEW 9.0.0) date 2025-02-28 23:18:11*
%MOMM*%
%LPD*%
G01*
G04 APERTURE LIST*
%ADD10C,3.200000*%
%ADD11C,1.900000*%
G04 APERTURE END LIST*
D10*
X78740000Y-85090000D03*
D11*
X63500000Y-64770000D03*
X68500000Y-64770000D03*
X63500000Y-61270000D03*
X68500000Y-61270000D03*
X64195000Y-73580000D03*
X64195000Y-78580000D03*
X67695000Y-73580000D03*
X67695000Y-78580000D03*
X71195001Y-73580000D03*
X71195001Y-78580000D03*
D10*
X29210000Y-85090000D03*
D11*
X36350000Y-73580000D03*
X36350000Y-78580000D03*
X39850000Y-73580000D03*
X39850000Y-78580000D03*
X43350001Y-73580000D03*
X43350001Y-78580000D03*
X63500000Y-54610000D03*
X68500000Y-54610000D03*
X63500000Y-51110000D03*
X68499999Y-51109999D03*
X63500000Y-47609998D03*
X68500000Y-47609998D03*
X63500000Y-44109997D03*
X68500000Y-44109997D03*
X63500000Y-40609997D03*
X68500000Y-40609997D03*
X63500000Y-37109997D03*
X68500000Y-37109997D03*
X63500000Y-33609996D03*
X68500000Y-33609996D03*
X63500000Y-30109995D03*
X68500000Y-30109995D03*
X50190000Y-73580000D03*
X50190000Y-78580000D03*
X53690000Y-73580000D03*
X53690000Y-78580000D03*
X57190001Y-73580000D03*
X57190001Y-78580000D03*
D10*
X53975000Y-29210000D03*
M02*
