G04 #@! TF.GenerationSoftware,KiCad,Pcbnew,9.0.0*
G04 #@! TF.CreationDate,2025-02-28T23:18:11-08:00*
G04 #@! TF.ProjectId,Constellation STAR LAF V1.1,436f6e73-7465-46c6-9c61-74696f6e2053,rev?*
G04 #@! TF.SameCoordinates,Original*
G04 #@! TF.FileFunction,Copper,L2,Bot*
G04 #@! TF.FilePolarity,Positive*
%FSLAX46Y46*%
G04 Gerber Fmt 4.6, Leading zero omitted, Abs format (unit mm)*
G04 Created by KiCad (PCBNEW 9.0.0) date 2025-02-28 23:18:11*
%MOMM*%
%LPD*%
G01*
G04 APERTURE LIST*
G04 #@! TA.AperFunction,ComponentPad*
%ADD10C,1.900000*%
G04 #@! TD*
G04 #@! TA.AperFunction,ViaPad*
%ADD11C,0.700000*%
G04 #@! TD*
G04 #@! TA.AperFunction,ViaPad*
%ADD12C,1.000000*%
G04 #@! TD*
G04 #@! TA.AperFunction,Conductor*
%ADD13C,0.500000*%
G04 #@! TD*
G04 APERTURE END LIST*
D10*
X63500000Y-64770000D03*
X68500000Y-64770000D03*
X63500000Y-61270000D03*
X68500000Y-61270000D03*
X64195000Y-73580000D03*
X64195000Y-78580000D03*
X67695000Y-73580000D03*
X67695000Y-78580000D03*
X71195001Y-73580000D03*
X71195001Y-78580000D03*
X36350000Y-73580000D03*
X36350000Y-78580000D03*
X39850000Y-73580000D03*
X39850000Y-78580000D03*
X43350001Y-73580000D03*
X43350001Y-78580000D03*
X63500000Y-54610000D03*
X68500000Y-54610000D03*
X63500000Y-51110000D03*
X68499999Y-51109999D03*
X63500000Y-47609998D03*
X68500000Y-47609998D03*
X63500000Y-44109997D03*
X68500000Y-44109997D03*
X63500000Y-40609997D03*
X68500000Y-40609997D03*
X63500000Y-37109997D03*
X68500000Y-37109997D03*
X63500000Y-33609996D03*
X68500000Y-33609996D03*
X63500000Y-30109995D03*
X68500000Y-30109995D03*
X50190000Y-73580000D03*
X50190000Y-78580000D03*
X53690000Y-73580000D03*
X53690000Y-78580000D03*
X57190001Y-73580000D03*
X57190001Y-78580000D03*
D11*
X54280000Y-65090000D03*
X54340000Y-54620000D03*
X52270000Y-67200000D03*
X52610000Y-60280000D03*
X56360000Y-52430000D03*
D12*
X58060000Y-58090000D03*
X50590000Y-55320000D03*
X59860000Y-58300000D03*
D13*
X50590000Y-73180000D02*
X50190000Y-73580000D01*
X50590000Y-55320000D02*
X50590000Y-73180000D01*
X64195000Y-73580000D02*
X59860000Y-69245000D01*
X59860000Y-69245000D02*
X59860000Y-58300000D01*
G04 #@! TA.AperFunction,Conductor*
G36*
X78743032Y-25400648D02*
G01*
X79073550Y-25416886D01*
X79080338Y-25417409D01*
X79158043Y-25425576D01*
X79163118Y-25426219D01*
X79451012Y-25468923D01*
X79458530Y-25470279D01*
X79529110Y-25485281D01*
X79533445Y-25486284D01*
X79822283Y-25558635D01*
X79830447Y-25560981D01*
X79888101Y-25579714D01*
X79891519Y-25580880D01*
X80183376Y-25685308D01*
X80192002Y-25688766D01*
X80228374Y-25704960D01*
X80230808Y-25706077D01*
X80530296Y-25847724D01*
X80541004Y-25853448D01*
X80851215Y-26039382D01*
X80861333Y-26046142D01*
X81151832Y-26261591D01*
X81161238Y-26269311D01*
X81429216Y-26512192D01*
X81437807Y-26520783D01*
X81642247Y-26746348D01*
X81680688Y-26788761D01*
X81688408Y-26798167D01*
X81903857Y-27088666D01*
X81910617Y-27098784D01*
X82096543Y-27408982D01*
X82102280Y-27419714D01*
X82243887Y-27719116D01*
X82245072Y-27721699D01*
X82261225Y-27757980D01*
X82264697Y-27766640D01*
X82369111Y-28058460D01*
X82370290Y-28061916D01*
X82389013Y-28119539D01*
X82391366Y-28127727D01*
X82463714Y-28416551D01*
X82464719Y-28420895D01*
X82479713Y-28491438D01*
X82481081Y-28499022D01*
X82503795Y-28652151D01*
X82505137Y-28670150D01*
X82549500Y-56906751D01*
X82549500Y-85086947D01*
X82549351Y-85093032D01*
X82533115Y-85423506D01*
X82532585Y-85430382D01*
X82524431Y-85507967D01*
X82523768Y-85513201D01*
X82481081Y-85800974D01*
X82479713Y-85808561D01*
X82464718Y-85879103D01*
X82463712Y-85883451D01*
X82391366Y-86172271D01*
X82389013Y-86180459D01*
X82370290Y-86238082D01*
X82369111Y-86241538D01*
X82264697Y-86533358D01*
X82261225Y-86542018D01*
X82245072Y-86578299D01*
X82243887Y-86580882D01*
X82102280Y-86880284D01*
X82096543Y-86891016D01*
X81910617Y-87201215D01*
X81903857Y-87211333D01*
X81688408Y-87501832D01*
X81680688Y-87511238D01*
X81437814Y-87779209D01*
X81429209Y-87787814D01*
X81161238Y-88030688D01*
X81151832Y-88038408D01*
X80861333Y-88253857D01*
X80851215Y-88260617D01*
X80541016Y-88446543D01*
X80530284Y-88452280D01*
X80230882Y-88593887D01*
X80228299Y-88595072D01*
X80192018Y-88611225D01*
X80183358Y-88614697D01*
X79891538Y-88719111D01*
X79888082Y-88720290D01*
X79830459Y-88739013D01*
X79822271Y-88741366D01*
X79533451Y-88813712D01*
X79529103Y-88814718D01*
X79458561Y-88829713D01*
X79450974Y-88831081D01*
X79163201Y-88873768D01*
X79157967Y-88874431D01*
X79080382Y-88882585D01*
X79073506Y-88883115D01*
X78743033Y-88899351D01*
X78736948Y-88899500D01*
X48165913Y-88899500D01*
X48165372Y-88899499D01*
X48109277Y-88899253D01*
X28429414Y-88813239D01*
X28399826Y-88809524D01*
X28127727Y-88741366D01*
X28119539Y-88739013D01*
X28061916Y-88720290D01*
X28058460Y-88719111D01*
X27766640Y-88614697D01*
X27757980Y-88611225D01*
X27721699Y-88595072D01*
X27719116Y-88593887D01*
X27419714Y-88452280D01*
X27408982Y-88446543D01*
X27098784Y-88260617D01*
X27088666Y-88253857D01*
X26798167Y-88038408D01*
X26788761Y-88030688D01*
X26746348Y-87992247D01*
X26520783Y-87787807D01*
X26512192Y-87779216D01*
X26269311Y-87511238D01*
X26261591Y-87501832D01*
X26046142Y-87211333D01*
X26039382Y-87201215D01*
X25883115Y-86940500D01*
X25853448Y-86891004D01*
X25847724Y-86880296D01*
X25706077Y-86580808D01*
X25704960Y-86578374D01*
X25688766Y-86542002D01*
X25685308Y-86533376D01*
X25580880Y-86241519D01*
X25579708Y-86238082D01*
X25560985Y-86180459D01*
X25558632Y-86172271D01*
X25545612Y-86120293D01*
X25486284Y-85883445D01*
X25485280Y-85879103D01*
X25470279Y-85808530D01*
X25468923Y-85801012D01*
X25426219Y-85513118D01*
X25425576Y-85508043D01*
X25417409Y-85430338D01*
X25416886Y-85423550D01*
X25400648Y-85093032D01*
X25400500Y-85086949D01*
X25400500Y-84968711D01*
X27359500Y-84968711D01*
X27359500Y-85211288D01*
X27391161Y-85451785D01*
X27453947Y-85686104D01*
X27501528Y-85800974D01*
X27546776Y-85910212D01*
X27668064Y-86120289D01*
X27668066Y-86120292D01*
X27668067Y-86120293D01*
X27815733Y-86312736D01*
X27815739Y-86312743D01*
X27987256Y-86484260D01*
X27987262Y-86484265D01*
X28179711Y-86631936D01*
X28389788Y-86753224D01*
X28613900Y-86846054D01*
X28848211Y-86908838D01*
X29028586Y-86932584D01*
X29088711Y-86940500D01*
X29088712Y-86940500D01*
X29331289Y-86940500D01*
X29379388Y-86934167D01*
X29571789Y-86908838D01*
X29806100Y-86846054D01*
X30030212Y-86753224D01*
X30240289Y-86631936D01*
X30432738Y-86484265D01*
X30604265Y-86312738D01*
X30751936Y-86120289D01*
X30873224Y-85910212D01*
X30966054Y-85686100D01*
X31028838Y-85451789D01*
X31060500Y-85211288D01*
X31060500Y-84968712D01*
X31060500Y-84968711D01*
X76889500Y-84968711D01*
X76889500Y-85211288D01*
X76921161Y-85451785D01*
X76983947Y-85686104D01*
X77031528Y-85800974D01*
X77076776Y-85910212D01*
X77198064Y-86120289D01*
X77198066Y-86120292D01*
X77198067Y-86120293D01*
X77345733Y-86312736D01*
X77345739Y-86312743D01*
X77517256Y-86484260D01*
X77517262Y-86484265D01*
X77709711Y-86631936D01*
X77919788Y-86753224D01*
X78143900Y-86846054D01*
X78378211Y-86908838D01*
X78558586Y-86932584D01*
X78618711Y-86940500D01*
X78618712Y-86940500D01*
X78861289Y-86940500D01*
X78909388Y-86934167D01*
X79101789Y-86908838D01*
X79336100Y-86846054D01*
X79560212Y-86753224D01*
X79770289Y-86631936D01*
X79962738Y-86484265D01*
X80134265Y-86312738D01*
X80281936Y-86120289D01*
X80403224Y-85910212D01*
X80496054Y-85686100D01*
X80558838Y-85451789D01*
X80590500Y-85211288D01*
X80590500Y-84968712D01*
X80558838Y-84728211D01*
X80496054Y-84493900D01*
X80403224Y-84269788D01*
X80281936Y-84059711D01*
X80134265Y-83867262D01*
X80134260Y-83867256D01*
X79962743Y-83695739D01*
X79962736Y-83695733D01*
X79770293Y-83548067D01*
X79770292Y-83548066D01*
X79770289Y-83548064D01*
X79560212Y-83426776D01*
X79560205Y-83426773D01*
X79336104Y-83333947D01*
X79101785Y-83271161D01*
X78861289Y-83239500D01*
X78861288Y-83239500D01*
X78618712Y-83239500D01*
X78618711Y-83239500D01*
X78378214Y-83271161D01*
X78143895Y-83333947D01*
X77919794Y-83426773D01*
X77919785Y-83426777D01*
X77709706Y-83548067D01*
X77517263Y-83695733D01*
X77517256Y-83695739D01*
X77345739Y-83867256D01*
X77345733Y-83867263D01*
X77198067Y-84059706D01*
X77076777Y-84269785D01*
X77076773Y-84269794D01*
X76983947Y-84493895D01*
X76921161Y-84728214D01*
X76889500Y-84968711D01*
X31060500Y-84968711D01*
X31028838Y-84728211D01*
X30966054Y-84493900D01*
X30873224Y-84269788D01*
X30751936Y-84059711D01*
X30604265Y-83867262D01*
X30604260Y-83867256D01*
X30432743Y-83695739D01*
X30432736Y-83695733D01*
X30240293Y-83548067D01*
X30240292Y-83548066D01*
X30240289Y-83548064D01*
X30030212Y-83426776D01*
X30030205Y-83426773D01*
X29806104Y-83333947D01*
X29571785Y-83271161D01*
X29331289Y-83239500D01*
X29331288Y-83239500D01*
X29088712Y-83239500D01*
X29088711Y-83239500D01*
X28848214Y-83271161D01*
X28613895Y-83333947D01*
X28389794Y-83426773D01*
X28389785Y-83426777D01*
X28179706Y-83548067D01*
X27987263Y-83695733D01*
X27987256Y-83695739D01*
X27815739Y-83867256D01*
X27815733Y-83867263D01*
X27668067Y-84059706D01*
X27546777Y-84269785D01*
X27546773Y-84269794D01*
X27453947Y-84493895D01*
X27391161Y-84728214D01*
X27359500Y-84968711D01*
X25400500Y-84968711D01*
X25400500Y-78465837D01*
X34899500Y-78465837D01*
X34899500Y-78694162D01*
X34935215Y-78919660D01*
X35005770Y-79136803D01*
X35109288Y-79339966D01*
X35109421Y-79340228D01*
X35243621Y-79524937D01*
X35405063Y-79686379D01*
X35589772Y-79820579D01*
X35685884Y-79869550D01*
X35793196Y-79924229D01*
X35793198Y-79924229D01*
X35793201Y-79924231D01*
X35909592Y-79962049D01*
X36010339Y-79994784D01*
X36235838Y-80030500D01*
X36235843Y-80030500D01*
X36464162Y-80030500D01*
X36689660Y-79994784D01*
X36691165Y-79994295D01*
X36906799Y-79924231D01*
X37110228Y-79820579D01*
X37294937Y-79686379D01*
X37456379Y-79524937D01*
X37590579Y-79340228D01*
X37694231Y-79136799D01*
X37764784Y-78919660D01*
X37764802Y-78919544D01*
X37800500Y-78694162D01*
X37800500Y-78465883D01*
X38400000Y-78465883D01*
X38400000Y-78694116D01*
X38435704Y-78919544D01*
X38506230Y-79136604D01*
X38609851Y-79339969D01*
X38663135Y-79413309D01*
X38663137Y-79413309D01*
X39285387Y-78791059D01*
X39290889Y-78811591D01*
X39369881Y-78948408D01*
X39481592Y-79060119D01*
X39618409Y-79139111D01*
X39638939Y-79144612D01*
X39016688Y-79766862D01*
X39016689Y-79766863D01*
X39090030Y-79820148D01*
X39293395Y-79923769D01*
X39510455Y-79994295D01*
X39735884Y-80030000D01*
X39964116Y-80030000D01*
X40189544Y-79994295D01*
X40406604Y-79923769D01*
X40609966Y-79820150D01*
X40683309Y-79766862D01*
X40683310Y-79766862D01*
X40061059Y-79144612D01*
X40081591Y-79139111D01*
X40218408Y-79060119D01*
X40330119Y-78948408D01*
X40409111Y-78811591D01*
X40414612Y-78791059D01*
X41036862Y-79413310D01*
X41036862Y-79413309D01*
X41090150Y-79339966D01*
X41193769Y-79136604D01*
X41264295Y-78919544D01*
X41300000Y-78694116D01*
X41300000Y-78465883D01*
X41299993Y-78465837D01*
X41899501Y-78465837D01*
X41899501Y-78694162D01*
X41935216Y-78919660D01*
X42005771Y-79136803D01*
X42109289Y-79339966D01*
X42109422Y-79340228D01*
X42243622Y-79524937D01*
X42405064Y-79686379D01*
X42589773Y-79820579D01*
X42685885Y-79869550D01*
X42793197Y-79924229D01*
X42793199Y-79924229D01*
X42793202Y-79924231D01*
X42909593Y-79962049D01*
X43010340Y-79994784D01*
X43235839Y-80030500D01*
X43235844Y-80030500D01*
X43464163Y-80030500D01*
X43689661Y-79994784D01*
X43691166Y-79994295D01*
X43906800Y-79924231D01*
X44110229Y-79820579D01*
X44294938Y-79686379D01*
X44456380Y-79524937D01*
X44590580Y-79340228D01*
X44694232Y-79136799D01*
X44764785Y-78919660D01*
X44764803Y-78919544D01*
X44800501Y-78694162D01*
X44800501Y-78465837D01*
X48739500Y-78465837D01*
X48739500Y-78694162D01*
X48775215Y-78919660D01*
X48845770Y-79136803D01*
X48949288Y-79339966D01*
X48949421Y-79340228D01*
X49083621Y-79524937D01*
X49245063Y-79686379D01*
X49429772Y-79820579D01*
X49525884Y-79869550D01*
X49633196Y-79924229D01*
X49633198Y-79924229D01*
X49633201Y-79924231D01*
X49749592Y-79962049D01*
X49850339Y-79994784D01*
X50075838Y-80030500D01*
X50075843Y-80030500D01*
X50304162Y-80030500D01*
X50529660Y-79994784D01*
X50531165Y-79994295D01*
X50746799Y-79924231D01*
X50950228Y-79820579D01*
X51134937Y-79686379D01*
X51296379Y-79524937D01*
X51430579Y-79340228D01*
X51534231Y-79136799D01*
X51604784Y-78919660D01*
X51604802Y-78919544D01*
X51640500Y-78694162D01*
X51640500Y-78465883D01*
X52240000Y-78465883D01*
X52240000Y-78694116D01*
X52275704Y-78919544D01*
X52346230Y-79136604D01*
X52449851Y-79339969D01*
X52503135Y-79413309D01*
X52503137Y-79413309D01*
X53125387Y-78791059D01*
X53130889Y-78811591D01*
X53209881Y-78948408D01*
X53321592Y-79060119D01*
X53458409Y-79139111D01*
X53478939Y-79144612D01*
X52856688Y-79766862D01*
X52856689Y-79766863D01*
X52930030Y-79820148D01*
X53133395Y-79923769D01*
X53350455Y-79994295D01*
X53575884Y-80030000D01*
X53804116Y-80030000D01*
X54029544Y-79994295D01*
X54246604Y-79923769D01*
X54449966Y-79820150D01*
X54523309Y-79766862D01*
X54523310Y-79766862D01*
X53901059Y-79144612D01*
X53921591Y-79139111D01*
X54058408Y-79060119D01*
X54170119Y-78948408D01*
X54249111Y-78811591D01*
X54254612Y-78791059D01*
X54876862Y-79413310D01*
X54876862Y-79413309D01*
X54930150Y-79339966D01*
X55033769Y-79136604D01*
X55104295Y-78919544D01*
X55140000Y-78694116D01*
X55140000Y-78465883D01*
X55139993Y-78465837D01*
X55739501Y-78465837D01*
X55739501Y-78694162D01*
X55775216Y-78919660D01*
X55845771Y-79136803D01*
X55949289Y-79339966D01*
X55949422Y-79340228D01*
X56083622Y-79524937D01*
X56245064Y-79686379D01*
X56429773Y-79820579D01*
X56525885Y-79869550D01*
X56633197Y-79924229D01*
X56633199Y-79924229D01*
X56633202Y-79924231D01*
X56749593Y-79962049D01*
X56850340Y-79994784D01*
X57075839Y-80030500D01*
X57075844Y-80030500D01*
X57304163Y-80030500D01*
X57529661Y-79994784D01*
X57531166Y-79994295D01*
X57746800Y-79924231D01*
X57950229Y-79820579D01*
X58134938Y-79686379D01*
X58296380Y-79524937D01*
X58430580Y-79340228D01*
X58534232Y-79136799D01*
X58604785Y-78919660D01*
X58604803Y-78919544D01*
X58640501Y-78694162D01*
X58640501Y-78465837D01*
X62744500Y-78465837D01*
X62744500Y-78694162D01*
X62780215Y-78919660D01*
X62850770Y-79136803D01*
X62954288Y-79339966D01*
X62954421Y-79340228D01*
X63088621Y-79524937D01*
X63250063Y-79686379D01*
X63434772Y-79820579D01*
X63530884Y-79869550D01*
X63638196Y-79924229D01*
X63638198Y-79924229D01*
X63638201Y-79924231D01*
X63754592Y-79962049D01*
X63855339Y-79994784D01*
X64080838Y-80030500D01*
X64080843Y-80030500D01*
X64309162Y-80030500D01*
X64534660Y-79994784D01*
X64536165Y-79994295D01*
X64751799Y-79924231D01*
X64955228Y-79820579D01*
X65139937Y-79686379D01*
X65301379Y-79524937D01*
X65435579Y-79340228D01*
X65539231Y-79136799D01*
X65609784Y-78919660D01*
X65609802Y-78919544D01*
X65645500Y-78694162D01*
X65645500Y-78465883D01*
X66245000Y-78465883D01*
X66245000Y-78694116D01*
X66280704Y-78919544D01*
X66351230Y-79136604D01*
X66454851Y-79339969D01*
X66508135Y-79413309D01*
X66508137Y-79413309D01*
X67130387Y-78791058D01*
X67135889Y-78811591D01*
X67214881Y-78948408D01*
X67326592Y-79060119D01*
X67463409Y-79139111D01*
X67483939Y-79144612D01*
X66861688Y-79766862D01*
X66861689Y-79766863D01*
X66935030Y-79820148D01*
X67138395Y-79923769D01*
X67355455Y-79994295D01*
X67580884Y-80030000D01*
X67809116Y-80030000D01*
X68034544Y-79994295D01*
X68251604Y-79923769D01*
X68454966Y-79820150D01*
X68528309Y-79766862D01*
X68528310Y-79766862D01*
X67906059Y-79144612D01*
X67926591Y-79139111D01*
X68063408Y-79060119D01*
X68175119Y-78948408D01*
X68254111Y-78811591D01*
X68259612Y-78791060D01*
X68881862Y-79413310D01*
X68881862Y-79413309D01*
X68935150Y-79339966D01*
X69038769Y-79136604D01*
X69109295Y-78919544D01*
X69145000Y-78694116D01*
X69145000Y-78465883D01*
X69144993Y-78465837D01*
X69744501Y-78465837D01*
X69744501Y-78694162D01*
X69780216Y-78919660D01*
X69850771Y-79136803D01*
X69954289Y-79339966D01*
X69954422Y-79340228D01*
X70088622Y-79524937D01*
X70250064Y-79686379D01*
X70434773Y-79820579D01*
X70530885Y-79869550D01*
X70638197Y-79924229D01*
X70638199Y-79924229D01*
X70638202Y-79924231D01*
X70754593Y-79962049D01*
X70855340Y-79994784D01*
X71080839Y-80030500D01*
X71080844Y-80030500D01*
X71309163Y-80030500D01*
X71534661Y-79994784D01*
X71536166Y-79994295D01*
X71751800Y-79924231D01*
X71955229Y-79820579D01*
X72139938Y-79686379D01*
X72301380Y-79524937D01*
X72435580Y-79340228D01*
X72539232Y-79136799D01*
X72609785Y-78919660D01*
X72609803Y-78919544D01*
X72645501Y-78694162D01*
X72645501Y-78465837D01*
X72609785Y-78240339D01*
X72539230Y-78023196D01*
X72435714Y-77820035D01*
X72435580Y-77819772D01*
X72301380Y-77635063D01*
X72139938Y-77473621D01*
X71955229Y-77339421D01*
X71751804Y-77235770D01*
X71534661Y-77165215D01*
X71309163Y-77129500D01*
X71309158Y-77129500D01*
X71080844Y-77129500D01*
X71080839Y-77129500D01*
X70855340Y-77165215D01*
X70638197Y-77235770D01*
X70434772Y-77339421D01*
X70250062Y-77473622D01*
X70088623Y-77635061D01*
X69954422Y-77819771D01*
X69850771Y-78023196D01*
X69780216Y-78240339D01*
X69744501Y-78465837D01*
X69144993Y-78465837D01*
X69109295Y-78240455D01*
X69038769Y-78023395D01*
X68935148Y-77820030D01*
X68881863Y-77746689D01*
X68881862Y-77746688D01*
X68259612Y-78368939D01*
X68254111Y-78348409D01*
X68175119Y-78211592D01*
X68063408Y-78099881D01*
X67926591Y-78020889D01*
X67906058Y-78015387D01*
X68528309Y-77393137D01*
X68528309Y-77393135D01*
X68454969Y-77339851D01*
X68251604Y-77236230D01*
X68034544Y-77165704D01*
X67809116Y-77130000D01*
X67580884Y-77130000D01*
X67355455Y-77165704D01*
X67138395Y-77236230D01*
X66935035Y-77339848D01*
X66935033Y-77339849D01*
X66861689Y-77393135D01*
X66861689Y-77393136D01*
X67483941Y-78015387D01*
X67463409Y-78020889D01*
X67326592Y-78099881D01*
X67214881Y-78211592D01*
X67135889Y-78348409D01*
X67130387Y-78368940D01*
X66508136Y-77746689D01*
X66508135Y-77746689D01*
X66454849Y-77820033D01*
X66454848Y-77820035D01*
X66351230Y-78023395D01*
X66280704Y-78240455D01*
X66245000Y-78465883D01*
X65645500Y-78465883D01*
X65645500Y-78465837D01*
X65609784Y-78240339D01*
X65539229Y-78023196D01*
X65435713Y-77820035D01*
X65435579Y-77819772D01*
X65301379Y-77635063D01*
X65139937Y-77473621D01*
X64955228Y-77339421D01*
X64751803Y-77235770D01*
X64534660Y-77165215D01*
X64309162Y-77129500D01*
X64309157Y-77129500D01*
X64080843Y-77129500D01*
X64080838Y-77129500D01*
X63855339Y-77165215D01*
X63638196Y-77235770D01*
X63434771Y-77339421D01*
X63250061Y-77473622D01*
X63088622Y-77635061D01*
X62954421Y-77819771D01*
X62850770Y-78023196D01*
X62780215Y-78240339D01*
X62744500Y-78465837D01*
X58640501Y-78465837D01*
X58604785Y-78240339D01*
X58534230Y-78023196D01*
X58430714Y-77820035D01*
X58430580Y-77819772D01*
X58296380Y-77635063D01*
X58134938Y-77473621D01*
X57950229Y-77339421D01*
X57746804Y-77235770D01*
X57529661Y-77165215D01*
X57304163Y-77129500D01*
X57304158Y-77129500D01*
X57075844Y-77129500D01*
X57075839Y-77129500D01*
X56850340Y-77165215D01*
X56633197Y-77235770D01*
X56429772Y-77339421D01*
X56245062Y-77473622D01*
X56083623Y-77635061D01*
X55949422Y-77819771D01*
X55845771Y-78023196D01*
X55775216Y-78240339D01*
X55739501Y-78465837D01*
X55139993Y-78465837D01*
X55104295Y-78240455D01*
X55033769Y-78023395D01*
X54930148Y-77820030D01*
X54876863Y-77746689D01*
X54876862Y-77746688D01*
X54254612Y-78368939D01*
X54249111Y-78348409D01*
X54170119Y-78211592D01*
X54058408Y-78099881D01*
X53921591Y-78020889D01*
X53901058Y-78015387D01*
X54523309Y-77393137D01*
X54523309Y-77393135D01*
X54449969Y-77339851D01*
X54246604Y-77236230D01*
X54029544Y-77165704D01*
X53804116Y-77130000D01*
X53575884Y-77130000D01*
X53350455Y-77165704D01*
X53133395Y-77236230D01*
X52930035Y-77339848D01*
X52930033Y-77339849D01*
X52856689Y-77393135D01*
X52856689Y-77393136D01*
X53478941Y-78015387D01*
X53458409Y-78020889D01*
X53321592Y-78099881D01*
X53209881Y-78211592D01*
X53130889Y-78348409D01*
X53125387Y-78368940D01*
X52503136Y-77746689D01*
X52503135Y-77746689D01*
X52449849Y-77820033D01*
X52449848Y-77820035D01*
X52346230Y-78023395D01*
X52275704Y-78240455D01*
X52240000Y-78465883D01*
X51640500Y-78465883D01*
X51640500Y-78465837D01*
X51604784Y-78240339D01*
X51534229Y-78023196D01*
X51430713Y-77820035D01*
X51430579Y-77819772D01*
X51296379Y-77635063D01*
X51134937Y-77473621D01*
X50950228Y-77339421D01*
X50746803Y-77235770D01*
X50529660Y-77165215D01*
X50304162Y-77129500D01*
X50304157Y-77129500D01*
X50075843Y-77129500D01*
X50075838Y-77129500D01*
X49850339Y-77165215D01*
X49633196Y-77235770D01*
X49429771Y-77339421D01*
X49245061Y-77473622D01*
X49083622Y-77635061D01*
X48949421Y-77819771D01*
X48845770Y-78023196D01*
X48775215Y-78240339D01*
X48739500Y-78465837D01*
X44800501Y-78465837D01*
X44764785Y-78240339D01*
X44694230Y-78023196D01*
X44590714Y-77820035D01*
X44590580Y-77819772D01*
X44456380Y-77635063D01*
X44294938Y-77473621D01*
X44110229Y-77339421D01*
X43906804Y-77235770D01*
X43689661Y-77165215D01*
X43464163Y-77129500D01*
X43464158Y-77129500D01*
X43235844Y-77129500D01*
X43235839Y-77129500D01*
X43010340Y-77165215D01*
X42793197Y-77235770D01*
X42589772Y-77339421D01*
X42405062Y-77473622D01*
X42243623Y-77635061D01*
X42109422Y-77819771D01*
X42005771Y-78023196D01*
X41935216Y-78240339D01*
X41899501Y-78465837D01*
X41299993Y-78465837D01*
X41264295Y-78240455D01*
X41193769Y-78023395D01*
X41090148Y-77820030D01*
X41036863Y-77746689D01*
X41036862Y-77746688D01*
X40414612Y-78368939D01*
X40409111Y-78348409D01*
X40330119Y-78211592D01*
X40218408Y-78099881D01*
X40081591Y-78020889D01*
X40061058Y-78015387D01*
X40683309Y-77393137D01*
X40683309Y-77393135D01*
X40609969Y-77339851D01*
X40406604Y-77236230D01*
X40189544Y-77165704D01*
X39964116Y-77130000D01*
X39735884Y-77130000D01*
X39510455Y-77165704D01*
X39293395Y-77236230D01*
X39090035Y-77339848D01*
X39090033Y-77339849D01*
X39016689Y-77393135D01*
X39016689Y-77393136D01*
X39638941Y-78015387D01*
X39618409Y-78020889D01*
X39481592Y-78099881D01*
X39369881Y-78211592D01*
X39290889Y-78348409D01*
X39285387Y-78368940D01*
X38663136Y-77746689D01*
X38663135Y-77746689D01*
X38609849Y-77820033D01*
X38609848Y-77820035D01*
X38506230Y-78023395D01*
X38435704Y-78240455D01*
X38400000Y-78465883D01*
X37800500Y-78465883D01*
X37800500Y-78465837D01*
X37764784Y-78240339D01*
X37694229Y-78023196D01*
X37590713Y-77820035D01*
X37590579Y-77819772D01*
X37456379Y-77635063D01*
X37294937Y-77473621D01*
X37110228Y-77339421D01*
X36906803Y-77235770D01*
X36689660Y-77165215D01*
X36464162Y-77129500D01*
X36464157Y-77129500D01*
X36235843Y-77129500D01*
X36235838Y-77129500D01*
X36010339Y-77165215D01*
X35793196Y-77235770D01*
X35589771Y-77339421D01*
X35405061Y-77473622D01*
X35243622Y-77635061D01*
X35109421Y-77819771D01*
X35005770Y-78023196D01*
X34935215Y-78240339D01*
X34899500Y-78465837D01*
X25400500Y-78465837D01*
X25400500Y-73465837D01*
X34899500Y-73465837D01*
X34899500Y-73694162D01*
X34935215Y-73919660D01*
X35005770Y-74136803D01*
X35109288Y-74339966D01*
X35109421Y-74340228D01*
X35243621Y-74524937D01*
X35405063Y-74686379D01*
X35589772Y-74820579D01*
X35685884Y-74869550D01*
X35793196Y-74924229D01*
X35793198Y-74924229D01*
X35793201Y-74924231D01*
X35909592Y-74962049D01*
X36010339Y-74994784D01*
X36235838Y-75030500D01*
X36235843Y-75030500D01*
X36464162Y-75030500D01*
X36689660Y-74994784D01*
X36691165Y-74994295D01*
X36906799Y-74924231D01*
X37110228Y-74820579D01*
X37294937Y-74686379D01*
X37456379Y-74524937D01*
X37590579Y-74340228D01*
X37694231Y-74136799D01*
X37764784Y-73919660D01*
X37764802Y-73919544D01*
X37800500Y-73694162D01*
X37800500Y-73465883D01*
X38400000Y-73465883D01*
X38400000Y-73694116D01*
X38435704Y-73919544D01*
X38506230Y-74136604D01*
X38609851Y-74339969D01*
X38663135Y-74413309D01*
X38663137Y-74413309D01*
X39285387Y-73791059D01*
X39290889Y-73811591D01*
X39369881Y-73948408D01*
X39481592Y-74060119D01*
X39618409Y-74139111D01*
X39638939Y-74144612D01*
X39016688Y-74766862D01*
X39016689Y-74766863D01*
X39090030Y-74820148D01*
X39293395Y-74923769D01*
X39510455Y-74994295D01*
X39735884Y-75030000D01*
X39964116Y-75030000D01*
X40189544Y-74994295D01*
X40406604Y-74923769D01*
X40609966Y-74820150D01*
X40683309Y-74766862D01*
X40683310Y-74766862D01*
X40061059Y-74144612D01*
X40081591Y-74139111D01*
X40218408Y-74060119D01*
X40330119Y-73948408D01*
X40409111Y-73811591D01*
X40414612Y-73791059D01*
X41036862Y-74413310D01*
X41036862Y-74413309D01*
X41090150Y-74339966D01*
X41193769Y-74136604D01*
X41264295Y-73919544D01*
X41300000Y-73694116D01*
X41300000Y-73465883D01*
X41299993Y-73465837D01*
X41899501Y-73465837D01*
X41899501Y-73694162D01*
X41935216Y-73919660D01*
X42005771Y-74136803D01*
X42109289Y-74339966D01*
X42109422Y-74340228D01*
X42243622Y-74524937D01*
X42405064Y-74686379D01*
X42589773Y-74820579D01*
X42685885Y-74869550D01*
X42793197Y-74924229D01*
X42793199Y-74924229D01*
X42793202Y-74924231D01*
X42909593Y-74962049D01*
X43010340Y-74994784D01*
X43235839Y-75030500D01*
X43235844Y-75030500D01*
X43464163Y-75030500D01*
X43689661Y-74994784D01*
X43691166Y-74994295D01*
X43906800Y-74924231D01*
X44110229Y-74820579D01*
X44294938Y-74686379D01*
X44456380Y-74524937D01*
X44590580Y-74340228D01*
X44694232Y-74136799D01*
X44764785Y-73919660D01*
X44764803Y-73919544D01*
X44800501Y-73694162D01*
X44800501Y-73465837D01*
X48739500Y-73465837D01*
X48739500Y-73694162D01*
X48775215Y-73919660D01*
X48845770Y-74136803D01*
X48949288Y-74339966D01*
X48949421Y-74340228D01*
X49083621Y-74524937D01*
X49245063Y-74686379D01*
X49429772Y-74820579D01*
X49525884Y-74869550D01*
X49633196Y-74924229D01*
X49633198Y-74924229D01*
X49633201Y-74924231D01*
X49749592Y-74962049D01*
X49850339Y-74994784D01*
X50075838Y-75030500D01*
X50075843Y-75030500D01*
X50304162Y-75030500D01*
X50529660Y-74994784D01*
X50531165Y-74994295D01*
X50746799Y-74924231D01*
X50950228Y-74820579D01*
X51134937Y-74686379D01*
X51296379Y-74524937D01*
X51430579Y-74340228D01*
X51534231Y-74136799D01*
X51604784Y-73919660D01*
X51604802Y-73919544D01*
X51640500Y-73694162D01*
X51640500Y-73465883D01*
X52240000Y-73465883D01*
X52240000Y-73694116D01*
X52275704Y-73919544D01*
X52346230Y-74136604D01*
X52449851Y-74339969D01*
X52503135Y-74413309D01*
X52503137Y-74413309D01*
X53125387Y-73791059D01*
X53130889Y-73811591D01*
X53209881Y-73948408D01*
X53321592Y-74060119D01*
X53458409Y-74139111D01*
X53478939Y-74144612D01*
X52856688Y-74766862D01*
X52856689Y-74766863D01*
X52930030Y-74820148D01*
X53133395Y-74923769D01*
X53350455Y-74994295D01*
X53575884Y-75030000D01*
X53804116Y-75030000D01*
X54029544Y-74994295D01*
X54246604Y-74923769D01*
X54449966Y-74820150D01*
X54523309Y-74766862D01*
X54523310Y-74766862D01*
X53901059Y-74144612D01*
X53921591Y-74139111D01*
X54058408Y-74060119D01*
X54170119Y-73948408D01*
X54249111Y-73811591D01*
X54254612Y-73791059D01*
X54876862Y-74413310D01*
X54876862Y-74413309D01*
X54930150Y-74339966D01*
X55033769Y-74136604D01*
X55104295Y-73919544D01*
X55140000Y-73694116D01*
X55140000Y-73465883D01*
X55139993Y-73465837D01*
X55739501Y-73465837D01*
X55739501Y-73694162D01*
X55775216Y-73919660D01*
X55845771Y-74136803D01*
X55949289Y-74339966D01*
X55949422Y-74340228D01*
X56083622Y-74524937D01*
X56245064Y-74686379D01*
X56429773Y-74820579D01*
X56525885Y-74869550D01*
X56633197Y-74924229D01*
X56633199Y-74924229D01*
X56633202Y-74924231D01*
X56749593Y-74962049D01*
X56850340Y-74994784D01*
X57075839Y-75030500D01*
X57075844Y-75030500D01*
X57304163Y-75030500D01*
X57529661Y-74994784D01*
X57531166Y-74994295D01*
X57746800Y-74924231D01*
X57950229Y-74820579D01*
X58134938Y-74686379D01*
X58296380Y-74524937D01*
X58430580Y-74340228D01*
X58534232Y-74136799D01*
X58604785Y-73919660D01*
X58604803Y-73919544D01*
X58640501Y-73694162D01*
X58640501Y-73465837D01*
X58604785Y-73240339D01*
X58534230Y-73023196D01*
X58430714Y-72820035D01*
X58430580Y-72819772D01*
X58296380Y-72635063D01*
X58134938Y-72473621D01*
X57950229Y-72339421D01*
X57746804Y-72235770D01*
X57529661Y-72165215D01*
X57304163Y-72129500D01*
X57304158Y-72129500D01*
X57075844Y-72129500D01*
X57075839Y-72129500D01*
X56850340Y-72165215D01*
X56633197Y-72235770D01*
X56429772Y-72339421D01*
X56245062Y-72473622D01*
X56083623Y-72635061D01*
X55949422Y-72819771D01*
X55845771Y-73023196D01*
X55775216Y-73240339D01*
X55739501Y-73465837D01*
X55139993Y-73465837D01*
X55104295Y-73240455D01*
X55033769Y-73023395D01*
X54930148Y-72820030D01*
X54876863Y-72746689D01*
X54876862Y-72746688D01*
X54254612Y-73368939D01*
X54249111Y-73348409D01*
X54170119Y-73211592D01*
X54058408Y-73099881D01*
X53921591Y-73020889D01*
X53901058Y-73015387D01*
X54523309Y-72393137D01*
X54523309Y-72393135D01*
X54449969Y-72339851D01*
X54246604Y-72236230D01*
X54029544Y-72165704D01*
X53804116Y-72130000D01*
X53575884Y-72130000D01*
X53350455Y-72165704D01*
X53133395Y-72236230D01*
X52930035Y-72339848D01*
X52930033Y-72339849D01*
X52856689Y-72393135D01*
X52856689Y-72393136D01*
X53478941Y-73015387D01*
X53458409Y-73020889D01*
X53321592Y-73099881D01*
X53209881Y-73211592D01*
X53130889Y-73348409D01*
X53125387Y-73368940D01*
X52503136Y-72746689D01*
X52503135Y-72746689D01*
X52449849Y-72820033D01*
X52449848Y-72820035D01*
X52346230Y-73023395D01*
X52275704Y-73240455D01*
X52240000Y-73465883D01*
X51640500Y-73465883D01*
X51640500Y-73465837D01*
X51604784Y-73240339D01*
X51534229Y-73023196D01*
X51430713Y-72820035D01*
X51430579Y-72819772D01*
X51364181Y-72728383D01*
X51357029Y-72708338D01*
X51345523Y-72690434D01*
X51342068Y-72666407D01*
X51340702Y-72662578D01*
X51340500Y-72655499D01*
X51340500Y-58398543D01*
X58859499Y-58398543D01*
X58897947Y-58591829D01*
X58897950Y-58591839D01*
X58973364Y-58773907D01*
X58973371Y-58773920D01*
X59086245Y-58942847D01*
X59084717Y-58943867D01*
X59108666Y-59000255D01*
X59109500Y-59014610D01*
X59109500Y-69318918D01*
X59109500Y-69318920D01*
X59109499Y-69318920D01*
X59138340Y-69463907D01*
X59138343Y-69463917D01*
X59194914Y-69600492D01*
X59227812Y-69649727D01*
X59227813Y-69649730D01*
X59277046Y-69723414D01*
X59277052Y-69723421D01*
X62737421Y-73183789D01*
X62770906Y-73245112D01*
X62772213Y-73290868D01*
X62744500Y-73465837D01*
X62744500Y-73694162D01*
X62780215Y-73919660D01*
X62850770Y-74136803D01*
X62954288Y-74339966D01*
X62954421Y-74340228D01*
X63088621Y-74524937D01*
X63250063Y-74686379D01*
X63434772Y-74820579D01*
X63530884Y-74869550D01*
X63638196Y-74924229D01*
X63638198Y-74924229D01*
X63638201Y-74924231D01*
X63754592Y-74962049D01*
X63855339Y-74994784D01*
X64080838Y-75030500D01*
X64080843Y-75030500D01*
X64309162Y-75030500D01*
X64534660Y-74994784D01*
X64536165Y-74994295D01*
X64751799Y-74924231D01*
X64955228Y-74820579D01*
X65139937Y-74686379D01*
X65301379Y-74524937D01*
X65435579Y-74340228D01*
X65539231Y-74136799D01*
X65609784Y-73919660D01*
X65609802Y-73919544D01*
X65645500Y-73694162D01*
X65645500Y-73465883D01*
X66245000Y-73465883D01*
X66245000Y-73694116D01*
X66280704Y-73919544D01*
X66351230Y-74136604D01*
X66454851Y-74339969D01*
X66508135Y-74413309D01*
X66508137Y-74413309D01*
X67130387Y-73791058D01*
X67135889Y-73811591D01*
X67214881Y-73948408D01*
X67326592Y-74060119D01*
X67463409Y-74139111D01*
X67483939Y-74144612D01*
X66861688Y-74766862D01*
X66861689Y-74766863D01*
X66935030Y-74820148D01*
X67138395Y-74923769D01*
X67355455Y-74994295D01*
X67580884Y-75030000D01*
X67809116Y-75030000D01*
X68034544Y-74994295D01*
X68251604Y-74923769D01*
X68454966Y-74820150D01*
X68528309Y-74766862D01*
X68528310Y-74766862D01*
X67906059Y-74144612D01*
X67926591Y-74139111D01*
X68063408Y-74060119D01*
X68175119Y-73948408D01*
X68254111Y-73811591D01*
X68259612Y-73791060D01*
X68881862Y-74413310D01*
X68881862Y-74413309D01*
X68935150Y-74339966D01*
X69038769Y-74136604D01*
X69109295Y-73919544D01*
X69145000Y-73694116D01*
X69145000Y-73465883D01*
X69144993Y-73465837D01*
X69744501Y-73465837D01*
X69744501Y-73694162D01*
X69780216Y-73919660D01*
X69850771Y-74136803D01*
X69954289Y-74339966D01*
X69954422Y-74340228D01*
X70088622Y-74524937D01*
X70250064Y-74686379D01*
X70434773Y-74820579D01*
X70530885Y-74869550D01*
X70638197Y-74924229D01*
X70638199Y-74924229D01*
X70638202Y-74924231D01*
X70754593Y-74962049D01*
X70855340Y-74994784D01*
X71080839Y-75030500D01*
X71080844Y-75030500D01*
X71309163Y-75030500D01*
X71534661Y-74994784D01*
X71536166Y-74994295D01*
X71751800Y-74924231D01*
X71955229Y-74820579D01*
X72139938Y-74686379D01*
X72301380Y-74524937D01*
X72435580Y-74340228D01*
X72539232Y-74136799D01*
X72609785Y-73919660D01*
X72609803Y-73919544D01*
X72645501Y-73694162D01*
X72645501Y-73465837D01*
X72609785Y-73240339D01*
X72539230Y-73023196D01*
X72435714Y-72820035D01*
X72435580Y-72819772D01*
X72301380Y-72635063D01*
X72139938Y-72473621D01*
X71955229Y-72339421D01*
X71751804Y-72235770D01*
X71534661Y-72165215D01*
X71309163Y-72129500D01*
X71309158Y-72129500D01*
X71080844Y-72129500D01*
X71080839Y-72129500D01*
X70855340Y-72165215D01*
X70638197Y-72235770D01*
X70434772Y-72339421D01*
X70250062Y-72473622D01*
X70088623Y-72635061D01*
X69954422Y-72819771D01*
X69850771Y-73023196D01*
X69780216Y-73240339D01*
X69744501Y-73465837D01*
X69144993Y-73465837D01*
X69109295Y-73240455D01*
X69038769Y-73023395D01*
X68935148Y-72820030D01*
X68881863Y-72746689D01*
X68881862Y-72746688D01*
X68259612Y-73368939D01*
X68254111Y-73348409D01*
X68175119Y-73211592D01*
X68063408Y-73099881D01*
X67926591Y-73020889D01*
X67906058Y-73015387D01*
X68528309Y-72393137D01*
X68528309Y-72393135D01*
X68454969Y-72339851D01*
X68251604Y-72236230D01*
X68034544Y-72165704D01*
X67809116Y-72130000D01*
X67580884Y-72130000D01*
X67355455Y-72165704D01*
X67138395Y-72236230D01*
X66935035Y-72339848D01*
X66935033Y-72339849D01*
X66861689Y-72393135D01*
X66861689Y-72393136D01*
X67483941Y-73015387D01*
X67463409Y-73020889D01*
X67326592Y-73099881D01*
X67214881Y-73211592D01*
X67135889Y-73348409D01*
X67130387Y-73368940D01*
X66508136Y-72746689D01*
X66508135Y-72746689D01*
X66454849Y-72820033D01*
X66454848Y-72820035D01*
X66351230Y-73023395D01*
X66280704Y-73240455D01*
X66245000Y-73465883D01*
X65645500Y-73465883D01*
X65645500Y-73465837D01*
X65609784Y-73240339D01*
X65539229Y-73023196D01*
X65435713Y-72820035D01*
X65435579Y-72819772D01*
X65301379Y-72635063D01*
X65139937Y-72473621D01*
X64955228Y-72339421D01*
X64751803Y-72235770D01*
X64534660Y-72165215D01*
X64309162Y-72129500D01*
X64309157Y-72129500D01*
X64080843Y-72129500D01*
X64080838Y-72129500D01*
X63905868Y-72157213D01*
X63836575Y-72148259D01*
X63798789Y-72122421D01*
X60646819Y-68970451D01*
X60613334Y-68909128D01*
X60610500Y-68882770D01*
X60610500Y-64655837D01*
X62049500Y-64655837D01*
X62049500Y-64884162D01*
X62085215Y-65109660D01*
X62155770Y-65326803D01*
X62259421Y-65530228D01*
X62393621Y-65714937D01*
X62555063Y-65876379D01*
X62739772Y-66010579D01*
X62835884Y-66059550D01*
X62943196Y-66114229D01*
X62943198Y-66114229D01*
X62943201Y-66114231D01*
X63059592Y-66152049D01*
X63160339Y-66184784D01*
X63385838Y-66220500D01*
X63385843Y-66220500D01*
X63614162Y-66220500D01*
X63839660Y-66184784D01*
X64056799Y-66114231D01*
X64260228Y-66010579D01*
X64444937Y-65876379D01*
X64606379Y-65714937D01*
X64740579Y-65530228D01*
X64844231Y-65326799D01*
X64914784Y-65109660D01*
X64950500Y-64884162D01*
X64950500Y-64655837D01*
X67049500Y-64655837D01*
X67049500Y-64884162D01*
X67085215Y-65109660D01*
X67155770Y-65326803D01*
X67259421Y-65530228D01*
X67393621Y-65714937D01*
X67555063Y-65876379D01*
X67739772Y-66010579D01*
X67835884Y-66059550D01*
X67943196Y-66114229D01*
X67943198Y-66114229D01*
X67943201Y-66114231D01*
X68059592Y-66152049D01*
X68160339Y-66184784D01*
X68385838Y-66220500D01*
X68385843Y-66220500D01*
X68614162Y-66220500D01*
X68839660Y-66184784D01*
X69056799Y-66114231D01*
X69260228Y-66010579D01*
X69444937Y-65876379D01*
X69606379Y-65714937D01*
X69740579Y-65530228D01*
X69844231Y-65326799D01*
X69914784Y-65109660D01*
X69950500Y-64884162D01*
X69950500Y-64655837D01*
X69914784Y-64430339D01*
X69844229Y-64213196D01*
X69740578Y-64009771D01*
X69606379Y-63825063D01*
X69444937Y-63663621D01*
X69260228Y-63529421D01*
X69056803Y-63425770D01*
X68839660Y-63355215D01*
X68614162Y-63319500D01*
X68614157Y-63319500D01*
X68385843Y-63319500D01*
X68385838Y-63319500D01*
X68160339Y-63355215D01*
X67943196Y-63425770D01*
X67739771Y-63529421D01*
X67555061Y-63663622D01*
X67393622Y-63825061D01*
X67259421Y-64009771D01*
X67155770Y-64213196D01*
X67085215Y-64430339D01*
X67049500Y-64655837D01*
X64950500Y-64655837D01*
X64914784Y-64430339D01*
X64844229Y-64213196D01*
X64740578Y-64009771D01*
X64606379Y-63825063D01*
X64444937Y-63663621D01*
X64260228Y-63529421D01*
X64056803Y-63425770D01*
X63839660Y-63355215D01*
X63614162Y-63319500D01*
X63614157Y-63319500D01*
X63385843Y-63319500D01*
X63385838Y-63319500D01*
X63160339Y-63355215D01*
X62943196Y-63425770D01*
X62739771Y-63529421D01*
X62555061Y-63663622D01*
X62393622Y-63825061D01*
X62259421Y-64009771D01*
X62155770Y-64213196D01*
X62085215Y-64430339D01*
X62049500Y-64655837D01*
X60610500Y-64655837D01*
X60610500Y-61155883D01*
X62050000Y-61155883D01*
X62050000Y-61384116D01*
X62085704Y-61609544D01*
X62156230Y-61826604D01*
X62259851Y-62029969D01*
X62313135Y-62103309D01*
X62313137Y-62103309D01*
X62935387Y-61481058D01*
X62940889Y-61501591D01*
X63019881Y-61638408D01*
X63131592Y-61750119D01*
X63268409Y-61829111D01*
X63288939Y-61834612D01*
X62666688Y-62456862D01*
X62666689Y-62456863D01*
X62740030Y-62510148D01*
X62943395Y-62613769D01*
X63160455Y-62684295D01*
X63385884Y-62720000D01*
X63614116Y-62720000D01*
X63839544Y-62684295D01*
X64056604Y-62613769D01*
X64259966Y-62510150D01*
X64333309Y-62456862D01*
X64333310Y-62456862D01*
X63711059Y-61834612D01*
X63731591Y-61829111D01*
X63868408Y-61750119D01*
X63980119Y-61638408D01*
X64059111Y-61501591D01*
X64064612Y-61481060D01*
X64686862Y-62103310D01*
X64686862Y-62103309D01*
X64740150Y-62029966D01*
X64843769Y-61826604D01*
X64914295Y-61609544D01*
X64950000Y-61384116D01*
X64950000Y-61155883D01*
X67050000Y-61155883D01*
X67050000Y-61384116D01*
X67085704Y-61609544D01*
X67156230Y-61826604D01*
X67259851Y-62029969D01*
X67313135Y-62103309D01*
X67313137Y-62103309D01*
X67935387Y-61481059D01*
X67940889Y-61501591D01*
X68019881Y-61638408D01*
X68131592Y-61750119D01*
X68268409Y-61829111D01*
X68288939Y-61834612D01*
X67666688Y-62456862D01*
X67666689Y-62456863D01*
X67740030Y-62510148D01*
X67943395Y-62613769D01*
X68160455Y-62684295D01*
X68385884Y-62720000D01*
X68614116Y-62720000D01*
X68839544Y-62684295D01*
X69056604Y-62613769D01*
X69259966Y-62510150D01*
X69333309Y-62456862D01*
X69333310Y-62456862D01*
X68711059Y-61834612D01*
X68731591Y-61829111D01*
X68868408Y-61750119D01*
X68980119Y-61638408D01*
X69059111Y-61501591D01*
X69064612Y-61481059D01*
X69686862Y-62103310D01*
X69686862Y-62103309D01*
X69740150Y-62029966D01*
X69843769Y-61826604D01*
X69914295Y-61609544D01*
X69950000Y-61384116D01*
X69950000Y-61155883D01*
X69914295Y-60930455D01*
X69843769Y-60713395D01*
X69740148Y-60510030D01*
X69686863Y-60436689D01*
X69686862Y-60436688D01*
X69064612Y-61058939D01*
X69059111Y-61038409D01*
X68980119Y-60901592D01*
X68868408Y-60789881D01*
X68731591Y-60710889D01*
X68711058Y-60705387D01*
X69333309Y-60083137D01*
X69333309Y-60083135D01*
X69259969Y-60029851D01*
X69056604Y-59926230D01*
X68839544Y-59855704D01*
X68614116Y-59820000D01*
X68385884Y-59820000D01*
X68160455Y-59855704D01*
X67943395Y-59926230D01*
X67740035Y-60029848D01*
X67740033Y-60029849D01*
X67666689Y-60083135D01*
X67666689Y-60083136D01*
X68288941Y-60705387D01*
X68268409Y-60710889D01*
X68131592Y-60789881D01*
X68019881Y-60901592D01*
X67940889Y-61038409D01*
X67935387Y-61058940D01*
X67313136Y-60436689D01*
X67313135Y-60436689D01*
X67259849Y-60510033D01*
X67259848Y-60510035D01*
X67156230Y-60713395D01*
X67085704Y-60930455D01*
X67050000Y-61155883D01*
X64950000Y-61155883D01*
X64914295Y-60930455D01*
X64843769Y-60713395D01*
X64740148Y-60510030D01*
X64686863Y-60436689D01*
X64686862Y-60436688D01*
X64064612Y-61058939D01*
X64059111Y-61038409D01*
X63980119Y-60901592D01*
X63868408Y-60789881D01*
X63731591Y-60710889D01*
X63711058Y-60705387D01*
X64333309Y-60083137D01*
X64333309Y-60083135D01*
X64259969Y-60029851D01*
X64056604Y-59926230D01*
X63839544Y-59855704D01*
X63614116Y-59820000D01*
X63385884Y-59820000D01*
X63160455Y-59855704D01*
X62943395Y-59926230D01*
X62740035Y-60029848D01*
X62740033Y-60029849D01*
X62666689Y-60083135D01*
X62666689Y-60083136D01*
X63288941Y-60705387D01*
X63268409Y-60710889D01*
X63131592Y-60789881D01*
X63019881Y-60901592D01*
X62940889Y-61038409D01*
X62935387Y-61058940D01*
X62313136Y-60436689D01*
X62313135Y-60436689D01*
X62259849Y-60510033D01*
X62259848Y-60510035D01*
X62156230Y-60713395D01*
X62085704Y-60930455D01*
X62050000Y-61155883D01*
X60610500Y-61155883D01*
X60610500Y-59014610D01*
X60630185Y-58947571D01*
X60635228Y-58940641D01*
X60637136Y-58937784D01*
X60637139Y-58937782D01*
X60746632Y-58773914D01*
X60822051Y-58591835D01*
X60860500Y-58398541D01*
X60860500Y-58201459D01*
X60860500Y-58201456D01*
X60822052Y-58008170D01*
X60822051Y-58008169D01*
X60822051Y-58008165D01*
X60822049Y-58008160D01*
X60746635Y-57826092D01*
X60746628Y-57826079D01*
X60637139Y-57662218D01*
X60637136Y-57662214D01*
X60497785Y-57522863D01*
X60497781Y-57522860D01*
X60333920Y-57413371D01*
X60333907Y-57413364D01*
X60151839Y-57337950D01*
X60151829Y-57337947D01*
X59958543Y-57299500D01*
X59958541Y-57299500D01*
X59761459Y-57299500D01*
X59761457Y-57299500D01*
X59568170Y-57337947D01*
X59568160Y-57337950D01*
X59386092Y-57413364D01*
X59386079Y-57413371D01*
X59222218Y-57522860D01*
X59222214Y-57522863D01*
X59082863Y-57662214D01*
X59082860Y-57662218D01*
X58973371Y-57826079D01*
X58973364Y-57826092D01*
X58897950Y-58008160D01*
X58897947Y-58008170D01*
X58859500Y-58201456D01*
X58859500Y-58201459D01*
X58859500Y-58398541D01*
X58859500Y-58398543D01*
X58859499Y-58398543D01*
X51340500Y-58398543D01*
X51340500Y-56034610D01*
X51360185Y-55967571D01*
X51365228Y-55960641D01*
X51367136Y-55957784D01*
X51367139Y-55957782D01*
X51476632Y-55793914D01*
X51552051Y-55611835D01*
X51590500Y-55418541D01*
X51590500Y-55221459D01*
X51590500Y-55221456D01*
X51552052Y-55028170D01*
X51552051Y-55028169D01*
X51552051Y-55028165D01*
X51552049Y-55028160D01*
X51476635Y-54846092D01*
X51476628Y-54846079D01*
X51367139Y-54682218D01*
X51367136Y-54682214D01*
X51227785Y-54542863D01*
X51227781Y-54542860D01*
X51157406Y-54495837D01*
X62049500Y-54495837D01*
X62049500Y-54724162D01*
X62085215Y-54949660D01*
X62155770Y-55166803D01*
X62259421Y-55370228D01*
X62393621Y-55554937D01*
X62555063Y-55716379D01*
X62739772Y-55850579D01*
X62835884Y-55899550D01*
X62943196Y-55954229D01*
X62943198Y-55954229D01*
X62943201Y-55954231D01*
X63036116Y-55984421D01*
X63160339Y-56024784D01*
X63385838Y-56060500D01*
X63385843Y-56060500D01*
X63614162Y-56060500D01*
X63839660Y-56024784D01*
X63853599Y-56020255D01*
X64056799Y-55954231D01*
X64260228Y-55850579D01*
X64444937Y-55716379D01*
X64606379Y-55554937D01*
X64740579Y-55370228D01*
X64844231Y-55166799D01*
X64914784Y-54949660D01*
X64950500Y-54724162D01*
X64950500Y-54495837D01*
X67049500Y-54495837D01*
X67049500Y-54724162D01*
X67085215Y-54949660D01*
X67155770Y-55166803D01*
X67259421Y-55370228D01*
X67393621Y-55554937D01*
X67555063Y-55716379D01*
X67739772Y-55850579D01*
X67835884Y-55899550D01*
X67943196Y-55954229D01*
X67943198Y-55954229D01*
X67943201Y-55954231D01*
X68036116Y-55984421D01*
X68160339Y-56024784D01*
X68385838Y-56060500D01*
X68385843Y-56060500D01*
X68614162Y-56060500D01*
X68839660Y-56024784D01*
X68853599Y-56020255D01*
X69056799Y-55954231D01*
X69260228Y-55850579D01*
X69444937Y-55716379D01*
X69606379Y-55554937D01*
X69740579Y-55370228D01*
X69844231Y-55166799D01*
X69914784Y-54949660D01*
X69950500Y-54724162D01*
X69950500Y-54495837D01*
X69914784Y-54270339D01*
X69844229Y-54053196D01*
X69740578Y-53849771D01*
X69606379Y-53665063D01*
X69444937Y-53503621D01*
X69260228Y-53369421D01*
X69056803Y-53265770D01*
X68839660Y-53195215D01*
X68614162Y-53159500D01*
X68614157Y-53159500D01*
X68385843Y-53159500D01*
X68385838Y-53159500D01*
X68160339Y-53195215D01*
X67943196Y-53265770D01*
X67739771Y-53369421D01*
X67555061Y-53503622D01*
X67393622Y-53665061D01*
X67259421Y-53849771D01*
X67155770Y-54053196D01*
X67085215Y-54270339D01*
X67049500Y-54495837D01*
X64950500Y-54495837D01*
X64914784Y-54270339D01*
X64844229Y-54053196D01*
X64740578Y-53849771D01*
X64606379Y-53665063D01*
X64444937Y-53503621D01*
X64260228Y-53369421D01*
X64056803Y-53265770D01*
X63839660Y-53195215D01*
X63614162Y-53159500D01*
X63614157Y-53159500D01*
X63385843Y-53159500D01*
X63385838Y-53159500D01*
X63160339Y-53195215D01*
X62943196Y-53265770D01*
X62739771Y-53369421D01*
X62555061Y-53503622D01*
X62393622Y-53665061D01*
X62259421Y-53849771D01*
X62155770Y-54053196D01*
X62085215Y-54270339D01*
X62049500Y-54495837D01*
X51157406Y-54495837D01*
X51063920Y-54433371D01*
X51063907Y-54433364D01*
X50881839Y-54357950D01*
X50881829Y-54357947D01*
X50688543Y-54319500D01*
X50688541Y-54319500D01*
X50491459Y-54319500D01*
X50491457Y-54319500D01*
X50298170Y-54357947D01*
X50298160Y-54357950D01*
X50116092Y-54433364D01*
X50116079Y-54433371D01*
X49952218Y-54542860D01*
X49952214Y-54542863D01*
X49812863Y-54682214D01*
X49812860Y-54682218D01*
X49703371Y-54846079D01*
X49703364Y-54846092D01*
X49627950Y-55028160D01*
X49627947Y-55028170D01*
X49589500Y-55221456D01*
X49589500Y-55221459D01*
X49589500Y-55418541D01*
X49589500Y-55418543D01*
X49589499Y-55418543D01*
X49627947Y-55611829D01*
X49627950Y-55611839D01*
X49703364Y-55793907D01*
X49703371Y-55793920D01*
X49816245Y-55962847D01*
X49814717Y-55963867D01*
X49838666Y-56020255D01*
X49839500Y-56034610D01*
X49839500Y-72078647D01*
X49819815Y-72145686D01*
X49767011Y-72191441D01*
X49753825Y-72196575D01*
X49707243Y-72211710D01*
X49633196Y-72235770D01*
X49429771Y-72339421D01*
X49245061Y-72473622D01*
X49083622Y-72635061D01*
X48949421Y-72819771D01*
X48845770Y-73023196D01*
X48775215Y-73240339D01*
X48739500Y-73465837D01*
X44800501Y-73465837D01*
X44764785Y-73240339D01*
X44694230Y-73023196D01*
X44590714Y-72820035D01*
X44590580Y-72819772D01*
X44456380Y-72635063D01*
X44294938Y-72473621D01*
X44110229Y-72339421D01*
X43906804Y-72235770D01*
X43689661Y-72165215D01*
X43464163Y-72129500D01*
X43464158Y-72129500D01*
X43235844Y-72129500D01*
X43235839Y-72129500D01*
X43010340Y-72165215D01*
X42793197Y-72235770D01*
X42589772Y-72339421D01*
X42405062Y-72473622D01*
X42243623Y-72635061D01*
X42109422Y-72819771D01*
X42005771Y-73023196D01*
X41935216Y-73240339D01*
X41899501Y-73465837D01*
X41299993Y-73465837D01*
X41264295Y-73240455D01*
X41193769Y-73023395D01*
X41090148Y-72820030D01*
X41036863Y-72746689D01*
X41036862Y-72746688D01*
X40414612Y-73368939D01*
X40409111Y-73348409D01*
X40330119Y-73211592D01*
X40218408Y-73099881D01*
X40081591Y-73020889D01*
X40061058Y-73015387D01*
X40683309Y-72393137D01*
X40683309Y-72393135D01*
X40609969Y-72339851D01*
X40406604Y-72236230D01*
X40189544Y-72165704D01*
X39964116Y-72130000D01*
X39735884Y-72130000D01*
X39510455Y-72165704D01*
X39293395Y-72236230D01*
X39090035Y-72339848D01*
X39090033Y-72339849D01*
X39016689Y-72393135D01*
X39016689Y-72393136D01*
X39638941Y-73015387D01*
X39618409Y-73020889D01*
X39481592Y-73099881D01*
X39369881Y-73211592D01*
X39290889Y-73348409D01*
X39285387Y-73368940D01*
X38663136Y-72746689D01*
X38663135Y-72746689D01*
X38609849Y-72820033D01*
X38609848Y-72820035D01*
X38506230Y-73023395D01*
X38435704Y-73240455D01*
X38400000Y-73465883D01*
X37800500Y-73465883D01*
X37800500Y-73465837D01*
X37764784Y-73240339D01*
X37694229Y-73023196D01*
X37590713Y-72820035D01*
X37590579Y-72819772D01*
X37456379Y-72635063D01*
X37294937Y-72473621D01*
X37110228Y-72339421D01*
X36906803Y-72235770D01*
X36689660Y-72165215D01*
X36464162Y-72129500D01*
X36464157Y-72129500D01*
X36235843Y-72129500D01*
X36235838Y-72129500D01*
X36010339Y-72165215D01*
X35793196Y-72235770D01*
X35589771Y-72339421D01*
X35405061Y-72473622D01*
X35243622Y-72635061D01*
X35109421Y-72819771D01*
X35005770Y-73023196D01*
X34935215Y-73240339D01*
X34899500Y-73465837D01*
X25400500Y-73465837D01*
X25400500Y-50995837D01*
X62049500Y-50995837D01*
X62049500Y-51224162D01*
X62085215Y-51449660D01*
X62155770Y-51666803D01*
X62259420Y-51870227D01*
X62259421Y-51870228D01*
X62393621Y-52054937D01*
X62555063Y-52216379D01*
X62739772Y-52350579D01*
X62835884Y-52399550D01*
X62943196Y-52454229D01*
X62943198Y-52454229D01*
X62943201Y-52454231D01*
X63059592Y-52492049D01*
X63160339Y-52524784D01*
X63385838Y-52560500D01*
X63385843Y-52560500D01*
X63614162Y-52560500D01*
X63839660Y-52524784D01*
X63839663Y-52524783D01*
X64056799Y-52454231D01*
X64260228Y-52350579D01*
X64444937Y-52216379D01*
X64606379Y-52054937D01*
X64740579Y-51870228D01*
X64844231Y-51666799D01*
X64914784Y-51449660D01*
X64914784Y-51449659D01*
X64950500Y-51224162D01*
X64950500Y-50995837D01*
X64950500Y-50995836D01*
X67049499Y-50995836D01*
X67049499Y-51224161D01*
X67085214Y-51449659D01*
X67155769Y-51666802D01*
X67259420Y-51870227D01*
X67393620Y-52054936D01*
X67555062Y-52216378D01*
X67739771Y-52350578D01*
X67835883Y-52399549D01*
X67943195Y-52454228D01*
X67943197Y-52454228D01*
X67943200Y-52454230D01*
X68059591Y-52492048D01*
X68160338Y-52524783D01*
X68385837Y-52560499D01*
X68385842Y-52560499D01*
X68614161Y-52560499D01*
X68839659Y-52524783D01*
X69056798Y-52454230D01*
X69260227Y-52350578D01*
X69444936Y-52216378D01*
X69606378Y-52054936D01*
X69740578Y-51870227D01*
X69844230Y-51666798D01*
X69914783Y-51449659D01*
X69950499Y-51224161D01*
X69950499Y-50995836D01*
X69914783Y-50770338D01*
X69844228Y-50553195D01*
X69789549Y-50445883D01*
X69740578Y-50349771D01*
X69606378Y-50165062D01*
X69444936Y-50003620D01*
X69260227Y-49869420D01*
X69056802Y-49765769D01*
X68839659Y-49695214D01*
X68614161Y-49659499D01*
X68614156Y-49659499D01*
X68385842Y-49659499D01*
X68385837Y-49659499D01*
X68160338Y-49695214D01*
X67943195Y-49765769D01*
X67739770Y-49869420D01*
X67555060Y-50003621D01*
X67393621Y-50165060D01*
X67259420Y-50349770D01*
X67155769Y-50553195D01*
X67085214Y-50770338D01*
X67049499Y-50995836D01*
X64950500Y-50995836D01*
X64914784Y-50770339D01*
X64844229Y-50553196D01*
X64740578Y-50349771D01*
X64606379Y-50165063D01*
X64444937Y-50003621D01*
X64260228Y-49869421D01*
X64260226Y-49869420D01*
X64056803Y-49765770D01*
X63839660Y-49695215D01*
X63614162Y-49659500D01*
X63614157Y-49659500D01*
X63385843Y-49659500D01*
X63385838Y-49659500D01*
X63160339Y-49695215D01*
X62943196Y-49765770D01*
X62739771Y-49869421D01*
X62555061Y-50003622D01*
X62393622Y-50165061D01*
X62259421Y-50349771D01*
X62155770Y-50553196D01*
X62085215Y-50770339D01*
X62049500Y-50995837D01*
X25400500Y-50995837D01*
X25400500Y-47495835D01*
X62049500Y-47495835D01*
X62049500Y-47724160D01*
X62085215Y-47949658D01*
X62155770Y-48166801D01*
X62259421Y-48370226D01*
X62393621Y-48554935D01*
X62555063Y-48716377D01*
X62739772Y-48850577D01*
X62835884Y-48899548D01*
X62943196Y-48954227D01*
X62943198Y-48954227D01*
X62943201Y-48954229D01*
X63059592Y-48992047D01*
X63160339Y-49024782D01*
X63385838Y-49060498D01*
X63385843Y-49060498D01*
X63614162Y-49060498D01*
X63839660Y-49024782D01*
X64056799Y-48954229D01*
X64260228Y-48850577D01*
X64444937Y-48716377D01*
X64606379Y-48554935D01*
X64740579Y-48370226D01*
X64844231Y-48166797D01*
X64914784Y-47949658D01*
X64950500Y-47724160D01*
X64950500Y-47495835D01*
X67049500Y-47495835D01*
X67049500Y-47724160D01*
X67085215Y-47949658D01*
X67155770Y-48166801D01*
X67259421Y-48370226D01*
X67393621Y-48554935D01*
X67555063Y-48716377D01*
X67739772Y-48850577D01*
X67835884Y-48899548D01*
X67943196Y-48954227D01*
X67943198Y-48954227D01*
X67943201Y-48954229D01*
X68059592Y-48992047D01*
X68160339Y-49024782D01*
X68385838Y-49060498D01*
X68385843Y-49060498D01*
X68614162Y-49060498D01*
X68839660Y-49024782D01*
X69056799Y-48954229D01*
X69260228Y-48850577D01*
X69444937Y-48716377D01*
X69606379Y-48554935D01*
X69740579Y-48370226D01*
X69844231Y-48166797D01*
X69914784Y-47949658D01*
X69950500Y-47724160D01*
X69950500Y-47495835D01*
X69914784Y-47270337D01*
X69844229Y-47053194D01*
X69740578Y-46849769D01*
X69606379Y-46665061D01*
X69444937Y-46503619D01*
X69260228Y-46369419D01*
X69056803Y-46265768D01*
X68839660Y-46195213D01*
X68614162Y-46159498D01*
X68614157Y-46159498D01*
X68385843Y-46159498D01*
X68385838Y-46159498D01*
X68160339Y-46195213D01*
X67943196Y-46265768D01*
X67739771Y-46369419D01*
X67555061Y-46503620D01*
X67393622Y-46665059D01*
X67259421Y-46849769D01*
X67155770Y-47053194D01*
X67085215Y-47270337D01*
X67049500Y-47495835D01*
X64950500Y-47495835D01*
X64914784Y-47270337D01*
X64844229Y-47053194D01*
X64740578Y-46849769D01*
X64606379Y-46665061D01*
X64444937Y-46503619D01*
X64260228Y-46369419D01*
X64056803Y-46265768D01*
X63839660Y-46195213D01*
X63614162Y-46159498D01*
X63614157Y-46159498D01*
X63385843Y-46159498D01*
X63385838Y-46159498D01*
X63160339Y-46195213D01*
X62943196Y-46265768D01*
X62739771Y-46369419D01*
X62555061Y-46503620D01*
X62393622Y-46665059D01*
X62259421Y-46849769D01*
X62155770Y-47053194D01*
X62085215Y-47270337D01*
X62049500Y-47495835D01*
X25400500Y-47495835D01*
X25400500Y-43995834D01*
X62049500Y-43995834D01*
X62049500Y-44224159D01*
X62085215Y-44449657D01*
X62155770Y-44666800D01*
X62259421Y-44870225D01*
X62393621Y-45054934D01*
X62555063Y-45216376D01*
X62739772Y-45350576D01*
X62835884Y-45399547D01*
X62943196Y-45454226D01*
X62943198Y-45454226D01*
X62943201Y-45454228D01*
X63059592Y-45492046D01*
X63160339Y-45524781D01*
X63385838Y-45560497D01*
X63385843Y-45560497D01*
X63614162Y-45560497D01*
X63839660Y-45524781D01*
X64056799Y-45454228D01*
X64260228Y-45350576D01*
X64444937Y-45216376D01*
X64606379Y-45054934D01*
X64740579Y-44870225D01*
X64844231Y-44666796D01*
X64914784Y-44449657D01*
X64950500Y-44224159D01*
X64950500Y-43995834D01*
X67049500Y-43995834D01*
X67049500Y-44224159D01*
X67085215Y-44449657D01*
X67155770Y-44666800D01*
X67259421Y-44870225D01*
X67393621Y-45054934D01*
X67555063Y-45216376D01*
X67739772Y-45350576D01*
X67835884Y-45399547D01*
X67943196Y-45454226D01*
X67943198Y-45454226D01*
X67943201Y-45454228D01*
X68059592Y-45492046D01*
X68160339Y-45524781D01*
X68385838Y-45560497D01*
X68385843Y-45560497D01*
X68614162Y-45560497D01*
X68839660Y-45524781D01*
X69056799Y-45454228D01*
X69260228Y-45350576D01*
X69444937Y-45216376D01*
X69606379Y-45054934D01*
X69740579Y-44870225D01*
X69844231Y-44666796D01*
X69914784Y-44449657D01*
X69950500Y-44224159D01*
X69950500Y-43995834D01*
X69914784Y-43770336D01*
X69844229Y-43553193D01*
X69740578Y-43349768D01*
X69606379Y-43165060D01*
X69444937Y-43003618D01*
X69260228Y-42869418D01*
X69056803Y-42765767D01*
X68839660Y-42695212D01*
X68614162Y-42659497D01*
X68614157Y-42659497D01*
X68385843Y-42659497D01*
X68385838Y-42659497D01*
X68160339Y-42695212D01*
X67943196Y-42765767D01*
X67739771Y-42869418D01*
X67555061Y-43003619D01*
X67393622Y-43165058D01*
X67259421Y-43349768D01*
X67155770Y-43553193D01*
X67085215Y-43770336D01*
X67049500Y-43995834D01*
X64950500Y-43995834D01*
X64914784Y-43770336D01*
X64844229Y-43553193D01*
X64740578Y-43349768D01*
X64606379Y-43165060D01*
X64444937Y-43003618D01*
X64260228Y-42869418D01*
X64056803Y-42765767D01*
X63839660Y-42695212D01*
X63614162Y-42659497D01*
X63614157Y-42659497D01*
X63385843Y-42659497D01*
X63385838Y-42659497D01*
X63160339Y-42695212D01*
X62943196Y-42765767D01*
X62739771Y-42869418D01*
X62555061Y-43003619D01*
X62393622Y-43165058D01*
X62259421Y-43349768D01*
X62155770Y-43553193D01*
X62085215Y-43770336D01*
X62049500Y-43995834D01*
X25400500Y-43995834D01*
X25400500Y-40495834D01*
X62049500Y-40495834D01*
X62049500Y-40724159D01*
X62085215Y-40949657D01*
X62155770Y-41166800D01*
X62259421Y-41370225D01*
X62393621Y-41554934D01*
X62555063Y-41716376D01*
X62739772Y-41850576D01*
X62835884Y-41899547D01*
X62943196Y-41954226D01*
X62943198Y-41954226D01*
X62943201Y-41954228D01*
X63059592Y-41992046D01*
X63160339Y-42024781D01*
X63385838Y-42060497D01*
X63385843Y-42060497D01*
X63614162Y-42060497D01*
X63839660Y-42024781D01*
X64056799Y-41954228D01*
X64260228Y-41850576D01*
X64444937Y-41716376D01*
X64606379Y-41554934D01*
X64740579Y-41370225D01*
X64844231Y-41166796D01*
X64914784Y-40949657D01*
X64950500Y-40724159D01*
X64950500Y-40495834D01*
X67049500Y-40495834D01*
X67049500Y-40724159D01*
X67085215Y-40949657D01*
X67155770Y-41166800D01*
X67259421Y-41370225D01*
X67393621Y-41554934D01*
X67555063Y-41716376D01*
X67739772Y-41850576D01*
X67835884Y-41899547D01*
X67943196Y-41954226D01*
X67943198Y-41954226D01*
X67943201Y-41954228D01*
X68059592Y-41992046D01*
X68160339Y-42024781D01*
X68385838Y-42060497D01*
X68385843Y-42060497D01*
X68614162Y-42060497D01*
X68839660Y-42024781D01*
X69056799Y-41954228D01*
X69260228Y-41850576D01*
X69444937Y-41716376D01*
X69606379Y-41554934D01*
X69740579Y-41370225D01*
X69844231Y-41166796D01*
X69914784Y-40949657D01*
X69950500Y-40724159D01*
X69950500Y-40495834D01*
X69914784Y-40270336D01*
X69844229Y-40053193D01*
X69740578Y-39849768D01*
X69606379Y-39665060D01*
X69444937Y-39503618D01*
X69260228Y-39369418D01*
X69056803Y-39265767D01*
X68839660Y-39195212D01*
X68614162Y-39159497D01*
X68614157Y-39159497D01*
X68385843Y-39159497D01*
X68385838Y-39159497D01*
X68160339Y-39195212D01*
X67943196Y-39265767D01*
X67739771Y-39369418D01*
X67555061Y-39503619D01*
X67393622Y-39665058D01*
X67259421Y-39849768D01*
X67155770Y-40053193D01*
X67085215Y-40270336D01*
X67049500Y-40495834D01*
X64950500Y-40495834D01*
X64914784Y-40270336D01*
X64844229Y-40053193D01*
X64740578Y-39849768D01*
X64606379Y-39665060D01*
X64444937Y-39503618D01*
X64260228Y-39369418D01*
X64056803Y-39265767D01*
X63839660Y-39195212D01*
X63614162Y-39159497D01*
X63614157Y-39159497D01*
X63385843Y-39159497D01*
X63385838Y-39159497D01*
X63160339Y-39195212D01*
X62943196Y-39265767D01*
X62739771Y-39369418D01*
X62555061Y-39503619D01*
X62393622Y-39665058D01*
X62259421Y-39849768D01*
X62155770Y-40053193D01*
X62085215Y-40270336D01*
X62049500Y-40495834D01*
X25400500Y-40495834D01*
X25400500Y-36995834D01*
X62049500Y-36995834D01*
X62049500Y-37224159D01*
X62085215Y-37449657D01*
X62155770Y-37666800D01*
X62259421Y-37870225D01*
X62393621Y-38054934D01*
X62555063Y-38216376D01*
X62739772Y-38350576D01*
X62835884Y-38399547D01*
X62943196Y-38454226D01*
X62943198Y-38454226D01*
X62943201Y-38454228D01*
X63059592Y-38492046D01*
X63160339Y-38524781D01*
X63385838Y-38560497D01*
X63385843Y-38560497D01*
X63614162Y-38560497D01*
X63839660Y-38524781D01*
X64056799Y-38454228D01*
X64260228Y-38350576D01*
X64444937Y-38216376D01*
X64606379Y-38054934D01*
X64740579Y-37870225D01*
X64844231Y-37666796D01*
X64914784Y-37449657D01*
X64950500Y-37224159D01*
X64950500Y-36995834D01*
X67049500Y-36995834D01*
X67049500Y-37224159D01*
X67085215Y-37449657D01*
X67155770Y-37666800D01*
X67259421Y-37870225D01*
X67393621Y-38054934D01*
X67555063Y-38216376D01*
X67739772Y-38350576D01*
X67835884Y-38399547D01*
X67943196Y-38454226D01*
X67943198Y-38454226D01*
X67943201Y-38454228D01*
X68059592Y-38492046D01*
X68160339Y-38524781D01*
X68385838Y-38560497D01*
X68385843Y-38560497D01*
X68614162Y-38560497D01*
X68839660Y-38524781D01*
X69056799Y-38454228D01*
X69260228Y-38350576D01*
X69444937Y-38216376D01*
X69606379Y-38054934D01*
X69740579Y-37870225D01*
X69844231Y-37666796D01*
X69914784Y-37449657D01*
X69950500Y-37224159D01*
X69950500Y-36995834D01*
X69914784Y-36770336D01*
X69844229Y-36553193D01*
X69740578Y-36349768D01*
X69606379Y-36165060D01*
X69444937Y-36003618D01*
X69260228Y-35869418D01*
X69056803Y-35765767D01*
X68839660Y-35695212D01*
X68614162Y-35659497D01*
X68614157Y-35659497D01*
X68385843Y-35659497D01*
X68385838Y-35659497D01*
X68160339Y-35695212D01*
X67943196Y-35765767D01*
X67739771Y-35869418D01*
X67555061Y-36003619D01*
X67393622Y-36165058D01*
X67259421Y-36349768D01*
X67155770Y-36553193D01*
X67085215Y-36770336D01*
X67049500Y-36995834D01*
X64950500Y-36995834D01*
X64914784Y-36770336D01*
X64844229Y-36553193D01*
X64740578Y-36349768D01*
X64606379Y-36165060D01*
X64444937Y-36003618D01*
X64260228Y-35869418D01*
X64056803Y-35765767D01*
X63839660Y-35695212D01*
X63614162Y-35659497D01*
X63614157Y-35659497D01*
X63385843Y-35659497D01*
X63385838Y-35659497D01*
X63160339Y-35695212D01*
X62943196Y-35765767D01*
X62739771Y-35869418D01*
X62555061Y-36003619D01*
X62393622Y-36165058D01*
X62259421Y-36349768D01*
X62155770Y-36553193D01*
X62085215Y-36770336D01*
X62049500Y-36995834D01*
X25400500Y-36995834D01*
X25400500Y-33495833D01*
X62049500Y-33495833D01*
X62049500Y-33724158D01*
X62085215Y-33949656D01*
X62155770Y-34166799D01*
X62259421Y-34370224D01*
X62393621Y-34554933D01*
X62555063Y-34716375D01*
X62739772Y-34850575D01*
X62835884Y-34899546D01*
X62943196Y-34954225D01*
X62943198Y-34954225D01*
X62943201Y-34954227D01*
X63059592Y-34992045D01*
X63160339Y-35024780D01*
X63385838Y-35060496D01*
X63385843Y-35060496D01*
X63614162Y-35060496D01*
X63839660Y-35024780D01*
X64056799Y-34954227D01*
X64260228Y-34850575D01*
X64444937Y-34716375D01*
X64606379Y-34554933D01*
X64740579Y-34370224D01*
X64844231Y-34166795D01*
X64914784Y-33949656D01*
X64950500Y-33724158D01*
X64950500Y-33495833D01*
X67049500Y-33495833D01*
X67049500Y-33724158D01*
X67085215Y-33949656D01*
X67155770Y-34166799D01*
X67259421Y-34370224D01*
X67393621Y-34554933D01*
X67555063Y-34716375D01*
X67739772Y-34850575D01*
X67835884Y-34899546D01*
X67943196Y-34954225D01*
X67943198Y-34954225D01*
X67943201Y-34954227D01*
X68059592Y-34992045D01*
X68160339Y-35024780D01*
X68385838Y-35060496D01*
X68385843Y-35060496D01*
X68614162Y-35060496D01*
X68839660Y-35024780D01*
X69056799Y-34954227D01*
X69260228Y-34850575D01*
X69444937Y-34716375D01*
X69606379Y-34554933D01*
X69740579Y-34370224D01*
X69844231Y-34166795D01*
X69914784Y-33949656D01*
X69950500Y-33724158D01*
X69950500Y-33495833D01*
X69914784Y-33270335D01*
X69844229Y-33053192D01*
X69740578Y-32849767D01*
X69606379Y-32665059D01*
X69444937Y-32503617D01*
X69260228Y-32369417D01*
X69056803Y-32265766D01*
X68839660Y-32195211D01*
X68614162Y-32159496D01*
X68614157Y-32159496D01*
X68385843Y-32159496D01*
X68385838Y-32159496D01*
X68160339Y-32195211D01*
X67943196Y-32265766D01*
X67739771Y-32369417D01*
X67555061Y-32503618D01*
X67393622Y-32665057D01*
X67259421Y-32849767D01*
X67155770Y-33053192D01*
X67085215Y-33270335D01*
X67049500Y-33495833D01*
X64950500Y-33495833D01*
X64914784Y-33270335D01*
X64844229Y-33053192D01*
X64740578Y-32849767D01*
X64606379Y-32665059D01*
X64444937Y-32503617D01*
X64260228Y-32369417D01*
X64056803Y-32265766D01*
X63839660Y-32195211D01*
X63614162Y-32159496D01*
X63614157Y-32159496D01*
X63385843Y-32159496D01*
X63385838Y-32159496D01*
X63160339Y-32195211D01*
X62943196Y-32265766D01*
X62739771Y-32369417D01*
X62555061Y-32503618D01*
X62393622Y-32665057D01*
X62259421Y-32849767D01*
X62155770Y-33053192D01*
X62085215Y-33270335D01*
X62049500Y-33495833D01*
X25400500Y-33495833D01*
X25400500Y-29213050D01*
X25400649Y-29206966D01*
X25402708Y-29165056D01*
X25406458Y-29088711D01*
X52124500Y-29088711D01*
X52124500Y-29331288D01*
X52156161Y-29571785D01*
X52218947Y-29806104D01*
X52275864Y-29943513D01*
X52311776Y-30030212D01*
X52433064Y-30240289D01*
X52433066Y-30240292D01*
X52433067Y-30240293D01*
X52580733Y-30432736D01*
X52580739Y-30432743D01*
X52752256Y-30604260D01*
X52752263Y-30604266D01*
X52833757Y-30666798D01*
X52944711Y-30751936D01*
X53154788Y-30873224D01*
X53378900Y-30966054D01*
X53613211Y-31028838D01*
X53793586Y-31052584D01*
X53853711Y-31060500D01*
X53853712Y-31060500D01*
X54096289Y-31060500D01*
X54144388Y-31054167D01*
X54336789Y-31028838D01*
X54571100Y-30966054D01*
X54795212Y-30873224D01*
X55005289Y-30751936D01*
X55197738Y-30604265D01*
X55369265Y-30432738D01*
X55516936Y-30240289D01*
X55638224Y-30030212D01*
X55652465Y-29995832D01*
X62049500Y-29995832D01*
X62049500Y-30224157D01*
X62085215Y-30449655D01*
X62155770Y-30666798D01*
X62259421Y-30870223D01*
X62393621Y-31054932D01*
X62555063Y-31216374D01*
X62739772Y-31350574D01*
X62835884Y-31399545D01*
X62943196Y-31454224D01*
X62943198Y-31454224D01*
X62943201Y-31454226D01*
X63059592Y-31492044D01*
X63160339Y-31524779D01*
X63385838Y-31560495D01*
X63385843Y-31560495D01*
X63614162Y-31560495D01*
X63839660Y-31524779D01*
X64056799Y-31454226D01*
X64260228Y-31350574D01*
X64444937Y-31216374D01*
X64606379Y-31054932D01*
X64740579Y-30870223D01*
X64844231Y-30666794D01*
X64914784Y-30449655D01*
X64947944Y-30240293D01*
X64950500Y-30224157D01*
X64950500Y-29995832D01*
X67049500Y-29995832D01*
X67049500Y-30224157D01*
X67085215Y-30449655D01*
X67155770Y-30666798D01*
X67259421Y-30870223D01*
X67393621Y-31054932D01*
X67555063Y-31216374D01*
X67739772Y-31350574D01*
X67835884Y-31399545D01*
X67943196Y-31454224D01*
X67943198Y-31454224D01*
X67943201Y-31454226D01*
X68059592Y-31492044D01*
X68160339Y-31524779D01*
X68385838Y-31560495D01*
X68385843Y-31560495D01*
X68614162Y-31560495D01*
X68839660Y-31524779D01*
X69056799Y-31454226D01*
X69260228Y-31350574D01*
X69444937Y-31216374D01*
X69606379Y-31054932D01*
X69740579Y-30870223D01*
X69844231Y-30666794D01*
X69914784Y-30449655D01*
X69947944Y-30240293D01*
X69950500Y-30224157D01*
X69950500Y-29995832D01*
X69914784Y-29770334D01*
X69844229Y-29553191D01*
X69740578Y-29349766D01*
X69727153Y-29331288D01*
X69606379Y-29165058D01*
X69444937Y-29003616D01*
X69260228Y-28869416D01*
X69195831Y-28836604D01*
X69056803Y-28765765D01*
X68839660Y-28695210D01*
X68614162Y-28659495D01*
X68614157Y-28659495D01*
X68385843Y-28659495D01*
X68385838Y-28659495D01*
X68160339Y-28695210D01*
X67943196Y-28765765D01*
X67739771Y-28869416D01*
X67555061Y-29003617D01*
X67393622Y-29165056D01*
X67259421Y-29349766D01*
X67155770Y-29553191D01*
X67085215Y-29770334D01*
X67049500Y-29995832D01*
X64950500Y-29995832D01*
X64914784Y-29770334D01*
X64844229Y-29553191D01*
X64740578Y-29349766D01*
X64727153Y-29331288D01*
X64606379Y-29165058D01*
X64444937Y-29003616D01*
X64260228Y-28869416D01*
X64195831Y-28836604D01*
X64056803Y-28765765D01*
X63839660Y-28695210D01*
X63614162Y-28659495D01*
X63614157Y-28659495D01*
X63385843Y-28659495D01*
X63385838Y-28659495D01*
X63160339Y-28695210D01*
X62943196Y-28765765D01*
X62739771Y-28869416D01*
X62555061Y-29003617D01*
X62393622Y-29165056D01*
X62259421Y-29349766D01*
X62155770Y-29553191D01*
X62085215Y-29770334D01*
X62049500Y-29995832D01*
X55652465Y-29995832D01*
X55731054Y-29806100D01*
X55793838Y-29571789D01*
X55825500Y-29331288D01*
X55825500Y-29088712D01*
X55793838Y-28848211D01*
X55731054Y-28613900D01*
X55638224Y-28389788D01*
X55516936Y-28179711D01*
X55369265Y-27987262D01*
X55369260Y-27987256D01*
X55197743Y-27815739D01*
X55197736Y-27815733D01*
X55005293Y-27668067D01*
X55005292Y-27668066D01*
X55005289Y-27668064D01*
X54795212Y-27546776D01*
X54795205Y-27546773D01*
X54571104Y-27453947D01*
X54422819Y-27414214D01*
X54336789Y-27391162D01*
X54336788Y-27391161D01*
X54336785Y-27391161D01*
X54096289Y-27359500D01*
X54096288Y-27359500D01*
X53853712Y-27359500D01*
X53853711Y-27359500D01*
X53613214Y-27391161D01*
X53378895Y-27453947D01*
X53154794Y-27546773D01*
X53154785Y-27546777D01*
X52944706Y-27668067D01*
X52752263Y-27815733D01*
X52752256Y-27815739D01*
X52580739Y-27987256D01*
X52580733Y-27987263D01*
X52433067Y-28179706D01*
X52311777Y-28389785D01*
X52311773Y-28389794D01*
X52218947Y-28613895D01*
X52156161Y-28848214D01*
X52124500Y-29088711D01*
X25406458Y-29088711D01*
X25416886Y-28876444D01*
X25417409Y-28869667D01*
X25425577Y-28791945D01*
X25426217Y-28786893D01*
X25468925Y-28498975D01*
X25470277Y-28491480D01*
X25485286Y-28420864D01*
X25486278Y-28416578D01*
X25558639Y-28127700D01*
X25560976Y-28119567D01*
X25579728Y-28061856D01*
X25580865Y-28058521D01*
X25685314Y-27766605D01*
X25688758Y-27758015D01*
X25704990Y-27721557D01*
X25706045Y-27719259D01*
X25847732Y-27419686D01*
X25853438Y-27409012D01*
X26039390Y-27098771D01*
X26046133Y-27088678D01*
X26261599Y-26798156D01*
X26269302Y-26788771D01*
X26512202Y-26520772D01*
X26520772Y-26512202D01*
X26788771Y-26269302D01*
X26798156Y-26261599D01*
X27088678Y-26046133D01*
X27098771Y-26039390D01*
X27409012Y-25853438D01*
X27419686Y-25847732D01*
X27719259Y-25706045D01*
X27721557Y-25704990D01*
X27758015Y-25688758D01*
X27766605Y-25685314D01*
X28058521Y-25580865D01*
X28061856Y-25579728D01*
X28119567Y-25560976D01*
X28127700Y-25558639D01*
X28416578Y-25486278D01*
X28420864Y-25485286D01*
X28491480Y-25470277D01*
X28498975Y-25468925D01*
X28786893Y-25426217D01*
X28791945Y-25425577D01*
X28869667Y-25417409D01*
X28876444Y-25416886D01*
X29206967Y-25400648D01*
X29213051Y-25400500D01*
X78736949Y-25400500D01*
X78743032Y-25400648D01*
G37*
G04 #@! TD.AperFunction*
M02*
