G04 #@! TF.GenerationSoftware,KiCad,Pcbnew,9.0.0*
G04 #@! TF.CreationDate,2025-02-28T23:18:11-08:00*
G04 #@! TF.ProjectId,Constellation STAR LAF V1.1,436f6e73-7465-46c6-9c61-74696f6e2053,rev?*
G04 #@! TF.SameCoordinates,Original*
G04 #@! TF.FileFunction,Legend,Top*
G04 #@! TF.FilePolarity,Positive*
%FSLAX46Y46*%
G04 Gerber Fmt 4.6, Leading zero omitted, Abs format (unit mm)*
G04 Created by KiCad (PCBNEW 9.0.0) date 2025-02-28 23:18:11*
%MOMM*%
%LPD*%
G01*
G04 APERTURE LIST*
G04 Aperture macros list*
%AMRoundRect*
0 Rectangle with rounded corners*
0 $1 Rounding radius*
0 $2 $3 $4 $5 $6 $7 $8 $9 X,Y pos of 4 corners*
0 Add a 4 corners polygon primitive as box body*
4,1,4,$2,$3,$4,$5,$6,$7,$8,$9,$2,$3,0*
0 Add four circle primitives for the rounded corners*
1,1,$1+$1,$2,$3*
1,1,$1+$1,$4,$5*
1,1,$1+$1,$6,$7*
1,1,$1+$1,$8,$9*
0 Add four rect primitives between the rounded corners*
20,1,$1+$1,$2,$3,$4,$5,0*
20,1,$1+$1,$4,$5,$6,$7,0*
20,1,$1+$1,$6,$7,$8,$9,0*
20,1,$1+$1,$8,$9,$2,$3,0*%
G04 Aperture macros list end*
%ADD10C,0.350000*%
%ADD11C,0.300000*%
%ADD12C,0.600000*%
%ADD13C,0.150000*%
%ADD14C,0.152400*%
%ADD15C,0.508000*%
%ADD16C,0.120000*%
%ADD17C,0.000000*%
%ADD18C,0.200000*%
%ADD19C,3.200000*%
%ADD20C,1.900000*%
%ADD21RoundRect,0.250000X0.450000X-0.262500X0.450000X0.262500X-0.450000X0.262500X-0.450000X-0.262500X0*%
%ADD22R,1.250000X0.600000*%
%ADD23RoundRect,0.250000X0.475000X-0.250000X0.475000X0.250000X-0.475000X0.250000X-0.475000X-0.250000X0*%
%ADD24RoundRect,0.250000X-0.450000X0.262500X-0.450000X-0.262500X0.450000X-0.262500X0.450000X0.262500X0*%
%ADD25RoundRect,0.243750X-0.456250X0.243750X-0.456250X-0.243750X0.456250X-0.243750X0.456250X0.243750X0*%
%ADD26RoundRect,0.243750X0.456250X-0.243750X0.456250X0.243750X-0.456250X0.243750X-0.456250X-0.243750X0*%
%ADD27RoundRect,0.150000X-0.150000X0.512500X-0.150000X-0.512500X0.150000X-0.512500X0.150000X0.512500X0*%
%ADD28RoundRect,0.250000X-0.475000X0.250000X-0.475000X-0.250000X0.475000X-0.250000X0.475000X0.250000X0*%
G04 APERTURE END LIST*
D10*
X78231929Y-31657629D02*
X77648596Y-30824296D01*
X77231929Y-31657629D02*
X77231929Y-29907629D01*
X77231929Y-29907629D02*
X77898596Y-29907629D01*
X77898596Y-29907629D02*
X78065263Y-29990962D01*
X78065263Y-29990962D02*
X78148596Y-30074296D01*
X78148596Y-30074296D02*
X78231929Y-30240962D01*
X78231929Y-30240962D02*
X78231929Y-30490962D01*
X78231929Y-30490962D02*
X78148596Y-30657629D01*
X78148596Y-30657629D02*
X78065263Y-30740962D01*
X78065263Y-30740962D02*
X77898596Y-30824296D01*
X77898596Y-30824296D02*
X77231929Y-30824296D01*
X78981929Y-30740962D02*
X79565263Y-30740962D01*
X79815263Y-31657629D02*
X78981929Y-31657629D01*
X78981929Y-31657629D02*
X78981929Y-29907629D01*
X78981929Y-29907629D02*
X79815263Y-29907629D01*
X80565262Y-31657629D02*
X80565262Y-29907629D01*
X80565262Y-29907629D02*
X80981929Y-29907629D01*
X80981929Y-29907629D02*
X81231929Y-29990962D01*
X81231929Y-29990962D02*
X81398596Y-30157629D01*
X81398596Y-30157629D02*
X81481929Y-30324296D01*
X81481929Y-30324296D02*
X81565262Y-30657629D01*
X81565262Y-30657629D02*
X81565262Y-30907629D01*
X81565262Y-30907629D02*
X81481929Y-31240962D01*
X81481929Y-31240962D02*
X81398596Y-31407629D01*
X81398596Y-31407629D02*
X81231929Y-31574296D01*
X81231929Y-31574296D02*
X80981929Y-31657629D01*
X80981929Y-31657629D02*
X80565262Y-31657629D01*
D11*
X56470001Y-84330828D02*
X57398573Y-84330828D01*
X57398573Y-84330828D02*
X56898573Y-84902257D01*
X56898573Y-84902257D02*
X57112858Y-84902257D01*
X57112858Y-84902257D02*
X57255716Y-84973685D01*
X57255716Y-84973685D02*
X57327144Y-85045114D01*
X57327144Y-85045114D02*
X57398573Y-85187971D01*
X57398573Y-85187971D02*
X57398573Y-85545114D01*
X57398573Y-85545114D02*
X57327144Y-85687971D01*
X57327144Y-85687971D02*
X57255716Y-85759400D01*
X57255716Y-85759400D02*
X57112858Y-85830828D01*
X57112858Y-85830828D02*
X56684287Y-85830828D01*
X56684287Y-85830828D02*
X56541430Y-85759400D01*
X56541430Y-85759400D02*
X56470001Y-85687971D01*
D10*
X77690263Y-51740962D02*
X77940263Y-51824296D01*
X77940263Y-51824296D02*
X78023596Y-51907629D01*
X78023596Y-51907629D02*
X78106929Y-52074296D01*
X78106929Y-52074296D02*
X78106929Y-52324296D01*
X78106929Y-52324296D02*
X78023596Y-52490962D01*
X78023596Y-52490962D02*
X77940263Y-52574296D01*
X77940263Y-52574296D02*
X77773596Y-52657629D01*
X77773596Y-52657629D02*
X77106929Y-52657629D01*
X77106929Y-52657629D02*
X77106929Y-50907629D01*
X77106929Y-50907629D02*
X77690263Y-50907629D01*
X77690263Y-50907629D02*
X77856929Y-50990962D01*
X77856929Y-50990962D02*
X77940263Y-51074296D01*
X77940263Y-51074296D02*
X78023596Y-51240962D01*
X78023596Y-51240962D02*
X78023596Y-51407629D01*
X78023596Y-51407629D02*
X77940263Y-51574296D01*
X77940263Y-51574296D02*
X77856929Y-51657629D01*
X77856929Y-51657629D02*
X77690263Y-51740962D01*
X77690263Y-51740962D02*
X77106929Y-51740962D01*
X79856929Y-52657629D02*
X79273596Y-51824296D01*
X78856929Y-52657629D02*
X78856929Y-50907629D01*
X78856929Y-50907629D02*
X79523596Y-50907629D01*
X79523596Y-50907629D02*
X79690263Y-50990962D01*
X79690263Y-50990962D02*
X79773596Y-51074296D01*
X79773596Y-51074296D02*
X79856929Y-51240962D01*
X79856929Y-51240962D02*
X79856929Y-51490962D01*
X79856929Y-51490962D02*
X79773596Y-51657629D01*
X79773596Y-51657629D02*
X79690263Y-51740962D01*
X79690263Y-51740962D02*
X79523596Y-51824296D01*
X79523596Y-51824296D02*
X78856929Y-51824296D01*
X80606929Y-52657629D02*
X80606929Y-50907629D01*
X80606929Y-50907629D02*
X81606929Y-52657629D01*
X81606929Y-52657629D02*
X81606929Y-50907629D01*
X77898596Y-34240962D02*
X78148596Y-34324296D01*
X78148596Y-34324296D02*
X78231929Y-34407629D01*
X78231929Y-34407629D02*
X78315262Y-34574296D01*
X78315262Y-34574296D02*
X78315262Y-34824296D01*
X78315262Y-34824296D02*
X78231929Y-34990962D01*
X78231929Y-34990962D02*
X78148596Y-35074296D01*
X78148596Y-35074296D02*
X77981929Y-35157629D01*
X77981929Y-35157629D02*
X77315262Y-35157629D01*
X77315262Y-35157629D02*
X77315262Y-33407629D01*
X77315262Y-33407629D02*
X77898596Y-33407629D01*
X77898596Y-33407629D02*
X78065262Y-33490962D01*
X78065262Y-33490962D02*
X78148596Y-33574296D01*
X78148596Y-33574296D02*
X78231929Y-33740962D01*
X78231929Y-33740962D02*
X78231929Y-33907629D01*
X78231929Y-33907629D02*
X78148596Y-34074296D01*
X78148596Y-34074296D02*
X78065262Y-34157629D01*
X78065262Y-34157629D02*
X77898596Y-34240962D01*
X77898596Y-34240962D02*
X77315262Y-34240962D01*
X79898596Y-35157629D02*
X79065262Y-35157629D01*
X79065262Y-35157629D02*
X79065262Y-33407629D01*
X80481929Y-35157629D02*
X80481929Y-33407629D01*
X81481929Y-35157629D02*
X80731929Y-34157629D01*
X81481929Y-33407629D02*
X80481929Y-34407629D01*
X62525000Y-88207634D02*
X62525000Y-86457634D01*
X62525000Y-86457634D02*
X63108334Y-87707634D01*
X63108334Y-87707634D02*
X63691667Y-86457634D01*
X63691667Y-86457634D02*
X63691667Y-88207634D01*
X65108334Y-87290967D02*
X64525000Y-87290967D01*
X64525000Y-88207634D02*
X64525000Y-86457634D01*
X64525000Y-86457634D02*
X65358334Y-86457634D01*
X65775000Y-86457634D02*
X66358334Y-88207634D01*
X66358334Y-88207634D02*
X66941667Y-86457634D01*
X67108334Y-88374301D02*
X68441667Y-88374301D01*
X68858333Y-88207634D02*
X68858333Y-86457634D01*
X68858333Y-87290967D02*
X69858333Y-87290967D01*
X69858333Y-88207634D02*
X69858333Y-86457634D01*
X70608333Y-87707634D02*
X71441666Y-87707634D01*
X70441666Y-88207634D02*
X71025000Y-86457634D01*
X71025000Y-86457634D02*
X71608333Y-88207634D01*
X73025000Y-88207634D02*
X72191666Y-88207634D01*
X72191666Y-88207634D02*
X72191666Y-86457634D01*
D11*
X42398573Y-85139400D02*
X43541431Y-85139400D01*
X42970002Y-85710828D02*
X42970002Y-84567971D01*
X51000260Y-53317444D02*
X51000260Y-51817444D01*
X51000260Y-51817444D02*
X51571689Y-51817444D01*
X51571689Y-51817444D02*
X51714546Y-51888873D01*
X51714546Y-51888873D02*
X51785975Y-51960301D01*
X51785975Y-51960301D02*
X51857403Y-52103158D01*
X51857403Y-52103158D02*
X51857403Y-52317444D01*
X51857403Y-52317444D02*
X51785975Y-52460301D01*
X51785975Y-52460301D02*
X51714546Y-52531730D01*
X51714546Y-52531730D02*
X51571689Y-52603158D01*
X51571689Y-52603158D02*
X51000260Y-52603158D01*
X52357403Y-51817444D02*
X52714546Y-53317444D01*
X52714546Y-53317444D02*
X53000260Y-52246016D01*
X53000260Y-52246016D02*
X53285975Y-53317444D01*
X53285975Y-53317444D02*
X53643118Y-51817444D01*
X55071689Y-53317444D02*
X54571689Y-52603158D01*
X54214546Y-53317444D02*
X54214546Y-51817444D01*
X54214546Y-51817444D02*
X54785975Y-51817444D01*
X54785975Y-51817444D02*
X54928832Y-51888873D01*
X54928832Y-51888873D02*
X55000261Y-51960301D01*
X55000261Y-51960301D02*
X55071689Y-52103158D01*
X55071689Y-52103158D02*
X55071689Y-52317444D01*
X55071689Y-52317444D02*
X55000261Y-52460301D01*
X55000261Y-52460301D02*
X54928832Y-52531730D01*
X54928832Y-52531730D02*
X54785975Y-52603158D01*
X54785975Y-52603158D02*
X54214546Y-52603158D01*
X35541430Y-85639400D02*
X35755716Y-85710828D01*
X35755716Y-85710828D02*
X36112858Y-85710828D01*
X36112858Y-85710828D02*
X36255716Y-85639400D01*
X36255716Y-85639400D02*
X36327144Y-85567971D01*
X36327144Y-85567971D02*
X36398573Y-85425114D01*
X36398573Y-85425114D02*
X36398573Y-85282257D01*
X36398573Y-85282257D02*
X36327144Y-85139400D01*
X36327144Y-85139400D02*
X36255716Y-85067971D01*
X36255716Y-85067971D02*
X36112858Y-84996542D01*
X36112858Y-84996542D02*
X35827144Y-84925114D01*
X35827144Y-84925114D02*
X35684287Y-84853685D01*
X35684287Y-84853685D02*
X35612858Y-84782257D01*
X35612858Y-84782257D02*
X35541430Y-84639400D01*
X35541430Y-84639400D02*
X35541430Y-84496542D01*
X35541430Y-84496542D02*
X35612858Y-84353685D01*
X35612858Y-84353685D02*
X35684287Y-84282257D01*
X35684287Y-84282257D02*
X35827144Y-84210828D01*
X35827144Y-84210828D02*
X36184287Y-84210828D01*
X36184287Y-84210828D02*
X36398573Y-84282257D01*
D10*
X34035000Y-87290967D02*
X34618334Y-87290967D01*
X34868334Y-88207634D02*
X34035000Y-88207634D01*
X34035000Y-88207634D02*
X34035000Y-86457634D01*
X34035000Y-86457634D02*
X34868334Y-86457634D01*
X35618333Y-88207634D02*
X35618333Y-86457634D01*
X35618333Y-86457634D02*
X36618333Y-88207634D01*
X36618333Y-88207634D02*
X36618333Y-86457634D01*
X38368333Y-86540967D02*
X38201666Y-86457634D01*
X38201666Y-86457634D02*
X37951666Y-86457634D01*
X37951666Y-86457634D02*
X37701666Y-86540967D01*
X37701666Y-86540967D02*
X37535000Y-86707634D01*
X37535000Y-86707634D02*
X37451666Y-86874301D01*
X37451666Y-86874301D02*
X37368333Y-87207634D01*
X37368333Y-87207634D02*
X37368333Y-87457634D01*
X37368333Y-87457634D02*
X37451666Y-87790967D01*
X37451666Y-87790967D02*
X37535000Y-87957634D01*
X37535000Y-87957634D02*
X37701666Y-88124301D01*
X37701666Y-88124301D02*
X37951666Y-88207634D01*
X37951666Y-88207634D02*
X38118333Y-88207634D01*
X38118333Y-88207634D02*
X38368333Y-88124301D01*
X38368333Y-88124301D02*
X38451666Y-88040967D01*
X38451666Y-88040967D02*
X38451666Y-87457634D01*
X38451666Y-87457634D02*
X38118333Y-87457634D01*
X38785000Y-88374301D02*
X40118333Y-88374301D01*
X41534999Y-88040967D02*
X41451666Y-88124301D01*
X41451666Y-88124301D02*
X41201666Y-88207634D01*
X41201666Y-88207634D02*
X41034999Y-88207634D01*
X41034999Y-88207634D02*
X40784999Y-88124301D01*
X40784999Y-88124301D02*
X40618333Y-87957634D01*
X40618333Y-87957634D02*
X40534999Y-87790967D01*
X40534999Y-87790967D02*
X40451666Y-87457634D01*
X40451666Y-87457634D02*
X40451666Y-87207634D01*
X40451666Y-87207634D02*
X40534999Y-86874301D01*
X40534999Y-86874301D02*
X40618333Y-86707634D01*
X40618333Y-86707634D02*
X40784999Y-86540967D01*
X40784999Y-86540967D02*
X41034999Y-86457634D01*
X41034999Y-86457634D02*
X41201666Y-86457634D01*
X41201666Y-86457634D02*
X41451666Y-86540967D01*
X41451666Y-86540967D02*
X41534999Y-86624301D01*
X42284999Y-88207634D02*
X42284999Y-86457634D01*
X42284999Y-87290967D02*
X43284999Y-87290967D01*
X43284999Y-88207634D02*
X43284999Y-86457634D01*
X44118332Y-88207634D02*
X44118332Y-86457634D01*
X44118332Y-86457634D02*
X44701666Y-87707634D01*
X44701666Y-87707634D02*
X45284999Y-86457634D01*
X45284999Y-86457634D02*
X45284999Y-88207634D01*
D11*
X38898573Y-85139400D02*
X40041431Y-85139400D01*
X63466430Y-85629400D02*
X63680716Y-85700828D01*
X63680716Y-85700828D02*
X64037858Y-85700828D01*
X64037858Y-85700828D02*
X64180716Y-85629400D01*
X64180716Y-85629400D02*
X64252144Y-85557971D01*
X64252144Y-85557971D02*
X64323573Y-85415114D01*
X64323573Y-85415114D02*
X64323573Y-85272257D01*
X64323573Y-85272257D02*
X64252144Y-85129400D01*
X64252144Y-85129400D02*
X64180716Y-85057971D01*
X64180716Y-85057971D02*
X64037858Y-84986542D01*
X64037858Y-84986542D02*
X63752144Y-84915114D01*
X63752144Y-84915114D02*
X63609287Y-84843685D01*
X63609287Y-84843685D02*
X63537858Y-84772257D01*
X63537858Y-84772257D02*
X63466430Y-84629400D01*
X63466430Y-84629400D02*
X63466430Y-84486542D01*
X63466430Y-84486542D02*
X63537858Y-84343685D01*
X63537858Y-84343685D02*
X63609287Y-84272257D01*
X63609287Y-84272257D02*
X63752144Y-84200828D01*
X63752144Y-84200828D02*
X64109287Y-84200828D01*
X64109287Y-84200828D02*
X64323573Y-84272257D01*
D10*
X77856929Y-37740962D02*
X78106929Y-37824296D01*
X78106929Y-37824296D02*
X78190262Y-37907629D01*
X78190262Y-37907629D02*
X78273595Y-38074296D01*
X78273595Y-38074296D02*
X78273595Y-38324296D01*
X78273595Y-38324296D02*
X78190262Y-38490962D01*
X78190262Y-38490962D02*
X78106929Y-38574296D01*
X78106929Y-38574296D02*
X77940262Y-38657629D01*
X77940262Y-38657629D02*
X77273595Y-38657629D01*
X77273595Y-38657629D02*
X77273595Y-36907629D01*
X77273595Y-36907629D02*
X77856929Y-36907629D01*
X77856929Y-36907629D02*
X78023595Y-36990962D01*
X78023595Y-36990962D02*
X78106929Y-37074296D01*
X78106929Y-37074296D02*
X78190262Y-37240962D01*
X78190262Y-37240962D02*
X78190262Y-37407629D01*
X78190262Y-37407629D02*
X78106929Y-37574296D01*
X78106929Y-37574296D02*
X78023595Y-37657629D01*
X78023595Y-37657629D02*
X77856929Y-37740962D01*
X77856929Y-37740962D02*
X77273595Y-37740962D01*
X79856929Y-38657629D02*
X79023595Y-38657629D01*
X79023595Y-38657629D02*
X79023595Y-36907629D01*
X80440262Y-36907629D02*
X80440262Y-38324296D01*
X80440262Y-38324296D02*
X80523596Y-38490962D01*
X80523596Y-38490962D02*
X80606929Y-38574296D01*
X80606929Y-38574296D02*
X80773596Y-38657629D01*
X80773596Y-38657629D02*
X81106929Y-38657629D01*
X81106929Y-38657629D02*
X81273596Y-38574296D01*
X81273596Y-38574296D02*
X81356929Y-38490962D01*
X81356929Y-38490962D02*
X81440262Y-38324296D01*
X81440262Y-38324296D02*
X81440262Y-36907629D01*
X77648596Y-41324296D02*
X77648596Y-42157629D01*
X77065262Y-40407629D02*
X77648596Y-41324296D01*
X77648596Y-41324296D02*
X78231929Y-40407629D01*
X79648596Y-42157629D02*
X78815262Y-42157629D01*
X78815262Y-42157629D02*
X78815262Y-40407629D01*
X80065263Y-40407629D02*
X80481929Y-42157629D01*
X80481929Y-42157629D02*
X80815263Y-40907629D01*
X80815263Y-40907629D02*
X81148596Y-42157629D01*
X81148596Y-42157629D02*
X81565263Y-40407629D01*
X77456929Y-66797634D02*
X77456929Y-65047634D01*
X77456929Y-65047634D02*
X78123596Y-65047634D01*
X78123596Y-65047634D02*
X78290263Y-65130967D01*
X78290263Y-65130967D02*
X78373596Y-65214301D01*
X78373596Y-65214301D02*
X78456929Y-65380967D01*
X78456929Y-65380967D02*
X78456929Y-65630967D01*
X78456929Y-65630967D02*
X78373596Y-65797634D01*
X78373596Y-65797634D02*
X78290263Y-65880967D01*
X78290263Y-65880967D02*
X78123596Y-65964301D01*
X78123596Y-65964301D02*
X77456929Y-65964301D01*
X79040263Y-65047634D02*
X79456929Y-66797634D01*
X79456929Y-66797634D02*
X79790263Y-65547634D01*
X79790263Y-65547634D02*
X80123596Y-66797634D01*
X80123596Y-66797634D02*
X80540263Y-65047634D01*
X82206929Y-66797634D02*
X81623596Y-65964301D01*
X81206929Y-66797634D02*
X81206929Y-65047634D01*
X81206929Y-65047634D02*
X81873596Y-65047634D01*
X81873596Y-65047634D02*
X82040263Y-65130967D01*
X82040263Y-65130967D02*
X82123596Y-65214301D01*
X82123596Y-65214301D02*
X82206929Y-65380967D01*
X82206929Y-65380967D02*
X82206929Y-65630967D01*
X82206929Y-65630967D02*
X82123596Y-65797634D01*
X82123596Y-65797634D02*
X82040263Y-65880967D01*
X82040263Y-65880967D02*
X81873596Y-65964301D01*
X81873596Y-65964301D02*
X81206929Y-65964301D01*
D11*
X49541429Y-85759400D02*
X49755715Y-85830828D01*
X49755715Y-85830828D02*
X50112857Y-85830828D01*
X50112857Y-85830828D02*
X50255715Y-85759400D01*
X50255715Y-85759400D02*
X50327143Y-85687971D01*
X50327143Y-85687971D02*
X50398572Y-85545114D01*
X50398572Y-85545114D02*
X50398572Y-85402257D01*
X50398572Y-85402257D02*
X50327143Y-85259400D01*
X50327143Y-85259400D02*
X50255715Y-85187971D01*
X50255715Y-85187971D02*
X50112857Y-85116542D01*
X50112857Y-85116542D02*
X49827143Y-85045114D01*
X49827143Y-85045114D02*
X49684286Y-84973685D01*
X49684286Y-84973685D02*
X49612857Y-84902257D01*
X49612857Y-84902257D02*
X49541429Y-84759400D01*
X49541429Y-84759400D02*
X49541429Y-84616542D01*
X49541429Y-84616542D02*
X49612857Y-84473685D01*
X49612857Y-84473685D02*
X49684286Y-84402257D01*
X49684286Y-84402257D02*
X49827143Y-84330828D01*
X49827143Y-84330828D02*
X50184286Y-84330828D01*
X50184286Y-84330828D02*
X50398572Y-84402257D01*
D10*
X77440263Y-54407634D02*
X77773596Y-54407634D01*
X77773596Y-54407634D02*
X77940263Y-54490967D01*
X77940263Y-54490967D02*
X78106929Y-54657634D01*
X78106929Y-54657634D02*
X78190263Y-54990967D01*
X78190263Y-54990967D02*
X78190263Y-55574301D01*
X78190263Y-55574301D02*
X78106929Y-55907634D01*
X78106929Y-55907634D02*
X77940263Y-56074301D01*
X77940263Y-56074301D02*
X77773596Y-56157634D01*
X77773596Y-56157634D02*
X77440263Y-56157634D01*
X77440263Y-56157634D02*
X77273596Y-56074301D01*
X77273596Y-56074301D02*
X77106929Y-55907634D01*
X77106929Y-55907634D02*
X77023596Y-55574301D01*
X77023596Y-55574301D02*
X77023596Y-54990967D01*
X77023596Y-54990967D02*
X77106929Y-54657634D01*
X77106929Y-54657634D02*
X77273596Y-54490967D01*
X77273596Y-54490967D02*
X77440263Y-54407634D01*
X79940262Y-56157634D02*
X79356929Y-55324301D01*
X78940262Y-56157634D02*
X78940262Y-54407634D01*
X78940262Y-54407634D02*
X79606929Y-54407634D01*
X79606929Y-54407634D02*
X79773596Y-54490967D01*
X79773596Y-54490967D02*
X79856929Y-54574301D01*
X79856929Y-54574301D02*
X79940262Y-54740967D01*
X79940262Y-54740967D02*
X79940262Y-54990967D01*
X79940262Y-54990967D02*
X79856929Y-55157634D01*
X79856929Y-55157634D02*
X79773596Y-55240967D01*
X79773596Y-55240967D02*
X79606929Y-55324301D01*
X79606929Y-55324301D02*
X78940262Y-55324301D01*
X81606929Y-54490967D02*
X81440262Y-54407634D01*
X81440262Y-54407634D02*
X81190262Y-54407634D01*
X81190262Y-54407634D02*
X80940262Y-54490967D01*
X80940262Y-54490967D02*
X80773596Y-54657634D01*
X80773596Y-54657634D02*
X80690262Y-54824301D01*
X80690262Y-54824301D02*
X80606929Y-55157634D01*
X80606929Y-55157634D02*
X80606929Y-55407634D01*
X80606929Y-55407634D02*
X80690262Y-55740967D01*
X80690262Y-55740967D02*
X80773596Y-55907634D01*
X80773596Y-55907634D02*
X80940262Y-56074301D01*
X80940262Y-56074301D02*
X81190262Y-56157634D01*
X81190262Y-56157634D02*
X81356929Y-56157634D01*
X81356929Y-56157634D02*
X81606929Y-56074301D01*
X81606929Y-56074301D02*
X81690262Y-55990967D01*
X81690262Y-55990967D02*
X81690262Y-55407634D01*
X81690262Y-55407634D02*
X81356929Y-55407634D01*
D11*
X70395002Y-84200828D02*
X71323574Y-84200828D01*
X71323574Y-84200828D02*
X70823574Y-84772257D01*
X70823574Y-84772257D02*
X71037859Y-84772257D01*
X71037859Y-84772257D02*
X71180717Y-84843685D01*
X71180717Y-84843685D02*
X71252145Y-84915114D01*
X71252145Y-84915114D02*
X71323574Y-85057971D01*
X71323574Y-85057971D02*
X71323574Y-85415114D01*
X71323574Y-85415114D02*
X71252145Y-85557971D01*
X71252145Y-85557971D02*
X71180717Y-85629400D01*
X71180717Y-85629400D02*
X71037859Y-85700828D01*
X71037859Y-85700828D02*
X70609288Y-85700828D01*
X70609288Y-85700828D02*
X70466431Y-85629400D01*
X70466431Y-85629400D02*
X70395002Y-85557971D01*
X53641652Y-66150828D02*
X54570224Y-66150828D01*
X54570224Y-66150828D02*
X54070224Y-66722257D01*
X54070224Y-66722257D02*
X54284509Y-66722257D01*
X54284509Y-66722257D02*
X54427367Y-66793685D01*
X54427367Y-66793685D02*
X54498795Y-66865114D01*
X54498795Y-66865114D02*
X54570224Y-67007971D01*
X54570224Y-67007971D02*
X54570224Y-67365114D01*
X54570224Y-67365114D02*
X54498795Y-67507971D01*
X54498795Y-67507971D02*
X54427367Y-67579400D01*
X54427367Y-67579400D02*
X54284509Y-67650828D01*
X54284509Y-67650828D02*
X53855938Y-67650828D01*
X53855938Y-67650828D02*
X53713081Y-67579400D01*
X53713081Y-67579400D02*
X53641652Y-67507971D01*
X55213080Y-67507971D02*
X55284509Y-67579400D01*
X55284509Y-67579400D02*
X55213080Y-67650828D01*
X55213080Y-67650828D02*
X55141652Y-67579400D01*
X55141652Y-67579400D02*
X55213080Y-67507971D01*
X55213080Y-67507971D02*
X55213080Y-67650828D01*
X55784509Y-66150828D02*
X56713081Y-66150828D01*
X56713081Y-66150828D02*
X56213081Y-66722257D01*
X56213081Y-66722257D02*
X56427366Y-66722257D01*
X56427366Y-66722257D02*
X56570224Y-66793685D01*
X56570224Y-66793685D02*
X56641652Y-66865114D01*
X56641652Y-66865114D02*
X56713081Y-67007971D01*
X56713081Y-67007971D02*
X56713081Y-67365114D01*
X56713081Y-67365114D02*
X56641652Y-67507971D01*
X56641652Y-67507971D02*
X56570224Y-67579400D01*
X56570224Y-67579400D02*
X56427366Y-67650828D01*
X56427366Y-67650828D02*
X55998795Y-67650828D01*
X55998795Y-67650828D02*
X55855938Y-67579400D01*
X55855938Y-67579400D02*
X55784509Y-67507971D01*
X57141652Y-66150828D02*
X57641652Y-67650828D01*
X57641652Y-67650828D02*
X58141652Y-66150828D01*
X66823573Y-85129400D02*
X67966431Y-85129400D01*
X52898572Y-85259400D02*
X54041430Y-85259400D01*
D10*
X48548333Y-88207634D02*
X48548333Y-86457634D01*
X48548333Y-86457634D02*
X49131667Y-87707634D01*
X49131667Y-87707634D02*
X49715000Y-86457634D01*
X49715000Y-86457634D02*
X49715000Y-88207634D01*
X50881667Y-86457634D02*
X51215000Y-86457634D01*
X51215000Y-86457634D02*
X51381667Y-86540967D01*
X51381667Y-86540967D02*
X51548333Y-86707634D01*
X51548333Y-86707634D02*
X51631667Y-87040967D01*
X51631667Y-87040967D02*
X51631667Y-87624301D01*
X51631667Y-87624301D02*
X51548333Y-87957634D01*
X51548333Y-87957634D02*
X51381667Y-88124301D01*
X51381667Y-88124301D02*
X51215000Y-88207634D01*
X51215000Y-88207634D02*
X50881667Y-88207634D01*
X50881667Y-88207634D02*
X50715000Y-88124301D01*
X50715000Y-88124301D02*
X50548333Y-87957634D01*
X50548333Y-87957634D02*
X50465000Y-87624301D01*
X50465000Y-87624301D02*
X50465000Y-87040967D01*
X50465000Y-87040967D02*
X50548333Y-86707634D01*
X50548333Y-86707634D02*
X50715000Y-86540967D01*
X50715000Y-86540967D02*
X50881667Y-86457634D01*
X52131666Y-86457634D02*
X52715000Y-88207634D01*
X52715000Y-88207634D02*
X53298333Y-86457634D01*
X53465000Y-88374301D02*
X54798333Y-88374301D01*
X55214999Y-88207634D02*
X55214999Y-86457634D01*
X55214999Y-87290967D02*
X56214999Y-87290967D01*
X56214999Y-88207634D02*
X56214999Y-86457634D01*
X56964999Y-87707634D02*
X57798332Y-87707634D01*
X56798332Y-88207634D02*
X57381666Y-86457634D01*
X57381666Y-86457634D02*
X57964999Y-88207634D01*
X59381666Y-88207634D02*
X58548332Y-88207634D01*
X58548332Y-88207634D02*
X58548332Y-86457634D01*
X78456930Y-61630966D02*
X78290263Y-61547633D01*
X78290263Y-61547633D02*
X78040263Y-61547633D01*
X78040263Y-61547633D02*
X77790263Y-61630966D01*
X77790263Y-61630966D02*
X77623597Y-61797633D01*
X77623597Y-61797633D02*
X77540263Y-61964300D01*
X77540263Y-61964300D02*
X77456930Y-62297633D01*
X77456930Y-62297633D02*
X77456930Y-62547633D01*
X77456930Y-62547633D02*
X77540263Y-62880966D01*
X77540263Y-62880966D02*
X77623597Y-63047633D01*
X77623597Y-63047633D02*
X77790263Y-63214300D01*
X77790263Y-63214300D02*
X78040263Y-63297633D01*
X78040263Y-63297633D02*
X78206930Y-63297633D01*
X78206930Y-63297633D02*
X78456930Y-63214300D01*
X78456930Y-63214300D02*
X78540263Y-63130966D01*
X78540263Y-63130966D02*
X78540263Y-62547633D01*
X78540263Y-62547633D02*
X78206930Y-62547633D01*
X79290263Y-63297633D02*
X79290263Y-61547633D01*
X79290263Y-61547633D02*
X80290263Y-63297633D01*
X80290263Y-63297633D02*
X80290263Y-61547633D01*
X81123596Y-63297633D02*
X81123596Y-61547633D01*
X81123596Y-61547633D02*
X81540263Y-61547633D01*
X81540263Y-61547633D02*
X81790263Y-61630966D01*
X81790263Y-61630966D02*
X81956930Y-61797633D01*
X81956930Y-61797633D02*
X82040263Y-61964300D01*
X82040263Y-61964300D02*
X82123596Y-62297633D01*
X82123596Y-62297633D02*
X82123596Y-62547633D01*
X82123596Y-62547633D02*
X82040263Y-62880966D01*
X82040263Y-62880966D02*
X81956930Y-63047633D01*
X81956930Y-63047633D02*
X81790263Y-63214300D01*
X81790263Y-63214300D02*
X81540263Y-63297633D01*
X81540263Y-63297633D02*
X81123596Y-63297633D01*
X78023596Y-43990962D02*
X77856929Y-43907629D01*
X77856929Y-43907629D02*
X77606929Y-43907629D01*
X77606929Y-43907629D02*
X77356929Y-43990962D01*
X77356929Y-43990962D02*
X77190263Y-44157629D01*
X77190263Y-44157629D02*
X77106929Y-44324296D01*
X77106929Y-44324296D02*
X77023596Y-44657629D01*
X77023596Y-44657629D02*
X77023596Y-44907629D01*
X77023596Y-44907629D02*
X77106929Y-45240962D01*
X77106929Y-45240962D02*
X77190263Y-45407629D01*
X77190263Y-45407629D02*
X77356929Y-45574296D01*
X77356929Y-45574296D02*
X77606929Y-45657629D01*
X77606929Y-45657629D02*
X77773596Y-45657629D01*
X77773596Y-45657629D02*
X78023596Y-45574296D01*
X78023596Y-45574296D02*
X78106929Y-45490962D01*
X78106929Y-45490962D02*
X78106929Y-44907629D01*
X78106929Y-44907629D02*
X77773596Y-44907629D01*
X79856929Y-45657629D02*
X79273596Y-44824296D01*
X78856929Y-45657629D02*
X78856929Y-43907629D01*
X78856929Y-43907629D02*
X79523596Y-43907629D01*
X79523596Y-43907629D02*
X79690263Y-43990962D01*
X79690263Y-43990962D02*
X79773596Y-44074296D01*
X79773596Y-44074296D02*
X79856929Y-44240962D01*
X79856929Y-44240962D02*
X79856929Y-44490962D01*
X79856929Y-44490962D02*
X79773596Y-44657629D01*
X79773596Y-44657629D02*
X79690263Y-44740962D01*
X79690263Y-44740962D02*
X79523596Y-44824296D01*
X79523596Y-44824296D02*
X78856929Y-44824296D01*
X80606929Y-45657629D02*
X80606929Y-43907629D01*
X80606929Y-43907629D02*
X81606929Y-45657629D01*
X81606929Y-45657629D02*
X81606929Y-43907629D01*
X77023596Y-47407629D02*
X77440262Y-49157629D01*
X77440262Y-49157629D02*
X77773596Y-47907629D01*
X77773596Y-47907629D02*
X78106929Y-49157629D01*
X78106929Y-49157629D02*
X78523596Y-47407629D01*
X79190262Y-49157629D02*
X79190262Y-47407629D01*
X79190262Y-48240962D02*
X80190262Y-48240962D01*
X80190262Y-49157629D02*
X80190262Y-47407629D01*
X80773595Y-47407629D02*
X81773595Y-47407629D01*
X81273595Y-49157629D02*
X81273595Y-47407629D01*
D12*
X76850467Y-79105264D02*
X76850467Y-78438597D01*
X76850467Y-78438597D02*
X77017134Y-78105264D01*
X77017134Y-78105264D02*
X77350467Y-77771930D01*
X77350467Y-77771930D02*
X78017134Y-77605264D01*
X78017134Y-77605264D02*
X79183801Y-77605264D01*
X79183801Y-77605264D02*
X79850467Y-77771930D01*
X79850467Y-77771930D02*
X80183801Y-78105264D01*
X80183801Y-78105264D02*
X80350467Y-78438597D01*
X80350467Y-78438597D02*
X80350467Y-79105264D01*
X80350467Y-79105264D02*
X80183801Y-79438597D01*
X80183801Y-79438597D02*
X79850467Y-79771930D01*
X79850467Y-79771930D02*
X79183801Y-79938597D01*
X79183801Y-79938597D02*
X78017134Y-79938597D01*
X78017134Y-79938597D02*
X77350467Y-79771930D01*
X77350467Y-79771930D02*
X77017134Y-79438597D01*
X77017134Y-79438597D02*
X76850467Y-79105264D01*
X76850467Y-76105263D02*
X79683801Y-76105263D01*
X79683801Y-76105263D02*
X80017134Y-75938597D01*
X80017134Y-75938597D02*
X80183801Y-75771930D01*
X80183801Y-75771930D02*
X80350467Y-75438597D01*
X80350467Y-75438597D02*
X80350467Y-74771930D01*
X80350467Y-74771930D02*
X80183801Y-74438597D01*
X80183801Y-74438597D02*
X80017134Y-74271930D01*
X80017134Y-74271930D02*
X79683801Y-74105263D01*
X79683801Y-74105263D02*
X76850467Y-74105263D01*
X76850467Y-72938596D02*
X76850467Y-70938596D01*
X80350467Y-71938596D02*
X76850467Y-71938596D01*
D13*
X57863333Y-56693847D02*
X57530000Y-56217656D01*
X57291905Y-56693847D02*
X57291905Y-55693847D01*
X57291905Y-55693847D02*
X57672857Y-55693847D01*
X57672857Y-55693847D02*
X57768095Y-55741466D01*
X57768095Y-55741466D02*
X57815714Y-55789085D01*
X57815714Y-55789085D02*
X57863333Y-55884323D01*
X57863333Y-55884323D02*
X57863333Y-56027180D01*
X57863333Y-56027180D02*
X57815714Y-56122418D01*
X57815714Y-56122418D02*
X57768095Y-56170037D01*
X57768095Y-56170037D02*
X57672857Y-56217656D01*
X57672857Y-56217656D02*
X57291905Y-56217656D01*
X58815714Y-56693847D02*
X58244286Y-56693847D01*
X58530000Y-56693847D02*
X58530000Y-55693847D01*
X58530000Y-55693847D02*
X58434762Y-55836704D01*
X58434762Y-55836704D02*
X58339524Y-55931942D01*
X58339524Y-55931942D02*
X58244286Y-55979561D01*
X50873809Y-59254819D02*
X50873809Y-58254819D01*
X51921427Y-59159580D02*
X51873808Y-59207200D01*
X51873808Y-59207200D02*
X51730951Y-59254819D01*
X51730951Y-59254819D02*
X51635713Y-59254819D01*
X51635713Y-59254819D02*
X51492856Y-59207200D01*
X51492856Y-59207200D02*
X51397618Y-59111961D01*
X51397618Y-59111961D02*
X51349999Y-59016723D01*
X51349999Y-59016723D02*
X51302380Y-58826247D01*
X51302380Y-58826247D02*
X51302380Y-58683390D01*
X51302380Y-58683390D02*
X51349999Y-58492914D01*
X51349999Y-58492914D02*
X51397618Y-58397676D01*
X51397618Y-58397676D02*
X51492856Y-58302438D01*
X51492856Y-58302438D02*
X51635713Y-58254819D01*
X51635713Y-58254819D02*
X51730951Y-58254819D01*
X51730951Y-58254819D02*
X51873808Y-58302438D01*
X51873808Y-58302438D02*
X51921427Y-58350057D01*
X52873808Y-59254819D02*
X52302380Y-59254819D01*
X52588094Y-59254819D02*
X52588094Y-58254819D01*
X52588094Y-58254819D02*
X52492856Y-58397676D01*
X52492856Y-58397676D02*
X52397618Y-58492914D01*
X52397618Y-58492914D02*
X52302380Y-58540533D01*
X52413332Y-55699580D02*
X52365713Y-55747200D01*
X52365713Y-55747200D02*
X52222856Y-55794819D01*
X52222856Y-55794819D02*
X52127618Y-55794819D01*
X52127618Y-55794819D02*
X51984761Y-55747200D01*
X51984761Y-55747200D02*
X51889523Y-55651961D01*
X51889523Y-55651961D02*
X51841904Y-55556723D01*
X51841904Y-55556723D02*
X51794285Y-55366247D01*
X51794285Y-55366247D02*
X51794285Y-55223390D01*
X51794285Y-55223390D02*
X51841904Y-55032914D01*
X51841904Y-55032914D02*
X51889523Y-54937676D01*
X51889523Y-54937676D02*
X51984761Y-54842438D01*
X51984761Y-54842438D02*
X52127618Y-54794819D01*
X52127618Y-54794819D02*
X52222856Y-54794819D01*
X52222856Y-54794819D02*
X52365713Y-54842438D01*
X52365713Y-54842438D02*
X52413332Y-54890057D01*
X52794285Y-54890057D02*
X52841904Y-54842438D01*
X52841904Y-54842438D02*
X52937142Y-54794819D01*
X52937142Y-54794819D02*
X53175237Y-54794819D01*
X53175237Y-54794819D02*
X53270475Y-54842438D01*
X53270475Y-54842438D02*
X53318094Y-54890057D01*
X53318094Y-54890057D02*
X53365713Y-54985295D01*
X53365713Y-54985295D02*
X53365713Y-55080533D01*
X53365713Y-55080533D02*
X53318094Y-55223390D01*
X53318094Y-55223390D02*
X52746666Y-55794819D01*
X52746666Y-55794819D02*
X53365713Y-55794819D01*
X50273332Y-63924820D02*
X49939999Y-63448629D01*
X49701904Y-63924820D02*
X49701904Y-62924820D01*
X49701904Y-62924820D02*
X50082856Y-62924820D01*
X50082856Y-62924820D02*
X50178094Y-62972439D01*
X50178094Y-62972439D02*
X50225713Y-63020058D01*
X50225713Y-63020058D02*
X50273332Y-63115296D01*
X50273332Y-63115296D02*
X50273332Y-63258153D01*
X50273332Y-63258153D02*
X50225713Y-63353391D01*
X50225713Y-63353391D02*
X50178094Y-63401010D01*
X50178094Y-63401010D02*
X50082856Y-63448629D01*
X50082856Y-63448629D02*
X49701904Y-63448629D01*
X50654285Y-63020058D02*
X50701904Y-62972439D01*
X50701904Y-62972439D02*
X50797142Y-62924820D01*
X50797142Y-62924820D02*
X51035237Y-62924820D01*
X51035237Y-62924820D02*
X51130475Y-62972439D01*
X51130475Y-62972439D02*
X51178094Y-63020058D01*
X51178094Y-63020058D02*
X51225713Y-63115296D01*
X51225713Y-63115296D02*
X51225713Y-63210534D01*
X51225713Y-63210534D02*
X51178094Y-63353391D01*
X51178094Y-63353391D02*
X50606666Y-63924820D01*
X50606666Y-63924820D02*
X51225713Y-63924820D01*
X55691904Y-50744819D02*
X55691904Y-49744819D01*
X55691904Y-49744819D02*
X55929999Y-49744819D01*
X55929999Y-49744819D02*
X56072856Y-49792438D01*
X56072856Y-49792438D02*
X56168094Y-49887676D01*
X56168094Y-49887676D02*
X56215713Y-49982914D01*
X56215713Y-49982914D02*
X56263332Y-50173390D01*
X56263332Y-50173390D02*
X56263332Y-50316247D01*
X56263332Y-50316247D02*
X56215713Y-50506723D01*
X56215713Y-50506723D02*
X56168094Y-50601961D01*
X56168094Y-50601961D02*
X56072856Y-50697200D01*
X56072856Y-50697200D02*
X55929999Y-50744819D01*
X55929999Y-50744819D02*
X55691904Y-50744819D01*
X57215713Y-50744819D02*
X56644285Y-50744819D01*
X56929999Y-50744819D02*
X56929999Y-49744819D01*
X56929999Y-49744819D02*
X56834761Y-49887676D01*
X56834761Y-49887676D02*
X56739523Y-49982914D01*
X56739523Y-49982914D02*
X56644285Y-50030533D01*
X49591905Y-67394007D02*
X49591905Y-66394007D01*
X49591905Y-66394007D02*
X49830000Y-66394007D01*
X49830000Y-66394007D02*
X49972857Y-66441626D01*
X49972857Y-66441626D02*
X50068095Y-66536864D01*
X50068095Y-66536864D02*
X50115714Y-66632102D01*
X50115714Y-66632102D02*
X50163333Y-66822578D01*
X50163333Y-66822578D02*
X50163333Y-66965435D01*
X50163333Y-66965435D02*
X50115714Y-67155911D01*
X50115714Y-67155911D02*
X50068095Y-67251149D01*
X50068095Y-67251149D02*
X49972857Y-67346388D01*
X49972857Y-67346388D02*
X49830000Y-67394007D01*
X49830000Y-67394007D02*
X49591905Y-67394007D01*
X50544286Y-66489245D02*
X50591905Y-66441626D01*
X50591905Y-66441626D02*
X50687143Y-66394007D01*
X50687143Y-66394007D02*
X50925238Y-66394007D01*
X50925238Y-66394007D02*
X51020476Y-66441626D01*
X51020476Y-66441626D02*
X51068095Y-66489245D01*
X51068095Y-66489245D02*
X51115714Y-66584483D01*
X51115714Y-66584483D02*
X51115714Y-66679721D01*
X51115714Y-66679721D02*
X51068095Y-66822578D01*
X51068095Y-66822578D02*
X50496667Y-67394007D01*
X50496667Y-67394007D02*
X51115714Y-67394007D01*
X57934760Y-63210057D02*
X57839522Y-63162438D01*
X57839522Y-63162438D02*
X57744284Y-63067200D01*
X57744284Y-63067200D02*
X57601427Y-62924342D01*
X57601427Y-62924342D02*
X57506189Y-62876723D01*
X57506189Y-62876723D02*
X57410951Y-62876723D01*
X57458570Y-63114819D02*
X57363332Y-63067200D01*
X57363332Y-63067200D02*
X57268094Y-62971961D01*
X57268094Y-62971961D02*
X57220475Y-62781485D01*
X57220475Y-62781485D02*
X57220475Y-62448152D01*
X57220475Y-62448152D02*
X57268094Y-62257676D01*
X57268094Y-62257676D02*
X57363332Y-62162438D01*
X57363332Y-62162438D02*
X57458570Y-62114819D01*
X57458570Y-62114819D02*
X57649046Y-62114819D01*
X57649046Y-62114819D02*
X57744284Y-62162438D01*
X57744284Y-62162438D02*
X57839522Y-62257676D01*
X57839522Y-62257676D02*
X57887141Y-62448152D01*
X57887141Y-62448152D02*
X57887141Y-62781485D01*
X57887141Y-62781485D02*
X57839522Y-62971961D01*
X57839522Y-62971961D02*
X57744284Y-63067200D01*
X57744284Y-63067200D02*
X57649046Y-63114819D01*
X57649046Y-63114819D02*
X57458570Y-63114819D01*
X58268094Y-62210057D02*
X58315713Y-62162438D01*
X58315713Y-62162438D02*
X58410951Y-62114819D01*
X58410951Y-62114819D02*
X58649046Y-62114819D01*
X58649046Y-62114819D02*
X58744284Y-62162438D01*
X58744284Y-62162438D02*
X58791903Y-62210057D01*
X58791903Y-62210057D02*
X58839522Y-62305295D01*
X58839522Y-62305295D02*
X58839522Y-62400533D01*
X58839522Y-62400533D02*
X58791903Y-62543390D01*
X58791903Y-62543390D02*
X58220475Y-63114819D01*
X58220475Y-63114819D02*
X58839522Y-63114819D01*
X55813332Y-63839580D02*
X55765713Y-63887200D01*
X55765713Y-63887200D02*
X55622856Y-63934819D01*
X55622856Y-63934819D02*
X55527618Y-63934819D01*
X55527618Y-63934819D02*
X55384761Y-63887200D01*
X55384761Y-63887200D02*
X55289523Y-63791961D01*
X55289523Y-63791961D02*
X55241904Y-63696723D01*
X55241904Y-63696723D02*
X55194285Y-63506247D01*
X55194285Y-63506247D02*
X55194285Y-63363390D01*
X55194285Y-63363390D02*
X55241904Y-63172914D01*
X55241904Y-63172914D02*
X55289523Y-63077676D01*
X55289523Y-63077676D02*
X55384761Y-62982438D01*
X55384761Y-62982438D02*
X55527618Y-62934819D01*
X55527618Y-62934819D02*
X55622856Y-62934819D01*
X55622856Y-62934819D02*
X55765713Y-62982438D01*
X55765713Y-62982438D02*
X55813332Y-63030057D01*
X56765713Y-63934819D02*
X56194285Y-63934819D01*
X56479999Y-63934819D02*
X56479999Y-62934819D01*
X56479999Y-62934819D02*
X56384761Y-63077676D01*
X56384761Y-63077676D02*
X56289523Y-63172914D01*
X56289523Y-63172914D02*
X56194285Y-63220533D01*
D14*
X59350001Y-67220000D02*
X73849999Y-67220000D01*
X59350002Y-58720000D02*
X59350001Y-67220000D01*
X62650002Y-67970000D02*
X62650002Y-67219999D01*
X62650002Y-67970000D02*
X68534001Y-67970000D01*
X68534001Y-67970000D02*
X68534001Y-67219999D01*
X73849999Y-58719999D02*
X59350002Y-58720000D01*
X73849999Y-58719999D02*
X73849999Y-67220000D01*
X76024999Y-60020000D02*
X73850000Y-60020000D01*
X76024999Y-60020000D02*
X76024999Y-63119999D01*
X76024999Y-63119999D02*
X73850000Y-63119999D01*
X76024999Y-63520001D02*
X73850000Y-63520001D01*
X76024999Y-63520001D02*
X76024999Y-66620000D01*
X76024999Y-66620000D02*
X73850000Y-66620000D01*
D15*
X61981000Y-64770000D02*
G75*
G02*
X61219000Y-64770000I-381000J0D01*
G01*
X61219000Y-64770000D02*
G75*
G02*
X61981000Y-64770000I381000J0D01*
G01*
D14*
X60995001Y-72730002D02*
X60995001Y-78614001D01*
X60995001Y-72730002D02*
X61745002Y-72730002D01*
X60995001Y-78614001D02*
X61745002Y-78614001D01*
X61745002Y-69430001D02*
X61745002Y-83929999D01*
X62345001Y-86104999D02*
X62345001Y-83930000D01*
X65445000Y-86104999D02*
X62345001Y-86104999D01*
X65445000Y-86104999D02*
X65445000Y-83930000D01*
X65845002Y-86104999D02*
X65845002Y-83930000D01*
X68945001Y-86104999D02*
X65845002Y-86104999D01*
X68945001Y-86104999D02*
X68945001Y-83930000D01*
X69345002Y-86104999D02*
X69345002Y-83930000D01*
X72445001Y-86104999D02*
X69345002Y-86104999D01*
X72445001Y-86104999D02*
X72445001Y-83930000D01*
X73744998Y-69430001D02*
X61745002Y-69430001D01*
X73744998Y-83929999D02*
X61745002Y-83929999D01*
X73744998Y-83929999D02*
X73744998Y-69430001D01*
D15*
X64576000Y-71579999D02*
G75*
G02*
X63814000Y-71579999I-381000J0D01*
G01*
X63814000Y-71579999D02*
G75*
G02*
X64576000Y-71579999I381000J0D01*
G01*
D16*
X55625000Y-56469563D02*
X55625000Y-56015435D01*
X57095000Y-56469563D02*
X57095000Y-56015435D01*
D17*
G36*
X55808880Y-40500300D02*
G01*
X55808880Y-40939720D01*
X55727600Y-40939720D01*
X55646320Y-40939720D01*
X55646320Y-40767000D01*
X55646320Y-40594280D01*
X55118000Y-40594280D01*
X54589679Y-40594280D01*
X54589680Y-40515563D01*
X54589680Y-40436848D01*
X55116730Y-40435553D01*
X55643780Y-40434260D01*
X55645113Y-40247570D01*
X55646446Y-40060880D01*
X55727663Y-40060880D01*
X55808880Y-40060880D01*
X55808880Y-40500300D01*
G37*
G36*
X55807639Y-48159670D02*
G01*
X55806339Y-48597820D01*
X55726330Y-48599218D01*
X55646320Y-48600617D01*
X55646320Y-48427792D01*
X55646320Y-48254967D01*
X55119270Y-48253673D01*
X54592220Y-48252380D01*
X54590822Y-48172370D01*
X54589423Y-48092360D01*
X55117872Y-48092360D01*
X55646320Y-48092360D01*
X55646320Y-47906940D01*
X55646320Y-47721520D01*
X55727629Y-47721520D01*
X55808937Y-47721520D01*
X55807639Y-48159670D01*
G37*
G36*
X55199280Y-45791120D02*
G01*
X55808880Y-45791120D01*
X55808880Y-46238160D01*
X55808880Y-46685200D01*
X55727600Y-46685200D01*
X55646320Y-46685200D01*
X55646320Y-46319440D01*
X55646320Y-45953680D01*
X55460900Y-45953680D01*
X55275480Y-45953680D01*
X55275480Y-46240700D01*
X55275480Y-46527720D01*
X55194200Y-46527720D01*
X55112920Y-46527720D01*
X55112920Y-46240700D01*
X55112920Y-45953680D01*
X54930040Y-45953680D01*
X54747160Y-45953680D01*
X54747160Y-46319440D01*
X54747160Y-46685199D01*
X54668420Y-46685200D01*
X54589679Y-46685200D01*
X54589679Y-46238160D01*
X54589680Y-45791119D01*
X55199280Y-45791120D01*
G37*
G36*
X55807638Y-39526210D02*
G01*
X55806339Y-39971980D01*
X55726330Y-39973378D01*
X55646320Y-39974777D01*
X55646320Y-39606348D01*
X55646320Y-39237920D01*
X55460900Y-39237920D01*
X55275480Y-39237920D01*
X55275480Y-39527480D01*
X55275480Y-39817040D01*
X55194200Y-39817040D01*
X55112920Y-39817039D01*
X55112920Y-39527481D01*
X55112920Y-39237920D01*
X54930040Y-39237920D01*
X54747160Y-39237920D01*
X54747160Y-39606352D01*
X54747160Y-39974784D01*
X54669690Y-39973382D01*
X54592220Y-39971980D01*
X54590923Y-39526210D01*
X54589625Y-39080440D01*
X55199280Y-39080440D01*
X55808936Y-39080440D01*
X55807638Y-39526210D01*
G37*
G36*
X55036720Y-45033433D02*
G01*
X55036720Y-45110400D01*
X55024672Y-45110400D01*
X55009516Y-45112109D01*
X54987800Y-45116681D01*
X54962429Y-45123284D01*
X54936305Y-45131085D01*
X54912333Y-45139252D01*
X54893418Y-45146951D01*
X54888311Y-45149498D01*
X54861393Y-45167113D01*
X54833438Y-45190508D01*
X54807885Y-45216498D01*
X54788178Y-45241896D01*
X54787704Y-45242629D01*
X54771221Y-45273005D01*
X54760239Y-45305224D01*
X54754125Y-45341845D01*
X54752240Y-45385172D01*
X54752240Y-45440600D01*
X55280560Y-45440600D01*
X55808880Y-45440600D01*
X55808880Y-45519339D01*
X55808880Y-45598080D01*
X55201820Y-45598080D01*
X54594760Y-45598079D01*
X54595253Y-45464730D01*
X54595753Y-45414810D01*
X54596837Y-45370665D01*
X54598455Y-45333453D01*
X54600562Y-45304329D01*
X54602523Y-45287903D01*
X54610706Y-45247133D01*
X54622457Y-45210897D01*
X54639457Y-45174387D01*
X54647207Y-45160213D01*
X54679763Y-45112635D01*
X54720300Y-45070256D01*
X54767722Y-45033720D01*
X54820929Y-45003670D01*
X54878823Y-44980751D01*
X54940305Y-44965604D01*
X54989730Y-44959620D01*
X55036719Y-44956467D01*
X55036720Y-45033433D01*
G37*
G36*
X56502300Y-44636691D02*
G01*
X56504308Y-44642147D01*
X56505865Y-44656731D01*
X56506905Y-44679412D01*
X56507364Y-44709165D01*
X56507380Y-44716700D01*
X56507061Y-44747897D01*
X56506145Y-44772252D01*
X56504698Y-44788740D01*
X56502786Y-44796332D01*
X56502300Y-44796710D01*
X56498407Y-44793205D01*
X56495778Y-44782968D01*
X56495657Y-44781848D01*
X56494944Y-44774883D01*
X56493692Y-44769107D01*
X56491021Y-44764407D01*
X56486053Y-44760675D01*
X56477909Y-44757797D01*
X56465708Y-44755663D01*
X56448572Y-44754162D01*
X56425623Y-44753182D01*
X56395980Y-44752613D01*
X56358764Y-44752344D01*
X56313097Y-44752263D01*
X56261486Y-44752260D01*
X56214863Y-44752349D01*
X56170827Y-44752606D01*
X56130545Y-44753010D01*
X56095177Y-44753543D01*
X56065886Y-44754187D01*
X56043834Y-44754920D01*
X56030185Y-44755722D01*
X56026827Y-44756154D01*
X56009844Y-44764164D01*
X55999866Y-44779491D01*
X55996840Y-44800459D01*
X55995250Y-44812100D01*
X55991760Y-44818300D01*
X55989745Y-44814664D01*
X55988224Y-44801143D01*
X55987213Y-44777999D01*
X55986725Y-44745495D01*
X55986680Y-44729698D01*
X55986955Y-44694686D01*
X55987755Y-44667467D01*
X55989041Y-44648718D01*
X55990778Y-44639119D01*
X55991760Y-44637960D01*
X55995756Y-44642267D01*
X55996918Y-44649390D01*
X55997244Y-44657064D01*
X55998658Y-44663501D01*
X56001981Y-44668807D01*
X56008037Y-44673091D01*
X56017647Y-44676462D01*
X56031634Y-44679031D01*
X56050821Y-44680905D01*
X56076031Y-44682193D01*
X56108085Y-44683006D01*
X56147806Y-44683452D01*
X56196017Y-44683640D01*
X56253540Y-44683679D01*
X56255464Y-44683680D01*
X56310581Y-44683687D01*
X56356409Y-44683630D01*
X56393818Y-44683390D01*
X56423679Y-44682846D01*
X56446861Y-44681877D01*
X56464235Y-44680366D01*
X56476672Y-44678191D01*
X56485042Y-44675234D01*
X56490215Y-44671373D01*
X56493062Y-44666493D01*
X56494454Y-44660469D01*
X56495259Y-44653184D01*
X56495525Y-44650660D01*
X56498158Y-44640389D01*
X56502170Y-44636662D01*
X56502300Y-44636691D01*
G37*
G36*
X56505586Y-37749201D02*
G01*
X56506915Y-37762494D01*
X56507917Y-37782610D01*
X56508502Y-37807882D01*
X56508614Y-37825885D01*
X56508347Y-37859656D01*
X56507521Y-37883796D01*
X56506099Y-37898818D01*
X56504047Y-37905238D01*
X56503048Y-37905515D01*
X56498332Y-37899729D01*
X56494319Y-37888128D01*
X56494048Y-37886873D01*
X56489763Y-37874036D01*
X56484072Y-37865873D01*
X56483758Y-37865656D01*
X56477400Y-37864769D01*
X56461935Y-37863998D01*
X56438415Y-37863355D01*
X56407891Y-37862856D01*
X56371416Y-37862513D01*
X56330041Y-37862340D01*
X56284819Y-37862353D01*
X56247208Y-37862502D01*
X56191130Y-37862796D01*
X56144351Y-37863092D01*
X56106013Y-37863520D01*
X56075256Y-37864217D01*
X56051221Y-37865314D01*
X56033049Y-37866950D01*
X56019881Y-37869254D01*
X56010856Y-37872362D01*
X56005117Y-37876408D01*
X56001802Y-37881525D01*
X56000055Y-37887848D01*
X55999015Y-37895510D01*
X55998305Y-37901304D01*
X55995503Y-37918004D01*
X55992967Y-37924934D01*
X55990767Y-37922480D01*
X55988972Y-37911035D01*
X55987649Y-37890981D01*
X55986869Y-37862709D01*
X55986680Y-37835840D01*
X55986910Y-37806522D01*
X55987550Y-37781436D01*
X55988527Y-37762085D01*
X55989765Y-37749973D01*
X55991104Y-37746534D01*
X55995176Y-37753040D01*
X55998542Y-37764338D01*
X56000061Y-37770936D01*
X56002334Y-37776418D01*
X56006250Y-37780896D01*
X56012699Y-37784482D01*
X56022570Y-37787289D01*
X56036754Y-37789429D01*
X56056140Y-37791015D01*
X56081618Y-37792159D01*
X56114077Y-37792973D01*
X56154407Y-37793571D01*
X56203498Y-37794063D01*
X56235880Y-37794343D01*
X56293031Y-37794768D01*
X56340870Y-37794944D01*
X56380244Y-37794793D01*
X56412000Y-37794238D01*
X56436985Y-37793201D01*
X56456045Y-37791606D01*
X56470028Y-37789374D01*
X56479780Y-37786430D01*
X56486149Y-37782693D01*
X56489980Y-37778086D01*
X56492121Y-37772536D01*
X56492514Y-37770887D01*
X56496269Y-37755212D01*
X56499340Y-37747204D01*
X56502747Y-37744519D01*
X56504028Y-37744400D01*
X56505586Y-37749201D01*
G37*
G36*
X56504315Y-47202757D02*
G01*
X56505978Y-47217133D01*
X56507221Y-47239655D01*
X56507972Y-47269321D01*
X56508094Y-47279791D01*
X56508140Y-47313081D01*
X56507582Y-47336899D01*
X56506377Y-47351927D01*
X56504484Y-47358838D01*
X56503144Y-47359427D01*
X56498324Y-47353608D01*
X56494321Y-47342049D01*
X56494130Y-47341152D01*
X56491160Y-47329088D01*
X56486707Y-47322050D01*
X56478117Y-47318096D01*
X56462732Y-47315285D01*
X56457777Y-47314570D01*
X56445053Y-47313533D01*
X56423703Y-47312675D01*
X56395254Y-47311992D01*
X56361236Y-47311489D01*
X56323181Y-47311165D01*
X56282619Y-47311024D01*
X56241079Y-47311061D01*
X56200091Y-47311282D01*
X56161186Y-47311685D01*
X56125893Y-47312272D01*
X56095744Y-47313044D01*
X56072267Y-47314001D01*
X56066238Y-47314359D01*
X56042705Y-47316160D01*
X56027065Y-47318222D01*
X56017058Y-47321124D01*
X56010422Y-47325445D01*
X56006548Y-47329652D01*
X55999578Y-47343436D01*
X55996840Y-47358562D01*
X55995452Y-47371016D01*
X55992075Y-47378393D01*
X55991760Y-47378620D01*
X55989745Y-47374984D01*
X55988224Y-47361463D01*
X55987213Y-47338319D01*
X55986724Y-47305815D01*
X55986680Y-47290019D01*
X55986955Y-47255007D01*
X55987755Y-47227787D01*
X55989041Y-47209038D01*
X55990778Y-47199439D01*
X55991760Y-47198280D01*
X55995690Y-47202595D01*
X55996840Y-47210009D01*
X55998026Y-47222033D01*
X56002577Y-47230660D01*
X56011981Y-47236608D01*
X56027727Y-47240595D01*
X56051306Y-47243339D01*
X56068596Y-47244608D01*
X56091271Y-47245723D01*
X56120874Y-47246634D01*
X56155857Y-47247343D01*
X56194674Y-47247849D01*
X56235776Y-47248149D01*
X56277614Y-47248248D01*
X56318642Y-47248144D01*
X56357311Y-47247838D01*
X56392073Y-47247330D01*
X56421381Y-47246620D01*
X56443685Y-47245710D01*
X56457440Y-47244596D01*
X56457777Y-47244549D01*
X56475364Y-47241655D01*
X56485453Y-47237914D01*
X56490634Y-47231253D01*
X56493498Y-47219599D01*
X56494201Y-47215376D01*
X56497364Y-47203545D01*
X56501386Y-47197682D01*
X56502300Y-47197534D01*
X56504315Y-47202757D01*
G37*
G36*
X56272886Y-39225402D02*
G01*
X56283552Y-39227515D01*
X56321897Y-39235110D01*
X56368452Y-39254134D01*
X56411653Y-39282322D01*
X56440520Y-39308559D01*
X56470915Y-39344864D01*
X56493040Y-39382958D01*
X56507561Y-39424606D01*
X56515148Y-39471571D01*
X56516692Y-39509700D01*
X56512575Y-39566782D01*
X56500128Y-39618238D01*
X56479207Y-39664452D01*
X56449669Y-39705815D01*
X56440581Y-39715802D01*
X56404045Y-39747011D01*
X56362496Y-39769992D01*
X56317093Y-39784585D01*
X56268996Y-39790630D01*
X56219366Y-39787970D01*
X56169363Y-39776442D01*
X56126352Y-39759022D01*
X56083373Y-39732357D01*
X56046829Y-39697866D01*
X56016824Y-39655667D01*
X55993458Y-39605879D01*
X55992867Y-39604287D01*
X55985982Y-39578720D01*
X55981050Y-39546611D01*
X55978659Y-39516117D01*
X56005296Y-39516117D01*
X56009348Y-39561559D01*
X56015331Y-39585900D01*
X56030627Y-39620324D01*
X56054322Y-39651139D01*
X56084920Y-39677036D01*
X56120926Y-39696706D01*
X56154296Y-39707468D01*
X56183086Y-39712089D01*
X56217382Y-39714664D01*
X56253273Y-39715135D01*
X56286850Y-39713443D01*
X56312820Y-39709826D01*
X56357839Y-39695899D01*
X56397870Y-39674445D01*
X56431947Y-39646429D01*
X56459106Y-39612818D01*
X56478384Y-39574579D01*
X56488666Y-39533761D01*
X56490781Y-39486134D01*
X56484008Y-39442129D01*
X56468854Y-39402541D01*
X56445822Y-39368167D01*
X56415414Y-39339800D01*
X56378136Y-39318239D01*
X56345023Y-39306764D01*
X56317319Y-39301898D01*
X56283552Y-39299493D01*
X56247515Y-39299549D01*
X56213006Y-39302068D01*
X56185273Y-39306702D01*
X56141009Y-39321564D01*
X56100896Y-39343769D01*
X56066465Y-39372146D01*
X56039248Y-39405527D01*
X56027039Y-39427428D01*
X56011168Y-39471753D01*
X56005296Y-39516117D01*
X55978659Y-39516117D01*
X55978291Y-39511427D01*
X55977924Y-39476634D01*
X55980168Y-39445701D01*
X55982111Y-39433847D01*
X55995846Y-39389596D01*
X56017812Y-39347647D01*
X56046578Y-39309875D01*
X56080701Y-39278153D01*
X56118750Y-39254357D01*
X56120082Y-39253716D01*
X56171081Y-39234552D01*
X56222315Y-39225165D01*
X56272886Y-39225402D01*
G37*
G36*
X56443212Y-40729963D02*
G01*
X56462966Y-40733084D01*
X56472355Y-40735134D01*
X56512460Y-40744470D01*
X56509921Y-40779865D01*
X56509210Y-40795136D01*
X56508618Y-40818441D01*
X56508147Y-40848221D01*
X56507795Y-40882922D01*
X56507564Y-40920986D01*
X56507454Y-40960857D01*
X56507464Y-41000982D01*
X56507596Y-41039802D01*
X56507850Y-41075761D01*
X56508226Y-41107303D01*
X56508724Y-41132873D01*
X56509344Y-41150913D01*
X56509844Y-41158160D01*
X56512308Y-41181020D01*
X56486984Y-41182646D01*
X56466545Y-41183012D01*
X56447019Y-41181758D01*
X56430914Y-41179238D01*
X56420736Y-41175798D01*
X56418480Y-41173088D01*
X56422793Y-41169381D01*
X56430050Y-41168320D01*
X56447563Y-41163590D01*
X56461450Y-41150497D01*
X56469055Y-41133880D01*
X56471123Y-41121354D01*
X56472813Y-41101468D01*
X56473942Y-41077017D01*
X56474332Y-41052337D01*
X56474360Y-40989695D01*
X56249570Y-40991616D01*
X56202516Y-40992101D01*
X56158438Y-40992716D01*
X56118407Y-40993434D01*
X56083497Y-40994227D01*
X56054780Y-40995072D01*
X56033329Y-40995938D01*
X56020217Y-40996801D01*
X56016579Y-40997387D01*
X56006772Y-41006792D01*
X55999635Y-41022589D01*
X55996841Y-41041059D01*
X55996840Y-41041259D01*
X55995250Y-41052902D01*
X55991760Y-41059100D01*
X55989769Y-41055443D01*
X55988259Y-41041890D01*
X55987244Y-41018692D01*
X55986738Y-40986101D01*
X55986680Y-40967660D01*
X55986943Y-40930752D01*
X55987721Y-40903119D01*
X55989001Y-40885013D01*
X55990768Y-40876685D01*
X55991760Y-40876220D01*
X55995885Y-40883303D01*
X55996917Y-40890489D01*
X55997259Y-40898122D01*
X55998716Y-40904518D01*
X56002114Y-40909787D01*
X56008277Y-40914036D01*
X56018033Y-40917377D01*
X56032204Y-40919918D01*
X56051618Y-40921768D01*
X56077098Y-40923037D01*
X56109470Y-40923833D01*
X56149559Y-40924266D01*
X56198190Y-40924445D01*
X56253711Y-40924480D01*
X56474360Y-40924480D01*
X56474360Y-40855736D01*
X56473897Y-40821127D01*
X56472199Y-40795097D01*
X56468807Y-40776093D01*
X56463263Y-40762564D01*
X56455106Y-40752958D01*
X56443877Y-40745723D01*
X56441438Y-40744526D01*
X56428807Y-40737280D01*
X56425389Y-40732287D01*
X56430438Y-40729773D01*
X56443212Y-40729963D01*
G37*
G36*
X56444573Y-47503307D02*
G01*
X56461407Y-47506032D01*
X56479547Y-47509752D01*
X56496150Y-47513942D01*
X56508377Y-47518079D01*
X56508455Y-47518113D01*
X56515664Y-47522353D01*
X56516994Y-47528486D01*
X56513535Y-47539712D01*
X56512211Y-47548295D01*
X56511004Y-47565610D01*
X56509928Y-47590231D01*
X56508994Y-47620728D01*
X56508219Y-47655676D01*
X56507615Y-47693646D01*
X56507197Y-47733211D01*
X56506975Y-47772944D01*
X56506968Y-47811418D01*
X56507185Y-47847205D01*
X56507642Y-47878877D01*
X56508352Y-47905008D01*
X56509329Y-47924170D01*
X56509821Y-47929800D01*
X56512261Y-47952660D01*
X56467911Y-47952660D01*
X56446407Y-47951951D01*
X56430954Y-47950073D01*
X56422491Y-47947394D01*
X56421957Y-47944283D01*
X56430293Y-47941110D01*
X56435724Y-47940008D01*
X56448998Y-47934138D01*
X56460796Y-47923519D01*
X56461124Y-47923087D01*
X56465488Y-47916198D01*
X56468587Y-47907894D01*
X56470702Y-47896256D01*
X56472114Y-47879368D01*
X56473104Y-47855310D01*
X56473578Y-47837997D01*
X56475335Y-47767240D01*
X56249350Y-47767240D01*
X56193075Y-47767230D01*
X56146101Y-47767293D01*
X56107570Y-47767563D01*
X56076622Y-47768176D01*
X56052400Y-47769266D01*
X56034044Y-47770970D01*
X56020697Y-47773422D01*
X56011499Y-47776758D01*
X56005591Y-47781112D01*
X56002117Y-47786621D01*
X56000215Y-47793420D01*
X55999029Y-47801643D01*
X55998375Y-47806785D01*
X55995549Y-47823683D01*
X55992996Y-47830800D01*
X55990783Y-47828512D01*
X55988979Y-47817197D01*
X55987651Y-47797231D01*
X55986869Y-47768991D01*
X55986680Y-47742139D01*
X55986955Y-47707126D01*
X55987755Y-47679907D01*
X55989041Y-47661157D01*
X55990778Y-47651559D01*
X55991760Y-47650400D01*
X55995690Y-47654715D01*
X55996840Y-47662129D01*
X55997434Y-47670423D01*
X55999733Y-47677444D01*
X56004512Y-47683296D01*
X56012549Y-47688088D01*
X56024620Y-47691924D01*
X56041500Y-47694912D01*
X56063967Y-47697158D01*
X56092796Y-47698768D01*
X56128763Y-47699850D01*
X56172645Y-47700508D01*
X56225219Y-47700852D01*
X56280049Y-47700976D01*
X56474360Y-47701200D01*
X56474286Y-47628810D01*
X56473964Y-47596011D01*
X56472740Y-47571612D01*
X56470111Y-47553861D01*
X56465571Y-47541005D01*
X56458616Y-47531293D01*
X56448744Y-47522973D01*
X56442644Y-47518843D01*
X56431814Y-47510754D01*
X56426312Y-47504505D01*
X56426188Y-47502938D01*
X56431886Y-47502101D01*
X56444573Y-47503307D01*
G37*
G36*
X56035588Y-46736588D02*
G01*
X56054315Y-46737911D01*
X56073136Y-46739832D01*
X56089369Y-46742084D01*
X56100338Y-46744402D01*
X56103519Y-46746169D01*
X56099041Y-46749542D01*
X56087848Y-46752888D01*
X56083319Y-46753760D01*
X56055006Y-46763160D01*
X56032716Y-46780503D01*
X56016772Y-46805323D01*
X56007492Y-46837156D01*
X56005079Y-46867569D01*
X56008471Y-46903355D01*
X56018669Y-46932327D01*
X56035364Y-46954053D01*
X56058246Y-46968102D01*
X56080807Y-46973521D01*
X56101247Y-46974633D01*
X56119398Y-46972447D01*
X56136483Y-46966113D01*
X56153727Y-46954781D01*
X56172353Y-46937601D01*
X56193583Y-46913723D01*
X56218640Y-46882298D01*
X56226065Y-46872613D01*
X56244727Y-46848915D01*
X56263765Y-46826096D01*
X56281238Y-46806398D01*
X56295201Y-46792065D01*
X56298126Y-46789398D01*
X56329406Y-46767601D01*
X56362282Y-46754846D01*
X56395485Y-46751204D01*
X56427750Y-46756744D01*
X56457807Y-46771535D01*
X56468872Y-46780009D01*
X56491027Y-46804462D01*
X56506446Y-46834478D01*
X56515303Y-46870722D01*
X56517767Y-46913858D01*
X56514762Y-46958249D01*
X56508272Y-47015400D01*
X56467186Y-47015322D01*
X56442186Y-47014511D01*
X56424944Y-47012384D01*
X56415971Y-47009235D01*
X56415779Y-47005356D01*
X56424881Y-47001041D01*
X56436893Y-46997953D01*
X56457102Y-46988657D01*
X56472882Y-46970944D01*
X56483715Y-46945771D01*
X56489092Y-46914094D01*
X56489600Y-46899522D01*
X56486082Y-46866639D01*
X56476004Y-46839518D01*
X56460084Y-46819091D01*
X56439040Y-46806290D01*
X56414587Y-46802040D01*
X56396880Y-46803942D01*
X56379839Y-46810219D01*
X56362470Y-46821729D01*
X56343781Y-46839328D01*
X56322778Y-46863874D01*
X56298466Y-46896224D01*
X56287498Y-46911677D01*
X56258154Y-46950906D01*
X56230924Y-46981308D01*
X56204663Y-47003679D01*
X56178226Y-47018815D01*
X56150471Y-47027511D01*
X56120252Y-47030564D01*
X56116586Y-47030591D01*
X56080063Y-47025755D01*
X56047341Y-47011839D01*
X56019463Y-46989537D01*
X55997473Y-46959547D01*
X55991117Y-46946820D01*
X55985585Y-46932239D01*
X55981933Y-46916307D01*
X55979721Y-46896196D01*
X55978506Y-46869078D01*
X55978414Y-46865540D01*
X55978259Y-46840153D01*
X55978938Y-46816185D01*
X55980317Y-46796887D01*
X55981600Y-46788030D01*
X55988878Y-46762224D01*
X55997854Y-46744978D01*
X56008125Y-46737040D01*
X56009137Y-46736801D01*
X56019635Y-46736129D01*
X56035588Y-46736588D01*
G37*
G36*
X55228603Y-41783029D02*
G01*
X55302269Y-41783116D01*
X55373056Y-41783257D01*
X55440244Y-41783445D01*
X55503114Y-41783681D01*
X55560946Y-41783958D01*
X55613023Y-41784272D01*
X55646320Y-41784526D01*
X55658622Y-41784620D01*
X55697026Y-41784997D01*
X55727514Y-41785401D01*
X55749367Y-41785826D01*
X55761865Y-41786269D01*
X55762698Y-41786323D01*
X55809516Y-41789646D01*
X55807559Y-42059373D01*
X55807111Y-42120957D01*
X55806667Y-42173338D01*
X55806128Y-42217470D01*
X55805398Y-42254310D01*
X55804374Y-42284814D01*
X55802962Y-42309936D01*
X55801062Y-42330633D01*
X55798576Y-42347859D01*
X55795405Y-42362573D01*
X55791451Y-42375727D01*
X55786616Y-42388279D01*
X55780801Y-42401184D01*
X55773909Y-42415397D01*
X55770133Y-42423080D01*
X55752541Y-42452169D01*
X55728207Y-42483111D01*
X55699563Y-42513394D01*
X55669043Y-42540507D01*
X55639079Y-42561938D01*
X55631079Y-42566600D01*
X55577669Y-42590468D01*
X55522242Y-42605002D01*
X55465959Y-42610334D01*
X55409982Y-42606592D01*
X55355473Y-42593906D01*
X55303592Y-42572406D01*
X55255502Y-42542220D01*
X55231115Y-42521987D01*
X55189132Y-42477476D01*
X55156573Y-42429176D01*
X55133430Y-42377069D01*
X55119693Y-42321139D01*
X55118216Y-42310640D01*
X55116888Y-42294875D01*
X55115682Y-42270615D01*
X55114641Y-42239526D01*
X55113810Y-42203273D01*
X55113228Y-42163521D01*
X55112943Y-42121935D01*
X55112920Y-42106984D01*
X55112920Y-41945560D01*
X55274894Y-41945560D01*
X55276457Y-42127293D01*
X55278020Y-42309027D01*
X55294686Y-42342862D01*
X55317398Y-42378218D01*
X55347560Y-42408886D01*
X55382713Y-42432406D01*
X55386069Y-42434105D01*
X55399279Y-42439823D01*
X55412647Y-42443373D01*
X55429182Y-42445228D01*
X55451894Y-42445862D01*
X55460899Y-42445885D01*
X55485267Y-42445580D01*
X55502575Y-42444346D01*
X55515919Y-42441612D01*
X55528391Y-42436805D01*
X55539186Y-42431416D01*
X55566157Y-42413721D01*
X55592008Y-42390489D01*
X55613666Y-42364794D01*
X55625784Y-42344788D01*
X55631098Y-42332405D01*
X55635430Y-42318621D01*
X55638875Y-42302308D01*
X55641528Y-42282339D01*
X55643483Y-42257588D01*
X55644835Y-42226929D01*
X55645679Y-42189233D01*
X55646109Y-42143378D01*
X55646218Y-42101770D01*
X55646320Y-41945560D01*
X55460607Y-41945560D01*
X55274894Y-41945560D01*
X55112920Y-41945560D01*
X54851300Y-41945560D01*
X54589680Y-41945560D01*
X54589680Y-41864280D01*
X54589679Y-41783000D01*
X55152780Y-41783000D01*
X55228603Y-41783029D01*
G37*
G36*
X56444746Y-41800692D02*
G01*
X56462274Y-41803308D01*
X56480928Y-41807059D01*
X56497811Y-41811466D01*
X56505799Y-41814192D01*
X56515134Y-41819044D01*
X56516491Y-41825561D01*
X56513845Y-41833017D01*
X56512264Y-41841781D01*
X56510801Y-41859251D01*
X56509479Y-41883979D01*
X56508313Y-41914509D01*
X56507328Y-41949390D01*
X56506542Y-41987171D01*
X56505976Y-42026397D01*
X56505649Y-42065619D01*
X56505581Y-42103383D01*
X56505793Y-42138238D01*
X56506305Y-42168732D01*
X56507137Y-42193412D01*
X56508308Y-42210826D01*
X56508589Y-42213347D01*
X56510619Y-42235174D01*
X56510110Y-42247807D01*
X56507710Y-42251788D01*
X56499405Y-42252680D01*
X56484987Y-42252624D01*
X56467240Y-42251819D01*
X56448944Y-42250466D01*
X56432884Y-42248763D01*
X56421842Y-42246912D01*
X56418480Y-42245377D01*
X56422853Y-42241723D01*
X56433108Y-42238544D01*
X56447379Y-42233616D01*
X56458138Y-42224516D01*
X56465800Y-42210073D01*
X56470777Y-42189116D01*
X56473482Y-42160474D01*
X56474331Y-42122975D01*
X56474332Y-42121846D01*
X56474360Y-42061913D01*
X56245937Y-42063426D01*
X56189923Y-42063776D01*
X56143210Y-42064116D01*
X56104940Y-42064588D01*
X56074253Y-42065338D01*
X56050293Y-42066510D01*
X56032200Y-42068247D01*
X56019116Y-42070695D01*
X56010184Y-42073996D01*
X56004544Y-42078296D01*
X56001339Y-42083740D01*
X55999711Y-42090468D01*
X55998800Y-42098629D01*
X55998156Y-42105056D01*
X55995740Y-42118862D01*
X55992617Y-42127257D01*
X55991100Y-42128440D01*
X55989690Y-42123627D01*
X55988467Y-42110254D01*
X55987506Y-42089923D01*
X55986885Y-42064234D01*
X55986681Y-42036700D01*
X55986951Y-42000474D01*
X55987752Y-41973501D01*
X55989069Y-41956044D01*
X55990884Y-41948366D01*
X55991760Y-41948100D01*
X55995789Y-41955149D01*
X55996840Y-41962852D01*
X56000478Y-41974856D01*
X56007528Y-41984142D01*
X56010515Y-41986444D01*
X56014545Y-41988361D01*
X56020532Y-41989935D01*
X56029394Y-41991210D01*
X56042045Y-41992226D01*
X56059399Y-41993032D01*
X56082377Y-41993665D01*
X56111889Y-41994171D01*
X56148853Y-41994591D01*
X56194185Y-41994970D01*
X56246288Y-41995333D01*
X56474359Y-41996846D01*
X56473854Y-41926753D01*
X56473418Y-41900006D01*
X56472579Y-41876001D01*
X56471450Y-41857035D01*
X56470141Y-41845405D01*
X56469829Y-41844017D01*
X56463117Y-41833026D01*
X56450526Y-41820937D01*
X56435484Y-41810731D01*
X56427127Y-41806897D01*
X56423711Y-41802613D01*
X56424675Y-41800784D01*
X56431246Y-41799691D01*
X56444746Y-41800692D01*
G37*
G36*
X55252336Y-37032075D02*
G01*
X55326947Y-37042822D01*
X55398999Y-37061759D01*
X55467150Y-37088680D01*
X55530059Y-37123379D01*
X55540263Y-37130124D01*
X55563508Y-37147655D01*
X55590697Y-37170939D01*
X55619504Y-37197732D01*
X55647604Y-37225791D01*
X55672671Y-37252875D01*
X55692380Y-37276739D01*
X55692607Y-37277040D01*
X55717468Y-37313995D01*
X55741464Y-37356865D01*
X55762423Y-37401486D01*
X55775942Y-37436821D01*
X55782659Y-37457244D01*
X55788255Y-37475725D01*
X55792847Y-37493453D01*
X55796550Y-37511616D01*
X55799479Y-37531409D01*
X55801749Y-37554021D01*
X55803477Y-37580644D01*
X55804778Y-37612468D01*
X55805768Y-37650684D01*
X55806562Y-37696483D01*
X55807275Y-37751056D01*
X55807392Y-37760910D01*
X55809893Y-37973000D01*
X55728730Y-37973000D01*
X55647568Y-37973000D01*
X55645018Y-37771070D01*
X55644335Y-37719708D01*
X55643666Y-37677371D01*
X55642948Y-37642922D01*
X55642117Y-37615224D01*
X55641113Y-37593143D01*
X55639870Y-37575543D01*
X55638328Y-37561286D01*
X55636422Y-37549239D01*
X55634091Y-37538264D01*
X55631613Y-37528500D01*
X55609148Y-37463449D01*
X55578080Y-37403536D01*
X55538878Y-37349350D01*
X55492010Y-37301482D01*
X55437947Y-37260521D01*
X55401712Y-37239221D01*
X55363592Y-37220918D01*
X55326886Y-37207791D01*
X55288427Y-37199035D01*
X55245046Y-37193843D01*
X55216873Y-37192168D01*
X55148584Y-37193220D01*
X55085619Y-37202697D01*
X55027190Y-37220904D01*
X54972519Y-37248141D01*
X54920822Y-37284711D01*
X54879240Y-37322748D01*
X54834727Y-37374518D01*
X54799138Y-37430457D01*
X54772775Y-37489978D01*
X54755933Y-37552490D01*
X54752565Y-37573317D01*
X54751284Y-37587869D01*
X54750112Y-37611076D01*
X54749085Y-37641434D01*
X54748241Y-37677439D01*
X54747616Y-37717587D01*
X54747247Y-37760374D01*
X54747160Y-37793028D01*
X54747160Y-37973000D01*
X54668420Y-37973000D01*
X54589680Y-37973000D01*
X54590356Y-37783770D01*
X54590627Y-37738961D01*
X54591096Y-37695715D01*
X54591734Y-37655482D01*
X54592508Y-37619714D01*
X54593388Y-37589863D01*
X54594342Y-37567382D01*
X54595261Y-37554432D01*
X54606762Y-37486590D01*
X54626445Y-37419264D01*
X54653314Y-37355412D01*
X54676443Y-37313427D01*
X54695142Y-37286467D01*
X54719856Y-37255794D01*
X54748434Y-37223733D01*
X54778716Y-37192608D01*
X54808548Y-37164745D01*
X54833085Y-37144489D01*
X54864044Y-37123613D01*
X54901669Y-37102374D01*
X54942659Y-37082369D01*
X54983710Y-37065191D01*
X55021519Y-37052436D01*
X55026560Y-37051042D01*
X55100801Y-37035978D01*
X55176507Y-37029725D01*
X55252336Y-37032075D01*
G37*
G36*
X56504256Y-44937449D02*
G01*
X56505774Y-44951907D01*
X56506812Y-44975048D01*
X56507329Y-45006141D01*
X56507381Y-45021510D01*
X56507096Y-45055309D01*
X56506275Y-45081974D01*
X56504968Y-45100631D01*
X56503223Y-45110405D01*
X56502300Y-45111674D01*
X56498465Y-45108138D01*
X56495794Y-45097815D01*
X56495607Y-45096138D01*
X56492444Y-45083808D01*
X56486954Y-45076662D01*
X56486523Y-45076470D01*
X56480332Y-45077644D01*
X56465708Y-45082176D01*
X56443671Y-45089699D01*
X56415239Y-45099845D01*
X56381434Y-45112248D01*
X56343274Y-45126541D01*
X56301779Y-45142357D01*
X56278282Y-45151425D01*
X56077512Y-45229247D01*
X56095386Y-45238416D01*
X56112710Y-45246679D01*
X56136791Y-45257270D01*
X56166325Y-45269689D01*
X56200005Y-45283436D01*
X56236530Y-45298012D01*
X56274594Y-45312916D01*
X56312893Y-45327648D01*
X56350124Y-45341709D01*
X56384981Y-45354598D01*
X56416160Y-45365815D01*
X56442358Y-45374861D01*
X56462270Y-45381235D01*
X56474591Y-45384438D01*
X56477035Y-45384720D01*
X56485307Y-45383931D01*
X56490363Y-45379918D01*
X56494033Y-45370212D01*
X56496944Y-45357842D01*
X56500300Y-45346683D01*
X56503212Y-45345179D01*
X56505592Y-45352834D01*
X56507349Y-45369147D01*
X56508395Y-45393622D01*
X56508651Y-45422974D01*
X56508245Y-45454908D01*
X56507245Y-45477215D01*
X56505608Y-45490415D01*
X56503291Y-45495021D01*
X56502814Y-45494983D01*
X56497962Y-45489077D01*
X56495739Y-45480842D01*
X56489484Y-45459604D01*
X56475598Y-45443561D01*
X56464959Y-45436591D01*
X56456247Y-45432309D01*
X56439322Y-45424537D01*
X56415315Y-45413772D01*
X56385356Y-45400514D01*
X56350574Y-45385264D01*
X56312101Y-45368521D01*
X56271066Y-45350781D01*
X56261225Y-45346545D01*
X56201121Y-45320643D01*
X56149752Y-45298387D01*
X56106488Y-45279484D01*
X56070698Y-45263639D01*
X56041753Y-45250560D01*
X56019022Y-45239953D01*
X56001876Y-45231523D01*
X55989683Y-45224978D01*
X55981815Y-45220025D01*
X55977640Y-45216369D01*
X55976520Y-45213912D01*
X55980684Y-45207606D01*
X55991104Y-45200019D01*
X55995570Y-45197595D01*
X56004053Y-45193754D01*
X56020913Y-45186470D01*
X56045135Y-45176171D01*
X56075700Y-45163287D01*
X56111593Y-45148242D01*
X56151797Y-45131464D01*
X56195295Y-45113383D01*
X56238639Y-45095428D01*
X56284120Y-45076512D01*
X56327076Y-45058436D01*
X56366521Y-45041631D01*
X56401466Y-45026528D01*
X56430923Y-45013557D01*
X56453902Y-45003149D01*
X56469416Y-44995735D01*
X56476380Y-44991825D01*
X56486908Y-44979554D01*
X56492775Y-44961843D01*
X56493662Y-44956535D01*
X56496671Y-44942474D01*
X56500367Y-44933789D01*
X56502300Y-44932410D01*
X56504256Y-44937449D01*
G37*
G36*
X55233827Y-46693395D02*
G01*
X55262636Y-46693687D01*
X55285047Y-46694376D01*
X55302941Y-46695621D01*
X55318201Y-46697585D01*
X55332708Y-46700429D01*
X55348341Y-46704314D01*
X55359300Y-46707282D01*
X55430757Y-46731925D01*
X55498473Y-46765180D01*
X55561586Y-46806245D01*
X55619233Y-46854325D01*
X55670552Y-46908622D01*
X55714679Y-46968337D01*
X55750751Y-47032673D01*
X55774849Y-47091601D01*
X55782181Y-47113738D01*
X55788276Y-47134180D01*
X55793247Y-47154140D01*
X55797209Y-47174834D01*
X55800276Y-47197476D01*
X55802559Y-47223284D01*
X55804175Y-47253469D01*
X55805235Y-47289247D01*
X55805855Y-47331835D01*
X55806147Y-47382445D01*
X55806219Y-47426879D01*
X55806340Y-47632620D01*
X55726330Y-47634018D01*
X55646320Y-47635417D01*
X55646277Y-47473998D01*
X55646033Y-47409464D01*
X55645240Y-47353986D01*
X55643751Y-47306471D01*
X55641420Y-47265824D01*
X55638099Y-47230949D01*
X55633642Y-47200753D01*
X55627901Y-47174141D01*
X55620731Y-47150017D01*
X55611983Y-47127288D01*
X55601512Y-47104858D01*
X55595094Y-47092494D01*
X55558929Y-47034840D01*
X55515822Y-46983638D01*
X55466643Y-46939562D01*
X55412260Y-46903291D01*
X55353542Y-46875500D01*
X55293260Y-46857287D01*
X55266070Y-46853210D01*
X55232051Y-46851032D01*
X55194343Y-46850684D01*
X55156087Y-46852094D01*
X55120420Y-46855192D01*
X55090483Y-46859907D01*
X55081432Y-46862061D01*
X55019398Y-46883937D01*
X54961589Y-46914548D01*
X54908829Y-46953057D01*
X54861946Y-46998624D01*
X54821766Y-47050409D01*
X54789115Y-47107578D01*
X54764818Y-47169287D01*
X54759073Y-47189360D01*
X54756903Y-47199226D01*
X54755082Y-47211444D01*
X54753563Y-47227034D01*
X54752305Y-47247013D01*
X54751260Y-47272399D01*
X54750382Y-47304211D01*
X54749629Y-47343466D01*
X54748955Y-47391183D01*
X54748525Y-47428279D01*
X54746281Y-47635419D01*
X54669251Y-47634019D01*
X54592219Y-47632620D01*
X54591585Y-47442120D01*
X54591559Y-47397241D01*
X54591768Y-47353989D01*
X54592188Y-47313797D01*
X54592794Y-47278099D01*
X54593562Y-47248328D01*
X54594468Y-47225918D01*
X54595437Y-47212733D01*
X54607587Y-47144403D01*
X54627749Y-47076723D01*
X54654963Y-47012335D01*
X54688263Y-46953879D01*
X54691774Y-46948633D01*
X54714794Y-46918311D01*
X54743906Y-46885399D01*
X54776511Y-46852569D01*
X54810008Y-46822490D01*
X54830825Y-46805831D01*
X54868728Y-46780347D01*
X54913194Y-46755608D01*
X54960671Y-46733337D01*
X55007613Y-46715255D01*
X55034749Y-46706941D01*
X55051924Y-46702447D01*
X55066969Y-46699068D01*
X55081772Y-46696645D01*
X55098214Y-46695021D01*
X55118181Y-46694038D01*
X55143558Y-46693534D01*
X55176230Y-46693354D01*
X55196740Y-46693337D01*
X55233827Y-46693395D01*
G37*
G36*
X56317868Y-38556788D02*
G01*
X56362725Y-38571842D01*
X56403986Y-38594683D01*
X56435568Y-38620675D01*
X56463655Y-38652883D01*
X56485183Y-38688419D01*
X56500890Y-38728987D01*
X56511512Y-38776294D01*
X56515383Y-38805130D01*
X56517281Y-38825636D01*
X56518187Y-38845066D01*
X56517984Y-38865270D01*
X56516557Y-38888094D01*
X56513790Y-38915387D01*
X56509568Y-38948998D01*
X56503774Y-38990775D01*
X56503758Y-38990891D01*
X56497340Y-39035963D01*
X56464260Y-39032838D01*
X56442149Y-39031118D01*
X56419878Y-39029967D01*
X56407050Y-39029676D01*
X56391194Y-39028460D01*
X56383884Y-39025438D01*
X56385619Y-39021457D01*
X56396903Y-39017362D01*
X56399430Y-39016795D01*
X56427538Y-39005936D01*
X56450486Y-38986414D01*
X56468211Y-38958354D01*
X56480651Y-38921882D01*
X56487744Y-38877123D01*
X56489525Y-38835782D01*
X56485724Y-38784013D01*
X56474265Y-38738889D01*
X56455320Y-38700580D01*
X56429060Y-38669256D01*
X56395658Y-38645086D01*
X56355284Y-38628239D01*
X56308109Y-38618887D01*
X56268302Y-38616892D01*
X56216996Y-38621751D01*
X56168960Y-38635423D01*
X56125257Y-38657274D01*
X56086954Y-38686671D01*
X56055112Y-38722981D01*
X56035605Y-38755376D01*
X56023341Y-38785081D01*
X56014622Y-38816972D01*
X56009413Y-38849447D01*
X56007681Y-38880907D01*
X56009393Y-38909751D01*
X56014513Y-38934380D01*
X56023008Y-38953192D01*
X56034844Y-38964588D01*
X56040084Y-38966609D01*
X56050172Y-38967700D01*
X56067810Y-38968217D01*
X56090783Y-38968226D01*
X56116876Y-38967796D01*
X56143874Y-38966990D01*
X56169562Y-38965875D01*
X56191725Y-38964517D01*
X56208147Y-38962982D01*
X56216594Y-38961345D01*
X56224569Y-38953593D01*
X56228024Y-38945259D01*
X56231159Y-38930073D01*
X56233157Y-38920420D01*
X56236739Y-38910886D01*
X56240491Y-38907720D01*
X56242112Y-38912562D01*
X56243451Y-38926140D01*
X56244432Y-38947035D01*
X56244984Y-38973824D01*
X56245074Y-38994080D01*
X56244787Y-39022419D01*
X56244064Y-39046852D01*
X56242991Y-39065729D01*
X56241658Y-39077399D01*
X56240476Y-39080440D01*
X56236476Y-39076031D01*
X56231953Y-39065025D01*
X56230661Y-39060642D01*
X56225179Y-39047049D01*
X56218230Y-39038034D01*
X56216495Y-39036969D01*
X56208835Y-39035617D01*
X56192745Y-39034151D01*
X56169954Y-39032683D01*
X56142191Y-39031321D01*
X56111184Y-39030175D01*
X56108627Y-39030097D01*
X56009594Y-39027100D01*
X56001075Y-39008978D01*
X55992110Y-38983589D01*
X55984967Y-38950844D01*
X55979913Y-38913427D01*
X55977214Y-38874023D01*
X55977137Y-38835314D01*
X55979949Y-38799987D01*
X55980150Y-38798500D01*
X55990745Y-38749597D01*
X56008193Y-38702688D01*
X56031332Y-38660374D01*
X56056127Y-38628304D01*
X56091467Y-38597266D01*
X56132094Y-38573836D01*
X56176528Y-38558044D01*
X56223289Y-38549918D01*
X56270896Y-38549490D01*
X56317868Y-38556788D01*
G37*
G36*
X56063571Y-34829378D02*
G01*
X56084960Y-34830423D01*
X56103565Y-34832156D01*
X56116925Y-34834502D01*
X56122579Y-34837370D01*
X56120228Y-34841766D01*
X56108884Y-34843622D01*
X56103741Y-34843720D01*
X56075783Y-34848541D01*
X56050026Y-34861975D01*
X56028518Y-34882476D01*
X56013306Y-34908494D01*
X56011464Y-34913440D01*
X56006807Y-34935340D01*
X56005135Y-34962018D01*
X56006462Y-34988738D01*
X56010804Y-35010766D01*
X56011141Y-35011782D01*
X56022013Y-35032015D01*
X56039351Y-35052016D01*
X56059996Y-35068302D01*
X56065112Y-35071282D01*
X56083013Y-35077093D01*
X56106585Y-35079719D01*
X56131863Y-35079194D01*
X56154880Y-35075552D01*
X56169089Y-35070372D01*
X56190698Y-35055596D01*
X56216874Y-35032014D01*
X56247677Y-34999566D01*
X56280021Y-34961998D01*
X56313459Y-34924028D01*
X56344004Y-34894597D01*
X56372862Y-34872950D01*
X56401247Y-34858330D01*
X56430370Y-34849983D01*
X56461441Y-34847155D01*
X56464200Y-34847145D01*
X56495329Y-34849067D01*
X56520327Y-34855540D01*
X56542692Y-34867880D01*
X56562378Y-34884089D01*
X56583964Y-34908931D01*
X56598730Y-34938085D01*
X56607369Y-34973255D01*
X56610084Y-35001200D01*
X56610467Y-35028316D01*
X56609061Y-35055304D01*
X56606174Y-35080297D01*
X56602116Y-35101428D01*
X56597195Y-35116834D01*
X56591718Y-35124645D01*
X56589585Y-35125236D01*
X56580853Y-35124955D01*
X56564828Y-35124567D01*
X56544379Y-35124139D01*
X56535321Y-35123966D01*
X56515185Y-35123123D01*
X56499574Y-35121574D01*
X56490756Y-35119588D01*
X56489600Y-35118546D01*
X56494091Y-35114887D01*
X56505599Y-35110468D01*
X56515153Y-35107843D01*
X56541014Y-35097823D01*
X56560136Y-35081440D01*
X56572894Y-35058080D01*
X56579664Y-35027130D01*
X56581041Y-35000139D01*
X56577172Y-34966111D01*
X56565898Y-34938631D01*
X56547713Y-34918194D01*
X56523114Y-34905296D01*
X56492596Y-34900433D01*
X56481556Y-34900661D01*
X56462181Y-34903355D01*
X56444131Y-34909633D01*
X56426108Y-34920466D01*
X56406820Y-34936828D01*
X56384971Y-34959689D01*
X56359263Y-34990022D01*
X56354196Y-34996265D01*
X56321017Y-35036080D01*
X56291898Y-35067960D01*
X56265726Y-35092709D01*
X56241385Y-35111133D01*
X56217762Y-35124039D01*
X56193741Y-35132233D01*
X56168209Y-35136523D01*
X56159400Y-35137210D01*
X56126525Y-35137384D01*
X56098973Y-35132853D01*
X56072615Y-35122631D01*
X56053106Y-35111830D01*
X56024614Y-35089017D01*
X56001487Y-35059155D01*
X55985617Y-35024748D01*
X55984520Y-35021217D01*
X55979951Y-35001100D01*
X55976345Y-34976474D01*
X55974055Y-34951084D01*
X55973436Y-34928676D01*
X55974476Y-34914841D01*
X55978840Y-34893467D01*
X55984382Y-34871972D01*
X55990294Y-34852999D01*
X55995764Y-34839192D01*
X55999348Y-34833586D01*
X56007286Y-34831125D01*
X56022275Y-34829653D01*
X56041856Y-34829095D01*
X56063571Y-34829378D01*
G37*
G36*
X56077510Y-40284683D02*
G01*
X56097166Y-40285447D01*
X56110981Y-40286564D01*
X56115805Y-40287483D01*
X56123356Y-40292355D01*
X56121742Y-40296680D01*
X56111943Y-40299365D01*
X56104790Y-40299752D01*
X56076088Y-40304609D01*
X56050891Y-40317894D01*
X56030142Y-40338203D01*
X56014781Y-40364131D01*
X56005748Y-40394276D01*
X56003986Y-40427232D01*
X56006517Y-40446350D01*
X56016181Y-40477664D01*
X56031733Y-40501637D01*
X56054431Y-40519969D01*
X56065350Y-40525888D01*
X56083882Y-40533995D01*
X56099196Y-40537568D01*
X56116576Y-40537635D01*
X56123127Y-40537111D01*
X56143677Y-40533687D01*
X56163624Y-40527895D01*
X56172468Y-40524112D01*
X56185705Y-40515128D01*
X56203383Y-40500188D01*
X56223522Y-40481206D01*
X56244141Y-40460096D01*
X56263260Y-40438778D01*
X56273222Y-40426640D01*
X56292039Y-40404480D01*
X56314073Y-40381323D01*
X56337171Y-40359190D01*
X56359180Y-40340104D01*
X56377946Y-40326088D01*
X56384459Y-40322137D01*
X56400680Y-40314348D01*
X56416729Y-40309541D01*
X56436432Y-40306812D01*
X56454306Y-40305662D01*
X56477913Y-40305016D01*
X56495155Y-40306107D01*
X56509754Y-40309429D01*
X56524347Y-40315014D01*
X56555043Y-40333481D01*
X56579208Y-40359392D01*
X56596678Y-40392276D01*
X56607289Y-40431662D01*
X56610878Y-40477076D01*
X56607281Y-40528046D01*
X56604485Y-40546020D01*
X56600999Y-40564525D01*
X56597846Y-40575137D01*
X56593815Y-40580005D01*
X56587690Y-40581275D01*
X56584568Y-40581262D01*
X56572947Y-40580991D01*
X56554779Y-40580567D01*
X56533678Y-40580073D01*
X56530240Y-40579991D01*
X56508457Y-40578770D01*
X56494916Y-40576506D01*
X56490096Y-40573502D01*
X56494478Y-40570052D01*
X56508475Y-40566469D01*
X56536286Y-40557789D01*
X56556755Y-40543104D01*
X56570524Y-40521611D01*
X56578242Y-40492498D01*
X56579864Y-40477409D01*
X56580757Y-40446707D01*
X56578030Y-40423207D01*
X56571109Y-40404415D01*
X56559424Y-40387840D01*
X56559279Y-40387674D01*
X56536099Y-40367806D01*
X56509459Y-40357386D01*
X56490094Y-40355520D01*
X56469738Y-40357194D01*
X56450668Y-40362808D01*
X56431654Y-40373251D01*
X56411463Y-40389408D01*
X56388862Y-40412168D01*
X56362622Y-40442417D01*
X56352762Y-40454430D01*
X56320505Y-40493084D01*
X56292483Y-40523985D01*
X56267509Y-40547973D01*
X56244394Y-40565887D01*
X56221948Y-40578565D01*
X56198984Y-40586846D01*
X56174314Y-40591569D01*
X56156185Y-40593163D01*
X56112824Y-40591245D01*
X56074422Y-40580612D01*
X56041457Y-40561666D01*
X56014408Y-40534811D01*
X55993752Y-40500450D01*
X55979969Y-40458986D01*
X55976699Y-40441880D01*
X55973795Y-40422094D01*
X55972475Y-40407126D01*
X55972754Y-40392974D01*
X55974644Y-40375639D01*
X55976979Y-40359156D01*
X55981348Y-40337870D01*
X55987673Y-40316475D01*
X55991314Y-40307086D01*
X56001349Y-40284400D01*
X56054559Y-40284400D01*
X56077510Y-40284683D01*
G37*
G36*
X55646320Y-42712640D02*
G01*
X55808880Y-42712640D01*
X55808703Y-42965370D01*
X55808601Y-43028512D01*
X55808345Y-43082446D01*
X55807869Y-43128124D01*
X55807105Y-43166498D01*
X55805987Y-43198518D01*
X55804446Y-43225137D01*
X55802420Y-43247306D01*
X55799837Y-43265978D01*
X55796632Y-43282102D01*
X55792737Y-43296632D01*
X55788088Y-43310519D01*
X55783606Y-43322241D01*
X55757718Y-43374347D01*
X55724229Y-43420313D01*
X55683843Y-43459363D01*
X55637262Y-43490726D01*
X55623903Y-43497684D01*
X55584263Y-43515449D01*
X55548439Y-43527313D01*
X55512696Y-43534164D01*
X55473291Y-43536892D01*
X55458360Y-43537038D01*
X55397628Y-43532977D01*
X55342974Y-43520947D01*
X55293991Y-43500792D01*
X55250269Y-43472362D01*
X55225211Y-43450104D01*
X55208728Y-43432423D01*
X55191224Y-43411486D01*
X55174440Y-43389619D01*
X55160112Y-43369142D01*
X55149980Y-43352379D01*
X55146680Y-43345185D01*
X55142629Y-43346757D01*
X55132634Y-43354428D01*
X55117948Y-43367133D01*
X55099825Y-43383801D01*
X55086961Y-43396095D01*
X55041600Y-43437621D01*
X54998893Y-43471224D01*
X54956914Y-43498049D01*
X54913740Y-43519243D01*
X54867445Y-43535952D01*
X54838659Y-43543976D01*
X54800776Y-43551838D01*
X54755910Y-43558279D01*
X54707183Y-43562968D01*
X54657712Y-43565575D01*
X54631590Y-43565999D01*
X54589679Y-43566080D01*
X54589680Y-43484800D01*
X54589680Y-43403520D01*
X54629082Y-43403520D01*
X54654850Y-43402722D01*
X54685668Y-43400538D01*
X54718890Y-43397282D01*
X54751875Y-43393268D01*
X54781979Y-43388809D01*
X54806558Y-43384219D01*
X54819787Y-43380877D01*
X54855723Y-43366350D01*
X54894538Y-43344588D01*
X54934048Y-43317163D01*
X54972063Y-43285646D01*
X55006400Y-43251607D01*
X55017961Y-43238420D01*
X55043620Y-43203037D01*
X55067080Y-43161685D01*
X55086404Y-43118254D01*
X55099647Y-43076628D01*
X55100425Y-43073320D01*
X55104339Y-43050708D01*
X55107718Y-43020549D01*
X55110320Y-42985450D01*
X55111684Y-42955210D01*
X55114260Y-42875201D01*
X54851970Y-42875201D01*
X54589679Y-42875200D01*
X55274791Y-42875200D01*
X55276406Y-43056810D01*
X55278020Y-43238420D01*
X55291676Y-43267557D01*
X55311729Y-43299935D01*
X55339241Y-43329454D01*
X55371514Y-43353413D01*
X55384765Y-43360646D01*
X55401195Y-43368100D01*
X55415553Y-43372585D01*
X55431540Y-43374826D01*
X55452852Y-43375550D01*
X55460900Y-43375580D01*
X55484551Y-43375172D01*
X55501760Y-43373465D01*
X55516231Y-43369733D01*
X55531665Y-43363249D01*
X55537100Y-43360627D01*
X55573827Y-43337284D01*
X55603705Y-43307159D01*
X55625851Y-43271450D01*
X55639381Y-43231353D01*
X55641536Y-43219287D01*
X55642698Y-43206172D01*
X55643759Y-43184478D01*
X55644679Y-43155785D01*
X55645417Y-43121674D01*
X55645937Y-43083726D01*
X55646197Y-43043522D01*
X55646218Y-43031410D01*
X55646320Y-42875200D01*
X55460556Y-42875200D01*
X55274791Y-42875200D01*
X54589679Y-42875200D01*
X54589680Y-42793920D01*
X54589680Y-42712640D01*
X55199280Y-42712640D01*
X55646320Y-42712640D01*
G37*
G36*
X55254661Y-43674324D02*
G01*
X55294677Y-43678241D01*
X55304110Y-43679729D01*
X55378652Y-43697395D01*
X55449482Y-43723486D01*
X55515882Y-43757362D01*
X55577133Y-43798387D01*
X55632514Y-43845922D01*
X55681307Y-43899329D01*
X55722794Y-43957970D01*
X55756254Y-44021208D01*
X55780969Y-44088403D01*
X55786095Y-44107326D01*
X55799340Y-44170340D01*
X55805881Y-44228897D01*
X55805711Y-44286037D01*
X55798831Y-44344799D01*
X55785683Y-44406443D01*
X55763595Y-44473666D01*
X55732406Y-44537727D01*
X55692898Y-44597819D01*
X55645855Y-44653135D01*
X55592058Y-44702867D01*
X55532289Y-44746208D01*
X55467333Y-44782351D01*
X55397968Y-44810489D01*
X55392188Y-44812391D01*
X55324774Y-44829448D01*
X55252931Y-44838967D01*
X55179045Y-44840945D01*
X55105500Y-44835383D01*
X55034682Y-44822277D01*
X55000289Y-44812659D01*
X54929335Y-44785102D01*
X54862750Y-44748520D01*
X54800249Y-44702735D01*
X54756999Y-44663360D01*
X54709788Y-44611859D01*
X54671802Y-44559553D01*
X54642146Y-44504747D01*
X54619923Y-44445748D01*
X54604238Y-44380860D01*
X54602522Y-44371260D01*
X54598562Y-44343506D01*
X54595341Y-44311889D01*
X54593025Y-44279272D01*
X54592379Y-44263309D01*
X54748105Y-44263309D01*
X54751336Y-44302381D01*
X54754963Y-44325769D01*
X54770358Y-44385420D01*
X54794948Y-44440824D01*
X54828628Y-44491836D01*
X54871300Y-44538306D01*
X54922859Y-44580086D01*
X54938565Y-44590723D01*
X54989431Y-44620185D01*
X55040184Y-44641622D01*
X55093133Y-44655695D01*
X55150589Y-44663064D01*
X55196740Y-44664591D01*
X55259051Y-44661686D01*
X55315171Y-44652538D01*
X55367388Y-44636490D01*
X55417995Y-44612889D01*
X55454646Y-44590899D01*
X55507979Y-44550751D01*
X55552912Y-44505437D01*
X55589178Y-44455324D01*
X55616513Y-44400776D01*
X55633855Y-44345642D01*
X55639308Y-44311088D01*
X55641614Y-44270778D01*
X55640827Y-44228597D01*
X55637003Y-44188432D01*
X55631186Y-44157900D01*
X55611578Y-44100919D01*
X55583084Y-44047813D01*
X55546470Y-43999303D01*
X55502508Y-43956108D01*
X55451966Y-43918949D01*
X55395617Y-43888546D01*
X55334227Y-43865620D01*
X55312571Y-43859712D01*
X55279626Y-43853629D01*
X55240812Y-43849777D01*
X55199304Y-43848194D01*
X55158274Y-43848917D01*
X55120895Y-43851982D01*
X55091395Y-43857161D01*
X55023360Y-43878772D01*
X54961258Y-43908566D01*
X54904745Y-43946735D01*
X54858920Y-43987858D01*
X54819810Y-44033041D01*
X54789998Y-44080130D01*
X54768627Y-44130746D01*
X54755303Y-44183903D01*
X54749424Y-44225510D01*
X54748105Y-44263309D01*
X54592379Y-44263309D01*
X54591781Y-44248520D01*
X54591778Y-44222496D01*
X54592884Y-44206160D01*
X54597864Y-44172169D01*
X54604178Y-44136609D01*
X54611264Y-44102134D01*
X54618564Y-44071399D01*
X54625513Y-44047059D01*
X54628038Y-44039794D01*
X54656028Y-43979222D01*
X54692945Y-43921622D01*
X54737777Y-43867864D01*
X54789513Y-43818819D01*
X54847139Y-43775357D01*
X54909643Y-43738349D01*
X54976013Y-43708665D01*
X55035227Y-43689707D01*
X55071450Y-43682349D01*
X55114578Y-43677018D01*
X55161538Y-43673828D01*
X55199304Y-43673086D01*
X55209257Y-43672891D01*
X55254661Y-43674324D01*
G37*
G36*
X55006733Y-38070461D02*
G01*
X55079296Y-38070535D01*
X55155047Y-38070653D01*
X55204360Y-38070752D01*
X55806340Y-38072060D01*
X55807732Y-38153796D01*
X55809124Y-38235532D01*
X55693880Y-38238886D01*
X55655714Y-38239825D01*
X55610412Y-38240664D01*
X55561005Y-38241361D01*
X55510519Y-38241880D01*
X55461981Y-38242180D01*
X55432463Y-38242241D01*
X55286288Y-38242240D01*
X55296349Y-38279070D01*
X55317532Y-38339133D01*
X55348220Y-38399982D01*
X55387857Y-38461003D01*
X55435884Y-38521582D01*
X55491744Y-38581106D01*
X55554880Y-38638960D01*
X55624732Y-38694530D01*
X55700747Y-38747203D01*
X55748226Y-38776652D01*
X55808880Y-38812730D01*
X55808880Y-38901288D01*
X55808641Y-38929858D01*
X55807978Y-38954400D01*
X55806971Y-38973325D01*
X55805701Y-38985046D01*
X55804458Y-38988153D01*
X55792890Y-38982698D01*
X55774376Y-38972761D01*
X55750548Y-38959303D01*
X55723039Y-38943290D01*
X55693478Y-38925685D01*
X55663498Y-38907451D01*
X55634730Y-38889552D01*
X55608806Y-38872952D01*
X55603171Y-38869257D01*
X55543789Y-38828999D01*
X55491667Y-38791136D01*
X55444743Y-38754025D01*
X55400954Y-38716019D01*
X55358241Y-38675475D01*
X55350463Y-38667737D01*
X55329616Y-38647002D01*
X55311253Y-38629013D01*
X55296562Y-38614912D01*
X55286732Y-38605841D01*
X55283000Y-38602920D01*
X55278117Y-38605978D01*
X55267551Y-38614109D01*
X55253315Y-38625748D01*
X55248658Y-38629666D01*
X55180809Y-38682044D01*
X55105607Y-38730414D01*
X55022408Y-38775127D01*
X54930571Y-38816532D01*
X54848760Y-38848121D01*
X54819464Y-38858341D01*
X54786709Y-38869185D01*
X54752099Y-38880184D01*
X54717242Y-38890861D01*
X54683739Y-38900747D01*
X54653202Y-38909367D01*
X54627231Y-38916252D01*
X54607434Y-38920927D01*
X54595416Y-38922921D01*
X54594350Y-38922960D01*
X54592750Y-38918127D01*
X54591405Y-38904613D01*
X54590397Y-38883898D01*
X54589805Y-38857458D01*
X54589680Y-38836907D01*
X54589679Y-38750854D01*
X54634130Y-38737395D01*
X54707974Y-38714292D01*
X54773191Y-38692192D01*
X54831185Y-38670479D01*
X54883359Y-38648539D01*
X54931117Y-38625757D01*
X54975862Y-38601520D01*
X55018999Y-38575211D01*
X55046881Y-38556681D01*
X55069082Y-38540800D01*
X55092467Y-38522924D01*
X55115618Y-38504273D01*
X55137119Y-38486066D01*
X55155553Y-38469522D01*
X55169503Y-38455858D01*
X55177552Y-38446295D01*
X55178960Y-38443040D01*
X55177160Y-38435223D01*
X55172393Y-38420852D01*
X55165609Y-38402741D01*
X55164040Y-38398786D01*
X55156534Y-38379101D01*
X55149393Y-38358099D01*
X55141973Y-38333657D01*
X55133631Y-38303654D01*
X55123726Y-38265967D01*
X55123186Y-38263875D01*
X55117634Y-38242331D01*
X54854927Y-38241015D01*
X54592220Y-38239700D01*
X54590824Y-38157039D01*
X54590466Y-38124427D01*
X54590705Y-38100790D01*
X54591611Y-38084954D01*
X54593255Y-38075748D01*
X54595704Y-38071997D01*
X54595904Y-38071911D01*
X54601724Y-38071605D01*
X54617071Y-38071331D01*
X54641310Y-38071091D01*
X54673807Y-38070887D01*
X54713930Y-38070718D01*
X54761043Y-38070587D01*
X54814514Y-38070494D01*
X54873709Y-38070442D01*
X54937993Y-38070431D01*
X55006733Y-38070461D01*
G37*
G36*
X56504813Y-45627384D02*
G01*
X56506223Y-45636585D01*
X56507229Y-45653190D01*
X56507856Y-45677869D01*
X56508130Y-45711294D01*
X56508076Y-45754134D01*
X56508053Y-45759145D01*
X56507966Y-45796303D01*
X56508067Y-45830950D01*
X56508337Y-45861533D01*
X56508757Y-45886500D01*
X56509309Y-45904298D01*
X56509920Y-45913040D01*
X56510930Y-45924802D01*
X56508355Y-45929299D01*
X56501222Y-45929263D01*
X56490207Y-45927870D01*
X56473246Y-45925865D01*
X56458456Y-45924183D01*
X56441698Y-45921250D01*
X56429715Y-45917252D01*
X56423695Y-45913104D01*
X56424824Y-45909721D01*
X56434291Y-45908018D01*
X56437406Y-45907960D01*
X56451324Y-45905804D01*
X56460668Y-45901610D01*
X56467546Y-45891301D01*
X56473006Y-45872651D01*
X56476760Y-45847411D01*
X56478525Y-45817338D01*
X56478373Y-45792689D01*
X56476899Y-45747940D01*
X56377839Y-45747940D01*
X56278779Y-45747940D01*
X56278780Y-45819299D01*
X56278976Y-45848964D01*
X56279693Y-45870322D01*
X56281127Y-45885218D01*
X56283471Y-45895501D01*
X56286922Y-45903016D01*
X56287755Y-45904340D01*
X56296730Y-45918020D01*
X56249655Y-45914879D01*
X56223753Y-45912489D01*
X56205896Y-45909468D01*
X56196514Y-45906085D01*
X56196038Y-45902603D01*
X56204900Y-45899290D01*
X56220313Y-45896779D01*
X56229409Y-45893757D01*
X56236135Y-45886334D01*
X56240876Y-45873221D01*
X56244013Y-45853128D01*
X56245933Y-45824767D01*
X56246504Y-45808900D01*
X56248300Y-45747940D01*
X56161940Y-45746413D01*
X56119458Y-45745768D01*
X56086045Y-45745954D01*
X56060614Y-45747645D01*
X56042073Y-45751515D01*
X56029334Y-45758238D01*
X56021310Y-45768486D01*
X56016910Y-45782933D01*
X56015045Y-45802253D01*
X56014627Y-45827119D01*
X56014621Y-45837514D01*
X56015279Y-45868725D01*
X56017792Y-45891617D01*
X56022967Y-45907976D01*
X56031613Y-45919590D01*
X56044537Y-45928243D01*
X56058324Y-45934170D01*
X56071079Y-45940088D01*
X56074534Y-45944359D01*
X56069450Y-45946752D01*
X56056585Y-45947037D01*
X56036701Y-45944984D01*
X56027400Y-45943533D01*
X56005279Y-45938819D01*
X55991946Y-45933430D01*
X55986607Y-45928142D01*
X55984461Y-45918986D01*
X55983065Y-45902650D01*
X55982629Y-45882104D01*
X55982753Y-45874003D01*
X55983212Y-45854073D01*
X55983763Y-45826638D01*
X55984359Y-45794352D01*
X55984950Y-45759871D01*
X55985404Y-45731430D01*
X55986181Y-45696987D01*
X55987325Y-45669043D01*
X55988773Y-45648570D01*
X55990459Y-45636538D01*
X55991870Y-45633640D01*
X55995780Y-45637948D01*
X55996918Y-45645070D01*
X55999620Y-45659593D01*
X56008808Y-45668955D01*
X56022564Y-45674372D01*
X56031723Y-45675534D01*
X56050111Y-45676579D01*
X56076799Y-45677487D01*
X56110857Y-45678238D01*
X56151356Y-45678812D01*
X56197366Y-45679191D01*
X56247957Y-45679354D01*
X56258910Y-45679360D01*
X56313640Y-45679370D01*
X56359086Y-45679317D01*
X56396121Y-45679068D01*
X56425621Y-45678495D01*
X56448461Y-45677467D01*
X56465516Y-45675854D01*
X56477659Y-45673527D01*
X56485766Y-45670354D01*
X56490713Y-45666207D01*
X56493373Y-45660955D01*
X56494622Y-45654468D01*
X56495334Y-45646616D01*
X56495554Y-45644191D01*
X56498188Y-45631978D01*
X56502417Y-45625175D01*
X56502973Y-45624917D01*
X56504813Y-45627384D01*
G37*
G36*
X56505577Y-48066770D02*
G01*
X56507275Y-48079316D01*
X56508291Y-48101272D01*
X56508649Y-48132993D01*
X56508650Y-48135328D01*
X56508442Y-48161411D01*
X56507868Y-48183453D01*
X56507006Y-48199671D01*
X56505934Y-48208281D01*
X56505427Y-48209200D01*
X56500593Y-48205401D01*
X56495547Y-48198540D01*
X56486165Y-48190506D01*
X56478753Y-48190531D01*
X56470660Y-48194087D01*
X56456036Y-48201910D01*
X56436240Y-48213162D01*
X56412630Y-48227014D01*
X56386565Y-48242625D01*
X56359404Y-48259164D01*
X56332504Y-48275793D01*
X56307224Y-48291678D01*
X56284924Y-48305984D01*
X56266960Y-48317876D01*
X56254693Y-48326519D01*
X56249480Y-48331077D01*
X56249448Y-48331490D01*
X56254771Y-48334998D01*
X56267602Y-48342875D01*
X56286681Y-48354364D01*
X56310739Y-48368707D01*
X56338519Y-48385147D01*
X56358037Y-48396637D01*
X56394940Y-48418081D01*
X56424242Y-48434451D01*
X56446924Y-48446116D01*
X56463965Y-48453442D01*
X56476344Y-48456799D01*
X56485041Y-48456554D01*
X56491036Y-48453075D01*
X56494680Y-48447960D01*
X56500621Y-48439937D01*
X56504358Y-48437800D01*
X56506149Y-48442488D01*
X56507342Y-48455024D01*
X56507975Y-48473117D01*
X56508081Y-48494475D01*
X56507694Y-48516806D01*
X56506854Y-48537817D01*
X56505594Y-48555218D01*
X56503950Y-48566716D01*
X56502300Y-48570136D01*
X56497754Y-48565958D01*
X56494293Y-48556161D01*
X56490942Y-48544205D01*
X56485448Y-48532869D01*
X56476911Y-48521386D01*
X56464432Y-48508985D01*
X56447112Y-48494897D01*
X56424051Y-48478353D01*
X56394350Y-48458583D01*
X56357108Y-48434817D01*
X56339740Y-48423920D01*
X56305689Y-48402548D01*
X56278704Y-48385780D01*
X56257095Y-48373075D01*
X56239167Y-48363891D01*
X56223228Y-48357688D01*
X56207584Y-48353925D01*
X56190542Y-48352059D01*
X56170410Y-48351551D01*
X56145493Y-48351859D01*
X56116008Y-48352411D01*
X56079298Y-48353088D01*
X56051455Y-48354102D01*
X56031190Y-48355905D01*
X56017209Y-48358958D01*
X56008220Y-48363717D01*
X56002933Y-48370638D01*
X56000059Y-48380179D01*
X55998302Y-48392794D01*
X55998155Y-48394095D01*
X55995740Y-48407902D01*
X55992617Y-48416297D01*
X55991100Y-48417480D01*
X55989694Y-48412666D01*
X55988473Y-48399288D01*
X55987513Y-48378942D01*
X55986890Y-48353223D01*
X55986680Y-48325194D01*
X55986868Y-48296148D01*
X55987391Y-48271251D01*
X55988186Y-48252015D01*
X55989191Y-48239951D01*
X55990313Y-48236539D01*
X55994285Y-48243536D01*
X55998951Y-48255538D01*
X55999203Y-48256303D01*
X56006695Y-48269637D01*
X56017160Y-48278842D01*
X56027635Y-48281423D01*
X56046068Y-48283349D01*
X56070278Y-48284621D01*
X56098086Y-48285243D01*
X56127311Y-48285219D01*
X56155773Y-48284552D01*
X56181291Y-48283245D01*
X56201684Y-48281301D01*
X56214774Y-48278723D01*
X56215280Y-48278548D01*
X56226866Y-48273080D01*
X56245293Y-48262844D01*
X56269028Y-48248822D01*
X56296536Y-48231996D01*
X56326283Y-48213347D01*
X56356734Y-48193856D01*
X56386356Y-48174507D01*
X56413612Y-48156279D01*
X56436970Y-48140156D01*
X56454894Y-48127118D01*
X56465517Y-48118460D01*
X56478954Y-48104162D01*
X56489310Y-48089865D01*
X56493690Y-48080537D01*
X56498085Y-48069174D01*
X56503102Y-48063307D01*
X56503169Y-48063283D01*
X56505577Y-48066770D01*
G37*
G36*
X55194200Y-35750135D02*
G01*
X55264401Y-35753127D01*
X55340418Y-35765536D01*
X55413606Y-35786839D01*
X55483182Y-35816848D01*
X55548363Y-35855377D01*
X55608366Y-35902237D01*
X55620431Y-35913303D01*
X55673009Y-35968636D01*
X55716419Y-36027096D01*
X55751093Y-36089555D01*
X55777461Y-36156886D01*
X55795954Y-36229960D01*
X55804487Y-36285341D01*
X55807049Y-36343483D01*
X55802035Y-36405303D01*
X55790033Y-36468432D01*
X55771631Y-36530500D01*
X55747417Y-36589139D01*
X55717980Y-36641980D01*
X55714620Y-36647083D01*
X55667460Y-36708681D01*
X55613804Y-36762953D01*
X55554443Y-36809648D01*
X55490166Y-36848518D01*
X55421769Y-36879315D01*
X55350038Y-36901790D01*
X55275767Y-36915694D01*
X55199747Y-36920780D01*
X55122767Y-36916798D01*
X55045621Y-36903500D01*
X54970016Y-36880972D01*
X54907725Y-36853625D01*
X54848304Y-36818381D01*
X54792858Y-36776357D01*
X54742497Y-36728667D01*
X54698325Y-36676430D01*
X54661451Y-36620760D01*
X54632983Y-36562774D01*
X54620923Y-36529056D01*
X54608784Y-36481764D01*
X54599668Y-36429854D01*
X54593899Y-36376564D01*
X54592927Y-36352725D01*
X54748823Y-36352725D01*
X54752409Y-36390580D01*
X54765480Y-36450362D01*
X54787195Y-36505093D01*
X54817974Y-36555642D01*
X54850167Y-36594475D01*
X54901455Y-36642501D01*
X54957095Y-36681437D01*
X55017568Y-36711588D01*
X55059580Y-36726583D01*
X55076783Y-36731661D01*
X55091687Y-36735342D01*
X55106473Y-36737850D01*
X55123321Y-36739407D01*
X55144410Y-36740236D01*
X55171919Y-36740559D01*
X55196740Y-36740604D01*
X55230219Y-36740503D01*
X55255705Y-36740054D01*
X55275366Y-36739037D01*
X55291368Y-36737233D01*
X55305880Y-36734423D01*
X55321068Y-36730387D01*
X55332922Y-36726820D01*
X55394716Y-36703176D01*
X55451438Y-36672236D01*
X55502300Y-36634771D01*
X55546517Y-36591551D01*
X55583300Y-36543348D01*
X55611860Y-36490933D01*
X55631410Y-36435076D01*
X55631547Y-36434543D01*
X55636930Y-36405492D01*
X55640357Y-36370223D01*
X55641718Y-36332506D01*
X55640903Y-36296110D01*
X55637800Y-36264809D01*
X55636708Y-36258501D01*
X55620539Y-36200715D01*
X55595292Y-36146471D01*
X55561635Y-36096430D01*
X55520235Y-36051251D01*
X55471758Y-36011593D01*
X55416870Y-35978119D01*
X55356237Y-35951486D01*
X55313151Y-35937912D01*
X55296338Y-35934045D01*
X55278077Y-35931365D01*
X55256172Y-35929706D01*
X55228429Y-35928898D01*
X55194200Y-35928767D01*
X55161795Y-35929023D01*
X55137159Y-35929701D01*
X55117903Y-35931063D01*
X55101639Y-35933367D01*
X55085977Y-35936871D01*
X55068529Y-35941835D01*
X55065695Y-35942696D01*
X55001282Y-35966880D01*
X54943143Y-35997877D01*
X54891718Y-36035058D01*
X54847447Y-36077792D01*
X54810771Y-36125450D01*
X54782130Y-36177402D01*
X54761964Y-36233019D01*
X54750716Y-36291669D01*
X54748823Y-36352725D01*
X54592927Y-36352725D01*
X54591801Y-36325132D01*
X54593696Y-36278793D01*
X54594860Y-36268162D01*
X54602151Y-36221946D01*
X54612020Y-36176273D01*
X54623667Y-36134426D01*
X54635368Y-36101884D01*
X54660752Y-36051284D01*
X54694427Y-36000286D01*
X54734806Y-35950861D01*
X54780301Y-35904981D01*
X54822272Y-35869889D01*
X54853546Y-35848726D01*
X54891491Y-35827102D01*
X54932838Y-35806594D01*
X54974316Y-35788777D01*
X55012656Y-35775226D01*
X55027206Y-35771143D01*
X55107012Y-35755743D01*
X55186338Y-35749800D01*
X55194200Y-35750135D01*
G37*
G36*
X56503972Y-38091397D02*
G01*
X56505168Y-38106714D01*
X56505879Y-38131401D01*
X56506095Y-38165068D01*
X56505804Y-38207325D01*
X56505717Y-38214300D01*
X56505447Y-38250714D01*
X56505578Y-38285080D01*
X56506074Y-38315667D01*
X56506898Y-38340743D01*
X56508013Y-38358578D01*
X56508925Y-38365720D01*
X56513797Y-38390140D01*
X56485189Y-38387096D01*
X56458164Y-38383993D01*
X56439903Y-38381271D01*
X56429030Y-38378640D01*
X56424169Y-38375809D01*
X56423559Y-38374089D01*
X56427916Y-38370467D01*
X56436491Y-38369240D01*
X56449142Y-38365720D01*
X56461405Y-38357256D01*
X56461411Y-38357251D01*
X56470285Y-38342143D01*
X56476158Y-38317921D01*
X56478934Y-38285203D01*
X56478528Y-38244780D01*
X56476899Y-38209220D01*
X56376092Y-38207840D01*
X56275283Y-38206462D01*
X56277043Y-38278961D01*
X56277947Y-38308688D01*
X56279151Y-38330133D01*
X56280909Y-38345175D01*
X56283472Y-38355690D01*
X56287094Y-38363558D01*
X56288770Y-38366198D01*
X56298737Y-38380939D01*
X56281140Y-38377906D01*
X56266658Y-38375790D01*
X56246789Y-38373350D01*
X56229312Y-38371472D01*
X56209658Y-38368775D01*
X56199700Y-38365637D01*
X56199578Y-38362194D01*
X56209430Y-38358584D01*
X56214944Y-38357370D01*
X56226219Y-38353634D01*
X56234396Y-38346640D01*
X56240013Y-38334903D01*
X56243606Y-38316940D01*
X56245715Y-38291266D01*
X56246531Y-38270180D01*
X56248300Y-38209220D01*
X56145835Y-38207846D01*
X56111142Y-38207409D01*
X56085119Y-38207254D01*
X56066275Y-38207517D01*
X56053119Y-38208340D01*
X56044163Y-38209867D01*
X56037915Y-38212234D01*
X56032887Y-38215582D01*
X56028995Y-38218842D01*
X56023015Y-38224278D01*
X56018978Y-38229737D01*
X56016501Y-38237214D01*
X56015203Y-38248707D01*
X56014703Y-38266212D01*
X56014621Y-38291725D01*
X56014620Y-38294104D01*
X56014971Y-38325481D01*
X56016657Y-38348476D01*
X56020643Y-38364858D01*
X56027887Y-38376404D01*
X56039346Y-38384879D01*
X56055982Y-38392057D01*
X56070358Y-38396977D01*
X56077569Y-38400626D01*
X56076224Y-38403468D01*
X56067920Y-38405183D01*
X56054249Y-38405452D01*
X56036805Y-38403955D01*
X56036039Y-38403853D01*
X56013659Y-38400541D01*
X55999337Y-38397426D01*
X55991024Y-38393677D01*
X55986670Y-38388462D01*
X55984758Y-38383040D01*
X55983913Y-38379313D01*
X55983278Y-38374506D01*
X55982862Y-38367583D01*
X55982676Y-38357507D01*
X55982728Y-38343241D01*
X55983028Y-38323747D01*
X55983584Y-38297988D01*
X55984407Y-38264926D01*
X55985504Y-38223523D01*
X55986514Y-38186360D01*
X55987635Y-38153101D01*
X55988962Y-38126792D01*
X55990432Y-38108250D01*
X55991981Y-38098289D01*
X55993444Y-38097460D01*
X55998906Y-38110812D01*
X56002161Y-38118909D01*
X56010176Y-38128591D01*
X56020798Y-38134149D01*
X56028751Y-38134981D01*
X56045747Y-38135752D01*
X56070667Y-38136446D01*
X56102391Y-38137042D01*
X56139804Y-38137524D01*
X56181787Y-38137870D01*
X56227222Y-38138065D01*
X56256935Y-38138100D01*
X56313638Y-38138030D01*
X56360880Y-38137808D01*
X56399357Y-38137416D01*
X56429768Y-38136834D01*
X56452810Y-38136042D01*
X56469181Y-38135022D01*
X56479577Y-38133755D01*
X56484697Y-38132221D01*
X56485180Y-38131850D01*
X56489857Y-38123041D01*
X56493672Y-38108966D01*
X56494326Y-38104990D01*
X56497208Y-38092567D01*
X56500967Y-38086112D01*
X56502300Y-38085840D01*
X56503972Y-38091397D01*
G37*
G36*
X55385742Y-34792920D02*
G01*
X55809522Y-34792920D01*
X55807549Y-35063430D01*
X55807092Y-35125608D01*
X55806632Y-35178581D01*
X55806065Y-35223301D01*
X55805285Y-35260723D01*
X55804188Y-35291800D01*
X55802672Y-35317486D01*
X55800630Y-35338735D01*
X55797958Y-35356500D01*
X55794553Y-35371734D01*
X55790311Y-35385393D01*
X55785125Y-35398428D01*
X55778894Y-35411795D01*
X55771512Y-35426446D01*
X55766850Y-35435540D01*
X55751679Y-35461869D01*
X55733586Y-35486190D01*
X55709972Y-35511929D01*
X55705070Y-35516841D01*
X55665364Y-35551922D01*
X55624892Y-35578365D01*
X55581704Y-35597002D01*
X55533841Y-35608665D01*
X55479351Y-35614188D01*
X55476140Y-35614330D01*
X55429111Y-35614580D01*
X55388477Y-35610681D01*
X55351119Y-35602032D01*
X55313910Y-35588033D01*
X55296130Y-35579703D01*
X55253616Y-35553499D01*
X55214546Y-35519107D01*
X55180876Y-35478391D01*
X55166855Y-35456549D01*
X55157179Y-35440556D01*
X55149374Y-35428669D01*
X55144858Y-35423031D01*
X55144462Y-35422840D01*
X55140050Y-35426186D01*
X55129770Y-35435376D01*
X55115003Y-35449134D01*
X55097133Y-35466187D01*
X55090522Y-35472580D01*
X55042361Y-35516445D01*
X54995795Y-35552395D01*
X54949069Y-35581181D01*
X54900430Y-35603555D01*
X54848120Y-35620269D01*
X54790387Y-35632074D01*
X54725474Y-35639722D01*
X54695241Y-35641900D01*
X54665565Y-35643522D01*
X54639111Y-35644626D01*
X54617669Y-35645164D01*
X54603029Y-35645090D01*
X54597236Y-35644497D01*
X54594275Y-35641750D01*
X54592176Y-35635192D01*
X54590804Y-35623395D01*
X54590026Y-35604932D01*
X54589709Y-35578371D01*
X54589680Y-35563658D01*
X54589680Y-35485720D01*
X54674229Y-35479575D01*
X54724215Y-35475323D01*
X54765791Y-35470209D01*
X54800700Y-35463751D01*
X54830687Y-35455465D01*
X54857495Y-35444871D01*
X54882866Y-35431486D01*
X54908545Y-35414827D01*
X54908654Y-35414752D01*
X54963686Y-35372124D01*
X55009196Y-35327638D01*
X55045756Y-35280591D01*
X55073938Y-35230283D01*
X55088434Y-35194354D01*
X55097388Y-35161864D01*
X55104638Y-35122077D01*
X55108344Y-35090358D01*
X55274821Y-35090358D01*
X55274850Y-35127655D01*
X55275205Y-35165330D01*
X55275886Y-35201987D01*
X55276884Y-35236228D01*
X55278195Y-35266657D01*
X55279813Y-35291880D01*
X55281734Y-35310497D01*
X55283268Y-35318902D01*
X55294134Y-35348233D01*
X55310643Y-35377286D01*
X55330453Y-35402377D01*
X55344563Y-35415258D01*
X55381109Y-35438036D01*
X55419231Y-35451306D01*
X55460791Y-35455717D01*
X55461007Y-35455716D01*
X55483601Y-35455255D01*
X55500541Y-35453027D01*
X55516306Y-35448042D01*
X55535371Y-35439310D01*
X55535387Y-35439302D01*
X55572516Y-35416396D01*
X55602029Y-35387488D01*
X55625409Y-35351092D01*
X55627224Y-35347479D01*
X55643780Y-35313858D01*
X55643780Y-35133399D01*
X55643780Y-34952940D01*
X55466009Y-34951602D01*
X55424319Y-34951358D01*
X55385742Y-34951264D01*
X55351484Y-34951314D01*
X55322750Y-34951501D01*
X55300745Y-34951816D01*
X55286674Y-34952253D01*
X55281859Y-34952713D01*
X55279802Y-34958416D01*
X55278104Y-34972877D01*
X55276764Y-34994698D01*
X55275772Y-35022482D01*
X55275128Y-35054835D01*
X55274821Y-35090358D01*
X55108344Y-35090358D01*
X55109815Y-35077767D01*
X55112552Y-35031708D01*
X55112891Y-35010090D01*
X55112920Y-34950400D01*
X54851300Y-34950400D01*
X54589680Y-34950400D01*
X54589680Y-34871660D01*
X54589679Y-34792920D01*
X55199601Y-34792920D01*
X55385742Y-34792920D01*
G37*
G36*
X56505191Y-42400763D02*
G01*
X56506543Y-42408030D01*
X56507352Y-42421692D01*
X56507644Y-42442622D01*
X56507440Y-42471694D01*
X56506761Y-42509781D01*
X56506468Y-42523084D01*
X56505773Y-42564444D01*
X56505624Y-42601583D01*
X56506002Y-42633096D01*
X56506887Y-42657581D01*
X56508260Y-42673635D01*
X56508631Y-42675925D01*
X56510891Y-42691118D01*
X56511345Y-42701618D01*
X56510518Y-42704486D01*
X56504353Y-42704647D01*
X56490757Y-42703503D01*
X56472344Y-42701288D01*
X56466740Y-42700517D01*
X56444905Y-42696609D01*
X56431828Y-42692467D01*
X56427869Y-42688388D01*
X56433384Y-42684673D01*
X56444896Y-42682160D01*
X56456332Y-42678785D01*
X56464724Y-42671771D01*
X56470512Y-42659788D01*
X56474127Y-42641508D01*
X56476012Y-42615600D01*
X56476580Y-42585640D01*
X56476899Y-42522140D01*
X56377840Y-42522139D01*
X56278780Y-42522139D01*
X56278780Y-42596540D01*
X56278936Y-42626354D01*
X56279521Y-42647719D01*
X56280717Y-42662345D01*
X56282707Y-42671942D01*
X56285666Y-42678218D01*
X56287683Y-42680773D01*
X56293762Y-42689380D01*
X56291820Y-42693574D01*
X56281278Y-42693711D01*
X56269751Y-42691833D01*
X56250342Y-42689112D01*
X56229114Y-42687569D01*
X56224470Y-42687461D01*
X56208084Y-42686150D01*
X56199175Y-42683154D01*
X56198521Y-42679321D01*
X56206897Y-42675501D01*
X56212418Y-42674265D01*
X56226207Y-42669965D01*
X56235895Y-42663978D01*
X56236380Y-42663440D01*
X56239454Y-42655084D01*
X56242266Y-42639266D01*
X56244663Y-42618464D01*
X56246493Y-42595156D01*
X56247602Y-42571820D01*
X56247837Y-42550933D01*
X56247044Y-42534974D01*
X56245071Y-42526422D01*
X56244870Y-42526146D01*
X56237894Y-42523737D01*
X56222727Y-42521880D01*
X56201325Y-42520574D01*
X56175641Y-42519820D01*
X56147632Y-42519616D01*
X56119250Y-42519961D01*
X56092451Y-42520855D01*
X56069190Y-42522296D01*
X56051420Y-42524283D01*
X56042560Y-42526236D01*
X56029960Y-42533120D01*
X56021175Y-42544720D01*
X56015675Y-42562488D01*
X56012926Y-42587873D01*
X56012367Y-42608533D01*
X56014029Y-42645015D01*
X56019830Y-42672800D01*
X56030122Y-42692623D01*
X56045257Y-42705214D01*
X56061532Y-42710658D01*
X56072768Y-42713947D01*
X56074507Y-42718048D01*
X56073518Y-42719274D01*
X56065180Y-42721795D01*
X56050346Y-42721636D01*
X56032153Y-42719345D01*
X56013739Y-42715470D01*
X55998241Y-42710558D01*
X55988796Y-42705159D01*
X55988106Y-42704354D01*
X55984422Y-42693374D01*
X55982713Y-42673020D01*
X55982754Y-42649438D01*
X55983212Y-42629067D01*
X55983765Y-42601227D01*
X55984362Y-42568608D01*
X55984955Y-42533900D01*
X55985404Y-42505630D01*
X55986181Y-42471187D01*
X55987325Y-42443243D01*
X55988773Y-42422770D01*
X55990459Y-42410738D01*
X55991870Y-42407840D01*
X55995715Y-42412156D01*
X55996840Y-42419569D01*
X55999714Y-42433154D01*
X56003462Y-42440353D01*
X56011798Y-42445361D01*
X56028990Y-42449531D01*
X56055228Y-42452872D01*
X56090702Y-42455397D01*
X56135604Y-42457116D01*
X56190124Y-42458040D01*
X56254454Y-42458180D01*
X56304917Y-42457823D01*
X56350990Y-42457317D01*
X56387982Y-42456796D01*
X56416971Y-42456193D01*
X56439035Y-42455442D01*
X56455253Y-42454474D01*
X56466703Y-42453223D01*
X56474463Y-42451621D01*
X56479613Y-42449602D01*
X56483231Y-42447097D01*
X56483713Y-42446671D01*
X56491619Y-42434639D01*
X56495676Y-42419123D01*
X56498232Y-42406607D01*
X56502503Y-42399410D01*
X56503276Y-42399017D01*
X56505191Y-42400763D01*
G37*
G36*
X55991760Y-35907980D02*
G01*
X55995761Y-35915015D01*
X55996840Y-35922957D01*
X55999996Y-35935571D01*
X56006547Y-35946787D01*
X56016254Y-35958780D01*
X56266897Y-35961485D01*
X56316331Y-35962039D01*
X56362581Y-35962600D01*
X56404673Y-35963152D01*
X56441632Y-35963679D01*
X56472484Y-35964169D01*
X56496254Y-35964605D01*
X56511965Y-35964973D01*
X56518646Y-35965258D01*
X56518810Y-35965294D01*
X56519373Y-35967218D01*
X56517824Y-35970807D01*
X56513659Y-35976569D01*
X56506377Y-35985011D01*
X56495473Y-35996647D01*
X56480446Y-36011985D01*
X56460793Y-36031535D01*
X56436010Y-36055806D01*
X56405594Y-36085310D01*
X56369044Y-36120552D01*
X56325855Y-36162045D01*
X56303793Y-36183206D01*
X56087506Y-36390580D01*
X56122183Y-36391969D01*
X56136037Y-36392190D01*
X56158448Y-36392142D01*
X56187814Y-36391847D01*
X56222538Y-36391326D01*
X56261018Y-36390601D01*
X56301655Y-36389694D01*
X56315153Y-36389361D01*
X56362263Y-36388144D01*
X56400223Y-36386958D01*
X56430042Y-36385565D01*
X56452726Y-36383719D01*
X56469283Y-36381179D01*
X56480720Y-36377704D01*
X56488045Y-36373051D01*
X56492264Y-36366978D01*
X56494384Y-36359244D01*
X56495414Y-36349605D01*
X56495685Y-36345977D01*
X56497957Y-36332584D01*
X56501755Y-36324334D01*
X56503082Y-36323404D01*
X56505465Y-36325751D01*
X56507154Y-36335158D01*
X56508207Y-36352475D01*
X56508690Y-36378544D01*
X56508726Y-36400667D01*
X56508345Y-36434179D01*
X56507393Y-36457958D01*
X56505839Y-36472419D01*
X56503652Y-36477975D01*
X56502995Y-36478018D01*
X56498316Y-36472245D01*
X56494320Y-36460652D01*
X56494047Y-36459393D01*
X56490073Y-36446852D01*
X56485086Y-36439212D01*
X56484756Y-36438985D01*
X56477633Y-36437595D01*
X56461469Y-36436204D01*
X56437383Y-36434840D01*
X56406494Y-36433536D01*
X56369921Y-36432324D01*
X56328783Y-36431233D01*
X56284200Y-36430296D01*
X56237290Y-36429545D01*
X56189173Y-36429010D01*
X56140966Y-36428721D01*
X56115399Y-36428680D01*
X56074885Y-36428630D01*
X56043410Y-36428436D01*
X56019852Y-36428026D01*
X56003092Y-36427329D01*
X55992007Y-36426277D01*
X55985478Y-36424797D01*
X55982382Y-36422820D01*
X55981600Y-36420279D01*
X55985061Y-36414682D01*
X55994857Y-36402894D01*
X56010104Y-36385873D01*
X56029917Y-36364579D01*
X56053415Y-36339971D01*
X56079713Y-36313008D01*
X56089550Y-36303056D01*
X56123730Y-36268859D01*
X56162074Y-36230929D01*
X56202184Y-36191612D01*
X56241658Y-36153256D01*
X56278097Y-36118204D01*
X56300254Y-36097135D01*
X56326886Y-36071869D01*
X56350849Y-36048948D01*
X56371218Y-36029271D01*
X56387071Y-36013733D01*
X56397483Y-36003236D01*
X56401532Y-35998678D01*
X56401543Y-35998568D01*
X56395867Y-35997978D01*
X56381422Y-35997833D01*
X56359586Y-35998084D01*
X56331739Y-35998680D01*
X56299259Y-35999568D01*
X56263524Y-36000697D01*
X56225914Y-36002015D01*
X56187806Y-36003470D01*
X56150582Y-36005012D01*
X56115615Y-36006587D01*
X56084289Y-36008146D01*
X56057980Y-36009636D01*
X56038067Y-36011006D01*
X56025930Y-36012203D01*
X56023195Y-36012726D01*
X56007716Y-36022162D01*
X55999076Y-36038520D01*
X55996840Y-36058170D01*
X55995339Y-36068726D01*
X55991760Y-36073080D01*
X55989761Y-36068131D01*
X55988221Y-36053792D01*
X55987189Y-36030824D01*
X55986710Y-35999990D01*
X55986680Y-35988961D01*
X55986974Y-35954616D01*
X55987843Y-35929464D01*
X55989268Y-35913798D01*
X55991231Y-35907915D01*
X55991760Y-35907980D01*
G37*
G36*
X56596152Y-36972403D02*
G01*
X56597726Y-36986339D01*
X56598824Y-37010096D01*
X56599452Y-37043755D01*
X56599615Y-37087397D01*
X56599318Y-37141101D01*
X56599268Y-37146392D01*
X56598773Y-37193973D01*
X56598229Y-37232672D01*
X56597562Y-37263769D01*
X56596699Y-37288544D01*
X56595564Y-37308273D01*
X56594085Y-37324237D01*
X56592185Y-37337714D01*
X56589792Y-37349983D01*
X56586831Y-37362323D01*
X56586702Y-37362828D01*
X56568127Y-37417260D01*
X56542324Y-37464799D01*
X56509759Y-37505077D01*
X56470899Y-37537727D01*
X56426212Y-37562382D01*
X56376165Y-37578675D01*
X56321226Y-37586238D01*
X56301639Y-37586756D01*
X56242415Y-37582222D01*
X56187198Y-37568824D01*
X56136633Y-37546811D01*
X56091365Y-37516434D01*
X56069410Y-37496700D01*
X56038017Y-37460864D01*
X56013920Y-37422296D01*
X55996562Y-37379543D01*
X55985384Y-37331151D01*
X55979832Y-37275666D01*
X55979293Y-37261800D01*
X55979080Y-37245403D01*
X56007443Y-37245403D01*
X56008290Y-37277292D01*
X56010640Y-37306231D01*
X56014476Y-37328972D01*
X56014779Y-37330168D01*
X56031922Y-37378502D01*
X56056285Y-37419699D01*
X56087806Y-37453696D01*
X56126424Y-37480433D01*
X56172079Y-37499844D01*
X56184800Y-37503605D01*
X56218546Y-37510017D01*
X56257316Y-37512965D01*
X56297401Y-37512480D01*
X56335094Y-37508601D01*
X56365140Y-37501857D01*
X56415241Y-37481090D01*
X56459663Y-37452332D01*
X56497639Y-37416422D01*
X56528405Y-37374199D01*
X56551196Y-37326504D01*
X56563238Y-37284660D01*
X56566082Y-37266241D01*
X56568275Y-37242571D01*
X56569776Y-37215863D01*
X56570555Y-37188331D01*
X56570575Y-37162188D01*
X56569802Y-37139650D01*
X56568202Y-37122930D01*
X56565901Y-37114480D01*
X56563721Y-37112702D01*
X56559071Y-37111223D01*
X56551120Y-37110020D01*
X56539038Y-37109068D01*
X56521992Y-37108342D01*
X56499150Y-37107820D01*
X56469680Y-37107476D01*
X56432750Y-37107287D01*
X56387530Y-37107228D01*
X56333186Y-37107275D01*
X56318330Y-37107301D01*
X56268944Y-37107464D01*
X56222132Y-37107760D01*
X56178985Y-37108171D01*
X56140591Y-37108682D01*
X56108040Y-37109274D01*
X56082423Y-37109933D01*
X56064829Y-37110639D01*
X56056492Y-37111348D01*
X56040435Y-37117323D01*
X56028304Y-37129339D01*
X56018831Y-37148983D01*
X56014051Y-37164511D01*
X56010309Y-37185765D01*
X56008111Y-37213812D01*
X56007443Y-37245403D01*
X55979080Y-37245403D01*
X55978897Y-37231302D01*
X55979269Y-37198698D01*
X55980321Y-37168447D01*
X55981499Y-37150041D01*
X55983280Y-37123690D01*
X55984787Y-37092011D01*
X55985812Y-37059830D01*
X55986111Y-37042090D01*
X55986774Y-37016054D01*
X55988126Y-36996621D01*
X55990047Y-36985087D01*
X55991760Y-36982400D01*
X55995642Y-36986729D01*
X55996840Y-36994537D01*
X56001354Y-37012002D01*
X56014701Y-37024753D01*
X56036583Y-37032540D01*
X56043005Y-37033633D01*
X56055988Y-37034744D01*
X56077286Y-37035689D01*
X56105670Y-37036468D01*
X56139909Y-37037086D01*
X56178775Y-37037544D01*
X56221038Y-37037845D01*
X56265468Y-37037990D01*
X56310835Y-37037983D01*
X56355911Y-37037824D01*
X56387530Y-37037602D01*
X56399465Y-37037518D01*
X56440267Y-37037066D01*
X56477090Y-37036470D01*
X56508701Y-37035732D01*
X56533873Y-37034856D01*
X56551376Y-37033843D01*
X56559980Y-37032695D01*
X56560070Y-37032664D01*
X56572608Y-37026618D01*
X56580633Y-37017417D01*
X56585872Y-37002398D01*
X56588521Y-36988728D01*
X56591555Y-36973678D01*
X56594097Y-36968210D01*
X56596152Y-36972403D01*
G37*
G36*
X55994428Y-41227556D02*
G01*
X55997521Y-41240101D01*
X55998318Y-41245191D01*
X55999677Y-41253846D01*
X56001762Y-41261544D01*
X56005311Y-41268677D01*
X56011063Y-41275635D01*
X56019756Y-41282810D01*
X56032131Y-41290591D01*
X56048925Y-41299372D01*
X56070879Y-41309541D01*
X56098727Y-41321491D01*
X56133213Y-41335612D01*
X56175073Y-41352295D01*
X56211983Y-41366798D01*
X56225047Y-41371931D01*
X56273840Y-41390995D01*
X56320906Y-41409467D01*
X56365044Y-41426983D01*
X56405356Y-41443173D01*
X56440947Y-41457668D01*
X56470921Y-41470100D01*
X56494380Y-41480100D01*
X56510431Y-41487297D01*
X56518175Y-41491324D01*
X56518750Y-41491871D01*
X56519051Y-41494069D01*
X56518002Y-41496441D01*
X56514854Y-41499327D01*
X56508856Y-41503062D01*
X56499260Y-41507986D01*
X56485316Y-41514436D01*
X56466274Y-41522749D01*
X56441386Y-41533264D01*
X56409902Y-41546318D01*
X56371072Y-41562248D01*
X56324147Y-41581393D01*
X56282280Y-41598435D01*
X56238139Y-41616447D01*
X56196173Y-41633672D01*
X56157479Y-41649654D01*
X56123155Y-41663934D01*
X56094299Y-41676056D01*
X56072006Y-41685561D01*
X56057375Y-41691992D01*
X56052720Y-41694190D01*
X56024962Y-41712233D01*
X56006803Y-41733093D01*
X55998360Y-41756634D01*
X55998288Y-41757157D01*
X55995471Y-41773679D01*
X55992867Y-41780509D01*
X55990585Y-41778111D01*
X55988731Y-41766951D01*
X55987415Y-41747495D01*
X55986744Y-41720210D01*
X55986681Y-41707099D01*
X55986935Y-41680526D01*
X55987636Y-41657963D01*
X55988690Y-41641163D01*
X55990005Y-41631877D01*
X55990745Y-41630600D01*
X55997600Y-41633763D01*
X56000231Y-41636021D01*
X56005833Y-41636767D01*
X56018197Y-41633982D01*
X56037978Y-41627458D01*
X56065828Y-41616984D01*
X56091417Y-41606812D01*
X56177180Y-41572180D01*
X56178570Y-41487811D01*
X56178621Y-41482980D01*
X56205120Y-41482980D01*
X56205379Y-41508730D01*
X56206090Y-41530643D01*
X56207152Y-41546815D01*
X56208469Y-41555344D01*
X56208930Y-41556152D01*
X56214372Y-41555053D01*
X56227548Y-41550963D01*
X56246705Y-41544520D01*
X56270089Y-41536357D01*
X56295944Y-41527114D01*
X56322515Y-41517426D01*
X56348049Y-41507930D01*
X56370791Y-41499263D01*
X56388985Y-41492063D01*
X56400877Y-41486965D01*
X56403961Y-41485374D01*
X56406042Y-41480878D01*
X56401988Y-41477600D01*
X56394047Y-41474165D01*
X56378681Y-41468328D01*
X56357755Y-41460728D01*
X56333135Y-41452010D01*
X56306685Y-41442815D01*
X56280271Y-41433786D01*
X56255757Y-41425566D01*
X56235009Y-41418796D01*
X56219894Y-41414120D01*
X56212273Y-41412178D01*
X56211983Y-41412160D01*
X56209155Y-41414188D01*
X56207183Y-41421156D01*
X56205939Y-41434385D01*
X56205294Y-41455197D01*
X56205120Y-41482980D01*
X56178621Y-41482980D01*
X56178922Y-41454616D01*
X56178680Y-41430315D01*
X56177767Y-41413652D01*
X56176107Y-41403374D01*
X56173630Y-41398227D01*
X56173250Y-41397874D01*
X56165782Y-41393888D01*
X56150916Y-41387505D01*
X56130888Y-41379556D01*
X56107935Y-41370871D01*
X56084291Y-41362281D01*
X56062193Y-41354619D01*
X56043876Y-41348714D01*
X56032732Y-41345647D01*
X56013944Y-41344358D01*
X56001915Y-41350386D01*
X55996958Y-41363547D01*
X55996840Y-41366618D01*
X55995353Y-41377241D01*
X55991775Y-41381679D01*
X55991760Y-41381680D01*
X55989740Y-41376736D01*
X55988189Y-41362435D01*
X55987159Y-41339569D01*
X55986700Y-41308932D01*
X55986680Y-41300100D01*
X55986937Y-41272856D01*
X55987646Y-41249812D01*
X55988718Y-41232590D01*
X55990062Y-41222812D01*
X55991075Y-41221236D01*
X55994428Y-41227556D01*
G37*
G36*
X55995418Y-43905750D02*
G01*
X55996840Y-43915629D01*
X55999767Y-43932404D01*
X56009387Y-43943680D01*
X56026959Y-43950588D01*
X56038009Y-43952604D01*
X56048825Y-43953433D01*
X56068607Y-43954218D01*
X56096156Y-43954939D01*
X56130276Y-43955577D01*
X56169768Y-43956111D01*
X56213441Y-43956521D01*
X56260093Y-43956786D01*
X56289911Y-43956869D01*
X56351070Y-43957076D01*
X56402306Y-43957483D01*
X56443850Y-43958096D01*
X56475937Y-43958921D01*
X56498800Y-43959963D01*
X56512673Y-43961229D01*
X56517770Y-43962691D01*
X56515773Y-43968280D01*
X56507717Y-43979058D01*
X56494994Y-43993309D01*
X56483780Y-44004696D01*
X56469409Y-44018669D01*
X56448784Y-44038598D01*
X56423007Y-44063429D01*
X56393175Y-44092109D01*
X56360390Y-44123582D01*
X56325752Y-44156795D01*
X56290360Y-44190693D01*
X56255315Y-44224222D01*
X56221717Y-44256328D01*
X56190666Y-44285956D01*
X56163262Y-44312054D01*
X56142157Y-44332094D01*
X56123077Y-44350444D01*
X56107153Y-44366274D01*
X56095609Y-44378326D01*
X56089673Y-44385339D01*
X56089185Y-44386558D01*
X56095031Y-44387331D01*
X56109664Y-44387682D01*
X56131720Y-44387656D01*
X56159834Y-44387295D01*
X56192646Y-44386646D01*
X56228793Y-44385747D01*
X56266909Y-44384647D01*
X56305633Y-44383389D01*
X56343601Y-44382015D01*
X56379451Y-44380569D01*
X56411819Y-44379096D01*
X56439341Y-44377640D01*
X56460656Y-44376243D01*
X56474399Y-44374951D01*
X56479002Y-44374035D01*
X56486858Y-44367404D01*
X56491927Y-44356134D01*
X56495178Y-44337781D01*
X56495828Y-44331732D01*
X56498413Y-44321568D01*
X56502300Y-44317759D01*
X56504357Y-44322747D01*
X56506033Y-44336947D01*
X56507260Y-44359413D01*
X56507970Y-44389203D01*
X56508052Y-44396881D01*
X56508086Y-44429308D01*
X56507516Y-44452357D01*
X56506296Y-44466796D01*
X56504371Y-44473393D01*
X56502972Y-44473950D01*
X56498415Y-44468111D01*
X56494933Y-44456376D01*
X56494680Y-44454810D01*
X56493601Y-44448176D01*
X56491930Y-44442598D01*
X56488846Y-44437984D01*
X56483525Y-44434242D01*
X56475141Y-44431280D01*
X56462872Y-44429007D01*
X56445895Y-44427330D01*
X56423384Y-44426159D01*
X56394516Y-44425401D01*
X56358468Y-44424964D01*
X56314415Y-44424757D01*
X56261534Y-44424688D01*
X56224170Y-44424674D01*
X56167687Y-44424626D01*
X56120546Y-44424502D01*
X56081931Y-44424276D01*
X56051024Y-44423922D01*
X56027010Y-44423415D01*
X56009070Y-44422727D01*
X55996390Y-44421834D01*
X55988149Y-44420710D01*
X55983532Y-44419328D01*
X55981722Y-44417663D01*
X55981600Y-44416971D01*
X55984854Y-44410452D01*
X55993726Y-44398233D01*
X56006887Y-44382026D01*
X56023005Y-44363541D01*
X56024069Y-44362361D01*
X56042341Y-44342874D01*
X56068068Y-44316585D01*
X56101204Y-44283542D01*
X56141699Y-44243792D01*
X56189505Y-44197384D01*
X56244573Y-44144363D01*
X56306855Y-44084777D01*
X56351871Y-44041897D01*
X56404401Y-43991934D01*
X56239991Y-43995338D01*
X56184548Y-43996624D01*
X56138429Y-43998025D01*
X56100799Y-43999611D01*
X56070823Y-44001452D01*
X56047664Y-44003620D01*
X56030487Y-44006185D01*
X56018456Y-44009216D01*
X56010737Y-44012784D01*
X56008190Y-44014833D01*
X56003058Y-44024167D01*
X55999013Y-44038666D01*
X55998305Y-44043024D01*
X55995494Y-44059665D01*
X55992926Y-44066572D01*
X55990686Y-44064176D01*
X55988862Y-44052902D01*
X55987539Y-44033178D01*
X55986804Y-44005432D01*
X55986680Y-43985478D01*
X55986979Y-43952363D01*
X55987845Y-43926876D01*
X55989232Y-43909782D01*
X55991094Y-43901843D01*
X55991760Y-43901360D01*
X55995418Y-43905750D01*
G37*
G36*
X56596179Y-43174734D02*
G01*
X56597960Y-43187367D01*
X56599243Y-43208734D01*
X56599976Y-43238476D01*
X56600123Y-43271611D01*
X56599709Y-43309121D01*
X56598740Y-43338181D01*
X56597258Y-43358491D01*
X56595308Y-43369752D01*
X56592935Y-43371667D01*
X56590183Y-43363933D01*
X56588054Y-43352614D01*
X56586489Y-43343352D01*
X56584415Y-43335733D01*
X56580904Y-43329594D01*
X56575028Y-43324779D01*
X56565858Y-43321125D01*
X56552466Y-43318472D01*
X56533923Y-43316661D01*
X56509300Y-43315530D01*
X56477670Y-43314918D01*
X56438103Y-43314669D01*
X56389671Y-43314619D01*
X56367901Y-43314619D01*
X56314665Y-43314684D01*
X56270443Y-43314949D01*
X56234089Y-43315519D01*
X56204463Y-43316497D01*
X56180414Y-43317991D01*
X56160802Y-43320104D01*
X56144479Y-43322940D01*
X56130301Y-43326606D01*
X56117123Y-43331204D01*
X56103799Y-43336841D01*
X56098440Y-43339287D01*
X56076079Y-43353007D01*
X56053370Y-43372529D01*
X56033591Y-43394643D01*
X56020166Y-43415834D01*
X56010050Y-43447157D01*
X56005918Y-43483064D01*
X56007711Y-43519974D01*
X56015370Y-43554303D01*
X56022734Y-43572126D01*
X56044698Y-43605237D01*
X56073504Y-43631407D01*
X56109735Y-43651093D01*
X56136540Y-43660342D01*
X56146566Y-43662774D01*
X56158689Y-43664782D01*
X56174046Y-43666427D01*
X56193775Y-43667770D01*
X56219011Y-43668870D01*
X56250893Y-43669788D01*
X56290557Y-43670586D01*
X56339140Y-43671322D01*
X56344074Y-43671389D01*
X56386562Y-43671852D01*
X56426711Y-43672089D01*
X56463162Y-43672109D01*
X56494560Y-43671918D01*
X56519546Y-43671522D01*
X56536765Y-43670930D01*
X56543831Y-43670352D01*
X56565081Y-43664387D01*
X56578740Y-43653019D01*
X56586515Y-43634518D01*
X56588293Y-43625178D01*
X56591385Y-43608540D01*
X56594121Y-43601707D01*
X56596436Y-43604328D01*
X56598269Y-43616053D01*
X56599553Y-43636530D01*
X56600223Y-43665410D01*
X56600293Y-43690540D01*
X56599974Y-43719319D01*
X56599303Y-43744214D01*
X56598355Y-43763599D01*
X56597208Y-43775850D01*
X56596118Y-43779440D01*
X56591068Y-43775027D01*
X56587238Y-43764439D01*
X56586120Y-43754411D01*
X56582568Y-43744540D01*
X56575436Y-43735777D01*
X56572154Y-43733289D01*
X56567661Y-43731236D01*
X56560957Y-43729556D01*
X56551041Y-43728186D01*
X56536915Y-43727065D01*
X56517577Y-43726130D01*
X56492028Y-43725318D01*
X56459268Y-43724569D01*
X56418296Y-43723818D01*
X56370966Y-43723050D01*
X56317682Y-43722155D01*
X56273383Y-43721213D01*
X56236892Y-43720090D01*
X56207037Y-43718653D01*
X56182640Y-43716766D01*
X56162528Y-43714297D01*
X56145524Y-43711113D01*
X56130453Y-43707078D01*
X56116142Y-43702059D01*
X56101413Y-43695923D01*
X56090809Y-43691157D01*
X56059500Y-43671652D01*
X56031314Y-43644000D01*
X56007499Y-43610040D01*
X55989297Y-43571610D01*
X55977958Y-43530550D01*
X55976726Y-43522900D01*
X55973656Y-43499142D01*
X55972453Y-43480773D01*
X55973122Y-43463191D01*
X55975669Y-43441795D01*
X55976838Y-43433683D01*
X55988219Y-43386743D01*
X56007497Y-43345651D01*
X56034319Y-43310934D01*
X56068330Y-43283122D01*
X56084373Y-43273782D01*
X56098080Y-43266933D01*
X56111401Y-43261234D01*
X56125436Y-43256560D01*
X56141287Y-43252787D01*
X56160053Y-43249790D01*
X56182836Y-43247445D01*
X56210737Y-43245627D01*
X56244855Y-43244212D01*
X56286292Y-43243075D01*
X56336150Y-43242092D01*
X56369406Y-43241542D01*
X56419336Y-43240741D01*
X56460092Y-43240027D01*
X56492658Y-43239332D01*
X56518021Y-43238588D01*
X56537165Y-43237725D01*
X56551073Y-43236676D01*
X56560732Y-43235373D01*
X56567128Y-43233744D01*
X56571243Y-43231723D01*
X56574064Y-43229241D01*
X56575813Y-43227173D01*
X56582229Y-43215126D01*
X56587310Y-43198543D01*
X56588383Y-43192785D01*
X56591337Y-43177086D01*
X56593954Y-43171188D01*
X56596179Y-43174734D01*
G37*
G36*
X55995223Y-35239321D02*
G01*
X55996844Y-35250141D01*
X55996859Y-35251390D01*
X56001743Y-35274063D01*
X56015649Y-35293836D01*
X56037541Y-35309245D01*
X56037926Y-35309437D01*
X56047244Y-35313540D01*
X56064970Y-35320874D01*
X56090033Y-35331012D01*
X56121366Y-35343528D01*
X56157894Y-35357998D01*
X56198551Y-35373992D01*
X56208930Y-35378051D01*
X56242263Y-35391087D01*
X56277605Y-35404838D01*
X56331705Y-35425841D01*
X56377099Y-35443479D01*
X56414551Y-35458075D01*
X56444823Y-35469948D01*
X56468679Y-35479418D01*
X56486881Y-35486807D01*
X56500193Y-35492434D01*
X56509377Y-35496620D01*
X56515197Y-35499685D01*
X56518415Y-35501950D01*
X56519795Y-35503736D01*
X56520099Y-35505361D01*
X56520080Y-35506660D01*
X56520034Y-35508509D01*
X56519324Y-35510296D01*
X56517098Y-35512401D01*
X56512503Y-35515203D01*
X56504684Y-35519082D01*
X56492789Y-35524416D01*
X56475963Y-35531586D01*
X56453353Y-35540972D01*
X56424105Y-35552952D01*
X56387367Y-35567908D01*
X56342285Y-35586216D01*
X56329631Y-35591353D01*
X56268559Y-35616160D01*
X56216188Y-35637489D01*
X56171802Y-35655681D01*
X56134687Y-35671074D01*
X56104127Y-35684006D01*
X56079407Y-35694818D01*
X56059811Y-35703847D01*
X56044624Y-35711433D01*
X56033132Y-35717915D01*
X56024618Y-35723631D01*
X56018368Y-35728921D01*
X56013667Y-35734124D01*
X56009798Y-35739580D01*
X56006835Y-35744329D01*
X56000062Y-35759095D01*
X55996891Y-35773209D01*
X55996859Y-35774330D01*
X55995140Y-35785581D01*
X55991760Y-35791140D01*
X55989598Y-35787634D01*
X55988015Y-35774320D01*
X55987035Y-35751534D01*
X55986681Y-35719611D01*
X55986680Y-35717779D01*
X55986844Y-35691206D01*
X55987294Y-35668642D01*
X55987971Y-35651842D01*
X55988815Y-35642557D01*
X55989289Y-35641280D01*
X55995215Y-35643655D01*
X56000959Y-35646938D01*
X56006137Y-35648412D01*
X56014564Y-35647567D01*
X56027585Y-35644001D01*
X56046549Y-35637311D01*
X56072800Y-35627094D01*
X56088520Y-35620765D01*
X56115135Y-35609836D01*
X56138671Y-35599916D01*
X56157408Y-35591749D01*
X56169626Y-35586080D01*
X56173370Y-35584004D01*
X56175973Y-35578672D01*
X56177836Y-35566683D01*
X56179029Y-35547074D01*
X56179623Y-35518881D01*
X56179720Y-35496500D01*
X56179604Y-35480883D01*
X56205095Y-35480883D01*
X56205215Y-35504459D01*
X56205732Y-35527297D01*
X56206632Y-35547222D01*
X56207893Y-35562057D01*
X56209500Y-35569627D01*
X56210099Y-35570160D01*
X56216925Y-35568440D01*
X56231117Y-35563718D01*
X56250965Y-35556649D01*
X56274760Y-35547886D01*
X56300792Y-35538086D01*
X56327353Y-35527902D01*
X56352734Y-35517989D01*
X56375225Y-35509002D01*
X56393117Y-35501595D01*
X56404702Y-35496424D01*
X56408320Y-35494227D01*
X56403800Y-35491780D01*
X56391387Y-35486669D01*
X56372804Y-35479511D01*
X56349774Y-35470927D01*
X56324020Y-35461530D01*
X56297264Y-35451943D01*
X56271230Y-35442780D01*
X56247640Y-35434661D01*
X56228217Y-35428203D01*
X56214685Y-35424023D01*
X56208930Y-35422722D01*
X56207289Y-35427488D01*
X56206114Y-35440221D01*
X56205388Y-35458745D01*
X56205095Y-35480883D01*
X56179604Y-35480883D01*
X56179468Y-35462511D01*
X56178662Y-35437703D01*
X56177234Y-35421107D01*
X56175113Y-35411754D01*
X56173370Y-35409130D01*
X56164092Y-35404216D01*
X56147420Y-35397263D01*
X56125673Y-35389060D01*
X56101164Y-35380397D01*
X56076212Y-35372064D01*
X56053131Y-35364850D01*
X56034237Y-35359545D01*
X56021848Y-35356938D01*
X56019880Y-35356800D01*
X56005831Y-35359416D01*
X55998630Y-35368316D01*
X55996840Y-35382615D01*
X55994632Y-35390642D01*
X55991760Y-35392360D01*
X55989714Y-35387423D01*
X55988151Y-35373167D01*
X55987126Y-35350423D01*
X55986692Y-35320023D01*
X55986680Y-35313620D01*
X55986999Y-35281893D01*
X55987919Y-35257669D01*
X55989386Y-35241779D01*
X55991347Y-35235053D01*
X55991760Y-35234880D01*
X55995223Y-35239321D01*
G37*
G36*
X56504010Y-46106898D02*
G01*
X56505382Y-46122276D01*
X56506390Y-46146453D01*
X56507007Y-46178752D01*
X56507202Y-46218497D01*
X56507198Y-46222920D01*
X56506676Y-46273227D01*
X56505044Y-46314592D01*
X56501963Y-46348202D01*
X56497084Y-46375247D01*
X56490065Y-46396915D01*
X56480558Y-46414395D01*
X56468219Y-46428875D01*
X56452705Y-46441542D01*
X56441643Y-46448821D01*
X56426407Y-46457338D01*
X56412784Y-46462000D01*
X56396448Y-46463892D01*
X56380779Y-46464154D01*
X56344986Y-46460347D01*
X56311691Y-46448571D01*
X56279254Y-46428088D01*
X56255846Y-46407856D01*
X56240630Y-46393729D01*
X56230615Y-46385833D01*
X56223919Y-46383117D01*
X56218661Y-46384527D01*
X56216635Y-46385937D01*
X56208984Y-46391991D01*
X56195613Y-46402714D01*
X56178687Y-46416371D01*
X56167020Y-46425819D01*
X56125119Y-46460178D01*
X56090702Y-46489358D01*
X56063041Y-46514158D01*
X56041406Y-46535378D01*
X56025069Y-46553817D01*
X56013301Y-46570276D01*
X56005372Y-46585554D01*
X56000553Y-46600452D01*
X55998729Y-46610407D01*
X55995639Y-46628060D01*
X55992693Y-46635954D01*
X55990111Y-46634496D01*
X55988114Y-46624091D01*
X55986921Y-46605141D01*
X55986680Y-46588299D01*
X55987561Y-46554448D01*
X55990573Y-46528375D01*
X55996266Y-46507820D01*
X56005195Y-46490521D01*
X56013292Y-46479595D01*
X56024748Y-46467663D01*
X56043211Y-46450844D01*
X56067434Y-46430175D01*
X56096171Y-46406694D01*
X56128174Y-46381437D01*
X56162197Y-46355443D01*
X56165750Y-46352776D01*
X56205119Y-46323288D01*
X56205120Y-46281379D01*
X56232030Y-46281379D01*
X56232072Y-46302561D01*
X56233190Y-46325619D01*
X56235621Y-46341379D01*
X56239952Y-46352678D01*
X56243671Y-46358441D01*
X56263367Y-46377038D01*
X56289660Y-46390366D01*
X56320349Y-46398238D01*
X56353234Y-46400469D01*
X56386115Y-46396872D01*
X56416792Y-46387263D01*
X56438569Y-46374903D01*
X56458291Y-46357187D01*
X56471506Y-46336396D01*
X56479065Y-46310509D01*
X56481819Y-46277511D01*
X56481870Y-46272273D01*
X56481484Y-46249037D01*
X56480006Y-46234119D01*
X56477158Y-46225708D01*
X56474360Y-46222821D01*
X56466978Y-46221305D01*
X56451316Y-46220076D01*
X56429240Y-46219137D01*
X56402625Y-46218494D01*
X56373338Y-46218150D01*
X56343251Y-46218108D01*
X56314233Y-46218373D01*
X56288156Y-46218948D01*
X56266886Y-46219838D01*
X56252297Y-46221046D01*
X56246523Y-46222341D01*
X56239030Y-46232754D01*
X56234173Y-46252575D01*
X56232030Y-46281379D01*
X56205120Y-46281379D01*
X56205120Y-46273404D01*
X56204565Y-46248907D01*
X56203001Y-46231037D01*
X56200586Y-46221298D01*
X56199615Y-46220116D01*
X56192927Y-46219199D01*
X56177887Y-46218809D01*
X56156287Y-46218939D01*
X56129914Y-46219584D01*
X56108009Y-46220405D01*
X56072801Y-46222111D01*
X56046399Y-46224141D01*
X56027449Y-46227013D01*
X56014600Y-46231245D01*
X56006498Y-46237358D01*
X56001791Y-46245869D01*
X55999127Y-46257297D01*
X55998375Y-46262465D01*
X55995549Y-46279365D01*
X55992997Y-46286483D01*
X55990786Y-46284193D01*
X55988982Y-46272871D01*
X55987655Y-46252892D01*
X55986871Y-46224631D01*
X55986680Y-46197521D01*
X55986950Y-46161221D01*
X55987748Y-46134178D01*
X55989060Y-46116652D01*
X55990872Y-46108905D01*
X55991760Y-46108620D01*
X55995885Y-46115704D01*
X55996918Y-46122889D01*
X55999623Y-46137134D01*
X56008738Y-46146277D01*
X56025307Y-46152046D01*
X56034571Y-46153037D01*
X56052812Y-46153959D01*
X56078848Y-46154790D01*
X56111496Y-46155507D01*
X56149572Y-46156083D01*
X56191895Y-46156497D01*
X56237282Y-46156724D01*
X56258600Y-46156758D01*
X56313450Y-46156790D01*
X56343251Y-46156749D01*
X56359011Y-46156727D01*
X56396154Y-46156435D01*
X56425754Y-46155777D01*
X56448682Y-46154618D01*
X56465809Y-46152824D01*
X56478007Y-46150259D01*
X56486148Y-46146787D01*
X56491104Y-46142273D01*
X56493747Y-46136581D01*
X56494948Y-46129579D01*
X56495580Y-46121128D01*
X56495663Y-46119963D01*
X56497675Y-46107147D01*
X56500909Y-46101034D01*
X56502300Y-46101000D01*
X56504010Y-46106898D01*
G37*
G36*
X57543742Y-32682904D02*
G01*
X57632285Y-32691984D01*
X57713613Y-32707731D01*
X57787583Y-32730119D01*
X57854056Y-32759123D01*
X57900122Y-32786003D01*
X57952879Y-32826270D01*
X57997718Y-32872480D01*
X58034893Y-32925004D01*
X58064661Y-32984216D01*
X58087277Y-33050490D01*
X58090849Y-33064160D01*
X58095377Y-33084239D01*
X58098552Y-33103812D01*
X58100598Y-33125415D01*
X58101737Y-33151582D01*
X58102196Y-33184849D01*
X58102226Y-33192720D01*
X58101861Y-33225319D01*
X58100706Y-33258515D01*
X58098924Y-33289168D01*
X58096674Y-33314137D01*
X58095615Y-33322260D01*
X58078138Y-33421650D01*
X58055446Y-33519750D01*
X58027119Y-33617722D01*
X57992730Y-33716732D01*
X57951863Y-33817941D01*
X57904093Y-33922515D01*
X57849000Y-34031617D01*
X57816918Y-34091255D01*
X57803571Y-34115188D01*
X57786994Y-34144283D01*
X57767844Y-34177435D01*
X57746780Y-34213542D01*
X57724462Y-34251501D01*
X57701546Y-34290209D01*
X57678692Y-34328564D01*
X57656558Y-34365463D01*
X57635802Y-34399802D01*
X57617084Y-34430481D01*
X57601061Y-34456395D01*
X57588392Y-34476442D01*
X57579735Y-34489518D01*
X57576576Y-34493754D01*
X57566023Y-34505900D01*
X57569423Y-34493200D01*
X57572227Y-34485824D01*
X57578751Y-34470294D01*
X57588512Y-34447704D01*
X57601029Y-34419152D01*
X57615822Y-34385732D01*
X57632410Y-34348544D01*
X57650311Y-34308682D01*
X57653008Y-34302700D01*
X57693518Y-34212355D01*
X57729773Y-34130285D01*
X57762057Y-34055675D01*
X57790656Y-33987709D01*
X57815855Y-33925574D01*
X57837939Y-33868455D01*
X57857192Y-33815537D01*
X57873900Y-33766005D01*
X57888347Y-33719044D01*
X57900819Y-33673841D01*
X57911600Y-33629579D01*
X57920975Y-33585445D01*
X57929230Y-33540624D01*
X57936650Y-33494301D01*
X57937305Y-33489900D01*
X57946737Y-33414988D01*
X57951417Y-33348198D01*
X57951160Y-33288577D01*
X57945783Y-33235170D01*
X57935100Y-33187026D01*
X57918927Y-33143190D01*
X57897082Y-33102709D01*
X57869378Y-33064631D01*
X57851095Y-33043849D01*
X57817571Y-33011516D01*
X57781430Y-32984202D01*
X57739661Y-32959776D01*
X57715531Y-32947888D01*
X57679633Y-32932537D01*
X57642906Y-32919974D01*
X57604723Y-32910258D01*
X57564460Y-32903448D01*
X57521491Y-32899604D01*
X57475191Y-32898785D01*
X57424934Y-32901052D01*
X57370096Y-32906464D01*
X57310051Y-32915080D01*
X57244175Y-32926959D01*
X57171842Y-32942162D01*
X57092427Y-32960748D01*
X57005305Y-32982776D01*
X56909850Y-33008307D01*
X56820451Y-33033156D01*
X56753657Y-33052013D01*
X56695614Y-33068458D01*
X56645286Y-33082798D01*
X56601638Y-33095342D01*
X56563632Y-33106401D01*
X56530234Y-33116282D01*
X56500403Y-33125294D01*
X56473106Y-33133746D01*
X56447306Y-33141948D01*
X56421966Y-33150207D01*
X56396050Y-33158833D01*
X56376019Y-33165590D01*
X56257788Y-33207285D01*
X56139174Y-33252452D01*
X56019451Y-33301444D01*
X55897898Y-33354614D01*
X55773791Y-33412316D01*
X55646406Y-33474902D01*
X55515020Y-33542726D01*
X55378911Y-33616141D01*
X55237354Y-33695499D01*
X55089626Y-33781155D01*
X54973221Y-33850418D01*
X54631074Y-34061939D01*
X54295212Y-34281395D01*
X53965713Y-34508721D01*
X53642656Y-34743854D01*
X53326118Y-34986727D01*
X53016179Y-35237277D01*
X52712916Y-35495439D01*
X52416409Y-35761148D01*
X52126736Y-36034341D01*
X51843975Y-36314951D01*
X51568204Y-36602914D01*
X51374527Y-36814204D01*
X51254214Y-36949296D01*
X51141593Y-37078720D01*
X51036285Y-37202985D01*
X50937913Y-37322596D01*
X50846098Y-37438060D01*
X50760463Y-37549883D01*
X50680631Y-37658572D01*
X50606221Y-37764633D01*
X50536858Y-37868573D01*
X50472162Y-37970900D01*
X50411757Y-38072118D01*
X50355264Y-38172735D01*
X50340476Y-38200156D01*
X50318020Y-38243059D01*
X50294377Y-38289822D01*
X50270571Y-38338301D01*
X50247630Y-38386347D01*
X50226579Y-38431812D01*
X50208444Y-38472551D01*
X50194952Y-38504673D01*
X50168452Y-38575515D01*
X50142691Y-38654044D01*
X50118381Y-38737780D01*
X50096240Y-38824249D01*
X50076983Y-38910976D01*
X50075583Y-38917880D01*
X50067103Y-38970348D01*
X50062096Y-39024694D01*
X50060591Y-39078393D01*
X50062617Y-39128916D01*
X50068205Y-39173734D01*
X50072356Y-39193262D01*
X50090589Y-39251162D01*
X50115354Y-39303548D01*
X50147793Y-39352395D01*
X50189051Y-39399675D01*
X50196147Y-39406831D01*
X50214285Y-39425257D01*
X50224684Y-39437477D01*
X50227065Y-39444180D01*
X50221151Y-39446054D01*
X50206663Y-39443791D01*
X50183514Y-39438128D01*
X50124574Y-39417732D01*
X50069236Y-39388330D01*
X50018480Y-39350731D01*
X49973289Y-39305746D01*
X49934647Y-39254187D01*
X49911714Y-39214010D01*
X49888320Y-39158072D01*
X49870599Y-39095194D01*
X49858818Y-39027035D01*
X49853244Y-38955257D01*
X49854145Y-38881522D01*
X49855361Y-38863653D01*
X49864648Y-38788320D01*
X49880974Y-38706578D01*
X49904065Y-38619081D01*
X49933651Y-38526477D01*
X49969459Y-38429417D01*
X50011217Y-38328552D01*
X50058658Y-38224532D01*
X50111506Y-38118007D01*
X50169490Y-38009628D01*
X50232341Y-37900045D01*
X50299785Y-37789909D01*
X50310336Y-37773296D01*
X50379964Y-37667251D01*
X50456817Y-37555890D01*
X50540136Y-37440178D01*
X50629164Y-37321088D01*
X50723141Y-37199584D01*
X50821311Y-37076636D01*
X50922915Y-36953212D01*
X51027194Y-36830280D01*
X51133391Y-36708809D01*
X51215077Y-36617886D01*
X51270658Y-36557500D01*
X51332579Y-36491538D01*
X51399632Y-36421225D01*
X51470601Y-36347781D01*
X51544279Y-36272429D01*
X51619457Y-36196393D01*
X51694921Y-36120894D01*
X51769461Y-36047155D01*
X51841868Y-35976399D01*
X51910929Y-35909848D01*
X51975435Y-35848724D01*
X51993800Y-35831551D01*
X52218171Y-35625522D01*
X52440402Y-35427732D01*
X52662023Y-35236945D01*
X52884569Y-35051928D01*
X53109568Y-34871445D01*
X53338553Y-34694262D01*
X53573056Y-34519142D01*
X53814608Y-34344853D01*
X53992780Y-34219859D01*
X54216917Y-34066889D01*
X54436208Y-33922335D01*
X54651101Y-33785940D01*
X54862045Y-33657450D01*
X55069488Y-33536608D01*
X55273879Y-33423157D01*
X55475667Y-33316843D01*
X55675299Y-33217411D01*
X55873226Y-33124604D01*
X56052719Y-33045483D01*
X56197961Y-32984915D01*
X56336022Y-32930491D01*
X56467660Y-32882002D01*
X56593624Y-32839238D01*
X56714666Y-32801989D01*
X56831537Y-32770046D01*
X56944989Y-32743199D01*
X57055774Y-32721239D01*
X57164641Y-32703956D01*
X57272344Y-32691140D01*
X57345580Y-32684849D01*
X57448127Y-32680517D01*
X57543742Y-32682904D01*
G37*
G36*
X54391311Y-36601136D02*
G01*
X54391352Y-36604648D01*
X54387117Y-36612020D01*
X54378154Y-36624021D01*
X54364015Y-36641420D01*
X54344249Y-36664987D01*
X54318406Y-36695491D01*
X54316347Y-36697920D01*
X54266841Y-36755901D01*
X54222331Y-36807001D01*
X54181585Y-36852363D01*
X54143371Y-36893134D01*
X54106458Y-36930458D01*
X54069614Y-36965482D01*
X54031607Y-36999351D01*
X53991207Y-37033210D01*
X53947182Y-37068204D01*
X53898299Y-37105479D01*
X53843328Y-37146181D01*
X53802084Y-37176225D01*
X53788982Y-37185720D01*
X53768007Y-37200914D01*
X53739519Y-37221548D01*
X53703873Y-37247364D01*
X53661427Y-37278103D01*
X53612540Y-37313505D01*
X53557567Y-37353312D01*
X53496869Y-37397265D01*
X53430799Y-37445106D01*
X53359717Y-37496575D01*
X53283981Y-37551413D01*
X53203948Y-37609362D01*
X53119976Y-37670163D01*
X53032421Y-37733556D01*
X52941641Y-37799285D01*
X52847994Y-37867089D01*
X52751838Y-37936708D01*
X52653529Y-38007886D01*
X52553425Y-38080361D01*
X52463700Y-38145322D01*
X52363447Y-38217925D01*
X52265244Y-38289074D01*
X52169418Y-38358535D01*
X52076293Y-38426073D01*
X51986193Y-38491450D01*
X51899442Y-38554431D01*
X51816366Y-38614779D01*
X51737289Y-38672257D01*
X51662534Y-38726629D01*
X51592427Y-38777660D01*
X51527293Y-38825112D01*
X51467455Y-38868750D01*
X51413238Y-38908336D01*
X51364966Y-38943636D01*
X51322966Y-38974412D01*
X51287559Y-39000428D01*
X51259073Y-39021449D01*
X51237830Y-39037236D01*
X51224155Y-39047555D01*
X51218372Y-39052169D01*
X51218297Y-39052245D01*
X51212929Y-39058267D01*
X51208559Y-39064641D01*
X51205037Y-39072486D01*
X51202215Y-39082924D01*
X51199945Y-39097073D01*
X51198077Y-39116056D01*
X51196464Y-39140991D01*
X51194955Y-39173000D01*
X51193402Y-39213202D01*
X51192119Y-39249473D01*
X51190747Y-39287015D01*
X51189486Y-39315724D01*
X51188187Y-39336923D01*
X51186705Y-39351938D01*
X51184891Y-39362090D01*
X51182598Y-39368705D01*
X51179680Y-39373106D01*
X51178196Y-39374647D01*
X51169257Y-39382194D01*
X51154136Y-39393861D01*
X51134227Y-39408669D01*
X51110925Y-39425632D01*
X51085620Y-39443766D01*
X51059708Y-39462089D01*
X51034582Y-39479616D01*
X51011635Y-39495366D01*
X50992261Y-39508355D01*
X50977853Y-39517598D01*
X50969805Y-39522114D01*
X50968817Y-39522400D01*
X50962454Y-39519940D01*
X50948648Y-39513034D01*
X50928714Y-39502390D01*
X50903962Y-39488722D01*
X50875707Y-39472735D01*
X50856087Y-39461440D01*
X50826111Y-39444298D01*
X50798627Y-39429020D01*
X50774983Y-39416319D01*
X50756527Y-39406910D01*
X50744605Y-39401506D01*
X50741027Y-39400480D01*
X50732023Y-39403410D01*
X50718277Y-39411057D01*
X50704209Y-39420720D01*
X50676708Y-39437359D01*
X50644201Y-39450842D01*
X50610967Y-39459653D01*
X50586850Y-39462316D01*
X50572968Y-39461795D01*
X50562908Y-39458267D01*
X50552868Y-39449811D01*
X50544820Y-39441060D01*
X50527017Y-39419475D01*
X50510867Y-39397113D01*
X50497648Y-39376019D01*
X50488634Y-39358237D01*
X50485508Y-39347248D01*
X50500328Y-39347248D01*
X50502734Y-39354070D01*
X50508898Y-39366511D01*
X50515058Y-39377620D01*
X50522652Y-39389320D01*
X50531962Y-39401698D01*
X50541631Y-39413284D01*
X50550304Y-39422613D01*
X50556623Y-39428213D01*
X50559233Y-39428620D01*
X50557293Y-39423340D01*
X50551444Y-39413615D01*
X50542357Y-39400197D01*
X50531519Y-39385068D01*
X50520414Y-39370211D01*
X50510526Y-39357610D01*
X50503341Y-39349245D01*
X50500343Y-39347103D01*
X50500328Y-39347248D01*
X50485508Y-39347248D01*
X50485100Y-39345814D01*
X50485089Y-39345291D01*
X50487283Y-39333090D01*
X50492834Y-39316568D01*
X50497181Y-39306501D01*
X50500343Y-39301317D01*
X50518039Y-39272308D01*
X50521016Y-39269049D01*
X50647950Y-39269049D01*
X50648163Y-39271617D01*
X50655898Y-39275722D01*
X50659705Y-39274215D01*
X50665085Y-39270198D01*
X50677620Y-39260948D01*
X50696263Y-39247236D01*
X50719967Y-39229830D01*
X50747688Y-39209496D01*
X50778380Y-39187004D01*
X50792380Y-39176751D01*
X50849905Y-39134572D01*
X50899324Y-39098215D01*
X50940780Y-39067572D01*
X50974419Y-39042535D01*
X51000384Y-39022997D01*
X51018818Y-39008849D01*
X51029868Y-38999983D01*
X51033677Y-38996293D01*
X51033680Y-38996258D01*
X51029866Y-38994890D01*
X51018390Y-38999698D01*
X50999215Y-39010709D01*
X50972299Y-39027950D01*
X50937597Y-39051448D01*
X50895070Y-39081230D01*
X50844677Y-39117324D01*
X50816399Y-39137833D01*
X50772903Y-39169575D01*
X50737071Y-39195939D01*
X50708275Y-39217423D01*
X50685891Y-39234523D01*
X50669292Y-39247739D01*
X50657852Y-39257566D01*
X50650947Y-39264504D01*
X50647950Y-39269049D01*
X50521016Y-39269049D01*
X50545261Y-39242505D01*
X50569014Y-39224421D01*
X50582673Y-39214171D01*
X50592326Y-39203812D01*
X50594899Y-39198837D01*
X50594747Y-39190828D01*
X50592763Y-39174425D01*
X50589196Y-39151178D01*
X50584293Y-39122637D01*
X50578301Y-39090354D01*
X50574420Y-39070498D01*
X50567810Y-39037013D01*
X50561927Y-39006638D01*
X50559070Y-38991540D01*
X51038760Y-38991540D01*
X51041300Y-38994080D01*
X51043840Y-38991540D01*
X51041300Y-38989000D01*
X51038760Y-38991540D01*
X50559070Y-38991540D01*
X50557050Y-38980862D01*
X50553458Y-38961176D01*
X50551430Y-38949069D01*
X50551080Y-38946066D01*
X50554970Y-38941773D01*
X50565761Y-38932507D01*
X50582134Y-38919268D01*
X50602772Y-38903057D01*
X50626357Y-38884873D01*
X50651570Y-38865716D01*
X50677094Y-38846586D01*
X50701610Y-38828485D01*
X50723801Y-38812410D01*
X50742348Y-38799363D01*
X50755933Y-38790344D01*
X50757993Y-38789078D01*
X50764826Y-38789338D01*
X50781070Y-38792502D01*
X50806426Y-38798491D01*
X50840591Y-38807227D01*
X50883265Y-38818633D01*
X50934148Y-38832629D01*
X50992938Y-38849139D01*
X51029866Y-38859643D01*
X51030039Y-38859692D01*
X51041300Y-38862134D01*
X51046016Y-38863156D01*
X51059015Y-38864078D01*
X51063059Y-38863418D01*
X51065832Y-38861705D01*
X51191869Y-38861705D01*
X51194283Y-38871688D01*
X51201034Y-38881050D01*
X51211346Y-38890648D01*
X51219743Y-38891178D01*
X51225890Y-38885860D01*
X51228119Y-38878235D01*
X51223664Y-38866698D01*
X51221507Y-38863000D01*
X51212962Y-38850914D01*
X51206128Y-38847324D01*
X51198849Y-38851329D01*
X51197256Y-38852856D01*
X51191869Y-38861705D01*
X51065832Y-38861705D01*
X51068805Y-38859868D01*
X51081931Y-38850925D01*
X51093032Y-38843169D01*
X51219769Y-38843169D01*
X51225045Y-38851513D01*
X51232763Y-38862966D01*
X51232764Y-38862967D01*
X51242222Y-38876635D01*
X51274195Y-38852807D01*
X51284724Y-38845055D01*
X51302536Y-38832052D01*
X51326674Y-38814492D01*
X51356183Y-38793068D01*
X51390106Y-38768475D01*
X51427487Y-38741405D01*
X51467369Y-38712554D01*
X51508796Y-38682613D01*
X51510117Y-38681660D01*
X51550256Y-38652617D01*
X51587783Y-38625373D01*
X51621911Y-38600504D01*
X51651856Y-38578587D01*
X51676831Y-38560198D01*
X51696051Y-38545915D01*
X51708730Y-38536315D01*
X51714083Y-38531974D01*
X51714206Y-38531800D01*
X51711433Y-38526569D01*
X51704390Y-38516849D01*
X51702419Y-38514349D01*
X51690489Y-38499438D01*
X51673234Y-38509623D01*
X51665374Y-38514827D01*
X51650314Y-38525322D01*
X51629052Y-38540397D01*
X51602583Y-38559337D01*
X51571904Y-38581429D01*
X51538011Y-38605959D01*
X51501901Y-38632214D01*
X51492820Y-38638834D01*
X51454254Y-38666922D01*
X51415895Y-38694773D01*
X51379067Y-38721429D01*
X51345092Y-38745940D01*
X51315293Y-38767351D01*
X51290991Y-38784707D01*
X51273510Y-38797056D01*
X51272947Y-38797449D01*
X51247725Y-38815680D01*
X51230314Y-38829669D01*
X51221067Y-38839113D01*
X51219769Y-38843169D01*
X51093032Y-38843169D01*
X51101602Y-38837181D01*
X51126985Y-38819226D01*
X51157250Y-38797652D01*
X51191564Y-38773051D01*
X51206128Y-38762559D01*
X51229094Y-38746013D01*
X51269009Y-38717131D01*
X51272440Y-38714642D01*
X51301876Y-38693303D01*
X51338821Y-38666537D01*
X51382551Y-38634873D01*
X51432339Y-38598835D01*
X51487461Y-38558948D01*
X51547191Y-38515736D01*
X51603591Y-38474939D01*
X51699205Y-38474939D01*
X51701202Y-38485621D01*
X51709367Y-38502301D01*
X51712160Y-38506875D01*
X51720686Y-38519078D01*
X51726688Y-38523553D01*
X51732112Y-38521689D01*
X51732480Y-38521391D01*
X51738693Y-38513599D01*
X51737880Y-38504693D01*
X51729563Y-38492557D01*
X51724848Y-38487212D01*
X51711565Y-38474900D01*
X51702839Y-38471086D01*
X51699205Y-38474939D01*
X51603591Y-38474939D01*
X51610800Y-38469724D01*
X51677567Y-38421438D01*
X51690489Y-38412094D01*
X51702839Y-38403165D01*
X51746763Y-38371401D01*
X51817663Y-38320142D01*
X51889543Y-38268182D01*
X51953601Y-38221883D01*
X52058164Y-38221883D01*
X52063189Y-38229706D01*
X52074167Y-38242812D01*
X52076995Y-38246050D01*
X52087299Y-38254371D01*
X52096530Y-38257480D01*
X52101328Y-38256527D01*
X52101355Y-38252397D01*
X52096093Y-38243182D01*
X52090320Y-38234619D01*
X52081333Y-38222013D01*
X52074812Y-38213710D01*
X52073767Y-38212740D01*
X52090327Y-38212740D01*
X52100830Y-38227490D01*
X52108466Y-38237251D01*
X52113618Y-38242116D01*
X52114058Y-38242240D01*
X52118550Y-38239342D01*
X52130541Y-38230993D01*
X52149306Y-38217713D01*
X52174121Y-38200020D01*
X52204264Y-38178430D01*
X52239009Y-38153466D01*
X52277633Y-38125642D01*
X52319412Y-38095478D01*
X52361608Y-38064953D01*
X52407069Y-38032037D01*
X52451108Y-38000159D01*
X52492853Y-37969950D01*
X52531433Y-37942038D01*
X52565975Y-37917058D01*
X52595607Y-37895638D01*
X52619457Y-37878409D01*
X52636652Y-37866002D01*
X52645065Y-37859949D01*
X52683696Y-37832232D01*
X52672655Y-37818385D01*
X52661614Y-37804538D01*
X52633777Y-37823597D01*
X52623821Y-37830586D01*
X52606647Y-37842836D01*
X52583255Y-37859627D01*
X52554641Y-37880241D01*
X52521802Y-37903959D01*
X52485736Y-37930060D01*
X52447440Y-37957827D01*
X52422433Y-37975985D01*
X52380978Y-38006050D01*
X52339206Y-38036248D01*
X52298446Y-38065619D01*
X52260028Y-38093214D01*
X52225280Y-38118078D01*
X52195534Y-38139254D01*
X52172118Y-38155790D01*
X52164626Y-38161027D01*
X52090327Y-38212740D01*
X52073767Y-38212740D01*
X52072712Y-38211760D01*
X52066983Y-38213333D01*
X52062666Y-38214893D01*
X52058265Y-38217544D01*
X52058164Y-38221883D01*
X51953601Y-38221883D01*
X51961675Y-38216047D01*
X52033334Y-38164263D01*
X52034440Y-38163463D01*
X52072712Y-38135803D01*
X52111063Y-38108085D01*
X52191416Y-38049989D01*
X52274453Y-37989932D01*
X52359129Y-37928671D01*
X52444398Y-37866963D01*
X52529216Y-37805564D01*
X52535413Y-37801077D01*
X52672425Y-37801077D01*
X52673835Y-37808495D01*
X52681767Y-37820871D01*
X52686796Y-37827458D01*
X52695524Y-37833616D01*
X52702515Y-37830655D01*
X52705000Y-37821087D01*
X52701228Y-37810331D01*
X52692314Y-37801120D01*
X52681869Y-37796556D01*
X52677031Y-37797048D01*
X52672425Y-37801077D01*
X52535413Y-37801077D01*
X52612537Y-37745233D01*
X52661614Y-37709686D01*
X52681869Y-37695015D01*
X52693315Y-37686725D01*
X52698727Y-37682804D01*
X52848938Y-37682804D01*
X52855077Y-37690747D01*
X52860995Y-37692655D01*
X52869409Y-37690396D01*
X52883575Y-37683092D01*
X52901654Y-37672051D01*
X52921809Y-37658583D01*
X52942202Y-37643994D01*
X52960995Y-37629596D01*
X52976351Y-37616696D01*
X52986431Y-37606603D01*
X52989481Y-37601150D01*
X52985944Y-37590252D01*
X52976015Y-37586439D01*
X52960718Y-37589843D01*
X52948840Y-37595724D01*
X52929077Y-37608016D01*
X52906395Y-37623366D01*
X52884105Y-37639423D01*
X52865519Y-37653836D01*
X52858459Y-37659865D01*
X52849994Y-37671585D01*
X52848938Y-37682804D01*
X52698727Y-37682804D01*
X52770505Y-37630797D01*
X52843062Y-37578208D01*
X52857171Y-37567977D01*
X52989685Y-37567977D01*
X52993619Y-37572700D01*
X53002295Y-37577736D01*
X53014697Y-37580913D01*
X53027577Y-37577331D01*
X53029592Y-37576357D01*
X53036594Y-37571945D01*
X53050876Y-37562169D01*
X53071723Y-37547550D01*
X53098415Y-37528613D01*
X53130233Y-37505881D01*
X53166457Y-37479878D01*
X53206370Y-37451126D01*
X53249252Y-37420149D01*
X53294384Y-37387471D01*
X53341047Y-37353614D01*
X53388522Y-37319105D01*
X53436090Y-37284462D01*
X53483033Y-37250212D01*
X53528631Y-37216878D01*
X53572166Y-37184982D01*
X53612918Y-37155049D01*
X53650168Y-37127601D01*
X53683198Y-37103163D01*
X53711289Y-37082256D01*
X53733721Y-37065406D01*
X53749776Y-37053135D01*
X53758735Y-37045966D01*
X53760404Y-37044335D01*
X53759336Y-37035605D01*
X53755322Y-37029785D01*
X53748199Y-37024896D01*
X53739885Y-37026398D01*
X53734822Y-37028910D01*
X53728138Y-37033237D01*
X53714153Y-37042894D01*
X53693573Y-37057369D01*
X53667109Y-37076145D01*
X53635471Y-37098713D01*
X53599366Y-37124557D01*
X53559506Y-37153164D01*
X53516598Y-37184023D01*
X53471353Y-37216618D01*
X53424479Y-37250438D01*
X53376687Y-37284969D01*
X53328685Y-37319698D01*
X53281183Y-37354111D01*
X53234890Y-37387696D01*
X53190515Y-37419939D01*
X53148768Y-37450327D01*
X53110358Y-37478347D01*
X53075995Y-37503486D01*
X53046387Y-37525231D01*
X53022245Y-37543068D01*
X53004277Y-37556484D01*
X52993193Y-37564967D01*
X52989685Y-37567977D01*
X52857171Y-37567977D01*
X52909940Y-37529713D01*
X52970092Y-37486069D01*
X52976015Y-37481770D01*
X52994560Y-37468307D01*
X53056900Y-37423045D01*
X53120979Y-37376523D01*
X53185777Y-37329477D01*
X53250273Y-37282652D01*
X53313448Y-37236787D01*
X53374281Y-37192625D01*
X53431752Y-37150901D01*
X53484841Y-37112361D01*
X53532529Y-37077743D01*
X53573795Y-37047789D01*
X53600350Y-37028514D01*
X53620395Y-37014042D01*
X53762616Y-37014042D01*
X53764536Y-37019507D01*
X53768526Y-37025434D01*
X53777362Y-37031936D01*
X53783408Y-37031783D01*
X53789849Y-37027958D01*
X53803096Y-37019105D01*
X53821752Y-37006192D01*
X53844420Y-36990186D01*
X53869705Y-36972058D01*
X53873042Y-36969646D01*
X53903652Y-36947185D01*
X53926451Y-36929557D01*
X53942106Y-36915993D01*
X53951284Y-36905725D01*
X53954652Y-36897987D01*
X53952876Y-36892012D01*
X53946623Y-36887027D01*
X53945383Y-36886341D01*
X53940335Y-36884356D01*
X53934584Y-36884296D01*
X53926940Y-36886822D01*
X53916213Y-36892597D01*
X53901210Y-36902285D01*
X53880741Y-36916547D01*
X53853617Y-36936046D01*
X53845527Y-36941911D01*
X53816142Y-36963306D01*
X53794137Y-36979701D01*
X53778647Y-36992034D01*
X53768806Y-37001244D01*
X53763750Y-37008267D01*
X53762616Y-37014042D01*
X53620395Y-37014042D01*
X53663322Y-36983049D01*
X53719246Y-36943235D01*
X53748199Y-36923020D01*
X53769069Y-36908449D01*
X53813739Y-36878070D01*
X53854204Y-36851481D01*
X53891412Y-36828059D01*
X53926309Y-36807186D01*
X53934584Y-36802511D01*
X53959844Y-36788242D01*
X53992964Y-36770606D01*
X54000400Y-36766784D01*
X54031514Y-36751398D01*
X54069071Y-36733648D01*
X54111229Y-36714335D01*
X54156152Y-36694258D01*
X54202001Y-36674216D01*
X54246936Y-36655008D01*
X54289121Y-36637435D01*
X54326715Y-36622296D01*
X54357880Y-36610389D01*
X54370010Y-36606061D01*
X54380188Y-36602612D01*
X54387439Y-36600714D01*
X54391311Y-36601136D01*
G37*
D18*
X53304999Y-58370000D02*
X53454999Y-58370000D01*
X53304999Y-61290000D02*
X53304999Y-58370000D01*
X53454999Y-58370000D02*
X53454999Y-61290000D01*
X53454999Y-61290000D02*
X53304999Y-61290000D01*
X55054999Y-61330000D02*
X53804999Y-61330000D01*
D16*
X53594999Y-56491253D02*
X53594999Y-55968747D01*
X55064999Y-56491253D02*
X55064999Y-55968747D01*
X51544999Y-63252935D02*
X51544999Y-63707063D01*
X53014999Y-63252935D02*
X53014999Y-63707063D01*
X55400000Y-51007500D02*
X55400000Y-53692499D01*
X57320000Y-51007500D02*
X55400000Y-51007500D01*
X57320000Y-53692499D02*
X57320000Y-51007500D01*
D14*
X33150001Y-72730002D02*
X33150001Y-78614001D01*
X33150001Y-72730002D02*
X33900002Y-72730002D01*
X33150001Y-78614001D02*
X33900002Y-78614001D01*
X33900002Y-69430001D02*
X33900002Y-83929999D01*
X34500001Y-86104999D02*
X34500001Y-83930000D01*
X37600000Y-86104999D02*
X34500001Y-86104999D01*
X37600000Y-86104999D02*
X37600000Y-83930000D01*
X38000002Y-86104999D02*
X38000002Y-83930000D01*
X41100001Y-86104999D02*
X38000002Y-86104999D01*
X41100001Y-86104999D02*
X41100001Y-83930000D01*
X41500002Y-86104999D02*
X41500002Y-83930000D01*
X44600001Y-86104999D02*
X41500002Y-86104999D01*
X44600001Y-86104999D02*
X44600001Y-83930000D01*
X45899998Y-69430001D02*
X33900002Y-69430001D01*
X45899998Y-83929999D02*
X33900002Y-83929999D01*
X45899998Y-83929999D02*
X45899998Y-69430001D01*
D15*
X36731000Y-71579999D02*
G75*
G02*
X35969000Y-71579999I-381000J0D01*
G01*
X35969000Y-71579999D02*
G75*
G02*
X36731000Y-71579999I381000J0D01*
G01*
D16*
X51319999Y-65929999D02*
X51319999Y-68614998D01*
X51319999Y-68614998D02*
X53239999Y-68614998D01*
X53239999Y-68614998D02*
X53239999Y-65929999D01*
D17*
G36*
X31666922Y-35841013D02*
G01*
X32273997Y-36013395D01*
X32273997Y-36908299D01*
X32273997Y-37803202D01*
X32164723Y-37774810D01*
X32073210Y-37750633D01*
X31913234Y-37707989D01*
X31710126Y-37653641D01*
X31557649Y-37612737D01*
X31059848Y-37479057D01*
X31059848Y-36573844D01*
X31059848Y-35668632D01*
X31666922Y-35841013D01*
G37*
G36*
X31193404Y-66273646D02*
G01*
X31297571Y-66300032D01*
X31466659Y-66346167D01*
X31672447Y-66404269D01*
X31788337Y-66437717D01*
X32249714Y-66571953D01*
X32262940Y-67453116D01*
X32276166Y-68334279D01*
X31922978Y-68237084D01*
X31704242Y-68176418D01*
X31480874Y-68113718D01*
X31314819Y-68066451D01*
X31059848Y-67993012D01*
X31059848Y-67118412D01*
X31059848Y-66243812D01*
X31193404Y-66273646D01*
G37*
G36*
X31200609Y-30344370D02*
G01*
X31299420Y-30406955D01*
X31456813Y-30506173D01*
X31649062Y-30627082D01*
X31805858Y-30725526D01*
X32270344Y-31016921D01*
X32272171Y-33165965D01*
X32271754Y-33612378D01*
X32269830Y-34027477D01*
X32266557Y-34401481D01*
X32262090Y-34724609D01*
X32256588Y-34987078D01*
X32250209Y-35179106D01*
X32243110Y-35290912D01*
X32237571Y-35316252D01*
X32179176Y-35304376D01*
X32046780Y-35271102D01*
X31859840Y-35221483D01*
X31637814Y-35160577D01*
X31630498Y-35158540D01*
X31059848Y-34999585D01*
X31059848Y-32627098D01*
X31059848Y-30254610D01*
X31200609Y-30344370D01*
G37*
G36*
X31654781Y-69066524D02*
G01*
X32249714Y-69452280D01*
X32249714Y-71117966D01*
X32249714Y-72783652D01*
X32118845Y-73006261D01*
X31953538Y-73236065D01*
X31751336Y-73438980D01*
X31533025Y-73599323D01*
X31319390Y-73701417D01*
X31158539Y-73730688D01*
X31136679Y-73729020D01*
X31118311Y-73718829D01*
X31103132Y-73692340D01*
X31090838Y-73641775D01*
X31081125Y-73559358D01*
X31073686Y-73437312D01*
X31068223Y-73267860D01*
X31064427Y-73043225D01*
X31061996Y-72755631D01*
X31060625Y-72397300D01*
X31060013Y-71960456D01*
X31059853Y-71437322D01*
X31059848Y-71205728D01*
X31059848Y-68680767D01*
X31654781Y-69066524D01*
G37*
G36*
X31411570Y-43868464D02*
G01*
X31630216Y-43929106D01*
X31853554Y-43991799D01*
X32019025Y-44038903D01*
X32273997Y-44112341D01*
X32273997Y-44964623D01*
X32273997Y-45816905D01*
X31796096Y-46333165D01*
X31318197Y-46849427D01*
X31795447Y-47456501D01*
X32272694Y-48063575D01*
X32273345Y-48974187D01*
X32271708Y-49259418D01*
X32266760Y-49507945D01*
X32259092Y-49704783D01*
X32249294Y-49834947D01*
X32237955Y-49883450D01*
X32237571Y-49883486D01*
X32179191Y-49870169D01*
X32047225Y-49834888D01*
X31861303Y-49783022D01*
X31642639Y-49720412D01*
X31084131Y-49558650D01*
X31071608Y-46665057D01*
X31059086Y-43771464D01*
X31411570Y-43868464D01*
G37*
G36*
X31193404Y-39157577D02*
G01*
X31280336Y-39236332D01*
X31420527Y-39363214D01*
X31595181Y-39521215D01*
X31785500Y-39693327D01*
X31800479Y-39706870D01*
X32273997Y-40135001D01*
X32273997Y-41050849D01*
X32273702Y-41369824D01*
X32271792Y-41604935D01*
X32266725Y-41769448D01*
X32256960Y-41876633D01*
X32240956Y-41939755D01*
X32217171Y-41972083D01*
X32184065Y-41986884D01*
X32164723Y-41991588D01*
X31933513Y-42043323D01*
X31696707Y-42094740D01*
X31474975Y-42141534D01*
X31288986Y-42179404D01*
X31159411Y-42204045D01*
X31108929Y-42211376D01*
X31093772Y-42163151D01*
X31081330Y-42019761D01*
X31071661Y-41783139D01*
X31064825Y-41455216D01*
X31060881Y-41037925D01*
X31059848Y-40623896D01*
X31059848Y-39036416D01*
X31193404Y-39157577D01*
G37*
G36*
X31140165Y-74241354D02*
G01*
X31255863Y-74310030D01*
X31421810Y-74412865D01*
X31622494Y-74540345D01*
X31697769Y-74588832D01*
X32273997Y-74961319D01*
X32273997Y-77114264D01*
X32273732Y-77560957D01*
X32272975Y-77976230D01*
X32271780Y-78350328D01*
X32270203Y-78673498D01*
X32268298Y-78935985D01*
X32266121Y-79128034D01*
X32263726Y-79239892D01*
X32261855Y-79265309D01*
X32213158Y-79252547D01*
X32089051Y-79219097D01*
X31907811Y-79169907D01*
X31687717Y-79109924D01*
X31666922Y-79104245D01*
X31084131Y-78945083D01*
X31071527Y-76580715D01*
X31069650Y-76111852D01*
X31069101Y-75673891D01*
X31069805Y-75276151D01*
X31071690Y-74927950D01*
X31074681Y-74638607D01*
X31078703Y-74417439D01*
X31083687Y-74273765D01*
X31089554Y-74216903D01*
X31090232Y-74216348D01*
X31140165Y-74241354D01*
G37*
G36*
X27301488Y-65226264D02*
G01*
X27431362Y-65253195D01*
X27621710Y-65299371D01*
X27856123Y-65360892D01*
X28013411Y-65404196D01*
X28317409Y-65489223D01*
X28680305Y-65590572D01*
X29067412Y-65698565D01*
X29444041Y-65803523D01*
X29663576Y-65864636D01*
X30574188Y-66117992D01*
X30574188Y-67003501D01*
X30574188Y-67889009D01*
X28915795Y-67434514D01*
X28531309Y-67329271D01*
X28177396Y-67232642D01*
X27864739Y-67147526D01*
X27604019Y-67076819D01*
X27405919Y-67023420D01*
X27281117Y-66990226D01*
X27240269Y-66980019D01*
X27233221Y-66934569D01*
X27228096Y-66810645D01*
X27224806Y-66626883D01*
X27223263Y-66401918D01*
X27223382Y-66154389D01*
X27225075Y-65902930D01*
X27228252Y-65666178D01*
X27232829Y-65462771D01*
X27238719Y-65311343D01*
X27245832Y-65230532D01*
X27248498Y-65222472D01*
X27301488Y-65226264D01*
G37*
G36*
X31223553Y-60649462D02*
G01*
X31381255Y-60733740D01*
X31558998Y-60854994D01*
X31732322Y-60997510D01*
X31797240Y-61059249D01*
X31944073Y-61227604D01*
X32079111Y-61418373D01*
X32154274Y-61552626D01*
X32273048Y-61807744D01*
X32273521Y-63713958D01*
X32272908Y-64223788D01*
X32270660Y-64642990D01*
X32266582Y-64978057D01*
X32260480Y-65235482D01*
X32252159Y-65421759D01*
X32241426Y-65543380D01*
X32228084Y-65606839D01*
X32216387Y-65620172D01*
X32143671Y-65607978D01*
X32006069Y-65575864D01*
X31832113Y-65530532D01*
X31815718Y-65526051D01*
X31609539Y-65469941D01*
X31408338Y-65415931D01*
X31266253Y-65378482D01*
X31059848Y-65325032D01*
X31059848Y-62971455D01*
X31060791Y-62354831D01*
X31063641Y-61833986D01*
X31068425Y-61407584D01*
X31075172Y-61074290D01*
X31083911Y-60832768D01*
X31094671Y-60681683D01*
X31107481Y-60619700D01*
X31110348Y-60617877D01*
X31223553Y-60649462D01*
G37*
G36*
X31120555Y-50012640D02*
G01*
X31182280Y-50051533D01*
X31308316Y-50132227D01*
X31481477Y-50243680D01*
X31684575Y-50374850D01*
X31727630Y-50402706D01*
X32273997Y-50756331D01*
X32273997Y-52894561D01*
X32273197Y-53339746D01*
X32270910Y-53753535D01*
X32267302Y-54126132D01*
X32262541Y-54447740D01*
X32256791Y-54708560D01*
X32250224Y-54898797D01*
X32243002Y-55008653D01*
X32237571Y-55032482D01*
X32178790Y-55020658D01*
X32046102Y-54988731D01*
X31859453Y-54941632D01*
X31648255Y-54886784D01*
X31430815Y-54829979D01*
X31250461Y-54783568D01*
X31126299Y-54752421D01*
X31077605Y-54741396D01*
X31074097Y-54694377D01*
X31070819Y-54559509D01*
X31067840Y-54346077D01*
X31065229Y-54063360D01*
X31063056Y-53720645D01*
X31061390Y-53327213D01*
X31060299Y-52892347D01*
X31059854Y-52425331D01*
X31059848Y-52358797D01*
X31060305Y-51797963D01*
X31061793Y-51327622D01*
X31064483Y-50941135D01*
X31068546Y-50631868D01*
X31074155Y-50393183D01*
X31081480Y-50218445D01*
X31090694Y-50101016D01*
X31101969Y-50034261D01*
X31115476Y-50011543D01*
X31120555Y-50012640D01*
G37*
G36*
X27291433Y-34695600D02*
G01*
X27424227Y-34729577D01*
X27629444Y-34782785D01*
X27896344Y-34852417D01*
X28214187Y-34935676D01*
X28572232Y-35029758D01*
X28917596Y-35120745D01*
X29302760Y-35222166D01*
X29657570Y-35315260D01*
X29971241Y-35397224D01*
X30232985Y-35465253D01*
X30432018Y-35516544D01*
X30557554Y-35548292D01*
X30598738Y-35557839D01*
X30606311Y-35603885D01*
X30612904Y-35731944D01*
X30618111Y-35926902D01*
X30621529Y-36173637D01*
X30622754Y-36456310D01*
X30620888Y-36739500D01*
X30615698Y-36985860D01*
X30607798Y-37180310D01*
X30597798Y-37307772D01*
X30586329Y-37353164D01*
X30530742Y-37340005D01*
X30395954Y-37304129D01*
X30196178Y-37249438D01*
X29945626Y-37179834D01*
X29658510Y-37099220D01*
X29554303Y-37069775D01*
X28558700Y-36788001D01*
X28534416Y-37899750D01*
X28510134Y-39011499D01*
X27866635Y-38511507D01*
X27223136Y-38011515D01*
X27223136Y-36347583D01*
X27223660Y-35956535D01*
X27225149Y-35598180D01*
X27227480Y-35283626D01*
X27230524Y-35023982D01*
X27234161Y-34830356D01*
X27238264Y-34713856D01*
X27241803Y-34683652D01*
X27291433Y-34695600D01*
G37*
G36*
X27295663Y-29693849D02*
G01*
X27426894Y-29728866D01*
X27625086Y-29782723D01*
X27876958Y-29851734D01*
X28169226Y-29932215D01*
X28488605Y-30020480D01*
X28821814Y-30112842D01*
X29155570Y-30205618D01*
X29476587Y-30295120D01*
X29771586Y-30377664D01*
X30027282Y-30449564D01*
X30230390Y-30507135D01*
X30367628Y-30546691D01*
X30416348Y-30561356D01*
X30574188Y-30611643D01*
X30574188Y-32744780D01*
X30573310Y-33189430D01*
X30570798Y-33602686D01*
X30566835Y-33974735D01*
X30561606Y-34295767D01*
X30555294Y-34555971D01*
X30548082Y-34745538D01*
X30540154Y-34854655D01*
X30534273Y-34877916D01*
X30467539Y-34863876D01*
X30344808Y-34828369D01*
X30279302Y-34807515D01*
X30131474Y-34760524D01*
X29927748Y-34697561D01*
X29705397Y-34630110D01*
X29640150Y-34610573D01*
X29216056Y-34484033D01*
X29203057Y-33313335D01*
X29190058Y-32142637D01*
X28291587Y-31893284D01*
X28005999Y-31813562D01*
X27748792Y-31740896D01*
X27536138Y-31679921D01*
X27384211Y-31635277D01*
X27309183Y-31611605D01*
X27308127Y-31611205D01*
X27278748Y-31592094D01*
X27256985Y-31551973D01*
X27241716Y-31477889D01*
X27231819Y-31356889D01*
X27226173Y-31176019D01*
X27223655Y-30922327D01*
X27223136Y-30629918D01*
X27224183Y-30338364D01*
X27227102Y-30083106D01*
X27231560Y-29878858D01*
X27237219Y-29740330D01*
X27243749Y-29682236D01*
X27244678Y-29681357D01*
X27295663Y-29693849D01*
G37*
G36*
X27343650Y-49412049D02*
G01*
X27485932Y-49446838D01*
X27699407Y-49501160D01*
X27972793Y-49572087D01*
X28294806Y-49656701D01*
X28654163Y-49752078D01*
X28947228Y-49830481D01*
X30549905Y-50260682D01*
X30562541Y-52420608D01*
X30575177Y-54580535D01*
X29906901Y-54403492D01*
X29238624Y-54226447D01*
X29225653Y-53035912D01*
X29212683Y-51845376D01*
X28958541Y-51780923D01*
X28804056Y-51740479D01*
X28684468Y-51706910D01*
X28643691Y-51693909D01*
X28623902Y-51706631D01*
X28608632Y-51767349D01*
X28597401Y-51885127D01*
X28589732Y-52069033D01*
X28585143Y-52328131D01*
X28583157Y-52671487D01*
X28582983Y-52842127D01*
X28581810Y-53167751D01*
X28578515Y-53458548D01*
X28573431Y-53701276D01*
X28566895Y-53882692D01*
X28559242Y-53989553D01*
X28553358Y-54012906D01*
X28497998Y-54000866D01*
X28367187Y-53967892D01*
X28179154Y-53918699D01*
X27952131Y-53858005D01*
X27896359Y-53842925D01*
X27663670Y-53780319D01*
X27466506Y-53728102D01*
X27322852Y-53690975D01*
X27250695Y-53673638D01*
X27246062Y-53672944D01*
X27241286Y-53626012D01*
X27236849Y-53491751D01*
X27232853Y-53279962D01*
X27229404Y-53000448D01*
X27226607Y-52663011D01*
X27224567Y-52277453D01*
X27223391Y-51853576D01*
X27223136Y-51536042D01*
X27223690Y-51003322D01*
X27225482Y-50560758D01*
X27228711Y-50201380D01*
X27233575Y-49918216D01*
X27240272Y-49704298D01*
X27249001Y-49552653D01*
X27259958Y-49456312D01*
X27273343Y-49408305D01*
X27283844Y-49399710D01*
X27343650Y-49412049D01*
G37*
G36*
X27328190Y-68073592D02*
G01*
X27401006Y-68093754D01*
X27555221Y-68137531D01*
X27778932Y-68201510D01*
X28060244Y-68282275D01*
X28387257Y-68376414D01*
X28748072Y-68480511D01*
X28995794Y-68552100D01*
X30549906Y-69001518D01*
X30563112Y-69907121D01*
X30576316Y-70812725D01*
X30344564Y-70742570D01*
X29853310Y-70594790D01*
X29449180Y-70475348D01*
X29126845Y-70382800D01*
X28880974Y-70315695D01*
X28706243Y-70272586D01*
X28597320Y-70252026D01*
X28548877Y-70252564D01*
X28546788Y-70254064D01*
X28527644Y-70318757D01*
X28514675Y-70450080D01*
X28510921Y-70592826D01*
X28557664Y-70927908D01*
X28686934Y-71256800D01*
X28884885Y-71561186D01*
X29137671Y-71822752D01*
X29431447Y-72023183D01*
X29666263Y-72121119D01*
X29889836Y-72179536D01*
X30136002Y-72228793D01*
X30270651Y-72248424D01*
X30574188Y-72283246D01*
X30574188Y-73055533D01*
X30574188Y-73827820D01*
X30343500Y-73827453D01*
X30009546Y-73805538D01*
X29636993Y-73746143D01*
X29273015Y-73657364D01*
X29174232Y-73626764D01*
X28858611Y-73491930D01*
X28531272Y-73297444D01*
X28213109Y-73060547D01*
X27925017Y-72798483D01*
X27687891Y-72528490D01*
X27522626Y-72267814D01*
X27519458Y-72261280D01*
X27453991Y-72121096D01*
X27400346Y-71991731D01*
X27357203Y-71861627D01*
X27323239Y-71719225D01*
X27297132Y-71552968D01*
X27277561Y-71351297D01*
X27263204Y-71102656D01*
X27252739Y-70795487D01*
X27244844Y-70418230D01*
X27238198Y-69959329D01*
X27235988Y-69782719D01*
X27214697Y-68044501D01*
X27328190Y-68073592D01*
G37*
G36*
X27343292Y-73613064D02*
G01*
X27485878Y-73652091D01*
X27699831Y-73709924D01*
X27973882Y-73783535D01*
X28296768Y-73869896D01*
X28657222Y-73965980D01*
X28959370Y-74046301D01*
X30574188Y-74475069D01*
X30574188Y-76628309D01*
X30573923Y-77075098D01*
X30573167Y-77490520D01*
X30571971Y-77864814D01*
X30570394Y-78188217D01*
X30568489Y-78450966D01*
X30566312Y-78643301D01*
X30563917Y-78755458D01*
X30562047Y-78781096D01*
X30513300Y-78769405D01*
X30387874Y-78737628D01*
X30203078Y-78690193D01*
X29976220Y-78631529D01*
X29897597Y-78611115D01*
X29660596Y-78549795D01*
X29459773Y-78498354D01*
X29312546Y-78461215D01*
X29236342Y-78442802D01*
X29229815Y-78441587D01*
X29225538Y-78395214D01*
X29221715Y-78264864D01*
X29218516Y-78063693D01*
X29216113Y-77804856D01*
X29214679Y-77501508D01*
X29214341Y-77255167D01*
X29214341Y-76068747D01*
X28951895Y-75992452D01*
X28797990Y-75950304D01*
X28679706Y-75922595D01*
X28636216Y-75916157D01*
X28617328Y-75954266D01*
X28602770Y-76071410D01*
X28592346Y-76271815D01*
X28585859Y-76559703D01*
X28583110Y-76939301D01*
X28582983Y-77057457D01*
X28582521Y-77419901D01*
X28580564Y-77696634D01*
X28576264Y-77899070D01*
X28568766Y-78038627D01*
X28557220Y-78126725D01*
X28540775Y-78174775D01*
X28518578Y-78194200D01*
X28497993Y-78196857D01*
X28420049Y-78183777D01*
X28269948Y-78149526D01*
X28069030Y-78099249D01*
X27838635Y-78038094D01*
X27830211Y-78035796D01*
X27247419Y-77876635D01*
X27234769Y-75725421D01*
X27232153Y-75194819D01*
X27231212Y-74754256D01*
X27232106Y-74396653D01*
X27234997Y-74114927D01*
X27240047Y-73902001D01*
X27247418Y-73750791D01*
X27257269Y-73654218D01*
X27269764Y-73605201D01*
X27283335Y-73595871D01*
X27343292Y-73613064D01*
G37*
G36*
X27349155Y-59561796D02*
G01*
X27490980Y-59595704D01*
X27688137Y-59646350D01*
X27921544Y-59708930D01*
X27987478Y-59727023D01*
X28631549Y-59904619D01*
X28632265Y-61317558D01*
X28632923Y-61760546D01*
X28635706Y-62116174D01*
X28642572Y-62394212D01*
X28655479Y-62604432D01*
X28676385Y-62756604D01*
X28707247Y-62860501D01*
X28750024Y-62925892D01*
X28806673Y-62962550D01*
X28879153Y-62980246D01*
X28967104Y-62988583D01*
X29109423Y-62986429D01*
X29213052Y-62962783D01*
X29233081Y-62949897D01*
X29254951Y-62879784D01*
X29274713Y-62719296D01*
X29291831Y-62475177D01*
X29305769Y-62154171D01*
X29311472Y-61963320D01*
X29321116Y-61631775D01*
X29331516Y-61382090D01*
X29344369Y-61198996D01*
X29361371Y-61067227D01*
X29384220Y-60971515D01*
X29414611Y-60896591D01*
X29433998Y-60860707D01*
X29594939Y-60676385D01*
X29825925Y-60547500D01*
X30113131Y-60480484D01*
X30268800Y-60472180D01*
X30574188Y-60472180D01*
X30573611Y-62159847D01*
X30572968Y-62665241D01*
X30570249Y-63083795D01*
X30563708Y-63425800D01*
X30551598Y-63701547D01*
X30532171Y-63921328D01*
X30503680Y-64095434D01*
X30464379Y-64234157D01*
X30412519Y-64347787D01*
X30346353Y-64446615D01*
X30264135Y-64540934D01*
X30164116Y-64641034D01*
X30150044Y-64654690D01*
X30001309Y-64793755D01*
X29885473Y-64880610D01*
X29768278Y-64933224D01*
X29615469Y-64969567D01*
X29516540Y-64986992D01*
X29065116Y-65019672D01*
X28642239Y-64959739D01*
X28244807Y-64806416D01*
X27894679Y-64578830D01*
X27728051Y-64432854D01*
X27599111Y-64277804D01*
X27480273Y-64078235D01*
X27433301Y-63985936D01*
X27247419Y-63609933D01*
X27233748Y-61579681D01*
X27230824Y-61064349D01*
X27229746Y-60638752D01*
X27230688Y-60295504D01*
X27233826Y-60027221D01*
X27239333Y-59826519D01*
X27247385Y-59686013D01*
X27258157Y-59598320D01*
X27271820Y-59556056D01*
X27281742Y-59549426D01*
X27349155Y-59561796D01*
G37*
G36*
X29906001Y-38223126D02*
G01*
X30573379Y-38738910D01*
X30573783Y-40520436D01*
X30573623Y-40984673D01*
X30572624Y-41361089D01*
X30570346Y-41658993D01*
X30566354Y-41887698D01*
X30560213Y-42056512D01*
X30551487Y-42174745D01*
X30539738Y-42251709D01*
X30524532Y-42296711D01*
X30505432Y-42319063D01*
X30489197Y-42326311D01*
X30419988Y-42342585D01*
X30269405Y-42375722D01*
X30051167Y-42422780D01*
X29778994Y-42480816D01*
X29466602Y-42546890D01*
X29177915Y-42607546D01*
X28847556Y-42677744D01*
X28550889Y-42742689D01*
X28300465Y-42799477D01*
X28108829Y-42845206D01*
X27988531Y-42876973D01*
X27951626Y-42891217D01*
X27996508Y-42910582D01*
X28123249Y-42951945D01*
X28319988Y-43011779D01*
X28574866Y-43086559D01*
X28876023Y-43172757D01*
X29211596Y-43266849D01*
X29262765Y-43281037D01*
X30573905Y-43644072D01*
X30574045Y-46542147D01*
X30574188Y-49440221D01*
X30222085Y-49339891D01*
X30080731Y-49299736D01*
X29862332Y-49237852D01*
X29583323Y-49158888D01*
X29260140Y-49067493D01*
X28909219Y-48968318D01*
X28558700Y-48869318D01*
X27247419Y-48499074D01*
X27234206Y-47589260D01*
X27231606Y-47304078D01*
X27232286Y-47055493D01*
X27235963Y-46858521D01*
X27242351Y-46728181D01*
X27251164Y-46679488D01*
X27251458Y-46679445D01*
X27304203Y-46691948D01*
X27438737Y-46727326D01*
X27643280Y-46782380D01*
X27906054Y-46853916D01*
X28215278Y-46938736D01*
X28559175Y-47033643D01*
X28683098Y-47067973D01*
X29037414Y-47165755D01*
X29362250Y-47254514D01*
X29645598Y-47331036D01*
X29875442Y-47392111D01*
X30039769Y-47434526D01*
X30126567Y-47455068D01*
X30136193Y-47456500D01*
X30125523Y-47421110D01*
X30062232Y-47323413D01*
X29955401Y-47176123D01*
X29814103Y-46991955D01*
X29718346Y-46871270D01*
X29248579Y-46286040D01*
X29412810Y-46106356D01*
X29523446Y-45987204D01*
X29674426Y-45827060D01*
X29838546Y-45654729D01*
X29890822Y-45600230D01*
X30024608Y-45457015D01*
X30125100Y-45341643D01*
X30178581Y-45270293D01*
X30182991Y-45255680D01*
X30132610Y-45238565D01*
X30000116Y-45198653D01*
X29796953Y-45139253D01*
X29534567Y-45063672D01*
X29224402Y-44975218D01*
X28877906Y-44877199D01*
X28704398Y-44828385D01*
X27247419Y-44419197D01*
X27247419Y-43715956D01*
X27247419Y-43012715D01*
X27450133Y-42963795D01*
X27608596Y-42919386D01*
X27671393Y-42882030D01*
X27639146Y-42846020D01*
X27512478Y-42805650D01*
X27468588Y-42794796D01*
X27223136Y-42735914D01*
X27223351Y-41951561D01*
X27223567Y-41167208D01*
X28218274Y-40927687D01*
X29212982Y-40688164D01*
X29225803Y-39197753D01*
X29238624Y-37707341D01*
X29906001Y-38223126D01*
G37*
D16*
X55569998Y-60150000D02*
X55569999Y-59350000D01*
X55569998Y-60150000D02*
X55569999Y-60950000D01*
X58690000Y-60150000D02*
X58689999Y-59350000D01*
X58690000Y-60150000D02*
X58689999Y-60950000D01*
X58969999Y-59090000D02*
X58639999Y-58850000D01*
X58969999Y-58610000D01*
X58969999Y-59090000D01*
G36*
X58969999Y-59090000D02*
G01*
X58639999Y-58850000D01*
X58969999Y-58610000D01*
X58969999Y-59090000D01*
G37*
D14*
X59350001Y-27560003D02*
X59350001Y-57059996D01*
X59350001Y-57059996D02*
X73849999Y-57059996D01*
X62650002Y-57809996D02*
X62650002Y-57059997D01*
X62650002Y-57809996D02*
X68534001Y-57809996D01*
X68534001Y-57809996D02*
X68534001Y-57059997D01*
X73849999Y-27560003D02*
X59350001Y-27560003D01*
X73849999Y-27560003D02*
X73849999Y-57059996D01*
X76024999Y-28859993D02*
X73850000Y-28859993D01*
X76024999Y-28859993D02*
X76024999Y-31959992D01*
X76024999Y-31959992D02*
X73850000Y-31959992D01*
X76024999Y-32359993D02*
X73850000Y-32359993D01*
X76024999Y-32359993D02*
X76024999Y-35459992D01*
X76024999Y-35459992D02*
X73850000Y-35459992D01*
X76024999Y-35859994D02*
X73850000Y-35859994D01*
X76024999Y-35859994D02*
X76024999Y-38959993D01*
X76024999Y-38959993D02*
X73850000Y-38959993D01*
X76024999Y-39359995D02*
X73850000Y-39359995D01*
X76024999Y-39359995D02*
X76024999Y-42459993D01*
X76024999Y-42459993D02*
X73850000Y-42459993D01*
X76024999Y-42859995D02*
X73850000Y-42859995D01*
X76024999Y-42859995D02*
X76024999Y-45959994D01*
X76024999Y-45959994D02*
X73850000Y-45959994D01*
X76024999Y-46359996D02*
X73850000Y-46359996D01*
X76024999Y-46359996D02*
X76024999Y-49459995D01*
X76024999Y-49459995D02*
X73850000Y-49459995D01*
X76024999Y-49859996D02*
X73850000Y-49859996D01*
X76024999Y-49859996D02*
X76024999Y-52959995D01*
X76024999Y-52959995D02*
X73850000Y-52959995D01*
X76024999Y-53359997D02*
X73850000Y-53359997D01*
X76024999Y-53359997D02*
X76024999Y-56459996D01*
X76024999Y-56459996D02*
X73850000Y-56459996D01*
D15*
X61980999Y-54610000D02*
G75*
G02*
X61219001Y-54610000I-380999J0D01*
G01*
X61219001Y-54610000D02*
G75*
G02*
X61980999Y-54610000I380999J0D01*
G01*
D16*
X53544999Y-63218746D02*
X53544999Y-63741252D01*
X55014999Y-63218746D02*
X55014999Y-63741252D01*
D14*
X46990001Y-72730002D02*
X46990001Y-78614001D01*
X46990001Y-72730002D02*
X47740002Y-72730002D01*
X46990001Y-78614001D02*
X47740002Y-78614001D01*
X47740002Y-69430001D02*
X47740002Y-83929999D01*
X48340001Y-86104999D02*
X48340001Y-83930000D01*
X51440000Y-86104999D02*
X48340001Y-86104999D01*
X51440000Y-86104999D02*
X51440000Y-83930000D01*
X51840002Y-86104999D02*
X51840002Y-83930000D01*
X54940001Y-86104999D02*
X51840002Y-86104999D01*
X54940001Y-86104999D02*
X54940001Y-83930000D01*
X55340002Y-86104999D02*
X55340002Y-83930000D01*
X58440001Y-86104999D02*
X55340002Y-86104999D01*
X58440001Y-86104999D02*
X58440001Y-83930000D01*
X59739998Y-69430001D02*
X47740002Y-69430001D01*
X59739998Y-83929999D02*
X47740002Y-83929999D01*
X59739998Y-83929999D02*
X59739998Y-69430001D01*
D15*
X50571000Y-71579999D02*
G75*
G02*
X49809000Y-71579999I-381000J0D01*
G01*
X49809000Y-71579999D02*
G75*
G02*
X50571000Y-71579999I381000J0D01*
G01*
%LPC*%
D19*
X78740000Y-85090000D03*
D20*
X63500000Y-64770000D03*
X68500000Y-64770000D03*
X63500000Y-61270000D03*
X68500000Y-61270000D03*
X64195000Y-73580000D03*
X64195000Y-78580000D03*
X67695000Y-73580000D03*
X67695000Y-78580000D03*
X71195001Y-73580000D03*
X71195001Y-78580000D03*
D21*
X56360000Y-57154999D03*
X56360000Y-55329999D03*
D22*
X54430000Y-60780000D03*
X54430000Y-58880000D03*
X52329999Y-59830000D03*
D23*
X54329999Y-57179999D03*
X54329999Y-55280001D03*
D19*
X29210000Y-85090000D03*
D24*
X52279999Y-62567499D03*
X52279999Y-64392499D03*
D25*
X56360000Y-51754998D03*
X56360000Y-53630000D03*
D20*
X36350000Y-73580000D03*
X36350000Y-78580000D03*
X39850000Y-73580000D03*
X39850000Y-78580000D03*
X43350001Y-73580000D03*
X43350001Y-78580000D03*
D26*
X52279999Y-67867500D03*
X52279999Y-65992498D03*
D27*
X58079998Y-59012500D03*
X56180000Y-59012500D03*
X57129999Y-61287500D03*
D20*
X63500000Y-54610000D03*
X68500000Y-54610000D03*
X63500000Y-51110000D03*
X68499999Y-51109999D03*
X63500000Y-47609998D03*
X68500000Y-47609998D03*
X63500000Y-44109997D03*
X68500000Y-44109997D03*
X63500000Y-40609997D03*
X68500000Y-40609997D03*
X63500000Y-37109997D03*
X68500000Y-37109997D03*
X63500000Y-33609996D03*
X68500000Y-33609996D03*
X63500000Y-30109995D03*
X68500000Y-30109995D03*
D28*
X54279999Y-62530000D03*
X54279999Y-64429998D03*
D20*
X50190000Y-73580000D03*
X50190000Y-78580000D03*
X53690000Y-73580000D03*
X53690000Y-78580000D03*
X57190001Y-73580000D03*
X57190001Y-78580000D03*
D19*
X53975000Y-29210000D03*
%LPD*%
M02*
