G04 #@! TF.GenerationSoftware,KiCad,Pcbnew,7.0.7*
G04 #@! TF.CreationDate,2023-09-05T10:53:39-07:00*
G04 #@! TF.ProjectId,Memory Board,4d656d6f-7279-4204-926f-6172642e6b69,rev?*
G04 #@! TF.SameCoordinates,Original*
G04 #@! TF.FileFunction,Soldermask,Bot*
G04 #@! TF.FilePolarity,Negative*
%FSLAX46Y46*%
G04 Gerber Fmt 4.6, Leading zero omitted, Abs format (unit mm)*
G04 Created by KiCad (PCBNEW 7.0.7) date 2023-09-05 10:53:39*
%MOMM*%
%LPD*%
G01*
G04 APERTURE LIST*
G04 Aperture macros list*
%AMRoundRect*
0 Rectangle with rounded corners*
0 $1 Rounding radius*
0 $2 $3 $4 $5 $6 $7 $8 $9 X,Y pos of 4 corners*
0 Add a 4 corners polygon primitive as box body*
4,1,4,$2,$3,$4,$5,$6,$7,$8,$9,$2,$3,0*
0 Add four circle primitives for the rounded corners*
1,1,$1+$1,$2,$3*
1,1,$1+$1,$4,$5*
1,1,$1+$1,$6,$7*
1,1,$1+$1,$8,$9*
0 Add four rect primitives between the rounded corners*
20,1,$1+$1,$2,$3,$4,$5,0*
20,1,$1+$1,$4,$5,$6,$7,0*
20,1,$1+$1,$6,$7,$8,$9,0*
20,1,$1+$1,$8,$9,$2,$3,0*%
%AMFreePoly0*
4,1,19,0.500000,-0.750000,0.000000,-0.750000,0.000000,-0.744911,-0.071157,-0.744911,-0.207708,-0.704816,-0.327430,-0.627875,-0.420627,-0.520320,-0.479746,-0.390866,-0.500000,-0.250000,-0.500000,0.250000,-0.479746,0.390866,-0.420627,0.520320,-0.327430,0.627875,-0.207708,0.704816,-0.071157,0.744911,0.000000,0.744911,0.000000,0.750000,0.500000,0.750000,0.500000,-0.750000,0.500000,-0.750000,
$1*%
%AMFreePoly1*
4,1,19,0.000000,0.744911,0.071157,0.744911,0.207708,0.704816,0.327430,0.627875,0.420627,0.520320,0.479746,0.390866,0.500000,0.250000,0.500000,-0.250000,0.479746,-0.390866,0.420627,-0.520320,0.327430,-0.627875,0.207708,-0.704816,0.071157,-0.744911,0.000000,-0.744911,0.000000,-0.750000,-0.500000,-0.750000,-0.500000,0.750000,0.000000,0.750000,0.000000,0.744911,0.000000,0.744911,
$1*%
G04 Aperture macros list end*
%ADD10C,3.600000*%
%ADD11C,6.400000*%
%ADD12C,0.660000*%
%ADD13O,1.000000X0.580000*%
%ADD14C,1.100000*%
%ADD15C,1.700000*%
%ADD16O,1.700000X1.700000*%
%ADD17R,1.700000X1.700000*%
%ADD18RoundRect,0.075000X-0.075000X0.662500X-0.075000X-0.662500X0.075000X-0.662500X0.075000X0.662500X0*%
%ADD19RoundRect,0.075000X-0.662500X0.075000X-0.662500X-0.075000X0.662500X-0.075000X0.662500X0.075000X0*%
%ADD20FreePoly0,90.000000*%
%ADD21FreePoly1,90.000000*%
G04 APERTURE END LIST*
D10*
X30480000Y-58420000D03*
D11*
X30480000Y-58420000D03*
D10*
X30480000Y-30480000D03*
D11*
X30480000Y-30480000D03*
D12*
X46199400Y-57759600D03*
D13*
X53699400Y-57759600D03*
D14*
X47549400Y-55609600D03*
X47549400Y-59909600D03*
X52349400Y-55609600D03*
X52349400Y-59909600D03*
D15*
X35480000Y-59090000D03*
D16*
X38020000Y-59090000D03*
D17*
X40560000Y-59090000D03*
D16*
X43100000Y-59090000D03*
D17*
X43080000Y-56230000D03*
X40540000Y-56230000D03*
D16*
X38000000Y-56230000D03*
X35460000Y-56230000D03*
D17*
X43090000Y-61970000D03*
D16*
X40550000Y-61970000D03*
X38010000Y-61970000D03*
X35470000Y-61970000D03*
D18*
X43330800Y-36758500D03*
X43830800Y-36758500D03*
X44330800Y-36758500D03*
X44830800Y-36758500D03*
X45330800Y-36758500D03*
X45830800Y-36758500D03*
X46330800Y-36758500D03*
X46830800Y-36758500D03*
X47330800Y-36758500D03*
X47830800Y-36758500D03*
X48330800Y-36758500D03*
X48830800Y-36758500D03*
D19*
X50243300Y-38171000D03*
X50243300Y-38671000D03*
X50243300Y-39171000D03*
X50243300Y-39671000D03*
X50243300Y-40171000D03*
X50243300Y-40671000D03*
X50243300Y-41171000D03*
X50243300Y-41671000D03*
X50243300Y-42171000D03*
X50243300Y-42671000D03*
X50243300Y-43171000D03*
X50243300Y-43671000D03*
D18*
X48830800Y-45083500D03*
X48330800Y-45083500D03*
X47830800Y-45083500D03*
X47330800Y-45083500D03*
X46830800Y-45083500D03*
X46330800Y-45083500D03*
X45830800Y-45083500D03*
X45330800Y-45083500D03*
X44830800Y-45083500D03*
X44330800Y-45083500D03*
X43830800Y-45083500D03*
X43330800Y-45083500D03*
D19*
X41918300Y-43671000D03*
X41918300Y-43171000D03*
X41918300Y-42671000D03*
X41918300Y-42171000D03*
X41918300Y-41671000D03*
X41918300Y-41171000D03*
X41918300Y-40671000D03*
X41918300Y-40171000D03*
X41918300Y-39671000D03*
X41918300Y-39171000D03*
X41918300Y-38671000D03*
X41918300Y-38171000D03*
D20*
X31521399Y-41633999D03*
D21*
X31521399Y-40333999D03*
M02*
