G04 #@! TF.GenerationSoftware,KiCad,Pcbnew,7.0.7*
G04 #@! TF.CreationDate,2023-09-06T22:46:29-07:00*
G04 #@! TF.ProjectId,Memory Board,4d656d6f-7279-4204-926f-6172642e6b69,rev?*
G04 #@! TF.SameCoordinates,Original*
G04 #@! TF.FileFunction,Copper,L1,Top*
G04 #@! TF.FilePolarity,Positive*
%FSLAX46Y46*%
G04 Gerber Fmt 4.6, Leading zero omitted, Abs format (unit mm)*
G04 Created by KiCad (PCBNEW 7.0.7) date 2023-09-06 22:46:29*
%MOMM*%
%LPD*%
G01*
G04 APERTURE LIST*
G04 Aperture macros list*
%AMRoundRect*
0 Rectangle with rounded corners*
0 $1 Rounding radius*
0 $2 $3 $4 $5 $6 $7 $8 $9 X,Y pos of 4 corners*
0 Add a 4 corners polygon primitive as box body*
4,1,4,$2,$3,$4,$5,$6,$7,$8,$9,$2,$3,0*
0 Add four circle primitives for the rounded corners*
1,1,$1+$1,$2,$3*
1,1,$1+$1,$4,$5*
1,1,$1+$1,$6,$7*
1,1,$1+$1,$8,$9*
0 Add four rect primitives between the rounded corners*
20,1,$1+$1,$2,$3,$4,$5,0*
20,1,$1+$1,$4,$5,$6,$7,0*
20,1,$1+$1,$6,$7,$8,$9,0*
20,1,$1+$1,$8,$9,$2,$3,0*%
%AMFreePoly0*
4,1,19,0.550000,-0.750000,0.000000,-0.750000,0.000000,-0.744911,-0.071157,-0.744911,-0.207708,-0.704816,-0.327430,-0.627875,-0.420627,-0.520320,-0.479746,-0.390866,-0.500000,-0.250000,-0.500000,0.250000,-0.479746,0.390866,-0.420627,0.520320,-0.327430,0.627875,-0.207708,0.704816,-0.071157,0.744911,0.000000,0.744911,0.000000,0.750000,0.550000,0.750000,0.550000,-0.750000,0.550000,-0.750000,
$1*%
%AMFreePoly1*
4,1,19,0.000000,0.744911,0.071157,0.744911,0.207708,0.704816,0.327430,0.627875,0.420627,0.520320,0.479746,0.390866,0.500000,0.250000,0.500000,-0.250000,0.479746,-0.390866,0.420627,-0.520320,0.327430,-0.627875,0.207708,-0.704816,0.071157,-0.744911,0.000000,-0.744911,0.000000,-0.750000,-0.550000,-0.750000,-0.550000,0.750000,0.000000,0.750000,0.000000,0.744911,0.000000,0.744911,
$1*%
G04 Aperture macros list end*
G04 #@! TA.AperFunction,SMDPad,CuDef*
%ADD10RoundRect,0.160000X-0.160000X0.197500X-0.160000X-0.197500X0.160000X-0.197500X0.160000X0.197500X0*%
G04 #@! TD*
G04 #@! TA.AperFunction,SMDPad,CuDef*
%ADD11RoundRect,0.200000X-0.200000X-0.275000X0.200000X-0.275000X0.200000X0.275000X-0.200000X0.275000X0*%
G04 #@! TD*
G04 #@! TA.AperFunction,SMDPad,CuDef*
%ADD12RoundRect,0.140000X0.140000X0.170000X-0.140000X0.170000X-0.140000X-0.170000X0.140000X-0.170000X0*%
G04 #@! TD*
G04 #@! TA.AperFunction,SMDPad,CuDef*
%ADD13RoundRect,0.140000X-0.140000X-0.170000X0.140000X-0.170000X0.140000X0.170000X-0.140000X0.170000X0*%
G04 #@! TD*
G04 #@! TA.AperFunction,SMDPad,CuDef*
%ADD14RoundRect,0.225000X0.250000X-0.225000X0.250000X0.225000X-0.250000X0.225000X-0.250000X-0.225000X0*%
G04 #@! TD*
G04 #@! TA.AperFunction,ComponentPad*
%ADD15C,3.600000*%
G04 #@! TD*
G04 #@! TA.AperFunction,ConnectorPad*
%ADD16C,6.400000*%
G04 #@! TD*
G04 #@! TA.AperFunction,SMDPad,CuDef*
%ADD17RoundRect,0.200000X0.250000X-0.200000X0.250000X0.200000X-0.250000X0.200000X-0.250000X-0.200000X0*%
G04 #@! TD*
G04 #@! TA.AperFunction,SMDPad,CuDef*
%ADD18R,1.800000X0.800000*%
G04 #@! TD*
G04 #@! TA.AperFunction,SMDPad,CuDef*
%ADD19RoundRect,0.225000X-0.250000X0.225000X-0.250000X-0.225000X0.250000X-0.225000X0.250000X0.225000X0*%
G04 #@! TD*
G04 #@! TA.AperFunction,SMDPad,CuDef*
%ADD20RoundRect,0.135000X0.135000X0.185000X-0.135000X0.185000X-0.135000X-0.185000X0.135000X-0.185000X0*%
G04 #@! TD*
G04 #@! TA.AperFunction,SMDPad,CuDef*
%ADD21RoundRect,0.140000X0.170000X-0.140000X0.170000X0.140000X-0.170000X0.140000X-0.170000X-0.140000X0*%
G04 #@! TD*
G04 #@! TA.AperFunction,SMDPad,CuDef*
%ADD22R,0.300000X0.850000*%
G04 #@! TD*
G04 #@! TA.AperFunction,ComponentPad*
%ADD23C,1.100000*%
G04 #@! TD*
G04 #@! TA.AperFunction,SMDPad,CuDef*
%ADD24RoundRect,0.140000X-0.170000X0.140000X-0.170000X-0.140000X0.170000X-0.140000X0.170000X0.140000X0*%
G04 #@! TD*
G04 #@! TA.AperFunction,ComponentPad*
%ADD25C,1.700000*%
G04 #@! TD*
G04 #@! TA.AperFunction,ComponentPad*
%ADD26O,1.700000X1.700000*%
G04 #@! TD*
G04 #@! TA.AperFunction,ComponentPad*
%ADD27R,1.700000X1.700000*%
G04 #@! TD*
G04 #@! TA.AperFunction,SMDPad,CuDef*
%ADD28RoundRect,0.218750X0.218750X0.256250X-0.218750X0.256250X-0.218750X-0.256250X0.218750X-0.256250X0*%
G04 #@! TD*
G04 #@! TA.AperFunction,SMDPad,CuDef*
%ADD29R,0.950000X0.450000*%
G04 #@! TD*
G04 #@! TA.AperFunction,SMDPad,CuDef*
%ADD30R,3.450000X4.350000*%
G04 #@! TD*
G04 #@! TA.AperFunction,SMDPad,CuDef*
%ADD31FreePoly0,180.000000*%
G04 #@! TD*
G04 #@! TA.AperFunction,SMDPad,CuDef*
%ADD32R,1.000000X1.500000*%
G04 #@! TD*
G04 #@! TA.AperFunction,SMDPad,CuDef*
%ADD33FreePoly1,180.000000*%
G04 #@! TD*
G04 #@! TA.AperFunction,SMDPad,CuDef*
%ADD34R,1.500000X2.000000*%
G04 #@! TD*
G04 #@! TA.AperFunction,SMDPad,CuDef*
%ADD35R,3.800000X2.000000*%
G04 #@! TD*
G04 #@! TA.AperFunction,SMDPad,CuDef*
%ADD36RoundRect,0.250000X0.450000X-0.262500X0.450000X0.262500X-0.450000X0.262500X-0.450000X-0.262500X0*%
G04 #@! TD*
G04 #@! TA.AperFunction,SMDPad,CuDef*
%ADD37R,0.750000X0.300000*%
G04 #@! TD*
G04 #@! TA.AperFunction,SMDPad,CuDef*
%ADD38R,1.800000X1.650000*%
G04 #@! TD*
G04 #@! TA.AperFunction,SMDPad,CuDef*
%ADD39RoundRect,0.250000X-0.450000X0.262500X-0.450000X-0.262500X0.450000X-0.262500X0.450000X0.262500X0*%
G04 #@! TD*
G04 #@! TA.AperFunction,SMDPad,CuDef*
%ADD40RoundRect,0.135000X-0.135000X-0.185000X0.135000X-0.185000X0.135000X0.185000X-0.135000X0.185000X0*%
G04 #@! TD*
G04 #@! TA.AperFunction,SMDPad,CuDef*
%ADD41RoundRect,0.225000X0.225000X0.250000X-0.225000X0.250000X-0.225000X-0.250000X0.225000X-0.250000X0*%
G04 #@! TD*
G04 #@! TA.AperFunction,ViaPad*
%ADD42C,0.700000*%
G04 #@! TD*
G04 #@! TA.AperFunction,ViaPad*
%ADD43C,1.000000*%
G04 #@! TD*
G04 #@! TA.AperFunction,ViaPad*
%ADD44C,0.800000*%
G04 #@! TD*
G04 #@! TA.AperFunction,Conductor*
%ADD45C,0.300000*%
G04 #@! TD*
G04 #@! TA.AperFunction,Conductor*
%ADD46C,0.500000*%
G04 #@! TD*
G04 #@! TA.AperFunction,Conductor*
%ADD47C,0.250000*%
G04 #@! TD*
G04 #@! TA.AperFunction,Conductor*
%ADD48C,1.000000*%
G04 #@! TD*
G04 APERTURE END LIST*
D10*
X40538400Y-37121500D03*
X40538400Y-38316500D03*
D11*
X46901600Y-33121600D03*
X48551600Y-33121600D03*
D12*
X45181601Y-38711800D03*
X44221601Y-38711800D03*
D13*
X42954000Y-45034200D03*
X43914000Y-45034200D03*
D14*
X54060000Y-40670000D03*
X54060000Y-39120000D03*
D15*
X30480000Y-58420000D03*
D16*
X30480000Y-58420000D03*
D17*
X44450000Y-41378800D03*
X46300000Y-41378800D03*
X46300000Y-39928800D03*
X44450000Y-39928800D03*
D18*
X40059400Y-48487200D03*
X43459400Y-48487200D03*
X40059400Y-49987200D03*
X43459400Y-49987200D03*
D19*
X54055000Y-42205200D03*
X54055000Y-43755200D03*
D13*
X46111600Y-38711800D03*
X47071600Y-38711800D03*
D20*
X47066528Y-48431565D03*
X46046528Y-48431565D03*
D21*
X36474400Y-52420400D03*
X36474400Y-51460400D03*
D15*
X30480000Y-30480000D03*
D16*
X30480000Y-30480000D03*
D22*
X47199400Y-56924600D03*
X47699400Y-56924600D03*
X48199400Y-56924600D03*
X48699400Y-56924600D03*
X49199400Y-56924600D03*
X49699400Y-56924600D03*
X50199400Y-56924600D03*
X50699400Y-56924600D03*
X51199400Y-56924600D03*
X51699400Y-56924600D03*
X52199400Y-56924600D03*
X52699400Y-56924600D03*
X52699400Y-58594600D03*
X52199400Y-58594600D03*
X51699400Y-58594600D03*
X51199400Y-58594600D03*
X50699400Y-58594600D03*
X50199400Y-58594600D03*
X49699400Y-58594600D03*
X49199400Y-58594600D03*
X48699400Y-58594600D03*
X48199400Y-58594600D03*
X47699400Y-58594600D03*
X47199400Y-58594600D03*
D23*
X47549400Y-55609600D03*
X47549400Y-59909600D03*
X52349400Y-55609600D03*
X52349400Y-59909600D03*
D24*
X30022800Y-41226800D03*
X30022800Y-42186800D03*
D21*
X50790000Y-43620000D03*
X50790000Y-42660000D03*
D25*
X35480000Y-59090000D03*
D26*
X38020000Y-59090000D03*
D27*
X40560000Y-59090000D03*
D26*
X43100000Y-59090000D03*
D21*
X38709600Y-39367400D03*
X38709600Y-38407400D03*
D14*
X49530000Y-43390000D03*
X49530000Y-41840000D03*
D27*
X43080000Y-56230000D03*
X40540000Y-56230000D03*
D26*
X38000000Y-56230000D03*
X35460000Y-56230000D03*
D27*
X43090000Y-61970000D03*
D26*
X40550000Y-61970000D03*
X38010000Y-61970000D03*
X35470000Y-61970000D03*
D20*
X47066528Y-50496319D03*
X46046528Y-50496319D03*
D28*
X32417500Y-36160000D03*
X30842500Y-36160000D03*
D21*
X52700000Y-41480000D03*
X52700000Y-40520000D03*
D29*
X48365479Y-30853636D03*
X48365479Y-29583636D03*
X48365479Y-28313636D03*
X48365479Y-27043636D03*
X40565479Y-27043636D03*
X40565479Y-28313636D03*
X40565479Y-29583636D03*
X40565479Y-30853636D03*
D30*
X44465479Y-28948636D03*
D31*
X41560000Y-35480000D03*
D32*
X40260000Y-35480000D03*
D33*
X38960000Y-35480000D03*
D34*
X30008800Y-53035200D03*
X32308800Y-53035200D03*
D35*
X32308800Y-46735200D03*
D34*
X34608800Y-53035200D03*
D36*
X28498800Y-41880800D03*
X28498800Y-40055800D03*
D24*
X52730000Y-42500000D03*
X52730000Y-43460000D03*
D37*
X37542600Y-40501000D03*
X37542600Y-40001000D03*
X37542600Y-39501000D03*
X37542600Y-39001000D03*
X34542600Y-39001000D03*
X34542600Y-39501000D03*
X34542600Y-40001000D03*
X34542600Y-40501000D03*
D38*
X36042600Y-39751000D03*
D11*
X27731599Y-36160000D03*
X29381599Y-36160000D03*
D39*
X31546800Y-40034200D03*
X31546800Y-41859200D03*
D24*
X42316400Y-37594600D03*
X42316400Y-38554600D03*
D40*
X46046525Y-49463942D03*
X47066525Y-49463942D03*
D41*
X30943801Y-44676000D03*
X29393801Y-44676000D03*
D42*
X46329600Y-43688000D03*
D43*
X33578800Y-48539400D03*
D44*
X48650000Y-43380000D03*
D42*
X26951599Y-36160000D03*
D43*
X32296100Y-48539400D03*
D42*
X37890000Y-36280000D03*
X39522400Y-30835600D03*
X41478200Y-37617400D03*
D43*
X31013400Y-48539400D03*
D42*
X43307000Y-35585400D03*
X46459200Y-33121600D03*
X43470000Y-47700000D03*
X43205300Y-43685052D03*
D44*
X51770000Y-42230000D03*
X44970000Y-31820000D03*
X51810351Y-43228688D03*
D42*
X30022800Y-40487600D03*
D44*
X48640000Y-41830000D03*
D42*
X47700000Y-38711800D03*
X49504600Y-27051000D03*
D44*
X41580000Y-34010000D03*
D42*
X36398200Y-38404800D03*
X30378400Y-51638200D03*
D44*
X44020000Y-31840000D03*
D42*
X28450600Y-44676000D03*
X43205400Y-31851600D03*
X33371599Y-36160000D03*
X39166800Y-37846000D03*
X36423600Y-50822800D03*
X45821600Y-31851600D03*
X44323000Y-43796500D03*
X29616400Y-51638200D03*
D43*
X43353067Y-38304773D03*
D42*
X35687000Y-38404800D03*
D43*
X46304200Y-42291000D03*
D42*
X48660000Y-40720000D03*
D44*
X51750000Y-40940000D03*
D42*
X45154209Y-37998295D03*
X46053609Y-38011864D03*
X48246800Y-34010600D03*
X52555100Y-32334200D03*
X51615743Y-31419800D03*
X53454132Y-32305107D03*
X48593227Y-34840716D03*
X49425573Y-35749824D03*
X49465500Y-53440320D03*
X50209500Y-54187200D03*
X32867600Y-43078400D03*
D44*
X41990000Y-60180000D03*
D42*
X45339000Y-43738800D03*
X47447200Y-43611800D03*
X31521400Y-39170000D03*
X34747200Y-41351200D03*
X39830000Y-41869500D03*
X37720217Y-42420374D03*
D44*
X40660856Y-39563795D03*
D45*
X43760094Y-38711800D02*
X44221601Y-38711800D01*
X43353067Y-38304773D02*
X43760094Y-38711800D01*
X43103240Y-38554600D02*
X42316400Y-38554600D01*
X44450000Y-39401706D02*
X44450000Y-39928800D01*
X43353067Y-38304773D02*
X43103240Y-38554600D01*
X43353067Y-38304773D02*
X44450000Y-39401706D01*
X48186528Y-44351128D02*
X48186528Y-49376319D01*
X47447200Y-43611800D02*
X48186528Y-44351128D01*
X48186528Y-49376319D02*
X47066528Y-50496319D01*
X47686528Y-48843939D02*
X47066525Y-49463942D01*
X47686528Y-45044928D02*
X47686528Y-48843939D01*
X46329600Y-43688000D02*
X47686528Y-45044928D01*
X45339000Y-43738800D02*
X47066528Y-45466328D01*
X47066528Y-45466328D02*
X47066528Y-48431565D01*
D46*
X43459400Y-47710600D02*
X43459400Y-48487200D01*
D45*
X52520000Y-41480000D02*
X52700000Y-41480000D01*
X42316400Y-37594600D02*
X41501000Y-37594600D01*
X48650000Y-43380000D02*
X48660000Y-43390000D01*
D46*
X26951599Y-36160000D02*
X27731599Y-36160000D01*
D45*
X41501000Y-37594600D02*
X41478200Y-37617400D01*
X53760200Y-42500000D02*
X54055000Y-42205200D01*
X38690000Y-35480000D02*
X37890000Y-36280000D01*
D46*
X39540436Y-30853636D02*
X39522400Y-30835600D01*
D45*
X51770000Y-42230000D02*
X52040000Y-42500000D01*
X54060000Y-40670000D02*
X53250000Y-41480000D01*
X52040000Y-42500000D02*
X52730000Y-42500000D01*
X49530000Y-43390000D02*
X50560000Y-43390000D01*
X42954000Y-43936352D02*
X43205300Y-43685052D01*
X48660000Y-43390000D02*
X49530000Y-43390000D01*
X50560000Y-43390000D02*
X50790000Y-43620000D01*
D46*
X40565479Y-30853636D02*
X39540436Y-30853636D01*
D45*
X52730000Y-42500000D02*
X53760200Y-42500000D01*
X42954000Y-45034200D02*
X42954000Y-43936352D01*
X53250000Y-41480000D02*
X52700000Y-41480000D01*
X47216000Y-33121600D02*
X46459200Y-33121600D01*
D47*
X38960000Y-35480000D02*
X38690000Y-35480000D01*
D46*
X43470000Y-47700000D02*
X43459400Y-47710600D01*
D45*
X51770000Y-42230000D02*
X52520000Y-41480000D01*
X41560000Y-34030000D02*
X41560000Y-35480000D01*
X38709600Y-38303200D02*
X39166800Y-37846000D01*
X52699400Y-55959600D02*
X52349400Y-55609600D01*
D46*
X32417500Y-36160000D02*
X33371599Y-36160000D01*
D45*
X54060000Y-39160000D02*
X52700000Y-40520000D01*
X36474400Y-50873600D02*
X36423600Y-50822800D01*
X49530000Y-41840000D02*
X48650000Y-41840000D01*
X52170000Y-40520000D02*
X52700000Y-40520000D01*
X49970000Y-41840000D02*
X50790000Y-42660000D01*
X47199400Y-55959600D02*
X47549400Y-55609600D01*
X52699400Y-58594600D02*
X52699400Y-59559600D01*
X51750000Y-40940000D02*
X52170000Y-40520000D01*
X51670000Y-43380000D02*
X51810000Y-43380000D01*
D46*
X28450600Y-44676000D02*
X29393801Y-44676000D01*
D45*
X52498688Y-43228688D02*
X52730000Y-43460000D01*
D48*
X40560000Y-59090000D02*
X40560000Y-56250000D01*
D46*
X49497236Y-27043636D02*
X49504600Y-27051000D01*
X30022800Y-41226800D02*
X30022800Y-40487600D01*
D45*
X37542600Y-40001000D02*
X36292600Y-40001000D01*
X47199400Y-59559600D02*
X47549400Y-59909600D01*
X47199400Y-58594600D02*
X47199400Y-59559600D01*
X48650000Y-41840000D02*
X48640000Y-41830000D01*
X36292600Y-40001000D02*
X36042600Y-39751000D01*
X43914000Y-45034200D02*
X43914000Y-44205500D01*
X43914000Y-44205500D02*
X44323000Y-43796500D01*
X52699400Y-59559600D02*
X52349400Y-59909600D01*
D47*
X41580000Y-34010000D02*
X41560000Y-34030000D01*
D45*
X47700000Y-38711800D02*
X47071600Y-38711800D01*
X52699400Y-56924600D02*
X52699400Y-55959600D01*
X49530000Y-41840000D02*
X49970000Y-41840000D01*
X53025200Y-43755200D02*
X52730000Y-43460000D01*
D48*
X40560000Y-56250000D02*
X40540000Y-56230000D01*
D45*
X38709600Y-38407400D02*
X38709600Y-38303200D01*
X47199400Y-56924600D02*
X47199400Y-55959600D01*
X46300000Y-42286800D02*
X46304200Y-42291000D01*
X51810351Y-43228688D02*
X52498688Y-43228688D01*
X54055000Y-43755200D02*
X53025200Y-43755200D01*
X36474400Y-51460400D02*
X36474400Y-50873600D01*
X46300000Y-41378800D02*
X46300000Y-42286800D01*
X53830000Y-39130000D02*
X53830000Y-39170000D01*
D46*
X48365479Y-27043636D02*
X49497236Y-27043636D01*
D45*
X48699400Y-58594600D02*
X48699400Y-56924600D01*
D46*
X38709600Y-39367400D02*
X38709600Y-50369586D01*
D45*
X48699400Y-56924600D02*
X48699400Y-52874000D01*
X38576000Y-39501000D02*
X38709600Y-39367400D01*
D46*
X36658786Y-52420400D02*
X36474400Y-52420400D01*
D45*
X49911000Y-52460000D02*
X48285400Y-52460000D01*
D46*
X36474400Y-52420400D02*
X48245800Y-52420400D01*
D45*
X51199400Y-56924600D02*
X51199400Y-53748400D01*
X48699400Y-52874000D02*
X48285400Y-52460000D01*
X51199400Y-53748400D02*
X49911000Y-52460000D01*
D46*
X38709600Y-50369586D02*
X36658786Y-52420400D01*
D45*
X51199400Y-58594600D02*
X51199400Y-56924600D01*
D46*
X48245800Y-52420400D02*
X48285400Y-52460000D01*
D45*
X37542600Y-39501000D02*
X38576000Y-39501000D01*
X45181601Y-38711800D02*
X45250000Y-38780199D01*
X45250000Y-40578800D02*
X44450000Y-41378800D01*
X45250000Y-38780199D02*
X45250000Y-40578800D01*
X45181601Y-38025687D02*
X45181601Y-38711800D01*
X45154209Y-37998295D02*
X45181601Y-38025687D01*
X46111600Y-39740400D02*
X46300000Y-39928800D01*
X46111600Y-38711800D02*
X46111600Y-39740400D01*
X46111600Y-38711800D02*
X46111600Y-38069855D01*
X46111600Y-38069855D02*
X46053609Y-38011864D01*
D46*
X31546800Y-41859200D02*
X31219200Y-42186800D01*
X31219200Y-42186800D02*
X30022800Y-42186800D01*
X28804800Y-42186800D02*
X28498800Y-41880800D01*
X30022800Y-42186800D02*
X28804800Y-42186800D01*
X29381599Y-36160000D02*
X30842500Y-36160000D01*
D45*
X48246800Y-34010600D02*
X48246800Y-33121600D01*
X48365479Y-30853636D02*
X48365479Y-33002921D01*
X48365479Y-33002921D02*
X48246800Y-33121600D01*
X48615479Y-29583636D02*
X48365479Y-29583636D01*
X52555100Y-32334200D02*
X51366043Y-32334200D01*
X51366043Y-32334200D02*
X48615479Y-29583636D01*
X48615479Y-28313636D02*
X48365479Y-28313636D01*
X51615743Y-31419800D02*
X51615743Y-31313900D01*
X51615743Y-31313900D02*
X48615479Y-28313636D01*
X46540479Y-26423636D02*
X41185479Y-26423636D01*
X49190479Y-27738636D02*
X47855479Y-27738636D01*
X53454132Y-32305107D02*
X53454132Y-32002289D01*
X41185479Y-26423636D02*
X40565479Y-27043636D01*
X53454132Y-32002289D02*
X49190479Y-27738636D01*
X47855479Y-27738636D02*
X46540479Y-26423636D01*
X42265600Y-32766000D02*
X44340316Y-34840716D01*
X40565479Y-28313636D02*
X42265600Y-30013757D01*
X44340316Y-34840716D02*
X48593227Y-34840716D01*
X42265600Y-30013757D02*
X42265600Y-32766000D01*
X49388149Y-35712400D02*
X44504894Y-35712400D01*
X49425573Y-35749824D02*
X49388149Y-35712400D01*
X41765600Y-30783757D02*
X40565479Y-29583636D01*
X41765600Y-32973106D02*
X41765600Y-30783757D01*
X44504894Y-35712400D02*
X41765600Y-32973106D01*
X49510000Y-53484820D02*
X49510000Y-55960200D01*
X49699400Y-56149600D02*
X49699400Y-56924600D01*
X49465500Y-53440320D02*
X49510000Y-53484820D01*
X49510000Y-55960200D02*
X49699400Y-56149600D01*
X50199400Y-54197300D02*
X50199400Y-56924600D01*
X50209500Y-54187200D02*
X50199400Y-54197300D01*
D48*
X38010000Y-61970000D02*
X35470000Y-61970000D01*
D45*
X26593800Y-60426600D02*
X28137200Y-61970000D01*
X28137200Y-61970000D02*
X35470000Y-61970000D01*
X27517600Y-38243000D02*
X26593800Y-39166800D01*
X34542600Y-39501000D02*
X33532000Y-39501000D01*
X26593800Y-39166800D02*
X26593800Y-40208200D01*
X32274000Y-38243000D02*
X27517600Y-38243000D01*
X26746200Y-40055800D02*
X26593800Y-40208200D01*
X26593800Y-40208200D02*
X26593800Y-60426600D01*
X28498800Y-40055800D02*
X26746200Y-40055800D01*
X33532000Y-39501000D02*
X32274000Y-38243000D01*
X33817600Y-40001000D02*
X34542600Y-40001000D01*
X33350200Y-40468400D02*
X33817600Y-40001000D01*
X32867600Y-43078400D02*
X33350200Y-42595800D01*
X33350200Y-42595800D02*
X33350200Y-40468400D01*
D48*
X43090000Y-61970000D02*
X40550000Y-61970000D01*
D45*
X41580000Y-60590000D02*
X36980000Y-60590000D01*
X36980000Y-60590000D02*
X35480000Y-59090000D01*
X41990000Y-60180000D02*
X41580000Y-60590000D01*
X45240893Y-49237200D02*
X46046528Y-48431565D01*
X40109400Y-49237200D02*
X45240893Y-49237200D01*
X40059400Y-49187200D02*
X40109400Y-49237200D01*
X40059400Y-48487200D02*
X40059400Y-49187200D01*
X45660634Y-50882213D02*
X46046528Y-50496319D01*
X40954413Y-50882213D02*
X45660634Y-50882213D01*
X40059400Y-49987200D02*
X40954413Y-50882213D01*
X43459400Y-49987200D02*
X45523267Y-49987200D01*
X45523267Y-49987200D02*
X46046525Y-49463942D01*
X31521400Y-39170000D02*
X31546800Y-39195400D01*
X31546800Y-39195400D02*
X31546800Y-40034200D01*
X34747200Y-41351200D02*
X34542600Y-41146600D01*
X34542600Y-41146600D02*
X34542600Y-40501000D01*
X39830000Y-38172750D02*
X39866800Y-38135950D01*
X39866800Y-37428400D02*
X39573200Y-37134800D01*
X37542600Y-37768400D02*
X37542600Y-39001000D01*
X39866800Y-38135950D02*
X39866800Y-37428400D01*
X39573200Y-37134800D02*
X38176200Y-37134800D01*
X38176200Y-37134800D02*
X37542600Y-37768400D01*
X39830000Y-41869500D02*
X39830000Y-38172750D01*
X37720217Y-42420374D02*
X37542600Y-42242757D01*
X37542600Y-42242757D02*
X37542600Y-40501000D01*
X40538400Y-39441339D02*
X40660856Y-39563795D01*
X40538400Y-38229000D02*
X40538400Y-39441339D01*
X40540000Y-35760000D02*
X40260000Y-35480000D01*
X40260000Y-36930600D02*
X40538400Y-37209000D01*
X40260000Y-35480000D02*
X40260000Y-36930600D01*
G04 #@! TA.AperFunction,Conductor*
G36*
X31310749Y-43965433D02*
G01*
X31323765Y-43974813D01*
X33448801Y-45726000D01*
X34086434Y-45734389D01*
X34153207Y-45754953D01*
X34198263Y-45808355D01*
X34208801Y-45858378D01*
X34208801Y-47736000D01*
X34208800Y-48827350D01*
X34189115Y-48894390D01*
X34175719Y-48911670D01*
X33058801Y-50115999D01*
X33058801Y-53912000D01*
X33039116Y-53979039D01*
X32986312Y-54024794D01*
X32934801Y-54036000D01*
X31682483Y-54036000D01*
X31615444Y-54016315D01*
X31569689Y-53963511D01*
X31558483Y-53912319D01*
X31558482Y-53912000D01*
X31548801Y-50146001D01*
X30441331Y-48931669D01*
X30410702Y-48868872D01*
X30408953Y-48847730D01*
X30418801Y-45736000D01*
X30418801Y-44078583D01*
X30438486Y-44011544D01*
X30491290Y-43965789D01*
X30541375Y-43954591D01*
X31243490Y-43946520D01*
X31310749Y-43965433D01*
G37*
G04 #@! TD.AperFunction*
G04 #@! TA.AperFunction,Conductor*
G36*
X30701840Y-51255685D02*
G01*
X30747595Y-51308489D01*
X30758801Y-51360000D01*
X30758801Y-53901999D01*
X30739116Y-53969038D01*
X30686312Y-54014793D01*
X30634801Y-54025999D01*
X29382801Y-54025999D01*
X29315762Y-54006314D01*
X29270007Y-53953510D01*
X29258801Y-53901999D01*
X29258802Y-51360000D01*
X29278487Y-51292960D01*
X29331291Y-51247206D01*
X29382802Y-51236000D01*
X30634801Y-51236000D01*
X30701840Y-51255685D01*
G37*
G04 #@! TD.AperFunction*
G04 #@! TA.AperFunction,Conductor*
G36*
X36835139Y-38030685D02*
G01*
X36880894Y-38083489D01*
X36892100Y-38135000D01*
X36892100Y-38369964D01*
X36872415Y-38437003D01*
X36842412Y-38469230D01*
X36810057Y-38493450D01*
X36810051Y-38493457D01*
X36723806Y-38608664D01*
X36723802Y-38608671D01*
X36673510Y-38743513D01*
X36673509Y-38743517D01*
X36667100Y-38803127D01*
X36667100Y-38803134D01*
X36667100Y-38803135D01*
X36667100Y-39198869D01*
X36667101Y-39198878D01*
X36671279Y-39237745D01*
X36671279Y-39264250D01*
X36667100Y-39303122D01*
X36667100Y-39698870D01*
X36667101Y-39698876D01*
X36673508Y-39758483D01*
X36723802Y-39893327D01*
X36723803Y-39893328D01*
X36723804Y-39893331D01*
X36748776Y-39926689D01*
X36773193Y-39992150D01*
X36758342Y-40060423D01*
X36748777Y-40075307D01*
X36723805Y-40108665D01*
X36723802Y-40108671D01*
X36675664Y-40237738D01*
X36673509Y-40243517D01*
X36667100Y-40303127D01*
X36667100Y-40452401D01*
X36647417Y-40519439D01*
X36594613Y-40565194D01*
X36543101Y-40576400D01*
X35542100Y-40576400D01*
X35475061Y-40556715D01*
X35429306Y-40503911D01*
X35418100Y-40452401D01*
X35418099Y-40303128D01*
X35418098Y-40303111D01*
X35413920Y-40264253D01*
X35413920Y-40237747D01*
X35418100Y-40198873D01*
X35418099Y-39803128D01*
X35418098Y-39803111D01*
X35413920Y-39764253D01*
X35413920Y-39737747D01*
X35418100Y-39698873D01*
X35418099Y-39303128D01*
X35418099Y-39303127D01*
X35418098Y-39303111D01*
X35413920Y-39264253D01*
X35413920Y-39237745D01*
X35418100Y-39198873D01*
X35418099Y-38803128D01*
X35411691Y-38743517D01*
X35361396Y-38608669D01*
X35361395Y-38608668D01*
X35361393Y-38608664D01*
X35275147Y-38493455D01*
X35275140Y-38493450D01*
X35242787Y-38469230D01*
X35182287Y-38423939D01*
X35140417Y-38368005D01*
X35132599Y-38324676D01*
X35132599Y-38134999D01*
X35152285Y-38067960D01*
X35205089Y-38022205D01*
X35256600Y-38011000D01*
X36768100Y-38011000D01*
X36835139Y-38030685D01*
G37*
G04 #@! TD.AperFunction*
G04 #@! TA.AperFunction,Conductor*
G36*
X35858472Y-52064285D02*
G01*
X35879114Y-52080919D01*
X35908707Y-52110512D01*
X35908711Y-52110515D01*
X35908713Y-52110517D01*
X36048005Y-52192894D01*
X36088987Y-52204800D01*
X36203402Y-52238042D01*
X36203405Y-52238042D01*
X36203407Y-52238043D01*
X36215507Y-52238995D01*
X36239708Y-52240900D01*
X36239710Y-52240900D01*
X36709092Y-52240900D01*
X36727241Y-52239471D01*
X36745393Y-52238043D01*
X36745395Y-52238042D01*
X36745397Y-52238042D01*
X36786375Y-52226136D01*
X36900795Y-52192894D01*
X37040087Y-52110517D01*
X37060335Y-52090268D01*
X37121653Y-52056784D01*
X37191345Y-52061766D01*
X37231356Y-52086132D01*
X37321084Y-52167578D01*
X38795939Y-53506292D01*
X38832349Y-53565925D01*
X38836598Y-53598112D01*
X38836478Y-56994073D01*
X38816791Y-57061112D01*
X38763985Y-57106865D01*
X38710975Y-57118060D01*
X34697612Y-57069413D01*
X34630816Y-57048917D01*
X34609455Y-57031079D01*
X33858624Y-56245156D01*
X33826548Y-56183084D01*
X33824288Y-56158483D01*
X33857186Y-52167577D01*
X33877423Y-52100703D01*
X33930602Y-52055385D01*
X33981182Y-52044600D01*
X35791433Y-52044600D01*
X35858472Y-52064285D01*
G37*
G04 #@! TD.AperFunction*
G04 #@! TA.AperFunction,Conductor*
G36*
X46138518Y-27093821D02*
G01*
X46184273Y-27146625D01*
X46195479Y-27198136D01*
X46195479Y-32164275D01*
X46175794Y-32231314D01*
X46122990Y-32277069D01*
X46071119Y-32288274D01*
X43039740Y-32279461D01*
X42972758Y-32259582D01*
X42927156Y-32206645D01*
X42916100Y-32155462D01*
X42916100Y-30099258D01*
X42917868Y-30083245D01*
X42917626Y-30083223D01*
X42918358Y-30075467D01*
X42918360Y-30075460D01*
X42916100Y-30003553D01*
X42916100Y-29972832D01*
X42915179Y-29965545D01*
X42914722Y-29959736D01*
X42913197Y-29911188D01*
X42907276Y-29890810D01*
X42903331Y-29871761D01*
X42900671Y-29850699D01*
X42882786Y-29805528D01*
X42880898Y-29800011D01*
X42867344Y-29753359D01*
X42867344Y-29753358D01*
X42856539Y-29735089D01*
X42847979Y-29717615D01*
X42846951Y-29715019D01*
X42840168Y-29697886D01*
X42811614Y-29658585D01*
X42808410Y-29653707D01*
X42783682Y-29611894D01*
X42783681Y-29611892D01*
X42783679Y-29611890D01*
X42783676Y-29611886D01*
X42781775Y-29609985D01*
X42780760Y-29608127D01*
X42778898Y-29605726D01*
X42779285Y-29605425D01*
X42748290Y-29548662D01*
X42745457Y-29522760D01*
X42742040Y-28583079D01*
X42737007Y-27198587D01*
X42756448Y-27131476D01*
X42809085Y-27085530D01*
X42861006Y-27074136D01*
X46071479Y-27074136D01*
X46138518Y-27093821D01*
G37*
G04 #@! TD.AperFunction*
M02*
