G04 #@! TF.GenerationSoftware,KiCad,Pcbnew,7.0.7*
G04 #@! TF.CreationDate,2023-09-05T10:53:39-07:00*
G04 #@! TF.ProjectId,Memory Board,4d656d6f-7279-4204-926f-6172642e6b69,rev?*
G04 #@! TF.SameCoordinates,Original*
G04 #@! TF.FileFunction,Soldermask,Top*
G04 #@! TF.FilePolarity,Negative*
%FSLAX46Y46*%
G04 Gerber Fmt 4.6, Leading zero omitted, Abs format (unit mm)*
G04 Created by KiCad (PCBNEW 7.0.7) date 2023-09-05 10:53:39*
%MOMM*%
%LPD*%
G01*
G04 APERTURE LIST*
G04 Aperture macros list*
%AMRoundRect*
0 Rectangle with rounded corners*
0 $1 Rounding radius*
0 $2 $3 $4 $5 $6 $7 $8 $9 X,Y pos of 4 corners*
0 Add a 4 corners polygon primitive as box body*
4,1,4,$2,$3,$4,$5,$6,$7,$8,$9,$2,$3,0*
0 Add four circle primitives for the rounded corners*
1,1,$1+$1,$2,$3*
1,1,$1+$1,$4,$5*
1,1,$1+$1,$6,$7*
1,1,$1+$1,$8,$9*
0 Add four rect primitives between the rounded corners*
20,1,$1+$1,$2,$3,$4,$5,0*
20,1,$1+$1,$4,$5,$6,$7,0*
20,1,$1+$1,$6,$7,$8,$9,0*
20,1,$1+$1,$8,$9,$2,$3,0*%
%AMFreePoly0*
4,1,19,0.550000,-0.750000,0.000000,-0.750000,0.000000,-0.744911,-0.071157,-0.744911,-0.207708,-0.704816,-0.327430,-0.627875,-0.420627,-0.520320,-0.479746,-0.390866,-0.500000,-0.250000,-0.500000,0.250000,-0.479746,0.390866,-0.420627,0.520320,-0.327430,0.627875,-0.207708,0.704816,-0.071157,0.744911,0.000000,0.744911,0.000000,0.750000,0.550000,0.750000,0.550000,-0.750000,0.550000,-0.750000,
$1*%
%AMFreePoly1*
4,1,19,0.000000,0.744911,0.071157,0.744911,0.207708,0.704816,0.327430,0.627875,0.420627,0.520320,0.479746,0.390866,0.500000,0.250000,0.500000,-0.250000,0.479746,-0.390866,0.420627,-0.520320,0.327430,-0.627875,0.207708,-0.704816,0.071157,-0.744911,0.000000,-0.744911,0.000000,-0.750000,-0.550000,-0.750000,-0.550000,0.750000,0.000000,0.750000,0.000000,0.744911,0.000000,0.744911,
$1*%
G04 Aperture macros list end*
%ADD10RoundRect,0.135000X-0.185000X0.135000X-0.185000X-0.135000X0.185000X-0.135000X0.185000X0.135000X0*%
%ADD11RoundRect,0.135000X-0.135000X-0.185000X0.135000X-0.185000X0.135000X0.185000X-0.135000X0.185000X0*%
%ADD12RoundRect,0.140000X0.140000X0.170000X-0.140000X0.170000X-0.140000X-0.170000X0.140000X-0.170000X0*%
%ADD13RoundRect,0.140000X-0.140000X-0.170000X0.140000X-0.170000X0.140000X0.170000X-0.140000X0.170000X0*%
%ADD14RoundRect,0.225000X0.250000X-0.225000X0.250000X0.225000X-0.250000X0.225000X-0.250000X-0.225000X0*%
%ADD15C,3.600000*%
%ADD16C,6.400000*%
%ADD17RoundRect,0.200000X0.250000X-0.200000X0.250000X0.200000X-0.250000X0.200000X-0.250000X-0.200000X0*%
%ADD18R,1.800000X0.800000*%
%ADD19RoundRect,0.225000X-0.250000X0.225000X-0.250000X-0.225000X0.250000X-0.225000X0.250000X0.225000X0*%
%ADD20RoundRect,0.135000X0.135000X0.185000X-0.135000X0.185000X-0.135000X-0.185000X0.135000X-0.185000X0*%
%ADD21RoundRect,0.140000X0.170000X-0.140000X0.170000X0.140000X-0.170000X0.140000X-0.170000X-0.140000X0*%
%ADD22C,0.660000*%
%ADD23O,1.000000X0.580000*%
%ADD24R,0.300000X0.850000*%
%ADD25C,1.100000*%
%ADD26RoundRect,0.140000X-0.170000X0.140000X-0.170000X-0.140000X0.170000X-0.140000X0.170000X0.140000X0*%
%ADD27C,1.700000*%
%ADD28O,1.700000X1.700000*%
%ADD29R,1.700000X1.700000*%
%ADD30RoundRect,0.218750X0.218750X0.256250X-0.218750X0.256250X-0.218750X-0.256250X0.218750X-0.256250X0*%
%ADD31R,0.950000X0.450000*%
%ADD32R,3.450000X4.350000*%
%ADD33FreePoly0,180.000000*%
%ADD34R,1.000000X1.500000*%
%ADD35FreePoly1,180.000000*%
%ADD36R,1.500000X2.000000*%
%ADD37R,3.800000X2.000000*%
%ADD38RoundRect,0.250000X0.450000X-0.262500X0.450000X0.262500X-0.450000X0.262500X-0.450000X-0.262500X0*%
%ADD39R,0.750000X0.300000*%
%ADD40R,1.800000X1.650000*%
%ADD41RoundRect,0.200000X-0.200000X-0.275000X0.200000X-0.275000X0.200000X0.275000X-0.200000X0.275000X0*%
%ADD42RoundRect,0.250000X-0.450000X0.262500X-0.450000X-0.262500X0.450000X-0.262500X0.450000X0.262500X0*%
%ADD43RoundRect,0.225000X0.225000X0.250000X-0.225000X0.250000X-0.225000X-0.250000X0.225000X-0.250000X0*%
G04 APERTURE END LIST*
D10*
X40538400Y-37209000D03*
X40538400Y-38229000D03*
D11*
X47216600Y-33121600D03*
X48236600Y-33121600D03*
D12*
X45181601Y-38711800D03*
X44221601Y-38711800D03*
D13*
X42954000Y-45034200D03*
X43914000Y-45034200D03*
D14*
X54060000Y-40670000D03*
X54060000Y-39120000D03*
D15*
X30480000Y-58420000D03*
D16*
X30480000Y-58420000D03*
D17*
X44450000Y-41378800D03*
X46300000Y-41378800D03*
X46300000Y-39928800D03*
X44450000Y-39928800D03*
D18*
X40059400Y-48487200D03*
X43459400Y-48487200D03*
X40059400Y-49987200D03*
X43459400Y-49987200D03*
D19*
X54055000Y-42205200D03*
X54055000Y-43755200D03*
D13*
X46111600Y-38711800D03*
X47071600Y-38711800D03*
D20*
X47066528Y-48431565D03*
X46046528Y-48431565D03*
D21*
X36474400Y-52420400D03*
X36474400Y-51460400D03*
D15*
X30480000Y-30480000D03*
D16*
X30480000Y-30480000D03*
D22*
X46199400Y-57759600D03*
D23*
X53699400Y-57759600D03*
D24*
X47199400Y-56924600D03*
X47699400Y-56924600D03*
X48199400Y-56924600D03*
X48699400Y-56924600D03*
X49199400Y-56924600D03*
X49699400Y-56924600D03*
X50199400Y-56924600D03*
X50699400Y-56924600D03*
X51199400Y-56924600D03*
X51699400Y-56924600D03*
X52199400Y-56924600D03*
X52699400Y-56924600D03*
X52699400Y-58594600D03*
X52199400Y-58594600D03*
X51699400Y-58594600D03*
X51199400Y-58594600D03*
X50699400Y-58594600D03*
X50199400Y-58594600D03*
X49699400Y-58594600D03*
X49199400Y-58594600D03*
X48699400Y-58594600D03*
X48199400Y-58594600D03*
X47699400Y-58594600D03*
X47199400Y-58594600D03*
D25*
X47549400Y-55609600D03*
X47549400Y-59909600D03*
X52349400Y-55609600D03*
X52349400Y-59909600D03*
D26*
X30022800Y-41226800D03*
X30022800Y-42186800D03*
D21*
X50790000Y-43620000D03*
X50790000Y-42660000D03*
D27*
X35480000Y-59090000D03*
D28*
X38020000Y-59090000D03*
D29*
X40560000Y-59090000D03*
D28*
X43100000Y-59090000D03*
D21*
X38709600Y-39367400D03*
X38709600Y-38407400D03*
D14*
X49530000Y-43390000D03*
X49530000Y-41840000D03*
D29*
X43080000Y-56230000D03*
X40540000Y-56230000D03*
D28*
X38000000Y-56230000D03*
X35460000Y-56230000D03*
D29*
X43090000Y-61970000D03*
D28*
X40550000Y-61970000D03*
X38010000Y-61970000D03*
X35470000Y-61970000D03*
D20*
X47066528Y-50496319D03*
X46046528Y-50496319D03*
D30*
X32417500Y-36160000D03*
X30842500Y-36160000D03*
D21*
X52700000Y-41480000D03*
X52700000Y-40520000D03*
D31*
X48365479Y-30853636D03*
X48365479Y-29583636D03*
X48365479Y-28313636D03*
X48365479Y-27043636D03*
X40565479Y-27043636D03*
X40565479Y-28313636D03*
X40565479Y-29583636D03*
X40565479Y-30853636D03*
D32*
X44465479Y-28948636D03*
D33*
X41560000Y-35480000D03*
D34*
X40260000Y-35480000D03*
D35*
X38960000Y-35480000D03*
D36*
X30008800Y-53035200D03*
X32308800Y-53035200D03*
D37*
X32308800Y-46735200D03*
D36*
X34608800Y-53035200D03*
D38*
X28498800Y-41880800D03*
X28498800Y-40055800D03*
D26*
X52730000Y-42500000D03*
X52730000Y-43460000D03*
D39*
X37542600Y-40501000D03*
X37542600Y-40001000D03*
X37542600Y-39501000D03*
X37542600Y-39001000D03*
X34542600Y-39001000D03*
X34542600Y-39501000D03*
X34542600Y-40001000D03*
X34542600Y-40501000D03*
D40*
X36042600Y-39751000D03*
D41*
X27731599Y-36160000D03*
X29381599Y-36160000D03*
D42*
X31546800Y-40034200D03*
X31546800Y-41859200D03*
D26*
X42316400Y-37594600D03*
X42316400Y-38554600D03*
D11*
X46046525Y-49463942D03*
X47066525Y-49463942D03*
D43*
X30943801Y-44676000D03*
X29393801Y-44676000D03*
M02*
