G04 #@! TF.GenerationSoftware,KiCad,Pcbnew,7.0.7*
G04 #@! TF.CreationDate,2023-09-05T10:53:39-07:00*
G04 #@! TF.ProjectId,Memory Board,4d656d6f-7279-4204-926f-6172642e6b69,rev?*
G04 #@! TF.SameCoordinates,Original*
G04 #@! TF.FileFunction,Legend,Bot*
G04 #@! TF.FilePolarity,Positive*
%FSLAX46Y46*%
G04 Gerber Fmt 4.6, Leading zero omitted, Abs format (unit mm)*
G04 Created by KiCad (PCBNEW 7.0.7) date 2023-09-05 10:53:39*
%MOMM*%
%LPD*%
G01*
G04 APERTURE LIST*
G04 Aperture macros list*
%AMRoundRect*
0 Rectangle with rounded corners*
0 $1 Rounding radius*
0 $2 $3 $4 $5 $6 $7 $8 $9 X,Y pos of 4 corners*
0 Add a 4 corners polygon primitive as box body*
4,1,4,$2,$3,$4,$5,$6,$7,$8,$9,$2,$3,0*
0 Add four circle primitives for the rounded corners*
1,1,$1+$1,$2,$3*
1,1,$1+$1,$4,$5*
1,1,$1+$1,$6,$7*
1,1,$1+$1,$8,$9*
0 Add four rect primitives between the rounded corners*
20,1,$1+$1,$2,$3,$4,$5,0*
20,1,$1+$1,$4,$5,$6,$7,0*
20,1,$1+$1,$6,$7,$8,$9,0*
20,1,$1+$1,$8,$9,$2,$3,0*%
%AMFreePoly0*
4,1,19,0.500000,-0.750000,0.000000,-0.750000,0.000000,-0.744911,-0.071157,-0.744911,-0.207708,-0.704816,-0.327430,-0.627875,-0.420627,-0.520320,-0.479746,-0.390866,-0.500000,-0.250000,-0.500000,0.250000,-0.479746,0.390866,-0.420627,0.520320,-0.327430,0.627875,-0.207708,0.704816,-0.071157,0.744911,0.000000,0.744911,0.000000,0.750000,0.500000,0.750000,0.500000,-0.750000,0.500000,-0.750000,
$1*%
%AMFreePoly1*
4,1,19,0.000000,0.744911,0.071157,0.744911,0.207708,0.704816,0.327430,0.627875,0.420627,0.520320,0.479746,0.390866,0.500000,0.250000,0.500000,-0.250000,0.479746,-0.390866,0.420627,-0.520320,0.327430,-0.627875,0.207708,-0.704816,0.071157,-0.744911,0.000000,-0.744911,0.000000,-0.750000,-0.500000,-0.750000,-0.500000,0.750000,0.000000,0.750000,0.000000,0.744911,0.000000,0.744911,
$1*%
G04 Aperture macros list end*
%ADD10C,0.100000*%
%ADD11C,0.200000*%
%ADD12C,0.150000*%
%ADD13C,0.120000*%
%ADD14C,3.600000*%
%ADD15C,6.400000*%
%ADD16C,0.660000*%
%ADD17O,1.000000X0.580000*%
%ADD18C,1.100000*%
%ADD19C,1.700000*%
%ADD20O,1.700000X1.700000*%
%ADD21R,1.700000X1.700000*%
%ADD22RoundRect,0.075000X-0.075000X0.662500X-0.075000X-0.662500X0.075000X-0.662500X0.075000X0.662500X0*%
%ADD23RoundRect,0.075000X-0.662500X0.075000X-0.662500X-0.075000X0.662500X-0.075000X0.662500X0.075000X0*%
%ADD24FreePoly0,90.000000*%
%ADD25FreePoly1,90.000000*%
G04 APERTURE END LIST*
D10*
X28949009Y-42404761D02*
X28925200Y-42428570D01*
X28925200Y-42428570D02*
X28901390Y-42499999D01*
X28901390Y-42499999D02*
X28901390Y-42547618D01*
X28901390Y-42547618D02*
X28925200Y-42619046D01*
X28925200Y-42619046D02*
X28972819Y-42666665D01*
X28972819Y-42666665D02*
X29020438Y-42690475D01*
X29020438Y-42690475D02*
X29115676Y-42714284D01*
X29115676Y-42714284D02*
X29187104Y-42714284D01*
X29187104Y-42714284D02*
X29282342Y-42690475D01*
X29282342Y-42690475D02*
X29329961Y-42666665D01*
X29329961Y-42666665D02*
X29377580Y-42619046D01*
X29377580Y-42619046D02*
X29401390Y-42547618D01*
X29401390Y-42547618D02*
X29401390Y-42499999D01*
X29401390Y-42499999D02*
X29377580Y-42428570D01*
X29377580Y-42428570D02*
X29353771Y-42404761D01*
X29044247Y-42214284D02*
X29044247Y-41976189D01*
X28901390Y-42261903D02*
X29401390Y-42095237D01*
X29401390Y-42095237D02*
X28901390Y-41928570D01*
X28901390Y-41761904D02*
X29401390Y-41761904D01*
X29401390Y-41761904D02*
X28901390Y-41476190D01*
X28901390Y-41476190D02*
X29401390Y-41476190D01*
X29401390Y-40928570D02*
X29401390Y-40642856D01*
X28901390Y-40785713D02*
X29401390Y-40785713D01*
X29163295Y-40476190D02*
X29163295Y-40309523D01*
X28901390Y-40238095D02*
X28901390Y-40476190D01*
X28901390Y-40476190D02*
X29401390Y-40476190D01*
X29401390Y-40476190D02*
X29401390Y-40238095D01*
X28901390Y-39738095D02*
X29139485Y-39904761D01*
X28901390Y-40023809D02*
X29401390Y-40023809D01*
X29401390Y-40023809D02*
X29401390Y-39833333D01*
X29401390Y-39833333D02*
X29377580Y-39785714D01*
X29377580Y-39785714D02*
X29353771Y-39761904D01*
X29353771Y-39761904D02*
X29306152Y-39738095D01*
X29306152Y-39738095D02*
X29234723Y-39738095D01*
X29234723Y-39738095D02*
X29187104Y-39761904D01*
X29187104Y-39761904D02*
X29163295Y-39785714D01*
X29163295Y-39785714D02*
X29139485Y-39833333D01*
X29139485Y-39833333D02*
X29139485Y-40023809D01*
X28901390Y-39523809D02*
X29401390Y-39523809D01*
X29401390Y-39523809D02*
X29044247Y-39357142D01*
X29044247Y-39357142D02*
X29401390Y-39190476D01*
X29401390Y-39190476D02*
X28901390Y-39190476D01*
X28096390Y-41059523D02*
X28334485Y-41226189D01*
X28096390Y-41345237D02*
X28596390Y-41345237D01*
X28596390Y-41345237D02*
X28596390Y-41154761D01*
X28596390Y-41154761D02*
X28572580Y-41107142D01*
X28572580Y-41107142D02*
X28548771Y-41083332D01*
X28548771Y-41083332D02*
X28501152Y-41059523D01*
X28501152Y-41059523D02*
X28429723Y-41059523D01*
X28429723Y-41059523D02*
X28382104Y-41083332D01*
X28382104Y-41083332D02*
X28358295Y-41107142D01*
X28358295Y-41107142D02*
X28334485Y-41154761D01*
X28334485Y-41154761D02*
X28334485Y-41345237D01*
X28358295Y-40845237D02*
X28358295Y-40678570D01*
X28096390Y-40607142D02*
X28096390Y-40845237D01*
X28096390Y-40845237D02*
X28596390Y-40845237D01*
X28596390Y-40845237D02*
X28596390Y-40607142D01*
X28120200Y-40416665D02*
X28096390Y-40345237D01*
X28096390Y-40345237D02*
X28096390Y-40226189D01*
X28096390Y-40226189D02*
X28120200Y-40178570D01*
X28120200Y-40178570D02*
X28144009Y-40154761D01*
X28144009Y-40154761D02*
X28191628Y-40130951D01*
X28191628Y-40130951D02*
X28239247Y-40130951D01*
X28239247Y-40130951D02*
X28286866Y-40154761D01*
X28286866Y-40154761D02*
X28310676Y-40178570D01*
X28310676Y-40178570D02*
X28334485Y-40226189D01*
X28334485Y-40226189D02*
X28358295Y-40321427D01*
X28358295Y-40321427D02*
X28382104Y-40369046D01*
X28382104Y-40369046D02*
X28405914Y-40392856D01*
X28405914Y-40392856D02*
X28453533Y-40416665D01*
X28453533Y-40416665D02*
X28501152Y-40416665D01*
X28501152Y-40416665D02*
X28548771Y-40392856D01*
X28548771Y-40392856D02*
X28572580Y-40369046D01*
X28572580Y-40369046D02*
X28596390Y-40321427D01*
X28596390Y-40321427D02*
X28596390Y-40202380D01*
X28596390Y-40202380D02*
X28572580Y-40130951D01*
D11*
X43317999Y-53594957D02*
X42603714Y-53594957D01*
X43460856Y-54023528D02*
X42960856Y-52523528D01*
X42960856Y-52523528D02*
X42460856Y-54023528D01*
X41246571Y-54023528D02*
X41960857Y-54023528D01*
X41960857Y-54023528D02*
X41960857Y-52523528D01*
X40746571Y-53237814D02*
X40246571Y-53237814D01*
X40032285Y-54023528D02*
X40746571Y-54023528D01*
X40746571Y-54023528D02*
X40746571Y-52523528D01*
X40746571Y-52523528D02*
X40032285Y-52523528D01*
X39532285Y-52523528D02*
X38532285Y-54023528D01*
X38532285Y-52523528D02*
X39532285Y-54023528D01*
X36889428Y-53594957D02*
X36175143Y-53594957D01*
X37032285Y-54023528D02*
X36532285Y-52523528D01*
X36532285Y-52523528D02*
X36032285Y-54023528D01*
X35603714Y-53594957D02*
X34889429Y-53594957D01*
X35746571Y-54023528D02*
X35246571Y-52523528D01*
X35246571Y-52523528D02*
X34746571Y-54023528D01*
X33389429Y-54023528D02*
X33889429Y-53309242D01*
X34246572Y-54023528D02*
X34246572Y-52523528D01*
X34246572Y-52523528D02*
X33675143Y-52523528D01*
X33675143Y-52523528D02*
X33532286Y-52594957D01*
X33532286Y-52594957D02*
X33460857Y-52666385D01*
X33460857Y-52666385D02*
X33389429Y-52809242D01*
X33389429Y-52809242D02*
X33389429Y-53023528D01*
X33389429Y-53023528D02*
X33460857Y-53166385D01*
X33460857Y-53166385D02*
X33532286Y-53237814D01*
X33532286Y-53237814D02*
X33675143Y-53309242D01*
X33675143Y-53309242D02*
X34246572Y-53309242D01*
X32746572Y-54023528D02*
X32746572Y-52523528D01*
X32746572Y-53237814D02*
X31889429Y-53237814D01*
X31889429Y-54023528D02*
X31889429Y-52523528D01*
X31175143Y-52523528D02*
X31175143Y-53737814D01*
X31175143Y-53737814D02*
X31103714Y-53880671D01*
X31103714Y-53880671D02*
X31032286Y-53952100D01*
X31032286Y-53952100D02*
X30889428Y-54023528D01*
X30889428Y-54023528D02*
X30603714Y-54023528D01*
X30603714Y-54023528D02*
X30460857Y-53952100D01*
X30460857Y-53952100D02*
X30389428Y-53880671D01*
X30389428Y-53880671D02*
X30318000Y-53737814D01*
X30318000Y-53737814D02*
X30318000Y-52523528D01*
X29675142Y-53952100D02*
X29460857Y-54023528D01*
X29460857Y-54023528D02*
X29103714Y-54023528D01*
X29103714Y-54023528D02*
X28960857Y-53952100D01*
X28960857Y-53952100D02*
X28889428Y-53880671D01*
X28889428Y-53880671D02*
X28817999Y-53737814D01*
X28817999Y-53737814D02*
X28817999Y-53594957D01*
X28817999Y-53594957D02*
X28889428Y-53452100D01*
X28889428Y-53452100D02*
X28960857Y-53380671D01*
X28960857Y-53380671D02*
X29103714Y-53309242D01*
X29103714Y-53309242D02*
X29389428Y-53237814D01*
X29389428Y-53237814D02*
X29532285Y-53166385D01*
X29532285Y-53166385D02*
X29603714Y-53094957D01*
X29603714Y-53094957D02*
X29675142Y-52952100D01*
X29675142Y-52952100D02*
X29675142Y-52809242D01*
X29675142Y-52809242D02*
X29603714Y-52666385D01*
X29603714Y-52666385D02*
X29532285Y-52594957D01*
X29532285Y-52594957D02*
X29389428Y-52523528D01*
X29389428Y-52523528D02*
X29032285Y-52523528D01*
X29032285Y-52523528D02*
X28817999Y-52594957D01*
X51968171Y-28871357D02*
X52111029Y-28799928D01*
X52111029Y-28799928D02*
X52325314Y-28799928D01*
X52325314Y-28799928D02*
X52539600Y-28871357D01*
X52539600Y-28871357D02*
X52682457Y-29014214D01*
X52682457Y-29014214D02*
X52753886Y-29157071D01*
X52753886Y-29157071D02*
X52825314Y-29442785D01*
X52825314Y-29442785D02*
X52825314Y-29657071D01*
X52825314Y-29657071D02*
X52753886Y-29942785D01*
X52753886Y-29942785D02*
X52682457Y-30085642D01*
X52682457Y-30085642D02*
X52539600Y-30228500D01*
X52539600Y-30228500D02*
X52325314Y-30299928D01*
X52325314Y-30299928D02*
X52182457Y-30299928D01*
X52182457Y-30299928D02*
X51968171Y-30228500D01*
X51968171Y-30228500D02*
X51896743Y-30157071D01*
X51896743Y-30157071D02*
X51896743Y-29657071D01*
X51896743Y-29657071D02*
X52182457Y-29657071D01*
X50968171Y-28799928D02*
X50682457Y-28799928D01*
X50682457Y-28799928D02*
X50539600Y-28871357D01*
X50539600Y-28871357D02*
X50396743Y-29014214D01*
X50396743Y-29014214D02*
X50325314Y-29299928D01*
X50325314Y-29299928D02*
X50325314Y-29799928D01*
X50325314Y-29799928D02*
X50396743Y-30085642D01*
X50396743Y-30085642D02*
X50539600Y-30228500D01*
X50539600Y-30228500D02*
X50682457Y-30299928D01*
X50682457Y-30299928D02*
X50968171Y-30299928D01*
X50968171Y-30299928D02*
X51111029Y-30228500D01*
X51111029Y-30228500D02*
X51253886Y-30085642D01*
X51253886Y-30085642D02*
X51325314Y-29799928D01*
X51325314Y-29799928D02*
X51325314Y-29299928D01*
X51325314Y-29299928D02*
X51253886Y-29014214D01*
X51253886Y-29014214D02*
X51111029Y-28871357D01*
X51111029Y-28871357D02*
X50968171Y-28799928D01*
X49396742Y-28799928D02*
X49111028Y-28799928D01*
X49111028Y-28799928D02*
X48968171Y-28871357D01*
X48968171Y-28871357D02*
X48825314Y-29014214D01*
X48825314Y-29014214D02*
X48753885Y-29299928D01*
X48753885Y-29299928D02*
X48753885Y-29799928D01*
X48753885Y-29799928D02*
X48825314Y-30085642D01*
X48825314Y-30085642D02*
X48968171Y-30228500D01*
X48968171Y-30228500D02*
X49111028Y-30299928D01*
X49111028Y-30299928D02*
X49396742Y-30299928D01*
X49396742Y-30299928D02*
X49539600Y-30228500D01*
X49539600Y-30228500D02*
X49682457Y-30085642D01*
X49682457Y-30085642D02*
X49753885Y-29799928D01*
X49753885Y-29799928D02*
X49753885Y-29299928D01*
X49753885Y-29299928D02*
X49682457Y-29014214D01*
X49682457Y-29014214D02*
X49539600Y-28871357D01*
X49539600Y-28871357D02*
X49396742Y-28799928D01*
X48111028Y-30299928D02*
X48111028Y-28799928D01*
X48111028Y-28799928D02*
X47753885Y-28799928D01*
X47753885Y-28799928D02*
X47539599Y-28871357D01*
X47539599Y-28871357D02*
X47396742Y-29014214D01*
X47396742Y-29014214D02*
X47325313Y-29157071D01*
X47325313Y-29157071D02*
X47253885Y-29442785D01*
X47253885Y-29442785D02*
X47253885Y-29657071D01*
X47253885Y-29657071D02*
X47325313Y-29942785D01*
X47325313Y-29942785D02*
X47396742Y-30085642D01*
X47396742Y-30085642D02*
X47539599Y-30228500D01*
X47539599Y-30228500D02*
X47753885Y-30299928D01*
X47753885Y-30299928D02*
X48111028Y-30299928D01*
X45468171Y-30299928D02*
X45468171Y-28799928D01*
X45468171Y-28799928D02*
X44968171Y-29871357D01*
X44968171Y-29871357D02*
X44468171Y-28799928D01*
X44468171Y-28799928D02*
X44468171Y-30299928D01*
X43753885Y-29514214D02*
X43253885Y-29514214D01*
X43039599Y-30299928D02*
X43753885Y-30299928D01*
X43753885Y-30299928D02*
X43753885Y-28799928D01*
X43753885Y-28799928D02*
X43039599Y-28799928D01*
X42396742Y-30299928D02*
X42396742Y-28799928D01*
X42396742Y-28799928D02*
X41896742Y-29871357D01*
X41896742Y-29871357D02*
X41396742Y-28799928D01*
X41396742Y-28799928D02*
X41396742Y-30299928D01*
X40396741Y-28799928D02*
X40111027Y-28799928D01*
X40111027Y-28799928D02*
X39968170Y-28871357D01*
X39968170Y-28871357D02*
X39825313Y-29014214D01*
X39825313Y-29014214D02*
X39753884Y-29299928D01*
X39753884Y-29299928D02*
X39753884Y-29799928D01*
X39753884Y-29799928D02*
X39825313Y-30085642D01*
X39825313Y-30085642D02*
X39968170Y-30228500D01*
X39968170Y-30228500D02*
X40111027Y-30299928D01*
X40111027Y-30299928D02*
X40396741Y-30299928D01*
X40396741Y-30299928D02*
X40539599Y-30228500D01*
X40539599Y-30228500D02*
X40682456Y-30085642D01*
X40682456Y-30085642D02*
X40753884Y-29799928D01*
X40753884Y-29799928D02*
X40753884Y-29299928D01*
X40753884Y-29299928D02*
X40682456Y-29014214D01*
X40682456Y-29014214D02*
X40539599Y-28871357D01*
X40539599Y-28871357D02*
X40396741Y-28799928D01*
X38253884Y-30299928D02*
X38753884Y-29585642D01*
X39111027Y-30299928D02*
X39111027Y-28799928D01*
X39111027Y-28799928D02*
X38539598Y-28799928D01*
X38539598Y-28799928D02*
X38396741Y-28871357D01*
X38396741Y-28871357D02*
X38325312Y-28942785D01*
X38325312Y-28942785D02*
X38253884Y-29085642D01*
X38253884Y-29085642D02*
X38253884Y-29299928D01*
X38253884Y-29299928D02*
X38325312Y-29442785D01*
X38325312Y-29442785D02*
X38396741Y-29514214D01*
X38396741Y-29514214D02*
X38539598Y-29585642D01*
X38539598Y-29585642D02*
X39111027Y-29585642D01*
X37611027Y-30299928D02*
X37611027Y-28799928D01*
X36896741Y-29514214D02*
X36396741Y-29514214D01*
X36182455Y-30299928D02*
X36896741Y-30299928D01*
X36896741Y-30299928D02*
X36896741Y-28799928D01*
X36896741Y-28799928D02*
X36182455Y-28799928D01*
X35611026Y-30228500D02*
X35396741Y-30299928D01*
X35396741Y-30299928D02*
X35039598Y-30299928D01*
X35039598Y-30299928D02*
X34896741Y-30228500D01*
X34896741Y-30228500D02*
X34825312Y-30157071D01*
X34825312Y-30157071D02*
X34753883Y-30014214D01*
X34753883Y-30014214D02*
X34753883Y-29871357D01*
X34753883Y-29871357D02*
X34825312Y-29728500D01*
X34825312Y-29728500D02*
X34896741Y-29657071D01*
X34896741Y-29657071D02*
X35039598Y-29585642D01*
X35039598Y-29585642D02*
X35325312Y-29514214D01*
X35325312Y-29514214D02*
X35468169Y-29442785D01*
X35468169Y-29442785D02*
X35539598Y-29371357D01*
X35539598Y-29371357D02*
X35611026Y-29228500D01*
X35611026Y-29228500D02*
X35611026Y-29085642D01*
X35611026Y-29085642D02*
X35539598Y-28942785D01*
X35539598Y-28942785D02*
X35468169Y-28871357D01*
X35468169Y-28871357D02*
X35325312Y-28799928D01*
X35325312Y-28799928D02*
X34968169Y-28799928D01*
X34968169Y-28799928D02*
X34753883Y-28871357D01*
X48171370Y-27764700D02*
X47957085Y-27836128D01*
X47957085Y-27836128D02*
X47599942Y-27836128D01*
X47599942Y-27836128D02*
X47457085Y-27764700D01*
X47457085Y-27764700D02*
X47385656Y-27693271D01*
X47385656Y-27693271D02*
X47314227Y-27550414D01*
X47314227Y-27550414D02*
X47314227Y-27407557D01*
X47314227Y-27407557D02*
X47385656Y-27264700D01*
X47385656Y-27264700D02*
X47457085Y-27193271D01*
X47457085Y-27193271D02*
X47599942Y-27121842D01*
X47599942Y-27121842D02*
X47885656Y-27050414D01*
X47885656Y-27050414D02*
X48028513Y-26978985D01*
X48028513Y-26978985D02*
X48099942Y-26907557D01*
X48099942Y-26907557D02*
X48171370Y-26764700D01*
X48171370Y-26764700D02*
X48171370Y-26621842D01*
X48171370Y-26621842D02*
X48099942Y-26478985D01*
X48099942Y-26478985D02*
X48028513Y-26407557D01*
X48028513Y-26407557D02*
X47885656Y-26336128D01*
X47885656Y-26336128D02*
X47528513Y-26336128D01*
X47528513Y-26336128D02*
X47314227Y-26407557D01*
X46671371Y-27836128D02*
X46671371Y-26336128D01*
X46671371Y-26336128D02*
X46314228Y-26336128D01*
X46314228Y-26336128D02*
X46099942Y-26407557D01*
X46099942Y-26407557D02*
X45957085Y-26550414D01*
X45957085Y-26550414D02*
X45885656Y-26693271D01*
X45885656Y-26693271D02*
X45814228Y-26978985D01*
X45814228Y-26978985D02*
X45814228Y-27193271D01*
X45814228Y-27193271D02*
X45885656Y-27478985D01*
X45885656Y-27478985D02*
X45957085Y-27621842D01*
X45957085Y-27621842D02*
X46099942Y-27764700D01*
X46099942Y-27764700D02*
X46314228Y-27836128D01*
X46314228Y-27836128D02*
X46671371Y-27836128D01*
X45242799Y-27764700D02*
X45028514Y-27836128D01*
X45028514Y-27836128D02*
X44671371Y-27836128D01*
X44671371Y-27836128D02*
X44528514Y-27764700D01*
X44528514Y-27764700D02*
X44457085Y-27693271D01*
X44457085Y-27693271D02*
X44385656Y-27550414D01*
X44385656Y-27550414D02*
X44385656Y-27407557D01*
X44385656Y-27407557D02*
X44457085Y-27264700D01*
X44457085Y-27264700D02*
X44528514Y-27193271D01*
X44528514Y-27193271D02*
X44671371Y-27121842D01*
X44671371Y-27121842D02*
X44957085Y-27050414D01*
X44957085Y-27050414D02*
X45099942Y-26978985D01*
X45099942Y-26978985D02*
X45171371Y-26907557D01*
X45171371Y-26907557D02*
X45242799Y-26764700D01*
X45242799Y-26764700D02*
X45242799Y-26621842D01*
X45242799Y-26621842D02*
X45171371Y-26478985D01*
X45171371Y-26478985D02*
X45099942Y-26407557D01*
X45099942Y-26407557D02*
X44957085Y-26336128D01*
X44957085Y-26336128D02*
X44599942Y-26336128D01*
X44599942Y-26336128D02*
X44385656Y-26407557D01*
X43742800Y-26336128D02*
X43742800Y-27550414D01*
X43742800Y-27550414D02*
X43671371Y-27693271D01*
X43671371Y-27693271D02*
X43599943Y-27764700D01*
X43599943Y-27764700D02*
X43457085Y-27836128D01*
X43457085Y-27836128D02*
X43171371Y-27836128D01*
X43171371Y-27836128D02*
X43028514Y-27764700D01*
X43028514Y-27764700D02*
X42957085Y-27693271D01*
X42957085Y-27693271D02*
X42885657Y-27550414D01*
X42885657Y-27550414D02*
X42885657Y-26336128D01*
X41314228Y-27836128D02*
X41814228Y-27121842D01*
X42171371Y-27836128D02*
X42171371Y-26336128D01*
X42171371Y-26336128D02*
X41599942Y-26336128D01*
X41599942Y-26336128D02*
X41457085Y-26407557D01*
X41457085Y-26407557D02*
X41385656Y-26478985D01*
X41385656Y-26478985D02*
X41314228Y-26621842D01*
X41314228Y-26621842D02*
X41314228Y-26836128D01*
X41314228Y-26836128D02*
X41385656Y-26978985D01*
X41385656Y-26978985D02*
X41457085Y-27050414D01*
X41457085Y-27050414D02*
X41599942Y-27121842D01*
X41599942Y-27121842D02*
X42171371Y-27121842D01*
X40671371Y-27836128D02*
X40671371Y-26336128D01*
X40671371Y-26336128D02*
X40099942Y-26336128D01*
X40099942Y-26336128D02*
X39957085Y-26407557D01*
X39957085Y-26407557D02*
X39885656Y-26478985D01*
X39885656Y-26478985D02*
X39814228Y-26621842D01*
X39814228Y-26621842D02*
X39814228Y-26836128D01*
X39814228Y-26836128D02*
X39885656Y-26978985D01*
X39885656Y-26978985D02*
X39957085Y-27050414D01*
X39957085Y-27050414D02*
X40099942Y-27121842D01*
X40099942Y-27121842D02*
X40671371Y-27121842D01*
D12*
X46842704Y-40375819D02*
X46842704Y-41185342D01*
X46842704Y-41185342D02*
X46795085Y-41280580D01*
X46795085Y-41280580D02*
X46747466Y-41328200D01*
X46747466Y-41328200D02*
X46652228Y-41375819D01*
X46652228Y-41375819D02*
X46461752Y-41375819D01*
X46461752Y-41375819D02*
X46366514Y-41328200D01*
X46366514Y-41328200D02*
X46318895Y-41280580D01*
X46318895Y-41280580D02*
X46271276Y-41185342D01*
X46271276Y-41185342D02*
X46271276Y-40375819D01*
X45271276Y-41375819D02*
X45842704Y-41375819D01*
X45556990Y-41375819D02*
X45556990Y-40375819D01*
X45556990Y-40375819D02*
X45652228Y-40518676D01*
X45652228Y-40518676D02*
X45747466Y-40613914D01*
X45747466Y-40613914D02*
X45842704Y-40661533D01*
G36*
X52579924Y-51632205D02*
G01*
X52570604Y-51699512D01*
X52553600Y-51765000D01*
X52527246Y-51837791D01*
X52500487Y-51898058D01*
X52431293Y-52012996D01*
X52343690Y-52114704D01*
X52238113Y-52202722D01*
X52114996Y-52276586D01*
X52107077Y-52280505D01*
X52010254Y-52317204D01*
X51894639Y-52342537D01*
X51759668Y-52356630D01*
X51670304Y-52362007D01*
X51574288Y-52368013D01*
X51477035Y-52374295D01*
X51381976Y-52380619D01*
X51292539Y-52386748D01*
X51212155Y-52392448D01*
X51144253Y-52397484D01*
X51092262Y-52401621D01*
X51059611Y-52404624D01*
X51030996Y-52408212D01*
X51003630Y-52415015D01*
X50987034Y-52426854D01*
X50974070Y-52447289D01*
X50960296Y-52469967D01*
X50919697Y-52519568D01*
X50868266Y-52568200D01*
X50812998Y-52609618D01*
X50760889Y-52637579D01*
X50739854Y-52645484D01*
X50715040Y-52652928D01*
X50687360Y-52658368D01*
X50652826Y-52662227D01*
X50607449Y-52664926D01*
X50547239Y-52666887D01*
X50468208Y-52668533D01*
X50243159Y-52672614D01*
X50230414Y-52719946D01*
X50212694Y-52773154D01*
X50165609Y-52863879D01*
X50102026Y-52944188D01*
X50025071Y-53011070D01*
X49937869Y-53061515D01*
X49843548Y-53092512D01*
X49809806Y-53096976D01*
X49760615Y-53099307D01*
X49710589Y-53098317D01*
X49626791Y-53086452D01*
X49528391Y-53053199D01*
X49440535Y-53001089D01*
X49365312Y-52931752D01*
X49304813Y-52846816D01*
X49261127Y-52747912D01*
X49236693Y-52673480D01*
X49086753Y-52669009D01*
X49040797Y-52667486D01*
X48990428Y-52664822D01*
X48953153Y-52660681D01*
X48923251Y-52654045D01*
X48895000Y-52643899D01*
X48862677Y-52629227D01*
X48861157Y-52628500D01*
X48776440Y-52575885D01*
X48707349Y-52507641D01*
X48655837Y-52425690D01*
X48639901Y-52390761D01*
X48627802Y-52361084D01*
X48623171Y-52345245D01*
X48623102Y-52344714D01*
X48611557Y-52335175D01*
X48584069Y-52322183D01*
X48546175Y-52308389D01*
X48523015Y-52300425D01*
X48412869Y-52249204D01*
X48308163Y-52179046D01*
X48213130Y-52093159D01*
X48132006Y-51994747D01*
X48128908Y-51990301D01*
X48067181Y-51883989D01*
X48023109Y-51771084D01*
X47996509Y-51654420D01*
X47989045Y-51560145D01*
X48374866Y-51560145D01*
X48377415Y-51587250D01*
X48399900Y-51680943D01*
X48441615Y-51765041D01*
X48500617Y-51837510D01*
X48574960Y-51896315D01*
X48662698Y-51939425D01*
X48761888Y-51964806D01*
X48812113Y-51972527D01*
X48852584Y-51979451D01*
X48879744Y-51985796D01*
X48898520Y-51993072D01*
X48913843Y-52002786D01*
X48930640Y-52016448D01*
X48954618Y-52039070D01*
X48983701Y-52080896D01*
X48999534Y-52131678D01*
X49004637Y-52197580D01*
X49005245Y-52277418D01*
X49244761Y-52283121D01*
X49251279Y-52283277D01*
X49338927Y-52285775D01*
X49407151Y-52289065D01*
X49459131Y-52293969D01*
X49498044Y-52301308D01*
X49527069Y-52311903D01*
X49549384Y-52326574D01*
X49568167Y-52346144D01*
X49586598Y-52371433D01*
X49588941Y-52374922D01*
X49602791Y-52399205D01*
X49610821Y-52424800D01*
X49614535Y-52458861D01*
X49615439Y-52508542D01*
X49617292Y-52562346D01*
X49626923Y-52623788D01*
X49645491Y-52668116D01*
X49673799Y-52697930D01*
X49688553Y-52706507D01*
X49734302Y-52717170D01*
X49781187Y-52709145D01*
X49821615Y-52683190D01*
X49830919Y-52673444D01*
X49846398Y-52651158D01*
X49853752Y-52624141D01*
X49856088Y-52583392D01*
X49856221Y-52576262D01*
X49859982Y-52494895D01*
X49868617Y-52432356D01*
X49883697Y-52385155D01*
X49906793Y-52349800D01*
X49939476Y-52322800D01*
X49983316Y-52300664D01*
X49996930Y-52296042D01*
X50019389Y-52291486D01*
X50050668Y-52288086D01*
X50093565Y-52285695D01*
X50150875Y-52284168D01*
X50225398Y-52283358D01*
X50319931Y-52283121D01*
X50404217Y-52282882D01*
X50485207Y-52281930D01*
X50546445Y-52280183D01*
X50589591Y-52277567D01*
X50616304Y-52274009D01*
X50628245Y-52269434D01*
X50630282Y-52266909D01*
X50638571Y-52243942D01*
X50641932Y-52211841D01*
X50649469Y-52160023D01*
X50676035Y-52112579D01*
X50721285Y-52078070D01*
X50727623Y-52075011D01*
X50766784Y-52060920D01*
X50820783Y-52047952D01*
X50890759Y-52035977D01*
X50977851Y-52024864D01*
X51083197Y-52014481D01*
X51207937Y-52004699D01*
X51353210Y-51995387D01*
X51520153Y-51986414D01*
X51537231Y-51985546D01*
X51614343Y-51981145D01*
X51687188Y-51976263D01*
X51751133Y-51971256D01*
X51801549Y-51966480D01*
X51833804Y-51962292D01*
X51845656Y-51960021D01*
X51932875Y-51931552D01*
X52015270Y-51885196D01*
X52085374Y-51825028D01*
X52144071Y-51747357D01*
X52182575Y-51663043D01*
X52200745Y-51575318D01*
X52198941Y-51486877D01*
X52177524Y-51400415D01*
X52136853Y-51318629D01*
X52077289Y-51244215D01*
X51999192Y-51179869D01*
X51996690Y-51178180D01*
X51956616Y-51147719D01*
X51921498Y-51115396D01*
X51898683Y-51087932D01*
X51890785Y-51074728D01*
X51881233Y-51053570D01*
X51876927Y-51030012D01*
X51876985Y-50997300D01*
X51880528Y-50948680D01*
X51884950Y-50882924D01*
X51885043Y-50807486D01*
X51876950Y-50744088D01*
X51859284Y-50686929D01*
X51830661Y-50630208D01*
X51789696Y-50568123D01*
X51738480Y-50503670D01*
X51657850Y-50427433D01*
X51570998Y-50372809D01*
X51478553Y-50339997D01*
X51381144Y-50329194D01*
X51279399Y-50340597D01*
X51173947Y-50374405D01*
X51134706Y-50389211D01*
X51091791Y-50398581D01*
X51049152Y-50398315D01*
X51037799Y-50397012D01*
X50995419Y-50386492D01*
X50959098Y-50365287D01*
X50924085Y-50329862D01*
X50885627Y-50276685D01*
X50881750Y-50270860D01*
X50812519Y-50181453D01*
X50737806Y-50112687D01*
X50655151Y-50062683D01*
X50562093Y-50029561D01*
X50502878Y-50018616D01*
X50420974Y-50016931D01*
X50331324Y-50030257D01*
X50229566Y-50058979D01*
X50221835Y-50061590D01*
X50100072Y-50110627D01*
X49997521Y-50168469D01*
X49911981Y-50236345D01*
X49874318Y-50270727D01*
X49840105Y-50297323D01*
X49810125Y-50312654D01*
X49778362Y-50319674D01*
X49738797Y-50321336D01*
X49707994Y-50319641D01*
X49654098Y-50304692D01*
X49609267Y-50272155D01*
X49569158Y-50219420D01*
X49567391Y-50216579D01*
X49525672Y-50164306D01*
X49479054Y-50130378D01*
X49430276Y-50116203D01*
X49382073Y-50123190D01*
X49376775Y-50125865D01*
X49355065Y-50149509D01*
X49335533Y-50189337D01*
X49320351Y-50240010D01*
X49311690Y-50296190D01*
X49307618Y-50335057D01*
X49301144Y-50378378D01*
X49294359Y-50409201D01*
X49283801Y-50432619D01*
X49251505Y-50472254D01*
X49207264Y-50505677D01*
X49157845Y-50527048D01*
X49132524Y-50532384D01*
X49106451Y-50532933D01*
X49076122Y-50527069D01*
X49036073Y-50513704D01*
X48980836Y-50491745D01*
X48975393Y-50489736D01*
X48931309Y-50486371D01*
X48881740Y-50501068D01*
X48830095Y-50531417D01*
X48779783Y-50575012D01*
X48734216Y-50629444D01*
X48696802Y-50692306D01*
X48687450Y-50712151D01*
X48674891Y-50744250D01*
X48667764Y-50775902D01*
X48664631Y-50814852D01*
X48664056Y-50868842D01*
X48664224Y-50886203D01*
X48666065Y-50945625D01*
X48669456Y-51002917D01*
X48673831Y-51047739D01*
X48677701Y-51081672D01*
X48677539Y-51112193D01*
X48670218Y-51137696D01*
X48654144Y-51167903D01*
X48650024Y-51174682D01*
X48625897Y-51205345D01*
X48592359Y-51232831D01*
X48543299Y-51262344D01*
X48529390Y-51270134D01*
X48463086Y-51314323D01*
X48416791Y-51361335D01*
X48388196Y-51415254D01*
X48374990Y-51480163D01*
X48374866Y-51560145D01*
X47989045Y-51560145D01*
X47987199Y-51536826D01*
X47994999Y-51421134D01*
X48019726Y-51310177D01*
X48061199Y-51206783D01*
X48119235Y-51113786D01*
X48193654Y-51034017D01*
X48193751Y-51033932D01*
X48224345Y-51008222D01*
X48248446Y-50989889D01*
X48260842Y-50982897D01*
X48262691Y-50980617D01*
X48266228Y-50961394D01*
X48268677Y-50926834D01*
X48269592Y-50882072D01*
X48276664Y-50778717D01*
X48303008Y-50656545D01*
X48347112Y-50539732D01*
X48407150Y-50431012D01*
X48481298Y-50333122D01*
X48567730Y-50248796D01*
X48664621Y-50180770D01*
X48770148Y-50131780D01*
X48810614Y-50119604D01*
X48859984Y-50109063D01*
X48900103Y-50104915D01*
X48927300Y-50103751D01*
X48950852Y-50097655D01*
X48961211Y-50084715D01*
X48991787Y-50013840D01*
X49038277Y-49939372D01*
X49094691Y-49871337D01*
X49156542Y-49815103D01*
X49219341Y-49776036D01*
X49220342Y-49775573D01*
X49318295Y-49742509D01*
X49420043Y-49730732D01*
X49522086Y-49739931D01*
X49620926Y-49769792D01*
X49713065Y-49820006D01*
X49713532Y-49820327D01*
X49744353Y-49840733D01*
X49763760Y-49849462D01*
X49778843Y-49848038D01*
X49796692Y-49837985D01*
X49832600Y-49816244D01*
X49923190Y-49769203D01*
X50024968Y-49724846D01*
X50130052Y-49686454D01*
X50230560Y-49657310D01*
X50262016Y-49650461D01*
X50357818Y-49637602D01*
X50459837Y-49633656D01*
X50559044Y-49638722D01*
X50646407Y-49652893D01*
X50734989Y-49680167D01*
X50838474Y-49725834D01*
X50937489Y-49783270D01*
X51025926Y-49848875D01*
X51097680Y-49919047D01*
X51146402Y-49975609D01*
X51210669Y-49960481D01*
X51251531Y-49953185D01*
X51325745Y-49946982D01*
X51407660Y-49946459D01*
X51488646Y-49951574D01*
X51560073Y-49962280D01*
X51566540Y-49963722D01*
X51618457Y-49978650D01*
X51677162Y-49999830D01*
X51731155Y-50023167D01*
X51731566Y-50023366D01*
X51841931Y-50087262D01*
X51944141Y-50167095D01*
X52036174Y-50259910D01*
X52116009Y-50362748D01*
X52181622Y-50472655D01*
X52230992Y-50586674D01*
X52262097Y-50701849D01*
X52272915Y-50815223D01*
X52272915Y-50894821D01*
X52356941Y-50982770D01*
X52420455Y-51055805D01*
X52492516Y-51163857D01*
X52543190Y-51277789D01*
X52573207Y-51399367D01*
X52583296Y-51530359D01*
X52583221Y-51553954D01*
X52582321Y-51575318D01*
X52579924Y-51632205D01*
G37*
G36*
X54535722Y-52852944D02*
G01*
X54600734Y-52893072D01*
X54631519Y-52913601D01*
X54713049Y-52985262D01*
X54780074Y-53071228D01*
X54830518Y-53167809D01*
X54862307Y-53271312D01*
X54872098Y-53365829D01*
X54873364Y-53378047D01*
X54865988Y-53465248D01*
X54837967Y-53569577D01*
X54791084Y-53667628D01*
X54727514Y-53755867D01*
X54649433Y-53830758D01*
X54559016Y-53888767D01*
X54504180Y-53914188D01*
X54439297Y-53935936D01*
X54371990Y-53947315D01*
X54292443Y-53950602D01*
X54195758Y-53950602D01*
X54122363Y-54029875D01*
X54045398Y-54107442D01*
X53898323Y-54230510D01*
X53734355Y-54339056D01*
X53554097Y-54432881D01*
X53358152Y-54511785D01*
X53147125Y-54575571D01*
X52921620Y-54624038D01*
X52682239Y-54656987D01*
X52429587Y-54674220D01*
X52164267Y-54675538D01*
X51924457Y-54669614D01*
X51856319Y-54802214D01*
X51733945Y-55021605D01*
X51599596Y-55226436D01*
X51455559Y-55412862D01*
X51302960Y-55579304D01*
X51270344Y-55611209D01*
X51126689Y-55737612D01*
X50981130Y-55842387D01*
X50832010Y-55926495D01*
X50677676Y-55990898D01*
X50516471Y-56036559D01*
X50496809Y-56040484D01*
X50418583Y-56050403D01*
X50327739Y-56055219D01*
X50231274Y-56055066D01*
X50136189Y-56050080D01*
X50049483Y-56040396D01*
X49978155Y-56026149D01*
X49959655Y-56021050D01*
X49803308Y-55967215D01*
X49653664Y-55895486D01*
X49508748Y-55804642D01*
X49366584Y-55693461D01*
X49225195Y-55560723D01*
X49169430Y-55502487D01*
X49055951Y-55372551D01*
X48950513Y-55234521D01*
X48850600Y-55084740D01*
X48753694Y-54919551D01*
X48657281Y-54735299D01*
X48636501Y-54693204D01*
X48606782Y-54631904D01*
X48580584Y-54576610D01*
X48560163Y-54532106D01*
X48547777Y-54503176D01*
X48526215Y-54447837D01*
X48452080Y-54454710D01*
X48420450Y-54457646D01*
X48366051Y-54462701D01*
X48303533Y-54468516D01*
X48241078Y-54474329D01*
X48232265Y-54475110D01*
X48159752Y-54479471D01*
X48071814Y-54481966D01*
X47973227Y-54482701D01*
X47868769Y-54481782D01*
X47763216Y-54479317D01*
X47661344Y-54475412D01*
X47567931Y-54470173D01*
X47487753Y-54463708D01*
X47425587Y-54456122D01*
X47349375Y-54442768D01*
X47236574Y-54418829D01*
X47124047Y-54390610D01*
X47019290Y-54360032D01*
X46929799Y-54329017D01*
X46902610Y-54318129D01*
X46836174Y-54288936D01*
X46766788Y-54255537D01*
X46700511Y-54221032D01*
X46643404Y-54188521D01*
X46601525Y-54161102D01*
X46589614Y-54153018D01*
X46570963Y-54144647D01*
X46546624Y-54140275D01*
X46510906Y-54139072D01*
X46458119Y-54140211D01*
X46421614Y-54140969D01*
X46366262Y-54139273D01*
X46319656Y-54132719D01*
X46272811Y-54120344D01*
X46198882Y-54091430D01*
X46104675Y-54035333D01*
X46023069Y-53963440D01*
X45956083Y-53878452D01*
X45905736Y-53783071D01*
X45874048Y-53680000D01*
X45863036Y-53571940D01*
X45863154Y-53567321D01*
X46252567Y-53567321D01*
X46261284Y-53631745D01*
X46289218Y-53686196D01*
X46334307Y-53727758D01*
X46394489Y-53753514D01*
X46426471Y-53761218D01*
X46448937Y-53764053D01*
X46468757Y-53761061D01*
X46496040Y-53752104D01*
X46514566Y-53744579D01*
X46566386Y-53709121D01*
X46603113Y-53660593D01*
X46622948Y-53603475D01*
X46624092Y-53542248D01*
X46604747Y-53481391D01*
X46588396Y-53454660D01*
X46546809Y-53413507D01*
X46497259Y-53389275D01*
X46443684Y-53381153D01*
X46390023Y-53388329D01*
X46340214Y-53409992D01*
X46298196Y-53445330D01*
X46267907Y-53493533D01*
X46253286Y-53553789D01*
X46252567Y-53567321D01*
X45863154Y-53567321D01*
X45863620Y-53549002D01*
X45877340Y-53452993D01*
X45907322Y-53357612D01*
X45950967Y-53269710D01*
X46005674Y-53196141D01*
X46053736Y-53144235D01*
X46060394Y-53018774D01*
X46063495Y-52973415D01*
X46088913Y-52792431D01*
X46135393Y-52604424D01*
X46202669Y-52410095D01*
X46290474Y-52210143D01*
X46398540Y-52005270D01*
X46526601Y-51796174D01*
X46617555Y-51657093D01*
X46515462Y-51493928D01*
X46414596Y-51325428D01*
X46298273Y-51106802D01*
X46202145Y-50893653D01*
X46125588Y-50684418D01*
X46067982Y-50477537D01*
X46028705Y-50271448D01*
X46020726Y-50204930D01*
X46013488Y-50101675D01*
X46010693Y-49992132D01*
X46011299Y-49952086D01*
X46395370Y-49952086D01*
X46402983Y-50133781D01*
X46431251Y-50322248D01*
X46480028Y-50516788D01*
X46549165Y-50716701D01*
X46638516Y-50921285D01*
X46747932Y-51129842D01*
X46755179Y-51142560D01*
X46785652Y-51195051D01*
X46813492Y-51241557D01*
X46835880Y-51277430D01*
X46849993Y-51298021D01*
X46873188Y-51327285D01*
X46999973Y-51186456D01*
X47012815Y-51172264D01*
X47069950Y-51110396D01*
X47132146Y-51044680D01*
X47192715Y-50982126D01*
X47244967Y-50929742D01*
X47291125Y-50885279D01*
X47330583Y-50849726D01*
X47360795Y-50826276D01*
X47384997Y-50812444D01*
X47406424Y-50805745D01*
X47440503Y-50801772D01*
X47505284Y-50808641D01*
X47560802Y-50833728D01*
X47604108Y-50874672D01*
X47632254Y-50929112D01*
X47642291Y-50994685D01*
X47642131Y-51002208D01*
X47637663Y-51038690D01*
X47628975Y-51066336D01*
X47623466Y-51074138D01*
X47603369Y-51098335D01*
X47571397Y-51134744D01*
X47529916Y-51180724D01*
X47481288Y-51233637D01*
X47427878Y-51290844D01*
X47402500Y-51317913D01*
X47344934Y-51379963D01*
X47289779Y-51440231D01*
X47240370Y-51495035D01*
X47200036Y-51540693D01*
X47172111Y-51573523D01*
X47104126Y-51656606D01*
X47136391Y-51698983D01*
X47153295Y-51720617D01*
X47195402Y-51771977D01*
X47247397Y-51833131D01*
X47305436Y-51899691D01*
X47365671Y-51967270D01*
X47424258Y-52031482D01*
X47477351Y-52087940D01*
X47522510Y-52135905D01*
X47559542Y-52178590D01*
X47584278Y-52213148D01*
X47599055Y-52243496D01*
X47606209Y-52273555D01*
X47608074Y-52307241D01*
X47599286Y-52363014D01*
X47572618Y-52414208D01*
X47531987Y-52454193D01*
X47481366Y-52480923D01*
X47424727Y-52492351D01*
X47366042Y-52486433D01*
X47309284Y-52461121D01*
X47291655Y-52446539D01*
X47260633Y-52416827D01*
X47219712Y-52375331D01*
X47171532Y-52324854D01*
X47118736Y-52268200D01*
X47063963Y-52208175D01*
X47009855Y-52147583D01*
X46959054Y-52089228D01*
X46929505Y-52055193D01*
X46899639Y-52021801D01*
X46877784Y-51998529D01*
X46867289Y-51989034D01*
X46866329Y-51989080D01*
X46855250Y-52000298D01*
X46835739Y-52027569D01*
X46809840Y-52067508D01*
X46779598Y-52116730D01*
X46747056Y-52171850D01*
X46714259Y-52229482D01*
X46683252Y-52286242D01*
X46656079Y-52338744D01*
X46598511Y-52462878D01*
X46547258Y-52590939D01*
X46504435Y-52716975D01*
X46471864Y-52835630D01*
X46451362Y-52941546D01*
X46450213Y-52949937D01*
X46448505Y-52976572D01*
X46454385Y-52989157D01*
X46470282Y-52994490D01*
X46485323Y-52997243D01*
X46520166Y-53003622D01*
X46560726Y-53011050D01*
X46649795Y-53037085D01*
X46743620Y-53086767D01*
X46833373Y-53158255D01*
X46886281Y-53214731D01*
X46948363Y-53306982D01*
X46990224Y-53406949D01*
X47011457Y-53512206D01*
X47011511Y-53542248D01*
X47011652Y-53620328D01*
X46990403Y-53728888D01*
X46947300Y-53835461D01*
X46914252Y-53899386D01*
X46956067Y-53919733D01*
X47104200Y-53981392D01*
X47273779Y-54031699D01*
X47459517Y-54068495D01*
X47660150Y-54091586D01*
X47874411Y-54100777D01*
X48101036Y-54095873D01*
X48161750Y-54092532D01*
X48226378Y-54088514D01*
X48281535Y-54084597D01*
X48322784Y-54081098D01*
X48345685Y-54078336D01*
X48381858Y-54071578D01*
X48365110Y-54024206D01*
X48351773Y-53984459D01*
X48328997Y-53910304D01*
X48303463Y-53821412D01*
X48276329Y-53722295D01*
X48248753Y-53617466D01*
X48221893Y-53511435D01*
X48196907Y-53408716D01*
X48174952Y-53313819D01*
X48157186Y-53231258D01*
X48144767Y-53165543D01*
X48144014Y-53160972D01*
X48137456Y-53092216D01*
X48143732Y-53037916D01*
X48164131Y-52993100D01*
X48199943Y-52952797D01*
X48239796Y-52924359D01*
X48298399Y-52903986D01*
X48358524Y-52904422D01*
X48416165Y-52925456D01*
X48467315Y-52966878D01*
X48470826Y-52970861D01*
X48500004Y-53013563D01*
X48515337Y-53055162D01*
X48522946Y-53096990D01*
X48544351Y-53201857D01*
X48570966Y-53319708D01*
X48601289Y-53444637D01*
X48633815Y-53570736D01*
X48667042Y-53692100D01*
X48699466Y-53802822D01*
X48729585Y-53896996D01*
X48738931Y-53924430D01*
X48753726Y-53965784D01*
X48764938Y-53991056D01*
X48774981Y-54003974D01*
X48786269Y-54008267D01*
X48801215Y-54007665D01*
X48811798Y-54006235D01*
X48849608Y-53999268D01*
X48903296Y-53987936D01*
X48968585Y-53973253D01*
X49041199Y-53956231D01*
X49116861Y-53937882D01*
X49191295Y-53919218D01*
X49260223Y-53901253D01*
X49319369Y-53884998D01*
X49374644Y-53869793D01*
X49436515Y-53855276D01*
X49484335Y-53848405D01*
X49522362Y-53848966D01*
X49554854Y-53856743D01*
X49586069Y-53871522D01*
X49613755Y-53892203D01*
X49649319Y-53934857D01*
X49674386Y-53984672D01*
X49683871Y-54033239D01*
X49678190Y-54069047D01*
X49658593Y-54117564D01*
X49629868Y-54162386D01*
X49597116Y-54194058D01*
X49577747Y-54204000D01*
X49534353Y-54220571D01*
X49472751Y-54240495D01*
X49395294Y-54263092D01*
X49304336Y-54287684D01*
X49202230Y-54313590D01*
X49091330Y-54340131D01*
X49064002Y-54346640D01*
X49009213Y-54360689D01*
X48964695Y-54373473D01*
X48934454Y-54383795D01*
X48922496Y-54390462D01*
X48924536Y-54401575D01*
X48935801Y-54430525D01*
X48955109Y-54473247D01*
X48980758Y-54526374D01*
X49011049Y-54586540D01*
X49044281Y-54650377D01*
X49078753Y-54714520D01*
X49112767Y-54775602D01*
X49144620Y-54830257D01*
X49159171Y-54854232D01*
X49273451Y-55026042D01*
X49395601Y-55182399D01*
X49523582Y-55320872D01*
X49655358Y-55439032D01*
X49692782Y-55467209D01*
X49765311Y-55514495D01*
X49845785Y-55559963D01*
X49927883Y-55600362D01*
X50005281Y-55632444D01*
X50071658Y-55652959D01*
X50129273Y-55664036D01*
X50219492Y-55674063D01*
X50307884Y-55676213D01*
X50384864Y-55669966D01*
X50524112Y-55636822D01*
X50661599Y-55581151D01*
X50796688Y-55503261D01*
X50929029Y-55403418D01*
X51058271Y-55281885D01*
X51184063Y-55138929D01*
X51306054Y-54974814D01*
X51338855Y-54925925D01*
X51378816Y-54863418D01*
X51416171Y-54801999D01*
X51449257Y-54744659D01*
X51476412Y-54694387D01*
X51495974Y-54654173D01*
X51506279Y-54627008D01*
X51505665Y-54615879D01*
X51497114Y-54613877D01*
X51468820Y-54608482D01*
X51427127Y-54601174D01*
X51377585Y-54592948D01*
X51331352Y-54584917D01*
X51254357Y-54570048D01*
X51167419Y-54551970D01*
X51075935Y-54531902D01*
X50985301Y-54511065D01*
X50900914Y-54490678D01*
X50828170Y-54471963D01*
X50772468Y-54456139D01*
X50758709Y-54451797D01*
X50702850Y-54430391D01*
X50663534Y-54406188D01*
X50635619Y-54375206D01*
X50613962Y-54333466D01*
X50600329Y-54288828D01*
X50600139Y-54229604D01*
X50622160Y-54171800D01*
X50632752Y-54154106D01*
X50655952Y-54122543D01*
X50681940Y-54099648D01*
X50713427Y-54085149D01*
X50753129Y-54078775D01*
X50803760Y-54080253D01*
X50868034Y-54089312D01*
X50948664Y-54105678D01*
X51048365Y-54129081D01*
X51062542Y-54132515D01*
X51151586Y-54153264D01*
X51243580Y-54173465D01*
X51334936Y-54192433D01*
X51422062Y-54209485D01*
X51501370Y-54223938D01*
X51569269Y-54235107D01*
X51622169Y-54242310D01*
X51656480Y-54244863D01*
X51656968Y-54244862D01*
X51678585Y-54241316D01*
X51693650Y-54227058D01*
X51708249Y-54196390D01*
X51710585Y-54190561D01*
X51755852Y-54070426D01*
X51802645Y-53933815D01*
X51849204Y-53786504D01*
X51893768Y-53634269D01*
X51934578Y-53482885D01*
X51969872Y-53338128D01*
X51979665Y-53296028D01*
X51996547Y-53228832D01*
X52011831Y-53178531D01*
X52027185Y-53141458D01*
X52044273Y-53113948D01*
X52064760Y-53092335D01*
X52090311Y-53072950D01*
X52097180Y-53068618D01*
X52146864Y-53051038D01*
X52203407Y-53048827D01*
X52259995Y-53060691D01*
X52309809Y-53085338D01*
X52346034Y-53121474D01*
X52361981Y-53149088D01*
X52373352Y-53180445D01*
X52377882Y-53216335D01*
X52375654Y-53261090D01*
X52366751Y-53319043D01*
X52351257Y-53394525D01*
X52347256Y-53412575D01*
X52315928Y-53543269D01*
X52278164Y-53686051D01*
X52236160Y-53833187D01*
X52192111Y-53976946D01*
X52148212Y-54109594D01*
X52136980Y-54142216D01*
X52118546Y-54196545D01*
X52103783Y-54241089D01*
X52093981Y-54271931D01*
X52090427Y-54285158D01*
X52094073Y-54287004D01*
X52116409Y-54289182D01*
X52156114Y-54290143D01*
X52209757Y-54290004D01*
X52273910Y-54288882D01*
X52345142Y-54286895D01*
X52420024Y-54284159D01*
X52495125Y-54280792D01*
X52567017Y-54276911D01*
X52632269Y-54272633D01*
X52687451Y-54268074D01*
X52729134Y-54263352D01*
X52799374Y-54252638D01*
X53006565Y-54210751D01*
X53198259Y-54155876D01*
X53373571Y-54088384D01*
X53531618Y-54008651D01*
X53671516Y-53917050D01*
X53792382Y-53813954D01*
X53857651Y-53750058D01*
X53828757Y-53712176D01*
X53816508Y-53694784D01*
X53783131Y-53634438D01*
X53754333Y-53564421D01*
X53734302Y-53494392D01*
X53727590Y-53456498D01*
X53723336Y-53354657D01*
X54110879Y-53354657D01*
X54111273Y-53408799D01*
X54127428Y-53461183D01*
X54160286Y-53507995D01*
X54210789Y-53545422D01*
X54217657Y-53548950D01*
X54272505Y-53568351D01*
X54324337Y-53567926D01*
X54380384Y-53547777D01*
X54426822Y-53516016D01*
X54461788Y-53471169D01*
X54480413Y-53419825D01*
X54483579Y-53365829D01*
X54472169Y-53313027D01*
X54447064Y-53265265D01*
X54409149Y-53226388D01*
X54359305Y-53200241D01*
X54298416Y-53190671D01*
X54248061Y-53196808D01*
X54194836Y-53219834D01*
X54153602Y-53256361D01*
X54125302Y-53302573D01*
X54110879Y-53354657D01*
X53723336Y-53354657D01*
X53723047Y-53347729D01*
X53739333Y-53241703D01*
X53774991Y-53141129D01*
X53828563Y-53048716D01*
X53898592Y-52967176D01*
X53983620Y-52899218D01*
X54082189Y-52847552D01*
X54148364Y-52820657D01*
X54145030Y-52771444D01*
X54143095Y-52747711D01*
X54126719Y-52634930D01*
X54098368Y-52509200D01*
X54059399Y-52374852D01*
X54011165Y-52236220D01*
X53955021Y-52097635D01*
X53892324Y-51963431D01*
X53887333Y-51953547D01*
X53858347Y-51898048D01*
X53826155Y-51838965D01*
X53792749Y-51779684D01*
X53760127Y-51723590D01*
X53730284Y-51674069D01*
X53705215Y-51634505D01*
X53686916Y-51608285D01*
X53677381Y-51598792D01*
X53675833Y-51599459D01*
X53661746Y-51611822D01*
X53636560Y-51637402D01*
X53603288Y-51673071D01*
X53564939Y-51715699D01*
X53536176Y-51747844D01*
X53478933Y-51810118D01*
X53419066Y-51873377D01*
X53359141Y-51935066D01*
X53301722Y-51992630D01*
X53249373Y-52043517D01*
X53204657Y-52085172D01*
X53170141Y-52115040D01*
X53148387Y-52130569D01*
X53145364Y-52132052D01*
X53102026Y-52143153D01*
X53050111Y-52143677D01*
X52999563Y-52134390D01*
X52960327Y-52116059D01*
X52926822Y-52084699D01*
X52892487Y-52028922D01*
X52876986Y-51965816D01*
X52882203Y-51900582D01*
X52890361Y-51885694D01*
X52912443Y-51856322D01*
X52945549Y-51816820D01*
X52986976Y-51770398D01*
X53034022Y-51720267D01*
X53050731Y-51702813D01*
X53104271Y-51646049D01*
X53160338Y-51585525D01*
X53216666Y-51523792D01*
X53270990Y-51463401D01*
X53321044Y-51406902D01*
X53364562Y-51356845D01*
X53399279Y-51315781D01*
X53422930Y-51286261D01*
X53433248Y-51270835D01*
X53429046Y-51256949D01*
X53410414Y-51228159D01*
X53378703Y-51186676D01*
X53335464Y-51134289D01*
X53282249Y-51072792D01*
X53220611Y-51003975D01*
X53152101Y-50929630D01*
X53078271Y-50851548D01*
X53000674Y-50771521D01*
X52946854Y-50716098D01*
X52893861Y-50660211D01*
X52847956Y-50610427D01*
X52811403Y-50569247D01*
X52786468Y-50539174D01*
X52775416Y-50522710D01*
X52765283Y-50485345D01*
X52765274Y-50426430D01*
X52783133Y-50372671D01*
X52815796Y-50326932D01*
X52860200Y-50292079D01*
X52913283Y-50270979D01*
X52971981Y-50266497D01*
X53033231Y-50281498D01*
X53035077Y-50282344D01*
X53058569Y-50298334D01*
X53094736Y-50328573D01*
X53141204Y-50370704D01*
X53195598Y-50422365D01*
X53255544Y-50481200D01*
X53318669Y-50544849D01*
X53382599Y-50610954D01*
X53444959Y-50677154D01*
X53503376Y-50741092D01*
X53555475Y-50800409D01*
X53575715Y-50823947D01*
X53613099Y-50866897D01*
X53644026Y-50901734D01*
X53665730Y-50925363D01*
X53675447Y-50934689D01*
X53678485Y-50932599D01*
X53691851Y-50915310D01*
X53713359Y-50883358D01*
X53740828Y-50840041D01*
X53772076Y-50788656D01*
X53819371Y-50706680D01*
X53910800Y-50528666D01*
X53984596Y-50354935D01*
X54040527Y-50186622D01*
X54078359Y-50024858D01*
X54097860Y-49870777D01*
X54098795Y-49725513D01*
X54080933Y-49590199D01*
X54044041Y-49465968D01*
X54016696Y-49404668D01*
X53948491Y-49293668D01*
X53860722Y-49193109D01*
X53754154Y-49103587D01*
X53629551Y-49025702D01*
X53487676Y-48960049D01*
X53329294Y-48907226D01*
X53294603Y-48897825D01*
X53210893Y-48877502D01*
X53129197Y-48861688D01*
X53044560Y-48849757D01*
X52952025Y-48841089D01*
X52846634Y-48835058D01*
X52723431Y-48831043D01*
X52677114Y-48830162D01*
X52590318Y-48829627D01*
X52503942Y-48830380D01*
X52421184Y-48832284D01*
X52345242Y-48835204D01*
X52279315Y-48839005D01*
X52226600Y-48843551D01*
X52190298Y-48848707D01*
X52173605Y-48854336D01*
X52174585Y-48863510D01*
X52181136Y-48891405D01*
X52192578Y-48934409D01*
X52207953Y-48988925D01*
X52226297Y-49051359D01*
X52257401Y-49157772D01*
X52289391Y-49273569D01*
X52316118Y-49377817D01*
X52337124Y-49468522D01*
X52351952Y-49543687D01*
X52360144Y-49601319D01*
X52361242Y-49639421D01*
X52351472Y-49683532D01*
X52323041Y-49734367D01*
X52281014Y-49772989D01*
X52229626Y-49797569D01*
X52173112Y-49806279D01*
X52115705Y-49797292D01*
X52061640Y-49768778D01*
X52053450Y-49762247D01*
X52026741Y-49737113D01*
X52009806Y-49715425D01*
X52008044Y-49711349D01*
X51999897Y-49686494D01*
X51987659Y-49644404D01*
X51972328Y-49588678D01*
X51954904Y-49522914D01*
X51936383Y-49450711D01*
X51929877Y-49425237D01*
X51911940Y-49357273D01*
X51891940Y-49284045D01*
X51870876Y-49208964D01*
X51849749Y-49135442D01*
X51829557Y-49066890D01*
X51811300Y-49006719D01*
X51795977Y-48958340D01*
X51784589Y-48925165D01*
X51778134Y-48910604D01*
X51776685Y-48910586D01*
X51758972Y-48913441D01*
X51724375Y-48920050D01*
X51676959Y-48929616D01*
X51620790Y-48941347D01*
X51394032Y-48994501D01*
X51142897Y-49063937D01*
X50875744Y-49147971D01*
X50855277Y-49154748D01*
X50771468Y-49181895D01*
X50705391Y-49201612D01*
X50653975Y-49214151D01*
X50614145Y-49219764D01*
X50582832Y-49218701D01*
X50556962Y-49211215D01*
X50533463Y-49197558D01*
X50509264Y-49177980D01*
X50471863Y-49138849D01*
X50445045Y-49089136D01*
X50436633Y-49032760D01*
X50441668Y-48984686D01*
X50465119Y-48926437D01*
X50506707Y-48880969D01*
X50532743Y-48865777D01*
X50580033Y-48844712D01*
X50644402Y-48819809D01*
X50723200Y-48791902D01*
X50813774Y-48761825D01*
X50913474Y-48730411D01*
X51019649Y-48698494D01*
X51129647Y-48666908D01*
X51240816Y-48636485D01*
X51350507Y-48608061D01*
X51456067Y-48582467D01*
X51487964Y-48574981D01*
X51543049Y-48561756D01*
X51587708Y-48550646D01*
X51618003Y-48542641D01*
X51629998Y-48538731D01*
X51629977Y-48536045D01*
X51622850Y-48516919D01*
X51607154Y-48482498D01*
X51584596Y-48436081D01*
X51556884Y-48380963D01*
X51525724Y-48320440D01*
X51492825Y-48257810D01*
X51459893Y-48196369D01*
X51428636Y-48139413D01*
X51400762Y-48090239D01*
X51377977Y-48052143D01*
X51279315Y-47904233D01*
X51156875Y-47746017D01*
X51030082Y-47608628D01*
X50899363Y-47492443D01*
X50765150Y-47397835D01*
X50627872Y-47325181D01*
X50487958Y-47274856D01*
X50455503Y-47266545D01*
X50401405Y-47256597D01*
X50343047Y-47251675D01*
X50271254Y-47250759D01*
X50231227Y-47251579D01*
X50177923Y-47254032D01*
X50133880Y-47257598D01*
X50105874Y-47261825D01*
X50084615Y-47268340D01*
X50070739Y-47279822D01*
X50069723Y-47299592D01*
X50070709Y-47310504D01*
X50072291Y-47343811D01*
X50073519Y-47389652D01*
X50073744Y-47407024D01*
X50074189Y-47441496D01*
X50073906Y-47484225D01*
X50070702Y-47537562D01*
X50063216Y-47581203D01*
X50050411Y-47623062D01*
X50023585Y-47685490D01*
X49965698Y-47778224D01*
X49893120Y-47857218D01*
X49808526Y-47921229D01*
X49714589Y-47969011D01*
X49613983Y-47999319D01*
X49509381Y-48010909D01*
X49403457Y-48002536D01*
X49298885Y-47972954D01*
X49239550Y-47949566D01*
X49195302Y-48014884D01*
X49187405Y-48026742D01*
X49161325Y-48067870D01*
X49132543Y-48115490D01*
X49103507Y-48165282D01*
X49076663Y-48212932D01*
X49054459Y-48254121D01*
X49039342Y-48284533D01*
X49033759Y-48299851D01*
X49038493Y-48304835D01*
X49060229Y-48312630D01*
X49093638Y-48318940D01*
X49134864Y-48325034D01*
X49205625Y-48337431D01*
X49287507Y-48353451D01*
X49376785Y-48372220D01*
X49469731Y-48392864D01*
X49562621Y-48414509D01*
X49651728Y-48436280D01*
X49733326Y-48457304D01*
X49803690Y-48476706D01*
X49859093Y-48493611D01*
X49895809Y-48507147D01*
X49946697Y-48540108D01*
X49983515Y-48585602D01*
X50004931Y-48638783D01*
X50010514Y-48695200D01*
X49999833Y-48750403D01*
X49972459Y-48799941D01*
X49927959Y-48839365D01*
X49903591Y-48852931D01*
X49875102Y-48863537D01*
X49843339Y-48868150D01*
X49804611Y-48866578D01*
X49755228Y-48858629D01*
X49691500Y-48844112D01*
X49609736Y-48822835D01*
X49596909Y-48819409D01*
X49442956Y-48780968D01*
X49279964Y-48744650D01*
X49118002Y-48712585D01*
X48967136Y-48686903D01*
X48860593Y-48670555D01*
X48837752Y-48723246D01*
X48830836Y-48740007D01*
X48812357Y-48789104D01*
X48789515Y-48853854D01*
X48763673Y-48930031D01*
X48736198Y-49013415D01*
X48708453Y-49099783D01*
X48681803Y-49184912D01*
X48657612Y-49264579D01*
X48637246Y-49334561D01*
X48622069Y-49390637D01*
X48617497Y-49408278D01*
X48593509Y-49488202D01*
X48568128Y-49548201D01*
X48539301Y-49590680D01*
X48504973Y-49618044D01*
X48463091Y-49632700D01*
X48411599Y-49637050D01*
X48362835Y-49631744D01*
X48304933Y-49608728D01*
X48259773Y-49570026D01*
X48230302Y-49518404D01*
X48219467Y-49456629D01*
X48220453Y-49439871D01*
X48227817Y-49393676D01*
X48241754Y-49330171D01*
X48261531Y-49252061D01*
X48286415Y-49162051D01*
X48315674Y-49062846D01*
X48348575Y-48957151D01*
X48384386Y-48847672D01*
X48384440Y-48847509D01*
X48405762Y-48783490D01*
X48424323Y-48727011D01*
X48438986Y-48681590D01*
X48448617Y-48650743D01*
X48452080Y-48637989D01*
X48444622Y-48635025D01*
X48417493Y-48632835D01*
X48373658Y-48632047D01*
X48316426Y-48632524D01*
X48249108Y-48634133D01*
X48175012Y-48636738D01*
X48097448Y-48640204D01*
X48019726Y-48644395D01*
X47945156Y-48649176D01*
X47877048Y-48654413D01*
X47818710Y-48659969D01*
X47773454Y-48665711D01*
X47770156Y-48666220D01*
X47555120Y-48707429D01*
X47358505Y-48761672D01*
X47179863Y-48829176D01*
X47018747Y-48910164D01*
X46874709Y-49004862D01*
X46747301Y-49113494D01*
X46636073Y-49236285D01*
X46601615Y-49283522D01*
X46549441Y-49368767D01*
X46501526Y-49462470D01*
X46461898Y-49556506D01*
X46434584Y-49642753D01*
X46408561Y-49777864D01*
X46395370Y-49952086D01*
X46011299Y-49952086D01*
X46012338Y-49883465D01*
X46018421Y-49782842D01*
X46028938Y-49697429D01*
X46051663Y-49585808D01*
X46105658Y-49407046D01*
X46179105Y-49239567D01*
X46271562Y-49083756D01*
X46382584Y-48939995D01*
X46511727Y-48808668D01*
X46658549Y-48690158D01*
X46822604Y-48584849D01*
X47003450Y-48493124D01*
X47200642Y-48415367D01*
X47413737Y-48351962D01*
X47642291Y-48303290D01*
X47698210Y-48293923D01*
X47789942Y-48280590D01*
X47880223Y-48270479D01*
X47973894Y-48263250D01*
X48075798Y-48258562D01*
X48190778Y-48256076D01*
X48323675Y-48255452D01*
X48622976Y-48255854D01*
X48675501Y-48150920D01*
X48731074Y-48044823D01*
X48792511Y-47936102D01*
X48854959Y-47833134D01*
X48913861Y-47743705D01*
X48973300Y-47658128D01*
X48956964Y-47612542D01*
X48946805Y-47574519D01*
X48937747Y-47512256D01*
X48933620Y-47443058D01*
X48933754Y-47435793D01*
X49318896Y-47435793D01*
X49326953Y-47493006D01*
X49354600Y-47548909D01*
X49400308Y-47592162D01*
X49403976Y-47594537D01*
X49463286Y-47620287D01*
X49523623Y-47625451D01*
X49580808Y-47611037D01*
X49630664Y-47578049D01*
X49669013Y-47527493D01*
X49690251Y-47469119D01*
X49692044Y-47407024D01*
X49672176Y-47348882D01*
X49631100Y-47297451D01*
X49611379Y-47281500D01*
X49556947Y-47254678D01*
X49500297Y-47246996D01*
X49445288Y-47256742D01*
X49395783Y-47282205D01*
X49355642Y-47321675D01*
X49328726Y-47373441D01*
X49318896Y-47435793D01*
X48933754Y-47435793D01*
X48934868Y-47375647D01*
X48941938Y-47318743D01*
X48945988Y-47300985D01*
X48981185Y-47202594D01*
X49035328Y-47109898D01*
X49105159Y-47028683D01*
X49107101Y-47026824D01*
X49196281Y-46954907D01*
X49291107Y-46904644D01*
X49393731Y-46875161D01*
X49506305Y-46865582D01*
X49565440Y-46867299D01*
X49626965Y-46875202D01*
X49686244Y-46891611D01*
X49753768Y-46918779D01*
X49817961Y-46947227D01*
X49907742Y-46918970D01*
X49940831Y-46908954D01*
X50032533Y-46886278D01*
X50123038Y-46872635D01*
X50220053Y-46867115D01*
X50331287Y-46868804D01*
X50390703Y-46872192D01*
X50504909Y-46885636D01*
X50610847Y-46909315D01*
X50716568Y-46945277D01*
X50830122Y-46995567D01*
X50890579Y-47026292D01*
X50995344Y-47087862D01*
X51095982Y-47159053D01*
X51197332Y-47243428D01*
X51304234Y-47344549D01*
X51425061Y-47473390D01*
X51574392Y-47659189D01*
X51713075Y-47863498D01*
X51733044Y-47896771D01*
X51765963Y-47954876D01*
X51803702Y-48024174D01*
X51843973Y-48100228D01*
X51884489Y-48178599D01*
X51922962Y-48254848D01*
X51957105Y-48324537D01*
X51984629Y-48383228D01*
X52003247Y-48426481D01*
X52022820Y-48476217D01*
X52082286Y-48469021D01*
X52198044Y-48457073D01*
X52342058Y-48446843D01*
X52491353Y-48440568D01*
X52640394Y-48438321D01*
X52783645Y-48440175D01*
X52915570Y-48446204D01*
X53030632Y-48456480D01*
X53172002Y-48476752D01*
X53376179Y-48519787D01*
X53565159Y-48577051D01*
X53738323Y-48648194D01*
X53895050Y-48732864D01*
X54034720Y-48830712D01*
X54156713Y-48941385D01*
X54260409Y-49064535D01*
X54345188Y-49199809D01*
X54371652Y-49252228D01*
X54423829Y-49379990D01*
X54459560Y-49511891D01*
X54479970Y-49652782D01*
X54486187Y-49807518D01*
X54486043Y-49829236D01*
X54482244Y-49938663D01*
X54472418Y-50038437D01*
X54455272Y-50138625D01*
X54429514Y-50249296D01*
X54376934Y-50421762D01*
X54304555Y-50604823D01*
X54213840Y-50794490D01*
X54105738Y-50988777D01*
X53981198Y-51185702D01*
X53925530Y-51268750D01*
X54009799Y-51402406D01*
X54041521Y-51453346D01*
X54171423Y-51677852D01*
X54280697Y-51895618D01*
X54369842Y-52107938D01*
X54439360Y-52316104D01*
X54489750Y-52521411D01*
X54521512Y-52725150D01*
X54532132Y-52820657D01*
X54535722Y-52852944D01*
G37*
D13*
X49690800Y-37311000D02*
X49240800Y-37311000D01*
X42920800Y-37311000D02*
X42920800Y-36021000D01*
X42470800Y-37311000D02*
X42920800Y-37311000D01*
X49690800Y-37761000D02*
X49690800Y-37311000D01*
X42470800Y-37761000D02*
X42470800Y-37311000D01*
X49690800Y-44081000D02*
X49690800Y-44531000D01*
X42470800Y-44081000D02*
X42470800Y-44531000D01*
X49690800Y-44531000D02*
X49240800Y-44531000D01*
X42470800Y-44531000D02*
X42920800Y-44531000D01*
X31221399Y-42383999D02*
X31821399Y-42383999D01*
X32521399Y-41683999D02*
X32521399Y-40283999D01*
X30521399Y-40283999D02*
X30521399Y-41683999D01*
X31821399Y-39583999D02*
X31221399Y-39583999D01*
X30521399Y-41683999D02*
G75*
G03*
X31221399Y-42383999I699999J-1D01*
G01*
X31821399Y-42383999D02*
G75*
G03*
X32521399Y-41683999I1J699999D01*
G01*
X31221399Y-39583999D02*
G75*
G03*
X30521399Y-40283999I0J-700000D01*
G01*
X32521399Y-40283999D02*
G75*
G03*
X31821399Y-39583999I-700000J0D01*
G01*
%LPC*%
D14*
X30480000Y-58420000D03*
D15*
X30480000Y-58420000D03*
D14*
X30480000Y-30480000D03*
D15*
X30480000Y-30480000D03*
D16*
X46199400Y-57759600D03*
D17*
X53699400Y-57759600D03*
D18*
X47549400Y-55609600D03*
X47549400Y-59909600D03*
X52349400Y-55609600D03*
X52349400Y-59909600D03*
D19*
X35480000Y-59090000D03*
D20*
X38020000Y-59090000D03*
D21*
X40560000Y-59090000D03*
D20*
X43100000Y-59090000D03*
D21*
X43080000Y-56230000D03*
X40540000Y-56230000D03*
D20*
X38000000Y-56230000D03*
X35460000Y-56230000D03*
D21*
X43090000Y-61970000D03*
D20*
X40550000Y-61970000D03*
X38010000Y-61970000D03*
X35470000Y-61970000D03*
D22*
X43330800Y-36758500D03*
X43830800Y-36758500D03*
X44330800Y-36758500D03*
X44830800Y-36758500D03*
X45330800Y-36758500D03*
X45830800Y-36758500D03*
X46330800Y-36758500D03*
X46830800Y-36758500D03*
X47330800Y-36758500D03*
X47830800Y-36758500D03*
X48330800Y-36758500D03*
X48830800Y-36758500D03*
D23*
X50243300Y-38171000D03*
X50243300Y-38671000D03*
X50243300Y-39171000D03*
X50243300Y-39671000D03*
X50243300Y-40171000D03*
X50243300Y-40671000D03*
X50243300Y-41171000D03*
X50243300Y-41671000D03*
X50243300Y-42171000D03*
X50243300Y-42671000D03*
X50243300Y-43171000D03*
X50243300Y-43671000D03*
D22*
X48830800Y-45083500D03*
X48330800Y-45083500D03*
X47830800Y-45083500D03*
X47330800Y-45083500D03*
X46830800Y-45083500D03*
X46330800Y-45083500D03*
X45830800Y-45083500D03*
X45330800Y-45083500D03*
X44830800Y-45083500D03*
X44330800Y-45083500D03*
X43830800Y-45083500D03*
X43330800Y-45083500D03*
D23*
X41918300Y-43671000D03*
X41918300Y-43171000D03*
X41918300Y-42671000D03*
X41918300Y-42171000D03*
X41918300Y-41671000D03*
X41918300Y-41171000D03*
X41918300Y-40671000D03*
X41918300Y-40171000D03*
X41918300Y-39671000D03*
X41918300Y-39171000D03*
X41918300Y-38671000D03*
X41918300Y-38171000D03*
D24*
X31521399Y-41633999D03*
D25*
X31521399Y-40333999D03*
%LPD*%
M02*
