M48
; DRILL file {KiCad 7.0.7} date Wed Sep  6 22:46:41 2023
; FORMAT={-:-/ absolute / inch / decimal}
; #@! TF.CreationDate,2023-09-06T22:46:41-07:00
; #@! TF.GenerationSoftware,Kicad,Pcbnew,7.0.7
; #@! TF.FileFunction,Plated,1,4,PTH
FMAT,2
INCH
; #@! TA.AperFunction,Plated,PTH,ViaDrill
T1C0.0118
; #@! TA.AperFunction,Plated,PTH,ViaDrill
T2C0.0157
; #@! TA.AperFunction,Plated,PTH,ViaDrill
T3C0.0197
; #@! TA.AperFunction,Plated,PTH,ComponentDrill
T4C0.0276
; #@! TA.AperFunction,Plated,PTH,ComponentDrill
T5C0.0394
; #@! TA.AperFunction,Plated,PTH,ComponentDrill
T6C0.1260
%
G90
G05
T1
X1.0611Y-1.4236
X1.1201Y-1.7589
X1.166Y-2.033
X1.182Y-1.594
X1.196Y-2.033
X1.241Y-1.5421
X1.294Y-1.696
X1.3138Y-1.4236
X1.368Y-1.628
X1.405Y-1.512
X1.433Y-1.512
X1.434Y-2.0009
X1.485Y-1.6701
X1.4917Y-1.4283
X1.542Y-1.49
X1.556Y-1.214
X1.5681Y-1.6484
X1.633Y-1.481
X1.701Y-1.7199
X1.701Y-1.254
X1.705Y-1.401
X1.7114Y-1.878
X1.745Y-1.7243
X1.7777Y-1.496
X1.785Y-1.722
X1.804Y-1.254
X1.8131Y-1.4965
X1.824Y-1.72
X1.8291Y-1.304
X1.868Y-1.717
X1.878Y-1.5241
X1.8995Y-1.339
X1.9131Y-1.3717
X1.9157Y-1.6031
X1.9459Y-1.4075
X1.9475Y-2.1039
X1.949Y-1.065
X1.9768Y-2.1334
X2.0321Y-1.237
X2.0691Y-1.273
X2.1045Y-1.2719
T2
X1.6008Y-1.5576
X1.637Y-1.339
X1.6531Y-2.3693
X1.7331Y-1.2535
X1.7705Y-1.2528
X1.915Y-1.6469
X1.9154Y-1.7079
X2.0374Y-1.6118
X2.0382Y-1.6626
X2.0398Y-1.7019
T3
X1.221Y-1.911
X1.2715Y-1.911
X1.322Y-1.911
X1.7068Y-1.5081
X1.823Y-1.665
T4
X1.872Y-2.1894
X1.872Y-2.3586
X2.061Y-2.1894
X2.061Y-2.3586
T5
X1.3961Y-2.2138
X1.3965Y-2.4398
X1.3969Y-2.3264
X1.4961Y-2.2138
X1.4965Y-2.4398
X1.4969Y-2.3264
X1.5961Y-2.2138
X1.5965Y-2.4398
X1.5969Y-2.3264
X1.6961Y-2.2138
X1.6965Y-2.4398
X1.6969Y-2.3264
T6
X1.2Y-1.2
X1.2Y-2.3
T0
M30
