G04 #@! TF.GenerationSoftware,KiCad,Pcbnew,7.0.7*
G04 #@! TF.CreationDate,2023-09-05T00:06:28-07:00*
G04 #@! TF.ProjectId,Solenoid Board Ground Systems V1.1,536f6c65-6e6f-4696-9420-426f61726420,rev?*
G04 #@! TF.SameCoordinates,Original*
G04 #@! TF.FileFunction,Legend,Top*
G04 #@! TF.FilePolarity,Positive*
%FSLAX46Y46*%
G04 Gerber Fmt 4.6, Leading zero omitted, Abs format (unit mm)*
G04 Created by KiCad (PCBNEW 7.0.7) date 2023-09-05 00:06:28*
%MOMM*%
%LPD*%
G01*
G04 APERTURE LIST*
G04 Aperture macros list*
%AMRoundRect*
0 Rectangle with rounded corners*
0 $1 Rounding radius*
0 $2 $3 $4 $5 $6 $7 $8 $9 X,Y pos of 4 corners*
0 Add a 4 corners polygon primitive as box body*
4,1,4,$2,$3,$4,$5,$6,$7,$8,$9,$2,$3,0*
0 Add four circle primitives for the rounded corners*
1,1,$1+$1,$2,$3*
1,1,$1+$1,$4,$5*
1,1,$1+$1,$6,$7*
1,1,$1+$1,$8,$9*
0 Add four rect primitives between the rounded corners*
20,1,$1+$1,$2,$3,$4,$5,0*
20,1,$1+$1,$4,$5,$6,$7,0*
20,1,$1+$1,$6,$7,$8,$9,0*
20,1,$1+$1,$8,$9,$2,$3,0*%
G04 Aperture macros list end*
%ADD10C,0.150000*%
%ADD11C,0.250000*%
%ADD12C,0.200000*%
%ADD13C,0.300000*%
%ADD14C,0.100000*%
%ADD15C,0.120000*%
%ADD16R,2.025000X2.025000*%
%ADD17C,2.025000*%
%ADD18RoundRect,0.243750X-0.456250X0.243750X-0.456250X-0.243750X0.456250X-0.243750X0.456250X0.243750X0*%
%ADD19RoundRect,0.200000X-0.200000X-0.275000X0.200000X-0.275000X0.200000X0.275000X-0.200000X0.275000X0*%
%ADD20C,3.600000*%
%ADD21C,5.600000*%
%ADD22RoundRect,0.150000X-0.150000X0.587500X-0.150000X-0.587500X0.150000X-0.587500X0.150000X0.587500X0*%
G04 APERTURE END LIST*
D10*
X51998571Y-62943450D02*
X52105714Y-62979164D01*
X52105714Y-62979164D02*
X52284285Y-62979164D01*
X52284285Y-62979164D02*
X52355714Y-62943450D01*
X52355714Y-62943450D02*
X52391428Y-62907735D01*
X52391428Y-62907735D02*
X52427142Y-62836307D01*
X52427142Y-62836307D02*
X52427142Y-62764878D01*
X52427142Y-62764878D02*
X52391428Y-62693450D01*
X52391428Y-62693450D02*
X52355714Y-62657735D01*
X52355714Y-62657735D02*
X52284285Y-62622021D01*
X52284285Y-62622021D02*
X52141428Y-62586307D01*
X52141428Y-62586307D02*
X52069999Y-62550592D01*
X52069999Y-62550592D02*
X52034285Y-62514878D01*
X52034285Y-62514878D02*
X51998571Y-62443450D01*
X51998571Y-62443450D02*
X51998571Y-62372021D01*
X51998571Y-62372021D02*
X52034285Y-62300592D01*
X52034285Y-62300592D02*
X52069999Y-62264878D01*
X52069999Y-62264878D02*
X52141428Y-62229164D01*
X52141428Y-62229164D02*
X52319999Y-62229164D01*
X52319999Y-62229164D02*
X52427142Y-62264878D01*
X52677142Y-62229164D02*
X53177142Y-62229164D01*
X53177142Y-62229164D02*
X52855714Y-62979164D01*
D11*
X99878904Y-52135237D02*
X100450333Y-53659046D01*
X100450333Y-53659046D02*
X101021761Y-52135237D01*
X100450333Y-51182856D02*
X100450333Y-49659047D01*
X101212238Y-48706666D02*
X99212238Y-48706666D01*
X101212238Y-47754285D02*
X99212238Y-47754285D01*
X99212238Y-47754285D02*
X101212238Y-46611428D01*
X101212238Y-46611428D02*
X99212238Y-46611428D01*
X99212238Y-43754285D02*
X99212238Y-43373332D01*
X99212238Y-43373332D02*
X99307476Y-43182856D01*
X99307476Y-43182856D02*
X99497952Y-42992380D01*
X99497952Y-42992380D02*
X99878904Y-42897142D01*
X99878904Y-42897142D02*
X100545571Y-42897142D01*
X100545571Y-42897142D02*
X100926523Y-42992380D01*
X100926523Y-42992380D02*
X101117000Y-43182856D01*
X101117000Y-43182856D02*
X101212238Y-43373332D01*
X101212238Y-43373332D02*
X101212238Y-43754285D01*
X101212238Y-43754285D02*
X101117000Y-43944761D01*
X101117000Y-43944761D02*
X100926523Y-44135237D01*
X100926523Y-44135237D02*
X100545571Y-44230475D01*
X100545571Y-44230475D02*
X99878904Y-44230475D01*
X99878904Y-44230475D02*
X99497952Y-44135237D01*
X99497952Y-44135237D02*
X99307476Y-43944761D01*
X99307476Y-43944761D02*
X99212238Y-43754285D01*
X99212238Y-42039999D02*
X100831285Y-42039999D01*
X100831285Y-42039999D02*
X101021761Y-41944761D01*
X101021761Y-41944761D02*
X101117000Y-41849523D01*
X101117000Y-41849523D02*
X101212238Y-41659047D01*
X101212238Y-41659047D02*
X101212238Y-41278094D01*
X101212238Y-41278094D02*
X101117000Y-41087618D01*
X101117000Y-41087618D02*
X101021761Y-40992380D01*
X101021761Y-40992380D02*
X100831285Y-40897142D01*
X100831285Y-40897142D02*
X99212238Y-40897142D01*
X99212238Y-40230475D02*
X99212238Y-39087618D01*
X101212238Y-39659047D02*
X99212238Y-39659047D01*
X100450333Y-38420951D02*
X100450333Y-36897142D01*
X99878904Y-35944761D02*
X100450333Y-34420952D01*
X100450333Y-34420952D02*
X101021761Y-35944761D01*
D10*
X73845950Y-44072200D02*
X73988807Y-44119819D01*
X73988807Y-44119819D02*
X74226902Y-44119819D01*
X74226902Y-44119819D02*
X74322140Y-44072200D01*
X74322140Y-44072200D02*
X74369759Y-44024580D01*
X74369759Y-44024580D02*
X74417378Y-43929342D01*
X74417378Y-43929342D02*
X74417378Y-43834104D01*
X74417378Y-43834104D02*
X74369759Y-43738866D01*
X74369759Y-43738866D02*
X74322140Y-43691247D01*
X74322140Y-43691247D02*
X74226902Y-43643628D01*
X74226902Y-43643628D02*
X74036426Y-43596009D01*
X74036426Y-43596009D02*
X73941188Y-43548390D01*
X73941188Y-43548390D02*
X73893569Y-43500771D01*
X73893569Y-43500771D02*
X73845950Y-43405533D01*
X73845950Y-43405533D02*
X73845950Y-43310295D01*
X73845950Y-43310295D02*
X73893569Y-43215057D01*
X73893569Y-43215057D02*
X73941188Y-43167438D01*
X73941188Y-43167438D02*
X74036426Y-43119819D01*
X74036426Y-43119819D02*
X74274521Y-43119819D01*
X74274521Y-43119819D02*
X74417378Y-43167438D01*
X75036426Y-43119819D02*
X75226902Y-43119819D01*
X75226902Y-43119819D02*
X75322140Y-43167438D01*
X75322140Y-43167438D02*
X75417378Y-43262676D01*
X75417378Y-43262676D02*
X75464997Y-43453152D01*
X75464997Y-43453152D02*
X75464997Y-43786485D01*
X75464997Y-43786485D02*
X75417378Y-43976961D01*
X75417378Y-43976961D02*
X75322140Y-44072200D01*
X75322140Y-44072200D02*
X75226902Y-44119819D01*
X75226902Y-44119819D02*
X75036426Y-44119819D01*
X75036426Y-44119819D02*
X74941188Y-44072200D01*
X74941188Y-44072200D02*
X74845950Y-43976961D01*
X74845950Y-43976961D02*
X74798331Y-43786485D01*
X74798331Y-43786485D02*
X74798331Y-43453152D01*
X74798331Y-43453152D02*
X74845950Y-43262676D01*
X74845950Y-43262676D02*
X74941188Y-43167438D01*
X74941188Y-43167438D02*
X75036426Y-43119819D01*
X76369759Y-44119819D02*
X75893569Y-44119819D01*
X75893569Y-44119819D02*
X75893569Y-43119819D01*
X76655474Y-43215057D02*
X76703093Y-43167438D01*
X76703093Y-43167438D02*
X76798331Y-43119819D01*
X76798331Y-43119819D02*
X77036426Y-43119819D01*
X77036426Y-43119819D02*
X77131664Y-43167438D01*
X77131664Y-43167438D02*
X77179283Y-43215057D01*
X77179283Y-43215057D02*
X77226902Y-43310295D01*
X77226902Y-43310295D02*
X77226902Y-43405533D01*
X77226902Y-43405533D02*
X77179283Y-43548390D01*
X77179283Y-43548390D02*
X76607855Y-44119819D01*
X76607855Y-44119819D02*
X77226902Y-44119819D01*
X56585237Y-44072200D02*
X56728094Y-44119819D01*
X56728094Y-44119819D02*
X56966189Y-44119819D01*
X56966189Y-44119819D02*
X57061427Y-44072200D01*
X57061427Y-44072200D02*
X57109046Y-44024580D01*
X57109046Y-44024580D02*
X57156665Y-43929342D01*
X57156665Y-43929342D02*
X57156665Y-43834104D01*
X57156665Y-43834104D02*
X57109046Y-43738866D01*
X57109046Y-43738866D02*
X57061427Y-43691247D01*
X57061427Y-43691247D02*
X56966189Y-43643628D01*
X56966189Y-43643628D02*
X56775713Y-43596009D01*
X56775713Y-43596009D02*
X56680475Y-43548390D01*
X56680475Y-43548390D02*
X56632856Y-43500771D01*
X56632856Y-43500771D02*
X56585237Y-43405533D01*
X56585237Y-43405533D02*
X56585237Y-43310295D01*
X56585237Y-43310295D02*
X56632856Y-43215057D01*
X56632856Y-43215057D02*
X56680475Y-43167438D01*
X56680475Y-43167438D02*
X56775713Y-43119819D01*
X56775713Y-43119819D02*
X57013808Y-43119819D01*
X57013808Y-43119819D02*
X57156665Y-43167438D01*
X57775713Y-43119819D02*
X57966189Y-43119819D01*
X57966189Y-43119819D02*
X58061427Y-43167438D01*
X58061427Y-43167438D02*
X58156665Y-43262676D01*
X58156665Y-43262676D02*
X58204284Y-43453152D01*
X58204284Y-43453152D02*
X58204284Y-43786485D01*
X58204284Y-43786485D02*
X58156665Y-43976961D01*
X58156665Y-43976961D02*
X58061427Y-44072200D01*
X58061427Y-44072200D02*
X57966189Y-44119819D01*
X57966189Y-44119819D02*
X57775713Y-44119819D01*
X57775713Y-44119819D02*
X57680475Y-44072200D01*
X57680475Y-44072200D02*
X57585237Y-43976961D01*
X57585237Y-43976961D02*
X57537618Y-43786485D01*
X57537618Y-43786485D02*
X57537618Y-43453152D01*
X57537618Y-43453152D02*
X57585237Y-43262676D01*
X57585237Y-43262676D02*
X57680475Y-43167438D01*
X57680475Y-43167438D02*
X57775713Y-43119819D01*
X59109046Y-44119819D02*
X58632856Y-44119819D01*
X58632856Y-44119819D02*
X58632856Y-43119819D01*
X59918570Y-43119819D02*
X59442380Y-43119819D01*
X59442380Y-43119819D02*
X59394761Y-43596009D01*
X59394761Y-43596009D02*
X59442380Y-43548390D01*
X59442380Y-43548390D02*
X59537618Y-43500771D01*
X59537618Y-43500771D02*
X59775713Y-43500771D01*
X59775713Y-43500771D02*
X59870951Y-43548390D01*
X59870951Y-43548390D02*
X59918570Y-43596009D01*
X59918570Y-43596009D02*
X59966189Y-43691247D01*
X59966189Y-43691247D02*
X59966189Y-43929342D01*
X59966189Y-43929342D02*
X59918570Y-44024580D01*
X59918570Y-44024580D02*
X59870951Y-44072200D01*
X59870951Y-44072200D02*
X59775713Y-44119819D01*
X59775713Y-44119819D02*
X59537618Y-44119819D01*
X59537618Y-44119819D02*
X59442380Y-44072200D01*
X59442380Y-44072200D02*
X59394761Y-44024580D01*
X79599524Y-44072200D02*
X79742381Y-44119819D01*
X79742381Y-44119819D02*
X79980476Y-44119819D01*
X79980476Y-44119819D02*
X80075714Y-44072200D01*
X80075714Y-44072200D02*
X80123333Y-44024580D01*
X80123333Y-44024580D02*
X80170952Y-43929342D01*
X80170952Y-43929342D02*
X80170952Y-43834104D01*
X80170952Y-43834104D02*
X80123333Y-43738866D01*
X80123333Y-43738866D02*
X80075714Y-43691247D01*
X80075714Y-43691247D02*
X79980476Y-43643628D01*
X79980476Y-43643628D02*
X79790000Y-43596009D01*
X79790000Y-43596009D02*
X79694762Y-43548390D01*
X79694762Y-43548390D02*
X79647143Y-43500771D01*
X79647143Y-43500771D02*
X79599524Y-43405533D01*
X79599524Y-43405533D02*
X79599524Y-43310295D01*
X79599524Y-43310295D02*
X79647143Y-43215057D01*
X79647143Y-43215057D02*
X79694762Y-43167438D01*
X79694762Y-43167438D02*
X79790000Y-43119819D01*
X79790000Y-43119819D02*
X80028095Y-43119819D01*
X80028095Y-43119819D02*
X80170952Y-43167438D01*
X80790000Y-43119819D02*
X80980476Y-43119819D01*
X80980476Y-43119819D02*
X81075714Y-43167438D01*
X81075714Y-43167438D02*
X81170952Y-43262676D01*
X81170952Y-43262676D02*
X81218571Y-43453152D01*
X81218571Y-43453152D02*
X81218571Y-43786485D01*
X81218571Y-43786485D02*
X81170952Y-43976961D01*
X81170952Y-43976961D02*
X81075714Y-44072200D01*
X81075714Y-44072200D02*
X80980476Y-44119819D01*
X80980476Y-44119819D02*
X80790000Y-44119819D01*
X80790000Y-44119819D02*
X80694762Y-44072200D01*
X80694762Y-44072200D02*
X80599524Y-43976961D01*
X80599524Y-43976961D02*
X80551905Y-43786485D01*
X80551905Y-43786485D02*
X80551905Y-43453152D01*
X80551905Y-43453152D02*
X80599524Y-43262676D01*
X80599524Y-43262676D02*
X80694762Y-43167438D01*
X80694762Y-43167438D02*
X80790000Y-43119819D01*
X82123333Y-44119819D02*
X81647143Y-44119819D01*
X81647143Y-44119819D02*
X81647143Y-43119819D01*
X82980476Y-44119819D02*
X82409048Y-44119819D01*
X82694762Y-44119819D02*
X82694762Y-43119819D01*
X82694762Y-43119819D02*
X82599524Y-43262676D01*
X82599524Y-43262676D02*
X82504286Y-43357914D01*
X82504286Y-43357914D02*
X82409048Y-43405533D01*
X48547143Y-62943450D02*
X48654286Y-62979164D01*
X48654286Y-62979164D02*
X48832857Y-62979164D01*
X48832857Y-62979164D02*
X48904286Y-62943450D01*
X48904286Y-62943450D02*
X48940000Y-62907735D01*
X48940000Y-62907735D02*
X48975714Y-62836307D01*
X48975714Y-62836307D02*
X48975714Y-62764878D01*
X48975714Y-62764878D02*
X48940000Y-62693450D01*
X48940000Y-62693450D02*
X48904286Y-62657735D01*
X48904286Y-62657735D02*
X48832857Y-62622021D01*
X48832857Y-62622021D02*
X48690000Y-62586307D01*
X48690000Y-62586307D02*
X48618571Y-62550592D01*
X48618571Y-62550592D02*
X48582857Y-62514878D01*
X48582857Y-62514878D02*
X48547143Y-62443450D01*
X48547143Y-62443450D02*
X48547143Y-62372021D01*
X48547143Y-62372021D02*
X48582857Y-62300592D01*
X48582857Y-62300592D02*
X48618571Y-62264878D01*
X48618571Y-62264878D02*
X48690000Y-62229164D01*
X48690000Y-62229164D02*
X48868571Y-62229164D01*
X48868571Y-62229164D02*
X48975714Y-62264878D01*
X49404286Y-62550592D02*
X49332857Y-62514878D01*
X49332857Y-62514878D02*
X49297143Y-62479164D01*
X49297143Y-62479164D02*
X49261429Y-62407735D01*
X49261429Y-62407735D02*
X49261429Y-62372021D01*
X49261429Y-62372021D02*
X49297143Y-62300592D01*
X49297143Y-62300592D02*
X49332857Y-62264878D01*
X49332857Y-62264878D02*
X49404286Y-62229164D01*
X49404286Y-62229164D02*
X49547143Y-62229164D01*
X49547143Y-62229164D02*
X49618572Y-62264878D01*
X49618572Y-62264878D02*
X49654286Y-62300592D01*
X49654286Y-62300592D02*
X49690000Y-62372021D01*
X49690000Y-62372021D02*
X49690000Y-62407735D01*
X49690000Y-62407735D02*
X49654286Y-62479164D01*
X49654286Y-62479164D02*
X49618572Y-62514878D01*
X49618572Y-62514878D02*
X49547143Y-62550592D01*
X49547143Y-62550592D02*
X49404286Y-62550592D01*
X49404286Y-62550592D02*
X49332857Y-62586307D01*
X49332857Y-62586307D02*
X49297143Y-62622021D01*
X49297143Y-62622021D02*
X49261429Y-62693450D01*
X49261429Y-62693450D02*
X49261429Y-62836307D01*
X49261429Y-62836307D02*
X49297143Y-62907735D01*
X49297143Y-62907735D02*
X49332857Y-62943450D01*
X49332857Y-62943450D02*
X49404286Y-62979164D01*
X49404286Y-62979164D02*
X49547143Y-62979164D01*
X49547143Y-62979164D02*
X49618572Y-62943450D01*
X49618572Y-62943450D02*
X49654286Y-62907735D01*
X49654286Y-62907735D02*
X49690000Y-62836307D01*
X49690000Y-62836307D02*
X49690000Y-62693450D01*
X49690000Y-62693450D02*
X49654286Y-62622021D01*
X49654286Y-62622021D02*
X49618572Y-62586307D01*
X49618572Y-62586307D02*
X49547143Y-62550592D01*
X54767379Y-25956550D02*
X54195951Y-25956550D01*
X53874522Y-25706550D02*
X53767380Y-25670835D01*
X53767380Y-25670835D02*
X53588808Y-25670835D01*
X53588808Y-25670835D02*
X53517380Y-25706550D01*
X53517380Y-25706550D02*
X53481665Y-25742264D01*
X53481665Y-25742264D02*
X53445951Y-25813692D01*
X53445951Y-25813692D02*
X53445951Y-25885121D01*
X53445951Y-25885121D02*
X53481665Y-25956550D01*
X53481665Y-25956550D02*
X53517380Y-25992264D01*
X53517380Y-25992264D02*
X53588808Y-26027978D01*
X53588808Y-26027978D02*
X53731665Y-26063692D01*
X53731665Y-26063692D02*
X53803094Y-26099407D01*
X53803094Y-26099407D02*
X53838808Y-26135121D01*
X53838808Y-26135121D02*
X53874522Y-26206550D01*
X53874522Y-26206550D02*
X53874522Y-26277978D01*
X53874522Y-26277978D02*
X53838808Y-26349407D01*
X53838808Y-26349407D02*
X53803094Y-26385121D01*
X53803094Y-26385121D02*
X53731665Y-26420835D01*
X53731665Y-26420835D02*
X53553094Y-26420835D01*
X53553094Y-26420835D02*
X53445951Y-26385121D01*
X52981665Y-26420835D02*
X52838808Y-26420835D01*
X52838808Y-26420835D02*
X52767379Y-26385121D01*
X52767379Y-26385121D02*
X52695951Y-26313692D01*
X52695951Y-26313692D02*
X52660236Y-26170835D01*
X52660236Y-26170835D02*
X52660236Y-25920835D01*
X52660236Y-25920835D02*
X52695951Y-25777978D01*
X52695951Y-25777978D02*
X52767379Y-25706550D01*
X52767379Y-25706550D02*
X52838808Y-25670835D01*
X52838808Y-25670835D02*
X52981665Y-25670835D01*
X52981665Y-25670835D02*
X53053094Y-25706550D01*
X53053094Y-25706550D02*
X53124522Y-25777978D01*
X53124522Y-25777978D02*
X53160236Y-25920835D01*
X53160236Y-25920835D02*
X53160236Y-26170835D01*
X53160236Y-26170835D02*
X53124522Y-26313692D01*
X53124522Y-26313692D02*
X53053094Y-26385121D01*
X53053094Y-26385121D02*
X52981665Y-26420835D01*
X51981665Y-25670835D02*
X52338808Y-25670835D01*
X52338808Y-25670835D02*
X52338808Y-26420835D01*
X51410237Y-26420835D02*
X51553094Y-26420835D01*
X51553094Y-26420835D02*
X51624522Y-26385121D01*
X51624522Y-26385121D02*
X51660237Y-26349407D01*
X51660237Y-26349407D02*
X51731665Y-26242264D01*
X51731665Y-26242264D02*
X51767379Y-26099407D01*
X51767379Y-26099407D02*
X51767379Y-25813692D01*
X51767379Y-25813692D02*
X51731665Y-25742264D01*
X51731665Y-25742264D02*
X51695951Y-25706550D01*
X51695951Y-25706550D02*
X51624522Y-25670835D01*
X51624522Y-25670835D02*
X51481665Y-25670835D01*
X51481665Y-25670835D02*
X51410237Y-25706550D01*
X51410237Y-25706550D02*
X51374522Y-25742264D01*
X51374522Y-25742264D02*
X51338808Y-25813692D01*
X51338808Y-25813692D02*
X51338808Y-25992264D01*
X51338808Y-25992264D02*
X51374522Y-26063692D01*
X51374522Y-26063692D02*
X51410237Y-26099407D01*
X51410237Y-26099407D02*
X51481665Y-26135121D01*
X51481665Y-26135121D02*
X51624522Y-26135121D01*
X51624522Y-26135121D02*
X51695951Y-26099407D01*
X51695951Y-26099407D02*
X51731665Y-26063692D01*
X51731665Y-26063692D02*
X51767379Y-25992264D01*
X51017379Y-25956550D02*
X50445951Y-25956550D01*
X50731665Y-25670835D02*
X50731665Y-26242264D01*
X76587143Y-62264878D02*
X76515715Y-62229164D01*
X76515715Y-62229164D02*
X76408572Y-62229164D01*
X76408572Y-62229164D02*
X76301429Y-62264878D01*
X76301429Y-62264878D02*
X76230000Y-62336307D01*
X76230000Y-62336307D02*
X76194286Y-62407735D01*
X76194286Y-62407735D02*
X76158572Y-62550592D01*
X76158572Y-62550592D02*
X76158572Y-62657735D01*
X76158572Y-62657735D02*
X76194286Y-62800592D01*
X76194286Y-62800592D02*
X76230000Y-62872021D01*
X76230000Y-62872021D02*
X76301429Y-62943450D01*
X76301429Y-62943450D02*
X76408572Y-62979164D01*
X76408572Y-62979164D02*
X76480000Y-62979164D01*
X76480000Y-62979164D02*
X76587143Y-62943450D01*
X76587143Y-62943450D02*
X76622857Y-62907735D01*
X76622857Y-62907735D02*
X76622857Y-62657735D01*
X76622857Y-62657735D02*
X76480000Y-62657735D01*
X76944286Y-62979164D02*
X76944286Y-62229164D01*
X76944286Y-62229164D02*
X77372857Y-62979164D01*
X77372857Y-62979164D02*
X77372857Y-62229164D01*
X77730000Y-62979164D02*
X77730000Y-62229164D01*
X77730000Y-62229164D02*
X77908571Y-62229164D01*
X77908571Y-62229164D02*
X78015714Y-62264878D01*
X78015714Y-62264878D02*
X78087143Y-62336307D01*
X78087143Y-62336307D02*
X78122857Y-62407735D01*
X78122857Y-62407735D02*
X78158571Y-62550592D01*
X78158571Y-62550592D02*
X78158571Y-62657735D01*
X78158571Y-62657735D02*
X78122857Y-62800592D01*
X78122857Y-62800592D02*
X78087143Y-62872021D01*
X78087143Y-62872021D02*
X78015714Y-62943450D01*
X78015714Y-62943450D02*
X77908571Y-62979164D01*
X77908571Y-62979164D02*
X77730000Y-62979164D01*
X62352855Y-62943450D02*
X62459998Y-62979164D01*
X62459998Y-62979164D02*
X62638569Y-62979164D01*
X62638569Y-62979164D02*
X62709998Y-62943450D01*
X62709998Y-62943450D02*
X62745712Y-62907735D01*
X62745712Y-62907735D02*
X62781426Y-62836307D01*
X62781426Y-62836307D02*
X62781426Y-62764878D01*
X62781426Y-62764878D02*
X62745712Y-62693450D01*
X62745712Y-62693450D02*
X62709998Y-62657735D01*
X62709998Y-62657735D02*
X62638569Y-62622021D01*
X62638569Y-62622021D02*
X62495712Y-62586307D01*
X62495712Y-62586307D02*
X62424283Y-62550592D01*
X62424283Y-62550592D02*
X62388569Y-62514878D01*
X62388569Y-62514878D02*
X62352855Y-62443450D01*
X62352855Y-62443450D02*
X62352855Y-62372021D01*
X62352855Y-62372021D02*
X62388569Y-62300592D01*
X62388569Y-62300592D02*
X62424283Y-62264878D01*
X62424283Y-62264878D02*
X62495712Y-62229164D01*
X62495712Y-62229164D02*
X62674283Y-62229164D01*
X62674283Y-62229164D02*
X62781426Y-62264878D01*
X63424284Y-62479164D02*
X63424284Y-62979164D01*
X63245712Y-62193450D02*
X63067141Y-62729164D01*
X63067141Y-62729164D02*
X63531426Y-62729164D01*
X58901427Y-62943450D02*
X59008570Y-62979164D01*
X59008570Y-62979164D02*
X59187141Y-62979164D01*
X59187141Y-62979164D02*
X59258570Y-62943450D01*
X59258570Y-62943450D02*
X59294284Y-62907735D01*
X59294284Y-62907735D02*
X59329998Y-62836307D01*
X59329998Y-62836307D02*
X59329998Y-62764878D01*
X59329998Y-62764878D02*
X59294284Y-62693450D01*
X59294284Y-62693450D02*
X59258570Y-62657735D01*
X59258570Y-62657735D02*
X59187141Y-62622021D01*
X59187141Y-62622021D02*
X59044284Y-62586307D01*
X59044284Y-62586307D02*
X58972855Y-62550592D01*
X58972855Y-62550592D02*
X58937141Y-62514878D01*
X58937141Y-62514878D02*
X58901427Y-62443450D01*
X58901427Y-62443450D02*
X58901427Y-62372021D01*
X58901427Y-62372021D02*
X58937141Y-62300592D01*
X58937141Y-62300592D02*
X58972855Y-62264878D01*
X58972855Y-62264878D02*
X59044284Y-62229164D01*
X59044284Y-62229164D02*
X59222855Y-62229164D01*
X59222855Y-62229164D02*
X59329998Y-62264878D01*
X60008570Y-62229164D02*
X59651427Y-62229164D01*
X59651427Y-62229164D02*
X59615713Y-62586307D01*
X59615713Y-62586307D02*
X59651427Y-62550592D01*
X59651427Y-62550592D02*
X59722856Y-62514878D01*
X59722856Y-62514878D02*
X59901427Y-62514878D01*
X59901427Y-62514878D02*
X59972856Y-62550592D01*
X59972856Y-62550592D02*
X60008570Y-62586307D01*
X60008570Y-62586307D02*
X60044284Y-62657735D01*
X60044284Y-62657735D02*
X60044284Y-62836307D01*
X60044284Y-62836307D02*
X60008570Y-62907735D01*
X60008570Y-62907735D02*
X59972856Y-62943450D01*
X59972856Y-62943450D02*
X59901427Y-62979164D01*
X59901427Y-62979164D02*
X59722856Y-62979164D01*
X59722856Y-62979164D02*
X59651427Y-62943450D01*
X59651427Y-62943450D02*
X59615713Y-62907735D01*
X47864046Y-25956550D02*
X47292618Y-25956550D01*
X46971189Y-25706550D02*
X46864047Y-25670835D01*
X46864047Y-25670835D02*
X46685475Y-25670835D01*
X46685475Y-25670835D02*
X46614047Y-25706550D01*
X46614047Y-25706550D02*
X46578332Y-25742264D01*
X46578332Y-25742264D02*
X46542618Y-25813692D01*
X46542618Y-25813692D02*
X46542618Y-25885121D01*
X46542618Y-25885121D02*
X46578332Y-25956550D01*
X46578332Y-25956550D02*
X46614047Y-25992264D01*
X46614047Y-25992264D02*
X46685475Y-26027978D01*
X46685475Y-26027978D02*
X46828332Y-26063692D01*
X46828332Y-26063692D02*
X46899761Y-26099407D01*
X46899761Y-26099407D02*
X46935475Y-26135121D01*
X46935475Y-26135121D02*
X46971189Y-26206550D01*
X46971189Y-26206550D02*
X46971189Y-26277978D01*
X46971189Y-26277978D02*
X46935475Y-26349407D01*
X46935475Y-26349407D02*
X46899761Y-26385121D01*
X46899761Y-26385121D02*
X46828332Y-26420835D01*
X46828332Y-26420835D02*
X46649761Y-26420835D01*
X46649761Y-26420835D02*
X46542618Y-26385121D01*
X46078332Y-26420835D02*
X45935475Y-26420835D01*
X45935475Y-26420835D02*
X45864046Y-26385121D01*
X45864046Y-26385121D02*
X45792618Y-26313692D01*
X45792618Y-26313692D02*
X45756903Y-26170835D01*
X45756903Y-26170835D02*
X45756903Y-25920835D01*
X45756903Y-25920835D02*
X45792618Y-25777978D01*
X45792618Y-25777978D02*
X45864046Y-25706550D01*
X45864046Y-25706550D02*
X45935475Y-25670835D01*
X45935475Y-25670835D02*
X46078332Y-25670835D01*
X46078332Y-25670835D02*
X46149761Y-25706550D01*
X46149761Y-25706550D02*
X46221189Y-25777978D01*
X46221189Y-25777978D02*
X46256903Y-25920835D01*
X46256903Y-25920835D02*
X46256903Y-26170835D01*
X46256903Y-26170835D02*
X46221189Y-26313692D01*
X46221189Y-26313692D02*
X46149761Y-26385121D01*
X46149761Y-26385121D02*
X46078332Y-26420835D01*
X45078332Y-25670835D02*
X45435475Y-25670835D01*
X45435475Y-25670835D02*
X45435475Y-26420835D01*
X44899761Y-26420835D02*
X44399761Y-26420835D01*
X44399761Y-26420835D02*
X44721189Y-25670835D01*
X44114046Y-25956550D02*
X43542618Y-25956550D01*
X43828332Y-25670835D02*
X43828332Y-26242264D01*
X91490713Y-25956550D02*
X90919285Y-25956550D01*
X90597856Y-25706550D02*
X90490714Y-25670835D01*
X90490714Y-25670835D02*
X90312142Y-25670835D01*
X90312142Y-25670835D02*
X90240714Y-25706550D01*
X90240714Y-25706550D02*
X90204999Y-25742264D01*
X90204999Y-25742264D02*
X90169285Y-25813692D01*
X90169285Y-25813692D02*
X90169285Y-25885121D01*
X90169285Y-25885121D02*
X90204999Y-25956550D01*
X90204999Y-25956550D02*
X90240714Y-25992264D01*
X90240714Y-25992264D02*
X90312142Y-26027978D01*
X90312142Y-26027978D02*
X90454999Y-26063692D01*
X90454999Y-26063692D02*
X90526428Y-26099407D01*
X90526428Y-26099407D02*
X90562142Y-26135121D01*
X90562142Y-26135121D02*
X90597856Y-26206550D01*
X90597856Y-26206550D02*
X90597856Y-26277978D01*
X90597856Y-26277978D02*
X90562142Y-26349407D01*
X90562142Y-26349407D02*
X90526428Y-26385121D01*
X90526428Y-26385121D02*
X90454999Y-26420835D01*
X90454999Y-26420835D02*
X90276428Y-26420835D01*
X90276428Y-26420835D02*
X90169285Y-26385121D01*
X89704999Y-26420835D02*
X89562142Y-26420835D01*
X89562142Y-26420835D02*
X89490713Y-26385121D01*
X89490713Y-26385121D02*
X89419285Y-26313692D01*
X89419285Y-26313692D02*
X89383570Y-26170835D01*
X89383570Y-26170835D02*
X89383570Y-25920835D01*
X89383570Y-25920835D02*
X89419285Y-25777978D01*
X89419285Y-25777978D02*
X89490713Y-25706550D01*
X89490713Y-25706550D02*
X89562142Y-25670835D01*
X89562142Y-25670835D02*
X89704999Y-25670835D01*
X89704999Y-25670835D02*
X89776428Y-25706550D01*
X89776428Y-25706550D02*
X89847856Y-25777978D01*
X89847856Y-25777978D02*
X89883570Y-25920835D01*
X89883570Y-25920835D02*
X89883570Y-26170835D01*
X89883570Y-26170835D02*
X89847856Y-26313692D01*
X89847856Y-26313692D02*
X89776428Y-26385121D01*
X89776428Y-26385121D02*
X89704999Y-26420835D01*
X88704999Y-25670835D02*
X89062142Y-25670835D01*
X89062142Y-25670835D02*
X89062142Y-26420835D01*
X88062142Y-25670835D02*
X88490713Y-25670835D01*
X88276428Y-25670835D02*
X88276428Y-26420835D01*
X88276428Y-26420835D02*
X88347856Y-26313692D01*
X88347856Y-26313692D02*
X88419285Y-26242264D01*
X88419285Y-26242264D02*
X88490713Y-26206550D01*
X87740713Y-25956550D02*
X87169285Y-25956550D01*
X87454999Y-25670835D02*
X87454999Y-26242264D01*
D11*
X27651095Y-36204763D02*
X27079666Y-34680953D01*
X27079666Y-34680953D02*
X26508238Y-36204763D01*
X27079666Y-37157143D02*
X27079666Y-38680953D01*
X28317761Y-40014285D02*
X28317761Y-40395238D01*
X28317761Y-40395238D02*
X28222523Y-40585714D01*
X28222523Y-40585714D02*
X28032047Y-40776190D01*
X28032047Y-40776190D02*
X27651095Y-40871428D01*
X27651095Y-40871428D02*
X26984428Y-40871428D01*
X26984428Y-40871428D02*
X26603476Y-40776190D01*
X26603476Y-40776190D02*
X26413000Y-40585714D01*
X26413000Y-40585714D02*
X26317761Y-40395238D01*
X26317761Y-40395238D02*
X26317761Y-40014285D01*
X26317761Y-40014285D02*
X26413000Y-39823809D01*
X26413000Y-39823809D02*
X26603476Y-39633333D01*
X26603476Y-39633333D02*
X26984428Y-39538095D01*
X26984428Y-39538095D02*
X27651095Y-39538095D01*
X27651095Y-39538095D02*
X28032047Y-39633333D01*
X28032047Y-39633333D02*
X28222523Y-39823809D01*
X28222523Y-39823809D02*
X28317761Y-40014285D01*
X28317761Y-41728571D02*
X26698714Y-41728571D01*
X26698714Y-41728571D02*
X26508238Y-41823809D01*
X26508238Y-41823809D02*
X26413000Y-41919047D01*
X26413000Y-41919047D02*
X26317761Y-42109523D01*
X26317761Y-42109523D02*
X26317761Y-42490476D01*
X26317761Y-42490476D02*
X26413000Y-42680952D01*
X26413000Y-42680952D02*
X26508238Y-42776190D01*
X26508238Y-42776190D02*
X26698714Y-42871428D01*
X26698714Y-42871428D02*
X28317761Y-42871428D01*
X28317761Y-43538095D02*
X28317761Y-44680952D01*
X26317761Y-44109523D02*
X28317761Y-44109523D01*
X26317761Y-46871429D02*
X28317761Y-46871429D01*
X26317761Y-47823810D02*
X28317761Y-47823810D01*
X28317761Y-47823810D02*
X26317761Y-48966667D01*
X26317761Y-48966667D02*
X28317761Y-48966667D01*
X27079666Y-49919048D02*
X27079666Y-51442858D01*
X27651095Y-52395238D02*
X27079666Y-53919048D01*
X27079666Y-53919048D02*
X26508238Y-52395238D01*
D10*
X65804283Y-62943450D02*
X65911426Y-62979164D01*
X65911426Y-62979164D02*
X66089997Y-62979164D01*
X66089997Y-62979164D02*
X66161426Y-62943450D01*
X66161426Y-62943450D02*
X66197140Y-62907735D01*
X66197140Y-62907735D02*
X66232854Y-62836307D01*
X66232854Y-62836307D02*
X66232854Y-62764878D01*
X66232854Y-62764878D02*
X66197140Y-62693450D01*
X66197140Y-62693450D02*
X66161426Y-62657735D01*
X66161426Y-62657735D02*
X66089997Y-62622021D01*
X66089997Y-62622021D02*
X65947140Y-62586307D01*
X65947140Y-62586307D02*
X65875711Y-62550592D01*
X65875711Y-62550592D02*
X65839997Y-62514878D01*
X65839997Y-62514878D02*
X65804283Y-62443450D01*
X65804283Y-62443450D02*
X65804283Y-62372021D01*
X65804283Y-62372021D02*
X65839997Y-62300592D01*
X65839997Y-62300592D02*
X65875711Y-62264878D01*
X65875711Y-62264878D02*
X65947140Y-62229164D01*
X65947140Y-62229164D02*
X66125711Y-62229164D01*
X66125711Y-62229164D02*
X66232854Y-62264878D01*
X66482854Y-62229164D02*
X66947140Y-62229164D01*
X66947140Y-62229164D02*
X66697140Y-62514878D01*
X66697140Y-62514878D02*
X66804283Y-62514878D01*
X66804283Y-62514878D02*
X66875712Y-62550592D01*
X66875712Y-62550592D02*
X66911426Y-62586307D01*
X66911426Y-62586307D02*
X66947140Y-62657735D01*
X66947140Y-62657735D02*
X66947140Y-62836307D01*
X66947140Y-62836307D02*
X66911426Y-62907735D01*
X66911426Y-62907735D02*
X66875712Y-62943450D01*
X66875712Y-62943450D02*
X66804283Y-62979164D01*
X66804283Y-62979164D02*
X66589997Y-62979164D01*
X66589997Y-62979164D02*
X66518569Y-62943450D01*
X66518569Y-62943450D02*
X66482854Y-62907735D01*
D12*
X32137143Y-26862185D02*
X31922857Y-26790757D01*
X31922857Y-26790757D02*
X31851428Y-26719328D01*
X31851428Y-26719328D02*
X31780000Y-26576471D01*
X31780000Y-26576471D02*
X31780000Y-26362185D01*
X31780000Y-26362185D02*
X31851428Y-26219328D01*
X31851428Y-26219328D02*
X31922857Y-26147900D01*
X31922857Y-26147900D02*
X32065714Y-26076471D01*
X32065714Y-26076471D02*
X32637143Y-26076471D01*
X32637143Y-26076471D02*
X32637143Y-27576471D01*
X32637143Y-27576471D02*
X32137143Y-27576471D01*
X32137143Y-27576471D02*
X31994286Y-27505042D01*
X31994286Y-27505042D02*
X31922857Y-27433614D01*
X31922857Y-27433614D02*
X31851428Y-27290757D01*
X31851428Y-27290757D02*
X31851428Y-27147900D01*
X31851428Y-27147900D02*
X31922857Y-27005042D01*
X31922857Y-27005042D02*
X31994286Y-26933614D01*
X31994286Y-26933614D02*
X32137143Y-26862185D01*
X32137143Y-26862185D02*
X32637143Y-26862185D01*
X29708571Y-27576471D02*
X29422857Y-27576471D01*
X29422857Y-27576471D02*
X29280000Y-27505042D01*
X29280000Y-27505042D02*
X29137143Y-27362185D01*
X29137143Y-27362185D02*
X29065714Y-27076471D01*
X29065714Y-27076471D02*
X29065714Y-26576471D01*
X29065714Y-26576471D02*
X29137143Y-26290757D01*
X29137143Y-26290757D02*
X29280000Y-26147900D01*
X29280000Y-26147900D02*
X29422857Y-26076471D01*
X29422857Y-26076471D02*
X29708571Y-26076471D01*
X29708571Y-26076471D02*
X29851429Y-26147900D01*
X29851429Y-26147900D02*
X29994286Y-26290757D01*
X29994286Y-26290757D02*
X30065714Y-26576471D01*
X30065714Y-26576471D02*
X30065714Y-27076471D01*
X30065714Y-27076471D02*
X29994286Y-27362185D01*
X29994286Y-27362185D02*
X29851429Y-27505042D01*
X29851429Y-27505042D02*
X29708571Y-27576471D01*
X28422857Y-27576471D02*
X28422857Y-26362185D01*
X28422857Y-26362185D02*
X28351428Y-26219328D01*
X28351428Y-26219328D02*
X28280000Y-26147900D01*
X28280000Y-26147900D02*
X28137142Y-26076471D01*
X28137142Y-26076471D02*
X27851428Y-26076471D01*
X27851428Y-26076471D02*
X27708571Y-26147900D01*
X27708571Y-26147900D02*
X27637142Y-26219328D01*
X27637142Y-26219328D02*
X27565714Y-26362185D01*
X27565714Y-26362185D02*
X27565714Y-27576471D01*
X27065713Y-27576471D02*
X26208571Y-27576471D01*
X26637142Y-26076471D02*
X26637142Y-27576471D01*
D10*
X39324524Y-44072200D02*
X39467381Y-44119819D01*
X39467381Y-44119819D02*
X39705476Y-44119819D01*
X39705476Y-44119819D02*
X39800714Y-44072200D01*
X39800714Y-44072200D02*
X39848333Y-44024580D01*
X39848333Y-44024580D02*
X39895952Y-43929342D01*
X39895952Y-43929342D02*
X39895952Y-43834104D01*
X39895952Y-43834104D02*
X39848333Y-43738866D01*
X39848333Y-43738866D02*
X39800714Y-43691247D01*
X39800714Y-43691247D02*
X39705476Y-43643628D01*
X39705476Y-43643628D02*
X39515000Y-43596009D01*
X39515000Y-43596009D02*
X39419762Y-43548390D01*
X39419762Y-43548390D02*
X39372143Y-43500771D01*
X39372143Y-43500771D02*
X39324524Y-43405533D01*
X39324524Y-43405533D02*
X39324524Y-43310295D01*
X39324524Y-43310295D02*
X39372143Y-43215057D01*
X39372143Y-43215057D02*
X39419762Y-43167438D01*
X39419762Y-43167438D02*
X39515000Y-43119819D01*
X39515000Y-43119819D02*
X39753095Y-43119819D01*
X39753095Y-43119819D02*
X39895952Y-43167438D01*
X40515000Y-43119819D02*
X40705476Y-43119819D01*
X40705476Y-43119819D02*
X40800714Y-43167438D01*
X40800714Y-43167438D02*
X40895952Y-43262676D01*
X40895952Y-43262676D02*
X40943571Y-43453152D01*
X40943571Y-43453152D02*
X40943571Y-43786485D01*
X40943571Y-43786485D02*
X40895952Y-43976961D01*
X40895952Y-43976961D02*
X40800714Y-44072200D01*
X40800714Y-44072200D02*
X40705476Y-44119819D01*
X40705476Y-44119819D02*
X40515000Y-44119819D01*
X40515000Y-44119819D02*
X40419762Y-44072200D01*
X40419762Y-44072200D02*
X40324524Y-43976961D01*
X40324524Y-43976961D02*
X40276905Y-43786485D01*
X40276905Y-43786485D02*
X40276905Y-43453152D01*
X40276905Y-43453152D02*
X40324524Y-43262676D01*
X40324524Y-43262676D02*
X40419762Y-43167438D01*
X40419762Y-43167438D02*
X40515000Y-43119819D01*
X41848333Y-44119819D02*
X41372143Y-44119819D01*
X41372143Y-44119819D02*
X41372143Y-43119819D01*
X42324524Y-43548390D02*
X42229286Y-43500771D01*
X42229286Y-43500771D02*
X42181667Y-43453152D01*
X42181667Y-43453152D02*
X42134048Y-43357914D01*
X42134048Y-43357914D02*
X42134048Y-43310295D01*
X42134048Y-43310295D02*
X42181667Y-43215057D01*
X42181667Y-43215057D02*
X42229286Y-43167438D01*
X42229286Y-43167438D02*
X42324524Y-43119819D01*
X42324524Y-43119819D02*
X42515000Y-43119819D01*
X42515000Y-43119819D02*
X42610238Y-43167438D01*
X42610238Y-43167438D02*
X42657857Y-43215057D01*
X42657857Y-43215057D02*
X42705476Y-43310295D01*
X42705476Y-43310295D02*
X42705476Y-43357914D01*
X42705476Y-43357914D02*
X42657857Y-43453152D01*
X42657857Y-43453152D02*
X42610238Y-43500771D01*
X42610238Y-43500771D02*
X42515000Y-43548390D01*
X42515000Y-43548390D02*
X42324524Y-43548390D01*
X42324524Y-43548390D02*
X42229286Y-43596009D01*
X42229286Y-43596009D02*
X42181667Y-43643628D01*
X42181667Y-43643628D02*
X42134048Y-43738866D01*
X42134048Y-43738866D02*
X42134048Y-43929342D01*
X42134048Y-43929342D02*
X42181667Y-44024580D01*
X42181667Y-44024580D02*
X42229286Y-44072200D01*
X42229286Y-44072200D02*
X42324524Y-44119819D01*
X42324524Y-44119819D02*
X42515000Y-44119819D01*
X42515000Y-44119819D02*
X42610238Y-44072200D01*
X42610238Y-44072200D02*
X42657857Y-44024580D01*
X42657857Y-44024580D02*
X42705476Y-43929342D01*
X42705476Y-43929342D02*
X42705476Y-43738866D01*
X42705476Y-43738866D02*
X42657857Y-43643628D01*
X42657857Y-43643628D02*
X42610238Y-43596009D01*
X42610238Y-43596009D02*
X42515000Y-43548390D01*
X40960713Y-25956550D02*
X40389285Y-25956550D01*
X40067856Y-25706550D02*
X39960714Y-25670835D01*
X39960714Y-25670835D02*
X39782142Y-25670835D01*
X39782142Y-25670835D02*
X39710714Y-25706550D01*
X39710714Y-25706550D02*
X39674999Y-25742264D01*
X39674999Y-25742264D02*
X39639285Y-25813692D01*
X39639285Y-25813692D02*
X39639285Y-25885121D01*
X39639285Y-25885121D02*
X39674999Y-25956550D01*
X39674999Y-25956550D02*
X39710714Y-25992264D01*
X39710714Y-25992264D02*
X39782142Y-26027978D01*
X39782142Y-26027978D02*
X39924999Y-26063692D01*
X39924999Y-26063692D02*
X39996428Y-26099407D01*
X39996428Y-26099407D02*
X40032142Y-26135121D01*
X40032142Y-26135121D02*
X40067856Y-26206550D01*
X40067856Y-26206550D02*
X40067856Y-26277978D01*
X40067856Y-26277978D02*
X40032142Y-26349407D01*
X40032142Y-26349407D02*
X39996428Y-26385121D01*
X39996428Y-26385121D02*
X39924999Y-26420835D01*
X39924999Y-26420835D02*
X39746428Y-26420835D01*
X39746428Y-26420835D02*
X39639285Y-26385121D01*
X39174999Y-26420835D02*
X39032142Y-26420835D01*
X39032142Y-26420835D02*
X38960713Y-26385121D01*
X38960713Y-26385121D02*
X38889285Y-26313692D01*
X38889285Y-26313692D02*
X38853570Y-26170835D01*
X38853570Y-26170835D02*
X38853570Y-25920835D01*
X38853570Y-25920835D02*
X38889285Y-25777978D01*
X38889285Y-25777978D02*
X38960713Y-25706550D01*
X38960713Y-25706550D02*
X39032142Y-25670835D01*
X39032142Y-25670835D02*
X39174999Y-25670835D01*
X39174999Y-25670835D02*
X39246428Y-25706550D01*
X39246428Y-25706550D02*
X39317856Y-25777978D01*
X39317856Y-25777978D02*
X39353570Y-25920835D01*
X39353570Y-25920835D02*
X39353570Y-26170835D01*
X39353570Y-26170835D02*
X39317856Y-26313692D01*
X39317856Y-26313692D02*
X39246428Y-26385121D01*
X39246428Y-26385121D02*
X39174999Y-26420835D01*
X38174999Y-25670835D02*
X38532142Y-25670835D01*
X38532142Y-25670835D02*
X38532142Y-26420835D01*
X37817856Y-26099407D02*
X37889285Y-26135121D01*
X37889285Y-26135121D02*
X37924999Y-26170835D01*
X37924999Y-26170835D02*
X37960713Y-26242264D01*
X37960713Y-26242264D02*
X37960713Y-26277978D01*
X37960713Y-26277978D02*
X37924999Y-26349407D01*
X37924999Y-26349407D02*
X37889285Y-26385121D01*
X37889285Y-26385121D02*
X37817856Y-26420835D01*
X37817856Y-26420835D02*
X37674999Y-26420835D01*
X37674999Y-26420835D02*
X37603571Y-26385121D01*
X37603571Y-26385121D02*
X37567856Y-26349407D01*
X37567856Y-26349407D02*
X37532142Y-26277978D01*
X37532142Y-26277978D02*
X37532142Y-26242264D01*
X37532142Y-26242264D02*
X37567856Y-26170835D01*
X37567856Y-26170835D02*
X37603571Y-26135121D01*
X37603571Y-26135121D02*
X37674999Y-26099407D01*
X37674999Y-26099407D02*
X37817856Y-26099407D01*
X37817856Y-26099407D02*
X37889285Y-26063692D01*
X37889285Y-26063692D02*
X37924999Y-26027978D01*
X37924999Y-26027978D02*
X37960713Y-25956550D01*
X37960713Y-25956550D02*
X37960713Y-25813692D01*
X37960713Y-25813692D02*
X37924999Y-25742264D01*
X37924999Y-25742264D02*
X37889285Y-25706550D01*
X37889285Y-25706550D02*
X37817856Y-25670835D01*
X37817856Y-25670835D02*
X37674999Y-25670835D01*
X37674999Y-25670835D02*
X37603571Y-25706550D01*
X37603571Y-25706550D02*
X37567856Y-25742264D01*
X37567856Y-25742264D02*
X37532142Y-25813692D01*
X37532142Y-25813692D02*
X37532142Y-25956550D01*
X37532142Y-25956550D02*
X37567856Y-26027978D01*
X37567856Y-26027978D02*
X37603571Y-26063692D01*
X37603571Y-26063692D02*
X37674999Y-26099407D01*
X37210713Y-25956550D02*
X36639285Y-25956550D01*
X36924999Y-25670835D02*
X36924999Y-26242264D01*
X45078095Y-44072200D02*
X45220952Y-44119819D01*
X45220952Y-44119819D02*
X45459047Y-44119819D01*
X45459047Y-44119819D02*
X45554285Y-44072200D01*
X45554285Y-44072200D02*
X45601904Y-44024580D01*
X45601904Y-44024580D02*
X45649523Y-43929342D01*
X45649523Y-43929342D02*
X45649523Y-43834104D01*
X45649523Y-43834104D02*
X45601904Y-43738866D01*
X45601904Y-43738866D02*
X45554285Y-43691247D01*
X45554285Y-43691247D02*
X45459047Y-43643628D01*
X45459047Y-43643628D02*
X45268571Y-43596009D01*
X45268571Y-43596009D02*
X45173333Y-43548390D01*
X45173333Y-43548390D02*
X45125714Y-43500771D01*
X45125714Y-43500771D02*
X45078095Y-43405533D01*
X45078095Y-43405533D02*
X45078095Y-43310295D01*
X45078095Y-43310295D02*
X45125714Y-43215057D01*
X45125714Y-43215057D02*
X45173333Y-43167438D01*
X45173333Y-43167438D02*
X45268571Y-43119819D01*
X45268571Y-43119819D02*
X45506666Y-43119819D01*
X45506666Y-43119819D02*
X45649523Y-43167438D01*
X46268571Y-43119819D02*
X46459047Y-43119819D01*
X46459047Y-43119819D02*
X46554285Y-43167438D01*
X46554285Y-43167438D02*
X46649523Y-43262676D01*
X46649523Y-43262676D02*
X46697142Y-43453152D01*
X46697142Y-43453152D02*
X46697142Y-43786485D01*
X46697142Y-43786485D02*
X46649523Y-43976961D01*
X46649523Y-43976961D02*
X46554285Y-44072200D01*
X46554285Y-44072200D02*
X46459047Y-44119819D01*
X46459047Y-44119819D02*
X46268571Y-44119819D01*
X46268571Y-44119819D02*
X46173333Y-44072200D01*
X46173333Y-44072200D02*
X46078095Y-43976961D01*
X46078095Y-43976961D02*
X46030476Y-43786485D01*
X46030476Y-43786485D02*
X46030476Y-43453152D01*
X46030476Y-43453152D02*
X46078095Y-43262676D01*
X46078095Y-43262676D02*
X46173333Y-43167438D01*
X46173333Y-43167438D02*
X46268571Y-43119819D01*
X47601904Y-44119819D02*
X47125714Y-44119819D01*
X47125714Y-44119819D02*
X47125714Y-43119819D01*
X47840000Y-43119819D02*
X48506666Y-43119819D01*
X48506666Y-43119819D02*
X48078095Y-44119819D01*
X69255711Y-62943450D02*
X69362854Y-62979164D01*
X69362854Y-62979164D02*
X69541425Y-62979164D01*
X69541425Y-62979164D02*
X69612854Y-62943450D01*
X69612854Y-62943450D02*
X69648568Y-62907735D01*
X69648568Y-62907735D02*
X69684282Y-62836307D01*
X69684282Y-62836307D02*
X69684282Y-62764878D01*
X69684282Y-62764878D02*
X69648568Y-62693450D01*
X69648568Y-62693450D02*
X69612854Y-62657735D01*
X69612854Y-62657735D02*
X69541425Y-62622021D01*
X69541425Y-62622021D02*
X69398568Y-62586307D01*
X69398568Y-62586307D02*
X69327139Y-62550592D01*
X69327139Y-62550592D02*
X69291425Y-62514878D01*
X69291425Y-62514878D02*
X69255711Y-62443450D01*
X69255711Y-62443450D02*
X69255711Y-62372021D01*
X69255711Y-62372021D02*
X69291425Y-62300592D01*
X69291425Y-62300592D02*
X69327139Y-62264878D01*
X69327139Y-62264878D02*
X69398568Y-62229164D01*
X69398568Y-62229164D02*
X69577139Y-62229164D01*
X69577139Y-62229164D02*
X69684282Y-62264878D01*
X69969997Y-62300592D02*
X70005711Y-62264878D01*
X70005711Y-62264878D02*
X70077140Y-62229164D01*
X70077140Y-62229164D02*
X70255711Y-62229164D01*
X70255711Y-62229164D02*
X70327140Y-62264878D01*
X70327140Y-62264878D02*
X70362854Y-62300592D01*
X70362854Y-62300592D02*
X70398568Y-62372021D01*
X70398568Y-62372021D02*
X70398568Y-62443450D01*
X70398568Y-62443450D02*
X70362854Y-62550592D01*
X70362854Y-62550592D02*
X69934282Y-62979164D01*
X69934282Y-62979164D02*
X70398568Y-62979164D01*
D13*
X84248571Y-61652257D02*
X84248571Y-58652257D01*
X85677142Y-61652257D02*
X85677142Y-58652257D01*
X85677142Y-58652257D02*
X87391428Y-61652257D01*
X87391428Y-61652257D02*
X87391428Y-58652257D01*
D10*
X55449999Y-62943450D02*
X55557142Y-62979164D01*
X55557142Y-62979164D02*
X55735713Y-62979164D01*
X55735713Y-62979164D02*
X55807142Y-62943450D01*
X55807142Y-62943450D02*
X55842856Y-62907735D01*
X55842856Y-62907735D02*
X55878570Y-62836307D01*
X55878570Y-62836307D02*
X55878570Y-62764878D01*
X55878570Y-62764878D02*
X55842856Y-62693450D01*
X55842856Y-62693450D02*
X55807142Y-62657735D01*
X55807142Y-62657735D02*
X55735713Y-62622021D01*
X55735713Y-62622021D02*
X55592856Y-62586307D01*
X55592856Y-62586307D02*
X55521427Y-62550592D01*
X55521427Y-62550592D02*
X55485713Y-62514878D01*
X55485713Y-62514878D02*
X55449999Y-62443450D01*
X55449999Y-62443450D02*
X55449999Y-62372021D01*
X55449999Y-62372021D02*
X55485713Y-62300592D01*
X55485713Y-62300592D02*
X55521427Y-62264878D01*
X55521427Y-62264878D02*
X55592856Y-62229164D01*
X55592856Y-62229164D02*
X55771427Y-62229164D01*
X55771427Y-62229164D02*
X55878570Y-62264878D01*
X56521428Y-62229164D02*
X56378570Y-62229164D01*
X56378570Y-62229164D02*
X56307142Y-62264878D01*
X56307142Y-62264878D02*
X56271428Y-62300592D01*
X56271428Y-62300592D02*
X56199999Y-62407735D01*
X56199999Y-62407735D02*
X56164285Y-62550592D01*
X56164285Y-62550592D02*
X56164285Y-62836307D01*
X56164285Y-62836307D02*
X56199999Y-62907735D01*
X56199999Y-62907735D02*
X56235713Y-62943450D01*
X56235713Y-62943450D02*
X56307142Y-62979164D01*
X56307142Y-62979164D02*
X56449999Y-62979164D01*
X56449999Y-62979164D02*
X56521428Y-62943450D01*
X56521428Y-62943450D02*
X56557142Y-62907735D01*
X56557142Y-62907735D02*
X56592856Y-62836307D01*
X56592856Y-62836307D02*
X56592856Y-62657735D01*
X56592856Y-62657735D02*
X56557142Y-62586307D01*
X56557142Y-62586307D02*
X56521428Y-62550592D01*
X56521428Y-62550592D02*
X56449999Y-62514878D01*
X56449999Y-62514878D02*
X56307142Y-62514878D01*
X56307142Y-62514878D02*
X56235713Y-62550592D01*
X56235713Y-62550592D02*
X56199999Y-62586307D01*
X56199999Y-62586307D02*
X56164285Y-62657735D01*
X68092379Y-44072200D02*
X68235236Y-44119819D01*
X68235236Y-44119819D02*
X68473331Y-44119819D01*
X68473331Y-44119819D02*
X68568569Y-44072200D01*
X68568569Y-44072200D02*
X68616188Y-44024580D01*
X68616188Y-44024580D02*
X68663807Y-43929342D01*
X68663807Y-43929342D02*
X68663807Y-43834104D01*
X68663807Y-43834104D02*
X68616188Y-43738866D01*
X68616188Y-43738866D02*
X68568569Y-43691247D01*
X68568569Y-43691247D02*
X68473331Y-43643628D01*
X68473331Y-43643628D02*
X68282855Y-43596009D01*
X68282855Y-43596009D02*
X68187617Y-43548390D01*
X68187617Y-43548390D02*
X68139998Y-43500771D01*
X68139998Y-43500771D02*
X68092379Y-43405533D01*
X68092379Y-43405533D02*
X68092379Y-43310295D01*
X68092379Y-43310295D02*
X68139998Y-43215057D01*
X68139998Y-43215057D02*
X68187617Y-43167438D01*
X68187617Y-43167438D02*
X68282855Y-43119819D01*
X68282855Y-43119819D02*
X68520950Y-43119819D01*
X68520950Y-43119819D02*
X68663807Y-43167438D01*
X69282855Y-43119819D02*
X69473331Y-43119819D01*
X69473331Y-43119819D02*
X69568569Y-43167438D01*
X69568569Y-43167438D02*
X69663807Y-43262676D01*
X69663807Y-43262676D02*
X69711426Y-43453152D01*
X69711426Y-43453152D02*
X69711426Y-43786485D01*
X69711426Y-43786485D02*
X69663807Y-43976961D01*
X69663807Y-43976961D02*
X69568569Y-44072200D01*
X69568569Y-44072200D02*
X69473331Y-44119819D01*
X69473331Y-44119819D02*
X69282855Y-44119819D01*
X69282855Y-44119819D02*
X69187617Y-44072200D01*
X69187617Y-44072200D02*
X69092379Y-43976961D01*
X69092379Y-43976961D02*
X69044760Y-43786485D01*
X69044760Y-43786485D02*
X69044760Y-43453152D01*
X69044760Y-43453152D02*
X69092379Y-43262676D01*
X69092379Y-43262676D02*
X69187617Y-43167438D01*
X69187617Y-43167438D02*
X69282855Y-43119819D01*
X70616188Y-44119819D02*
X70139998Y-44119819D01*
X70139998Y-44119819D02*
X70139998Y-43119819D01*
X70854284Y-43119819D02*
X71473331Y-43119819D01*
X71473331Y-43119819D02*
X71139998Y-43500771D01*
X71139998Y-43500771D02*
X71282855Y-43500771D01*
X71282855Y-43500771D02*
X71378093Y-43548390D01*
X71378093Y-43548390D02*
X71425712Y-43596009D01*
X71425712Y-43596009D02*
X71473331Y-43691247D01*
X71473331Y-43691247D02*
X71473331Y-43929342D01*
X71473331Y-43929342D02*
X71425712Y-44024580D01*
X71425712Y-44024580D02*
X71378093Y-44072200D01*
X71378093Y-44072200D02*
X71282855Y-44119819D01*
X71282855Y-44119819D02*
X70997141Y-44119819D01*
X70997141Y-44119819D02*
X70901903Y-44072200D01*
X70901903Y-44072200D02*
X70854284Y-44024580D01*
X84517379Y-25956550D02*
X83945951Y-25956550D01*
X83624522Y-25706550D02*
X83517380Y-25670835D01*
X83517380Y-25670835D02*
X83338808Y-25670835D01*
X83338808Y-25670835D02*
X83267380Y-25706550D01*
X83267380Y-25706550D02*
X83231665Y-25742264D01*
X83231665Y-25742264D02*
X83195951Y-25813692D01*
X83195951Y-25813692D02*
X83195951Y-25885121D01*
X83195951Y-25885121D02*
X83231665Y-25956550D01*
X83231665Y-25956550D02*
X83267380Y-25992264D01*
X83267380Y-25992264D02*
X83338808Y-26027978D01*
X83338808Y-26027978D02*
X83481665Y-26063692D01*
X83481665Y-26063692D02*
X83553094Y-26099407D01*
X83553094Y-26099407D02*
X83588808Y-26135121D01*
X83588808Y-26135121D02*
X83624522Y-26206550D01*
X83624522Y-26206550D02*
X83624522Y-26277978D01*
X83624522Y-26277978D02*
X83588808Y-26349407D01*
X83588808Y-26349407D02*
X83553094Y-26385121D01*
X83553094Y-26385121D02*
X83481665Y-26420835D01*
X83481665Y-26420835D02*
X83303094Y-26420835D01*
X83303094Y-26420835D02*
X83195951Y-26385121D01*
X82731665Y-26420835D02*
X82588808Y-26420835D01*
X82588808Y-26420835D02*
X82517379Y-26385121D01*
X82517379Y-26385121D02*
X82445951Y-26313692D01*
X82445951Y-26313692D02*
X82410236Y-26170835D01*
X82410236Y-26170835D02*
X82410236Y-25920835D01*
X82410236Y-25920835D02*
X82445951Y-25777978D01*
X82445951Y-25777978D02*
X82517379Y-25706550D01*
X82517379Y-25706550D02*
X82588808Y-25670835D01*
X82588808Y-25670835D02*
X82731665Y-25670835D01*
X82731665Y-25670835D02*
X82803094Y-25706550D01*
X82803094Y-25706550D02*
X82874522Y-25777978D01*
X82874522Y-25777978D02*
X82910236Y-25920835D01*
X82910236Y-25920835D02*
X82910236Y-26170835D01*
X82910236Y-26170835D02*
X82874522Y-26313692D01*
X82874522Y-26313692D02*
X82803094Y-26385121D01*
X82803094Y-26385121D02*
X82731665Y-26420835D01*
X81731665Y-25670835D02*
X82088808Y-25670835D01*
X82088808Y-25670835D02*
X82088808Y-26420835D01*
X81517379Y-26349407D02*
X81481665Y-26385121D01*
X81481665Y-26385121D02*
X81410237Y-26420835D01*
X81410237Y-26420835D02*
X81231665Y-26420835D01*
X81231665Y-26420835D02*
X81160237Y-26385121D01*
X81160237Y-26385121D02*
X81124522Y-26349407D01*
X81124522Y-26349407D02*
X81088808Y-26277978D01*
X81088808Y-26277978D02*
X81088808Y-26206550D01*
X81088808Y-26206550D02*
X81124522Y-26099407D01*
X81124522Y-26099407D02*
X81553094Y-25670835D01*
X81553094Y-25670835D02*
X81088808Y-25670835D01*
X80767379Y-25956550D02*
X80195951Y-25956550D01*
X80481665Y-25670835D02*
X80481665Y-26242264D01*
X70570713Y-25956550D02*
X69999285Y-25956550D01*
X69677856Y-25706550D02*
X69570714Y-25670835D01*
X69570714Y-25670835D02*
X69392142Y-25670835D01*
X69392142Y-25670835D02*
X69320714Y-25706550D01*
X69320714Y-25706550D02*
X69284999Y-25742264D01*
X69284999Y-25742264D02*
X69249285Y-25813692D01*
X69249285Y-25813692D02*
X69249285Y-25885121D01*
X69249285Y-25885121D02*
X69284999Y-25956550D01*
X69284999Y-25956550D02*
X69320714Y-25992264D01*
X69320714Y-25992264D02*
X69392142Y-26027978D01*
X69392142Y-26027978D02*
X69534999Y-26063692D01*
X69534999Y-26063692D02*
X69606428Y-26099407D01*
X69606428Y-26099407D02*
X69642142Y-26135121D01*
X69642142Y-26135121D02*
X69677856Y-26206550D01*
X69677856Y-26206550D02*
X69677856Y-26277978D01*
X69677856Y-26277978D02*
X69642142Y-26349407D01*
X69642142Y-26349407D02*
X69606428Y-26385121D01*
X69606428Y-26385121D02*
X69534999Y-26420835D01*
X69534999Y-26420835D02*
X69356428Y-26420835D01*
X69356428Y-26420835D02*
X69249285Y-26385121D01*
X68784999Y-26420835D02*
X68642142Y-26420835D01*
X68642142Y-26420835D02*
X68570713Y-26385121D01*
X68570713Y-26385121D02*
X68499285Y-26313692D01*
X68499285Y-26313692D02*
X68463570Y-26170835D01*
X68463570Y-26170835D02*
X68463570Y-25920835D01*
X68463570Y-25920835D02*
X68499285Y-25777978D01*
X68499285Y-25777978D02*
X68570713Y-25706550D01*
X68570713Y-25706550D02*
X68642142Y-25670835D01*
X68642142Y-25670835D02*
X68784999Y-25670835D01*
X68784999Y-25670835D02*
X68856428Y-25706550D01*
X68856428Y-25706550D02*
X68927856Y-25777978D01*
X68927856Y-25777978D02*
X68963570Y-25920835D01*
X68963570Y-25920835D02*
X68963570Y-26170835D01*
X68963570Y-26170835D02*
X68927856Y-26313692D01*
X68927856Y-26313692D02*
X68856428Y-26385121D01*
X68856428Y-26385121D02*
X68784999Y-26420835D01*
X67784999Y-25670835D02*
X68142142Y-25670835D01*
X68142142Y-25670835D02*
X68142142Y-26420835D01*
X67213571Y-26170835D02*
X67213571Y-25670835D01*
X67392142Y-26456550D02*
X67570713Y-25920835D01*
X67570713Y-25920835D02*
X67106428Y-25920835D01*
X66820713Y-25956550D02*
X66249285Y-25956550D01*
X66534999Y-25670835D02*
X66534999Y-26242264D01*
X50831666Y-44072200D02*
X50974523Y-44119819D01*
X50974523Y-44119819D02*
X51212618Y-44119819D01*
X51212618Y-44119819D02*
X51307856Y-44072200D01*
X51307856Y-44072200D02*
X51355475Y-44024580D01*
X51355475Y-44024580D02*
X51403094Y-43929342D01*
X51403094Y-43929342D02*
X51403094Y-43834104D01*
X51403094Y-43834104D02*
X51355475Y-43738866D01*
X51355475Y-43738866D02*
X51307856Y-43691247D01*
X51307856Y-43691247D02*
X51212618Y-43643628D01*
X51212618Y-43643628D02*
X51022142Y-43596009D01*
X51022142Y-43596009D02*
X50926904Y-43548390D01*
X50926904Y-43548390D02*
X50879285Y-43500771D01*
X50879285Y-43500771D02*
X50831666Y-43405533D01*
X50831666Y-43405533D02*
X50831666Y-43310295D01*
X50831666Y-43310295D02*
X50879285Y-43215057D01*
X50879285Y-43215057D02*
X50926904Y-43167438D01*
X50926904Y-43167438D02*
X51022142Y-43119819D01*
X51022142Y-43119819D02*
X51260237Y-43119819D01*
X51260237Y-43119819D02*
X51403094Y-43167438D01*
X52022142Y-43119819D02*
X52212618Y-43119819D01*
X52212618Y-43119819D02*
X52307856Y-43167438D01*
X52307856Y-43167438D02*
X52403094Y-43262676D01*
X52403094Y-43262676D02*
X52450713Y-43453152D01*
X52450713Y-43453152D02*
X52450713Y-43786485D01*
X52450713Y-43786485D02*
X52403094Y-43976961D01*
X52403094Y-43976961D02*
X52307856Y-44072200D01*
X52307856Y-44072200D02*
X52212618Y-44119819D01*
X52212618Y-44119819D02*
X52022142Y-44119819D01*
X52022142Y-44119819D02*
X51926904Y-44072200D01*
X51926904Y-44072200D02*
X51831666Y-43976961D01*
X51831666Y-43976961D02*
X51784047Y-43786485D01*
X51784047Y-43786485D02*
X51784047Y-43453152D01*
X51784047Y-43453152D02*
X51831666Y-43262676D01*
X51831666Y-43262676D02*
X51926904Y-43167438D01*
X51926904Y-43167438D02*
X52022142Y-43119819D01*
X53355475Y-44119819D02*
X52879285Y-44119819D01*
X52879285Y-44119819D02*
X52879285Y-43119819D01*
X54117380Y-43119819D02*
X53926904Y-43119819D01*
X53926904Y-43119819D02*
X53831666Y-43167438D01*
X53831666Y-43167438D02*
X53784047Y-43215057D01*
X53784047Y-43215057D02*
X53688809Y-43357914D01*
X53688809Y-43357914D02*
X53641190Y-43548390D01*
X53641190Y-43548390D02*
X53641190Y-43929342D01*
X53641190Y-43929342D02*
X53688809Y-44024580D01*
X53688809Y-44024580D02*
X53736428Y-44072200D01*
X53736428Y-44072200D02*
X53831666Y-44119819D01*
X53831666Y-44119819D02*
X54022142Y-44119819D01*
X54022142Y-44119819D02*
X54117380Y-44072200D01*
X54117380Y-44072200D02*
X54164999Y-44024580D01*
X54164999Y-44024580D02*
X54212618Y-43929342D01*
X54212618Y-43929342D02*
X54212618Y-43691247D01*
X54212618Y-43691247D02*
X54164999Y-43596009D01*
X54164999Y-43596009D02*
X54117380Y-43548390D01*
X54117380Y-43548390D02*
X54022142Y-43500771D01*
X54022142Y-43500771D02*
X53831666Y-43500771D01*
X53831666Y-43500771D02*
X53736428Y-43548390D01*
X53736428Y-43548390D02*
X53688809Y-43596009D01*
X53688809Y-43596009D02*
X53641190Y-43691247D01*
X62338808Y-44072200D02*
X62481665Y-44119819D01*
X62481665Y-44119819D02*
X62719760Y-44119819D01*
X62719760Y-44119819D02*
X62814998Y-44072200D01*
X62814998Y-44072200D02*
X62862617Y-44024580D01*
X62862617Y-44024580D02*
X62910236Y-43929342D01*
X62910236Y-43929342D02*
X62910236Y-43834104D01*
X62910236Y-43834104D02*
X62862617Y-43738866D01*
X62862617Y-43738866D02*
X62814998Y-43691247D01*
X62814998Y-43691247D02*
X62719760Y-43643628D01*
X62719760Y-43643628D02*
X62529284Y-43596009D01*
X62529284Y-43596009D02*
X62434046Y-43548390D01*
X62434046Y-43548390D02*
X62386427Y-43500771D01*
X62386427Y-43500771D02*
X62338808Y-43405533D01*
X62338808Y-43405533D02*
X62338808Y-43310295D01*
X62338808Y-43310295D02*
X62386427Y-43215057D01*
X62386427Y-43215057D02*
X62434046Y-43167438D01*
X62434046Y-43167438D02*
X62529284Y-43119819D01*
X62529284Y-43119819D02*
X62767379Y-43119819D01*
X62767379Y-43119819D02*
X62910236Y-43167438D01*
X63529284Y-43119819D02*
X63719760Y-43119819D01*
X63719760Y-43119819D02*
X63814998Y-43167438D01*
X63814998Y-43167438D02*
X63910236Y-43262676D01*
X63910236Y-43262676D02*
X63957855Y-43453152D01*
X63957855Y-43453152D02*
X63957855Y-43786485D01*
X63957855Y-43786485D02*
X63910236Y-43976961D01*
X63910236Y-43976961D02*
X63814998Y-44072200D01*
X63814998Y-44072200D02*
X63719760Y-44119819D01*
X63719760Y-44119819D02*
X63529284Y-44119819D01*
X63529284Y-44119819D02*
X63434046Y-44072200D01*
X63434046Y-44072200D02*
X63338808Y-43976961D01*
X63338808Y-43976961D02*
X63291189Y-43786485D01*
X63291189Y-43786485D02*
X63291189Y-43453152D01*
X63291189Y-43453152D02*
X63338808Y-43262676D01*
X63338808Y-43262676D02*
X63434046Y-43167438D01*
X63434046Y-43167438D02*
X63529284Y-43119819D01*
X64862617Y-44119819D02*
X64386427Y-44119819D01*
X64386427Y-44119819D02*
X64386427Y-43119819D01*
X65624522Y-43453152D02*
X65624522Y-44119819D01*
X65386427Y-43072200D02*
X65148332Y-43786485D01*
X65148332Y-43786485D02*
X65767379Y-43786485D01*
D13*
X39408571Y-61652257D02*
X39408571Y-58652257D01*
X40837142Y-61652257D02*
X40837142Y-58652257D01*
X40837142Y-58652257D02*
X42551428Y-61652257D01*
X42551428Y-61652257D02*
X42551428Y-58652257D01*
D10*
X61670713Y-25956550D02*
X61099285Y-25956550D01*
X60777856Y-25706550D02*
X60670714Y-25670835D01*
X60670714Y-25670835D02*
X60492142Y-25670835D01*
X60492142Y-25670835D02*
X60420714Y-25706550D01*
X60420714Y-25706550D02*
X60384999Y-25742264D01*
X60384999Y-25742264D02*
X60349285Y-25813692D01*
X60349285Y-25813692D02*
X60349285Y-25885121D01*
X60349285Y-25885121D02*
X60384999Y-25956550D01*
X60384999Y-25956550D02*
X60420714Y-25992264D01*
X60420714Y-25992264D02*
X60492142Y-26027978D01*
X60492142Y-26027978D02*
X60634999Y-26063692D01*
X60634999Y-26063692D02*
X60706428Y-26099407D01*
X60706428Y-26099407D02*
X60742142Y-26135121D01*
X60742142Y-26135121D02*
X60777856Y-26206550D01*
X60777856Y-26206550D02*
X60777856Y-26277978D01*
X60777856Y-26277978D02*
X60742142Y-26349407D01*
X60742142Y-26349407D02*
X60706428Y-26385121D01*
X60706428Y-26385121D02*
X60634999Y-26420835D01*
X60634999Y-26420835D02*
X60456428Y-26420835D01*
X60456428Y-26420835D02*
X60349285Y-26385121D01*
X59884999Y-26420835D02*
X59742142Y-26420835D01*
X59742142Y-26420835D02*
X59670713Y-26385121D01*
X59670713Y-26385121D02*
X59599285Y-26313692D01*
X59599285Y-26313692D02*
X59563570Y-26170835D01*
X59563570Y-26170835D02*
X59563570Y-25920835D01*
X59563570Y-25920835D02*
X59599285Y-25777978D01*
X59599285Y-25777978D02*
X59670713Y-25706550D01*
X59670713Y-25706550D02*
X59742142Y-25670835D01*
X59742142Y-25670835D02*
X59884999Y-25670835D01*
X59884999Y-25670835D02*
X59956428Y-25706550D01*
X59956428Y-25706550D02*
X60027856Y-25777978D01*
X60027856Y-25777978D02*
X60063570Y-25920835D01*
X60063570Y-25920835D02*
X60063570Y-26170835D01*
X60063570Y-26170835D02*
X60027856Y-26313692D01*
X60027856Y-26313692D02*
X59956428Y-26385121D01*
X59956428Y-26385121D02*
X59884999Y-26420835D01*
X58884999Y-25670835D02*
X59242142Y-25670835D01*
X59242142Y-25670835D02*
X59242142Y-26420835D01*
X58277856Y-26420835D02*
X58634999Y-26420835D01*
X58634999Y-26420835D02*
X58670713Y-26063692D01*
X58670713Y-26063692D02*
X58634999Y-26099407D01*
X58634999Y-26099407D02*
X58563571Y-26135121D01*
X58563571Y-26135121D02*
X58384999Y-26135121D01*
X58384999Y-26135121D02*
X58313571Y-26099407D01*
X58313571Y-26099407D02*
X58277856Y-26063692D01*
X58277856Y-26063692D02*
X58242142Y-25992264D01*
X58242142Y-25992264D02*
X58242142Y-25813692D01*
X58242142Y-25813692D02*
X58277856Y-25742264D01*
X58277856Y-25742264D02*
X58313571Y-25706550D01*
X58313571Y-25706550D02*
X58384999Y-25670835D01*
X58384999Y-25670835D02*
X58563571Y-25670835D01*
X58563571Y-25670835D02*
X58634999Y-25706550D01*
X58634999Y-25706550D02*
X58670713Y-25742264D01*
X57920713Y-25956550D02*
X57349285Y-25956550D01*
X57634999Y-25670835D02*
X57634999Y-26242264D01*
X72707139Y-62943450D02*
X72814282Y-62979164D01*
X72814282Y-62979164D02*
X72992853Y-62979164D01*
X72992853Y-62979164D02*
X73064282Y-62943450D01*
X73064282Y-62943450D02*
X73099996Y-62907735D01*
X73099996Y-62907735D02*
X73135710Y-62836307D01*
X73135710Y-62836307D02*
X73135710Y-62764878D01*
X73135710Y-62764878D02*
X73099996Y-62693450D01*
X73099996Y-62693450D02*
X73064282Y-62657735D01*
X73064282Y-62657735D02*
X72992853Y-62622021D01*
X72992853Y-62622021D02*
X72849996Y-62586307D01*
X72849996Y-62586307D02*
X72778567Y-62550592D01*
X72778567Y-62550592D02*
X72742853Y-62514878D01*
X72742853Y-62514878D02*
X72707139Y-62443450D01*
X72707139Y-62443450D02*
X72707139Y-62372021D01*
X72707139Y-62372021D02*
X72742853Y-62300592D01*
X72742853Y-62300592D02*
X72778567Y-62264878D01*
X72778567Y-62264878D02*
X72849996Y-62229164D01*
X72849996Y-62229164D02*
X73028567Y-62229164D01*
X73028567Y-62229164D02*
X73135710Y-62264878D01*
X73849996Y-62979164D02*
X73421425Y-62979164D01*
X73635710Y-62979164D02*
X73635710Y-62229164D01*
X73635710Y-62229164D02*
X73564282Y-62336307D01*
X73564282Y-62336307D02*
X73492853Y-62407735D01*
X73492853Y-62407735D02*
X73421425Y-62443450D01*
D12*
X100981428Y-26505042D02*
X100267143Y-26505042D01*
X101124285Y-26076471D02*
X100624285Y-27576471D01*
X100624285Y-27576471D02*
X100124285Y-26076471D01*
X98195714Y-27576471D02*
X97910000Y-27576471D01*
X97910000Y-27576471D02*
X97767143Y-27505042D01*
X97767143Y-27505042D02*
X97624286Y-27362185D01*
X97624286Y-27362185D02*
X97552857Y-27076471D01*
X97552857Y-27076471D02*
X97552857Y-26576471D01*
X97552857Y-26576471D02*
X97624286Y-26290757D01*
X97624286Y-26290757D02*
X97767143Y-26147900D01*
X97767143Y-26147900D02*
X97910000Y-26076471D01*
X97910000Y-26076471D02*
X98195714Y-26076471D01*
X98195714Y-26076471D02*
X98338572Y-26147900D01*
X98338572Y-26147900D02*
X98481429Y-26290757D01*
X98481429Y-26290757D02*
X98552857Y-26576471D01*
X98552857Y-26576471D02*
X98552857Y-27076471D01*
X98552857Y-27076471D02*
X98481429Y-27362185D01*
X98481429Y-27362185D02*
X98338572Y-27505042D01*
X98338572Y-27505042D02*
X98195714Y-27576471D01*
X96910000Y-27576471D02*
X96910000Y-26362185D01*
X96910000Y-26362185D02*
X96838571Y-26219328D01*
X96838571Y-26219328D02*
X96767143Y-26147900D01*
X96767143Y-26147900D02*
X96624285Y-26076471D01*
X96624285Y-26076471D02*
X96338571Y-26076471D01*
X96338571Y-26076471D02*
X96195714Y-26147900D01*
X96195714Y-26147900D02*
X96124285Y-26219328D01*
X96124285Y-26219328D02*
X96052857Y-26362185D01*
X96052857Y-26362185D02*
X96052857Y-27576471D01*
X95552856Y-27576471D02*
X94695714Y-27576471D01*
X95124285Y-26076471D02*
X95124285Y-27576471D01*
D10*
X77544046Y-25956550D02*
X76972618Y-25956550D01*
X76651189Y-25706550D02*
X76544047Y-25670835D01*
X76544047Y-25670835D02*
X76365475Y-25670835D01*
X76365475Y-25670835D02*
X76294047Y-25706550D01*
X76294047Y-25706550D02*
X76258332Y-25742264D01*
X76258332Y-25742264D02*
X76222618Y-25813692D01*
X76222618Y-25813692D02*
X76222618Y-25885121D01*
X76222618Y-25885121D02*
X76258332Y-25956550D01*
X76258332Y-25956550D02*
X76294047Y-25992264D01*
X76294047Y-25992264D02*
X76365475Y-26027978D01*
X76365475Y-26027978D02*
X76508332Y-26063692D01*
X76508332Y-26063692D02*
X76579761Y-26099407D01*
X76579761Y-26099407D02*
X76615475Y-26135121D01*
X76615475Y-26135121D02*
X76651189Y-26206550D01*
X76651189Y-26206550D02*
X76651189Y-26277978D01*
X76651189Y-26277978D02*
X76615475Y-26349407D01*
X76615475Y-26349407D02*
X76579761Y-26385121D01*
X76579761Y-26385121D02*
X76508332Y-26420835D01*
X76508332Y-26420835D02*
X76329761Y-26420835D01*
X76329761Y-26420835D02*
X76222618Y-26385121D01*
X75758332Y-26420835D02*
X75615475Y-26420835D01*
X75615475Y-26420835D02*
X75544046Y-26385121D01*
X75544046Y-26385121D02*
X75472618Y-26313692D01*
X75472618Y-26313692D02*
X75436903Y-26170835D01*
X75436903Y-26170835D02*
X75436903Y-25920835D01*
X75436903Y-25920835D02*
X75472618Y-25777978D01*
X75472618Y-25777978D02*
X75544046Y-25706550D01*
X75544046Y-25706550D02*
X75615475Y-25670835D01*
X75615475Y-25670835D02*
X75758332Y-25670835D01*
X75758332Y-25670835D02*
X75829761Y-25706550D01*
X75829761Y-25706550D02*
X75901189Y-25777978D01*
X75901189Y-25777978D02*
X75936903Y-25920835D01*
X75936903Y-25920835D02*
X75936903Y-26170835D01*
X75936903Y-26170835D02*
X75901189Y-26313692D01*
X75901189Y-26313692D02*
X75829761Y-26385121D01*
X75829761Y-26385121D02*
X75758332Y-26420835D01*
X74758332Y-25670835D02*
X75115475Y-25670835D01*
X75115475Y-25670835D02*
X75115475Y-26420835D01*
X74579761Y-26420835D02*
X74115475Y-26420835D01*
X74115475Y-26420835D02*
X74365475Y-26135121D01*
X74365475Y-26135121D02*
X74258332Y-26135121D01*
X74258332Y-26135121D02*
X74186904Y-26099407D01*
X74186904Y-26099407D02*
X74151189Y-26063692D01*
X74151189Y-26063692D02*
X74115475Y-25992264D01*
X74115475Y-25992264D02*
X74115475Y-25813692D01*
X74115475Y-25813692D02*
X74151189Y-25742264D01*
X74151189Y-25742264D02*
X74186904Y-25706550D01*
X74186904Y-25706550D02*
X74258332Y-25670835D01*
X74258332Y-25670835D02*
X74472618Y-25670835D01*
X74472618Y-25670835D02*
X74544046Y-25706550D01*
X74544046Y-25706550D02*
X74579761Y-25742264D01*
X73794046Y-25956550D02*
X73222618Y-25956550D01*
X73508332Y-25670835D02*
X73508332Y-26242264D01*
D14*
X80949239Y-46876109D02*
X80949239Y-46376109D01*
X80949239Y-46376109D02*
X81068287Y-46376109D01*
X81068287Y-46376109D02*
X81139715Y-46399919D01*
X81139715Y-46399919D02*
X81187334Y-46447538D01*
X81187334Y-46447538D02*
X81211144Y-46495157D01*
X81211144Y-46495157D02*
X81234953Y-46590395D01*
X81234953Y-46590395D02*
X81234953Y-46661823D01*
X81234953Y-46661823D02*
X81211144Y-46757061D01*
X81211144Y-46757061D02*
X81187334Y-46804680D01*
X81187334Y-46804680D02*
X81139715Y-46852300D01*
X81139715Y-46852300D02*
X81068287Y-46876109D01*
X81068287Y-46876109D02*
X80949239Y-46876109D01*
X81711144Y-46876109D02*
X81425430Y-46876109D01*
X81568287Y-46876109D02*
X81568287Y-46376109D01*
X81568287Y-46376109D02*
X81520668Y-46447538D01*
X81520668Y-46447538D02*
X81473049Y-46495157D01*
X81473049Y-46495157D02*
X81425430Y-46518966D01*
X78251821Y-49263333D02*
X78013726Y-49429999D01*
X78251821Y-49549047D02*
X77751821Y-49549047D01*
X77751821Y-49549047D02*
X77751821Y-49358571D01*
X77751821Y-49358571D02*
X77775631Y-49310952D01*
X77775631Y-49310952D02*
X77799440Y-49287142D01*
X77799440Y-49287142D02*
X77847059Y-49263333D01*
X77847059Y-49263333D02*
X77918488Y-49263333D01*
X77918488Y-49263333D02*
X77966107Y-49287142D01*
X77966107Y-49287142D02*
X77989916Y-49310952D01*
X77989916Y-49310952D02*
X78013726Y-49358571D01*
X78013726Y-49358571D02*
X78013726Y-49549047D01*
X77799440Y-49072856D02*
X77775631Y-49049047D01*
X77775631Y-49049047D02*
X77751821Y-49001428D01*
X77751821Y-49001428D02*
X77751821Y-48882380D01*
X77751821Y-48882380D02*
X77775631Y-48834761D01*
X77775631Y-48834761D02*
X77799440Y-48810952D01*
X77799440Y-48810952D02*
X77847059Y-48787142D01*
X77847059Y-48787142D02*
X77894678Y-48787142D01*
X77894678Y-48787142D02*
X77966107Y-48810952D01*
X77966107Y-48810952D02*
X78251821Y-49096666D01*
X78251821Y-49096666D02*
X78251821Y-48787142D01*
X43730396Y-49263333D02*
X43492301Y-49429999D01*
X43730396Y-49549047D02*
X43230396Y-49549047D01*
X43230396Y-49549047D02*
X43230396Y-49358571D01*
X43230396Y-49358571D02*
X43254206Y-49310952D01*
X43254206Y-49310952D02*
X43278015Y-49287142D01*
X43278015Y-49287142D02*
X43325634Y-49263333D01*
X43325634Y-49263333D02*
X43397063Y-49263333D01*
X43397063Y-49263333D02*
X43444682Y-49287142D01*
X43444682Y-49287142D02*
X43468491Y-49310952D01*
X43468491Y-49310952D02*
X43492301Y-49358571D01*
X43492301Y-49358571D02*
X43492301Y-49549047D01*
X43444682Y-48977618D02*
X43420872Y-49025237D01*
X43420872Y-49025237D02*
X43397063Y-49049047D01*
X43397063Y-49049047D02*
X43349444Y-49072856D01*
X43349444Y-49072856D02*
X43325634Y-49072856D01*
X43325634Y-49072856D02*
X43278015Y-49049047D01*
X43278015Y-49049047D02*
X43254206Y-49025237D01*
X43254206Y-49025237D02*
X43230396Y-48977618D01*
X43230396Y-48977618D02*
X43230396Y-48882380D01*
X43230396Y-48882380D02*
X43254206Y-48834761D01*
X43254206Y-48834761D02*
X43278015Y-48810952D01*
X43278015Y-48810952D02*
X43325634Y-48787142D01*
X43325634Y-48787142D02*
X43349444Y-48787142D01*
X43349444Y-48787142D02*
X43397063Y-48810952D01*
X43397063Y-48810952D02*
X43420872Y-48834761D01*
X43420872Y-48834761D02*
X43444682Y-48882380D01*
X43444682Y-48882380D02*
X43444682Y-48977618D01*
X43444682Y-48977618D02*
X43468491Y-49025237D01*
X43468491Y-49025237D02*
X43492301Y-49049047D01*
X43492301Y-49049047D02*
X43539920Y-49072856D01*
X43539920Y-49072856D02*
X43635158Y-49072856D01*
X43635158Y-49072856D02*
X43682777Y-49049047D01*
X43682777Y-49049047D02*
X43706587Y-49025237D01*
X43706587Y-49025237D02*
X43730396Y-48977618D01*
X43730396Y-48977618D02*
X43730396Y-48882380D01*
X43730396Y-48882380D02*
X43706587Y-48834761D01*
X43706587Y-48834761D02*
X43682777Y-48810952D01*
X43682777Y-48810952D02*
X43635158Y-48787142D01*
X43635158Y-48787142D02*
X43539920Y-48787142D01*
X43539920Y-48787142D02*
X43492301Y-48810952D01*
X43492301Y-48810952D02*
X43468491Y-48834761D01*
X43468491Y-48834761D02*
X43444682Y-48882380D01*
X72498251Y-49263333D02*
X72260156Y-49429999D01*
X72498251Y-49549047D02*
X71998251Y-49549047D01*
X71998251Y-49549047D02*
X71998251Y-49358571D01*
X71998251Y-49358571D02*
X72022061Y-49310952D01*
X72022061Y-49310952D02*
X72045870Y-49287142D01*
X72045870Y-49287142D02*
X72093489Y-49263333D01*
X72093489Y-49263333D02*
X72164918Y-49263333D01*
X72164918Y-49263333D02*
X72212537Y-49287142D01*
X72212537Y-49287142D02*
X72236346Y-49310952D01*
X72236346Y-49310952D02*
X72260156Y-49358571D01*
X72260156Y-49358571D02*
X72260156Y-49549047D01*
X71998251Y-49096666D02*
X71998251Y-48787142D01*
X71998251Y-48787142D02*
X72188727Y-48953809D01*
X72188727Y-48953809D02*
X72188727Y-48882380D01*
X72188727Y-48882380D02*
X72212537Y-48834761D01*
X72212537Y-48834761D02*
X72236346Y-48810952D01*
X72236346Y-48810952D02*
X72283965Y-48787142D01*
X72283965Y-48787142D02*
X72403013Y-48787142D01*
X72403013Y-48787142D02*
X72450632Y-48810952D01*
X72450632Y-48810952D02*
X72474442Y-48834761D01*
X72474442Y-48834761D02*
X72498251Y-48882380D01*
X72498251Y-48882380D02*
X72498251Y-49025237D01*
X72498251Y-49025237D02*
X72474442Y-49072856D01*
X72474442Y-49072856D02*
X72450632Y-49096666D01*
X57087775Y-39437142D02*
X56587775Y-39437142D01*
X56587775Y-39437142D02*
X56587775Y-39318094D01*
X56587775Y-39318094D02*
X56611585Y-39246666D01*
X56611585Y-39246666D02*
X56659204Y-39199047D01*
X56659204Y-39199047D02*
X56706823Y-39175237D01*
X56706823Y-39175237D02*
X56802061Y-39151428D01*
X56802061Y-39151428D02*
X56873489Y-39151428D01*
X56873489Y-39151428D02*
X56968727Y-39175237D01*
X56968727Y-39175237D02*
X57016346Y-39199047D01*
X57016346Y-39199047D02*
X57063966Y-39246666D01*
X57063966Y-39246666D02*
X57087775Y-39318094D01*
X57087775Y-39318094D02*
X57087775Y-39437142D01*
X57087775Y-38675237D02*
X57087775Y-38960951D01*
X57087775Y-38818094D02*
X56587775Y-38818094D01*
X56587775Y-38818094D02*
X56659204Y-38865713D01*
X56659204Y-38865713D02*
X56706823Y-38913332D01*
X56706823Y-38913332D02*
X56730632Y-38960951D01*
X57087775Y-38199047D02*
X57087775Y-38484761D01*
X57087775Y-38341904D02*
X56587775Y-38341904D01*
X56587775Y-38341904D02*
X56659204Y-38389523D01*
X56659204Y-38389523D02*
X56706823Y-38437142D01*
X56706823Y-38437142D02*
X56730632Y-38484761D01*
X55237538Y-49263333D02*
X54999443Y-49429999D01*
X55237538Y-49549047D02*
X54737538Y-49549047D01*
X54737538Y-49549047D02*
X54737538Y-49358571D01*
X54737538Y-49358571D02*
X54761348Y-49310952D01*
X54761348Y-49310952D02*
X54785157Y-49287142D01*
X54785157Y-49287142D02*
X54832776Y-49263333D01*
X54832776Y-49263333D02*
X54904205Y-49263333D01*
X54904205Y-49263333D02*
X54951824Y-49287142D01*
X54951824Y-49287142D02*
X54975633Y-49310952D01*
X54975633Y-49310952D02*
X54999443Y-49358571D01*
X54999443Y-49358571D02*
X54999443Y-49549047D01*
X54737538Y-48834761D02*
X54737538Y-48929999D01*
X54737538Y-48929999D02*
X54761348Y-48977618D01*
X54761348Y-48977618D02*
X54785157Y-49001428D01*
X54785157Y-49001428D02*
X54856586Y-49049047D01*
X54856586Y-49049047D02*
X54951824Y-49072856D01*
X54951824Y-49072856D02*
X55142300Y-49072856D01*
X55142300Y-49072856D02*
X55189919Y-49049047D01*
X55189919Y-49049047D02*
X55213729Y-49025237D01*
X55213729Y-49025237D02*
X55237538Y-48977618D01*
X55237538Y-48977618D02*
X55237538Y-48882380D01*
X55237538Y-48882380D02*
X55213729Y-48834761D01*
X55213729Y-48834761D02*
X55189919Y-48810952D01*
X55189919Y-48810952D02*
X55142300Y-48787142D01*
X55142300Y-48787142D02*
X55023252Y-48787142D01*
X55023252Y-48787142D02*
X54975633Y-48810952D01*
X54975633Y-48810952D02*
X54951824Y-48834761D01*
X54951824Y-48834761D02*
X54928014Y-48882380D01*
X54928014Y-48882380D02*
X54928014Y-48977618D01*
X54928014Y-48977618D02*
X54951824Y-49025237D01*
X54951824Y-49025237D02*
X54975633Y-49049047D01*
X54975633Y-49049047D02*
X55023252Y-49072856D01*
X70049441Y-39512142D02*
X69549441Y-39512142D01*
X69549441Y-39512142D02*
X69549441Y-39393094D01*
X69549441Y-39393094D02*
X69573251Y-39321666D01*
X69573251Y-39321666D02*
X69620870Y-39274047D01*
X69620870Y-39274047D02*
X69668489Y-39250237D01*
X69668489Y-39250237D02*
X69763727Y-39226428D01*
X69763727Y-39226428D02*
X69835155Y-39226428D01*
X69835155Y-39226428D02*
X69930393Y-39250237D01*
X69930393Y-39250237D02*
X69978012Y-39274047D01*
X69978012Y-39274047D02*
X70025632Y-39321666D01*
X70025632Y-39321666D02*
X70049441Y-39393094D01*
X70049441Y-39393094D02*
X70049441Y-39512142D01*
X70049441Y-38750237D02*
X70049441Y-39035951D01*
X70049441Y-38893094D02*
X69549441Y-38893094D01*
X69549441Y-38893094D02*
X69620870Y-38940713D01*
X69620870Y-38940713D02*
X69668489Y-38988332D01*
X69668489Y-38988332D02*
X69692298Y-39035951D01*
X69549441Y-38440714D02*
X69549441Y-38393095D01*
X69549441Y-38393095D02*
X69573251Y-38345476D01*
X69573251Y-38345476D02*
X69597060Y-38321666D01*
X69597060Y-38321666D02*
X69644679Y-38297857D01*
X69644679Y-38297857D02*
X69739917Y-38274047D01*
X69739917Y-38274047D02*
X69858965Y-38274047D01*
X69858965Y-38274047D02*
X69954203Y-38297857D01*
X69954203Y-38297857D02*
X70001822Y-38321666D01*
X70001822Y-38321666D02*
X70025632Y-38345476D01*
X70025632Y-38345476D02*
X70049441Y-38393095D01*
X70049441Y-38393095D02*
X70049441Y-38440714D01*
X70049441Y-38440714D02*
X70025632Y-38488333D01*
X70025632Y-38488333D02*
X70001822Y-38512142D01*
X70001822Y-38512142D02*
X69954203Y-38535952D01*
X69954203Y-38535952D02*
X69858965Y-38559761D01*
X69858965Y-38559761D02*
X69739917Y-38559761D01*
X69739917Y-38559761D02*
X69644679Y-38535952D01*
X69644679Y-38535952D02*
X69597060Y-38512142D01*
X69597060Y-38512142D02*
X69573251Y-38488333D01*
X69573251Y-38488333D02*
X69549441Y-38440714D01*
X75171665Y-46916108D02*
X75171665Y-46416108D01*
X75171665Y-46416108D02*
X75290713Y-46416108D01*
X75290713Y-46416108D02*
X75362141Y-46439918D01*
X75362141Y-46439918D02*
X75409760Y-46487537D01*
X75409760Y-46487537D02*
X75433570Y-46535156D01*
X75433570Y-46535156D02*
X75457379Y-46630394D01*
X75457379Y-46630394D02*
X75457379Y-46701822D01*
X75457379Y-46701822D02*
X75433570Y-46797060D01*
X75433570Y-46797060D02*
X75409760Y-46844679D01*
X75409760Y-46844679D02*
X75362141Y-46892299D01*
X75362141Y-46892299D02*
X75290713Y-46916108D01*
X75290713Y-46916108D02*
X75171665Y-46916108D01*
X75647856Y-46463727D02*
X75671665Y-46439918D01*
X75671665Y-46439918D02*
X75719284Y-46416108D01*
X75719284Y-46416108D02*
X75838332Y-46416108D01*
X75838332Y-46416108D02*
X75885951Y-46439918D01*
X75885951Y-46439918D02*
X75909760Y-46463727D01*
X75909760Y-46463727D02*
X75933570Y-46511346D01*
X75933570Y-46511346D02*
X75933570Y-46558965D01*
X75933570Y-46558965D02*
X75909760Y-46630394D01*
X75909760Y-46630394D02*
X75624046Y-46916108D01*
X75624046Y-46916108D02*
X75933570Y-46916108D01*
X60991109Y-49263333D02*
X60753014Y-49429999D01*
X60991109Y-49549047D02*
X60491109Y-49549047D01*
X60491109Y-49549047D02*
X60491109Y-49358571D01*
X60491109Y-49358571D02*
X60514919Y-49310952D01*
X60514919Y-49310952D02*
X60538728Y-49287142D01*
X60538728Y-49287142D02*
X60586347Y-49263333D01*
X60586347Y-49263333D02*
X60657776Y-49263333D01*
X60657776Y-49263333D02*
X60705395Y-49287142D01*
X60705395Y-49287142D02*
X60729204Y-49310952D01*
X60729204Y-49310952D02*
X60753014Y-49358571D01*
X60753014Y-49358571D02*
X60753014Y-49549047D01*
X60491109Y-48810952D02*
X60491109Y-49049047D01*
X60491109Y-49049047D02*
X60729204Y-49072856D01*
X60729204Y-49072856D02*
X60705395Y-49049047D01*
X60705395Y-49049047D02*
X60681585Y-49001428D01*
X60681585Y-49001428D02*
X60681585Y-48882380D01*
X60681585Y-48882380D02*
X60705395Y-48834761D01*
X60705395Y-48834761D02*
X60729204Y-48810952D01*
X60729204Y-48810952D02*
X60776823Y-48787142D01*
X60776823Y-48787142D02*
X60895871Y-48787142D01*
X60895871Y-48787142D02*
X60943490Y-48810952D01*
X60943490Y-48810952D02*
X60967300Y-48834761D01*
X60967300Y-48834761D02*
X60991109Y-48882380D01*
X60991109Y-48882380D02*
X60991109Y-49001428D01*
X60991109Y-49001428D02*
X60967300Y-49049047D01*
X60967300Y-49049047D02*
X60943490Y-49072856D01*
X44076109Y-39462142D02*
X43576109Y-39462142D01*
X43576109Y-39462142D02*
X43576109Y-39343094D01*
X43576109Y-39343094D02*
X43599919Y-39271666D01*
X43599919Y-39271666D02*
X43647538Y-39224047D01*
X43647538Y-39224047D02*
X43695157Y-39200237D01*
X43695157Y-39200237D02*
X43790395Y-39176428D01*
X43790395Y-39176428D02*
X43861823Y-39176428D01*
X43861823Y-39176428D02*
X43957061Y-39200237D01*
X43957061Y-39200237D02*
X44004680Y-39224047D01*
X44004680Y-39224047D02*
X44052300Y-39271666D01*
X44052300Y-39271666D02*
X44076109Y-39343094D01*
X44076109Y-39343094D02*
X44076109Y-39462142D01*
X44076109Y-38700237D02*
X44076109Y-38985951D01*
X44076109Y-38843094D02*
X43576109Y-38843094D01*
X43576109Y-38843094D02*
X43647538Y-38890713D01*
X43647538Y-38890713D02*
X43695157Y-38938332D01*
X43695157Y-38938332D02*
X43718966Y-38985951D01*
X43623728Y-38509761D02*
X43599919Y-38485952D01*
X43599919Y-38485952D02*
X43576109Y-38438333D01*
X43576109Y-38438333D02*
X43576109Y-38319285D01*
X43576109Y-38319285D02*
X43599919Y-38271666D01*
X43599919Y-38271666D02*
X43623728Y-38247857D01*
X43623728Y-38247857D02*
X43671347Y-38224047D01*
X43671347Y-38224047D02*
X43718966Y-38224047D01*
X43718966Y-38224047D02*
X43790395Y-38247857D01*
X43790395Y-38247857D02*
X44076109Y-38533571D01*
X44076109Y-38533571D02*
X44076109Y-38224047D01*
X69428094Y-46913609D02*
X69428094Y-46413609D01*
X69428094Y-46413609D02*
X69547142Y-46413609D01*
X69547142Y-46413609D02*
X69618570Y-46437419D01*
X69618570Y-46437419D02*
X69666189Y-46485038D01*
X69666189Y-46485038D02*
X69689999Y-46532657D01*
X69689999Y-46532657D02*
X69713808Y-46627895D01*
X69713808Y-46627895D02*
X69713808Y-46699323D01*
X69713808Y-46699323D02*
X69689999Y-46794561D01*
X69689999Y-46794561D02*
X69666189Y-46842180D01*
X69666189Y-46842180D02*
X69618570Y-46889800D01*
X69618570Y-46889800D02*
X69547142Y-46913609D01*
X69547142Y-46913609D02*
X69428094Y-46913609D01*
X69880475Y-46413609D02*
X70189999Y-46413609D01*
X70189999Y-46413609D02*
X70023332Y-46604085D01*
X70023332Y-46604085D02*
X70094761Y-46604085D01*
X70094761Y-46604085D02*
X70142380Y-46627895D01*
X70142380Y-46627895D02*
X70166189Y-46651704D01*
X70166189Y-46651704D02*
X70189999Y-46699323D01*
X70189999Y-46699323D02*
X70189999Y-46818371D01*
X70189999Y-46818371D02*
X70166189Y-46865990D01*
X70166189Y-46865990D02*
X70142380Y-46889800D01*
X70142380Y-46889800D02*
X70094761Y-46913609D01*
X70094761Y-46913609D02*
X69951904Y-46913609D01*
X69951904Y-46913609D02*
X69904285Y-46889800D01*
X69904285Y-46889800D02*
X69880475Y-46865990D01*
X52167381Y-46916109D02*
X52167381Y-46416109D01*
X52167381Y-46416109D02*
X52286429Y-46416109D01*
X52286429Y-46416109D02*
X52357857Y-46439919D01*
X52357857Y-46439919D02*
X52405476Y-46487538D01*
X52405476Y-46487538D02*
X52429286Y-46535157D01*
X52429286Y-46535157D02*
X52453095Y-46630395D01*
X52453095Y-46630395D02*
X52453095Y-46701823D01*
X52453095Y-46701823D02*
X52429286Y-46797061D01*
X52429286Y-46797061D02*
X52405476Y-46844680D01*
X52405476Y-46844680D02*
X52357857Y-46892300D01*
X52357857Y-46892300D02*
X52286429Y-46916109D01*
X52286429Y-46916109D02*
X52167381Y-46916109D01*
X52881667Y-46416109D02*
X52786429Y-46416109D01*
X52786429Y-46416109D02*
X52738810Y-46439919D01*
X52738810Y-46439919D02*
X52715000Y-46463728D01*
X52715000Y-46463728D02*
X52667381Y-46535157D01*
X52667381Y-46535157D02*
X52643572Y-46630395D01*
X52643572Y-46630395D02*
X52643572Y-46820871D01*
X52643572Y-46820871D02*
X52667381Y-46868490D01*
X52667381Y-46868490D02*
X52691191Y-46892300D01*
X52691191Y-46892300D02*
X52738810Y-46916109D01*
X52738810Y-46916109D02*
X52834048Y-46916109D01*
X52834048Y-46916109D02*
X52881667Y-46892300D01*
X52881667Y-46892300D02*
X52905476Y-46868490D01*
X52905476Y-46868490D02*
X52929286Y-46820871D01*
X52929286Y-46820871D02*
X52929286Y-46701823D01*
X52929286Y-46701823D02*
X52905476Y-46654204D01*
X52905476Y-46654204D02*
X52881667Y-46630395D01*
X52881667Y-46630395D02*
X52834048Y-46606585D01*
X52834048Y-46606585D02*
X52738810Y-46606585D01*
X52738810Y-46606585D02*
X52691191Y-46630395D01*
X52691191Y-46630395D02*
X52667381Y-46654204D01*
X52667381Y-46654204D02*
X52643572Y-46701823D01*
X84025396Y-49249333D02*
X83787301Y-49415999D01*
X84025396Y-49535047D02*
X83525396Y-49535047D01*
X83525396Y-49535047D02*
X83525396Y-49344571D01*
X83525396Y-49344571D02*
X83549206Y-49296952D01*
X83549206Y-49296952D02*
X83573015Y-49273142D01*
X83573015Y-49273142D02*
X83620634Y-49249333D01*
X83620634Y-49249333D02*
X83692063Y-49249333D01*
X83692063Y-49249333D02*
X83739682Y-49273142D01*
X83739682Y-49273142D02*
X83763491Y-49296952D01*
X83763491Y-49296952D02*
X83787301Y-49344571D01*
X83787301Y-49344571D02*
X83787301Y-49535047D01*
X84025396Y-48773142D02*
X84025396Y-49058856D01*
X84025396Y-48915999D02*
X83525396Y-48915999D01*
X83525396Y-48915999D02*
X83596825Y-48963618D01*
X83596825Y-48963618D02*
X83644444Y-49011237D01*
X83644444Y-49011237D02*
X83668253Y-49058856D01*
X83036109Y-39574047D02*
X82536109Y-39574047D01*
X82536109Y-39574047D02*
X82536109Y-39454999D01*
X82536109Y-39454999D02*
X82559919Y-39383571D01*
X82559919Y-39383571D02*
X82607538Y-39335952D01*
X82607538Y-39335952D02*
X82655157Y-39312142D01*
X82655157Y-39312142D02*
X82750395Y-39288333D01*
X82750395Y-39288333D02*
X82821823Y-39288333D01*
X82821823Y-39288333D02*
X82917061Y-39312142D01*
X82917061Y-39312142D02*
X82964680Y-39335952D01*
X82964680Y-39335952D02*
X83012300Y-39383571D01*
X83012300Y-39383571D02*
X83036109Y-39454999D01*
X83036109Y-39454999D02*
X83036109Y-39574047D01*
X83036109Y-39050237D02*
X83036109Y-38954999D01*
X83036109Y-38954999D02*
X83012300Y-38907380D01*
X83012300Y-38907380D02*
X82988490Y-38883571D01*
X82988490Y-38883571D02*
X82917061Y-38835952D01*
X82917061Y-38835952D02*
X82821823Y-38812142D01*
X82821823Y-38812142D02*
X82631347Y-38812142D01*
X82631347Y-38812142D02*
X82583728Y-38835952D01*
X82583728Y-38835952D02*
X82559919Y-38859761D01*
X82559919Y-38859761D02*
X82536109Y-38907380D01*
X82536109Y-38907380D02*
X82536109Y-39002618D01*
X82536109Y-39002618D02*
X82559919Y-39050237D01*
X82559919Y-39050237D02*
X82583728Y-39074047D01*
X82583728Y-39074047D02*
X82631347Y-39097856D01*
X82631347Y-39097856D02*
X82750395Y-39097856D01*
X82750395Y-39097856D02*
X82798014Y-39074047D01*
X82798014Y-39074047D02*
X82821823Y-39050237D01*
X82821823Y-39050237D02*
X82845633Y-39002618D01*
X82845633Y-39002618D02*
X82845633Y-38907380D01*
X82845633Y-38907380D02*
X82821823Y-38859761D01*
X82821823Y-38859761D02*
X82798014Y-38835952D01*
X82798014Y-38835952D02*
X82750395Y-38812142D01*
X66744680Y-49283333D02*
X66506585Y-49449999D01*
X66744680Y-49569047D02*
X66244680Y-49569047D01*
X66244680Y-49569047D02*
X66244680Y-49378571D01*
X66244680Y-49378571D02*
X66268490Y-49330952D01*
X66268490Y-49330952D02*
X66292299Y-49307142D01*
X66292299Y-49307142D02*
X66339918Y-49283333D01*
X66339918Y-49283333D02*
X66411347Y-49283333D01*
X66411347Y-49283333D02*
X66458966Y-49307142D01*
X66458966Y-49307142D02*
X66482775Y-49330952D01*
X66482775Y-49330952D02*
X66506585Y-49378571D01*
X66506585Y-49378571D02*
X66506585Y-49569047D01*
X66411347Y-48854761D02*
X66744680Y-48854761D01*
X66220871Y-48973809D02*
X66578013Y-49092856D01*
X66578013Y-49092856D02*
X66578013Y-48783333D01*
X40660239Y-46916109D02*
X40660239Y-46416109D01*
X40660239Y-46416109D02*
X40779287Y-46416109D01*
X40779287Y-46416109D02*
X40850715Y-46439919D01*
X40850715Y-46439919D02*
X40898334Y-46487538D01*
X40898334Y-46487538D02*
X40922144Y-46535157D01*
X40922144Y-46535157D02*
X40945953Y-46630395D01*
X40945953Y-46630395D02*
X40945953Y-46701823D01*
X40945953Y-46701823D02*
X40922144Y-46797061D01*
X40922144Y-46797061D02*
X40898334Y-46844680D01*
X40898334Y-46844680D02*
X40850715Y-46892300D01*
X40850715Y-46892300D02*
X40779287Y-46916109D01*
X40779287Y-46916109D02*
X40660239Y-46916109D01*
X41231668Y-46630395D02*
X41184049Y-46606585D01*
X41184049Y-46606585D02*
X41160239Y-46582776D01*
X41160239Y-46582776D02*
X41136430Y-46535157D01*
X41136430Y-46535157D02*
X41136430Y-46511347D01*
X41136430Y-46511347D02*
X41160239Y-46463728D01*
X41160239Y-46463728D02*
X41184049Y-46439919D01*
X41184049Y-46439919D02*
X41231668Y-46416109D01*
X41231668Y-46416109D02*
X41326906Y-46416109D01*
X41326906Y-46416109D02*
X41374525Y-46439919D01*
X41374525Y-46439919D02*
X41398334Y-46463728D01*
X41398334Y-46463728D02*
X41422144Y-46511347D01*
X41422144Y-46511347D02*
X41422144Y-46535157D01*
X41422144Y-46535157D02*
X41398334Y-46582776D01*
X41398334Y-46582776D02*
X41374525Y-46606585D01*
X41374525Y-46606585D02*
X41326906Y-46630395D01*
X41326906Y-46630395D02*
X41231668Y-46630395D01*
X41231668Y-46630395D02*
X41184049Y-46654204D01*
X41184049Y-46654204D02*
X41160239Y-46678014D01*
X41160239Y-46678014D02*
X41136430Y-46725633D01*
X41136430Y-46725633D02*
X41136430Y-46820871D01*
X41136430Y-46820871D02*
X41160239Y-46868490D01*
X41160239Y-46868490D02*
X41184049Y-46892300D01*
X41184049Y-46892300D02*
X41231668Y-46916109D01*
X41231668Y-46916109D02*
X41326906Y-46916109D01*
X41326906Y-46916109D02*
X41374525Y-46892300D01*
X41374525Y-46892300D02*
X41398334Y-46868490D01*
X41398334Y-46868490D02*
X41422144Y-46820871D01*
X41422144Y-46820871D02*
X41422144Y-46725633D01*
X41422144Y-46725633D02*
X41398334Y-46678014D01*
X41398334Y-46678014D02*
X41374525Y-46654204D01*
X41374525Y-46654204D02*
X41326906Y-46630395D01*
X63674523Y-46916109D02*
X63674523Y-46416109D01*
X63674523Y-46416109D02*
X63793571Y-46416109D01*
X63793571Y-46416109D02*
X63864999Y-46439919D01*
X63864999Y-46439919D02*
X63912618Y-46487538D01*
X63912618Y-46487538D02*
X63936428Y-46535157D01*
X63936428Y-46535157D02*
X63960237Y-46630395D01*
X63960237Y-46630395D02*
X63960237Y-46701823D01*
X63960237Y-46701823D02*
X63936428Y-46797061D01*
X63936428Y-46797061D02*
X63912618Y-46844680D01*
X63912618Y-46844680D02*
X63864999Y-46892300D01*
X63864999Y-46892300D02*
X63793571Y-46916109D01*
X63793571Y-46916109D02*
X63674523Y-46916109D01*
X64388809Y-46582776D02*
X64388809Y-46916109D01*
X64269761Y-46392300D02*
X64150714Y-46749442D01*
X64150714Y-46749442D02*
X64460237Y-46749442D01*
X57920952Y-46911109D02*
X57920952Y-46411109D01*
X57920952Y-46411109D02*
X58040000Y-46411109D01*
X58040000Y-46411109D02*
X58111428Y-46434919D01*
X58111428Y-46434919D02*
X58159047Y-46482538D01*
X58159047Y-46482538D02*
X58182857Y-46530157D01*
X58182857Y-46530157D02*
X58206666Y-46625395D01*
X58206666Y-46625395D02*
X58206666Y-46696823D01*
X58206666Y-46696823D02*
X58182857Y-46792061D01*
X58182857Y-46792061D02*
X58159047Y-46839680D01*
X58159047Y-46839680D02*
X58111428Y-46887300D01*
X58111428Y-46887300D02*
X58040000Y-46911109D01*
X58040000Y-46911109D02*
X57920952Y-46911109D01*
X58659047Y-46411109D02*
X58420952Y-46411109D01*
X58420952Y-46411109D02*
X58397143Y-46649204D01*
X58397143Y-46649204D02*
X58420952Y-46625395D01*
X58420952Y-46625395D02*
X58468571Y-46601585D01*
X58468571Y-46601585D02*
X58587619Y-46601585D01*
X58587619Y-46601585D02*
X58635238Y-46625395D01*
X58635238Y-46625395D02*
X58659047Y-46649204D01*
X58659047Y-46649204D02*
X58682857Y-46696823D01*
X58682857Y-46696823D02*
X58682857Y-46815871D01*
X58682857Y-46815871D02*
X58659047Y-46863490D01*
X58659047Y-46863490D02*
X58635238Y-46887300D01*
X58635238Y-46887300D02*
X58587619Y-46911109D01*
X58587619Y-46911109D02*
X58468571Y-46911109D01*
X58468571Y-46911109D02*
X58420952Y-46887300D01*
X58420952Y-46887300D02*
X58397143Y-46863490D01*
X49483968Y-49263333D02*
X49245873Y-49429999D01*
X49483968Y-49549047D02*
X48983968Y-49549047D01*
X48983968Y-49549047D02*
X48983968Y-49358571D01*
X48983968Y-49358571D02*
X49007778Y-49310952D01*
X49007778Y-49310952D02*
X49031587Y-49287142D01*
X49031587Y-49287142D02*
X49079206Y-49263333D01*
X49079206Y-49263333D02*
X49150635Y-49263333D01*
X49150635Y-49263333D02*
X49198254Y-49287142D01*
X49198254Y-49287142D02*
X49222063Y-49310952D01*
X49222063Y-49310952D02*
X49245873Y-49358571D01*
X49245873Y-49358571D02*
X49245873Y-49549047D01*
X48983968Y-49096666D02*
X48983968Y-48763333D01*
X48983968Y-48763333D02*
X49483968Y-48977618D01*
X46403810Y-46916110D02*
X46403810Y-46416110D01*
X46403810Y-46416110D02*
X46522858Y-46416110D01*
X46522858Y-46416110D02*
X46594286Y-46439920D01*
X46594286Y-46439920D02*
X46641905Y-46487539D01*
X46641905Y-46487539D02*
X46665715Y-46535158D01*
X46665715Y-46535158D02*
X46689524Y-46630396D01*
X46689524Y-46630396D02*
X46689524Y-46701824D01*
X46689524Y-46701824D02*
X46665715Y-46797062D01*
X46665715Y-46797062D02*
X46641905Y-46844681D01*
X46641905Y-46844681D02*
X46594286Y-46892301D01*
X46594286Y-46892301D02*
X46522858Y-46916110D01*
X46522858Y-46916110D02*
X46403810Y-46916110D01*
X46856191Y-46416110D02*
X47189524Y-46416110D01*
X47189524Y-46416110D02*
X46975239Y-46916110D01*
D12*
X63410000Y-35710000D02*
X63410000Y-28610000D01*
X61310000Y-27210000D02*
X34710000Y-27210000D01*
X34710000Y-35710000D02*
X63410000Y-35710000D01*
X34710000Y-27210000D02*
X34710000Y-35710000D01*
D15*
X82264287Y-45005000D02*
X80344287Y-45005000D01*
X80344287Y-45005000D02*
X80344287Y-47690000D01*
X82264287Y-47690000D02*
X82264287Y-45005000D01*
X77788455Y-48657500D02*
X78262971Y-48657500D01*
X77788455Y-49702500D02*
X78262971Y-49702500D01*
X43267029Y-48657500D02*
X43741545Y-48657500D01*
X43267029Y-49702500D02*
X43741545Y-49702500D01*
X72034884Y-48657500D02*
X72509400Y-48657500D01*
X72034884Y-49702500D02*
X72509400Y-49702500D01*
X58396666Y-39680000D02*
X58396666Y-38005000D01*
X58396666Y-39680000D02*
X58396666Y-40330000D01*
X55276666Y-39680000D02*
X55276666Y-39030000D01*
X55276666Y-39680000D02*
X55276666Y-40330000D01*
D12*
X93220000Y-35670000D02*
X93220000Y-28570000D01*
X91120000Y-27170000D02*
X64520000Y-27170000D01*
X64520000Y-35670000D02*
X93220000Y-35670000D01*
X64520000Y-27170000D02*
X64520000Y-35670000D01*
D15*
X54774171Y-48657500D02*
X55248687Y-48657500D01*
X54774171Y-49702500D02*
X55248687Y-49702500D01*
X71383332Y-39680000D02*
X71383332Y-38005000D01*
X71383332Y-39680000D02*
X71383332Y-40330000D01*
X68263332Y-39680000D02*
X68263332Y-39030000D01*
X68263332Y-39680000D02*
X68263332Y-40330000D01*
X76510713Y-45005000D02*
X74590713Y-45005000D01*
X74590713Y-45005000D02*
X74590713Y-47690000D01*
X76510713Y-47690000D02*
X76510713Y-45005000D01*
X60527742Y-48657500D02*
X61002258Y-48657500D01*
X60527742Y-49702500D02*
X61002258Y-49702500D01*
X45410000Y-39680000D02*
X45410000Y-38005000D01*
X45410000Y-39680000D02*
X45410000Y-40330000D01*
X42290000Y-39680000D02*
X42290000Y-39030000D01*
X42290000Y-39680000D02*
X42290000Y-40330000D01*
X70757142Y-45005000D02*
X68837142Y-45005000D01*
X68837142Y-45005000D02*
X68837142Y-47690000D01*
X70757142Y-47690000D02*
X70757142Y-45005000D01*
X53496429Y-45005000D02*
X51576429Y-45005000D01*
X51576429Y-45005000D02*
X51576429Y-47690000D01*
X53496429Y-47690000D02*
X53496429Y-45005000D01*
X83542029Y-48657500D02*
X84016545Y-48657500D01*
X83542029Y-49702500D02*
X84016545Y-49702500D01*
X84370000Y-39680000D02*
X84370000Y-38005000D01*
X84370000Y-39680000D02*
X84370000Y-40330000D01*
X81250000Y-39680000D02*
X81250000Y-39030000D01*
X81250000Y-39680000D02*
X81250000Y-40330000D01*
X66281313Y-48657500D02*
X66755829Y-48657500D01*
X66281313Y-49702500D02*
X66755829Y-49702500D01*
X41989287Y-45005000D02*
X40069287Y-45005000D01*
X40069287Y-45005000D02*
X40069287Y-47690000D01*
X41989287Y-47690000D02*
X41989287Y-45005000D01*
X65003571Y-45005000D02*
X63083571Y-45005000D01*
X63083571Y-45005000D02*
X63083571Y-47690000D01*
X65003571Y-47690000D02*
X65003571Y-45005000D01*
X59250000Y-45005000D02*
X57330000Y-45005000D01*
X57330000Y-45005000D02*
X57330000Y-47690000D01*
X59250000Y-47690000D02*
X59250000Y-45005000D01*
D12*
X47020000Y-52960000D02*
X47020000Y-60060000D01*
X49120000Y-61460000D02*
X79220000Y-61460000D01*
X79220000Y-52960000D02*
X47020000Y-52960000D01*
X79220000Y-61460000D02*
X79220000Y-52960000D01*
D15*
X49020600Y-48657500D02*
X49495116Y-48657500D01*
X49020600Y-49702500D02*
X49495116Y-49702500D01*
X47742858Y-45005000D02*
X45822858Y-45005000D01*
X45822858Y-45005000D02*
X45822858Y-47690000D01*
X47742858Y-47690000D02*
X47742858Y-45005000D01*
%LPC*%
D16*
X61310000Y-28610000D03*
D17*
X61310000Y-34110000D03*
X57810000Y-28610000D03*
X57810000Y-34110000D03*
X54310000Y-28610000D03*
X54310000Y-34110000D03*
X50810000Y-28610000D03*
X50810000Y-34110000D03*
X47310000Y-28610000D03*
X47310000Y-34110000D03*
X43810000Y-28610000D03*
X43810000Y-34110000D03*
X40310000Y-28610000D03*
X40310000Y-34110000D03*
X36810000Y-28610000D03*
X36810000Y-34110000D03*
D18*
X81304287Y-45752500D03*
X81304287Y-47627500D03*
D19*
X77200713Y-49180000D03*
X78850713Y-49180000D03*
D20*
X97790000Y-31750000D03*
D21*
X97790000Y-31750000D03*
D19*
X42679287Y-49180000D03*
X44329287Y-49180000D03*
D20*
X29210000Y-31750000D03*
D21*
X29210000Y-31750000D03*
D19*
X71447142Y-49180000D03*
X73097142Y-49180000D03*
D22*
X57786666Y-38742500D03*
X55886666Y-38742500D03*
X56836666Y-40617500D03*
D16*
X91120000Y-28570000D03*
D17*
X91120000Y-34070000D03*
X87620000Y-28570000D03*
X87620000Y-34070000D03*
X84120000Y-28570000D03*
X84120000Y-34070000D03*
X80620000Y-28570000D03*
X80620000Y-34070000D03*
X77120000Y-28570000D03*
X77120000Y-34070000D03*
X73620000Y-28570000D03*
X73620000Y-34070000D03*
X70120000Y-28570000D03*
X70120000Y-34070000D03*
X66620000Y-28570000D03*
X66620000Y-34070000D03*
D19*
X54186429Y-49180000D03*
X55836429Y-49180000D03*
D22*
X70773332Y-38742500D03*
X68873332Y-38742500D03*
X69823332Y-40617500D03*
D18*
X75550713Y-45752500D03*
X75550713Y-47627500D03*
D19*
X59940000Y-49180000D03*
X61590000Y-49180000D03*
D22*
X44800000Y-38742500D03*
X42900000Y-38742500D03*
X43850000Y-40617500D03*
D18*
X69797142Y-45752500D03*
X69797142Y-47627500D03*
X52536429Y-45752500D03*
X52536429Y-47627500D03*
D19*
X82954287Y-49180000D03*
X84604287Y-49180000D03*
D22*
X83760000Y-38742500D03*
X81860000Y-38742500D03*
X82810000Y-40617500D03*
D19*
X65693571Y-49180000D03*
X67343571Y-49180000D03*
D20*
X29210000Y-57150000D03*
D21*
X29210000Y-57150000D03*
D18*
X41029287Y-45752500D03*
X41029287Y-47627500D03*
X64043571Y-45752500D03*
X64043571Y-47627500D03*
X58290000Y-45752500D03*
X58290000Y-47627500D03*
D20*
X97790000Y-57150000D03*
D21*
X97790000Y-57150000D03*
D16*
X49120000Y-60060000D03*
D17*
X49120000Y-54560000D03*
X52620000Y-60060000D03*
X52620000Y-54560000D03*
X56120000Y-60060000D03*
X56120000Y-54560000D03*
X59620000Y-60060000D03*
X59620000Y-54560000D03*
X63120000Y-60060000D03*
X63120000Y-54560000D03*
X66620000Y-60060000D03*
X66620000Y-54560000D03*
X70120000Y-60060000D03*
X70120000Y-54560000D03*
X73620000Y-60060000D03*
X73620000Y-54560000D03*
X77120000Y-60060000D03*
X77120000Y-54560000D03*
D19*
X48432858Y-49180000D03*
X50082858Y-49180000D03*
D18*
X46782858Y-45752500D03*
X46782858Y-47627500D03*
%LPD*%
M02*
