G04 #@! TF.GenerationSoftware,KiCad,Pcbnew,7.0.7*
G04 #@! TF.CreationDate,2023-09-05T00:06:28-07:00*
G04 #@! TF.ProjectId,Solenoid Board Ground Systems V1.1,536f6c65-6e6f-4696-9420-426f61726420,rev?*
G04 #@! TF.SameCoordinates,Original*
G04 #@! TF.FileFunction,Soldermask,Bot*
G04 #@! TF.FilePolarity,Negative*
%FSLAX46Y46*%
G04 Gerber Fmt 4.6, Leading zero omitted, Abs format (unit mm)*
G04 Created by KiCad (PCBNEW 7.0.7) date 2023-09-05 00:06:28*
%MOMM*%
%LPD*%
G01*
G04 APERTURE LIST*
%ADD10R,2.025000X2.025000*%
%ADD11C,2.025000*%
%ADD12C,3.600000*%
%ADD13C,5.600000*%
G04 APERTURE END LIST*
D10*
X61310000Y-28610000D03*
D11*
X61310000Y-34110000D03*
X57810000Y-28610000D03*
X57810000Y-34110000D03*
X54310000Y-28610000D03*
X54310000Y-34110000D03*
X50810000Y-28610000D03*
X50810000Y-34110000D03*
X47310000Y-28610000D03*
X47310000Y-34110000D03*
X43810000Y-28610000D03*
X43810000Y-34110000D03*
X40310000Y-28610000D03*
X40310000Y-34110000D03*
X36810000Y-28610000D03*
X36810000Y-34110000D03*
D12*
X97790000Y-31750000D03*
D13*
X97790000Y-31750000D03*
D12*
X29210000Y-31750000D03*
D13*
X29210000Y-31750000D03*
D10*
X91120000Y-28570000D03*
D11*
X91120000Y-34070000D03*
X87620000Y-28570000D03*
X87620000Y-34070000D03*
X84120000Y-28570000D03*
X84120000Y-34070000D03*
X80620000Y-28570000D03*
X80620000Y-34070000D03*
X77120000Y-28570000D03*
X77120000Y-34070000D03*
X73620000Y-28570000D03*
X73620000Y-34070000D03*
X70120000Y-28570000D03*
X70120000Y-34070000D03*
X66620000Y-28570000D03*
X66620000Y-34070000D03*
D12*
X29210000Y-57150000D03*
D13*
X29210000Y-57150000D03*
D12*
X97790000Y-57150000D03*
D13*
X97790000Y-57150000D03*
D10*
X49120000Y-60060000D03*
D11*
X49120000Y-54560000D03*
X52620000Y-60060000D03*
X52620000Y-54560000D03*
X56120000Y-60060000D03*
X56120000Y-54560000D03*
X59620000Y-60060000D03*
X59620000Y-54560000D03*
X63120000Y-60060000D03*
X63120000Y-54560000D03*
X66620000Y-60060000D03*
X66620000Y-54560000D03*
X70120000Y-60060000D03*
X70120000Y-54560000D03*
X73620000Y-60060000D03*
X73620000Y-54560000D03*
X77120000Y-60060000D03*
X77120000Y-54560000D03*
M02*
