%TF.GenerationSoftware,KiCad,Pcbnew,7.0.7*%
%TF.CreationDate,2023-09-05T00:06:30-07:00*%
%TF.ProjectId,Solenoid Board Ground Systems V1.1,536f6c65-6e6f-4696-9420-426f61726420,rev?*%
%TF.SameCoordinates,Original*%
%TF.FileFunction,Drillmap*%
%TF.FilePolarity,Positive*%
%FSLAX45Y45*%
G04 Gerber Fmt 4.5, Leading zero omitted, Abs format (unit mm)*
G04 Created by KiCad (PCBNEW 7.0.7) date 2023-09-05 00:06:30*
%MOMM*%
%LPD*%
G01*
G04 APERTURE LIST*
%ADD10C,0.100000*%
%ADD11C,0.200000*%
%ADD12C,0.030000*%
%ADD13C,0.040000*%
%ADD14C,0.135000*%
%ADD15C,0.320000*%
G04 APERTURE END LIST*
D10*
X2540000Y-2540000D02*
X10160000Y-2540000D01*
X10160000Y-6350000D01*
X2540000Y-6350000D01*
X2540000Y-2540000D01*
D11*
D12*
X4086500Y-4459000D02*
X4116500Y-4489000D01*
X4116500Y-4459000D02*
X4086500Y-4489000D01*
X4664000Y-4459000D02*
X4694000Y-4489000D01*
X4694000Y-4459000D02*
X4664000Y-4489000D01*
X5236500Y-4456500D02*
X5266500Y-4486500D01*
X5266500Y-4456500D02*
X5236500Y-4486500D01*
X5811500Y-4459000D02*
X5841500Y-4489000D01*
X5841500Y-4459000D02*
X5811500Y-4489000D01*
X6389000Y-4459000D02*
X6419000Y-4489000D01*
X6419000Y-4459000D02*
X6389000Y-4489000D01*
X6964000Y-4456500D02*
X6994000Y-4486500D01*
X6994000Y-4456500D02*
X6964000Y-4486500D01*
X7539000Y-4459000D02*
X7569000Y-4489000D01*
X7569000Y-4459000D02*
X7539000Y-4489000D01*
X8119000Y-4456500D02*
X8149000Y-4486500D01*
X8149000Y-4456500D02*
X8119000Y-4486500D01*
D13*
X4406000Y-4175000D02*
G75*
G03*
X4406000Y-4175000I-20000J0D01*
G01*
X5713593Y-4177000D02*
G75*
G03*
X5713593Y-4177000I-20000J0D01*
G01*
X7004000Y-4176000D02*
G75*
G03*
X7004000Y-4176000I-20000J0D01*
G01*
X8301000Y-4176000D02*
G75*
G03*
X8301000Y-4176000I-20000J0D01*
G01*
D14*
X3681000Y-2793500D02*
X3681000Y-2928500D01*
X3613500Y-2861000D02*
X3748500Y-2861000D01*
X3681000Y-3343500D02*
X3681000Y-3478500D01*
X3613500Y-3411000D02*
X3748500Y-3411000D01*
X4031000Y-2793500D02*
X4031000Y-2928500D01*
X3963500Y-2861000D02*
X4098500Y-2861000D01*
X4031000Y-3343500D02*
X4031000Y-3478500D01*
X3963500Y-3411000D02*
X4098500Y-3411000D01*
X4381000Y-2793500D02*
X4381000Y-2928500D01*
X4313500Y-2861000D02*
X4448500Y-2861000D01*
X4381000Y-3343500D02*
X4381000Y-3478500D01*
X4313500Y-3411000D02*
X4448500Y-3411000D01*
X4731000Y-2793500D02*
X4731000Y-2928500D01*
X4663500Y-2861000D02*
X4798500Y-2861000D01*
X4731000Y-3343500D02*
X4731000Y-3478500D01*
X4663500Y-3411000D02*
X4798500Y-3411000D01*
X4912000Y-5388500D02*
X4912000Y-5523500D01*
X4844500Y-5456000D02*
X4979500Y-5456000D01*
X4912000Y-5938500D02*
X4912000Y-6073500D01*
X4844500Y-6006000D02*
X4979500Y-6006000D01*
X5081000Y-2793500D02*
X5081000Y-2928500D01*
X5013500Y-2861000D02*
X5148500Y-2861000D01*
X5081000Y-3343500D02*
X5081000Y-3478500D01*
X5013500Y-3411000D02*
X5148500Y-3411000D01*
X5262000Y-5388500D02*
X5262000Y-5523500D01*
X5194500Y-5456000D02*
X5329500Y-5456000D01*
X5262000Y-5938500D02*
X5262000Y-6073500D01*
X5194500Y-6006000D02*
X5329500Y-6006000D01*
X5431000Y-2793500D02*
X5431000Y-2928500D01*
X5363500Y-2861000D02*
X5498500Y-2861000D01*
X5431000Y-3343500D02*
X5431000Y-3478500D01*
X5363500Y-3411000D02*
X5498500Y-3411000D01*
X5612000Y-5388500D02*
X5612000Y-5523500D01*
X5544500Y-5456000D02*
X5679500Y-5456000D01*
X5612000Y-5938500D02*
X5612000Y-6073500D01*
X5544500Y-6006000D02*
X5679500Y-6006000D01*
X5781000Y-2793500D02*
X5781000Y-2928500D01*
X5713500Y-2861000D02*
X5848500Y-2861000D01*
X5781000Y-3343500D02*
X5781000Y-3478500D01*
X5713500Y-3411000D02*
X5848500Y-3411000D01*
X5962000Y-5388500D02*
X5962000Y-5523500D01*
X5894500Y-5456000D02*
X6029500Y-5456000D01*
X5962000Y-5938500D02*
X5962000Y-6073500D01*
X5894500Y-6006000D02*
X6029500Y-6006000D01*
X6131000Y-2793500D02*
X6131000Y-2928500D01*
X6063500Y-2861000D02*
X6198500Y-2861000D01*
X6131000Y-3343500D02*
X6131000Y-3478500D01*
X6063500Y-3411000D02*
X6198500Y-3411000D01*
X6312000Y-5388500D02*
X6312000Y-5523500D01*
X6244500Y-5456000D02*
X6379500Y-5456000D01*
X6312000Y-5938500D02*
X6312000Y-6073500D01*
X6244500Y-6006000D02*
X6379500Y-6006000D01*
X6662000Y-2789500D02*
X6662000Y-2924500D01*
X6594500Y-2857000D02*
X6729500Y-2857000D01*
X6662000Y-3339500D02*
X6662000Y-3474500D01*
X6594500Y-3407000D02*
X6729500Y-3407000D01*
X6662000Y-5388500D02*
X6662000Y-5523500D01*
X6594500Y-5456000D02*
X6729500Y-5456000D01*
X6662000Y-5938500D02*
X6662000Y-6073500D01*
X6594500Y-6006000D02*
X6729500Y-6006000D01*
X7012000Y-2789500D02*
X7012000Y-2924500D01*
X6944500Y-2857000D02*
X7079500Y-2857000D01*
X7012000Y-3339500D02*
X7012000Y-3474500D01*
X6944500Y-3407000D02*
X7079500Y-3407000D01*
X7012000Y-5388500D02*
X7012000Y-5523500D01*
X6944500Y-5456000D02*
X7079500Y-5456000D01*
X7012000Y-5938500D02*
X7012000Y-6073500D01*
X6944500Y-6006000D02*
X7079500Y-6006000D01*
X7362000Y-2789500D02*
X7362000Y-2924500D01*
X7294500Y-2857000D02*
X7429500Y-2857000D01*
X7362000Y-3339500D02*
X7362000Y-3474500D01*
X7294500Y-3407000D02*
X7429500Y-3407000D01*
X7362000Y-5388500D02*
X7362000Y-5523500D01*
X7294500Y-5456000D02*
X7429500Y-5456000D01*
X7362000Y-5938500D02*
X7362000Y-6073500D01*
X7294500Y-6006000D02*
X7429500Y-6006000D01*
X7712000Y-2789500D02*
X7712000Y-2924500D01*
X7644500Y-2857000D02*
X7779500Y-2857000D01*
X7712000Y-3339500D02*
X7712000Y-3474500D01*
X7644500Y-3407000D02*
X7779500Y-3407000D01*
X7712000Y-5388500D02*
X7712000Y-5523500D01*
X7644500Y-5456000D02*
X7779500Y-5456000D01*
X7712000Y-5938500D02*
X7712000Y-6073500D01*
X7644500Y-6006000D02*
X7779500Y-6006000D01*
X8062000Y-2789500D02*
X8062000Y-2924500D01*
X7994500Y-2857000D02*
X8129500Y-2857000D01*
X8062000Y-3339500D02*
X8062000Y-3474500D01*
X7994500Y-3407000D02*
X8129500Y-3407000D01*
X8412000Y-2789500D02*
X8412000Y-2924500D01*
X8344500Y-2857000D02*
X8479500Y-2857000D01*
X8412000Y-3339500D02*
X8412000Y-3474500D01*
X8344500Y-3407000D02*
X8479500Y-3407000D01*
X8762000Y-2789500D02*
X8762000Y-2924500D01*
X8694500Y-2857000D02*
X8829500Y-2857000D01*
X8762000Y-3339500D02*
X8762000Y-3474500D01*
X8694500Y-3407000D02*
X8829500Y-3407000D01*
X9112000Y-2789500D02*
X9112000Y-2924500D01*
X9044500Y-2857000D02*
X9179500Y-2857000D01*
X9112000Y-3339500D02*
X9112000Y-3474500D01*
X9044500Y-3407000D02*
X9179500Y-3407000D01*
D15*
X3034138Y-3288138D02*
X3034138Y-3061862D01*
X2807862Y-3061862D01*
X2807862Y-3288138D01*
X3034138Y-3288138D01*
X3034138Y-5828138D02*
X3034138Y-5601862D01*
X2807862Y-5601862D01*
X2807862Y-5828138D01*
X3034138Y-5828138D01*
X9892138Y-3288138D02*
X9892138Y-3061862D01*
X9665862Y-3061862D01*
X9665862Y-3288138D01*
X9892138Y-3288138D01*
X9892138Y-5828138D02*
X9892138Y-5601862D01*
X9665862Y-5601862D01*
X9665862Y-5828138D01*
X9892138Y-5828138D01*
D11*
X2795777Y-6666484D02*
X2795777Y-6466484D01*
X2795777Y-6466484D02*
X2843396Y-6466484D01*
X2843396Y-6466484D02*
X2871967Y-6476008D01*
X2871967Y-6476008D02*
X2891015Y-6495055D01*
X2891015Y-6495055D02*
X2900539Y-6514103D01*
X2900539Y-6514103D02*
X2910062Y-6552198D01*
X2910062Y-6552198D02*
X2910062Y-6580769D01*
X2910062Y-6580769D02*
X2900539Y-6618865D01*
X2900539Y-6618865D02*
X2891015Y-6637912D01*
X2891015Y-6637912D02*
X2871967Y-6656960D01*
X2871967Y-6656960D02*
X2843396Y-6666484D01*
X2843396Y-6666484D02*
X2795777Y-6666484D01*
X2995777Y-6666484D02*
X2995777Y-6533150D01*
X2995777Y-6571246D02*
X3005301Y-6552198D01*
X3005301Y-6552198D02*
X3014824Y-6542674D01*
X3014824Y-6542674D02*
X3033872Y-6533150D01*
X3033872Y-6533150D02*
X3052920Y-6533150D01*
X3119586Y-6666484D02*
X3119586Y-6533150D01*
X3119586Y-6466484D02*
X3110062Y-6476008D01*
X3110062Y-6476008D02*
X3119586Y-6485531D01*
X3119586Y-6485531D02*
X3129110Y-6476008D01*
X3129110Y-6476008D02*
X3119586Y-6466484D01*
X3119586Y-6466484D02*
X3119586Y-6485531D01*
X3243396Y-6666484D02*
X3224348Y-6656960D01*
X3224348Y-6656960D02*
X3214824Y-6637912D01*
X3214824Y-6637912D02*
X3214824Y-6466484D01*
X3348158Y-6666484D02*
X3329110Y-6656960D01*
X3329110Y-6656960D02*
X3319586Y-6637912D01*
X3319586Y-6637912D02*
X3319586Y-6466484D01*
X3576729Y-6666484D02*
X3576729Y-6466484D01*
X3576729Y-6466484D02*
X3643396Y-6609341D01*
X3643396Y-6609341D02*
X3710062Y-6466484D01*
X3710062Y-6466484D02*
X3710062Y-6666484D01*
X3891015Y-6666484D02*
X3891015Y-6561722D01*
X3891015Y-6561722D02*
X3881491Y-6542674D01*
X3881491Y-6542674D02*
X3862443Y-6533150D01*
X3862443Y-6533150D02*
X3824348Y-6533150D01*
X3824348Y-6533150D02*
X3805301Y-6542674D01*
X3891015Y-6656960D02*
X3871967Y-6666484D01*
X3871967Y-6666484D02*
X3824348Y-6666484D01*
X3824348Y-6666484D02*
X3805301Y-6656960D01*
X3805301Y-6656960D02*
X3795777Y-6637912D01*
X3795777Y-6637912D02*
X3795777Y-6618865D01*
X3795777Y-6618865D02*
X3805301Y-6599817D01*
X3805301Y-6599817D02*
X3824348Y-6590293D01*
X3824348Y-6590293D02*
X3871967Y-6590293D01*
X3871967Y-6590293D02*
X3891015Y-6580769D01*
X3986253Y-6533150D02*
X3986253Y-6733150D01*
X3986253Y-6542674D02*
X4005301Y-6533150D01*
X4005301Y-6533150D02*
X4043396Y-6533150D01*
X4043396Y-6533150D02*
X4062443Y-6542674D01*
X4062443Y-6542674D02*
X4071967Y-6552198D01*
X4071967Y-6552198D02*
X4081491Y-6571246D01*
X4081491Y-6571246D02*
X4081491Y-6628388D01*
X4081491Y-6628388D02*
X4071967Y-6647436D01*
X4071967Y-6647436D02*
X4062443Y-6656960D01*
X4062443Y-6656960D02*
X4043396Y-6666484D01*
X4043396Y-6666484D02*
X4005301Y-6666484D01*
X4005301Y-6666484D02*
X3986253Y-6656960D01*
X4167205Y-6647436D02*
X4176729Y-6656960D01*
X4176729Y-6656960D02*
X4167205Y-6666484D01*
X4167205Y-6666484D02*
X4157682Y-6656960D01*
X4157682Y-6656960D02*
X4167205Y-6647436D01*
X4167205Y-6647436D02*
X4167205Y-6666484D01*
X4167205Y-6542674D02*
X4176729Y-6552198D01*
X4176729Y-6552198D02*
X4167205Y-6561722D01*
X4167205Y-6561722D02*
X4157682Y-6552198D01*
X4157682Y-6552198D02*
X4167205Y-6542674D01*
X4167205Y-6542674D02*
X4167205Y-6561722D01*
D12*
X2505000Y-6980000D02*
X2535000Y-7010000D01*
X2535000Y-6980000D02*
X2505000Y-7010000D01*
D11*
X2833872Y-6886484D02*
X2852920Y-6886484D01*
X2852920Y-6886484D02*
X2871967Y-6896008D01*
X2871967Y-6896008D02*
X2881491Y-6905531D01*
X2881491Y-6905531D02*
X2891015Y-6924579D01*
X2891015Y-6924579D02*
X2900539Y-6962674D01*
X2900539Y-6962674D02*
X2900539Y-7010293D01*
X2900539Y-7010293D02*
X2891015Y-7048388D01*
X2891015Y-7048388D02*
X2881491Y-7067436D01*
X2881491Y-7067436D02*
X2871967Y-7076960D01*
X2871967Y-7076960D02*
X2852920Y-7086484D01*
X2852920Y-7086484D02*
X2833872Y-7086484D01*
X2833872Y-7086484D02*
X2814824Y-7076960D01*
X2814824Y-7076960D02*
X2805301Y-7067436D01*
X2805301Y-7067436D02*
X2795777Y-7048388D01*
X2795777Y-7048388D02*
X2786253Y-7010293D01*
X2786253Y-7010293D02*
X2786253Y-6962674D01*
X2786253Y-6962674D02*
X2795777Y-6924579D01*
X2795777Y-6924579D02*
X2805301Y-6905531D01*
X2805301Y-6905531D02*
X2814824Y-6896008D01*
X2814824Y-6896008D02*
X2833872Y-6886484D01*
X2986253Y-7067436D02*
X2995777Y-7076960D01*
X2995777Y-7076960D02*
X2986253Y-7086484D01*
X2986253Y-7086484D02*
X2976729Y-7076960D01*
X2976729Y-7076960D02*
X2986253Y-7067436D01*
X2986253Y-7067436D02*
X2986253Y-7086484D01*
X3062443Y-6886484D02*
X3186253Y-6886484D01*
X3186253Y-6886484D02*
X3119586Y-6962674D01*
X3119586Y-6962674D02*
X3148158Y-6962674D01*
X3148158Y-6962674D02*
X3167205Y-6972198D01*
X3167205Y-6972198D02*
X3176729Y-6981722D01*
X3176729Y-6981722D02*
X3186253Y-7000769D01*
X3186253Y-7000769D02*
X3186253Y-7048388D01*
X3186253Y-7048388D02*
X3176729Y-7067436D01*
X3176729Y-7067436D02*
X3167205Y-7076960D01*
X3167205Y-7076960D02*
X3148158Y-7086484D01*
X3148158Y-7086484D02*
X3091015Y-7086484D01*
X3091015Y-7086484D02*
X3071967Y-7076960D01*
X3071967Y-7076960D02*
X3062443Y-7067436D01*
X3310062Y-6886484D02*
X3329110Y-6886484D01*
X3329110Y-6886484D02*
X3348158Y-6896008D01*
X3348158Y-6896008D02*
X3357682Y-6905531D01*
X3357682Y-6905531D02*
X3367205Y-6924579D01*
X3367205Y-6924579D02*
X3376729Y-6962674D01*
X3376729Y-6962674D02*
X3376729Y-7010293D01*
X3376729Y-7010293D02*
X3367205Y-7048388D01*
X3367205Y-7048388D02*
X3357682Y-7067436D01*
X3357682Y-7067436D02*
X3348158Y-7076960D01*
X3348158Y-7076960D02*
X3329110Y-7086484D01*
X3329110Y-7086484D02*
X3310062Y-7086484D01*
X3310062Y-7086484D02*
X3291015Y-7076960D01*
X3291015Y-7076960D02*
X3281491Y-7067436D01*
X3281491Y-7067436D02*
X3271967Y-7048388D01*
X3271967Y-7048388D02*
X3262443Y-7010293D01*
X3262443Y-7010293D02*
X3262443Y-6962674D01*
X3262443Y-6962674D02*
X3271967Y-6924579D01*
X3271967Y-6924579D02*
X3281491Y-6905531D01*
X3281491Y-6905531D02*
X3291015Y-6896008D01*
X3291015Y-6896008D02*
X3310062Y-6886484D01*
X3500539Y-6886484D02*
X3519586Y-6886484D01*
X3519586Y-6886484D02*
X3538634Y-6896008D01*
X3538634Y-6896008D02*
X3548158Y-6905531D01*
X3548158Y-6905531D02*
X3557682Y-6924579D01*
X3557682Y-6924579D02*
X3567205Y-6962674D01*
X3567205Y-6962674D02*
X3567205Y-7010293D01*
X3567205Y-7010293D02*
X3557682Y-7048388D01*
X3557682Y-7048388D02*
X3548158Y-7067436D01*
X3548158Y-7067436D02*
X3538634Y-7076960D01*
X3538634Y-7076960D02*
X3519586Y-7086484D01*
X3519586Y-7086484D02*
X3500539Y-7086484D01*
X3500539Y-7086484D02*
X3481491Y-7076960D01*
X3481491Y-7076960D02*
X3471967Y-7067436D01*
X3471967Y-7067436D02*
X3462443Y-7048388D01*
X3462443Y-7048388D02*
X3452920Y-7010293D01*
X3452920Y-7010293D02*
X3452920Y-6962674D01*
X3452920Y-6962674D02*
X3462443Y-6924579D01*
X3462443Y-6924579D02*
X3471967Y-6905531D01*
X3471967Y-6905531D02*
X3481491Y-6896008D01*
X3481491Y-6896008D02*
X3500539Y-6886484D01*
X3652920Y-7086484D02*
X3652920Y-6953150D01*
X3652920Y-6972198D02*
X3662443Y-6962674D01*
X3662443Y-6962674D02*
X3681491Y-6953150D01*
X3681491Y-6953150D02*
X3710063Y-6953150D01*
X3710063Y-6953150D02*
X3729110Y-6962674D01*
X3729110Y-6962674D02*
X3738634Y-6981722D01*
X3738634Y-6981722D02*
X3738634Y-7086484D01*
X3738634Y-6981722D02*
X3748158Y-6962674D01*
X3748158Y-6962674D02*
X3767205Y-6953150D01*
X3767205Y-6953150D02*
X3795777Y-6953150D01*
X3795777Y-6953150D02*
X3814824Y-6962674D01*
X3814824Y-6962674D02*
X3824348Y-6981722D01*
X3824348Y-6981722D02*
X3824348Y-7086484D01*
X3919586Y-7086484D02*
X3919586Y-6953150D01*
X3919586Y-6972198D02*
X3929110Y-6962674D01*
X3929110Y-6962674D02*
X3948158Y-6953150D01*
X3948158Y-6953150D02*
X3976729Y-6953150D01*
X3976729Y-6953150D02*
X3995777Y-6962674D01*
X3995777Y-6962674D02*
X4005301Y-6981722D01*
X4005301Y-6981722D02*
X4005301Y-7086484D01*
X4005301Y-6981722D02*
X4014824Y-6962674D01*
X4014824Y-6962674D02*
X4033872Y-6953150D01*
X4033872Y-6953150D02*
X4062443Y-6953150D01*
X4062443Y-6953150D02*
X4081491Y-6962674D01*
X4081491Y-6962674D02*
X4091015Y-6981722D01*
X4091015Y-6981722D02*
X4091015Y-7086484D01*
X4481491Y-6876960D02*
X4310063Y-7134103D01*
X4738634Y-6886484D02*
X4757682Y-6886484D01*
X4757682Y-6886484D02*
X4776729Y-6896008D01*
X4776729Y-6896008D02*
X4786253Y-6905531D01*
X4786253Y-6905531D02*
X4795777Y-6924579D01*
X4795777Y-6924579D02*
X4805301Y-6962674D01*
X4805301Y-6962674D02*
X4805301Y-7010293D01*
X4805301Y-7010293D02*
X4795777Y-7048388D01*
X4795777Y-7048388D02*
X4786253Y-7067436D01*
X4786253Y-7067436D02*
X4776729Y-7076960D01*
X4776729Y-7076960D02*
X4757682Y-7086484D01*
X4757682Y-7086484D02*
X4738634Y-7086484D01*
X4738634Y-7086484D02*
X4719587Y-7076960D01*
X4719587Y-7076960D02*
X4710063Y-7067436D01*
X4710063Y-7067436D02*
X4700539Y-7048388D01*
X4700539Y-7048388D02*
X4691015Y-7010293D01*
X4691015Y-7010293D02*
X4691015Y-6962674D01*
X4691015Y-6962674D02*
X4700539Y-6924579D01*
X4700539Y-6924579D02*
X4710063Y-6905531D01*
X4710063Y-6905531D02*
X4719587Y-6896008D01*
X4719587Y-6896008D02*
X4738634Y-6886484D01*
X4891015Y-7067436D02*
X4900539Y-7076960D01*
X4900539Y-7076960D02*
X4891015Y-7086484D01*
X4891015Y-7086484D02*
X4881491Y-7076960D01*
X4881491Y-7076960D02*
X4891015Y-7067436D01*
X4891015Y-7067436D02*
X4891015Y-7086484D01*
X5024348Y-6886484D02*
X5043396Y-6886484D01*
X5043396Y-6886484D02*
X5062444Y-6896008D01*
X5062444Y-6896008D02*
X5071968Y-6905531D01*
X5071968Y-6905531D02*
X5081491Y-6924579D01*
X5081491Y-6924579D02*
X5091015Y-6962674D01*
X5091015Y-6962674D02*
X5091015Y-7010293D01*
X5091015Y-7010293D02*
X5081491Y-7048388D01*
X5081491Y-7048388D02*
X5071968Y-7067436D01*
X5071968Y-7067436D02*
X5062444Y-7076960D01*
X5062444Y-7076960D02*
X5043396Y-7086484D01*
X5043396Y-7086484D02*
X5024348Y-7086484D01*
X5024348Y-7086484D02*
X5005301Y-7076960D01*
X5005301Y-7076960D02*
X4995777Y-7067436D01*
X4995777Y-7067436D02*
X4986253Y-7048388D01*
X4986253Y-7048388D02*
X4976729Y-7010293D01*
X4976729Y-7010293D02*
X4976729Y-6962674D01*
X4976729Y-6962674D02*
X4986253Y-6924579D01*
X4986253Y-6924579D02*
X4995777Y-6905531D01*
X4995777Y-6905531D02*
X5005301Y-6896008D01*
X5005301Y-6896008D02*
X5024348Y-6886484D01*
X5281491Y-7086484D02*
X5167206Y-7086484D01*
X5224348Y-7086484D02*
X5224348Y-6886484D01*
X5224348Y-6886484D02*
X5205301Y-6915055D01*
X5205301Y-6915055D02*
X5186253Y-6934103D01*
X5186253Y-6934103D02*
X5167206Y-6943627D01*
X5471968Y-7086484D02*
X5357682Y-7086484D01*
X5414825Y-7086484D02*
X5414825Y-6886484D01*
X5414825Y-6886484D02*
X5395777Y-6915055D01*
X5395777Y-6915055D02*
X5376729Y-6934103D01*
X5376729Y-6934103D02*
X5357682Y-6943627D01*
X5586253Y-6972198D02*
X5567206Y-6962674D01*
X5567206Y-6962674D02*
X5557682Y-6953150D01*
X5557682Y-6953150D02*
X5548158Y-6934103D01*
X5548158Y-6934103D02*
X5548158Y-6924579D01*
X5548158Y-6924579D02*
X5557682Y-6905531D01*
X5557682Y-6905531D02*
X5567206Y-6896008D01*
X5567206Y-6896008D02*
X5586253Y-6886484D01*
X5586253Y-6886484D02*
X5624348Y-6886484D01*
X5624348Y-6886484D02*
X5643396Y-6896008D01*
X5643396Y-6896008D02*
X5652920Y-6905531D01*
X5652920Y-6905531D02*
X5662444Y-6924579D01*
X5662444Y-6924579D02*
X5662444Y-6934103D01*
X5662444Y-6934103D02*
X5652920Y-6953150D01*
X5652920Y-6953150D02*
X5643396Y-6962674D01*
X5643396Y-6962674D02*
X5624348Y-6972198D01*
X5624348Y-6972198D02*
X5586253Y-6972198D01*
X5586253Y-6972198D02*
X5567206Y-6981722D01*
X5567206Y-6981722D02*
X5557682Y-6991246D01*
X5557682Y-6991246D02*
X5548158Y-7010293D01*
X5548158Y-7010293D02*
X5548158Y-7048388D01*
X5548158Y-7048388D02*
X5557682Y-7067436D01*
X5557682Y-7067436D02*
X5567206Y-7076960D01*
X5567206Y-7076960D02*
X5586253Y-7086484D01*
X5586253Y-7086484D02*
X5624348Y-7086484D01*
X5624348Y-7086484D02*
X5643396Y-7076960D01*
X5643396Y-7076960D02*
X5652920Y-7067436D01*
X5652920Y-7067436D02*
X5662444Y-7048388D01*
X5662444Y-7048388D02*
X5662444Y-7010293D01*
X5662444Y-7010293D02*
X5652920Y-6991246D01*
X5652920Y-6991246D02*
X5643396Y-6981722D01*
X5643396Y-6981722D02*
X5624348Y-6972198D01*
X5738634Y-6886484D02*
X5738634Y-6924579D01*
X5814825Y-6886484D02*
X5814825Y-6924579D01*
X6110063Y-7162674D02*
X6100539Y-7153150D01*
X6100539Y-7153150D02*
X6081491Y-7124579D01*
X6081491Y-7124579D02*
X6071968Y-7105531D01*
X6071968Y-7105531D02*
X6062444Y-7076960D01*
X6062444Y-7076960D02*
X6052920Y-7029341D01*
X6052920Y-7029341D02*
X6052920Y-6991246D01*
X6052920Y-6991246D02*
X6062444Y-6943627D01*
X6062444Y-6943627D02*
X6071968Y-6915055D01*
X6071968Y-6915055D02*
X6081491Y-6896008D01*
X6081491Y-6896008D02*
X6100539Y-6867436D01*
X6100539Y-6867436D02*
X6110063Y-6857912D01*
X6214825Y-6972198D02*
X6195777Y-6962674D01*
X6195777Y-6962674D02*
X6186253Y-6953150D01*
X6186253Y-6953150D02*
X6176729Y-6934103D01*
X6176729Y-6934103D02*
X6176729Y-6924579D01*
X6176729Y-6924579D02*
X6186253Y-6905531D01*
X6186253Y-6905531D02*
X6195777Y-6896008D01*
X6195777Y-6896008D02*
X6214825Y-6886484D01*
X6214825Y-6886484D02*
X6252920Y-6886484D01*
X6252920Y-6886484D02*
X6271968Y-6896008D01*
X6271968Y-6896008D02*
X6281491Y-6905531D01*
X6281491Y-6905531D02*
X6291015Y-6924579D01*
X6291015Y-6924579D02*
X6291015Y-6934103D01*
X6291015Y-6934103D02*
X6281491Y-6953150D01*
X6281491Y-6953150D02*
X6271968Y-6962674D01*
X6271968Y-6962674D02*
X6252920Y-6972198D01*
X6252920Y-6972198D02*
X6214825Y-6972198D01*
X6214825Y-6972198D02*
X6195777Y-6981722D01*
X6195777Y-6981722D02*
X6186253Y-6991246D01*
X6186253Y-6991246D02*
X6176729Y-7010293D01*
X6176729Y-7010293D02*
X6176729Y-7048388D01*
X6176729Y-7048388D02*
X6186253Y-7067436D01*
X6186253Y-7067436D02*
X6195777Y-7076960D01*
X6195777Y-7076960D02*
X6214825Y-7086484D01*
X6214825Y-7086484D02*
X6252920Y-7086484D01*
X6252920Y-7086484D02*
X6271968Y-7076960D01*
X6271968Y-7076960D02*
X6281491Y-7067436D01*
X6281491Y-7067436D02*
X6291015Y-7048388D01*
X6291015Y-7048388D02*
X6291015Y-7010293D01*
X6291015Y-7010293D02*
X6281491Y-6991246D01*
X6281491Y-6991246D02*
X6271968Y-6981722D01*
X6271968Y-6981722D02*
X6252920Y-6972198D01*
X6529110Y-7086484D02*
X6529110Y-6886484D01*
X6614825Y-7086484D02*
X6614825Y-6981722D01*
X6614825Y-6981722D02*
X6605301Y-6962674D01*
X6605301Y-6962674D02*
X6586253Y-6953150D01*
X6586253Y-6953150D02*
X6557682Y-6953150D01*
X6557682Y-6953150D02*
X6538634Y-6962674D01*
X6538634Y-6962674D02*
X6529110Y-6972198D01*
X6738634Y-7086484D02*
X6719587Y-7076960D01*
X6719587Y-7076960D02*
X6710063Y-7067436D01*
X6710063Y-7067436D02*
X6700539Y-7048388D01*
X6700539Y-7048388D02*
X6700539Y-6991246D01*
X6700539Y-6991246D02*
X6710063Y-6972198D01*
X6710063Y-6972198D02*
X6719587Y-6962674D01*
X6719587Y-6962674D02*
X6738634Y-6953150D01*
X6738634Y-6953150D02*
X6767206Y-6953150D01*
X6767206Y-6953150D02*
X6786253Y-6962674D01*
X6786253Y-6962674D02*
X6795777Y-6972198D01*
X6795777Y-6972198D02*
X6805301Y-6991246D01*
X6805301Y-6991246D02*
X6805301Y-7048388D01*
X6805301Y-7048388D02*
X6795777Y-7067436D01*
X6795777Y-7067436D02*
X6786253Y-7076960D01*
X6786253Y-7076960D02*
X6767206Y-7086484D01*
X6767206Y-7086484D02*
X6738634Y-7086484D01*
X6919587Y-7086484D02*
X6900539Y-7076960D01*
X6900539Y-7076960D02*
X6891015Y-7057912D01*
X6891015Y-7057912D02*
X6891015Y-6886484D01*
X7071968Y-7076960D02*
X7052920Y-7086484D01*
X7052920Y-7086484D02*
X7014825Y-7086484D01*
X7014825Y-7086484D02*
X6995777Y-7076960D01*
X6995777Y-7076960D02*
X6986253Y-7057912D01*
X6986253Y-7057912D02*
X6986253Y-6981722D01*
X6986253Y-6981722D02*
X6995777Y-6962674D01*
X6995777Y-6962674D02*
X7014825Y-6953150D01*
X7014825Y-6953150D02*
X7052920Y-6953150D01*
X7052920Y-6953150D02*
X7071968Y-6962674D01*
X7071968Y-6962674D02*
X7081491Y-6981722D01*
X7081491Y-6981722D02*
X7081491Y-7000769D01*
X7081491Y-7000769D02*
X6986253Y-7019817D01*
X7157682Y-7076960D02*
X7176730Y-7086484D01*
X7176730Y-7086484D02*
X7214825Y-7086484D01*
X7214825Y-7086484D02*
X7233872Y-7076960D01*
X7233872Y-7076960D02*
X7243396Y-7057912D01*
X7243396Y-7057912D02*
X7243396Y-7048388D01*
X7243396Y-7048388D02*
X7233872Y-7029341D01*
X7233872Y-7029341D02*
X7214825Y-7019817D01*
X7214825Y-7019817D02*
X7186253Y-7019817D01*
X7186253Y-7019817D02*
X7167206Y-7010293D01*
X7167206Y-7010293D02*
X7157682Y-6991246D01*
X7157682Y-6991246D02*
X7157682Y-6981722D01*
X7157682Y-6981722D02*
X7167206Y-6962674D01*
X7167206Y-6962674D02*
X7186253Y-6953150D01*
X7186253Y-6953150D02*
X7214825Y-6953150D01*
X7214825Y-6953150D02*
X7233872Y-6962674D01*
X7310063Y-7162674D02*
X7319587Y-7153150D01*
X7319587Y-7153150D02*
X7338634Y-7124579D01*
X7338634Y-7124579D02*
X7348158Y-7105531D01*
X7348158Y-7105531D02*
X7357682Y-7076960D01*
X7357682Y-7076960D02*
X7367206Y-7029341D01*
X7367206Y-7029341D02*
X7367206Y-6991246D01*
X7367206Y-6991246D02*
X7357682Y-6943627D01*
X7357682Y-6943627D02*
X7348158Y-6915055D01*
X7348158Y-6915055D02*
X7338634Y-6896008D01*
X7338634Y-6896008D02*
X7319587Y-6867436D01*
X7319587Y-6867436D02*
X7310063Y-6857912D01*
D13*
X2535000Y-7259000D02*
G75*
G03*
X2535000Y-7259000I-20000J0D01*
G01*
D11*
X2833872Y-7150484D02*
X2852920Y-7150484D01*
X2852920Y-7150484D02*
X2871967Y-7160008D01*
X2871967Y-7160008D02*
X2881491Y-7169531D01*
X2881491Y-7169531D02*
X2891015Y-7188579D01*
X2891015Y-7188579D02*
X2900539Y-7226674D01*
X2900539Y-7226674D02*
X2900539Y-7274293D01*
X2900539Y-7274293D02*
X2891015Y-7312388D01*
X2891015Y-7312388D02*
X2881491Y-7331436D01*
X2881491Y-7331436D02*
X2871967Y-7340960D01*
X2871967Y-7340960D02*
X2852920Y-7350484D01*
X2852920Y-7350484D02*
X2833872Y-7350484D01*
X2833872Y-7350484D02*
X2814824Y-7340960D01*
X2814824Y-7340960D02*
X2805301Y-7331436D01*
X2805301Y-7331436D02*
X2795777Y-7312388D01*
X2795777Y-7312388D02*
X2786253Y-7274293D01*
X2786253Y-7274293D02*
X2786253Y-7226674D01*
X2786253Y-7226674D02*
X2795777Y-7188579D01*
X2795777Y-7188579D02*
X2805301Y-7169531D01*
X2805301Y-7169531D02*
X2814824Y-7160008D01*
X2814824Y-7160008D02*
X2833872Y-7150484D01*
X2986253Y-7331436D02*
X2995777Y-7340960D01*
X2995777Y-7340960D02*
X2986253Y-7350484D01*
X2986253Y-7350484D02*
X2976729Y-7340960D01*
X2976729Y-7340960D02*
X2986253Y-7331436D01*
X2986253Y-7331436D02*
X2986253Y-7350484D01*
X3167205Y-7217150D02*
X3167205Y-7350484D01*
X3119586Y-7140960D02*
X3071967Y-7283817D01*
X3071967Y-7283817D02*
X3195777Y-7283817D01*
X3310062Y-7150484D02*
X3329110Y-7150484D01*
X3329110Y-7150484D02*
X3348158Y-7160008D01*
X3348158Y-7160008D02*
X3357682Y-7169531D01*
X3357682Y-7169531D02*
X3367205Y-7188579D01*
X3367205Y-7188579D02*
X3376729Y-7226674D01*
X3376729Y-7226674D02*
X3376729Y-7274293D01*
X3376729Y-7274293D02*
X3367205Y-7312388D01*
X3367205Y-7312388D02*
X3357682Y-7331436D01*
X3357682Y-7331436D02*
X3348158Y-7340960D01*
X3348158Y-7340960D02*
X3329110Y-7350484D01*
X3329110Y-7350484D02*
X3310062Y-7350484D01*
X3310062Y-7350484D02*
X3291015Y-7340960D01*
X3291015Y-7340960D02*
X3281491Y-7331436D01*
X3281491Y-7331436D02*
X3271967Y-7312388D01*
X3271967Y-7312388D02*
X3262443Y-7274293D01*
X3262443Y-7274293D02*
X3262443Y-7226674D01*
X3262443Y-7226674D02*
X3271967Y-7188579D01*
X3271967Y-7188579D02*
X3281491Y-7169531D01*
X3281491Y-7169531D02*
X3291015Y-7160008D01*
X3291015Y-7160008D02*
X3310062Y-7150484D01*
X3500539Y-7150484D02*
X3519586Y-7150484D01*
X3519586Y-7150484D02*
X3538634Y-7160008D01*
X3538634Y-7160008D02*
X3548158Y-7169531D01*
X3548158Y-7169531D02*
X3557682Y-7188579D01*
X3557682Y-7188579D02*
X3567205Y-7226674D01*
X3567205Y-7226674D02*
X3567205Y-7274293D01*
X3567205Y-7274293D02*
X3557682Y-7312388D01*
X3557682Y-7312388D02*
X3548158Y-7331436D01*
X3548158Y-7331436D02*
X3538634Y-7340960D01*
X3538634Y-7340960D02*
X3519586Y-7350484D01*
X3519586Y-7350484D02*
X3500539Y-7350484D01*
X3500539Y-7350484D02*
X3481491Y-7340960D01*
X3481491Y-7340960D02*
X3471967Y-7331436D01*
X3471967Y-7331436D02*
X3462443Y-7312388D01*
X3462443Y-7312388D02*
X3452920Y-7274293D01*
X3452920Y-7274293D02*
X3452920Y-7226674D01*
X3452920Y-7226674D02*
X3462443Y-7188579D01*
X3462443Y-7188579D02*
X3471967Y-7169531D01*
X3471967Y-7169531D02*
X3481491Y-7160008D01*
X3481491Y-7160008D02*
X3500539Y-7150484D01*
X3652920Y-7350484D02*
X3652920Y-7217150D01*
X3652920Y-7236198D02*
X3662443Y-7226674D01*
X3662443Y-7226674D02*
X3681491Y-7217150D01*
X3681491Y-7217150D02*
X3710063Y-7217150D01*
X3710063Y-7217150D02*
X3729110Y-7226674D01*
X3729110Y-7226674D02*
X3738634Y-7245722D01*
X3738634Y-7245722D02*
X3738634Y-7350484D01*
X3738634Y-7245722D02*
X3748158Y-7226674D01*
X3748158Y-7226674D02*
X3767205Y-7217150D01*
X3767205Y-7217150D02*
X3795777Y-7217150D01*
X3795777Y-7217150D02*
X3814824Y-7226674D01*
X3814824Y-7226674D02*
X3824348Y-7245722D01*
X3824348Y-7245722D02*
X3824348Y-7350484D01*
X3919586Y-7350484D02*
X3919586Y-7217150D01*
X3919586Y-7236198D02*
X3929110Y-7226674D01*
X3929110Y-7226674D02*
X3948158Y-7217150D01*
X3948158Y-7217150D02*
X3976729Y-7217150D01*
X3976729Y-7217150D02*
X3995777Y-7226674D01*
X3995777Y-7226674D02*
X4005301Y-7245722D01*
X4005301Y-7245722D02*
X4005301Y-7350484D01*
X4005301Y-7245722D02*
X4014824Y-7226674D01*
X4014824Y-7226674D02*
X4033872Y-7217150D01*
X4033872Y-7217150D02*
X4062443Y-7217150D01*
X4062443Y-7217150D02*
X4081491Y-7226674D01*
X4081491Y-7226674D02*
X4091015Y-7245722D01*
X4091015Y-7245722D02*
X4091015Y-7350484D01*
X4481491Y-7140960D02*
X4310063Y-7398103D01*
X4738634Y-7150484D02*
X4757682Y-7150484D01*
X4757682Y-7150484D02*
X4776729Y-7160008D01*
X4776729Y-7160008D02*
X4786253Y-7169531D01*
X4786253Y-7169531D02*
X4795777Y-7188579D01*
X4795777Y-7188579D02*
X4805301Y-7226674D01*
X4805301Y-7226674D02*
X4805301Y-7274293D01*
X4805301Y-7274293D02*
X4795777Y-7312388D01*
X4795777Y-7312388D02*
X4786253Y-7331436D01*
X4786253Y-7331436D02*
X4776729Y-7340960D01*
X4776729Y-7340960D02*
X4757682Y-7350484D01*
X4757682Y-7350484D02*
X4738634Y-7350484D01*
X4738634Y-7350484D02*
X4719587Y-7340960D01*
X4719587Y-7340960D02*
X4710063Y-7331436D01*
X4710063Y-7331436D02*
X4700539Y-7312388D01*
X4700539Y-7312388D02*
X4691015Y-7274293D01*
X4691015Y-7274293D02*
X4691015Y-7226674D01*
X4691015Y-7226674D02*
X4700539Y-7188579D01*
X4700539Y-7188579D02*
X4710063Y-7169531D01*
X4710063Y-7169531D02*
X4719587Y-7160008D01*
X4719587Y-7160008D02*
X4738634Y-7150484D01*
X4891015Y-7331436D02*
X4900539Y-7340960D01*
X4900539Y-7340960D02*
X4891015Y-7350484D01*
X4891015Y-7350484D02*
X4881491Y-7340960D01*
X4881491Y-7340960D02*
X4891015Y-7331436D01*
X4891015Y-7331436D02*
X4891015Y-7350484D01*
X5024348Y-7150484D02*
X5043396Y-7150484D01*
X5043396Y-7150484D02*
X5062444Y-7160008D01*
X5062444Y-7160008D02*
X5071968Y-7169531D01*
X5071968Y-7169531D02*
X5081491Y-7188579D01*
X5081491Y-7188579D02*
X5091015Y-7226674D01*
X5091015Y-7226674D02*
X5091015Y-7274293D01*
X5091015Y-7274293D02*
X5081491Y-7312388D01*
X5081491Y-7312388D02*
X5071968Y-7331436D01*
X5071968Y-7331436D02*
X5062444Y-7340960D01*
X5062444Y-7340960D02*
X5043396Y-7350484D01*
X5043396Y-7350484D02*
X5024348Y-7350484D01*
X5024348Y-7350484D02*
X5005301Y-7340960D01*
X5005301Y-7340960D02*
X4995777Y-7331436D01*
X4995777Y-7331436D02*
X4986253Y-7312388D01*
X4986253Y-7312388D02*
X4976729Y-7274293D01*
X4976729Y-7274293D02*
X4976729Y-7226674D01*
X4976729Y-7226674D02*
X4986253Y-7188579D01*
X4986253Y-7188579D02*
X4995777Y-7169531D01*
X4995777Y-7169531D02*
X5005301Y-7160008D01*
X5005301Y-7160008D02*
X5024348Y-7150484D01*
X5281491Y-7350484D02*
X5167206Y-7350484D01*
X5224348Y-7350484D02*
X5224348Y-7150484D01*
X5224348Y-7150484D02*
X5205301Y-7179055D01*
X5205301Y-7179055D02*
X5186253Y-7198103D01*
X5186253Y-7198103D02*
X5167206Y-7207627D01*
X5462444Y-7150484D02*
X5367206Y-7150484D01*
X5367206Y-7150484D02*
X5357682Y-7245722D01*
X5357682Y-7245722D02*
X5367206Y-7236198D01*
X5367206Y-7236198D02*
X5386253Y-7226674D01*
X5386253Y-7226674D02*
X5433872Y-7226674D01*
X5433872Y-7226674D02*
X5452920Y-7236198D01*
X5452920Y-7236198D02*
X5462444Y-7245722D01*
X5462444Y-7245722D02*
X5471968Y-7264769D01*
X5471968Y-7264769D02*
X5471968Y-7312388D01*
X5471968Y-7312388D02*
X5462444Y-7331436D01*
X5462444Y-7331436D02*
X5452920Y-7340960D01*
X5452920Y-7340960D02*
X5433872Y-7350484D01*
X5433872Y-7350484D02*
X5386253Y-7350484D01*
X5386253Y-7350484D02*
X5367206Y-7340960D01*
X5367206Y-7340960D02*
X5357682Y-7331436D01*
X5538634Y-7150484D02*
X5671967Y-7150484D01*
X5671967Y-7150484D02*
X5586253Y-7350484D01*
X5738634Y-7150484D02*
X5738634Y-7188579D01*
X5814825Y-7150484D02*
X5814825Y-7188579D01*
X6110063Y-7426674D02*
X6100539Y-7417150D01*
X6100539Y-7417150D02*
X6081491Y-7388579D01*
X6081491Y-7388579D02*
X6071968Y-7369531D01*
X6071968Y-7369531D02*
X6062444Y-7340960D01*
X6062444Y-7340960D02*
X6052920Y-7293341D01*
X6052920Y-7293341D02*
X6052920Y-7255246D01*
X6052920Y-7255246D02*
X6062444Y-7207627D01*
X6062444Y-7207627D02*
X6071968Y-7179055D01*
X6071968Y-7179055D02*
X6081491Y-7160008D01*
X6081491Y-7160008D02*
X6100539Y-7131436D01*
X6100539Y-7131436D02*
X6110063Y-7121912D01*
X6271968Y-7217150D02*
X6271968Y-7350484D01*
X6224348Y-7140960D02*
X6176729Y-7283817D01*
X6176729Y-7283817D02*
X6300539Y-7283817D01*
X6529110Y-7350484D02*
X6529110Y-7150484D01*
X6614825Y-7350484D02*
X6614825Y-7245722D01*
X6614825Y-7245722D02*
X6605301Y-7226674D01*
X6605301Y-7226674D02*
X6586253Y-7217150D01*
X6586253Y-7217150D02*
X6557682Y-7217150D01*
X6557682Y-7217150D02*
X6538634Y-7226674D01*
X6538634Y-7226674D02*
X6529110Y-7236198D01*
X6738634Y-7350484D02*
X6719587Y-7340960D01*
X6719587Y-7340960D02*
X6710063Y-7331436D01*
X6710063Y-7331436D02*
X6700539Y-7312388D01*
X6700539Y-7312388D02*
X6700539Y-7255246D01*
X6700539Y-7255246D02*
X6710063Y-7236198D01*
X6710063Y-7236198D02*
X6719587Y-7226674D01*
X6719587Y-7226674D02*
X6738634Y-7217150D01*
X6738634Y-7217150D02*
X6767206Y-7217150D01*
X6767206Y-7217150D02*
X6786253Y-7226674D01*
X6786253Y-7226674D02*
X6795777Y-7236198D01*
X6795777Y-7236198D02*
X6805301Y-7255246D01*
X6805301Y-7255246D02*
X6805301Y-7312388D01*
X6805301Y-7312388D02*
X6795777Y-7331436D01*
X6795777Y-7331436D02*
X6786253Y-7340960D01*
X6786253Y-7340960D02*
X6767206Y-7350484D01*
X6767206Y-7350484D02*
X6738634Y-7350484D01*
X6919587Y-7350484D02*
X6900539Y-7340960D01*
X6900539Y-7340960D02*
X6891015Y-7321912D01*
X6891015Y-7321912D02*
X6891015Y-7150484D01*
X7071968Y-7340960D02*
X7052920Y-7350484D01*
X7052920Y-7350484D02*
X7014825Y-7350484D01*
X7014825Y-7350484D02*
X6995777Y-7340960D01*
X6995777Y-7340960D02*
X6986253Y-7321912D01*
X6986253Y-7321912D02*
X6986253Y-7245722D01*
X6986253Y-7245722D02*
X6995777Y-7226674D01*
X6995777Y-7226674D02*
X7014825Y-7217150D01*
X7014825Y-7217150D02*
X7052920Y-7217150D01*
X7052920Y-7217150D02*
X7071968Y-7226674D01*
X7071968Y-7226674D02*
X7081491Y-7245722D01*
X7081491Y-7245722D02*
X7081491Y-7264769D01*
X7081491Y-7264769D02*
X6986253Y-7283817D01*
X7157682Y-7340960D02*
X7176730Y-7350484D01*
X7176730Y-7350484D02*
X7214825Y-7350484D01*
X7214825Y-7350484D02*
X7233872Y-7340960D01*
X7233872Y-7340960D02*
X7243396Y-7321912D01*
X7243396Y-7321912D02*
X7243396Y-7312388D01*
X7243396Y-7312388D02*
X7233872Y-7293341D01*
X7233872Y-7293341D02*
X7214825Y-7283817D01*
X7214825Y-7283817D02*
X7186253Y-7283817D01*
X7186253Y-7283817D02*
X7167206Y-7274293D01*
X7167206Y-7274293D02*
X7157682Y-7255246D01*
X7157682Y-7255246D02*
X7157682Y-7245722D01*
X7157682Y-7245722D02*
X7167206Y-7226674D01*
X7167206Y-7226674D02*
X7186253Y-7217150D01*
X7186253Y-7217150D02*
X7214825Y-7217150D01*
X7214825Y-7217150D02*
X7233872Y-7226674D01*
X7310063Y-7426674D02*
X7319587Y-7417150D01*
X7319587Y-7417150D02*
X7338634Y-7388579D01*
X7338634Y-7388579D02*
X7348158Y-7369531D01*
X7348158Y-7369531D02*
X7357682Y-7340960D01*
X7357682Y-7340960D02*
X7367206Y-7293341D01*
X7367206Y-7293341D02*
X7367206Y-7255246D01*
X7367206Y-7255246D02*
X7357682Y-7207627D01*
X7357682Y-7207627D02*
X7348158Y-7179055D01*
X7348158Y-7179055D02*
X7338634Y-7160008D01*
X7338634Y-7160008D02*
X7319587Y-7131436D01*
X7319587Y-7131436D02*
X7310063Y-7121912D01*
D14*
X2467500Y-7455500D02*
X2467500Y-7590500D01*
X2400000Y-7523000D02*
X2535000Y-7523000D01*
D11*
X2900539Y-7614484D02*
X2786253Y-7614484D01*
X2843396Y-7614484D02*
X2843396Y-7414484D01*
X2843396Y-7414484D02*
X2824348Y-7443055D01*
X2824348Y-7443055D02*
X2805301Y-7462103D01*
X2805301Y-7462103D02*
X2786253Y-7471627D01*
X2986253Y-7595436D02*
X2995777Y-7604960D01*
X2995777Y-7604960D02*
X2986253Y-7614484D01*
X2986253Y-7614484D02*
X2976729Y-7604960D01*
X2976729Y-7604960D02*
X2986253Y-7595436D01*
X2986253Y-7595436D02*
X2986253Y-7614484D01*
X3062443Y-7414484D02*
X3186253Y-7414484D01*
X3186253Y-7414484D02*
X3119586Y-7490674D01*
X3119586Y-7490674D02*
X3148158Y-7490674D01*
X3148158Y-7490674D02*
X3167205Y-7500198D01*
X3167205Y-7500198D02*
X3176729Y-7509722D01*
X3176729Y-7509722D02*
X3186253Y-7528769D01*
X3186253Y-7528769D02*
X3186253Y-7576388D01*
X3186253Y-7576388D02*
X3176729Y-7595436D01*
X3176729Y-7595436D02*
X3167205Y-7604960D01*
X3167205Y-7604960D02*
X3148158Y-7614484D01*
X3148158Y-7614484D02*
X3091015Y-7614484D01*
X3091015Y-7614484D02*
X3071967Y-7604960D01*
X3071967Y-7604960D02*
X3062443Y-7595436D01*
X3367205Y-7414484D02*
X3271967Y-7414484D01*
X3271967Y-7414484D02*
X3262443Y-7509722D01*
X3262443Y-7509722D02*
X3271967Y-7500198D01*
X3271967Y-7500198D02*
X3291015Y-7490674D01*
X3291015Y-7490674D02*
X3338634Y-7490674D01*
X3338634Y-7490674D02*
X3357682Y-7500198D01*
X3357682Y-7500198D02*
X3367205Y-7509722D01*
X3367205Y-7509722D02*
X3376729Y-7528769D01*
X3376729Y-7528769D02*
X3376729Y-7576388D01*
X3376729Y-7576388D02*
X3367205Y-7595436D01*
X3367205Y-7595436D02*
X3357682Y-7604960D01*
X3357682Y-7604960D02*
X3338634Y-7614484D01*
X3338634Y-7614484D02*
X3291015Y-7614484D01*
X3291015Y-7614484D02*
X3271967Y-7604960D01*
X3271967Y-7604960D02*
X3262443Y-7595436D01*
X3500539Y-7414484D02*
X3519586Y-7414484D01*
X3519586Y-7414484D02*
X3538634Y-7424008D01*
X3538634Y-7424008D02*
X3548158Y-7433531D01*
X3548158Y-7433531D02*
X3557682Y-7452579D01*
X3557682Y-7452579D02*
X3567205Y-7490674D01*
X3567205Y-7490674D02*
X3567205Y-7538293D01*
X3567205Y-7538293D02*
X3557682Y-7576388D01*
X3557682Y-7576388D02*
X3548158Y-7595436D01*
X3548158Y-7595436D02*
X3538634Y-7604960D01*
X3538634Y-7604960D02*
X3519586Y-7614484D01*
X3519586Y-7614484D02*
X3500539Y-7614484D01*
X3500539Y-7614484D02*
X3481491Y-7604960D01*
X3481491Y-7604960D02*
X3471967Y-7595436D01*
X3471967Y-7595436D02*
X3462443Y-7576388D01*
X3462443Y-7576388D02*
X3452920Y-7538293D01*
X3452920Y-7538293D02*
X3452920Y-7490674D01*
X3452920Y-7490674D02*
X3462443Y-7452579D01*
X3462443Y-7452579D02*
X3471967Y-7433531D01*
X3471967Y-7433531D02*
X3481491Y-7424008D01*
X3481491Y-7424008D02*
X3500539Y-7414484D01*
X3652920Y-7614484D02*
X3652920Y-7481150D01*
X3652920Y-7500198D02*
X3662443Y-7490674D01*
X3662443Y-7490674D02*
X3681491Y-7481150D01*
X3681491Y-7481150D02*
X3710063Y-7481150D01*
X3710063Y-7481150D02*
X3729110Y-7490674D01*
X3729110Y-7490674D02*
X3738634Y-7509722D01*
X3738634Y-7509722D02*
X3738634Y-7614484D01*
X3738634Y-7509722D02*
X3748158Y-7490674D01*
X3748158Y-7490674D02*
X3767205Y-7481150D01*
X3767205Y-7481150D02*
X3795777Y-7481150D01*
X3795777Y-7481150D02*
X3814824Y-7490674D01*
X3814824Y-7490674D02*
X3824348Y-7509722D01*
X3824348Y-7509722D02*
X3824348Y-7614484D01*
X3919586Y-7614484D02*
X3919586Y-7481150D01*
X3919586Y-7500198D02*
X3929110Y-7490674D01*
X3929110Y-7490674D02*
X3948158Y-7481150D01*
X3948158Y-7481150D02*
X3976729Y-7481150D01*
X3976729Y-7481150D02*
X3995777Y-7490674D01*
X3995777Y-7490674D02*
X4005301Y-7509722D01*
X4005301Y-7509722D02*
X4005301Y-7614484D01*
X4005301Y-7509722D02*
X4014824Y-7490674D01*
X4014824Y-7490674D02*
X4033872Y-7481150D01*
X4033872Y-7481150D02*
X4062443Y-7481150D01*
X4062443Y-7481150D02*
X4081491Y-7490674D01*
X4081491Y-7490674D02*
X4091015Y-7509722D01*
X4091015Y-7509722D02*
X4091015Y-7614484D01*
X4481491Y-7404960D02*
X4310063Y-7662103D01*
X4738634Y-7414484D02*
X4757682Y-7414484D01*
X4757682Y-7414484D02*
X4776729Y-7424008D01*
X4776729Y-7424008D02*
X4786253Y-7433531D01*
X4786253Y-7433531D02*
X4795777Y-7452579D01*
X4795777Y-7452579D02*
X4805301Y-7490674D01*
X4805301Y-7490674D02*
X4805301Y-7538293D01*
X4805301Y-7538293D02*
X4795777Y-7576388D01*
X4795777Y-7576388D02*
X4786253Y-7595436D01*
X4786253Y-7595436D02*
X4776729Y-7604960D01*
X4776729Y-7604960D02*
X4757682Y-7614484D01*
X4757682Y-7614484D02*
X4738634Y-7614484D01*
X4738634Y-7614484D02*
X4719587Y-7604960D01*
X4719587Y-7604960D02*
X4710063Y-7595436D01*
X4710063Y-7595436D02*
X4700539Y-7576388D01*
X4700539Y-7576388D02*
X4691015Y-7538293D01*
X4691015Y-7538293D02*
X4691015Y-7490674D01*
X4691015Y-7490674D02*
X4700539Y-7452579D01*
X4700539Y-7452579D02*
X4710063Y-7433531D01*
X4710063Y-7433531D02*
X4719587Y-7424008D01*
X4719587Y-7424008D02*
X4738634Y-7414484D01*
X4891015Y-7595436D02*
X4900539Y-7604960D01*
X4900539Y-7604960D02*
X4891015Y-7614484D01*
X4891015Y-7614484D02*
X4881491Y-7604960D01*
X4881491Y-7604960D02*
X4891015Y-7595436D01*
X4891015Y-7595436D02*
X4891015Y-7614484D01*
X5024348Y-7414484D02*
X5043396Y-7414484D01*
X5043396Y-7414484D02*
X5062444Y-7424008D01*
X5062444Y-7424008D02*
X5071968Y-7433531D01*
X5071968Y-7433531D02*
X5081491Y-7452579D01*
X5081491Y-7452579D02*
X5091015Y-7490674D01*
X5091015Y-7490674D02*
X5091015Y-7538293D01*
X5091015Y-7538293D02*
X5081491Y-7576388D01*
X5081491Y-7576388D02*
X5071968Y-7595436D01*
X5071968Y-7595436D02*
X5062444Y-7604960D01*
X5062444Y-7604960D02*
X5043396Y-7614484D01*
X5043396Y-7614484D02*
X5024348Y-7614484D01*
X5024348Y-7614484D02*
X5005301Y-7604960D01*
X5005301Y-7604960D02*
X4995777Y-7595436D01*
X4995777Y-7595436D02*
X4986253Y-7576388D01*
X4986253Y-7576388D02*
X4976729Y-7538293D01*
X4976729Y-7538293D02*
X4976729Y-7490674D01*
X4976729Y-7490674D02*
X4986253Y-7452579D01*
X4986253Y-7452579D02*
X4995777Y-7433531D01*
X4995777Y-7433531D02*
X5005301Y-7424008D01*
X5005301Y-7424008D02*
X5024348Y-7414484D01*
X5271968Y-7414484D02*
X5176729Y-7414484D01*
X5176729Y-7414484D02*
X5167206Y-7509722D01*
X5167206Y-7509722D02*
X5176729Y-7500198D01*
X5176729Y-7500198D02*
X5195777Y-7490674D01*
X5195777Y-7490674D02*
X5243396Y-7490674D01*
X5243396Y-7490674D02*
X5262444Y-7500198D01*
X5262444Y-7500198D02*
X5271968Y-7509722D01*
X5271968Y-7509722D02*
X5281491Y-7528769D01*
X5281491Y-7528769D02*
X5281491Y-7576388D01*
X5281491Y-7576388D02*
X5271968Y-7595436D01*
X5271968Y-7595436D02*
X5262444Y-7604960D01*
X5262444Y-7604960D02*
X5243396Y-7614484D01*
X5243396Y-7614484D02*
X5195777Y-7614484D01*
X5195777Y-7614484D02*
X5176729Y-7604960D01*
X5176729Y-7604960D02*
X5167206Y-7595436D01*
X5348158Y-7414484D02*
X5471968Y-7414484D01*
X5471968Y-7414484D02*
X5405301Y-7490674D01*
X5405301Y-7490674D02*
X5433872Y-7490674D01*
X5433872Y-7490674D02*
X5452920Y-7500198D01*
X5452920Y-7500198D02*
X5462444Y-7509722D01*
X5462444Y-7509722D02*
X5471968Y-7528769D01*
X5471968Y-7528769D02*
X5471968Y-7576388D01*
X5471968Y-7576388D02*
X5462444Y-7595436D01*
X5462444Y-7595436D02*
X5452920Y-7604960D01*
X5452920Y-7604960D02*
X5433872Y-7614484D01*
X5433872Y-7614484D02*
X5376729Y-7614484D01*
X5376729Y-7614484D02*
X5357682Y-7604960D01*
X5357682Y-7604960D02*
X5348158Y-7595436D01*
X5662444Y-7614484D02*
X5548158Y-7614484D01*
X5605301Y-7614484D02*
X5605301Y-7414484D01*
X5605301Y-7414484D02*
X5586253Y-7443055D01*
X5586253Y-7443055D02*
X5567206Y-7462103D01*
X5567206Y-7462103D02*
X5548158Y-7471627D01*
X5738634Y-7414484D02*
X5738634Y-7452579D01*
X5814825Y-7414484D02*
X5814825Y-7452579D01*
X6110063Y-7690674D02*
X6100539Y-7681150D01*
X6100539Y-7681150D02*
X6081491Y-7652579D01*
X6081491Y-7652579D02*
X6071968Y-7633531D01*
X6071968Y-7633531D02*
X6062444Y-7604960D01*
X6062444Y-7604960D02*
X6052920Y-7557341D01*
X6052920Y-7557341D02*
X6052920Y-7519246D01*
X6052920Y-7519246D02*
X6062444Y-7471627D01*
X6062444Y-7471627D02*
X6071968Y-7443055D01*
X6071968Y-7443055D02*
X6081491Y-7424008D01*
X6081491Y-7424008D02*
X6100539Y-7395436D01*
X6100539Y-7395436D02*
X6110063Y-7385912D01*
X6281491Y-7414484D02*
X6186253Y-7414484D01*
X6186253Y-7414484D02*
X6176729Y-7509722D01*
X6176729Y-7509722D02*
X6186253Y-7500198D01*
X6186253Y-7500198D02*
X6205301Y-7490674D01*
X6205301Y-7490674D02*
X6252920Y-7490674D01*
X6252920Y-7490674D02*
X6271968Y-7500198D01*
X6271968Y-7500198D02*
X6281491Y-7509722D01*
X6281491Y-7509722D02*
X6291015Y-7528769D01*
X6291015Y-7528769D02*
X6291015Y-7576388D01*
X6291015Y-7576388D02*
X6281491Y-7595436D01*
X6281491Y-7595436D02*
X6271968Y-7604960D01*
X6271968Y-7604960D02*
X6252920Y-7614484D01*
X6252920Y-7614484D02*
X6205301Y-7614484D01*
X6205301Y-7614484D02*
X6186253Y-7604960D01*
X6186253Y-7604960D02*
X6176729Y-7595436D01*
X6414825Y-7414484D02*
X6433872Y-7414484D01*
X6433872Y-7414484D02*
X6452920Y-7424008D01*
X6452920Y-7424008D02*
X6462444Y-7433531D01*
X6462444Y-7433531D02*
X6471968Y-7452579D01*
X6471968Y-7452579D02*
X6481491Y-7490674D01*
X6481491Y-7490674D02*
X6481491Y-7538293D01*
X6481491Y-7538293D02*
X6471968Y-7576388D01*
X6471968Y-7576388D02*
X6462444Y-7595436D01*
X6462444Y-7595436D02*
X6452920Y-7604960D01*
X6452920Y-7604960D02*
X6433872Y-7614484D01*
X6433872Y-7614484D02*
X6414825Y-7614484D01*
X6414825Y-7614484D02*
X6395777Y-7604960D01*
X6395777Y-7604960D02*
X6386253Y-7595436D01*
X6386253Y-7595436D02*
X6376729Y-7576388D01*
X6376729Y-7576388D02*
X6367206Y-7538293D01*
X6367206Y-7538293D02*
X6367206Y-7490674D01*
X6367206Y-7490674D02*
X6376729Y-7452579D01*
X6376729Y-7452579D02*
X6386253Y-7433531D01*
X6386253Y-7433531D02*
X6395777Y-7424008D01*
X6395777Y-7424008D02*
X6414825Y-7414484D01*
X6719587Y-7614484D02*
X6719587Y-7414484D01*
X6805301Y-7614484D02*
X6805301Y-7509722D01*
X6805301Y-7509722D02*
X6795777Y-7490674D01*
X6795777Y-7490674D02*
X6776730Y-7481150D01*
X6776730Y-7481150D02*
X6748158Y-7481150D01*
X6748158Y-7481150D02*
X6729110Y-7490674D01*
X6729110Y-7490674D02*
X6719587Y-7500198D01*
X6929110Y-7614484D02*
X6910063Y-7604960D01*
X6910063Y-7604960D02*
X6900539Y-7595436D01*
X6900539Y-7595436D02*
X6891015Y-7576388D01*
X6891015Y-7576388D02*
X6891015Y-7519246D01*
X6891015Y-7519246D02*
X6900539Y-7500198D01*
X6900539Y-7500198D02*
X6910063Y-7490674D01*
X6910063Y-7490674D02*
X6929110Y-7481150D01*
X6929110Y-7481150D02*
X6957682Y-7481150D01*
X6957682Y-7481150D02*
X6976730Y-7490674D01*
X6976730Y-7490674D02*
X6986253Y-7500198D01*
X6986253Y-7500198D02*
X6995777Y-7519246D01*
X6995777Y-7519246D02*
X6995777Y-7576388D01*
X6995777Y-7576388D02*
X6986253Y-7595436D01*
X6986253Y-7595436D02*
X6976730Y-7604960D01*
X6976730Y-7604960D02*
X6957682Y-7614484D01*
X6957682Y-7614484D02*
X6929110Y-7614484D01*
X7110063Y-7614484D02*
X7091015Y-7604960D01*
X7091015Y-7604960D02*
X7081491Y-7585912D01*
X7081491Y-7585912D02*
X7081491Y-7414484D01*
X7262444Y-7604960D02*
X7243396Y-7614484D01*
X7243396Y-7614484D02*
X7205301Y-7614484D01*
X7205301Y-7614484D02*
X7186253Y-7604960D01*
X7186253Y-7604960D02*
X7176730Y-7585912D01*
X7176730Y-7585912D02*
X7176730Y-7509722D01*
X7176730Y-7509722D02*
X7186253Y-7490674D01*
X7186253Y-7490674D02*
X7205301Y-7481150D01*
X7205301Y-7481150D02*
X7243396Y-7481150D01*
X7243396Y-7481150D02*
X7262444Y-7490674D01*
X7262444Y-7490674D02*
X7271968Y-7509722D01*
X7271968Y-7509722D02*
X7271968Y-7528769D01*
X7271968Y-7528769D02*
X7176730Y-7547817D01*
X7348158Y-7604960D02*
X7367206Y-7614484D01*
X7367206Y-7614484D02*
X7405301Y-7614484D01*
X7405301Y-7614484D02*
X7424349Y-7604960D01*
X7424349Y-7604960D02*
X7433872Y-7585912D01*
X7433872Y-7585912D02*
X7433872Y-7576388D01*
X7433872Y-7576388D02*
X7424349Y-7557341D01*
X7424349Y-7557341D02*
X7405301Y-7547817D01*
X7405301Y-7547817D02*
X7376730Y-7547817D01*
X7376730Y-7547817D02*
X7357682Y-7538293D01*
X7357682Y-7538293D02*
X7348158Y-7519246D01*
X7348158Y-7519246D02*
X7348158Y-7509722D01*
X7348158Y-7509722D02*
X7357682Y-7490674D01*
X7357682Y-7490674D02*
X7376730Y-7481150D01*
X7376730Y-7481150D02*
X7405301Y-7481150D01*
X7405301Y-7481150D02*
X7424349Y-7490674D01*
X7500539Y-7690674D02*
X7510063Y-7681150D01*
X7510063Y-7681150D02*
X7529111Y-7652579D01*
X7529111Y-7652579D02*
X7538634Y-7633531D01*
X7538634Y-7633531D02*
X7548158Y-7604960D01*
X7548158Y-7604960D02*
X7557682Y-7557341D01*
X7557682Y-7557341D02*
X7557682Y-7519246D01*
X7557682Y-7519246D02*
X7548158Y-7471627D01*
X7548158Y-7471627D02*
X7538634Y-7443055D01*
X7538634Y-7443055D02*
X7529111Y-7424008D01*
X7529111Y-7424008D02*
X7510063Y-7395436D01*
X7510063Y-7395436D02*
X7500539Y-7385912D01*
X2505711Y-7857711D02*
X2505711Y-7716289D01*
X2364289Y-7716289D01*
X2364289Y-7857711D01*
X2505711Y-7857711D01*
X2776729Y-7678484D02*
X2900539Y-7678484D01*
X2900539Y-7678484D02*
X2833872Y-7754674D01*
X2833872Y-7754674D02*
X2862443Y-7754674D01*
X2862443Y-7754674D02*
X2881491Y-7764198D01*
X2881491Y-7764198D02*
X2891015Y-7773722D01*
X2891015Y-7773722D02*
X2900539Y-7792769D01*
X2900539Y-7792769D02*
X2900539Y-7840388D01*
X2900539Y-7840388D02*
X2891015Y-7859436D01*
X2891015Y-7859436D02*
X2881491Y-7868960D01*
X2881491Y-7868960D02*
X2862443Y-7878484D01*
X2862443Y-7878484D02*
X2805301Y-7878484D01*
X2805301Y-7878484D02*
X2786253Y-7868960D01*
X2786253Y-7868960D02*
X2776729Y-7859436D01*
X2986253Y-7859436D02*
X2995777Y-7868960D01*
X2995777Y-7868960D02*
X2986253Y-7878484D01*
X2986253Y-7878484D02*
X2976729Y-7868960D01*
X2976729Y-7868960D02*
X2986253Y-7859436D01*
X2986253Y-7859436D02*
X2986253Y-7878484D01*
X3071967Y-7697531D02*
X3081491Y-7688008D01*
X3081491Y-7688008D02*
X3100539Y-7678484D01*
X3100539Y-7678484D02*
X3148158Y-7678484D01*
X3148158Y-7678484D02*
X3167205Y-7688008D01*
X3167205Y-7688008D02*
X3176729Y-7697531D01*
X3176729Y-7697531D02*
X3186253Y-7716579D01*
X3186253Y-7716579D02*
X3186253Y-7735627D01*
X3186253Y-7735627D02*
X3176729Y-7764198D01*
X3176729Y-7764198D02*
X3062443Y-7878484D01*
X3062443Y-7878484D02*
X3186253Y-7878484D01*
X3310062Y-7678484D02*
X3329110Y-7678484D01*
X3329110Y-7678484D02*
X3348158Y-7688008D01*
X3348158Y-7688008D02*
X3357682Y-7697531D01*
X3357682Y-7697531D02*
X3367205Y-7716579D01*
X3367205Y-7716579D02*
X3376729Y-7754674D01*
X3376729Y-7754674D02*
X3376729Y-7802293D01*
X3376729Y-7802293D02*
X3367205Y-7840388D01*
X3367205Y-7840388D02*
X3357682Y-7859436D01*
X3357682Y-7859436D02*
X3348158Y-7868960D01*
X3348158Y-7868960D02*
X3329110Y-7878484D01*
X3329110Y-7878484D02*
X3310062Y-7878484D01*
X3310062Y-7878484D02*
X3291015Y-7868960D01*
X3291015Y-7868960D02*
X3281491Y-7859436D01*
X3281491Y-7859436D02*
X3271967Y-7840388D01*
X3271967Y-7840388D02*
X3262443Y-7802293D01*
X3262443Y-7802293D02*
X3262443Y-7754674D01*
X3262443Y-7754674D02*
X3271967Y-7716579D01*
X3271967Y-7716579D02*
X3281491Y-7697531D01*
X3281491Y-7697531D02*
X3291015Y-7688008D01*
X3291015Y-7688008D02*
X3310062Y-7678484D01*
X3500539Y-7678484D02*
X3519586Y-7678484D01*
X3519586Y-7678484D02*
X3538634Y-7688008D01*
X3538634Y-7688008D02*
X3548158Y-7697531D01*
X3548158Y-7697531D02*
X3557682Y-7716579D01*
X3557682Y-7716579D02*
X3567205Y-7754674D01*
X3567205Y-7754674D02*
X3567205Y-7802293D01*
X3567205Y-7802293D02*
X3557682Y-7840388D01*
X3557682Y-7840388D02*
X3548158Y-7859436D01*
X3548158Y-7859436D02*
X3538634Y-7868960D01*
X3538634Y-7868960D02*
X3519586Y-7878484D01*
X3519586Y-7878484D02*
X3500539Y-7878484D01*
X3500539Y-7878484D02*
X3481491Y-7868960D01*
X3481491Y-7868960D02*
X3471967Y-7859436D01*
X3471967Y-7859436D02*
X3462443Y-7840388D01*
X3462443Y-7840388D02*
X3452920Y-7802293D01*
X3452920Y-7802293D02*
X3452920Y-7754674D01*
X3452920Y-7754674D02*
X3462443Y-7716579D01*
X3462443Y-7716579D02*
X3471967Y-7697531D01*
X3471967Y-7697531D02*
X3481491Y-7688008D01*
X3481491Y-7688008D02*
X3500539Y-7678484D01*
X3652920Y-7878484D02*
X3652920Y-7745150D01*
X3652920Y-7764198D02*
X3662443Y-7754674D01*
X3662443Y-7754674D02*
X3681491Y-7745150D01*
X3681491Y-7745150D02*
X3710063Y-7745150D01*
X3710063Y-7745150D02*
X3729110Y-7754674D01*
X3729110Y-7754674D02*
X3738634Y-7773722D01*
X3738634Y-7773722D02*
X3738634Y-7878484D01*
X3738634Y-7773722D02*
X3748158Y-7754674D01*
X3748158Y-7754674D02*
X3767205Y-7745150D01*
X3767205Y-7745150D02*
X3795777Y-7745150D01*
X3795777Y-7745150D02*
X3814824Y-7754674D01*
X3814824Y-7754674D02*
X3824348Y-7773722D01*
X3824348Y-7773722D02*
X3824348Y-7878484D01*
X3919586Y-7878484D02*
X3919586Y-7745150D01*
X3919586Y-7764198D02*
X3929110Y-7754674D01*
X3929110Y-7754674D02*
X3948158Y-7745150D01*
X3948158Y-7745150D02*
X3976729Y-7745150D01*
X3976729Y-7745150D02*
X3995777Y-7754674D01*
X3995777Y-7754674D02*
X4005301Y-7773722D01*
X4005301Y-7773722D02*
X4005301Y-7878484D01*
X4005301Y-7773722D02*
X4014824Y-7754674D01*
X4014824Y-7754674D02*
X4033872Y-7745150D01*
X4033872Y-7745150D02*
X4062443Y-7745150D01*
X4062443Y-7745150D02*
X4081491Y-7754674D01*
X4081491Y-7754674D02*
X4091015Y-7773722D01*
X4091015Y-7773722D02*
X4091015Y-7878484D01*
X4481491Y-7668960D02*
X4310063Y-7926103D01*
X4738634Y-7678484D02*
X4757682Y-7678484D01*
X4757682Y-7678484D02*
X4776729Y-7688008D01*
X4776729Y-7688008D02*
X4786253Y-7697531D01*
X4786253Y-7697531D02*
X4795777Y-7716579D01*
X4795777Y-7716579D02*
X4805301Y-7754674D01*
X4805301Y-7754674D02*
X4805301Y-7802293D01*
X4805301Y-7802293D02*
X4795777Y-7840388D01*
X4795777Y-7840388D02*
X4786253Y-7859436D01*
X4786253Y-7859436D02*
X4776729Y-7868960D01*
X4776729Y-7868960D02*
X4757682Y-7878484D01*
X4757682Y-7878484D02*
X4738634Y-7878484D01*
X4738634Y-7878484D02*
X4719587Y-7868960D01*
X4719587Y-7868960D02*
X4710063Y-7859436D01*
X4710063Y-7859436D02*
X4700539Y-7840388D01*
X4700539Y-7840388D02*
X4691015Y-7802293D01*
X4691015Y-7802293D02*
X4691015Y-7754674D01*
X4691015Y-7754674D02*
X4700539Y-7716579D01*
X4700539Y-7716579D02*
X4710063Y-7697531D01*
X4710063Y-7697531D02*
X4719587Y-7688008D01*
X4719587Y-7688008D02*
X4738634Y-7678484D01*
X4891015Y-7859436D02*
X4900539Y-7868960D01*
X4900539Y-7868960D02*
X4891015Y-7878484D01*
X4891015Y-7878484D02*
X4881491Y-7868960D01*
X4881491Y-7868960D02*
X4891015Y-7859436D01*
X4891015Y-7859436D02*
X4891015Y-7878484D01*
X5091015Y-7878484D02*
X4976729Y-7878484D01*
X5033872Y-7878484D02*
X5033872Y-7678484D01*
X5033872Y-7678484D02*
X5014825Y-7707055D01*
X5014825Y-7707055D02*
X4995777Y-7726103D01*
X4995777Y-7726103D02*
X4976729Y-7735627D01*
X5167206Y-7697531D02*
X5176729Y-7688008D01*
X5176729Y-7688008D02*
X5195777Y-7678484D01*
X5195777Y-7678484D02*
X5243396Y-7678484D01*
X5243396Y-7678484D02*
X5262444Y-7688008D01*
X5262444Y-7688008D02*
X5271968Y-7697531D01*
X5271968Y-7697531D02*
X5281491Y-7716579D01*
X5281491Y-7716579D02*
X5281491Y-7735627D01*
X5281491Y-7735627D02*
X5271968Y-7764198D01*
X5271968Y-7764198D02*
X5157682Y-7878484D01*
X5157682Y-7878484D02*
X5281491Y-7878484D01*
X5452920Y-7678484D02*
X5414825Y-7678484D01*
X5414825Y-7678484D02*
X5395777Y-7688008D01*
X5395777Y-7688008D02*
X5386253Y-7697531D01*
X5386253Y-7697531D02*
X5367206Y-7726103D01*
X5367206Y-7726103D02*
X5357682Y-7764198D01*
X5357682Y-7764198D02*
X5357682Y-7840388D01*
X5357682Y-7840388D02*
X5367206Y-7859436D01*
X5367206Y-7859436D02*
X5376729Y-7868960D01*
X5376729Y-7868960D02*
X5395777Y-7878484D01*
X5395777Y-7878484D02*
X5433872Y-7878484D01*
X5433872Y-7878484D02*
X5452920Y-7868960D01*
X5452920Y-7868960D02*
X5462444Y-7859436D01*
X5462444Y-7859436D02*
X5471968Y-7840388D01*
X5471968Y-7840388D02*
X5471968Y-7792769D01*
X5471968Y-7792769D02*
X5462444Y-7773722D01*
X5462444Y-7773722D02*
X5452920Y-7764198D01*
X5452920Y-7764198D02*
X5433872Y-7754674D01*
X5433872Y-7754674D02*
X5395777Y-7754674D01*
X5395777Y-7754674D02*
X5376729Y-7764198D01*
X5376729Y-7764198D02*
X5367206Y-7773722D01*
X5367206Y-7773722D02*
X5357682Y-7792769D01*
X5595777Y-7678484D02*
X5614825Y-7678484D01*
X5614825Y-7678484D02*
X5633872Y-7688008D01*
X5633872Y-7688008D02*
X5643396Y-7697531D01*
X5643396Y-7697531D02*
X5652920Y-7716579D01*
X5652920Y-7716579D02*
X5662444Y-7754674D01*
X5662444Y-7754674D02*
X5662444Y-7802293D01*
X5662444Y-7802293D02*
X5652920Y-7840388D01*
X5652920Y-7840388D02*
X5643396Y-7859436D01*
X5643396Y-7859436D02*
X5633872Y-7868960D01*
X5633872Y-7868960D02*
X5614825Y-7878484D01*
X5614825Y-7878484D02*
X5595777Y-7878484D01*
X5595777Y-7878484D02*
X5576729Y-7868960D01*
X5576729Y-7868960D02*
X5567206Y-7859436D01*
X5567206Y-7859436D02*
X5557682Y-7840388D01*
X5557682Y-7840388D02*
X5548158Y-7802293D01*
X5548158Y-7802293D02*
X5548158Y-7754674D01*
X5548158Y-7754674D02*
X5557682Y-7716579D01*
X5557682Y-7716579D02*
X5567206Y-7697531D01*
X5567206Y-7697531D02*
X5576729Y-7688008D01*
X5576729Y-7688008D02*
X5595777Y-7678484D01*
X5738634Y-7678484D02*
X5738634Y-7716579D01*
X5814825Y-7678484D02*
X5814825Y-7716579D01*
X6110063Y-7954674D02*
X6100539Y-7945150D01*
X6100539Y-7945150D02*
X6081491Y-7916579D01*
X6081491Y-7916579D02*
X6071968Y-7897531D01*
X6071968Y-7897531D02*
X6062444Y-7868960D01*
X6062444Y-7868960D02*
X6052920Y-7821341D01*
X6052920Y-7821341D02*
X6052920Y-7783246D01*
X6052920Y-7783246D02*
X6062444Y-7735627D01*
X6062444Y-7735627D02*
X6071968Y-7707055D01*
X6071968Y-7707055D02*
X6081491Y-7688008D01*
X6081491Y-7688008D02*
X6100539Y-7659436D01*
X6100539Y-7659436D02*
X6110063Y-7649912D01*
X6271968Y-7745150D02*
X6271968Y-7878484D01*
X6224348Y-7668960D02*
X6176729Y-7811817D01*
X6176729Y-7811817D02*
X6300539Y-7811817D01*
X6529110Y-7878484D02*
X6529110Y-7678484D01*
X6614825Y-7878484D02*
X6614825Y-7773722D01*
X6614825Y-7773722D02*
X6605301Y-7754674D01*
X6605301Y-7754674D02*
X6586253Y-7745150D01*
X6586253Y-7745150D02*
X6557682Y-7745150D01*
X6557682Y-7745150D02*
X6538634Y-7754674D01*
X6538634Y-7754674D02*
X6529110Y-7764198D01*
X6738634Y-7878484D02*
X6719587Y-7868960D01*
X6719587Y-7868960D02*
X6710063Y-7859436D01*
X6710063Y-7859436D02*
X6700539Y-7840388D01*
X6700539Y-7840388D02*
X6700539Y-7783246D01*
X6700539Y-7783246D02*
X6710063Y-7764198D01*
X6710063Y-7764198D02*
X6719587Y-7754674D01*
X6719587Y-7754674D02*
X6738634Y-7745150D01*
X6738634Y-7745150D02*
X6767206Y-7745150D01*
X6767206Y-7745150D02*
X6786253Y-7754674D01*
X6786253Y-7754674D02*
X6795777Y-7764198D01*
X6795777Y-7764198D02*
X6805301Y-7783246D01*
X6805301Y-7783246D02*
X6805301Y-7840388D01*
X6805301Y-7840388D02*
X6795777Y-7859436D01*
X6795777Y-7859436D02*
X6786253Y-7868960D01*
X6786253Y-7868960D02*
X6767206Y-7878484D01*
X6767206Y-7878484D02*
X6738634Y-7878484D01*
X6919587Y-7878484D02*
X6900539Y-7868960D01*
X6900539Y-7868960D02*
X6891015Y-7849912D01*
X6891015Y-7849912D02*
X6891015Y-7678484D01*
X7071968Y-7868960D02*
X7052920Y-7878484D01*
X7052920Y-7878484D02*
X7014825Y-7878484D01*
X7014825Y-7878484D02*
X6995777Y-7868960D01*
X6995777Y-7868960D02*
X6986253Y-7849912D01*
X6986253Y-7849912D02*
X6986253Y-7773722D01*
X6986253Y-7773722D02*
X6995777Y-7754674D01*
X6995777Y-7754674D02*
X7014825Y-7745150D01*
X7014825Y-7745150D02*
X7052920Y-7745150D01*
X7052920Y-7745150D02*
X7071968Y-7754674D01*
X7071968Y-7754674D02*
X7081491Y-7773722D01*
X7081491Y-7773722D02*
X7081491Y-7792769D01*
X7081491Y-7792769D02*
X6986253Y-7811817D01*
X7157682Y-7868960D02*
X7176730Y-7878484D01*
X7176730Y-7878484D02*
X7214825Y-7878484D01*
X7214825Y-7878484D02*
X7233872Y-7868960D01*
X7233872Y-7868960D02*
X7243396Y-7849912D01*
X7243396Y-7849912D02*
X7243396Y-7840388D01*
X7243396Y-7840388D02*
X7233872Y-7821341D01*
X7233872Y-7821341D02*
X7214825Y-7811817D01*
X7214825Y-7811817D02*
X7186253Y-7811817D01*
X7186253Y-7811817D02*
X7167206Y-7802293D01*
X7167206Y-7802293D02*
X7157682Y-7783246D01*
X7157682Y-7783246D02*
X7157682Y-7773722D01*
X7157682Y-7773722D02*
X7167206Y-7754674D01*
X7167206Y-7754674D02*
X7186253Y-7745150D01*
X7186253Y-7745150D02*
X7214825Y-7745150D01*
X7214825Y-7745150D02*
X7233872Y-7754674D01*
X7310063Y-7954674D02*
X7319587Y-7945150D01*
X7319587Y-7945150D02*
X7338634Y-7916579D01*
X7338634Y-7916579D02*
X7348158Y-7897531D01*
X7348158Y-7897531D02*
X7357682Y-7868960D01*
X7357682Y-7868960D02*
X7367206Y-7821341D01*
X7367206Y-7821341D02*
X7367206Y-7783246D01*
X7367206Y-7783246D02*
X7357682Y-7735627D01*
X7357682Y-7735627D02*
X7348158Y-7707055D01*
X7348158Y-7707055D02*
X7338634Y-7688008D01*
X7338634Y-7688008D02*
X7319587Y-7659436D01*
X7319587Y-7659436D02*
X7310063Y-7649912D01*
M02*
