G04 #@! TF.GenerationSoftware,KiCad,Pcbnew,7.0.7*
G04 #@! TF.CreationDate,2024-02-07T12:10:54-08:00*
G04 #@! TF.ProjectId,Raven Expansion,52617665-6e20-4457-9870-616e73696f6e,rev?*
G04 #@! TF.SameCoordinates,Original*
G04 #@! TF.FileFunction,Copper,L1,Top*
G04 #@! TF.FilePolarity,Positive*
%FSLAX46Y46*%
G04 Gerber Fmt 4.6, Leading zero omitted, Abs format (unit mm)*
G04 Created by KiCad (PCBNEW 7.0.7) date 2024-02-07 12:10:54*
%MOMM*%
%LPD*%
G01*
G04 APERTURE LIST*
G04 #@! TA.AperFunction,ComponentPad*
%ADD10R,2.400000X2.400000*%
G04 #@! TD*
G04 #@! TA.AperFunction,ComponentPad*
%ADD11C,2.400000*%
G04 #@! TD*
G04 #@! TA.AperFunction,ComponentPad*
%ADD12R,1.700000X1.700000*%
G04 #@! TD*
G04 #@! TA.AperFunction,ComponentPad*
%ADD13O,1.700000X1.700000*%
G04 #@! TD*
G04 #@! TA.AperFunction,Conductor*
%ADD14C,0.300000*%
G04 #@! TD*
G04 #@! TA.AperFunction,Conductor*
%ADD15C,0.700000*%
G04 #@! TD*
G04 #@! TA.AperFunction,Conductor*
%ADD16C,2.000000*%
G04 #@! TD*
G04 #@! TA.AperFunction,Conductor*
%ADD17C,1.000000*%
G04 #@! TD*
G04 APERTURE END LIST*
D10*
X31810000Y-35130000D03*
D11*
X31810000Y-38630000D03*
X31810000Y-42130000D03*
X31810000Y-45630000D03*
X31810000Y-49130000D03*
X31810000Y-52630000D03*
D10*
X39430000Y-52630000D03*
D11*
X39430000Y-49130000D03*
X39430000Y-45630000D03*
X39430000Y-42130000D03*
X39430000Y-38630000D03*
X39430000Y-35130000D03*
D12*
X41985000Y-56395000D03*
D13*
X39445000Y-56395000D03*
X36905000Y-56395000D03*
X34365000Y-56395000D03*
X31825000Y-56395000D03*
X29285000Y-56395000D03*
D14*
X29285000Y-57095000D02*
X29285000Y-56395000D01*
X29940000Y-57750000D02*
X29285000Y-57095000D01*
X37600000Y-57750000D02*
X29940000Y-57750000D01*
X38200000Y-57150000D02*
X37600000Y-57750000D01*
X38200000Y-53860000D02*
X38200000Y-57150000D01*
X39430000Y-52630000D02*
X38200000Y-53860000D01*
D15*
X39430000Y-52630000D02*
X41190000Y-52630000D01*
X31810000Y-35130000D02*
X35930000Y-35130000D01*
X29050000Y-40790000D02*
X30390000Y-42130000D01*
X29285000Y-44655000D02*
X29285000Y-56395000D01*
X41600000Y-38630000D02*
X41970000Y-39000000D01*
X41970000Y-39000000D02*
X41970000Y-44680000D01*
X41020000Y-45630000D02*
X39430000Y-45630000D01*
X41190000Y-52630000D02*
X41970000Y-51850000D01*
X31810000Y-35130000D02*
X29950000Y-35130000D01*
X41970000Y-46180000D02*
X41420000Y-45630000D01*
X29950000Y-35130000D02*
X29050000Y-36030000D01*
X29050000Y-36030000D02*
X29050000Y-40790000D01*
X31810000Y-42130000D02*
X29285000Y-44655000D01*
X35930000Y-35130000D02*
X39430000Y-38630000D01*
X39430000Y-38630000D02*
X41600000Y-38630000D01*
X30390000Y-42130000D02*
X31810000Y-42130000D01*
X41970000Y-44680000D02*
X41020000Y-45630000D01*
X41420000Y-45630000D02*
X39430000Y-45630000D01*
X41970000Y-51850000D02*
X41970000Y-46180000D01*
X29285000Y-56865000D02*
X29325000Y-56905000D01*
D16*
X31810000Y-52630000D02*
X31810000Y-56380000D01*
D17*
X31810000Y-56380000D02*
X31825000Y-56395000D01*
D15*
X34405000Y-56355000D02*
X34365000Y-56395000D01*
X34405000Y-47155000D02*
X34405000Y-56355000D01*
X39430000Y-42130000D02*
X34405000Y-47155000D01*
X43310000Y-35130000D02*
X44660000Y-36480000D01*
X44660000Y-36480000D02*
X44660000Y-58070000D01*
X43740000Y-58990000D02*
X40300000Y-58990000D01*
X40300000Y-58990000D02*
X39445000Y-58135000D01*
X39430000Y-35130000D02*
X43310000Y-35130000D01*
X44660000Y-58070000D02*
X43740000Y-58990000D01*
X39445000Y-58135000D02*
X39445000Y-56395000D01*
M02*
