%TF.GenerationSoftware,KiCad,Pcbnew,7.0.7*%
%TF.CreationDate,2024-02-07T12:10:56-08:00*%
%TF.ProjectId,Raven Expansion,52617665-6e20-4457-9870-616e73696f6e,rev?*%
%TF.SameCoordinates,Original*%
%TF.FileFunction,Drillmap*%
%TF.FilePolarity,Positive*%
%FSLAX45Y45*%
G04 Gerber Fmt 4.5, Leading zero omitted, Abs format (unit mm)*
G04 Created by KiCad (PCBNEW 7.0.7) date 2024-02-07 12:10:56*
%MOMM*%
%LPD*%
G01*
G04 APERTURE LIST*
%ADD10C,0.100000*%
%ADD11C,0.200000*%
%ADD12C,0.120000*%
G04 APERTURE END LIST*
D10*
X2540000Y-2540000D02*
X4572000Y-2540000D01*
X4572000Y-5969000D01*
X2540000Y-5969000D01*
X2540000Y-2540000D01*
D11*
D10*
X2878500Y-5589500D02*
X2978500Y-5689500D01*
X2978500Y-5589500D02*
X2878500Y-5689500D01*
X3132500Y-5589500D02*
X3232500Y-5689500D01*
X3232500Y-5589500D02*
X3132500Y-5689500D01*
X3386500Y-5589500D02*
X3486500Y-5689500D01*
X3486500Y-5589500D02*
X3386500Y-5689500D01*
X3640500Y-5589500D02*
X3740500Y-5689500D01*
X3740500Y-5589500D02*
X3640500Y-5689500D01*
X3894500Y-5589500D02*
X3994500Y-5689500D01*
X3994500Y-5589500D02*
X3894500Y-5689500D01*
X4148500Y-5589500D02*
X4248500Y-5689500D01*
X4248500Y-5589500D02*
X4148500Y-5689500D01*
D12*
X3241000Y-3513000D02*
G75*
G03*
X3241000Y-3513000I-60000J0D01*
G01*
X3241000Y-3863000D02*
G75*
G03*
X3241000Y-3863000I-60000J0D01*
G01*
X3241000Y-4213000D02*
G75*
G03*
X3241000Y-4213000I-60000J0D01*
G01*
X3241000Y-4563000D02*
G75*
G03*
X3241000Y-4563000I-60000J0D01*
G01*
X3241000Y-4913000D02*
G75*
G03*
X3241000Y-4913000I-60000J0D01*
G01*
X3241000Y-5263000D02*
G75*
G03*
X3241000Y-5263000I-60000J0D01*
G01*
X4003000Y-3513000D02*
G75*
G03*
X4003000Y-3513000I-60000J0D01*
G01*
X4003000Y-3863000D02*
G75*
G03*
X4003000Y-3863000I-60000J0D01*
G01*
X4003000Y-4213000D02*
G75*
G03*
X4003000Y-4213000I-60000J0D01*
G01*
X4003000Y-4563000D02*
G75*
G03*
X4003000Y-4563000I-60000J0D01*
G01*
X4003000Y-4913000D02*
G75*
G03*
X4003000Y-4913000I-60000J0D01*
G01*
X4003000Y-5263000D02*
G75*
G03*
X4003000Y-5263000I-60000J0D01*
G01*
D11*
X2795777Y-6285484D02*
X2795777Y-6085484D01*
X2795777Y-6085484D02*
X2843396Y-6085484D01*
X2843396Y-6085484D02*
X2871967Y-6095008D01*
X2871967Y-6095008D02*
X2891015Y-6114055D01*
X2891015Y-6114055D02*
X2900539Y-6133103D01*
X2900539Y-6133103D02*
X2910062Y-6171198D01*
X2910062Y-6171198D02*
X2910062Y-6199769D01*
X2910062Y-6199769D02*
X2900539Y-6237865D01*
X2900539Y-6237865D02*
X2891015Y-6256912D01*
X2891015Y-6256912D02*
X2871967Y-6275960D01*
X2871967Y-6275960D02*
X2843396Y-6285484D01*
X2843396Y-6285484D02*
X2795777Y-6285484D01*
X2995777Y-6285484D02*
X2995777Y-6152150D01*
X2995777Y-6190246D02*
X3005301Y-6171198D01*
X3005301Y-6171198D02*
X3014824Y-6161674D01*
X3014824Y-6161674D02*
X3033872Y-6152150D01*
X3033872Y-6152150D02*
X3052920Y-6152150D01*
X3119586Y-6285484D02*
X3119586Y-6152150D01*
X3119586Y-6085484D02*
X3110062Y-6095008D01*
X3110062Y-6095008D02*
X3119586Y-6104531D01*
X3119586Y-6104531D02*
X3129110Y-6095008D01*
X3129110Y-6095008D02*
X3119586Y-6085484D01*
X3119586Y-6085484D02*
X3119586Y-6104531D01*
X3243396Y-6285484D02*
X3224348Y-6275960D01*
X3224348Y-6275960D02*
X3214824Y-6256912D01*
X3214824Y-6256912D02*
X3214824Y-6085484D01*
X3348158Y-6285484D02*
X3329110Y-6275960D01*
X3329110Y-6275960D02*
X3319586Y-6256912D01*
X3319586Y-6256912D02*
X3319586Y-6085484D01*
X3576729Y-6285484D02*
X3576729Y-6085484D01*
X3576729Y-6085484D02*
X3643396Y-6228341D01*
X3643396Y-6228341D02*
X3710062Y-6085484D01*
X3710062Y-6085484D02*
X3710062Y-6285484D01*
X3891015Y-6285484D02*
X3891015Y-6180722D01*
X3891015Y-6180722D02*
X3881491Y-6161674D01*
X3881491Y-6161674D02*
X3862443Y-6152150D01*
X3862443Y-6152150D02*
X3824348Y-6152150D01*
X3824348Y-6152150D02*
X3805301Y-6161674D01*
X3891015Y-6275960D02*
X3871967Y-6285484D01*
X3871967Y-6285484D02*
X3824348Y-6285484D01*
X3824348Y-6285484D02*
X3805301Y-6275960D01*
X3805301Y-6275960D02*
X3795777Y-6256912D01*
X3795777Y-6256912D02*
X3795777Y-6237865D01*
X3795777Y-6237865D02*
X3805301Y-6218817D01*
X3805301Y-6218817D02*
X3824348Y-6209293D01*
X3824348Y-6209293D02*
X3871967Y-6209293D01*
X3871967Y-6209293D02*
X3891015Y-6199769D01*
X3986253Y-6152150D02*
X3986253Y-6352150D01*
X3986253Y-6161674D02*
X4005301Y-6152150D01*
X4005301Y-6152150D02*
X4043396Y-6152150D01*
X4043396Y-6152150D02*
X4062443Y-6161674D01*
X4062443Y-6161674D02*
X4071967Y-6171198D01*
X4071967Y-6171198D02*
X4081491Y-6190246D01*
X4081491Y-6190246D02*
X4081491Y-6247388D01*
X4081491Y-6247388D02*
X4071967Y-6266436D01*
X4071967Y-6266436D02*
X4062443Y-6275960D01*
X4062443Y-6275960D02*
X4043396Y-6285484D01*
X4043396Y-6285484D02*
X4005301Y-6285484D01*
X4005301Y-6285484D02*
X3986253Y-6275960D01*
X4167205Y-6266436D02*
X4176729Y-6275960D01*
X4176729Y-6275960D02*
X4167205Y-6285484D01*
X4167205Y-6285484D02*
X4157682Y-6275960D01*
X4157682Y-6275960D02*
X4167205Y-6266436D01*
X4167205Y-6266436D02*
X4167205Y-6285484D01*
X4167205Y-6161674D02*
X4176729Y-6171198D01*
X4176729Y-6171198D02*
X4167205Y-6180722D01*
X4167205Y-6180722D02*
X4157682Y-6171198D01*
X4157682Y-6171198D02*
X4167205Y-6161674D01*
X4167205Y-6161674D02*
X4167205Y-6180722D01*
D10*
X2435000Y-6564000D02*
X2535000Y-6664000D01*
X2535000Y-6564000D02*
X2435000Y-6664000D01*
D11*
X2900539Y-6705484D02*
X2786253Y-6705484D01*
X2843396Y-6705484D02*
X2843396Y-6505484D01*
X2843396Y-6505484D02*
X2824348Y-6534055D01*
X2824348Y-6534055D02*
X2805301Y-6553103D01*
X2805301Y-6553103D02*
X2786253Y-6562627D01*
X2986253Y-6686436D02*
X2995777Y-6695960D01*
X2995777Y-6695960D02*
X2986253Y-6705484D01*
X2986253Y-6705484D02*
X2976729Y-6695960D01*
X2976729Y-6695960D02*
X2986253Y-6686436D01*
X2986253Y-6686436D02*
X2986253Y-6705484D01*
X3119586Y-6505484D02*
X3138634Y-6505484D01*
X3138634Y-6505484D02*
X3157682Y-6515008D01*
X3157682Y-6515008D02*
X3167205Y-6524531D01*
X3167205Y-6524531D02*
X3176729Y-6543579D01*
X3176729Y-6543579D02*
X3186253Y-6581674D01*
X3186253Y-6581674D02*
X3186253Y-6629293D01*
X3186253Y-6629293D02*
X3176729Y-6667388D01*
X3176729Y-6667388D02*
X3167205Y-6686436D01*
X3167205Y-6686436D02*
X3157682Y-6695960D01*
X3157682Y-6695960D02*
X3138634Y-6705484D01*
X3138634Y-6705484D02*
X3119586Y-6705484D01*
X3119586Y-6705484D02*
X3100539Y-6695960D01*
X3100539Y-6695960D02*
X3091015Y-6686436D01*
X3091015Y-6686436D02*
X3081491Y-6667388D01*
X3081491Y-6667388D02*
X3071967Y-6629293D01*
X3071967Y-6629293D02*
X3071967Y-6581674D01*
X3071967Y-6581674D02*
X3081491Y-6543579D01*
X3081491Y-6543579D02*
X3091015Y-6524531D01*
X3091015Y-6524531D02*
X3100539Y-6515008D01*
X3100539Y-6515008D02*
X3119586Y-6505484D01*
X3310062Y-6505484D02*
X3329110Y-6505484D01*
X3329110Y-6505484D02*
X3348158Y-6515008D01*
X3348158Y-6515008D02*
X3357682Y-6524531D01*
X3357682Y-6524531D02*
X3367205Y-6543579D01*
X3367205Y-6543579D02*
X3376729Y-6581674D01*
X3376729Y-6581674D02*
X3376729Y-6629293D01*
X3376729Y-6629293D02*
X3367205Y-6667388D01*
X3367205Y-6667388D02*
X3357682Y-6686436D01*
X3357682Y-6686436D02*
X3348158Y-6695960D01*
X3348158Y-6695960D02*
X3329110Y-6705484D01*
X3329110Y-6705484D02*
X3310062Y-6705484D01*
X3310062Y-6705484D02*
X3291015Y-6695960D01*
X3291015Y-6695960D02*
X3281491Y-6686436D01*
X3281491Y-6686436D02*
X3271967Y-6667388D01*
X3271967Y-6667388D02*
X3262443Y-6629293D01*
X3262443Y-6629293D02*
X3262443Y-6581674D01*
X3262443Y-6581674D02*
X3271967Y-6543579D01*
X3271967Y-6543579D02*
X3281491Y-6524531D01*
X3281491Y-6524531D02*
X3291015Y-6515008D01*
X3291015Y-6515008D02*
X3310062Y-6505484D01*
X3500539Y-6505484D02*
X3519586Y-6505484D01*
X3519586Y-6505484D02*
X3538634Y-6515008D01*
X3538634Y-6515008D02*
X3548158Y-6524531D01*
X3548158Y-6524531D02*
X3557682Y-6543579D01*
X3557682Y-6543579D02*
X3567205Y-6581674D01*
X3567205Y-6581674D02*
X3567205Y-6629293D01*
X3567205Y-6629293D02*
X3557682Y-6667388D01*
X3557682Y-6667388D02*
X3548158Y-6686436D01*
X3548158Y-6686436D02*
X3538634Y-6695960D01*
X3538634Y-6695960D02*
X3519586Y-6705484D01*
X3519586Y-6705484D02*
X3500539Y-6705484D01*
X3500539Y-6705484D02*
X3481491Y-6695960D01*
X3481491Y-6695960D02*
X3471967Y-6686436D01*
X3471967Y-6686436D02*
X3462443Y-6667388D01*
X3462443Y-6667388D02*
X3452920Y-6629293D01*
X3452920Y-6629293D02*
X3452920Y-6581674D01*
X3452920Y-6581674D02*
X3462443Y-6543579D01*
X3462443Y-6543579D02*
X3471967Y-6524531D01*
X3471967Y-6524531D02*
X3481491Y-6515008D01*
X3481491Y-6515008D02*
X3500539Y-6505484D01*
X3652920Y-6705484D02*
X3652920Y-6572150D01*
X3652920Y-6591198D02*
X3662443Y-6581674D01*
X3662443Y-6581674D02*
X3681491Y-6572150D01*
X3681491Y-6572150D02*
X3710063Y-6572150D01*
X3710063Y-6572150D02*
X3729110Y-6581674D01*
X3729110Y-6581674D02*
X3738634Y-6600722D01*
X3738634Y-6600722D02*
X3738634Y-6705484D01*
X3738634Y-6600722D02*
X3748158Y-6581674D01*
X3748158Y-6581674D02*
X3767205Y-6572150D01*
X3767205Y-6572150D02*
X3795777Y-6572150D01*
X3795777Y-6572150D02*
X3814824Y-6581674D01*
X3814824Y-6581674D02*
X3824348Y-6600722D01*
X3824348Y-6600722D02*
X3824348Y-6705484D01*
X3919586Y-6705484D02*
X3919586Y-6572150D01*
X3919586Y-6591198D02*
X3929110Y-6581674D01*
X3929110Y-6581674D02*
X3948158Y-6572150D01*
X3948158Y-6572150D02*
X3976729Y-6572150D01*
X3976729Y-6572150D02*
X3995777Y-6581674D01*
X3995777Y-6581674D02*
X4005301Y-6600722D01*
X4005301Y-6600722D02*
X4005301Y-6705484D01*
X4005301Y-6600722D02*
X4014824Y-6581674D01*
X4014824Y-6581674D02*
X4033872Y-6572150D01*
X4033872Y-6572150D02*
X4062443Y-6572150D01*
X4062443Y-6572150D02*
X4081491Y-6581674D01*
X4081491Y-6581674D02*
X4091015Y-6600722D01*
X4091015Y-6600722D02*
X4091015Y-6705484D01*
X4481491Y-6495960D02*
X4310063Y-6753103D01*
X4738634Y-6505484D02*
X4757682Y-6505484D01*
X4757682Y-6505484D02*
X4776729Y-6515008D01*
X4776729Y-6515008D02*
X4786253Y-6524531D01*
X4786253Y-6524531D02*
X4795777Y-6543579D01*
X4795777Y-6543579D02*
X4805301Y-6581674D01*
X4805301Y-6581674D02*
X4805301Y-6629293D01*
X4805301Y-6629293D02*
X4795777Y-6667388D01*
X4795777Y-6667388D02*
X4786253Y-6686436D01*
X4786253Y-6686436D02*
X4776729Y-6695960D01*
X4776729Y-6695960D02*
X4757682Y-6705484D01*
X4757682Y-6705484D02*
X4738634Y-6705484D01*
X4738634Y-6705484D02*
X4719587Y-6695960D01*
X4719587Y-6695960D02*
X4710063Y-6686436D01*
X4710063Y-6686436D02*
X4700539Y-6667388D01*
X4700539Y-6667388D02*
X4691015Y-6629293D01*
X4691015Y-6629293D02*
X4691015Y-6581674D01*
X4691015Y-6581674D02*
X4700539Y-6543579D01*
X4700539Y-6543579D02*
X4710063Y-6524531D01*
X4710063Y-6524531D02*
X4719587Y-6515008D01*
X4719587Y-6515008D02*
X4738634Y-6505484D01*
X4891015Y-6686436D02*
X4900539Y-6695960D01*
X4900539Y-6695960D02*
X4891015Y-6705484D01*
X4891015Y-6705484D02*
X4881491Y-6695960D01*
X4881491Y-6695960D02*
X4891015Y-6686436D01*
X4891015Y-6686436D02*
X4891015Y-6705484D01*
X5024348Y-6505484D02*
X5043396Y-6505484D01*
X5043396Y-6505484D02*
X5062444Y-6515008D01*
X5062444Y-6515008D02*
X5071968Y-6524531D01*
X5071968Y-6524531D02*
X5081491Y-6543579D01*
X5081491Y-6543579D02*
X5091015Y-6581674D01*
X5091015Y-6581674D02*
X5091015Y-6629293D01*
X5091015Y-6629293D02*
X5081491Y-6667388D01*
X5081491Y-6667388D02*
X5071968Y-6686436D01*
X5071968Y-6686436D02*
X5062444Y-6695960D01*
X5062444Y-6695960D02*
X5043396Y-6705484D01*
X5043396Y-6705484D02*
X5024348Y-6705484D01*
X5024348Y-6705484D02*
X5005301Y-6695960D01*
X5005301Y-6695960D02*
X4995777Y-6686436D01*
X4995777Y-6686436D02*
X4986253Y-6667388D01*
X4986253Y-6667388D02*
X4976729Y-6629293D01*
X4976729Y-6629293D02*
X4976729Y-6581674D01*
X4976729Y-6581674D02*
X4986253Y-6543579D01*
X4986253Y-6543579D02*
X4995777Y-6524531D01*
X4995777Y-6524531D02*
X5005301Y-6515008D01*
X5005301Y-6515008D02*
X5024348Y-6505484D01*
X5157682Y-6505484D02*
X5281491Y-6505484D01*
X5281491Y-6505484D02*
X5214825Y-6581674D01*
X5214825Y-6581674D02*
X5243396Y-6581674D01*
X5243396Y-6581674D02*
X5262444Y-6591198D01*
X5262444Y-6591198D02*
X5271968Y-6600722D01*
X5271968Y-6600722D02*
X5281491Y-6619769D01*
X5281491Y-6619769D02*
X5281491Y-6667388D01*
X5281491Y-6667388D02*
X5271968Y-6686436D01*
X5271968Y-6686436D02*
X5262444Y-6695960D01*
X5262444Y-6695960D02*
X5243396Y-6705484D01*
X5243396Y-6705484D02*
X5186253Y-6705484D01*
X5186253Y-6705484D02*
X5167206Y-6695960D01*
X5167206Y-6695960D02*
X5157682Y-6686436D01*
X5376729Y-6705484D02*
X5414825Y-6705484D01*
X5414825Y-6705484D02*
X5433872Y-6695960D01*
X5433872Y-6695960D02*
X5443396Y-6686436D01*
X5443396Y-6686436D02*
X5462444Y-6657865D01*
X5462444Y-6657865D02*
X5471968Y-6619769D01*
X5471968Y-6619769D02*
X5471968Y-6543579D01*
X5471968Y-6543579D02*
X5462444Y-6524531D01*
X5462444Y-6524531D02*
X5452920Y-6515008D01*
X5452920Y-6515008D02*
X5433872Y-6505484D01*
X5433872Y-6505484D02*
X5395777Y-6505484D01*
X5395777Y-6505484D02*
X5376729Y-6515008D01*
X5376729Y-6515008D02*
X5367206Y-6524531D01*
X5367206Y-6524531D02*
X5357682Y-6543579D01*
X5357682Y-6543579D02*
X5357682Y-6591198D01*
X5357682Y-6591198D02*
X5367206Y-6610246D01*
X5367206Y-6610246D02*
X5376729Y-6619769D01*
X5376729Y-6619769D02*
X5395777Y-6629293D01*
X5395777Y-6629293D02*
X5433872Y-6629293D01*
X5433872Y-6629293D02*
X5452920Y-6619769D01*
X5452920Y-6619769D02*
X5462444Y-6610246D01*
X5462444Y-6610246D02*
X5471968Y-6591198D01*
X5643396Y-6572150D02*
X5643396Y-6705484D01*
X5595777Y-6495960D02*
X5548158Y-6638817D01*
X5548158Y-6638817D02*
X5671967Y-6638817D01*
X5738634Y-6505484D02*
X5738634Y-6543579D01*
X5814825Y-6505484D02*
X5814825Y-6543579D01*
X6110063Y-6781674D02*
X6100539Y-6772150D01*
X6100539Y-6772150D02*
X6081491Y-6743579D01*
X6081491Y-6743579D02*
X6071968Y-6724531D01*
X6071968Y-6724531D02*
X6062444Y-6695960D01*
X6062444Y-6695960D02*
X6052920Y-6648341D01*
X6052920Y-6648341D02*
X6052920Y-6610246D01*
X6052920Y-6610246D02*
X6062444Y-6562627D01*
X6062444Y-6562627D02*
X6071968Y-6534055D01*
X6071968Y-6534055D02*
X6081491Y-6515008D01*
X6081491Y-6515008D02*
X6100539Y-6486436D01*
X6100539Y-6486436D02*
X6110063Y-6476912D01*
X6271968Y-6505484D02*
X6233872Y-6505484D01*
X6233872Y-6505484D02*
X6214825Y-6515008D01*
X6214825Y-6515008D02*
X6205301Y-6524531D01*
X6205301Y-6524531D02*
X6186253Y-6553103D01*
X6186253Y-6553103D02*
X6176729Y-6591198D01*
X6176729Y-6591198D02*
X6176729Y-6667388D01*
X6176729Y-6667388D02*
X6186253Y-6686436D01*
X6186253Y-6686436D02*
X6195777Y-6695960D01*
X6195777Y-6695960D02*
X6214825Y-6705484D01*
X6214825Y-6705484D02*
X6252920Y-6705484D01*
X6252920Y-6705484D02*
X6271968Y-6695960D01*
X6271968Y-6695960D02*
X6281491Y-6686436D01*
X6281491Y-6686436D02*
X6291015Y-6667388D01*
X6291015Y-6667388D02*
X6291015Y-6619769D01*
X6291015Y-6619769D02*
X6281491Y-6600722D01*
X6281491Y-6600722D02*
X6271968Y-6591198D01*
X6271968Y-6591198D02*
X6252920Y-6581674D01*
X6252920Y-6581674D02*
X6214825Y-6581674D01*
X6214825Y-6581674D02*
X6195777Y-6591198D01*
X6195777Y-6591198D02*
X6186253Y-6600722D01*
X6186253Y-6600722D02*
X6176729Y-6619769D01*
X6529110Y-6705484D02*
X6529110Y-6505484D01*
X6614825Y-6705484D02*
X6614825Y-6600722D01*
X6614825Y-6600722D02*
X6605301Y-6581674D01*
X6605301Y-6581674D02*
X6586253Y-6572150D01*
X6586253Y-6572150D02*
X6557682Y-6572150D01*
X6557682Y-6572150D02*
X6538634Y-6581674D01*
X6538634Y-6581674D02*
X6529110Y-6591198D01*
X6738634Y-6705484D02*
X6719587Y-6695960D01*
X6719587Y-6695960D02*
X6710063Y-6686436D01*
X6710063Y-6686436D02*
X6700539Y-6667388D01*
X6700539Y-6667388D02*
X6700539Y-6610246D01*
X6700539Y-6610246D02*
X6710063Y-6591198D01*
X6710063Y-6591198D02*
X6719587Y-6581674D01*
X6719587Y-6581674D02*
X6738634Y-6572150D01*
X6738634Y-6572150D02*
X6767206Y-6572150D01*
X6767206Y-6572150D02*
X6786253Y-6581674D01*
X6786253Y-6581674D02*
X6795777Y-6591198D01*
X6795777Y-6591198D02*
X6805301Y-6610246D01*
X6805301Y-6610246D02*
X6805301Y-6667388D01*
X6805301Y-6667388D02*
X6795777Y-6686436D01*
X6795777Y-6686436D02*
X6786253Y-6695960D01*
X6786253Y-6695960D02*
X6767206Y-6705484D01*
X6767206Y-6705484D02*
X6738634Y-6705484D01*
X6919587Y-6705484D02*
X6900539Y-6695960D01*
X6900539Y-6695960D02*
X6891015Y-6676912D01*
X6891015Y-6676912D02*
X6891015Y-6505484D01*
X7071968Y-6695960D02*
X7052920Y-6705484D01*
X7052920Y-6705484D02*
X7014825Y-6705484D01*
X7014825Y-6705484D02*
X6995777Y-6695960D01*
X6995777Y-6695960D02*
X6986253Y-6676912D01*
X6986253Y-6676912D02*
X6986253Y-6600722D01*
X6986253Y-6600722D02*
X6995777Y-6581674D01*
X6995777Y-6581674D02*
X7014825Y-6572150D01*
X7014825Y-6572150D02*
X7052920Y-6572150D01*
X7052920Y-6572150D02*
X7071968Y-6581674D01*
X7071968Y-6581674D02*
X7081491Y-6600722D01*
X7081491Y-6600722D02*
X7081491Y-6619769D01*
X7081491Y-6619769D02*
X6986253Y-6638817D01*
X7157682Y-6695960D02*
X7176730Y-6705484D01*
X7176730Y-6705484D02*
X7214825Y-6705484D01*
X7214825Y-6705484D02*
X7233872Y-6695960D01*
X7233872Y-6695960D02*
X7243396Y-6676912D01*
X7243396Y-6676912D02*
X7243396Y-6667388D01*
X7243396Y-6667388D02*
X7233872Y-6648341D01*
X7233872Y-6648341D02*
X7214825Y-6638817D01*
X7214825Y-6638817D02*
X7186253Y-6638817D01*
X7186253Y-6638817D02*
X7167206Y-6629293D01*
X7167206Y-6629293D02*
X7157682Y-6610246D01*
X7157682Y-6610246D02*
X7157682Y-6600722D01*
X7157682Y-6600722D02*
X7167206Y-6581674D01*
X7167206Y-6581674D02*
X7186253Y-6572150D01*
X7186253Y-6572150D02*
X7214825Y-6572150D01*
X7214825Y-6572150D02*
X7233872Y-6581674D01*
X7310063Y-6781674D02*
X7319587Y-6772150D01*
X7319587Y-6772150D02*
X7338634Y-6743579D01*
X7338634Y-6743579D02*
X7348158Y-6724531D01*
X7348158Y-6724531D02*
X7357682Y-6695960D01*
X7357682Y-6695960D02*
X7367206Y-6648341D01*
X7367206Y-6648341D02*
X7367206Y-6610246D01*
X7367206Y-6610246D02*
X7357682Y-6562627D01*
X7357682Y-6562627D02*
X7348158Y-6534055D01*
X7348158Y-6534055D02*
X7338634Y-6515008D01*
X7338634Y-6515008D02*
X7319587Y-6486436D01*
X7319587Y-6486436D02*
X7310063Y-6476912D01*
D12*
X2535000Y-6878000D02*
G75*
G03*
X2535000Y-6878000I-60000J0D01*
G01*
D11*
X2900539Y-6969484D02*
X2786253Y-6969484D01*
X2843396Y-6969484D02*
X2843396Y-6769484D01*
X2843396Y-6769484D02*
X2824348Y-6798055D01*
X2824348Y-6798055D02*
X2805301Y-6817103D01*
X2805301Y-6817103D02*
X2786253Y-6826627D01*
X2986253Y-6950436D02*
X2995777Y-6959960D01*
X2995777Y-6959960D02*
X2986253Y-6969484D01*
X2986253Y-6969484D02*
X2976729Y-6959960D01*
X2976729Y-6959960D02*
X2986253Y-6950436D01*
X2986253Y-6950436D02*
X2986253Y-6969484D01*
X3071967Y-6788531D02*
X3081491Y-6779008D01*
X3081491Y-6779008D02*
X3100539Y-6769484D01*
X3100539Y-6769484D02*
X3148158Y-6769484D01*
X3148158Y-6769484D02*
X3167205Y-6779008D01*
X3167205Y-6779008D02*
X3176729Y-6788531D01*
X3176729Y-6788531D02*
X3186253Y-6807579D01*
X3186253Y-6807579D02*
X3186253Y-6826627D01*
X3186253Y-6826627D02*
X3176729Y-6855198D01*
X3176729Y-6855198D02*
X3062443Y-6969484D01*
X3062443Y-6969484D02*
X3186253Y-6969484D01*
X3310062Y-6769484D02*
X3329110Y-6769484D01*
X3329110Y-6769484D02*
X3348158Y-6779008D01*
X3348158Y-6779008D02*
X3357682Y-6788531D01*
X3357682Y-6788531D02*
X3367205Y-6807579D01*
X3367205Y-6807579D02*
X3376729Y-6845674D01*
X3376729Y-6845674D02*
X3376729Y-6893293D01*
X3376729Y-6893293D02*
X3367205Y-6931388D01*
X3367205Y-6931388D02*
X3357682Y-6950436D01*
X3357682Y-6950436D02*
X3348158Y-6959960D01*
X3348158Y-6959960D02*
X3329110Y-6969484D01*
X3329110Y-6969484D02*
X3310062Y-6969484D01*
X3310062Y-6969484D02*
X3291015Y-6959960D01*
X3291015Y-6959960D02*
X3281491Y-6950436D01*
X3281491Y-6950436D02*
X3271967Y-6931388D01*
X3271967Y-6931388D02*
X3262443Y-6893293D01*
X3262443Y-6893293D02*
X3262443Y-6845674D01*
X3262443Y-6845674D02*
X3271967Y-6807579D01*
X3271967Y-6807579D02*
X3281491Y-6788531D01*
X3281491Y-6788531D02*
X3291015Y-6779008D01*
X3291015Y-6779008D02*
X3310062Y-6769484D01*
X3500539Y-6769484D02*
X3519586Y-6769484D01*
X3519586Y-6769484D02*
X3538634Y-6779008D01*
X3538634Y-6779008D02*
X3548158Y-6788531D01*
X3548158Y-6788531D02*
X3557682Y-6807579D01*
X3557682Y-6807579D02*
X3567205Y-6845674D01*
X3567205Y-6845674D02*
X3567205Y-6893293D01*
X3567205Y-6893293D02*
X3557682Y-6931388D01*
X3557682Y-6931388D02*
X3548158Y-6950436D01*
X3548158Y-6950436D02*
X3538634Y-6959960D01*
X3538634Y-6959960D02*
X3519586Y-6969484D01*
X3519586Y-6969484D02*
X3500539Y-6969484D01*
X3500539Y-6969484D02*
X3481491Y-6959960D01*
X3481491Y-6959960D02*
X3471967Y-6950436D01*
X3471967Y-6950436D02*
X3462443Y-6931388D01*
X3462443Y-6931388D02*
X3452920Y-6893293D01*
X3452920Y-6893293D02*
X3452920Y-6845674D01*
X3452920Y-6845674D02*
X3462443Y-6807579D01*
X3462443Y-6807579D02*
X3471967Y-6788531D01*
X3471967Y-6788531D02*
X3481491Y-6779008D01*
X3481491Y-6779008D02*
X3500539Y-6769484D01*
X3652920Y-6969484D02*
X3652920Y-6836150D01*
X3652920Y-6855198D02*
X3662443Y-6845674D01*
X3662443Y-6845674D02*
X3681491Y-6836150D01*
X3681491Y-6836150D02*
X3710063Y-6836150D01*
X3710063Y-6836150D02*
X3729110Y-6845674D01*
X3729110Y-6845674D02*
X3738634Y-6864722D01*
X3738634Y-6864722D02*
X3738634Y-6969484D01*
X3738634Y-6864722D02*
X3748158Y-6845674D01*
X3748158Y-6845674D02*
X3767205Y-6836150D01*
X3767205Y-6836150D02*
X3795777Y-6836150D01*
X3795777Y-6836150D02*
X3814824Y-6845674D01*
X3814824Y-6845674D02*
X3824348Y-6864722D01*
X3824348Y-6864722D02*
X3824348Y-6969484D01*
X3919586Y-6969484D02*
X3919586Y-6836150D01*
X3919586Y-6855198D02*
X3929110Y-6845674D01*
X3929110Y-6845674D02*
X3948158Y-6836150D01*
X3948158Y-6836150D02*
X3976729Y-6836150D01*
X3976729Y-6836150D02*
X3995777Y-6845674D01*
X3995777Y-6845674D02*
X4005301Y-6864722D01*
X4005301Y-6864722D02*
X4005301Y-6969484D01*
X4005301Y-6864722D02*
X4014824Y-6845674D01*
X4014824Y-6845674D02*
X4033872Y-6836150D01*
X4033872Y-6836150D02*
X4062443Y-6836150D01*
X4062443Y-6836150D02*
X4081491Y-6845674D01*
X4081491Y-6845674D02*
X4091015Y-6864722D01*
X4091015Y-6864722D02*
X4091015Y-6969484D01*
X4481491Y-6759960D02*
X4310063Y-7017103D01*
X4738634Y-6769484D02*
X4757682Y-6769484D01*
X4757682Y-6769484D02*
X4776729Y-6779008D01*
X4776729Y-6779008D02*
X4786253Y-6788531D01*
X4786253Y-6788531D02*
X4795777Y-6807579D01*
X4795777Y-6807579D02*
X4805301Y-6845674D01*
X4805301Y-6845674D02*
X4805301Y-6893293D01*
X4805301Y-6893293D02*
X4795777Y-6931388D01*
X4795777Y-6931388D02*
X4786253Y-6950436D01*
X4786253Y-6950436D02*
X4776729Y-6959960D01*
X4776729Y-6959960D02*
X4757682Y-6969484D01*
X4757682Y-6969484D02*
X4738634Y-6969484D01*
X4738634Y-6969484D02*
X4719587Y-6959960D01*
X4719587Y-6959960D02*
X4710063Y-6950436D01*
X4710063Y-6950436D02*
X4700539Y-6931388D01*
X4700539Y-6931388D02*
X4691015Y-6893293D01*
X4691015Y-6893293D02*
X4691015Y-6845674D01*
X4691015Y-6845674D02*
X4700539Y-6807579D01*
X4700539Y-6807579D02*
X4710063Y-6788531D01*
X4710063Y-6788531D02*
X4719587Y-6779008D01*
X4719587Y-6779008D02*
X4738634Y-6769484D01*
X4891015Y-6950436D02*
X4900539Y-6959960D01*
X4900539Y-6959960D02*
X4891015Y-6969484D01*
X4891015Y-6969484D02*
X4881491Y-6959960D01*
X4881491Y-6959960D02*
X4891015Y-6950436D01*
X4891015Y-6950436D02*
X4891015Y-6969484D01*
X5024348Y-6769484D02*
X5043396Y-6769484D01*
X5043396Y-6769484D02*
X5062444Y-6779008D01*
X5062444Y-6779008D02*
X5071968Y-6788531D01*
X5071968Y-6788531D02*
X5081491Y-6807579D01*
X5081491Y-6807579D02*
X5091015Y-6845674D01*
X5091015Y-6845674D02*
X5091015Y-6893293D01*
X5091015Y-6893293D02*
X5081491Y-6931388D01*
X5081491Y-6931388D02*
X5071968Y-6950436D01*
X5071968Y-6950436D02*
X5062444Y-6959960D01*
X5062444Y-6959960D02*
X5043396Y-6969484D01*
X5043396Y-6969484D02*
X5024348Y-6969484D01*
X5024348Y-6969484D02*
X5005301Y-6959960D01*
X5005301Y-6959960D02*
X4995777Y-6950436D01*
X4995777Y-6950436D02*
X4986253Y-6931388D01*
X4986253Y-6931388D02*
X4976729Y-6893293D01*
X4976729Y-6893293D02*
X4976729Y-6845674D01*
X4976729Y-6845674D02*
X4986253Y-6807579D01*
X4986253Y-6807579D02*
X4995777Y-6788531D01*
X4995777Y-6788531D02*
X5005301Y-6779008D01*
X5005301Y-6779008D02*
X5024348Y-6769484D01*
X5262444Y-6836150D02*
X5262444Y-6969484D01*
X5214825Y-6759960D02*
X5167206Y-6902817D01*
X5167206Y-6902817D02*
X5291015Y-6902817D01*
X5348158Y-6769484D02*
X5481491Y-6769484D01*
X5481491Y-6769484D02*
X5395777Y-6969484D01*
X5548158Y-6788531D02*
X5557682Y-6779008D01*
X5557682Y-6779008D02*
X5576729Y-6769484D01*
X5576729Y-6769484D02*
X5624348Y-6769484D01*
X5624348Y-6769484D02*
X5643396Y-6779008D01*
X5643396Y-6779008D02*
X5652920Y-6788531D01*
X5652920Y-6788531D02*
X5662444Y-6807579D01*
X5662444Y-6807579D02*
X5662444Y-6826627D01*
X5662444Y-6826627D02*
X5652920Y-6855198D01*
X5652920Y-6855198D02*
X5538634Y-6969484D01*
X5538634Y-6969484D02*
X5662444Y-6969484D01*
X5738634Y-6769484D02*
X5738634Y-6807579D01*
X5814825Y-6769484D02*
X5814825Y-6807579D01*
X6110063Y-7045674D02*
X6100539Y-7036150D01*
X6100539Y-7036150D02*
X6081491Y-7007579D01*
X6081491Y-7007579D02*
X6071968Y-6988531D01*
X6071968Y-6988531D02*
X6062444Y-6959960D01*
X6062444Y-6959960D02*
X6052920Y-6912341D01*
X6052920Y-6912341D02*
X6052920Y-6874246D01*
X6052920Y-6874246D02*
X6062444Y-6826627D01*
X6062444Y-6826627D02*
X6071968Y-6798055D01*
X6071968Y-6798055D02*
X6081491Y-6779008D01*
X6081491Y-6779008D02*
X6100539Y-6750436D01*
X6100539Y-6750436D02*
X6110063Y-6740912D01*
X6291015Y-6969484D02*
X6176729Y-6969484D01*
X6233872Y-6969484D02*
X6233872Y-6769484D01*
X6233872Y-6769484D02*
X6214825Y-6798055D01*
X6214825Y-6798055D02*
X6195777Y-6817103D01*
X6195777Y-6817103D02*
X6176729Y-6826627D01*
X6367206Y-6788531D02*
X6376729Y-6779008D01*
X6376729Y-6779008D02*
X6395777Y-6769484D01*
X6395777Y-6769484D02*
X6443396Y-6769484D01*
X6443396Y-6769484D02*
X6462444Y-6779008D01*
X6462444Y-6779008D02*
X6471968Y-6788531D01*
X6471968Y-6788531D02*
X6481491Y-6807579D01*
X6481491Y-6807579D02*
X6481491Y-6826627D01*
X6481491Y-6826627D02*
X6471968Y-6855198D01*
X6471968Y-6855198D02*
X6357682Y-6969484D01*
X6357682Y-6969484D02*
X6481491Y-6969484D01*
X6719587Y-6969484D02*
X6719587Y-6769484D01*
X6805301Y-6969484D02*
X6805301Y-6864722D01*
X6805301Y-6864722D02*
X6795777Y-6845674D01*
X6795777Y-6845674D02*
X6776730Y-6836150D01*
X6776730Y-6836150D02*
X6748158Y-6836150D01*
X6748158Y-6836150D02*
X6729110Y-6845674D01*
X6729110Y-6845674D02*
X6719587Y-6855198D01*
X6929110Y-6969484D02*
X6910063Y-6959960D01*
X6910063Y-6959960D02*
X6900539Y-6950436D01*
X6900539Y-6950436D02*
X6891015Y-6931388D01*
X6891015Y-6931388D02*
X6891015Y-6874246D01*
X6891015Y-6874246D02*
X6900539Y-6855198D01*
X6900539Y-6855198D02*
X6910063Y-6845674D01*
X6910063Y-6845674D02*
X6929110Y-6836150D01*
X6929110Y-6836150D02*
X6957682Y-6836150D01*
X6957682Y-6836150D02*
X6976730Y-6845674D01*
X6976730Y-6845674D02*
X6986253Y-6855198D01*
X6986253Y-6855198D02*
X6995777Y-6874246D01*
X6995777Y-6874246D02*
X6995777Y-6931388D01*
X6995777Y-6931388D02*
X6986253Y-6950436D01*
X6986253Y-6950436D02*
X6976730Y-6959960D01*
X6976730Y-6959960D02*
X6957682Y-6969484D01*
X6957682Y-6969484D02*
X6929110Y-6969484D01*
X7110063Y-6969484D02*
X7091015Y-6959960D01*
X7091015Y-6959960D02*
X7081491Y-6940912D01*
X7081491Y-6940912D02*
X7081491Y-6769484D01*
X7262444Y-6959960D02*
X7243396Y-6969484D01*
X7243396Y-6969484D02*
X7205301Y-6969484D01*
X7205301Y-6969484D02*
X7186253Y-6959960D01*
X7186253Y-6959960D02*
X7176730Y-6940912D01*
X7176730Y-6940912D02*
X7176730Y-6864722D01*
X7176730Y-6864722D02*
X7186253Y-6845674D01*
X7186253Y-6845674D02*
X7205301Y-6836150D01*
X7205301Y-6836150D02*
X7243396Y-6836150D01*
X7243396Y-6836150D02*
X7262444Y-6845674D01*
X7262444Y-6845674D02*
X7271968Y-6864722D01*
X7271968Y-6864722D02*
X7271968Y-6883769D01*
X7271968Y-6883769D02*
X7176730Y-6902817D01*
X7348158Y-6959960D02*
X7367206Y-6969484D01*
X7367206Y-6969484D02*
X7405301Y-6969484D01*
X7405301Y-6969484D02*
X7424349Y-6959960D01*
X7424349Y-6959960D02*
X7433872Y-6940912D01*
X7433872Y-6940912D02*
X7433872Y-6931388D01*
X7433872Y-6931388D02*
X7424349Y-6912341D01*
X7424349Y-6912341D02*
X7405301Y-6902817D01*
X7405301Y-6902817D02*
X7376730Y-6902817D01*
X7376730Y-6902817D02*
X7357682Y-6893293D01*
X7357682Y-6893293D02*
X7348158Y-6874246D01*
X7348158Y-6874246D02*
X7348158Y-6864722D01*
X7348158Y-6864722D02*
X7357682Y-6845674D01*
X7357682Y-6845674D02*
X7376730Y-6836150D01*
X7376730Y-6836150D02*
X7405301Y-6836150D01*
X7405301Y-6836150D02*
X7424349Y-6845674D01*
X7500539Y-7045674D02*
X7510063Y-7036150D01*
X7510063Y-7036150D02*
X7529111Y-7007579D01*
X7529111Y-7007579D02*
X7538634Y-6988531D01*
X7538634Y-6988531D02*
X7548158Y-6959960D01*
X7548158Y-6959960D02*
X7557682Y-6912341D01*
X7557682Y-6912341D02*
X7557682Y-6874246D01*
X7557682Y-6874246D02*
X7548158Y-6826627D01*
X7548158Y-6826627D02*
X7538634Y-6798055D01*
X7538634Y-6798055D02*
X7529111Y-6779008D01*
X7529111Y-6779008D02*
X7510063Y-6750436D01*
X7510063Y-6750436D02*
X7500539Y-6740912D01*
M02*
