G04 #@! TF.GenerationSoftware,KiCad,Pcbnew,7.0.7*
G04 #@! TF.CreationDate,2024-02-07T12:10:54-08:00*
G04 #@! TF.ProjectId,Raven Expansion,52617665-6e20-4457-9870-616e73696f6e,rev?*
G04 #@! TF.SameCoordinates,Original*
G04 #@! TF.FileFunction,Copper,L2,Bot*
G04 #@! TF.FilePolarity,Positive*
%FSLAX46Y46*%
G04 Gerber Fmt 4.6, Leading zero omitted, Abs format (unit mm)*
G04 Created by KiCad (PCBNEW 7.0.7) date 2024-02-07 12:10:54*
%MOMM*%
%LPD*%
G01*
G04 APERTURE LIST*
G04 #@! TA.AperFunction,ComponentPad*
%ADD10R,2.400000X2.400000*%
G04 #@! TD*
G04 #@! TA.AperFunction,ComponentPad*
%ADD11C,2.400000*%
G04 #@! TD*
G04 #@! TA.AperFunction,ComponentPad*
%ADD12R,1.700000X1.700000*%
G04 #@! TD*
G04 #@! TA.AperFunction,ComponentPad*
%ADD13O,1.700000X1.700000*%
G04 #@! TD*
G04 #@! TA.AperFunction,Conductor*
%ADD14C,0.700000*%
G04 #@! TD*
G04 #@! TA.AperFunction,Conductor*
%ADD15C,2.000000*%
G04 #@! TD*
G04 APERTURE END LIST*
D10*
X31810000Y-35130000D03*
D11*
X31810000Y-38630000D03*
X31810000Y-42130000D03*
X31810000Y-45630000D03*
X31810000Y-49130000D03*
X31810000Y-52630000D03*
D10*
X39430000Y-52630000D03*
D11*
X39430000Y-49130000D03*
X39430000Y-45630000D03*
X39430000Y-42130000D03*
X39430000Y-38630000D03*
X39430000Y-35130000D03*
D12*
X41985000Y-56395000D03*
D13*
X39445000Y-56395000D03*
X36905000Y-56395000D03*
X34365000Y-56395000D03*
X31825000Y-56395000D03*
X29285000Y-56395000D03*
D14*
X26350000Y-57560000D02*
X26350000Y-47450000D01*
X27710000Y-58920000D02*
X26350000Y-57560000D01*
X28170000Y-45630000D02*
X31810000Y-45630000D01*
X36905000Y-56395000D02*
X36905000Y-57965000D01*
X36905000Y-57965000D02*
X35950000Y-58920000D01*
X35950000Y-58920000D02*
X27710000Y-58920000D01*
X26350000Y-47450000D02*
X28170000Y-45630000D01*
X42025000Y-45055000D02*
X40850000Y-43880000D01*
X41985000Y-56395000D02*
X42025000Y-56355000D01*
X42025000Y-56355000D02*
X42025000Y-45055000D01*
X40850000Y-43880000D02*
X37070000Y-43880000D01*
X35550000Y-42360000D02*
X35550000Y-39980000D01*
X34200000Y-38630000D02*
X31810000Y-38630000D01*
X35550000Y-39980000D02*
X34200000Y-38630000D01*
X37070000Y-43880000D02*
X35550000Y-42360000D01*
D15*
X31810000Y-49130000D02*
X39430000Y-49130000D01*
M02*
