G04 #@! TF.GenerationSoftware,KiCad,Pcbnew,7.0.7*
G04 #@! TF.CreationDate,2024-02-07T12:10:54-08:00*
G04 #@! TF.ProjectId,Raven Expansion,52617665-6e20-4457-9870-616e73696f6e,rev?*
G04 #@! TF.SameCoordinates,Original*
G04 #@! TF.FileFunction,Legend,Bot*
G04 #@! TF.FilePolarity,Positive*
%FSLAX46Y46*%
G04 Gerber Fmt 4.6, Leading zero omitted, Abs format (unit mm)*
G04 Created by KiCad (PCBNEW 7.0.7) date 2024-02-07 12:10:54*
%MOMM*%
%LPD*%
G01*
G04 APERTURE LIST*
%ADD10C,0.100000*%
%ADD11C,0.150000*%
%ADD12R,2.400000X2.400000*%
%ADD13C,2.400000*%
%ADD14C,3.200000*%
%ADD15R,1.700000X1.700000*%
%ADD16O,1.700000X1.700000*%
G04 APERTURE END LIST*
D10*
X39481250Y-40349999D02*
X45756251Y-40350000D01*
X39460000Y-33330000D02*
X45718750Y-33330666D01*
X31670000Y-54440000D02*
X25427500Y-54439334D01*
X31705000Y-33320000D02*
X25410000Y-33320000D01*
X39441249Y-54450000D02*
X45736251Y-54450000D01*
X31675000Y-40370000D02*
X25415000Y-40369333D01*
X39471250Y-47400000D02*
X45731250Y-47400667D01*
X31665000Y-47420001D02*
X25389999Y-47420000D01*
D11*
X37196009Y-43050112D02*
X37243628Y-43192969D01*
X37243628Y-43192969D02*
X37291247Y-43240588D01*
X37291247Y-43240588D02*
X37386485Y-43288207D01*
X37386485Y-43288207D02*
X37529342Y-43288207D01*
X37529342Y-43288207D02*
X37624580Y-43240588D01*
X37624580Y-43240588D02*
X37672200Y-43192969D01*
X37672200Y-43192969D02*
X37719819Y-43097731D01*
X37719819Y-43097731D02*
X37719819Y-42716779D01*
X37719819Y-42716779D02*
X36719819Y-42716779D01*
X36719819Y-42716779D02*
X36719819Y-43050112D01*
X36719819Y-43050112D02*
X36767438Y-43145350D01*
X36767438Y-43145350D02*
X36815057Y-43192969D01*
X36815057Y-43192969D02*
X36910295Y-43240588D01*
X36910295Y-43240588D02*
X37005533Y-43240588D01*
X37005533Y-43240588D02*
X37100771Y-43192969D01*
X37100771Y-43192969D02*
X37148390Y-43145350D01*
X37148390Y-43145350D02*
X37196009Y-43050112D01*
X37196009Y-43050112D02*
X37196009Y-42716779D01*
X37053152Y-43621541D02*
X37719819Y-43859636D01*
X37053152Y-44097731D02*
X37719819Y-43859636D01*
X37719819Y-43859636D02*
X37957914Y-43764398D01*
X37957914Y-43764398D02*
X38005533Y-43716779D01*
X38005533Y-43716779D02*
X38053152Y-43621541D01*
X37624580Y-44478684D02*
X37672200Y-44526303D01*
X37672200Y-44526303D02*
X37719819Y-44478684D01*
X37719819Y-44478684D02*
X37672200Y-44431065D01*
X37672200Y-44431065D02*
X37624580Y-44478684D01*
X37624580Y-44478684D02*
X37719819Y-44478684D01*
X37100771Y-44478684D02*
X37148390Y-44526303D01*
X37148390Y-44526303D02*
X37196009Y-44478684D01*
X37196009Y-44478684D02*
X37148390Y-44431065D01*
X37148390Y-44431065D02*
X37100771Y-44478684D01*
X37100771Y-44478684D02*
X37196009Y-44478684D01*
X37434104Y-45669160D02*
X37434104Y-46145350D01*
X37719819Y-45573922D02*
X36719819Y-45907255D01*
X36719819Y-45907255D02*
X37719819Y-46240588D01*
X37719819Y-46716779D02*
X37672200Y-46621541D01*
X37672200Y-46621541D02*
X37576961Y-46573922D01*
X37576961Y-46573922D02*
X36719819Y-46573922D01*
X37672200Y-47478684D02*
X37719819Y-47383446D01*
X37719819Y-47383446D02*
X37719819Y-47192970D01*
X37719819Y-47192970D02*
X37672200Y-47097732D01*
X37672200Y-47097732D02*
X37576961Y-47050113D01*
X37576961Y-47050113D02*
X37196009Y-47050113D01*
X37196009Y-47050113D02*
X37100771Y-47097732D01*
X37100771Y-47097732D02*
X37053152Y-47192970D01*
X37053152Y-47192970D02*
X37053152Y-47383446D01*
X37053152Y-47383446D02*
X37100771Y-47478684D01*
X37100771Y-47478684D02*
X37196009Y-47526303D01*
X37196009Y-47526303D02*
X37291247Y-47526303D01*
X37291247Y-47526303D02*
X37386485Y-47050113D01*
X37719819Y-47859637D02*
X37053152Y-48383446D01*
X37053152Y-47859637D02*
X37719819Y-48383446D01*
X37434104Y-49478685D02*
X37434104Y-49954875D01*
X37719819Y-49383447D02*
X36719819Y-49716780D01*
X36719819Y-49716780D02*
X37719819Y-50050113D01*
X37719819Y-50812018D02*
X37196009Y-50812018D01*
X37196009Y-50812018D02*
X37100771Y-50764399D01*
X37100771Y-50764399D02*
X37053152Y-50669161D01*
X37053152Y-50669161D02*
X37053152Y-50478685D01*
X37053152Y-50478685D02*
X37100771Y-50383447D01*
X37672200Y-50812018D02*
X37719819Y-50716780D01*
X37719819Y-50716780D02*
X37719819Y-50478685D01*
X37719819Y-50478685D02*
X37672200Y-50383447D01*
X37672200Y-50383447D02*
X37576961Y-50335828D01*
X37576961Y-50335828D02*
X37481723Y-50335828D01*
X37481723Y-50335828D02*
X37386485Y-50383447D01*
X37386485Y-50383447D02*
X37338866Y-50478685D01*
X37338866Y-50478685D02*
X37338866Y-50716780D01*
X37338866Y-50716780D02*
X37291247Y-50812018D01*
X37719819Y-51288209D02*
X37053152Y-51288209D01*
X37243628Y-51288209D02*
X37148390Y-51335828D01*
X37148390Y-51335828D02*
X37100771Y-51383447D01*
X37100771Y-51383447D02*
X37053152Y-51478685D01*
X37053152Y-51478685D02*
X37053152Y-51573923D01*
X37719819Y-51907257D02*
X36719819Y-51907257D01*
X37719819Y-52335828D02*
X37196009Y-52335828D01*
X37196009Y-52335828D02*
X37100771Y-52288209D01*
X37100771Y-52288209D02*
X37053152Y-52192971D01*
X37053152Y-52192971D02*
X37053152Y-52050114D01*
X37053152Y-52050114D02*
X37100771Y-51954876D01*
X37100771Y-51954876D02*
X37148390Y-51907257D01*
X37053152Y-53240590D02*
X37719819Y-53240590D01*
X37053152Y-52812019D02*
X37576961Y-52812019D01*
X37576961Y-52812019D02*
X37672200Y-52859638D01*
X37672200Y-52859638D02*
X37719819Y-52954876D01*
X37719819Y-52954876D02*
X37719819Y-53097733D01*
X37719819Y-53097733D02*
X37672200Y-53192971D01*
X37672200Y-53192971D02*
X37624580Y-53240590D01*
X37672200Y-53669162D02*
X37719819Y-53764400D01*
X37719819Y-53764400D02*
X37719819Y-53954876D01*
X37719819Y-53954876D02*
X37672200Y-54050114D01*
X37672200Y-54050114D02*
X37576961Y-54097733D01*
X37576961Y-54097733D02*
X37529342Y-54097733D01*
X37529342Y-54097733D02*
X37434104Y-54050114D01*
X37434104Y-54050114D02*
X37386485Y-53954876D01*
X37386485Y-53954876D02*
X37386485Y-53812019D01*
X37386485Y-53812019D02*
X37338866Y-53716781D01*
X37338866Y-53716781D02*
X37243628Y-53669162D01*
X37243628Y-53669162D02*
X37196009Y-53669162D01*
X37196009Y-53669162D02*
X37100771Y-53716781D01*
X37100771Y-53716781D02*
X37053152Y-53812019D01*
X37053152Y-53812019D02*
X37053152Y-53954876D01*
X37053152Y-53954876D02*
X37100771Y-54050114D01*
X32420743Y-58138866D02*
X31658839Y-58138866D01*
X39876646Y-57519819D02*
X39257599Y-57519819D01*
X39257599Y-57519819D02*
X39590932Y-57900771D01*
X39590932Y-57900771D02*
X39448075Y-57900771D01*
X39448075Y-57900771D02*
X39352837Y-57948390D01*
X39352837Y-57948390D02*
X39305218Y-57996009D01*
X39305218Y-57996009D02*
X39257599Y-58091247D01*
X39257599Y-58091247D02*
X39257599Y-58329342D01*
X39257599Y-58329342D02*
X39305218Y-58424580D01*
X39305218Y-58424580D02*
X39352837Y-58472200D01*
X39352837Y-58472200D02*
X39448075Y-58519819D01*
X39448075Y-58519819D02*
X39733789Y-58519819D01*
X39733789Y-58519819D02*
X39829027Y-58472200D01*
X39829027Y-58472200D02*
X39876646Y-58424580D01*
X44198200Y-47866779D02*
X44257723Y-48045350D01*
X44257723Y-48045350D02*
X44257723Y-48342969D01*
X44257723Y-48342969D02*
X44198200Y-48462017D01*
X44198200Y-48462017D02*
X44138676Y-48521541D01*
X44138676Y-48521541D02*
X44019628Y-48581064D01*
X44019628Y-48581064D02*
X43900580Y-48581064D01*
X43900580Y-48581064D02*
X43781533Y-48521541D01*
X43781533Y-48521541D02*
X43722009Y-48462017D01*
X43722009Y-48462017D02*
X43662485Y-48342969D01*
X43662485Y-48342969D02*
X43602961Y-48104874D01*
X43602961Y-48104874D02*
X43543438Y-47985826D01*
X43543438Y-47985826D02*
X43483914Y-47926303D01*
X43483914Y-47926303D02*
X43364866Y-47866779D01*
X43364866Y-47866779D02*
X43245819Y-47866779D01*
X43245819Y-47866779D02*
X43126771Y-47926303D01*
X43126771Y-47926303D02*
X43067247Y-47985826D01*
X43067247Y-47985826D02*
X43007723Y-48104874D01*
X43007723Y-48104874D02*
X43007723Y-48402493D01*
X43007723Y-48402493D02*
X43067247Y-48581064D01*
X43007723Y-48997731D02*
X44257723Y-49295350D01*
X44257723Y-49295350D02*
X43364866Y-49533445D01*
X43364866Y-49533445D02*
X44257723Y-49771540D01*
X44257723Y-49771540D02*
X43007723Y-50069160D01*
X44257723Y-50545350D02*
X43007723Y-50545350D01*
X43007723Y-50962016D02*
X43007723Y-51676302D01*
X44257723Y-51319159D02*
X43007723Y-51319159D01*
X44138676Y-52807254D02*
X44198200Y-52747730D01*
X44198200Y-52747730D02*
X44257723Y-52569159D01*
X44257723Y-52569159D02*
X44257723Y-52450111D01*
X44257723Y-52450111D02*
X44198200Y-52271540D01*
X44198200Y-52271540D02*
X44079152Y-52152492D01*
X44079152Y-52152492D02*
X43960104Y-52092969D01*
X43960104Y-52092969D02*
X43722009Y-52033445D01*
X43722009Y-52033445D02*
X43543438Y-52033445D01*
X43543438Y-52033445D02*
X43305342Y-52092969D01*
X43305342Y-52092969D02*
X43186295Y-52152492D01*
X43186295Y-52152492D02*
X43067247Y-52271540D01*
X43067247Y-52271540D02*
X43007723Y-52450111D01*
X43007723Y-52450111D02*
X43007723Y-52569159D01*
X43007723Y-52569159D02*
X43067247Y-52747730D01*
X43067247Y-52747730D02*
X43126771Y-52807254D01*
X44257723Y-53342969D02*
X43007723Y-53342969D01*
X43602961Y-53342969D02*
X43602961Y-54057254D01*
X44257723Y-54057254D02*
X43007723Y-54057254D01*
X27476133Y-46826077D02*
X27476133Y-45721316D01*
X26923752Y-45030839D02*
X28373752Y-45030839D01*
X28373752Y-45030839D02*
X27338038Y-44547506D01*
X27338038Y-44547506D02*
X28373752Y-44064173D01*
X28373752Y-44064173D02*
X26923752Y-44064173D01*
X26923752Y-43373696D02*
X28373752Y-43373696D01*
X28373752Y-43373696D02*
X26923752Y-42545125D01*
X26923752Y-42545125D02*
X28373752Y-42545125D01*
X27476133Y-41854648D02*
X27476133Y-40749887D01*
X26923752Y-41302267D02*
X28028514Y-41302267D01*
X43772700Y-40590777D02*
X43772700Y-41619349D01*
X43901271Y-42197920D02*
X43901271Y-42840778D01*
X44286985Y-42069349D02*
X42936985Y-42519349D01*
X42936985Y-42519349D02*
X44286985Y-42969349D01*
X44286985Y-43419349D02*
X42936985Y-43419349D01*
X42936985Y-43419349D02*
X42936985Y-43933635D01*
X42936985Y-43933635D02*
X43001271Y-44062206D01*
X43001271Y-44062206D02*
X43065557Y-44126492D01*
X43065557Y-44126492D02*
X43194128Y-44190778D01*
X43194128Y-44190778D02*
X43386985Y-44190778D01*
X43386985Y-44190778D02*
X43515557Y-44126492D01*
X43515557Y-44126492D02*
X43579842Y-44062206D01*
X43579842Y-44062206D02*
X43644128Y-43933635D01*
X43644128Y-43933635D02*
X43644128Y-43419349D01*
X42936985Y-45026492D02*
X42936985Y-45283635D01*
X42936985Y-45283635D02*
X43001271Y-45412206D01*
X43001271Y-45412206D02*
X43129842Y-45540778D01*
X43129842Y-45540778D02*
X43386985Y-45605063D01*
X43386985Y-45605063D02*
X43836985Y-45605063D01*
X43836985Y-45605063D02*
X44094128Y-45540778D01*
X44094128Y-45540778D02*
X44222700Y-45412206D01*
X44222700Y-45412206D02*
X44286985Y-45283635D01*
X44286985Y-45283635D02*
X44286985Y-45026492D01*
X44286985Y-45026492D02*
X44222700Y-44897921D01*
X44222700Y-44897921D02*
X44094128Y-44769349D01*
X44094128Y-44769349D02*
X43836985Y-44705063D01*
X43836985Y-44705063D02*
X43386985Y-44705063D01*
X43386985Y-44705063D02*
X43129842Y-44769349D01*
X43129842Y-44769349D02*
X43001271Y-44897921D01*
X43001271Y-44897921D02*
X42936985Y-45026492D01*
X43772700Y-46183635D02*
X43772700Y-47212207D01*
X44286985Y-46697921D02*
X43258414Y-46697921D01*
X29713220Y-58128866D02*
X28951316Y-58128866D01*
X29332268Y-58509819D02*
X29332268Y-57747914D01*
X27467300Y-54029887D02*
X27467300Y-53001316D01*
X27660157Y-51908458D02*
X27595871Y-51715601D01*
X27595871Y-51715601D02*
X27531585Y-51651315D01*
X27531585Y-51651315D02*
X27403014Y-51587029D01*
X27403014Y-51587029D02*
X27210157Y-51587029D01*
X27210157Y-51587029D02*
X27081585Y-51651315D01*
X27081585Y-51651315D02*
X27017300Y-51715601D01*
X27017300Y-51715601D02*
X26953014Y-51844172D01*
X26953014Y-51844172D02*
X26953014Y-52358458D01*
X26953014Y-52358458D02*
X28303014Y-52358458D01*
X28303014Y-52358458D02*
X28303014Y-51908458D01*
X28303014Y-51908458D02*
X28238728Y-51779887D01*
X28238728Y-51779887D02*
X28174442Y-51715601D01*
X28174442Y-51715601D02*
X28045871Y-51651315D01*
X28045871Y-51651315D02*
X27917300Y-51651315D01*
X27917300Y-51651315D02*
X27788728Y-51715601D01*
X27788728Y-51715601D02*
X27724442Y-51779887D01*
X27724442Y-51779887D02*
X27660157Y-51908458D01*
X27660157Y-51908458D02*
X27660157Y-52358458D01*
X27338728Y-51072744D02*
X27338728Y-50429887D01*
X26953014Y-51201315D02*
X28303014Y-50751315D01*
X28303014Y-50751315D02*
X26953014Y-50301315D01*
X28303014Y-50044172D02*
X28303014Y-49272744D01*
X26953014Y-49658458D02*
X28303014Y-49658458D01*
X27467300Y-48822744D02*
X27467300Y-47794173D01*
X26953014Y-48308458D02*
X27981585Y-48308458D01*
X41774649Y-57853152D02*
X41774649Y-58519819D01*
X42012744Y-57472200D02*
X42250839Y-58186485D01*
X42250839Y-58186485D02*
X41631792Y-58186485D01*
X37359599Y-58519819D02*
X37359599Y-57519819D01*
X37359599Y-57519819D02*
X37026266Y-58234104D01*
X37026266Y-58234104D02*
X36692933Y-57519819D01*
X36692933Y-57519819D02*
X36692933Y-58519819D01*
X27467300Y-40119887D02*
X27467300Y-39091316D01*
X27853014Y-37869887D02*
X26953014Y-37869887D01*
X28367300Y-38191315D02*
X27403014Y-38512744D01*
X27403014Y-38512744D02*
X27403014Y-37677029D01*
X28303014Y-37355601D02*
X28303014Y-36584173D01*
X26953014Y-36969887D02*
X28303014Y-36969887D01*
X26953014Y-36134173D02*
X28303014Y-36134173D01*
X27660157Y-36134173D02*
X27660157Y-35362744D01*
X26953014Y-35362744D02*
X28303014Y-35362744D01*
X27467300Y-34719887D02*
X27467300Y-33691316D01*
X26953014Y-34205601D02*
X27981585Y-34205601D01*
X43772700Y-33510112D02*
X43772700Y-34538684D01*
X42936985Y-35052970D02*
X42936985Y-35888684D01*
X42936985Y-35888684D02*
X43451271Y-35438684D01*
X43451271Y-35438684D02*
X43451271Y-35631541D01*
X43451271Y-35631541D02*
X43515557Y-35760113D01*
X43515557Y-35760113D02*
X43579842Y-35824398D01*
X43579842Y-35824398D02*
X43708414Y-35888684D01*
X43708414Y-35888684D02*
X44029842Y-35888684D01*
X44029842Y-35888684D02*
X44158414Y-35824398D01*
X44158414Y-35824398D02*
X44222700Y-35760113D01*
X44222700Y-35760113D02*
X44286985Y-35631541D01*
X44286985Y-35631541D02*
X44286985Y-35245827D01*
X44286985Y-35245827D02*
X44222700Y-35117255D01*
X44222700Y-35117255D02*
X44158414Y-35052970D01*
X44286985Y-37238684D02*
X43644128Y-36788684D01*
X44286985Y-36467255D02*
X42936985Y-36467255D01*
X42936985Y-36467255D02*
X42936985Y-36981541D01*
X42936985Y-36981541D02*
X43001271Y-37110112D01*
X43001271Y-37110112D02*
X43065557Y-37174398D01*
X43065557Y-37174398D02*
X43194128Y-37238684D01*
X43194128Y-37238684D02*
X43386985Y-37238684D01*
X43386985Y-37238684D02*
X43515557Y-37174398D01*
X43515557Y-37174398D02*
X43579842Y-37110112D01*
X43579842Y-37110112D02*
X43644128Y-36981541D01*
X43644128Y-36981541D02*
X43644128Y-36467255D01*
X44286985Y-37817255D02*
X42936985Y-37817255D01*
X42936985Y-37817255D02*
X42936985Y-38138684D01*
X42936985Y-38138684D02*
X43001271Y-38331541D01*
X43001271Y-38331541D02*
X43129842Y-38460112D01*
X43129842Y-38460112D02*
X43258414Y-38524398D01*
X43258414Y-38524398D02*
X43515557Y-38588684D01*
X43515557Y-38588684D02*
X43708414Y-38588684D01*
X43708414Y-38588684D02*
X43965557Y-38524398D01*
X43965557Y-38524398D02*
X44094128Y-38460112D01*
X44094128Y-38460112D02*
X44222700Y-38331541D01*
X44222700Y-38331541D02*
X44286985Y-38138684D01*
X44286985Y-38138684D02*
X44286985Y-37817255D01*
X43772700Y-39167255D02*
X43772700Y-40195827D01*
X44286985Y-39681541D02*
X43258414Y-39681541D01*
X34794933Y-58224104D02*
X34318743Y-58224104D01*
X34890171Y-58509819D02*
X34556838Y-57509819D01*
X34556838Y-57509819D02*
X34223505Y-58509819D01*
G36*
X34819887Y-33557570D02*
G01*
X34821220Y-33744260D01*
X35348270Y-33745553D01*
X35875320Y-33746847D01*
X35875320Y-33825563D01*
X35875320Y-33904280D01*
X35347000Y-33904280D01*
X34818680Y-33904280D01*
X34818680Y-34077000D01*
X34818680Y-34249720D01*
X34737400Y-34249720D01*
X34656120Y-34249720D01*
X34656120Y-33810300D01*
X34656120Y-33370880D01*
X34737337Y-33370880D01*
X34818554Y-33370880D01*
X34819887Y-33557570D01*
G37*
G36*
X34818680Y-41216940D02*
G01*
X34818680Y-41402360D01*
X35347128Y-41402360D01*
X35875577Y-41402360D01*
X35874178Y-41482370D01*
X35872780Y-41562380D01*
X35345730Y-41563673D01*
X34818680Y-41564967D01*
X34818680Y-41737792D01*
X34818680Y-41910617D01*
X34738670Y-41909218D01*
X34658660Y-41907820D01*
X34657361Y-41469670D01*
X34656063Y-41031520D01*
X34737371Y-41031520D01*
X34818680Y-41031520D01*
X34818680Y-41216940D01*
G37*
G36*
X35874077Y-32836210D02*
G01*
X35872780Y-33281980D01*
X35795310Y-33283382D01*
X35717840Y-33284784D01*
X35717840Y-32916352D01*
X35717840Y-32547920D01*
X35534960Y-32547920D01*
X35352080Y-32547920D01*
X35352080Y-32837480D01*
X35352080Y-33127040D01*
X35270800Y-33127040D01*
X35189520Y-33127040D01*
X35189520Y-32837480D01*
X35189520Y-32547920D01*
X35004100Y-32547920D01*
X34818680Y-32547920D01*
X34818680Y-32916348D01*
X34818680Y-33284777D01*
X34738670Y-33283378D01*
X34658660Y-33281980D01*
X34657362Y-32836210D01*
X34656064Y-32390440D01*
X35265720Y-32390440D01*
X35875375Y-32390440D01*
X35874077Y-32836210D01*
G37*
G36*
X35875320Y-39548160D02*
G01*
X35875320Y-39995200D01*
X35796580Y-39995200D01*
X35717840Y-39995200D01*
X35717840Y-39629440D01*
X35717840Y-39263680D01*
X35534960Y-39263680D01*
X35352080Y-39263680D01*
X35352080Y-39550700D01*
X35352080Y-39837720D01*
X35270800Y-39837720D01*
X35189520Y-39837720D01*
X35189520Y-39550700D01*
X35189520Y-39263680D01*
X35004100Y-39263680D01*
X34818680Y-39263680D01*
X34818680Y-39629440D01*
X34818680Y-39995200D01*
X34737400Y-39995200D01*
X34656120Y-39995200D01*
X34656120Y-39548160D01*
X34656120Y-39101120D01*
X35265720Y-39101120D01*
X35875320Y-39101120D01*
X35875320Y-39548160D01*
G37*
G36*
X35475270Y-38269620D02*
G01*
X35524695Y-38275604D01*
X35586177Y-38290751D01*
X35644071Y-38313671D01*
X35697278Y-38343720D01*
X35744700Y-38380256D01*
X35785237Y-38422635D01*
X35817793Y-38470213D01*
X35825543Y-38484387D01*
X35842543Y-38520897D01*
X35854294Y-38557133D01*
X35862477Y-38597903D01*
X35864438Y-38614329D01*
X35866545Y-38643453D01*
X35868163Y-38680665D01*
X35869247Y-38724810D01*
X35869747Y-38774730D01*
X35870240Y-38908080D01*
X35263180Y-38908080D01*
X34656120Y-38908080D01*
X34656120Y-38829340D01*
X34656120Y-38750600D01*
X35184440Y-38750600D01*
X35712760Y-38750600D01*
X35712760Y-38695172D01*
X35710875Y-38651845D01*
X35704761Y-38615224D01*
X35693779Y-38583005D01*
X35677296Y-38552629D01*
X35676822Y-38551896D01*
X35657115Y-38526498D01*
X35631563Y-38500508D01*
X35603607Y-38477113D01*
X35576689Y-38459498D01*
X35571582Y-38456951D01*
X35552667Y-38449252D01*
X35528695Y-38441085D01*
X35502571Y-38433284D01*
X35477200Y-38426681D01*
X35455484Y-38422109D01*
X35440328Y-38420400D01*
X35428280Y-38420400D01*
X35428280Y-38343433D01*
X35428280Y-38266467D01*
X35475270Y-38269620D01*
G37*
G36*
X33962253Y-31054519D02*
G01*
X33965660Y-31057204D01*
X33968731Y-31065212D01*
X33972486Y-31080887D01*
X33972879Y-31082536D01*
X33975020Y-31088087D01*
X33978851Y-31092692D01*
X33985220Y-31096429D01*
X33994972Y-31099374D01*
X34008955Y-31101606D01*
X34028015Y-31103201D01*
X34053000Y-31104238D01*
X34084756Y-31104793D01*
X34124130Y-31104944D01*
X34171969Y-31104768D01*
X34229120Y-31104343D01*
X34261502Y-31104064D01*
X34310593Y-31103571D01*
X34350923Y-31102973D01*
X34383382Y-31102159D01*
X34408860Y-31101015D01*
X34428246Y-31099429D01*
X34442430Y-31097289D01*
X34452301Y-31094482D01*
X34458750Y-31090896D01*
X34462666Y-31086418D01*
X34464939Y-31080936D01*
X34466458Y-31074338D01*
X34469824Y-31063040D01*
X34473896Y-31056534D01*
X34475235Y-31059973D01*
X34476473Y-31072085D01*
X34477449Y-31091436D01*
X34478089Y-31116522D01*
X34478320Y-31145840D01*
X34478131Y-31172709D01*
X34477351Y-31200981D01*
X34476028Y-31221035D01*
X34474233Y-31232481D01*
X34472032Y-31234934D01*
X34469497Y-31228004D01*
X34466695Y-31211304D01*
X34465986Y-31205510D01*
X34464945Y-31197848D01*
X34463198Y-31191525D01*
X34459883Y-31186408D01*
X34454144Y-31182362D01*
X34445119Y-31179254D01*
X34431951Y-31176950D01*
X34413779Y-31175315D01*
X34389744Y-31174217D01*
X34358987Y-31173520D01*
X34320649Y-31173092D01*
X34273870Y-31172797D01*
X34217792Y-31172502D01*
X34180181Y-31172353D01*
X34134959Y-31172340D01*
X34093584Y-31172513D01*
X34057109Y-31172856D01*
X34026585Y-31173355D01*
X34003065Y-31173998D01*
X33987600Y-31174769D01*
X33981242Y-31175656D01*
X33980928Y-31175873D01*
X33975237Y-31184036D01*
X33970952Y-31196873D01*
X33970681Y-31198128D01*
X33966668Y-31209729D01*
X33961952Y-31215515D01*
X33960953Y-31215238D01*
X33958901Y-31208818D01*
X33957480Y-31193796D01*
X33956653Y-31169656D01*
X33956386Y-31135885D01*
X33956498Y-31117882D01*
X33957083Y-31092610D01*
X33958086Y-31072494D01*
X33959414Y-31059201D01*
X33960972Y-31054400D01*
X33962253Y-31054519D01*
G37*
G36*
X33966842Y-37950389D02*
G01*
X33969475Y-37960660D01*
X33969741Y-37963184D01*
X33970546Y-37970469D01*
X33971938Y-37976493D01*
X33974785Y-37981374D01*
X33979958Y-37985234D01*
X33988328Y-37988191D01*
X34000765Y-37990366D01*
X34018139Y-37991877D01*
X34041321Y-37992845D01*
X34071182Y-37993390D01*
X34108591Y-37993631D01*
X34154419Y-37993687D01*
X34209536Y-37993680D01*
X34211460Y-37993679D01*
X34268983Y-37993640D01*
X34317194Y-37993452D01*
X34356915Y-37993006D01*
X34388969Y-37992193D01*
X34414179Y-37990905D01*
X34433366Y-37989031D01*
X34447353Y-37986462D01*
X34456963Y-37983091D01*
X34463019Y-37978807D01*
X34466342Y-37973501D01*
X34467756Y-37967065D01*
X34468082Y-37959390D01*
X34469244Y-37952267D01*
X34473240Y-37947960D01*
X34474222Y-37949119D01*
X34475959Y-37958718D01*
X34477245Y-37977467D01*
X34478045Y-38004686D01*
X34478320Y-38039699D01*
X34478275Y-38055495D01*
X34477787Y-38087999D01*
X34476776Y-38111143D01*
X34475255Y-38124664D01*
X34473240Y-38128300D01*
X34469750Y-38122101D01*
X34468160Y-38110459D01*
X34465134Y-38089492D01*
X34455156Y-38074163D01*
X34438173Y-38066154D01*
X34434815Y-38065722D01*
X34421166Y-38064919D01*
X34399114Y-38064187D01*
X34369823Y-38063544D01*
X34334455Y-38063011D01*
X34294172Y-38062606D01*
X34250137Y-38062349D01*
X34203514Y-38062260D01*
X34151903Y-38062263D01*
X34106236Y-38062344D01*
X34069020Y-38062613D01*
X34039377Y-38063182D01*
X34016428Y-38064161D01*
X33999292Y-38065663D01*
X33987091Y-38067797D01*
X33978947Y-38070675D01*
X33973979Y-38074408D01*
X33971308Y-38079107D01*
X33970056Y-38084883D01*
X33969343Y-38091848D01*
X33969222Y-38092968D01*
X33966592Y-38103205D01*
X33962700Y-38106710D01*
X33962214Y-38106332D01*
X33960302Y-38098740D01*
X33958855Y-38082252D01*
X33957939Y-38057896D01*
X33957620Y-38026700D01*
X33957636Y-38019165D01*
X33958095Y-37989412D01*
X33959135Y-37966731D01*
X33960692Y-37952147D01*
X33962700Y-37946690D01*
X33962830Y-37946662D01*
X33966842Y-37950389D01*
G37*
G36*
X33963614Y-40507682D02*
G01*
X33967636Y-40513545D01*
X33970799Y-40525376D01*
X33971502Y-40529599D01*
X33974366Y-40541253D01*
X33979547Y-40547914D01*
X33989637Y-40551655D01*
X34007223Y-40554549D01*
X34007560Y-40554596D01*
X34021315Y-40555709D01*
X34043619Y-40556620D01*
X34072927Y-40557330D01*
X34107689Y-40557838D01*
X34146358Y-40558144D01*
X34187386Y-40558248D01*
X34229224Y-40558149D01*
X34270326Y-40557848D01*
X34309143Y-40557343D01*
X34344126Y-40556635D01*
X34373729Y-40555723D01*
X34396404Y-40554608D01*
X34413694Y-40553339D01*
X34437272Y-40550595D01*
X34453019Y-40546608D01*
X34462423Y-40540660D01*
X34466974Y-40532033D01*
X34468160Y-40520009D01*
X34469310Y-40512595D01*
X34473240Y-40508280D01*
X34474222Y-40509439D01*
X34475959Y-40519038D01*
X34477245Y-40537787D01*
X34478045Y-40565006D01*
X34478320Y-40600019D01*
X34478275Y-40615815D01*
X34477787Y-40648319D01*
X34476776Y-40671463D01*
X34475255Y-40684984D01*
X34473240Y-40688620D01*
X34472925Y-40688393D01*
X34469549Y-40681016D01*
X34468160Y-40668562D01*
X34465422Y-40653436D01*
X34458452Y-40639652D01*
X34454578Y-40635445D01*
X34447942Y-40631124D01*
X34437935Y-40628222D01*
X34422295Y-40626160D01*
X34398762Y-40624359D01*
X34392733Y-40624001D01*
X34369256Y-40623044D01*
X34339107Y-40622272D01*
X34303814Y-40621685D01*
X34264909Y-40621282D01*
X34223921Y-40621061D01*
X34182381Y-40621023D01*
X34141818Y-40621165D01*
X34103763Y-40621489D01*
X34069746Y-40621992D01*
X34041297Y-40622674D01*
X34019946Y-40623533D01*
X34007223Y-40624570D01*
X34002268Y-40625285D01*
X33986883Y-40628096D01*
X33978293Y-40632050D01*
X33973840Y-40639088D01*
X33970870Y-40651152D01*
X33970679Y-40652048D01*
X33966676Y-40663607D01*
X33961856Y-40669427D01*
X33960516Y-40668838D01*
X33958623Y-40661927D01*
X33957418Y-40646900D01*
X33956860Y-40623080D01*
X33956906Y-40589791D01*
X33957028Y-40579321D01*
X33957779Y-40549655D01*
X33959022Y-40527133D01*
X33960685Y-40512757D01*
X33962700Y-40507534D01*
X33963614Y-40507682D01*
G37*
G36*
X34293919Y-32544552D02*
G01*
X34344918Y-32563716D01*
X34346250Y-32564357D01*
X34384299Y-32588153D01*
X34418423Y-32619875D01*
X34447187Y-32657647D01*
X34469154Y-32699596D01*
X34482889Y-32743847D01*
X34484832Y-32755701D01*
X34487076Y-32786634D01*
X34486709Y-32821427D01*
X34483950Y-32856611D01*
X34479018Y-32888721D01*
X34472133Y-32914287D01*
X34471542Y-32915879D01*
X34448176Y-32965667D01*
X34418171Y-33007866D01*
X34381628Y-33042357D01*
X34338648Y-33069022D01*
X34295637Y-33086441D01*
X34245634Y-33097969D01*
X34196004Y-33100630D01*
X34147907Y-33094585D01*
X34102504Y-33079992D01*
X34060954Y-33057011D01*
X34024419Y-33025802D01*
X34015330Y-33015815D01*
X33985793Y-32974452D01*
X33964872Y-32928238D01*
X33952425Y-32876783D01*
X33948308Y-32819700D01*
X33949262Y-32796134D01*
X33974220Y-32796134D01*
X33976334Y-32843761D01*
X33986617Y-32884579D01*
X34005894Y-32922818D01*
X34033053Y-32956429D01*
X34067131Y-32984445D01*
X34107161Y-33005899D01*
X34152180Y-33019826D01*
X34178150Y-33023443D01*
X34211727Y-33025135D01*
X34247618Y-33024664D01*
X34281914Y-33022089D01*
X34310704Y-33017468D01*
X34344074Y-33006706D01*
X34380080Y-32987036D01*
X34410678Y-32961139D01*
X34434373Y-32930324D01*
X34449669Y-32895900D01*
X34455653Y-32871559D01*
X34459704Y-32826117D01*
X34453832Y-32781753D01*
X34437961Y-32737428D01*
X34425752Y-32715527D01*
X34398535Y-32682146D01*
X34364104Y-32653769D01*
X34323990Y-32631564D01*
X34279727Y-32616702D01*
X34251994Y-32612068D01*
X34217484Y-32609549D01*
X34181448Y-32609493D01*
X34147681Y-32611898D01*
X34119977Y-32616764D01*
X34086864Y-32628239D01*
X34049586Y-32649800D01*
X34019178Y-32678167D01*
X33996146Y-32712541D01*
X33980992Y-32752129D01*
X33974220Y-32796134D01*
X33949262Y-32796134D01*
X33949852Y-32781571D01*
X33957439Y-32734606D01*
X33971960Y-32692958D01*
X33994085Y-32654864D01*
X34024480Y-32618559D01*
X34053347Y-32592322D01*
X34096548Y-32564134D01*
X34143103Y-32545110D01*
X34181448Y-32537515D01*
X34192114Y-32535402D01*
X34242685Y-32535165D01*
X34293919Y-32544552D01*
G37*
G36*
X34039611Y-34042287D02*
G01*
X34036193Y-34047280D01*
X34023562Y-34054526D01*
X34021123Y-34055723D01*
X34009894Y-34062958D01*
X34001737Y-34072564D01*
X33996193Y-34086093D01*
X33992801Y-34105097D01*
X33991103Y-34131127D01*
X33990640Y-34165736D01*
X33990640Y-34234480D01*
X34211289Y-34234480D01*
X34266810Y-34234445D01*
X34315441Y-34234266D01*
X34355530Y-34233833D01*
X34387902Y-34233037D01*
X34413382Y-34231768D01*
X34432796Y-34229918D01*
X34446967Y-34227378D01*
X34456723Y-34224037D01*
X34462886Y-34219787D01*
X34466284Y-34214518D01*
X34467741Y-34208122D01*
X34468082Y-34200489D01*
X34469115Y-34193304D01*
X34473240Y-34186220D01*
X34474232Y-34186685D01*
X34475999Y-34195013D01*
X34477279Y-34213119D01*
X34478057Y-34240752D01*
X34478320Y-34277660D01*
X34478262Y-34296101D01*
X34477756Y-34328692D01*
X34476741Y-34351890D01*
X34475231Y-34365443D01*
X34473240Y-34369100D01*
X34469750Y-34362901D01*
X34468160Y-34351259D01*
X34468159Y-34351059D01*
X34465365Y-34332589D01*
X34458228Y-34316792D01*
X34448421Y-34307387D01*
X34444783Y-34306801D01*
X34431671Y-34305938D01*
X34410220Y-34305071D01*
X34381503Y-34304227D01*
X34346593Y-34303434D01*
X34306562Y-34302716D01*
X34262483Y-34302101D01*
X34215430Y-34301616D01*
X33990640Y-34299695D01*
X33990668Y-34362337D01*
X33991058Y-34387017D01*
X33992187Y-34411468D01*
X33993877Y-34431354D01*
X33995945Y-34443880D01*
X34003549Y-34460497D01*
X34017437Y-34473590D01*
X34034950Y-34478320D01*
X34042207Y-34479381D01*
X34046520Y-34483088D01*
X34044264Y-34485798D01*
X34034086Y-34489237D01*
X34017981Y-34491758D01*
X33998455Y-34493012D01*
X33978016Y-34492647D01*
X33952692Y-34491020D01*
X33955156Y-34468160D01*
X33955656Y-34460913D01*
X33956276Y-34442873D01*
X33956774Y-34417303D01*
X33957150Y-34385761D01*
X33957404Y-34349802D01*
X33957536Y-34310982D01*
X33957546Y-34270858D01*
X33957436Y-34230986D01*
X33957205Y-34192921D01*
X33956853Y-34158221D01*
X33956382Y-34128440D01*
X33955790Y-34105136D01*
X33955080Y-34089865D01*
X33952540Y-34054470D01*
X33992644Y-34045134D01*
X34002034Y-34043084D01*
X34021788Y-34039963D01*
X34034562Y-34039773D01*
X34039611Y-34042287D01*
G37*
G36*
X34455863Y-40046800D02*
G01*
X34456875Y-40047040D01*
X34467146Y-40054978D01*
X34476122Y-40072224D01*
X34483400Y-40098030D01*
X34484683Y-40106887D01*
X34486062Y-40126185D01*
X34486741Y-40150153D01*
X34486586Y-40175540D01*
X34486494Y-40179078D01*
X34485279Y-40206196D01*
X34483067Y-40226307D01*
X34479415Y-40242239D01*
X34473883Y-40256820D01*
X34467527Y-40269547D01*
X34445537Y-40299537D01*
X34417659Y-40321839D01*
X34384937Y-40335755D01*
X34348414Y-40340590D01*
X34344748Y-40340564D01*
X34314529Y-40337511D01*
X34286774Y-40328814D01*
X34260338Y-40313679D01*
X34234076Y-40291308D01*
X34206846Y-40260906D01*
X34177502Y-40221676D01*
X34166534Y-40206224D01*
X34142222Y-40173874D01*
X34121219Y-40149328D01*
X34102529Y-40131729D01*
X34085161Y-40120219D01*
X34068120Y-40113942D01*
X34050413Y-40112040D01*
X34025960Y-40116290D01*
X34004916Y-40129091D01*
X33988996Y-40149518D01*
X33978918Y-40176639D01*
X33975400Y-40209522D01*
X33975908Y-40224094D01*
X33981285Y-40255771D01*
X33992118Y-40280944D01*
X34007897Y-40298657D01*
X34028107Y-40307953D01*
X34040119Y-40311041D01*
X34049221Y-40315356D01*
X34049029Y-40319235D01*
X34040056Y-40322384D01*
X34022814Y-40324511D01*
X33997814Y-40325322D01*
X33956728Y-40325400D01*
X33950238Y-40268250D01*
X33947233Y-40223858D01*
X33949697Y-40180721D01*
X33958554Y-40144478D01*
X33973973Y-40114462D01*
X33996128Y-40090009D01*
X34007192Y-40081535D01*
X34037250Y-40066744D01*
X34069515Y-40061204D01*
X34102719Y-40064846D01*
X34135594Y-40077601D01*
X34166874Y-40099398D01*
X34169799Y-40102065D01*
X34183762Y-40116398D01*
X34201235Y-40136096D01*
X34220273Y-40158915D01*
X34238935Y-40182613D01*
X34246360Y-40192298D01*
X34271417Y-40223723D01*
X34292647Y-40247601D01*
X34311273Y-40264781D01*
X34328517Y-40276113D01*
X34345602Y-40282447D01*
X34363753Y-40284633D01*
X34384193Y-40283521D01*
X34406754Y-40278101D01*
X34429636Y-40264053D01*
X34446331Y-40242327D01*
X34456529Y-40213355D01*
X34459921Y-40177569D01*
X34457508Y-40147156D01*
X34448228Y-40115323D01*
X34432284Y-40090502D01*
X34409995Y-40073160D01*
X34381681Y-40063760D01*
X34377151Y-40062888D01*
X34365959Y-40059542D01*
X34361480Y-40056169D01*
X34364662Y-40054402D01*
X34375630Y-40052084D01*
X34391864Y-40049832D01*
X34410685Y-40047911D01*
X34429412Y-40046588D01*
X34445365Y-40046129D01*
X34455863Y-40046800D01*
G37*
G36*
X34038812Y-40812938D02*
G01*
X34038689Y-40814505D01*
X34033186Y-40820754D01*
X34022357Y-40828843D01*
X34016256Y-40832973D01*
X34006383Y-40841293D01*
X33999429Y-40851005D01*
X33994889Y-40863861D01*
X33992260Y-40881612D01*
X33991036Y-40906011D01*
X33990714Y-40938810D01*
X33990640Y-41011200D01*
X34184950Y-41010976D01*
X34239781Y-41010851D01*
X34292355Y-41010508D01*
X34336237Y-41009849D01*
X34372204Y-41008768D01*
X34401033Y-41007158D01*
X34423500Y-41004912D01*
X34440380Y-41001924D01*
X34452451Y-40998088D01*
X34460488Y-40993296D01*
X34465267Y-40987444D01*
X34467566Y-40980423D01*
X34468160Y-40972129D01*
X34469310Y-40964715D01*
X34473240Y-40960400D01*
X34474222Y-40961559D01*
X34475959Y-40971158D01*
X34477245Y-40989907D01*
X34478045Y-41017126D01*
X34478320Y-41052139D01*
X34478131Y-41078991D01*
X34477349Y-41107231D01*
X34476021Y-41127197D01*
X34474217Y-41138512D01*
X34472004Y-41140800D01*
X34469451Y-41133683D01*
X34466625Y-41116785D01*
X34465971Y-41111643D01*
X34464785Y-41103420D01*
X34462883Y-41096621D01*
X34459409Y-41091112D01*
X34453501Y-41086758D01*
X34444303Y-41083422D01*
X34430956Y-41080970D01*
X34412600Y-41079266D01*
X34388378Y-41078176D01*
X34357430Y-41077563D01*
X34318899Y-41077293D01*
X34271925Y-41077230D01*
X34215650Y-41077240D01*
X33989665Y-41077240D01*
X33991422Y-41147997D01*
X33991896Y-41165310D01*
X33992886Y-41189368D01*
X33994298Y-41206256D01*
X33996413Y-41217894D01*
X33999512Y-41226198D01*
X34003876Y-41233087D01*
X34004204Y-41233519D01*
X34016002Y-41244138D01*
X34029276Y-41250009D01*
X34034707Y-41251110D01*
X34043043Y-41254283D01*
X34042509Y-41257394D01*
X34034046Y-41260073D01*
X34018593Y-41261951D01*
X33997089Y-41262660D01*
X33952739Y-41262660D01*
X33955179Y-41239800D01*
X33955672Y-41234170D01*
X33956648Y-41215008D01*
X33957358Y-41188877D01*
X33957814Y-41157205D01*
X33958032Y-41121418D01*
X33958024Y-41082944D01*
X33957803Y-41043211D01*
X33957385Y-41003646D01*
X33956781Y-40965676D01*
X33956006Y-40930728D01*
X33955073Y-40900231D01*
X33953996Y-40875610D01*
X33952789Y-40858295D01*
X33951465Y-40849712D01*
X33948006Y-40838486D01*
X33949336Y-40832353D01*
X33956545Y-40828113D01*
X33956623Y-40828079D01*
X33968850Y-40823942D01*
X33985453Y-40819752D01*
X34003593Y-40816032D01*
X34020427Y-40813307D01*
X34033114Y-40812101D01*
X34038812Y-40812938D01*
G37*
G36*
X35875320Y-35174280D02*
G01*
X35875320Y-35255560D01*
X35613700Y-35255560D01*
X35352080Y-35255560D01*
X35352080Y-35416983D01*
X35352057Y-35431935D01*
X35351772Y-35473521D01*
X35351191Y-35513273D01*
X35350359Y-35549526D01*
X35349318Y-35580615D01*
X35348112Y-35604875D01*
X35346784Y-35620640D01*
X35345307Y-35631139D01*
X35331570Y-35687069D01*
X35308427Y-35739176D01*
X35275868Y-35787477D01*
X35233885Y-35831987D01*
X35209498Y-35852220D01*
X35161408Y-35882406D01*
X35109527Y-35903906D01*
X35055018Y-35916592D01*
X34999041Y-35920334D01*
X34942758Y-35915002D01*
X34887331Y-35900468D01*
X34833920Y-35876600D01*
X34825921Y-35871938D01*
X34795957Y-35850507D01*
X34765437Y-35823394D01*
X34736793Y-35793111D01*
X34712459Y-35762169D01*
X34694867Y-35733080D01*
X34691091Y-35725397D01*
X34684199Y-35711184D01*
X34678384Y-35698279D01*
X34673549Y-35685727D01*
X34669595Y-35672573D01*
X34666424Y-35657860D01*
X34663938Y-35640633D01*
X34662038Y-35619936D01*
X34660626Y-35594814D01*
X34659603Y-35564310D01*
X34658872Y-35527470D01*
X34658333Y-35483338D01*
X34657889Y-35430957D01*
X34657441Y-35369373D01*
X34656615Y-35255560D01*
X34818680Y-35255560D01*
X34818782Y-35411770D01*
X34818891Y-35453377D01*
X34819321Y-35499234D01*
X34820165Y-35536929D01*
X34821517Y-35567588D01*
X34823472Y-35592339D01*
X34826125Y-35612308D01*
X34829570Y-35628621D01*
X34833902Y-35642405D01*
X34839216Y-35654788D01*
X34851334Y-35674794D01*
X34872992Y-35700489D01*
X34898843Y-35723721D01*
X34925814Y-35741416D01*
X34936610Y-35746805D01*
X34949082Y-35751612D01*
X34962425Y-35754346D01*
X34979733Y-35755580D01*
X35004100Y-35755885D01*
X35013106Y-35755862D01*
X35035818Y-35755228D01*
X35052353Y-35753373D01*
X35065721Y-35749823D01*
X35078931Y-35744104D01*
X35082287Y-35742406D01*
X35117440Y-35718886D01*
X35147602Y-35688218D01*
X35170314Y-35652862D01*
X35186980Y-35619027D01*
X35188543Y-35437293D01*
X35190106Y-35255560D01*
X35004393Y-35255560D01*
X34818680Y-35255560D01*
X34656615Y-35255560D01*
X34655484Y-35099646D01*
X34702302Y-35096323D01*
X34703135Y-35096269D01*
X34715633Y-35095826D01*
X34737486Y-35095401D01*
X34767974Y-35094997D01*
X34806378Y-35094620D01*
X34818680Y-35094526D01*
X34851977Y-35094272D01*
X34904053Y-35093958D01*
X34961886Y-35093681D01*
X35024756Y-35093446D01*
X35091944Y-35093257D01*
X35162731Y-35093116D01*
X35236396Y-35093029D01*
X35312220Y-35093000D01*
X35875320Y-35093000D01*
X35875320Y-35174280D01*
G37*
G36*
X34040325Y-35110784D02*
G01*
X34041288Y-35112613D01*
X34037873Y-35116897D01*
X34029516Y-35120731D01*
X34014474Y-35130937D01*
X34001883Y-35143026D01*
X33995171Y-35154017D01*
X33994859Y-35155405D01*
X33993550Y-35167035D01*
X33992421Y-35186001D01*
X33991582Y-35210006D01*
X33991146Y-35236753D01*
X33990640Y-35306846D01*
X34218712Y-35305333D01*
X34270815Y-35304970D01*
X34316147Y-35304591D01*
X34353111Y-35304171D01*
X34382623Y-35303665D01*
X34405600Y-35303032D01*
X34422955Y-35302227D01*
X34435606Y-35301210D01*
X34444468Y-35299935D01*
X34450455Y-35298361D01*
X34454485Y-35296444D01*
X34457472Y-35294142D01*
X34464522Y-35284856D01*
X34468160Y-35272852D01*
X34469211Y-35265149D01*
X34473240Y-35258100D01*
X34474116Y-35258366D01*
X34475932Y-35266044D01*
X34477248Y-35283501D01*
X34478049Y-35310474D01*
X34478320Y-35346700D01*
X34478115Y-35374234D01*
X34477494Y-35399923D01*
X34476533Y-35420254D01*
X34475310Y-35433627D01*
X34473900Y-35438440D01*
X34472383Y-35437257D01*
X34469260Y-35428862D01*
X34466845Y-35415056D01*
X34466200Y-35408629D01*
X34465289Y-35400468D01*
X34463661Y-35393739D01*
X34460456Y-35388296D01*
X34454816Y-35383996D01*
X34445884Y-35380695D01*
X34432800Y-35378247D01*
X34414707Y-35376510D01*
X34390747Y-35375338D01*
X34360060Y-35374588D01*
X34321790Y-35374116D01*
X34275077Y-35373777D01*
X34219063Y-35373426D01*
X33990640Y-35371913D01*
X33990668Y-35431846D01*
X33990669Y-35432976D01*
X33991518Y-35470474D01*
X33994224Y-35499116D01*
X33999200Y-35520073D01*
X34006862Y-35534516D01*
X34017621Y-35543616D01*
X34031892Y-35548544D01*
X34042147Y-35551723D01*
X34046520Y-35555377D01*
X34043158Y-35556912D01*
X34032116Y-35558763D01*
X34016056Y-35560466D01*
X33997760Y-35561819D01*
X33980013Y-35562624D01*
X33965595Y-35562680D01*
X33957290Y-35561788D01*
X33954890Y-35557807D01*
X33954381Y-35545174D01*
X33956411Y-35523347D01*
X33956692Y-35520826D01*
X33957863Y-35503412D01*
X33958695Y-35478732D01*
X33959207Y-35448238D01*
X33959419Y-35413383D01*
X33959351Y-35375619D01*
X33959024Y-35336397D01*
X33958458Y-35297170D01*
X33957672Y-35259390D01*
X33956687Y-35224509D01*
X33955522Y-35193979D01*
X33954199Y-35169252D01*
X33952736Y-35151781D01*
X33951155Y-35143017D01*
X33948509Y-35135562D01*
X33949866Y-35129044D01*
X33959201Y-35124192D01*
X33967189Y-35121466D01*
X33984072Y-35117059D01*
X34002727Y-35113308D01*
X34020254Y-35110692D01*
X34033754Y-35109691D01*
X34040325Y-35110784D01*
G37*
G36*
X35364199Y-30345978D02*
G01*
X35438440Y-30361042D01*
X35443481Y-30362436D01*
X35481290Y-30375191D01*
X35522341Y-30392369D01*
X35563331Y-30412375D01*
X35600956Y-30433613D01*
X35631915Y-30454489D01*
X35656452Y-30474745D01*
X35686284Y-30502608D01*
X35716566Y-30533733D01*
X35745143Y-30565794D01*
X35769858Y-30596467D01*
X35788557Y-30623427D01*
X35811686Y-30665412D01*
X35838555Y-30729264D01*
X35858238Y-30796590D01*
X35869739Y-30864432D01*
X35870658Y-30877382D01*
X35871612Y-30899863D01*
X35872492Y-30929714D01*
X35873266Y-30965482D01*
X35873903Y-31005715D01*
X35874373Y-31048962D01*
X35874644Y-31093770D01*
X35875320Y-31283000D01*
X35796580Y-31283000D01*
X35717840Y-31283000D01*
X35717840Y-31103027D01*
X35717753Y-31070374D01*
X35717384Y-31027587D01*
X35716759Y-30987439D01*
X35715915Y-30951434D01*
X35714888Y-30921075D01*
X35713716Y-30897869D01*
X35712435Y-30883317D01*
X35709067Y-30862491D01*
X35692225Y-30799978D01*
X35665862Y-30740457D01*
X35630274Y-30684518D01*
X35585760Y-30632748D01*
X35544177Y-30594711D01*
X35492481Y-30558141D01*
X35437809Y-30530904D01*
X35379381Y-30512697D01*
X35316415Y-30503220D01*
X35248128Y-30502168D01*
X35219954Y-30503843D01*
X35176573Y-30509035D01*
X35138114Y-30517791D01*
X35101408Y-30530918D01*
X35063288Y-30549221D01*
X35027054Y-30570521D01*
X34972990Y-30611482D01*
X34926122Y-30659350D01*
X34886920Y-30713536D01*
X34855852Y-30773449D01*
X34833387Y-30838500D01*
X34830909Y-30848264D01*
X34828578Y-30859239D01*
X34826672Y-30871286D01*
X34825130Y-30885543D01*
X34823887Y-30903143D01*
X34822883Y-30925224D01*
X34822052Y-30952922D01*
X34821334Y-30987371D01*
X34820665Y-31029708D01*
X34819982Y-31081070D01*
X34817432Y-31283000D01*
X34736270Y-31283000D01*
X34655107Y-31283000D01*
X34657608Y-31070910D01*
X34657725Y-31061056D01*
X34658438Y-31006483D01*
X34659232Y-30960684D01*
X34660222Y-30922468D01*
X34661523Y-30890644D01*
X34663251Y-30864021D01*
X34665521Y-30841409D01*
X34668450Y-30821616D01*
X34672153Y-30803452D01*
X34676745Y-30785725D01*
X34682341Y-30767245D01*
X34689058Y-30746821D01*
X34702577Y-30711486D01*
X34723536Y-30666865D01*
X34747532Y-30623995D01*
X34772393Y-30587040D01*
X34772620Y-30586739D01*
X34792328Y-30562875D01*
X34817396Y-30535791D01*
X34845496Y-30507732D01*
X34874303Y-30480939D01*
X34901492Y-30457655D01*
X34924737Y-30440124D01*
X34934942Y-30433379D01*
X34997850Y-30398680D01*
X35066001Y-30371759D01*
X35138053Y-30352822D01*
X35212664Y-30342075D01*
X35288493Y-30339725D01*
X35364199Y-30345978D01*
G37*
G36*
X33964633Y-38243789D02*
G01*
X33968329Y-38252474D01*
X33971338Y-38266535D01*
X33972225Y-38271843D01*
X33978092Y-38289554D01*
X33988619Y-38301825D01*
X33995584Y-38305735D01*
X34011098Y-38313149D01*
X34034077Y-38323557D01*
X34063534Y-38336528D01*
X34098479Y-38351631D01*
X34137924Y-38368436D01*
X34180880Y-38386512D01*
X34226361Y-38405428D01*
X34269705Y-38423383D01*
X34313203Y-38441465D01*
X34353407Y-38458242D01*
X34389300Y-38473287D01*
X34419865Y-38486172D01*
X34444087Y-38496470D01*
X34460947Y-38503754D01*
X34469430Y-38507595D01*
X34473896Y-38510019D01*
X34484316Y-38517606D01*
X34488480Y-38523912D01*
X34487360Y-38526369D01*
X34483185Y-38530025D01*
X34475317Y-38534978D01*
X34463124Y-38541523D01*
X34445978Y-38549953D01*
X34423247Y-38560560D01*
X34394302Y-38573639D01*
X34358512Y-38589484D01*
X34315248Y-38608387D01*
X34263879Y-38630643D01*
X34203775Y-38656545D01*
X34193934Y-38660781D01*
X34152899Y-38678520D01*
X34114426Y-38695264D01*
X34079644Y-38710514D01*
X34049685Y-38723772D01*
X34025678Y-38734537D01*
X34008753Y-38742310D01*
X34000041Y-38746591D01*
X33989402Y-38753561D01*
X33975516Y-38769604D01*
X33969261Y-38790842D01*
X33967038Y-38799078D01*
X33962186Y-38804983D01*
X33961709Y-38805021D01*
X33959392Y-38800414D01*
X33957755Y-38787215D01*
X33956755Y-38764908D01*
X33956349Y-38732974D01*
X33956605Y-38703622D01*
X33957651Y-38679147D01*
X33959408Y-38662834D01*
X33961788Y-38655179D01*
X33964700Y-38656683D01*
X33968055Y-38667842D01*
X33970968Y-38680212D01*
X33974637Y-38689918D01*
X33979693Y-38693931D01*
X33987965Y-38694720D01*
X33990409Y-38694438D01*
X34002730Y-38691235D01*
X34022642Y-38684861D01*
X34048840Y-38675815D01*
X34080019Y-38664598D01*
X34114876Y-38651709D01*
X34152107Y-38637648D01*
X34190406Y-38622916D01*
X34228470Y-38608012D01*
X34264995Y-38593436D01*
X34298676Y-38579689D01*
X34328209Y-38567270D01*
X34352290Y-38556679D01*
X34369614Y-38548416D01*
X34387488Y-38539247D01*
X34186718Y-38461425D01*
X34163221Y-38452357D01*
X34121726Y-38436541D01*
X34083566Y-38422248D01*
X34049761Y-38409845D01*
X34021329Y-38399698D01*
X33999292Y-38392176D01*
X33984668Y-38387644D01*
X33978477Y-38386470D01*
X33978046Y-38386662D01*
X33972556Y-38393808D01*
X33969393Y-38406138D01*
X33969206Y-38407816D01*
X33966535Y-38418138D01*
X33962700Y-38421674D01*
X33961777Y-38420405D01*
X33960032Y-38410631D01*
X33958725Y-38391974D01*
X33957904Y-38365309D01*
X33957620Y-38331510D01*
X33957671Y-38316141D01*
X33958188Y-38285048D01*
X33959226Y-38261907D01*
X33960744Y-38247449D01*
X33962700Y-38242410D01*
X33964633Y-38243789D01*
G37*
G36*
X35288770Y-40003355D02*
G01*
X35321442Y-40003534D01*
X35346819Y-40004037D01*
X35366786Y-40005021D01*
X35383228Y-40006645D01*
X35398030Y-40009068D01*
X35413076Y-40012447D01*
X35430251Y-40016941D01*
X35457387Y-40025255D01*
X35504328Y-40043337D01*
X35551807Y-40065608D01*
X35596272Y-40090347D01*
X35634175Y-40115831D01*
X35654993Y-40132490D01*
X35688489Y-40162569D01*
X35721093Y-40195399D01*
X35750206Y-40228311D01*
X35773226Y-40258633D01*
X35776737Y-40263879D01*
X35810037Y-40322335D01*
X35837250Y-40386723D01*
X35857413Y-40454403D01*
X35869563Y-40522733D01*
X35870532Y-40535917D01*
X35871438Y-40558328D01*
X35872206Y-40588099D01*
X35872812Y-40623797D01*
X35873232Y-40663989D01*
X35873441Y-40707241D01*
X35873415Y-40752120D01*
X35872780Y-40942620D01*
X35795749Y-40944019D01*
X35718719Y-40945419D01*
X35716475Y-40738279D01*
X35716045Y-40701183D01*
X35715371Y-40653466D01*
X35714618Y-40614211D01*
X35713740Y-40582399D01*
X35712695Y-40557013D01*
X35711436Y-40537034D01*
X35709918Y-40521444D01*
X35708097Y-40509226D01*
X35705927Y-40499360D01*
X35700181Y-40479287D01*
X35675885Y-40417578D01*
X35643234Y-40360410D01*
X35603054Y-40308624D01*
X35556171Y-40263057D01*
X35503412Y-40224548D01*
X35445602Y-40193937D01*
X35383568Y-40172061D01*
X35374517Y-40169907D01*
X35344580Y-40165192D01*
X35308913Y-40162094D01*
X35270657Y-40160684D01*
X35232949Y-40161032D01*
X35198931Y-40163210D01*
X35171740Y-40167287D01*
X35111458Y-40185500D01*
X35052740Y-40213291D01*
X34998357Y-40249562D01*
X34949178Y-40293638D01*
X34906071Y-40344841D01*
X34869906Y-40402494D01*
X34863488Y-40414858D01*
X34853017Y-40437288D01*
X34844269Y-40460018D01*
X34837099Y-40484141D01*
X34831358Y-40510753D01*
X34826901Y-40540949D01*
X34823580Y-40575824D01*
X34821249Y-40616471D01*
X34819760Y-40663986D01*
X34818967Y-40719464D01*
X34818723Y-40783998D01*
X34818680Y-40945417D01*
X34738670Y-40944018D01*
X34658660Y-40942620D01*
X34658781Y-40736880D01*
X34658853Y-40692445D01*
X34659145Y-40641835D01*
X34659765Y-40599247D01*
X34660825Y-40563469D01*
X34662441Y-40533284D01*
X34664724Y-40507477D01*
X34667791Y-40484834D01*
X34671753Y-40464140D01*
X34676724Y-40444180D01*
X34682819Y-40423738D01*
X34690151Y-40401600D01*
X34714249Y-40342673D01*
X34750321Y-40278337D01*
X34794448Y-40218622D01*
X34845767Y-40164325D01*
X34903414Y-40116245D01*
X34966527Y-40075179D01*
X35034243Y-40041925D01*
X35105700Y-40017282D01*
X35116659Y-40014314D01*
X35132292Y-40010429D01*
X35146799Y-40007585D01*
X35162059Y-40005621D01*
X35179953Y-40004375D01*
X35202364Y-40003687D01*
X35231173Y-40003395D01*
X35268260Y-40003337D01*
X35288770Y-40003355D01*
G37*
G36*
X34442725Y-28139653D02*
G01*
X34457714Y-28141125D01*
X34465652Y-28143586D01*
X34469236Y-28149192D01*
X34474706Y-28162999D01*
X34480618Y-28181972D01*
X34486160Y-28203467D01*
X34490524Y-28224840D01*
X34491564Y-28238676D01*
X34490945Y-28261084D01*
X34488655Y-28286474D01*
X34485049Y-28311100D01*
X34480479Y-28331217D01*
X34479383Y-28334748D01*
X34463513Y-28369155D01*
X34440386Y-28399016D01*
X34411894Y-28421830D01*
X34392385Y-28432631D01*
X34366026Y-28442853D01*
X34338475Y-28447384D01*
X34305600Y-28447210D01*
X34296791Y-28446523D01*
X34271259Y-28442233D01*
X34247238Y-28434039D01*
X34223615Y-28421133D01*
X34199274Y-28402709D01*
X34173102Y-28377960D01*
X34143983Y-28346081D01*
X34110804Y-28306265D01*
X34105737Y-28300023D01*
X34080030Y-28269689D01*
X34058180Y-28246828D01*
X34038892Y-28230466D01*
X34020869Y-28219633D01*
X34002819Y-28213355D01*
X33983444Y-28210661D01*
X33972404Y-28210433D01*
X33941886Y-28215296D01*
X33917287Y-28228194D01*
X33899102Y-28248631D01*
X33887828Y-28276111D01*
X33883960Y-28310139D01*
X33885336Y-28337130D01*
X33892106Y-28368080D01*
X33904864Y-28391440D01*
X33923986Y-28407823D01*
X33949847Y-28417843D01*
X33959401Y-28420468D01*
X33970909Y-28424887D01*
X33975400Y-28428546D01*
X33974244Y-28429588D01*
X33965426Y-28431574D01*
X33949815Y-28433123D01*
X33929680Y-28433966D01*
X33920621Y-28434139D01*
X33900172Y-28434567D01*
X33884147Y-28434955D01*
X33875415Y-28435236D01*
X33873282Y-28434645D01*
X33867805Y-28426834D01*
X33862884Y-28411429D01*
X33858826Y-28390297D01*
X33855939Y-28365304D01*
X33854533Y-28338316D01*
X33854916Y-28311200D01*
X33857631Y-28283255D01*
X33866270Y-28248085D01*
X33881036Y-28218931D01*
X33902622Y-28194089D01*
X33922308Y-28177880D01*
X33944673Y-28165540D01*
X33969670Y-28159067D01*
X34000800Y-28157145D01*
X34003560Y-28157155D01*
X34034630Y-28159983D01*
X34063753Y-28168330D01*
X34092138Y-28182949D01*
X34120997Y-28204597D01*
X34151541Y-28234028D01*
X34184979Y-28271997D01*
X34217323Y-28309566D01*
X34248127Y-28342014D01*
X34274302Y-28365596D01*
X34295911Y-28380372D01*
X34310120Y-28385552D01*
X34333137Y-28389194D01*
X34358415Y-28389719D01*
X34381987Y-28387093D01*
X34399888Y-28381282D01*
X34405005Y-28378302D01*
X34425649Y-28362016D01*
X34442987Y-28342015D01*
X34453859Y-28321782D01*
X34454197Y-28320766D01*
X34458538Y-28298738D01*
X34459865Y-28272018D01*
X34458193Y-28245340D01*
X34453536Y-28223440D01*
X34451694Y-28218494D01*
X34436482Y-28192475D01*
X34414974Y-28171975D01*
X34389217Y-28158541D01*
X34361259Y-28153720D01*
X34356116Y-28153622D01*
X34344772Y-28151766D01*
X34342420Y-28147370D01*
X34348074Y-28144502D01*
X34361435Y-28142156D01*
X34380040Y-28140423D01*
X34401429Y-28139378D01*
X34423144Y-28139096D01*
X34442725Y-28139653D01*
G37*
G36*
X34241711Y-31859918D02*
G01*
X34288472Y-31868044D01*
X34332906Y-31883836D01*
X34373533Y-31907266D01*
X34408873Y-31938304D01*
X34433668Y-31970374D01*
X34456807Y-32012688D01*
X34474255Y-32059597D01*
X34484850Y-32108500D01*
X34485051Y-32109986D01*
X34487863Y-32145314D01*
X34487786Y-32184023D01*
X34485087Y-32223427D01*
X34480033Y-32260844D01*
X34472890Y-32293589D01*
X34463925Y-32318978D01*
X34455406Y-32337100D01*
X34356373Y-32340097D01*
X34353816Y-32340175D01*
X34322809Y-32341321D01*
X34295046Y-32342683D01*
X34272255Y-32344151D01*
X34256165Y-32345617D01*
X34248505Y-32346969D01*
X34246770Y-32348034D01*
X34239821Y-32357049D01*
X34234339Y-32370642D01*
X34233047Y-32375025D01*
X34228524Y-32386031D01*
X34224524Y-32390440D01*
X34223342Y-32387399D01*
X34222009Y-32375729D01*
X34220936Y-32356852D01*
X34220213Y-32332419D01*
X34219926Y-32304080D01*
X34220016Y-32283824D01*
X34220567Y-32257035D01*
X34221549Y-32236140D01*
X34222888Y-32222562D01*
X34224509Y-32217720D01*
X34228261Y-32220886D01*
X34231843Y-32230420D01*
X34233842Y-32240073D01*
X34236976Y-32255259D01*
X34240431Y-32263594D01*
X34248406Y-32271345D01*
X34256853Y-32272982D01*
X34273275Y-32274517D01*
X34295438Y-32275875D01*
X34321126Y-32276990D01*
X34348124Y-32277796D01*
X34374217Y-32278227D01*
X34397190Y-32278217D01*
X34414828Y-32277700D01*
X34424916Y-32276609D01*
X34430156Y-32274588D01*
X34441992Y-32263192D01*
X34450487Y-32244380D01*
X34455607Y-32219751D01*
X34457319Y-32190907D01*
X34455587Y-32159447D01*
X34450378Y-32126972D01*
X34441659Y-32095081D01*
X34429395Y-32065376D01*
X34409888Y-32032981D01*
X34378046Y-31996671D01*
X34339743Y-31967274D01*
X34296040Y-31945423D01*
X34248004Y-31931751D01*
X34196698Y-31926892D01*
X34156891Y-31928887D01*
X34109716Y-31938239D01*
X34069342Y-31955086D01*
X34035940Y-31979256D01*
X34009680Y-32010580D01*
X33990735Y-32048889D01*
X33979276Y-32094013D01*
X33975475Y-32145782D01*
X33977256Y-32187123D01*
X33984349Y-32231882D01*
X33996789Y-32268354D01*
X34014514Y-32296414D01*
X34037462Y-32315936D01*
X34065570Y-32326795D01*
X34068097Y-32327362D01*
X34079381Y-32331456D01*
X34081116Y-32335438D01*
X34073806Y-32338460D01*
X34057950Y-32339676D01*
X34045122Y-32339967D01*
X34022851Y-32341118D01*
X34000740Y-32342837D01*
X33967660Y-32345963D01*
X33961242Y-32300891D01*
X33961226Y-32300775D01*
X33955432Y-32258998D01*
X33951210Y-32225387D01*
X33948443Y-32198094D01*
X33947016Y-32175270D01*
X33946813Y-32155066D01*
X33947719Y-32135636D01*
X33949617Y-32115130D01*
X33953488Y-32086294D01*
X33964110Y-32038987D01*
X33979817Y-31998418D01*
X34001345Y-31962883D01*
X34029432Y-31930675D01*
X34061014Y-31904683D01*
X34102275Y-31881842D01*
X34147132Y-31866788D01*
X34194104Y-31859490D01*
X34241711Y-31859918D01*
G37*
G36*
X34473686Y-33617086D02*
G01*
X34477327Y-33626475D01*
X34483652Y-33647870D01*
X34488021Y-33669156D01*
X34490356Y-33685639D01*
X34492246Y-33702974D01*
X34492525Y-33717126D01*
X34491205Y-33732095D01*
X34488301Y-33751880D01*
X34485031Y-33768986D01*
X34471248Y-33810450D01*
X34450592Y-33844811D01*
X34423543Y-33871666D01*
X34390578Y-33890612D01*
X34352176Y-33901245D01*
X34308815Y-33903163D01*
X34290686Y-33901569D01*
X34266015Y-33896846D01*
X34243052Y-33888565D01*
X34220606Y-33875887D01*
X34197491Y-33857973D01*
X34172517Y-33833985D01*
X34144495Y-33803084D01*
X34112238Y-33764430D01*
X34102378Y-33752417D01*
X34076137Y-33722168D01*
X34053537Y-33699408D01*
X34033346Y-33683251D01*
X34014332Y-33672808D01*
X33995262Y-33667194D01*
X33974906Y-33665520D01*
X33955541Y-33667386D01*
X33928901Y-33677806D01*
X33905721Y-33697674D01*
X33905575Y-33697840D01*
X33893891Y-33714415D01*
X33886970Y-33733207D01*
X33884243Y-33756708D01*
X33885136Y-33787409D01*
X33886758Y-33802498D01*
X33894476Y-33831611D01*
X33908245Y-33853105D01*
X33928713Y-33867789D01*
X33956525Y-33876469D01*
X33970522Y-33880052D01*
X33974904Y-33883501D01*
X33970084Y-33886506D01*
X33956543Y-33888769D01*
X33934760Y-33889992D01*
X33931322Y-33890073D01*
X33910220Y-33890567D01*
X33892053Y-33890991D01*
X33880432Y-33891262D01*
X33877310Y-33891275D01*
X33871185Y-33890005D01*
X33867154Y-33885137D01*
X33864001Y-33874525D01*
X33860514Y-33856020D01*
X33857719Y-33838046D01*
X33854122Y-33787076D01*
X33857711Y-33741662D01*
X33868322Y-33702276D01*
X33885792Y-33669392D01*
X33909957Y-33643480D01*
X33940653Y-33625014D01*
X33955246Y-33619429D01*
X33969844Y-33616107D01*
X33987087Y-33615016D01*
X34010694Y-33615662D01*
X34028567Y-33616812D01*
X34048271Y-33619541D01*
X34064320Y-33624348D01*
X34080541Y-33632137D01*
X34087054Y-33636088D01*
X34105820Y-33650104D01*
X34127829Y-33669190D01*
X34150927Y-33691323D01*
X34172961Y-33714480D01*
X34191778Y-33736640D01*
X34201740Y-33748778D01*
X34220859Y-33770097D01*
X34241478Y-33791206D01*
X34261617Y-33810188D01*
X34279295Y-33825129D01*
X34292532Y-33834111D01*
X34301376Y-33837895D01*
X34321323Y-33843687D01*
X34341873Y-33847111D01*
X34348424Y-33847635D01*
X34365804Y-33847568D01*
X34381118Y-33843995D01*
X34399650Y-33835888D01*
X34410569Y-33829969D01*
X34433267Y-33811637D01*
X34448819Y-33787664D01*
X34458483Y-33756350D01*
X34461014Y-33737232D01*
X34459252Y-33704276D01*
X34450219Y-33674131D01*
X34434858Y-33648203D01*
X34414109Y-33627894D01*
X34388912Y-33614609D01*
X34360210Y-33609751D01*
X34353057Y-33609365D01*
X34343258Y-33606680D01*
X34341644Y-33602355D01*
X34349195Y-33597483D01*
X34354018Y-33596564D01*
X34367834Y-33595447D01*
X34387490Y-33594683D01*
X34410441Y-33594400D01*
X34463651Y-33594400D01*
X34473686Y-33617086D01*
G37*
G36*
X34818680Y-36022640D02*
G01*
X35265720Y-36022640D01*
X35875320Y-36022640D01*
X35875320Y-36103920D01*
X35875320Y-36185200D01*
X35613030Y-36185200D01*
X35350740Y-36185200D01*
X35353316Y-36265210D01*
X35354680Y-36295450D01*
X35357282Y-36330549D01*
X35360662Y-36360708D01*
X35364574Y-36383320D01*
X35365353Y-36386628D01*
X35378596Y-36428254D01*
X35397919Y-36471685D01*
X35421380Y-36513036D01*
X35447039Y-36548420D01*
X35458600Y-36561607D01*
X35492937Y-36595645D01*
X35530953Y-36627163D01*
X35570462Y-36654588D01*
X35609277Y-36676350D01*
X35645213Y-36690877D01*
X35658442Y-36694219D01*
X35683021Y-36698809D01*
X35713125Y-36703268D01*
X35746110Y-36707282D01*
X35779332Y-36710538D01*
X35810150Y-36712722D01*
X35835918Y-36713520D01*
X35875320Y-36713520D01*
X35875320Y-36794800D01*
X35875320Y-36876080D01*
X35833410Y-36875999D01*
X35807288Y-36875575D01*
X35757817Y-36872968D01*
X35709090Y-36868279D01*
X35664224Y-36861838D01*
X35626341Y-36853976D01*
X35597555Y-36845952D01*
X35551260Y-36829243D01*
X35508086Y-36808049D01*
X35466107Y-36781224D01*
X35423400Y-36747621D01*
X35378039Y-36706095D01*
X35365175Y-36693801D01*
X35347052Y-36677133D01*
X35332366Y-36664428D01*
X35322371Y-36656757D01*
X35318320Y-36655186D01*
X35315020Y-36662379D01*
X35304888Y-36679142D01*
X35290560Y-36699619D01*
X35273775Y-36721486D01*
X35256272Y-36742423D01*
X35239789Y-36760104D01*
X35214731Y-36782362D01*
X35171009Y-36810792D01*
X35122026Y-36830947D01*
X35067372Y-36842977D01*
X35006640Y-36847038D01*
X34991708Y-36846892D01*
X34952304Y-36844164D01*
X34916561Y-36837313D01*
X34880738Y-36825449D01*
X34841097Y-36807684D01*
X34827738Y-36800726D01*
X34781157Y-36769363D01*
X34740771Y-36730313D01*
X34707282Y-36684347D01*
X34681394Y-36632240D01*
X34676912Y-36620519D01*
X34672262Y-36606632D01*
X34668368Y-36592102D01*
X34665163Y-36575977D01*
X34662580Y-36557306D01*
X34660553Y-36535137D01*
X34659013Y-36508518D01*
X34657895Y-36476498D01*
X34657131Y-36438124D01*
X34656655Y-36392446D01*
X34656399Y-36338512D01*
X34656297Y-36275370D01*
X34656234Y-36185200D01*
X34818680Y-36185200D01*
X34818782Y-36341410D01*
X34818803Y-36353522D01*
X34819063Y-36393726D01*
X34819582Y-36431674D01*
X34820321Y-36465785D01*
X34821241Y-36494478D01*
X34822302Y-36516172D01*
X34823464Y-36529287D01*
X34825619Y-36541353D01*
X34839149Y-36581450D01*
X34861295Y-36617159D01*
X34891173Y-36647283D01*
X34927900Y-36670626D01*
X34933335Y-36673248D01*
X34948769Y-36679733D01*
X34963240Y-36683465D01*
X34980449Y-36685172D01*
X35004100Y-36685580D01*
X35012148Y-36685550D01*
X35033461Y-36684826D01*
X35049447Y-36682585D01*
X35063805Y-36678100D01*
X35080235Y-36670646D01*
X35093486Y-36663413D01*
X35125759Y-36639454D01*
X35153271Y-36609935D01*
X35173324Y-36577557D01*
X35186980Y-36548420D01*
X35188594Y-36366810D01*
X35190209Y-36185200D01*
X35004444Y-36185200D01*
X34818680Y-36185200D01*
X34656234Y-36185200D01*
X34656120Y-36022640D01*
X34818680Y-36022640D01*
G37*
G36*
X35265696Y-36983086D02*
G01*
X35303462Y-36983827D01*
X35350422Y-36987018D01*
X35393550Y-36992349D01*
X35429773Y-36999707D01*
X35488987Y-37018665D01*
X35555357Y-37048349D01*
X35617861Y-37085357D01*
X35675487Y-37128819D01*
X35727223Y-37177864D01*
X35772055Y-37231622D01*
X35808972Y-37289222D01*
X35836962Y-37349794D01*
X35839486Y-37357059D01*
X35846436Y-37381399D01*
X35853736Y-37412134D01*
X35860822Y-37446609D01*
X35867136Y-37482169D01*
X35872116Y-37516160D01*
X35873222Y-37532496D01*
X35873219Y-37558520D01*
X35871975Y-37589272D01*
X35869659Y-37621889D01*
X35866438Y-37653506D01*
X35862478Y-37681260D01*
X35860762Y-37690860D01*
X35845077Y-37755748D01*
X35822854Y-37814747D01*
X35793198Y-37869553D01*
X35755212Y-37921859D01*
X35708001Y-37973360D01*
X35664750Y-38012735D01*
X35602250Y-38058519D01*
X35535665Y-38095102D01*
X35464711Y-38122659D01*
X35430318Y-38132277D01*
X35359500Y-38145383D01*
X35285955Y-38150945D01*
X35212069Y-38148967D01*
X35140227Y-38139448D01*
X35072813Y-38122391D01*
X35067032Y-38120489D01*
X34997668Y-38092351D01*
X34932711Y-38056208D01*
X34872942Y-38012867D01*
X34819145Y-37963135D01*
X34772102Y-37907819D01*
X34732594Y-37847727D01*
X34701405Y-37783666D01*
X34679317Y-37716443D01*
X34666169Y-37654799D01*
X34659288Y-37596037D01*
X34659243Y-37580778D01*
X34823386Y-37580778D01*
X34825692Y-37621088D01*
X34831145Y-37655642D01*
X34848487Y-37710776D01*
X34875821Y-37765324D01*
X34912088Y-37815437D01*
X34957022Y-37860751D01*
X35010354Y-37900899D01*
X35047005Y-37922889D01*
X35097612Y-37946490D01*
X35149829Y-37962538D01*
X35205948Y-37971686D01*
X35268260Y-37974591D01*
X35314411Y-37973064D01*
X35371867Y-37965695D01*
X35424816Y-37951622D01*
X35475569Y-37930185D01*
X35526435Y-37900723D01*
X35542141Y-37890086D01*
X35593700Y-37848306D01*
X35636371Y-37801836D01*
X35670053Y-37750824D01*
X35694642Y-37695420D01*
X35710037Y-37635769D01*
X35713664Y-37612381D01*
X35716895Y-37573309D01*
X35715576Y-37535510D01*
X35709697Y-37493903D01*
X35696373Y-37440746D01*
X35675002Y-37390130D01*
X35645190Y-37343041D01*
X35606080Y-37297858D01*
X35560255Y-37256735D01*
X35503742Y-37218566D01*
X35441640Y-37188772D01*
X35373605Y-37167161D01*
X35344105Y-37161982D01*
X35306726Y-37158917D01*
X35265696Y-37158194D01*
X35224188Y-37159777D01*
X35185374Y-37163629D01*
X35152429Y-37169713D01*
X35130773Y-37175620D01*
X35069383Y-37198546D01*
X35013033Y-37228949D01*
X34962492Y-37266108D01*
X34918530Y-37309303D01*
X34881916Y-37357813D01*
X34853422Y-37410919D01*
X34833815Y-37467900D01*
X34827997Y-37498432D01*
X34824173Y-37538597D01*
X34823386Y-37580778D01*
X34659243Y-37580778D01*
X34659119Y-37538897D01*
X34665660Y-37480340D01*
X34678905Y-37417326D01*
X34684031Y-37398403D01*
X34708746Y-37331208D01*
X34742206Y-37267970D01*
X34783693Y-37209329D01*
X34832486Y-37155922D01*
X34887867Y-37108387D01*
X34949118Y-37067362D01*
X35015518Y-37033486D01*
X35086348Y-37007395D01*
X35160890Y-36989729D01*
X35170323Y-36988240D01*
X35210339Y-36984324D01*
X35255743Y-36982891D01*
X35265696Y-36983086D01*
G37*
G36*
X35591291Y-31380442D02*
G01*
X35650486Y-31380494D01*
X35703957Y-31380587D01*
X35751070Y-31380718D01*
X35791193Y-31380887D01*
X35823690Y-31381091D01*
X35847929Y-31381331D01*
X35863276Y-31381605D01*
X35869096Y-31381911D01*
X35869296Y-31381998D01*
X35871746Y-31385748D01*
X35873389Y-31394954D01*
X35874295Y-31410790D01*
X35874534Y-31434427D01*
X35874176Y-31467039D01*
X35872780Y-31549700D01*
X35610073Y-31551015D01*
X35347367Y-31552331D01*
X35341814Y-31573875D01*
X35341274Y-31575967D01*
X35331369Y-31613654D01*
X35323027Y-31643657D01*
X35315607Y-31668099D01*
X35308465Y-31689101D01*
X35300960Y-31708786D01*
X35299391Y-31712741D01*
X35292607Y-31730852D01*
X35287840Y-31745224D01*
X35286040Y-31753040D01*
X35287448Y-31756295D01*
X35295497Y-31765858D01*
X35309447Y-31779521D01*
X35327881Y-31796066D01*
X35349382Y-31814273D01*
X35372533Y-31832924D01*
X35395918Y-31850800D01*
X35418120Y-31866681D01*
X35446001Y-31885211D01*
X35489138Y-31911520D01*
X35533883Y-31935757D01*
X35581641Y-31958539D01*
X35633815Y-31980479D01*
X35691809Y-32002192D01*
X35757026Y-32024292D01*
X35830870Y-32047395D01*
X35875320Y-32060854D01*
X35875320Y-32146907D01*
X35875196Y-32167458D01*
X35874603Y-32193898D01*
X35873595Y-32214613D01*
X35872250Y-32228127D01*
X35870650Y-32232960D01*
X35869584Y-32232921D01*
X35857566Y-32230927D01*
X35837769Y-32226252D01*
X35811798Y-32219367D01*
X35781260Y-32210747D01*
X35747759Y-32200861D01*
X35712901Y-32190184D01*
X35678291Y-32179186D01*
X35645536Y-32168341D01*
X35616240Y-32158121D01*
X35534429Y-32126532D01*
X35442592Y-32085127D01*
X35359393Y-32040414D01*
X35284190Y-31992044D01*
X35216342Y-31939666D01*
X35211685Y-31935748D01*
X35197449Y-31924109D01*
X35186883Y-31915978D01*
X35181999Y-31912920D01*
X35178268Y-31915841D01*
X35168438Y-31924912D01*
X35153747Y-31939013D01*
X35135384Y-31957002D01*
X35114536Y-31977737D01*
X35106759Y-31985475D01*
X35064045Y-32026019D01*
X35020257Y-32064025D01*
X34973333Y-32101136D01*
X34921211Y-32138999D01*
X34861829Y-32179257D01*
X34856194Y-32182952D01*
X34830270Y-32199552D01*
X34801502Y-32217451D01*
X34771522Y-32235685D01*
X34741961Y-32253290D01*
X34714452Y-32269303D01*
X34690624Y-32282761D01*
X34672110Y-32292698D01*
X34660542Y-32298153D01*
X34659299Y-32295046D01*
X34658029Y-32283325D01*
X34657022Y-32264400D01*
X34656359Y-32239858D01*
X34656120Y-32211288D01*
X34656120Y-32122730D01*
X34716774Y-32086652D01*
X34764253Y-32057203D01*
X34840267Y-32004530D01*
X34910120Y-31948960D01*
X34973256Y-31891106D01*
X35029116Y-31831582D01*
X35077143Y-31771003D01*
X35116780Y-31709982D01*
X35147468Y-31649133D01*
X35168651Y-31589070D01*
X35178712Y-31552240D01*
X35032537Y-31552240D01*
X35003019Y-31552180D01*
X34954481Y-31551880D01*
X34903995Y-31551361D01*
X34854588Y-31550664D01*
X34809287Y-31549825D01*
X34771119Y-31548886D01*
X34655876Y-31545532D01*
X34657268Y-31463796D01*
X34658660Y-31382060D01*
X35260640Y-31380752D01*
X35309953Y-31380653D01*
X35385704Y-31380535D01*
X35458267Y-31380461D01*
X35527007Y-31380430D01*
X35591291Y-31380442D01*
G37*
G36*
X33962582Y-38935175D02*
G01*
X33966812Y-38941978D01*
X33969447Y-38954191D01*
X33969666Y-38956616D01*
X33970378Y-38964468D01*
X33971627Y-38970955D01*
X33974287Y-38976207D01*
X33979234Y-38980354D01*
X33987341Y-38983527D01*
X33999485Y-38985854D01*
X34016539Y-38987467D01*
X34039379Y-38988495D01*
X34068879Y-38989068D01*
X34105914Y-38989317D01*
X34151360Y-38989370D01*
X34206090Y-38989360D01*
X34217043Y-38989354D01*
X34267634Y-38989191D01*
X34313644Y-38988812D01*
X34354143Y-38988238D01*
X34388201Y-38987487D01*
X34414889Y-38986579D01*
X34433277Y-38985534D01*
X34442436Y-38984372D01*
X34456192Y-38978955D01*
X34465380Y-38969593D01*
X34468082Y-38955070D01*
X34469220Y-38947948D01*
X34473130Y-38943640D01*
X34474541Y-38946538D01*
X34476227Y-38958569D01*
X34477675Y-38979043D01*
X34478819Y-39006987D01*
X34479596Y-39041430D01*
X34480049Y-39069871D01*
X34480641Y-39104352D01*
X34481237Y-39136638D01*
X34481788Y-39164073D01*
X34482246Y-39184003D01*
X34482371Y-39192104D01*
X34481935Y-39212650D01*
X34480539Y-39228985D01*
X34478393Y-39238142D01*
X34473054Y-39243430D01*
X34459721Y-39248819D01*
X34437600Y-39253533D01*
X34428299Y-39254984D01*
X34408415Y-39257037D01*
X34395550Y-39256752D01*
X34390466Y-39254359D01*
X34393921Y-39250088D01*
X34406676Y-39244170D01*
X34420463Y-39238243D01*
X34433387Y-39229590D01*
X34442033Y-39217976D01*
X34447208Y-39201617D01*
X34449721Y-39178725D01*
X34450380Y-39147514D01*
X34450373Y-39137119D01*
X34449955Y-39112253D01*
X34448090Y-39092933D01*
X34443690Y-39078486D01*
X34435666Y-39068238D01*
X34422928Y-39061515D01*
X34404387Y-39057645D01*
X34378955Y-39055954D01*
X34345542Y-39055768D01*
X34303060Y-39056413D01*
X34216700Y-39057940D01*
X34218496Y-39118900D01*
X34219067Y-39134767D01*
X34220987Y-39163128D01*
X34224125Y-39183221D01*
X34228865Y-39196334D01*
X34235591Y-39203757D01*
X34244687Y-39206779D01*
X34260100Y-39209290D01*
X34268962Y-39212603D01*
X34268486Y-39216085D01*
X34259104Y-39219468D01*
X34241247Y-39222488D01*
X34215345Y-39224879D01*
X34168270Y-39228021D01*
X34177245Y-39214340D01*
X34178078Y-39213016D01*
X34181529Y-39205501D01*
X34183873Y-39195218D01*
X34185307Y-39180322D01*
X34186024Y-39158964D01*
X34186220Y-39129299D01*
X34186220Y-39057940D01*
X34087160Y-39057940D01*
X33988100Y-39057940D01*
X33986627Y-39102689D01*
X33986475Y-39127338D01*
X33988240Y-39157411D01*
X33991994Y-39182651D01*
X33997453Y-39201301D01*
X34004332Y-39211610D01*
X34013676Y-39215804D01*
X34027594Y-39217960D01*
X34030709Y-39218018D01*
X34040176Y-39219721D01*
X34041305Y-39223104D01*
X34035285Y-39227252D01*
X34023302Y-39231250D01*
X34006544Y-39234183D01*
X33991753Y-39235865D01*
X33974793Y-39237870D01*
X33963778Y-39239263D01*
X33956645Y-39239300D01*
X33954070Y-39234802D01*
X33955080Y-39223040D01*
X33955691Y-39214298D01*
X33956243Y-39196500D01*
X33956663Y-39171533D01*
X33956933Y-39140950D01*
X33957034Y-39106303D01*
X33956947Y-39069145D01*
X33956924Y-39064134D01*
X33956870Y-39021294D01*
X33957144Y-38987869D01*
X33957771Y-38963190D01*
X33958777Y-38946585D01*
X33960187Y-38937384D01*
X33962027Y-38934917D01*
X33962582Y-38935175D01*
G37*
G36*
X33961898Y-41373307D02*
G01*
X33966915Y-41379174D01*
X33971310Y-41390537D01*
X33975690Y-41399865D01*
X33986047Y-41414162D01*
X33999483Y-41428460D01*
X34010106Y-41437118D01*
X34028030Y-41450156D01*
X34051388Y-41466279D01*
X34078644Y-41484507D01*
X34108266Y-41503856D01*
X34138717Y-41523347D01*
X34168464Y-41541996D01*
X34195972Y-41558822D01*
X34219707Y-41572844D01*
X34238134Y-41583080D01*
X34249720Y-41588548D01*
X34250226Y-41588723D01*
X34263316Y-41591301D01*
X34283709Y-41593245D01*
X34309227Y-41594552D01*
X34337689Y-41595219D01*
X34366914Y-41595243D01*
X34394722Y-41594621D01*
X34418932Y-41593349D01*
X34437365Y-41591423D01*
X34447840Y-41588842D01*
X34458306Y-41579637D01*
X34465797Y-41566303D01*
X34466049Y-41565538D01*
X34470715Y-41553536D01*
X34474687Y-41546539D01*
X34475809Y-41549951D01*
X34476814Y-41562015D01*
X34477609Y-41581251D01*
X34478132Y-41606148D01*
X34478320Y-41635193D01*
X34478110Y-41663223D01*
X34477487Y-41688942D01*
X34476527Y-41709288D01*
X34475306Y-41722666D01*
X34473900Y-41727480D01*
X34472383Y-41726297D01*
X34469260Y-41717902D01*
X34466845Y-41704096D01*
X34466698Y-41702795D01*
X34464941Y-41690179D01*
X34462066Y-41680638D01*
X34456780Y-41673717D01*
X34447792Y-41668958D01*
X34433810Y-41665905D01*
X34413545Y-41664101D01*
X34385702Y-41663088D01*
X34348992Y-41662411D01*
X34319507Y-41661859D01*
X34294591Y-41661551D01*
X34274458Y-41662059D01*
X34257416Y-41663925D01*
X34241772Y-41667688D01*
X34225833Y-41673891D01*
X34207905Y-41683075D01*
X34186296Y-41695780D01*
X34159311Y-41712548D01*
X34125260Y-41733920D01*
X34107891Y-41744817D01*
X34070650Y-41768583D01*
X34040949Y-41788353D01*
X34017888Y-41804897D01*
X34000568Y-41818985D01*
X33988089Y-41831386D01*
X33979552Y-41842869D01*
X33974058Y-41854205D01*
X33970707Y-41866161D01*
X33967246Y-41875958D01*
X33962700Y-41880136D01*
X33961050Y-41876716D01*
X33959406Y-41865218D01*
X33958146Y-41847817D01*
X33957306Y-41826806D01*
X33956920Y-41804475D01*
X33957025Y-41783117D01*
X33957657Y-41765024D01*
X33958851Y-41752488D01*
X33960642Y-41747800D01*
X33964379Y-41749937D01*
X33970320Y-41757960D01*
X33973964Y-41763075D01*
X33979959Y-41766554D01*
X33988656Y-41766799D01*
X34001035Y-41763442D01*
X34018076Y-41756116D01*
X34040758Y-41744451D01*
X34070060Y-41728081D01*
X34106963Y-41706637D01*
X34126481Y-41695147D01*
X34154261Y-41678707D01*
X34178320Y-41664364D01*
X34197398Y-41652875D01*
X34210229Y-41644998D01*
X34215552Y-41641490D01*
X34215520Y-41641077D01*
X34210307Y-41636519D01*
X34198040Y-41627876D01*
X34180076Y-41615984D01*
X34157776Y-41601678D01*
X34132496Y-41585793D01*
X34105596Y-41569164D01*
X34078435Y-41552626D01*
X34052370Y-41537014D01*
X34028760Y-41523163D01*
X34008964Y-41511909D01*
X33994340Y-41504087D01*
X33986247Y-41500531D01*
X33978835Y-41500506D01*
X33969453Y-41508540D01*
X33964407Y-41515401D01*
X33959573Y-41519200D01*
X33959066Y-41518280D01*
X33957994Y-41509671D01*
X33957132Y-41493453D01*
X33956558Y-41471411D01*
X33956350Y-41445328D01*
X33956351Y-41442994D01*
X33956710Y-41411272D01*
X33957725Y-41389316D01*
X33959423Y-41376770D01*
X33961831Y-41373283D01*
X33961898Y-41373307D01*
G37*
G36*
X35357988Y-29065743D02*
G01*
X35437794Y-29081143D01*
X35452344Y-29085226D01*
X35490684Y-29098777D01*
X35532162Y-29116594D01*
X35573509Y-29137102D01*
X35611454Y-29158726D01*
X35642728Y-29179889D01*
X35684699Y-29214981D01*
X35730194Y-29260861D01*
X35770573Y-29310286D01*
X35804248Y-29361284D01*
X35829632Y-29411884D01*
X35841333Y-29444426D01*
X35852980Y-29486273D01*
X35862849Y-29531946D01*
X35870140Y-29578162D01*
X35871304Y-29588793D01*
X35873199Y-29635132D01*
X35871101Y-29686564D01*
X35865332Y-29739854D01*
X35856216Y-29791764D01*
X35844077Y-29839056D01*
X35832017Y-29872774D01*
X35803549Y-29930760D01*
X35766675Y-29986430D01*
X35722504Y-30038667D01*
X35672142Y-30086357D01*
X35616696Y-30128381D01*
X35557274Y-30163625D01*
X35494984Y-30190972D01*
X35419379Y-30213500D01*
X35342233Y-30226798D01*
X35265253Y-30230780D01*
X35189233Y-30225694D01*
X35114962Y-30211790D01*
X35043231Y-30189315D01*
X34974833Y-30158518D01*
X34910557Y-30119648D01*
X34851196Y-30072953D01*
X34797540Y-30018681D01*
X34750380Y-29957082D01*
X34747020Y-29951980D01*
X34717583Y-29899139D01*
X34693369Y-29840500D01*
X34674967Y-29778432D01*
X34662965Y-29715303D01*
X34657951Y-29653483D01*
X34658435Y-29642506D01*
X34823282Y-29642506D01*
X34824643Y-29680223D01*
X34828070Y-29715493D01*
X34833453Y-29744542D01*
X34833590Y-29745076D01*
X34853141Y-29800933D01*
X34881701Y-29853348D01*
X34918483Y-29901551D01*
X34962699Y-29944771D01*
X35013562Y-29982236D01*
X35070284Y-30013176D01*
X35132078Y-30036820D01*
X35143932Y-30040387D01*
X35159120Y-30044423D01*
X35173631Y-30047233D01*
X35189634Y-30049037D01*
X35209295Y-30050054D01*
X35234781Y-30050503D01*
X35268260Y-30050604D01*
X35293081Y-30050559D01*
X35320590Y-30050236D01*
X35341679Y-30049407D01*
X35358527Y-30047850D01*
X35373313Y-30045342D01*
X35388218Y-30041661D01*
X35405420Y-30036583D01*
X35447432Y-30021588D01*
X35507905Y-29991437D01*
X35563545Y-29952501D01*
X35614833Y-29904475D01*
X35647026Y-29865642D01*
X35677805Y-29815093D01*
X35699521Y-29760362D01*
X35712591Y-29700580D01*
X35716177Y-29662724D01*
X35714284Y-29601669D01*
X35703036Y-29543018D01*
X35682870Y-29487402D01*
X35654229Y-29435450D01*
X35617553Y-29387792D01*
X35573282Y-29345058D01*
X35521857Y-29307877D01*
X35463718Y-29276880D01*
X35399306Y-29252696D01*
X35396471Y-29251835D01*
X35379023Y-29246871D01*
X35363361Y-29243367D01*
X35347097Y-29241063D01*
X35327841Y-29239701D01*
X35303205Y-29239023D01*
X35270800Y-29238768D01*
X35236571Y-29238898D01*
X35208828Y-29239706D01*
X35186923Y-29241365D01*
X35168662Y-29244044D01*
X35151849Y-29247912D01*
X35108763Y-29261486D01*
X35048130Y-29288118D01*
X34993242Y-29321593D01*
X34944765Y-29361251D01*
X34903365Y-29406430D01*
X34869708Y-29456472D01*
X34844462Y-29510715D01*
X34828292Y-29568500D01*
X34827200Y-29574809D01*
X34824097Y-29606110D01*
X34823282Y-29642506D01*
X34658435Y-29642506D01*
X34660513Y-29595341D01*
X34669046Y-29539960D01*
X34687539Y-29466886D01*
X34713907Y-29399555D01*
X34748581Y-29337096D01*
X34791991Y-29278636D01*
X34844569Y-29223303D01*
X34856634Y-29212237D01*
X34916637Y-29165377D01*
X34981818Y-29126848D01*
X35051394Y-29096839D01*
X35124582Y-29075536D01*
X35200599Y-29063127D01*
X35270800Y-29060135D01*
X35278662Y-29059800D01*
X35357988Y-29065743D01*
G37*
G36*
X33964033Y-31396112D02*
G01*
X33967792Y-31402567D01*
X33970674Y-31414991D01*
X33971328Y-31418967D01*
X33975143Y-31433041D01*
X33979820Y-31441850D01*
X33980303Y-31442221D01*
X33985423Y-31443755D01*
X33995820Y-31445022D01*
X34012190Y-31446042D01*
X34035232Y-31446834D01*
X34065643Y-31447416D01*
X34104120Y-31447808D01*
X34151362Y-31448030D01*
X34208065Y-31448100D01*
X34237778Y-31448064D01*
X34283213Y-31447870D01*
X34325196Y-31447524D01*
X34362609Y-31447042D01*
X34394334Y-31446446D01*
X34419253Y-31445752D01*
X34436249Y-31444981D01*
X34444202Y-31444149D01*
X34454824Y-31438591D01*
X34462839Y-31428909D01*
X34466093Y-31420812D01*
X34471556Y-31407460D01*
X34473019Y-31408289D01*
X34474568Y-31418250D01*
X34476038Y-31436792D01*
X34477365Y-31463101D01*
X34478486Y-31496360D01*
X34479496Y-31533523D01*
X34480594Y-31574926D01*
X34481416Y-31607988D01*
X34481972Y-31633747D01*
X34482272Y-31653241D01*
X34482324Y-31667507D01*
X34482138Y-31677583D01*
X34481722Y-31684506D01*
X34481087Y-31689313D01*
X34480242Y-31693041D01*
X34478330Y-31698462D01*
X34473976Y-31703677D01*
X34465663Y-31707426D01*
X34451341Y-31710541D01*
X34428961Y-31713853D01*
X34428195Y-31713955D01*
X34410751Y-31715452D01*
X34397080Y-31715183D01*
X34388776Y-31713468D01*
X34387432Y-31710626D01*
X34394642Y-31706977D01*
X34409018Y-31702058D01*
X34425654Y-31694880D01*
X34437114Y-31686404D01*
X34444357Y-31674859D01*
X34448343Y-31658475D01*
X34450030Y-31635481D01*
X34450380Y-31604104D01*
X34450379Y-31601725D01*
X34450297Y-31576212D01*
X34449797Y-31558707D01*
X34448499Y-31547214D01*
X34446022Y-31539737D01*
X34441985Y-31534278D01*
X34436005Y-31528842D01*
X34432114Y-31525582D01*
X34427085Y-31522234D01*
X34420837Y-31519867D01*
X34411881Y-31518341D01*
X34398725Y-31517517D01*
X34379881Y-31517253D01*
X34353858Y-31517409D01*
X34319165Y-31517846D01*
X34216700Y-31519220D01*
X34218469Y-31580180D01*
X34219285Y-31601265D01*
X34221394Y-31626940D01*
X34224987Y-31644903D01*
X34230604Y-31656640D01*
X34238781Y-31663634D01*
X34250056Y-31667369D01*
X34255570Y-31668584D01*
X34265422Y-31672194D01*
X34265300Y-31675637D01*
X34255342Y-31678775D01*
X34235688Y-31681472D01*
X34218211Y-31683350D01*
X34198342Y-31685790D01*
X34183861Y-31687906D01*
X34166263Y-31690939D01*
X34176230Y-31676199D01*
X34177906Y-31673558D01*
X34181528Y-31665690D01*
X34184091Y-31655175D01*
X34185849Y-31640133D01*
X34187053Y-31618688D01*
X34187957Y-31588961D01*
X34189717Y-31516462D01*
X34088908Y-31517841D01*
X33988100Y-31519220D01*
X33986472Y-31554780D01*
X33986066Y-31595203D01*
X33988842Y-31627921D01*
X33994715Y-31652143D01*
X34003589Y-31667251D01*
X34003595Y-31667256D01*
X34015858Y-31675720D01*
X34028509Y-31679240D01*
X34037084Y-31680467D01*
X34041440Y-31684089D01*
X34040831Y-31685809D01*
X34035971Y-31688640D01*
X34025097Y-31691271D01*
X34006836Y-31693993D01*
X33979811Y-31697096D01*
X33951203Y-31700140D01*
X33956075Y-31675720D01*
X33956987Y-31668578D01*
X33958102Y-31650743D01*
X33958926Y-31625667D01*
X33959422Y-31595080D01*
X33959553Y-31560714D01*
X33959283Y-31524300D01*
X33959196Y-31517325D01*
X33958905Y-31475067D01*
X33959121Y-31441401D01*
X33959832Y-31416714D01*
X33961028Y-31401397D01*
X33962700Y-31395840D01*
X33964033Y-31396112D01*
G37*
G36*
X35079258Y-28102920D02*
G01*
X35265399Y-28102920D01*
X35875320Y-28102920D01*
X35875320Y-28181660D01*
X35875320Y-28260400D01*
X35613700Y-28260400D01*
X35352080Y-28260400D01*
X35352109Y-28320090D01*
X35352448Y-28341708D01*
X35355185Y-28387767D01*
X35360362Y-28432077D01*
X35367612Y-28471864D01*
X35376566Y-28504354D01*
X35391062Y-28540283D01*
X35419244Y-28590591D01*
X35455804Y-28637638D01*
X35501314Y-28682125D01*
X35556346Y-28724753D01*
X35556455Y-28724828D01*
X35582134Y-28741486D01*
X35607505Y-28754871D01*
X35634313Y-28765465D01*
X35664300Y-28773751D01*
X35699209Y-28780209D01*
X35740785Y-28785323D01*
X35790771Y-28789575D01*
X35875320Y-28795720D01*
X35875320Y-28873659D01*
X35875291Y-28888371D01*
X35874974Y-28914931D01*
X35874196Y-28933395D01*
X35872824Y-28945192D01*
X35870725Y-28951750D01*
X35867765Y-28954497D01*
X35861971Y-28955090D01*
X35847331Y-28955164D01*
X35825889Y-28954626D01*
X35799435Y-28953522D01*
X35769759Y-28951900D01*
X35739525Y-28949722D01*
X35674613Y-28942074D01*
X35616880Y-28930269D01*
X35564571Y-28913555D01*
X35515931Y-28891181D01*
X35469205Y-28862395D01*
X35422639Y-28826445D01*
X35374478Y-28782580D01*
X35367867Y-28776187D01*
X35349997Y-28759134D01*
X35335230Y-28745376D01*
X35324950Y-28736186D01*
X35320538Y-28732840D01*
X35320142Y-28733030D01*
X35315627Y-28738669D01*
X35307821Y-28750556D01*
X35298145Y-28766549D01*
X35284124Y-28788391D01*
X35250454Y-28829107D01*
X35211384Y-28863499D01*
X35168870Y-28889704D01*
X35151091Y-28898033D01*
X35113881Y-28912032D01*
X35076522Y-28920681D01*
X35035889Y-28924580D01*
X34988860Y-28924330D01*
X34985649Y-28924188D01*
X34931159Y-28918665D01*
X34883297Y-28907002D01*
X34840108Y-28888365D01*
X34799637Y-28861922D01*
X34759929Y-28826841D01*
X34755028Y-28821929D01*
X34731414Y-28796190D01*
X34713322Y-28771869D01*
X34698150Y-28745540D01*
X34693488Y-28736446D01*
X34686106Y-28721795D01*
X34679874Y-28708428D01*
X34674689Y-28695393D01*
X34670447Y-28681734D01*
X34667042Y-28666500D01*
X34664370Y-28648735D01*
X34662328Y-28627486D01*
X34662114Y-28623858D01*
X34821220Y-28623858D01*
X34837777Y-28657479D01*
X34839591Y-28661092D01*
X34862971Y-28697488D01*
X34892484Y-28726397D01*
X34929613Y-28749302D01*
X34929629Y-28749310D01*
X34948694Y-28758041D01*
X34964459Y-28763027D01*
X34981399Y-28765256D01*
X35003993Y-28765716D01*
X35004209Y-28765716D01*
X35045769Y-28761306D01*
X35083891Y-28748036D01*
X35120437Y-28725258D01*
X35134547Y-28712377D01*
X35154357Y-28687286D01*
X35170866Y-28658233D01*
X35181732Y-28628902D01*
X35183266Y-28620497D01*
X35185187Y-28601880D01*
X35186805Y-28576658D01*
X35188116Y-28546228D01*
X35189114Y-28511987D01*
X35189795Y-28475330D01*
X35190151Y-28437655D01*
X35190179Y-28400358D01*
X35189873Y-28364835D01*
X35189227Y-28332482D01*
X35188236Y-28304698D01*
X35186895Y-28282877D01*
X35185198Y-28268416D01*
X35183141Y-28262713D01*
X35178326Y-28262253D01*
X35164255Y-28261816D01*
X35142250Y-28261501D01*
X35113516Y-28261314D01*
X35079258Y-28261264D01*
X35040681Y-28261358D01*
X34998991Y-28261602D01*
X34821220Y-28262940D01*
X34821220Y-28443399D01*
X34821220Y-28623858D01*
X34662114Y-28623858D01*
X34660812Y-28601800D01*
X34659715Y-28570723D01*
X34658935Y-28533301D01*
X34658368Y-28488581D01*
X34657908Y-28435608D01*
X34657451Y-28373430D01*
X34655478Y-28102920D01*
X35079258Y-28102920D01*
G37*
G36*
X34475732Y-29223798D02*
G01*
X34477157Y-29239464D01*
X34478026Y-29264616D01*
X34478320Y-29298960D01*
X34478290Y-29309990D01*
X34477811Y-29340824D01*
X34476779Y-29363792D01*
X34475239Y-29378131D01*
X34473240Y-29383080D01*
X34469661Y-29378727D01*
X34468160Y-29368170D01*
X34465924Y-29348520D01*
X34457284Y-29332162D01*
X34441805Y-29322726D01*
X34439070Y-29322203D01*
X34426932Y-29321006D01*
X34407020Y-29319636D01*
X34380711Y-29318146D01*
X34349385Y-29316587D01*
X34314419Y-29315012D01*
X34277194Y-29313470D01*
X34239086Y-29312015D01*
X34201476Y-29310697D01*
X34165741Y-29309568D01*
X34133261Y-29308680D01*
X34105414Y-29308085D01*
X34083578Y-29307833D01*
X34069133Y-29307977D01*
X34063457Y-29308568D01*
X34063468Y-29308678D01*
X34067517Y-29313236D01*
X34077929Y-29323733D01*
X34093782Y-29339270D01*
X34114151Y-29358948D01*
X34138114Y-29381869D01*
X34164746Y-29407134D01*
X34186903Y-29428204D01*
X34223342Y-29463256D01*
X34262816Y-29501613D01*
X34302926Y-29540929D01*
X34341270Y-29578859D01*
X34375450Y-29613056D01*
X34385287Y-29623008D01*
X34411585Y-29649971D01*
X34435083Y-29674579D01*
X34454896Y-29695873D01*
X34470143Y-29712894D01*
X34479938Y-29724682D01*
X34483400Y-29730279D01*
X34482618Y-29732820D01*
X34479522Y-29734797D01*
X34472993Y-29736277D01*
X34461908Y-29737329D01*
X34445148Y-29738026D01*
X34421590Y-29738436D01*
X34390115Y-29738630D01*
X34349600Y-29738680D01*
X34324034Y-29738721D01*
X34275827Y-29739010D01*
X34227710Y-29739545D01*
X34180800Y-29740297D01*
X34136217Y-29741233D01*
X34095079Y-29742324D01*
X34058506Y-29743536D01*
X34027617Y-29744840D01*
X34003531Y-29746203D01*
X33987367Y-29747595D01*
X33980244Y-29748985D01*
X33979914Y-29749212D01*
X33974927Y-29756852D01*
X33970952Y-29769393D01*
X33970680Y-29770652D01*
X33966684Y-29782245D01*
X33962005Y-29788018D01*
X33961348Y-29787975D01*
X33959161Y-29782419D01*
X33957607Y-29767958D01*
X33956655Y-29744179D01*
X33956274Y-29710667D01*
X33956310Y-29688544D01*
X33956793Y-29662475D01*
X33957847Y-29645158D01*
X33959535Y-29635750D01*
X33961918Y-29633404D01*
X33963245Y-29634334D01*
X33967043Y-29642584D01*
X33969315Y-29655977D01*
X33969586Y-29659605D01*
X33970616Y-29669244D01*
X33972736Y-29676978D01*
X33976955Y-29683051D01*
X33984280Y-29687704D01*
X33995717Y-29691179D01*
X34012274Y-29693719D01*
X34034958Y-29695565D01*
X34064777Y-29696959D01*
X34102737Y-29698144D01*
X34149847Y-29699361D01*
X34163345Y-29699694D01*
X34203982Y-29700601D01*
X34242462Y-29701326D01*
X34277186Y-29701847D01*
X34306552Y-29702142D01*
X34328963Y-29702190D01*
X34342817Y-29701969D01*
X34377494Y-29700580D01*
X34161207Y-29493206D01*
X34139145Y-29472045D01*
X34095956Y-29430552D01*
X34059406Y-29395309D01*
X34028990Y-29365806D01*
X34004207Y-29341535D01*
X33984554Y-29321985D01*
X33969527Y-29306647D01*
X33958623Y-29295011D01*
X33951341Y-29286568D01*
X33947176Y-29280807D01*
X33945627Y-29277219D01*
X33946190Y-29275294D01*
X33946354Y-29275258D01*
X33953035Y-29274973D01*
X33968747Y-29274605D01*
X33992516Y-29274169D01*
X34023368Y-29273679D01*
X34060327Y-29273152D01*
X34102419Y-29272600D01*
X34148669Y-29272039D01*
X34198103Y-29271484D01*
X34448746Y-29268780D01*
X34458453Y-29256787D01*
X34465004Y-29245571D01*
X34468160Y-29232957D01*
X34469239Y-29225015D01*
X34473240Y-29217980D01*
X34473769Y-29217915D01*
X34475732Y-29223798D01*
G37*
G36*
X33873445Y-30283678D02*
G01*
X33876479Y-30298728D01*
X33879128Y-30312398D01*
X33884366Y-30327417D01*
X33892392Y-30336618D01*
X33904930Y-30342665D01*
X33905020Y-30342695D01*
X33913624Y-30343843D01*
X33931127Y-30344856D01*
X33956299Y-30345732D01*
X33987910Y-30346470D01*
X34024733Y-30347066D01*
X34065535Y-30347518D01*
X34077470Y-30347602D01*
X34109089Y-30347824D01*
X34154165Y-30347983D01*
X34199532Y-30347990D01*
X34243962Y-30347845D01*
X34286225Y-30347544D01*
X34325091Y-30347086D01*
X34359330Y-30346468D01*
X34387714Y-30345689D01*
X34409012Y-30344744D01*
X34421995Y-30343633D01*
X34428417Y-30342540D01*
X34450299Y-30334753D01*
X34463645Y-30322002D01*
X34468160Y-30304537D01*
X34469358Y-30296729D01*
X34473240Y-30292400D01*
X34474953Y-30295087D01*
X34476874Y-30306621D01*
X34478226Y-30326054D01*
X34478888Y-30352090D01*
X34479188Y-30369830D01*
X34480213Y-30402011D01*
X34481720Y-30433690D01*
X34483501Y-30460040D01*
X34484679Y-30478447D01*
X34485731Y-30508698D01*
X34486103Y-30541302D01*
X34485707Y-30571800D01*
X34485168Y-30585666D01*
X34479615Y-30641151D01*
X34468438Y-30689543D01*
X34451080Y-30732296D01*
X34426983Y-30770864D01*
X34395590Y-30806701D01*
X34373635Y-30826434D01*
X34328367Y-30856811D01*
X34277802Y-30878824D01*
X34222585Y-30892222D01*
X34163360Y-30896756D01*
X34143774Y-30896238D01*
X34088835Y-30888675D01*
X34038788Y-30872382D01*
X33994101Y-30847727D01*
X33955241Y-30815077D01*
X33922676Y-30774799D01*
X33896873Y-30727260D01*
X33878298Y-30672828D01*
X33878169Y-30672323D01*
X33875208Y-30659983D01*
X33872815Y-30647714D01*
X33870916Y-30634237D01*
X33869436Y-30618273D01*
X33868301Y-30598544D01*
X33867438Y-30573770D01*
X33866771Y-30542672D01*
X33866227Y-30503973D01*
X33865896Y-30472188D01*
X33894425Y-30472188D01*
X33894445Y-30498331D01*
X33895224Y-30525863D01*
X33896726Y-30552571D01*
X33898917Y-30576241D01*
X33901762Y-30594660D01*
X33913804Y-30636504D01*
X33936595Y-30684199D01*
X33967361Y-30726422D01*
X34005337Y-30762331D01*
X34049759Y-30791089D01*
X34099860Y-30811857D01*
X34129906Y-30818601D01*
X34167599Y-30822480D01*
X34207684Y-30822964D01*
X34246454Y-30820017D01*
X34280200Y-30813604D01*
X34292921Y-30809844D01*
X34338576Y-30790432D01*
X34377194Y-30763696D01*
X34408715Y-30729699D01*
X34433078Y-30688502D01*
X34450221Y-30640168D01*
X34450524Y-30638972D01*
X34454360Y-30616231D01*
X34456709Y-30587292D01*
X34457557Y-30555403D01*
X34456889Y-30523812D01*
X34454691Y-30495765D01*
X34450949Y-30474511D01*
X34446169Y-30458983D01*
X34436696Y-30439339D01*
X34424565Y-30427323D01*
X34408508Y-30421348D01*
X34400171Y-30420639D01*
X34382577Y-30419933D01*
X34356960Y-30419275D01*
X34324409Y-30418682D01*
X34286015Y-30418171D01*
X34242868Y-30417760D01*
X34196056Y-30417464D01*
X34146670Y-30417301D01*
X34131814Y-30417275D01*
X34077470Y-30417228D01*
X34032250Y-30417287D01*
X33995320Y-30417476D01*
X33965850Y-30417820D01*
X33943008Y-30418342D01*
X33925962Y-30419068D01*
X33913880Y-30420020D01*
X33905929Y-30421223D01*
X33901279Y-30422702D01*
X33899098Y-30424480D01*
X33896798Y-30432930D01*
X33895198Y-30449650D01*
X33894425Y-30472188D01*
X33865896Y-30472188D01*
X33865731Y-30456392D01*
X33865682Y-30451101D01*
X33865385Y-30397397D01*
X33865548Y-30353755D01*
X33866176Y-30320096D01*
X33867274Y-30296339D01*
X33868848Y-30282403D01*
X33870903Y-30278210D01*
X33873445Y-30283678D01*
G37*
G36*
X33962497Y-35709410D02*
G01*
X33966768Y-35716607D01*
X33969324Y-35729123D01*
X33973381Y-35744639D01*
X33981287Y-35756671D01*
X33981769Y-35757097D01*
X33985387Y-35759602D01*
X33990537Y-35761621D01*
X33998297Y-35763223D01*
X34009747Y-35764474D01*
X34025965Y-35765442D01*
X34048029Y-35766193D01*
X34077018Y-35766796D01*
X34114010Y-35767317D01*
X34160083Y-35767823D01*
X34210546Y-35768180D01*
X34274875Y-35768040D01*
X34329395Y-35767116D01*
X34374298Y-35765397D01*
X34409772Y-35762872D01*
X34436010Y-35759531D01*
X34453202Y-35755361D01*
X34461538Y-35750353D01*
X34465286Y-35743154D01*
X34468160Y-35729569D01*
X34469285Y-35722156D01*
X34473130Y-35717840D01*
X34474541Y-35720738D01*
X34476227Y-35732769D01*
X34477675Y-35753243D01*
X34478819Y-35781187D01*
X34479596Y-35815630D01*
X34480046Y-35843900D01*
X34480638Y-35878608D01*
X34481235Y-35911227D01*
X34481788Y-35939067D01*
X34482246Y-35959439D01*
X34482287Y-35983020D01*
X34480578Y-36003374D01*
X34476894Y-36014354D01*
X34476204Y-36015159D01*
X34466759Y-36020558D01*
X34451261Y-36025470D01*
X34432847Y-36029345D01*
X34414654Y-36031636D01*
X34399820Y-36031795D01*
X34391482Y-36029274D01*
X34390493Y-36028048D01*
X34392232Y-36023947D01*
X34403468Y-36020658D01*
X34419743Y-36015214D01*
X34434878Y-36002623D01*
X34445170Y-35982800D01*
X34450971Y-35955015D01*
X34452633Y-35918533D01*
X34452074Y-35897873D01*
X34449325Y-35872488D01*
X34443824Y-35854720D01*
X34435040Y-35843120D01*
X34422440Y-35836236D01*
X34413580Y-35834283D01*
X34395810Y-35832296D01*
X34372549Y-35830855D01*
X34345750Y-35829961D01*
X34317368Y-35829616D01*
X34289358Y-35829820D01*
X34263675Y-35830574D01*
X34242273Y-35831880D01*
X34227106Y-35833737D01*
X34220130Y-35836146D01*
X34219929Y-35836422D01*
X34217956Y-35844974D01*
X34217163Y-35860933D01*
X34217398Y-35881820D01*
X34218507Y-35905156D01*
X34220337Y-35928464D01*
X34222734Y-35949266D01*
X34225546Y-35965084D01*
X34228620Y-35973440D01*
X34229104Y-35973978D01*
X34238792Y-35979965D01*
X34252582Y-35984265D01*
X34258103Y-35985501D01*
X34266479Y-35989321D01*
X34265825Y-35993154D01*
X34256917Y-35996150D01*
X34240530Y-35997461D01*
X34235887Y-35997569D01*
X34214657Y-35999112D01*
X34195249Y-36001833D01*
X34183722Y-36003711D01*
X34173180Y-36003574D01*
X34171238Y-35999380D01*
X34177318Y-35990773D01*
X34179334Y-35988218D01*
X34182294Y-35981942D01*
X34184283Y-35972345D01*
X34185479Y-35957719D01*
X34186064Y-35936354D01*
X34186220Y-35906540D01*
X34186220Y-35832140D01*
X34087160Y-35832140D01*
X33988100Y-35832140D01*
X33988420Y-35895640D01*
X33988988Y-35925600D01*
X33990872Y-35951508D01*
X33994488Y-35969788D01*
X34000275Y-35981771D01*
X34008668Y-35988785D01*
X34020104Y-35992160D01*
X34031616Y-35994673D01*
X34037131Y-35998388D01*
X34033172Y-36002467D01*
X34020095Y-36006610D01*
X33998260Y-36010517D01*
X33992656Y-36011288D01*
X33974243Y-36013503D01*
X33960647Y-36014647D01*
X33954482Y-36014486D01*
X33953655Y-36011618D01*
X33954109Y-36001118D01*
X33956369Y-35985925D01*
X33956740Y-35983635D01*
X33958113Y-35967582D01*
X33958998Y-35943096D01*
X33959376Y-35911583D01*
X33959227Y-35874444D01*
X33958531Y-35833084D01*
X33958239Y-35819781D01*
X33957560Y-35781694D01*
X33957356Y-35752622D01*
X33957647Y-35731692D01*
X33958458Y-35718030D01*
X33959809Y-35710763D01*
X33961724Y-35709017D01*
X33962497Y-35709410D01*
G37*
G36*
X34474938Y-34532812D02*
G01*
X34476282Y-34542590D01*
X34477354Y-34559812D01*
X34478063Y-34582856D01*
X34478320Y-34610100D01*
X34478300Y-34618932D01*
X34477841Y-34649569D01*
X34476811Y-34672435D01*
X34475261Y-34686736D01*
X34473240Y-34691680D01*
X34473225Y-34691679D01*
X34469647Y-34687241D01*
X34468160Y-34676618D01*
X34468042Y-34673547D01*
X34463085Y-34660386D01*
X34451056Y-34654358D01*
X34432268Y-34655647D01*
X34421124Y-34658714D01*
X34402807Y-34664619D01*
X34380709Y-34672281D01*
X34357065Y-34680871D01*
X34334112Y-34689556D01*
X34314084Y-34697505D01*
X34299218Y-34703888D01*
X34291750Y-34707873D01*
X34291369Y-34708227D01*
X34288892Y-34713374D01*
X34287233Y-34723652D01*
X34286320Y-34740315D01*
X34286077Y-34764616D01*
X34286430Y-34797811D01*
X34287820Y-34882180D01*
X34373583Y-34916812D01*
X34399171Y-34926984D01*
X34427022Y-34937458D01*
X34446803Y-34943982D01*
X34459167Y-34946767D01*
X34464769Y-34946022D01*
X34467399Y-34943763D01*
X34474255Y-34940600D01*
X34474995Y-34941877D01*
X34476310Y-34951163D01*
X34477364Y-34967963D01*
X34478065Y-34990526D01*
X34478320Y-35017099D01*
X34478256Y-35030210D01*
X34477585Y-35057495D01*
X34476269Y-35076951D01*
X34474415Y-35088111D01*
X34472133Y-35090509D01*
X34469529Y-35083679D01*
X34466712Y-35067157D01*
X34466640Y-35066634D01*
X34458197Y-35043093D01*
X34440038Y-35022233D01*
X34412280Y-35004190D01*
X34407625Y-35001992D01*
X34392994Y-34995561D01*
X34370701Y-34986056D01*
X34341845Y-34973935D01*
X34307521Y-34959654D01*
X34268827Y-34943672D01*
X34226861Y-34926446D01*
X34182720Y-34908435D01*
X34140853Y-34891393D01*
X34093928Y-34872248D01*
X34055098Y-34856318D01*
X34023614Y-34843264D01*
X33998726Y-34832749D01*
X33979684Y-34824436D01*
X33965740Y-34817986D01*
X33956144Y-34813062D01*
X33950146Y-34809327D01*
X33946998Y-34806441D01*
X33945949Y-34804069D01*
X33946250Y-34801871D01*
X33946825Y-34801324D01*
X33954569Y-34797297D01*
X33968885Y-34790878D01*
X34058958Y-34790878D01*
X34061039Y-34795374D01*
X34064123Y-34796966D01*
X34076015Y-34802063D01*
X34094209Y-34809264D01*
X34116951Y-34817930D01*
X34142485Y-34827426D01*
X34169056Y-34837114D01*
X34194911Y-34846357D01*
X34218295Y-34854519D01*
X34237452Y-34860963D01*
X34250628Y-34865053D01*
X34256070Y-34866151D01*
X34256531Y-34865344D01*
X34257848Y-34856815D01*
X34258910Y-34840643D01*
X34259621Y-34818730D01*
X34259880Y-34792980D01*
X34259706Y-34765197D01*
X34259061Y-34744385D01*
X34257817Y-34731156D01*
X34255845Y-34724188D01*
X34253017Y-34722160D01*
X34252727Y-34722178D01*
X34245107Y-34724120D01*
X34229991Y-34728796D01*
X34209243Y-34735566D01*
X34184730Y-34743786D01*
X34158315Y-34752815D01*
X34131865Y-34762010D01*
X34107245Y-34770728D01*
X34086319Y-34778327D01*
X34070953Y-34784165D01*
X34063012Y-34787600D01*
X34058958Y-34790878D01*
X33968885Y-34790878D01*
X33970620Y-34790100D01*
X33994079Y-34780100D01*
X34024053Y-34767668D01*
X34059644Y-34753173D01*
X34099956Y-34736983D01*
X34144094Y-34719467D01*
X34191160Y-34700995D01*
X34239953Y-34681931D01*
X34253017Y-34676798D01*
X34289927Y-34662295D01*
X34331787Y-34645612D01*
X34366273Y-34631491D01*
X34394122Y-34619541D01*
X34416075Y-34609372D01*
X34432869Y-34600591D01*
X34445244Y-34592810D01*
X34453937Y-34585635D01*
X34459689Y-34578677D01*
X34463238Y-34571544D01*
X34465323Y-34563846D01*
X34466682Y-34555191D01*
X34467479Y-34550101D01*
X34470572Y-34537556D01*
X34473925Y-34531236D01*
X34474938Y-34532812D01*
G37*
G36*
X34473906Y-37211843D02*
G01*
X34475768Y-37219782D01*
X34477155Y-37236876D01*
X34478021Y-37262362D01*
X34478320Y-37295479D01*
X34478196Y-37315432D01*
X34477461Y-37343178D01*
X34476138Y-37362902D01*
X34474314Y-37374176D01*
X34472074Y-37376572D01*
X34469506Y-37369664D01*
X34466695Y-37353024D01*
X34465987Y-37348666D01*
X34461942Y-37334167D01*
X34456810Y-37324833D01*
X34454263Y-37322784D01*
X34446544Y-37319216D01*
X34434513Y-37316185D01*
X34417336Y-37313620D01*
X34394177Y-37311452D01*
X34364201Y-37309611D01*
X34326571Y-37308025D01*
X34280452Y-37306624D01*
X34225009Y-37305339D01*
X34060599Y-37301934D01*
X34113129Y-37351897D01*
X34158145Y-37394778D01*
X34220427Y-37454363D01*
X34275495Y-37507384D01*
X34323301Y-37553792D01*
X34363796Y-37593542D01*
X34396932Y-37626585D01*
X34422659Y-37652874D01*
X34440931Y-37672361D01*
X34441995Y-37673541D01*
X34458113Y-37692026D01*
X34471274Y-37708233D01*
X34480146Y-37720452D01*
X34483400Y-37726971D01*
X34483278Y-37727663D01*
X34481468Y-37729328D01*
X34476851Y-37730710D01*
X34468610Y-37731834D01*
X34455929Y-37732727D01*
X34437990Y-37733415D01*
X34413975Y-37733922D01*
X34383069Y-37734276D01*
X34344454Y-37734502D01*
X34297313Y-37734626D01*
X34240830Y-37734674D01*
X34203466Y-37734688D01*
X34150585Y-37734757D01*
X34106532Y-37734964D01*
X34070484Y-37735401D01*
X34041616Y-37736159D01*
X34019105Y-37737330D01*
X34002127Y-37739007D01*
X33989859Y-37741280D01*
X33981475Y-37744242D01*
X33976154Y-37747984D01*
X33973070Y-37752598D01*
X33971399Y-37758176D01*
X33970320Y-37764810D01*
X33970067Y-37766376D01*
X33966585Y-37778111D01*
X33962028Y-37783950D01*
X33960629Y-37783393D01*
X33958704Y-37776796D01*
X33957483Y-37762357D01*
X33956914Y-37739308D01*
X33956948Y-37706881D01*
X33957030Y-37699203D01*
X33957740Y-37669413D01*
X33958967Y-37646947D01*
X33960643Y-37632747D01*
X33962700Y-37627759D01*
X33966587Y-37631568D01*
X33969172Y-37641732D01*
X33969822Y-37647781D01*
X33973073Y-37666134D01*
X33978142Y-37677404D01*
X33985999Y-37684035D01*
X33990601Y-37684951D01*
X34004344Y-37686243D01*
X34025659Y-37687640D01*
X34053181Y-37689096D01*
X34085549Y-37690569D01*
X34121399Y-37692015D01*
X34159367Y-37693389D01*
X34198091Y-37694647D01*
X34236208Y-37695747D01*
X34272354Y-37696645D01*
X34305166Y-37697295D01*
X34333281Y-37697656D01*
X34355336Y-37697682D01*
X34369969Y-37697331D01*
X34375815Y-37696558D01*
X34375327Y-37695339D01*
X34369391Y-37688326D01*
X34357848Y-37676274D01*
X34341923Y-37660444D01*
X34322843Y-37642094D01*
X34301738Y-37622054D01*
X34274334Y-37595957D01*
X34243283Y-37566328D01*
X34209685Y-37534222D01*
X34174640Y-37500693D01*
X34139248Y-37466795D01*
X34104610Y-37433582D01*
X34071825Y-37402109D01*
X34041994Y-37373429D01*
X34016216Y-37348598D01*
X33995591Y-37328669D01*
X33981220Y-37314696D01*
X33970007Y-37303309D01*
X33957283Y-37289058D01*
X33949227Y-37278280D01*
X33947230Y-37272691D01*
X33952327Y-37271229D01*
X33966200Y-37269963D01*
X33989063Y-37268921D01*
X34021150Y-37268096D01*
X34062694Y-37267483D01*
X34113930Y-37267076D01*
X34175089Y-37266869D01*
X34204907Y-37266786D01*
X34251560Y-37266521D01*
X34295232Y-37266111D01*
X34334725Y-37265577D01*
X34368844Y-37264939D01*
X34396393Y-37264218D01*
X34416174Y-37263433D01*
X34426991Y-37262604D01*
X34438041Y-37260588D01*
X34455613Y-37253680D01*
X34465233Y-37242404D01*
X34468160Y-37225629D01*
X34469582Y-37215750D01*
X34473240Y-37211360D01*
X34473906Y-37211843D01*
G37*
G36*
X33873663Y-36487086D02*
G01*
X33876618Y-36502785D01*
X33877690Y-36508543D01*
X33882771Y-36525126D01*
X33889187Y-36537173D01*
X33890936Y-36539241D01*
X33893757Y-36541723D01*
X33897872Y-36543744D01*
X33904268Y-36545372D01*
X33913927Y-36546676D01*
X33927836Y-36547725D01*
X33946979Y-36548588D01*
X33972342Y-36549332D01*
X34004908Y-36550027D01*
X34045664Y-36550741D01*
X34095593Y-36551542D01*
X34128850Y-36552092D01*
X34178708Y-36553075D01*
X34220145Y-36554212D01*
X34254264Y-36555627D01*
X34282164Y-36557445D01*
X34304947Y-36559790D01*
X34323713Y-36562787D01*
X34339564Y-36566560D01*
X34353599Y-36571234D01*
X34366920Y-36576933D01*
X34380627Y-36583782D01*
X34396671Y-36593122D01*
X34430681Y-36620934D01*
X34457503Y-36655651D01*
X34476781Y-36696743D01*
X34488162Y-36743683D01*
X34489331Y-36751795D01*
X34491878Y-36773191D01*
X34492547Y-36790773D01*
X34491344Y-36809142D01*
X34488274Y-36832900D01*
X34487041Y-36840550D01*
X34475703Y-36881610D01*
X34457502Y-36920040D01*
X34433686Y-36954000D01*
X34405500Y-36981652D01*
X34374191Y-37001157D01*
X34363587Y-37005923D01*
X34348858Y-37012059D01*
X34334547Y-37017078D01*
X34319476Y-37021113D01*
X34302472Y-37024297D01*
X34282360Y-37026766D01*
X34257963Y-37028653D01*
X34228107Y-37030090D01*
X34191617Y-37031213D01*
X34147318Y-37032155D01*
X34094034Y-37033050D01*
X34046704Y-37033818D01*
X34005732Y-37034569D01*
X33972972Y-37035318D01*
X33947423Y-37036130D01*
X33928085Y-37037065D01*
X33913959Y-37038186D01*
X33904043Y-37039556D01*
X33897339Y-37041236D01*
X33892846Y-37043289D01*
X33889564Y-37045777D01*
X33882432Y-37054539D01*
X33878880Y-37064411D01*
X33877762Y-37074439D01*
X33873932Y-37085026D01*
X33868882Y-37089440D01*
X33867792Y-37085850D01*
X33866645Y-37073599D01*
X33865697Y-37054213D01*
X33865026Y-37029318D01*
X33864707Y-37000540D01*
X33864777Y-36975410D01*
X33865447Y-36946530D01*
X33866731Y-36926053D01*
X33868563Y-36914328D01*
X33870879Y-36911707D01*
X33873615Y-36918540D01*
X33876707Y-36935178D01*
X33878485Y-36944518D01*
X33886260Y-36963019D01*
X33899920Y-36974387D01*
X33921170Y-36980352D01*
X33928235Y-36980930D01*
X33945454Y-36981522D01*
X33970440Y-36981918D01*
X34001838Y-36982109D01*
X34038289Y-36982089D01*
X34078438Y-36981852D01*
X34120926Y-36981389D01*
X34125860Y-36981322D01*
X34174443Y-36980586D01*
X34214107Y-36979788D01*
X34245989Y-36978870D01*
X34271225Y-36977770D01*
X34290954Y-36976427D01*
X34306311Y-36974782D01*
X34318434Y-36972774D01*
X34328460Y-36970342D01*
X34355265Y-36961093D01*
X34391496Y-36941408D01*
X34420302Y-36915237D01*
X34442266Y-36882127D01*
X34449630Y-36864303D01*
X34457289Y-36829974D01*
X34459082Y-36793064D01*
X34454950Y-36757157D01*
X34444834Y-36725834D01*
X34431409Y-36704643D01*
X34411630Y-36682528D01*
X34388921Y-36663007D01*
X34366560Y-36649287D01*
X34361200Y-36646841D01*
X34347877Y-36641204D01*
X34334699Y-36636605D01*
X34320521Y-36632940D01*
X34304198Y-36630104D01*
X34284585Y-36627991D01*
X34260537Y-36626498D01*
X34230910Y-36625519D01*
X34194557Y-36624949D01*
X34150335Y-36624684D01*
X34097099Y-36624620D01*
X34075329Y-36624619D01*
X34026897Y-36624669D01*
X33987330Y-36624919D01*
X33955700Y-36625530D01*
X33931077Y-36626661D01*
X33912534Y-36628472D01*
X33899142Y-36631125D01*
X33889972Y-36634779D01*
X33884096Y-36639595D01*
X33880585Y-36645733D01*
X33878511Y-36653352D01*
X33876946Y-36662614D01*
X33874817Y-36673933D01*
X33872065Y-36681667D01*
X33869692Y-36679753D01*
X33867742Y-36668491D01*
X33866260Y-36648181D01*
X33865291Y-36619121D01*
X33864878Y-36581611D01*
X33865024Y-36548476D01*
X33865757Y-36518734D01*
X33867040Y-36497367D01*
X33868821Y-36484734D01*
X33871046Y-36481188D01*
X33873663Y-36487086D01*
G37*
G36*
X34473653Y-28545053D02*
G01*
X34475614Y-28551778D01*
X34477081Y-28567669D01*
X34478001Y-28591893D01*
X34478320Y-28623620D01*
X34478308Y-28630023D01*
X34477874Y-28660423D01*
X34476849Y-28683167D01*
X34475286Y-28697423D01*
X34473240Y-28702360D01*
X34470368Y-28700642D01*
X34468160Y-28692615D01*
X34466370Y-28678316D01*
X34459169Y-28669416D01*
X34445120Y-28666800D01*
X34443152Y-28666938D01*
X34430763Y-28669545D01*
X34411869Y-28674850D01*
X34388788Y-28682064D01*
X34363836Y-28690397D01*
X34339327Y-28699060D01*
X34317580Y-28707263D01*
X34300908Y-28714216D01*
X34291630Y-28719130D01*
X34289887Y-28721754D01*
X34287766Y-28731107D01*
X34286338Y-28747703D01*
X34285532Y-28772511D01*
X34285280Y-28806500D01*
X34285377Y-28828881D01*
X34285971Y-28857074D01*
X34287164Y-28876683D01*
X34289027Y-28888672D01*
X34291630Y-28894004D01*
X34295374Y-28896080D01*
X34307592Y-28901749D01*
X34326329Y-28909916D01*
X34349865Y-28919836D01*
X34376480Y-28930765D01*
X34392200Y-28937094D01*
X34418451Y-28947311D01*
X34437415Y-28954001D01*
X34450436Y-28957567D01*
X34458863Y-28958412D01*
X34464041Y-28956938D01*
X34469785Y-28953655D01*
X34475711Y-28951280D01*
X34476185Y-28952557D01*
X34477029Y-28961842D01*
X34477706Y-28978642D01*
X34478156Y-29001206D01*
X34478320Y-29027779D01*
X34478319Y-29029611D01*
X34477965Y-29061534D01*
X34476985Y-29084320D01*
X34475402Y-29097634D01*
X34473240Y-29101140D01*
X34469860Y-29095581D01*
X34468141Y-29084330D01*
X34468109Y-29083209D01*
X34464938Y-29069095D01*
X34458165Y-29054329D01*
X34455202Y-29049579D01*
X34451333Y-29044124D01*
X34446632Y-29038921D01*
X34440382Y-29033631D01*
X34431868Y-29027915D01*
X34420376Y-29021433D01*
X34405189Y-29013847D01*
X34385593Y-29004818D01*
X34360873Y-28994006D01*
X34330313Y-28981074D01*
X34293198Y-28965681D01*
X34248812Y-28947489D01*
X34196441Y-28926160D01*
X34135369Y-28901353D01*
X34122716Y-28896216D01*
X34077633Y-28877907D01*
X34040895Y-28862952D01*
X34011647Y-28850972D01*
X33989037Y-28841586D01*
X33972211Y-28834416D01*
X33960316Y-28829082D01*
X33952497Y-28825203D01*
X33947902Y-28822401D01*
X33945676Y-28820296D01*
X33944966Y-28818509D01*
X33944920Y-28816660D01*
X33944901Y-28815361D01*
X33945205Y-28813736D01*
X33946585Y-28811950D01*
X33949803Y-28809685D01*
X33955623Y-28806620D01*
X33960873Y-28804227D01*
X34056680Y-28804227D01*
X34060299Y-28806424D01*
X34071883Y-28811595D01*
X34089775Y-28819002D01*
X34112266Y-28827989D01*
X34137647Y-28837902D01*
X34164208Y-28848086D01*
X34190240Y-28857886D01*
X34214035Y-28866649D01*
X34233883Y-28873718D01*
X34248075Y-28878440D01*
X34254901Y-28880160D01*
X34255500Y-28879627D01*
X34257107Y-28872057D01*
X34258368Y-28857222D01*
X34259267Y-28837297D01*
X34259785Y-28814459D01*
X34259905Y-28790883D01*
X34259612Y-28768745D01*
X34258886Y-28750221D01*
X34257711Y-28737488D01*
X34256070Y-28732721D01*
X34250315Y-28734023D01*
X34236783Y-28738203D01*
X34217360Y-28744661D01*
X34193770Y-28752780D01*
X34167736Y-28761943D01*
X34140980Y-28771531D01*
X34115226Y-28780927D01*
X34092196Y-28789512D01*
X34073613Y-28796669D01*
X34061200Y-28801780D01*
X34056680Y-28804227D01*
X33960873Y-28804227D01*
X33964807Y-28802434D01*
X33978119Y-28796807D01*
X33996321Y-28789418D01*
X34020177Y-28779948D01*
X34050449Y-28768075D01*
X34087901Y-28753479D01*
X34133295Y-28735841D01*
X34187395Y-28714838D01*
X34222737Y-28701087D01*
X34256070Y-28688051D01*
X34266449Y-28683992D01*
X34307105Y-28667998D01*
X34343634Y-28653529D01*
X34374966Y-28641012D01*
X34400030Y-28630874D01*
X34417756Y-28623540D01*
X34427074Y-28619437D01*
X34427459Y-28619245D01*
X34449351Y-28603836D01*
X34463257Y-28584063D01*
X34468141Y-28561390D01*
X34468156Y-28560141D01*
X34469777Y-28549321D01*
X34473240Y-28544880D01*
X34473653Y-28545053D01*
G37*
G36*
X33964091Y-39411035D02*
G01*
X33967325Y-39417147D01*
X33969337Y-39429963D01*
X33969420Y-39431128D01*
X33970052Y-39439579D01*
X33971253Y-39446582D01*
X33973896Y-39452273D01*
X33978852Y-39456787D01*
X33986993Y-39460259D01*
X33999191Y-39462824D01*
X34016318Y-39464618D01*
X34039246Y-39465777D01*
X34068846Y-39466435D01*
X34105990Y-39466727D01*
X34121749Y-39466749D01*
X34151551Y-39466790D01*
X34206400Y-39466758D01*
X34227718Y-39466724D01*
X34273105Y-39466497D01*
X34315428Y-39466083D01*
X34353504Y-39465507D01*
X34386152Y-39464790D01*
X34412188Y-39463959D01*
X34430429Y-39463036D01*
X34439693Y-39462046D01*
X34456262Y-39456277D01*
X34465377Y-39447134D01*
X34468082Y-39432889D01*
X34469115Y-39425704D01*
X34473240Y-39418620D01*
X34474128Y-39418905D01*
X34475940Y-39426652D01*
X34477252Y-39444178D01*
X34478050Y-39471221D01*
X34478320Y-39507520D01*
X34478129Y-39534631D01*
X34477345Y-39562892D01*
X34476018Y-39582871D01*
X34474214Y-39594193D01*
X34472003Y-39596483D01*
X34469451Y-39589365D01*
X34466625Y-39572465D01*
X34465873Y-39567297D01*
X34463209Y-39555869D01*
X34458502Y-39547358D01*
X34450400Y-39541245D01*
X34437551Y-39537013D01*
X34418601Y-39534141D01*
X34392199Y-39532111D01*
X34356991Y-39530405D01*
X34335086Y-39529584D01*
X34308714Y-39528939D01*
X34287113Y-39528809D01*
X34272072Y-39529199D01*
X34265386Y-39530116D01*
X34264414Y-39531298D01*
X34261999Y-39541038D01*
X34260435Y-39558908D01*
X34259880Y-39583404D01*
X34259880Y-39633288D01*
X34299250Y-39662776D01*
X34302804Y-39665443D01*
X34336826Y-39691437D01*
X34368829Y-39716694D01*
X34397566Y-39740175D01*
X34421789Y-39760844D01*
X34440252Y-39777663D01*
X34451708Y-39789595D01*
X34459804Y-39800521D01*
X34468734Y-39817819D01*
X34474428Y-39838375D01*
X34477439Y-39864448D01*
X34478320Y-39898299D01*
X34478079Y-39915141D01*
X34476886Y-39934091D01*
X34474889Y-39944496D01*
X34472307Y-39945954D01*
X34469361Y-39938059D01*
X34466271Y-39920408D01*
X34464448Y-39910452D01*
X34459628Y-39895554D01*
X34451699Y-39880276D01*
X34439931Y-39863817D01*
X34423594Y-39845378D01*
X34401959Y-39824158D01*
X34374298Y-39799358D01*
X34339881Y-39770178D01*
X34297980Y-39735819D01*
X34286313Y-39726371D01*
X34269387Y-39712715D01*
X34256016Y-39701991D01*
X34248365Y-39695937D01*
X34246339Y-39694527D01*
X34241081Y-39693117D01*
X34234385Y-39695833D01*
X34224370Y-39703729D01*
X34209153Y-39717856D01*
X34185746Y-39738088D01*
X34153309Y-39758571D01*
X34120014Y-39770347D01*
X34084221Y-39774154D01*
X34068552Y-39773892D01*
X34052216Y-39772000D01*
X34038593Y-39767339D01*
X34023357Y-39758821D01*
X34012295Y-39751543D01*
X33996781Y-39738875D01*
X33984442Y-39724395D01*
X33974935Y-39706915D01*
X33967915Y-39685247D01*
X33963037Y-39658202D01*
X33959955Y-39624592D01*
X33958325Y-39583227D01*
X33958315Y-39582273D01*
X33983131Y-39582273D01*
X33983181Y-39587511D01*
X33985935Y-39620509D01*
X33993494Y-39646396D01*
X34006709Y-39667188D01*
X34026431Y-39684903D01*
X34048208Y-39697263D01*
X34078885Y-39706872D01*
X34111766Y-39710469D01*
X34144651Y-39708238D01*
X34175340Y-39700366D01*
X34201633Y-39687038D01*
X34221329Y-39668441D01*
X34225048Y-39662677D01*
X34229379Y-39651379D01*
X34231810Y-39635619D01*
X34232928Y-39612561D01*
X34232970Y-39591379D01*
X34230827Y-39562575D01*
X34225970Y-39542754D01*
X34218477Y-39532341D01*
X34212703Y-39531046D01*
X34198114Y-39529838D01*
X34176845Y-39528948D01*
X34150767Y-39528373D01*
X34121749Y-39528108D01*
X34091662Y-39528150D01*
X34062375Y-39528494D01*
X34035760Y-39529137D01*
X34013685Y-39530076D01*
X33998022Y-39531305D01*
X33990640Y-39532821D01*
X33987842Y-39535708D01*
X33984995Y-39544119D01*
X33983516Y-39559037D01*
X33983131Y-39582273D01*
X33958315Y-39582273D01*
X33957802Y-39532920D01*
X33957798Y-39528497D01*
X33957994Y-39488752D01*
X33958610Y-39456453D01*
X33959618Y-39432276D01*
X33960990Y-39416899D01*
X33962700Y-39411000D01*
X33964091Y-39411035D01*
G37*
G36*
X33119420Y-25994849D02*
G01*
X33192656Y-26001140D01*
X33300359Y-26013956D01*
X33409226Y-26031239D01*
X33520011Y-26053199D01*
X33633463Y-26080046D01*
X33750334Y-26111989D01*
X33871376Y-26149238D01*
X33997340Y-26192002D01*
X34128977Y-26240491D01*
X34267040Y-26294915D01*
X34412280Y-26355483D01*
X34591774Y-26434604D01*
X34789701Y-26527411D01*
X34989333Y-26626843D01*
X35191121Y-26733157D01*
X35395512Y-26846607D01*
X35602955Y-26967450D01*
X35813899Y-27095940D01*
X36028792Y-27232335D01*
X36248082Y-27376889D01*
X36472220Y-27529859D01*
X36650392Y-27654853D01*
X36891944Y-27829142D01*
X37126447Y-28004261D01*
X37355432Y-28181445D01*
X37580432Y-28361928D01*
X37802977Y-28546945D01*
X38024599Y-28737732D01*
X38246829Y-28935522D01*
X38471200Y-29141551D01*
X38489565Y-29158724D01*
X38554071Y-29219848D01*
X38623132Y-29286399D01*
X38695539Y-29357155D01*
X38770079Y-29430894D01*
X38845543Y-29506393D01*
X38920720Y-29582429D01*
X38994399Y-29657781D01*
X39065369Y-29731225D01*
X39132421Y-29801538D01*
X39194342Y-29867500D01*
X39249923Y-29927886D01*
X39331609Y-30018809D01*
X39437806Y-30140280D01*
X39542085Y-30263212D01*
X39643689Y-30386636D01*
X39741859Y-30509584D01*
X39835836Y-30631088D01*
X39924864Y-30750179D01*
X40008183Y-30865890D01*
X40085036Y-30977251D01*
X40154664Y-31083296D01*
X40165215Y-31099909D01*
X40232659Y-31210045D01*
X40295510Y-31319628D01*
X40353494Y-31428007D01*
X40406342Y-31534532D01*
X40453782Y-31638552D01*
X40495541Y-31739417D01*
X40531349Y-31836477D01*
X40560935Y-31929081D01*
X40584026Y-32016579D01*
X40600352Y-32098320D01*
X40609640Y-32173653D01*
X40610855Y-32191522D01*
X40611756Y-32265257D01*
X40606182Y-32337035D01*
X40594401Y-32405194D01*
X40576680Y-32468072D01*
X40553286Y-32524010D01*
X40530353Y-32564186D01*
X40491711Y-32615746D01*
X40446520Y-32660731D01*
X40395764Y-32698330D01*
X40340425Y-32727732D01*
X40281486Y-32748128D01*
X40258337Y-32753791D01*
X40243849Y-32756055D01*
X40237935Y-32754180D01*
X40240316Y-32747477D01*
X40250715Y-32735257D01*
X40268853Y-32716830D01*
X40275949Y-32709675D01*
X40317207Y-32662395D01*
X40349646Y-32613548D01*
X40374411Y-32561162D01*
X40392644Y-32503263D01*
X40396795Y-32483734D01*
X40402383Y-32438916D01*
X40404409Y-32388393D01*
X40402904Y-32334694D01*
X40397897Y-32280347D01*
X40389417Y-32227880D01*
X40388017Y-32220976D01*
X40368760Y-32134250D01*
X40346619Y-32047780D01*
X40322310Y-31964044D01*
X40296548Y-31885515D01*
X40270048Y-31814672D01*
X40256556Y-31782551D01*
X40238421Y-31741812D01*
X40217370Y-31696347D01*
X40194429Y-31648301D01*
X40170623Y-31599823D01*
X40146980Y-31553059D01*
X40124524Y-31510156D01*
X40109736Y-31482735D01*
X40053243Y-31382118D01*
X39992838Y-31280900D01*
X39928142Y-31178574D01*
X39858779Y-31074633D01*
X39784370Y-30968572D01*
X39704537Y-30859883D01*
X39618902Y-30748060D01*
X39527087Y-30632596D01*
X39428715Y-30512985D01*
X39323407Y-30388720D01*
X39210786Y-30259296D01*
X39090473Y-30124204D01*
X38896796Y-29912914D01*
X38621025Y-29624951D01*
X38338264Y-29344341D01*
X38048591Y-29071148D01*
X37752084Y-28805439D01*
X37448821Y-28547277D01*
X37138882Y-28296727D01*
X36822344Y-28053854D01*
X36499287Y-27818721D01*
X36169788Y-27591395D01*
X35833926Y-27371939D01*
X35491780Y-27160418D01*
X35375374Y-27091155D01*
X35227646Y-27005499D01*
X35086089Y-26926141D01*
X34949980Y-26852726D01*
X34818594Y-26784902D01*
X34691209Y-26722316D01*
X34567102Y-26664614D01*
X34445549Y-26611444D01*
X34325826Y-26562452D01*
X34207212Y-26517285D01*
X34088981Y-26475590D01*
X34068950Y-26468833D01*
X34043034Y-26460207D01*
X34017694Y-26451948D01*
X33991894Y-26443746D01*
X33964597Y-26435294D01*
X33934767Y-26426282D01*
X33901368Y-26416401D01*
X33863362Y-26405343D01*
X33819714Y-26392798D01*
X33769386Y-26378458D01*
X33711343Y-26362013D01*
X33644548Y-26343156D01*
X33555150Y-26318307D01*
X33459695Y-26292776D01*
X33372573Y-26270748D01*
X33293158Y-26252162D01*
X33220825Y-26236959D01*
X33154949Y-26225080D01*
X33094904Y-26216464D01*
X33040066Y-26211052D01*
X32989809Y-26208785D01*
X32943509Y-26209604D01*
X32900540Y-26213448D01*
X32860276Y-26220258D01*
X32822094Y-26229974D01*
X32785367Y-26242537D01*
X32749470Y-26257888D01*
X32725339Y-26269776D01*
X32683570Y-26294202D01*
X32647429Y-26321516D01*
X32613905Y-26353849D01*
X32595622Y-26374631D01*
X32567918Y-26412709D01*
X32546073Y-26453190D01*
X32529900Y-26497026D01*
X32519217Y-26545170D01*
X32513840Y-26598577D01*
X32513583Y-26658198D01*
X32518263Y-26724988D01*
X32527695Y-26799900D01*
X32528350Y-26804301D01*
X32535770Y-26850624D01*
X32544025Y-26895445D01*
X32553400Y-26939579D01*
X32564181Y-26983841D01*
X32576653Y-27029044D01*
X32591100Y-27076005D01*
X32607808Y-27125537D01*
X32627061Y-27178455D01*
X32649145Y-27235574D01*
X32674344Y-27297709D01*
X32702943Y-27365675D01*
X32735227Y-27440285D01*
X32771482Y-27522355D01*
X32811992Y-27612700D01*
X32814689Y-27618682D01*
X32832590Y-27658544D01*
X32849178Y-27695733D01*
X32863971Y-27729152D01*
X32876488Y-27757704D01*
X32886249Y-27780294D01*
X32892773Y-27795824D01*
X32895577Y-27803200D01*
X32898977Y-27815900D01*
X32888424Y-27803754D01*
X32885265Y-27799518D01*
X32876608Y-27786442D01*
X32863939Y-27766395D01*
X32847916Y-27740481D01*
X32829198Y-27709803D01*
X32808442Y-27675463D01*
X32786308Y-27638564D01*
X32763454Y-27600209D01*
X32740538Y-27561501D01*
X32718220Y-27523542D01*
X32697156Y-27487435D01*
X32678007Y-27454283D01*
X32661429Y-27425189D01*
X32648083Y-27401255D01*
X32616000Y-27341617D01*
X32560907Y-27232515D01*
X32513137Y-27127941D01*
X32472270Y-27026732D01*
X32437882Y-26927722D01*
X32409554Y-26829750D01*
X32386862Y-26731650D01*
X32369386Y-26632260D01*
X32368326Y-26624137D01*
X32366076Y-26599168D01*
X32364293Y-26568515D01*
X32363139Y-26535319D01*
X32362774Y-26502720D01*
X32362804Y-26494849D01*
X32363263Y-26461582D01*
X32364403Y-26435415D01*
X32366448Y-26413812D01*
X32369623Y-26394239D01*
X32374151Y-26374160D01*
X32377723Y-26360490D01*
X32400339Y-26294216D01*
X32430107Y-26235004D01*
X32467282Y-26182480D01*
X32512120Y-26136270D01*
X32564878Y-26096003D01*
X32610945Y-26069123D01*
X32677417Y-26040119D01*
X32751387Y-26017731D01*
X32832715Y-26001984D01*
X32921258Y-25992904D01*
X33016873Y-25990517D01*
X33119420Y-25994849D01*
G37*
G36*
X36084811Y-29912612D02*
G01*
X36094990Y-29916061D01*
X36107120Y-29920390D01*
X36138285Y-29932296D01*
X36175879Y-29947435D01*
X36218064Y-29965008D01*
X36262999Y-29984216D01*
X36308848Y-30004258D01*
X36353771Y-30024335D01*
X36395930Y-30043648D01*
X36433486Y-30061398D01*
X36464600Y-30076784D01*
X36472036Y-30080606D01*
X36505156Y-30098242D01*
X36530416Y-30112511D01*
X36538691Y-30117186D01*
X36573588Y-30138059D01*
X36610796Y-30161481D01*
X36651261Y-30188070D01*
X36695931Y-30218449D01*
X36716801Y-30233020D01*
X36745754Y-30253235D01*
X36801678Y-30293050D01*
X36864650Y-30338514D01*
X36891205Y-30357789D01*
X36932471Y-30387743D01*
X36980158Y-30422361D01*
X37033248Y-30460901D01*
X37090719Y-30502624D01*
X37151552Y-30546787D01*
X37214727Y-30592652D01*
X37279223Y-30639477D01*
X37344021Y-30686522D01*
X37408100Y-30733045D01*
X37470440Y-30778307D01*
X37488985Y-30791770D01*
X37494907Y-30796069D01*
X37555060Y-30839713D01*
X37621938Y-30888208D01*
X37694495Y-30940798D01*
X37771685Y-30996725D01*
X37783131Y-31005015D01*
X37803386Y-31019686D01*
X37852463Y-31055233D01*
X37935784Y-31115564D01*
X38020602Y-31176963D01*
X38105871Y-31238671D01*
X38190547Y-31299932D01*
X38273584Y-31359989D01*
X38353937Y-31418085D01*
X38392288Y-31445803D01*
X38430560Y-31473463D01*
X38431666Y-31474263D01*
X38503325Y-31526047D01*
X38575457Y-31578182D01*
X38647337Y-31630142D01*
X38718237Y-31681402D01*
X38762161Y-31713164D01*
X38774511Y-31722094D01*
X38787433Y-31731438D01*
X38854200Y-31779724D01*
X38917810Y-31825736D01*
X38977539Y-31868948D01*
X39032661Y-31908835D01*
X39082449Y-31944873D01*
X39126179Y-31976537D01*
X39163124Y-32003302D01*
X39192560Y-32024642D01*
X39195991Y-32027131D01*
X39235906Y-32056013D01*
X39258872Y-32072559D01*
X39273436Y-32083051D01*
X39307750Y-32107652D01*
X39338015Y-32129226D01*
X39363399Y-32147181D01*
X39383070Y-32160925D01*
X39396195Y-32169868D01*
X39401941Y-32173418D01*
X39405984Y-32174078D01*
X39418984Y-32173156D01*
X39423700Y-32172134D01*
X39434961Y-32169692D01*
X39435135Y-32169643D01*
X39472061Y-32159139D01*
X39530852Y-32142629D01*
X39581735Y-32128633D01*
X39624409Y-32117227D01*
X39658575Y-32108491D01*
X39683930Y-32102502D01*
X39700174Y-32099338D01*
X39707007Y-32099078D01*
X39709067Y-32100344D01*
X39722652Y-32109363D01*
X39741199Y-32122410D01*
X39763390Y-32138485D01*
X39787906Y-32156586D01*
X39813430Y-32175716D01*
X39838643Y-32194873D01*
X39862228Y-32213057D01*
X39882866Y-32229268D01*
X39899239Y-32242507D01*
X39910030Y-32251773D01*
X39913920Y-32256066D01*
X39913570Y-32259069D01*
X39911542Y-32271176D01*
X39907950Y-32290862D01*
X39903073Y-32316638D01*
X39897190Y-32347013D01*
X39890581Y-32380498D01*
X39886699Y-32400354D01*
X39880707Y-32432637D01*
X39875804Y-32461178D01*
X39872237Y-32484425D01*
X39870253Y-32500828D01*
X39870100Y-32508837D01*
X39872674Y-32513812D01*
X39882327Y-32524171D01*
X39895986Y-32534421D01*
X39919739Y-32552505D01*
X39946961Y-32582308D01*
X39964657Y-32611317D01*
X39967819Y-32616500D01*
X39972166Y-32626568D01*
X39977717Y-32643090D01*
X39979910Y-32655291D01*
X39979900Y-32655813D01*
X39976366Y-32668238D01*
X39967352Y-32686019D01*
X39954133Y-32707113D01*
X39937984Y-32729475D01*
X39920180Y-32751060D01*
X39912132Y-32759811D01*
X39902092Y-32768267D01*
X39892032Y-32771795D01*
X39878150Y-32772316D01*
X39854033Y-32769653D01*
X39820799Y-32760842D01*
X39788292Y-32747359D01*
X39773848Y-32738620D01*
X39905767Y-32738620D01*
X39908377Y-32738214D01*
X39914696Y-32732613D01*
X39923369Y-32723284D01*
X39933038Y-32711698D01*
X39942348Y-32699320D01*
X39949942Y-32687620D01*
X39956102Y-32676511D01*
X39962266Y-32664070D01*
X39964672Y-32657248D01*
X39964657Y-32657102D01*
X39961659Y-32659245D01*
X39954474Y-32667609D01*
X39944587Y-32680211D01*
X39933481Y-32695068D01*
X39922643Y-32710197D01*
X39913556Y-32723615D01*
X39907706Y-32733340D01*
X39905767Y-32738620D01*
X39773848Y-32738620D01*
X39760791Y-32730720D01*
X39746723Y-32721057D01*
X39732977Y-32713410D01*
X39723973Y-32710480D01*
X39720396Y-32711506D01*
X39708473Y-32716910D01*
X39690017Y-32726319D01*
X39666373Y-32739020D01*
X39638889Y-32754298D01*
X39608913Y-32771440D01*
X39589293Y-32782735D01*
X39561037Y-32798722D01*
X39536286Y-32812391D01*
X39516352Y-32823034D01*
X39502546Y-32829940D01*
X39496183Y-32832400D01*
X39495195Y-32832114D01*
X39487147Y-32827598D01*
X39472739Y-32818355D01*
X39453365Y-32805366D01*
X39430418Y-32789616D01*
X39405292Y-32772089D01*
X39379380Y-32753766D01*
X39354075Y-32735632D01*
X39330772Y-32718669D01*
X39310864Y-32703862D01*
X39295743Y-32692194D01*
X39286804Y-32684647D01*
X39285320Y-32683106D01*
X39282402Y-32678705D01*
X39280109Y-32672090D01*
X39278295Y-32661938D01*
X39276813Y-32646923D01*
X39275514Y-32625724D01*
X39274253Y-32597015D01*
X39272881Y-32559473D01*
X39271597Y-32523202D01*
X39270045Y-32483000D01*
X39268536Y-32450991D01*
X39266923Y-32426056D01*
X39265055Y-32407073D01*
X39262785Y-32392924D01*
X39259963Y-32382486D01*
X39256441Y-32374641D01*
X39252071Y-32368267D01*
X39246703Y-32362245D01*
X39246627Y-32362169D01*
X39240845Y-32357555D01*
X39227170Y-32347236D01*
X39205927Y-32331449D01*
X39177440Y-32310428D01*
X39171765Y-32306258D01*
X39431320Y-32306258D01*
X39431323Y-32306293D01*
X39435132Y-32309983D01*
X39446181Y-32318849D01*
X39464616Y-32332997D01*
X39490581Y-32352535D01*
X39524220Y-32377572D01*
X39565676Y-32408215D01*
X39615095Y-32444572D01*
X39672620Y-32486751D01*
X39686620Y-32497004D01*
X39717312Y-32519496D01*
X39745033Y-32539830D01*
X39768737Y-32557236D01*
X39787380Y-32570948D01*
X39799915Y-32580198D01*
X39805295Y-32584215D01*
X39809102Y-32585721D01*
X39816837Y-32581617D01*
X39817050Y-32579049D01*
X39814053Y-32574504D01*
X39807147Y-32567566D01*
X39795708Y-32557739D01*
X39779109Y-32544523D01*
X39756725Y-32527423D01*
X39727929Y-32505939D01*
X39692097Y-32479575D01*
X39648601Y-32447833D01*
X39620323Y-32427324D01*
X39569930Y-32391230D01*
X39527403Y-32361448D01*
X39492702Y-32337950D01*
X39465785Y-32320709D01*
X39446610Y-32309698D01*
X39435135Y-32304890D01*
X39431320Y-32306258D01*
X39171765Y-32306258D01*
X39165344Y-32301540D01*
X39421160Y-32301540D01*
X39423700Y-32304080D01*
X39426240Y-32301540D01*
X39423700Y-32299000D01*
X39421160Y-32301540D01*
X39165344Y-32301540D01*
X39142034Y-32284412D01*
X39100033Y-32253636D01*
X39051762Y-32218336D01*
X39010536Y-32188235D01*
X39236881Y-32188235D01*
X39239110Y-32195860D01*
X39245257Y-32201178D01*
X39253654Y-32200648D01*
X39263966Y-32191050D01*
X39270717Y-32181688D01*
X39273130Y-32171705D01*
X39267744Y-32162856D01*
X39266151Y-32161329D01*
X39258872Y-32157324D01*
X39252038Y-32160914D01*
X39243493Y-32173000D01*
X39241336Y-32176698D01*
X39236881Y-32188235D01*
X39010536Y-32188235D01*
X38997545Y-32178750D01*
X38937707Y-32135112D01*
X38872573Y-32087660D01*
X38802466Y-32036629D01*
X38727711Y-31982257D01*
X38648634Y-31924779D01*
X38565558Y-31864431D01*
X38534386Y-31841800D01*
X38750793Y-31841800D01*
X38750917Y-31841974D01*
X38756270Y-31846315D01*
X38768949Y-31855915D01*
X38788169Y-31870198D01*
X38813144Y-31888587D01*
X38843089Y-31910504D01*
X38877217Y-31935373D01*
X38914744Y-31962617D01*
X38954883Y-31991660D01*
X38956204Y-31992613D01*
X38997631Y-32022554D01*
X39037513Y-32051405D01*
X39074894Y-32078475D01*
X39108817Y-32103068D01*
X39138326Y-32124492D01*
X39162464Y-32142052D01*
X39180276Y-32155055D01*
X39190805Y-32162807D01*
X39222778Y-32186635D01*
X39232236Y-32172967D01*
X39232237Y-32172966D01*
X39239955Y-32161513D01*
X39245231Y-32153169D01*
X39243933Y-32149113D01*
X39234686Y-32139669D01*
X39217276Y-32125680D01*
X39192053Y-32107449D01*
X39191490Y-32107056D01*
X39174009Y-32094707D01*
X39149707Y-32077351D01*
X39119908Y-32055940D01*
X39085933Y-32031429D01*
X39049105Y-32004772D01*
X39010746Y-31976922D01*
X38972179Y-31948834D01*
X38963099Y-31942214D01*
X38926989Y-31915959D01*
X38893096Y-31891429D01*
X38862417Y-31869337D01*
X38835948Y-31850397D01*
X38814686Y-31835322D01*
X38799626Y-31824827D01*
X38791765Y-31819623D01*
X38774511Y-31809438D01*
X38762581Y-31824349D01*
X38760610Y-31826849D01*
X38753567Y-31836569D01*
X38750793Y-31841800D01*
X38534386Y-31841800D01*
X38509315Y-31823599D01*
X38726307Y-31823599D01*
X38732520Y-31831391D01*
X38732887Y-31831689D01*
X38738313Y-31833553D01*
X38744314Y-31829078D01*
X38752840Y-31816874D01*
X38755633Y-31812301D01*
X38763798Y-31795621D01*
X38765795Y-31784939D01*
X38762161Y-31781087D01*
X38753435Y-31784900D01*
X38740153Y-31797212D01*
X38735436Y-31802557D01*
X38727121Y-31814693D01*
X38726307Y-31823599D01*
X38509315Y-31823599D01*
X38478807Y-31801450D01*
X38388707Y-31736073D01*
X38295582Y-31668535D01*
X38199756Y-31599073D01*
X38149134Y-31562397D01*
X38363645Y-31562397D01*
X38363672Y-31566527D01*
X38368470Y-31567480D01*
X38377702Y-31564371D01*
X38388005Y-31556050D01*
X38390833Y-31552812D01*
X38401811Y-31539706D01*
X38406836Y-31531883D01*
X38406734Y-31527544D01*
X38402334Y-31524893D01*
X38398017Y-31523333D01*
X38392288Y-31521760D01*
X38390188Y-31523710D01*
X38383667Y-31532013D01*
X38374680Y-31544620D01*
X38368907Y-31553182D01*
X38363645Y-31562397D01*
X38149134Y-31562397D01*
X38101553Y-31527924D01*
X38001300Y-31455322D01*
X37911574Y-31390361D01*
X37811471Y-31317885D01*
X37713162Y-31246708D01*
X37617006Y-31177088D01*
X37553471Y-31131087D01*
X37760000Y-31131087D01*
X37762485Y-31140655D01*
X37769476Y-31143616D01*
X37771437Y-31142232D01*
X37781304Y-31142232D01*
X37819935Y-31169949D01*
X37828348Y-31176002D01*
X37845543Y-31188409D01*
X37869393Y-31205638D01*
X37899025Y-31227058D01*
X37933567Y-31252039D01*
X37972147Y-31279950D01*
X38013892Y-31310159D01*
X38057931Y-31342037D01*
X38103392Y-31374952D01*
X38145588Y-31405479D01*
X38187367Y-31435642D01*
X38225991Y-31463466D01*
X38260736Y-31488431D01*
X38290879Y-31510020D01*
X38315694Y-31527713D01*
X38334459Y-31540993D01*
X38346450Y-31549342D01*
X38350942Y-31552240D01*
X38351382Y-31552116D01*
X38356534Y-31547251D01*
X38364170Y-31537490D01*
X38374673Y-31522740D01*
X38300374Y-31471027D01*
X38292882Y-31465790D01*
X38269466Y-31449254D01*
X38239720Y-31428078D01*
X38204972Y-31403214D01*
X38166554Y-31375619D01*
X38125794Y-31346247D01*
X38084022Y-31316050D01*
X38042567Y-31285985D01*
X38017560Y-31267827D01*
X37979264Y-31240060D01*
X37943198Y-31213959D01*
X37910359Y-31190241D01*
X37881745Y-31169627D01*
X37858353Y-31152836D01*
X37841179Y-31140586D01*
X37831223Y-31133597D01*
X37803386Y-31114538D01*
X37792345Y-31128385D01*
X37781304Y-31142232D01*
X37771437Y-31142232D01*
X37778203Y-31137458D01*
X37783233Y-31130871D01*
X37791165Y-31118495D01*
X37792575Y-31111077D01*
X37787969Y-31107048D01*
X37783131Y-31106556D01*
X37772686Y-31111121D01*
X37763772Y-31120331D01*
X37760000Y-31131087D01*
X37553471Y-31131087D01*
X37523359Y-31109285D01*
X37432579Y-31043557D01*
X37345024Y-30980163D01*
X37261052Y-30919362D01*
X37249710Y-30911150D01*
X37475520Y-30911150D01*
X37478569Y-30916603D01*
X37488649Y-30926696D01*
X37504005Y-30939596D01*
X37522798Y-30953994D01*
X37543191Y-30968582D01*
X37563346Y-30982051D01*
X37581425Y-30993092D01*
X37595591Y-31000396D01*
X37604005Y-31002655D01*
X37609923Y-31000747D01*
X37616062Y-30992804D01*
X37615006Y-30981585D01*
X37606541Y-30969865D01*
X37599481Y-30963837D01*
X37580895Y-30949423D01*
X37558605Y-30933366D01*
X37535923Y-30918016D01*
X37516160Y-30905724D01*
X37504282Y-30899843D01*
X37488985Y-30896438D01*
X37479056Y-30900252D01*
X37475520Y-30911150D01*
X37249710Y-30911150D01*
X37181019Y-30861413D01*
X37105283Y-30806575D01*
X37034201Y-30755106D01*
X36968132Y-30707265D01*
X36907433Y-30663312D01*
X36852460Y-30623505D01*
X36803573Y-30588102D01*
X36761127Y-30557364D01*
X36725481Y-30531548D01*
X36696993Y-30510914D01*
X36676018Y-30495720D01*
X36662916Y-30486225D01*
X36621672Y-30456181D01*
X36566701Y-30415479D01*
X36517818Y-30378204D01*
X36487790Y-30354335D01*
X36704596Y-30354335D01*
X36706265Y-30355966D01*
X36715224Y-30363135D01*
X36731279Y-30375406D01*
X36753711Y-30392256D01*
X36781802Y-30413163D01*
X36814832Y-30437601D01*
X36852082Y-30465049D01*
X36892834Y-30494982D01*
X36936369Y-30526878D01*
X36981967Y-30560212D01*
X37028910Y-30594462D01*
X37076478Y-30629105D01*
X37123953Y-30663615D01*
X37170616Y-30697471D01*
X37215748Y-30730149D01*
X37258630Y-30761126D01*
X37298543Y-30789878D01*
X37334767Y-30815881D01*
X37366585Y-30838613D01*
X37393277Y-30857550D01*
X37414124Y-30872169D01*
X37428407Y-30881945D01*
X37435408Y-30886357D01*
X37437423Y-30887331D01*
X37450303Y-30890913D01*
X37462705Y-30887736D01*
X37471382Y-30882700D01*
X37475315Y-30877978D01*
X37471807Y-30874967D01*
X37460723Y-30866484D01*
X37442755Y-30853068D01*
X37418613Y-30835231D01*
X37389005Y-30813486D01*
X37354642Y-30788347D01*
X37316232Y-30760327D01*
X37274485Y-30729939D01*
X37230110Y-30697696D01*
X37183817Y-30664111D01*
X37136315Y-30629698D01*
X37088313Y-30594969D01*
X37040521Y-30560438D01*
X36993647Y-30526618D01*
X36948402Y-30494023D01*
X36905494Y-30463164D01*
X36865634Y-30434557D01*
X36829529Y-30408713D01*
X36797891Y-30386145D01*
X36771427Y-30367368D01*
X36750847Y-30352894D01*
X36736861Y-30343237D01*
X36730178Y-30338909D01*
X36725115Y-30336398D01*
X36716801Y-30334896D01*
X36709677Y-30339785D01*
X36705664Y-30345604D01*
X36704596Y-30354335D01*
X36487790Y-30354335D01*
X36473793Y-30343209D01*
X36433393Y-30309351D01*
X36395386Y-30275482D01*
X36358542Y-30240458D01*
X36326429Y-30207987D01*
X36510348Y-30207987D01*
X36513716Y-30215725D01*
X36522894Y-30225993D01*
X36538549Y-30239557D01*
X36561348Y-30257185D01*
X36591958Y-30279646D01*
X36595295Y-30282058D01*
X36620580Y-30300187D01*
X36643248Y-30316192D01*
X36661904Y-30329105D01*
X36675151Y-30337958D01*
X36681592Y-30341782D01*
X36687639Y-30341936D01*
X36696474Y-30335434D01*
X36700464Y-30329507D01*
X36702384Y-30324042D01*
X36701249Y-30318267D01*
X36696194Y-30311244D01*
X36686353Y-30302034D01*
X36670863Y-30289701D01*
X36648858Y-30273306D01*
X36619473Y-30251911D01*
X36611383Y-30246046D01*
X36584259Y-30226547D01*
X36563790Y-30212285D01*
X36548788Y-30202597D01*
X36538060Y-30196822D01*
X36530416Y-30194296D01*
X36524665Y-30194356D01*
X36519617Y-30196341D01*
X36518377Y-30197027D01*
X36512124Y-30202011D01*
X36510348Y-30207987D01*
X36326429Y-30207987D01*
X36321629Y-30203134D01*
X36283415Y-30162363D01*
X36242669Y-30117001D01*
X36198159Y-30065901D01*
X36148653Y-30007920D01*
X36146593Y-30005491D01*
X36120751Y-29974987D01*
X36100985Y-29951420D01*
X36086846Y-29934021D01*
X36077883Y-29922020D01*
X36073648Y-29914648D01*
X36073690Y-29911136D01*
X36077561Y-29910714D01*
X36084811Y-29912612D01*
G37*
%LPC*%
D12*
X31810000Y-35130000D03*
D13*
X31810000Y-38630000D03*
X31810000Y-42130000D03*
X31810000Y-45630000D03*
X31810000Y-49130000D03*
X31810000Y-52630000D03*
D14*
X29210000Y-29210000D03*
X41910000Y-29210000D03*
D12*
X39430000Y-52630000D03*
D13*
X39430000Y-49130000D03*
X39430000Y-45630000D03*
X39430000Y-42130000D03*
X39430000Y-38630000D03*
X39430000Y-35130000D03*
D15*
X41985000Y-56395000D03*
D16*
X39445000Y-56395000D03*
X36905000Y-56395000D03*
X34365000Y-56395000D03*
X31825000Y-56395000D03*
X29285000Y-56395000D03*
%LPD*%
M02*
