%TF.GenerationSoftware,KiCad,Pcbnew,7.0.7*%
%TF.CreationDate,2024-06-02T15:26:59-07:00*%
%TF.ProjectId,AnalogBox,416e616c-6f67-4426-9f78-2e6b69636164,rev?*%
%TF.SameCoordinates,Original*%
%TF.FileFunction,Soldermask,Top*%
%TF.FilePolarity,Negative*%
%FSLAX46Y46*%
G04 Gerber Fmt 4.6, Leading zero omitted, Abs format (unit mm)*
G04 Created by KiCad (PCBNEW 7.0.7) date 2024-06-02 15:26:59*
%MOMM*%
%LPD*%
G01*
G04 APERTURE LIST*
G04 Aperture macros list*
%AMRoundRect*
0 Rectangle with rounded corners*
0 $1 Rounding radius*
0 $2 $3 $4 $5 $6 $7 $8 $9 X,Y pos of 4 corners*
0 Add a 4 corners polygon primitive as box body*
4,1,4,$2,$3,$4,$5,$6,$7,$8,$9,$2,$3,0*
0 Add four circle primitives for the rounded corners*
1,1,$1+$1,$2,$3*
1,1,$1+$1,$4,$5*
1,1,$1+$1,$6,$7*
1,1,$1+$1,$8,$9*
0 Add four rect primitives between the rounded corners*
20,1,$1+$1,$2,$3,$4,$5,0*
20,1,$1+$1,$4,$5,$6,$7,0*
20,1,$1+$1,$6,$7,$8,$9,0*
20,1,$1+$1,$8,$9,$2,$3,0*%
G04 Aperture macros list end*
%ADD10C,1.397000*%
%ADD11C,3.200400*%
%ADD12C,3.600000*%
%ADD13C,6.400000*%
%ADD14RoundRect,0.102000X-0.900000X-0.900000X0.900000X-0.900000X0.900000X0.900000X-0.900000X0.900000X0*%
%ADD15C,2.004000*%
G04 APERTURE END LIST*
D10*
%TO.C,J8*%
X157099900Y-119124600D03*
X158369900Y-116584600D03*
X159639900Y-119124600D03*
X160909900Y-116584600D03*
X162179900Y-119124600D03*
X163449900Y-116584600D03*
X164719900Y-119124600D03*
X165989900Y-116584600D03*
D11*
X155829900Y-125474600D03*
X167259900Y-125474600D03*
%TD*%
D12*
%TO.C,H4*%
X185310000Y-113750000D03*
D13*
X185310000Y-113750000D03*
%TD*%
D12*
%TO.C,H1*%
X89200000Y-88350000D03*
D13*
X89200000Y-88350000D03*
%TD*%
D10*
%TO.C,J5*%
X105180000Y-119130000D03*
X106450000Y-116590000D03*
X107720000Y-119130000D03*
X108990000Y-116590000D03*
X110260000Y-119130000D03*
X111530000Y-116590000D03*
X112800000Y-119130000D03*
X114070000Y-116590000D03*
D11*
X103910000Y-125480000D03*
X115340000Y-125480000D03*
%TD*%
D14*
%TO.C,J10*%
X170080000Y-88962500D03*
X170080000Y-94462500D03*
D15*
X173580000Y-88962500D03*
X173580000Y-94462500D03*
%TD*%
D12*
%TO.C,H2*%
X89200000Y-113750000D03*
D13*
X89200000Y-113750000D03*
%TD*%
D14*
%TO.C,J3*%
X124930000Y-102640000D03*
X124930000Y-108140000D03*
D15*
X128430000Y-102640000D03*
X128430000Y-108140000D03*
X131930000Y-102640000D03*
X131930000Y-108140000D03*
X135430000Y-102640000D03*
X135430000Y-108140000D03*
X138930000Y-102640000D03*
X138930000Y-108140000D03*
X142430000Y-102640000D03*
X142430000Y-108140000D03*
X145930000Y-102640000D03*
X145930000Y-108140000D03*
X149430000Y-102640000D03*
X149430000Y-108140000D03*
%TD*%
D14*
%TO.C,J7*%
X140590000Y-88940000D03*
X140590000Y-94440000D03*
D15*
X144090000Y-88940000D03*
X144090000Y-94440000D03*
X147590000Y-88940000D03*
X147590000Y-94440000D03*
X151090000Y-88940000D03*
X151090000Y-94440000D03*
X154590000Y-88940000D03*
X154590000Y-94440000D03*
X158090000Y-88940000D03*
X158090000Y-94440000D03*
X161590000Y-88940000D03*
X161590000Y-94440000D03*
X165090000Y-88940000D03*
X165090000Y-94440000D03*
%TD*%
D14*
%TO.C,J9*%
X154320000Y-102640000D03*
X154320000Y-108140000D03*
D15*
X157820000Y-102640000D03*
X157820000Y-108140000D03*
X161320000Y-102640000D03*
X161320000Y-108140000D03*
X164820000Y-102640000D03*
X164820000Y-108140000D03*
X168320000Y-102640000D03*
X168320000Y-108140000D03*
X171820000Y-102640000D03*
X171820000Y-108140000D03*
X175320000Y-102640000D03*
X175320000Y-108140000D03*
X178820000Y-102640000D03*
X178820000Y-108140000D03*
%TD*%
D12*
%TO.C,H3*%
X185310000Y-88350000D03*
D13*
X185310000Y-88350000D03*
%TD*%
D14*
%TO.C,J6*%
X102640000Y-88952500D03*
X102640000Y-94452500D03*
D15*
X106140000Y-88952500D03*
X106140000Y-94452500D03*
%TD*%
D10*
%TO.C,J1*%
X131020000Y-119350000D03*
X132290000Y-116810000D03*
X133560000Y-119350000D03*
X134830000Y-116810000D03*
X136100000Y-119350000D03*
X137370000Y-116810000D03*
X138640000Y-119350000D03*
X139910000Y-116810000D03*
D11*
X129750000Y-125700000D03*
X141180000Y-125700000D03*
%TD*%
D14*
%TO.C,J4*%
X111310000Y-88990000D03*
X111310000Y-94490000D03*
D15*
X114810000Y-88990000D03*
X114810000Y-94490000D03*
X118310000Y-88990000D03*
X118310000Y-94490000D03*
X121810000Y-88990000D03*
X121810000Y-94490000D03*
X125310000Y-88990000D03*
X125310000Y-94490000D03*
X128810000Y-88990000D03*
X128810000Y-94490000D03*
X132310000Y-88990000D03*
X132310000Y-94490000D03*
X135810000Y-88990000D03*
X135810000Y-94490000D03*
%TD*%
D14*
%TO.C,J2*%
X95500000Y-102650000D03*
X95500000Y-108150000D03*
D15*
X99000000Y-102650000D03*
X99000000Y-108150000D03*
X102500000Y-102650000D03*
X102500000Y-108150000D03*
X106000000Y-102650000D03*
X106000000Y-108150000D03*
X109500000Y-102650000D03*
X109500000Y-108150000D03*
X113000000Y-102650000D03*
X113000000Y-108150000D03*
X116500000Y-102650000D03*
X116500000Y-108150000D03*
X120000000Y-102650000D03*
X120000000Y-108150000D03*
%TD*%
M02*
