M48
; DRILL file {KiCad 7.0.7} date Sun Jun  2 15:26:52 2024
; FORMAT={-:-/ absolute / metric / decimal}
; #@! TF.CreationDate,2024-06-02T15:26:52-07:00
; #@! TF.GenerationSoftware,Kicad,Pcbnew,7.0.7
; #@! TF.FileFunction,Plated,1,2,PTH
FMAT,2
METRIC
; #@! TA.AperFunction,Plated,PTH,ComponentDrill
T1C0.889
; #@! TA.AperFunction,Plated,PTH,ComponentDrill
T2C1.200
; #@! TA.AperFunction,Plated,PTH,ComponentDrill
T3C3.200
; #@! TA.AperFunction,Plated,PTH,ComponentDrill
T4C3.200
%
G90
G05
T1
X105.18Y-119.13
X106.45Y-116.59
X107.72Y-119.13
X108.99Y-116.59
X110.26Y-119.13
X111.53Y-116.59
X112.8Y-119.13
X114.07Y-116.59
X131.02Y-119.35
X132.29Y-116.81
X133.56Y-119.35
X134.83Y-116.81
X136.1Y-119.35
X137.37Y-116.81
X138.64Y-119.35
X139.91Y-116.81
X157.1Y-119.125
X158.37Y-116.585
X159.64Y-119.125
X160.91Y-116.585
X162.18Y-119.125
X163.45Y-116.585
X164.72Y-119.125
X165.99Y-116.585
T2
X95.5Y-102.65
X95.5Y-108.15
X99.0Y-102.65
X99.0Y-108.15
X102.5Y-102.65
X102.5Y-108.15
X102.64Y-88.953
X102.64Y-94.453
X106.0Y-102.65
X106.0Y-108.15
X106.14Y-88.953
X106.14Y-94.453
X109.5Y-102.65
X109.5Y-108.15
X111.31Y-88.99
X111.31Y-94.49
X113.0Y-102.65
X113.0Y-108.15
X114.81Y-88.99
X114.81Y-94.49
X116.5Y-102.65
X116.5Y-108.15
X118.31Y-88.99
X118.31Y-94.49
X120.0Y-102.65
X120.0Y-108.15
X121.81Y-88.99
X121.81Y-94.49
X124.93Y-102.64
X124.93Y-108.14
X125.31Y-88.99
X125.31Y-94.49
X128.43Y-102.64
X128.43Y-108.14
X128.81Y-88.99
X128.81Y-94.49
X131.93Y-102.64
X131.93Y-108.14
X132.31Y-88.99
X132.31Y-94.49
X135.43Y-102.64
X135.43Y-108.14
X135.81Y-88.99
X135.81Y-94.49
X138.93Y-102.64
X138.93Y-108.14
X140.59Y-88.94
X140.59Y-94.44
X142.43Y-102.64
X142.43Y-108.14
X144.09Y-88.94
X144.09Y-94.44
X145.93Y-102.64
X145.93Y-108.14
X147.59Y-88.94
X147.59Y-94.44
X149.43Y-102.64
X149.43Y-108.14
X151.09Y-88.94
X151.09Y-94.44
X154.32Y-102.64
X154.32Y-108.14
X154.59Y-88.94
X154.59Y-94.44
X157.82Y-102.64
X157.82Y-108.14
X158.09Y-88.94
X158.09Y-94.44
X161.32Y-102.64
X161.32Y-108.14
X161.59Y-88.94
X161.59Y-94.44
X164.82Y-102.64
X164.82Y-108.14
X165.09Y-88.94
X165.09Y-94.44
X168.32Y-102.64
X168.32Y-108.14
X170.08Y-88.962
X170.08Y-94.462
X171.82Y-102.64
X171.82Y-108.14
X173.58Y-88.962
X173.58Y-94.462
X175.32Y-102.64
X175.32Y-108.14
X178.82Y-102.64
X178.82Y-108.14
T3
X89.2Y-88.35
X89.2Y-113.75
X185.31Y-88.35
X185.31Y-113.75
T4
X103.91Y-125.48
X115.34Y-125.48
X129.75Y-125.7
X141.18Y-125.7
X155.83Y-125.475
X167.26Y-125.475
T0
M30
