%TF.GenerationSoftware,KiCad,Pcbnew,7.0.7*%
%TF.CreationDate,2023-09-04T23:57:06-07:00*%
%TF.ProjectId,PT Board Ground Systems V1.1,50542042-6f61-4726-9420-47726f756e64,rev?*%
%TF.SameCoordinates,Original*%
%TF.FileFunction,Drillmap*%
%TF.FilePolarity,Positive*%
%FSLAX45Y45*%
G04 Gerber Fmt 4.5, Leading zero omitted, Abs format (unit mm)*
G04 Created by KiCad (PCBNEW 7.0.7) date 2023-09-04 23:57:06*
%MOMM*%
%LPD*%
G01*
G04 APERTURE LIST*
%ADD10C,0.100000*%
%ADD11C,0.200000*%
%ADD12C,0.040000*%
%ADD13C,0.135000*%
%ADD14C,0.320000*%
G04 APERTURE END LIST*
D10*
X2540000Y-2540000D02*
X10160000Y-2540000D01*
X10160000Y-4826000D01*
X2540000Y-4826000D01*
X2540000Y-2540000D01*
D11*
D12*
X5167230Y-4288040D02*
X5207230Y-4328040D01*
X5207230Y-4288040D02*
X5167230Y-4328040D01*
D13*
X3666500Y-2899000D02*
G75*
G03*
X3666500Y-2899000I-67500J0D01*
G01*
X3666500Y-3449000D02*
G75*
G03*
X3666500Y-3449000I-67500J0D01*
G01*
X4016500Y-2899000D02*
G75*
G03*
X4016500Y-2899000I-67500J0D01*
G01*
X4016500Y-3449000D02*
G75*
G03*
X4016500Y-3449000I-67500J0D01*
G01*
X4366500Y-2899000D02*
G75*
G03*
X4366500Y-2899000I-67500J0D01*
G01*
X4366500Y-3449000D02*
G75*
G03*
X4366500Y-3449000I-67500J0D01*
G01*
X4716500Y-2899000D02*
G75*
G03*
X4716500Y-2899000I-67500J0D01*
G01*
X4716500Y-3449000D02*
G75*
G03*
X4716500Y-3449000I-67500J0D01*
G01*
X5066500Y-2899000D02*
G75*
G03*
X5066500Y-2899000I-67500J0D01*
G01*
X5066500Y-3449000D02*
G75*
G03*
X5066500Y-3449000I-67500J0D01*
G01*
X5416500Y-2899000D02*
G75*
G03*
X5416500Y-2899000I-67500J0D01*
G01*
X5416500Y-3449000D02*
G75*
G03*
X5416500Y-3449000I-67500J0D01*
G01*
X5766500Y-2899000D02*
G75*
G03*
X5766500Y-2899000I-67500J0D01*
G01*
X5766500Y-3449000D02*
G75*
G03*
X5766500Y-3449000I-67500J0D01*
G01*
X6116500Y-2899000D02*
G75*
G03*
X6116500Y-2899000I-67500J0D01*
G01*
X6116500Y-3449000D02*
G75*
G03*
X6116500Y-3449000I-67500J0D01*
G01*
X6201500Y-4103000D02*
G75*
G03*
X6201500Y-4103000I-67500J0D01*
G01*
X6201500Y-4653000D02*
G75*
G03*
X6201500Y-4653000I-67500J0D01*
G01*
X6551500Y-4103000D02*
G75*
G03*
X6551500Y-4103000I-67500J0D01*
G01*
X6551500Y-4653000D02*
G75*
G03*
X6551500Y-4653000I-67500J0D01*
G01*
X6655500Y-2898000D02*
G75*
G03*
X6655500Y-2898000I-67500J0D01*
G01*
X6655500Y-3448000D02*
G75*
G03*
X6655500Y-3448000I-67500J0D01*
G01*
X7005500Y-2898000D02*
G75*
G03*
X7005500Y-2898000I-67500J0D01*
G01*
X7005500Y-3448000D02*
G75*
G03*
X7005500Y-3448000I-67500J0D01*
G01*
X7355500Y-2898000D02*
G75*
G03*
X7355500Y-2898000I-67500J0D01*
G01*
X7355500Y-3448000D02*
G75*
G03*
X7355500Y-3448000I-67500J0D01*
G01*
X7705500Y-2898000D02*
G75*
G03*
X7705500Y-2898000I-67500J0D01*
G01*
X7705500Y-3448000D02*
G75*
G03*
X7705500Y-3448000I-67500J0D01*
G01*
X8055500Y-2898000D02*
G75*
G03*
X8055500Y-2898000I-67500J0D01*
G01*
X8055500Y-3448000D02*
G75*
G03*
X8055500Y-3448000I-67500J0D01*
G01*
X8405500Y-2898000D02*
G75*
G03*
X8405500Y-2898000I-67500J0D01*
G01*
X8405500Y-3448000D02*
G75*
G03*
X8405500Y-3448000I-67500J0D01*
G01*
X8755500Y-2898000D02*
G75*
G03*
X8755500Y-2898000I-67500J0D01*
G01*
X8755500Y-3448000D02*
G75*
G03*
X8755500Y-3448000I-67500J0D01*
G01*
X9105500Y-2898000D02*
G75*
G03*
X9105500Y-2898000I-67500J0D01*
G01*
X9105500Y-3448000D02*
G75*
G03*
X9105500Y-3448000I-67500J0D01*
G01*
D14*
X2921000Y-2888000D02*
X2921000Y-3208000D01*
X2761000Y-3048000D02*
X3081000Y-3048000D01*
X2921000Y-4158000D02*
X2921000Y-4478000D01*
X2761000Y-4318000D02*
X3081000Y-4318000D01*
X9779000Y-2888000D02*
X9779000Y-3208000D01*
X9619000Y-3048000D02*
X9939000Y-3048000D01*
X9779000Y-4158000D02*
X9779000Y-4478000D01*
X9619000Y-4318000D02*
X9939000Y-4318000D01*
D11*
X2795777Y-5142484D02*
X2795777Y-4942484D01*
X2795777Y-4942484D02*
X2843396Y-4942484D01*
X2843396Y-4942484D02*
X2871967Y-4952008D01*
X2871967Y-4952008D02*
X2891015Y-4971055D01*
X2891015Y-4971055D02*
X2900539Y-4990103D01*
X2900539Y-4990103D02*
X2910062Y-5028198D01*
X2910062Y-5028198D02*
X2910062Y-5056770D01*
X2910062Y-5056770D02*
X2900539Y-5094865D01*
X2900539Y-5094865D02*
X2891015Y-5113912D01*
X2891015Y-5113912D02*
X2871967Y-5132960D01*
X2871967Y-5132960D02*
X2843396Y-5142484D01*
X2843396Y-5142484D02*
X2795777Y-5142484D01*
X2995777Y-5142484D02*
X2995777Y-5009150D01*
X2995777Y-5047246D02*
X3005301Y-5028198D01*
X3005301Y-5028198D02*
X3014824Y-5018674D01*
X3014824Y-5018674D02*
X3033872Y-5009150D01*
X3033872Y-5009150D02*
X3052920Y-5009150D01*
X3119586Y-5142484D02*
X3119586Y-5009150D01*
X3119586Y-4942484D02*
X3110062Y-4952008D01*
X3110062Y-4952008D02*
X3119586Y-4961531D01*
X3119586Y-4961531D02*
X3129110Y-4952008D01*
X3129110Y-4952008D02*
X3119586Y-4942484D01*
X3119586Y-4942484D02*
X3119586Y-4961531D01*
X3243396Y-5142484D02*
X3224348Y-5132960D01*
X3224348Y-5132960D02*
X3214824Y-5113912D01*
X3214824Y-5113912D02*
X3214824Y-4942484D01*
X3348158Y-5142484D02*
X3329110Y-5132960D01*
X3329110Y-5132960D02*
X3319586Y-5113912D01*
X3319586Y-5113912D02*
X3319586Y-4942484D01*
X3576729Y-5142484D02*
X3576729Y-4942484D01*
X3576729Y-4942484D02*
X3643396Y-5085341D01*
X3643396Y-5085341D02*
X3710062Y-4942484D01*
X3710062Y-4942484D02*
X3710062Y-5142484D01*
X3891015Y-5142484D02*
X3891015Y-5037722D01*
X3891015Y-5037722D02*
X3881491Y-5018674D01*
X3881491Y-5018674D02*
X3862443Y-5009150D01*
X3862443Y-5009150D02*
X3824348Y-5009150D01*
X3824348Y-5009150D02*
X3805301Y-5018674D01*
X3891015Y-5132960D02*
X3871967Y-5142484D01*
X3871967Y-5142484D02*
X3824348Y-5142484D01*
X3824348Y-5142484D02*
X3805301Y-5132960D01*
X3805301Y-5132960D02*
X3795777Y-5113912D01*
X3795777Y-5113912D02*
X3795777Y-5094865D01*
X3795777Y-5094865D02*
X3805301Y-5075817D01*
X3805301Y-5075817D02*
X3824348Y-5066293D01*
X3824348Y-5066293D02*
X3871967Y-5066293D01*
X3871967Y-5066293D02*
X3891015Y-5056770D01*
X3986253Y-5009150D02*
X3986253Y-5209150D01*
X3986253Y-5018674D02*
X4005301Y-5009150D01*
X4005301Y-5009150D02*
X4043396Y-5009150D01*
X4043396Y-5009150D02*
X4062443Y-5018674D01*
X4062443Y-5018674D02*
X4071967Y-5028198D01*
X4071967Y-5028198D02*
X4081491Y-5047246D01*
X4081491Y-5047246D02*
X4081491Y-5104389D01*
X4081491Y-5104389D02*
X4071967Y-5123436D01*
X4071967Y-5123436D02*
X4062443Y-5132960D01*
X4062443Y-5132960D02*
X4043396Y-5142484D01*
X4043396Y-5142484D02*
X4005301Y-5142484D01*
X4005301Y-5142484D02*
X3986253Y-5132960D01*
X4167205Y-5123436D02*
X4176729Y-5132960D01*
X4176729Y-5132960D02*
X4167205Y-5142484D01*
X4167205Y-5142484D02*
X4157682Y-5132960D01*
X4157682Y-5132960D02*
X4167205Y-5123436D01*
X4167205Y-5123436D02*
X4167205Y-5142484D01*
X4167205Y-5018674D02*
X4176729Y-5028198D01*
X4176729Y-5028198D02*
X4167205Y-5037722D01*
X4167205Y-5037722D02*
X4157682Y-5028198D01*
X4157682Y-5028198D02*
X4167205Y-5018674D01*
X4167205Y-5018674D02*
X4167205Y-5037722D01*
D12*
X2495000Y-5451000D02*
X2535000Y-5491000D01*
X2535000Y-5451000D02*
X2495000Y-5491000D01*
D11*
X2833872Y-5362484D02*
X2852920Y-5362484D01*
X2852920Y-5362484D02*
X2871967Y-5372008D01*
X2871967Y-5372008D02*
X2881491Y-5381531D01*
X2881491Y-5381531D02*
X2891015Y-5400579D01*
X2891015Y-5400579D02*
X2900539Y-5438674D01*
X2900539Y-5438674D02*
X2900539Y-5486293D01*
X2900539Y-5486293D02*
X2891015Y-5524389D01*
X2891015Y-5524389D02*
X2881491Y-5543436D01*
X2881491Y-5543436D02*
X2871967Y-5552960D01*
X2871967Y-5552960D02*
X2852920Y-5562484D01*
X2852920Y-5562484D02*
X2833872Y-5562484D01*
X2833872Y-5562484D02*
X2814824Y-5552960D01*
X2814824Y-5552960D02*
X2805301Y-5543436D01*
X2805301Y-5543436D02*
X2795777Y-5524389D01*
X2795777Y-5524389D02*
X2786253Y-5486293D01*
X2786253Y-5486293D02*
X2786253Y-5438674D01*
X2786253Y-5438674D02*
X2795777Y-5400579D01*
X2795777Y-5400579D02*
X2805301Y-5381531D01*
X2805301Y-5381531D02*
X2814824Y-5372008D01*
X2814824Y-5372008D02*
X2833872Y-5362484D01*
X2986253Y-5543436D02*
X2995777Y-5552960D01*
X2995777Y-5552960D02*
X2986253Y-5562484D01*
X2986253Y-5562484D02*
X2976729Y-5552960D01*
X2976729Y-5552960D02*
X2986253Y-5543436D01*
X2986253Y-5543436D02*
X2986253Y-5562484D01*
X3167205Y-5429150D02*
X3167205Y-5562484D01*
X3119586Y-5352960D02*
X3071967Y-5495817D01*
X3071967Y-5495817D02*
X3195777Y-5495817D01*
X3310062Y-5362484D02*
X3329110Y-5362484D01*
X3329110Y-5362484D02*
X3348158Y-5372008D01*
X3348158Y-5372008D02*
X3357682Y-5381531D01*
X3357682Y-5381531D02*
X3367205Y-5400579D01*
X3367205Y-5400579D02*
X3376729Y-5438674D01*
X3376729Y-5438674D02*
X3376729Y-5486293D01*
X3376729Y-5486293D02*
X3367205Y-5524389D01*
X3367205Y-5524389D02*
X3357682Y-5543436D01*
X3357682Y-5543436D02*
X3348158Y-5552960D01*
X3348158Y-5552960D02*
X3329110Y-5562484D01*
X3329110Y-5562484D02*
X3310062Y-5562484D01*
X3310062Y-5562484D02*
X3291015Y-5552960D01*
X3291015Y-5552960D02*
X3281491Y-5543436D01*
X3281491Y-5543436D02*
X3271967Y-5524389D01*
X3271967Y-5524389D02*
X3262443Y-5486293D01*
X3262443Y-5486293D02*
X3262443Y-5438674D01*
X3262443Y-5438674D02*
X3271967Y-5400579D01*
X3271967Y-5400579D02*
X3281491Y-5381531D01*
X3281491Y-5381531D02*
X3291015Y-5372008D01*
X3291015Y-5372008D02*
X3310062Y-5362484D01*
X3500539Y-5362484D02*
X3519586Y-5362484D01*
X3519586Y-5362484D02*
X3538634Y-5372008D01*
X3538634Y-5372008D02*
X3548158Y-5381531D01*
X3548158Y-5381531D02*
X3557682Y-5400579D01*
X3557682Y-5400579D02*
X3567205Y-5438674D01*
X3567205Y-5438674D02*
X3567205Y-5486293D01*
X3567205Y-5486293D02*
X3557682Y-5524389D01*
X3557682Y-5524389D02*
X3548158Y-5543436D01*
X3548158Y-5543436D02*
X3538634Y-5552960D01*
X3538634Y-5552960D02*
X3519586Y-5562484D01*
X3519586Y-5562484D02*
X3500539Y-5562484D01*
X3500539Y-5562484D02*
X3481491Y-5552960D01*
X3481491Y-5552960D02*
X3471967Y-5543436D01*
X3471967Y-5543436D02*
X3462443Y-5524389D01*
X3462443Y-5524389D02*
X3452920Y-5486293D01*
X3452920Y-5486293D02*
X3452920Y-5438674D01*
X3452920Y-5438674D02*
X3462443Y-5400579D01*
X3462443Y-5400579D02*
X3471967Y-5381531D01*
X3471967Y-5381531D02*
X3481491Y-5372008D01*
X3481491Y-5372008D02*
X3500539Y-5362484D01*
X3652920Y-5562484D02*
X3652920Y-5429150D01*
X3652920Y-5448198D02*
X3662443Y-5438674D01*
X3662443Y-5438674D02*
X3681491Y-5429150D01*
X3681491Y-5429150D02*
X3710063Y-5429150D01*
X3710063Y-5429150D02*
X3729110Y-5438674D01*
X3729110Y-5438674D02*
X3738634Y-5457722D01*
X3738634Y-5457722D02*
X3738634Y-5562484D01*
X3738634Y-5457722D02*
X3748158Y-5438674D01*
X3748158Y-5438674D02*
X3767205Y-5429150D01*
X3767205Y-5429150D02*
X3795777Y-5429150D01*
X3795777Y-5429150D02*
X3814824Y-5438674D01*
X3814824Y-5438674D02*
X3824348Y-5457722D01*
X3824348Y-5457722D02*
X3824348Y-5562484D01*
X3919586Y-5562484D02*
X3919586Y-5429150D01*
X3919586Y-5448198D02*
X3929110Y-5438674D01*
X3929110Y-5438674D02*
X3948158Y-5429150D01*
X3948158Y-5429150D02*
X3976729Y-5429150D01*
X3976729Y-5429150D02*
X3995777Y-5438674D01*
X3995777Y-5438674D02*
X4005301Y-5457722D01*
X4005301Y-5457722D02*
X4005301Y-5562484D01*
X4005301Y-5457722D02*
X4014824Y-5438674D01*
X4014824Y-5438674D02*
X4033872Y-5429150D01*
X4033872Y-5429150D02*
X4062443Y-5429150D01*
X4062443Y-5429150D02*
X4081491Y-5438674D01*
X4081491Y-5438674D02*
X4091015Y-5457722D01*
X4091015Y-5457722D02*
X4091015Y-5562484D01*
X4481491Y-5352960D02*
X4310063Y-5610103D01*
X4738634Y-5362484D02*
X4757682Y-5362484D01*
X4757682Y-5362484D02*
X4776729Y-5372008D01*
X4776729Y-5372008D02*
X4786253Y-5381531D01*
X4786253Y-5381531D02*
X4795777Y-5400579D01*
X4795777Y-5400579D02*
X4805301Y-5438674D01*
X4805301Y-5438674D02*
X4805301Y-5486293D01*
X4805301Y-5486293D02*
X4795777Y-5524389D01*
X4795777Y-5524389D02*
X4786253Y-5543436D01*
X4786253Y-5543436D02*
X4776729Y-5552960D01*
X4776729Y-5552960D02*
X4757682Y-5562484D01*
X4757682Y-5562484D02*
X4738634Y-5562484D01*
X4738634Y-5562484D02*
X4719587Y-5552960D01*
X4719587Y-5552960D02*
X4710063Y-5543436D01*
X4710063Y-5543436D02*
X4700539Y-5524389D01*
X4700539Y-5524389D02*
X4691015Y-5486293D01*
X4691015Y-5486293D02*
X4691015Y-5438674D01*
X4691015Y-5438674D02*
X4700539Y-5400579D01*
X4700539Y-5400579D02*
X4710063Y-5381531D01*
X4710063Y-5381531D02*
X4719587Y-5372008D01*
X4719587Y-5372008D02*
X4738634Y-5362484D01*
X4891015Y-5543436D02*
X4900539Y-5552960D01*
X4900539Y-5552960D02*
X4891015Y-5562484D01*
X4891015Y-5562484D02*
X4881491Y-5552960D01*
X4881491Y-5552960D02*
X4891015Y-5543436D01*
X4891015Y-5543436D02*
X4891015Y-5562484D01*
X5024348Y-5362484D02*
X5043396Y-5362484D01*
X5043396Y-5362484D02*
X5062444Y-5372008D01*
X5062444Y-5372008D02*
X5071968Y-5381531D01*
X5071968Y-5381531D02*
X5081491Y-5400579D01*
X5081491Y-5400579D02*
X5091015Y-5438674D01*
X5091015Y-5438674D02*
X5091015Y-5486293D01*
X5091015Y-5486293D02*
X5081491Y-5524389D01*
X5081491Y-5524389D02*
X5071968Y-5543436D01*
X5071968Y-5543436D02*
X5062444Y-5552960D01*
X5062444Y-5552960D02*
X5043396Y-5562484D01*
X5043396Y-5562484D02*
X5024348Y-5562484D01*
X5024348Y-5562484D02*
X5005301Y-5552960D01*
X5005301Y-5552960D02*
X4995777Y-5543436D01*
X4995777Y-5543436D02*
X4986253Y-5524389D01*
X4986253Y-5524389D02*
X4976729Y-5486293D01*
X4976729Y-5486293D02*
X4976729Y-5438674D01*
X4976729Y-5438674D02*
X4986253Y-5400579D01*
X4986253Y-5400579D02*
X4995777Y-5381531D01*
X4995777Y-5381531D02*
X5005301Y-5372008D01*
X5005301Y-5372008D02*
X5024348Y-5362484D01*
X5281491Y-5562484D02*
X5167206Y-5562484D01*
X5224348Y-5562484D02*
X5224348Y-5362484D01*
X5224348Y-5362484D02*
X5205301Y-5391055D01*
X5205301Y-5391055D02*
X5186253Y-5410103D01*
X5186253Y-5410103D02*
X5167206Y-5419627D01*
X5462444Y-5362484D02*
X5367206Y-5362484D01*
X5367206Y-5362484D02*
X5357682Y-5457722D01*
X5357682Y-5457722D02*
X5367206Y-5448198D01*
X5367206Y-5448198D02*
X5386253Y-5438674D01*
X5386253Y-5438674D02*
X5433872Y-5438674D01*
X5433872Y-5438674D02*
X5452920Y-5448198D01*
X5452920Y-5448198D02*
X5462444Y-5457722D01*
X5462444Y-5457722D02*
X5471968Y-5476770D01*
X5471968Y-5476770D02*
X5471968Y-5524389D01*
X5471968Y-5524389D02*
X5462444Y-5543436D01*
X5462444Y-5543436D02*
X5452920Y-5552960D01*
X5452920Y-5552960D02*
X5433872Y-5562484D01*
X5433872Y-5562484D02*
X5386253Y-5562484D01*
X5386253Y-5562484D02*
X5367206Y-5552960D01*
X5367206Y-5552960D02*
X5357682Y-5543436D01*
X5538634Y-5362484D02*
X5671967Y-5362484D01*
X5671967Y-5362484D02*
X5586253Y-5562484D01*
X5738634Y-5362484D02*
X5738634Y-5400579D01*
X5814825Y-5362484D02*
X5814825Y-5400579D01*
X6110063Y-5638674D02*
X6100539Y-5629150D01*
X6100539Y-5629150D02*
X6081491Y-5600579D01*
X6081491Y-5600579D02*
X6071968Y-5581531D01*
X6071968Y-5581531D02*
X6062444Y-5552960D01*
X6062444Y-5552960D02*
X6052920Y-5505341D01*
X6052920Y-5505341D02*
X6052920Y-5467246D01*
X6052920Y-5467246D02*
X6062444Y-5419627D01*
X6062444Y-5419627D02*
X6071968Y-5391055D01*
X6071968Y-5391055D02*
X6081491Y-5372008D01*
X6081491Y-5372008D02*
X6100539Y-5343436D01*
X6100539Y-5343436D02*
X6110063Y-5333912D01*
X6291015Y-5562484D02*
X6176729Y-5562484D01*
X6233872Y-5562484D02*
X6233872Y-5362484D01*
X6233872Y-5362484D02*
X6214825Y-5391055D01*
X6214825Y-5391055D02*
X6195777Y-5410103D01*
X6195777Y-5410103D02*
X6176729Y-5419627D01*
X6529110Y-5562484D02*
X6529110Y-5362484D01*
X6614825Y-5562484D02*
X6614825Y-5457722D01*
X6614825Y-5457722D02*
X6605301Y-5438674D01*
X6605301Y-5438674D02*
X6586253Y-5429150D01*
X6586253Y-5429150D02*
X6557682Y-5429150D01*
X6557682Y-5429150D02*
X6538634Y-5438674D01*
X6538634Y-5438674D02*
X6529110Y-5448198D01*
X6738634Y-5562484D02*
X6719587Y-5552960D01*
X6719587Y-5552960D02*
X6710063Y-5543436D01*
X6710063Y-5543436D02*
X6700539Y-5524389D01*
X6700539Y-5524389D02*
X6700539Y-5467246D01*
X6700539Y-5467246D02*
X6710063Y-5448198D01*
X6710063Y-5448198D02*
X6719587Y-5438674D01*
X6719587Y-5438674D02*
X6738634Y-5429150D01*
X6738634Y-5429150D02*
X6767206Y-5429150D01*
X6767206Y-5429150D02*
X6786253Y-5438674D01*
X6786253Y-5438674D02*
X6795777Y-5448198D01*
X6795777Y-5448198D02*
X6805301Y-5467246D01*
X6805301Y-5467246D02*
X6805301Y-5524389D01*
X6805301Y-5524389D02*
X6795777Y-5543436D01*
X6795777Y-5543436D02*
X6786253Y-5552960D01*
X6786253Y-5552960D02*
X6767206Y-5562484D01*
X6767206Y-5562484D02*
X6738634Y-5562484D01*
X6919587Y-5562484D02*
X6900539Y-5552960D01*
X6900539Y-5552960D02*
X6891015Y-5533912D01*
X6891015Y-5533912D02*
X6891015Y-5362484D01*
X7071968Y-5552960D02*
X7052920Y-5562484D01*
X7052920Y-5562484D02*
X7014825Y-5562484D01*
X7014825Y-5562484D02*
X6995777Y-5552960D01*
X6995777Y-5552960D02*
X6986253Y-5533912D01*
X6986253Y-5533912D02*
X6986253Y-5457722D01*
X6986253Y-5457722D02*
X6995777Y-5438674D01*
X6995777Y-5438674D02*
X7014825Y-5429150D01*
X7014825Y-5429150D02*
X7052920Y-5429150D01*
X7052920Y-5429150D02*
X7071968Y-5438674D01*
X7071968Y-5438674D02*
X7081491Y-5457722D01*
X7081491Y-5457722D02*
X7081491Y-5476770D01*
X7081491Y-5476770D02*
X6986253Y-5495817D01*
X7148158Y-5638674D02*
X7157682Y-5629150D01*
X7157682Y-5629150D02*
X7176730Y-5600579D01*
X7176730Y-5600579D02*
X7186253Y-5581531D01*
X7186253Y-5581531D02*
X7195777Y-5552960D01*
X7195777Y-5552960D02*
X7205301Y-5505341D01*
X7205301Y-5505341D02*
X7205301Y-5467246D01*
X7205301Y-5467246D02*
X7195777Y-5419627D01*
X7195777Y-5419627D02*
X7186253Y-5391055D01*
X7186253Y-5391055D02*
X7176730Y-5372008D01*
X7176730Y-5372008D02*
X7157682Y-5343436D01*
X7157682Y-5343436D02*
X7148158Y-5333912D01*
D13*
X2535000Y-5735000D02*
G75*
G03*
X2535000Y-5735000I-67500J0D01*
G01*
D11*
X2900539Y-5826484D02*
X2786253Y-5826484D01*
X2843396Y-5826484D02*
X2843396Y-5626484D01*
X2843396Y-5626484D02*
X2824348Y-5655055D01*
X2824348Y-5655055D02*
X2805301Y-5674103D01*
X2805301Y-5674103D02*
X2786253Y-5683627D01*
X2986253Y-5807436D02*
X2995777Y-5816960D01*
X2995777Y-5816960D02*
X2986253Y-5826484D01*
X2986253Y-5826484D02*
X2976729Y-5816960D01*
X2976729Y-5816960D02*
X2986253Y-5807436D01*
X2986253Y-5807436D02*
X2986253Y-5826484D01*
X3062443Y-5626484D02*
X3186253Y-5626484D01*
X3186253Y-5626484D02*
X3119586Y-5702674D01*
X3119586Y-5702674D02*
X3148158Y-5702674D01*
X3148158Y-5702674D02*
X3167205Y-5712198D01*
X3167205Y-5712198D02*
X3176729Y-5721722D01*
X3176729Y-5721722D02*
X3186253Y-5740769D01*
X3186253Y-5740769D02*
X3186253Y-5788388D01*
X3186253Y-5788388D02*
X3176729Y-5807436D01*
X3176729Y-5807436D02*
X3167205Y-5816960D01*
X3167205Y-5816960D02*
X3148158Y-5826484D01*
X3148158Y-5826484D02*
X3091015Y-5826484D01*
X3091015Y-5826484D02*
X3071967Y-5816960D01*
X3071967Y-5816960D02*
X3062443Y-5807436D01*
X3367205Y-5626484D02*
X3271967Y-5626484D01*
X3271967Y-5626484D02*
X3262443Y-5721722D01*
X3262443Y-5721722D02*
X3271967Y-5712198D01*
X3271967Y-5712198D02*
X3291015Y-5702674D01*
X3291015Y-5702674D02*
X3338634Y-5702674D01*
X3338634Y-5702674D02*
X3357682Y-5712198D01*
X3357682Y-5712198D02*
X3367205Y-5721722D01*
X3367205Y-5721722D02*
X3376729Y-5740769D01*
X3376729Y-5740769D02*
X3376729Y-5788388D01*
X3376729Y-5788388D02*
X3367205Y-5807436D01*
X3367205Y-5807436D02*
X3357682Y-5816960D01*
X3357682Y-5816960D02*
X3338634Y-5826484D01*
X3338634Y-5826484D02*
X3291015Y-5826484D01*
X3291015Y-5826484D02*
X3271967Y-5816960D01*
X3271967Y-5816960D02*
X3262443Y-5807436D01*
X3500539Y-5626484D02*
X3519586Y-5626484D01*
X3519586Y-5626484D02*
X3538634Y-5636008D01*
X3538634Y-5636008D02*
X3548158Y-5645531D01*
X3548158Y-5645531D02*
X3557682Y-5664579D01*
X3557682Y-5664579D02*
X3567205Y-5702674D01*
X3567205Y-5702674D02*
X3567205Y-5750293D01*
X3567205Y-5750293D02*
X3557682Y-5788388D01*
X3557682Y-5788388D02*
X3548158Y-5807436D01*
X3548158Y-5807436D02*
X3538634Y-5816960D01*
X3538634Y-5816960D02*
X3519586Y-5826484D01*
X3519586Y-5826484D02*
X3500539Y-5826484D01*
X3500539Y-5826484D02*
X3481491Y-5816960D01*
X3481491Y-5816960D02*
X3471967Y-5807436D01*
X3471967Y-5807436D02*
X3462443Y-5788388D01*
X3462443Y-5788388D02*
X3452920Y-5750293D01*
X3452920Y-5750293D02*
X3452920Y-5702674D01*
X3452920Y-5702674D02*
X3462443Y-5664579D01*
X3462443Y-5664579D02*
X3471967Y-5645531D01*
X3471967Y-5645531D02*
X3481491Y-5636008D01*
X3481491Y-5636008D02*
X3500539Y-5626484D01*
X3652920Y-5826484D02*
X3652920Y-5693150D01*
X3652920Y-5712198D02*
X3662443Y-5702674D01*
X3662443Y-5702674D02*
X3681491Y-5693150D01*
X3681491Y-5693150D02*
X3710063Y-5693150D01*
X3710063Y-5693150D02*
X3729110Y-5702674D01*
X3729110Y-5702674D02*
X3738634Y-5721722D01*
X3738634Y-5721722D02*
X3738634Y-5826484D01*
X3738634Y-5721722D02*
X3748158Y-5702674D01*
X3748158Y-5702674D02*
X3767205Y-5693150D01*
X3767205Y-5693150D02*
X3795777Y-5693150D01*
X3795777Y-5693150D02*
X3814824Y-5702674D01*
X3814824Y-5702674D02*
X3824348Y-5721722D01*
X3824348Y-5721722D02*
X3824348Y-5826484D01*
X3919586Y-5826484D02*
X3919586Y-5693150D01*
X3919586Y-5712198D02*
X3929110Y-5702674D01*
X3929110Y-5702674D02*
X3948158Y-5693150D01*
X3948158Y-5693150D02*
X3976729Y-5693150D01*
X3976729Y-5693150D02*
X3995777Y-5702674D01*
X3995777Y-5702674D02*
X4005301Y-5721722D01*
X4005301Y-5721722D02*
X4005301Y-5826484D01*
X4005301Y-5721722D02*
X4014824Y-5702674D01*
X4014824Y-5702674D02*
X4033872Y-5693150D01*
X4033872Y-5693150D02*
X4062443Y-5693150D01*
X4062443Y-5693150D02*
X4081491Y-5702674D01*
X4081491Y-5702674D02*
X4091015Y-5721722D01*
X4091015Y-5721722D02*
X4091015Y-5826484D01*
X4481491Y-5616960D02*
X4310063Y-5874103D01*
X4738634Y-5626484D02*
X4757682Y-5626484D01*
X4757682Y-5626484D02*
X4776729Y-5636008D01*
X4776729Y-5636008D02*
X4786253Y-5645531D01*
X4786253Y-5645531D02*
X4795777Y-5664579D01*
X4795777Y-5664579D02*
X4805301Y-5702674D01*
X4805301Y-5702674D02*
X4805301Y-5750293D01*
X4805301Y-5750293D02*
X4795777Y-5788388D01*
X4795777Y-5788388D02*
X4786253Y-5807436D01*
X4786253Y-5807436D02*
X4776729Y-5816960D01*
X4776729Y-5816960D02*
X4757682Y-5826484D01*
X4757682Y-5826484D02*
X4738634Y-5826484D01*
X4738634Y-5826484D02*
X4719587Y-5816960D01*
X4719587Y-5816960D02*
X4710063Y-5807436D01*
X4710063Y-5807436D02*
X4700539Y-5788388D01*
X4700539Y-5788388D02*
X4691015Y-5750293D01*
X4691015Y-5750293D02*
X4691015Y-5702674D01*
X4691015Y-5702674D02*
X4700539Y-5664579D01*
X4700539Y-5664579D02*
X4710063Y-5645531D01*
X4710063Y-5645531D02*
X4719587Y-5636008D01*
X4719587Y-5636008D02*
X4738634Y-5626484D01*
X4891015Y-5807436D02*
X4900539Y-5816960D01*
X4900539Y-5816960D02*
X4891015Y-5826484D01*
X4891015Y-5826484D02*
X4881491Y-5816960D01*
X4881491Y-5816960D02*
X4891015Y-5807436D01*
X4891015Y-5807436D02*
X4891015Y-5826484D01*
X5024348Y-5626484D02*
X5043396Y-5626484D01*
X5043396Y-5626484D02*
X5062444Y-5636008D01*
X5062444Y-5636008D02*
X5071968Y-5645531D01*
X5071968Y-5645531D02*
X5081491Y-5664579D01*
X5081491Y-5664579D02*
X5091015Y-5702674D01*
X5091015Y-5702674D02*
X5091015Y-5750293D01*
X5091015Y-5750293D02*
X5081491Y-5788388D01*
X5081491Y-5788388D02*
X5071968Y-5807436D01*
X5071968Y-5807436D02*
X5062444Y-5816960D01*
X5062444Y-5816960D02*
X5043396Y-5826484D01*
X5043396Y-5826484D02*
X5024348Y-5826484D01*
X5024348Y-5826484D02*
X5005301Y-5816960D01*
X5005301Y-5816960D02*
X4995777Y-5807436D01*
X4995777Y-5807436D02*
X4986253Y-5788388D01*
X4986253Y-5788388D02*
X4976729Y-5750293D01*
X4976729Y-5750293D02*
X4976729Y-5702674D01*
X4976729Y-5702674D02*
X4986253Y-5664579D01*
X4986253Y-5664579D02*
X4995777Y-5645531D01*
X4995777Y-5645531D02*
X5005301Y-5636008D01*
X5005301Y-5636008D02*
X5024348Y-5626484D01*
X5271968Y-5626484D02*
X5176729Y-5626484D01*
X5176729Y-5626484D02*
X5167206Y-5721722D01*
X5167206Y-5721722D02*
X5176729Y-5712198D01*
X5176729Y-5712198D02*
X5195777Y-5702674D01*
X5195777Y-5702674D02*
X5243396Y-5702674D01*
X5243396Y-5702674D02*
X5262444Y-5712198D01*
X5262444Y-5712198D02*
X5271968Y-5721722D01*
X5271968Y-5721722D02*
X5281491Y-5740769D01*
X5281491Y-5740769D02*
X5281491Y-5788388D01*
X5281491Y-5788388D02*
X5271968Y-5807436D01*
X5271968Y-5807436D02*
X5262444Y-5816960D01*
X5262444Y-5816960D02*
X5243396Y-5826484D01*
X5243396Y-5826484D02*
X5195777Y-5826484D01*
X5195777Y-5826484D02*
X5176729Y-5816960D01*
X5176729Y-5816960D02*
X5167206Y-5807436D01*
X5348158Y-5626484D02*
X5471968Y-5626484D01*
X5471968Y-5626484D02*
X5405301Y-5702674D01*
X5405301Y-5702674D02*
X5433872Y-5702674D01*
X5433872Y-5702674D02*
X5452920Y-5712198D01*
X5452920Y-5712198D02*
X5462444Y-5721722D01*
X5462444Y-5721722D02*
X5471968Y-5740769D01*
X5471968Y-5740769D02*
X5471968Y-5788388D01*
X5471968Y-5788388D02*
X5462444Y-5807436D01*
X5462444Y-5807436D02*
X5452920Y-5816960D01*
X5452920Y-5816960D02*
X5433872Y-5826484D01*
X5433872Y-5826484D02*
X5376729Y-5826484D01*
X5376729Y-5826484D02*
X5357682Y-5816960D01*
X5357682Y-5816960D02*
X5348158Y-5807436D01*
X5662444Y-5826484D02*
X5548158Y-5826484D01*
X5605301Y-5826484D02*
X5605301Y-5626484D01*
X5605301Y-5626484D02*
X5586253Y-5655055D01*
X5586253Y-5655055D02*
X5567206Y-5674103D01*
X5567206Y-5674103D02*
X5548158Y-5683627D01*
X5738634Y-5626484D02*
X5738634Y-5664579D01*
X5814825Y-5626484D02*
X5814825Y-5664579D01*
X6110063Y-5902674D02*
X6100539Y-5893150D01*
X6100539Y-5893150D02*
X6081491Y-5864579D01*
X6081491Y-5864579D02*
X6071968Y-5845531D01*
X6071968Y-5845531D02*
X6062444Y-5816960D01*
X6062444Y-5816960D02*
X6052920Y-5769341D01*
X6052920Y-5769341D02*
X6052920Y-5731246D01*
X6052920Y-5731246D02*
X6062444Y-5683627D01*
X6062444Y-5683627D02*
X6071968Y-5655055D01*
X6071968Y-5655055D02*
X6081491Y-5636008D01*
X6081491Y-5636008D02*
X6100539Y-5607436D01*
X6100539Y-5607436D02*
X6110063Y-5597912D01*
X6167206Y-5626484D02*
X6291015Y-5626484D01*
X6291015Y-5626484D02*
X6224348Y-5702674D01*
X6224348Y-5702674D02*
X6252920Y-5702674D01*
X6252920Y-5702674D02*
X6271968Y-5712198D01*
X6271968Y-5712198D02*
X6281491Y-5721722D01*
X6281491Y-5721722D02*
X6291015Y-5740769D01*
X6291015Y-5740769D02*
X6291015Y-5788388D01*
X6291015Y-5788388D02*
X6281491Y-5807436D01*
X6281491Y-5807436D02*
X6271968Y-5816960D01*
X6271968Y-5816960D02*
X6252920Y-5826484D01*
X6252920Y-5826484D02*
X6195777Y-5826484D01*
X6195777Y-5826484D02*
X6176729Y-5816960D01*
X6176729Y-5816960D02*
X6167206Y-5807436D01*
X6462444Y-5626484D02*
X6424348Y-5626484D01*
X6424348Y-5626484D02*
X6405301Y-5636008D01*
X6405301Y-5636008D02*
X6395777Y-5645531D01*
X6395777Y-5645531D02*
X6376729Y-5674103D01*
X6376729Y-5674103D02*
X6367206Y-5712198D01*
X6367206Y-5712198D02*
X6367206Y-5788388D01*
X6367206Y-5788388D02*
X6376729Y-5807436D01*
X6376729Y-5807436D02*
X6386253Y-5816960D01*
X6386253Y-5816960D02*
X6405301Y-5826484D01*
X6405301Y-5826484D02*
X6443396Y-5826484D01*
X6443396Y-5826484D02*
X6462444Y-5816960D01*
X6462444Y-5816960D02*
X6471968Y-5807436D01*
X6471968Y-5807436D02*
X6481491Y-5788388D01*
X6481491Y-5788388D02*
X6481491Y-5740769D01*
X6481491Y-5740769D02*
X6471968Y-5721722D01*
X6471968Y-5721722D02*
X6462444Y-5712198D01*
X6462444Y-5712198D02*
X6443396Y-5702674D01*
X6443396Y-5702674D02*
X6405301Y-5702674D01*
X6405301Y-5702674D02*
X6386253Y-5712198D01*
X6386253Y-5712198D02*
X6376729Y-5721722D01*
X6376729Y-5721722D02*
X6367206Y-5740769D01*
X6719587Y-5826484D02*
X6719587Y-5626484D01*
X6805301Y-5826484D02*
X6805301Y-5721722D01*
X6805301Y-5721722D02*
X6795777Y-5702674D01*
X6795777Y-5702674D02*
X6776730Y-5693150D01*
X6776730Y-5693150D02*
X6748158Y-5693150D01*
X6748158Y-5693150D02*
X6729110Y-5702674D01*
X6729110Y-5702674D02*
X6719587Y-5712198D01*
X6929110Y-5826484D02*
X6910063Y-5816960D01*
X6910063Y-5816960D02*
X6900539Y-5807436D01*
X6900539Y-5807436D02*
X6891015Y-5788388D01*
X6891015Y-5788388D02*
X6891015Y-5731246D01*
X6891015Y-5731246D02*
X6900539Y-5712198D01*
X6900539Y-5712198D02*
X6910063Y-5702674D01*
X6910063Y-5702674D02*
X6929110Y-5693150D01*
X6929110Y-5693150D02*
X6957682Y-5693150D01*
X6957682Y-5693150D02*
X6976730Y-5702674D01*
X6976730Y-5702674D02*
X6986253Y-5712198D01*
X6986253Y-5712198D02*
X6995777Y-5731246D01*
X6995777Y-5731246D02*
X6995777Y-5788388D01*
X6995777Y-5788388D02*
X6986253Y-5807436D01*
X6986253Y-5807436D02*
X6976730Y-5816960D01*
X6976730Y-5816960D02*
X6957682Y-5826484D01*
X6957682Y-5826484D02*
X6929110Y-5826484D01*
X7110063Y-5826484D02*
X7091015Y-5816960D01*
X7091015Y-5816960D02*
X7081491Y-5797912D01*
X7081491Y-5797912D02*
X7081491Y-5626484D01*
X7262444Y-5816960D02*
X7243396Y-5826484D01*
X7243396Y-5826484D02*
X7205301Y-5826484D01*
X7205301Y-5826484D02*
X7186253Y-5816960D01*
X7186253Y-5816960D02*
X7176730Y-5797912D01*
X7176730Y-5797912D02*
X7176730Y-5721722D01*
X7176730Y-5721722D02*
X7186253Y-5702674D01*
X7186253Y-5702674D02*
X7205301Y-5693150D01*
X7205301Y-5693150D02*
X7243396Y-5693150D01*
X7243396Y-5693150D02*
X7262444Y-5702674D01*
X7262444Y-5702674D02*
X7271968Y-5721722D01*
X7271968Y-5721722D02*
X7271968Y-5740769D01*
X7271968Y-5740769D02*
X7176730Y-5759817D01*
X7348158Y-5816960D02*
X7367206Y-5826484D01*
X7367206Y-5826484D02*
X7405301Y-5826484D01*
X7405301Y-5826484D02*
X7424349Y-5816960D01*
X7424349Y-5816960D02*
X7433872Y-5797912D01*
X7433872Y-5797912D02*
X7433872Y-5788388D01*
X7433872Y-5788388D02*
X7424349Y-5769341D01*
X7424349Y-5769341D02*
X7405301Y-5759817D01*
X7405301Y-5759817D02*
X7376730Y-5759817D01*
X7376730Y-5759817D02*
X7357682Y-5750293D01*
X7357682Y-5750293D02*
X7348158Y-5731246D01*
X7348158Y-5731246D02*
X7348158Y-5721722D01*
X7348158Y-5721722D02*
X7357682Y-5702674D01*
X7357682Y-5702674D02*
X7376730Y-5693150D01*
X7376730Y-5693150D02*
X7405301Y-5693150D01*
X7405301Y-5693150D02*
X7424349Y-5702674D01*
X7500539Y-5902674D02*
X7510063Y-5893150D01*
X7510063Y-5893150D02*
X7529111Y-5864579D01*
X7529111Y-5864579D02*
X7538634Y-5845531D01*
X7538634Y-5845531D02*
X7548158Y-5816960D01*
X7548158Y-5816960D02*
X7557682Y-5769341D01*
X7557682Y-5769341D02*
X7557682Y-5731246D01*
X7557682Y-5731246D02*
X7548158Y-5683627D01*
X7548158Y-5683627D02*
X7538634Y-5655055D01*
X7538634Y-5655055D02*
X7529111Y-5636008D01*
X7529111Y-5636008D02*
X7510063Y-5607436D01*
X7510063Y-5607436D02*
X7500539Y-5597912D01*
X2435000Y-5899000D02*
X2435000Y-6099000D01*
X2335000Y-5999000D02*
X2535000Y-5999000D01*
X2776729Y-5890484D02*
X2900539Y-5890484D01*
X2900539Y-5890484D02*
X2833872Y-5966674D01*
X2833872Y-5966674D02*
X2862443Y-5966674D01*
X2862443Y-5966674D02*
X2881491Y-5976198D01*
X2881491Y-5976198D02*
X2891015Y-5985722D01*
X2891015Y-5985722D02*
X2900539Y-6004769D01*
X2900539Y-6004769D02*
X2900539Y-6052388D01*
X2900539Y-6052388D02*
X2891015Y-6071436D01*
X2891015Y-6071436D02*
X2881491Y-6080960D01*
X2881491Y-6080960D02*
X2862443Y-6090484D01*
X2862443Y-6090484D02*
X2805301Y-6090484D01*
X2805301Y-6090484D02*
X2786253Y-6080960D01*
X2786253Y-6080960D02*
X2776729Y-6071436D01*
X2986253Y-6071436D02*
X2995777Y-6080960D01*
X2995777Y-6080960D02*
X2986253Y-6090484D01*
X2986253Y-6090484D02*
X2976729Y-6080960D01*
X2976729Y-6080960D02*
X2986253Y-6071436D01*
X2986253Y-6071436D02*
X2986253Y-6090484D01*
X3071967Y-5909531D02*
X3081491Y-5900008D01*
X3081491Y-5900008D02*
X3100539Y-5890484D01*
X3100539Y-5890484D02*
X3148158Y-5890484D01*
X3148158Y-5890484D02*
X3167205Y-5900008D01*
X3167205Y-5900008D02*
X3176729Y-5909531D01*
X3176729Y-5909531D02*
X3186253Y-5928579D01*
X3186253Y-5928579D02*
X3186253Y-5947627D01*
X3186253Y-5947627D02*
X3176729Y-5976198D01*
X3176729Y-5976198D02*
X3062443Y-6090484D01*
X3062443Y-6090484D02*
X3186253Y-6090484D01*
X3310062Y-5890484D02*
X3329110Y-5890484D01*
X3329110Y-5890484D02*
X3348158Y-5900008D01*
X3348158Y-5900008D02*
X3357682Y-5909531D01*
X3357682Y-5909531D02*
X3367205Y-5928579D01*
X3367205Y-5928579D02*
X3376729Y-5966674D01*
X3376729Y-5966674D02*
X3376729Y-6014293D01*
X3376729Y-6014293D02*
X3367205Y-6052388D01*
X3367205Y-6052388D02*
X3357682Y-6071436D01*
X3357682Y-6071436D02*
X3348158Y-6080960D01*
X3348158Y-6080960D02*
X3329110Y-6090484D01*
X3329110Y-6090484D02*
X3310062Y-6090484D01*
X3310062Y-6090484D02*
X3291015Y-6080960D01*
X3291015Y-6080960D02*
X3281491Y-6071436D01*
X3281491Y-6071436D02*
X3271967Y-6052388D01*
X3271967Y-6052388D02*
X3262443Y-6014293D01*
X3262443Y-6014293D02*
X3262443Y-5966674D01*
X3262443Y-5966674D02*
X3271967Y-5928579D01*
X3271967Y-5928579D02*
X3281491Y-5909531D01*
X3281491Y-5909531D02*
X3291015Y-5900008D01*
X3291015Y-5900008D02*
X3310062Y-5890484D01*
X3500539Y-5890484D02*
X3519586Y-5890484D01*
X3519586Y-5890484D02*
X3538634Y-5900008D01*
X3538634Y-5900008D02*
X3548158Y-5909531D01*
X3548158Y-5909531D02*
X3557682Y-5928579D01*
X3557682Y-5928579D02*
X3567205Y-5966674D01*
X3567205Y-5966674D02*
X3567205Y-6014293D01*
X3567205Y-6014293D02*
X3557682Y-6052388D01*
X3557682Y-6052388D02*
X3548158Y-6071436D01*
X3548158Y-6071436D02*
X3538634Y-6080960D01*
X3538634Y-6080960D02*
X3519586Y-6090484D01*
X3519586Y-6090484D02*
X3500539Y-6090484D01*
X3500539Y-6090484D02*
X3481491Y-6080960D01*
X3481491Y-6080960D02*
X3471967Y-6071436D01*
X3471967Y-6071436D02*
X3462443Y-6052388D01*
X3462443Y-6052388D02*
X3452920Y-6014293D01*
X3452920Y-6014293D02*
X3452920Y-5966674D01*
X3452920Y-5966674D02*
X3462443Y-5928579D01*
X3462443Y-5928579D02*
X3471967Y-5909531D01*
X3471967Y-5909531D02*
X3481491Y-5900008D01*
X3481491Y-5900008D02*
X3500539Y-5890484D01*
X3652920Y-6090484D02*
X3652920Y-5957150D01*
X3652920Y-5976198D02*
X3662443Y-5966674D01*
X3662443Y-5966674D02*
X3681491Y-5957150D01*
X3681491Y-5957150D02*
X3710063Y-5957150D01*
X3710063Y-5957150D02*
X3729110Y-5966674D01*
X3729110Y-5966674D02*
X3738634Y-5985722D01*
X3738634Y-5985722D02*
X3738634Y-6090484D01*
X3738634Y-5985722D02*
X3748158Y-5966674D01*
X3748158Y-5966674D02*
X3767205Y-5957150D01*
X3767205Y-5957150D02*
X3795777Y-5957150D01*
X3795777Y-5957150D02*
X3814824Y-5966674D01*
X3814824Y-5966674D02*
X3824348Y-5985722D01*
X3824348Y-5985722D02*
X3824348Y-6090484D01*
X3919586Y-6090484D02*
X3919586Y-5957150D01*
X3919586Y-5976198D02*
X3929110Y-5966674D01*
X3929110Y-5966674D02*
X3948158Y-5957150D01*
X3948158Y-5957150D02*
X3976729Y-5957150D01*
X3976729Y-5957150D02*
X3995777Y-5966674D01*
X3995777Y-5966674D02*
X4005301Y-5985722D01*
X4005301Y-5985722D02*
X4005301Y-6090484D01*
X4005301Y-5985722D02*
X4014824Y-5966674D01*
X4014824Y-5966674D02*
X4033872Y-5957150D01*
X4033872Y-5957150D02*
X4062443Y-5957150D01*
X4062443Y-5957150D02*
X4081491Y-5966674D01*
X4081491Y-5966674D02*
X4091015Y-5985722D01*
X4091015Y-5985722D02*
X4091015Y-6090484D01*
X4481491Y-5880960D02*
X4310063Y-6138103D01*
X4738634Y-5890484D02*
X4757682Y-5890484D01*
X4757682Y-5890484D02*
X4776729Y-5900008D01*
X4776729Y-5900008D02*
X4786253Y-5909531D01*
X4786253Y-5909531D02*
X4795777Y-5928579D01*
X4795777Y-5928579D02*
X4805301Y-5966674D01*
X4805301Y-5966674D02*
X4805301Y-6014293D01*
X4805301Y-6014293D02*
X4795777Y-6052388D01*
X4795777Y-6052388D02*
X4786253Y-6071436D01*
X4786253Y-6071436D02*
X4776729Y-6080960D01*
X4776729Y-6080960D02*
X4757682Y-6090484D01*
X4757682Y-6090484D02*
X4738634Y-6090484D01*
X4738634Y-6090484D02*
X4719587Y-6080960D01*
X4719587Y-6080960D02*
X4710063Y-6071436D01*
X4710063Y-6071436D02*
X4700539Y-6052388D01*
X4700539Y-6052388D02*
X4691015Y-6014293D01*
X4691015Y-6014293D02*
X4691015Y-5966674D01*
X4691015Y-5966674D02*
X4700539Y-5928579D01*
X4700539Y-5928579D02*
X4710063Y-5909531D01*
X4710063Y-5909531D02*
X4719587Y-5900008D01*
X4719587Y-5900008D02*
X4738634Y-5890484D01*
X4891015Y-6071436D02*
X4900539Y-6080960D01*
X4900539Y-6080960D02*
X4891015Y-6090484D01*
X4891015Y-6090484D02*
X4881491Y-6080960D01*
X4881491Y-6080960D02*
X4891015Y-6071436D01*
X4891015Y-6071436D02*
X4891015Y-6090484D01*
X5091015Y-6090484D02*
X4976729Y-6090484D01*
X5033872Y-6090484D02*
X5033872Y-5890484D01*
X5033872Y-5890484D02*
X5014825Y-5919055D01*
X5014825Y-5919055D02*
X4995777Y-5938103D01*
X4995777Y-5938103D02*
X4976729Y-5947627D01*
X5167206Y-5909531D02*
X5176729Y-5900008D01*
X5176729Y-5900008D02*
X5195777Y-5890484D01*
X5195777Y-5890484D02*
X5243396Y-5890484D01*
X5243396Y-5890484D02*
X5262444Y-5900008D01*
X5262444Y-5900008D02*
X5271968Y-5909531D01*
X5271968Y-5909531D02*
X5281491Y-5928579D01*
X5281491Y-5928579D02*
X5281491Y-5947627D01*
X5281491Y-5947627D02*
X5271968Y-5976198D01*
X5271968Y-5976198D02*
X5157682Y-6090484D01*
X5157682Y-6090484D02*
X5281491Y-6090484D01*
X5452920Y-5890484D02*
X5414825Y-5890484D01*
X5414825Y-5890484D02*
X5395777Y-5900008D01*
X5395777Y-5900008D02*
X5386253Y-5909531D01*
X5386253Y-5909531D02*
X5367206Y-5938103D01*
X5367206Y-5938103D02*
X5357682Y-5976198D01*
X5357682Y-5976198D02*
X5357682Y-6052388D01*
X5357682Y-6052388D02*
X5367206Y-6071436D01*
X5367206Y-6071436D02*
X5376729Y-6080960D01*
X5376729Y-6080960D02*
X5395777Y-6090484D01*
X5395777Y-6090484D02*
X5433872Y-6090484D01*
X5433872Y-6090484D02*
X5452920Y-6080960D01*
X5452920Y-6080960D02*
X5462444Y-6071436D01*
X5462444Y-6071436D02*
X5471968Y-6052388D01*
X5471968Y-6052388D02*
X5471968Y-6004769D01*
X5471968Y-6004769D02*
X5462444Y-5985722D01*
X5462444Y-5985722D02*
X5452920Y-5976198D01*
X5452920Y-5976198D02*
X5433872Y-5966674D01*
X5433872Y-5966674D02*
X5395777Y-5966674D01*
X5395777Y-5966674D02*
X5376729Y-5976198D01*
X5376729Y-5976198D02*
X5367206Y-5985722D01*
X5367206Y-5985722D02*
X5357682Y-6004769D01*
X5595777Y-5890484D02*
X5614825Y-5890484D01*
X5614825Y-5890484D02*
X5633872Y-5900008D01*
X5633872Y-5900008D02*
X5643396Y-5909531D01*
X5643396Y-5909531D02*
X5652920Y-5928579D01*
X5652920Y-5928579D02*
X5662444Y-5966674D01*
X5662444Y-5966674D02*
X5662444Y-6014293D01*
X5662444Y-6014293D02*
X5652920Y-6052388D01*
X5652920Y-6052388D02*
X5643396Y-6071436D01*
X5643396Y-6071436D02*
X5633872Y-6080960D01*
X5633872Y-6080960D02*
X5614825Y-6090484D01*
X5614825Y-6090484D02*
X5595777Y-6090484D01*
X5595777Y-6090484D02*
X5576729Y-6080960D01*
X5576729Y-6080960D02*
X5567206Y-6071436D01*
X5567206Y-6071436D02*
X5557682Y-6052388D01*
X5557682Y-6052388D02*
X5548158Y-6014293D01*
X5548158Y-6014293D02*
X5548158Y-5966674D01*
X5548158Y-5966674D02*
X5557682Y-5928579D01*
X5557682Y-5928579D02*
X5567206Y-5909531D01*
X5567206Y-5909531D02*
X5576729Y-5900008D01*
X5576729Y-5900008D02*
X5595777Y-5890484D01*
X5738634Y-5890484D02*
X5738634Y-5928579D01*
X5814825Y-5890484D02*
X5814825Y-5928579D01*
X6110063Y-6166674D02*
X6100539Y-6157150D01*
X6100539Y-6157150D02*
X6081491Y-6128579D01*
X6081491Y-6128579D02*
X6071968Y-6109531D01*
X6071968Y-6109531D02*
X6062444Y-6080960D01*
X6062444Y-6080960D02*
X6052920Y-6033341D01*
X6052920Y-6033341D02*
X6052920Y-5995246D01*
X6052920Y-5995246D02*
X6062444Y-5947627D01*
X6062444Y-5947627D02*
X6071968Y-5919055D01*
X6071968Y-5919055D02*
X6081491Y-5900008D01*
X6081491Y-5900008D02*
X6100539Y-5871436D01*
X6100539Y-5871436D02*
X6110063Y-5861912D01*
X6271968Y-5957150D02*
X6271968Y-6090484D01*
X6224348Y-5880960D02*
X6176729Y-6023817D01*
X6176729Y-6023817D02*
X6300539Y-6023817D01*
X6529110Y-6090484D02*
X6529110Y-5890484D01*
X6614825Y-6090484D02*
X6614825Y-5985722D01*
X6614825Y-5985722D02*
X6605301Y-5966674D01*
X6605301Y-5966674D02*
X6586253Y-5957150D01*
X6586253Y-5957150D02*
X6557682Y-5957150D01*
X6557682Y-5957150D02*
X6538634Y-5966674D01*
X6538634Y-5966674D02*
X6529110Y-5976198D01*
X6738634Y-6090484D02*
X6719587Y-6080960D01*
X6719587Y-6080960D02*
X6710063Y-6071436D01*
X6710063Y-6071436D02*
X6700539Y-6052388D01*
X6700539Y-6052388D02*
X6700539Y-5995246D01*
X6700539Y-5995246D02*
X6710063Y-5976198D01*
X6710063Y-5976198D02*
X6719587Y-5966674D01*
X6719587Y-5966674D02*
X6738634Y-5957150D01*
X6738634Y-5957150D02*
X6767206Y-5957150D01*
X6767206Y-5957150D02*
X6786253Y-5966674D01*
X6786253Y-5966674D02*
X6795777Y-5976198D01*
X6795777Y-5976198D02*
X6805301Y-5995246D01*
X6805301Y-5995246D02*
X6805301Y-6052388D01*
X6805301Y-6052388D02*
X6795777Y-6071436D01*
X6795777Y-6071436D02*
X6786253Y-6080960D01*
X6786253Y-6080960D02*
X6767206Y-6090484D01*
X6767206Y-6090484D02*
X6738634Y-6090484D01*
X6919587Y-6090484D02*
X6900539Y-6080960D01*
X6900539Y-6080960D02*
X6891015Y-6061912D01*
X6891015Y-6061912D02*
X6891015Y-5890484D01*
X7071968Y-6080960D02*
X7052920Y-6090484D01*
X7052920Y-6090484D02*
X7014825Y-6090484D01*
X7014825Y-6090484D02*
X6995777Y-6080960D01*
X6995777Y-6080960D02*
X6986253Y-6061912D01*
X6986253Y-6061912D02*
X6986253Y-5985722D01*
X6986253Y-5985722D02*
X6995777Y-5966674D01*
X6995777Y-5966674D02*
X7014825Y-5957150D01*
X7014825Y-5957150D02*
X7052920Y-5957150D01*
X7052920Y-5957150D02*
X7071968Y-5966674D01*
X7071968Y-5966674D02*
X7081491Y-5985722D01*
X7081491Y-5985722D02*
X7081491Y-6004769D01*
X7081491Y-6004769D02*
X6986253Y-6023817D01*
X7157682Y-6080960D02*
X7176730Y-6090484D01*
X7176730Y-6090484D02*
X7214825Y-6090484D01*
X7214825Y-6090484D02*
X7233872Y-6080960D01*
X7233872Y-6080960D02*
X7243396Y-6061912D01*
X7243396Y-6061912D02*
X7243396Y-6052388D01*
X7243396Y-6052388D02*
X7233872Y-6033341D01*
X7233872Y-6033341D02*
X7214825Y-6023817D01*
X7214825Y-6023817D02*
X7186253Y-6023817D01*
X7186253Y-6023817D02*
X7167206Y-6014293D01*
X7167206Y-6014293D02*
X7157682Y-5995246D01*
X7157682Y-5995246D02*
X7157682Y-5985722D01*
X7157682Y-5985722D02*
X7167206Y-5966674D01*
X7167206Y-5966674D02*
X7186253Y-5957150D01*
X7186253Y-5957150D02*
X7214825Y-5957150D01*
X7214825Y-5957150D02*
X7233872Y-5966674D01*
X7310063Y-6166674D02*
X7319587Y-6157150D01*
X7319587Y-6157150D02*
X7338634Y-6128579D01*
X7338634Y-6128579D02*
X7348158Y-6109531D01*
X7348158Y-6109531D02*
X7357682Y-6080960D01*
X7357682Y-6080960D02*
X7367206Y-6033341D01*
X7367206Y-6033341D02*
X7367206Y-5995246D01*
X7367206Y-5995246D02*
X7357682Y-5947627D01*
X7357682Y-5947627D02*
X7348158Y-5919055D01*
X7348158Y-5919055D02*
X7338634Y-5900008D01*
X7338634Y-5900008D02*
X7319587Y-5871436D01*
X7319587Y-5871436D02*
X7310063Y-5861912D01*
M02*
