G04 #@! TF.GenerationSoftware,KiCad,Pcbnew,8.0.6*
G04 #@! TF.CreationDate,2024-12-10T14:38:04-08:00*
G04 #@! TF.ProjectId,Constellation Stack V1.2,436f6e73-7465-46c6-9c61-74696f6e2053,rev?*
G04 #@! TF.SameCoordinates,Original*
G04 #@! TF.FileFunction,Copper,L3,Inr*
G04 #@! TF.FilePolarity,Positive*
%FSLAX46Y46*%
G04 Gerber Fmt 4.6, Leading zero omitted, Abs format (unit mm)*
G04 Created by KiCad (PCBNEW 8.0.6) date 2024-12-10 14:38:04*
%MOMM*%
%LPD*%
G01*
G04 APERTURE LIST*
G04 #@! TA.AperFunction,ComponentPad*
%ADD10O,2.100000X1.000000*%
G04 #@! TD*
G04 #@! TA.AperFunction,ComponentPad*
%ADD11O,1.600000X1.000000*%
G04 #@! TD*
G04 #@! TA.AperFunction,ComponentPad*
%ADD12C,5.600000*%
G04 #@! TD*
G04 #@! TA.AperFunction,ComponentPad*
%ADD13C,2.000000*%
G04 #@! TD*
G04 #@! TA.AperFunction,ComponentPad*
%ADD14O,2.200000X2.200000*%
G04 #@! TD*
G04 #@! TA.AperFunction,ComponentPad*
%ADD15R,2.200000X2.200000*%
G04 #@! TD*
G04 #@! TA.AperFunction,ComponentPad*
%ADD16C,2.200000*%
G04 #@! TD*
G04 #@! TA.AperFunction,ViaPad*
%ADD17C,0.700000*%
G04 #@! TD*
G04 #@! TA.AperFunction,ViaPad*
%ADD18C,1.000000*%
G04 #@! TD*
G04 APERTURE END LIST*
D10*
X32120000Y-50350000D03*
D11*
X27940000Y-50350000D03*
D10*
X32120000Y-58990000D03*
D11*
X27940000Y-58990000D03*
D12*
X29210000Y-29210000D03*
X29210000Y-72390000D03*
X78740000Y-29210000D03*
X78740000Y-72380000D03*
D13*
X73540000Y-55260000D03*
X34410000Y-67130000D03*
X34370000Y-62680000D03*
X46810000Y-66500000D03*
X30010000Y-48060000D03*
D14*
X28790000Y-44160000D03*
D15*
X28790000Y-41620000D03*
D16*
X28790000Y-39080000D03*
D15*
X28790000Y-36540000D03*
D13*
X33860000Y-27360000D03*
X73090000Y-59160000D03*
X54170000Y-67000000D03*
X36880000Y-29630000D03*
D15*
X41260000Y-28850000D03*
D16*
X43800000Y-28850000D03*
X46340000Y-28850000D03*
X48880000Y-28850000D03*
X51420000Y-28850000D03*
X53960000Y-28850000D03*
X56500000Y-28850000D03*
X59040000Y-28850000D03*
X61580000Y-28850000D03*
X64120000Y-28850000D03*
X66660000Y-28850000D03*
X69200000Y-28850000D03*
D13*
X49750000Y-36960000D03*
X50450000Y-67000000D03*
X55190000Y-42440001D03*
X56810000Y-56400000D03*
X44280000Y-60270000D03*
X68090000Y-57670000D03*
X65330000Y-64400000D03*
X42160000Y-40440000D03*
D15*
X51050000Y-72520000D03*
D16*
X48510000Y-72520000D03*
X45970000Y-72520000D03*
X43430000Y-72520000D03*
D13*
X63670000Y-41940000D03*
X57640000Y-50440000D03*
D16*
X28910000Y-67460000D03*
X28910000Y-64920000D03*
D15*
X28910000Y-62380000D03*
X72930000Y-72530000D03*
D16*
X70390000Y-72530000D03*
X67850000Y-72530000D03*
X65310000Y-72530000D03*
X62770000Y-72530000D03*
X60230000Y-72530000D03*
X57690000Y-72530000D03*
X55150000Y-72530000D03*
D13*
X47070000Y-62810000D03*
D17*
X35210000Y-40800000D03*
D18*
X39200000Y-34310000D03*
X56540000Y-38380000D03*
X36619921Y-33780000D03*
D17*
X44100000Y-41490000D03*
X42320000Y-48480000D03*
X32940000Y-38420000D03*
X65540000Y-52550000D03*
X76400000Y-63320000D03*
D18*
X74940000Y-46510000D03*
X74940000Y-49160000D03*
D17*
X44480000Y-33140000D03*
D18*
X53280000Y-58170000D03*
X35340000Y-71050000D03*
X52280000Y-62740000D03*
D17*
X52940000Y-41750000D03*
X41490000Y-32569999D03*
X59395450Y-48295318D03*
D18*
X74940000Y-45185000D03*
X56508284Y-33058767D03*
X59609106Y-36054748D03*
D17*
X57900000Y-68480000D03*
D18*
X72810000Y-32080000D03*
X59439380Y-33116796D03*
D17*
X65050000Y-39000000D03*
X30930000Y-43390000D03*
X78840000Y-56131251D03*
X36051486Y-55881110D03*
D18*
X68690000Y-34260000D03*
X59640000Y-39800000D03*
D17*
X65260000Y-43989500D03*
X45550000Y-56500000D03*
X41160000Y-51580000D03*
X40980000Y-55517500D03*
X63350000Y-34830000D03*
D18*
X74940000Y-47835000D03*
D17*
X49540000Y-41240000D03*
D18*
X56660000Y-36010000D03*
D17*
X35460000Y-52470000D03*
D18*
X40470000Y-62990000D03*
D17*
X43070000Y-48500000D03*
D18*
X59485500Y-38080000D03*
X53035001Y-46390318D03*
X44910000Y-43300000D03*
X53090000Y-56020000D03*
X55200000Y-31000000D03*
X74940000Y-43860000D03*
D17*
X46499016Y-39880000D03*
D18*
X60920000Y-30990000D03*
D17*
X76000000Y-36840000D03*
D18*
X38050000Y-68250000D03*
D17*
X55940000Y-58830000D03*
D18*
X53870000Y-52940000D03*
D17*
X66790000Y-68700000D03*
X53330000Y-34710000D03*
X66350000Y-39850000D03*
X70800000Y-38670000D03*
X64910000Y-35280000D03*
X77790000Y-32909999D03*
X37970000Y-58570000D03*
X78860000Y-61731251D03*
D18*
X73670000Y-35660000D03*
D17*
X59530000Y-44500000D03*
D18*
X37350000Y-44550000D03*
D17*
X74100000Y-66145000D03*
D18*
X37400000Y-45650000D03*
X36300000Y-46750000D03*
X37400000Y-46750000D03*
D17*
X66790000Y-67410000D03*
X52290000Y-38280000D03*
D18*
X36300000Y-45640000D03*
D17*
X77150000Y-65510000D03*
D18*
X36300000Y-44550000D03*
D17*
X69540000Y-39330000D03*
X63790000Y-44230000D03*
X49630000Y-47680000D03*
X51060000Y-48500000D03*
X51950000Y-51930000D03*
X49520000Y-61300000D03*
X51120000Y-44760000D03*
X40570000Y-66110000D03*
X54340000Y-47640000D03*
X67530000Y-49920000D03*
X52940000Y-50610000D03*
X46450000Y-48170000D03*
X46825813Y-50790863D03*
X55310000Y-62320000D03*
X67960000Y-51610000D03*
X32570000Y-41660000D03*
X68850000Y-38480000D03*
X74400000Y-41850000D03*
X77920000Y-38340000D03*
X70410000Y-56360000D03*
X69880189Y-53830567D03*
X70470000Y-51379500D03*
X56640000Y-41010000D03*
X60922500Y-42560000D03*
X59450000Y-42790000D03*
X67650000Y-46270000D03*
X69510000Y-64670000D03*
X73340000Y-51550000D03*
X67570000Y-53441000D03*
X64790000Y-53650000D03*
X54420000Y-55810000D03*
X65520000Y-49900500D03*
X65290000Y-51400000D03*
X62696128Y-52740000D03*
X63923175Y-57343175D03*
X62225122Y-54941422D03*
X63230500Y-58085837D03*
X61800893Y-52827508D03*
X61464804Y-55701740D03*
X62533774Y-58732575D03*
X60901599Y-52846847D03*
X60828760Y-56337784D03*
X60002191Y-52833788D03*
X60192716Y-56973828D03*
X61897730Y-59368620D03*
X61303671Y-60044045D03*
X59106833Y-52747539D03*
X59556672Y-57609873D03*
X60716198Y-60725206D03*
X58920628Y-58245917D03*
X58338209Y-52280291D03*
G04 #@! TA.AperFunction,Conductor*
G36*
X78740840Y-25400010D02*
G01*
X78933856Y-25402536D01*
X78945172Y-25403203D01*
X79329967Y-25443646D01*
X79342783Y-25445676D01*
X79720419Y-25525945D01*
X79732954Y-25529304D01*
X80100136Y-25648609D01*
X80112253Y-25653260D01*
X80464964Y-25810297D01*
X80476514Y-25816182D01*
X80810872Y-26009223D01*
X80821749Y-26016286D01*
X81134101Y-26243224D01*
X81144187Y-26251392D01*
X81431096Y-26509725D01*
X81440274Y-26518903D01*
X81698607Y-26805812D01*
X81706775Y-26815898D01*
X81933710Y-27128246D01*
X81940779Y-27139132D01*
X82133813Y-27473478D01*
X82139706Y-27485043D01*
X82296739Y-27837746D01*
X82301390Y-27849863D01*
X82420695Y-28217045D01*
X82424054Y-28229582D01*
X82504322Y-28607214D01*
X82506353Y-28620034D01*
X82546795Y-29004815D01*
X82547463Y-29016153D01*
X82549989Y-29209158D01*
X82550000Y-29210781D01*
X82550000Y-72389218D01*
X82549989Y-72390841D01*
X82547463Y-72583846D01*
X82546795Y-72595184D01*
X82506353Y-72979965D01*
X82504322Y-72992785D01*
X82424054Y-73370417D01*
X82420695Y-73382954D01*
X82301390Y-73750136D01*
X82296739Y-73762253D01*
X82139706Y-74114956D01*
X82133813Y-74126521D01*
X81940779Y-74460867D01*
X81933710Y-74471753D01*
X81706775Y-74784101D01*
X81698607Y-74794187D01*
X81440274Y-75081096D01*
X81431096Y-75090274D01*
X81144187Y-75348607D01*
X81134101Y-75356775D01*
X80821753Y-75583710D01*
X80810867Y-75590779D01*
X80476521Y-75783813D01*
X80464956Y-75789706D01*
X80112253Y-75946739D01*
X80100136Y-75951390D01*
X79732954Y-76070695D01*
X79720417Y-76074054D01*
X79342785Y-76154322D01*
X79329965Y-76156353D01*
X78945184Y-76196795D01*
X78933846Y-76197463D01*
X78747914Y-76199896D01*
X78740839Y-76199989D01*
X78739219Y-76200000D01*
X29210781Y-76200000D01*
X29209160Y-76199989D01*
X29201890Y-76199893D01*
X29016153Y-76197463D01*
X29004815Y-76196795D01*
X28620034Y-76156353D01*
X28607214Y-76154322D01*
X28229582Y-76074054D01*
X28217045Y-76070695D01*
X27849863Y-75951390D01*
X27837746Y-75946739D01*
X27485043Y-75789706D01*
X27473478Y-75783813D01*
X27139132Y-75590779D01*
X27128246Y-75583710D01*
X26815898Y-75356775D01*
X26805812Y-75348607D01*
X26518903Y-75090274D01*
X26509725Y-75081096D01*
X26251392Y-74794187D01*
X26243224Y-74784101D01*
X26016289Y-74471753D01*
X26009220Y-74460867D01*
X25968302Y-74389994D01*
X25816182Y-74126514D01*
X25810297Y-74114964D01*
X25653260Y-73762253D01*
X25648609Y-73750136D01*
X25549539Y-73445232D01*
X25529303Y-73382953D01*
X25525945Y-73370417D01*
X25445677Y-72992785D01*
X25443646Y-72979965D01*
X25421699Y-72771151D01*
X25403203Y-72595172D01*
X25402536Y-72583856D01*
X25400011Y-72390840D01*
X25400005Y-72389997D01*
X25905153Y-72389997D01*
X25905153Y-72390002D01*
X25924526Y-72747314D01*
X25924527Y-72747331D01*
X25982415Y-73100431D01*
X25982421Y-73100457D01*
X26078147Y-73445232D01*
X26078149Y-73445239D01*
X26210597Y-73777659D01*
X26210606Y-73777677D01*
X26378218Y-74093827D01*
X26579024Y-74389994D01*
X26579035Y-74390008D01*
X26706441Y-74540002D01*
X26706442Y-74540002D01*
X27915747Y-73330697D01*
X27989588Y-73432330D01*
X28167670Y-73610412D01*
X28269300Y-73684251D01*
X27057257Y-74896294D01*
X27070495Y-74908836D01*
X27355367Y-75125388D01*
X27355370Y-75125390D01*
X27661990Y-75309876D01*
X27986739Y-75460122D01*
X27986744Y-75460123D01*
X28325855Y-75574383D01*
X28675339Y-75651311D01*
X29031075Y-75689999D01*
X29031085Y-75690000D01*
X29388915Y-75690000D01*
X29388924Y-75689999D01*
X29744660Y-75651311D01*
X30094144Y-75574383D01*
X30433255Y-75460123D01*
X30433260Y-75460122D01*
X30758009Y-75309876D01*
X31064629Y-75125390D01*
X31064632Y-75125388D01*
X31349509Y-74908831D01*
X31362742Y-74896295D01*
X31362742Y-74896294D01*
X30150699Y-73684251D01*
X30252330Y-73610412D01*
X30430412Y-73432330D01*
X30504252Y-73330698D01*
X31713556Y-74540002D01*
X31840972Y-74389998D01*
X31840975Y-74389994D01*
X32041781Y-74093827D01*
X32209393Y-73777677D01*
X32209402Y-73777659D01*
X32341850Y-73445239D01*
X32341852Y-73445232D01*
X32437578Y-73100457D01*
X32437584Y-73100431D01*
X32495472Y-72747331D01*
X32495473Y-72747314D01*
X32507798Y-72520000D01*
X41824551Y-72520000D01*
X41844317Y-72771151D01*
X41903126Y-73016110D01*
X41999533Y-73248859D01*
X42131160Y-73463653D01*
X42131161Y-73463656D01*
X42140149Y-73474179D01*
X42294776Y-73655224D01*
X42426442Y-73767677D01*
X42486343Y-73818838D01*
X42486346Y-73818839D01*
X42701140Y-73950466D01*
X42933889Y-74046873D01*
X43178852Y-74105683D01*
X43430000Y-74125449D01*
X43681148Y-74105683D01*
X43926111Y-74046873D01*
X44158859Y-73950466D01*
X44373659Y-73818836D01*
X44565224Y-73655224D01*
X44605710Y-73607819D01*
X44664216Y-73569627D01*
X44734084Y-73569128D01*
X44793130Y-73606482D01*
X44794235Y-73607756D01*
X44834775Y-73655223D01*
X44834776Y-73655224D01*
X45026343Y-73818838D01*
X45026346Y-73818839D01*
X45241140Y-73950466D01*
X45473889Y-74046873D01*
X45718852Y-74105683D01*
X45970000Y-74125449D01*
X46221148Y-74105683D01*
X46466111Y-74046873D01*
X46698859Y-73950466D01*
X46913659Y-73818836D01*
X47105224Y-73655224D01*
X47145710Y-73607819D01*
X47204216Y-73569627D01*
X47274084Y-73569128D01*
X47333130Y-73606482D01*
X47334235Y-73607756D01*
X47374775Y-73655223D01*
X47374776Y-73655224D01*
X47566343Y-73818838D01*
X47566346Y-73818839D01*
X47781140Y-73950466D01*
X48013889Y-74046873D01*
X48258852Y-74105683D01*
X48510000Y-74125449D01*
X48761148Y-74105683D01*
X49006111Y-74046873D01*
X49238859Y-73950466D01*
X49371019Y-73869477D01*
X49438461Y-73851234D01*
X49505064Y-73872350D01*
X49535072Y-73900894D01*
X49572284Y-73950603D01*
X49592455Y-73977547D01*
X49707664Y-74063793D01*
X49707671Y-74063797D01*
X49842517Y-74114091D01*
X49842516Y-74114091D01*
X49849444Y-74114835D01*
X49902127Y-74120500D01*
X52197872Y-74120499D01*
X52257483Y-74114091D01*
X52392331Y-74063796D01*
X52507546Y-73977546D01*
X52593796Y-73862331D01*
X52644091Y-73727483D01*
X52650500Y-73667873D01*
X52650500Y-72530000D01*
X53545052Y-72530000D01*
X53564812Y-72781072D01*
X53623603Y-73025956D01*
X53719980Y-73258631D01*
X53851568Y-73473362D01*
X53852266Y-73474179D01*
X54626212Y-72700234D01*
X54637482Y-72742292D01*
X54709890Y-72867708D01*
X54812292Y-72970110D01*
X54937708Y-73042518D01*
X54979765Y-73053787D01*
X54205819Y-73827732D01*
X54205819Y-73827733D01*
X54206634Y-73828429D01*
X54421368Y-73960019D01*
X54654043Y-74056396D01*
X54898927Y-74115187D01*
X55150000Y-74134947D01*
X55401072Y-74115187D01*
X55645956Y-74056396D01*
X55878631Y-73960019D01*
X56093361Y-73828432D01*
X56093363Y-73828430D01*
X56094180Y-73827732D01*
X55320234Y-73053787D01*
X55362292Y-73042518D01*
X55487708Y-72970110D01*
X55590110Y-72867708D01*
X55662518Y-72742292D01*
X55673787Y-72700234D01*
X56292079Y-73318526D01*
X56310125Y-73341417D01*
X56391160Y-73473653D01*
X56391161Y-73473656D01*
X56419999Y-73507421D01*
X56554776Y-73665224D01*
X56686442Y-73777677D01*
X56746343Y-73828838D01*
X56746346Y-73828839D01*
X56961140Y-73960466D01*
X57169747Y-74046873D01*
X57193889Y-74056873D01*
X57438852Y-74115683D01*
X57690000Y-74135449D01*
X57941148Y-74115683D01*
X58186111Y-74056873D01*
X58418859Y-73960466D01*
X58633659Y-73828836D01*
X58825224Y-73665224D01*
X58865710Y-73617819D01*
X58924216Y-73579627D01*
X58994084Y-73579128D01*
X59053130Y-73616482D01*
X59054235Y-73617756D01*
X59086235Y-73655224D01*
X59094776Y-73665224D01*
X59286343Y-73828838D01*
X59286346Y-73828839D01*
X59501140Y-73960466D01*
X59709747Y-74046873D01*
X59733889Y-74056873D01*
X59978852Y-74115683D01*
X60230000Y-74135449D01*
X60481148Y-74115683D01*
X60726111Y-74056873D01*
X60958859Y-73960466D01*
X61173659Y-73828836D01*
X61365224Y-73665224D01*
X61405710Y-73617819D01*
X61464216Y-73579627D01*
X61534084Y-73579128D01*
X61593130Y-73616482D01*
X61594235Y-73617756D01*
X61626235Y-73655224D01*
X61634776Y-73665224D01*
X61826343Y-73828838D01*
X61826346Y-73828839D01*
X62041140Y-73960466D01*
X62249747Y-74046873D01*
X62273889Y-74056873D01*
X62518852Y-74115683D01*
X62770000Y-74135449D01*
X63021148Y-74115683D01*
X63266111Y-74056873D01*
X63498859Y-73960466D01*
X63713659Y-73828836D01*
X63905224Y-73665224D01*
X63945710Y-73617819D01*
X64004216Y-73579627D01*
X64074084Y-73579128D01*
X64133130Y-73616482D01*
X64134235Y-73617756D01*
X64166235Y-73655224D01*
X64174776Y-73665224D01*
X64366343Y-73828838D01*
X64366346Y-73828839D01*
X64581140Y-73960466D01*
X64789747Y-74046873D01*
X64813889Y-74056873D01*
X65058852Y-74115683D01*
X65310000Y-74135449D01*
X65561148Y-74115683D01*
X65806111Y-74056873D01*
X66038859Y-73960466D01*
X66253659Y-73828836D01*
X66445224Y-73665224D01*
X66485710Y-73617819D01*
X66544216Y-73579627D01*
X66614084Y-73579128D01*
X66673130Y-73616482D01*
X66674235Y-73617756D01*
X66706235Y-73655224D01*
X66714776Y-73665224D01*
X66906343Y-73828838D01*
X66906346Y-73828839D01*
X67121140Y-73960466D01*
X67329747Y-74046873D01*
X67353889Y-74056873D01*
X67598852Y-74115683D01*
X67850000Y-74135449D01*
X68101148Y-74115683D01*
X68346111Y-74056873D01*
X68578859Y-73960466D01*
X68793659Y-73828836D01*
X68985224Y-73665224D01*
X69025710Y-73617819D01*
X69084216Y-73579627D01*
X69154084Y-73579128D01*
X69213130Y-73616482D01*
X69214235Y-73617756D01*
X69246235Y-73655224D01*
X69254776Y-73665224D01*
X69446343Y-73828838D01*
X69446346Y-73828839D01*
X69661140Y-73960466D01*
X69869747Y-74046873D01*
X69893889Y-74056873D01*
X70138852Y-74115683D01*
X70390000Y-74135449D01*
X70641148Y-74115683D01*
X70886111Y-74056873D01*
X71118859Y-73960466D01*
X71251019Y-73879477D01*
X71318461Y-73861234D01*
X71385064Y-73882350D01*
X71415072Y-73910894D01*
X71464966Y-73977544D01*
X71472455Y-73987547D01*
X71587664Y-74073793D01*
X71587671Y-74073797D01*
X71722517Y-74124091D01*
X71722516Y-74124091D01*
X71729444Y-74124835D01*
X71782127Y-74130500D01*
X74077872Y-74130499D01*
X74137483Y-74124091D01*
X74272331Y-74073796D01*
X74387546Y-73987546D01*
X74473796Y-73872331D01*
X74524091Y-73737483D01*
X74530500Y-73677873D01*
X74530499Y-72379997D01*
X75435153Y-72379997D01*
X75435153Y-72380002D01*
X75454526Y-72737314D01*
X75454527Y-72737331D01*
X75512415Y-73090431D01*
X75512421Y-73090457D01*
X75608147Y-73435232D01*
X75608149Y-73435239D01*
X75740597Y-73767659D01*
X75740606Y-73767677D01*
X75908218Y-74083827D01*
X76109024Y-74379994D01*
X76109035Y-74380008D01*
X76236441Y-74530002D01*
X76236442Y-74530002D01*
X77445747Y-73320697D01*
X77519588Y-73422330D01*
X77697670Y-73600412D01*
X77799300Y-73674251D01*
X76587257Y-74886294D01*
X76600495Y-74898836D01*
X76885367Y-75115388D01*
X76885370Y-75115390D01*
X77191990Y-75299876D01*
X77516739Y-75450122D01*
X77516744Y-75450123D01*
X77855855Y-75564383D01*
X78205339Y-75641311D01*
X78561075Y-75679999D01*
X78561085Y-75680000D01*
X78918915Y-75680000D01*
X78918924Y-75679999D01*
X79274660Y-75641311D01*
X79624144Y-75564383D01*
X79963255Y-75450123D01*
X79963260Y-75450122D01*
X80288009Y-75299876D01*
X80594629Y-75115390D01*
X80594632Y-75115388D01*
X80879509Y-74898831D01*
X80892742Y-74886295D01*
X80892742Y-74886294D01*
X79680699Y-73674251D01*
X79782330Y-73600412D01*
X79960412Y-73422330D01*
X80034252Y-73320698D01*
X81243556Y-74530002D01*
X81370972Y-74379998D01*
X81370975Y-74379994D01*
X81571781Y-74083827D01*
X81739393Y-73767677D01*
X81739402Y-73767659D01*
X81871850Y-73435239D01*
X81871852Y-73435232D01*
X81967578Y-73090457D01*
X81967584Y-73090431D01*
X82025472Y-72737331D01*
X82025473Y-72737314D01*
X82044847Y-72380002D01*
X82044847Y-72379997D01*
X82025473Y-72022685D01*
X82025472Y-72022668D01*
X81967584Y-71669568D01*
X81967578Y-71669542D01*
X81871852Y-71324767D01*
X81871850Y-71324760D01*
X81739402Y-70992340D01*
X81739393Y-70992322D01*
X81571781Y-70676172D01*
X81370975Y-70380005D01*
X81370964Y-70379991D01*
X81243556Y-70229996D01*
X80034251Y-71439300D01*
X79960412Y-71337670D01*
X79782330Y-71159588D01*
X79680698Y-71085748D01*
X80892742Y-69873704D01*
X80879504Y-69861163D01*
X80594632Y-69644611D01*
X80594629Y-69644609D01*
X80288009Y-69460123D01*
X79963260Y-69309877D01*
X79963255Y-69309876D01*
X79624144Y-69195616D01*
X79274660Y-69118688D01*
X78918924Y-69080000D01*
X78561075Y-69080000D01*
X78205339Y-69118688D01*
X77855855Y-69195616D01*
X77516744Y-69309876D01*
X77516739Y-69309877D01*
X77191990Y-69460123D01*
X76885370Y-69644609D01*
X76885367Y-69644611D01*
X76600486Y-69861170D01*
X76600485Y-69861171D01*
X76587257Y-69873702D01*
X76587256Y-69873703D01*
X77799301Y-71085748D01*
X77697670Y-71159588D01*
X77519588Y-71337670D01*
X77445748Y-71439301D01*
X76236442Y-70229995D01*
X76236441Y-70229996D01*
X76109033Y-70379992D01*
X75908218Y-70676172D01*
X75740606Y-70992322D01*
X75740597Y-70992340D01*
X75608149Y-71324760D01*
X75608147Y-71324767D01*
X75512421Y-71669542D01*
X75512415Y-71669568D01*
X75454527Y-72022668D01*
X75454526Y-72022685D01*
X75435153Y-72379997D01*
X74530499Y-72379997D01*
X74530499Y-71382128D01*
X74524091Y-71322517D01*
X74520361Y-71312517D01*
X74473797Y-71187671D01*
X74473793Y-71187664D01*
X74387547Y-71072455D01*
X74387544Y-71072452D01*
X74272335Y-70986206D01*
X74272328Y-70986202D01*
X74137482Y-70935908D01*
X74137483Y-70935908D01*
X74077883Y-70929501D01*
X74077881Y-70929500D01*
X74077873Y-70929500D01*
X74077864Y-70929500D01*
X71782129Y-70929500D01*
X71782123Y-70929501D01*
X71722516Y-70935908D01*
X71587671Y-70986202D01*
X71587664Y-70986206D01*
X71472455Y-71072452D01*
X71415072Y-71149105D01*
X71359138Y-71190976D01*
X71289446Y-71195959D01*
X71251016Y-71180520D01*
X71118859Y-71099533D01*
X70886110Y-71003126D01*
X70641151Y-70944317D01*
X70390000Y-70924551D01*
X70138848Y-70944317D01*
X69893889Y-71003126D01*
X69661140Y-71099533D01*
X69446346Y-71231160D01*
X69446343Y-71231161D01*
X69254776Y-71394776D01*
X69214290Y-71442179D01*
X69155783Y-71480372D01*
X69085915Y-71480870D01*
X69026869Y-71443516D01*
X69025710Y-71442179D01*
X69017169Y-71432179D01*
X68985224Y-71394776D01*
X68809497Y-71244691D01*
X68793656Y-71231161D01*
X68793653Y-71231160D01*
X68578859Y-71099533D01*
X68346110Y-71003126D01*
X68101151Y-70944317D01*
X67850000Y-70924551D01*
X67598848Y-70944317D01*
X67353889Y-71003126D01*
X67121140Y-71099533D01*
X66906346Y-71231160D01*
X66906343Y-71231161D01*
X66714776Y-71394776D01*
X66674290Y-71442179D01*
X66615783Y-71480372D01*
X66545915Y-71480870D01*
X66486869Y-71443516D01*
X66485710Y-71442179D01*
X66477169Y-71432179D01*
X66445224Y-71394776D01*
X66269497Y-71244691D01*
X66253656Y-71231161D01*
X66253653Y-71231160D01*
X66038859Y-71099533D01*
X65806110Y-71003126D01*
X65561151Y-70944317D01*
X65310000Y-70924551D01*
X65058848Y-70944317D01*
X64813889Y-71003126D01*
X64581140Y-71099533D01*
X64366346Y-71231160D01*
X64366343Y-71231161D01*
X64174776Y-71394776D01*
X64134290Y-71442179D01*
X64075783Y-71480372D01*
X64005915Y-71480870D01*
X63946869Y-71443516D01*
X63945710Y-71442179D01*
X63937169Y-71432179D01*
X63905224Y-71394776D01*
X63729497Y-71244691D01*
X63713656Y-71231161D01*
X63713653Y-71231160D01*
X63498859Y-71099533D01*
X63266110Y-71003126D01*
X63021151Y-70944317D01*
X62770000Y-70924551D01*
X62518848Y-70944317D01*
X62273889Y-71003126D01*
X62041140Y-71099533D01*
X61826346Y-71231160D01*
X61826343Y-71231161D01*
X61634776Y-71394776D01*
X61594290Y-71442179D01*
X61535783Y-71480372D01*
X61465915Y-71480870D01*
X61406869Y-71443516D01*
X61405710Y-71442179D01*
X61397169Y-71432179D01*
X61365224Y-71394776D01*
X61189497Y-71244691D01*
X61173656Y-71231161D01*
X61173653Y-71231160D01*
X60958859Y-71099533D01*
X60726110Y-71003126D01*
X60481151Y-70944317D01*
X60230000Y-70924551D01*
X59978848Y-70944317D01*
X59733889Y-71003126D01*
X59501140Y-71099533D01*
X59286346Y-71231160D01*
X59286343Y-71231161D01*
X59094776Y-71394776D01*
X59054290Y-71442179D01*
X58995783Y-71480372D01*
X58925915Y-71480870D01*
X58866869Y-71443516D01*
X58865710Y-71442179D01*
X58857169Y-71432179D01*
X58825224Y-71394776D01*
X58649497Y-71244691D01*
X58633656Y-71231161D01*
X58633653Y-71231160D01*
X58418859Y-71099533D01*
X58186110Y-71003126D01*
X57941151Y-70944317D01*
X57690000Y-70924551D01*
X57438848Y-70944317D01*
X57193889Y-71003126D01*
X56961140Y-71099533D01*
X56746346Y-71231160D01*
X56746343Y-71231161D01*
X56554776Y-71394776D01*
X56391166Y-71586338D01*
X56310126Y-71718581D01*
X56292080Y-71741471D01*
X55673787Y-72359764D01*
X55662518Y-72317708D01*
X55590110Y-72192292D01*
X55487708Y-72089890D01*
X55362292Y-72017482D01*
X55320234Y-72006212D01*
X56094179Y-71232266D01*
X56093362Y-71231568D01*
X55878631Y-71099980D01*
X55645956Y-71003603D01*
X55401072Y-70944812D01*
X55150000Y-70925052D01*
X54898927Y-70944812D01*
X54654043Y-71003603D01*
X54421368Y-71099980D01*
X54206637Y-71231567D01*
X54205819Y-71232266D01*
X54979765Y-72006212D01*
X54937708Y-72017482D01*
X54812292Y-72089890D01*
X54709890Y-72192292D01*
X54637482Y-72317708D01*
X54626212Y-72359765D01*
X53852266Y-71585819D01*
X53851567Y-71586637D01*
X53719980Y-71801368D01*
X53623603Y-72034043D01*
X53564812Y-72278927D01*
X53545052Y-72530000D01*
X52650500Y-72530000D01*
X52650499Y-71372128D01*
X52644091Y-71312517D01*
X52622523Y-71254691D01*
X52593797Y-71177671D01*
X52593793Y-71177664D01*
X52507547Y-71062455D01*
X52507544Y-71062452D01*
X52392335Y-70976206D01*
X52392328Y-70976202D01*
X52257482Y-70925908D01*
X52257483Y-70925908D01*
X52197883Y-70919501D01*
X52197881Y-70919500D01*
X52197873Y-70919500D01*
X52197864Y-70919500D01*
X49902129Y-70919500D01*
X49902123Y-70919501D01*
X49842516Y-70925908D01*
X49707671Y-70976202D01*
X49707664Y-70976206D01*
X49592455Y-71062452D01*
X49535072Y-71139105D01*
X49479138Y-71180976D01*
X49409446Y-71185959D01*
X49371016Y-71170520D01*
X49238859Y-71089533D01*
X49006110Y-70993126D01*
X48761151Y-70934317D01*
X48510000Y-70914551D01*
X48258848Y-70934317D01*
X48013889Y-70993126D01*
X47781140Y-71089533D01*
X47566346Y-71221160D01*
X47566343Y-71221161D01*
X47374776Y-71384776D01*
X47334290Y-71432179D01*
X47275783Y-71470372D01*
X47205915Y-71470870D01*
X47146869Y-71433516D01*
X47145710Y-71432179D01*
X47105224Y-71384776D01*
X46925841Y-71231568D01*
X46913656Y-71221161D01*
X46913653Y-71221160D01*
X46698859Y-71089533D01*
X46466110Y-70993126D01*
X46221151Y-70934317D01*
X45970000Y-70914551D01*
X45718848Y-70934317D01*
X45473889Y-70993126D01*
X45241140Y-71089533D01*
X45026346Y-71221160D01*
X45026343Y-71221161D01*
X44834776Y-71384776D01*
X44794290Y-71432179D01*
X44735783Y-71470372D01*
X44665915Y-71470870D01*
X44606869Y-71433516D01*
X44605710Y-71432179D01*
X44565224Y-71384776D01*
X44385841Y-71231568D01*
X44373656Y-71221161D01*
X44373653Y-71221160D01*
X44158859Y-71089533D01*
X43926110Y-70993126D01*
X43681151Y-70934317D01*
X43430000Y-70914551D01*
X43178848Y-70934317D01*
X42933889Y-70993126D01*
X42701140Y-71089533D01*
X42486346Y-71221160D01*
X42486343Y-71221161D01*
X42294776Y-71384776D01*
X42131161Y-71576343D01*
X42131160Y-71576346D01*
X41999533Y-71791140D01*
X41903126Y-72023889D01*
X41844317Y-72268848D01*
X41824551Y-72520000D01*
X32507798Y-72520000D01*
X32514847Y-72390002D01*
X32514847Y-72389997D01*
X32495473Y-72032685D01*
X32495472Y-72032668D01*
X32437584Y-71679568D01*
X32437578Y-71679542D01*
X32341852Y-71334767D01*
X32341850Y-71334760D01*
X32209402Y-71002340D01*
X32209393Y-71002322D01*
X32041781Y-70686172D01*
X31840975Y-70390005D01*
X31840964Y-70389991D01*
X31713556Y-70239996D01*
X30504251Y-71449300D01*
X30430412Y-71347670D01*
X30252330Y-71169588D01*
X30150698Y-71095748D01*
X31362742Y-69883704D01*
X31349504Y-69871163D01*
X31064632Y-69654611D01*
X31064629Y-69654609D01*
X30758009Y-69470123D01*
X30433260Y-69319877D01*
X30433255Y-69319876D01*
X30094144Y-69205616D01*
X29744661Y-69128688D01*
X29685592Y-69122264D01*
X29621074Y-69095446D01*
X29581296Y-69038005D01*
X29578889Y-68968177D01*
X29614615Y-68908132D01*
X29635177Y-68893782D01*
X29634705Y-68893012D01*
X29718295Y-68841787D01*
X29853659Y-68758836D01*
X30045224Y-68595224D01*
X30208836Y-68403659D01*
X30340466Y-68188859D01*
X30436873Y-67956111D01*
X30495683Y-67711148D01*
X30515449Y-67460000D01*
X30495683Y-67208852D01*
X30476751Y-67129994D01*
X32904357Y-67129994D01*
X32904357Y-67130005D01*
X32924890Y-67377812D01*
X32924892Y-67377824D01*
X32985936Y-67618881D01*
X33085826Y-67846606D01*
X33221833Y-68054782D01*
X33221836Y-68054785D01*
X33390256Y-68237738D01*
X33586491Y-68390474D01*
X33805190Y-68508828D01*
X34040386Y-68589571D01*
X34285665Y-68630500D01*
X34534335Y-68630500D01*
X34779614Y-68589571D01*
X35014810Y-68508828D01*
X35233509Y-68390474D01*
X35429744Y-68237738D01*
X35598164Y-68054785D01*
X35734173Y-67846607D01*
X35834063Y-67618881D01*
X35895108Y-67377821D01*
X35908467Y-67216606D01*
X35915643Y-67130005D01*
X35915643Y-67129994D01*
X35895109Y-66882187D01*
X35895107Y-66882175D01*
X35834063Y-66641118D01*
X35734173Y-66413393D01*
X35598166Y-66205217D01*
X35543216Y-66145526D01*
X35510512Y-66110000D01*
X39714815Y-66110000D01*
X39733503Y-66287805D01*
X39733504Y-66287807D01*
X39788747Y-66457829D01*
X39788750Y-66457835D01*
X39878141Y-66612665D01*
X39909655Y-66647665D01*
X39997764Y-66745521D01*
X39997767Y-66745523D01*
X39997770Y-66745526D01*
X40142407Y-66850612D01*
X40305733Y-66923329D01*
X40480609Y-66960500D01*
X40480610Y-66960500D01*
X40659389Y-66960500D01*
X40659391Y-66960500D01*
X40834267Y-66923329D01*
X40997593Y-66850612D01*
X41142230Y-66745526D01*
X41155183Y-66731141D01*
X41168148Y-66716741D01*
X41261859Y-66612665D01*
X41326910Y-66499994D01*
X45304357Y-66499994D01*
X45304357Y-66500005D01*
X45324890Y-66747812D01*
X45324892Y-66747824D01*
X45385936Y-66988881D01*
X45485826Y-67216606D01*
X45621833Y-67424782D01*
X45621836Y-67424785D01*
X45790256Y-67607738D01*
X45986491Y-67760474D01*
X46205190Y-67878828D01*
X46440386Y-67959571D01*
X46685665Y-68000500D01*
X46934335Y-68000500D01*
X47179614Y-67959571D01*
X47414810Y-67878828D01*
X47633509Y-67760474D01*
X47829744Y-67607738D01*
X47998164Y-67424785D01*
X48134173Y-67216607D01*
X48229188Y-66999994D01*
X48944357Y-66999994D01*
X48944357Y-67000005D01*
X48964890Y-67247812D01*
X48964892Y-67247824D01*
X49025936Y-67488881D01*
X49125826Y-67716606D01*
X49261833Y-67924782D01*
X49261836Y-67924785D01*
X49430256Y-68107738D01*
X49626491Y-68260474D01*
X49845190Y-68378828D01*
X50080386Y-68459571D01*
X50325665Y-68500500D01*
X50574335Y-68500500D01*
X50819614Y-68459571D01*
X51054810Y-68378828D01*
X51273509Y-68260474D01*
X51469744Y-68107738D01*
X51638164Y-67924785D01*
X51774173Y-67716607D01*
X51874063Y-67488881D01*
X51935108Y-67247821D01*
X51936403Y-67232192D01*
X51955643Y-67000005D01*
X51955643Y-66999994D01*
X52664357Y-66999994D01*
X52664357Y-67000005D01*
X52684890Y-67247812D01*
X52684892Y-67247824D01*
X52745936Y-67488881D01*
X52845826Y-67716606D01*
X52981833Y-67924782D01*
X52981836Y-67924785D01*
X53150256Y-68107738D01*
X53346491Y-68260474D01*
X53565190Y-68378828D01*
X53800386Y-68459571D01*
X54045665Y-68500500D01*
X54294335Y-68500500D01*
X54539614Y-68459571D01*
X54774810Y-68378828D01*
X54993509Y-68260474D01*
X55189744Y-68107738D01*
X55358164Y-67924785D01*
X55494173Y-67716607D01*
X55594063Y-67488881D01*
X55614038Y-67410000D01*
X65934815Y-67410000D01*
X65953503Y-67587805D01*
X65953504Y-67587807D01*
X66008747Y-67757829D01*
X66008750Y-67757835D01*
X66098141Y-67912665D01*
X66137259Y-67956110D01*
X66217764Y-68045521D01*
X66217767Y-68045523D01*
X66217770Y-68045526D01*
X66362407Y-68150612D01*
X66525733Y-68223329D01*
X66700609Y-68260500D01*
X66700610Y-68260500D01*
X66879389Y-68260500D01*
X66879391Y-68260500D01*
X67054267Y-68223329D01*
X67217593Y-68150612D01*
X67362230Y-68045526D01*
X67481859Y-67912665D01*
X67571250Y-67757835D01*
X67626497Y-67587803D01*
X67645185Y-67410000D01*
X67626497Y-67232197D01*
X67571250Y-67062165D01*
X67481859Y-66907335D01*
X67430783Y-66850610D01*
X67362235Y-66774478D01*
X67362232Y-66774476D01*
X67362231Y-66774475D01*
X67362230Y-66774474D01*
X67217593Y-66669388D01*
X67054267Y-66596671D01*
X67054265Y-66596670D01*
X66926594Y-66569533D01*
X66879391Y-66559500D01*
X66700609Y-66559500D01*
X66669954Y-66566015D01*
X66525733Y-66596670D01*
X66525728Y-66596672D01*
X66362408Y-66669387D01*
X66217768Y-66774475D01*
X66098140Y-66907336D01*
X66008750Y-67062164D01*
X66008747Y-67062170D01*
X65953504Y-67232192D01*
X65953503Y-67232194D01*
X65934815Y-67410000D01*
X55614038Y-67410000D01*
X55655108Y-67247821D01*
X55656403Y-67232192D01*
X55675643Y-67000005D01*
X55675643Y-66999994D01*
X55655109Y-66752187D01*
X55655107Y-66752175D01*
X55594063Y-66511118D01*
X55494173Y-66283393D01*
X55403757Y-66145000D01*
X73244815Y-66145000D01*
X73263503Y-66322805D01*
X73263504Y-66322807D01*
X73318747Y-66492829D01*
X73318750Y-66492835D01*
X73408141Y-66647665D01*
X73449812Y-66693946D01*
X73527764Y-66780521D01*
X73527767Y-66780523D01*
X73527770Y-66780526D01*
X73672407Y-66885612D01*
X73835733Y-66958329D01*
X74010609Y-66995500D01*
X74010610Y-66995500D01*
X74189389Y-66995500D01*
X74189391Y-66995500D01*
X74364267Y-66958329D01*
X74527593Y-66885612D01*
X74672230Y-66780526D01*
X74677678Y-66774476D01*
X74703749Y-66745521D01*
X74791859Y-66647665D01*
X74881250Y-66492835D01*
X74936497Y-66322803D01*
X74955185Y-66145000D01*
X74936497Y-65967197D01*
X74881250Y-65797165D01*
X74791859Y-65642335D01*
X74745003Y-65590296D01*
X74672705Y-65510000D01*
X76294815Y-65510000D01*
X76313503Y-65687805D01*
X76313504Y-65687807D01*
X76368747Y-65857829D01*
X76368750Y-65857835D01*
X76458141Y-66012665D01*
X76496461Y-66055223D01*
X76577764Y-66145521D01*
X76577767Y-66145523D01*
X76577770Y-66145526D01*
X76722407Y-66250612D01*
X76885733Y-66323329D01*
X77060609Y-66360500D01*
X77060610Y-66360500D01*
X77239389Y-66360500D01*
X77239391Y-66360500D01*
X77414267Y-66323329D01*
X77577593Y-66250612D01*
X77722230Y-66145526D01*
X77841859Y-66012665D01*
X77931250Y-65857835D01*
X77986497Y-65687803D01*
X78005185Y-65510000D01*
X77986497Y-65332197D01*
X77931250Y-65162165D01*
X77841859Y-65007335D01*
X77795003Y-64955296D01*
X77722235Y-64874478D01*
X77722232Y-64874476D01*
X77722231Y-64874475D01*
X77722230Y-64874474D01*
X77577593Y-64769388D01*
X77414267Y-64696671D01*
X77414265Y-64696670D01*
X77283370Y-64668848D01*
X77239391Y-64659500D01*
X77060609Y-64659500D01*
X77029954Y-64666015D01*
X76885733Y-64696670D01*
X76885728Y-64696672D01*
X76722408Y-64769387D01*
X76577768Y-64874475D01*
X76458140Y-65007336D01*
X76368750Y-65162164D01*
X76368747Y-65162170D01*
X76313504Y-65332192D01*
X76313503Y-65332194D01*
X76294815Y-65510000D01*
X74672705Y-65510000D01*
X74672235Y-65509478D01*
X74672232Y-65509476D01*
X74672231Y-65509475D01*
X74672230Y-65509474D01*
X74527593Y-65404388D01*
X74364267Y-65331671D01*
X74364265Y-65331670D01*
X74199609Y-65296672D01*
X74189391Y-65294500D01*
X74010609Y-65294500D01*
X74000391Y-65296672D01*
X73835733Y-65331670D01*
X73835728Y-65331672D01*
X73672408Y-65404387D01*
X73527768Y-65509475D01*
X73408140Y-65642336D01*
X73318750Y-65797164D01*
X73318747Y-65797170D01*
X73263504Y-65967192D01*
X73263503Y-65967194D01*
X73244815Y-66145000D01*
X55403757Y-66145000D01*
X55358166Y-66075217D01*
X55309416Y-66022261D01*
X55189744Y-65892262D01*
X54993509Y-65739526D01*
X54993507Y-65739525D01*
X54993506Y-65739524D01*
X54774811Y-65621172D01*
X54774802Y-65621169D01*
X54539616Y-65540429D01*
X54294335Y-65499500D01*
X54045665Y-65499500D01*
X53800383Y-65540429D01*
X53565197Y-65621169D01*
X53565188Y-65621172D01*
X53346493Y-65739524D01*
X53150257Y-65892261D01*
X52981833Y-66075217D01*
X52845826Y-66283393D01*
X52745936Y-66511118D01*
X52684892Y-66752175D01*
X52684890Y-66752187D01*
X52664357Y-66999994D01*
X51955643Y-66999994D01*
X51935109Y-66752187D01*
X51935107Y-66752175D01*
X51874063Y-66511118D01*
X51774173Y-66283393D01*
X51638166Y-66075217D01*
X51589416Y-66022261D01*
X51469744Y-65892262D01*
X51273509Y-65739526D01*
X51273507Y-65739525D01*
X51273506Y-65739524D01*
X51054811Y-65621172D01*
X51054802Y-65621169D01*
X50819616Y-65540429D01*
X50574335Y-65499500D01*
X50325665Y-65499500D01*
X50080383Y-65540429D01*
X49845197Y-65621169D01*
X49845188Y-65621172D01*
X49626493Y-65739524D01*
X49430257Y-65892261D01*
X49261833Y-66075217D01*
X49125826Y-66283393D01*
X49025936Y-66511118D01*
X48964892Y-66752175D01*
X48964890Y-66752187D01*
X48944357Y-66999994D01*
X48229188Y-66999994D01*
X48234063Y-66988881D01*
X48295108Y-66747821D01*
X48295298Y-66745526D01*
X48315643Y-66500005D01*
X48315643Y-66499994D01*
X48295109Y-66252187D01*
X48295107Y-66252175D01*
X48234063Y-66011118D01*
X48134173Y-65783393D01*
X47998166Y-65575217D01*
X47905425Y-65474474D01*
X47829744Y-65392262D01*
X47633509Y-65239526D01*
X47633507Y-65239525D01*
X47633506Y-65239524D01*
X47414811Y-65121172D01*
X47414802Y-65121169D01*
X47179616Y-65040429D01*
X46934335Y-64999500D01*
X46685665Y-64999500D01*
X46440383Y-65040429D01*
X46205197Y-65121169D01*
X46205188Y-65121172D01*
X45986493Y-65239524D01*
X45790257Y-65392261D01*
X45621833Y-65575217D01*
X45485826Y-65783393D01*
X45385936Y-66011118D01*
X45324892Y-66252175D01*
X45324890Y-66252187D01*
X45304357Y-66499994D01*
X41326910Y-66499994D01*
X41351250Y-66457835D01*
X41406497Y-66287803D01*
X41425185Y-66110000D01*
X41406497Y-65932197D01*
X41362622Y-65797164D01*
X41351252Y-65762170D01*
X41351249Y-65762164D01*
X41292539Y-65660475D01*
X41261859Y-65607335D01*
X41215003Y-65555296D01*
X41142235Y-65474478D01*
X41142232Y-65474476D01*
X41142231Y-65474475D01*
X41142230Y-65474474D01*
X40997593Y-65369388D01*
X40834267Y-65296671D01*
X40834265Y-65296670D01*
X40706594Y-65269533D01*
X40659391Y-65259500D01*
X40480609Y-65259500D01*
X40449954Y-65266015D01*
X40305733Y-65296670D01*
X40305728Y-65296672D01*
X40142408Y-65369387D01*
X39997768Y-65474475D01*
X39878140Y-65607336D01*
X39788750Y-65762164D01*
X39788747Y-65762170D01*
X39733504Y-65932192D01*
X39733503Y-65932194D01*
X39714815Y-66110000D01*
X35510512Y-66110000D01*
X35429744Y-66022262D01*
X35233509Y-65869526D01*
X35233507Y-65869525D01*
X35233506Y-65869524D01*
X35014811Y-65751172D01*
X35014802Y-65751169D01*
X34779616Y-65670429D01*
X34534335Y-65629500D01*
X34285665Y-65629500D01*
X34040383Y-65670429D01*
X33805197Y-65751169D01*
X33805188Y-65751172D01*
X33586493Y-65869524D01*
X33390257Y-66022261D01*
X33221833Y-66205217D01*
X33085826Y-66413393D01*
X32985936Y-66641118D01*
X32924892Y-66882175D01*
X32924890Y-66882187D01*
X32904357Y-67129994D01*
X30476751Y-67129994D01*
X30436873Y-66963889D01*
X30403026Y-66882175D01*
X30340466Y-66731140D01*
X30208839Y-66516346D01*
X30208838Y-66516343D01*
X30045224Y-66324776D01*
X30042914Y-66322803D01*
X29997819Y-66284289D01*
X29959627Y-66225784D01*
X29959128Y-66155916D01*
X29996482Y-66096870D01*
X29997756Y-66095764D01*
X30045224Y-66055224D01*
X30208836Y-65863659D01*
X30340466Y-65648859D01*
X30436873Y-65416111D01*
X30495683Y-65171148D01*
X30515449Y-64920000D01*
X30495683Y-64668852D01*
X30436873Y-64423889D01*
X30426975Y-64399994D01*
X63824357Y-64399994D01*
X63824357Y-64400005D01*
X63844890Y-64647812D01*
X63844892Y-64647824D01*
X63905936Y-64888881D01*
X64005826Y-65116606D01*
X64141833Y-65324782D01*
X64148656Y-65332194D01*
X64310256Y-65507738D01*
X64506491Y-65660474D01*
X64725190Y-65778828D01*
X64960386Y-65859571D01*
X65205665Y-65900500D01*
X65454335Y-65900500D01*
X65699614Y-65859571D01*
X65934810Y-65778828D01*
X66153509Y-65660474D01*
X66349744Y-65507738D01*
X66518164Y-65324785D01*
X66654173Y-65116607D01*
X66754063Y-64888881D01*
X66809491Y-64670000D01*
X68654815Y-64670000D01*
X68673503Y-64847805D01*
X68673504Y-64847807D01*
X68728747Y-65017829D01*
X68728750Y-65017835D01*
X68818141Y-65172665D01*
X68859812Y-65218946D01*
X68937764Y-65305521D01*
X68937767Y-65305523D01*
X68937770Y-65305526D01*
X69082407Y-65410612D01*
X69245733Y-65483329D01*
X69420609Y-65520500D01*
X69420610Y-65520500D01*
X69599389Y-65520500D01*
X69599391Y-65520500D01*
X69774267Y-65483329D01*
X69937593Y-65410612D01*
X70082230Y-65305526D01*
X70090203Y-65296672D01*
X70123672Y-65259500D01*
X70201859Y-65172665D01*
X70291250Y-65017835D01*
X70346497Y-64847803D01*
X70365185Y-64670000D01*
X70346497Y-64492197D01*
X70291250Y-64322165D01*
X70201859Y-64167335D01*
X70114645Y-64070474D01*
X70082235Y-64034478D01*
X70082232Y-64034476D01*
X70082231Y-64034475D01*
X70082230Y-64034474D01*
X69937593Y-63929388D01*
X69774267Y-63856671D01*
X69774265Y-63856670D01*
X69646594Y-63829533D01*
X69599391Y-63819500D01*
X69420609Y-63819500D01*
X69389954Y-63826015D01*
X69245733Y-63856670D01*
X69245728Y-63856672D01*
X69082408Y-63929387D01*
X68937768Y-64034475D01*
X68818140Y-64167336D01*
X68728750Y-64322164D01*
X68728747Y-64322170D01*
X68673504Y-64492192D01*
X68673503Y-64492194D01*
X68654815Y-64670000D01*
X66809491Y-64670000D01*
X66815108Y-64647821D01*
X66815109Y-64647812D01*
X66835643Y-64400005D01*
X66835643Y-64399994D01*
X66815109Y-64152187D01*
X66815107Y-64152175D01*
X66754063Y-63911118D01*
X66654173Y-63683393D01*
X66518166Y-63475217D01*
X66445799Y-63396606D01*
X66349744Y-63292262D01*
X66153509Y-63139526D01*
X66153507Y-63139525D01*
X66153506Y-63139524D01*
X65934811Y-63021172D01*
X65934802Y-63021169D01*
X65699616Y-62940429D01*
X65454335Y-62899500D01*
X65205665Y-62899500D01*
X64960383Y-62940429D01*
X64725197Y-63021169D01*
X64725188Y-63021172D01*
X64506493Y-63139524D01*
X64310257Y-63292261D01*
X64141833Y-63475217D01*
X64005826Y-63683393D01*
X63905936Y-63911118D01*
X63844892Y-64152175D01*
X63844890Y-64152187D01*
X63824357Y-64399994D01*
X30426975Y-64399994D01*
X30372953Y-64269571D01*
X30340466Y-64191140D01*
X30259217Y-64058555D01*
X30240972Y-63991110D01*
X30262088Y-63924507D01*
X30290633Y-63894498D01*
X30367190Y-63837186D01*
X30453350Y-63722093D01*
X30453354Y-63722086D01*
X30503596Y-63587379D01*
X30503598Y-63587372D01*
X30509999Y-63527844D01*
X30510000Y-63527827D01*
X30510000Y-62679994D01*
X32864357Y-62679994D01*
X32864357Y-62680005D01*
X32884890Y-62927812D01*
X32884892Y-62927824D01*
X32945936Y-63168881D01*
X33045826Y-63396606D01*
X33181833Y-63604782D01*
X33181836Y-63604785D01*
X33350256Y-63787738D01*
X33546491Y-63940474D01*
X33546493Y-63940475D01*
X33764685Y-64058555D01*
X33765190Y-64058828D01*
X34000386Y-64139571D01*
X34245665Y-64180500D01*
X34494335Y-64180500D01*
X34739614Y-64139571D01*
X34974810Y-64058828D01*
X35193509Y-63940474D01*
X35389744Y-63787738D01*
X35558164Y-63604785D01*
X35694173Y-63396607D01*
X35794063Y-63168881D01*
X35855108Y-62927821D01*
X35857455Y-62899500D01*
X35864872Y-62809994D01*
X45564357Y-62809994D01*
X45564357Y-62810005D01*
X45584890Y-63057812D01*
X45584892Y-63057824D01*
X45645936Y-63298881D01*
X45745826Y-63526606D01*
X45881833Y-63734782D01*
X45881836Y-63734785D01*
X46050256Y-63917738D01*
X46246491Y-64070474D01*
X46465190Y-64188828D01*
X46700386Y-64269571D01*
X46945665Y-64310500D01*
X47194335Y-64310500D01*
X47439614Y-64269571D01*
X47674810Y-64188828D01*
X47893509Y-64070474D01*
X48089744Y-63917738D01*
X48258164Y-63734785D01*
X48394173Y-63526607D01*
X48494063Y-63298881D01*
X48555108Y-63057821D01*
X48558145Y-63021169D01*
X48575643Y-62810005D01*
X48575643Y-62809994D01*
X48555109Y-62562187D01*
X48555107Y-62562175D01*
X48494063Y-62321118D01*
X48493573Y-62320000D01*
X54454815Y-62320000D01*
X54473503Y-62497805D01*
X54473504Y-62497807D01*
X54528747Y-62667829D01*
X54528750Y-62667835D01*
X54618141Y-62822665D01*
X54659812Y-62868946D01*
X54737764Y-62955521D01*
X54737767Y-62955523D01*
X54737770Y-62955526D01*
X54882407Y-63060612D01*
X55045733Y-63133329D01*
X55220609Y-63170500D01*
X55220610Y-63170500D01*
X55399389Y-63170500D01*
X55399391Y-63170500D01*
X55574267Y-63133329D01*
X55737593Y-63060612D01*
X55882230Y-62955526D01*
X55895824Y-62940429D01*
X55932676Y-62899500D01*
X56001859Y-62822665D01*
X56091250Y-62667835D01*
X56146497Y-62497803D01*
X56165185Y-62320000D01*
X56146497Y-62142197D01*
X56091250Y-61972165D01*
X56001859Y-61817335D01*
X55945926Y-61755215D01*
X55924349Y-61731251D01*
X78004815Y-61731251D01*
X78023503Y-61909056D01*
X78023504Y-61909058D01*
X78078747Y-62079080D01*
X78078750Y-62079086D01*
X78168141Y-62233916D01*
X78209812Y-62280197D01*
X78287764Y-62366772D01*
X78287767Y-62366774D01*
X78287770Y-62366777D01*
X78432407Y-62471863D01*
X78595733Y-62544580D01*
X78770609Y-62581751D01*
X78770610Y-62581751D01*
X78949389Y-62581751D01*
X78949391Y-62581751D01*
X79124267Y-62544580D01*
X79287593Y-62471863D01*
X79432230Y-62366777D01*
X79551859Y-62233916D01*
X79641250Y-62079086D01*
X79696497Y-61909054D01*
X79715185Y-61731251D01*
X79696497Y-61553448D01*
X79641250Y-61383416D01*
X79551859Y-61228586D01*
X79501467Y-61172620D01*
X79432235Y-61095729D01*
X79432232Y-61095727D01*
X79432231Y-61095726D01*
X79432230Y-61095725D01*
X79287593Y-60990639D01*
X79124267Y-60917922D01*
X79124265Y-60917921D01*
X78996594Y-60890784D01*
X78949391Y-60880751D01*
X78770609Y-60880751D01*
X78739954Y-60887266D01*
X78595733Y-60917921D01*
X78595728Y-60917923D01*
X78432408Y-60990638D01*
X78287768Y-61095726D01*
X78168140Y-61228587D01*
X78078750Y-61383415D01*
X78078747Y-61383421D01*
X78023504Y-61553443D01*
X78023503Y-61553445D01*
X78004815Y-61731251D01*
X55924349Y-61731251D01*
X55882235Y-61684478D01*
X55882232Y-61684476D01*
X55882231Y-61684475D01*
X55882230Y-61684474D01*
X55737593Y-61579388D01*
X55574267Y-61506671D01*
X55574265Y-61506670D01*
X55438463Y-61477805D01*
X55399391Y-61469500D01*
X55220609Y-61469500D01*
X55189954Y-61476015D01*
X55045733Y-61506670D01*
X55045728Y-61506672D01*
X54882408Y-61579387D01*
X54737768Y-61684475D01*
X54618140Y-61817336D01*
X54528750Y-61972164D01*
X54528747Y-61972170D01*
X54473504Y-62142192D01*
X54473503Y-62142194D01*
X54454815Y-62320000D01*
X48493573Y-62320000D01*
X48394173Y-62093393D01*
X48258166Y-61885217D01*
X48182171Y-61802665D01*
X48089744Y-61702262D01*
X47893509Y-61549526D01*
X47893507Y-61549525D01*
X47893506Y-61549524D01*
X47674811Y-61431172D01*
X47674802Y-61431169D01*
X47439616Y-61350429D01*
X47194335Y-61309500D01*
X46945665Y-61309500D01*
X46700383Y-61350429D01*
X46465197Y-61431169D01*
X46465188Y-61431172D01*
X46246493Y-61549524D01*
X46050257Y-61702261D01*
X45881833Y-61885217D01*
X45745826Y-62093393D01*
X45645936Y-62321118D01*
X45584892Y-62562175D01*
X45584890Y-62562187D01*
X45564357Y-62809994D01*
X35864872Y-62809994D01*
X35875643Y-62680005D01*
X35875643Y-62679994D01*
X35855109Y-62432187D01*
X35855107Y-62432175D01*
X35794063Y-62191118D01*
X35694173Y-61963393D01*
X35558166Y-61755217D01*
X35493042Y-61684474D01*
X35389744Y-61572262D01*
X35193509Y-61419526D01*
X35193507Y-61419525D01*
X35193506Y-61419524D01*
X34974811Y-61301172D01*
X34974802Y-61301169D01*
X34739616Y-61220429D01*
X34494335Y-61179500D01*
X34245665Y-61179500D01*
X34000383Y-61220429D01*
X33765197Y-61301169D01*
X33765188Y-61301172D01*
X33546493Y-61419524D01*
X33350257Y-61572261D01*
X33181833Y-61755217D01*
X33045826Y-61963393D01*
X32945936Y-62191118D01*
X32884892Y-62432175D01*
X32884890Y-62432187D01*
X32864357Y-62679994D01*
X30510000Y-62679994D01*
X30510000Y-62630000D01*
X29400748Y-62630000D01*
X29422518Y-62592292D01*
X29460000Y-62452409D01*
X29460000Y-62307591D01*
X29422518Y-62167708D01*
X29400748Y-62130000D01*
X30510000Y-62130000D01*
X30510000Y-61232172D01*
X30509999Y-61232155D01*
X30503598Y-61172627D01*
X30503596Y-61172620D01*
X30453354Y-61037913D01*
X30453350Y-61037906D01*
X30367190Y-60922812D01*
X30367187Y-60922809D01*
X30252093Y-60836649D01*
X30252086Y-60836645D01*
X30117379Y-60786403D01*
X30117372Y-60786401D01*
X30057844Y-60780000D01*
X29160000Y-60780000D01*
X29160000Y-61889252D01*
X29122292Y-61867482D01*
X28982409Y-61830000D01*
X28837591Y-61830000D01*
X28697708Y-61867482D01*
X28660000Y-61889252D01*
X28660000Y-60780000D01*
X27762155Y-60780000D01*
X27702627Y-60786401D01*
X27702620Y-60786403D01*
X27567913Y-60836645D01*
X27567906Y-60836649D01*
X27452812Y-60922809D01*
X27452809Y-60922812D01*
X27366649Y-61037906D01*
X27366645Y-61037913D01*
X27316403Y-61172620D01*
X27316401Y-61172627D01*
X27310000Y-61232155D01*
X27310000Y-62130000D01*
X28419252Y-62130000D01*
X28397482Y-62167708D01*
X28360000Y-62307591D01*
X28360000Y-62452409D01*
X28397482Y-62592292D01*
X28419252Y-62630000D01*
X27310000Y-62630000D01*
X27310000Y-63527844D01*
X27316401Y-63587372D01*
X27316403Y-63587379D01*
X27366645Y-63722086D01*
X27366649Y-63722093D01*
X27452809Y-63837187D01*
X27452812Y-63837190D01*
X27529366Y-63894499D01*
X27571237Y-63950433D01*
X27576221Y-64020124D01*
X27560783Y-64058555D01*
X27479531Y-64191145D01*
X27383126Y-64423889D01*
X27324317Y-64668848D01*
X27304551Y-64920000D01*
X27324317Y-65171151D01*
X27383126Y-65416110D01*
X27479533Y-65648859D01*
X27611160Y-65863653D01*
X27611161Y-65863656D01*
X27635592Y-65892261D01*
X27774776Y-66055224D01*
X27798185Y-66075217D01*
X27822179Y-66095710D01*
X27860372Y-66154217D01*
X27860870Y-66224085D01*
X27823516Y-66283131D01*
X27822179Y-66284290D01*
X27774776Y-66324776D01*
X27611161Y-66516343D01*
X27611160Y-66516346D01*
X27479533Y-66731140D01*
X27383126Y-66963889D01*
X27324317Y-67208848D01*
X27304551Y-67460000D01*
X27324317Y-67711151D01*
X27383126Y-67956110D01*
X27479533Y-68188859D01*
X27611160Y-68403653D01*
X27611161Y-68403656D01*
X27658917Y-68459571D01*
X27774776Y-68595224D01*
X27923066Y-68721875D01*
X27966343Y-68758838D01*
X27966346Y-68758839D01*
X28181141Y-68890466D01*
X28181144Y-68890468D01*
X28363883Y-68966160D01*
X28418287Y-69010001D01*
X28440352Y-69076295D01*
X28423073Y-69143994D01*
X28371936Y-69191605D01*
X28343092Y-69201821D01*
X28325857Y-69205615D01*
X27986744Y-69319876D01*
X27986739Y-69319877D01*
X27661990Y-69470123D01*
X27355370Y-69654609D01*
X27355367Y-69654611D01*
X27070486Y-69871170D01*
X27070485Y-69871171D01*
X27057257Y-69883702D01*
X27057256Y-69883703D01*
X28269301Y-71095748D01*
X28167670Y-71169588D01*
X27989588Y-71347670D01*
X27915748Y-71449301D01*
X26706442Y-70239995D01*
X26706441Y-70239996D01*
X26579033Y-70389992D01*
X26378218Y-70686172D01*
X26210606Y-71002322D01*
X26210597Y-71002340D01*
X26078149Y-71334760D01*
X26078147Y-71334767D01*
X25982421Y-71679542D01*
X25982415Y-71679568D01*
X25924527Y-72032668D01*
X25924526Y-72032685D01*
X25905153Y-72389997D01*
X25400005Y-72389997D01*
X25400000Y-72389218D01*
X25400000Y-60269994D01*
X42774357Y-60269994D01*
X42774357Y-60270005D01*
X42794890Y-60517812D01*
X42794892Y-60517824D01*
X42855936Y-60758881D01*
X42955826Y-60986606D01*
X43091833Y-61194782D01*
X43091836Y-61194785D01*
X43260256Y-61377738D01*
X43456491Y-61530474D01*
X43675190Y-61648828D01*
X43910386Y-61729571D01*
X44155665Y-61770500D01*
X44404335Y-61770500D01*
X44649614Y-61729571D01*
X44884810Y-61648828D01*
X45103509Y-61530474D01*
X45299744Y-61377738D01*
X45371307Y-61300000D01*
X48664815Y-61300000D01*
X48683503Y-61477805D01*
X48683504Y-61477807D01*
X48738747Y-61647829D01*
X48738750Y-61647835D01*
X48828141Y-61802665D01*
X48841351Y-61817336D01*
X48947764Y-61935521D01*
X48947767Y-61935523D01*
X48947770Y-61935526D01*
X49092407Y-62040612D01*
X49255733Y-62113329D01*
X49430609Y-62150500D01*
X49430610Y-62150500D01*
X49609389Y-62150500D01*
X49609391Y-62150500D01*
X49784267Y-62113329D01*
X49947593Y-62040612D01*
X50092230Y-61935526D01*
X50211859Y-61802665D01*
X50301250Y-61647835D01*
X50356497Y-61477803D01*
X50375185Y-61300000D01*
X50356497Y-61122197D01*
X50328873Y-61037181D01*
X50301252Y-60952170D01*
X50301249Y-60952164D01*
X50281480Y-60917923D01*
X50211859Y-60797335D01*
X50146914Y-60725206D01*
X59861013Y-60725206D01*
X59879701Y-60903011D01*
X59879702Y-60903013D01*
X59934945Y-61073035D01*
X59934948Y-61073041D01*
X60024339Y-61227871D01*
X60028212Y-61232172D01*
X60143962Y-61360727D01*
X60143965Y-61360729D01*
X60143968Y-61360732D01*
X60288605Y-61465818D01*
X60451931Y-61538535D01*
X60626807Y-61575706D01*
X60626808Y-61575706D01*
X60805587Y-61575706D01*
X60805589Y-61575706D01*
X60980465Y-61538535D01*
X61143791Y-61465818D01*
X61288428Y-61360732D01*
X61408057Y-61227871D01*
X61497448Y-61073041D01*
X61550392Y-60910094D01*
X61589828Y-60852421D01*
X61617878Y-60835139D01*
X61731264Y-60784657D01*
X61875901Y-60679571D01*
X61889495Y-60664474D01*
X61929926Y-60619570D01*
X61995530Y-60546710D01*
X62084921Y-60391880D01*
X62134573Y-60239066D01*
X62174008Y-60181394D01*
X62202060Y-60164111D01*
X62325323Y-60109232D01*
X62469960Y-60004146D01*
X62589589Y-59871285D01*
X62678980Y-59716455D01*
X62707550Y-59628522D01*
X62746985Y-59570850D01*
X62792250Y-59549128D01*
X62791856Y-59547914D01*
X62798036Y-59545905D01*
X62798035Y-59545905D01*
X62798041Y-59545904D01*
X62961367Y-59473187D01*
X63106004Y-59368101D01*
X63225633Y-59235240D01*
X63315024Y-59080410D01*
X63342825Y-58994845D01*
X63382262Y-58937171D01*
X63434971Y-58911875D01*
X63494767Y-58899166D01*
X63658093Y-58826449D01*
X63802730Y-58721363D01*
X63922359Y-58588502D01*
X64011750Y-58433672D01*
X64066997Y-58263640D01*
X64066997Y-58263638D01*
X64066998Y-58263636D01*
X64068350Y-58257278D01*
X64071319Y-58257909D01*
X64092713Y-58205495D01*
X64149898Y-58165350D01*
X64163872Y-58161513D01*
X64187442Y-58156504D01*
X64350768Y-58083787D01*
X64495405Y-57978701D01*
X64615034Y-57845840D01*
X64704425Y-57691010D01*
X64711254Y-57669994D01*
X66584357Y-57669994D01*
X66584357Y-57670005D01*
X66604890Y-57917812D01*
X66604892Y-57917824D01*
X66665936Y-58158881D01*
X66765826Y-58386606D01*
X66901833Y-58594782D01*
X66901836Y-58594785D01*
X67070256Y-58777738D01*
X67266491Y-58930474D01*
X67266493Y-58930475D01*
X67449467Y-59029496D01*
X67485190Y-59048828D01*
X67720386Y-59129571D01*
X67965665Y-59170500D01*
X68214335Y-59170500D01*
X68277295Y-59159994D01*
X71584357Y-59159994D01*
X71584357Y-59160005D01*
X71604890Y-59407812D01*
X71604892Y-59407824D01*
X71665936Y-59648881D01*
X71765826Y-59876606D01*
X71901833Y-60084782D01*
X71901836Y-60084785D01*
X72070256Y-60267738D01*
X72266491Y-60420474D01*
X72485190Y-60538828D01*
X72720386Y-60619571D01*
X72965665Y-60660500D01*
X73214335Y-60660500D01*
X73459614Y-60619571D01*
X73694810Y-60538828D01*
X73913509Y-60420474D01*
X74109744Y-60267738D01*
X74278164Y-60084785D01*
X74414173Y-59876607D01*
X74514063Y-59648881D01*
X74575108Y-59407821D01*
X74575109Y-59407812D01*
X74595643Y-59160005D01*
X74595643Y-59159994D01*
X74575109Y-58912187D01*
X74575107Y-58912175D01*
X74514063Y-58671118D01*
X74414173Y-58443393D01*
X74278166Y-58235217D01*
X74227558Y-58180242D01*
X74109744Y-58052262D01*
X73913509Y-57899526D01*
X73913507Y-57899525D01*
X73913506Y-57899524D01*
X73694811Y-57781172D01*
X73694802Y-57781169D01*
X73459616Y-57700429D01*
X73214335Y-57659500D01*
X72965665Y-57659500D01*
X72720383Y-57700429D01*
X72485197Y-57781169D01*
X72485188Y-57781172D01*
X72266493Y-57899524D01*
X72070257Y-58052261D01*
X71901833Y-58235217D01*
X71765826Y-58443393D01*
X71665936Y-58671118D01*
X71604892Y-58912175D01*
X71604890Y-58912187D01*
X71584357Y-59159994D01*
X68277295Y-59159994D01*
X68459614Y-59129571D01*
X68694810Y-59048828D01*
X68913509Y-58930474D01*
X69109744Y-58777738D01*
X69278164Y-58594785D01*
X69414173Y-58386607D01*
X69514063Y-58158881D01*
X69575108Y-57917821D01*
X69576043Y-57906536D01*
X69595643Y-57670005D01*
X69595643Y-57669994D01*
X69575109Y-57422187D01*
X69575107Y-57422175D01*
X69514063Y-57181118D01*
X69414173Y-56953393D01*
X69278166Y-56745217D01*
X69254556Y-56719570D01*
X69109744Y-56562262D01*
X68913509Y-56409526D01*
X68913507Y-56409525D01*
X68913506Y-56409524D01*
X68821994Y-56360000D01*
X69554815Y-56360000D01*
X69573503Y-56537805D01*
X69573504Y-56537807D01*
X69628747Y-56707829D01*
X69628750Y-56707835D01*
X69718141Y-56862665D01*
X69741746Y-56888881D01*
X69837764Y-56995521D01*
X69837767Y-56995523D01*
X69837770Y-56995526D01*
X69982407Y-57100612D01*
X70145733Y-57173329D01*
X70320609Y-57210500D01*
X70320610Y-57210500D01*
X70499389Y-57210500D01*
X70499391Y-57210500D01*
X70674267Y-57173329D01*
X70837593Y-57100612D01*
X70982230Y-56995526D01*
X70982398Y-56995340D01*
X71020167Y-56953393D01*
X71101859Y-56862665D01*
X71191250Y-56707835D01*
X71246497Y-56537803D01*
X71265185Y-56360000D01*
X71246497Y-56182197D01*
X71212603Y-56077881D01*
X71191252Y-56012170D01*
X71191249Y-56012164D01*
X71101859Y-55857335D01*
X71030237Y-55777791D01*
X70982235Y-55724478D01*
X70982232Y-55724476D01*
X70982231Y-55724475D01*
X70982230Y-55724474D01*
X70837593Y-55619388D01*
X70674267Y-55546671D01*
X70674265Y-55546670D01*
X70546594Y-55519533D01*
X70499391Y-55509500D01*
X70320609Y-55509500D01*
X70289954Y-55516015D01*
X70145733Y-55546670D01*
X70145728Y-55546672D01*
X69982408Y-55619387D01*
X69837768Y-55724475D01*
X69718140Y-55857336D01*
X69628750Y-56012164D01*
X69628747Y-56012170D01*
X69573504Y-56182192D01*
X69573503Y-56182194D01*
X69554815Y-56360000D01*
X68821994Y-56360000D01*
X68694811Y-56291172D01*
X68694802Y-56291169D01*
X68459616Y-56210429D01*
X68214335Y-56169500D01*
X67965665Y-56169500D01*
X67720383Y-56210429D01*
X67485197Y-56291169D01*
X67485188Y-56291172D01*
X67266493Y-56409524D01*
X67070257Y-56562261D01*
X66901833Y-56745217D01*
X66765826Y-56953393D01*
X66665936Y-57181118D01*
X66604892Y-57422175D01*
X66604890Y-57422187D01*
X66584357Y-57669994D01*
X64711254Y-57669994D01*
X64759672Y-57520978D01*
X64778360Y-57343175D01*
X64759672Y-57165372D01*
X64731411Y-57078394D01*
X64704427Y-56995345D01*
X64704424Y-56995339D01*
X64692305Y-56974348D01*
X64615034Y-56840510D01*
X64552987Y-56771600D01*
X64495410Y-56707653D01*
X64495407Y-56707651D01*
X64495406Y-56707650D01*
X64495405Y-56707649D01*
X64350768Y-56602563D01*
X64187442Y-56529846D01*
X64187440Y-56529845D01*
X64059769Y-56502708D01*
X64012566Y-56492675D01*
X63833784Y-56492675D01*
X63803129Y-56499190D01*
X63658908Y-56529845D01*
X63658903Y-56529847D01*
X63495583Y-56602562D01*
X63350943Y-56707650D01*
X63231315Y-56840511D01*
X63141925Y-56995339D01*
X63141922Y-56995345D01*
X63086679Y-57165367D01*
X63085328Y-57171726D01*
X63082448Y-57171113D01*
X63060641Y-57223916D01*
X63003290Y-57263824D01*
X62989792Y-57267500D01*
X62966231Y-57272508D01*
X62966228Y-57272509D01*
X62802908Y-57345224D01*
X62658268Y-57450312D01*
X62538640Y-57583173D01*
X62449253Y-57737997D01*
X62449248Y-57738005D01*
X62421448Y-57823565D01*
X62382010Y-57881240D01*
X62329299Y-57906536D01*
X62269506Y-57919246D01*
X62269502Y-57919247D01*
X62106182Y-57991962D01*
X61961542Y-58097050D01*
X61841914Y-58229911D01*
X61752524Y-58384739D01*
X61752522Y-58384743D01*
X61723952Y-58472672D01*
X61684513Y-58530347D01*
X61639247Y-58552075D01*
X61639640Y-58553284D01*
X61633458Y-58555292D01*
X61470138Y-58628007D01*
X61325498Y-58733095D01*
X61205870Y-58865956D01*
X61116480Y-59020784D01*
X61116478Y-59020788D01*
X61066828Y-59173596D01*
X61027390Y-59231271D01*
X60999333Y-59248556D01*
X60876079Y-59303432D01*
X60731439Y-59408520D01*
X60611811Y-59541381D01*
X60522421Y-59696209D01*
X60522419Y-59696213D01*
X60469476Y-59859155D01*
X60430038Y-59916830D01*
X60401981Y-59934115D01*
X60288606Y-59984593D01*
X60143966Y-60089681D01*
X60024338Y-60222542D01*
X59934948Y-60377370D01*
X59934945Y-60377376D01*
X59879702Y-60547398D01*
X59879701Y-60547400D01*
X59861013Y-60725206D01*
X50146914Y-60725206D01*
X50092235Y-60664478D01*
X50092232Y-60664476D01*
X50092231Y-60664475D01*
X50092230Y-60664474D01*
X49947593Y-60559388D01*
X49784267Y-60486671D01*
X49784265Y-60486670D01*
X49656594Y-60459533D01*
X49609391Y-60449500D01*
X49430609Y-60449500D01*
X49399954Y-60456015D01*
X49255733Y-60486670D01*
X49255728Y-60486672D01*
X49092408Y-60559387D01*
X48947768Y-60664475D01*
X48828140Y-60797336D01*
X48738750Y-60952164D01*
X48738747Y-60952170D01*
X48683504Y-61122192D01*
X48683503Y-61122194D01*
X48664815Y-61300000D01*
X45371307Y-61300000D01*
X45468164Y-61194785D01*
X45604173Y-60986607D01*
X45704063Y-60758881D01*
X45765108Y-60517821D01*
X45767689Y-60486671D01*
X45785643Y-60270005D01*
X45785643Y-60269994D01*
X45765109Y-60022187D01*
X45765107Y-60022175D01*
X45704063Y-59781118D01*
X45604173Y-59553393D01*
X45468166Y-59345217D01*
X45379183Y-59248556D01*
X45299744Y-59162262D01*
X45103509Y-59009526D01*
X45103507Y-59009525D01*
X45103506Y-59009524D01*
X44884811Y-58891172D01*
X44884802Y-58891169D01*
X44649616Y-58810429D01*
X44404335Y-58769500D01*
X44155665Y-58769500D01*
X43910383Y-58810429D01*
X43675197Y-58891169D01*
X43675188Y-58891172D01*
X43456493Y-59009524D01*
X43260257Y-59162261D01*
X43091833Y-59345217D01*
X42955826Y-59553393D01*
X42855936Y-59781118D01*
X42794892Y-60022175D01*
X42794890Y-60022187D01*
X42774357Y-60269994D01*
X25400000Y-60269994D01*
X25400000Y-58740000D01*
X26670138Y-58740000D01*
X27473012Y-58740000D01*
X27455795Y-58749940D01*
X27399940Y-58805795D01*
X27360444Y-58874204D01*
X27340000Y-58950504D01*
X27340000Y-59029496D01*
X27360444Y-59105796D01*
X27399940Y-59174205D01*
X27455795Y-59230060D01*
X27473012Y-59240000D01*
X26670138Y-59240000D01*
X26678430Y-59281690D01*
X26678430Y-59281692D01*
X26753807Y-59463671D01*
X26753814Y-59463684D01*
X26863248Y-59627462D01*
X26863251Y-59627466D01*
X27002533Y-59766748D01*
X27002537Y-59766751D01*
X27166315Y-59876185D01*
X27166328Y-59876192D01*
X27348306Y-59951569D01*
X27348318Y-59951572D01*
X27541504Y-59989999D01*
X27541508Y-59990000D01*
X27690000Y-59990000D01*
X27690000Y-59290000D01*
X28190000Y-59290000D01*
X28190000Y-59990000D01*
X28338492Y-59990000D01*
X28338495Y-59989999D01*
X28531681Y-59951572D01*
X28531693Y-59951569D01*
X28713671Y-59876192D01*
X28713684Y-59876185D01*
X28877462Y-59766751D01*
X28877466Y-59766748D01*
X29016748Y-59627466D01*
X29016751Y-59627462D01*
X29126185Y-59463684D01*
X29126192Y-59463671D01*
X29201569Y-59281692D01*
X29201569Y-59281690D01*
X29209862Y-59240000D01*
X28406988Y-59240000D01*
X28424205Y-59230060D01*
X28480060Y-59174205D01*
X28519556Y-59105796D01*
X28540000Y-59029496D01*
X28540000Y-58950504D01*
X28519556Y-58874204D01*
X28480060Y-58805795D01*
X28424205Y-58749940D01*
X28406988Y-58740000D01*
X29209862Y-58740000D01*
X30600138Y-58740000D01*
X31403012Y-58740000D01*
X31385795Y-58749940D01*
X31329940Y-58805795D01*
X31290444Y-58874204D01*
X31270000Y-58950504D01*
X31270000Y-59029496D01*
X31290444Y-59105796D01*
X31329940Y-59174205D01*
X31385795Y-59230060D01*
X31403012Y-59240000D01*
X30600138Y-59240000D01*
X30608430Y-59281690D01*
X30608430Y-59281692D01*
X30683807Y-59463671D01*
X30683814Y-59463684D01*
X30793248Y-59627462D01*
X30793251Y-59627466D01*
X30932533Y-59766748D01*
X30932537Y-59766751D01*
X31096315Y-59876185D01*
X31096328Y-59876192D01*
X31278306Y-59951569D01*
X31278318Y-59951572D01*
X31471504Y-59989999D01*
X31471508Y-59990000D01*
X31870000Y-59990000D01*
X31870000Y-59290000D01*
X32370000Y-59290000D01*
X32370000Y-59990000D01*
X32768492Y-59990000D01*
X32768495Y-59989999D01*
X32961681Y-59951572D01*
X32961693Y-59951569D01*
X33143671Y-59876192D01*
X33143684Y-59876185D01*
X33307462Y-59766751D01*
X33307466Y-59766748D01*
X33446748Y-59627466D01*
X33446751Y-59627462D01*
X33556185Y-59463684D01*
X33556192Y-59463671D01*
X33631569Y-59281692D01*
X33631569Y-59281690D01*
X33639862Y-59240000D01*
X32836988Y-59240000D01*
X32854205Y-59230060D01*
X32910060Y-59174205D01*
X32949556Y-59105796D01*
X32970000Y-59029496D01*
X32970000Y-58950504D01*
X32949556Y-58874204D01*
X32910060Y-58805795D01*
X32854205Y-58749940D01*
X32836988Y-58740000D01*
X33639862Y-58740000D01*
X33631569Y-58698309D01*
X33631569Y-58698307D01*
X33556192Y-58516328D01*
X33556185Y-58516315D01*
X33446751Y-58352537D01*
X33446748Y-58352533D01*
X33340132Y-58245917D01*
X58065443Y-58245917D01*
X58084131Y-58423722D01*
X58084132Y-58423724D01*
X58139375Y-58593746D01*
X58139378Y-58593751D01*
X58139378Y-58593752D01*
X58228769Y-58748582D01*
X58270440Y-58794863D01*
X58348392Y-58881438D01*
X58348395Y-58881440D01*
X58348398Y-58881443D01*
X58493035Y-58986529D01*
X58656361Y-59059246D01*
X58831237Y-59096417D01*
X58831238Y-59096417D01*
X59010017Y-59096417D01*
X59010019Y-59096417D01*
X59184895Y-59059246D01*
X59348221Y-58986529D01*
X59492858Y-58881443D01*
X59612487Y-58748582D01*
X59701878Y-58593752D01*
X59730447Y-58505821D01*
X59769883Y-58448147D01*
X59815148Y-58426426D01*
X59814754Y-58425212D01*
X59820934Y-58423203D01*
X59820933Y-58423203D01*
X59820939Y-58423202D01*
X59984265Y-58350485D01*
X60128902Y-58245399D01*
X60142849Y-58229910D01*
X60164832Y-58205495D01*
X60248531Y-58112538D01*
X60325802Y-57978701D01*
X60337920Y-57957712D01*
X60337920Y-57957710D01*
X60337922Y-57957708D01*
X60366492Y-57869775D01*
X60405927Y-57812103D01*
X60451192Y-57790381D01*
X60450798Y-57789167D01*
X60456978Y-57787158D01*
X60456977Y-57787158D01*
X60456983Y-57787157D01*
X60620309Y-57714440D01*
X60764946Y-57609354D01*
X60788521Y-57583172D01*
X60790864Y-57580569D01*
X60884575Y-57476493D01*
X60973966Y-57321663D01*
X61002535Y-57233732D01*
X61041971Y-57176058D01*
X61087236Y-57154337D01*
X61086842Y-57153123D01*
X61093022Y-57151114D01*
X61093021Y-57151114D01*
X61093027Y-57151113D01*
X61256353Y-57078396D01*
X61400990Y-56973310D01*
X61418924Y-56953393D01*
X61477010Y-56888881D01*
X61520619Y-56840449D01*
X61610010Y-56685619D01*
X61638579Y-56597688D01*
X61678015Y-56540014D01*
X61723280Y-56518293D01*
X61722886Y-56517079D01*
X61729066Y-56515070D01*
X61729065Y-56515070D01*
X61729071Y-56515069D01*
X61892397Y-56442352D01*
X62037034Y-56337266D01*
X62156663Y-56204405D01*
X62246054Y-56049575D01*
X62301301Y-55879543D01*
X62301301Y-55879535D01*
X62302651Y-55873190D01*
X62304614Y-55873607D01*
X62327584Y-55817776D01*
X62384881Y-55777791D01*
X62398542Y-55774061D01*
X62489385Y-55754752D01*
X62489385Y-55754751D01*
X62489389Y-55754751D01*
X62652715Y-55682034D01*
X62797352Y-55576948D01*
X62916981Y-55444087D01*
X63006372Y-55289257D01*
X63015880Y-55259994D01*
X72034357Y-55259994D01*
X72034357Y-55260005D01*
X72054890Y-55507812D01*
X72054892Y-55507824D01*
X72115936Y-55748881D01*
X72215826Y-55976606D01*
X72351833Y-56184782D01*
X72351836Y-56184785D01*
X72520256Y-56367738D01*
X72716491Y-56520474D01*
X72772181Y-56550612D01*
X72911478Y-56625996D01*
X72935190Y-56638828D01*
X73170386Y-56719571D01*
X73415665Y-56760500D01*
X73664335Y-56760500D01*
X73909614Y-56719571D01*
X74144810Y-56638828D01*
X74363509Y-56520474D01*
X74559744Y-56367738D01*
X74728164Y-56184785D01*
X74864173Y-55976607D01*
X74964063Y-55748881D01*
X75025108Y-55507821D01*
X75028891Y-55462165D01*
X75045643Y-55260005D01*
X75045643Y-55259994D01*
X75025109Y-55012187D01*
X75025107Y-55012175D01*
X74964063Y-54771118D01*
X74864173Y-54543393D01*
X74728166Y-54335217D01*
X74701174Y-54305896D01*
X74559744Y-54152262D01*
X74363509Y-53999526D01*
X74363507Y-53999525D01*
X74363506Y-53999524D01*
X74144811Y-53881172D01*
X74144802Y-53881169D01*
X73909616Y-53800429D01*
X73664335Y-53759500D01*
X73415665Y-53759500D01*
X73170383Y-53800429D01*
X72935197Y-53881169D01*
X72935188Y-53881172D01*
X72716493Y-53999524D01*
X72520257Y-54152261D01*
X72351833Y-54335217D01*
X72215826Y-54543393D01*
X72115936Y-54771118D01*
X72054892Y-55012175D01*
X72054890Y-55012187D01*
X72034357Y-55259994D01*
X63015880Y-55259994D01*
X63061619Y-55119225D01*
X63080307Y-54941422D01*
X63061619Y-54763619D01*
X63033995Y-54678603D01*
X63006374Y-54593592D01*
X63006371Y-54593586D01*
X62916981Y-54438757D01*
X62870125Y-54386718D01*
X62797357Y-54305900D01*
X62797354Y-54305898D01*
X62797353Y-54305897D01*
X62797352Y-54305896D01*
X62652715Y-54200810D01*
X62489389Y-54128093D01*
X62489387Y-54128092D01*
X62361716Y-54100955D01*
X62314513Y-54090922D01*
X62135731Y-54090922D01*
X62105076Y-54097437D01*
X61960855Y-54128092D01*
X61960850Y-54128094D01*
X61797530Y-54200809D01*
X61652890Y-54305897D01*
X61533262Y-54438758D01*
X61443872Y-54593586D01*
X61443869Y-54593592D01*
X61388625Y-54763617D01*
X61387275Y-54769972D01*
X61385317Y-54769555D01*
X61362317Y-54825414D01*
X61305008Y-54865382D01*
X61291385Y-54869100D01*
X61200536Y-54888411D01*
X61200532Y-54888412D01*
X61037212Y-54961127D01*
X60892572Y-55066215D01*
X60772944Y-55199076D01*
X60683554Y-55353904D01*
X60683550Y-55353914D01*
X60654981Y-55441837D01*
X60615543Y-55499512D01*
X60570277Y-55521239D01*
X60570670Y-55522448D01*
X60564488Y-55524456D01*
X60401168Y-55597171D01*
X60256528Y-55702259D01*
X60136900Y-55835120D01*
X60047510Y-55989948D01*
X60047506Y-55989958D01*
X60018937Y-56077881D01*
X59979499Y-56135556D01*
X59934233Y-56157283D01*
X59934626Y-56158492D01*
X59928444Y-56160500D01*
X59765124Y-56233215D01*
X59620484Y-56338303D01*
X59500856Y-56471164D01*
X59411466Y-56625992D01*
X59411464Y-56625996D01*
X59382894Y-56713925D01*
X59343455Y-56771600D01*
X59298189Y-56793328D01*
X59298582Y-56794537D01*
X59292400Y-56796545D01*
X59129080Y-56869260D01*
X58984440Y-56974348D01*
X58864812Y-57107209D01*
X58775422Y-57262037D01*
X58775418Y-57262047D01*
X58746849Y-57349970D01*
X58707411Y-57407645D01*
X58662145Y-57429372D01*
X58662538Y-57430581D01*
X58656356Y-57432589D01*
X58493036Y-57505304D01*
X58348396Y-57610392D01*
X58228768Y-57743253D01*
X58139378Y-57898081D01*
X58139375Y-57898087D01*
X58084132Y-58068109D01*
X58084131Y-58068111D01*
X58065443Y-58245917D01*
X33340132Y-58245917D01*
X33307466Y-58213251D01*
X33307462Y-58213248D01*
X33143684Y-58103814D01*
X33143671Y-58103807D01*
X32961693Y-58028430D01*
X32961681Y-58028427D01*
X32768495Y-57990000D01*
X32370000Y-57990000D01*
X32370000Y-58690000D01*
X31870000Y-58690000D01*
X31870000Y-57990000D01*
X31471504Y-57990000D01*
X31278318Y-58028427D01*
X31278306Y-58028430D01*
X31096328Y-58103807D01*
X31096315Y-58103814D01*
X30932537Y-58213248D01*
X30932533Y-58213251D01*
X30793251Y-58352533D01*
X30793248Y-58352537D01*
X30683814Y-58516315D01*
X30683807Y-58516328D01*
X30608430Y-58698307D01*
X30608430Y-58698309D01*
X30600138Y-58740000D01*
X29209862Y-58740000D01*
X29201569Y-58698309D01*
X29201569Y-58698307D01*
X29126192Y-58516328D01*
X29126185Y-58516315D01*
X29016751Y-58352537D01*
X29016748Y-58352533D01*
X28877466Y-58213251D01*
X28877462Y-58213248D01*
X28713684Y-58103814D01*
X28713671Y-58103807D01*
X28531693Y-58028430D01*
X28531681Y-58028427D01*
X28338495Y-57990000D01*
X28190000Y-57990000D01*
X28190000Y-58690000D01*
X27690000Y-58690000D01*
X27690000Y-57990000D01*
X27541504Y-57990000D01*
X27348318Y-58028427D01*
X27348306Y-58028430D01*
X27166328Y-58103807D01*
X27166315Y-58103814D01*
X27002537Y-58213248D01*
X27002533Y-58213251D01*
X26863251Y-58352533D01*
X26863248Y-58352537D01*
X26753814Y-58516315D01*
X26753807Y-58516328D01*
X26678430Y-58698307D01*
X26678430Y-58698309D01*
X26670138Y-58740000D01*
X25400000Y-58740000D01*
X25400000Y-55810000D01*
X53564815Y-55810000D01*
X53583503Y-55987805D01*
X53583504Y-55987807D01*
X53638747Y-56157829D01*
X53638750Y-56157835D01*
X53728141Y-56312665D01*
X53769812Y-56358946D01*
X53847764Y-56445521D01*
X53847767Y-56445523D01*
X53847770Y-56445526D01*
X53992407Y-56550612D01*
X54155733Y-56623329D01*
X54330609Y-56660500D01*
X54330610Y-56660500D01*
X54509389Y-56660500D01*
X54509391Y-56660500D01*
X54684267Y-56623329D01*
X54847593Y-56550612D01*
X54992230Y-56445526D01*
X55089481Y-56337518D01*
X55148965Y-56300871D01*
X55218822Y-56302200D01*
X55276870Y-56341086D01*
X55304680Y-56405183D01*
X55305205Y-56410251D01*
X55324890Y-56647812D01*
X55324892Y-56647824D01*
X55385936Y-56888881D01*
X55485826Y-57116606D01*
X55621833Y-57324782D01*
X55621836Y-57324785D01*
X55790256Y-57507738D01*
X55986491Y-57660474D01*
X56205190Y-57778828D01*
X56440386Y-57859571D01*
X56685665Y-57900500D01*
X56934335Y-57900500D01*
X57179614Y-57859571D01*
X57414810Y-57778828D01*
X57633509Y-57660474D01*
X57829744Y-57507738D01*
X57998164Y-57324785D01*
X58134173Y-57116607D01*
X58234063Y-56888881D01*
X58295108Y-56647821D01*
X58295853Y-56638828D01*
X58315643Y-56400005D01*
X58315643Y-56399994D01*
X58295109Y-56152187D01*
X58295107Y-56152175D01*
X58234063Y-55911118D01*
X58134173Y-55683393D01*
X57998166Y-55475217D01*
X57967437Y-55441837D01*
X57829744Y-55292262D01*
X57633509Y-55139526D01*
X57633507Y-55139525D01*
X57633506Y-55139524D01*
X57414811Y-55021172D01*
X57414802Y-55021169D01*
X57179616Y-54940429D01*
X56934335Y-54899500D01*
X56685665Y-54899500D01*
X56440383Y-54940429D01*
X56205197Y-55021169D01*
X56205188Y-55021172D01*
X55986493Y-55139524D01*
X55790257Y-55292261D01*
X55621836Y-55475215D01*
X55483599Y-55686802D01*
X55430452Y-55732158D01*
X55361221Y-55741582D01*
X55297885Y-55712080D01*
X55260554Y-55653019D01*
X55256754Y-55633412D01*
X55256497Y-55632205D01*
X55256497Y-55632197D01*
X55220837Y-55522448D01*
X55201252Y-55462170D01*
X55201249Y-55462164D01*
X55111859Y-55307335D01*
X55065003Y-55255296D01*
X54992235Y-55174478D01*
X54992232Y-55174476D01*
X54992231Y-55174475D01*
X54992230Y-55174474D01*
X54847593Y-55069388D01*
X54684267Y-54996671D01*
X54684265Y-54996670D01*
X54556594Y-54969533D01*
X54509391Y-54959500D01*
X54330609Y-54959500D01*
X54299954Y-54966015D01*
X54155733Y-54996670D01*
X54155728Y-54996672D01*
X53992408Y-55069387D01*
X53847768Y-55174475D01*
X53728140Y-55307336D01*
X53638750Y-55462164D01*
X53638747Y-55462170D01*
X53583504Y-55632192D01*
X53583503Y-55632194D01*
X53564815Y-55810000D01*
X25400000Y-55810000D01*
X25400000Y-51930000D01*
X51094815Y-51930000D01*
X51113503Y-52107805D01*
X51113504Y-52107807D01*
X51168747Y-52277829D01*
X51168750Y-52277835D01*
X51258141Y-52432665D01*
X51299812Y-52478946D01*
X51377764Y-52565521D01*
X51377767Y-52565523D01*
X51377770Y-52565526D01*
X51522407Y-52670612D01*
X51685733Y-52743329D01*
X51860609Y-52780500D01*
X51860610Y-52780500D01*
X52039389Y-52780500D01*
X52039391Y-52780500D01*
X52214267Y-52743329D01*
X52377593Y-52670612D01*
X52522230Y-52565526D01*
X52525228Y-52562197D01*
X52564612Y-52518456D01*
X52641859Y-52432665D01*
X52731250Y-52277835D01*
X52786497Y-52107803D01*
X52805185Y-51930000D01*
X52786497Y-51752197D01*
X52744458Y-51622817D01*
X52742464Y-51552977D01*
X52778544Y-51493144D01*
X52841245Y-51462316D01*
X52862390Y-51460500D01*
X53029389Y-51460500D01*
X53029391Y-51460500D01*
X53204267Y-51423329D01*
X53367593Y-51350612D01*
X53512230Y-51245526D01*
X53520635Y-51236192D01*
X53551268Y-51202170D01*
X53631859Y-51112665D01*
X53721250Y-50957835D01*
X53776497Y-50787803D01*
X53795185Y-50610000D01*
X53777317Y-50439994D01*
X56134357Y-50439994D01*
X56134357Y-50440005D01*
X56154890Y-50687812D01*
X56154892Y-50687824D01*
X56215936Y-50928881D01*
X56315826Y-51156606D01*
X56451833Y-51364782D01*
X56458656Y-51372194D01*
X56620256Y-51547738D01*
X56816491Y-51700474D01*
X56816493Y-51700475D01*
X56977864Y-51787805D01*
X57035190Y-51818828D01*
X57205670Y-51877354D01*
X57263010Y-51897039D01*
X57270386Y-51899571D01*
X57410342Y-51922925D01*
X57473227Y-51953375D01*
X57509667Y-52012990D01*
X57508092Y-52082842D01*
X57507865Y-52083549D01*
X57501713Y-52102482D01*
X57501712Y-52102485D01*
X57483024Y-52280291D01*
X57501712Y-52458096D01*
X57501713Y-52458098D01*
X57556956Y-52628120D01*
X57556959Y-52628126D01*
X57646350Y-52782956D01*
X57666629Y-52805478D01*
X57765973Y-52915812D01*
X57765976Y-52915814D01*
X57765979Y-52915817D01*
X57910616Y-53020903D01*
X58073942Y-53093620D01*
X58248818Y-53130791D01*
X58274439Y-53130791D01*
X58341478Y-53150476D01*
X58381826Y-53192791D01*
X58414973Y-53250202D01*
X58414972Y-53250202D01*
X58534597Y-53383060D01*
X58534600Y-53383062D01*
X58534603Y-53383065D01*
X58679240Y-53488151D01*
X58842566Y-53560868D01*
X59017442Y-53598039D01*
X59017443Y-53598039D01*
X59196222Y-53598039D01*
X59196224Y-53598039D01*
X59371100Y-53560868D01*
X59420327Y-53538950D01*
X59489573Y-53529665D01*
X59543647Y-53551913D01*
X59574595Y-53574398D01*
X59574597Y-53574400D01*
X59603929Y-53587459D01*
X59737924Y-53647117D01*
X59912800Y-53684288D01*
X59912801Y-53684288D01*
X60091580Y-53684288D01*
X60091582Y-53684288D01*
X60266458Y-53647117D01*
X60386795Y-53593539D01*
X60456043Y-53584255D01*
X60487658Y-53593537D01*
X60637332Y-53660176D01*
X60812208Y-53697347D01*
X60812209Y-53697347D01*
X60990988Y-53697347D01*
X60990990Y-53697347D01*
X61165866Y-53660176D01*
X61322531Y-53590424D01*
X61391778Y-53581141D01*
X61423398Y-53590425D01*
X61430392Y-53593539D01*
X61536626Y-53640837D01*
X61711502Y-53678008D01*
X61711503Y-53678008D01*
X61890282Y-53678008D01*
X61890284Y-53678008D01*
X62022051Y-53650000D01*
X63934815Y-53650000D01*
X63953503Y-53827805D01*
X63953504Y-53827807D01*
X64008747Y-53997829D01*
X64008750Y-53997835D01*
X64098141Y-54152665D01*
X64124205Y-54181612D01*
X64217764Y-54285521D01*
X64217767Y-54285523D01*
X64217770Y-54285526D01*
X64362407Y-54390612D01*
X64525733Y-54463329D01*
X64700609Y-54500500D01*
X64700610Y-54500500D01*
X64879389Y-54500500D01*
X64879391Y-54500500D01*
X65054267Y-54463329D01*
X65217593Y-54390612D01*
X65362230Y-54285526D01*
X65481859Y-54152665D01*
X65571250Y-53997835D01*
X65626497Y-53827803D01*
X65645185Y-53650000D01*
X65626497Y-53472197D01*
X65597535Y-53383062D01*
X65571252Y-53302170D01*
X65571249Y-53302164D01*
X65481859Y-53147335D01*
X65428279Y-53087829D01*
X65362235Y-53014478D01*
X65362232Y-53014476D01*
X65362231Y-53014475D01*
X65362230Y-53014474D01*
X65217593Y-52909388D01*
X65054267Y-52836671D01*
X65054265Y-52836670D01*
X64907515Y-52805478D01*
X64879391Y-52799500D01*
X64700609Y-52799500D01*
X64672504Y-52805474D01*
X64525733Y-52836670D01*
X64525728Y-52836672D01*
X64362408Y-52909387D01*
X64217768Y-53014475D01*
X64098140Y-53147336D01*
X64008750Y-53302164D01*
X64008747Y-53302170D01*
X63953504Y-53472192D01*
X63953503Y-53472194D01*
X63934815Y-53650000D01*
X62022051Y-53650000D01*
X62065160Y-53640837D01*
X62228486Y-53568120D01*
X62260463Y-53544886D01*
X62326268Y-53521406D01*
X62383784Y-53531924D01*
X62431861Y-53553329D01*
X62606737Y-53590500D01*
X62606738Y-53590500D01*
X62785517Y-53590500D01*
X62785519Y-53590500D01*
X62960395Y-53553329D01*
X63123721Y-53480612D01*
X63268358Y-53375526D01*
X63387987Y-53242665D01*
X63477378Y-53087835D01*
X63532625Y-52917803D01*
X63551313Y-52740000D01*
X63532625Y-52562197D01*
X63501148Y-52465320D01*
X63477380Y-52392170D01*
X63477377Y-52392164D01*
X63387987Y-52237335D01*
X63341131Y-52185296D01*
X63268363Y-52104478D01*
X63268360Y-52104476D01*
X63268359Y-52104475D01*
X63268358Y-52104474D01*
X63123721Y-51999388D01*
X62960395Y-51926671D01*
X62960393Y-51926670D01*
X62820987Y-51897039D01*
X62785519Y-51889500D01*
X62606737Y-51889500D01*
X62576082Y-51896015D01*
X62431861Y-51926670D01*
X62431856Y-51926672D01*
X62268536Y-51999388D01*
X62268533Y-51999389D01*
X62236554Y-52022623D01*
X62170747Y-52046101D01*
X62113238Y-52035584D01*
X62065158Y-52014178D01*
X61919829Y-51983288D01*
X61890284Y-51977008D01*
X61711502Y-51977008D01*
X61681957Y-51983288D01*
X61536626Y-52014178D01*
X61536625Y-52014178D01*
X61379962Y-52083929D01*
X61310712Y-52093213D01*
X61279092Y-52083929D01*
X61208871Y-52052665D01*
X61165866Y-52033518D01*
X61165864Y-52033517D01*
X61038193Y-52006380D01*
X60990990Y-51996347D01*
X60812208Y-51996347D01*
X60781553Y-52002862D01*
X60637332Y-52033517D01*
X60637331Y-52033517D01*
X60516996Y-52087094D01*
X60447746Y-52096378D01*
X60416127Y-52087094D01*
X60266459Y-52020459D01*
X60266456Y-52020458D01*
X60138785Y-51993321D01*
X60091582Y-51983288D01*
X59912800Y-51983288D01*
X59875630Y-51991188D01*
X59737925Y-52020458D01*
X59737920Y-52020460D01*
X59688696Y-52042376D01*
X59619446Y-52051660D01*
X59565377Y-52029414D01*
X59549908Y-52018175D01*
X59534424Y-52006925D01*
X59409032Y-51951098D01*
X59371100Y-51934210D01*
X59371098Y-51934209D01*
X59222692Y-51902665D01*
X59196224Y-51897039D01*
X59196223Y-51897039D01*
X59170603Y-51897039D01*
X59103564Y-51877354D01*
X59063216Y-51835039D01*
X59035946Y-51787807D01*
X59030068Y-51777626D01*
X58985209Y-51727805D01*
X58910444Y-51644769D01*
X58910435Y-51644762D01*
X58819351Y-51578584D01*
X58776685Y-51523254D01*
X58770707Y-51453641D01*
X58798090Y-51400000D01*
X64434815Y-51400000D01*
X64453503Y-51577805D01*
X64453504Y-51577807D01*
X64508747Y-51747829D01*
X64508750Y-51747835D01*
X64598141Y-51902665D01*
X64632208Y-51940500D01*
X64717764Y-52035521D01*
X64717767Y-52035523D01*
X64717770Y-52035526D01*
X64862407Y-52140612D01*
X65025733Y-52213329D01*
X65200609Y-52250500D01*
X65200610Y-52250500D01*
X65379389Y-52250500D01*
X65379391Y-52250500D01*
X65554267Y-52213329D01*
X65717593Y-52140612D01*
X65862230Y-52035526D01*
X65867734Y-52029414D01*
X65914920Y-51977008D01*
X65981859Y-51902665D01*
X66071250Y-51747835D01*
X66126497Y-51577803D01*
X66145185Y-51400000D01*
X66126497Y-51222197D01*
X66071250Y-51052165D01*
X65981859Y-50897335D01*
X65920806Y-50829529D01*
X65890576Y-50766538D01*
X65899201Y-50697202D01*
X65942542Y-50645217D01*
X65942335Y-50644932D01*
X65943463Y-50644112D01*
X65943943Y-50643537D01*
X65946121Y-50642181D01*
X65947591Y-50641112D01*
X65947593Y-50641112D01*
X66092230Y-50536026D01*
X66098557Y-50529000D01*
X66118148Y-50507241D01*
X66211859Y-50403165D01*
X66301250Y-50248335D01*
X66356497Y-50078303D01*
X66373135Y-49920000D01*
X66674815Y-49920000D01*
X66693503Y-50097805D01*
X66693504Y-50097807D01*
X66748747Y-50267829D01*
X66748750Y-50267835D01*
X66838141Y-50422665D01*
X66879812Y-50468946D01*
X66957764Y-50555521D01*
X66957767Y-50555523D01*
X66957770Y-50555526D01*
X67102407Y-50660612D01*
X67265733Y-50733329D01*
X67265735Y-50733329D01*
X67265736Y-50733330D01*
X67324357Y-50745789D01*
X67344508Y-50750073D01*
X67405990Y-50783265D01*
X67439767Y-50844428D01*
X67435115Y-50914142D01*
X67393511Y-50970275D01*
X67391619Y-50971677D01*
X67387771Y-50974472D01*
X67387770Y-50974473D01*
X67268140Y-51107336D01*
X67178750Y-51262164D01*
X67178747Y-51262170D01*
X67123504Y-51432192D01*
X67123503Y-51432194D01*
X67104815Y-51610000D01*
X67123503Y-51787805D01*
X67123504Y-51787807D01*
X67178747Y-51957829D01*
X67178750Y-51957835D01*
X67268141Y-52112665D01*
X67293303Y-52140610D01*
X67387764Y-52245521D01*
X67387767Y-52245523D01*
X67387770Y-52245526D01*
X67532404Y-52350610D01*
X67532407Y-52350612D01*
X67538267Y-52353221D01*
X67591504Y-52398471D01*
X67611825Y-52465320D01*
X67592780Y-52532544D01*
X67540413Y-52578799D01*
X67487831Y-52590500D01*
X67480609Y-52590500D01*
X67449954Y-52597015D01*
X67305733Y-52627670D01*
X67305728Y-52627672D01*
X67142408Y-52700387D01*
X66997768Y-52805475D01*
X66878140Y-52938336D01*
X66788750Y-53093164D01*
X66788747Y-53093170D01*
X66733504Y-53263192D01*
X66733503Y-53263194D01*
X66714815Y-53441000D01*
X66733503Y-53618805D01*
X66733504Y-53618807D01*
X66788747Y-53788829D01*
X66788750Y-53788835D01*
X66878141Y-53943665D01*
X66919812Y-53989946D01*
X66997764Y-54076521D01*
X66997767Y-54076523D01*
X66997770Y-54076526D01*
X67142407Y-54181612D01*
X67305733Y-54254329D01*
X67480609Y-54291500D01*
X67480610Y-54291500D01*
X67659389Y-54291500D01*
X67659391Y-54291500D01*
X67834267Y-54254329D01*
X67997593Y-54181612D01*
X68142230Y-54076526D01*
X68261859Y-53943665D01*
X68327156Y-53830567D01*
X69025004Y-53830567D01*
X69043692Y-54008372D01*
X69043693Y-54008374D01*
X69098936Y-54178396D01*
X69098939Y-54178402D01*
X69188330Y-54333232D01*
X69230001Y-54379513D01*
X69307953Y-54466088D01*
X69307956Y-54466090D01*
X69307959Y-54466093D01*
X69452596Y-54571179D01*
X69615922Y-54643896D01*
X69790798Y-54681067D01*
X69790799Y-54681067D01*
X69969578Y-54681067D01*
X69969580Y-54681067D01*
X70144456Y-54643896D01*
X70307782Y-54571179D01*
X70452419Y-54466093D01*
X70572048Y-54333232D01*
X70661439Y-54178402D01*
X70716686Y-54008370D01*
X70735374Y-53830567D01*
X70716686Y-53652764D01*
X70686827Y-53560868D01*
X70661441Y-53482737D01*
X70661438Y-53482731D01*
X70660215Y-53480612D01*
X70572048Y-53327902D01*
X70513787Y-53263197D01*
X70452424Y-53195045D01*
X70452421Y-53195043D01*
X70452420Y-53195042D01*
X70452419Y-53195041D01*
X70307782Y-53089955D01*
X70144456Y-53017238D01*
X70144454Y-53017237D01*
X70016783Y-52990100D01*
X69969580Y-52980067D01*
X69790798Y-52980067D01*
X69760143Y-52986582D01*
X69615922Y-53017237D01*
X69615917Y-53017239D01*
X69452597Y-53089954D01*
X69307957Y-53195042D01*
X69188329Y-53327903D01*
X69098939Y-53482731D01*
X69098936Y-53482737D01*
X69043693Y-53652759D01*
X69043692Y-53652761D01*
X69025004Y-53830567D01*
X68327156Y-53830567D01*
X68351250Y-53788835D01*
X68406497Y-53618803D01*
X68425185Y-53441000D01*
X68406497Y-53263197D01*
X68368851Y-53147335D01*
X68351252Y-53093170D01*
X68351249Y-53093164D01*
X68349397Y-53089956D01*
X68261859Y-52938335D01*
X68215003Y-52886296D01*
X68142235Y-52805478D01*
X68142232Y-52805476D01*
X68142231Y-52805475D01*
X68142230Y-52805474D01*
X67997593Y-52700388D01*
X67997592Y-52700387D01*
X67991733Y-52697779D01*
X67938496Y-52652529D01*
X67918175Y-52585680D01*
X67937220Y-52518456D01*
X67989587Y-52472201D01*
X68042169Y-52460500D01*
X68049389Y-52460500D01*
X68049391Y-52460500D01*
X68224267Y-52423329D01*
X68387593Y-52350612D01*
X68532230Y-52245526D01*
X68539605Y-52237336D01*
X68561220Y-52213329D01*
X68651859Y-52112665D01*
X68741250Y-51957835D01*
X68796497Y-51787803D01*
X68815185Y-51610000D01*
X68796497Y-51432197D01*
X68779374Y-51379500D01*
X69614815Y-51379500D01*
X69633503Y-51557305D01*
X69633504Y-51557307D01*
X69688747Y-51727329D01*
X69688750Y-51727335D01*
X69778141Y-51882165D01*
X69814842Y-51922925D01*
X69897764Y-52015021D01*
X69897767Y-52015023D01*
X69897770Y-52015026D01*
X70042407Y-52120112D01*
X70205733Y-52192829D01*
X70380609Y-52230000D01*
X70380610Y-52230000D01*
X70559389Y-52230000D01*
X70559391Y-52230000D01*
X70734267Y-52192829D01*
X70897593Y-52120112D01*
X71042230Y-52015026D01*
X71044064Y-52012990D01*
X71093725Y-51957835D01*
X71161859Y-51882165D01*
X71251250Y-51727335D01*
X71306497Y-51557303D01*
X71307265Y-51550000D01*
X72484815Y-51550000D01*
X72503503Y-51727805D01*
X72503504Y-51727807D01*
X72558747Y-51897829D01*
X72558750Y-51897835D01*
X72648141Y-52052665D01*
X72689812Y-52098946D01*
X72767764Y-52185521D01*
X72767767Y-52185523D01*
X72767770Y-52185526D01*
X72912407Y-52290612D01*
X73075733Y-52363329D01*
X73250609Y-52400500D01*
X73250610Y-52400500D01*
X73429389Y-52400500D01*
X73429391Y-52400500D01*
X73604267Y-52363329D01*
X73767593Y-52290612D01*
X73912230Y-52185526D01*
X74031859Y-52052665D01*
X74121250Y-51897835D01*
X74176497Y-51727803D01*
X74195185Y-51550000D01*
X74176497Y-51372197D01*
X74121250Y-51202165D01*
X74031859Y-51047335D01*
X73966258Y-50974478D01*
X73912235Y-50914478D01*
X73912232Y-50914476D01*
X73912231Y-50914475D01*
X73912230Y-50914474D01*
X73767593Y-50809388D01*
X73604267Y-50736671D01*
X73604265Y-50736670D01*
X73476594Y-50709533D01*
X73429391Y-50699500D01*
X73250609Y-50699500D01*
X73219954Y-50706015D01*
X73075733Y-50736670D01*
X73075728Y-50736672D01*
X72912408Y-50809387D01*
X72767768Y-50914475D01*
X72648140Y-51047336D01*
X72558750Y-51202164D01*
X72558747Y-51202170D01*
X72503504Y-51372192D01*
X72503503Y-51372194D01*
X72484815Y-51550000D01*
X71307265Y-51550000D01*
X71325185Y-51379500D01*
X71306497Y-51201697D01*
X71251250Y-51031665D01*
X71161859Y-50876835D01*
X71101130Y-50809389D01*
X71042235Y-50743978D01*
X71042232Y-50743976D01*
X71042231Y-50743975D01*
X71042230Y-50743974D01*
X70897593Y-50638888D01*
X70734267Y-50566171D01*
X70734265Y-50566170D01*
X70606594Y-50539033D01*
X70559391Y-50529000D01*
X70380609Y-50529000D01*
X70349954Y-50535515D01*
X70205733Y-50566170D01*
X70205728Y-50566172D01*
X70042408Y-50638887D01*
X69897768Y-50743975D01*
X69778140Y-50876836D01*
X69688750Y-51031664D01*
X69688747Y-51031670D01*
X69633504Y-51201692D01*
X69633503Y-51201694D01*
X69614815Y-51379500D01*
X68779374Y-51379500D01*
X68768873Y-51347181D01*
X68741252Y-51262170D01*
X68741249Y-51262164D01*
X68731643Y-51245526D01*
X68651859Y-51107335D01*
X68602183Y-51052164D01*
X68532235Y-50974478D01*
X68532232Y-50974476D01*
X68532231Y-50974475D01*
X68532230Y-50974474D01*
X68387593Y-50869388D01*
X68224267Y-50796671D01*
X68224265Y-50796670D01*
X68224264Y-50796670D01*
X68145490Y-50779926D01*
X68084008Y-50746733D01*
X68050232Y-50685570D01*
X68054884Y-50615856D01*
X68096489Y-50559724D01*
X68098339Y-50558352D01*
X68102230Y-50555526D01*
X68119793Y-50536021D01*
X68128148Y-50526741D01*
X68221859Y-50422665D01*
X68311250Y-50267835D01*
X68366497Y-50097803D01*
X68385185Y-49920000D01*
X68366497Y-49742197D01*
X68311250Y-49572165D01*
X68221859Y-49417335D01*
X68175003Y-49365296D01*
X68102235Y-49284478D01*
X68102232Y-49284476D01*
X68102231Y-49284475D01*
X68102230Y-49284474D01*
X67957593Y-49179388D01*
X67794267Y-49106671D01*
X67794265Y-49106670D01*
X67666594Y-49079533D01*
X67619391Y-49069500D01*
X67440609Y-49069500D01*
X67409954Y-49076015D01*
X67265733Y-49106670D01*
X67265728Y-49106672D01*
X67102408Y-49179387D01*
X66957768Y-49284475D01*
X66838140Y-49417336D01*
X66748750Y-49572164D01*
X66748747Y-49572170D01*
X66693504Y-49742192D01*
X66693503Y-49742194D01*
X66674815Y-49920000D01*
X66373135Y-49920000D01*
X66375185Y-49900500D01*
X66356497Y-49722697D01*
X66301250Y-49552665D01*
X66211859Y-49397835D01*
X66152816Y-49332261D01*
X66092235Y-49264978D01*
X66092232Y-49264976D01*
X66092231Y-49264975D01*
X66092230Y-49264974D01*
X65947593Y-49159888D01*
X65784267Y-49087171D01*
X65784265Y-49087170D01*
X65656594Y-49060033D01*
X65609391Y-49050000D01*
X65430609Y-49050000D01*
X65399954Y-49056515D01*
X65255733Y-49087170D01*
X65255728Y-49087172D01*
X65092408Y-49159887D01*
X64947768Y-49264975D01*
X64828140Y-49397836D01*
X64738750Y-49552664D01*
X64738747Y-49552670D01*
X64683504Y-49722692D01*
X64683503Y-49722694D01*
X64664815Y-49900500D01*
X64683503Y-50078305D01*
X64683504Y-50078307D01*
X64738747Y-50248329D01*
X64738750Y-50248335D01*
X64828140Y-50403164D01*
X64889193Y-50470971D01*
X64919423Y-50533963D01*
X64910797Y-50603298D01*
X64867458Y-50655282D01*
X64867666Y-50655568D01*
X64866534Y-50656390D01*
X64866056Y-50656964D01*
X64863877Y-50658320D01*
X64717768Y-50764475D01*
X64598140Y-50897336D01*
X64508750Y-51052164D01*
X64508747Y-51052170D01*
X64453504Y-51222192D01*
X64453503Y-51222194D01*
X64434815Y-51400000D01*
X58798090Y-51400000D01*
X58801009Y-51394283D01*
X58821344Y-51372194D01*
X58828164Y-51364785D01*
X58964173Y-51156607D01*
X59064063Y-50928881D01*
X59125108Y-50687821D01*
X59127665Y-50656964D01*
X59145643Y-50440005D01*
X59145643Y-50439994D01*
X59125109Y-50192187D01*
X59125107Y-50192175D01*
X59064063Y-49951118D01*
X58964173Y-49723393D01*
X58828166Y-49515217D01*
X58780846Y-49463814D01*
X58659744Y-49332262D01*
X58463509Y-49179526D01*
X58463507Y-49179525D01*
X58463506Y-49179524D01*
X58244811Y-49061172D01*
X58244802Y-49061169D01*
X58009616Y-48980429D01*
X57764335Y-48939500D01*
X57515665Y-48939500D01*
X57270383Y-48980429D01*
X57035197Y-49061169D01*
X57035188Y-49061172D01*
X56816493Y-49179524D01*
X56620257Y-49332261D01*
X56451833Y-49515217D01*
X56315826Y-49723393D01*
X56215936Y-49951118D01*
X56154892Y-50192175D01*
X56154890Y-50192187D01*
X56134357Y-50439994D01*
X53777317Y-50439994D01*
X53776497Y-50432197D01*
X53748873Y-50347181D01*
X53721252Y-50262170D01*
X53721249Y-50262164D01*
X53713265Y-50248335D01*
X53631859Y-50107335D01*
X53580234Y-50050000D01*
X53512235Y-49974478D01*
X53512232Y-49974476D01*
X53512231Y-49974475D01*
X53512230Y-49974474D01*
X53367593Y-49869388D01*
X53204267Y-49796671D01*
X53204265Y-49796670D01*
X53076594Y-49769533D01*
X53029391Y-49759500D01*
X52850609Y-49759500D01*
X52819954Y-49766015D01*
X52675733Y-49796670D01*
X52675728Y-49796672D01*
X52512408Y-49869387D01*
X52367768Y-49974475D01*
X52248140Y-50107336D01*
X52158750Y-50262164D01*
X52158747Y-50262170D01*
X52103504Y-50432192D01*
X52103503Y-50432194D01*
X52084815Y-50610000D01*
X52103503Y-50787805D01*
X52103504Y-50787807D01*
X52145541Y-50917182D01*
X52147536Y-50987023D01*
X52111456Y-51046856D01*
X52048755Y-51077684D01*
X52027610Y-51079500D01*
X51860609Y-51079500D01*
X51829954Y-51086015D01*
X51685733Y-51116670D01*
X51685728Y-51116672D01*
X51522408Y-51189387D01*
X51377768Y-51294475D01*
X51258140Y-51427336D01*
X51168750Y-51582164D01*
X51168747Y-51582170D01*
X51113504Y-51752192D01*
X51113503Y-51752194D01*
X51094815Y-51930000D01*
X25400000Y-51930000D01*
X25400000Y-50100000D01*
X26670138Y-50100000D01*
X27473012Y-50100000D01*
X27455795Y-50109940D01*
X27399940Y-50165795D01*
X27360444Y-50234204D01*
X27340000Y-50310504D01*
X27340000Y-50389496D01*
X27360444Y-50465796D01*
X27399940Y-50534205D01*
X27455795Y-50590060D01*
X27473012Y-50600000D01*
X26670138Y-50600000D01*
X26678430Y-50641690D01*
X26678430Y-50641692D01*
X26753807Y-50823671D01*
X26753814Y-50823684D01*
X26863248Y-50987462D01*
X26863251Y-50987466D01*
X27002533Y-51126748D01*
X27002537Y-51126751D01*
X27166315Y-51236185D01*
X27166328Y-51236192D01*
X27348306Y-51311569D01*
X27348318Y-51311572D01*
X27541504Y-51349999D01*
X27541508Y-51350000D01*
X27690000Y-51350000D01*
X27690000Y-50650000D01*
X28190000Y-50650000D01*
X28190000Y-51350000D01*
X28338492Y-51350000D01*
X28338495Y-51349999D01*
X28531681Y-51311572D01*
X28531693Y-51311569D01*
X28713671Y-51236192D01*
X28713684Y-51236185D01*
X28877462Y-51126751D01*
X28877466Y-51126748D01*
X29016748Y-50987466D01*
X29016751Y-50987462D01*
X29126185Y-50823684D01*
X29126192Y-50823671D01*
X29201569Y-50641692D01*
X29201569Y-50641690D01*
X29209862Y-50600000D01*
X28406988Y-50600000D01*
X28424205Y-50590060D01*
X28480060Y-50534205D01*
X28519556Y-50465796D01*
X28540000Y-50389496D01*
X28540000Y-50310504D01*
X28519556Y-50234204D01*
X28480060Y-50165795D01*
X28424205Y-50109940D01*
X28406988Y-50100000D01*
X29209862Y-50100000D01*
X30600138Y-50100000D01*
X31403012Y-50100000D01*
X31385795Y-50109940D01*
X31329940Y-50165795D01*
X31290444Y-50234204D01*
X31270000Y-50310504D01*
X31270000Y-50389496D01*
X31290444Y-50465796D01*
X31329940Y-50534205D01*
X31385795Y-50590060D01*
X31403012Y-50600000D01*
X30600138Y-50600000D01*
X30608430Y-50641690D01*
X30608430Y-50641692D01*
X30683807Y-50823671D01*
X30683814Y-50823684D01*
X30793248Y-50987462D01*
X30793251Y-50987466D01*
X30932533Y-51126748D01*
X30932537Y-51126751D01*
X31096315Y-51236185D01*
X31096328Y-51236192D01*
X31278306Y-51311569D01*
X31278318Y-51311572D01*
X31471504Y-51349999D01*
X31471508Y-51350000D01*
X31870000Y-51350000D01*
X31870000Y-50650000D01*
X32370000Y-50650000D01*
X32370000Y-51350000D01*
X32768492Y-51350000D01*
X32768495Y-51349999D01*
X32961681Y-51311572D01*
X32961693Y-51311569D01*
X33143671Y-51236192D01*
X33143684Y-51236185D01*
X33307462Y-51126751D01*
X33307466Y-51126748D01*
X33446748Y-50987466D01*
X33446751Y-50987462D01*
X33556185Y-50823684D01*
X33556192Y-50823671D01*
X33569781Y-50790863D01*
X45970628Y-50790863D01*
X45989316Y-50968668D01*
X45989317Y-50968670D01*
X46044560Y-51138692D01*
X46044563Y-51138698D01*
X46133954Y-51293528D01*
X46150201Y-51311572D01*
X46253577Y-51426384D01*
X46253580Y-51426386D01*
X46253583Y-51426389D01*
X46398220Y-51531475D01*
X46561546Y-51604192D01*
X46736422Y-51641363D01*
X46736423Y-51641363D01*
X46915202Y-51641363D01*
X46915204Y-51641363D01*
X47090080Y-51604192D01*
X47253406Y-51531475D01*
X47398043Y-51426389D01*
X47400799Y-51423329D01*
X47440262Y-51379500D01*
X47517672Y-51293528D01*
X47607063Y-51138698D01*
X47662310Y-50968666D01*
X47680998Y-50790863D01*
X47662310Y-50613060D01*
X47634686Y-50528044D01*
X47607065Y-50443033D01*
X47607062Y-50443027D01*
X47517672Y-50288198D01*
X47469055Y-50234204D01*
X47398048Y-50155341D01*
X47398045Y-50155339D01*
X47398044Y-50155338D01*
X47398043Y-50155337D01*
X47253406Y-50050251D01*
X47090080Y-49977534D01*
X47090078Y-49977533D01*
X46962407Y-49950396D01*
X46915204Y-49940363D01*
X46736422Y-49940363D01*
X46705767Y-49946878D01*
X46561546Y-49977533D01*
X46561541Y-49977535D01*
X46398221Y-50050250D01*
X46253581Y-50155338D01*
X46133953Y-50288199D01*
X46044563Y-50443027D01*
X46044560Y-50443033D01*
X45989317Y-50613055D01*
X45989316Y-50613057D01*
X45970628Y-50790863D01*
X33569781Y-50790863D01*
X33631569Y-50641692D01*
X33631569Y-50641690D01*
X33639862Y-50600000D01*
X32836988Y-50600000D01*
X32854205Y-50590060D01*
X32910060Y-50534205D01*
X32949556Y-50465796D01*
X32970000Y-50389496D01*
X32970000Y-50310504D01*
X32949556Y-50234204D01*
X32910060Y-50165795D01*
X32854205Y-50109940D01*
X32836988Y-50100000D01*
X33639862Y-50100000D01*
X33631569Y-50058309D01*
X33631569Y-50058307D01*
X33556192Y-49876328D01*
X33556185Y-49876315D01*
X33446751Y-49712537D01*
X33446748Y-49712533D01*
X33307466Y-49573251D01*
X33307462Y-49573248D01*
X33143684Y-49463814D01*
X33143671Y-49463807D01*
X32961693Y-49388430D01*
X32961681Y-49388427D01*
X32768495Y-49350000D01*
X32370000Y-49350000D01*
X32370000Y-50050000D01*
X31870000Y-50050000D01*
X31870000Y-49350000D01*
X31471504Y-49350000D01*
X31278318Y-49388427D01*
X31278306Y-49388430D01*
X31096328Y-49463807D01*
X31096315Y-49463814D01*
X30932537Y-49573248D01*
X30932533Y-49573251D01*
X30793251Y-49712533D01*
X30793248Y-49712537D01*
X30683814Y-49876315D01*
X30683807Y-49876328D01*
X30608430Y-50058307D01*
X30608430Y-50058309D01*
X30600138Y-50100000D01*
X29209862Y-50100000D01*
X29201569Y-50058309D01*
X29201569Y-50058307D01*
X29126192Y-49876328D01*
X29126185Y-49876315D01*
X29016751Y-49712537D01*
X29016748Y-49712533D01*
X28877466Y-49573251D01*
X28877462Y-49573248D01*
X28713684Y-49463814D01*
X28713671Y-49463807D01*
X28531693Y-49388430D01*
X28531681Y-49388427D01*
X28338495Y-49350000D01*
X28190000Y-49350000D01*
X28190000Y-50050000D01*
X27690000Y-50050000D01*
X27690000Y-49350000D01*
X27541504Y-49350000D01*
X27348318Y-49388427D01*
X27348306Y-49388430D01*
X27166328Y-49463807D01*
X27166315Y-49463814D01*
X27002537Y-49573248D01*
X27002533Y-49573251D01*
X26863251Y-49712533D01*
X26863248Y-49712537D01*
X26753814Y-49876315D01*
X26753807Y-49876328D01*
X26678430Y-50058307D01*
X26678430Y-50058309D01*
X26670138Y-50100000D01*
X25400000Y-50100000D01*
X25400000Y-48059994D01*
X28504357Y-48059994D01*
X28504357Y-48060005D01*
X28524890Y-48307812D01*
X28524892Y-48307824D01*
X28585936Y-48548881D01*
X28685826Y-48776606D01*
X28821833Y-48984782D01*
X28821836Y-48984785D01*
X28990256Y-49167738D01*
X29186491Y-49320474D01*
X29405190Y-49438828D01*
X29640386Y-49519571D01*
X29885665Y-49560500D01*
X30134335Y-49560500D01*
X30379614Y-49519571D01*
X30614810Y-49438828D01*
X30833509Y-49320474D01*
X31029744Y-49167738D01*
X31198164Y-48984785D01*
X31334173Y-48776607D01*
X31434063Y-48548881D01*
X31495108Y-48307821D01*
X31497784Y-48275526D01*
X31506528Y-48170000D01*
X45594815Y-48170000D01*
X45613503Y-48347805D01*
X45613504Y-48347807D01*
X45668747Y-48517829D01*
X45668750Y-48517835D01*
X45758141Y-48672665D01*
X45799812Y-48718946D01*
X45877764Y-48805521D01*
X45877767Y-48805523D01*
X45877770Y-48805526D01*
X46022407Y-48910612D01*
X46185733Y-48983329D01*
X46360609Y-49020500D01*
X46360610Y-49020500D01*
X46539389Y-49020500D01*
X46539391Y-49020500D01*
X46714267Y-48983329D01*
X46877593Y-48910612D01*
X47022230Y-48805526D01*
X47141859Y-48672665D01*
X47231250Y-48517835D01*
X47286497Y-48347803D01*
X47305185Y-48170000D01*
X47286497Y-47992197D01*
X47258231Y-47905205D01*
X47231252Y-47822170D01*
X47231249Y-47822164D01*
X47149171Y-47680000D01*
X48774815Y-47680000D01*
X48793503Y-47857805D01*
X48793504Y-47857807D01*
X48848747Y-48027829D01*
X48848750Y-48027835D01*
X48938141Y-48182665D01*
X48979812Y-48228946D01*
X49057764Y-48315521D01*
X49057767Y-48315523D01*
X49057770Y-48315526D01*
X49202407Y-48420612D01*
X49365733Y-48493329D01*
X49540609Y-48530500D01*
X49540610Y-48530500D01*
X49719389Y-48530500D01*
X49719391Y-48530500D01*
X49894267Y-48493329D01*
X50034346Y-48430961D01*
X50103595Y-48421677D01*
X50166872Y-48451305D01*
X50204085Y-48510440D01*
X50208102Y-48531278D01*
X50213901Y-48586447D01*
X50223503Y-48677803D01*
X50223504Y-48677805D01*
X50223504Y-48677807D01*
X50278747Y-48847829D01*
X50278750Y-48847835D01*
X50368141Y-49002665D01*
X50384200Y-49020500D01*
X50487764Y-49135521D01*
X50487767Y-49135523D01*
X50487770Y-49135526D01*
X50632407Y-49240612D01*
X50795733Y-49313329D01*
X50970609Y-49350500D01*
X50970610Y-49350500D01*
X51149389Y-49350500D01*
X51149391Y-49350500D01*
X51324267Y-49313329D01*
X51487593Y-49240612D01*
X51632230Y-49135526D01*
X51751859Y-49002665D01*
X51841250Y-48847835D01*
X51896497Y-48677803D01*
X51915185Y-48500000D01*
X51896497Y-48322197D01*
X51851160Y-48182665D01*
X51841252Y-48152170D01*
X51841249Y-48152164D01*
X51788041Y-48060005D01*
X51751859Y-47997335D01*
X51705003Y-47945296D01*
X51632235Y-47864478D01*
X51632232Y-47864476D01*
X51632231Y-47864475D01*
X51632230Y-47864474D01*
X51487593Y-47759388D01*
X51324267Y-47686671D01*
X51324265Y-47686670D01*
X51196594Y-47659533D01*
X51149391Y-47649500D01*
X50970609Y-47649500D01*
X50939954Y-47656015D01*
X50795733Y-47686670D01*
X50795728Y-47686672D01*
X50655654Y-47749038D01*
X50586404Y-47758323D01*
X50523127Y-47728695D01*
X50485914Y-47669560D01*
X50481897Y-47648721D01*
X50480980Y-47640000D01*
X53484815Y-47640000D01*
X53503503Y-47817805D01*
X53503504Y-47817807D01*
X53558747Y-47987829D01*
X53558750Y-47987835D01*
X53648141Y-48142665D01*
X53684157Y-48182665D01*
X53767764Y-48275521D01*
X53767767Y-48275523D01*
X53767770Y-48275526D01*
X53912407Y-48380612D01*
X54075733Y-48453329D01*
X54250609Y-48490500D01*
X54250610Y-48490500D01*
X54429389Y-48490500D01*
X54429391Y-48490500D01*
X54604267Y-48453329D01*
X54767593Y-48380612D01*
X54912230Y-48275526D01*
X54912890Y-48274794D01*
X54938148Y-48246741D01*
X55031859Y-48142665D01*
X55121250Y-47987835D01*
X55176497Y-47817803D01*
X55195185Y-47640000D01*
X55176497Y-47462197D01*
X55137895Y-47343393D01*
X55121252Y-47292170D01*
X55121249Y-47292164D01*
X55031859Y-47137335D01*
X54983232Y-47083329D01*
X54912235Y-47004478D01*
X54912232Y-47004476D01*
X54912231Y-47004475D01*
X54912230Y-47004474D01*
X54767593Y-46899388D01*
X54604267Y-46826671D01*
X54604265Y-46826670D01*
X54476550Y-46799524D01*
X54429391Y-46789500D01*
X54250609Y-46789500D01*
X54219954Y-46796015D01*
X54075733Y-46826670D01*
X54075728Y-46826672D01*
X53912408Y-46899387D01*
X53767768Y-47004475D01*
X53648140Y-47137336D01*
X53558750Y-47292164D01*
X53558747Y-47292170D01*
X53503504Y-47462192D01*
X53503503Y-47462194D01*
X53484815Y-47640000D01*
X50480980Y-47640000D01*
X50466497Y-47502197D01*
X50419212Y-47356670D01*
X50411252Y-47332170D01*
X50411249Y-47332164D01*
X50321859Y-47177335D01*
X50270684Y-47120500D01*
X50202235Y-47044478D01*
X50202232Y-47044476D01*
X50202231Y-47044475D01*
X50202230Y-47044474D01*
X50057593Y-46939388D01*
X49894267Y-46866671D01*
X49894265Y-46866670D01*
X49766594Y-46839533D01*
X49719391Y-46829500D01*
X49540609Y-46829500D01*
X49509954Y-46836015D01*
X49365733Y-46866670D01*
X49365728Y-46866672D01*
X49202408Y-46939387D01*
X49057768Y-47044475D01*
X48938140Y-47177336D01*
X48848750Y-47332164D01*
X48848747Y-47332170D01*
X48793504Y-47502192D01*
X48793503Y-47502194D01*
X48774815Y-47680000D01*
X47149171Y-47680000D01*
X47141859Y-47667335D01*
X47072652Y-47590473D01*
X47022235Y-47534478D01*
X47022232Y-47534476D01*
X47022231Y-47534475D01*
X47022230Y-47534474D01*
X46877593Y-47429388D01*
X46714267Y-47356671D01*
X46714265Y-47356670D01*
X46586594Y-47329533D01*
X46539391Y-47319500D01*
X46360609Y-47319500D01*
X46329954Y-47326015D01*
X46185733Y-47356670D01*
X46185728Y-47356672D01*
X46022408Y-47429387D01*
X45877768Y-47534475D01*
X45758140Y-47667336D01*
X45668750Y-47822164D01*
X45668747Y-47822170D01*
X45613504Y-47992192D01*
X45613503Y-47992194D01*
X45594815Y-48170000D01*
X31506528Y-48170000D01*
X31515643Y-48060005D01*
X31515643Y-48059994D01*
X31495109Y-47812187D01*
X31495107Y-47812175D01*
X31434063Y-47571118D01*
X31334173Y-47343393D01*
X31198166Y-47135217D01*
X31176557Y-47111744D01*
X31029744Y-46952262D01*
X30833509Y-46799526D01*
X30833507Y-46799525D01*
X30833506Y-46799524D01*
X30614811Y-46681172D01*
X30614802Y-46681169D01*
X30379616Y-46600429D01*
X30134335Y-46559500D01*
X29885665Y-46559500D01*
X29640383Y-46600429D01*
X29405197Y-46681169D01*
X29405188Y-46681172D01*
X29186493Y-46799524D01*
X28990257Y-46952261D01*
X28821833Y-47135217D01*
X28685826Y-47343393D01*
X28585936Y-47571118D01*
X28524892Y-47812175D01*
X28524890Y-47812187D01*
X28504357Y-48059994D01*
X25400000Y-48059994D01*
X25400000Y-39080000D01*
X27184551Y-39080000D01*
X27204317Y-39331151D01*
X27263126Y-39576110D01*
X27359531Y-39808854D01*
X27440783Y-39941445D01*
X27459027Y-40008891D01*
X27437910Y-40075494D01*
X27409366Y-40105501D01*
X27332812Y-40162809D01*
X27332809Y-40162812D01*
X27246649Y-40277906D01*
X27246645Y-40277913D01*
X27196403Y-40412620D01*
X27196401Y-40412627D01*
X27190000Y-40472155D01*
X27190000Y-41370000D01*
X28299252Y-41370000D01*
X28277482Y-41407708D01*
X28240000Y-41547591D01*
X28240000Y-41692409D01*
X28277482Y-41832292D01*
X28299252Y-41870000D01*
X27190000Y-41870000D01*
X27190000Y-42767844D01*
X27196401Y-42827372D01*
X27196403Y-42827379D01*
X27246645Y-42962086D01*
X27246649Y-42962093D01*
X27332809Y-43077187D01*
X27332812Y-43077190D01*
X27409366Y-43134499D01*
X27451237Y-43190433D01*
X27456221Y-43260124D01*
X27440783Y-43298555D01*
X27359531Y-43431145D01*
X27263126Y-43663889D01*
X27204317Y-43908848D01*
X27184551Y-44160000D01*
X27204317Y-44411151D01*
X27263126Y-44656110D01*
X27359533Y-44888859D01*
X27491160Y-45103653D01*
X27491161Y-45103656D01*
X27498016Y-45111682D01*
X27654776Y-45295224D01*
X27772209Y-45395521D01*
X27846343Y-45458838D01*
X27846346Y-45458839D01*
X28061140Y-45590466D01*
X28180727Y-45640000D01*
X28293889Y-45686873D01*
X28538852Y-45745683D01*
X28790000Y-45765449D01*
X29041148Y-45745683D01*
X29286111Y-45686873D01*
X29518859Y-45590466D01*
X29733659Y-45458836D01*
X29925224Y-45295224D01*
X30088836Y-45103659D01*
X30220466Y-44888859D01*
X30316873Y-44656111D01*
X30342348Y-44550000D01*
X35294659Y-44550000D01*
X35313975Y-44746129D01*
X35313976Y-44746132D01*
X35350192Y-44865521D01*
X35371188Y-44934733D01*
X35425609Y-45036547D01*
X35439851Y-45104950D01*
X35425609Y-45153453D01*
X35371188Y-45255266D01*
X35313975Y-45443870D01*
X35294659Y-45640000D01*
X35313975Y-45836129D01*
X35313976Y-45836132D01*
X35371186Y-46024727D01*
X35407248Y-46092194D01*
X35430955Y-46136548D01*
X35445196Y-46204950D01*
X35430955Y-46253452D01*
X35371187Y-46365271D01*
X35313975Y-46553870D01*
X35294659Y-46750000D01*
X35313975Y-46946129D01*
X35331674Y-47004474D01*
X35355594Y-47083329D01*
X35371188Y-47134733D01*
X35464086Y-47308532D01*
X35464090Y-47308539D01*
X35589116Y-47460883D01*
X35741460Y-47585909D01*
X35741467Y-47585913D01*
X35915266Y-47678811D01*
X35915269Y-47678811D01*
X35915273Y-47678814D01*
X36103868Y-47736024D01*
X36300000Y-47755341D01*
X36496132Y-47736024D01*
X36684727Y-47678814D01*
X36791547Y-47621716D01*
X36859949Y-47607475D01*
X36908451Y-47621716D01*
X37015273Y-47678814D01*
X37203868Y-47736024D01*
X37400000Y-47755341D01*
X37596132Y-47736024D01*
X37784727Y-47678814D01*
X37958538Y-47585910D01*
X38110883Y-47460883D01*
X38235910Y-47308538D01*
X38306040Y-47177335D01*
X38328811Y-47134733D01*
X38328811Y-47134732D01*
X38328814Y-47134727D01*
X38386024Y-46946132D01*
X38405341Y-46750000D01*
X38386024Y-46553868D01*
X38328814Y-46365273D01*
X38277889Y-46270000D01*
X66794815Y-46270000D01*
X66813503Y-46447805D01*
X66813504Y-46447807D01*
X66868747Y-46617829D01*
X66868750Y-46617835D01*
X66958141Y-46772665D01*
X66982325Y-46799524D01*
X67077764Y-46905521D01*
X67077767Y-46905523D01*
X67077770Y-46905526D01*
X67222407Y-47010612D01*
X67385733Y-47083329D01*
X67560609Y-47120500D01*
X67560610Y-47120500D01*
X67739389Y-47120500D01*
X67739391Y-47120500D01*
X67914267Y-47083329D01*
X68077593Y-47010612D01*
X68222230Y-46905526D01*
X68341859Y-46772665D01*
X68431250Y-46617835D01*
X68486497Y-46447803D01*
X68505185Y-46270000D01*
X68486497Y-46092197D01*
X68431250Y-45922165D01*
X68341859Y-45767335D01*
X68295003Y-45715296D01*
X68222235Y-45634478D01*
X68222232Y-45634476D01*
X68222231Y-45634475D01*
X68222230Y-45634474D01*
X68077593Y-45529388D01*
X67914267Y-45456671D01*
X67914265Y-45456670D01*
X67786594Y-45429533D01*
X67739391Y-45419500D01*
X67560609Y-45419500D01*
X67529954Y-45426015D01*
X67385733Y-45456670D01*
X67385728Y-45456672D01*
X67222408Y-45529387D01*
X67077768Y-45634475D01*
X66958140Y-45767336D01*
X66868750Y-45922164D01*
X66868747Y-45922170D01*
X66813504Y-46092192D01*
X66813503Y-46092194D01*
X66794815Y-46270000D01*
X38277889Y-46270000D01*
X38271716Y-46258452D01*
X38257475Y-46190051D01*
X38271716Y-46141548D01*
X38328814Y-46034727D01*
X38386024Y-45846132D01*
X38405341Y-45650000D01*
X38386024Y-45453868D01*
X38328814Y-45265273D01*
X38246716Y-45111679D01*
X38232475Y-45043279D01*
X38246718Y-44994773D01*
X38259633Y-44970612D01*
X38278814Y-44934727D01*
X38331817Y-44760000D01*
X50264815Y-44760000D01*
X50283503Y-44937805D01*
X50283504Y-44937807D01*
X50338747Y-45107829D01*
X50338750Y-45107835D01*
X50428141Y-45262665D01*
X50469812Y-45308946D01*
X50547764Y-45395521D01*
X50547767Y-45395523D01*
X50547770Y-45395526D01*
X50692407Y-45500612D01*
X50855733Y-45573329D01*
X51030609Y-45610500D01*
X51030610Y-45610500D01*
X51209389Y-45610500D01*
X51209391Y-45610500D01*
X51384267Y-45573329D01*
X51547593Y-45500612D01*
X51692230Y-45395526D01*
X51811859Y-45262665D01*
X51901250Y-45107835D01*
X51956497Y-44937803D01*
X51975185Y-44760000D01*
X51956497Y-44582197D01*
X51901250Y-44412165D01*
X51811859Y-44257335D01*
X51728966Y-44165273D01*
X51692235Y-44124478D01*
X51692232Y-44124476D01*
X51692231Y-44124475D01*
X51692230Y-44124474D01*
X51547593Y-44019388D01*
X51384267Y-43946671D01*
X51384265Y-43946670D01*
X51256594Y-43919533D01*
X51209391Y-43909500D01*
X51030609Y-43909500D01*
X50999954Y-43916015D01*
X50855733Y-43946670D01*
X50855728Y-43946672D01*
X50692408Y-44019387D01*
X50547768Y-44124475D01*
X50428140Y-44257336D01*
X50338750Y-44412164D01*
X50338747Y-44412170D01*
X50283504Y-44582192D01*
X50283503Y-44582194D01*
X50264815Y-44760000D01*
X38331817Y-44760000D01*
X38336024Y-44746132D01*
X38355341Y-44550000D01*
X38336024Y-44353868D01*
X38278814Y-44165273D01*
X38278811Y-44165269D01*
X38278811Y-44165266D01*
X38185913Y-43991467D01*
X38185909Y-43991460D01*
X38060883Y-43839116D01*
X37908539Y-43714090D01*
X37908532Y-43714086D01*
X37734733Y-43621188D01*
X37734727Y-43621186D01*
X37546132Y-43563976D01*
X37546129Y-43563975D01*
X37350000Y-43544659D01*
X37153870Y-43563975D01*
X37024462Y-43603231D01*
X36965273Y-43621186D01*
X36965272Y-43621186D01*
X36965267Y-43621188D01*
X36883453Y-43664919D01*
X36815050Y-43679161D01*
X36766547Y-43664919D01*
X36684732Y-43621188D01*
X36684729Y-43621187D01*
X36684727Y-43621186D01*
X36496132Y-43563976D01*
X36496129Y-43563975D01*
X36300000Y-43544659D01*
X36103870Y-43563975D01*
X35915266Y-43621188D01*
X35741467Y-43714086D01*
X35741460Y-43714090D01*
X35589116Y-43839116D01*
X35464090Y-43991460D01*
X35464086Y-43991467D01*
X35371188Y-44165266D01*
X35313975Y-44353870D01*
X35294659Y-44550000D01*
X30342348Y-44550000D01*
X30375683Y-44411148D01*
X30395449Y-44160000D01*
X30375683Y-43908852D01*
X30316873Y-43663889D01*
X30288121Y-43594476D01*
X30220466Y-43431140D01*
X30139217Y-43298555D01*
X30120972Y-43231110D01*
X30142088Y-43164507D01*
X30170633Y-43134498D01*
X30247190Y-43077186D01*
X30333350Y-42962093D01*
X30333354Y-42962086D01*
X30383596Y-42827379D01*
X30383598Y-42827372D01*
X30389999Y-42767844D01*
X30390000Y-42767827D01*
X30390000Y-41870000D01*
X29280748Y-41870000D01*
X29302518Y-41832292D01*
X29340000Y-41692409D01*
X29340000Y-41660000D01*
X31714815Y-41660000D01*
X31733503Y-41837805D01*
X31733504Y-41837807D01*
X31788747Y-42007829D01*
X31788750Y-42007835D01*
X31878141Y-42162665D01*
X31919812Y-42208946D01*
X31997764Y-42295521D01*
X31997767Y-42295523D01*
X31997770Y-42295526D01*
X32142407Y-42400612D01*
X32305733Y-42473329D01*
X32480609Y-42510500D01*
X32480610Y-42510500D01*
X32659389Y-42510500D01*
X32659391Y-42510500D01*
X32834267Y-42473329D01*
X32909137Y-42439995D01*
X53684357Y-42439995D01*
X53684357Y-42440006D01*
X53704890Y-42687813D01*
X53704892Y-42687825D01*
X53765936Y-42928882D01*
X53865826Y-43156607D01*
X54001833Y-43364783D01*
X54009700Y-43373329D01*
X54170256Y-43547739D01*
X54366491Y-43700475D01*
X54585190Y-43818829D01*
X54820386Y-43899572D01*
X55065665Y-43940501D01*
X55314335Y-43940501D01*
X55559614Y-43899572D01*
X55794810Y-43818829D01*
X56013509Y-43700475D01*
X56209744Y-43547739D01*
X56378164Y-43364786D01*
X56514173Y-43156608D01*
X56614063Y-42928882D01*
X56649233Y-42790000D01*
X58594815Y-42790000D01*
X58613503Y-42967805D01*
X58613504Y-42967807D01*
X58668747Y-43137829D01*
X58668750Y-43137835D01*
X58758141Y-43292665D01*
X58781702Y-43318832D01*
X58877764Y-43425521D01*
X58877767Y-43425523D01*
X58877770Y-43425526D01*
X59022407Y-43530612D01*
X59071045Y-43552267D01*
X59124281Y-43597514D01*
X59144603Y-43664363D01*
X59125559Y-43731587D01*
X59093495Y-43765863D01*
X58957768Y-43864475D01*
X58838140Y-43997336D01*
X58748750Y-44152164D01*
X58748747Y-44152170D01*
X58693504Y-44322192D01*
X58693503Y-44322194D01*
X58674815Y-44500000D01*
X58693503Y-44677805D01*
X58693504Y-44677807D01*
X58748747Y-44847829D01*
X58748750Y-44847835D01*
X58838141Y-45002665D01*
X58868649Y-45036547D01*
X58957764Y-45135521D01*
X58957767Y-45135523D01*
X58957770Y-45135526D01*
X59102407Y-45240612D01*
X59265733Y-45313329D01*
X59440609Y-45350500D01*
X59440610Y-45350500D01*
X59619389Y-45350500D01*
X59619391Y-45350500D01*
X59794267Y-45313329D01*
X59957593Y-45240612D01*
X60102230Y-45135526D01*
X60221859Y-45002665D01*
X60311250Y-44847835D01*
X60366497Y-44677803D01*
X60385185Y-44500000D01*
X60366497Y-44322197D01*
X60311250Y-44152165D01*
X60221859Y-43997335D01*
X60142772Y-43909500D01*
X60102235Y-43864478D01*
X60102232Y-43864476D01*
X60102231Y-43864475D01*
X60102230Y-43864474D01*
X59957593Y-43759388D01*
X59908954Y-43737733D01*
X59855718Y-43692483D01*
X59835397Y-43625634D01*
X59854442Y-43558410D01*
X59886502Y-43524139D01*
X60022230Y-43425526D01*
X60030204Y-43416671D01*
X60062000Y-43381356D01*
X60141859Y-43292665D01*
X60174099Y-43236822D01*
X60224665Y-43188608D01*
X60293272Y-43175384D01*
X60354371Y-43198505D01*
X60378919Y-43216341D01*
X60494901Y-43300608D01*
X60494902Y-43300609D01*
X60494904Y-43300610D01*
X60494907Y-43300612D01*
X60658233Y-43373329D01*
X60833109Y-43410500D01*
X60833110Y-43410500D01*
X61011889Y-43410500D01*
X61011891Y-43410500D01*
X61186767Y-43373329D01*
X61350093Y-43300612D01*
X61494730Y-43195526D01*
X61614359Y-43062665D01*
X61703750Y-42907835D01*
X61758997Y-42737803D01*
X61777685Y-42560000D01*
X61758997Y-42382197D01*
X61703750Y-42212165D01*
X61614359Y-42057335D01*
X61567503Y-42005296D01*
X61508706Y-41939994D01*
X62164357Y-41939994D01*
X62164357Y-41940005D01*
X62184890Y-42187812D01*
X62184892Y-42187824D01*
X62245936Y-42428881D01*
X62345826Y-42656606D01*
X62481833Y-42864782D01*
X62481836Y-42864785D01*
X62650256Y-43047738D01*
X62846491Y-43200474D01*
X62846493Y-43200475D01*
X63065188Y-43318827D01*
X63065200Y-43318832D01*
X63200910Y-43365421D01*
X63257926Y-43405806D01*
X63284057Y-43470606D01*
X63271006Y-43539245D01*
X63233538Y-43583017D01*
X63217769Y-43594474D01*
X63098140Y-43727336D01*
X63008750Y-43882164D01*
X63008747Y-43882170D01*
X62953504Y-44052192D01*
X62953503Y-44052194D01*
X62934815Y-44230000D01*
X62953503Y-44407805D01*
X62953504Y-44407807D01*
X63008747Y-44577829D01*
X63008750Y-44577835D01*
X63098141Y-44732665D01*
X63110267Y-44746132D01*
X63217764Y-44865521D01*
X63217767Y-44865523D01*
X63217770Y-44865526D01*
X63362407Y-44970612D01*
X63525733Y-45043329D01*
X63700609Y-45080500D01*
X63700610Y-45080500D01*
X63879389Y-45080500D01*
X63879391Y-45080500D01*
X64054267Y-45043329D01*
X64217593Y-44970612D01*
X64362230Y-44865526D01*
X64481859Y-44732665D01*
X64571250Y-44577835D01*
X64626497Y-44407803D01*
X64645185Y-44230000D01*
X64626497Y-44052197D01*
X64571250Y-43882165D01*
X64481859Y-43727335D01*
X64411776Y-43649500D01*
X64362235Y-43594478D01*
X64362232Y-43594476D01*
X64362231Y-43594475D01*
X64362230Y-43594474D01*
X64266711Y-43525075D01*
X64224048Y-43469747D01*
X64218069Y-43400133D01*
X64250675Y-43338339D01*
X64280580Y-43315705D01*
X64493509Y-43200474D01*
X64689744Y-43047738D01*
X64858164Y-42864785D01*
X64994173Y-42656607D01*
X65094063Y-42428881D01*
X65155108Y-42187821D01*
X65155109Y-42187812D01*
X65175643Y-41940005D01*
X65175643Y-41939994D01*
X65168186Y-41850000D01*
X73544815Y-41850000D01*
X73563503Y-42027805D01*
X73563504Y-42027807D01*
X73618747Y-42197829D01*
X73618750Y-42197835D01*
X73708141Y-42352665D01*
X73734729Y-42382194D01*
X73827764Y-42485521D01*
X73827767Y-42485523D01*
X73827770Y-42485526D01*
X73972407Y-42590612D01*
X74135733Y-42663329D01*
X74310609Y-42700500D01*
X74310610Y-42700500D01*
X74489389Y-42700500D01*
X74489391Y-42700500D01*
X74664267Y-42663329D01*
X74827593Y-42590612D01*
X74972230Y-42485526D01*
X74983213Y-42473329D01*
X75011268Y-42442170D01*
X75091859Y-42352665D01*
X75181250Y-42197835D01*
X75236497Y-42027803D01*
X75255185Y-41850000D01*
X75236497Y-41672197D01*
X75193742Y-41540610D01*
X75181252Y-41502170D01*
X75181249Y-41502164D01*
X75169721Y-41482197D01*
X75091859Y-41347335D01*
X75033294Y-41282292D01*
X74972235Y-41214478D01*
X74972232Y-41214476D01*
X74972231Y-41214475D01*
X74972230Y-41214474D01*
X74827593Y-41109388D01*
X74664267Y-41036671D01*
X74664265Y-41036670D01*
X74531488Y-41008448D01*
X74489391Y-40999500D01*
X74310609Y-40999500D01*
X74282339Y-41005509D01*
X74135733Y-41036670D01*
X74135728Y-41036672D01*
X73972408Y-41109387D01*
X73827768Y-41214475D01*
X73708140Y-41347336D01*
X73618750Y-41502164D01*
X73618747Y-41502170D01*
X73563504Y-41672192D01*
X73563503Y-41672194D01*
X73544815Y-41850000D01*
X65168186Y-41850000D01*
X65155109Y-41692187D01*
X65155107Y-41692175D01*
X65094063Y-41451118D01*
X64994173Y-41223393D01*
X64858166Y-41015217D01*
X64826141Y-40980429D01*
X64689744Y-40832262D01*
X64493509Y-40679526D01*
X64493507Y-40679525D01*
X64493506Y-40679524D01*
X64274811Y-40561172D01*
X64274802Y-40561169D01*
X64039616Y-40480429D01*
X63794335Y-40439500D01*
X63545665Y-40439500D01*
X63300383Y-40480429D01*
X63065197Y-40561169D01*
X63065188Y-40561172D01*
X62846493Y-40679524D01*
X62650257Y-40832261D01*
X62481833Y-41015217D01*
X62345826Y-41223393D01*
X62245936Y-41451118D01*
X62184892Y-41692175D01*
X62184890Y-41692187D01*
X62164357Y-41939994D01*
X61508706Y-41939994D01*
X61494735Y-41924478D01*
X61494732Y-41924476D01*
X61494731Y-41924475D01*
X61494730Y-41924474D01*
X61350093Y-41819388D01*
X61186767Y-41746671D01*
X61186765Y-41746670D01*
X61059094Y-41719533D01*
X61011891Y-41709500D01*
X60833109Y-41709500D01*
X60802454Y-41716015D01*
X60658233Y-41746670D01*
X60658228Y-41746672D01*
X60494908Y-41819387D01*
X60350268Y-41924475D01*
X60230640Y-42057336D01*
X60198401Y-42113176D01*
X60147834Y-42161391D01*
X60079227Y-42174615D01*
X60018128Y-42151494D01*
X59965388Y-42113176D01*
X59877593Y-42049388D01*
X59714267Y-41976671D01*
X59714265Y-41976670D01*
X59558228Y-41943504D01*
X59539391Y-41939500D01*
X59360609Y-41939500D01*
X59341772Y-41943504D01*
X59185733Y-41976670D01*
X59185728Y-41976672D01*
X59022408Y-42049387D01*
X58877768Y-42154475D01*
X58758140Y-42287336D01*
X58668750Y-42442164D01*
X58668747Y-42442170D01*
X58613504Y-42612192D01*
X58613503Y-42612194D01*
X58594815Y-42790000D01*
X56649233Y-42790000D01*
X56675108Y-42687822D01*
X56679640Y-42633127D01*
X56695643Y-42440006D01*
X56695643Y-42439995D01*
X56675109Y-42192188D01*
X56675108Y-42192185D01*
X56675108Y-42192180D01*
X56629815Y-42013323D01*
X56632440Y-41943504D01*
X56672396Y-41886187D01*
X56724241Y-41861594D01*
X56729388Y-41860500D01*
X56729391Y-41860500D01*
X56871173Y-41830363D01*
X56904263Y-41823330D01*
X56904263Y-41823329D01*
X56904267Y-41823329D01*
X57067593Y-41750612D01*
X57212230Y-41645526D01*
X57331859Y-41512665D01*
X57421250Y-41357835D01*
X57476497Y-41187803D01*
X57495185Y-41010000D01*
X57476497Y-40832197D01*
X57429586Y-40687821D01*
X57421252Y-40662170D01*
X57421249Y-40662164D01*
X57331859Y-40507335D01*
X57270780Y-40439500D01*
X57212235Y-40374478D01*
X57212232Y-40374476D01*
X57212231Y-40374475D01*
X57212230Y-40374474D01*
X57067593Y-40269388D01*
X56904267Y-40196671D01*
X56904265Y-40196670D01*
X56776594Y-40169533D01*
X56729391Y-40159500D01*
X56550609Y-40159500D01*
X56519954Y-40166015D01*
X56375733Y-40196670D01*
X56375728Y-40196672D01*
X56212408Y-40269387D01*
X56067768Y-40374475D01*
X55948140Y-40507336D01*
X55858750Y-40662164D01*
X55858747Y-40662170D01*
X55803504Y-40832192D01*
X55803503Y-40832195D01*
X55796252Y-40901189D01*
X55769667Y-40965804D01*
X55712369Y-41005788D01*
X55642550Y-41008448D01*
X55632669Y-41005509D01*
X55559613Y-40980429D01*
X55314335Y-40939501D01*
X55065665Y-40939501D01*
X54820383Y-40980430D01*
X54585197Y-41061170D01*
X54585188Y-41061173D01*
X54366493Y-41179525D01*
X54170257Y-41332262D01*
X54001833Y-41515218D01*
X53865826Y-41723394D01*
X53765936Y-41951119D01*
X53704892Y-42192176D01*
X53704890Y-42192188D01*
X53684357Y-42439995D01*
X32909137Y-42439995D01*
X32997593Y-42400612D01*
X33142230Y-42295526D01*
X33149605Y-42287336D01*
X33168148Y-42266741D01*
X33261859Y-42162665D01*
X33351250Y-42007835D01*
X33406497Y-41837803D01*
X33425185Y-41660000D01*
X33406497Y-41482197D01*
X33368347Y-41364785D01*
X33351252Y-41312170D01*
X33351249Y-41312164D01*
X33345764Y-41302663D01*
X33261859Y-41157335D01*
X33215003Y-41105296D01*
X33142235Y-41024478D01*
X33142232Y-41024476D01*
X33142231Y-41024475D01*
X33142230Y-41024474D01*
X32997593Y-40919388D01*
X32834267Y-40846671D01*
X32834265Y-40846670D01*
X32706594Y-40819533D01*
X32659391Y-40809500D01*
X32480609Y-40809500D01*
X32449954Y-40816015D01*
X32305733Y-40846670D01*
X32305728Y-40846672D01*
X32142408Y-40919387D01*
X31997768Y-41024475D01*
X31878140Y-41157336D01*
X31788750Y-41312164D01*
X31788747Y-41312170D01*
X31733504Y-41482192D01*
X31733503Y-41482194D01*
X31714815Y-41660000D01*
X29340000Y-41660000D01*
X29340000Y-41547591D01*
X29302518Y-41407708D01*
X29280748Y-41370000D01*
X30390000Y-41370000D01*
X30390000Y-40800000D01*
X34354815Y-40800000D01*
X34373503Y-40977805D01*
X34373504Y-40977807D01*
X34428747Y-41147829D01*
X34428750Y-41147835D01*
X34518141Y-41302665D01*
X34558362Y-41347335D01*
X34637764Y-41435521D01*
X34637767Y-41435523D01*
X34637770Y-41435526D01*
X34782407Y-41540612D01*
X34945733Y-41613329D01*
X35120609Y-41650500D01*
X35120610Y-41650500D01*
X35299389Y-41650500D01*
X35299391Y-41650500D01*
X35474267Y-41613329D01*
X35637593Y-41540612D01*
X35782230Y-41435526D01*
X35901859Y-41302665D01*
X35991250Y-41147835D01*
X36046497Y-40977803D01*
X36065185Y-40800000D01*
X36046497Y-40622197D01*
X35991250Y-40452165D01*
X35984223Y-40439994D01*
X40654357Y-40439994D01*
X40654357Y-40440005D01*
X40674890Y-40687812D01*
X40674892Y-40687824D01*
X40735936Y-40928881D01*
X40835826Y-41156606D01*
X40971833Y-41364782D01*
X40971836Y-41364785D01*
X41140256Y-41547738D01*
X41336491Y-41700474D01*
X41555190Y-41818828D01*
X41790386Y-41899571D01*
X42035665Y-41940500D01*
X42284335Y-41940500D01*
X42529614Y-41899571D01*
X42764810Y-41818828D01*
X42983509Y-41700474D01*
X43179744Y-41547738D01*
X43348164Y-41364785D01*
X43484173Y-41156607D01*
X43584063Y-40928881D01*
X43645108Y-40687821D01*
X43645305Y-40685449D01*
X43665643Y-40440005D01*
X43665643Y-40439994D01*
X43645109Y-40192187D01*
X43645107Y-40192175D01*
X43584063Y-39951118D01*
X43484173Y-39723393D01*
X43348166Y-39515217D01*
X43326557Y-39491744D01*
X43179744Y-39332262D01*
X42983509Y-39179526D01*
X42983507Y-39179525D01*
X42983506Y-39179524D01*
X42764811Y-39061172D01*
X42764802Y-39061169D01*
X42529616Y-38980429D01*
X42284335Y-38939500D01*
X42035665Y-38939500D01*
X41790383Y-38980429D01*
X41555197Y-39061169D01*
X41555188Y-39061172D01*
X41336493Y-39179524D01*
X41140257Y-39332261D01*
X40971833Y-39515217D01*
X40835826Y-39723393D01*
X40735936Y-39951118D01*
X40674892Y-40192175D01*
X40674890Y-40192187D01*
X40654357Y-40439994D01*
X35984223Y-40439994D01*
X35901859Y-40297335D01*
X35827926Y-40215224D01*
X35782235Y-40164478D01*
X35782232Y-40164476D01*
X35782231Y-40164475D01*
X35782230Y-40164474D01*
X35637593Y-40059388D01*
X35474267Y-39986671D01*
X35474265Y-39986670D01*
X35346594Y-39959533D01*
X35299391Y-39949500D01*
X35120609Y-39949500D01*
X35089954Y-39956015D01*
X34945733Y-39986670D01*
X34945728Y-39986672D01*
X34782408Y-40059387D01*
X34637768Y-40164475D01*
X34518140Y-40297336D01*
X34428750Y-40452164D01*
X34428747Y-40452170D01*
X34373504Y-40622192D01*
X34373503Y-40622194D01*
X34354815Y-40800000D01*
X30390000Y-40800000D01*
X30390000Y-40472172D01*
X30389999Y-40472155D01*
X30383598Y-40412627D01*
X30383596Y-40412620D01*
X30333354Y-40277913D01*
X30333350Y-40277906D01*
X30247190Y-40162813D01*
X30170633Y-40105502D01*
X30128762Y-40049568D01*
X30123778Y-39979876D01*
X30139217Y-39941445D01*
X30220466Y-39808859D01*
X30255867Y-39723393D01*
X30316873Y-39576111D01*
X30375683Y-39331148D01*
X30395449Y-39080000D01*
X30375683Y-38828852D01*
X30316873Y-38583889D01*
X30289500Y-38517805D01*
X30220466Y-38351140D01*
X30139217Y-38218555D01*
X30120972Y-38151110D01*
X30142088Y-38084507D01*
X30170633Y-38054498D01*
X30247190Y-37997186D01*
X30333350Y-37882093D01*
X30333354Y-37882086D01*
X30383596Y-37747379D01*
X30383598Y-37747372D01*
X30389999Y-37687844D01*
X30390000Y-37687827D01*
X30390000Y-36959994D01*
X48244357Y-36959994D01*
X48244357Y-36960005D01*
X48264890Y-37207812D01*
X48264892Y-37207824D01*
X48325936Y-37448881D01*
X48425826Y-37676606D01*
X48561833Y-37884782D01*
X48561836Y-37884785D01*
X48730256Y-38067738D01*
X48926491Y-38220474D01*
X49145190Y-38338828D01*
X49380386Y-38419571D01*
X49625665Y-38460500D01*
X49874335Y-38460500D01*
X50119614Y-38419571D01*
X50354810Y-38338828D01*
X50463515Y-38280000D01*
X51434815Y-38280000D01*
X51453503Y-38457805D01*
X51453504Y-38457807D01*
X51508747Y-38627829D01*
X51508750Y-38627835D01*
X51598141Y-38782665D01*
X51638362Y-38827335D01*
X51717764Y-38915521D01*
X51717767Y-38915523D01*
X51717770Y-38915526D01*
X51862407Y-39020612D01*
X52025733Y-39093329D01*
X52200609Y-39130500D01*
X52200610Y-39130500D01*
X52379389Y-39130500D01*
X52379391Y-39130500D01*
X52554267Y-39093329D01*
X52717593Y-39020612D01*
X52862230Y-38915526D01*
X52981859Y-38782665D01*
X53071250Y-38627835D01*
X53119285Y-38480000D01*
X67994815Y-38480000D01*
X68013503Y-38657805D01*
X68013504Y-38657807D01*
X68068747Y-38827829D01*
X68068750Y-38827835D01*
X68158141Y-38982665D01*
X68192307Y-39020610D01*
X68277764Y-39115521D01*
X68277767Y-39115523D01*
X68277770Y-39115526D01*
X68422407Y-39220612D01*
X68585733Y-39293329D01*
X68595010Y-39295301D01*
X68656492Y-39328489D01*
X68690271Y-39389651D01*
X68692554Y-39403629D01*
X68703503Y-39507804D01*
X68703504Y-39507807D01*
X68758747Y-39677829D01*
X68758750Y-39677835D01*
X68848141Y-39832665D01*
X68889812Y-39878946D01*
X68967764Y-39965521D01*
X68967767Y-39965523D01*
X68967770Y-39965526D01*
X69112407Y-40070612D01*
X69275733Y-40143329D01*
X69450609Y-40180500D01*
X69450610Y-40180500D01*
X69629389Y-40180500D01*
X69629391Y-40180500D01*
X69804267Y-40143329D01*
X69967593Y-40070612D01*
X70112230Y-39965526D01*
X70231859Y-39832665D01*
X70321250Y-39677835D01*
X70376497Y-39507803D01*
X70395185Y-39330000D01*
X70376497Y-39152197D01*
X70333742Y-39020610D01*
X70321252Y-38982170D01*
X70321249Y-38982164D01*
X70231859Y-38827335D01*
X70185003Y-38775296D01*
X70112235Y-38694478D01*
X70112232Y-38694476D01*
X70112231Y-38694475D01*
X70112230Y-38694474D01*
X69967593Y-38589388D01*
X69804267Y-38516671D01*
X69804265Y-38516670D01*
X69804264Y-38516670D01*
X69794979Y-38514696D01*
X69733499Y-38481500D01*
X69699725Y-38420335D01*
X69697447Y-38406383D01*
X69690470Y-38340000D01*
X77064815Y-38340000D01*
X77083503Y-38517805D01*
X77083504Y-38517807D01*
X77138747Y-38687829D01*
X77138750Y-38687835D01*
X77228141Y-38842665D01*
X77269812Y-38888946D01*
X77347764Y-38975521D01*
X77347767Y-38975523D01*
X77347770Y-38975526D01*
X77492407Y-39080612D01*
X77655733Y-39153329D01*
X77830609Y-39190500D01*
X77830610Y-39190500D01*
X78009389Y-39190500D01*
X78009391Y-39190500D01*
X78184267Y-39153329D01*
X78347593Y-39080612D01*
X78492230Y-38975526D01*
X78611859Y-38842665D01*
X78701250Y-38687835D01*
X78756497Y-38517803D01*
X78775185Y-38340000D01*
X78756497Y-38162197D01*
X78702882Y-37997187D01*
X78701252Y-37992170D01*
X78701249Y-37992164D01*
X78692688Y-37977336D01*
X78611859Y-37837335D01*
X78561282Y-37781164D01*
X78492235Y-37704478D01*
X78492232Y-37704476D01*
X78492231Y-37704475D01*
X78492230Y-37704474D01*
X78347593Y-37599388D01*
X78184267Y-37526671D01*
X78184265Y-37526670D01*
X78032053Y-37494317D01*
X78009391Y-37489500D01*
X77830609Y-37489500D01*
X77807947Y-37494317D01*
X77655733Y-37526670D01*
X77655728Y-37526672D01*
X77492408Y-37599387D01*
X77347768Y-37704475D01*
X77228140Y-37837336D01*
X77138750Y-37992164D01*
X77138747Y-37992170D01*
X77083504Y-38162192D01*
X77083503Y-38162194D01*
X77064815Y-38340000D01*
X69690470Y-38340000D01*
X69686497Y-38302197D01*
X69641007Y-38162194D01*
X69631252Y-38132170D01*
X69631249Y-38132164D01*
X69613945Y-38102192D01*
X69541859Y-37977335D01*
X69495003Y-37925296D01*
X69422235Y-37844478D01*
X69422232Y-37844476D01*
X69422231Y-37844475D01*
X69422230Y-37844474D01*
X69277593Y-37739388D01*
X69114267Y-37666671D01*
X69114265Y-37666670D01*
X68986594Y-37639533D01*
X68939391Y-37629500D01*
X68760609Y-37629500D01*
X68729954Y-37636015D01*
X68585733Y-37666670D01*
X68585728Y-37666672D01*
X68422408Y-37739387D01*
X68277768Y-37844475D01*
X68158140Y-37977336D01*
X68068750Y-38132164D01*
X68068747Y-38132170D01*
X68013504Y-38302192D01*
X68013503Y-38302194D01*
X67994815Y-38480000D01*
X53119285Y-38480000D01*
X53126497Y-38457803D01*
X53145185Y-38280000D01*
X53126497Y-38102197D01*
X53071250Y-37932165D01*
X52981859Y-37777335D01*
X52916258Y-37704478D01*
X52862235Y-37644478D01*
X52862232Y-37644476D01*
X52862231Y-37644475D01*
X52862230Y-37644474D01*
X52717593Y-37539388D01*
X52554267Y-37466671D01*
X52554265Y-37466670D01*
X52426594Y-37439533D01*
X52379391Y-37429500D01*
X52200609Y-37429500D01*
X52169954Y-37436015D01*
X52025733Y-37466670D01*
X52025728Y-37466672D01*
X51862408Y-37539387D01*
X51717768Y-37644475D01*
X51598140Y-37777336D01*
X51508750Y-37932164D01*
X51508747Y-37932170D01*
X51453504Y-38102192D01*
X51453503Y-38102194D01*
X51434815Y-38280000D01*
X50463515Y-38280000D01*
X50573509Y-38220474D01*
X50769744Y-38067738D01*
X50938164Y-37884785D01*
X51074173Y-37676607D01*
X51174063Y-37448881D01*
X51235108Y-37207821D01*
X51255643Y-36960000D01*
X51248824Y-36877708D01*
X51235109Y-36712187D01*
X51235107Y-36712175D01*
X51174063Y-36471118D01*
X51074173Y-36243393D01*
X50938166Y-36035217D01*
X50896541Y-35990000D01*
X50769744Y-35852262D01*
X50573509Y-35699526D01*
X50573507Y-35699525D01*
X50573506Y-35699524D01*
X50500472Y-35660000D01*
X72664659Y-35660000D01*
X72683975Y-35856129D01*
X72741188Y-36044733D01*
X72834086Y-36218532D01*
X72834090Y-36218539D01*
X72959116Y-36370883D01*
X73111460Y-36495909D01*
X73111467Y-36495913D01*
X73285266Y-36588811D01*
X73285269Y-36588811D01*
X73285273Y-36588814D01*
X73473868Y-36646024D01*
X73670000Y-36665341D01*
X73866132Y-36646024D01*
X74054727Y-36588814D01*
X74228538Y-36495910D01*
X74380883Y-36370883D01*
X74505910Y-36218538D01*
X74598814Y-36044727D01*
X74656024Y-35856132D01*
X74675341Y-35660000D01*
X74656024Y-35463868D01*
X74598814Y-35275273D01*
X74598811Y-35275269D01*
X74598811Y-35275266D01*
X74505913Y-35101467D01*
X74505909Y-35101460D01*
X74380883Y-34949116D01*
X74228539Y-34824090D01*
X74228532Y-34824086D01*
X74054733Y-34731188D01*
X74054727Y-34731186D01*
X73866132Y-34673976D01*
X73866129Y-34673975D01*
X73670000Y-34654659D01*
X73473870Y-34673975D01*
X73285266Y-34731188D01*
X73111467Y-34824086D01*
X73111460Y-34824090D01*
X72959116Y-34949116D01*
X72834090Y-35101460D01*
X72834086Y-35101467D01*
X72741188Y-35275266D01*
X72683975Y-35463870D01*
X72664659Y-35660000D01*
X50500472Y-35660000D01*
X50354811Y-35581172D01*
X50354802Y-35581169D01*
X50119616Y-35500429D01*
X49874335Y-35459500D01*
X49625665Y-35459500D01*
X49380383Y-35500429D01*
X49145197Y-35581169D01*
X49145188Y-35581172D01*
X48926493Y-35699524D01*
X48730257Y-35852261D01*
X48561833Y-36035217D01*
X48425826Y-36243393D01*
X48325936Y-36471118D01*
X48264892Y-36712175D01*
X48264890Y-36712187D01*
X48244357Y-36959994D01*
X30390000Y-36959994D01*
X30390000Y-36790000D01*
X29280748Y-36790000D01*
X29302518Y-36752292D01*
X29340000Y-36612409D01*
X29340000Y-36467591D01*
X29302518Y-36327708D01*
X29280748Y-36290000D01*
X30390000Y-36290000D01*
X30390000Y-35392172D01*
X30389999Y-35392155D01*
X30383598Y-35332627D01*
X30383596Y-35332620D01*
X30333354Y-35197913D01*
X30333350Y-35197906D01*
X30247190Y-35082812D01*
X30247187Y-35082809D01*
X30132093Y-34996649D01*
X30132086Y-34996645D01*
X29997379Y-34946403D01*
X29997372Y-34946401D01*
X29937844Y-34940000D01*
X29040000Y-34940000D01*
X29040000Y-36049252D01*
X29002292Y-36027482D01*
X28862409Y-35990000D01*
X28717591Y-35990000D01*
X28577708Y-36027482D01*
X28540000Y-36049252D01*
X28540000Y-34940000D01*
X27642155Y-34940000D01*
X27582627Y-34946401D01*
X27582620Y-34946403D01*
X27447913Y-34996645D01*
X27447906Y-34996649D01*
X27332812Y-35082809D01*
X27332809Y-35082812D01*
X27246649Y-35197906D01*
X27246645Y-35197913D01*
X27196403Y-35332620D01*
X27196401Y-35332627D01*
X27190000Y-35392155D01*
X27190000Y-36290000D01*
X28299252Y-36290000D01*
X28277482Y-36327708D01*
X28240000Y-36467591D01*
X28240000Y-36612409D01*
X28277482Y-36752292D01*
X28299252Y-36790000D01*
X27190000Y-36790000D01*
X27190000Y-37687844D01*
X27196401Y-37747372D01*
X27196403Y-37747379D01*
X27246645Y-37882086D01*
X27246649Y-37882093D01*
X27332809Y-37997187D01*
X27332812Y-37997190D01*
X27409366Y-38054499D01*
X27451237Y-38110433D01*
X27456221Y-38180124D01*
X27440783Y-38218555D01*
X27359531Y-38351145D01*
X27263126Y-38583889D01*
X27204317Y-38828848D01*
X27184551Y-39080000D01*
X25400000Y-39080000D01*
X25400000Y-34310000D01*
X38194659Y-34310000D01*
X38213975Y-34506129D01*
X38213976Y-34506132D01*
X38259031Y-34654659D01*
X38271188Y-34694733D01*
X38364086Y-34868532D01*
X38364090Y-34868539D01*
X38489116Y-35020883D01*
X38641460Y-35145909D01*
X38641467Y-35145913D01*
X38815266Y-35238811D01*
X38815269Y-35238811D01*
X38815273Y-35238814D01*
X39003868Y-35296024D01*
X39200000Y-35315341D01*
X39396132Y-35296024D01*
X39584727Y-35238814D01*
X39758538Y-35145910D01*
X39910883Y-35020883D01*
X40035910Y-34868538D01*
X40128814Y-34694727D01*
X40186024Y-34506132D01*
X40205341Y-34310000D01*
X40186024Y-34113868D01*
X40128814Y-33925273D01*
X40128811Y-33925269D01*
X40128811Y-33925266D01*
X40035913Y-33751467D01*
X40035909Y-33751460D01*
X39910883Y-33599116D01*
X39758539Y-33474090D01*
X39758532Y-33474086D01*
X39584733Y-33381188D01*
X39584727Y-33381186D01*
X39396132Y-33323976D01*
X39396129Y-33323975D01*
X39200000Y-33304659D01*
X39003870Y-33323975D01*
X38815266Y-33381188D01*
X38641467Y-33474086D01*
X38641460Y-33474090D01*
X38489116Y-33599116D01*
X38364090Y-33751460D01*
X38364086Y-33751467D01*
X38271188Y-33925266D01*
X38213975Y-34113870D01*
X38194659Y-34310000D01*
X25400000Y-34310000D01*
X25400000Y-29210781D01*
X25400005Y-29209997D01*
X25905153Y-29209997D01*
X25905153Y-29210002D01*
X25924526Y-29567314D01*
X25924527Y-29567331D01*
X25982415Y-29920431D01*
X25982421Y-29920457D01*
X26078147Y-30265232D01*
X26078149Y-30265239D01*
X26210597Y-30597659D01*
X26210606Y-30597677D01*
X26378218Y-30913827D01*
X26579024Y-31209994D01*
X26579035Y-31210008D01*
X26706441Y-31360002D01*
X26706442Y-31360002D01*
X27915747Y-30150697D01*
X27989588Y-30252330D01*
X28167670Y-30430412D01*
X28269300Y-30504251D01*
X27057257Y-31716294D01*
X27070495Y-31728836D01*
X27355367Y-31945388D01*
X27355370Y-31945390D01*
X27661990Y-32129876D01*
X27986739Y-32280122D01*
X27986744Y-32280123D01*
X28325855Y-32394383D01*
X28675339Y-32471311D01*
X29031075Y-32509999D01*
X29031085Y-32510000D01*
X29388915Y-32510000D01*
X29388924Y-32509999D01*
X29744660Y-32471311D01*
X30094144Y-32394383D01*
X30433255Y-32280123D01*
X30433260Y-32280122D01*
X30758009Y-32129876D01*
X31064629Y-31945390D01*
X31064632Y-31945388D01*
X31349509Y-31728831D01*
X31362742Y-31716295D01*
X31362742Y-31716294D01*
X30150699Y-30504251D01*
X30252330Y-30430412D01*
X30430412Y-30252330D01*
X30504252Y-30150698D01*
X31713556Y-31360002D01*
X31840972Y-31209998D01*
X31840975Y-31209994D01*
X32041781Y-30913827D01*
X32209393Y-30597677D01*
X32209402Y-30597659D01*
X32341850Y-30265239D01*
X32341852Y-30265232D01*
X32437578Y-29920457D01*
X32437584Y-29920431D01*
X32485199Y-29629994D01*
X35374357Y-29629994D01*
X35374357Y-29630005D01*
X35394890Y-29877812D01*
X35394892Y-29877824D01*
X35455936Y-30118881D01*
X35555826Y-30346606D01*
X35691833Y-30554782D01*
X35691836Y-30554785D01*
X35860256Y-30737738D01*
X36056491Y-30890474D01*
X36275190Y-31008828D01*
X36510386Y-31089571D01*
X36755665Y-31130500D01*
X37004335Y-31130500D01*
X37249614Y-31089571D01*
X37484810Y-31008828D01*
X37703509Y-30890474D01*
X37899744Y-30737738D01*
X38068164Y-30554785D01*
X38204173Y-30346607D01*
X38304063Y-30118881D01*
X38365108Y-29877821D01*
X38365109Y-29877812D01*
X38385643Y-29630005D01*
X38385643Y-29629994D01*
X38365109Y-29382187D01*
X38365107Y-29382175D01*
X38304063Y-29141118D01*
X38204173Y-28913393D01*
X38068166Y-28705217D01*
X38006019Y-28637708D01*
X37899744Y-28522262D01*
X37703509Y-28369526D01*
X37703507Y-28369525D01*
X37703506Y-28369524D01*
X37484811Y-28251172D01*
X37484802Y-28251169D01*
X37249616Y-28170429D01*
X37004335Y-28129500D01*
X36755665Y-28129500D01*
X36510383Y-28170429D01*
X36275197Y-28251169D01*
X36275188Y-28251172D01*
X36056493Y-28369524D01*
X35860257Y-28522261D01*
X35691833Y-28705217D01*
X35555826Y-28913393D01*
X35455936Y-29141118D01*
X35394892Y-29382175D01*
X35394890Y-29382187D01*
X35374357Y-29629994D01*
X32485199Y-29629994D01*
X32495472Y-29567331D01*
X32495473Y-29567314D01*
X32514847Y-29210002D01*
X32514847Y-29209997D01*
X32495473Y-28852685D01*
X32495472Y-28852668D01*
X32437584Y-28499568D01*
X32437578Y-28499542D01*
X32374101Y-28270916D01*
X32375133Y-28201054D01*
X32413771Y-28142841D01*
X32477749Y-28114758D01*
X32546753Y-28125722D01*
X32597390Y-28169921D01*
X32636564Y-28229882D01*
X33377037Y-27489409D01*
X33394075Y-27552993D01*
X33459901Y-27667007D01*
X33552993Y-27760099D01*
X33667007Y-27825925D01*
X33730590Y-27842962D01*
X32989942Y-28583609D01*
X33036768Y-28620055D01*
X33036770Y-28620056D01*
X33255385Y-28738364D01*
X33255396Y-28738369D01*
X33490506Y-28819083D01*
X33735707Y-28860000D01*
X33984293Y-28860000D01*
X34229493Y-28819083D01*
X34464603Y-28738369D01*
X34464614Y-28738364D01*
X34683228Y-28620057D01*
X34683231Y-28620055D01*
X34730056Y-28583609D01*
X33989409Y-27842962D01*
X34052993Y-27825925D01*
X34167007Y-27760099D01*
X34260099Y-27667007D01*
X34325925Y-27552993D01*
X34342962Y-27489410D01*
X35083434Y-28229882D01*
X35183731Y-28076369D01*
X35283587Y-27848717D01*
X35320702Y-27702155D01*
X39660000Y-27702155D01*
X39660000Y-28600000D01*
X40769252Y-28600000D01*
X40747482Y-28637708D01*
X40710000Y-28777591D01*
X40710000Y-28922409D01*
X40747482Y-29062292D01*
X40769252Y-29100000D01*
X39660000Y-29100000D01*
X39660000Y-29997844D01*
X39666401Y-30057372D01*
X39666403Y-30057379D01*
X39716645Y-30192086D01*
X39716649Y-30192093D01*
X39802809Y-30307187D01*
X39802812Y-30307190D01*
X39917906Y-30393350D01*
X39917913Y-30393354D01*
X40052620Y-30443596D01*
X40052627Y-30443598D01*
X40112155Y-30449999D01*
X40112172Y-30450000D01*
X41010000Y-30450000D01*
X41010000Y-29340747D01*
X41047708Y-29362518D01*
X41187591Y-29400000D01*
X41332409Y-29400000D01*
X41472292Y-29362518D01*
X41510000Y-29340747D01*
X41510000Y-30450000D01*
X42407828Y-30450000D01*
X42407844Y-30449999D01*
X42467372Y-30443598D01*
X42467379Y-30443596D01*
X42602086Y-30393354D01*
X42602093Y-30393350D01*
X42717186Y-30307190D01*
X42774498Y-30230633D01*
X42830432Y-30188762D01*
X42900124Y-30183778D01*
X42938555Y-30199217D01*
X43071140Y-30280466D01*
X43230820Y-30346607D01*
X43303889Y-30376873D01*
X43548852Y-30435683D01*
X43800000Y-30455449D01*
X44051148Y-30435683D01*
X44296111Y-30376873D01*
X44528859Y-30280466D01*
X44743659Y-30148836D01*
X44935224Y-29985224D01*
X44975710Y-29937819D01*
X45034216Y-29899627D01*
X45104084Y-29899128D01*
X45163130Y-29936482D01*
X45164235Y-29937756D01*
X45204775Y-29985223D01*
X45204776Y-29985224D01*
X45396343Y-30148838D01*
X45396346Y-30148839D01*
X45611140Y-30280466D01*
X45770820Y-30346607D01*
X45843889Y-30376873D01*
X46088852Y-30435683D01*
X46340000Y-30455449D01*
X46591148Y-30435683D01*
X46836111Y-30376873D01*
X47068859Y-30280466D01*
X47283659Y-30148836D01*
X47475224Y-29985224D01*
X47638836Y-29793659D01*
X47719879Y-29661408D01*
X47737919Y-29638526D01*
X48356212Y-29020234D01*
X48367482Y-29062292D01*
X48439890Y-29187708D01*
X48542292Y-29290110D01*
X48667708Y-29362518D01*
X48709765Y-29373787D01*
X47935819Y-30147732D01*
X47935819Y-30147733D01*
X47936634Y-30148429D01*
X48151368Y-30280019D01*
X48384043Y-30376396D01*
X48628927Y-30435187D01*
X48880000Y-30454947D01*
X49131072Y-30435187D01*
X49375956Y-30376396D01*
X49608631Y-30280019D01*
X49823361Y-30148432D01*
X49823363Y-30148430D01*
X49824180Y-30147732D01*
X49050234Y-29373787D01*
X49092292Y-29362518D01*
X49217708Y-29290110D01*
X49320110Y-29187708D01*
X49392518Y-29062292D01*
X49403787Y-29020234D01*
X50022079Y-29638526D01*
X50040125Y-29661417D01*
X50121160Y-29793653D01*
X50121161Y-29793656D01*
X50121164Y-29793659D01*
X50284776Y-29985224D01*
X50369259Y-30057379D01*
X50476343Y-30148838D01*
X50476346Y-30148839D01*
X50691140Y-30280466D01*
X50850820Y-30346607D01*
X50923889Y-30376873D01*
X51168852Y-30435683D01*
X51420000Y-30455449D01*
X51671148Y-30435683D01*
X51916111Y-30376873D01*
X52148859Y-30280466D01*
X52363659Y-30148836D01*
X52555224Y-29985224D01*
X52595710Y-29937819D01*
X52654216Y-29899627D01*
X52724084Y-29899128D01*
X52783130Y-29936482D01*
X52784235Y-29937756D01*
X52824775Y-29985223D01*
X52824776Y-29985224D01*
X53016343Y-30148838D01*
X53016346Y-30148839D01*
X53231140Y-30280466D01*
X53390820Y-30346607D01*
X53463889Y-30376873D01*
X53708852Y-30435683D01*
X53960000Y-30455449D01*
X54211148Y-30435683D01*
X54456111Y-30376873D01*
X54688859Y-30280466D01*
X54903659Y-30148836D01*
X55095224Y-29985224D01*
X55258836Y-29793659D01*
X55339879Y-29661408D01*
X55357919Y-29638526D01*
X55976212Y-29020234D01*
X55987482Y-29062292D01*
X56059890Y-29187708D01*
X56162292Y-29290110D01*
X56287708Y-29362518D01*
X56329765Y-29373787D01*
X55555819Y-30147732D01*
X55555819Y-30147733D01*
X55556634Y-30148429D01*
X55771368Y-30280019D01*
X56004043Y-30376396D01*
X56248927Y-30435187D01*
X56500000Y-30454947D01*
X56751072Y-30435187D01*
X56995956Y-30376396D01*
X57228631Y-30280019D01*
X57443361Y-30148432D01*
X57443363Y-30148430D01*
X57444180Y-30147732D01*
X56670234Y-29373787D01*
X56712292Y-29362518D01*
X56837708Y-29290110D01*
X56940110Y-29187708D01*
X57012518Y-29062292D01*
X57023787Y-29020234D01*
X57642079Y-29638526D01*
X57660125Y-29661417D01*
X57741160Y-29793653D01*
X57741161Y-29793656D01*
X57741164Y-29793659D01*
X57904776Y-29985224D01*
X57989259Y-30057379D01*
X58096343Y-30148838D01*
X58096346Y-30148839D01*
X58311140Y-30280466D01*
X58470820Y-30346607D01*
X58543889Y-30376873D01*
X58788852Y-30435683D01*
X59040000Y-30455449D01*
X59291148Y-30435683D01*
X59536111Y-30376873D01*
X59768859Y-30280466D01*
X59983659Y-30148836D01*
X60175224Y-29985224D01*
X60215710Y-29937819D01*
X60274216Y-29899627D01*
X60344084Y-29899128D01*
X60403130Y-29936482D01*
X60404235Y-29937756D01*
X60444775Y-29985223D01*
X60444776Y-29985224D01*
X60636343Y-30148838D01*
X60636346Y-30148839D01*
X60851140Y-30280466D01*
X61010820Y-30346607D01*
X61083889Y-30376873D01*
X61328852Y-30435683D01*
X61580000Y-30455449D01*
X61831148Y-30435683D01*
X62076111Y-30376873D01*
X62308859Y-30280466D01*
X62523659Y-30148836D01*
X62715224Y-29985224D01*
X62878836Y-29793659D01*
X62959879Y-29661408D01*
X62977919Y-29638526D01*
X63596212Y-29020234D01*
X63607482Y-29062292D01*
X63679890Y-29187708D01*
X63782292Y-29290110D01*
X63907708Y-29362518D01*
X63949765Y-29373787D01*
X63175819Y-30147732D01*
X63175819Y-30147733D01*
X63176634Y-30148429D01*
X63391368Y-30280019D01*
X63624043Y-30376396D01*
X63868927Y-30435187D01*
X64120000Y-30454947D01*
X64371072Y-30435187D01*
X64615956Y-30376396D01*
X64848631Y-30280019D01*
X65063361Y-30148432D01*
X65063363Y-30148430D01*
X65064180Y-30147732D01*
X64290234Y-29373787D01*
X64332292Y-29362518D01*
X64457708Y-29290110D01*
X64560110Y-29187708D01*
X64632518Y-29062292D01*
X64643787Y-29020234D01*
X65262079Y-29638526D01*
X65280125Y-29661417D01*
X65361160Y-29793653D01*
X65361161Y-29793656D01*
X65361164Y-29793659D01*
X65524776Y-29985224D01*
X65609259Y-30057379D01*
X65716343Y-30148838D01*
X65716346Y-30148839D01*
X65931140Y-30280466D01*
X66090820Y-30346607D01*
X66163889Y-30376873D01*
X66408852Y-30435683D01*
X66660000Y-30455449D01*
X66911148Y-30435683D01*
X67156111Y-30376873D01*
X67388859Y-30280466D01*
X67603659Y-30148836D01*
X67795224Y-29985224D01*
X67835710Y-29937819D01*
X67894216Y-29899627D01*
X67964084Y-29899128D01*
X68023130Y-29936482D01*
X68024235Y-29937756D01*
X68064775Y-29985223D01*
X68064776Y-29985224D01*
X68256343Y-30148838D01*
X68256346Y-30148839D01*
X68471140Y-30280466D01*
X68630820Y-30346607D01*
X68703889Y-30376873D01*
X68948852Y-30435683D01*
X69200000Y-30455449D01*
X69451148Y-30435683D01*
X69696111Y-30376873D01*
X69928859Y-30280466D01*
X70143659Y-30148836D01*
X70335224Y-29985224D01*
X70498836Y-29793659D01*
X70630466Y-29578859D01*
X70726873Y-29346111D01*
X70759551Y-29209997D01*
X75435153Y-29209997D01*
X75435153Y-29210002D01*
X75454526Y-29567314D01*
X75454527Y-29567331D01*
X75512415Y-29920431D01*
X75512421Y-29920457D01*
X75608147Y-30265232D01*
X75608149Y-30265239D01*
X75740597Y-30597659D01*
X75740606Y-30597677D01*
X75908218Y-30913827D01*
X76109024Y-31209994D01*
X76109035Y-31210008D01*
X76236441Y-31360002D01*
X76236442Y-31360002D01*
X77445747Y-30150697D01*
X77519588Y-30252330D01*
X77697670Y-30430412D01*
X77799300Y-30504251D01*
X76587257Y-31716294D01*
X76600495Y-31728836D01*
X76885367Y-31945388D01*
X76885370Y-31945390D01*
X77191990Y-32129876D01*
X77516739Y-32280122D01*
X77516744Y-32280123D01*
X77855855Y-32394383D01*
X78205339Y-32471311D01*
X78561075Y-32509999D01*
X78561085Y-32510000D01*
X78918915Y-32510000D01*
X78918924Y-32509999D01*
X79274660Y-32471311D01*
X79624144Y-32394383D01*
X79963255Y-32280123D01*
X79963260Y-32280122D01*
X80288009Y-32129876D01*
X80594629Y-31945390D01*
X80594632Y-31945388D01*
X80879509Y-31728831D01*
X80892742Y-31716295D01*
X80892742Y-31716294D01*
X79680699Y-30504251D01*
X79782330Y-30430412D01*
X79960412Y-30252330D01*
X80034252Y-30150698D01*
X81243556Y-31360002D01*
X81370972Y-31209998D01*
X81370975Y-31209994D01*
X81571781Y-30913827D01*
X81739393Y-30597677D01*
X81739402Y-30597659D01*
X81871850Y-30265239D01*
X81871852Y-30265232D01*
X81967578Y-29920457D01*
X81967584Y-29920431D01*
X82025472Y-29567331D01*
X82025473Y-29567314D01*
X82044847Y-29210002D01*
X82044847Y-29209997D01*
X82025473Y-28852685D01*
X82025472Y-28852668D01*
X81967584Y-28499568D01*
X81967578Y-28499542D01*
X81871852Y-28154767D01*
X81871850Y-28154760D01*
X81739402Y-27822340D01*
X81739393Y-27822322D01*
X81571781Y-27506172D01*
X81370975Y-27210005D01*
X81370964Y-27209991D01*
X81243556Y-27059996D01*
X80034251Y-28269300D01*
X79960412Y-28167670D01*
X79782330Y-27989588D01*
X79680698Y-27915748D01*
X80892742Y-26703704D01*
X80879504Y-26691163D01*
X80594632Y-26474611D01*
X80594629Y-26474609D01*
X80288009Y-26290123D01*
X79963260Y-26139877D01*
X79963255Y-26139876D01*
X79624144Y-26025616D01*
X79274660Y-25948688D01*
X78918924Y-25910000D01*
X78561075Y-25910000D01*
X78205339Y-25948688D01*
X77855855Y-26025616D01*
X77516744Y-26139876D01*
X77516739Y-26139877D01*
X77191990Y-26290123D01*
X76885370Y-26474609D01*
X76885367Y-26474611D01*
X76600486Y-26691170D01*
X76600485Y-26691171D01*
X76587257Y-26703702D01*
X76587256Y-26703703D01*
X77799301Y-27915748D01*
X77697670Y-27989588D01*
X77519588Y-28167670D01*
X77445748Y-28269301D01*
X76236442Y-27059995D01*
X76236441Y-27059996D01*
X76109033Y-27209992D01*
X75908218Y-27506172D01*
X75740606Y-27822322D01*
X75740597Y-27822340D01*
X75608149Y-28154760D01*
X75608147Y-28154767D01*
X75512421Y-28499542D01*
X75512415Y-28499568D01*
X75454527Y-28852668D01*
X75454526Y-28852685D01*
X75435153Y-29209997D01*
X70759551Y-29209997D01*
X70785683Y-29101148D01*
X70805449Y-28850000D01*
X70785683Y-28598852D01*
X70726873Y-28353889D01*
X70692505Y-28270916D01*
X70630466Y-28121140D01*
X70498839Y-27906346D01*
X70498838Y-27906343D01*
X70408755Y-27800870D01*
X70335224Y-27714776D01*
X70208571Y-27606604D01*
X70143656Y-27551161D01*
X70143653Y-27551160D01*
X69928859Y-27419533D01*
X69696110Y-27323126D01*
X69451151Y-27264317D01*
X69200000Y-27244551D01*
X68948848Y-27264317D01*
X68703889Y-27323126D01*
X68471140Y-27419533D01*
X68256346Y-27551160D01*
X68256343Y-27551161D01*
X68064776Y-27714776D01*
X68024290Y-27762179D01*
X67965783Y-27800372D01*
X67895915Y-27800870D01*
X67836869Y-27763516D01*
X67835710Y-27762179D01*
X67795224Y-27714776D01*
X67668571Y-27606604D01*
X67603656Y-27551161D01*
X67603653Y-27551160D01*
X67388859Y-27419533D01*
X67156110Y-27323126D01*
X66911151Y-27264317D01*
X66660000Y-27244551D01*
X66408848Y-27264317D01*
X66163889Y-27323126D01*
X65931140Y-27419533D01*
X65716346Y-27551160D01*
X65716343Y-27551161D01*
X65524776Y-27714776D01*
X65361166Y-27906338D01*
X65280126Y-28038581D01*
X65262080Y-28061471D01*
X64643787Y-28679764D01*
X64632518Y-28637708D01*
X64560110Y-28512292D01*
X64457708Y-28409890D01*
X64332292Y-28337482D01*
X64290234Y-28326212D01*
X65064179Y-27552266D01*
X65063362Y-27551568D01*
X64848631Y-27419980D01*
X64615956Y-27323603D01*
X64371072Y-27264812D01*
X64120000Y-27245052D01*
X63868927Y-27264812D01*
X63624043Y-27323603D01*
X63391368Y-27419980D01*
X63176637Y-27551567D01*
X63175819Y-27552266D01*
X63949765Y-28326212D01*
X63907708Y-28337482D01*
X63782292Y-28409890D01*
X63679890Y-28512292D01*
X63607482Y-28637708D01*
X63596212Y-28679765D01*
X62977919Y-28061472D01*
X62959876Y-28038586D01*
X62878836Y-27906341D01*
X62715224Y-27714776D01*
X62588571Y-27606604D01*
X62523656Y-27551161D01*
X62523653Y-27551160D01*
X62308859Y-27419533D01*
X62076110Y-27323126D01*
X61831151Y-27264317D01*
X61580000Y-27244551D01*
X61328848Y-27264317D01*
X61083889Y-27323126D01*
X60851140Y-27419533D01*
X60636346Y-27551160D01*
X60636343Y-27551161D01*
X60444776Y-27714776D01*
X60404290Y-27762179D01*
X60345783Y-27800372D01*
X60275915Y-27800870D01*
X60216869Y-27763516D01*
X60215710Y-27762179D01*
X60175224Y-27714776D01*
X60048571Y-27606604D01*
X59983656Y-27551161D01*
X59983653Y-27551160D01*
X59768859Y-27419533D01*
X59536110Y-27323126D01*
X59291151Y-27264317D01*
X59040000Y-27244551D01*
X58788848Y-27264317D01*
X58543889Y-27323126D01*
X58311140Y-27419533D01*
X58096346Y-27551160D01*
X58096343Y-27551161D01*
X57904776Y-27714776D01*
X57741166Y-27906338D01*
X57660126Y-28038581D01*
X57642080Y-28061471D01*
X57023787Y-28679764D01*
X57012518Y-28637708D01*
X56940110Y-28512292D01*
X56837708Y-28409890D01*
X56712292Y-28337482D01*
X56670234Y-28326212D01*
X57444179Y-27552266D01*
X57443362Y-27551568D01*
X57228631Y-27419980D01*
X56995956Y-27323603D01*
X56751072Y-27264812D01*
X56500000Y-27245052D01*
X56248927Y-27264812D01*
X56004043Y-27323603D01*
X55771368Y-27419980D01*
X55556637Y-27551567D01*
X55555819Y-27552266D01*
X56329765Y-28326212D01*
X56287708Y-28337482D01*
X56162292Y-28409890D01*
X56059890Y-28512292D01*
X55987482Y-28637708D01*
X55976212Y-28679765D01*
X55357919Y-28061472D01*
X55339876Y-28038586D01*
X55258836Y-27906341D01*
X55095224Y-27714776D01*
X54968571Y-27606604D01*
X54903656Y-27551161D01*
X54903653Y-27551160D01*
X54688859Y-27419533D01*
X54456110Y-27323126D01*
X54211151Y-27264317D01*
X53960000Y-27244551D01*
X53708848Y-27264317D01*
X53463889Y-27323126D01*
X53231140Y-27419533D01*
X53016346Y-27551160D01*
X53016343Y-27551161D01*
X52824776Y-27714776D01*
X52784290Y-27762179D01*
X52725783Y-27800372D01*
X52655915Y-27800870D01*
X52596869Y-27763516D01*
X52595710Y-27762179D01*
X52555224Y-27714776D01*
X52428571Y-27606604D01*
X52363656Y-27551161D01*
X52363653Y-27551160D01*
X52148859Y-27419533D01*
X51916110Y-27323126D01*
X51671151Y-27264317D01*
X51420000Y-27244551D01*
X51168848Y-27264317D01*
X50923889Y-27323126D01*
X50691140Y-27419533D01*
X50476346Y-27551160D01*
X50476343Y-27551161D01*
X50284776Y-27714776D01*
X50121166Y-27906338D01*
X50040126Y-28038581D01*
X50022080Y-28061471D01*
X49403787Y-28679764D01*
X49392518Y-28637708D01*
X49320110Y-28512292D01*
X49217708Y-28409890D01*
X49092292Y-28337482D01*
X49050234Y-28326212D01*
X49824179Y-27552266D01*
X49823362Y-27551568D01*
X49608631Y-27419980D01*
X49375956Y-27323603D01*
X49131072Y-27264812D01*
X48880000Y-27245052D01*
X48628927Y-27264812D01*
X48384043Y-27323603D01*
X48151368Y-27419980D01*
X47936637Y-27551567D01*
X47935819Y-27552266D01*
X48709765Y-28326212D01*
X48667708Y-28337482D01*
X48542292Y-28409890D01*
X48439890Y-28512292D01*
X48367482Y-28637708D01*
X48356212Y-28679765D01*
X47737919Y-28061472D01*
X47719876Y-28038586D01*
X47638836Y-27906341D01*
X47475224Y-27714776D01*
X47348571Y-27606604D01*
X47283656Y-27551161D01*
X47283653Y-27551160D01*
X47068859Y-27419533D01*
X46836110Y-27323126D01*
X46591151Y-27264317D01*
X46340000Y-27244551D01*
X46088848Y-27264317D01*
X45843889Y-27323126D01*
X45611140Y-27419533D01*
X45396346Y-27551160D01*
X45396343Y-27551161D01*
X45204776Y-27714776D01*
X45164290Y-27762179D01*
X45105783Y-27800372D01*
X45035915Y-27800870D01*
X44976869Y-27763516D01*
X44975710Y-27762179D01*
X44935224Y-27714776D01*
X44808571Y-27606604D01*
X44743656Y-27551161D01*
X44743653Y-27551160D01*
X44528859Y-27419533D01*
X44296110Y-27323126D01*
X44051151Y-27264317D01*
X43800000Y-27244551D01*
X43548848Y-27264317D01*
X43303889Y-27323126D01*
X43071145Y-27419531D01*
X42938555Y-27500783D01*
X42871109Y-27519027D01*
X42804506Y-27497910D01*
X42774499Y-27469366D01*
X42717190Y-27392812D01*
X42717187Y-27392809D01*
X42602093Y-27306649D01*
X42602086Y-27306645D01*
X42467379Y-27256403D01*
X42467372Y-27256401D01*
X42407844Y-27250000D01*
X41510000Y-27250000D01*
X41510000Y-28359252D01*
X41472292Y-28337482D01*
X41332409Y-28300000D01*
X41187591Y-28300000D01*
X41047708Y-28337482D01*
X41010000Y-28359252D01*
X41010000Y-27250000D01*
X40112155Y-27250000D01*
X40052627Y-27256401D01*
X40052620Y-27256403D01*
X39917913Y-27306645D01*
X39917906Y-27306649D01*
X39802812Y-27392809D01*
X39802809Y-27392812D01*
X39716649Y-27507906D01*
X39716645Y-27507913D01*
X39666403Y-27642620D01*
X39666401Y-27642627D01*
X39660000Y-27702155D01*
X35320702Y-27702155D01*
X35344612Y-27607738D01*
X35344614Y-27607729D01*
X35365141Y-27360005D01*
X35365141Y-27359994D01*
X35344614Y-27112270D01*
X35344612Y-27112261D01*
X35283587Y-26871282D01*
X35183731Y-26643630D01*
X35083434Y-26490116D01*
X34342962Y-27230589D01*
X34325925Y-27167007D01*
X34260099Y-27052993D01*
X34167007Y-26959901D01*
X34052993Y-26894075D01*
X33989410Y-26877037D01*
X34730057Y-26136390D01*
X34730056Y-26136389D01*
X34683229Y-26099943D01*
X34464614Y-25981635D01*
X34464603Y-25981630D01*
X34229493Y-25900916D01*
X33984293Y-25860000D01*
X33735707Y-25860000D01*
X33490506Y-25900916D01*
X33255396Y-25981630D01*
X33255390Y-25981632D01*
X33036761Y-26099949D01*
X32989942Y-26136388D01*
X32989942Y-26136390D01*
X33730590Y-26877037D01*
X33667007Y-26894075D01*
X33552993Y-26959901D01*
X33459901Y-27052993D01*
X33394075Y-27167007D01*
X33377037Y-27230589D01*
X32636564Y-26490116D01*
X32536267Y-26643632D01*
X32436412Y-26871282D01*
X32375387Y-27112261D01*
X32375385Y-27112270D01*
X32354859Y-27359994D01*
X32354859Y-27360005D01*
X32375385Y-27607729D01*
X32375389Y-27607750D01*
X32378189Y-27618806D01*
X32375565Y-27688626D01*
X32335609Y-27745944D01*
X32271008Y-27772561D01*
X32202272Y-27760027D01*
X32151224Y-27712321D01*
X32148429Y-27707330D01*
X32041781Y-27506172D01*
X31840975Y-27210005D01*
X31840964Y-27209991D01*
X31713556Y-27059996D01*
X30504251Y-28269300D01*
X30430412Y-28167670D01*
X30252330Y-27989588D01*
X30150698Y-27915748D01*
X31362742Y-26703704D01*
X31349504Y-26691163D01*
X31064632Y-26474611D01*
X31064629Y-26474609D01*
X30758009Y-26290123D01*
X30433260Y-26139877D01*
X30433255Y-26139876D01*
X30094144Y-26025616D01*
X29744660Y-25948688D01*
X29388924Y-25910000D01*
X29031075Y-25910000D01*
X28675339Y-25948688D01*
X28325855Y-26025616D01*
X27986744Y-26139876D01*
X27986739Y-26139877D01*
X27661990Y-26290123D01*
X27355370Y-26474609D01*
X27355367Y-26474611D01*
X27070486Y-26691170D01*
X27070485Y-26691171D01*
X27057257Y-26703702D01*
X27057256Y-26703703D01*
X28269301Y-27915748D01*
X28167670Y-27989588D01*
X27989588Y-28167670D01*
X27915748Y-28269301D01*
X26706442Y-27059995D01*
X26706441Y-27059996D01*
X26579033Y-27209992D01*
X26378218Y-27506172D01*
X26210606Y-27822322D01*
X26210597Y-27822340D01*
X26078149Y-28154760D01*
X26078147Y-28154767D01*
X25982421Y-28499542D01*
X25982415Y-28499568D01*
X25924527Y-28852668D01*
X25924526Y-28852685D01*
X25905153Y-29209997D01*
X25400005Y-29209997D01*
X25400011Y-29209159D01*
X25401439Y-29100000D01*
X25402536Y-29016142D01*
X25403203Y-29004828D01*
X25443646Y-28620029D01*
X25445677Y-28607214D01*
X25525946Y-28229575D01*
X25529304Y-28217045D01*
X25544451Y-28170429D01*
X25648611Y-27849857D01*
X25653260Y-27837746D01*
X25810301Y-27485027D01*
X25816178Y-27473493D01*
X26009228Y-27139118D01*
X26016280Y-27128258D01*
X26243231Y-26815889D01*
X26251385Y-26805820D01*
X26509734Y-26518893D01*
X26518893Y-26509734D01*
X26805820Y-26251385D01*
X26815889Y-26243231D01*
X27128258Y-26016280D01*
X27139118Y-26009228D01*
X27473493Y-25816178D01*
X27485027Y-25810301D01*
X27837753Y-25653257D01*
X27849857Y-25648611D01*
X28217051Y-25529302D01*
X28229575Y-25525946D01*
X28607219Y-25445676D01*
X28620029Y-25443646D01*
X29004828Y-25403203D01*
X29016142Y-25402536D01*
X29209159Y-25400010D01*
X29210781Y-25400000D01*
X78739219Y-25400000D01*
X78740840Y-25400010D01*
G37*
G04 #@! TD.AperFunction*
M02*
