M48
; DRILL file {KiCad 8.0.6} date 2024-12-10T14:38:13-0800
; FORMAT={-:-/ absolute / metric / decimal}
; #@! TF.CreationDate,2024-12-10T14:38:13-08:00
; #@! TF.GenerationSoftware,Kicad,Pcbnew,8.0.6
; #@! TF.FileFunction,Plated,1,4,PTH
FMAT,2
METRIC
; #@! TA.AperFunction,Plated,PTH,ViaDrill
T1C0.300
; #@! TA.AperFunction,Plated,PTH,ViaDrill
T2C0.500
; #@! TA.AperFunction,Plated,PTH,ComponentDrill
T3C0.600
; #@! TA.AperFunction,Plated,PTH,ComponentDrill
T4C1.000
; #@! TA.AperFunction,Plated,PTH,ComponentDrill
T5C1.100
; #@! TA.AperFunction,Plated,PTH,ComponentDrill
T6C3.200
%
G90
G05
T1
X30.93Y-43.39
X32.57Y-41.66
X32.94Y-38.42
X35.21Y-40.8
X35.46Y-52.47
X36.051Y-55.881
X37.97Y-58.57
X40.57Y-66.11
X40.98Y-55.517
X41.16Y-51.58
X41.49Y-32.57
X42.32Y-48.48
X43.07Y-48.5
X44.1Y-41.49
X44.48Y-33.14
X45.55Y-56.5
X46.45Y-48.17
X46.499Y-39.88
X46.826Y-50.791
X49.52Y-61.3
X49.54Y-41.24
X49.63Y-47.68
X51.06Y-48.5
X51.12Y-44.76
X51.95Y-51.93
X52.29Y-38.28
X52.94Y-41.75
X52.94Y-50.61
X53.33Y-34.71
X54.34Y-47.64
X54.42Y-55.81
X55.31Y-62.32
X55.94Y-58.83
X56.64Y-41.01
X57.9Y-68.48
X58.338Y-52.28
X58.921Y-58.246
X59.107Y-52.748
X59.395Y-48.295
X59.45Y-42.79
X59.53Y-44.5
X59.557Y-57.61
X60.002Y-52.834
X60.193Y-56.974
X60.716Y-60.725
X60.829Y-56.338
X60.902Y-52.847
X60.922Y-42.56
X61.304Y-60.044
X61.465Y-55.702
X61.801Y-52.828
X61.898Y-59.369
X62.225Y-54.941
X62.534Y-58.733
X62.696Y-52.74
X63.23Y-58.086
X63.35Y-34.83
X63.79Y-44.23
X63.923Y-57.343
X64.79Y-53.65
X64.91Y-35.28
X65.05Y-39.0
X65.26Y-43.989
X65.29Y-51.4
X65.52Y-49.901
X65.54Y-52.55
X66.35Y-39.85
X66.79Y-67.41
X66.79Y-68.7
X67.53Y-49.92
X67.57Y-53.441
X67.65Y-46.27
X67.96Y-51.61
X68.85Y-38.48
X69.51Y-64.67
X69.54Y-39.33
X69.88Y-53.831
X70.41Y-56.36
X70.47Y-51.38
X70.8Y-38.67
X73.34Y-51.55
X74.1Y-66.145
X74.4Y-41.85
X76.0Y-36.84
X76.4Y-63.32
X77.15Y-65.51
X77.79Y-32.91
X77.92Y-38.34
X78.84Y-56.131
X78.86Y-61.731
T2
X35.34Y-71.05
X36.3Y-44.55
X36.3Y-45.64
X36.3Y-46.75
X36.62Y-33.78
X37.35Y-44.55
X37.4Y-45.65
X37.4Y-46.75
X38.05Y-68.25
X39.2Y-34.31
X40.47Y-62.99
X44.91Y-43.3
X52.28Y-62.74
X53.035Y-46.39
X53.09Y-56.02
X53.28Y-58.17
X53.87Y-52.94
X55.2Y-31.0
X56.508Y-33.059
X56.54Y-38.38
X56.66Y-36.01
X59.439Y-33.117
X59.485Y-38.08
X59.609Y-36.055
X59.64Y-39.8
X60.92Y-30.99
X68.69Y-34.26
X72.81Y-32.08
X73.67Y-35.66
X74.94Y-43.86
X74.94Y-45.185
X74.94Y-46.51
X74.94Y-47.835
X74.94Y-49.16
T4
X30.01Y-48.06
X33.86Y-27.36
X34.37Y-62.68
X34.41Y-67.13
X36.88Y-29.63
X42.16Y-40.44
X44.28Y-60.27
X46.81Y-66.5
X47.07Y-62.81
X49.75Y-36.96
X50.45Y-67.0
X54.17Y-67.0
X55.19Y-42.44
X56.81Y-56.4
X57.64Y-50.44
X63.67Y-41.94
X65.33Y-64.4
X68.09Y-57.67
X73.09Y-59.16
X73.54Y-55.26
T5
X28.79Y-36.54
X28.79Y-39.08
X28.79Y-41.62
X28.79Y-44.16
X28.91Y-62.38
X28.91Y-64.92
X28.91Y-67.46
X41.26Y-28.85
X43.43Y-72.52
X43.8Y-28.85
X45.97Y-72.52
X46.34Y-28.85
X48.51Y-72.52
X48.88Y-28.85
X51.05Y-72.52
X51.42Y-28.85
X53.96Y-28.85
X55.15Y-72.53
X56.5Y-28.85
X57.69Y-72.53
X59.04Y-28.85
X60.23Y-72.53
X61.58Y-28.85
X62.77Y-72.53
X64.12Y-28.85
X65.31Y-72.53
X66.66Y-28.85
X67.85Y-72.53
X69.2Y-28.85
X70.39Y-72.53
X72.93Y-72.53
T6
X29.21Y-29.21
X29.21Y-72.39
X78.74Y-29.21
X78.74Y-72.38
T3
X28.24Y-50.35G85X27.64Y-50.35
G05
X28.24Y-58.99G85X27.64Y-58.99
G05
X32.67Y-50.35G85X31.57Y-50.35
G05
X32.67Y-58.99G85X31.57Y-58.99
G05
M30
