G04 #@! TF.GenerationSoftware,KiCad,Pcbnew,(6.0.7)*
G04 #@! TF.CreationDate,2023-06-30T09:59:30-07:00*
G04 #@! TF.ProjectId,PT Board Ground Systems,50542042-6f61-4726-9420-47726f756e64,rev?*
G04 #@! TF.SameCoordinates,Original*
G04 #@! TF.FileFunction,Copper,L2,Bot*
G04 #@! TF.FilePolarity,Positive*
%FSLAX46Y46*%
G04 Gerber Fmt 4.6, Leading zero omitted, Abs format (unit mm)*
G04 Created by KiCad (PCBNEW (6.0.7)) date 2023-06-30 09:59:30*
%MOMM*%
%LPD*%
G01*
G04 APERTURE LIST*
G04 #@! TA.AperFunction,ComponentPad*
%ADD10R,2.200000X2.200000*%
G04 #@! TD*
G04 #@! TA.AperFunction,ComponentPad*
%ADD11C,2.200000*%
G04 #@! TD*
G04 #@! TA.AperFunction,ConnectorPad*
%ADD12C,5.600000*%
G04 #@! TD*
G04 #@! TA.AperFunction,ComponentPad*
%ADD13C,3.600000*%
G04 #@! TD*
G04 #@! TA.AperFunction,ViaPad*
%ADD14C,0.800000*%
G04 #@! TD*
G04 APERTURE END LIST*
D10*
X74650600Y-30937200D03*
D11*
X72110600Y-30937200D03*
X69570600Y-30937200D03*
X67030600Y-30937200D03*
X64490600Y-30937200D03*
X61950600Y-30937200D03*
X59410600Y-30937200D03*
X56870600Y-30937200D03*
D12*
X80010000Y-28575000D03*
D13*
X80010000Y-28575000D03*
D12*
X29210000Y-28575000D03*
D13*
X29210000Y-28575000D03*
D10*
X53365400Y-39319200D03*
D11*
X55905400Y-39319200D03*
D10*
X52425600Y-30937200D03*
D11*
X49885600Y-30937200D03*
X47345600Y-30937200D03*
X44805600Y-30937200D03*
X42265600Y-30937200D03*
X39725600Y-30937200D03*
X37185600Y-30937200D03*
X34645600Y-30937200D03*
D12*
X29260800Y-41275000D03*
D13*
X29260800Y-41275000D03*
X80010000Y-41275000D03*
D12*
X80010000Y-41275000D03*
D14*
X44225000Y-39375000D03*
G04 #@! TA.AperFunction,Conductor*
G36*
X83253621Y-25928502D02*
G01*
X83300114Y-25982158D01*
X83311500Y-26034500D01*
X83311500Y-43815500D01*
X83291498Y-43883621D01*
X83237842Y-43930114D01*
X83185500Y-43941500D01*
X26034500Y-43941500D01*
X25966379Y-43921498D01*
X25919886Y-43867842D01*
X25908500Y-43815500D01*
X25908500Y-40467334D01*
X51756900Y-40467334D01*
X51763655Y-40529516D01*
X51814785Y-40665905D01*
X51902139Y-40782461D01*
X52018695Y-40869815D01*
X52155084Y-40920945D01*
X52217266Y-40927700D01*
X54513534Y-40927700D01*
X54575716Y-40920945D01*
X54712105Y-40869815D01*
X54828661Y-40782461D01*
X54916015Y-40665905D01*
X54967145Y-40529516D01*
X54973900Y-40467334D01*
X54973900Y-38171066D01*
X54967145Y-38108884D01*
X54916015Y-37972495D01*
X54828661Y-37855939D01*
X54712105Y-37768585D01*
X54575716Y-37717455D01*
X54513534Y-37710700D01*
X52217266Y-37710700D01*
X52155084Y-37717455D01*
X52018695Y-37768585D01*
X51902139Y-37855939D01*
X51814785Y-37972495D01*
X51763655Y-38108884D01*
X51756900Y-38171066D01*
X51756900Y-40467334D01*
X25908500Y-40467334D01*
X25908500Y-30937200D01*
X33032126Y-30937200D01*
X33051991Y-31189603D01*
X33111095Y-31435791D01*
X33207984Y-31669702D01*
X33340272Y-31885576D01*
X33504702Y-32078098D01*
X33697224Y-32242528D01*
X33913098Y-32374816D01*
X33917668Y-32376709D01*
X33917672Y-32376711D01*
X34142436Y-32469811D01*
X34147009Y-32471705D01*
X34231632Y-32492021D01*
X34388384Y-32529654D01*
X34388390Y-32529655D01*
X34393197Y-32530809D01*
X34645600Y-32550674D01*
X34898003Y-32530809D01*
X34902810Y-32529655D01*
X34902816Y-32529654D01*
X35059568Y-32492021D01*
X35144191Y-32471705D01*
X35148764Y-32469811D01*
X35373528Y-32376711D01*
X35373532Y-32376709D01*
X35378102Y-32374816D01*
X35593976Y-32242528D01*
X35786498Y-32078098D01*
X35950928Y-31885576D01*
X36083216Y-31669702D01*
X36180105Y-31435791D01*
X36239209Y-31189603D01*
X36259074Y-30937200D01*
X38112126Y-30937200D01*
X38131991Y-31189603D01*
X38191095Y-31435791D01*
X38287984Y-31669702D01*
X38420272Y-31885576D01*
X38584702Y-32078098D01*
X38777224Y-32242528D01*
X38993098Y-32374816D01*
X38997668Y-32376709D01*
X38997672Y-32376711D01*
X39222436Y-32469811D01*
X39227009Y-32471705D01*
X39311632Y-32492021D01*
X39468384Y-32529654D01*
X39468390Y-32529655D01*
X39473197Y-32530809D01*
X39725600Y-32550674D01*
X39978003Y-32530809D01*
X39982810Y-32529655D01*
X39982816Y-32529654D01*
X40139568Y-32492021D01*
X40224191Y-32471705D01*
X40228764Y-32469811D01*
X40453528Y-32376711D01*
X40453532Y-32376709D01*
X40458102Y-32374816D01*
X40673976Y-32242528D01*
X40866498Y-32078098D01*
X41030928Y-31885576D01*
X41163216Y-31669702D01*
X41260105Y-31435791D01*
X41319209Y-31189603D01*
X41339074Y-30937200D01*
X43192126Y-30937200D01*
X43211991Y-31189603D01*
X43271095Y-31435791D01*
X43367984Y-31669702D01*
X43500272Y-31885576D01*
X43664702Y-32078098D01*
X43857224Y-32242528D01*
X44073098Y-32374816D01*
X44077668Y-32376709D01*
X44077672Y-32376711D01*
X44302436Y-32469811D01*
X44307009Y-32471705D01*
X44391632Y-32492021D01*
X44548384Y-32529654D01*
X44548390Y-32529655D01*
X44553197Y-32530809D01*
X44805600Y-32550674D01*
X45058003Y-32530809D01*
X45062810Y-32529655D01*
X45062816Y-32529654D01*
X45219568Y-32492021D01*
X45304191Y-32471705D01*
X45308764Y-32469811D01*
X45533528Y-32376711D01*
X45533532Y-32376709D01*
X45538102Y-32374816D01*
X45753976Y-32242528D01*
X45946498Y-32078098D01*
X46110928Y-31885576D01*
X46243216Y-31669702D01*
X46340105Y-31435791D01*
X46399209Y-31189603D01*
X46419074Y-30937200D01*
X48272126Y-30937200D01*
X48291991Y-31189603D01*
X48351095Y-31435791D01*
X48447984Y-31669702D01*
X48580272Y-31885576D01*
X48744702Y-32078098D01*
X48937224Y-32242528D01*
X49153098Y-32374816D01*
X49157668Y-32376709D01*
X49157672Y-32376711D01*
X49382436Y-32469811D01*
X49387009Y-32471705D01*
X49471632Y-32492021D01*
X49628384Y-32529654D01*
X49628390Y-32529655D01*
X49633197Y-32530809D01*
X49885600Y-32550674D01*
X50138003Y-32530809D01*
X50142810Y-32529655D01*
X50142816Y-32529654D01*
X50299568Y-32492021D01*
X50384191Y-32471705D01*
X50388764Y-32469811D01*
X50613528Y-32376711D01*
X50613532Y-32376709D01*
X50618102Y-32374816D01*
X50833976Y-32242528D01*
X51026498Y-32078098D01*
X51190928Y-31885576D01*
X51323216Y-31669702D01*
X51420105Y-31435791D01*
X51479209Y-31189603D01*
X51499074Y-30937200D01*
X55257126Y-30937200D01*
X55276991Y-31189603D01*
X55336095Y-31435791D01*
X55432984Y-31669702D01*
X55565272Y-31885576D01*
X55729702Y-32078098D01*
X55922224Y-32242528D01*
X56138098Y-32374816D01*
X56142668Y-32376709D01*
X56142672Y-32376711D01*
X56367436Y-32469811D01*
X56372009Y-32471705D01*
X56456632Y-32492021D01*
X56613384Y-32529654D01*
X56613390Y-32529655D01*
X56618197Y-32530809D01*
X56870600Y-32550674D01*
X57123003Y-32530809D01*
X57127810Y-32529655D01*
X57127816Y-32529654D01*
X57284568Y-32492021D01*
X57369191Y-32471705D01*
X57373764Y-32469811D01*
X57598528Y-32376711D01*
X57598532Y-32376709D01*
X57603102Y-32374816D01*
X57818976Y-32242528D01*
X58011498Y-32078098D01*
X58175928Y-31885576D01*
X58308216Y-31669702D01*
X58405105Y-31435791D01*
X58464209Y-31189603D01*
X58484074Y-30937200D01*
X60337126Y-30937200D01*
X60356991Y-31189603D01*
X60416095Y-31435791D01*
X60512984Y-31669702D01*
X60645272Y-31885576D01*
X60809702Y-32078098D01*
X61002224Y-32242528D01*
X61218098Y-32374816D01*
X61222668Y-32376709D01*
X61222672Y-32376711D01*
X61447436Y-32469811D01*
X61452009Y-32471705D01*
X61536632Y-32492021D01*
X61693384Y-32529654D01*
X61693390Y-32529655D01*
X61698197Y-32530809D01*
X61950600Y-32550674D01*
X62203003Y-32530809D01*
X62207810Y-32529655D01*
X62207816Y-32529654D01*
X62364568Y-32492021D01*
X62449191Y-32471705D01*
X62453764Y-32469811D01*
X62678528Y-32376711D01*
X62678532Y-32376709D01*
X62683102Y-32374816D01*
X62898976Y-32242528D01*
X63091498Y-32078098D01*
X63255928Y-31885576D01*
X63388216Y-31669702D01*
X63485105Y-31435791D01*
X63544209Y-31189603D01*
X63564074Y-30937200D01*
X65417126Y-30937200D01*
X65436991Y-31189603D01*
X65496095Y-31435791D01*
X65592984Y-31669702D01*
X65725272Y-31885576D01*
X65889702Y-32078098D01*
X66082224Y-32242528D01*
X66298098Y-32374816D01*
X66302668Y-32376709D01*
X66302672Y-32376711D01*
X66527436Y-32469811D01*
X66532009Y-32471705D01*
X66616632Y-32492021D01*
X66773384Y-32529654D01*
X66773390Y-32529655D01*
X66778197Y-32530809D01*
X67030600Y-32550674D01*
X67283003Y-32530809D01*
X67287810Y-32529655D01*
X67287816Y-32529654D01*
X67444568Y-32492021D01*
X67529191Y-32471705D01*
X67533764Y-32469811D01*
X67758528Y-32376711D01*
X67758532Y-32376709D01*
X67763102Y-32374816D01*
X67978976Y-32242528D01*
X68171498Y-32078098D01*
X68335928Y-31885576D01*
X68468216Y-31669702D01*
X68565105Y-31435791D01*
X68624209Y-31189603D01*
X68644074Y-30937200D01*
X70497126Y-30937200D01*
X70516991Y-31189603D01*
X70576095Y-31435791D01*
X70672984Y-31669702D01*
X70805272Y-31885576D01*
X70969702Y-32078098D01*
X71162224Y-32242528D01*
X71378098Y-32374816D01*
X71382668Y-32376709D01*
X71382672Y-32376711D01*
X71607436Y-32469811D01*
X71612009Y-32471705D01*
X71696632Y-32492021D01*
X71853384Y-32529654D01*
X71853390Y-32529655D01*
X71858197Y-32530809D01*
X72110600Y-32550674D01*
X72363003Y-32530809D01*
X72367810Y-32529655D01*
X72367816Y-32529654D01*
X72524568Y-32492021D01*
X72609191Y-32471705D01*
X72613764Y-32469811D01*
X72838528Y-32376711D01*
X72838532Y-32376709D01*
X72843102Y-32374816D01*
X73058976Y-32242528D01*
X73251498Y-32078098D01*
X73415928Y-31885576D01*
X73548216Y-31669702D01*
X73645105Y-31435791D01*
X73704209Y-31189603D01*
X73724074Y-30937200D01*
X73704209Y-30684797D01*
X73645105Y-30438609D01*
X73548216Y-30204698D01*
X73415928Y-29988824D01*
X73251498Y-29796302D01*
X73058976Y-29631872D01*
X72843102Y-29499584D01*
X72838532Y-29497691D01*
X72838528Y-29497689D01*
X72613764Y-29404589D01*
X72613762Y-29404588D01*
X72609191Y-29402695D01*
X72524568Y-29382379D01*
X72367816Y-29344746D01*
X72367810Y-29344745D01*
X72363003Y-29343591D01*
X72110600Y-29323726D01*
X71858197Y-29343591D01*
X71853390Y-29344745D01*
X71853384Y-29344746D01*
X71696632Y-29382379D01*
X71612009Y-29402695D01*
X71607438Y-29404588D01*
X71607436Y-29404589D01*
X71382672Y-29497689D01*
X71382668Y-29497691D01*
X71378098Y-29499584D01*
X71162224Y-29631872D01*
X70969702Y-29796302D01*
X70805272Y-29988824D01*
X70672984Y-30204698D01*
X70576095Y-30438609D01*
X70516991Y-30684797D01*
X70497126Y-30937200D01*
X68644074Y-30937200D01*
X68624209Y-30684797D01*
X68565105Y-30438609D01*
X68468216Y-30204698D01*
X68335928Y-29988824D01*
X68171498Y-29796302D01*
X67978976Y-29631872D01*
X67763102Y-29499584D01*
X67758532Y-29497691D01*
X67758528Y-29497689D01*
X67533764Y-29404589D01*
X67533762Y-29404588D01*
X67529191Y-29402695D01*
X67444568Y-29382379D01*
X67287816Y-29344746D01*
X67287810Y-29344745D01*
X67283003Y-29343591D01*
X67030600Y-29323726D01*
X66778197Y-29343591D01*
X66773390Y-29344745D01*
X66773384Y-29344746D01*
X66616632Y-29382379D01*
X66532009Y-29402695D01*
X66527438Y-29404588D01*
X66527436Y-29404589D01*
X66302672Y-29497689D01*
X66302668Y-29497691D01*
X66298098Y-29499584D01*
X66082224Y-29631872D01*
X65889702Y-29796302D01*
X65725272Y-29988824D01*
X65592984Y-30204698D01*
X65496095Y-30438609D01*
X65436991Y-30684797D01*
X65417126Y-30937200D01*
X63564074Y-30937200D01*
X63544209Y-30684797D01*
X63485105Y-30438609D01*
X63388216Y-30204698D01*
X63255928Y-29988824D01*
X63091498Y-29796302D01*
X62898976Y-29631872D01*
X62683102Y-29499584D01*
X62678532Y-29497691D01*
X62678528Y-29497689D01*
X62453764Y-29404589D01*
X62453762Y-29404588D01*
X62449191Y-29402695D01*
X62364568Y-29382379D01*
X62207816Y-29344746D01*
X62207810Y-29344745D01*
X62203003Y-29343591D01*
X61950600Y-29323726D01*
X61698197Y-29343591D01*
X61693390Y-29344745D01*
X61693384Y-29344746D01*
X61536632Y-29382379D01*
X61452009Y-29402695D01*
X61447438Y-29404588D01*
X61447436Y-29404589D01*
X61222672Y-29497689D01*
X61222668Y-29497691D01*
X61218098Y-29499584D01*
X61002224Y-29631872D01*
X60809702Y-29796302D01*
X60645272Y-29988824D01*
X60512984Y-30204698D01*
X60416095Y-30438609D01*
X60356991Y-30684797D01*
X60337126Y-30937200D01*
X58484074Y-30937200D01*
X58464209Y-30684797D01*
X58405105Y-30438609D01*
X58308216Y-30204698D01*
X58175928Y-29988824D01*
X58011498Y-29796302D01*
X57818976Y-29631872D01*
X57603102Y-29499584D01*
X57598532Y-29497691D01*
X57598528Y-29497689D01*
X57373764Y-29404589D01*
X57373762Y-29404588D01*
X57369191Y-29402695D01*
X57284568Y-29382379D01*
X57127816Y-29344746D01*
X57127810Y-29344745D01*
X57123003Y-29343591D01*
X56870600Y-29323726D01*
X56618197Y-29343591D01*
X56613390Y-29344745D01*
X56613384Y-29344746D01*
X56456632Y-29382379D01*
X56372009Y-29402695D01*
X56367438Y-29404588D01*
X56367436Y-29404589D01*
X56142672Y-29497689D01*
X56142668Y-29497691D01*
X56138098Y-29499584D01*
X55922224Y-29631872D01*
X55729702Y-29796302D01*
X55565272Y-29988824D01*
X55432984Y-30204698D01*
X55336095Y-30438609D01*
X55276991Y-30684797D01*
X55257126Y-30937200D01*
X51499074Y-30937200D01*
X51479209Y-30684797D01*
X51420105Y-30438609D01*
X51323216Y-30204698D01*
X51190928Y-29988824D01*
X51026498Y-29796302D01*
X50833976Y-29631872D01*
X50618102Y-29499584D01*
X50613532Y-29497691D01*
X50613528Y-29497689D01*
X50388764Y-29404589D01*
X50388762Y-29404588D01*
X50384191Y-29402695D01*
X50299568Y-29382379D01*
X50142816Y-29344746D01*
X50142810Y-29344745D01*
X50138003Y-29343591D01*
X49885600Y-29323726D01*
X49633197Y-29343591D01*
X49628390Y-29344745D01*
X49628384Y-29344746D01*
X49471632Y-29382379D01*
X49387009Y-29402695D01*
X49382438Y-29404588D01*
X49382436Y-29404589D01*
X49157672Y-29497689D01*
X49157668Y-29497691D01*
X49153098Y-29499584D01*
X48937224Y-29631872D01*
X48744702Y-29796302D01*
X48580272Y-29988824D01*
X48447984Y-30204698D01*
X48351095Y-30438609D01*
X48291991Y-30684797D01*
X48272126Y-30937200D01*
X46419074Y-30937200D01*
X46399209Y-30684797D01*
X46340105Y-30438609D01*
X46243216Y-30204698D01*
X46110928Y-29988824D01*
X45946498Y-29796302D01*
X45753976Y-29631872D01*
X45538102Y-29499584D01*
X45533532Y-29497691D01*
X45533528Y-29497689D01*
X45308764Y-29404589D01*
X45308762Y-29404588D01*
X45304191Y-29402695D01*
X45219568Y-29382379D01*
X45062816Y-29344746D01*
X45062810Y-29344745D01*
X45058003Y-29343591D01*
X44805600Y-29323726D01*
X44553197Y-29343591D01*
X44548390Y-29344745D01*
X44548384Y-29344746D01*
X44391632Y-29382379D01*
X44307009Y-29402695D01*
X44302438Y-29404588D01*
X44302436Y-29404589D01*
X44077672Y-29497689D01*
X44077668Y-29497691D01*
X44073098Y-29499584D01*
X43857224Y-29631872D01*
X43664702Y-29796302D01*
X43500272Y-29988824D01*
X43367984Y-30204698D01*
X43271095Y-30438609D01*
X43211991Y-30684797D01*
X43192126Y-30937200D01*
X41339074Y-30937200D01*
X41319209Y-30684797D01*
X41260105Y-30438609D01*
X41163216Y-30204698D01*
X41030928Y-29988824D01*
X40866498Y-29796302D01*
X40673976Y-29631872D01*
X40458102Y-29499584D01*
X40453532Y-29497691D01*
X40453528Y-29497689D01*
X40228764Y-29404589D01*
X40228762Y-29404588D01*
X40224191Y-29402695D01*
X40139568Y-29382379D01*
X39982816Y-29344746D01*
X39982810Y-29344745D01*
X39978003Y-29343591D01*
X39725600Y-29323726D01*
X39473197Y-29343591D01*
X39468390Y-29344745D01*
X39468384Y-29344746D01*
X39311632Y-29382379D01*
X39227009Y-29402695D01*
X39222438Y-29404588D01*
X39222436Y-29404589D01*
X38997672Y-29497689D01*
X38997668Y-29497691D01*
X38993098Y-29499584D01*
X38777224Y-29631872D01*
X38584702Y-29796302D01*
X38420272Y-29988824D01*
X38287984Y-30204698D01*
X38191095Y-30438609D01*
X38131991Y-30684797D01*
X38112126Y-30937200D01*
X36259074Y-30937200D01*
X36239209Y-30684797D01*
X36180105Y-30438609D01*
X36083216Y-30204698D01*
X35950928Y-29988824D01*
X35786498Y-29796302D01*
X35593976Y-29631872D01*
X35378102Y-29499584D01*
X35373532Y-29497691D01*
X35373528Y-29497689D01*
X35148764Y-29404589D01*
X35148762Y-29404588D01*
X35144191Y-29402695D01*
X35059568Y-29382379D01*
X34902816Y-29344746D01*
X34902810Y-29344745D01*
X34898003Y-29343591D01*
X34645600Y-29323726D01*
X34393197Y-29343591D01*
X34388390Y-29344745D01*
X34388384Y-29344746D01*
X34231632Y-29382379D01*
X34147009Y-29402695D01*
X34142438Y-29404588D01*
X34142436Y-29404589D01*
X33917672Y-29497689D01*
X33917668Y-29497691D01*
X33913098Y-29499584D01*
X33697224Y-29631872D01*
X33504702Y-29796302D01*
X33340272Y-29988824D01*
X33207984Y-30204698D01*
X33111095Y-30438609D01*
X33051991Y-30684797D01*
X33032126Y-30937200D01*
X25908500Y-30937200D01*
X25908500Y-26034500D01*
X25928502Y-25966379D01*
X25982158Y-25919886D01*
X26034500Y-25908500D01*
X83185500Y-25908500D01*
X83253621Y-25928502D01*
G37*
G04 #@! TD.AperFunction*
M02*
