M48
; DRILL file {KiCad (6.0.7)} date Fri Jun 30 09:59:46 2023
; FORMAT={-:-/ absolute / metric / decimal}
; #@! TF.CreationDate,2023-06-30T09:59:46-07:00
; #@! TF.GenerationSoftware,Kicad,Pcbnew,(6.0.7)
; #@! TF.FileFunction,Plated,1,2,PTH
FMAT,2
METRIC
; #@! TA.AperFunction,Plated,PTH,ViaDrill
T1C0.400
; #@! TA.AperFunction,Plated,PTH,ComponentDrill
T2C1.100
; #@! TA.AperFunction,Plated,PTH,ComponentDrill
T3C3.200
%
G90
G05
T1
X44.225Y-39.375
T2
X34.646Y-30.937
X37.186Y-30.937
X39.726Y-30.937
X42.266Y-30.937
X44.806Y-30.937
X47.346Y-30.937
X49.886Y-30.937
X52.426Y-30.937
X53.365Y-39.319
X55.905Y-39.319
X56.871Y-30.937
X59.411Y-30.937
X61.951Y-30.937
X64.491Y-30.937
X67.031Y-30.937
X69.571Y-30.937
X72.111Y-30.937
X74.651Y-30.937
T3
X29.21Y-28.575
X29.261Y-41.275
X80.01Y-28.575
X80.01Y-41.275
T0
M30
