%TF.GenerationSoftware,KiCad,Pcbnew,8.0.6*%
%TF.CreationDate,2025-01-17T02:30:25-08:00*%
%TF.ProjectId,Constellation Saddle V1.0,436f6e73-7465-46c6-9c61-74696f6e2053,rev?*%
%TF.SameCoordinates,Original*%
%TF.FileFunction,Drillmap*%
%TF.FilePolarity,Positive*%
%FSLAX45Y45*%
G04 Gerber Fmt 4.5, Leading zero omitted, Abs format (unit mm)*
G04 Created by KiCad (PCBNEW 8.0.6) date 2025-01-17 02:30:25*
%MOMM*%
%LPD*%
G01*
G04 APERTURE LIST*
%ADD10C,0.100000*%
%ADD11C,0.200000*%
G04 APERTURE END LIST*
D10*
X6858000Y-3556000D02*
G75*
G02*
X7239000Y-3937000I0J-381000D01*
G01*
X2159000Y-7493000D02*
G75*
G02*
X2540000Y-7874000I0J-381000D01*
G01*
X2921000Y-8255000D02*
G75*
G02*
X2540000Y-7874000I0J381000D01*
G01*
X7112000Y-635000D02*
X3683000Y-635000D01*
X8636000Y-3302000D02*
X9779000Y-3302000D01*
X7874000Y-2540000D02*
G75*
G02*
X8255000Y-2921000I0J-381000D01*
G01*
X3302000Y-1016000D02*
G75*
G02*
X3683000Y-635000I381000J0D01*
G01*
X635000Y-3683000D02*
X635000Y-7112000D01*
X7493000Y-8636000D02*
G75*
G02*
X7874000Y-8255000I381000J0D01*
G01*
X3556000Y-3937000D02*
X3556000Y-6858000D01*
X3302000Y-2159000D02*
X3302000Y-1016000D01*
X3683000Y-10160000D02*
X7112000Y-10160000D01*
X2159000Y-3302000D02*
X1016000Y-3302000D01*
X2159000Y-7493000D02*
X1016000Y-7493000D01*
X3556000Y-3937000D02*
G75*
G02*
X3937000Y-3556000I381000J0D01*
G01*
X3302000Y-8636000D02*
X3302000Y-9779000D01*
X8636000Y-7493000D02*
X9779000Y-7493000D01*
X8636000Y-3302000D02*
G75*
G02*
X8255000Y-2921000I0J381000D01*
G01*
X7493000Y-9779000D02*
G75*
G02*
X7112000Y-10160000I-381000J0D01*
G01*
X3937000Y-7239000D02*
X6858000Y-7239000D01*
X9779000Y-3302000D02*
G75*
G02*
X10160000Y-3683000I0J-381000D01*
G01*
X7112000Y-635000D02*
G75*
G02*
X7493000Y-1016000I0J-381000D01*
G01*
X2540000Y-2921000D02*
G75*
G02*
X2159000Y-3302000I-381000J0D01*
G01*
X3937000Y-7239000D02*
G75*
G02*
X3556000Y-6858000I10290J391290D01*
G01*
X8255000Y-7874000D02*
G75*
G02*
X8636000Y-7493000I381000J0D01*
G01*
X3302000Y-2159000D02*
G75*
G02*
X2921000Y-2540000I-381000J0D01*
G01*
X7493000Y-2159000D02*
X7493000Y-1016000D01*
X7493000Y-8636000D02*
X7493000Y-9779000D01*
X10160000Y-7112000D02*
X10160000Y-3683000D01*
X8255000Y-7874000D02*
G75*
G02*
X7874000Y-8255000I-381000J0D01*
G01*
X635000Y-3683000D02*
G75*
G02*
X1016000Y-3302000I381000J0D01*
G01*
X7239000Y-3937000D02*
X7239000Y-6858000D01*
X2540000Y-2921000D02*
G75*
G02*
X2921000Y-2540000I381000J0D01*
G01*
X7874000Y-2540000D02*
G75*
G02*
X7493000Y-2159000I0J381000D01*
G01*
X3937000Y-3556000D02*
X6858000Y-3556000D01*
X10160000Y-7112000D02*
G75*
G02*
X9779000Y-7493000I-381000J0D01*
G01*
X3683000Y-10160000D02*
G75*
G02*
X3302000Y-9779000I0J381000D01*
G01*
X1016000Y-7493000D02*
G75*
G02*
X635000Y-7112000I0J381000D01*
G01*
X2921000Y-8255000D02*
G75*
G02*
X3302000Y-8636000I0J-381000D01*
G01*
X7239000Y-6858000D02*
G75*
G02*
X6858000Y-7239000I-372897J-8103D01*
G01*
D11*
X890777Y-10476484D02*
X890777Y-10276484D01*
X890777Y-10276484D02*
X938396Y-10276484D01*
X938396Y-10276484D02*
X966967Y-10286008D01*
X966967Y-10286008D02*
X986015Y-10305055D01*
X986015Y-10305055D02*
X995539Y-10324103D01*
X995539Y-10324103D02*
X1005062Y-10362198D01*
X1005062Y-10362198D02*
X1005062Y-10390770D01*
X1005062Y-10390770D02*
X995539Y-10428865D01*
X995539Y-10428865D02*
X986015Y-10447912D01*
X986015Y-10447912D02*
X966967Y-10466960D01*
X966967Y-10466960D02*
X938396Y-10476484D01*
X938396Y-10476484D02*
X890777Y-10476484D01*
X1090777Y-10476484D02*
X1090777Y-10343150D01*
X1090777Y-10381246D02*
X1100301Y-10362198D01*
X1100301Y-10362198D02*
X1109824Y-10352674D01*
X1109824Y-10352674D02*
X1128872Y-10343150D01*
X1128872Y-10343150D02*
X1147920Y-10343150D01*
X1214586Y-10476484D02*
X1214586Y-10343150D01*
X1214586Y-10276484D02*
X1205063Y-10286008D01*
X1205063Y-10286008D02*
X1214586Y-10295531D01*
X1214586Y-10295531D02*
X1224110Y-10286008D01*
X1224110Y-10286008D02*
X1214586Y-10276484D01*
X1214586Y-10276484D02*
X1214586Y-10295531D01*
X1338396Y-10476484D02*
X1319348Y-10466960D01*
X1319348Y-10466960D02*
X1309824Y-10447912D01*
X1309824Y-10447912D02*
X1309824Y-10276484D01*
X1443158Y-10476484D02*
X1424110Y-10466960D01*
X1424110Y-10466960D02*
X1414586Y-10447912D01*
X1414586Y-10447912D02*
X1414586Y-10276484D01*
X1671729Y-10476484D02*
X1671729Y-10276484D01*
X1671729Y-10276484D02*
X1738396Y-10419341D01*
X1738396Y-10419341D02*
X1805062Y-10276484D01*
X1805062Y-10276484D02*
X1805062Y-10476484D01*
X1986015Y-10476484D02*
X1986015Y-10371722D01*
X1986015Y-10371722D02*
X1976491Y-10352674D01*
X1976491Y-10352674D02*
X1957443Y-10343150D01*
X1957443Y-10343150D02*
X1919348Y-10343150D01*
X1919348Y-10343150D02*
X1900301Y-10352674D01*
X1986015Y-10466960D02*
X1966967Y-10476484D01*
X1966967Y-10476484D02*
X1919348Y-10476484D01*
X1919348Y-10476484D02*
X1900301Y-10466960D01*
X1900301Y-10466960D02*
X1890777Y-10447912D01*
X1890777Y-10447912D02*
X1890777Y-10428865D01*
X1890777Y-10428865D02*
X1900301Y-10409817D01*
X1900301Y-10409817D02*
X1919348Y-10400293D01*
X1919348Y-10400293D02*
X1966967Y-10400293D01*
X1966967Y-10400293D02*
X1986015Y-10390770D01*
X2081253Y-10343150D02*
X2081253Y-10543150D01*
X2081253Y-10352674D02*
X2100301Y-10343150D01*
X2100301Y-10343150D02*
X2138396Y-10343150D01*
X2138396Y-10343150D02*
X2157444Y-10352674D01*
X2157444Y-10352674D02*
X2166967Y-10362198D01*
X2166967Y-10362198D02*
X2176491Y-10381246D01*
X2176491Y-10381246D02*
X2176491Y-10438389D01*
X2176491Y-10438389D02*
X2166967Y-10457436D01*
X2166967Y-10457436D02*
X2157444Y-10466960D01*
X2157444Y-10466960D02*
X2138396Y-10476484D01*
X2138396Y-10476484D02*
X2100301Y-10476484D01*
X2100301Y-10476484D02*
X2081253Y-10466960D01*
X2262205Y-10457436D02*
X2271729Y-10466960D01*
X2271729Y-10466960D02*
X2262205Y-10476484D01*
X2262205Y-10476484D02*
X2252682Y-10466960D01*
X2252682Y-10466960D02*
X2262205Y-10457436D01*
X2262205Y-10457436D02*
X2262205Y-10476484D01*
X2262205Y-10352674D02*
X2271729Y-10362198D01*
X2271729Y-10362198D02*
X2262205Y-10371722D01*
X2262205Y-10371722D02*
X2252682Y-10362198D01*
X2252682Y-10362198D02*
X2262205Y-10352674D01*
X2262205Y-10352674D02*
X2262205Y-10371722D01*
M02*
