G04 #@! TF.GenerationSoftware,KiCad,Pcbnew,(6.0.7)*
G04 #@! TF.CreationDate,2023-06-30T10:05:50-07:00*
G04 #@! TF.ProjectId,Solenoid Board Ground Systems,536f6c65-6e6f-4696-9420-426f61726420,rev?*
G04 #@! TF.SameCoordinates,Original*
G04 #@! TF.FileFunction,Copper,L1,Top*
G04 #@! TF.FilePolarity,Positive*
%FSLAX46Y46*%
G04 Gerber Fmt 4.6, Leading zero omitted, Abs format (unit mm)*
G04 Created by KiCad (PCBNEW (6.0.7)) date 2023-06-30 10:05:50*
%MOMM*%
%LPD*%
G01*
G04 APERTURE LIST*
G04 Aperture macros list*
%AMRoundRect*
0 Rectangle with rounded corners*
0 $1 Rounding radius*
0 $2 $3 $4 $5 $6 $7 $8 $9 X,Y pos of 4 corners*
0 Add a 4 corners polygon primitive as box body*
4,1,4,$2,$3,$4,$5,$6,$7,$8,$9,$2,$3,0*
0 Add four circle primitives for the rounded corners*
1,1,$1+$1,$2,$3*
1,1,$1+$1,$4,$5*
1,1,$1+$1,$6,$7*
1,1,$1+$1,$8,$9*
0 Add four rect primitives between the rounded corners*
20,1,$1+$1,$2,$3,$4,$5,0*
20,1,$1+$1,$4,$5,$6,$7,0*
20,1,$1+$1,$6,$7,$8,$9,0*
20,1,$1+$1,$8,$9,$2,$3,0*%
G04 Aperture macros list end*
G04 #@! TA.AperFunction,SMDPad,CuDef*
%ADD10RoundRect,0.243750X-0.456250X0.243750X-0.456250X-0.243750X0.456250X-0.243750X0.456250X0.243750X0*%
G04 #@! TD*
G04 #@! TA.AperFunction,SMDPad,CuDef*
%ADD11RoundRect,0.200000X-0.200000X-0.275000X0.200000X-0.275000X0.200000X0.275000X-0.200000X0.275000X0*%
G04 #@! TD*
G04 #@! TA.AperFunction,ComponentPad*
%ADD12R,2.200000X2.200000*%
G04 #@! TD*
G04 #@! TA.AperFunction,ComponentPad*
%ADD13C,2.200000*%
G04 #@! TD*
G04 #@! TA.AperFunction,ConnectorPad*
%ADD14C,5.600000*%
G04 #@! TD*
G04 #@! TA.AperFunction,ComponentPad*
%ADD15C,3.600000*%
G04 #@! TD*
G04 #@! TA.AperFunction,SMDPad,CuDef*
%ADD16RoundRect,0.150000X-0.150000X0.587500X-0.150000X-0.587500X0.150000X-0.587500X0.150000X0.587500X0*%
G04 #@! TD*
G04 #@! TA.AperFunction,ViaPad*
%ADD17C,0.700000*%
G04 #@! TD*
G04 #@! TA.AperFunction,Conductor*
%ADD18C,1.000000*%
G04 #@! TD*
G04 #@! TA.AperFunction,Conductor*
%ADD19C,0.500000*%
G04 #@! TD*
G04 APERTURE END LIST*
D10*
X75414287Y-42162500D03*
X75414287Y-44037500D03*
D11*
X71310713Y-45590000D03*
X72960713Y-45590000D03*
D12*
X46840000Y-53250000D03*
D13*
X49380000Y-53250000D03*
X51920000Y-53250000D03*
X54460000Y-53250000D03*
X57000000Y-53250000D03*
X59540000Y-53250000D03*
X62080000Y-53250000D03*
X64620000Y-53250000D03*
X67160000Y-53250000D03*
D14*
X85090000Y-29210000D03*
D15*
X85090000Y-29210000D03*
D11*
X36789287Y-45590000D03*
X38439287Y-45590000D03*
D14*
X29210000Y-29210000D03*
D15*
X29210000Y-29210000D03*
D11*
X65557142Y-45590000D03*
X67207142Y-45590000D03*
D16*
X51325000Y-35237500D03*
X49425000Y-35237500D03*
X50375000Y-37112500D03*
D11*
X48296429Y-45590000D03*
X49946429Y-45590000D03*
D16*
X65125000Y-35237500D03*
X63225000Y-35237500D03*
X64175000Y-37112500D03*
D10*
X69660713Y-42162500D03*
X69660713Y-44037500D03*
D11*
X54050000Y-45590000D03*
X55700000Y-45590000D03*
D16*
X41150000Y-35237500D03*
X39250000Y-35237500D03*
X40200000Y-37112500D03*
D10*
X63907142Y-42162500D03*
X63907142Y-44037500D03*
X46646429Y-42162500D03*
X46646429Y-44037500D03*
D12*
X79400400Y-30480000D03*
D13*
X76860400Y-30480000D03*
X74320400Y-30480000D03*
X71780400Y-30480000D03*
X69240400Y-30480000D03*
X66700400Y-30480000D03*
X64160400Y-30480000D03*
X61620400Y-30480000D03*
D11*
X77064287Y-45590000D03*
X78714287Y-45590000D03*
D16*
X75275000Y-35237500D03*
X73375000Y-35237500D03*
X74325000Y-37112500D03*
D11*
X59803571Y-45590000D03*
X61453571Y-45590000D03*
D14*
X29210000Y-54610000D03*
D15*
X29210000Y-54610000D03*
D10*
X35139287Y-42162500D03*
X35139287Y-44037500D03*
X58153571Y-42162500D03*
X58153571Y-44037500D03*
X52400000Y-42162500D03*
X52400000Y-44037500D03*
D14*
X85090000Y-54610000D03*
D15*
X85090000Y-54610000D03*
D11*
X42542858Y-45590000D03*
X44192858Y-45590000D03*
D10*
X40892858Y-42162500D03*
X40892858Y-44037500D03*
D12*
X52920000Y-30480000D03*
D13*
X50380000Y-30480000D03*
X47840000Y-30480000D03*
X45300000Y-30480000D03*
X42760000Y-30480000D03*
X40220000Y-30480000D03*
X37680000Y-30480000D03*
X35140000Y-30480000D03*
D17*
X50424500Y-38200000D03*
X64174500Y-38200000D03*
X40900000Y-41150000D03*
X74275000Y-38200000D03*
X75450000Y-41125000D03*
X52375000Y-41150000D03*
X46625000Y-41125000D03*
X35125000Y-41150000D03*
X63900000Y-41125000D03*
X58150000Y-41150000D03*
X69650000Y-41150000D03*
X40249500Y-38196419D03*
D18*
X78714287Y-45590000D02*
X78714287Y-41489287D01*
X75325000Y-35287500D02*
X75275000Y-35237500D01*
X75275000Y-34075000D02*
X75275000Y-35237500D01*
X75325000Y-38100000D02*
X75325000Y-35287500D01*
X66000000Y-50425000D02*
X75525000Y-50425000D01*
X64620000Y-53250000D02*
X64620000Y-51805000D01*
X75525000Y-50425000D02*
X78714287Y-47235713D01*
X78714287Y-41489287D02*
X75325000Y-38100000D01*
X64620000Y-51805000D02*
X66000000Y-50425000D01*
X78714287Y-46835713D02*
X78714287Y-45590000D01*
X76860400Y-30480000D02*
X76860400Y-32489600D01*
X76860400Y-32489600D02*
X75275000Y-34075000D01*
X78714287Y-47235713D02*
X78714287Y-46835713D01*
D19*
X77064287Y-45590000D02*
X75990000Y-45590000D01*
X75414287Y-45014287D02*
X75414287Y-44037500D01*
X75990000Y-45590000D02*
X75414287Y-45014287D01*
D18*
X71780400Y-30480000D02*
X71780400Y-33642900D01*
X71780400Y-33642900D02*
X73375000Y-35237500D01*
X72960713Y-47239287D02*
X71400000Y-48800000D01*
X63900000Y-48800000D02*
X62080000Y-50620000D01*
X62080000Y-50620000D02*
X62080000Y-53250000D01*
X72960713Y-45590000D02*
X72960713Y-47239287D01*
X72960713Y-35651787D02*
X73375000Y-35237500D01*
X72960713Y-45590000D02*
X72960713Y-35651787D01*
X71400000Y-48800000D02*
X63900000Y-48800000D01*
X59540000Y-50160000D02*
X59540000Y-53250000D01*
X65125000Y-36200000D02*
X67207142Y-38282142D01*
X67207142Y-46417858D02*
X66350000Y-47275000D01*
X65125000Y-33375000D02*
X65125000Y-35237500D01*
X66350000Y-47275000D02*
X62425000Y-47275000D01*
X66700400Y-31799600D02*
X65125000Y-33375000D01*
X65125000Y-35237500D02*
X65125000Y-36200000D01*
X66700400Y-30480000D02*
X66700400Y-31799600D01*
X67207142Y-45590000D02*
X67207142Y-46417858D01*
X67207142Y-38282142D02*
X67207142Y-45590000D01*
X62425000Y-47275000D02*
X59540000Y-50160000D01*
D19*
X65557142Y-45590000D02*
X64565000Y-45590000D01*
X63907142Y-44932142D02*
X63907142Y-44037500D01*
X64565000Y-45590000D02*
X63907142Y-44932142D01*
D18*
X63125000Y-35337500D02*
X63225000Y-35237500D01*
X59650000Y-47825000D02*
X57675000Y-47825000D01*
X61453571Y-45590000D02*
X61453571Y-41296429D01*
X61453571Y-41296429D02*
X63125000Y-39625000D01*
X63225000Y-33300000D02*
X63225000Y-35237500D01*
X63125000Y-39625000D02*
X63125000Y-35337500D01*
X61453571Y-45590000D02*
X61453571Y-46021429D01*
X61620400Y-30480000D02*
X61620400Y-31695400D01*
X61453571Y-46021429D02*
X59650000Y-47825000D01*
X61620400Y-31695400D02*
X63225000Y-33300000D01*
X57000000Y-48500000D02*
X57000000Y-53250000D01*
X57675000Y-47825000D02*
X57000000Y-48500000D01*
D19*
X54050000Y-45590000D02*
X52890000Y-45590000D01*
X52890000Y-45590000D02*
X52400000Y-45100000D01*
X52400000Y-45100000D02*
X52400000Y-44037500D01*
D18*
X55700000Y-40225000D02*
X55700000Y-45590000D01*
X51325000Y-35850000D02*
X55700000Y-40225000D01*
X50380000Y-30480000D02*
X50380000Y-32580000D01*
X55700000Y-46600000D02*
X54460000Y-47840000D01*
X54460000Y-47840000D02*
X54460000Y-53250000D01*
X55700000Y-45590000D02*
X55700000Y-46600000D01*
X51325000Y-35237500D02*
X51325000Y-35850000D01*
X50380000Y-32580000D02*
X51325000Y-33525000D01*
X51325000Y-33525000D02*
X51325000Y-35237500D01*
D19*
X69660713Y-45160713D02*
X69660713Y-44037500D01*
X70090000Y-45590000D02*
X69660713Y-45160713D01*
X71310713Y-45590000D02*
X70090000Y-45590000D01*
X40892858Y-45267858D02*
X40892858Y-44037500D01*
X42542858Y-45590000D02*
X41215000Y-45590000D01*
X41215000Y-45590000D02*
X40892858Y-45267858D01*
D18*
X49946429Y-45590000D02*
X49946429Y-48746429D01*
X49975000Y-41150000D02*
X49975000Y-45561429D01*
X45300000Y-31550000D02*
X48987500Y-35237500D01*
X49375000Y-35287500D02*
X49375000Y-40550000D01*
X49946429Y-48746429D02*
X51920000Y-50720000D01*
X49375000Y-40550000D02*
X49975000Y-41150000D01*
X49425000Y-35237500D02*
X49375000Y-35287500D01*
X45300000Y-30480000D02*
X45300000Y-31550000D01*
X51920000Y-50720000D02*
X51920000Y-53250000D01*
X49975000Y-45561429D02*
X49946429Y-45590000D01*
X48987500Y-35237500D02*
X49425000Y-35237500D01*
X44192858Y-49717858D02*
X45350000Y-50875000D01*
X45350000Y-50875000D02*
X48150000Y-50875000D01*
X41150000Y-33850000D02*
X41150000Y-35237500D01*
X48150000Y-50875000D02*
X49380000Y-52105000D01*
X49380000Y-52105000D02*
X49380000Y-53250000D01*
X44192858Y-38842858D02*
X44192858Y-45590000D01*
X41150000Y-35800000D02*
X44192858Y-38842858D01*
X40220000Y-32920000D02*
X41150000Y-33850000D01*
X44192858Y-45590000D02*
X44192858Y-49717858D01*
X40220000Y-30480000D02*
X40220000Y-32920000D01*
X41150000Y-35237500D02*
X41150000Y-35800000D01*
X39212500Y-35237500D02*
X39250000Y-35237500D01*
X41575000Y-53250000D02*
X38350000Y-50025000D01*
X39200000Y-38625000D02*
X38439287Y-39385713D01*
X39200000Y-35287500D02*
X39200000Y-38625000D01*
X35140000Y-31165000D02*
X39212500Y-35237500D01*
X38350000Y-45679287D02*
X38439287Y-45590000D01*
X46840000Y-53250000D02*
X41575000Y-53250000D01*
X38350000Y-50025000D02*
X38350000Y-45679287D01*
X38439287Y-39385713D02*
X38439287Y-45590000D01*
X39250000Y-35237500D02*
X39200000Y-35287500D01*
X35140000Y-30480000D02*
X35140000Y-31165000D01*
D19*
X58440000Y-45590000D02*
X58153571Y-45303571D01*
X58153571Y-45303571D02*
X58153571Y-44037500D01*
X59803571Y-45590000D02*
X58440000Y-45590000D01*
X47065000Y-45590000D02*
X46646429Y-45171429D01*
X48296429Y-45590000D02*
X47065000Y-45590000D01*
X46646429Y-45171429D02*
X46646429Y-44037500D01*
X36789287Y-45590000D02*
X35565000Y-45590000D01*
X35565000Y-45590000D02*
X35139287Y-45164287D01*
X35139287Y-45164287D02*
X35139287Y-44037500D01*
X52400000Y-42162500D02*
X52400000Y-41175000D01*
X69660713Y-41160713D02*
X69650000Y-41150000D01*
X52400000Y-41175000D02*
X52375000Y-41150000D01*
X35139287Y-41164287D02*
X35125000Y-41150000D01*
X50375000Y-37112500D02*
X50375000Y-38150500D01*
X58153571Y-42162500D02*
X58153571Y-41153571D01*
X74325000Y-37112500D02*
X74325000Y-38150000D01*
X40892858Y-41157142D02*
X40900000Y-41150000D01*
X46646429Y-41146429D02*
X46625000Y-41125000D01*
X35139287Y-42162500D02*
X35139287Y-41164287D01*
X50375000Y-38150500D02*
X50424500Y-38200000D01*
X75414287Y-41160713D02*
X75450000Y-41125000D01*
X74325000Y-38150000D02*
X74275000Y-38200000D01*
X40200000Y-38146919D02*
X40249500Y-38196419D01*
X64175000Y-38199500D02*
X64174500Y-38200000D01*
X46646429Y-42162500D02*
X46646429Y-41146429D01*
X63907142Y-42162500D02*
X63907142Y-41132142D01*
X64175000Y-37112500D02*
X64175000Y-38199500D01*
X75414287Y-42162500D02*
X75414287Y-41160713D01*
X63907142Y-41132142D02*
X63900000Y-41125000D01*
X58153571Y-41153571D02*
X58150000Y-41150000D01*
X69660713Y-42162500D02*
X69660713Y-41160713D01*
X40200000Y-37112500D02*
X40200000Y-38146919D01*
X40892858Y-42162500D02*
X40892858Y-41157142D01*
M02*
