G04 #@! TF.GenerationSoftware,KiCad,Pcbnew,(6.0.7)*
G04 #@! TF.CreationDate,2023-06-30T23:32:05-07:00*
G04 #@! TF.ProjectId,RFD900 Interface,52464439-3030-4204-996e-746572666163,rev?*
G04 #@! TF.SameCoordinates,Original*
G04 #@! TF.FileFunction,Legend,Bot*
G04 #@! TF.FilePolarity,Positive*
%FSLAX46Y46*%
G04 Gerber Fmt 4.6, Leading zero omitted, Abs format (unit mm)*
G04 Created by KiCad (PCBNEW (6.0.7)) date 2023-06-30 23:32:05*
%MOMM*%
%LPD*%
G01*
G04 APERTURE LIST*
%ADD10C,0.150000*%
%ADD11C,0.120000*%
%ADD12R,1.700000X1.700000*%
%ADD13O,1.700000X1.700000*%
G04 APERTURE END LIST*
D10*
X49383333Y-32717380D02*
X49716666Y-32241190D01*
X49954761Y-32717380D02*
X49954761Y-31717380D01*
X49573809Y-31717380D01*
X49478571Y-31765000D01*
X49430952Y-31812619D01*
X49383333Y-31907857D01*
X49383333Y-32050714D01*
X49430952Y-32145952D01*
X49478571Y-32193571D01*
X49573809Y-32241190D01*
X49954761Y-32241190D01*
X48621428Y-32193571D02*
X48954761Y-32193571D01*
X48954761Y-32717380D02*
X48954761Y-31717380D01*
X48478571Y-31717380D01*
X48097619Y-32717380D02*
X48097619Y-31717380D01*
X47859523Y-31717380D01*
X47716666Y-31765000D01*
X47621428Y-31860238D01*
X47573809Y-31955476D01*
X47526190Y-32145952D01*
X47526190Y-32288809D01*
X47573809Y-32479285D01*
X47621428Y-32574523D01*
X47716666Y-32669761D01*
X47859523Y-32717380D01*
X48097619Y-32717380D01*
X47050000Y-32717380D02*
X46859523Y-32717380D01*
X46764285Y-32669761D01*
X46716666Y-32622142D01*
X46621428Y-32479285D01*
X46573809Y-32288809D01*
X46573809Y-31907857D01*
X46621428Y-31812619D01*
X46669047Y-31765000D01*
X46764285Y-31717380D01*
X46954761Y-31717380D01*
X47050000Y-31765000D01*
X47097619Y-31812619D01*
X47145238Y-31907857D01*
X47145238Y-32145952D01*
X47097619Y-32241190D01*
X47050000Y-32288809D01*
X46954761Y-32336428D01*
X46764285Y-32336428D01*
X46669047Y-32288809D01*
X46621428Y-32241190D01*
X46573809Y-32145952D01*
X45954761Y-31717380D02*
X45859523Y-31717380D01*
X45764285Y-31765000D01*
X45716666Y-31812619D01*
X45669047Y-31907857D01*
X45621428Y-32098333D01*
X45621428Y-32336428D01*
X45669047Y-32526904D01*
X45716666Y-32622142D01*
X45764285Y-32669761D01*
X45859523Y-32717380D01*
X45954761Y-32717380D01*
X46050000Y-32669761D01*
X46097619Y-32622142D01*
X46145238Y-32526904D01*
X46192857Y-32336428D01*
X46192857Y-32098333D01*
X46145238Y-31907857D01*
X46097619Y-31812619D01*
X46050000Y-31765000D01*
X45954761Y-31717380D01*
X45002380Y-31717380D02*
X44907142Y-31717380D01*
X44811904Y-31765000D01*
X44764285Y-31812619D01*
X44716666Y-31907857D01*
X44669047Y-32098333D01*
X44669047Y-32336428D01*
X44716666Y-32526904D01*
X44764285Y-32622142D01*
X44811904Y-32669761D01*
X44907142Y-32717380D01*
X45002380Y-32717380D01*
X45097619Y-32669761D01*
X45145238Y-32622142D01*
X45192857Y-32526904D01*
X45240476Y-32336428D01*
X45240476Y-32098333D01*
X45192857Y-31907857D01*
X45145238Y-31812619D01*
X45097619Y-31765000D01*
X45002380Y-31717380D01*
X43478571Y-32717380D02*
X43478571Y-31717380D01*
X43002380Y-32717380D02*
X43002380Y-31717380D01*
X42430952Y-32717380D01*
X42430952Y-31717380D01*
X42097619Y-31717380D02*
X41526190Y-31717380D01*
X41811904Y-32717380D02*
X41811904Y-31717380D01*
X41192857Y-32193571D02*
X40859523Y-32193571D01*
X40716666Y-32717380D02*
X41192857Y-32717380D01*
X41192857Y-31717380D01*
X40716666Y-31717380D01*
X39716666Y-32717380D02*
X40050000Y-32241190D01*
X40288095Y-32717380D02*
X40288095Y-31717380D01*
X39907142Y-31717380D01*
X39811904Y-31765000D01*
X39764285Y-31812619D01*
X39716666Y-31907857D01*
X39716666Y-32050714D01*
X39764285Y-32145952D01*
X39811904Y-32193571D01*
X39907142Y-32241190D01*
X40288095Y-32241190D01*
X38954761Y-32193571D02*
X39288095Y-32193571D01*
X39288095Y-32717380D02*
X39288095Y-31717380D01*
X38811904Y-31717380D01*
X38478571Y-32431666D02*
X38002380Y-32431666D01*
X38573809Y-32717380D02*
X38240476Y-31717380D01*
X37907142Y-32717380D01*
X37002380Y-32622142D02*
X37050000Y-32669761D01*
X37192857Y-32717380D01*
X37288095Y-32717380D01*
X37430952Y-32669761D01*
X37526190Y-32574523D01*
X37573809Y-32479285D01*
X37621428Y-32288809D01*
X37621428Y-32145952D01*
X37573809Y-31955476D01*
X37526190Y-31860238D01*
X37430952Y-31765000D01*
X37288095Y-31717380D01*
X37192857Y-31717380D01*
X37050000Y-31765000D01*
X37002380Y-31812619D01*
X36573809Y-32193571D02*
X36240476Y-32193571D01*
X36097619Y-32717380D02*
X36573809Y-32717380D01*
X36573809Y-31717380D01*
X36097619Y-31717380D01*
X49050000Y-33803571D02*
X48907142Y-33851190D01*
X48859523Y-33898809D01*
X48811904Y-33994047D01*
X48811904Y-34136904D01*
X48859523Y-34232142D01*
X48907142Y-34279761D01*
X49002380Y-34327380D01*
X49383333Y-34327380D01*
X49383333Y-33327380D01*
X49050000Y-33327380D01*
X48954761Y-33375000D01*
X48907142Y-33422619D01*
X48859523Y-33517857D01*
X48859523Y-33613095D01*
X48907142Y-33708333D01*
X48954761Y-33755952D01*
X49050000Y-33803571D01*
X49383333Y-33803571D01*
X48192857Y-33851190D02*
X48192857Y-34327380D01*
X48526190Y-33327380D02*
X48192857Y-33851190D01*
X47859523Y-33327380D01*
X47526190Y-34232142D02*
X47478571Y-34279761D01*
X47526190Y-34327380D01*
X47573809Y-34279761D01*
X47526190Y-34232142D01*
X47526190Y-34327380D01*
X47526190Y-33708333D02*
X47478571Y-33755952D01*
X47526190Y-33803571D01*
X47573809Y-33755952D01*
X47526190Y-33708333D01*
X47526190Y-33803571D01*
X46335714Y-34041666D02*
X45859523Y-34041666D01*
X46430952Y-34327380D02*
X46097619Y-33327380D01*
X45764285Y-34327380D01*
X44954761Y-34327380D02*
X45430952Y-34327380D01*
X45430952Y-33327380D01*
X44621428Y-33803571D02*
X44288095Y-33803571D01*
X44145238Y-34327380D02*
X44621428Y-34327380D01*
X44621428Y-33327380D01*
X44145238Y-33327380D01*
X43811904Y-33327380D02*
X43145238Y-34327380D01*
X43145238Y-33327380D02*
X43811904Y-34327380D01*
X42050000Y-34041666D02*
X41573809Y-34041666D01*
X42145238Y-34327380D02*
X41811904Y-33327380D01*
X41478571Y-34327380D01*
X41192857Y-34041666D02*
X40716666Y-34041666D01*
X41288095Y-34327380D02*
X40954761Y-33327380D01*
X40621428Y-34327380D01*
X39716666Y-34327380D02*
X40050000Y-33851190D01*
X40288095Y-34327380D02*
X40288095Y-33327380D01*
X39907142Y-33327380D01*
X39811904Y-33375000D01*
X39764285Y-33422619D01*
X39716666Y-33517857D01*
X39716666Y-33660714D01*
X39764285Y-33755952D01*
X39811904Y-33803571D01*
X39907142Y-33851190D01*
X40288095Y-33851190D01*
X39288095Y-34327380D02*
X39288095Y-33327380D01*
X39288095Y-33803571D02*
X38716666Y-33803571D01*
X38716666Y-34327380D02*
X38716666Y-33327380D01*
X38240476Y-33327380D02*
X38240476Y-34136904D01*
X38192857Y-34232142D01*
X38145238Y-34279761D01*
X38050000Y-34327380D01*
X37859523Y-34327380D01*
X37764285Y-34279761D01*
X37716666Y-34232142D01*
X37669047Y-34136904D01*
X37669047Y-33327380D01*
X37240476Y-34279761D02*
X37097619Y-34327380D01*
X36859523Y-34327380D01*
X36764285Y-34279761D01*
X36716666Y-34232142D01*
X36669047Y-34136904D01*
X36669047Y-34041666D01*
X36716666Y-33946428D01*
X36764285Y-33898809D01*
X36859523Y-33851190D01*
X37050000Y-33803571D01*
X37145238Y-33755952D01*
X37192857Y-33708333D01*
X37240476Y-33613095D01*
X37240476Y-33517857D01*
X37192857Y-33422619D01*
X37145238Y-33375000D01*
X37050000Y-33327380D01*
X36811904Y-33327380D01*
X36669047Y-33375000D01*
X44954761Y-34937380D02*
X44621428Y-35937380D01*
X44288095Y-34937380D01*
X42669047Y-35937380D02*
X43240476Y-35937380D01*
X42954761Y-35937380D02*
X42954761Y-34937380D01*
X43050000Y-35080238D01*
X43145238Y-35175476D01*
X43240476Y-35223095D01*
X42240476Y-35842142D02*
X42192857Y-35889761D01*
X42240476Y-35937380D01*
X42288095Y-35889761D01*
X42240476Y-35842142D01*
X42240476Y-35937380D01*
X41573809Y-34937380D02*
X41478571Y-34937380D01*
X41383333Y-34985000D01*
X41335714Y-35032619D01*
X41288095Y-35127857D01*
X41240476Y-35318333D01*
X41240476Y-35556428D01*
X41288095Y-35746904D01*
X41335714Y-35842142D01*
X41383333Y-35889761D01*
X41478571Y-35937380D01*
X41573809Y-35937380D01*
X41669047Y-35889761D01*
X41716666Y-35842142D01*
X41764285Y-35746904D01*
X41811904Y-35556428D01*
X41811904Y-35318333D01*
X41764285Y-35127857D01*
X41716666Y-35032619D01*
X41669047Y-34985000D01*
X41573809Y-34937380D01*
X28576428Y-37344047D02*
X28528809Y-37201190D01*
X28481190Y-37153571D01*
X28385952Y-37105952D01*
X28243095Y-37105952D01*
X28147857Y-37153571D01*
X28100238Y-37201190D01*
X28052619Y-37296428D01*
X28052619Y-37677380D01*
X29052619Y-37677380D01*
X29052619Y-37344047D01*
X29005000Y-37248809D01*
X28957380Y-37201190D01*
X28862142Y-37153571D01*
X28766904Y-37153571D01*
X28671666Y-37201190D01*
X28624047Y-37248809D01*
X28576428Y-37344047D01*
X28576428Y-37677380D01*
X28576428Y-36677380D02*
X28576428Y-36344047D01*
X28052619Y-36201190D02*
X28052619Y-36677380D01*
X29052619Y-36677380D01*
X29052619Y-36201190D01*
X28576428Y-35772619D02*
X28576428Y-35439285D01*
X28052619Y-35296428D02*
X28052619Y-35772619D01*
X29052619Y-35772619D01*
X29052619Y-35296428D01*
X28052619Y-34867857D02*
X29052619Y-34867857D01*
X29052619Y-34486904D01*
X29005000Y-34391666D01*
X28957380Y-34344047D01*
X28862142Y-34296428D01*
X28719285Y-34296428D01*
X28624047Y-34344047D01*
X28576428Y-34391666D01*
X28528809Y-34486904D01*
X28528809Y-34867857D01*
X28576428Y-32772619D02*
X28528809Y-32629761D01*
X28481190Y-32582142D01*
X28385952Y-32534523D01*
X28243095Y-32534523D01*
X28147857Y-32582142D01*
X28100238Y-32629761D01*
X28052619Y-32725000D01*
X28052619Y-33105952D01*
X29052619Y-33105952D01*
X29052619Y-32772619D01*
X29005000Y-32677380D01*
X28957380Y-32629761D01*
X28862142Y-32582142D01*
X28766904Y-32582142D01*
X28671666Y-32629761D01*
X28624047Y-32677380D01*
X28576428Y-32772619D01*
X28576428Y-33105952D01*
X28576428Y-32105952D02*
X28576428Y-31772619D01*
X28052619Y-31629761D02*
X28052619Y-32105952D01*
X29052619Y-32105952D01*
X29052619Y-31629761D01*
X28576428Y-31201190D02*
X28576428Y-30867857D01*
X28052619Y-30725000D02*
X28052619Y-31201190D01*
X29052619Y-31201190D01*
X29052619Y-30725000D01*
X28052619Y-30296428D02*
X29052619Y-30296428D01*
X29052619Y-29915476D01*
X29005000Y-29820238D01*
X28957380Y-29772619D01*
X28862142Y-29725000D01*
X28719285Y-29725000D01*
X28624047Y-29772619D01*
X28576428Y-29820238D01*
X28528809Y-29915476D01*
X28528809Y-30296428D01*
X26966428Y-37629761D02*
X26918809Y-37486904D01*
X26871190Y-37439285D01*
X26775952Y-37391666D01*
X26633095Y-37391666D01*
X26537857Y-37439285D01*
X26490238Y-37486904D01*
X26442619Y-37582142D01*
X26442619Y-37963095D01*
X27442619Y-37963095D01*
X27442619Y-37629761D01*
X27395000Y-37534523D01*
X27347380Y-37486904D01*
X27252142Y-37439285D01*
X27156904Y-37439285D01*
X27061666Y-37486904D01*
X27014047Y-37534523D01*
X26966428Y-37629761D01*
X26966428Y-37963095D01*
X27442619Y-36772619D02*
X27442619Y-36582142D01*
X27395000Y-36486904D01*
X27299761Y-36391666D01*
X27109285Y-36344047D01*
X26775952Y-36344047D01*
X26585476Y-36391666D01*
X26490238Y-36486904D01*
X26442619Y-36582142D01*
X26442619Y-36772619D01*
X26490238Y-36867857D01*
X26585476Y-36963095D01*
X26775952Y-37010714D01*
X27109285Y-37010714D01*
X27299761Y-36963095D01*
X27395000Y-36867857D01*
X27442619Y-36772619D01*
X27442619Y-35725000D02*
X27442619Y-35534523D01*
X27395000Y-35439285D01*
X27299761Y-35344047D01*
X27109285Y-35296428D01*
X26775952Y-35296428D01*
X26585476Y-35344047D01*
X26490238Y-35439285D01*
X26442619Y-35534523D01*
X26442619Y-35725000D01*
X26490238Y-35820238D01*
X26585476Y-35915476D01*
X26775952Y-35963095D01*
X27109285Y-35963095D01*
X27299761Y-35915476D01*
X27395000Y-35820238D01*
X27442619Y-35725000D01*
X26442619Y-34867857D02*
X27442619Y-34867857D01*
X27442619Y-34486904D01*
X27395000Y-34391666D01*
X27347380Y-34344047D01*
X27252142Y-34296428D01*
X27109285Y-34296428D01*
X27014047Y-34344047D01*
X26966428Y-34391666D01*
X26918809Y-34486904D01*
X26918809Y-34867857D01*
X26966428Y-32772619D02*
X26918809Y-32629761D01*
X26871190Y-32582142D01*
X26775952Y-32534523D01*
X26633095Y-32534523D01*
X26537857Y-32582142D01*
X26490238Y-32629761D01*
X26442619Y-32724999D01*
X26442619Y-33105952D01*
X27442619Y-33105952D01*
X27442619Y-32772619D01*
X27395000Y-32677380D01*
X27347380Y-32629761D01*
X27252142Y-32582142D01*
X27156904Y-32582142D01*
X27061666Y-32629761D01*
X27014047Y-32677380D01*
X26966428Y-32772619D01*
X26966428Y-33105952D01*
X27442619Y-31915476D02*
X27442619Y-31724999D01*
X27395000Y-31629761D01*
X27299761Y-31534523D01*
X27109285Y-31486904D01*
X26775952Y-31486904D01*
X26585476Y-31534523D01*
X26490238Y-31629761D01*
X26442619Y-31724999D01*
X26442619Y-31915476D01*
X26490238Y-32010714D01*
X26585476Y-32105952D01*
X26775952Y-32153571D01*
X27109285Y-32153571D01*
X27299761Y-32105952D01*
X27395000Y-32010714D01*
X27442619Y-31915476D01*
X27442619Y-30867857D02*
X27442619Y-30677380D01*
X27395000Y-30582142D01*
X27299761Y-30486904D01*
X27109285Y-30439285D01*
X26775952Y-30439285D01*
X26585476Y-30486904D01*
X26490238Y-30582142D01*
X26442619Y-30677380D01*
X26442619Y-30867857D01*
X26490238Y-30963095D01*
X26585476Y-31058333D01*
X26775952Y-31105952D01*
X27109285Y-31105952D01*
X27299761Y-31058333D01*
X27395000Y-30963095D01*
X27442619Y-30867857D01*
X26442619Y-30010714D02*
X27442619Y-30010714D01*
X27442619Y-29629761D01*
X27395000Y-29534523D01*
X27347380Y-29486904D01*
X27252142Y-29439285D01*
X27109285Y-29439285D01*
X27014047Y-29486904D01*
X26966428Y-29534523D01*
X26918809Y-29629761D01*
X26918809Y-30010714D01*
D11*
X30587140Y-44285000D02*
X30587140Y-52915000D01*
X45260000Y-55425000D02*
X45260000Y-55865000D01*
X33280000Y-52915000D02*
X33280000Y-53325000D01*
X43440000Y-52915000D02*
X43440000Y-53325000D01*
X29642380Y-44285000D02*
X29642380Y-52915000D01*
X30941425Y-44285000D02*
X30941425Y-52915000D01*
X37640000Y-52915000D02*
X37640000Y-53325000D01*
X29524285Y-44285000D02*
X29524285Y-52915000D01*
X45260000Y-52915000D02*
X45260000Y-53325000D01*
X29878570Y-44285000D02*
X29878570Y-52915000D01*
X29050000Y-44285000D02*
X29050000Y-52915000D01*
X42720000Y-55425000D02*
X42720000Y-55865000D01*
X47800000Y-52915000D02*
X47800000Y-53325000D01*
X35100000Y-55425000D02*
X35100000Y-55865000D01*
X42720000Y-52915000D02*
X42720000Y-53325000D01*
X30350950Y-44285000D02*
X30350950Y-52915000D01*
X30469045Y-44285000D02*
X30469045Y-52915000D01*
X34190000Y-44285000D02*
X34190000Y-52915000D01*
X44350000Y-44285000D02*
X44350000Y-52915000D01*
X40900000Y-52915000D02*
X40900000Y-53325000D01*
X31177615Y-44285000D02*
X31177615Y-52915000D01*
X31059520Y-44285000D02*
X31059520Y-52915000D01*
X29050000Y-52915000D02*
X49490000Y-52915000D01*
X31413805Y-44285000D02*
X31413805Y-52915000D01*
X33280000Y-55425000D02*
X33280000Y-55865000D01*
X30232855Y-44285000D02*
X30232855Y-52915000D01*
X39270000Y-44285000D02*
X39270000Y-52915000D01*
X35820000Y-55425000D02*
X35820000Y-55865000D01*
X41810000Y-44285000D02*
X41810000Y-52915000D01*
X49490000Y-44285000D02*
X49490000Y-52915000D01*
X30020000Y-55425000D02*
X30020000Y-55805000D01*
X30740000Y-55425000D02*
X30740000Y-55805000D01*
X29406190Y-44285000D02*
X29406190Y-52915000D01*
X29050000Y-56915000D02*
X29050000Y-58025000D01*
X43440000Y-55425000D02*
X43440000Y-55865000D01*
X29170000Y-44285000D02*
X29170000Y-52915000D01*
X29050000Y-58025000D02*
X30380000Y-58025000D01*
X31531900Y-44285000D02*
X31531900Y-52915000D01*
X46890000Y-44285000D02*
X46890000Y-52915000D01*
X30114760Y-44285000D02*
X30114760Y-52915000D01*
X38360000Y-52915000D02*
X38360000Y-53325000D01*
X30823330Y-44285000D02*
X30823330Y-52915000D01*
X37640000Y-55425000D02*
X37640000Y-55865000D01*
X29050000Y-44285000D02*
X49490000Y-44285000D01*
X40180000Y-55425000D02*
X40180000Y-55865000D01*
X48520000Y-55425000D02*
X48520000Y-55865000D01*
X38360000Y-55425000D02*
X38360000Y-55865000D01*
X29288095Y-44285000D02*
X29288095Y-52915000D01*
X30020000Y-52915000D02*
X30020000Y-53325000D01*
X32560000Y-52915000D02*
X32560000Y-53325000D01*
X31650000Y-44285000D02*
X31650000Y-52915000D01*
X45980000Y-52915000D02*
X45980000Y-53325000D01*
X35820000Y-52915000D02*
X35820000Y-53325000D01*
X40180000Y-52915000D02*
X40180000Y-53325000D01*
X40900000Y-55425000D02*
X40900000Y-55865000D01*
X47800000Y-55425000D02*
X47800000Y-55865000D01*
X48520000Y-52915000D02*
X48520000Y-53325000D01*
X31295710Y-44285000D02*
X31295710Y-52915000D01*
X30705235Y-44285000D02*
X30705235Y-52915000D01*
X29760475Y-44285000D02*
X29760475Y-52915000D01*
X36730000Y-44285000D02*
X36730000Y-52915000D01*
X32560000Y-55425000D02*
X32560000Y-55865000D01*
X35100000Y-52915000D02*
X35100000Y-53325000D01*
X30740000Y-52915000D02*
X30740000Y-53325000D01*
X45980000Y-55425000D02*
X45980000Y-55865000D01*
X29996665Y-44285000D02*
X29996665Y-52915000D01*
%LPC*%
D12*
X27325000Y-40300000D03*
D13*
X27325000Y-42840000D03*
X27325000Y-45380000D03*
X27325000Y-47920000D03*
D12*
X35150000Y-40700000D03*
D13*
X35150000Y-38160000D03*
X35150000Y-35620000D03*
X35150000Y-33080000D03*
D12*
X33050000Y-27600000D03*
D13*
X35590000Y-27600000D03*
X38130000Y-27600000D03*
X40670000Y-27600000D03*
D12*
X30380000Y-56915000D03*
D13*
X30380000Y-54375000D03*
X32920000Y-56915000D03*
X32920000Y-54375000D03*
X35460000Y-56915000D03*
X35460000Y-54375000D03*
X38000000Y-56915000D03*
X38000000Y-54375000D03*
X40540000Y-56915000D03*
X40540000Y-54375000D03*
X43080000Y-56915000D03*
X43080000Y-54375000D03*
X45620000Y-56915000D03*
X45620000Y-54375000D03*
X48160000Y-56915000D03*
X48160000Y-54375000D03*
M02*
