G04 #@! TF.GenerationSoftware,KiCad,Pcbnew,(6.0.7)*
G04 #@! TF.CreationDate,2023-06-30T23:32:05-07:00*
G04 #@! TF.ProjectId,RFD900 Interface,52464439-3030-4204-996e-746572666163,rev?*
G04 #@! TF.SameCoordinates,Original*
G04 #@! TF.FileFunction,Copper,L1,Top*
G04 #@! TF.FilePolarity,Positive*
%FSLAX46Y46*%
G04 Gerber Fmt 4.6, Leading zero omitted, Abs format (unit mm)*
G04 Created by KiCad (PCBNEW (6.0.7)) date 2023-06-30 23:32:05*
%MOMM*%
%LPD*%
G01*
G04 APERTURE LIST*
G04 Aperture macros list*
%AMRoundRect*
0 Rectangle with rounded corners*
0 $1 Rounding radius*
0 $2 $3 $4 $5 $6 $7 $8 $9 X,Y pos of 4 corners*
0 Add a 4 corners polygon primitive as box body*
4,1,4,$2,$3,$4,$5,$6,$7,$8,$9,$2,$3,0*
0 Add four circle primitives for the rounded corners*
1,1,$1+$1,$2,$3*
1,1,$1+$1,$4,$5*
1,1,$1+$1,$6,$7*
1,1,$1+$1,$8,$9*
0 Add four rect primitives between the rounded corners*
20,1,$1+$1,$2,$3,$4,$5,0*
20,1,$1+$1,$4,$5,$6,$7,0*
20,1,$1+$1,$6,$7,$8,$9,0*
20,1,$1+$1,$8,$9,$2,$3,0*%
%AMFreePoly0*
4,1,22,0.500000,-0.750000,0.000000,-0.750000,0.000000,-0.745033,-0.079941,-0.743568,-0.215256,-0.701293,-0.333266,-0.622738,-0.424486,-0.514219,-0.481581,-0.384460,-0.499164,-0.250000,-0.500000,-0.250000,-0.500000,0.250000,-0.499164,0.250000,-0.499963,0.256109,-0.478152,0.396186,-0.417904,0.524511,-0.324060,0.630769,-0.204165,0.706417,-0.067858,0.745374,0.000000,0.744959,0.000000,0.750000,
0.500000,0.750000,0.500000,-0.750000,0.500000,-0.750000,$1*%
%AMFreePoly1*
4,1,20,0.000000,0.744959,0.073905,0.744508,0.209726,0.703889,0.328688,0.626782,0.421226,0.519385,0.479903,0.390333,0.500000,0.250000,0.500000,-0.250000,0.499851,-0.262216,0.476331,-0.402017,0.414519,-0.529596,0.319384,-0.634700,0.198574,-0.708877,0.061801,-0.746166,0.000000,-0.745033,0.000000,-0.750000,-0.500000,-0.750000,-0.500000,0.750000,0.000000,0.750000,0.000000,0.744959,
0.000000,0.744959,$1*%
%AMFreePoly2*
4,1,14,0.230680,0.111820,0.364320,-0.021821,0.377500,-0.053642,0.377500,-0.080000,0.364320,-0.111820,0.332500,-0.125000,-0.332500,-0.125000,-0.364320,-0.111820,-0.377500,-0.080000,-0.377500,0.080000,-0.364320,0.111820,-0.332500,0.125000,0.198860,0.125000,0.230680,0.111820,0.230680,0.111820,$1*%
%AMFreePoly3*
4,1,14,0.364320,0.111820,0.377500,0.080000,0.377501,0.053640,0.364318,0.021819,0.230680,-0.111820,0.198860,-0.125000,-0.332500,-0.125000,-0.364320,-0.111820,-0.377500,-0.080000,-0.377500,0.080000,-0.364320,0.111820,-0.332500,0.125000,0.332500,0.125000,0.364320,0.111820,0.364320,0.111820,$1*%
%AMFreePoly4*
4,1,15,0.053642,0.377500,0.080000,0.377500,0.111820,0.364320,0.125000,0.332500,0.125000,-0.332500,0.111820,-0.364320,0.080000,-0.377500,-0.080000,-0.377500,-0.111820,-0.364320,-0.125000,-0.332500,-0.125000,0.198860,-0.111820,0.230680,0.021820,0.364320,0.053640,0.377501,0.053642,0.377500,0.053642,0.377500,$1*%
%AMFreePoly5*
4,1,14,-0.021820,0.364320,0.111820,0.230679,0.125000,0.198858,0.125000,-0.332500,0.111820,-0.364320,0.080000,-0.377500,-0.080000,-0.377500,-0.111820,-0.364320,-0.125000,-0.332500,-0.125000,0.332500,-0.111820,0.364320,-0.080000,0.377500,-0.053640,0.377500,-0.021820,0.364320,-0.021820,0.364320,$1*%
%AMFreePoly6*
4,1,14,0.364320,0.111820,0.377500,0.080000,0.377500,-0.080000,0.364320,-0.111820,0.332500,-0.125000,-0.198860,-0.125001,-0.230681,-0.111818,-0.364320,0.021820,-0.377500,0.053640,-0.377500,0.080000,-0.364320,0.111820,-0.332500,0.125000,0.332500,0.125000,0.364320,0.111820,0.364320,0.111820,$1*%
%AMFreePoly7*
4,1,15,-0.198858,0.125000,0.332500,0.125000,0.364320,0.111820,0.377500,0.080000,0.377500,-0.080000,0.364320,-0.111820,0.332500,-0.125000,-0.332500,-0.125000,-0.364320,-0.111820,-0.377500,-0.080000,-0.377500,-0.053640,-0.364320,-0.021820,-0.230680,0.111820,-0.198860,0.125001,-0.198858,0.125000,-0.198858,0.125000,$1*%
%AMFreePoly8*
4,1,14,0.111820,0.364320,0.125000,0.332500,0.125001,-0.198860,0.111818,-0.230681,-0.021820,-0.364320,-0.053640,-0.377500,-0.080000,-0.377500,-0.111820,-0.364320,-0.125000,-0.332500,-0.125000,0.332500,-0.111820,0.364320,-0.080000,0.377500,0.080000,0.377500,0.111820,0.364320,0.111820,0.364320,$1*%
%AMFreePoly9*
4,1,14,0.111820,0.364320,0.125000,0.332500,0.125000,-0.332500,0.111820,-0.364320,0.080000,-0.377500,0.053640,-0.377501,0.021819,-0.364318,-0.111820,-0.230680,-0.125000,-0.198860,-0.125000,0.332500,-0.111820,0.364320,-0.080000,0.377500,0.080000,0.377500,0.111820,0.364320,0.111820,0.364320,$1*%
%AMFreePoly10*
4,1,22,0.550000,-0.750000,0.000000,-0.750000,0.000000,-0.745033,-0.079941,-0.743568,-0.215256,-0.701293,-0.333266,-0.622738,-0.424486,-0.514219,-0.481581,-0.384460,-0.499164,-0.250000,-0.500000,-0.250000,-0.500000,0.250000,-0.499164,0.250000,-0.499963,0.256109,-0.478152,0.396186,-0.417904,0.524511,-0.324060,0.630769,-0.204165,0.706417,-0.067858,0.745374,0.000000,0.744959,0.000000,0.750000,
0.550000,0.750000,0.550000,-0.750000,0.550000,-0.750000,$1*%
%AMFreePoly11*
4,1,20,0.000000,0.744959,0.073905,0.744508,0.209726,0.703889,0.328688,0.626782,0.421226,0.519385,0.479903,0.390333,0.500000,0.250000,0.500000,-0.250000,0.499851,-0.262216,0.476331,-0.402017,0.414519,-0.529596,0.319384,-0.634700,0.198574,-0.708877,0.061801,-0.746166,0.000000,-0.745033,0.000000,-0.750000,-0.550000,-0.750000,-0.550000,0.750000,0.000000,0.750000,0.000000,0.744959,
0.000000,0.744959,$1*%
G04 Aperture macros list end*
G04 #@! TA.AperFunction,ComponentPad*
%ADD10R,1.700000X1.700000*%
G04 #@! TD*
G04 #@! TA.AperFunction,ComponentPad*
%ADD11O,1.700000X1.700000*%
G04 #@! TD*
G04 #@! TA.AperFunction,SMDPad,CuDef*
%ADD12RoundRect,0.200000X0.250000X-0.200000X0.250000X0.200000X-0.250000X0.200000X-0.250000X-0.200000X0*%
G04 #@! TD*
G04 #@! TA.AperFunction,SMDPad,CuDef*
%ADD13RoundRect,0.140000X-0.140000X-0.170000X0.140000X-0.170000X0.140000X0.170000X-0.140000X0.170000X0*%
G04 #@! TD*
G04 #@! TA.AperFunction,SMDPad,CuDef*
%ADD14RoundRect,0.140000X-0.170000X0.140000X-0.170000X-0.140000X0.170000X-0.140000X0.170000X0.140000X0*%
G04 #@! TD*
G04 #@! TA.AperFunction,SMDPad,CuDef*
%ADD15FreePoly0,90.000000*%
G04 #@! TD*
G04 #@! TA.AperFunction,SMDPad,CuDef*
%ADD16FreePoly1,90.000000*%
G04 #@! TD*
G04 #@! TA.AperFunction,SMDPad,CuDef*
%ADD17FreePoly2,135.000000*%
G04 #@! TD*
G04 #@! TA.AperFunction,SMDPad,CuDef*
%ADD18RoundRect,0.062500X0.309359X-0.220971X-0.220971X0.309359X-0.309359X0.220971X0.220971X-0.309359X0*%
G04 #@! TD*
G04 #@! TA.AperFunction,SMDPad,CuDef*
%ADD19FreePoly3,135.000000*%
G04 #@! TD*
G04 #@! TA.AperFunction,SMDPad,CuDef*
%ADD20FreePoly4,135.000000*%
G04 #@! TD*
G04 #@! TA.AperFunction,SMDPad,CuDef*
%ADD21RoundRect,0.062500X0.309359X0.220971X0.220971X0.309359X-0.309359X-0.220971X-0.220971X-0.309359X0*%
G04 #@! TD*
G04 #@! TA.AperFunction,SMDPad,CuDef*
%ADD22FreePoly5,135.000000*%
G04 #@! TD*
G04 #@! TA.AperFunction,SMDPad,CuDef*
%ADD23FreePoly6,135.000000*%
G04 #@! TD*
G04 #@! TA.AperFunction,SMDPad,CuDef*
%ADD24FreePoly7,135.000000*%
G04 #@! TD*
G04 #@! TA.AperFunction,SMDPad,CuDef*
%ADD25FreePoly8,135.000000*%
G04 #@! TD*
G04 #@! TA.AperFunction,SMDPad,CuDef*
%ADD26FreePoly9,135.000000*%
G04 #@! TD*
G04 #@! TA.AperFunction,SMDPad,CuDef*
%ADD27RoundRect,0.140000X0.021213X-0.219203X0.219203X-0.021213X-0.021213X0.219203X-0.219203X0.021213X0*%
G04 #@! TD*
G04 #@! TA.AperFunction,SMDPad,CuDef*
%ADD28RoundRect,0.135000X-0.226274X-0.035355X-0.035355X-0.226274X0.226274X0.035355X0.035355X0.226274X0*%
G04 #@! TD*
G04 #@! TA.AperFunction,SMDPad,CuDef*
%ADD29R,1.500000X2.000000*%
G04 #@! TD*
G04 #@! TA.AperFunction,SMDPad,CuDef*
%ADD30R,3.800000X2.000000*%
G04 #@! TD*
G04 #@! TA.AperFunction,SMDPad,CuDef*
%ADD31RoundRect,0.140000X-0.021213X0.219203X-0.219203X0.021213X0.021213X-0.219203X0.219203X-0.021213X0*%
G04 #@! TD*
G04 #@! TA.AperFunction,SMDPad,CuDef*
%ADD32RoundRect,0.150000X0.825000X0.150000X-0.825000X0.150000X-0.825000X-0.150000X0.825000X-0.150000X0*%
G04 #@! TD*
G04 #@! TA.AperFunction,SMDPad,CuDef*
%ADD33RoundRect,0.140000X0.170000X-0.140000X0.170000X0.140000X-0.170000X0.140000X-0.170000X-0.140000X0*%
G04 #@! TD*
G04 #@! TA.AperFunction,SMDPad,CuDef*
%ADD34RoundRect,0.250000X-0.262500X-0.450000X0.262500X-0.450000X0.262500X0.450000X-0.262500X0.450000X0*%
G04 #@! TD*
G04 #@! TA.AperFunction,SMDPad,CuDef*
%ADD35FreePoly10,90.000000*%
G04 #@! TD*
G04 #@! TA.AperFunction,SMDPad,CuDef*
%ADD36R,1.500000X1.000000*%
G04 #@! TD*
G04 #@! TA.AperFunction,SMDPad,CuDef*
%ADD37FreePoly11,90.000000*%
G04 #@! TD*
G04 #@! TA.AperFunction,SMDPad,CuDef*
%ADD38RoundRect,0.140000X0.140000X0.170000X-0.140000X0.170000X-0.140000X-0.170000X0.140000X-0.170000X0*%
G04 #@! TD*
G04 #@! TA.AperFunction,SMDPad,CuDef*
%ADD39RoundRect,0.225000X-0.225000X-0.250000X0.225000X-0.250000X0.225000X0.250000X-0.225000X0.250000X0*%
G04 #@! TD*
G04 #@! TA.AperFunction,ViaPad*
%ADD40C,0.700000*%
G04 #@! TD*
G04 #@! TA.AperFunction,Conductor*
%ADD41C,2.000000*%
G04 #@! TD*
G04 #@! TA.AperFunction,Conductor*
%ADD42C,0.500000*%
G04 #@! TD*
G04 #@! TA.AperFunction,Conductor*
%ADD43C,0.300000*%
G04 #@! TD*
G04 #@! TA.AperFunction,Conductor*
%ADD44C,1.000000*%
G04 #@! TD*
G04 APERTURE END LIST*
D10*
X27325000Y-40300000D03*
D11*
X27325000Y-42840000D03*
X27325000Y-45380000D03*
X27325000Y-47920000D03*
D12*
X41900000Y-45500000D03*
X43750000Y-45500000D03*
X43750000Y-44050000D03*
X41900000Y-44050000D03*
D13*
X31195000Y-40450000D03*
X32155000Y-40450000D03*
D14*
X35700000Y-50000000D03*
X35700000Y-50960000D03*
D15*
X30475000Y-47800000D03*
D16*
X30475000Y-46500000D03*
D13*
X43345000Y-42850000D03*
X44305000Y-42850000D03*
D17*
X41126786Y-41198106D03*
D18*
X41437913Y-40802126D03*
X41791466Y-40448573D03*
X42145019Y-40095019D03*
X42498573Y-39741466D03*
X42852126Y-39387913D03*
D19*
X43248106Y-39076786D03*
D20*
X43248106Y-38373214D03*
D21*
X42852126Y-38062087D03*
X42498573Y-37708534D03*
X42145019Y-37354981D03*
X41791466Y-37001427D03*
X41437913Y-36647874D03*
D22*
X41126786Y-36251894D03*
D23*
X40423214Y-36251894D03*
D18*
X40112087Y-36647874D03*
X39758534Y-37001427D03*
X39404981Y-37354981D03*
X39051427Y-37708534D03*
X38697874Y-38062087D03*
D24*
X38301894Y-38373214D03*
D25*
X38301894Y-39076786D03*
D21*
X38697874Y-39387913D03*
X39051427Y-39741466D03*
X39404981Y-40095019D03*
X39758534Y-40448573D03*
X40112087Y-40802126D03*
D26*
X40423214Y-41198106D03*
D27*
X39010589Y-35739411D03*
X39689411Y-35060589D03*
D28*
X43114376Y-40914376D03*
X43835624Y-41635624D03*
D29*
X49475000Y-30025000D03*
X47175000Y-30025000D03*
D30*
X47175000Y-36325000D03*
D29*
X44875000Y-30025000D03*
D31*
X38339411Y-36410589D03*
X37660589Y-37089411D03*
D32*
X38275000Y-47205000D03*
X38275000Y-45935000D03*
X38275000Y-44665000D03*
X38275000Y-43395000D03*
X33325000Y-43395000D03*
X33325000Y-44665000D03*
X33325000Y-45935000D03*
X33325000Y-47205000D03*
D33*
X28000000Y-27930000D03*
X28000000Y-26970000D03*
D34*
X36987500Y-49330000D03*
X38812500Y-49330000D03*
D10*
X35150000Y-40700000D03*
D11*
X35150000Y-38160000D03*
X35150000Y-35620000D03*
X35150000Y-33080000D03*
D33*
X43025000Y-29580000D03*
X43025000Y-28620000D03*
D29*
X31900000Y-30850000D03*
D30*
X29600000Y-37150000D03*
D29*
X29600000Y-30850000D03*
X27300000Y-30850000D03*
D35*
X46525000Y-42925000D03*
D36*
X46525000Y-41625000D03*
D37*
X46525000Y-40325000D03*
D38*
X42430000Y-42850000D03*
X41470000Y-42850000D03*
D33*
X44725000Y-40555000D03*
X44725000Y-39595000D03*
D10*
X33050000Y-27600000D03*
D11*
X35590000Y-27600000D03*
X38130000Y-27600000D03*
X40670000Y-27600000D03*
D39*
X31025000Y-39225000D03*
X32575000Y-39225000D03*
D34*
X32587500Y-49305000D03*
X34412500Y-49305000D03*
D39*
X48400000Y-38400000D03*
X49950000Y-38400000D03*
D10*
X30380000Y-56915000D03*
D11*
X30380000Y-54375000D03*
X32920000Y-56915000D03*
X32920000Y-54375000D03*
X35460000Y-56915000D03*
X35460000Y-54375000D03*
X38000000Y-56915000D03*
X38000000Y-54375000D03*
X40540000Y-56915000D03*
X40540000Y-54375000D03*
X43080000Y-56915000D03*
X43080000Y-54375000D03*
X45620000Y-56915000D03*
X45620000Y-54375000D03*
X48160000Y-56915000D03*
X48160000Y-54375000D03*
D40*
X44750000Y-38975000D03*
X49100000Y-31400000D03*
X34650000Y-47200000D03*
X40725000Y-37350000D03*
X43750000Y-46250000D03*
X32800000Y-40450000D03*
X27351580Y-26940180D03*
X35025000Y-50975000D03*
X49850000Y-31400000D03*
X32300000Y-32225000D03*
X40325000Y-34825000D03*
X37167653Y-45454986D03*
X33375000Y-39225000D03*
X31500000Y-32225000D03*
X44925000Y-42875000D03*
X41301752Y-42337491D03*
X43025000Y-28000000D03*
X45450000Y-43750000D03*
X37175000Y-36625000D03*
X41100000Y-44050000D03*
X49975000Y-39225000D03*
X40400000Y-39650000D03*
X38525000Y-40825000D03*
X39430791Y-38725000D03*
X35351068Y-44973932D03*
X39173942Y-41624500D03*
X41200000Y-51200500D03*
X40275000Y-43375000D03*
X39900000Y-51175000D03*
X37875000Y-42350000D03*
X39604400Y-44029646D03*
D41*
X32500000Y-28450000D02*
X33075000Y-27875000D01*
X33075000Y-27875000D02*
X35615000Y-27875000D01*
X35615000Y-27875000D02*
X35615000Y-28515000D01*
X27350000Y-28800000D02*
X27700000Y-28450000D01*
X37200000Y-30100000D02*
X44750000Y-30100000D01*
X27700000Y-28450000D02*
X32500000Y-28450000D01*
X27350000Y-30650000D02*
X27350000Y-28800000D01*
X35615000Y-28515000D02*
X37200000Y-30100000D01*
D42*
X35025000Y-50975000D02*
X35040000Y-50960000D01*
X49950000Y-39200000D02*
X49975000Y-39225000D01*
X46525000Y-42925000D02*
X46275000Y-42925000D01*
D43*
X44725000Y-39000000D02*
X44750000Y-38975000D01*
X41470000Y-42850000D02*
X41470000Y-42505739D01*
D42*
X34650000Y-47200000D02*
X34645000Y-47205000D01*
X46275000Y-42925000D02*
X45450000Y-43750000D01*
D43*
X44900000Y-42850000D02*
X44925000Y-42875000D01*
D42*
X37167653Y-45454986D02*
X37212667Y-45500000D01*
D43*
X32575000Y-39225000D02*
X33375000Y-39225000D01*
X40725000Y-37260787D02*
X40112087Y-36647874D01*
X41470000Y-42505739D02*
X41301752Y-42337491D01*
D42*
X39925000Y-34825000D02*
X40325000Y-34825000D01*
D43*
X41900000Y-44050000D02*
X41100000Y-44050000D01*
D42*
X27351580Y-26940180D02*
X27381400Y-26970000D01*
X32155000Y-40450000D02*
X32800000Y-40450000D01*
X43025000Y-28620000D02*
X43025000Y-28000000D01*
X34645000Y-47205000D02*
X33325000Y-47205000D01*
X27381400Y-26970000D02*
X28000000Y-26970000D01*
X37212667Y-45500000D02*
X37840000Y-45500000D01*
X35040000Y-50960000D02*
X35700000Y-50960000D01*
D43*
X43750000Y-45500000D02*
X43750000Y-46250000D01*
X44725000Y-39595000D02*
X44725000Y-39000000D01*
X40725000Y-37350000D02*
X40725000Y-37260787D01*
D42*
X37196178Y-36625000D02*
X37660589Y-37089411D01*
X37840000Y-45500000D02*
X38275000Y-45935000D01*
X39689411Y-35060589D02*
X39925000Y-34825000D01*
X37175000Y-36625000D02*
X37196178Y-36625000D01*
X49950000Y-38400000D02*
X49950000Y-39200000D01*
D43*
X44305000Y-42850000D02*
X44900000Y-42850000D01*
D44*
X32920000Y-52830000D02*
X32920000Y-54375000D01*
X48400000Y-38400000D02*
X48400000Y-50600000D01*
X46750000Y-52250000D02*
X33500000Y-52250000D01*
X48400000Y-50600000D02*
X46750000Y-52250000D01*
X33500000Y-52250000D02*
X32920000Y-52830000D01*
D43*
X39429981Y-37354981D02*
X40100000Y-38025000D01*
X44955000Y-40325000D02*
X44725000Y-40555000D01*
D42*
X40400000Y-39650000D02*
X40900000Y-39150000D01*
X40400000Y-38325000D02*
X40100000Y-38025000D01*
D43*
X37340000Y-44665000D02*
X36475000Y-43800000D01*
X46525000Y-40325000D02*
X44955000Y-40325000D01*
X40025000Y-37950000D02*
X40100000Y-38025000D01*
X43484772Y-40109772D02*
X43930000Y-40555000D01*
D42*
X40900000Y-39150000D02*
X41875000Y-39150000D01*
X31025000Y-39225000D02*
X31025000Y-40464386D01*
D43*
X42498573Y-39741466D02*
X42498573Y-39723573D01*
D42*
X36475000Y-40700000D02*
X38400000Y-40700000D01*
D43*
X43930000Y-40555000D02*
X44725000Y-40555000D01*
D42*
X31025000Y-40464386D02*
X31810614Y-41250000D01*
D43*
X39758534Y-37001427D02*
X40025000Y-37267893D01*
X36475000Y-43800000D02*
X36475000Y-40700000D01*
X42498573Y-39741466D02*
X42866879Y-40109772D01*
D42*
X40400000Y-39650000D02*
X40400000Y-38325000D01*
D43*
X41925000Y-39150000D02*
X41875000Y-39150000D01*
D42*
X38400000Y-40700000D02*
X38525000Y-40825000D01*
D43*
X38460589Y-36410589D02*
X39404981Y-37354981D01*
D42*
X35150000Y-40700000D02*
X36475000Y-40700000D01*
D43*
X42498573Y-39723573D02*
X41925000Y-39150000D01*
D42*
X31810614Y-41250000D02*
X34600000Y-41250000D01*
D43*
X42866879Y-40109772D02*
X43484772Y-40109772D01*
X39010589Y-36253482D02*
X39758534Y-37001427D01*
X38275000Y-44665000D02*
X37340000Y-44665000D01*
X38339411Y-36410589D02*
X38460589Y-36410589D01*
D42*
X34600000Y-41250000D02*
X35150000Y-40700000D01*
D43*
X39010589Y-35739411D02*
X39010589Y-36253482D01*
X40025000Y-37267893D02*
X40025000Y-37950000D01*
X39404981Y-37354981D02*
X39429981Y-37354981D01*
D42*
X35005000Y-49305000D02*
X35700000Y-50000000D01*
X36370000Y-49330000D02*
X35700000Y-50000000D01*
X36987500Y-49330000D02*
X36370000Y-49330000D01*
X34412500Y-49305000D02*
X35005000Y-49305000D01*
D43*
X42430000Y-42850000D02*
X42700000Y-43120000D01*
X41900000Y-41975000D02*
X41900000Y-41282106D01*
X42430000Y-42505000D02*
X41900000Y-41975000D01*
X41900000Y-41282106D02*
X41428966Y-40811072D01*
X42700000Y-44700000D02*
X41900000Y-45500000D01*
X42430000Y-42850000D02*
X42430000Y-42505000D01*
X42700000Y-43120000D02*
X42700000Y-44700000D01*
X42403101Y-41576862D02*
X43345000Y-42518761D01*
X42403101Y-41078101D02*
X42403101Y-41576862D01*
X43345000Y-42850000D02*
X43345000Y-43645000D01*
X43345000Y-43645000D02*
X43750000Y-44050000D01*
X41791466Y-40448573D02*
X41791466Y-40466466D01*
X43345000Y-42518761D02*
X43345000Y-42850000D01*
X41791466Y-40466466D02*
X42403101Y-41078101D01*
X38301894Y-38373214D02*
X37903214Y-38373214D01*
X37903214Y-38373214D02*
X35150000Y-35620000D01*
X35150000Y-38160000D02*
X36165000Y-39175000D01*
X38203680Y-39175000D02*
X38301894Y-39076786D01*
X36165000Y-39175000D02*
X38203680Y-39175000D01*
D42*
X38255000Y-47955000D02*
X37201472Y-47955000D01*
X37201472Y-47955000D02*
X33911472Y-44665000D01*
X38812500Y-49330000D02*
X38812500Y-48512500D01*
X27325000Y-40300000D02*
X27325000Y-42840000D01*
X33911472Y-44665000D02*
X33325000Y-44665000D01*
X38812500Y-48512500D02*
X38255000Y-47955000D01*
X29150000Y-44665000D02*
X33325000Y-44665000D01*
X27325000Y-42840000D02*
X29150000Y-44665000D01*
X33325000Y-45935000D02*
X31040000Y-45935000D01*
X28420000Y-46475000D02*
X30450000Y-46475000D01*
X31040000Y-45935000D02*
X30475000Y-46500000D01*
X27325000Y-45380000D02*
X28420000Y-46475000D01*
X27325000Y-45380000D02*
X27325000Y-47920000D01*
X30450000Y-46475000D02*
X30475000Y-46500000D01*
X31155000Y-49305000D02*
X32587500Y-49305000D01*
X30475000Y-47800000D02*
X30475000Y-48625000D01*
X30475000Y-48625000D02*
X31155000Y-49305000D01*
D43*
X42145019Y-40095019D02*
X42964376Y-40914376D01*
X42964376Y-40914376D02*
X43114376Y-40914376D01*
X46514376Y-41635624D02*
X46525000Y-41625000D01*
X43835624Y-41635624D02*
X46514376Y-41635624D01*
X35351068Y-44973932D02*
X37582136Y-47205000D01*
X39430791Y-38725000D02*
X39360787Y-38725000D01*
X39360787Y-38725000D02*
X38697874Y-38062087D01*
X37582136Y-47205000D02*
X38275000Y-47205000D01*
X41126786Y-41523214D02*
X41126786Y-41215998D01*
X38275000Y-43395000D02*
X39255000Y-43395000D01*
X39255000Y-43395000D02*
X41126786Y-41523214D01*
X41126786Y-41215998D02*
X41117840Y-41207052D01*
X41200000Y-51200500D02*
X41175000Y-51175500D01*
X40112087Y-40802126D02*
X39289713Y-41624500D01*
X40304400Y-43404400D02*
X40275000Y-43375000D01*
X41175000Y-51175500D02*
X41175000Y-46600000D01*
X39289713Y-41624500D02*
X39173942Y-41624500D01*
X41175000Y-46600000D02*
X40304400Y-45729400D01*
X40304400Y-45729400D02*
X40304400Y-43404400D01*
X39604400Y-48560872D02*
X39604400Y-44029646D01*
X40423214Y-41365178D02*
X40423214Y-41198106D01*
X39900000Y-51175000D02*
X39900000Y-48856472D01*
X39463892Y-42324500D02*
X40423214Y-41365178D01*
X39900000Y-48856472D02*
X39604400Y-48560872D01*
X37900500Y-42324500D02*
X39463892Y-42324500D01*
X37875000Y-42350000D02*
X37900500Y-42324500D01*
D44*
X35460000Y-54375000D02*
X35460000Y-56915000D01*
G04 #@! TA.AperFunction,Conductor*
G36*
X47867121Y-29045002D02*
G01*
X47913614Y-29098658D01*
X47925000Y-29151000D01*
X47925000Y-34125000D01*
X47932599Y-34132764D01*
X49039048Y-35263266D01*
X49072401Y-35325940D01*
X49075000Y-35351398D01*
X49075000Y-37770872D01*
X49060000Y-37823806D01*
X49062633Y-37825034D01*
X49059541Y-37831664D01*
X49055698Y-37837899D01*
X49001851Y-38000243D01*
X48991500Y-38101268D01*
X48991500Y-38698732D01*
X48991836Y-38701973D01*
X48991837Y-38701987D01*
X48995366Y-38735998D01*
X48982501Y-38805819D01*
X48933929Y-38857600D01*
X48870039Y-38875000D01*
X48076000Y-38875000D01*
X48007879Y-38854998D01*
X47961386Y-38801342D01*
X47950000Y-38749000D01*
X47950000Y-38100000D01*
X47175000Y-37325000D01*
X45401000Y-37325000D01*
X45332879Y-37304998D01*
X45286386Y-37251342D01*
X45275000Y-37199000D01*
X45275000Y-35375628D01*
X45295002Y-35307507D01*
X45310029Y-35288448D01*
X46425000Y-34125000D01*
X46425000Y-29151000D01*
X46445002Y-29082879D01*
X46498658Y-29036386D01*
X46551000Y-29025000D01*
X47799000Y-29025000D01*
X47867121Y-29045002D01*
G37*
G04 #@! TD.AperFunction*
G04 #@! TA.AperFunction,Conductor*
G36*
X32479502Y-29958549D02*
G01*
X32527519Y-29959890D01*
X32595053Y-29981786D01*
X32640030Y-30036719D01*
X32650000Y-30085841D01*
X32650000Y-32499000D01*
X32629998Y-32567121D01*
X32576342Y-32613614D01*
X32524000Y-32625000D01*
X31276000Y-32625000D01*
X31207879Y-32604998D01*
X31161386Y-32551342D01*
X31150000Y-32499000D01*
X31150000Y-30084500D01*
X31170002Y-30016379D01*
X31223658Y-29969886D01*
X31276000Y-29958500D01*
X32475984Y-29958500D01*
X32479502Y-29958549D01*
G37*
G04 #@! TD.AperFunction*
G04 #@! TA.AperFunction,Conductor*
G36*
X50167121Y-29045002D02*
G01*
X50213614Y-29098658D01*
X50225000Y-29151000D01*
X50225000Y-31724000D01*
X50204998Y-31792121D01*
X50151342Y-31838614D01*
X50099000Y-31850000D01*
X48851000Y-31850000D01*
X48782879Y-31829998D01*
X48736386Y-31776342D01*
X48725000Y-31724000D01*
X48725000Y-29151000D01*
X48745002Y-29082879D01*
X48798658Y-29036386D01*
X48851000Y-29025000D01*
X50099000Y-29025000D01*
X50167121Y-29045002D01*
G37*
G04 #@! TD.AperFunction*
G04 #@! TA.AperFunction,Conductor*
G36*
X30292121Y-29978502D02*
G01*
X30338614Y-30032158D01*
X30350000Y-30084500D01*
X30350000Y-34950000D01*
X30357599Y-34957764D01*
X31464048Y-36088266D01*
X31497401Y-36150940D01*
X31500000Y-36176398D01*
X31500000Y-39842385D01*
X31482453Y-39906524D01*
X31419144Y-40013574D01*
X31419142Y-40013578D01*
X31415106Y-40020403D01*
X31369394Y-40177746D01*
X31366500Y-40214516D01*
X31366500Y-40649000D01*
X31346498Y-40717121D01*
X31292842Y-40763614D01*
X31240500Y-40775000D01*
X30976000Y-40775000D01*
X30907879Y-40754998D01*
X30861386Y-40701342D01*
X30850000Y-40649000D01*
X30850000Y-40000000D01*
X30736494Y-39906524D01*
X30470901Y-39687801D01*
X30431032Y-39629056D01*
X30425000Y-39590538D01*
X30425000Y-38925000D01*
X30417655Y-38918100D01*
X29613205Y-38162404D01*
X29613203Y-38162403D01*
X29600000Y-38150000D01*
X27826000Y-38150000D01*
X27757879Y-38129998D01*
X27711386Y-38076342D01*
X27700000Y-38024000D01*
X27700000Y-36200628D01*
X27720002Y-36132507D01*
X27735029Y-36113448D01*
X28850000Y-34950000D01*
X28850000Y-30839526D01*
X28851839Y-30818080D01*
X28856504Y-30791074D01*
X28856505Y-30791068D01*
X28857179Y-30787164D01*
X28858500Y-30758075D01*
X28858500Y-30084500D01*
X28878502Y-30016379D01*
X28932158Y-29969886D01*
X28984500Y-29958500D01*
X30224000Y-29958500D01*
X30292121Y-29978502D01*
G37*
G04 #@! TD.AperFunction*
M02*
