G04 #@! TF.GenerationSoftware,KiCad,Pcbnew,(6.0.7)*
G04 #@! TF.CreationDate,2023-06-30T23:32:05-07:00*
G04 #@! TF.ProjectId,RFD900 Interface,52464439-3030-4204-996e-746572666163,rev?*
G04 #@! TF.SameCoordinates,Original*
G04 #@! TF.FileFunction,Paste,Top*
G04 #@! TF.FilePolarity,Positive*
%FSLAX46Y46*%
G04 Gerber Fmt 4.6, Leading zero omitted, Abs format (unit mm)*
G04 Created by KiCad (PCBNEW (6.0.7)) date 2023-06-30 23:32:05*
%MOMM*%
%LPD*%
G01*
G04 APERTURE LIST*
G04 Aperture macros list*
%AMRoundRect*
0 Rectangle with rounded corners*
0 $1 Rounding radius*
0 $2 $3 $4 $5 $6 $7 $8 $9 X,Y pos of 4 corners*
0 Add a 4 corners polygon primitive as box body*
4,1,4,$2,$3,$4,$5,$6,$7,$8,$9,$2,$3,0*
0 Add four circle primitives for the rounded corners*
1,1,$1+$1,$2,$3*
1,1,$1+$1,$4,$5*
1,1,$1+$1,$6,$7*
1,1,$1+$1,$8,$9*
0 Add four rect primitives between the rounded corners*
20,1,$1+$1,$2,$3,$4,$5,0*
20,1,$1+$1,$4,$5,$6,$7,0*
20,1,$1+$1,$6,$7,$8,$9,0*
20,1,$1+$1,$8,$9,$2,$3,0*%
%AMFreePoly0*
4,1,14,0.230680,0.111820,0.364320,-0.021821,0.377500,-0.053642,0.377500,-0.080000,0.364320,-0.111820,0.332500,-0.125000,-0.332500,-0.125000,-0.364320,-0.111820,-0.377500,-0.080000,-0.377500,0.080000,-0.364320,0.111820,-0.332500,0.125000,0.198860,0.125000,0.230680,0.111820,0.230680,0.111820,$1*%
%AMFreePoly1*
4,1,14,0.364320,0.111820,0.377500,0.080000,0.377501,0.053640,0.364318,0.021819,0.230680,-0.111820,0.198860,-0.125000,-0.332500,-0.125000,-0.364320,-0.111820,-0.377500,-0.080000,-0.377500,0.080000,-0.364320,0.111820,-0.332500,0.125000,0.332500,0.125000,0.364320,0.111820,0.364320,0.111820,$1*%
%AMFreePoly2*
4,1,15,0.053642,0.377500,0.080000,0.377500,0.111820,0.364320,0.125000,0.332500,0.125000,-0.332500,0.111820,-0.364320,0.080000,-0.377500,-0.080000,-0.377500,-0.111820,-0.364320,-0.125000,-0.332500,-0.125000,0.198860,-0.111820,0.230680,0.021820,0.364320,0.053640,0.377501,0.053642,0.377500,0.053642,0.377500,$1*%
%AMFreePoly3*
4,1,14,-0.021820,0.364320,0.111820,0.230679,0.125000,0.198858,0.125000,-0.332500,0.111820,-0.364320,0.080000,-0.377500,-0.080000,-0.377500,-0.111820,-0.364320,-0.125000,-0.332500,-0.125000,0.332500,-0.111820,0.364320,-0.080000,0.377500,-0.053640,0.377500,-0.021820,0.364320,-0.021820,0.364320,$1*%
%AMFreePoly4*
4,1,14,0.364320,0.111820,0.377500,0.080000,0.377500,-0.080000,0.364320,-0.111820,0.332500,-0.125000,-0.198860,-0.125001,-0.230681,-0.111818,-0.364320,0.021820,-0.377500,0.053640,-0.377500,0.080000,-0.364320,0.111820,-0.332500,0.125000,0.332500,0.125000,0.364320,0.111820,0.364320,0.111820,$1*%
%AMFreePoly5*
4,1,15,-0.198858,0.125000,0.332500,0.125000,0.364320,0.111820,0.377500,0.080000,0.377500,-0.080000,0.364320,-0.111820,0.332500,-0.125000,-0.332500,-0.125000,-0.364320,-0.111820,-0.377500,-0.080000,-0.377500,-0.053640,-0.364320,-0.021820,-0.230680,0.111820,-0.198860,0.125001,-0.198858,0.125000,-0.198858,0.125000,$1*%
%AMFreePoly6*
4,1,14,0.111820,0.364320,0.125000,0.332500,0.125001,-0.198860,0.111818,-0.230681,-0.021820,-0.364320,-0.053640,-0.377500,-0.080000,-0.377500,-0.111820,-0.364320,-0.125000,-0.332500,-0.125000,0.332500,-0.111820,0.364320,-0.080000,0.377500,0.080000,0.377500,0.111820,0.364320,0.111820,0.364320,$1*%
%AMFreePoly7*
4,1,14,0.111820,0.364320,0.125000,0.332500,0.125000,-0.332500,0.111820,-0.364320,0.080000,-0.377500,0.053640,-0.377501,0.021819,-0.364318,-0.111820,-0.230680,-0.125000,-0.198860,-0.125000,0.332500,-0.111820,0.364320,-0.080000,0.377500,0.080000,0.377500,0.111820,0.364320,0.111820,0.364320,$1*%
G04 Aperture macros list end*
%ADD10RoundRect,0.200000X0.250000X-0.200000X0.250000X0.200000X-0.250000X0.200000X-0.250000X-0.200000X0*%
%ADD11RoundRect,0.140000X-0.140000X-0.170000X0.140000X-0.170000X0.140000X0.170000X-0.140000X0.170000X0*%
%ADD12RoundRect,0.140000X-0.170000X0.140000X-0.170000X-0.140000X0.170000X-0.140000X0.170000X0.140000X0*%
%ADD13FreePoly0,135.000000*%
%ADD14RoundRect,0.062500X0.309359X-0.220971X-0.220971X0.309359X-0.309359X0.220971X0.220971X-0.309359X0*%
%ADD15FreePoly1,135.000000*%
%ADD16FreePoly2,135.000000*%
%ADD17RoundRect,0.062500X0.309359X0.220971X0.220971X0.309359X-0.309359X-0.220971X-0.220971X-0.309359X0*%
%ADD18FreePoly3,135.000000*%
%ADD19FreePoly4,135.000000*%
%ADD20FreePoly5,135.000000*%
%ADD21FreePoly6,135.000000*%
%ADD22FreePoly7,135.000000*%
%ADD23RoundRect,0.140000X0.021213X-0.219203X0.219203X-0.021213X-0.021213X0.219203X-0.219203X0.021213X0*%
%ADD24RoundRect,0.135000X-0.226274X-0.035355X-0.035355X-0.226274X0.226274X0.035355X0.035355X0.226274X0*%
%ADD25R,1.500000X2.000000*%
%ADD26R,3.800000X2.000000*%
%ADD27RoundRect,0.140000X-0.021213X0.219203X-0.219203X0.021213X0.021213X-0.219203X0.219203X-0.021213X0*%
%ADD28RoundRect,0.150000X0.825000X0.150000X-0.825000X0.150000X-0.825000X-0.150000X0.825000X-0.150000X0*%
%ADD29RoundRect,0.140000X0.170000X-0.140000X0.170000X0.140000X-0.170000X0.140000X-0.170000X-0.140000X0*%
%ADD30RoundRect,0.250000X-0.262500X-0.450000X0.262500X-0.450000X0.262500X0.450000X-0.262500X0.450000X0*%
%ADD31RoundRect,0.140000X0.140000X0.170000X-0.140000X0.170000X-0.140000X-0.170000X0.140000X-0.170000X0*%
%ADD32RoundRect,0.225000X-0.225000X-0.250000X0.225000X-0.250000X0.225000X0.250000X-0.225000X0.250000X0*%
G04 APERTURE END LIST*
D10*
X41900000Y-45500000D03*
X43750000Y-45500000D03*
X43750000Y-44050000D03*
X41900000Y-44050000D03*
D11*
X31195000Y-40450000D03*
X32155000Y-40450000D03*
D12*
X35700000Y-50000000D03*
X35700000Y-50960000D03*
D11*
X43345000Y-42850000D03*
X44305000Y-42850000D03*
D13*
X41126786Y-41198106D03*
D14*
X41437913Y-40802126D03*
X41791466Y-40448573D03*
X42145019Y-40095019D03*
X42498573Y-39741466D03*
X42852126Y-39387913D03*
D15*
X43248106Y-39076786D03*
D16*
X43248106Y-38373214D03*
D17*
X42852126Y-38062087D03*
X42498573Y-37708534D03*
X42145019Y-37354981D03*
X41791466Y-37001427D03*
X41437913Y-36647874D03*
D18*
X41126786Y-36251894D03*
D19*
X40423214Y-36251894D03*
D14*
X40112087Y-36647874D03*
X39758534Y-37001427D03*
X39404981Y-37354981D03*
X39051427Y-37708534D03*
X38697874Y-38062087D03*
D20*
X38301894Y-38373214D03*
D21*
X38301894Y-39076786D03*
D17*
X38697874Y-39387913D03*
X39051427Y-39741466D03*
X39404981Y-40095019D03*
X39758534Y-40448573D03*
X40112087Y-40802126D03*
D22*
X40423214Y-41198106D03*
D23*
X39010589Y-35739411D03*
X39689411Y-35060589D03*
D24*
X43114376Y-40914376D03*
X43835624Y-41635624D03*
D25*
X49475000Y-30025000D03*
X47175000Y-30025000D03*
D26*
X47175000Y-36325000D03*
D25*
X44875000Y-30025000D03*
D27*
X38339411Y-36410589D03*
X37660589Y-37089411D03*
D28*
X38275000Y-47205000D03*
X38275000Y-45935000D03*
X38275000Y-44665000D03*
X38275000Y-43395000D03*
X33325000Y-43395000D03*
X33325000Y-44665000D03*
X33325000Y-45935000D03*
X33325000Y-47205000D03*
D29*
X28000000Y-27930000D03*
X28000000Y-26970000D03*
D30*
X36987500Y-49330000D03*
X38812500Y-49330000D03*
D29*
X43025000Y-29580000D03*
X43025000Y-28620000D03*
D25*
X31900000Y-30850000D03*
D26*
X29600000Y-37150000D03*
D25*
X29600000Y-30850000D03*
X27300000Y-30850000D03*
D31*
X42430000Y-42850000D03*
X41470000Y-42850000D03*
D29*
X44725000Y-40555000D03*
X44725000Y-39595000D03*
D32*
X31025000Y-39225000D03*
X32575000Y-39225000D03*
D30*
X32587500Y-49305000D03*
X34412500Y-49305000D03*
D32*
X48400000Y-38400000D03*
X49950000Y-38400000D03*
M02*
