G04 #@! TF.GenerationSoftware,KiCad,Pcbnew,9.0.0*
G04 #@! TF.CreationDate,2025-02-28T23:24:18-08:00*
G04 #@! TF.ProjectId,Constellation STAR UAF V1.1,436f6e73-7465-46c6-9c61-74696f6e2053,rev?*
G04 #@! TF.SameCoordinates,Original*
G04 #@! TF.FileFunction,Legend,Bot*
G04 #@! TF.FilePolarity,Positive*
%FSLAX46Y46*%
G04 Gerber Fmt 4.6, Leading zero omitted, Abs format (unit mm)*
G04 Created by KiCad (PCBNEW 9.0.0) date 2025-02-28 23:24:18*
%MOMM*%
%LPD*%
G01*
G04 APERTURE LIST*
%ADD10C,0.350000*%
%ADD11C,0.600000*%
%ADD12C,0.508000*%
%ADD13C,0.000000*%
%ADD14C,3.200000*%
%ADD15C,1.900000*%
G04 APERTURE END LIST*
D10*
X30528072Y-37210964D02*
X30278072Y-37294298D01*
X30278072Y-37294298D02*
X30194738Y-37377631D01*
X30194738Y-37377631D02*
X30111405Y-37544298D01*
X30111405Y-37544298D02*
X30111405Y-37794298D01*
X30111405Y-37794298D02*
X30194738Y-37960964D01*
X30194738Y-37960964D02*
X30278072Y-38044298D01*
X30278072Y-38044298D02*
X30444738Y-38127631D01*
X30444738Y-38127631D02*
X31111405Y-38127631D01*
X31111405Y-38127631D02*
X31111405Y-36377631D01*
X31111405Y-36377631D02*
X30528072Y-36377631D01*
X30528072Y-36377631D02*
X30361405Y-36460964D01*
X30361405Y-36460964D02*
X30278072Y-36544298D01*
X30278072Y-36544298D02*
X30194738Y-36710964D01*
X30194738Y-36710964D02*
X30194738Y-36877631D01*
X30194738Y-36877631D02*
X30278072Y-37044298D01*
X30278072Y-37044298D02*
X30361405Y-37127631D01*
X30361405Y-37127631D02*
X30528072Y-37210964D01*
X30528072Y-37210964D02*
X31111405Y-37210964D01*
X28528072Y-38127631D02*
X29361405Y-38127631D01*
X29361405Y-38127631D02*
X29361405Y-36377631D01*
X27944738Y-36377631D02*
X27944738Y-37794298D01*
X27944738Y-37794298D02*
X27861405Y-37960964D01*
X27861405Y-37960964D02*
X27778071Y-38044298D01*
X27778071Y-38044298D02*
X27611405Y-38127631D01*
X27611405Y-38127631D02*
X27278071Y-38127631D01*
X27278071Y-38127631D02*
X27111405Y-38044298D01*
X27111405Y-38044298D02*
X27028071Y-37960964D01*
X27028071Y-37960964D02*
X26944738Y-37794298D01*
X26944738Y-37794298D02*
X26944738Y-36377631D01*
X30143069Y-60614968D02*
X30309736Y-60531635D01*
X30309736Y-60531635D02*
X30559736Y-60531635D01*
X30559736Y-60531635D02*
X30809736Y-60614968D01*
X30809736Y-60614968D02*
X30976403Y-60781635D01*
X30976403Y-60781635D02*
X31059736Y-60948302D01*
X31059736Y-60948302D02*
X31143069Y-61281635D01*
X31143069Y-61281635D02*
X31143069Y-61531635D01*
X31143069Y-61531635D02*
X31059736Y-61864968D01*
X31059736Y-61864968D02*
X30976403Y-62031635D01*
X30976403Y-62031635D02*
X30809736Y-62198302D01*
X30809736Y-62198302D02*
X30559736Y-62281635D01*
X30559736Y-62281635D02*
X30393069Y-62281635D01*
X30393069Y-62281635D02*
X30143069Y-62198302D01*
X30143069Y-62198302D02*
X30059736Y-62114968D01*
X30059736Y-62114968D02*
X30059736Y-61531635D01*
X30059736Y-61531635D02*
X30393069Y-61531635D01*
X29309736Y-62281635D02*
X29309736Y-60531635D01*
X29309736Y-60531635D02*
X28309736Y-62281635D01*
X28309736Y-62281635D02*
X28309736Y-60531635D01*
X27476403Y-62281635D02*
X27476403Y-60531635D01*
X27476403Y-60531635D02*
X27059736Y-60531635D01*
X27059736Y-60531635D02*
X26809736Y-60614968D01*
X26809736Y-60614968D02*
X26643070Y-60781635D01*
X26643070Y-60781635D02*
X26559736Y-60948302D01*
X26559736Y-60948302D02*
X26476403Y-61281635D01*
X26476403Y-61281635D02*
X26476403Y-61531635D01*
X26476403Y-61531635D02*
X26559736Y-61864968D01*
X26559736Y-61864968D02*
X26643070Y-62031635D01*
X26643070Y-62031635D02*
X26809736Y-62198302D01*
X26809736Y-62198302D02*
X27059736Y-62281635D01*
X27059736Y-62281635D02*
X27476403Y-62281635D01*
X80954737Y-41318297D02*
X80954737Y-42151630D01*
X81538070Y-40401630D02*
X80954737Y-41318297D01*
X80954737Y-41318297D02*
X80371403Y-40401630D01*
X78954737Y-42151630D02*
X79788070Y-42151630D01*
X79788070Y-42151630D02*
X79788070Y-40401630D01*
X78538070Y-40401630D02*
X78121403Y-42151630D01*
X78121403Y-42151630D02*
X77788070Y-40901630D01*
X77788070Y-40901630D02*
X77454736Y-42151630D01*
X77454736Y-42151630D02*
X77038070Y-40401630D01*
D11*
X27159532Y-77751930D02*
X30659532Y-77751930D01*
X27159532Y-76085263D02*
X30659532Y-76085263D01*
X30659532Y-76085263D02*
X27159532Y-74085263D01*
X27159532Y-74085263D02*
X30659532Y-74085263D01*
D10*
X30486405Y-33710964D02*
X30236405Y-33794298D01*
X30236405Y-33794298D02*
X30153071Y-33877631D01*
X30153071Y-33877631D02*
X30069738Y-34044298D01*
X30069738Y-34044298D02*
X30069738Y-34294298D01*
X30069738Y-34294298D02*
X30153071Y-34460964D01*
X30153071Y-34460964D02*
X30236405Y-34544298D01*
X30236405Y-34544298D02*
X30403071Y-34627631D01*
X30403071Y-34627631D02*
X31069738Y-34627631D01*
X31069738Y-34627631D02*
X31069738Y-32877631D01*
X31069738Y-32877631D02*
X30486405Y-32877631D01*
X30486405Y-32877631D02*
X30319738Y-32960964D01*
X30319738Y-32960964D02*
X30236405Y-33044298D01*
X30236405Y-33044298D02*
X30153071Y-33210964D01*
X30153071Y-33210964D02*
X30153071Y-33377631D01*
X30153071Y-33377631D02*
X30236405Y-33544298D01*
X30236405Y-33544298D02*
X30319738Y-33627631D01*
X30319738Y-33627631D02*
X30486405Y-33710964D01*
X30486405Y-33710964D02*
X31069738Y-33710964D01*
X28486405Y-34627631D02*
X29319738Y-34627631D01*
X29319738Y-34627631D02*
X29319738Y-32877631D01*
X27903071Y-34627631D02*
X27903071Y-32877631D01*
X26903071Y-34627631D02*
X27653071Y-33627631D01*
X26903071Y-32877631D02*
X27903071Y-33877631D01*
X31143070Y-65781636D02*
X31143070Y-64031636D01*
X31143070Y-64031636D02*
X30476403Y-64031636D01*
X30476403Y-64031636D02*
X30309737Y-64114969D01*
X30309737Y-64114969D02*
X30226403Y-64198303D01*
X30226403Y-64198303D02*
X30143070Y-64364969D01*
X30143070Y-64364969D02*
X30143070Y-64614969D01*
X30143070Y-64614969D02*
X30226403Y-64781636D01*
X30226403Y-64781636D02*
X30309737Y-64864969D01*
X30309737Y-64864969D02*
X30476403Y-64948303D01*
X30476403Y-64948303D02*
X31143070Y-64948303D01*
X29559737Y-64031636D02*
X29143070Y-65781636D01*
X29143070Y-65781636D02*
X28809737Y-64531636D01*
X28809737Y-64531636D02*
X28476403Y-65781636D01*
X28476403Y-65781636D02*
X28059737Y-64031636D01*
X26393070Y-65781636D02*
X26976403Y-64948303D01*
X27393070Y-65781636D02*
X27393070Y-64031636D01*
X27393070Y-64031636D02*
X26726403Y-64031636D01*
X26726403Y-64031636D02*
X26559737Y-64114969D01*
X26559737Y-64114969D02*
X26476403Y-64198303D01*
X26476403Y-64198303D02*
X26393070Y-64364969D01*
X26393070Y-64364969D02*
X26393070Y-64614969D01*
X26393070Y-64614969D02*
X26476403Y-64781636D01*
X26476403Y-64781636D02*
X26559737Y-64864969D01*
X26559737Y-64864969D02*
X26726403Y-64948303D01*
X26726403Y-64948303D02*
X27393070Y-64948303D01*
X80218068Y-61214968D02*
X80384735Y-61131635D01*
X80384735Y-61131635D02*
X80634735Y-61131635D01*
X80634735Y-61131635D02*
X80884735Y-61214968D01*
X80884735Y-61214968D02*
X81051402Y-61381635D01*
X81051402Y-61381635D02*
X81134735Y-61548302D01*
X81134735Y-61548302D02*
X81218068Y-61881635D01*
X81218068Y-61881635D02*
X81218068Y-62131635D01*
X81218068Y-62131635D02*
X81134735Y-62464968D01*
X81134735Y-62464968D02*
X81051402Y-62631635D01*
X81051402Y-62631635D02*
X80884735Y-62798302D01*
X80884735Y-62798302D02*
X80634735Y-62881635D01*
X80634735Y-62881635D02*
X80468068Y-62881635D01*
X80468068Y-62881635D02*
X80218068Y-62798302D01*
X80218068Y-62798302D02*
X80134735Y-62714968D01*
X80134735Y-62714968D02*
X80134735Y-62131635D01*
X80134735Y-62131635D02*
X80468068Y-62131635D01*
X79384735Y-62881635D02*
X79384735Y-61131635D01*
X79384735Y-61131635D02*
X78384735Y-62881635D01*
X78384735Y-62881635D02*
X78384735Y-61131635D01*
X77551402Y-62881635D02*
X77551402Y-61131635D01*
X77551402Y-61131635D02*
X77134735Y-61131635D01*
X77134735Y-61131635D02*
X76884735Y-61214968D01*
X76884735Y-61214968D02*
X76718069Y-61381635D01*
X76718069Y-61381635D02*
X76634735Y-61548302D01*
X76634735Y-61548302D02*
X76551402Y-61881635D01*
X76551402Y-61881635D02*
X76551402Y-62131635D01*
X76551402Y-62131635D02*
X76634735Y-62464968D01*
X76634735Y-62464968D02*
X76718069Y-62631635D01*
X76718069Y-62631635D02*
X76884735Y-62798302D01*
X76884735Y-62798302D02*
X77134735Y-62881635D01*
X77134735Y-62881635D02*
X77551402Y-62881635D01*
X81218069Y-66381636D02*
X81218069Y-64631636D01*
X81218069Y-64631636D02*
X80551402Y-64631636D01*
X80551402Y-64631636D02*
X80384736Y-64714969D01*
X80384736Y-64714969D02*
X80301402Y-64798303D01*
X80301402Y-64798303D02*
X80218069Y-64964969D01*
X80218069Y-64964969D02*
X80218069Y-65214969D01*
X80218069Y-65214969D02*
X80301402Y-65381636D01*
X80301402Y-65381636D02*
X80384736Y-65464969D01*
X80384736Y-65464969D02*
X80551402Y-65548303D01*
X80551402Y-65548303D02*
X81218069Y-65548303D01*
X79634736Y-64631636D02*
X79218069Y-66381636D01*
X79218069Y-66381636D02*
X78884736Y-65131636D01*
X78884736Y-65131636D02*
X78551402Y-66381636D01*
X78551402Y-66381636D02*
X78134736Y-64631636D01*
X76468069Y-66381636D02*
X77051402Y-65548303D01*
X77468069Y-66381636D02*
X77468069Y-64631636D01*
X77468069Y-64631636D02*
X76801402Y-64631636D01*
X76801402Y-64631636D02*
X76634736Y-64714969D01*
X76634736Y-64714969D02*
X76551402Y-64798303D01*
X76551402Y-64798303D02*
X76468069Y-64964969D01*
X76468069Y-64964969D02*
X76468069Y-65214969D01*
X76468069Y-65214969D02*
X76551402Y-65381636D01*
X76551402Y-65381636D02*
X76634736Y-65464969D01*
X76634736Y-65464969D02*
X76801402Y-65548303D01*
X76801402Y-65548303D02*
X77468069Y-65548303D01*
X81163070Y-54401635D02*
X80829736Y-54401635D01*
X80829736Y-54401635D02*
X80663070Y-54484968D01*
X80663070Y-54484968D02*
X80496403Y-54651635D01*
X80496403Y-54651635D02*
X80413070Y-54984968D01*
X80413070Y-54984968D02*
X80413070Y-55568302D01*
X80413070Y-55568302D02*
X80496403Y-55901635D01*
X80496403Y-55901635D02*
X80663070Y-56068302D01*
X80663070Y-56068302D02*
X80829736Y-56151635D01*
X80829736Y-56151635D02*
X81163070Y-56151635D01*
X81163070Y-56151635D02*
X81329736Y-56068302D01*
X81329736Y-56068302D02*
X81496403Y-55901635D01*
X81496403Y-55901635D02*
X81579736Y-55568302D01*
X81579736Y-55568302D02*
X81579736Y-54984968D01*
X81579736Y-54984968D02*
X81496403Y-54651635D01*
X81496403Y-54651635D02*
X81329736Y-54484968D01*
X81329736Y-54484968D02*
X81163070Y-54401635D01*
X78663070Y-56151635D02*
X79246403Y-55318302D01*
X79663070Y-56151635D02*
X79663070Y-54401635D01*
X79663070Y-54401635D02*
X78996403Y-54401635D01*
X78996403Y-54401635D02*
X78829737Y-54484968D01*
X78829737Y-54484968D02*
X78746403Y-54568302D01*
X78746403Y-54568302D02*
X78663070Y-54734968D01*
X78663070Y-54734968D02*
X78663070Y-54984968D01*
X78663070Y-54984968D02*
X78746403Y-55151635D01*
X78746403Y-55151635D02*
X78829737Y-55234968D01*
X78829737Y-55234968D02*
X78996403Y-55318302D01*
X78996403Y-55318302D02*
X79663070Y-55318302D01*
X76996403Y-54484968D02*
X77163070Y-54401635D01*
X77163070Y-54401635D02*
X77413070Y-54401635D01*
X77413070Y-54401635D02*
X77663070Y-54484968D01*
X77663070Y-54484968D02*
X77829737Y-54651635D01*
X77829737Y-54651635D02*
X77913070Y-54818302D01*
X77913070Y-54818302D02*
X77996403Y-55151635D01*
X77996403Y-55151635D02*
X77996403Y-55401635D01*
X77996403Y-55401635D02*
X77913070Y-55734968D01*
X77913070Y-55734968D02*
X77829737Y-55901635D01*
X77829737Y-55901635D02*
X77663070Y-56068302D01*
X77663070Y-56068302D02*
X77413070Y-56151635D01*
X77413070Y-56151635D02*
X77246403Y-56151635D01*
X77246403Y-56151635D02*
X76996403Y-56068302D01*
X76996403Y-56068302D02*
X76913070Y-55984968D01*
X76913070Y-55984968D02*
X76913070Y-55401635D01*
X76913070Y-55401635D02*
X77246403Y-55401635D01*
X30944738Y-53877636D02*
X30611404Y-53877636D01*
X30611404Y-53877636D02*
X30444738Y-53960969D01*
X30444738Y-53960969D02*
X30278071Y-54127636D01*
X30278071Y-54127636D02*
X30194738Y-54460969D01*
X30194738Y-54460969D02*
X30194738Y-55044303D01*
X30194738Y-55044303D02*
X30278071Y-55377636D01*
X30278071Y-55377636D02*
X30444738Y-55544303D01*
X30444738Y-55544303D02*
X30611404Y-55627636D01*
X30611404Y-55627636D02*
X30944738Y-55627636D01*
X30944738Y-55627636D02*
X31111404Y-55544303D01*
X31111404Y-55544303D02*
X31278071Y-55377636D01*
X31278071Y-55377636D02*
X31361404Y-55044303D01*
X31361404Y-55044303D02*
X31361404Y-54460969D01*
X31361404Y-54460969D02*
X31278071Y-54127636D01*
X31278071Y-54127636D02*
X31111404Y-53960969D01*
X31111404Y-53960969D02*
X30944738Y-53877636D01*
X28444738Y-55627636D02*
X29028071Y-54794303D01*
X29444738Y-55627636D02*
X29444738Y-53877636D01*
X29444738Y-53877636D02*
X28778071Y-53877636D01*
X28778071Y-53877636D02*
X28611405Y-53960969D01*
X28611405Y-53960969D02*
X28528071Y-54044303D01*
X28528071Y-54044303D02*
X28444738Y-54210969D01*
X28444738Y-54210969D02*
X28444738Y-54460969D01*
X28444738Y-54460969D02*
X28528071Y-54627636D01*
X28528071Y-54627636D02*
X28611405Y-54710969D01*
X28611405Y-54710969D02*
X28778071Y-54794303D01*
X28778071Y-54794303D02*
X29444738Y-54794303D01*
X26778071Y-53960969D02*
X26944738Y-53877636D01*
X26944738Y-53877636D02*
X27194738Y-53877636D01*
X27194738Y-53877636D02*
X27444738Y-53960969D01*
X27444738Y-53960969D02*
X27611405Y-54127636D01*
X27611405Y-54127636D02*
X27694738Y-54294303D01*
X27694738Y-54294303D02*
X27778071Y-54627636D01*
X27778071Y-54627636D02*
X27778071Y-54877636D01*
X27778071Y-54877636D02*
X27694738Y-55210969D01*
X27694738Y-55210969D02*
X27611405Y-55377636D01*
X27611405Y-55377636D02*
X27444738Y-55544303D01*
X27444738Y-55544303D02*
X27194738Y-55627636D01*
X27194738Y-55627636D02*
X27028071Y-55627636D01*
X27028071Y-55627636D02*
X26778071Y-55544303D01*
X26778071Y-55544303D02*
X26694738Y-55460969D01*
X26694738Y-55460969D02*
X26694738Y-54877636D01*
X26694738Y-54877636D02*
X27028071Y-54877636D01*
X80913070Y-51734963D02*
X80663070Y-51818297D01*
X80663070Y-51818297D02*
X80579736Y-51901630D01*
X80579736Y-51901630D02*
X80496403Y-52068297D01*
X80496403Y-52068297D02*
X80496403Y-52318297D01*
X80496403Y-52318297D02*
X80579736Y-52484963D01*
X80579736Y-52484963D02*
X80663070Y-52568297D01*
X80663070Y-52568297D02*
X80829736Y-52651630D01*
X80829736Y-52651630D02*
X81496403Y-52651630D01*
X81496403Y-52651630D02*
X81496403Y-50901630D01*
X81496403Y-50901630D02*
X80913070Y-50901630D01*
X80913070Y-50901630D02*
X80746403Y-50984963D01*
X80746403Y-50984963D02*
X80663070Y-51068297D01*
X80663070Y-51068297D02*
X80579736Y-51234963D01*
X80579736Y-51234963D02*
X80579736Y-51401630D01*
X80579736Y-51401630D02*
X80663070Y-51568297D01*
X80663070Y-51568297D02*
X80746403Y-51651630D01*
X80746403Y-51651630D02*
X80913070Y-51734963D01*
X80913070Y-51734963D02*
X81496403Y-51734963D01*
X78746403Y-52651630D02*
X79329736Y-51818297D01*
X79746403Y-52651630D02*
X79746403Y-50901630D01*
X79746403Y-50901630D02*
X79079736Y-50901630D01*
X79079736Y-50901630D02*
X78913070Y-50984963D01*
X78913070Y-50984963D02*
X78829736Y-51068297D01*
X78829736Y-51068297D02*
X78746403Y-51234963D01*
X78746403Y-51234963D02*
X78746403Y-51484963D01*
X78746403Y-51484963D02*
X78829736Y-51651630D01*
X78829736Y-51651630D02*
X78913070Y-51734963D01*
X78913070Y-51734963D02*
X79079736Y-51818297D01*
X79079736Y-51818297D02*
X79746403Y-51818297D01*
X77996403Y-52651630D02*
X77996403Y-50901630D01*
X77996403Y-50901630D02*
X76996403Y-52651630D01*
X76996403Y-52651630D02*
X76996403Y-50901630D01*
X44165000Y-86441634D02*
X43831666Y-86441634D01*
X43831666Y-86441634D02*
X43665000Y-86524967D01*
X43665000Y-86524967D02*
X43498333Y-86691634D01*
X43498333Y-86691634D02*
X43415000Y-87024967D01*
X43415000Y-87024967D02*
X43415000Y-87608301D01*
X43415000Y-87608301D02*
X43498333Y-87941634D01*
X43498333Y-87941634D02*
X43665000Y-88108301D01*
X43665000Y-88108301D02*
X43831666Y-88191634D01*
X43831666Y-88191634D02*
X44165000Y-88191634D01*
X44165000Y-88191634D02*
X44331666Y-88108301D01*
X44331666Y-88108301D02*
X44498333Y-87941634D01*
X44498333Y-87941634D02*
X44581666Y-87608301D01*
X44581666Y-87608301D02*
X44581666Y-87024967D01*
X44581666Y-87024967D02*
X44498333Y-86691634D01*
X44498333Y-86691634D02*
X44331666Y-86524967D01*
X44331666Y-86524967D02*
X44165000Y-86441634D01*
X42831667Y-86441634D02*
X41665000Y-88191634D01*
X41665000Y-86441634D02*
X42831667Y-88191634D01*
X41415000Y-88358301D02*
X40081666Y-88358301D01*
X39915000Y-86441634D02*
X38915000Y-86441634D01*
X39415000Y-88191634D02*
X39415000Y-86441634D01*
X38415000Y-87691634D02*
X37581667Y-87691634D01*
X38581667Y-88191634D02*
X37998334Y-86441634D01*
X37998334Y-86441634D02*
X37415000Y-88191634D01*
X36831667Y-88191634D02*
X36831667Y-86441634D01*
X36831667Y-86441634D02*
X35831667Y-88191634D01*
X35831667Y-88191634D02*
X35831667Y-86441634D01*
X34998334Y-88191634D02*
X34998334Y-86441634D01*
X33998334Y-88191634D02*
X34748334Y-87191634D01*
X33998334Y-86441634D02*
X34998334Y-87441634D01*
X30736405Y-40794298D02*
X30736405Y-41627631D01*
X31319738Y-39877631D02*
X30736405Y-40794298D01*
X30736405Y-40794298D02*
X30153071Y-39877631D01*
X28736405Y-41627631D02*
X29569738Y-41627631D01*
X29569738Y-41627631D02*
X29569738Y-39877631D01*
X28319738Y-39877631D02*
X27903071Y-41627631D01*
X27903071Y-41627631D02*
X27569738Y-40377631D01*
X27569738Y-40377631D02*
X27236404Y-41627631D01*
X27236404Y-41627631D02*
X26819738Y-39877631D01*
X57891666Y-86461634D02*
X57558332Y-86461634D01*
X57558332Y-86461634D02*
X57391666Y-86544967D01*
X57391666Y-86544967D02*
X57224999Y-86711634D01*
X57224999Y-86711634D02*
X57141666Y-87044967D01*
X57141666Y-87044967D02*
X57141666Y-87628301D01*
X57141666Y-87628301D02*
X57224999Y-87961634D01*
X57224999Y-87961634D02*
X57391666Y-88128301D01*
X57391666Y-88128301D02*
X57558332Y-88211634D01*
X57558332Y-88211634D02*
X57891666Y-88211634D01*
X57891666Y-88211634D02*
X58058332Y-88128301D01*
X58058332Y-88128301D02*
X58224999Y-87961634D01*
X58224999Y-87961634D02*
X58308332Y-87628301D01*
X58308332Y-87628301D02*
X58308332Y-87044967D01*
X58308332Y-87044967D02*
X58224999Y-86711634D01*
X58224999Y-86711634D02*
X58058332Y-86544967D01*
X58058332Y-86544967D02*
X57891666Y-86461634D01*
X56558333Y-86461634D02*
X55391666Y-88211634D01*
X55391666Y-86461634D02*
X56558333Y-88211634D01*
X55141666Y-88378301D02*
X53808332Y-88378301D01*
X53641666Y-86461634D02*
X53058333Y-88211634D01*
X53058333Y-88211634D02*
X52474999Y-86461634D01*
X51891666Y-87294967D02*
X51308333Y-87294967D01*
X51058333Y-88211634D02*
X51891666Y-88211634D01*
X51891666Y-88211634D02*
X51891666Y-86461634D01*
X51891666Y-86461634D02*
X51058333Y-86461634D01*
X50308333Y-88211634D02*
X50308333Y-86461634D01*
X50308333Y-86461634D02*
X49308333Y-88211634D01*
X49308333Y-88211634D02*
X49308333Y-86461634D01*
X48725000Y-86461634D02*
X47725000Y-86461634D01*
X48225000Y-88211634D02*
X48225000Y-86461634D01*
X31361405Y-46877632D02*
X30944738Y-48627632D01*
X30944738Y-48627632D02*
X30611405Y-47377632D01*
X30611405Y-47377632D02*
X30278071Y-48627632D01*
X30278071Y-48627632D02*
X29861405Y-46877632D01*
X29194738Y-48627632D02*
X29194738Y-46877632D01*
X29194738Y-47710965D02*
X28194738Y-47710965D01*
X28194738Y-48627632D02*
X28194738Y-46877632D01*
X27611405Y-46877632D02*
X26611405Y-46877632D01*
X27111405Y-48627632D02*
X27111405Y-46877632D01*
X72306665Y-88211634D02*
X72306665Y-86461634D01*
X72306665Y-87294967D02*
X71306665Y-87294967D01*
X71306665Y-88211634D02*
X71306665Y-86461634D01*
X70473332Y-87294967D02*
X69889999Y-87294967D01*
X69639999Y-88211634D02*
X70473332Y-88211634D01*
X70473332Y-88211634D02*
X70473332Y-86461634D01*
X70473332Y-86461634D02*
X69639999Y-86461634D01*
X69306666Y-88378301D02*
X67973332Y-88378301D01*
X67806666Y-86461634D02*
X66806666Y-86461634D01*
X67306666Y-88211634D02*
X67306666Y-86461634D01*
X66306666Y-87711634D02*
X65473333Y-87711634D01*
X66473333Y-88211634D02*
X65890000Y-86461634D01*
X65890000Y-86461634D02*
X65306666Y-88211634D01*
X64723333Y-88211634D02*
X64723333Y-86461634D01*
X64723333Y-86461634D02*
X63723333Y-88211634D01*
X63723333Y-88211634D02*
X63723333Y-86461634D01*
X62890000Y-88211634D02*
X62890000Y-86461634D01*
X61890000Y-88211634D02*
X62640000Y-87211634D01*
X61890000Y-86461634D02*
X62890000Y-87461634D01*
X30361404Y-43460964D02*
X30528071Y-43377631D01*
X30528071Y-43377631D02*
X30778071Y-43377631D01*
X30778071Y-43377631D02*
X31028071Y-43460964D01*
X31028071Y-43460964D02*
X31194738Y-43627631D01*
X31194738Y-43627631D02*
X31278071Y-43794298D01*
X31278071Y-43794298D02*
X31361404Y-44127631D01*
X31361404Y-44127631D02*
X31361404Y-44377631D01*
X31361404Y-44377631D02*
X31278071Y-44710964D01*
X31278071Y-44710964D02*
X31194738Y-44877631D01*
X31194738Y-44877631D02*
X31028071Y-45044298D01*
X31028071Y-45044298D02*
X30778071Y-45127631D01*
X30778071Y-45127631D02*
X30611404Y-45127631D01*
X30611404Y-45127631D02*
X30361404Y-45044298D01*
X30361404Y-45044298D02*
X30278071Y-44960964D01*
X30278071Y-44960964D02*
X30278071Y-44377631D01*
X30278071Y-44377631D02*
X30611404Y-44377631D01*
X28528071Y-45127631D02*
X29111404Y-44294298D01*
X29528071Y-45127631D02*
X29528071Y-43377631D01*
X29528071Y-43377631D02*
X28861404Y-43377631D01*
X28861404Y-43377631D02*
X28694738Y-43460964D01*
X28694738Y-43460964D02*
X28611404Y-43544298D01*
X28611404Y-43544298D02*
X28528071Y-43710964D01*
X28528071Y-43710964D02*
X28528071Y-43960964D01*
X28528071Y-43960964D02*
X28611404Y-44127631D01*
X28611404Y-44127631D02*
X28694738Y-44210964D01*
X28694738Y-44210964D02*
X28861404Y-44294298D01*
X28861404Y-44294298D02*
X29528071Y-44294298D01*
X27778071Y-45127631D02*
X27778071Y-43377631D01*
X27778071Y-43377631D02*
X26778071Y-45127631D01*
X26778071Y-45127631D02*
X26778071Y-43377631D01*
X80371403Y-31651630D02*
X80954736Y-30818297D01*
X81371403Y-31651630D02*
X81371403Y-29901630D01*
X81371403Y-29901630D02*
X80704736Y-29901630D01*
X80704736Y-29901630D02*
X80538070Y-29984963D01*
X80538070Y-29984963D02*
X80454736Y-30068297D01*
X80454736Y-30068297D02*
X80371403Y-30234963D01*
X80371403Y-30234963D02*
X80371403Y-30484963D01*
X80371403Y-30484963D02*
X80454736Y-30651630D01*
X80454736Y-30651630D02*
X80538070Y-30734963D01*
X80538070Y-30734963D02*
X80704736Y-30818297D01*
X80704736Y-30818297D02*
X81371403Y-30818297D01*
X79621403Y-30734963D02*
X79038070Y-30734963D01*
X78788070Y-31651630D02*
X79621403Y-31651630D01*
X79621403Y-31651630D02*
X79621403Y-29901630D01*
X79621403Y-29901630D02*
X78788070Y-29901630D01*
X78038070Y-31651630D02*
X78038070Y-29901630D01*
X78038070Y-29901630D02*
X77621403Y-29901630D01*
X77621403Y-29901630D02*
X77371403Y-29984963D01*
X77371403Y-29984963D02*
X77204737Y-30151630D01*
X77204737Y-30151630D02*
X77121403Y-30318297D01*
X77121403Y-30318297D02*
X77038070Y-30651630D01*
X77038070Y-30651630D02*
X77038070Y-30901630D01*
X77038070Y-30901630D02*
X77121403Y-31234963D01*
X77121403Y-31234963D02*
X77204737Y-31401630D01*
X77204737Y-31401630D02*
X77371403Y-31568297D01*
X77371403Y-31568297D02*
X77621403Y-31651630D01*
X77621403Y-31651630D02*
X78038070Y-31651630D01*
X80704737Y-34234963D02*
X80454737Y-34318297D01*
X80454737Y-34318297D02*
X80371403Y-34401630D01*
X80371403Y-34401630D02*
X80288070Y-34568297D01*
X80288070Y-34568297D02*
X80288070Y-34818297D01*
X80288070Y-34818297D02*
X80371403Y-34984963D01*
X80371403Y-34984963D02*
X80454737Y-35068297D01*
X80454737Y-35068297D02*
X80621403Y-35151630D01*
X80621403Y-35151630D02*
X81288070Y-35151630D01*
X81288070Y-35151630D02*
X81288070Y-33401630D01*
X81288070Y-33401630D02*
X80704737Y-33401630D01*
X80704737Y-33401630D02*
X80538070Y-33484963D01*
X80538070Y-33484963D02*
X80454737Y-33568297D01*
X80454737Y-33568297D02*
X80371403Y-33734963D01*
X80371403Y-33734963D02*
X80371403Y-33901630D01*
X80371403Y-33901630D02*
X80454737Y-34068297D01*
X80454737Y-34068297D02*
X80538070Y-34151630D01*
X80538070Y-34151630D02*
X80704737Y-34234963D01*
X80704737Y-34234963D02*
X81288070Y-34234963D01*
X78704737Y-35151630D02*
X79538070Y-35151630D01*
X79538070Y-35151630D02*
X79538070Y-33401630D01*
X78121403Y-35151630D02*
X78121403Y-33401630D01*
X77121403Y-35151630D02*
X77871403Y-34151630D01*
X77121403Y-33401630D02*
X78121403Y-34401630D01*
X80579736Y-43984963D02*
X80746403Y-43901630D01*
X80746403Y-43901630D02*
X80996403Y-43901630D01*
X80996403Y-43901630D02*
X81246403Y-43984963D01*
X81246403Y-43984963D02*
X81413070Y-44151630D01*
X81413070Y-44151630D02*
X81496403Y-44318297D01*
X81496403Y-44318297D02*
X81579736Y-44651630D01*
X81579736Y-44651630D02*
X81579736Y-44901630D01*
X81579736Y-44901630D02*
X81496403Y-45234963D01*
X81496403Y-45234963D02*
X81413070Y-45401630D01*
X81413070Y-45401630D02*
X81246403Y-45568297D01*
X81246403Y-45568297D02*
X80996403Y-45651630D01*
X80996403Y-45651630D02*
X80829736Y-45651630D01*
X80829736Y-45651630D02*
X80579736Y-45568297D01*
X80579736Y-45568297D02*
X80496403Y-45484963D01*
X80496403Y-45484963D02*
X80496403Y-44901630D01*
X80496403Y-44901630D02*
X80829736Y-44901630D01*
X78746403Y-45651630D02*
X79329736Y-44818297D01*
X79746403Y-45651630D02*
X79746403Y-43901630D01*
X79746403Y-43901630D02*
X79079736Y-43901630D01*
X79079736Y-43901630D02*
X78913070Y-43984963D01*
X78913070Y-43984963D02*
X78829736Y-44068297D01*
X78829736Y-44068297D02*
X78746403Y-44234963D01*
X78746403Y-44234963D02*
X78746403Y-44484963D01*
X78746403Y-44484963D02*
X78829736Y-44651630D01*
X78829736Y-44651630D02*
X78913070Y-44734963D01*
X78913070Y-44734963D02*
X79079736Y-44818297D01*
X79079736Y-44818297D02*
X79746403Y-44818297D01*
X77996403Y-45651630D02*
X77996403Y-43901630D01*
X77996403Y-43901630D02*
X76996403Y-45651630D01*
X76996403Y-45651630D02*
X76996403Y-43901630D01*
X30694738Y-51210964D02*
X30444738Y-51294298D01*
X30444738Y-51294298D02*
X30361404Y-51377631D01*
X30361404Y-51377631D02*
X30278071Y-51544298D01*
X30278071Y-51544298D02*
X30278071Y-51794298D01*
X30278071Y-51794298D02*
X30361404Y-51960964D01*
X30361404Y-51960964D02*
X30444738Y-52044298D01*
X30444738Y-52044298D02*
X30611404Y-52127631D01*
X30611404Y-52127631D02*
X31278071Y-52127631D01*
X31278071Y-52127631D02*
X31278071Y-50377631D01*
X31278071Y-50377631D02*
X30694738Y-50377631D01*
X30694738Y-50377631D02*
X30528071Y-50460964D01*
X30528071Y-50460964D02*
X30444738Y-50544298D01*
X30444738Y-50544298D02*
X30361404Y-50710964D01*
X30361404Y-50710964D02*
X30361404Y-50877631D01*
X30361404Y-50877631D02*
X30444738Y-51044298D01*
X30444738Y-51044298D02*
X30528071Y-51127631D01*
X30528071Y-51127631D02*
X30694738Y-51210964D01*
X30694738Y-51210964D02*
X31278071Y-51210964D01*
X28528071Y-52127631D02*
X29111404Y-51294298D01*
X29528071Y-52127631D02*
X29528071Y-50377631D01*
X29528071Y-50377631D02*
X28861404Y-50377631D01*
X28861404Y-50377631D02*
X28694738Y-50460964D01*
X28694738Y-50460964D02*
X28611404Y-50544298D01*
X28611404Y-50544298D02*
X28528071Y-50710964D01*
X28528071Y-50710964D02*
X28528071Y-50960964D01*
X28528071Y-50960964D02*
X28611404Y-51127631D01*
X28611404Y-51127631D02*
X28694738Y-51210964D01*
X28694738Y-51210964D02*
X28861404Y-51294298D01*
X28861404Y-51294298D02*
X29528071Y-51294298D01*
X27778071Y-52127631D02*
X27778071Y-50377631D01*
X27778071Y-50377631D02*
X26778071Y-52127631D01*
X26778071Y-52127631D02*
X26778071Y-50377631D01*
X30153071Y-31127631D02*
X30736404Y-30294298D01*
X31153071Y-31127631D02*
X31153071Y-29377631D01*
X31153071Y-29377631D02*
X30486404Y-29377631D01*
X30486404Y-29377631D02*
X30319738Y-29460964D01*
X30319738Y-29460964D02*
X30236404Y-29544298D01*
X30236404Y-29544298D02*
X30153071Y-29710964D01*
X30153071Y-29710964D02*
X30153071Y-29960964D01*
X30153071Y-29960964D02*
X30236404Y-30127631D01*
X30236404Y-30127631D02*
X30319738Y-30210964D01*
X30319738Y-30210964D02*
X30486404Y-30294298D01*
X30486404Y-30294298D02*
X31153071Y-30294298D01*
X29403071Y-30210964D02*
X28819738Y-30210964D01*
X28569738Y-31127631D02*
X29403071Y-31127631D01*
X29403071Y-31127631D02*
X29403071Y-29377631D01*
X29403071Y-29377631D02*
X28569738Y-29377631D01*
X27819738Y-31127631D02*
X27819738Y-29377631D01*
X27819738Y-29377631D02*
X27403071Y-29377631D01*
X27403071Y-29377631D02*
X27153071Y-29460964D01*
X27153071Y-29460964D02*
X26986405Y-29627631D01*
X26986405Y-29627631D02*
X26903071Y-29794298D01*
X26903071Y-29794298D02*
X26819738Y-30127631D01*
X26819738Y-30127631D02*
X26819738Y-30377631D01*
X26819738Y-30377631D02*
X26903071Y-30710964D01*
X26903071Y-30710964D02*
X26986405Y-30877631D01*
X26986405Y-30877631D02*
X27153071Y-31044298D01*
X27153071Y-31044298D02*
X27403071Y-31127631D01*
X27403071Y-31127631D02*
X27819738Y-31127631D01*
X81579737Y-47401631D02*
X81163070Y-49151631D01*
X81163070Y-49151631D02*
X80829737Y-47901631D01*
X80829737Y-47901631D02*
X80496403Y-49151631D01*
X80496403Y-49151631D02*
X80079737Y-47401631D01*
X79413070Y-49151631D02*
X79413070Y-47401631D01*
X79413070Y-48234964D02*
X78413070Y-48234964D01*
X78413070Y-49151631D02*
X78413070Y-47401631D01*
X77829737Y-47401631D02*
X76829737Y-47401631D01*
X77329737Y-49151631D02*
X77329737Y-47401631D01*
D11*
X76880467Y-71314736D02*
X76880467Y-71981402D01*
X76880467Y-71981402D02*
X77047134Y-72314736D01*
X77047134Y-72314736D02*
X77380467Y-72648069D01*
X77380467Y-72648069D02*
X78047134Y-72814736D01*
X78047134Y-72814736D02*
X79213801Y-72814736D01*
X79213801Y-72814736D02*
X79880467Y-72648069D01*
X79880467Y-72648069D02*
X80213801Y-72314736D01*
X80213801Y-72314736D02*
X80380467Y-71981402D01*
X80380467Y-71981402D02*
X80380467Y-71314736D01*
X80380467Y-71314736D02*
X80213801Y-70981402D01*
X80213801Y-70981402D02*
X79880467Y-70648069D01*
X79880467Y-70648069D02*
X79213801Y-70481402D01*
X79213801Y-70481402D02*
X78047134Y-70481402D01*
X78047134Y-70481402D02*
X77380467Y-70648069D01*
X77380467Y-70648069D02*
X77047134Y-70981402D01*
X77047134Y-70981402D02*
X76880467Y-71314736D01*
X76880467Y-74314736D02*
X79713801Y-74314736D01*
X79713801Y-74314736D02*
X80047134Y-74481403D01*
X80047134Y-74481403D02*
X80213801Y-74648069D01*
X80213801Y-74648069D02*
X80380467Y-74981403D01*
X80380467Y-74981403D02*
X80380467Y-75648069D01*
X80380467Y-75648069D02*
X80213801Y-75981403D01*
X80213801Y-75981403D02*
X80047134Y-76148069D01*
X80047134Y-76148069D02*
X79713801Y-76314736D01*
X79713801Y-76314736D02*
X76880467Y-76314736D01*
X76880467Y-77481403D02*
X76880467Y-79481403D01*
X80380467Y-78481403D02*
X76880467Y-78481403D01*
D10*
X80746404Y-37734963D02*
X80496404Y-37818297D01*
X80496404Y-37818297D02*
X80413070Y-37901630D01*
X80413070Y-37901630D02*
X80329737Y-38068297D01*
X80329737Y-38068297D02*
X80329737Y-38318297D01*
X80329737Y-38318297D02*
X80413070Y-38484963D01*
X80413070Y-38484963D02*
X80496404Y-38568297D01*
X80496404Y-38568297D02*
X80663070Y-38651630D01*
X80663070Y-38651630D02*
X81329737Y-38651630D01*
X81329737Y-38651630D02*
X81329737Y-36901630D01*
X81329737Y-36901630D02*
X80746404Y-36901630D01*
X80746404Y-36901630D02*
X80579737Y-36984963D01*
X80579737Y-36984963D02*
X80496404Y-37068297D01*
X80496404Y-37068297D02*
X80413070Y-37234963D01*
X80413070Y-37234963D02*
X80413070Y-37401630D01*
X80413070Y-37401630D02*
X80496404Y-37568297D01*
X80496404Y-37568297D02*
X80579737Y-37651630D01*
X80579737Y-37651630D02*
X80746404Y-37734963D01*
X80746404Y-37734963D02*
X81329737Y-37734963D01*
X78746404Y-38651630D02*
X79579737Y-38651630D01*
X79579737Y-38651630D02*
X79579737Y-36901630D01*
X78163070Y-36901630D02*
X78163070Y-38318297D01*
X78163070Y-38318297D02*
X78079737Y-38484963D01*
X78079737Y-38484963D02*
X77996403Y-38568297D01*
X77996403Y-38568297D02*
X77829737Y-38651630D01*
X77829737Y-38651630D02*
X77496403Y-38651630D01*
X77496403Y-38651630D02*
X77329737Y-38568297D01*
X77329737Y-38568297D02*
X77246403Y-38484963D01*
X77246403Y-38484963D02*
X77163070Y-38318297D01*
X77163070Y-38318297D02*
X77163070Y-36901630D01*
D12*
X61980999Y-54610000D02*
G75*
G02*
X61219001Y-54610000I-380999J0D01*
G01*
X61219001Y-54610000D02*
G75*
G02*
X61980999Y-54610000I380999J0D01*
G01*
X64576000Y-71580000D02*
G75*
G02*
X63814000Y-71580000I-381000J0D01*
G01*
X63814000Y-71580000D02*
G75*
G02*
X64576000Y-71580000I381000J0D01*
G01*
X36731000Y-71580000D02*
G75*
G02*
X35969000Y-71580000I-381000J0D01*
G01*
X35969000Y-71580000D02*
G75*
G02*
X36731000Y-71580000I381000J0D01*
G01*
X46731000Y-61270000D02*
G75*
G02*
X45969000Y-61270000I-381000J0D01*
G01*
X45969000Y-61270000D02*
G75*
G02*
X46731000Y-61270000I381000J0D01*
G01*
X61981000Y-64770000D02*
G75*
G02*
X61219000Y-64770000I-381000J0D01*
G01*
X61219000Y-64770000D02*
G75*
G02*
X61981000Y-64770000I381000J0D01*
G01*
X50571000Y-71580000D02*
G75*
G02*
X49809000Y-71580000I-381000J0D01*
G01*
X49809000Y-71580000D02*
G75*
G02*
X50571000Y-71580000I381000J0D01*
G01*
X46730999Y-30109995D02*
G75*
G02*
X45969001Y-30109995I-380999J0D01*
G01*
X45969001Y-30109995D02*
G75*
G02*
X46730999Y-30109995I380999J0D01*
G01*
D13*
G36*
X58943667Y-53579202D02*
G01*
X58939094Y-53732974D01*
X58925489Y-53861426D01*
X58906008Y-53919479D01*
X58897209Y-53923805D01*
X58811149Y-53949587D01*
X58679802Y-53978125D01*
X58491254Y-54013497D01*
X58506208Y-53698820D01*
X58521163Y-53384144D01*
X58732415Y-53323172D01*
X58943667Y-53262199D01*
X58943667Y-53579202D01*
G37*
G36*
X58943667Y-49553091D02*
G01*
X58943667Y-50363094D01*
X58766854Y-50467416D01*
X58727870Y-50489759D01*
X58612037Y-50548275D01*
X58542001Y-50571739D01*
X58533560Y-50561888D01*
X58518490Y-50472084D01*
X58508894Y-50295866D01*
X58505132Y-50042123D01*
X58507562Y-49719743D01*
X58521163Y-48867746D01*
X58732415Y-48805417D01*
X58943667Y-48743088D01*
X58943667Y-49553091D01*
G37*
G36*
X58943667Y-58549960D02*
G01*
X58943667Y-59359963D01*
X58766854Y-59464285D01*
X58727870Y-59486628D01*
X58612037Y-59545144D01*
X58542001Y-59568607D01*
X58533560Y-59558757D01*
X58518490Y-59468953D01*
X58508894Y-59292735D01*
X58505132Y-59038991D01*
X58507562Y-58716612D01*
X58521163Y-57864615D01*
X58732415Y-57802286D01*
X58943667Y-57739957D01*
X58943667Y-58549960D01*
G37*
G36*
X58943667Y-60363899D02*
G01*
X58943667Y-61098995D01*
X58799459Y-61253371D01*
X58764905Y-61288137D01*
X58656999Y-61373559D01*
X58574577Y-61407747D01*
X58566716Y-61407324D01*
X58539158Y-61392658D01*
X58520154Y-61346969D01*
X58508598Y-61256587D01*
X58503381Y-61107844D01*
X58503396Y-60887072D01*
X58507535Y-60580601D01*
X58521163Y-59753456D01*
X58732415Y-59691129D01*
X58943667Y-59628803D01*
X58943667Y-60363899D01*
G37*
G36*
X56211457Y-56204439D02*
G01*
X56250291Y-56260481D01*
X56258323Y-56362683D01*
X56250065Y-56515911D01*
X56234665Y-56756062D01*
X55663041Y-56917868D01*
X55439823Y-56980373D01*
X55249258Y-57032437D01*
X55113983Y-57067944D01*
X55054137Y-57081480D01*
X55036374Y-57044443D01*
X55022265Y-56932541D01*
X55016857Y-56771649D01*
X55016857Y-56460012D01*
X55616400Y-56303360D01*
X55765032Y-56264587D01*
X55983339Y-56211359D01*
X56127311Y-56189686D01*
X56211457Y-56204439D01*
G37*
G36*
X58923427Y-47821653D02*
G01*
X58938044Y-47930033D01*
X58943667Y-48087646D01*
X58941022Y-48239151D01*
X58925603Y-48343507D01*
X58887334Y-48399848D01*
X58816165Y-48435592D01*
X58712968Y-48466424D01*
X58592486Y-48484068D01*
X58553133Y-48479273D01*
X58516663Y-48443809D01*
X58500171Y-48354314D01*
X58496309Y-48188165D01*
X58496309Y-47892263D01*
X58682709Y-47840497D01*
X58716029Y-47831401D01*
X58838168Y-47800904D01*
X58906388Y-47788455D01*
X58923427Y-47821653D01*
G37*
G36*
X58930854Y-54896558D02*
G01*
X58941756Y-54989737D01*
X58943667Y-55162382D01*
X58943667Y-55484969D01*
X58770667Y-55542064D01*
X58747797Y-55549206D01*
X58624048Y-55574189D01*
X58546988Y-55567839D01*
X58526987Y-55533298D01*
X58504898Y-55420998D01*
X58496309Y-55264836D01*
X58497079Y-55159428D01*
X58510596Y-55050015D01*
X58557202Y-54982000D01*
X58657434Y-54931502D01*
X58831828Y-54874635D01*
X58851082Y-54868841D01*
X58903213Y-54862906D01*
X58930854Y-54896558D01*
G37*
G36*
X58736007Y-63801951D02*
G01*
X58825774Y-63839983D01*
X58885795Y-63921749D01*
X58921698Y-64061102D01*
X58939114Y-64271897D01*
X58943667Y-64567987D01*
X58943667Y-65177791D01*
X58790724Y-65330733D01*
X58751132Y-65368169D01*
X58643708Y-65450739D01*
X58567045Y-65483676D01*
X58546170Y-65474971D01*
X58525401Y-65430725D01*
X58511088Y-65337599D01*
X58502173Y-65182964D01*
X58497599Y-64954196D01*
X58496309Y-64638667D01*
X58496309Y-63793657D01*
X58629088Y-63793657D01*
X58736007Y-63801951D01*
G37*
G36*
X56877302Y-55466656D02*
G01*
X56888597Y-55573396D01*
X56897598Y-55751581D01*
X56903551Y-55984771D01*
X56905703Y-56256523D01*
X56905703Y-57070075D01*
X56707944Y-57200946D01*
X56643096Y-57242948D01*
X56537422Y-57306711D01*
X56484263Y-57331817D01*
X56476577Y-57291520D01*
X56469285Y-57166606D01*
X56463511Y-56972483D01*
X56459712Y-56724859D01*
X56458345Y-56439437D01*
X56458345Y-55547058D01*
X56644744Y-55495292D01*
X56678064Y-55486195D01*
X56800205Y-55455699D01*
X56868424Y-55443249D01*
X56877302Y-55466656D01*
G37*
G36*
X58311719Y-47981356D02*
G01*
X58326364Y-48017901D01*
X58339054Y-48133393D01*
X58337607Y-48290517D01*
X58322337Y-48558516D01*
X57860115Y-48690488D01*
X57749973Y-48721821D01*
X57543865Y-48779850D01*
X57376416Y-48826227D01*
X57276064Y-48853036D01*
X57252113Y-48858855D01*
X57196271Y-48863138D01*
X57167132Y-48829380D01*
X57156012Y-48737125D01*
X57154235Y-48565915D01*
X57154235Y-48248217D01*
X57712398Y-48094207D01*
X57923554Y-48039755D01*
X58114046Y-47998407D01*
X58250273Y-47977654D01*
X58311719Y-47981356D01*
G37*
G36*
X58943667Y-56625827D02*
G01*
X58943667Y-57412924D01*
X58750500Y-57521489D01*
X58696058Y-57551422D01*
X58585052Y-57607718D01*
X58526821Y-57630056D01*
X58519437Y-57605666D01*
X58510236Y-57497696D01*
X58502907Y-57318437D01*
X58498061Y-57084288D01*
X58496309Y-56811648D01*
X58496272Y-56652748D01*
X58497735Y-56382754D01*
X58505327Y-56190299D01*
X58523958Y-56060535D01*
X58558531Y-55978611D01*
X58613956Y-55929681D01*
X58695134Y-55898896D01*
X58806975Y-55871406D01*
X58943667Y-55838730D01*
X58943667Y-56625827D01*
G37*
G36*
X58943667Y-66404867D02*
G01*
X58943667Y-67084224D01*
X58774665Y-67253226D01*
X58718379Y-67306692D01*
X58615856Y-67389570D01*
X58550986Y-67422228D01*
X58547071Y-67421303D01*
X58524497Y-67365423D01*
X58508675Y-67220630D01*
X58499360Y-66983485D01*
X58496309Y-66650548D01*
X58496049Y-66492580D01*
X58496198Y-66241459D01*
X58502256Y-66065792D01*
X58520241Y-65949607D01*
X58556173Y-65876939D01*
X58616069Y-65831820D01*
X58705947Y-65798279D01*
X58831828Y-65760350D01*
X58943667Y-65725510D01*
X58943667Y-66404867D01*
G37*
G36*
X56878457Y-57420554D02*
G01*
X56881353Y-57427294D01*
X56890911Y-57508713D01*
X56898642Y-57665287D01*
X56903816Y-57878054D01*
X56905703Y-58128053D01*
X56904987Y-58352169D01*
X56900602Y-58565478D01*
X56889905Y-58714445D01*
X56870287Y-58818753D01*
X56839143Y-58898081D01*
X56793863Y-58972113D01*
X56779869Y-58991977D01*
X56673193Y-59118590D01*
X56570184Y-59209206D01*
X56458345Y-59282495D01*
X56458345Y-58387762D01*
X56458345Y-57493029D01*
X56654778Y-57443169D01*
X56699023Y-57432791D01*
X56817658Y-57414563D01*
X56878457Y-57420554D01*
G37*
G36*
X58324545Y-49492790D02*
G01*
X58340849Y-49599614D01*
X58347190Y-49752600D01*
X58347190Y-50021136D01*
X58135938Y-50077025D01*
X57993662Y-50115073D01*
X57788125Y-50170663D01*
X57577739Y-50228061D01*
X57561111Y-50232609D01*
X57388241Y-50278427D01*
X57256236Y-50310883D01*
X57192514Y-50323207D01*
X57175494Y-50292565D01*
X57160149Y-50186659D01*
X57154235Y-50031232D01*
X57154235Y-49739257D01*
X57713433Y-49590335D01*
X57924248Y-49536449D01*
X58114460Y-49492464D01*
X58249834Y-49466435D01*
X58309910Y-49462738D01*
X58324545Y-49492790D01*
G37*
G36*
X58324545Y-58489659D02*
G01*
X58340849Y-58596483D01*
X58347190Y-58749469D01*
X58347190Y-59018005D01*
X58135939Y-59073895D01*
X57993662Y-59111942D01*
X57788125Y-59167532D01*
X57577739Y-59224930D01*
X57561111Y-59229478D01*
X57388241Y-59275295D01*
X57256236Y-59307752D01*
X57192514Y-59320076D01*
X57175494Y-59289434D01*
X57160149Y-59183528D01*
X57154235Y-59028101D01*
X57154235Y-58736126D01*
X57713433Y-58587203D01*
X57924248Y-58533318D01*
X58114460Y-58489333D01*
X58249834Y-58463304D01*
X58309910Y-58459607D01*
X58324545Y-58489659D01*
G37*
G36*
X58663140Y-51026472D02*
G01*
X58788335Y-51050163D01*
X58943667Y-51081230D01*
X58943667Y-51417178D01*
X58943449Y-51496221D01*
X58936576Y-51648592D01*
X58910025Y-51749181D01*
X58850498Y-51832456D01*
X58744698Y-51932883D01*
X58664524Y-52003509D01*
X58568583Y-52082082D01*
X58521019Y-52112639D01*
X58512445Y-52078498D01*
X58504085Y-51963151D01*
X58498404Y-51785586D01*
X58496309Y-51565868D01*
X58496307Y-51548438D01*
X58497176Y-51307934D01*
X58505678Y-51150702D01*
X58530428Y-51061525D01*
X58580044Y-51025187D01*
X58663140Y-51026472D01*
G37*
G36*
X56645864Y-53755472D02*
G01*
X56778201Y-53801429D01*
X56781796Y-53802804D01*
X56849733Y-53837377D01*
X56886928Y-53892280D01*
X56902534Y-53993854D01*
X56905703Y-54168444D01*
X56905636Y-54211710D01*
X56899919Y-54372255D01*
X56874559Y-54477328D01*
X56815011Y-54563349D01*
X56706734Y-54666738D01*
X56626560Y-54737365D01*
X56530618Y-54815937D01*
X56483055Y-54846494D01*
X56474481Y-54812353D01*
X56466122Y-54697006D01*
X56460440Y-54519442D01*
X56458345Y-54299723D01*
X56460251Y-54057165D01*
X56471668Y-53883095D01*
X56500884Y-53783396D01*
X56556189Y-53745158D01*
X56645864Y-53755472D01*
G37*
G36*
X58706023Y-45867134D02*
G01*
X58833195Y-45927004D01*
X58868966Y-45954976D01*
X58903583Y-46000594D01*
X58925465Y-46072230D01*
X58937508Y-46188231D01*
X58942611Y-46366945D01*
X58943667Y-46626718D01*
X58943666Y-46662640D01*
X58942762Y-46910343D01*
X58937584Y-47081057D01*
X58924345Y-47194797D01*
X58899255Y-47271582D01*
X58858528Y-47331427D01*
X58798372Y-47394349D01*
X58766906Y-47424146D01*
X58657446Y-47506551D01*
X58574693Y-47539645D01*
X58569645Y-47539430D01*
X58542076Y-47524735D01*
X58522297Y-47477401D01*
X58509070Y-47384076D01*
X58501155Y-47231409D01*
X58497314Y-47006046D01*
X58496309Y-46694635D01*
X58496309Y-45849626D01*
X58609515Y-45849626D01*
X58706023Y-45867134D01*
G37*
G36*
X56565630Y-51168390D02*
G01*
X56671635Y-51206247D01*
X56783696Y-51290223D01*
X56819045Y-51327196D01*
X56854813Y-51377597D01*
X56879079Y-51443992D01*
X56894071Y-51543065D01*
X56902020Y-51691500D01*
X56905153Y-51905979D01*
X56905703Y-52203187D01*
X56905703Y-52994146D01*
X56707943Y-53125016D01*
X56643096Y-53167018D01*
X56537423Y-53230781D01*
X56484263Y-53255888D01*
X56481688Y-53250736D01*
X56474246Y-53174311D01*
X56467830Y-53017709D01*
X56462801Y-52795451D01*
X56459519Y-52522058D01*
X56458345Y-52212052D01*
X56458496Y-51945839D01*
X56459793Y-51664454D01*
X56463462Y-51460691D01*
X56470719Y-51322032D01*
X56482784Y-51235969D01*
X56500877Y-51189987D01*
X56526215Y-51171574D01*
X56560018Y-51168217D01*
X56565630Y-51168390D01*
G37*
G36*
X57566463Y-66146685D02*
G01*
X57620831Y-66211800D01*
X57645491Y-66349375D01*
X57651300Y-66572725D01*
X57651640Y-66623826D01*
X57658763Y-66804061D01*
X57673223Y-66936153D01*
X57692520Y-66994479D01*
X57722020Y-66998805D01*
X57828094Y-66984611D01*
X57973806Y-66947706D01*
X58144070Y-66898584D01*
X58264102Y-66880390D01*
X58323919Y-66913734D01*
X58342079Y-67010644D01*
X58337135Y-67183143D01*
X58322337Y-67490830D01*
X57974392Y-67580247D01*
X57711685Y-67634067D01*
X57514596Y-67638366D01*
X57368209Y-67589894D01*
X57254254Y-67486268D01*
X57213802Y-67425430D01*
X57183095Y-67343022D01*
X57164997Y-67225198D01*
X57156409Y-67050645D01*
X57154235Y-66798049D01*
X57154235Y-66236983D01*
X57330258Y-66178890D01*
X57471534Y-66140713D01*
X57566463Y-66146685D01*
G37*
G36*
X57579678Y-54456831D02*
G01*
X57598033Y-54578885D01*
X57601593Y-54791470D01*
X57601574Y-54855395D01*
X57605472Y-55041329D01*
X57627953Y-55146183D01*
X57685314Y-55184463D01*
X57793852Y-55170679D01*
X57969865Y-55119342D01*
X58145966Y-55068204D01*
X58264986Y-55050447D01*
X58324214Y-55084280D01*
X58342111Y-55181490D01*
X58337135Y-55353864D01*
X58322337Y-55662408D01*
X57750712Y-55824270D01*
X57748942Y-55824772D01*
X57526616Y-55887589D01*
X57342756Y-55939283D01*
X57216420Y-55974512D01*
X57166662Y-55987938D01*
X57165566Y-55985492D01*
X57161410Y-55919176D01*
X57158417Y-55775869D01*
X57156851Y-55573784D01*
X57156985Y-55331132D01*
X57159735Y-54672522D01*
X57301108Y-54561040D01*
X57320746Y-54545596D01*
X57452544Y-54449014D01*
X57535018Y-54416482D01*
X57579678Y-54456831D01*
G37*
G36*
X58933407Y-61994332D02*
G01*
X58932873Y-62006253D01*
X58921631Y-62179189D01*
X58901552Y-62278231D01*
X58863474Y-62327589D01*
X58798233Y-62351470D01*
X58740768Y-62368390D01*
X58670923Y-62422231D01*
X58688639Y-62504495D01*
X58793758Y-62624798D01*
X58862195Y-62695946D01*
X58915394Y-62783758D01*
X58938583Y-62898914D01*
X58943667Y-63077350D01*
X58943623Y-63120110D01*
X58939325Y-63272787D01*
X58919629Y-63358978D01*
X58872808Y-63405919D01*
X58787131Y-63440849D01*
X58783479Y-63442116D01*
X58654788Y-63479805D01*
X58562278Y-63495417D01*
X58543470Y-63487390D01*
X58523756Y-63443025D01*
X58511102Y-63348821D01*
X58504715Y-63192401D01*
X58503800Y-62961393D01*
X58507562Y-62643422D01*
X58521163Y-61791425D01*
X58734581Y-61728457D01*
X58948000Y-61665488D01*
X58933407Y-61994332D01*
G37*
G36*
X58924750Y-43804288D02*
G01*
X58938438Y-43920555D01*
X58943667Y-44085046D01*
X58941973Y-44216568D01*
X58930818Y-44337153D01*
X58904279Y-44394221D01*
X58856681Y-44408899D01*
X58811252Y-44413951D01*
X58695710Y-44456438D01*
X58691046Y-44459481D01*
X58660916Y-44500779D01*
X58688515Y-44563496D01*
X58782696Y-44669295D01*
X58869601Y-44767411D01*
X58918538Y-44859388D01*
X58939332Y-44979095D01*
X58943667Y-45162315D01*
X58943515Y-45249213D01*
X58938356Y-45388853D01*
X58917863Y-45464243D01*
X58871401Y-45499895D01*
X58788335Y-45520320D01*
X58660128Y-45542042D01*
X58564656Y-45551387D01*
X58548107Y-45545245D01*
X58526810Y-45503200D01*
X58511976Y-45410774D01*
X58502610Y-45255718D01*
X58497718Y-45025782D01*
X58496309Y-44708713D01*
X58496309Y-43866040D01*
X58682710Y-43814274D01*
X58716029Y-43805178D01*
X58838169Y-43774681D01*
X58906388Y-43762232D01*
X58924750Y-43804288D01*
G37*
G36*
X58347190Y-56796868D02*
G01*
X58347190Y-57565351D01*
X57812847Y-57703923D01*
X57629133Y-57751992D01*
X57432688Y-57804458D01*
X57287610Y-57844448D01*
X57216368Y-57865860D01*
X57214075Y-57866585D01*
X57190111Y-57849527D01*
X57173053Y-57776935D01*
X57161993Y-57637852D01*
X57156023Y-57421321D01*
X57154235Y-57116390D01*
X57154992Y-56961875D01*
X57159684Y-56713824D01*
X57167953Y-56512502D01*
X57178966Y-56375468D01*
X57191893Y-56320281D01*
X57199973Y-56316254D01*
X57285051Y-56290544D01*
X57415572Y-56262109D01*
X57601593Y-56227212D01*
X57601594Y-56633852D01*
X57602349Y-56799230D01*
X57608406Y-56933858D01*
X57625274Y-57003491D01*
X57658451Y-57027340D01*
X57713432Y-57024609D01*
X57748974Y-57017521D01*
X57791414Y-56990281D01*
X57816522Y-56925992D01*
X57830522Y-56803868D01*
X57839637Y-56603125D01*
X57851398Y-56388413D01*
X57877408Y-56239028D01*
X57929451Y-56148809D01*
X58019815Y-56097092D01*
X58160791Y-56063219D01*
X58347190Y-56028386D01*
X58347190Y-56796868D01*
G37*
G36*
X58294409Y-61906744D02*
G01*
X58332067Y-61997329D01*
X58344841Y-62154527D01*
X58342781Y-62389224D01*
X58335937Y-62712308D01*
X58322337Y-63569512D01*
X57860115Y-63701661D01*
X57750268Y-63732949D01*
X57543544Y-63791208D01*
X57375138Y-63837878D01*
X57273652Y-63864992D01*
X57249637Y-63870896D01*
X57192344Y-63876696D01*
X57164440Y-63845153D01*
X57157789Y-63755618D01*
X57164249Y-63587443D01*
X57179088Y-63278712D01*
X57651300Y-63149814D01*
X57782108Y-63111899D01*
X57958005Y-63052525D01*
X58078692Y-63000742D01*
X58123511Y-62964654D01*
X58120699Y-62950063D01*
X58074314Y-62866023D01*
X57989004Y-62757430D01*
X57854497Y-62606469D01*
X57516951Y-62702998D01*
X57503609Y-62706810D01*
X57337544Y-62753667D01*
X57216031Y-62786899D01*
X57164549Y-62799528D01*
X57164456Y-62799520D01*
X57159059Y-62753177D01*
X57159032Y-62633496D01*
X57164390Y-62466116D01*
X57179088Y-62132704D01*
X57676153Y-61997639D01*
X57693915Y-61992795D01*
X57931619Y-61925797D01*
X58104236Y-61881866D01*
X58221815Y-61871885D01*
X58294409Y-61906744D01*
G37*
G36*
X57935358Y-59874618D02*
G01*
X58059531Y-59913144D01*
X58166439Y-59997891D01*
X58185968Y-60017610D01*
X58232308Y-60071374D01*
X58263621Y-60132430D01*
X58282852Y-60219201D01*
X58292943Y-60350111D01*
X58296839Y-60543585D01*
X58297484Y-60818048D01*
X58297483Y-61507160D01*
X58176768Y-61507160D01*
X58081239Y-61494713D01*
X57980632Y-61431353D01*
X57910270Y-61303993D01*
X57864554Y-61101131D01*
X57837885Y-60811269D01*
X57831555Y-60735285D01*
X57802980Y-60622219D01*
X57750712Y-60587590D01*
X57731268Y-60591976D01*
X57702855Y-60630586D01*
X57683551Y-60721960D01*
X57670792Y-60881646D01*
X57662012Y-61125188D01*
X57647870Y-61662785D01*
X57477209Y-61734092D01*
X57457915Y-61741959D01*
X57325306Y-61787011D01*
X57230391Y-61805399D01*
X57207042Y-61798319D01*
X57184442Y-61760943D01*
X57169208Y-61679053D01*
X57159992Y-61538929D01*
X57155450Y-61326851D01*
X57154235Y-61029101D01*
X57154235Y-60252803D01*
X57347213Y-60059825D01*
X57409082Y-59999678D01*
X57520438Y-59913078D01*
X57632057Y-59875203D01*
X57787793Y-59866847D01*
X57935358Y-59874618D01*
G37*
G36*
X56011140Y-57704695D02*
G01*
X56060431Y-57735007D01*
X56140726Y-57820426D01*
X56197428Y-57949409D01*
X56233863Y-58135783D01*
X56253359Y-58393379D01*
X56259242Y-58736025D01*
X56259519Y-59320076D01*
X56119900Y-59320076D01*
X56024989Y-59314421D01*
X55908553Y-59273684D01*
X55833839Y-59180463D01*
X55790971Y-59019359D01*
X55770063Y-58774977D01*
X55763156Y-58636213D01*
X55750843Y-58490819D01*
X55731174Y-58413305D01*
X55698013Y-58384523D01*
X55645227Y-58385329D01*
X55616348Y-58391021D01*
X55579772Y-58413151D01*
X55555821Y-58465832D01*
X55541004Y-58566277D01*
X55531832Y-58731698D01*
X55524816Y-58979313D01*
X55510858Y-59558119D01*
X55334886Y-59591131D01*
X55320918Y-59593794D01*
X55183373Y-59624016D01*
X55087887Y-59651400D01*
X55066534Y-59637926D01*
X55041508Y-59547237D01*
X55023653Y-59389106D01*
X55012900Y-59182338D01*
X55009185Y-58945736D01*
X55012440Y-58698105D01*
X55022598Y-58458244D01*
X55039594Y-58244960D01*
X55063360Y-58077056D01*
X55093830Y-57973335D01*
X55153652Y-57881579D01*
X55327909Y-57732842D01*
X55546762Y-57648554D01*
X55783433Y-57636558D01*
X56011140Y-57704695D01*
G37*
G36*
X58296829Y-63867813D02*
G01*
X58317097Y-63898578D01*
X58338923Y-64004793D01*
X58345523Y-64145558D01*
X58335922Y-64281102D01*
X58309149Y-64371649D01*
X58259054Y-64407428D01*
X58136734Y-64462028D01*
X57974392Y-64517880D01*
X57833430Y-64563452D01*
X57692518Y-64616008D01*
X57614020Y-64654290D01*
X57594711Y-64677557D01*
X57563144Y-64780525D01*
X57553143Y-64915676D01*
X57565809Y-65040200D01*
X57602246Y-65111282D01*
X57650411Y-65116777D01*
X57772407Y-65100254D01*
X57931165Y-65061426D01*
X58076089Y-65022431D01*
X58223304Y-65002230D01*
X58305248Y-65034810D01*
X58337933Y-65129388D01*
X58337380Y-65295184D01*
X58322337Y-65555161D01*
X58048951Y-65640649D01*
X57808796Y-65704392D01*
X57580077Y-65728811D01*
X57407153Y-65694483D01*
X57276128Y-65600684D01*
X57237988Y-65556745D01*
X57193205Y-65482792D01*
X57167937Y-65386487D01*
X57156756Y-65242162D01*
X57154235Y-65024146D01*
X57156608Y-64878780D01*
X57182700Y-64603533D01*
X57243410Y-64397348D01*
X57345947Y-64241151D01*
X57497522Y-64115860D01*
X57553249Y-64082954D01*
X57712426Y-64008453D01*
X57894654Y-63940912D01*
X58071652Y-63889108D01*
X58215138Y-63861816D01*
X58296829Y-63867813D01*
G37*
G36*
X58311854Y-45943526D02*
G01*
X58324557Y-45970590D01*
X58338943Y-46078075D01*
X58337770Y-46227916D01*
X58322337Y-46470956D01*
X57949538Y-46596478D01*
X57576740Y-46722000D01*
X57561590Y-46956850D01*
X57561459Y-46958882D01*
X57559223Y-47091184D01*
X57584439Y-47166809D01*
X57653760Y-47191886D01*
X57783838Y-47172537D01*
X57991324Y-47114886D01*
X58095424Y-47087471D01*
X58227068Y-47064520D01*
X58298585Y-47068115D01*
X58315299Y-47093651D01*
X58338206Y-47197442D01*
X58347190Y-47346289D01*
X58345290Y-47461487D01*
X58326669Y-47560942D01*
X58271714Y-47619791D01*
X58160848Y-47672283D01*
X58080450Y-47700339D01*
X57890539Y-47746427D01*
X57692894Y-47775677D01*
X57580071Y-47784223D01*
X57454504Y-47780241D01*
X57367669Y-47746144D01*
X57282759Y-47672688D01*
X57232624Y-47618427D01*
X57190004Y-47548158D01*
X57166432Y-47453726D01*
X57156359Y-47310057D01*
X57154235Y-47092078D01*
X57157373Y-46909467D01*
X57179645Y-46676049D01*
X57230568Y-46501376D01*
X57318621Y-46360936D01*
X57452277Y-46230216D01*
X57464174Y-46220666D01*
X57586843Y-46146351D01*
X57752162Y-46071545D01*
X57933727Y-46005052D01*
X58105134Y-45955681D01*
X58239977Y-45932237D01*
X58311854Y-45943526D01*
G37*
G36*
X58321880Y-43939558D02*
G01*
X58331965Y-44052340D01*
X58339984Y-44235805D01*
X58345279Y-44473756D01*
X58347190Y-44749997D01*
X58345893Y-45012489D01*
X58339779Y-45283241D01*
X58328043Y-45471220D01*
X58310023Y-45585887D01*
X58285057Y-45636699D01*
X58263919Y-45647424D01*
X58160957Y-45684415D01*
X57999047Y-45735390D01*
X57803391Y-45793179D01*
X57599192Y-45850610D01*
X57411656Y-45900512D01*
X57265982Y-45935711D01*
X57187380Y-45949038D01*
X57172634Y-45918331D01*
X57159353Y-45812353D01*
X57154235Y-45656855D01*
X57154235Y-45364671D01*
X57651300Y-45225849D01*
X57805128Y-45180089D01*
X57982428Y-45118852D01*
X58103533Y-45066278D01*
X58148364Y-45030268D01*
X58144527Y-45013850D01*
X58092271Y-44932349D01*
X57998350Y-44829786D01*
X57848337Y-44686064D01*
X57530407Y-44770780D01*
X57370230Y-44812451D01*
X57242868Y-44843593D01*
X57183356Y-44855496D01*
X57169095Y-44814074D01*
X57158345Y-44698326D01*
X57154235Y-44534320D01*
X57154235Y-44213144D01*
X57365487Y-44158440D01*
X57510909Y-44120109D01*
X57716835Y-44064832D01*
X57927855Y-44007404D01*
X57948782Y-44001680D01*
X58121239Y-43955814D01*
X58251610Y-43923376D01*
X58313081Y-43911074D01*
X58321880Y-43939558D01*
G37*
G36*
X57263387Y-50728705D02*
G01*
X57393638Y-50752629D01*
X57580344Y-50790081D01*
X57800419Y-50836547D01*
X58322337Y-50949259D01*
X58335446Y-51617935D01*
X58348556Y-52286612D01*
X57975075Y-52574214D01*
X57601593Y-52861816D01*
X57601593Y-53232825D01*
X57601592Y-53243544D01*
X57604394Y-53440440D01*
X57625135Y-53553039D01*
X57682208Y-53595816D01*
X57794005Y-53583248D01*
X57978918Y-53529811D01*
X58147657Y-53480513D01*
X58266356Y-53461772D01*
X58325017Y-53494491D01*
X58342367Y-53590869D01*
X58337135Y-53763100D01*
X58322337Y-54071486D01*
X57850313Y-54208141D01*
X57728965Y-54243136D01*
X57524730Y-54301411D01*
X57361408Y-54347234D01*
X57266262Y-54372913D01*
X57154235Y-54401030D01*
X57154235Y-53413593D01*
X57154235Y-52426157D01*
X57501373Y-52182412D01*
X57646862Y-52078630D01*
X57759613Y-51987826D01*
X57820034Y-51914125D01*
X57844482Y-51836425D01*
X57849318Y-51733628D01*
X57849225Y-51692132D01*
X57837877Y-51579931D01*
X57792537Y-51525775D01*
X57691287Y-51496821D01*
X57680367Y-51494608D01*
X57515904Y-51457604D01*
X57343342Y-51414132D01*
X57154235Y-51363211D01*
X57154235Y-51042035D01*
X57158945Y-50880358D01*
X57179005Y-50759865D01*
X57216368Y-50722347D01*
X57263387Y-50728705D01*
G37*
G36*
X59678048Y-40793015D02*
G01*
X59690116Y-40891406D01*
X59690130Y-40892575D01*
X59703287Y-40997181D01*
X59736157Y-41161751D01*
X59781744Y-41351191D01*
X59806578Y-41442627D01*
X59924270Y-41782859D01*
X60071161Y-42050781D01*
X60261198Y-42258901D01*
X60508326Y-42419721D01*
X60826491Y-42545747D01*
X61229641Y-42649485D01*
X61320439Y-42669621D01*
X61484055Y-42713412D01*
X61552849Y-42750607D01*
X61525825Y-42785594D01*
X61401990Y-42822761D01*
X61180342Y-42866496D01*
X60871464Y-42942080D01*
X60571251Y-43055702D01*
X60318977Y-43193192D01*
X60140380Y-43342765D01*
X60080175Y-43420511D01*
X59943964Y-43669209D01*
X59825819Y-43989896D01*
X59733385Y-44363394D01*
X59697840Y-44531352D01*
X59657788Y-44670584D01*
X59624102Y-44714818D01*
X59594527Y-44666268D01*
X59566809Y-44527152D01*
X59504599Y-44224456D01*
X59412587Y-43917870D01*
X59302701Y-43641976D01*
X59186822Y-43431046D01*
X59130198Y-43358210D01*
X58902295Y-43166662D01*
X58583713Y-43011164D01*
X58173217Y-42891058D01*
X58169569Y-42890238D01*
X57983258Y-42847445D01*
X57827091Y-42809965D01*
X57734540Y-42785822D01*
X57684302Y-42767870D01*
X57668461Y-42746359D01*
X57717008Y-42721765D01*
X57841063Y-42689090D01*
X58051753Y-42643339D01*
X58091971Y-42634658D01*
X58440970Y-42536492D01*
X58748576Y-42409758D01*
X58995450Y-42263782D01*
X59162251Y-42107887D01*
X59193273Y-42064628D01*
X59328877Y-41810442D01*
X59447451Y-41479533D01*
X59542153Y-41090232D01*
X59566236Y-40982313D01*
X59609115Y-40847866D01*
X59648717Y-40781634D01*
X59678048Y-40793015D01*
G37*
G36*
X56222136Y-51270839D02*
G01*
X56241827Y-51383818D01*
X56250898Y-51569675D01*
X56252090Y-51837244D01*
X56248143Y-52195362D01*
X56234665Y-53172801D01*
X55799734Y-53298076D01*
X55700572Y-53327506D01*
X55528254Y-53383508D01*
X55409220Y-53428995D01*
X55364802Y-53456214D01*
X55375257Y-53465663D01*
X55458715Y-53497146D01*
X55607484Y-53538887D01*
X55799734Y-53584451D01*
X56234665Y-53679824D01*
X56248459Y-54326798D01*
X56262252Y-54973772D01*
X55999927Y-55224879D01*
X55732874Y-55453220D01*
X55407905Y-55686162D01*
X55077390Y-55884536D01*
X55066336Y-55890418D01*
X55009836Y-55913500D01*
X54980297Y-55893329D01*
X54968981Y-55811188D01*
X54967151Y-55648356D01*
X54967151Y-55353178D01*
X55363122Y-55087409D01*
X55759093Y-54821641D01*
X55760774Y-54564536D01*
X55760379Y-54446786D01*
X55746517Y-54363584D01*
X55702688Y-54305168D01*
X55612412Y-54258782D01*
X55459209Y-54211670D01*
X55226599Y-54151077D01*
X55013834Y-54096252D01*
X55027773Y-53491614D01*
X55041710Y-52886977D01*
X55389656Y-52778644D01*
X55737601Y-52670312D01*
X55752398Y-52366623D01*
X55755834Y-52218991D01*
X55736870Y-52105970D01*
X55676534Y-52061309D01*
X55558090Y-52075114D01*
X55364802Y-52137492D01*
X55251829Y-52176157D01*
X55119808Y-52207103D01*
X55049626Y-52182559D01*
X55021804Y-52090227D01*
X55016857Y-51917808D01*
X55016857Y-51623564D01*
X55270463Y-51539330D01*
X55348454Y-51516511D01*
X55536648Y-51482283D01*
X55687511Y-51481618D01*
X55773957Y-51489169D01*
X55878782Y-51459269D01*
X55989976Y-51363032D01*
X56071940Y-51280812D01*
X56139933Y-51228170D01*
X56189085Y-51221902D01*
X56222136Y-51270839D01*
G37*
G36*
X46908480Y-35027371D02*
G01*
X46908480Y-35108680D01*
X46723060Y-35108680D01*
X46537640Y-35108680D01*
X46537640Y-35637128D01*
X46537640Y-36165577D01*
X46457630Y-36164178D01*
X46377620Y-36162780D01*
X46376327Y-35635730D01*
X46375033Y-35108680D01*
X46202208Y-35108680D01*
X46029383Y-35108680D01*
X46030782Y-35028670D01*
X46032180Y-34948660D01*
X46470330Y-34947361D01*
X46908480Y-34946063D01*
X46908480Y-35027371D01*
G37*
G36*
X54569120Y-35027337D02*
G01*
X54569120Y-35108554D01*
X54382430Y-35109887D01*
X54195740Y-35111220D01*
X54194447Y-35638270D01*
X54193153Y-36165320D01*
X54114437Y-36165320D01*
X54035720Y-36165320D01*
X54035720Y-35637000D01*
X54035720Y-35108680D01*
X53863000Y-35108680D01*
X53690280Y-35108680D01*
X53690280Y-35027400D01*
X53690280Y-34946120D01*
X54129700Y-34946120D01*
X54569120Y-34946120D01*
X54569120Y-35027337D01*
G37*
G36*
X48838880Y-35555720D02*
G01*
X48838880Y-36165320D01*
X48391840Y-36165320D01*
X47944800Y-36165320D01*
X47944800Y-36086580D01*
X47944800Y-36007840D01*
X48310560Y-36007840D01*
X48676320Y-36007840D01*
X48676320Y-35824960D01*
X48676320Y-35642080D01*
X48389300Y-35642080D01*
X48102280Y-35642080D01*
X48102280Y-35560800D01*
X48102280Y-35479520D01*
X48389300Y-35479520D01*
X48676320Y-35479520D01*
X48676320Y-35294100D01*
X48676320Y-35108680D01*
X48310560Y-35108680D01*
X47944800Y-35108680D01*
X47944800Y-35027400D01*
X47944800Y-34946120D01*
X48391840Y-34946120D01*
X48838880Y-34946120D01*
X48838880Y-35555720D01*
G37*
G36*
X55549560Y-35555720D02*
G01*
X55549560Y-36165375D01*
X55103790Y-36164077D01*
X54658020Y-36162780D01*
X54656618Y-36085310D01*
X54655216Y-36007840D01*
X55023648Y-36007840D01*
X55392080Y-36007840D01*
X55392080Y-35824960D01*
X55392080Y-35642080D01*
X55102520Y-35642080D01*
X54812960Y-35642080D01*
X54812960Y-35560800D01*
X54812960Y-35479520D01*
X55102520Y-35479520D01*
X55392080Y-35479520D01*
X55392080Y-35294100D01*
X55392080Y-35108680D01*
X55023652Y-35108680D01*
X54655223Y-35108680D01*
X54656622Y-35028670D01*
X54658020Y-34948660D01*
X55103790Y-34947362D01*
X55549560Y-34946064D01*
X55549560Y-35555720D01*
G37*
G36*
X49189400Y-35474440D02*
G01*
X49189400Y-36002760D01*
X49244828Y-36002760D01*
X49288155Y-36000875D01*
X49324776Y-35994761D01*
X49356995Y-35983779D01*
X49387371Y-35967296D01*
X49388104Y-35966822D01*
X49413502Y-35947115D01*
X49439492Y-35921563D01*
X49462887Y-35893607D01*
X49480502Y-35866689D01*
X49483049Y-35861582D01*
X49490748Y-35842667D01*
X49498915Y-35818695D01*
X49506716Y-35792571D01*
X49513319Y-35767200D01*
X49517891Y-35745484D01*
X49519600Y-35730328D01*
X49519600Y-35718280D01*
X49596567Y-35718280D01*
X49673533Y-35718280D01*
X49670380Y-35765270D01*
X49664396Y-35814695D01*
X49649249Y-35876177D01*
X49626329Y-35934071D01*
X49596280Y-35987278D01*
X49559744Y-36034700D01*
X49517365Y-36075237D01*
X49469787Y-36107793D01*
X49455613Y-36115543D01*
X49419103Y-36132543D01*
X49382867Y-36144294D01*
X49342097Y-36152477D01*
X49325671Y-36154438D01*
X49296547Y-36156545D01*
X49259335Y-36158163D01*
X49215190Y-36159247D01*
X49165270Y-36159747D01*
X49031920Y-36160240D01*
X49031920Y-35553180D01*
X49031920Y-34946120D01*
X49110660Y-34946120D01*
X49189400Y-34946120D01*
X49189400Y-35474440D01*
G37*
G36*
X49920835Y-34247636D02*
G01*
X49950588Y-34248095D01*
X49973269Y-34249135D01*
X49987853Y-34250692D01*
X49993310Y-34252700D01*
X49993338Y-34252830D01*
X49989611Y-34256842D01*
X49979340Y-34259475D01*
X49976816Y-34259741D01*
X49969531Y-34260546D01*
X49963507Y-34261938D01*
X49958626Y-34264785D01*
X49954766Y-34269958D01*
X49951809Y-34278328D01*
X49949634Y-34290765D01*
X49948123Y-34308139D01*
X49947155Y-34331321D01*
X49946610Y-34361182D01*
X49946369Y-34398591D01*
X49946313Y-34444419D01*
X49946320Y-34499536D01*
X49946321Y-34501460D01*
X49946360Y-34558983D01*
X49946548Y-34607194D01*
X49946994Y-34646915D01*
X49947807Y-34678969D01*
X49949095Y-34704179D01*
X49950969Y-34723366D01*
X49953538Y-34737353D01*
X49956909Y-34746963D01*
X49961193Y-34753019D01*
X49966499Y-34756342D01*
X49972935Y-34757756D01*
X49980610Y-34758082D01*
X49987733Y-34759244D01*
X49992040Y-34763240D01*
X49990881Y-34764222D01*
X49981282Y-34765959D01*
X49962533Y-34767245D01*
X49935314Y-34768045D01*
X49900301Y-34768320D01*
X49884505Y-34768275D01*
X49852001Y-34767787D01*
X49828857Y-34766776D01*
X49815336Y-34765255D01*
X49811700Y-34763240D01*
X49817899Y-34759750D01*
X49829541Y-34758160D01*
X49850508Y-34755134D01*
X49865837Y-34745156D01*
X49873846Y-34728173D01*
X49874278Y-34724815D01*
X49875081Y-34711166D01*
X49875813Y-34689114D01*
X49876456Y-34659823D01*
X49876989Y-34624455D01*
X49877394Y-34584172D01*
X49877651Y-34540137D01*
X49877740Y-34493514D01*
X49877737Y-34441903D01*
X49877656Y-34396236D01*
X49877387Y-34359020D01*
X49876818Y-34329377D01*
X49875839Y-34306428D01*
X49874337Y-34289292D01*
X49872203Y-34277091D01*
X49869325Y-34268947D01*
X49865592Y-34263979D01*
X49860893Y-34261308D01*
X49855117Y-34260056D01*
X49848152Y-34259343D01*
X49847032Y-34259222D01*
X49836795Y-34256592D01*
X49833290Y-34252700D01*
X49833668Y-34252214D01*
X49841260Y-34250302D01*
X49857748Y-34248855D01*
X49882104Y-34247939D01*
X49913300Y-34247620D01*
X49920835Y-34247636D01*
G37*
G36*
X56822118Y-34246498D02*
G01*
X56847390Y-34247083D01*
X56867506Y-34248086D01*
X56880799Y-34249414D01*
X56885600Y-34250972D01*
X56885481Y-34252253D01*
X56882796Y-34255660D01*
X56874788Y-34258731D01*
X56859113Y-34262486D01*
X56857464Y-34262879D01*
X56851913Y-34265020D01*
X56847308Y-34268851D01*
X56843571Y-34275220D01*
X56840626Y-34284972D01*
X56838394Y-34298955D01*
X56836799Y-34318015D01*
X56835762Y-34343000D01*
X56835207Y-34374756D01*
X56835056Y-34414130D01*
X56835232Y-34461969D01*
X56835657Y-34519120D01*
X56835936Y-34551502D01*
X56836429Y-34600593D01*
X56837027Y-34640923D01*
X56837841Y-34673382D01*
X56838985Y-34698860D01*
X56840571Y-34718246D01*
X56842711Y-34732430D01*
X56845518Y-34742301D01*
X56849104Y-34748750D01*
X56853582Y-34752666D01*
X56859064Y-34754939D01*
X56865662Y-34756458D01*
X56876960Y-34759824D01*
X56883466Y-34763896D01*
X56880027Y-34765235D01*
X56867915Y-34766473D01*
X56848564Y-34767449D01*
X56823478Y-34768089D01*
X56794160Y-34768320D01*
X56767291Y-34768131D01*
X56739019Y-34767351D01*
X56718965Y-34766028D01*
X56707519Y-34764233D01*
X56705066Y-34762032D01*
X56711996Y-34759497D01*
X56728696Y-34756695D01*
X56734490Y-34755986D01*
X56742152Y-34754945D01*
X56748475Y-34753198D01*
X56753592Y-34749883D01*
X56757638Y-34744144D01*
X56760746Y-34735119D01*
X56763050Y-34721951D01*
X56764685Y-34703779D01*
X56765783Y-34679744D01*
X56766480Y-34648987D01*
X56766908Y-34610649D01*
X56767203Y-34563870D01*
X56767498Y-34507792D01*
X56767647Y-34470181D01*
X56767660Y-34424959D01*
X56767487Y-34383584D01*
X56767144Y-34347109D01*
X56766645Y-34316585D01*
X56766002Y-34293065D01*
X56765231Y-34277600D01*
X56764344Y-34271242D01*
X56764127Y-34270928D01*
X56755964Y-34265237D01*
X56743127Y-34260952D01*
X56741872Y-34260681D01*
X56730271Y-34256668D01*
X56724485Y-34251952D01*
X56724762Y-34250953D01*
X56731182Y-34248901D01*
X56746204Y-34247480D01*
X56770344Y-34246653D01*
X56804115Y-34246386D01*
X56822118Y-34246498D01*
G37*
G36*
X47350209Y-34246906D02*
G01*
X47360679Y-34247028D01*
X47390345Y-34247779D01*
X47412867Y-34249022D01*
X47427243Y-34250685D01*
X47432466Y-34252700D01*
X47432318Y-34253614D01*
X47426455Y-34257636D01*
X47414624Y-34260799D01*
X47410401Y-34261502D01*
X47398747Y-34264366D01*
X47392086Y-34269547D01*
X47388345Y-34279637D01*
X47385451Y-34297223D01*
X47385404Y-34297560D01*
X47384291Y-34311315D01*
X47383380Y-34333619D01*
X47382670Y-34362927D01*
X47382162Y-34397689D01*
X47381856Y-34436358D01*
X47381752Y-34477386D01*
X47381851Y-34519224D01*
X47382152Y-34560326D01*
X47382657Y-34599143D01*
X47383365Y-34634126D01*
X47384277Y-34663729D01*
X47385392Y-34686404D01*
X47386661Y-34703694D01*
X47389405Y-34727272D01*
X47393392Y-34743019D01*
X47399340Y-34752423D01*
X47407967Y-34756974D01*
X47419991Y-34758160D01*
X47427405Y-34759310D01*
X47431720Y-34763240D01*
X47430561Y-34764222D01*
X47420962Y-34765959D01*
X47402213Y-34767245D01*
X47374994Y-34768045D01*
X47339981Y-34768320D01*
X47324185Y-34768275D01*
X47291681Y-34767787D01*
X47268537Y-34766776D01*
X47255016Y-34765255D01*
X47251380Y-34763240D01*
X47251607Y-34762925D01*
X47258984Y-34759549D01*
X47271438Y-34758160D01*
X47286564Y-34755422D01*
X47300348Y-34748452D01*
X47304555Y-34744578D01*
X47308876Y-34737942D01*
X47311778Y-34727935D01*
X47313840Y-34712295D01*
X47315641Y-34688762D01*
X47315999Y-34682733D01*
X47316956Y-34659256D01*
X47317728Y-34629107D01*
X47318315Y-34593814D01*
X47318718Y-34554909D01*
X47318939Y-34513921D01*
X47318977Y-34472381D01*
X47318835Y-34431818D01*
X47318511Y-34393763D01*
X47318008Y-34359746D01*
X47317326Y-34331297D01*
X47316467Y-34309946D01*
X47315430Y-34297223D01*
X47314715Y-34292268D01*
X47311904Y-34276883D01*
X47307950Y-34268293D01*
X47300912Y-34263840D01*
X47288848Y-34260870D01*
X47287952Y-34260679D01*
X47276393Y-34256676D01*
X47270573Y-34251856D01*
X47271162Y-34250516D01*
X47278073Y-34248623D01*
X47293100Y-34247418D01*
X47316920Y-34246860D01*
X47350209Y-34246906D01*
G37*
G36*
X55404598Y-34482114D02*
G01*
X55404835Y-34532685D01*
X55395448Y-34583919D01*
X55376284Y-34634918D01*
X55375643Y-34636250D01*
X55351847Y-34674299D01*
X55320125Y-34708423D01*
X55282353Y-34737187D01*
X55240404Y-34759154D01*
X55196153Y-34772889D01*
X55184299Y-34774832D01*
X55153366Y-34777076D01*
X55118573Y-34776709D01*
X55083389Y-34773950D01*
X55051279Y-34769018D01*
X55025713Y-34762133D01*
X55024121Y-34761542D01*
X54974333Y-34738176D01*
X54932134Y-34708171D01*
X54897643Y-34671628D01*
X54870978Y-34628648D01*
X54853559Y-34585637D01*
X54842031Y-34535634D01*
X54840213Y-34501727D01*
X54914865Y-34501727D01*
X54915336Y-34537618D01*
X54917911Y-34571914D01*
X54922532Y-34600704D01*
X54933294Y-34634074D01*
X54952964Y-34670080D01*
X54978861Y-34700678D01*
X55009676Y-34724373D01*
X55044100Y-34739669D01*
X55068441Y-34745653D01*
X55113883Y-34749704D01*
X55158247Y-34743832D01*
X55202572Y-34727961D01*
X55224473Y-34715752D01*
X55257854Y-34688535D01*
X55286231Y-34654104D01*
X55308436Y-34613990D01*
X55323298Y-34569727D01*
X55327932Y-34541994D01*
X55330451Y-34507484D01*
X55330507Y-34471448D01*
X55328102Y-34437681D01*
X55323236Y-34409977D01*
X55311761Y-34376864D01*
X55290200Y-34339586D01*
X55261833Y-34309178D01*
X55227459Y-34286146D01*
X55187871Y-34270992D01*
X55143866Y-34264220D01*
X55096239Y-34266334D01*
X55055421Y-34276617D01*
X55017182Y-34295894D01*
X54983571Y-34323053D01*
X54955555Y-34357131D01*
X54934101Y-34397161D01*
X54920174Y-34442180D01*
X54916557Y-34468150D01*
X54914865Y-34501727D01*
X54840213Y-34501727D01*
X54839370Y-34486004D01*
X54845415Y-34437907D01*
X54860008Y-34392504D01*
X54882989Y-34350954D01*
X54914198Y-34314419D01*
X54924185Y-34305330D01*
X54965548Y-34275793D01*
X55011762Y-34254872D01*
X55063217Y-34242425D01*
X55120300Y-34238308D01*
X55158429Y-34239852D01*
X55205394Y-34247439D01*
X55247042Y-34261960D01*
X55285136Y-34284085D01*
X55321441Y-34314480D01*
X55347678Y-34343347D01*
X55375866Y-34386548D01*
X55394890Y-34433103D01*
X55402485Y-34471448D01*
X55404598Y-34482114D01*
G37*
G36*
X53894866Y-34282644D02*
G01*
X53896916Y-34292034D01*
X53900037Y-34311788D01*
X53900227Y-34324562D01*
X53897713Y-34329611D01*
X53892720Y-34326193D01*
X53885474Y-34313562D01*
X53884277Y-34311123D01*
X53877042Y-34299894D01*
X53867436Y-34291737D01*
X53853907Y-34286193D01*
X53834903Y-34282801D01*
X53808873Y-34281103D01*
X53774264Y-34280640D01*
X53705520Y-34280640D01*
X53705520Y-34501289D01*
X53705555Y-34556810D01*
X53705734Y-34605441D01*
X53706167Y-34645530D01*
X53706963Y-34677902D01*
X53708232Y-34703382D01*
X53710082Y-34722796D01*
X53712622Y-34736967D01*
X53715963Y-34746723D01*
X53720213Y-34752886D01*
X53725482Y-34756284D01*
X53731878Y-34757741D01*
X53739511Y-34758082D01*
X53746696Y-34759115D01*
X53753780Y-34763240D01*
X53753315Y-34764232D01*
X53744987Y-34765999D01*
X53726881Y-34767279D01*
X53699248Y-34768057D01*
X53662340Y-34768320D01*
X53643899Y-34768262D01*
X53611308Y-34767756D01*
X53588110Y-34766741D01*
X53574557Y-34765231D01*
X53570900Y-34763240D01*
X53577099Y-34759750D01*
X53588741Y-34758160D01*
X53588941Y-34758159D01*
X53607411Y-34755365D01*
X53623208Y-34748228D01*
X53632613Y-34738421D01*
X53633199Y-34734783D01*
X53634062Y-34721671D01*
X53634929Y-34700220D01*
X53635773Y-34671503D01*
X53636566Y-34636593D01*
X53637284Y-34596562D01*
X53637899Y-34552483D01*
X53638384Y-34505430D01*
X53640305Y-34280640D01*
X53577663Y-34280668D01*
X53552983Y-34281058D01*
X53528532Y-34282187D01*
X53508646Y-34283877D01*
X53496120Y-34285945D01*
X53479503Y-34293549D01*
X53466410Y-34307437D01*
X53461680Y-34324950D01*
X53460619Y-34332207D01*
X53456912Y-34336520D01*
X53454202Y-34334264D01*
X53450763Y-34324086D01*
X53448242Y-34307981D01*
X53446988Y-34288455D01*
X53447353Y-34268016D01*
X53448980Y-34242692D01*
X53471840Y-34245156D01*
X53479087Y-34245656D01*
X53497127Y-34246276D01*
X53522697Y-34246774D01*
X53554239Y-34247150D01*
X53590198Y-34247404D01*
X53629018Y-34247536D01*
X53669142Y-34247546D01*
X53709014Y-34247436D01*
X53747079Y-34247205D01*
X53781779Y-34246853D01*
X53811560Y-34246382D01*
X53834864Y-34245790D01*
X53850135Y-34245080D01*
X53885530Y-34242540D01*
X53894866Y-34282644D01*
G37*
G36*
X47107647Y-34239336D02*
G01*
X47111887Y-34246545D01*
X47111921Y-34246623D01*
X47116058Y-34258850D01*
X47120248Y-34275453D01*
X47123968Y-34293593D01*
X47126693Y-34310427D01*
X47127899Y-34323114D01*
X47127062Y-34328812D01*
X47125495Y-34328689D01*
X47119246Y-34323186D01*
X47111157Y-34312357D01*
X47107027Y-34306256D01*
X47098707Y-34296383D01*
X47088995Y-34289429D01*
X47076139Y-34284889D01*
X47058388Y-34282260D01*
X47033989Y-34281036D01*
X47001190Y-34280714D01*
X46928800Y-34280640D01*
X46929024Y-34474950D01*
X46929149Y-34529781D01*
X46929492Y-34582355D01*
X46930151Y-34626237D01*
X46931232Y-34662204D01*
X46932842Y-34691033D01*
X46935088Y-34713500D01*
X46938076Y-34730380D01*
X46941912Y-34742451D01*
X46946704Y-34750488D01*
X46952556Y-34755267D01*
X46959577Y-34757566D01*
X46967871Y-34758160D01*
X46975285Y-34759310D01*
X46979600Y-34763240D01*
X46978441Y-34764222D01*
X46968842Y-34765959D01*
X46950093Y-34767245D01*
X46922874Y-34768045D01*
X46887861Y-34768320D01*
X46861009Y-34768131D01*
X46832769Y-34767349D01*
X46812803Y-34766021D01*
X46801488Y-34764217D01*
X46799200Y-34762004D01*
X46806317Y-34759451D01*
X46823215Y-34756625D01*
X46828357Y-34755971D01*
X46836580Y-34754785D01*
X46843379Y-34752883D01*
X46848888Y-34749409D01*
X46853242Y-34743501D01*
X46856578Y-34734303D01*
X46859030Y-34720956D01*
X46860734Y-34702600D01*
X46861824Y-34678378D01*
X46862437Y-34647430D01*
X46862707Y-34608899D01*
X46862770Y-34561925D01*
X46862760Y-34505650D01*
X46862760Y-34279665D01*
X46792003Y-34281422D01*
X46774690Y-34281896D01*
X46750632Y-34282886D01*
X46733744Y-34284298D01*
X46722106Y-34286413D01*
X46713802Y-34289512D01*
X46706913Y-34293876D01*
X46706481Y-34294204D01*
X46695862Y-34306002D01*
X46689991Y-34319276D01*
X46688890Y-34324707D01*
X46685717Y-34333043D01*
X46682606Y-34332509D01*
X46679927Y-34324046D01*
X46678049Y-34308593D01*
X46677340Y-34287089D01*
X46677340Y-34242739D01*
X46700200Y-34245179D01*
X46705830Y-34245672D01*
X46724992Y-34246648D01*
X46751123Y-34247358D01*
X46782795Y-34247814D01*
X46818582Y-34248032D01*
X46857056Y-34248024D01*
X46896789Y-34247803D01*
X46936354Y-34247385D01*
X46974324Y-34246781D01*
X47009272Y-34246006D01*
X47039769Y-34245073D01*
X47064390Y-34243996D01*
X47081705Y-34242789D01*
X47090288Y-34241465D01*
X47101514Y-34238006D01*
X47107647Y-34239336D01*
G37*
G36*
X47759279Y-34239697D02*
G01*
X47795522Y-34248554D01*
X47825538Y-34263973D01*
X47849991Y-34286128D01*
X47858465Y-34297192D01*
X47873256Y-34327250D01*
X47878796Y-34359515D01*
X47875154Y-34392719D01*
X47862399Y-34425594D01*
X47840602Y-34456874D01*
X47837935Y-34459799D01*
X47823602Y-34473762D01*
X47803904Y-34491235D01*
X47781085Y-34510273D01*
X47757387Y-34528935D01*
X47747702Y-34536360D01*
X47716277Y-34561417D01*
X47692399Y-34582647D01*
X47675219Y-34601273D01*
X47663887Y-34618517D01*
X47657553Y-34635602D01*
X47655367Y-34653753D01*
X47656479Y-34674193D01*
X47661899Y-34696754D01*
X47675947Y-34719636D01*
X47697673Y-34736331D01*
X47726645Y-34746529D01*
X47762431Y-34749921D01*
X47792844Y-34747508D01*
X47824677Y-34738228D01*
X47849498Y-34722284D01*
X47866840Y-34699995D01*
X47876240Y-34671681D01*
X47877112Y-34667151D01*
X47880458Y-34655959D01*
X47883831Y-34651480D01*
X47885598Y-34654662D01*
X47887916Y-34665630D01*
X47890168Y-34681864D01*
X47892089Y-34700685D01*
X47893412Y-34719412D01*
X47893871Y-34735365D01*
X47893200Y-34745863D01*
X47892960Y-34746875D01*
X47885022Y-34757146D01*
X47867776Y-34766122D01*
X47841970Y-34773400D01*
X47833113Y-34774683D01*
X47813815Y-34776062D01*
X47789847Y-34776741D01*
X47764460Y-34776586D01*
X47760922Y-34776494D01*
X47733804Y-34775279D01*
X47713693Y-34773067D01*
X47697761Y-34769415D01*
X47683180Y-34763883D01*
X47670453Y-34757527D01*
X47640463Y-34735537D01*
X47618161Y-34707659D01*
X47604245Y-34674937D01*
X47599410Y-34638414D01*
X47599436Y-34634748D01*
X47602489Y-34604529D01*
X47611186Y-34576774D01*
X47626321Y-34550338D01*
X47648692Y-34524076D01*
X47679094Y-34496846D01*
X47718324Y-34467502D01*
X47733776Y-34456534D01*
X47766126Y-34432222D01*
X47790672Y-34411219D01*
X47808271Y-34392529D01*
X47819781Y-34375161D01*
X47826058Y-34358120D01*
X47827960Y-34340413D01*
X47823710Y-34315960D01*
X47810909Y-34294916D01*
X47790482Y-34278996D01*
X47763361Y-34268918D01*
X47730478Y-34265400D01*
X47715906Y-34265908D01*
X47684229Y-34271285D01*
X47659056Y-34282118D01*
X47641343Y-34297897D01*
X47632047Y-34318107D01*
X47628959Y-34330119D01*
X47624644Y-34339221D01*
X47620765Y-34339029D01*
X47617616Y-34330056D01*
X47615489Y-34312814D01*
X47614678Y-34287814D01*
X47614600Y-34246728D01*
X47671750Y-34240238D01*
X47716142Y-34237233D01*
X47759279Y-34239697D01*
G37*
G36*
X52845728Y-35141977D02*
G01*
X52846042Y-35194053D01*
X52846319Y-35251886D01*
X52846554Y-35314756D01*
X52846743Y-35381944D01*
X52846884Y-35452731D01*
X52846971Y-35526396D01*
X52847000Y-35602220D01*
X52847000Y-36165320D01*
X52765720Y-36165320D01*
X52684440Y-36165320D01*
X52684440Y-35903700D01*
X52684440Y-35642080D01*
X52523017Y-35642080D01*
X52508065Y-35642057D01*
X52466479Y-35641772D01*
X52426727Y-35641191D01*
X52390474Y-35640359D01*
X52359385Y-35639318D01*
X52335125Y-35638112D01*
X52319360Y-35636784D01*
X52308861Y-35635307D01*
X52252931Y-35621570D01*
X52200824Y-35598427D01*
X52152523Y-35565868D01*
X52108013Y-35523885D01*
X52087780Y-35499498D01*
X52057594Y-35451408D01*
X52036094Y-35399527D01*
X52023408Y-35345018D01*
X52020004Y-35294100D01*
X52184115Y-35294100D01*
X52184138Y-35303106D01*
X52184772Y-35325818D01*
X52186627Y-35342353D01*
X52190177Y-35355721D01*
X52195896Y-35368931D01*
X52197594Y-35372287D01*
X52221114Y-35407440D01*
X52251782Y-35437602D01*
X52287138Y-35460314D01*
X52320973Y-35476980D01*
X52502707Y-35478543D01*
X52684440Y-35480106D01*
X52684440Y-35294393D01*
X52684440Y-35108680D01*
X52528230Y-35108782D01*
X52486623Y-35108891D01*
X52440766Y-35109321D01*
X52403071Y-35110165D01*
X52372412Y-35111517D01*
X52347661Y-35113472D01*
X52327692Y-35116125D01*
X52311379Y-35119570D01*
X52297595Y-35123902D01*
X52285212Y-35129216D01*
X52265206Y-35141334D01*
X52239511Y-35162992D01*
X52216279Y-35188843D01*
X52198584Y-35215814D01*
X52193195Y-35226610D01*
X52188388Y-35239082D01*
X52185654Y-35252425D01*
X52184420Y-35269733D01*
X52184115Y-35294100D01*
X52020004Y-35294100D01*
X52019666Y-35289041D01*
X52024998Y-35232758D01*
X52039532Y-35177331D01*
X52063400Y-35123920D01*
X52068062Y-35115921D01*
X52089493Y-35085957D01*
X52116606Y-35055437D01*
X52146889Y-35026793D01*
X52177831Y-35002459D01*
X52206920Y-34984867D01*
X52214603Y-34981091D01*
X52228816Y-34974199D01*
X52241721Y-34968384D01*
X52254273Y-34963549D01*
X52267427Y-34959595D01*
X52282140Y-34956424D01*
X52299367Y-34953938D01*
X52320064Y-34952038D01*
X52345186Y-34950626D01*
X52375690Y-34949603D01*
X52412530Y-34948872D01*
X52456662Y-34948333D01*
X52509043Y-34947889D01*
X52570627Y-34947441D01*
X52840354Y-34945484D01*
X52843677Y-34992302D01*
X52843731Y-34993135D01*
X52844174Y-35005633D01*
X52844599Y-35027486D01*
X52845003Y-35057974D01*
X52845380Y-35096378D01*
X52845474Y-35108680D01*
X52845728Y-35141977D01*
G37*
G36*
X52810956Y-34239866D02*
G01*
X52815808Y-34249201D01*
X52818534Y-34257189D01*
X52822941Y-34274072D01*
X52826692Y-34292727D01*
X52829308Y-34310254D01*
X52830309Y-34323754D01*
X52829216Y-34330325D01*
X52827387Y-34331288D01*
X52823103Y-34327873D01*
X52819269Y-34319516D01*
X52809063Y-34304474D01*
X52796974Y-34291883D01*
X52785983Y-34285171D01*
X52784595Y-34284859D01*
X52772965Y-34283550D01*
X52753999Y-34282421D01*
X52729994Y-34281582D01*
X52703247Y-34281146D01*
X52633154Y-34280640D01*
X52634667Y-34508712D01*
X52635030Y-34560815D01*
X52635409Y-34606147D01*
X52635829Y-34643111D01*
X52636335Y-34672623D01*
X52636968Y-34695600D01*
X52637773Y-34712955D01*
X52638790Y-34725606D01*
X52640065Y-34734468D01*
X52641639Y-34740455D01*
X52643556Y-34744485D01*
X52645858Y-34747472D01*
X52655144Y-34754522D01*
X52667148Y-34758160D01*
X52674851Y-34759211D01*
X52681900Y-34763240D01*
X52681634Y-34764116D01*
X52673956Y-34765932D01*
X52656499Y-34767248D01*
X52629526Y-34768049D01*
X52593300Y-34768320D01*
X52565766Y-34768115D01*
X52540077Y-34767494D01*
X52519746Y-34766533D01*
X52506373Y-34765310D01*
X52501560Y-34763900D01*
X52502743Y-34762383D01*
X52511138Y-34759260D01*
X52524944Y-34756845D01*
X52531371Y-34756200D01*
X52539532Y-34755289D01*
X52546261Y-34753661D01*
X52551704Y-34750456D01*
X52556004Y-34744816D01*
X52559305Y-34735884D01*
X52561753Y-34722800D01*
X52563490Y-34704707D01*
X52564662Y-34680747D01*
X52565412Y-34650060D01*
X52565884Y-34611790D01*
X52566223Y-34565077D01*
X52566574Y-34509063D01*
X52568087Y-34280640D01*
X52508154Y-34280668D01*
X52507024Y-34280669D01*
X52469526Y-34281518D01*
X52440884Y-34284224D01*
X52419927Y-34289200D01*
X52405484Y-34296862D01*
X52396384Y-34307621D01*
X52391456Y-34321892D01*
X52388277Y-34332147D01*
X52384623Y-34336520D01*
X52383088Y-34333158D01*
X52381237Y-34322116D01*
X52379534Y-34306056D01*
X52378181Y-34287760D01*
X52377376Y-34270013D01*
X52377320Y-34255595D01*
X52378212Y-34247290D01*
X52382193Y-34244890D01*
X52394826Y-34244381D01*
X52416653Y-34246411D01*
X52419174Y-34246692D01*
X52436588Y-34247863D01*
X52461268Y-34248695D01*
X52491762Y-34249207D01*
X52526617Y-34249419D01*
X52564381Y-34249351D01*
X52603603Y-34249024D01*
X52642830Y-34248458D01*
X52680610Y-34247672D01*
X52715491Y-34246687D01*
X52746021Y-34245522D01*
X52770748Y-34244199D01*
X52788219Y-34242736D01*
X52796983Y-34241155D01*
X52804438Y-34238509D01*
X52810956Y-34239866D01*
G37*
G36*
X56869090Y-34947608D02*
G01*
X56878944Y-34947725D01*
X56933517Y-34948438D01*
X56979316Y-34949232D01*
X57017532Y-34950222D01*
X57049356Y-34951523D01*
X57075979Y-34953251D01*
X57098591Y-34955521D01*
X57118384Y-34958450D01*
X57136548Y-34962153D01*
X57154275Y-34966745D01*
X57172755Y-34972341D01*
X57193179Y-34979058D01*
X57228514Y-34992577D01*
X57273135Y-35013536D01*
X57316005Y-35037532D01*
X57352960Y-35062393D01*
X57353261Y-35062620D01*
X57377125Y-35082328D01*
X57404209Y-35107396D01*
X57432268Y-35135496D01*
X57459061Y-35164303D01*
X57482345Y-35191492D01*
X57499876Y-35214737D01*
X57506621Y-35224942D01*
X57541320Y-35287850D01*
X57568241Y-35356001D01*
X57587178Y-35428053D01*
X57597925Y-35502664D01*
X57600275Y-35578493D01*
X57594022Y-35654199D01*
X57578958Y-35728440D01*
X57577564Y-35733481D01*
X57564809Y-35771290D01*
X57547631Y-35812341D01*
X57527625Y-35853331D01*
X57506387Y-35890956D01*
X57485511Y-35921915D01*
X57465255Y-35946452D01*
X57437392Y-35976284D01*
X57406267Y-36006566D01*
X57374206Y-36035143D01*
X57343533Y-36059858D01*
X57316573Y-36078557D01*
X57274588Y-36101686D01*
X57210736Y-36128555D01*
X57143410Y-36148238D01*
X57075568Y-36159739D01*
X57062618Y-36160658D01*
X57040137Y-36161612D01*
X57010286Y-36162492D01*
X56974518Y-36163266D01*
X56934285Y-36163903D01*
X56891038Y-36164373D01*
X56846230Y-36164644D01*
X56657000Y-36165320D01*
X56657000Y-36086580D01*
X56657000Y-36007840D01*
X56836973Y-36007840D01*
X56869626Y-36007753D01*
X56912413Y-36007384D01*
X56952561Y-36006759D01*
X56988566Y-36005915D01*
X57018925Y-36004888D01*
X57042131Y-36003716D01*
X57056683Y-36002435D01*
X57077509Y-35999067D01*
X57140022Y-35982225D01*
X57199543Y-35955862D01*
X57255482Y-35920274D01*
X57307252Y-35875760D01*
X57345289Y-35834177D01*
X57381859Y-35782481D01*
X57409096Y-35727809D01*
X57427303Y-35669381D01*
X57436780Y-35606415D01*
X57437832Y-35538128D01*
X57436157Y-35509954D01*
X57430965Y-35466573D01*
X57422209Y-35428114D01*
X57409082Y-35391408D01*
X57390779Y-35353288D01*
X57369479Y-35317054D01*
X57328518Y-35262990D01*
X57280650Y-35216122D01*
X57226464Y-35176920D01*
X57166551Y-35145852D01*
X57101500Y-35123387D01*
X57091736Y-35120909D01*
X57080761Y-35118578D01*
X57068714Y-35116672D01*
X57054457Y-35115130D01*
X57036857Y-35113887D01*
X57014776Y-35112883D01*
X56987078Y-35112052D01*
X56952629Y-35111334D01*
X56910292Y-35110665D01*
X56858930Y-35109982D01*
X56657000Y-35107432D01*
X56657000Y-35026270D01*
X56657000Y-34945107D01*
X56869090Y-34947608D01*
G37*
G36*
X49236378Y-34246605D02*
G01*
X49260853Y-34247651D01*
X49277166Y-34249408D01*
X49284821Y-34251788D01*
X49283317Y-34254700D01*
X49272158Y-34258055D01*
X49259788Y-34260968D01*
X49250082Y-34264637D01*
X49246069Y-34269693D01*
X49245280Y-34277965D01*
X49245562Y-34280409D01*
X49248765Y-34292730D01*
X49255139Y-34312642D01*
X49264185Y-34338840D01*
X49275402Y-34370019D01*
X49288291Y-34404876D01*
X49302352Y-34442107D01*
X49317084Y-34480406D01*
X49331988Y-34518470D01*
X49346564Y-34554995D01*
X49360311Y-34588676D01*
X49372730Y-34618209D01*
X49383321Y-34642290D01*
X49391584Y-34659614D01*
X49400753Y-34677488D01*
X49478575Y-34476718D01*
X49487643Y-34453221D01*
X49503459Y-34411726D01*
X49517752Y-34373566D01*
X49530155Y-34339761D01*
X49540302Y-34311329D01*
X49547824Y-34289292D01*
X49552356Y-34274668D01*
X49553530Y-34268477D01*
X49553338Y-34268046D01*
X49546192Y-34262556D01*
X49533862Y-34259393D01*
X49532184Y-34259206D01*
X49521862Y-34256535D01*
X49518326Y-34252700D01*
X49519595Y-34251777D01*
X49529369Y-34250032D01*
X49548026Y-34248725D01*
X49574691Y-34247904D01*
X49608490Y-34247620D01*
X49623859Y-34247671D01*
X49654952Y-34248188D01*
X49678093Y-34249226D01*
X49692551Y-34250744D01*
X49697590Y-34252700D01*
X49696211Y-34254633D01*
X49687526Y-34258329D01*
X49673465Y-34261338D01*
X49668157Y-34262225D01*
X49650446Y-34268092D01*
X49638175Y-34278619D01*
X49634265Y-34285584D01*
X49626851Y-34301098D01*
X49616443Y-34324077D01*
X49603472Y-34353534D01*
X49588369Y-34388479D01*
X49571564Y-34427924D01*
X49553488Y-34470880D01*
X49534572Y-34516361D01*
X49516617Y-34559705D01*
X49498535Y-34603203D01*
X49481758Y-34643407D01*
X49466713Y-34679300D01*
X49453828Y-34709865D01*
X49443530Y-34734087D01*
X49436246Y-34750947D01*
X49432405Y-34759430D01*
X49429981Y-34763896D01*
X49422394Y-34774316D01*
X49416088Y-34778480D01*
X49413631Y-34777360D01*
X49409975Y-34773185D01*
X49405022Y-34765317D01*
X49398477Y-34753124D01*
X49390047Y-34735978D01*
X49379440Y-34713247D01*
X49366361Y-34684302D01*
X49350516Y-34648512D01*
X49331613Y-34605248D01*
X49309357Y-34553879D01*
X49283455Y-34493775D01*
X49279219Y-34483934D01*
X49261480Y-34442899D01*
X49244736Y-34404426D01*
X49229486Y-34369644D01*
X49216228Y-34339685D01*
X49205463Y-34315678D01*
X49197690Y-34298753D01*
X49193409Y-34290041D01*
X49186439Y-34279402D01*
X49170396Y-34265516D01*
X49149158Y-34259261D01*
X49140922Y-34257038D01*
X49135017Y-34252186D01*
X49134979Y-34251709D01*
X49139586Y-34249392D01*
X49152785Y-34247755D01*
X49175092Y-34246755D01*
X49207026Y-34246349D01*
X49236378Y-34246605D01*
G37*
G36*
X47203120Y-34948781D02*
G01*
X47247555Y-34948853D01*
X47298165Y-34949145D01*
X47340753Y-34949765D01*
X47376531Y-34950825D01*
X47406716Y-34952441D01*
X47432523Y-34954724D01*
X47455166Y-34957791D01*
X47475860Y-34961753D01*
X47495820Y-34966724D01*
X47516262Y-34972819D01*
X47538400Y-34980151D01*
X47597327Y-35004249D01*
X47661663Y-35040321D01*
X47721378Y-35084448D01*
X47775675Y-35135767D01*
X47823755Y-35193414D01*
X47864821Y-35256527D01*
X47898075Y-35324243D01*
X47922718Y-35395700D01*
X47925686Y-35406659D01*
X47929571Y-35422292D01*
X47932415Y-35436799D01*
X47934379Y-35452059D01*
X47935625Y-35469953D01*
X47936313Y-35492364D01*
X47936605Y-35521173D01*
X47936663Y-35558260D01*
X47936645Y-35578770D01*
X47936466Y-35611442D01*
X47935963Y-35636819D01*
X47934979Y-35656786D01*
X47933355Y-35673228D01*
X47930932Y-35688030D01*
X47927553Y-35703076D01*
X47923059Y-35720251D01*
X47914745Y-35747387D01*
X47896663Y-35794328D01*
X47874392Y-35841807D01*
X47849653Y-35886272D01*
X47824169Y-35924175D01*
X47807510Y-35944993D01*
X47777431Y-35978489D01*
X47744601Y-36011093D01*
X47711689Y-36040206D01*
X47681367Y-36063226D01*
X47676121Y-36066737D01*
X47617665Y-36100037D01*
X47553277Y-36127250D01*
X47485597Y-36147413D01*
X47417267Y-36159563D01*
X47404083Y-36160532D01*
X47381672Y-36161438D01*
X47351901Y-36162206D01*
X47316203Y-36162812D01*
X47276011Y-36163232D01*
X47232759Y-36163441D01*
X47187880Y-36163415D01*
X46997380Y-36162780D01*
X46995981Y-36085749D01*
X46994581Y-36008719D01*
X47201721Y-36006475D01*
X47238817Y-36006045D01*
X47286534Y-36005371D01*
X47325789Y-36004618D01*
X47357601Y-36003740D01*
X47382987Y-36002695D01*
X47402966Y-36001436D01*
X47418556Y-35999918D01*
X47430774Y-35998097D01*
X47440640Y-35995927D01*
X47460713Y-35990181D01*
X47522422Y-35965885D01*
X47579590Y-35933234D01*
X47631376Y-35893054D01*
X47676943Y-35846171D01*
X47715452Y-35793412D01*
X47746063Y-35735602D01*
X47767939Y-35673568D01*
X47770093Y-35664517D01*
X47774808Y-35634580D01*
X47777906Y-35598913D01*
X47779316Y-35560657D01*
X47778968Y-35522949D01*
X47776790Y-35488931D01*
X47772713Y-35461740D01*
X47754500Y-35401458D01*
X47726709Y-35342740D01*
X47690438Y-35288357D01*
X47646362Y-35239178D01*
X47595159Y-35196071D01*
X47537506Y-35159906D01*
X47525142Y-35153488D01*
X47502712Y-35143017D01*
X47479982Y-35134269D01*
X47455859Y-35127099D01*
X47429247Y-35121358D01*
X47399051Y-35116901D01*
X47364176Y-35113580D01*
X47323529Y-35111249D01*
X47276014Y-35109760D01*
X47220536Y-35108967D01*
X47156002Y-35108723D01*
X46994583Y-35108680D01*
X46995982Y-35028670D01*
X46997380Y-34948660D01*
X47203120Y-34948781D01*
G37*
G36*
X55804364Y-34237719D02*
G01*
X55824870Y-34239617D01*
X55853706Y-34243488D01*
X55901013Y-34254110D01*
X55941582Y-34269817D01*
X55977117Y-34291345D01*
X56009325Y-34319432D01*
X56035317Y-34351014D01*
X56058158Y-34392275D01*
X56073212Y-34437132D01*
X56080510Y-34484104D01*
X56080082Y-34531711D01*
X56071956Y-34578472D01*
X56056164Y-34622906D01*
X56032734Y-34663533D01*
X56001696Y-34698873D01*
X55969626Y-34723668D01*
X55927312Y-34746807D01*
X55880403Y-34764255D01*
X55831500Y-34774850D01*
X55830014Y-34775051D01*
X55794686Y-34777863D01*
X55755977Y-34777786D01*
X55716573Y-34775087D01*
X55679156Y-34770033D01*
X55646411Y-34762890D01*
X55621022Y-34753925D01*
X55602900Y-34745406D01*
X55599903Y-34646373D01*
X55599825Y-34643816D01*
X55598679Y-34612809D01*
X55597317Y-34585046D01*
X55595849Y-34562255D01*
X55594383Y-34546165D01*
X55593031Y-34538505D01*
X55591966Y-34536770D01*
X55582951Y-34529821D01*
X55569358Y-34524339D01*
X55564975Y-34523047D01*
X55553969Y-34518524D01*
X55549560Y-34514524D01*
X55552601Y-34513342D01*
X55564271Y-34512009D01*
X55583148Y-34510936D01*
X55607581Y-34510213D01*
X55635920Y-34509926D01*
X55656176Y-34510016D01*
X55682965Y-34510567D01*
X55703860Y-34511549D01*
X55717438Y-34512888D01*
X55722280Y-34514509D01*
X55719114Y-34518261D01*
X55709580Y-34521843D01*
X55699927Y-34523842D01*
X55684741Y-34526976D01*
X55676406Y-34530431D01*
X55668655Y-34538406D01*
X55667018Y-34546853D01*
X55665483Y-34563275D01*
X55664125Y-34585438D01*
X55663010Y-34611126D01*
X55662204Y-34638124D01*
X55661773Y-34664217D01*
X55661783Y-34687190D01*
X55662300Y-34704828D01*
X55663391Y-34714916D01*
X55665412Y-34720156D01*
X55676808Y-34731992D01*
X55695620Y-34740487D01*
X55720249Y-34745607D01*
X55749093Y-34747319D01*
X55780553Y-34745587D01*
X55813028Y-34740378D01*
X55844919Y-34731659D01*
X55874624Y-34719395D01*
X55907019Y-34699888D01*
X55943329Y-34668046D01*
X55972726Y-34629743D01*
X55994577Y-34586040D01*
X56008249Y-34538004D01*
X56013108Y-34486698D01*
X56011113Y-34446891D01*
X56001761Y-34399716D01*
X55984914Y-34359342D01*
X55960744Y-34325940D01*
X55929420Y-34299680D01*
X55891111Y-34280735D01*
X55845987Y-34269276D01*
X55794218Y-34265475D01*
X55752877Y-34267256D01*
X55708118Y-34274349D01*
X55671646Y-34286789D01*
X55643586Y-34304514D01*
X55624064Y-34327462D01*
X55613205Y-34355570D01*
X55612638Y-34358097D01*
X55608544Y-34369381D01*
X55604562Y-34371116D01*
X55601540Y-34363806D01*
X55600324Y-34347950D01*
X55600033Y-34335122D01*
X55598882Y-34312851D01*
X55597163Y-34290740D01*
X55594037Y-34257660D01*
X55639109Y-34251242D01*
X55639225Y-34251226D01*
X55681002Y-34245432D01*
X55714613Y-34241210D01*
X55741906Y-34238443D01*
X55764730Y-34237016D01*
X55784934Y-34236813D01*
X55804364Y-34237719D01*
G37*
G36*
X59628800Y-34144916D02*
G01*
X59656745Y-34147631D01*
X59691915Y-34156270D01*
X59721069Y-34171036D01*
X59745911Y-34192622D01*
X59762120Y-34212308D01*
X59774460Y-34234673D01*
X59780933Y-34259670D01*
X59782855Y-34290800D01*
X59782845Y-34293560D01*
X59780017Y-34324630D01*
X59771670Y-34353753D01*
X59757051Y-34382138D01*
X59735403Y-34410997D01*
X59705972Y-34441541D01*
X59668003Y-34474979D01*
X59630434Y-34507323D01*
X59597986Y-34538127D01*
X59574404Y-34564302D01*
X59559628Y-34585911D01*
X59554448Y-34600120D01*
X59550806Y-34623137D01*
X59550281Y-34648415D01*
X59552907Y-34671987D01*
X59558718Y-34689888D01*
X59561698Y-34695005D01*
X59577984Y-34715649D01*
X59597985Y-34732987D01*
X59618218Y-34743859D01*
X59619234Y-34744197D01*
X59641262Y-34748538D01*
X59667982Y-34749865D01*
X59694660Y-34748193D01*
X59716560Y-34743536D01*
X59721506Y-34741694D01*
X59747525Y-34726482D01*
X59768025Y-34704974D01*
X59781459Y-34679217D01*
X59786280Y-34651259D01*
X59786378Y-34646116D01*
X59788234Y-34634772D01*
X59792630Y-34632420D01*
X59795498Y-34638074D01*
X59797844Y-34651435D01*
X59799577Y-34670040D01*
X59800622Y-34691429D01*
X59800904Y-34713144D01*
X59800347Y-34732725D01*
X59798875Y-34747714D01*
X59796414Y-34755652D01*
X59790808Y-34759236D01*
X59777001Y-34764706D01*
X59758028Y-34770618D01*
X59736533Y-34776160D01*
X59715160Y-34780524D01*
X59701324Y-34781564D01*
X59678916Y-34780945D01*
X59653526Y-34778655D01*
X59628900Y-34775049D01*
X59608783Y-34770479D01*
X59605252Y-34769383D01*
X59570845Y-34753513D01*
X59540984Y-34730386D01*
X59518170Y-34701894D01*
X59507369Y-34682385D01*
X59497147Y-34656026D01*
X59492616Y-34628475D01*
X59492790Y-34595600D01*
X59493477Y-34586791D01*
X59497767Y-34561259D01*
X59505961Y-34537238D01*
X59518867Y-34513615D01*
X59537291Y-34489274D01*
X59562040Y-34463102D01*
X59593919Y-34433983D01*
X59633735Y-34400804D01*
X59639977Y-34395737D01*
X59670311Y-34370030D01*
X59693172Y-34348180D01*
X59709534Y-34328892D01*
X59720367Y-34310869D01*
X59726645Y-34292819D01*
X59729339Y-34273444D01*
X59729567Y-34262404D01*
X59724704Y-34231886D01*
X59711806Y-34207287D01*
X59691369Y-34189102D01*
X59663889Y-34177828D01*
X59629861Y-34173960D01*
X59602870Y-34175336D01*
X59571920Y-34182106D01*
X59548560Y-34194864D01*
X59532177Y-34213986D01*
X59522157Y-34239847D01*
X59519532Y-34249401D01*
X59515113Y-34260909D01*
X59511454Y-34265400D01*
X59510412Y-34264244D01*
X59508426Y-34255426D01*
X59506877Y-34239815D01*
X59506034Y-34219680D01*
X59505861Y-34210621D01*
X59505433Y-34190172D01*
X59505045Y-34174147D01*
X59504764Y-34165415D01*
X59505355Y-34163282D01*
X59513166Y-34157805D01*
X59528571Y-34152884D01*
X59549703Y-34148826D01*
X59574696Y-34145939D01*
X59601684Y-34144533D01*
X59628800Y-34144916D01*
G37*
G36*
X54198338Y-34147711D02*
G01*
X54237724Y-34158322D01*
X54270608Y-34175792D01*
X54296520Y-34199957D01*
X54314986Y-34230653D01*
X54320571Y-34245246D01*
X54323893Y-34259844D01*
X54324984Y-34277087D01*
X54324338Y-34300694D01*
X54323188Y-34318567D01*
X54320459Y-34338271D01*
X54315652Y-34354320D01*
X54307863Y-34370541D01*
X54303912Y-34377054D01*
X54289896Y-34395820D01*
X54270810Y-34417829D01*
X54248677Y-34440927D01*
X54225520Y-34462961D01*
X54203360Y-34481778D01*
X54191222Y-34491740D01*
X54169903Y-34510859D01*
X54148794Y-34531478D01*
X54129812Y-34551617D01*
X54114871Y-34569295D01*
X54105889Y-34582532D01*
X54102105Y-34591376D01*
X54096313Y-34611323D01*
X54092889Y-34631873D01*
X54092365Y-34638424D01*
X54092432Y-34655804D01*
X54096005Y-34671118D01*
X54104112Y-34689650D01*
X54110031Y-34700569D01*
X54128363Y-34723267D01*
X54152336Y-34738819D01*
X54183650Y-34748483D01*
X54202768Y-34751014D01*
X54235724Y-34749252D01*
X54265869Y-34740219D01*
X54291797Y-34724858D01*
X54312106Y-34704109D01*
X54325391Y-34678912D01*
X54330249Y-34650210D01*
X54330635Y-34643057D01*
X54333320Y-34633258D01*
X54337645Y-34631644D01*
X54342517Y-34639195D01*
X54343436Y-34644018D01*
X54344553Y-34657834D01*
X54345317Y-34677490D01*
X54345600Y-34700441D01*
X54345600Y-34753651D01*
X54322914Y-34763686D01*
X54313525Y-34767327D01*
X54292130Y-34773652D01*
X54270844Y-34778021D01*
X54254361Y-34780356D01*
X54237026Y-34782246D01*
X54222874Y-34782525D01*
X54207905Y-34781205D01*
X54188120Y-34778301D01*
X54171014Y-34775031D01*
X54129550Y-34761248D01*
X54095189Y-34740592D01*
X54068334Y-34713543D01*
X54049388Y-34680578D01*
X54038755Y-34642176D01*
X54036837Y-34598815D01*
X54038431Y-34580686D01*
X54043154Y-34556015D01*
X54051435Y-34533052D01*
X54064113Y-34510606D01*
X54082027Y-34487491D01*
X54106015Y-34462517D01*
X54136916Y-34434495D01*
X54175570Y-34402238D01*
X54187583Y-34392378D01*
X54217832Y-34366137D01*
X54240592Y-34343537D01*
X54256749Y-34323346D01*
X54267192Y-34304332D01*
X54272806Y-34285262D01*
X54274480Y-34264906D01*
X54272614Y-34245541D01*
X54262194Y-34218901D01*
X54242326Y-34195721D01*
X54242160Y-34195575D01*
X54225585Y-34183891D01*
X54206793Y-34176970D01*
X54183292Y-34174243D01*
X54152591Y-34175136D01*
X54137502Y-34176758D01*
X54108389Y-34184476D01*
X54086895Y-34198245D01*
X54072211Y-34218713D01*
X54063531Y-34246525D01*
X54059948Y-34260522D01*
X54056499Y-34264904D01*
X54053494Y-34260084D01*
X54051231Y-34246543D01*
X54050008Y-34224760D01*
X54049927Y-34221322D01*
X54049433Y-34200220D01*
X54049009Y-34182053D01*
X54048738Y-34170432D01*
X54048725Y-34167310D01*
X54049995Y-34161185D01*
X54054863Y-34157154D01*
X54065475Y-34154001D01*
X54083980Y-34150514D01*
X54101954Y-34147719D01*
X54152924Y-34144122D01*
X54198338Y-34147711D01*
G37*
G36*
X51917360Y-35555720D02*
G01*
X51917360Y-36165320D01*
X51836080Y-36165320D01*
X51754800Y-36165320D01*
X51754800Y-35903030D01*
X51754800Y-35640740D01*
X51674790Y-35643316D01*
X51644550Y-35644680D01*
X51609451Y-35647282D01*
X51579292Y-35650662D01*
X51556680Y-35654574D01*
X51553372Y-35655353D01*
X51511746Y-35668596D01*
X51468315Y-35687919D01*
X51426964Y-35711380D01*
X51391580Y-35737039D01*
X51378393Y-35748600D01*
X51344355Y-35782937D01*
X51312837Y-35820953D01*
X51285412Y-35860462D01*
X51263650Y-35899277D01*
X51249123Y-35935213D01*
X51245781Y-35948442D01*
X51241191Y-35973021D01*
X51236732Y-36003125D01*
X51232718Y-36036110D01*
X51229462Y-36069332D01*
X51227278Y-36100150D01*
X51226480Y-36125918D01*
X51226480Y-36165320D01*
X51145200Y-36165320D01*
X51063920Y-36165320D01*
X51064001Y-36123410D01*
X51064425Y-36097288D01*
X51067032Y-36047817D01*
X51071721Y-35999090D01*
X51078162Y-35954224D01*
X51086024Y-35916341D01*
X51094048Y-35887555D01*
X51110757Y-35841260D01*
X51131951Y-35798086D01*
X51158776Y-35756107D01*
X51192379Y-35713400D01*
X51233905Y-35668039D01*
X51246199Y-35655175D01*
X51262867Y-35637052D01*
X51275572Y-35622366D01*
X51283243Y-35612371D01*
X51284814Y-35608320D01*
X51277621Y-35605020D01*
X51260858Y-35594888D01*
X51240381Y-35580560D01*
X51218514Y-35563775D01*
X51197577Y-35546272D01*
X51179896Y-35529789D01*
X51157638Y-35504731D01*
X51129208Y-35461009D01*
X51109053Y-35412026D01*
X51097023Y-35357372D01*
X51092962Y-35296640D01*
X51092987Y-35294100D01*
X51254420Y-35294100D01*
X51254450Y-35302148D01*
X51255174Y-35323461D01*
X51257415Y-35339447D01*
X51261900Y-35353805D01*
X51269354Y-35370235D01*
X51276587Y-35383486D01*
X51300546Y-35415759D01*
X51330065Y-35443271D01*
X51362443Y-35463324D01*
X51391580Y-35476980D01*
X51573190Y-35478594D01*
X51754800Y-35480209D01*
X51754800Y-35294444D01*
X51754800Y-35108680D01*
X51598590Y-35108782D01*
X51586478Y-35108803D01*
X51546274Y-35109063D01*
X51508326Y-35109582D01*
X51474215Y-35110321D01*
X51445522Y-35111241D01*
X51423828Y-35112302D01*
X51410713Y-35113464D01*
X51398647Y-35115619D01*
X51358550Y-35129149D01*
X51322841Y-35151295D01*
X51292717Y-35181173D01*
X51269374Y-35217900D01*
X51266752Y-35223335D01*
X51260267Y-35238769D01*
X51256535Y-35253240D01*
X51254828Y-35270449D01*
X51254420Y-35294100D01*
X51092987Y-35294100D01*
X51093108Y-35281708D01*
X51095836Y-35242304D01*
X51102687Y-35206561D01*
X51114551Y-35170738D01*
X51132316Y-35131097D01*
X51139274Y-35117738D01*
X51170637Y-35071157D01*
X51209687Y-35030771D01*
X51255653Y-34997282D01*
X51307760Y-34971394D01*
X51319481Y-34966912D01*
X51333368Y-34962262D01*
X51347898Y-34958368D01*
X51364023Y-34955163D01*
X51382694Y-34952580D01*
X51404863Y-34950553D01*
X51431482Y-34949013D01*
X51463502Y-34947895D01*
X51501876Y-34947131D01*
X51547554Y-34946655D01*
X51601488Y-34946399D01*
X51664630Y-34946297D01*
X51917360Y-34946120D01*
X51917360Y-35108680D01*
X51917360Y-35555720D01*
G37*
G36*
X50956173Y-35593462D02*
G01*
X50952982Y-35640422D01*
X50947651Y-35683550D01*
X50940293Y-35719773D01*
X50921335Y-35778987D01*
X50891651Y-35845357D01*
X50854643Y-35907861D01*
X50811181Y-35965487D01*
X50762136Y-36017223D01*
X50708378Y-36062055D01*
X50650778Y-36098972D01*
X50590206Y-36126962D01*
X50582941Y-36129486D01*
X50558601Y-36136436D01*
X50527866Y-36143736D01*
X50493391Y-36150822D01*
X50457831Y-36157136D01*
X50423840Y-36162116D01*
X50407504Y-36163222D01*
X50381480Y-36163219D01*
X50350728Y-36161975D01*
X50318111Y-36159659D01*
X50286494Y-36156438D01*
X50258740Y-36152478D01*
X50249140Y-36150762D01*
X50184252Y-36135077D01*
X50125253Y-36112854D01*
X50070447Y-36083198D01*
X50018141Y-36045212D01*
X49966640Y-35998001D01*
X49927265Y-35954750D01*
X49881481Y-35892250D01*
X49844898Y-35825665D01*
X49817341Y-35754711D01*
X49807723Y-35720318D01*
X49794617Y-35649500D01*
X49789055Y-35575955D01*
X49789529Y-35558260D01*
X49965409Y-35558260D01*
X49966936Y-35604411D01*
X49974305Y-35661867D01*
X49988378Y-35714816D01*
X50009815Y-35765569D01*
X50039277Y-35816435D01*
X50049914Y-35832141D01*
X50091694Y-35883700D01*
X50138164Y-35926371D01*
X50189176Y-35960053D01*
X50244580Y-35984642D01*
X50304231Y-36000037D01*
X50327619Y-36003664D01*
X50366691Y-36006895D01*
X50404490Y-36005576D01*
X50446097Y-35999697D01*
X50499254Y-35986373D01*
X50549870Y-35965002D01*
X50596959Y-35935190D01*
X50642142Y-35896080D01*
X50683265Y-35850255D01*
X50721434Y-35793742D01*
X50751228Y-35731640D01*
X50772839Y-35663605D01*
X50778018Y-35634105D01*
X50781083Y-35596726D01*
X50781806Y-35555696D01*
X50780223Y-35514188D01*
X50776371Y-35475374D01*
X50770287Y-35442429D01*
X50764380Y-35420773D01*
X50741454Y-35359383D01*
X50711051Y-35303033D01*
X50673892Y-35252492D01*
X50630697Y-35208530D01*
X50582187Y-35171916D01*
X50529081Y-35143422D01*
X50472100Y-35123815D01*
X50441568Y-35117997D01*
X50401403Y-35114173D01*
X50359222Y-35113386D01*
X50318912Y-35115692D01*
X50284358Y-35121145D01*
X50229224Y-35138487D01*
X50174676Y-35165821D01*
X50124563Y-35202088D01*
X50079249Y-35247022D01*
X50039101Y-35300354D01*
X50017111Y-35337005D01*
X49993510Y-35387612D01*
X49977462Y-35439829D01*
X49968314Y-35495948D01*
X49965409Y-35558260D01*
X49789529Y-35558260D01*
X49791033Y-35502069D01*
X49800552Y-35430227D01*
X49817609Y-35362813D01*
X49819511Y-35357032D01*
X49847649Y-35287668D01*
X49883792Y-35222711D01*
X49927133Y-35162942D01*
X49976865Y-35109145D01*
X50032181Y-35062102D01*
X50092273Y-35022594D01*
X50156334Y-34991405D01*
X50223557Y-34969317D01*
X50285201Y-34956169D01*
X50343963Y-34949288D01*
X50401103Y-34949119D01*
X50459660Y-34955660D01*
X50522674Y-34968905D01*
X50541597Y-34974031D01*
X50608792Y-34998746D01*
X50672030Y-35032206D01*
X50730671Y-35073693D01*
X50784078Y-35122486D01*
X50831613Y-35177867D01*
X50872638Y-35239118D01*
X50906514Y-35305518D01*
X50932605Y-35376348D01*
X50950271Y-35450890D01*
X50951760Y-35460323D01*
X50955676Y-35500339D01*
X50957109Y-35545743D01*
X50956914Y-35555696D01*
X50956173Y-35593462D01*
G37*
G36*
X56476204Y-34947268D02*
G01*
X56557940Y-34948660D01*
X56559248Y-35550640D01*
X56559347Y-35599953D01*
X56559465Y-35675704D01*
X56559539Y-35748267D01*
X56559570Y-35817007D01*
X56559558Y-35881291D01*
X56559506Y-35940486D01*
X56559413Y-35993957D01*
X56559282Y-36041070D01*
X56559113Y-36081193D01*
X56558909Y-36113690D01*
X56558669Y-36137929D01*
X56558395Y-36153276D01*
X56558089Y-36159096D01*
X56558002Y-36159296D01*
X56554252Y-36161746D01*
X56545046Y-36163389D01*
X56529210Y-36164295D01*
X56505573Y-36164534D01*
X56472961Y-36164176D01*
X56390300Y-36162780D01*
X56388985Y-35900073D01*
X56387669Y-35637367D01*
X56366125Y-35631814D01*
X56364033Y-35631274D01*
X56326346Y-35621369D01*
X56296343Y-35613027D01*
X56271901Y-35605607D01*
X56250899Y-35598465D01*
X56231214Y-35590960D01*
X56227259Y-35589391D01*
X56209148Y-35582607D01*
X56194776Y-35577840D01*
X56186960Y-35576040D01*
X56183705Y-35577448D01*
X56174142Y-35585497D01*
X56160479Y-35599447D01*
X56143934Y-35617881D01*
X56125727Y-35639382D01*
X56107076Y-35662533D01*
X56089200Y-35685918D01*
X56073319Y-35708120D01*
X56054789Y-35736001D01*
X56028480Y-35779138D01*
X56004243Y-35823883D01*
X55981461Y-35871641D01*
X55959521Y-35923815D01*
X55937808Y-35981809D01*
X55915708Y-36047026D01*
X55892605Y-36120870D01*
X55879146Y-36165320D01*
X55793093Y-36165320D01*
X55772542Y-36165196D01*
X55746102Y-36164603D01*
X55725387Y-36163595D01*
X55711873Y-36162250D01*
X55707040Y-36160650D01*
X55707079Y-36159584D01*
X55709073Y-36147566D01*
X55713748Y-36127769D01*
X55720633Y-36101798D01*
X55729253Y-36071260D01*
X55739139Y-36037759D01*
X55749816Y-36002901D01*
X55760814Y-35968291D01*
X55771659Y-35935536D01*
X55781879Y-35906240D01*
X55813468Y-35824429D01*
X55854873Y-35732592D01*
X55899586Y-35649393D01*
X55947956Y-35574190D01*
X56000334Y-35506342D01*
X56004252Y-35501685D01*
X56015891Y-35487449D01*
X56024022Y-35476883D01*
X56027080Y-35471999D01*
X56024159Y-35468268D01*
X56015088Y-35458438D01*
X56000987Y-35443747D01*
X55982998Y-35425384D01*
X55962263Y-35404536D01*
X55954525Y-35396759D01*
X55913981Y-35354045D01*
X55875975Y-35310257D01*
X55838864Y-35263333D01*
X55801001Y-35211211D01*
X55760743Y-35151829D01*
X55757048Y-35146194D01*
X55740448Y-35120270D01*
X55722549Y-35091502D01*
X55704315Y-35061522D01*
X55686710Y-35031961D01*
X55670697Y-35004452D01*
X55657239Y-34980624D01*
X55647302Y-34962110D01*
X55641847Y-34950542D01*
X55644954Y-34949299D01*
X55656675Y-34948029D01*
X55675600Y-34947022D01*
X55700142Y-34946359D01*
X55728712Y-34946120D01*
X55817270Y-34946120D01*
X55853348Y-35006774D01*
X55882797Y-35054253D01*
X55935470Y-35130267D01*
X55991040Y-35200120D01*
X56048894Y-35263256D01*
X56108418Y-35319116D01*
X56168997Y-35367143D01*
X56230018Y-35406780D01*
X56290867Y-35437468D01*
X56350930Y-35458651D01*
X56387760Y-35468712D01*
X56387760Y-35322537D01*
X56387820Y-35293019D01*
X56388120Y-35244481D01*
X56388639Y-35193995D01*
X56389336Y-35144588D01*
X56390175Y-35099287D01*
X56391114Y-35061119D01*
X56394468Y-34945876D01*
X56476204Y-34947268D01*
G37*
G36*
X48716960Y-34245080D02*
G01*
X48725702Y-34245691D01*
X48743500Y-34246243D01*
X48768467Y-34246663D01*
X48799050Y-34246933D01*
X48833697Y-34247034D01*
X48870855Y-34246947D01*
X48875866Y-34246924D01*
X48918706Y-34246870D01*
X48952131Y-34247144D01*
X48976810Y-34247771D01*
X48993415Y-34248777D01*
X49002616Y-34250187D01*
X49005083Y-34252027D01*
X49004825Y-34252582D01*
X48998022Y-34256812D01*
X48985809Y-34259447D01*
X48983384Y-34259666D01*
X48975532Y-34260378D01*
X48969045Y-34261627D01*
X48963793Y-34264287D01*
X48959646Y-34269234D01*
X48956473Y-34277341D01*
X48954146Y-34289485D01*
X48952533Y-34306539D01*
X48951505Y-34329379D01*
X48950932Y-34358879D01*
X48950683Y-34395914D01*
X48950630Y-34441360D01*
X48950640Y-34496090D01*
X48950646Y-34507043D01*
X48950809Y-34557634D01*
X48951188Y-34603644D01*
X48951762Y-34644143D01*
X48952513Y-34678201D01*
X48953421Y-34704889D01*
X48954466Y-34723277D01*
X48955628Y-34732436D01*
X48961045Y-34746192D01*
X48970407Y-34755380D01*
X48984930Y-34758082D01*
X48992052Y-34759220D01*
X48996360Y-34763130D01*
X48993462Y-34764541D01*
X48981431Y-34766227D01*
X48960957Y-34767675D01*
X48933013Y-34768819D01*
X48898570Y-34769596D01*
X48870129Y-34770049D01*
X48835648Y-34770641D01*
X48803362Y-34771237D01*
X48775927Y-34771788D01*
X48755997Y-34772246D01*
X48747896Y-34772371D01*
X48727350Y-34771935D01*
X48711015Y-34770539D01*
X48701858Y-34768393D01*
X48696570Y-34763054D01*
X48691181Y-34749721D01*
X48686467Y-34727600D01*
X48685016Y-34718299D01*
X48682963Y-34698415D01*
X48683248Y-34685550D01*
X48685641Y-34680466D01*
X48689912Y-34683921D01*
X48695830Y-34696676D01*
X48701757Y-34710463D01*
X48710410Y-34723387D01*
X48722024Y-34732033D01*
X48738383Y-34737208D01*
X48761275Y-34739721D01*
X48792486Y-34740380D01*
X48802881Y-34740373D01*
X48827747Y-34739955D01*
X48847067Y-34738090D01*
X48861514Y-34733690D01*
X48871762Y-34725666D01*
X48878485Y-34712928D01*
X48882355Y-34694387D01*
X48884046Y-34668955D01*
X48884232Y-34635542D01*
X48883587Y-34593060D01*
X48882060Y-34506700D01*
X48821100Y-34508496D01*
X48805233Y-34509067D01*
X48776872Y-34510987D01*
X48756779Y-34514125D01*
X48743666Y-34518865D01*
X48736243Y-34525591D01*
X48733221Y-34534687D01*
X48730710Y-34550100D01*
X48727397Y-34558962D01*
X48723915Y-34558486D01*
X48720532Y-34549104D01*
X48717512Y-34531247D01*
X48715121Y-34505345D01*
X48711979Y-34458270D01*
X48725660Y-34467245D01*
X48726984Y-34468078D01*
X48734499Y-34471529D01*
X48744782Y-34473873D01*
X48759678Y-34475307D01*
X48781036Y-34476024D01*
X48810701Y-34476220D01*
X48882060Y-34476220D01*
X48882060Y-34377160D01*
X48882060Y-34278100D01*
X48837311Y-34276627D01*
X48812662Y-34276475D01*
X48782589Y-34278240D01*
X48757349Y-34281994D01*
X48738699Y-34287453D01*
X48728390Y-34294332D01*
X48724196Y-34303676D01*
X48722040Y-34317594D01*
X48721982Y-34320709D01*
X48720279Y-34330176D01*
X48716896Y-34331305D01*
X48712748Y-34325285D01*
X48708750Y-34313302D01*
X48705817Y-34296544D01*
X48704135Y-34281753D01*
X48702130Y-34264793D01*
X48700737Y-34253778D01*
X48700700Y-34246645D01*
X48705198Y-34244070D01*
X48716960Y-34245080D01*
G37*
G36*
X46497006Y-34246351D02*
G01*
X46528728Y-34246710D01*
X46550684Y-34247725D01*
X46563230Y-34249423D01*
X46566717Y-34251831D01*
X46566693Y-34251898D01*
X46560826Y-34256915D01*
X46549463Y-34261310D01*
X46540135Y-34265690D01*
X46525838Y-34276047D01*
X46511540Y-34289483D01*
X46502882Y-34300106D01*
X46489844Y-34318030D01*
X46473721Y-34341388D01*
X46455493Y-34368644D01*
X46436144Y-34398266D01*
X46416653Y-34428717D01*
X46398004Y-34458464D01*
X46381178Y-34485972D01*
X46367156Y-34509707D01*
X46356920Y-34528134D01*
X46351452Y-34539720D01*
X46351277Y-34540226D01*
X46348699Y-34553316D01*
X46346755Y-34573709D01*
X46345448Y-34599227D01*
X46344781Y-34627689D01*
X46344757Y-34656914D01*
X46345379Y-34684722D01*
X46346651Y-34708932D01*
X46348577Y-34727365D01*
X46351158Y-34737840D01*
X46360363Y-34748306D01*
X46373697Y-34755797D01*
X46374462Y-34756049D01*
X46386464Y-34760715D01*
X46393461Y-34764687D01*
X46390049Y-34765809D01*
X46377985Y-34766814D01*
X46358749Y-34767609D01*
X46333852Y-34768132D01*
X46304807Y-34768320D01*
X46276777Y-34768110D01*
X46251058Y-34767487D01*
X46230712Y-34766527D01*
X46217334Y-34765306D01*
X46212520Y-34763900D01*
X46213703Y-34762383D01*
X46222098Y-34759260D01*
X46235904Y-34756845D01*
X46237205Y-34756698D01*
X46249821Y-34754941D01*
X46259362Y-34752066D01*
X46266283Y-34746780D01*
X46271042Y-34737792D01*
X46274095Y-34723810D01*
X46275899Y-34703545D01*
X46276912Y-34675702D01*
X46277589Y-34638992D01*
X46278141Y-34609507D01*
X46278449Y-34584591D01*
X46277941Y-34564458D01*
X46276075Y-34547416D01*
X46272312Y-34531772D01*
X46266109Y-34515833D01*
X46256925Y-34497905D01*
X46244220Y-34476296D01*
X46227452Y-34449311D01*
X46206080Y-34415260D01*
X46195183Y-34397891D01*
X46171417Y-34360650D01*
X46151647Y-34330949D01*
X46135103Y-34307888D01*
X46121015Y-34290568D01*
X46108614Y-34278089D01*
X46097131Y-34269552D01*
X46085795Y-34264058D01*
X46073839Y-34260707D01*
X46064042Y-34257246D01*
X46059864Y-34252700D01*
X46063284Y-34251050D01*
X46074782Y-34249406D01*
X46092183Y-34248146D01*
X46113194Y-34247306D01*
X46135525Y-34246920D01*
X46156883Y-34247025D01*
X46174976Y-34247657D01*
X46187512Y-34248851D01*
X46192200Y-34250642D01*
X46190063Y-34254379D01*
X46182040Y-34260320D01*
X46176925Y-34263964D01*
X46173446Y-34269959D01*
X46173201Y-34278656D01*
X46176558Y-34291035D01*
X46183884Y-34308076D01*
X46195549Y-34330758D01*
X46211919Y-34360060D01*
X46233363Y-34396963D01*
X46244853Y-34416481D01*
X46261293Y-34444261D01*
X46275636Y-34468320D01*
X46287125Y-34487398D01*
X46295002Y-34500229D01*
X46298510Y-34505552D01*
X46298923Y-34505520D01*
X46303481Y-34500307D01*
X46312124Y-34488040D01*
X46324016Y-34470076D01*
X46338322Y-34447776D01*
X46354207Y-34422496D01*
X46370836Y-34395596D01*
X46387374Y-34368435D01*
X46402986Y-34342370D01*
X46416837Y-34318760D01*
X46428091Y-34298964D01*
X46435913Y-34284340D01*
X46439469Y-34276247D01*
X46439494Y-34268835D01*
X46431460Y-34259453D01*
X46424599Y-34254407D01*
X46420800Y-34249573D01*
X46421720Y-34249066D01*
X46430329Y-34247994D01*
X46446547Y-34247132D01*
X46468589Y-34246558D01*
X46494672Y-34246350D01*
X46497006Y-34246351D01*
G37*
G36*
X56264280Y-34246075D02*
G01*
X56271422Y-34246987D01*
X56289257Y-34248102D01*
X56314333Y-34248926D01*
X56344920Y-34249422D01*
X56379286Y-34249553D01*
X56415700Y-34249283D01*
X56422675Y-34249196D01*
X56464933Y-34248905D01*
X56498599Y-34249121D01*
X56523286Y-34249832D01*
X56538603Y-34251028D01*
X56544160Y-34252700D01*
X56543888Y-34254033D01*
X56537433Y-34257792D01*
X56525009Y-34260674D01*
X56521033Y-34261328D01*
X56506959Y-34265143D01*
X56498150Y-34269820D01*
X56497779Y-34270303D01*
X56496245Y-34275423D01*
X56494978Y-34285820D01*
X56493958Y-34302190D01*
X56493166Y-34325232D01*
X56492584Y-34355643D01*
X56492192Y-34394120D01*
X56491970Y-34441362D01*
X56491900Y-34498065D01*
X56491936Y-34527778D01*
X56492130Y-34573213D01*
X56492476Y-34615196D01*
X56492958Y-34652609D01*
X56493554Y-34684334D01*
X56494248Y-34709253D01*
X56495019Y-34726249D01*
X56495851Y-34734202D01*
X56501409Y-34744824D01*
X56511091Y-34752839D01*
X56519188Y-34756093D01*
X56532540Y-34761556D01*
X56531711Y-34763019D01*
X56521750Y-34764568D01*
X56503208Y-34766038D01*
X56476899Y-34767365D01*
X56443640Y-34768486D01*
X56406477Y-34769496D01*
X56365074Y-34770594D01*
X56332012Y-34771416D01*
X56306253Y-34771972D01*
X56286759Y-34772272D01*
X56272493Y-34772324D01*
X56262417Y-34772138D01*
X56255494Y-34771722D01*
X56250687Y-34771087D01*
X56246959Y-34770242D01*
X56241538Y-34768330D01*
X56236323Y-34763976D01*
X56232574Y-34755663D01*
X56229459Y-34741341D01*
X56226147Y-34718961D01*
X56226045Y-34718195D01*
X56224548Y-34700751D01*
X56224817Y-34687080D01*
X56226532Y-34678776D01*
X56229374Y-34677432D01*
X56233023Y-34684642D01*
X56237942Y-34699018D01*
X56245120Y-34715654D01*
X56253596Y-34727114D01*
X56265141Y-34734357D01*
X56281525Y-34738343D01*
X56304519Y-34740030D01*
X56335896Y-34740380D01*
X56338275Y-34740379D01*
X56363788Y-34740297D01*
X56381293Y-34739797D01*
X56392786Y-34738499D01*
X56400263Y-34736022D01*
X56405722Y-34731985D01*
X56411158Y-34726005D01*
X56414418Y-34722114D01*
X56417766Y-34717085D01*
X56420133Y-34710837D01*
X56421659Y-34701881D01*
X56422483Y-34688725D01*
X56422747Y-34669881D01*
X56422591Y-34643858D01*
X56422154Y-34609165D01*
X56420780Y-34506700D01*
X56359820Y-34508469D01*
X56338735Y-34509285D01*
X56313060Y-34511394D01*
X56295097Y-34514987D01*
X56283360Y-34520604D01*
X56276366Y-34528781D01*
X56272631Y-34540056D01*
X56271416Y-34545570D01*
X56267806Y-34555422D01*
X56264363Y-34555300D01*
X56261225Y-34545342D01*
X56258528Y-34525688D01*
X56256650Y-34508211D01*
X56254210Y-34488342D01*
X56252094Y-34473861D01*
X56249061Y-34456263D01*
X56263801Y-34466230D01*
X56266442Y-34467906D01*
X56274310Y-34471528D01*
X56284825Y-34474091D01*
X56299867Y-34475849D01*
X56321312Y-34477053D01*
X56351039Y-34477957D01*
X56423538Y-34479717D01*
X56422159Y-34378908D01*
X56420780Y-34278100D01*
X56385220Y-34276472D01*
X56344797Y-34276066D01*
X56312079Y-34278842D01*
X56287857Y-34284715D01*
X56272749Y-34293589D01*
X56272744Y-34293595D01*
X56264280Y-34305858D01*
X56260760Y-34318509D01*
X56259533Y-34327084D01*
X56255911Y-34331440D01*
X56254191Y-34330831D01*
X56251360Y-34325971D01*
X56248729Y-34315097D01*
X56246007Y-34296836D01*
X56242904Y-34269811D01*
X56239860Y-34241203D01*
X56264280Y-34246075D01*
G37*
G36*
X58880200Y-35568662D02*
G01*
X58874257Y-35647988D01*
X58858857Y-35727794D01*
X58854774Y-35742344D01*
X58841223Y-35780684D01*
X58823406Y-35822162D01*
X58802898Y-35863509D01*
X58781274Y-35901454D01*
X58760111Y-35932728D01*
X58725019Y-35974699D01*
X58679139Y-36020194D01*
X58629714Y-36060573D01*
X58578716Y-36094248D01*
X58528116Y-36119632D01*
X58495574Y-36131333D01*
X58453727Y-36142980D01*
X58408054Y-36152849D01*
X58361838Y-36160140D01*
X58351207Y-36161304D01*
X58304868Y-36163199D01*
X58253436Y-36161101D01*
X58200146Y-36155332D01*
X58148236Y-36146216D01*
X58100944Y-36134077D01*
X58067226Y-36122017D01*
X58009240Y-36093549D01*
X57953570Y-36056675D01*
X57901333Y-36012504D01*
X57853643Y-35962142D01*
X57811619Y-35906696D01*
X57776375Y-35847274D01*
X57749028Y-35784984D01*
X57726500Y-35709379D01*
X57713202Y-35632233D01*
X57709376Y-35558260D01*
X57889396Y-35558260D01*
X57889441Y-35583081D01*
X57889764Y-35610590D01*
X57890593Y-35631679D01*
X57892150Y-35648527D01*
X57894658Y-35663313D01*
X57898339Y-35678218D01*
X57903417Y-35695420D01*
X57918412Y-35737432D01*
X57948563Y-35797905D01*
X57987499Y-35853545D01*
X58035525Y-35904833D01*
X58074358Y-35937026D01*
X58124907Y-35967805D01*
X58179638Y-35989521D01*
X58239420Y-36002591D01*
X58277276Y-36006177D01*
X58338331Y-36004284D01*
X58396982Y-35993036D01*
X58452598Y-35972870D01*
X58504550Y-35944229D01*
X58552208Y-35907553D01*
X58594942Y-35863282D01*
X58632123Y-35811857D01*
X58663120Y-35753718D01*
X58687304Y-35689306D01*
X58688165Y-35686471D01*
X58693129Y-35669023D01*
X58696633Y-35653361D01*
X58698937Y-35637097D01*
X58700299Y-35617841D01*
X58700977Y-35593205D01*
X58701232Y-35560800D01*
X58701102Y-35526571D01*
X58700294Y-35498828D01*
X58698635Y-35476923D01*
X58695956Y-35458662D01*
X58692088Y-35441849D01*
X58678514Y-35398763D01*
X58651882Y-35338130D01*
X58618407Y-35283242D01*
X58578749Y-35234765D01*
X58533570Y-35193365D01*
X58483528Y-35159708D01*
X58429285Y-35134462D01*
X58371500Y-35118292D01*
X58365191Y-35117200D01*
X58333890Y-35114097D01*
X58297494Y-35113282D01*
X58259777Y-35114643D01*
X58224507Y-35118070D01*
X58195458Y-35123453D01*
X58194924Y-35123590D01*
X58139067Y-35143141D01*
X58086652Y-35171701D01*
X58038449Y-35208483D01*
X57995229Y-35252699D01*
X57957764Y-35303562D01*
X57926824Y-35360284D01*
X57903180Y-35422078D01*
X57899613Y-35433932D01*
X57895577Y-35449120D01*
X57892767Y-35463631D01*
X57890963Y-35479634D01*
X57889946Y-35499295D01*
X57889497Y-35524781D01*
X57889396Y-35558260D01*
X57709376Y-35558260D01*
X57709220Y-35555253D01*
X57714306Y-35479233D01*
X57728210Y-35404962D01*
X57750685Y-35333231D01*
X57781482Y-35264833D01*
X57820352Y-35200557D01*
X57867047Y-35141196D01*
X57921319Y-35087540D01*
X57982918Y-35040380D01*
X57988020Y-35037020D01*
X58040861Y-35007583D01*
X58099500Y-34983369D01*
X58161568Y-34964967D01*
X58224697Y-34952965D01*
X58286517Y-34947951D01*
X58344659Y-34950513D01*
X58400040Y-34959046D01*
X58473114Y-34977539D01*
X58540445Y-35003907D01*
X58602904Y-35038581D01*
X58661364Y-35081991D01*
X58716697Y-35134569D01*
X58727763Y-35146634D01*
X58774623Y-35206637D01*
X58813152Y-35271818D01*
X58843161Y-35341394D01*
X58864464Y-35414582D01*
X58876873Y-35490599D01*
X58879865Y-35560800D01*
X58880200Y-35568662D01*
G37*
G36*
X59837080Y-35555399D02*
G01*
X59837080Y-36165320D01*
X59758340Y-36165320D01*
X59679600Y-36165320D01*
X59679600Y-35903700D01*
X59679600Y-35642080D01*
X59619910Y-35642109D01*
X59598292Y-35642448D01*
X59552233Y-35645185D01*
X59507923Y-35650362D01*
X59468136Y-35657612D01*
X59435646Y-35666566D01*
X59399717Y-35681062D01*
X59349409Y-35709244D01*
X59302362Y-35745804D01*
X59257875Y-35791314D01*
X59215247Y-35846346D01*
X59215172Y-35846455D01*
X59198514Y-35872134D01*
X59185129Y-35897505D01*
X59174535Y-35924313D01*
X59166249Y-35954300D01*
X59159791Y-35989209D01*
X59154677Y-36030785D01*
X59150425Y-36080771D01*
X59144280Y-36165320D01*
X59066341Y-36165320D01*
X59051629Y-36165291D01*
X59025069Y-36164974D01*
X59006605Y-36164196D01*
X58994808Y-36162824D01*
X58988250Y-36160725D01*
X58985503Y-36157765D01*
X58984910Y-36151971D01*
X58984836Y-36137331D01*
X58985374Y-36115889D01*
X58986478Y-36089435D01*
X58988100Y-36059759D01*
X58990278Y-36029525D01*
X58997926Y-35964613D01*
X59009731Y-35906880D01*
X59026445Y-35854571D01*
X59048819Y-35805931D01*
X59077605Y-35759205D01*
X59113555Y-35712639D01*
X59157420Y-35664478D01*
X59163813Y-35657867D01*
X59180866Y-35639997D01*
X59194624Y-35625230D01*
X59203814Y-35614950D01*
X59207160Y-35610538D01*
X59206970Y-35610142D01*
X59201331Y-35605627D01*
X59189444Y-35597821D01*
X59173451Y-35588145D01*
X59151609Y-35574124D01*
X59110893Y-35540454D01*
X59076501Y-35501384D01*
X59050296Y-35458870D01*
X59041967Y-35441091D01*
X59027968Y-35403881D01*
X59019319Y-35366522D01*
X59015420Y-35325889D01*
X59015590Y-35293993D01*
X59174284Y-35293993D01*
X59174284Y-35294209D01*
X59178694Y-35335769D01*
X59191964Y-35373891D01*
X59214742Y-35410437D01*
X59227623Y-35424547D01*
X59252714Y-35444357D01*
X59281767Y-35460866D01*
X59311098Y-35471732D01*
X59319503Y-35473266D01*
X59338120Y-35475187D01*
X59363342Y-35476805D01*
X59393772Y-35478116D01*
X59428013Y-35479114D01*
X59464670Y-35479795D01*
X59502345Y-35480151D01*
X59539642Y-35480179D01*
X59575165Y-35479873D01*
X59607518Y-35479227D01*
X59635302Y-35478236D01*
X59657123Y-35476895D01*
X59671584Y-35475198D01*
X59677287Y-35473141D01*
X59677747Y-35468326D01*
X59678184Y-35454255D01*
X59678499Y-35432250D01*
X59678686Y-35403516D01*
X59678736Y-35369258D01*
X59678642Y-35330681D01*
X59678398Y-35288991D01*
X59677060Y-35111220D01*
X59496601Y-35111220D01*
X59316142Y-35111220D01*
X59282521Y-35127777D01*
X59278908Y-35129591D01*
X59242512Y-35152971D01*
X59213603Y-35182484D01*
X59190698Y-35219613D01*
X59190690Y-35219629D01*
X59181959Y-35238694D01*
X59176973Y-35254459D01*
X59174744Y-35271399D01*
X59174284Y-35293993D01*
X59015590Y-35293993D01*
X59015670Y-35278860D01*
X59015812Y-35275649D01*
X59021335Y-35221159D01*
X59032998Y-35173297D01*
X59051635Y-35130108D01*
X59078078Y-35089637D01*
X59113159Y-35049929D01*
X59118071Y-35045028D01*
X59143810Y-35021414D01*
X59168131Y-35003322D01*
X59194460Y-34988150D01*
X59203554Y-34983488D01*
X59218205Y-34976106D01*
X59231572Y-34969874D01*
X59244607Y-34964689D01*
X59258266Y-34960447D01*
X59273500Y-34957042D01*
X59291265Y-34954370D01*
X59312514Y-34952328D01*
X59338200Y-34950812D01*
X59369277Y-34949715D01*
X59406699Y-34948935D01*
X59451419Y-34948368D01*
X59504392Y-34947908D01*
X59566570Y-34947451D01*
X59837080Y-34945478D01*
X59837080Y-35369258D01*
X59837080Y-35555399D01*
G37*
G36*
X51938882Y-34244109D02*
G01*
X51954075Y-34246369D01*
X51956365Y-34246740D01*
X51972418Y-34248113D01*
X51996904Y-34248998D01*
X52028417Y-34249376D01*
X52065556Y-34249227D01*
X52106916Y-34248531D01*
X52120219Y-34248239D01*
X52158306Y-34247560D01*
X52187378Y-34247356D01*
X52208308Y-34247647D01*
X52221970Y-34248458D01*
X52229237Y-34249809D01*
X52230983Y-34251724D01*
X52230590Y-34252497D01*
X52223393Y-34256768D01*
X52210877Y-34259324D01*
X52195361Y-34263381D01*
X52183329Y-34271287D01*
X52182903Y-34271769D01*
X52180398Y-34275387D01*
X52178379Y-34280537D01*
X52176777Y-34288297D01*
X52175526Y-34299747D01*
X52174558Y-34315965D01*
X52173807Y-34338029D01*
X52173204Y-34367018D01*
X52172683Y-34404010D01*
X52172177Y-34450083D01*
X52171820Y-34500546D01*
X52171960Y-34564875D01*
X52172884Y-34619395D01*
X52174603Y-34664298D01*
X52177128Y-34699772D01*
X52180469Y-34726010D01*
X52184639Y-34743202D01*
X52189647Y-34751538D01*
X52196846Y-34755286D01*
X52210431Y-34758160D01*
X52217844Y-34759285D01*
X52222160Y-34763130D01*
X52219262Y-34764541D01*
X52207231Y-34766227D01*
X52186757Y-34767675D01*
X52158813Y-34768819D01*
X52124370Y-34769596D01*
X52096100Y-34770046D01*
X52061392Y-34770638D01*
X52028773Y-34771235D01*
X52000933Y-34771788D01*
X51980561Y-34772246D01*
X51956980Y-34772287D01*
X51936626Y-34770578D01*
X51925646Y-34766894D01*
X51924841Y-34766204D01*
X51919442Y-34756759D01*
X51914530Y-34741261D01*
X51910655Y-34722847D01*
X51908364Y-34704654D01*
X51908205Y-34689820D01*
X51910726Y-34681482D01*
X51911952Y-34680493D01*
X51916053Y-34682232D01*
X51919342Y-34693468D01*
X51924786Y-34709743D01*
X51937377Y-34724878D01*
X51957200Y-34735170D01*
X51984985Y-34740971D01*
X52021467Y-34742633D01*
X52042127Y-34742074D01*
X52067512Y-34739325D01*
X52085280Y-34733824D01*
X52096880Y-34725040D01*
X52103764Y-34712440D01*
X52105717Y-34703580D01*
X52107704Y-34685810D01*
X52109145Y-34662549D01*
X52110039Y-34635750D01*
X52110384Y-34607368D01*
X52110180Y-34579358D01*
X52109426Y-34553675D01*
X52108120Y-34532273D01*
X52106263Y-34517106D01*
X52103854Y-34510130D01*
X52103578Y-34509929D01*
X52095026Y-34507956D01*
X52079067Y-34507163D01*
X52058180Y-34507398D01*
X52034844Y-34508507D01*
X52011536Y-34510337D01*
X51990734Y-34512734D01*
X51974916Y-34515546D01*
X51966560Y-34518620D01*
X51966022Y-34519104D01*
X51960035Y-34528792D01*
X51955735Y-34542582D01*
X51954499Y-34548103D01*
X51950679Y-34556479D01*
X51946846Y-34555825D01*
X51943850Y-34546917D01*
X51942539Y-34530530D01*
X51942431Y-34525887D01*
X51940888Y-34504657D01*
X51938167Y-34485249D01*
X51936289Y-34473722D01*
X51936426Y-34463180D01*
X51940620Y-34461238D01*
X51949227Y-34467318D01*
X51951782Y-34469334D01*
X51958058Y-34472294D01*
X51967655Y-34474283D01*
X51982281Y-34475479D01*
X52003646Y-34476064D01*
X52033460Y-34476220D01*
X52107860Y-34476220D01*
X52107860Y-34377160D01*
X52107860Y-34278100D01*
X52044360Y-34278420D01*
X52014400Y-34278988D01*
X51988492Y-34280872D01*
X51970212Y-34284488D01*
X51958229Y-34290275D01*
X51951215Y-34298668D01*
X51947840Y-34310104D01*
X51945327Y-34321616D01*
X51941612Y-34327131D01*
X51937533Y-34323172D01*
X51933390Y-34310095D01*
X51929483Y-34288260D01*
X51928712Y-34282656D01*
X51926497Y-34264243D01*
X51925353Y-34250647D01*
X51925514Y-34244482D01*
X51928382Y-34243655D01*
X51938882Y-34244109D01*
G37*
G36*
X57592176Y-34399089D02*
G01*
X57592017Y-34444165D01*
X57592010Y-34489532D01*
X57592155Y-34533962D01*
X57592456Y-34576225D01*
X57592914Y-34615091D01*
X57593532Y-34649330D01*
X57594311Y-34677714D01*
X57595256Y-34699012D01*
X57596367Y-34711995D01*
X57597460Y-34718417D01*
X57605247Y-34740299D01*
X57617998Y-34753645D01*
X57635463Y-34758160D01*
X57643271Y-34759358D01*
X57647600Y-34763240D01*
X57644913Y-34764953D01*
X57633379Y-34766874D01*
X57613946Y-34768226D01*
X57587910Y-34768888D01*
X57570170Y-34769188D01*
X57537989Y-34770213D01*
X57506310Y-34771720D01*
X57479960Y-34773501D01*
X57461553Y-34774679D01*
X57431302Y-34775731D01*
X57398698Y-34776103D01*
X57368200Y-34775707D01*
X57354334Y-34775168D01*
X57298849Y-34769615D01*
X57250457Y-34758438D01*
X57207704Y-34741080D01*
X57169136Y-34716983D01*
X57133299Y-34685590D01*
X57113566Y-34663635D01*
X57083189Y-34618367D01*
X57061176Y-34567802D01*
X57047778Y-34512585D01*
X57046637Y-34497684D01*
X57117036Y-34497684D01*
X57119983Y-34536454D01*
X57126396Y-34570200D01*
X57130156Y-34582921D01*
X57149568Y-34628576D01*
X57176304Y-34667194D01*
X57210301Y-34698715D01*
X57251498Y-34723078D01*
X57299832Y-34740221D01*
X57301028Y-34740524D01*
X57323769Y-34744360D01*
X57352708Y-34746709D01*
X57384597Y-34747557D01*
X57416188Y-34746889D01*
X57444235Y-34744691D01*
X57465489Y-34740949D01*
X57481017Y-34736169D01*
X57500661Y-34726696D01*
X57512677Y-34714565D01*
X57518652Y-34698508D01*
X57519361Y-34690171D01*
X57520067Y-34672577D01*
X57520725Y-34646960D01*
X57521318Y-34614409D01*
X57521829Y-34576015D01*
X57522240Y-34532868D01*
X57522536Y-34486056D01*
X57522699Y-34436670D01*
X57522725Y-34421814D01*
X57522772Y-34367470D01*
X57522713Y-34322250D01*
X57522524Y-34285320D01*
X57522180Y-34255850D01*
X57521658Y-34233008D01*
X57520932Y-34215962D01*
X57519980Y-34203880D01*
X57518777Y-34195929D01*
X57517298Y-34191279D01*
X57515520Y-34189098D01*
X57507070Y-34186798D01*
X57490350Y-34185198D01*
X57467812Y-34184425D01*
X57441669Y-34184445D01*
X57414137Y-34185224D01*
X57387429Y-34186726D01*
X57363759Y-34188917D01*
X57345340Y-34191762D01*
X57303496Y-34203804D01*
X57255801Y-34226595D01*
X57213578Y-34257361D01*
X57177669Y-34295337D01*
X57148911Y-34339759D01*
X57128143Y-34389860D01*
X57121399Y-34419906D01*
X57117520Y-34457599D01*
X57117036Y-34497684D01*
X57046637Y-34497684D01*
X57043244Y-34453360D01*
X57043762Y-34433774D01*
X57051325Y-34378835D01*
X57067618Y-34328788D01*
X57092273Y-34284101D01*
X57124923Y-34245241D01*
X57165201Y-34212676D01*
X57212740Y-34186873D01*
X57267172Y-34168298D01*
X57267677Y-34168169D01*
X57280017Y-34165208D01*
X57292286Y-34162815D01*
X57305763Y-34160916D01*
X57321727Y-34159436D01*
X57341456Y-34158301D01*
X57366230Y-34157438D01*
X57397328Y-34156771D01*
X57436027Y-34156227D01*
X57483608Y-34155731D01*
X57488899Y-34155682D01*
X57542603Y-34155385D01*
X57586245Y-34155548D01*
X57619904Y-34156176D01*
X57643661Y-34157274D01*
X57657597Y-34158848D01*
X57661790Y-34160903D01*
X57656322Y-34163445D01*
X57641272Y-34166479D01*
X57627602Y-34169128D01*
X57612583Y-34174366D01*
X57603382Y-34182392D01*
X57597335Y-34194930D01*
X57597305Y-34195020D01*
X57596157Y-34203624D01*
X57595144Y-34221127D01*
X57594268Y-34246299D01*
X57593530Y-34277910D01*
X57592934Y-34314733D01*
X57592482Y-34355535D01*
X57592398Y-34367470D01*
X57592176Y-34399089D01*
G37*
G36*
X58664706Y-34236190D02*
G01*
X58664742Y-34236354D01*
X58665027Y-34243035D01*
X58665395Y-34258747D01*
X58665831Y-34282516D01*
X58666321Y-34313368D01*
X58666848Y-34350327D01*
X58667400Y-34392419D01*
X58667961Y-34438669D01*
X58668516Y-34488103D01*
X58671220Y-34738746D01*
X58683213Y-34748453D01*
X58694429Y-34755004D01*
X58707043Y-34758160D01*
X58714985Y-34759239D01*
X58722020Y-34763240D01*
X58722085Y-34763769D01*
X58716202Y-34765732D01*
X58700536Y-34767157D01*
X58675384Y-34768026D01*
X58641040Y-34768320D01*
X58630010Y-34768290D01*
X58599176Y-34767811D01*
X58576208Y-34766779D01*
X58561869Y-34765239D01*
X58556920Y-34763240D01*
X58561273Y-34759661D01*
X58571830Y-34758160D01*
X58591480Y-34755924D01*
X58607838Y-34747284D01*
X58617274Y-34731805D01*
X58617797Y-34729070D01*
X58618994Y-34716932D01*
X58620364Y-34697020D01*
X58621854Y-34670711D01*
X58623413Y-34639385D01*
X58624988Y-34604419D01*
X58626530Y-34567194D01*
X58627985Y-34529086D01*
X58629303Y-34491476D01*
X58630432Y-34455741D01*
X58631320Y-34423261D01*
X58631915Y-34395414D01*
X58632167Y-34373578D01*
X58632023Y-34359133D01*
X58631432Y-34353457D01*
X58631322Y-34353468D01*
X58626764Y-34357517D01*
X58616267Y-34367929D01*
X58600730Y-34383782D01*
X58581052Y-34404151D01*
X58558131Y-34428114D01*
X58532866Y-34454746D01*
X58511796Y-34476903D01*
X58476744Y-34513342D01*
X58438387Y-34552816D01*
X58399071Y-34592926D01*
X58361141Y-34631270D01*
X58326944Y-34665450D01*
X58316992Y-34675287D01*
X58290029Y-34701585D01*
X58265421Y-34725083D01*
X58244127Y-34744896D01*
X58227106Y-34760143D01*
X58215318Y-34769938D01*
X58209721Y-34773400D01*
X58207180Y-34772618D01*
X58205203Y-34769522D01*
X58203723Y-34762993D01*
X58202671Y-34751908D01*
X58201974Y-34735148D01*
X58201564Y-34711590D01*
X58201370Y-34680115D01*
X58201320Y-34639600D01*
X58201279Y-34614034D01*
X58200990Y-34565827D01*
X58200455Y-34517710D01*
X58199703Y-34470800D01*
X58198767Y-34426217D01*
X58197676Y-34385079D01*
X58196464Y-34348506D01*
X58195160Y-34317617D01*
X58193797Y-34293531D01*
X58192405Y-34277367D01*
X58191015Y-34270244D01*
X58190788Y-34269914D01*
X58183148Y-34264927D01*
X58170607Y-34260952D01*
X58169348Y-34260680D01*
X58157755Y-34256684D01*
X58151982Y-34252005D01*
X58152025Y-34251348D01*
X58157581Y-34249161D01*
X58172042Y-34247607D01*
X58195821Y-34246655D01*
X58229333Y-34246274D01*
X58251456Y-34246310D01*
X58277525Y-34246793D01*
X58294842Y-34247847D01*
X58304250Y-34249535D01*
X58306596Y-34251918D01*
X58305666Y-34253245D01*
X58297416Y-34257043D01*
X58284023Y-34259315D01*
X58280395Y-34259586D01*
X58270756Y-34260616D01*
X58263022Y-34262736D01*
X58256949Y-34266955D01*
X58252296Y-34274280D01*
X58248821Y-34285717D01*
X58246281Y-34302274D01*
X58244435Y-34324958D01*
X58243041Y-34354777D01*
X58241856Y-34392737D01*
X58240639Y-34439847D01*
X58240306Y-34453345D01*
X58239399Y-34493982D01*
X58238674Y-34532462D01*
X58238153Y-34567186D01*
X58237858Y-34596552D01*
X58237810Y-34618963D01*
X58238031Y-34632817D01*
X58239420Y-34667494D01*
X58446794Y-34451207D01*
X58467955Y-34429145D01*
X58509448Y-34385956D01*
X58544691Y-34349406D01*
X58574194Y-34318990D01*
X58598465Y-34294207D01*
X58618015Y-34274554D01*
X58633353Y-34259527D01*
X58644989Y-34248623D01*
X58653432Y-34241341D01*
X58659193Y-34237176D01*
X58662781Y-34235627D01*
X58664706Y-34236190D01*
G37*
G36*
X53277705Y-34579927D02*
G01*
X53294388Y-34621787D01*
X53308509Y-34656273D01*
X53320459Y-34684122D01*
X53330628Y-34706075D01*
X53339409Y-34722869D01*
X53347190Y-34735244D01*
X53354365Y-34743937D01*
X53361323Y-34749689D01*
X53368456Y-34753238D01*
X53376154Y-34755323D01*
X53384809Y-34756682D01*
X53389899Y-34757479D01*
X53402444Y-34760572D01*
X53408764Y-34763925D01*
X53407188Y-34764938D01*
X53397410Y-34766282D01*
X53380188Y-34767354D01*
X53357144Y-34768063D01*
X53329900Y-34768320D01*
X53321068Y-34768300D01*
X53290431Y-34767841D01*
X53267565Y-34766811D01*
X53253264Y-34765261D01*
X53248320Y-34763240D01*
X53248321Y-34763225D01*
X53252759Y-34759647D01*
X53263382Y-34758160D01*
X53266453Y-34758042D01*
X53279614Y-34753085D01*
X53285642Y-34741056D01*
X53284353Y-34722268D01*
X53281286Y-34711124D01*
X53275381Y-34692807D01*
X53267719Y-34670709D01*
X53259129Y-34647065D01*
X53250444Y-34624112D01*
X53242495Y-34604084D01*
X53236112Y-34589218D01*
X53232127Y-34581750D01*
X53231773Y-34581369D01*
X53226626Y-34578892D01*
X53216348Y-34577233D01*
X53199685Y-34576320D01*
X53175384Y-34576077D01*
X53142189Y-34576430D01*
X53057820Y-34577820D01*
X53023188Y-34663583D01*
X53013016Y-34689171D01*
X53002542Y-34717022D01*
X52996018Y-34736803D01*
X52993233Y-34749167D01*
X52993978Y-34754769D01*
X52996237Y-34757399D01*
X52999400Y-34764255D01*
X52998123Y-34764995D01*
X52988837Y-34766310D01*
X52972037Y-34767364D01*
X52949474Y-34768065D01*
X52922901Y-34768320D01*
X52909790Y-34768256D01*
X52882505Y-34767585D01*
X52863049Y-34766269D01*
X52851889Y-34764415D01*
X52849491Y-34762133D01*
X52856321Y-34759529D01*
X52872843Y-34756712D01*
X52873366Y-34756640D01*
X52896907Y-34748197D01*
X52917767Y-34730038D01*
X52935810Y-34702280D01*
X52938008Y-34697625D01*
X52944439Y-34682994D01*
X52953944Y-34660701D01*
X52966065Y-34631845D01*
X52980346Y-34597521D01*
X52996328Y-34558827D01*
X53001564Y-34546070D01*
X53073849Y-34546070D01*
X53074656Y-34546531D01*
X53083185Y-34547848D01*
X53099357Y-34548910D01*
X53121270Y-34549621D01*
X53147020Y-34549880D01*
X53174803Y-34549706D01*
X53195615Y-34549061D01*
X53208844Y-34547817D01*
X53215812Y-34545845D01*
X53217840Y-34543017D01*
X53217822Y-34542727D01*
X53215880Y-34535107D01*
X53211204Y-34519991D01*
X53204434Y-34499243D01*
X53196214Y-34474730D01*
X53187185Y-34448315D01*
X53177990Y-34421865D01*
X53169272Y-34397245D01*
X53161673Y-34376319D01*
X53155835Y-34360953D01*
X53152400Y-34353012D01*
X53149122Y-34348958D01*
X53144626Y-34351039D01*
X53143034Y-34354123D01*
X53137937Y-34366015D01*
X53130736Y-34384209D01*
X53122070Y-34406951D01*
X53112574Y-34432485D01*
X53102886Y-34459056D01*
X53093643Y-34484911D01*
X53085481Y-34508295D01*
X53079037Y-34527452D01*
X53074947Y-34540628D01*
X53073849Y-34546070D01*
X53001564Y-34546070D01*
X53013554Y-34516861D01*
X53031565Y-34472720D01*
X53048607Y-34430853D01*
X53067752Y-34383928D01*
X53083682Y-34345098D01*
X53096736Y-34313614D01*
X53107251Y-34288726D01*
X53115564Y-34269684D01*
X53122014Y-34255740D01*
X53126938Y-34246144D01*
X53130673Y-34240146D01*
X53133559Y-34236998D01*
X53135931Y-34235949D01*
X53138129Y-34236250D01*
X53138676Y-34236825D01*
X53142703Y-34244569D01*
X53149900Y-34260620D01*
X53159900Y-34284079D01*
X53172332Y-34314053D01*
X53186827Y-34349644D01*
X53203017Y-34389956D01*
X53220533Y-34434094D01*
X53239005Y-34481160D01*
X53258069Y-34529953D01*
X53263202Y-34543017D01*
X53277705Y-34579927D01*
G37*
G36*
X50668771Y-34242327D02*
G01*
X50670037Y-34256200D01*
X50671079Y-34279063D01*
X50671904Y-34311150D01*
X50672517Y-34352694D01*
X50672924Y-34403930D01*
X50673131Y-34465089D01*
X50673214Y-34494907D01*
X50673479Y-34541560D01*
X50673889Y-34585232D01*
X50674423Y-34624725D01*
X50675061Y-34658844D01*
X50675782Y-34686393D01*
X50676567Y-34706174D01*
X50677396Y-34716991D01*
X50679412Y-34728041D01*
X50686320Y-34745613D01*
X50697596Y-34755233D01*
X50714371Y-34758160D01*
X50724250Y-34759582D01*
X50728640Y-34763240D01*
X50728157Y-34763906D01*
X50720218Y-34765768D01*
X50703124Y-34767155D01*
X50677638Y-34768021D01*
X50644521Y-34768320D01*
X50624568Y-34768196D01*
X50596822Y-34767461D01*
X50577098Y-34766138D01*
X50565824Y-34764314D01*
X50563428Y-34762074D01*
X50570336Y-34759506D01*
X50586976Y-34756695D01*
X50591334Y-34755987D01*
X50605833Y-34751942D01*
X50615167Y-34746810D01*
X50617216Y-34744263D01*
X50620784Y-34736544D01*
X50623815Y-34724513D01*
X50626380Y-34707336D01*
X50628548Y-34684177D01*
X50630389Y-34654201D01*
X50631975Y-34616571D01*
X50633376Y-34570452D01*
X50634661Y-34515009D01*
X50638066Y-34350599D01*
X50588103Y-34403129D01*
X50545222Y-34448145D01*
X50485637Y-34510427D01*
X50432616Y-34565495D01*
X50386208Y-34613301D01*
X50346458Y-34653796D01*
X50313415Y-34686932D01*
X50287126Y-34712659D01*
X50267639Y-34730931D01*
X50266459Y-34731995D01*
X50247974Y-34748113D01*
X50231767Y-34761274D01*
X50219548Y-34770146D01*
X50213029Y-34773400D01*
X50212337Y-34773278D01*
X50210672Y-34771468D01*
X50209290Y-34766851D01*
X50208166Y-34758610D01*
X50207273Y-34745929D01*
X50206585Y-34727990D01*
X50206078Y-34703975D01*
X50205724Y-34673069D01*
X50205498Y-34634454D01*
X50205374Y-34587313D01*
X50205326Y-34530830D01*
X50205312Y-34493466D01*
X50205243Y-34440585D01*
X50205036Y-34396532D01*
X50204599Y-34360484D01*
X50203841Y-34331616D01*
X50202670Y-34309105D01*
X50200993Y-34292127D01*
X50198720Y-34279859D01*
X50195758Y-34271475D01*
X50192016Y-34266154D01*
X50187402Y-34263070D01*
X50181824Y-34261399D01*
X50175190Y-34260320D01*
X50173624Y-34260067D01*
X50161889Y-34256585D01*
X50156050Y-34252028D01*
X50156607Y-34250629D01*
X50163204Y-34248704D01*
X50177643Y-34247483D01*
X50200692Y-34246914D01*
X50233119Y-34246948D01*
X50240797Y-34247030D01*
X50270587Y-34247740D01*
X50293053Y-34248967D01*
X50307253Y-34250643D01*
X50312241Y-34252700D01*
X50308432Y-34256587D01*
X50298268Y-34259172D01*
X50292219Y-34259822D01*
X50273866Y-34263073D01*
X50262596Y-34268142D01*
X50255965Y-34275999D01*
X50255049Y-34280601D01*
X50253757Y-34294344D01*
X50252360Y-34315659D01*
X50250904Y-34343181D01*
X50249431Y-34375549D01*
X50247985Y-34411399D01*
X50246611Y-34449367D01*
X50245353Y-34488091D01*
X50244253Y-34526208D01*
X50243355Y-34562354D01*
X50242705Y-34595166D01*
X50242344Y-34623281D01*
X50242318Y-34645336D01*
X50242669Y-34659969D01*
X50243442Y-34665815D01*
X50244661Y-34665327D01*
X50251674Y-34659391D01*
X50263726Y-34647848D01*
X50279556Y-34631923D01*
X50297906Y-34612843D01*
X50317946Y-34591738D01*
X50344043Y-34564334D01*
X50373672Y-34533283D01*
X50405778Y-34499685D01*
X50439307Y-34464640D01*
X50473205Y-34429248D01*
X50506418Y-34394610D01*
X50537891Y-34361825D01*
X50566571Y-34331994D01*
X50591402Y-34306216D01*
X50611331Y-34285591D01*
X50625304Y-34271220D01*
X50636691Y-34260007D01*
X50650942Y-34247283D01*
X50661720Y-34239227D01*
X50667309Y-34237230D01*
X50668771Y-34242327D01*
G37*
G36*
X50964590Y-34154777D02*
G01*
X50993470Y-34155447D01*
X51013947Y-34156731D01*
X51025672Y-34158563D01*
X51028293Y-34160879D01*
X51021460Y-34163615D01*
X51004822Y-34166707D01*
X50995482Y-34168485D01*
X50976981Y-34176260D01*
X50965613Y-34189920D01*
X50959648Y-34211170D01*
X50959070Y-34218235D01*
X50958478Y-34235454D01*
X50958082Y-34260440D01*
X50957891Y-34291838D01*
X50957911Y-34328289D01*
X50958148Y-34368438D01*
X50958611Y-34410926D01*
X50958678Y-34415860D01*
X50959414Y-34464443D01*
X50960212Y-34504107D01*
X50961130Y-34535989D01*
X50962230Y-34561225D01*
X50963573Y-34580954D01*
X50965218Y-34596311D01*
X50967226Y-34608434D01*
X50969658Y-34618460D01*
X50978907Y-34645265D01*
X50998592Y-34681496D01*
X51024763Y-34710302D01*
X51057873Y-34732266D01*
X51075697Y-34739630D01*
X51110026Y-34747289D01*
X51146936Y-34749082D01*
X51182843Y-34744950D01*
X51214166Y-34734834D01*
X51235357Y-34721409D01*
X51257472Y-34701630D01*
X51276993Y-34678921D01*
X51290713Y-34656560D01*
X51293159Y-34651200D01*
X51298796Y-34637877D01*
X51303395Y-34624699D01*
X51307060Y-34610521D01*
X51309896Y-34594198D01*
X51312009Y-34574585D01*
X51313502Y-34550537D01*
X51314481Y-34520910D01*
X51315051Y-34484557D01*
X51315316Y-34440335D01*
X51315380Y-34387099D01*
X51315381Y-34365329D01*
X51315331Y-34316897D01*
X51315081Y-34277330D01*
X51314470Y-34245700D01*
X51313339Y-34221077D01*
X51311528Y-34202534D01*
X51308875Y-34189142D01*
X51305221Y-34179972D01*
X51300405Y-34174096D01*
X51294267Y-34170585D01*
X51286648Y-34168511D01*
X51277386Y-34166946D01*
X51266067Y-34164817D01*
X51258333Y-34162065D01*
X51260247Y-34159692D01*
X51271509Y-34157742D01*
X51291819Y-34156260D01*
X51320879Y-34155291D01*
X51358389Y-34154878D01*
X51391524Y-34155024D01*
X51421266Y-34155757D01*
X51442633Y-34157040D01*
X51455266Y-34158821D01*
X51458812Y-34161046D01*
X51452914Y-34163663D01*
X51437215Y-34166618D01*
X51431457Y-34167690D01*
X51414874Y-34172771D01*
X51402827Y-34179187D01*
X51400759Y-34180936D01*
X51398277Y-34183757D01*
X51396256Y-34187872D01*
X51394628Y-34194268D01*
X51393324Y-34203927D01*
X51392275Y-34217836D01*
X51391412Y-34236979D01*
X51390668Y-34262342D01*
X51389973Y-34294908D01*
X51389259Y-34335664D01*
X51388458Y-34385593D01*
X51387908Y-34418850D01*
X51386925Y-34468708D01*
X51385788Y-34510145D01*
X51384373Y-34544264D01*
X51382555Y-34572164D01*
X51380210Y-34594947D01*
X51377213Y-34613713D01*
X51373440Y-34629564D01*
X51368766Y-34643599D01*
X51363067Y-34656920D01*
X51356218Y-34670627D01*
X51346878Y-34686671D01*
X51319066Y-34720681D01*
X51284349Y-34747503D01*
X51243257Y-34766781D01*
X51196317Y-34778162D01*
X51188205Y-34779331D01*
X51166809Y-34781878D01*
X51149227Y-34782547D01*
X51130858Y-34781344D01*
X51107100Y-34778274D01*
X51099450Y-34777041D01*
X51058390Y-34765703D01*
X51019960Y-34747502D01*
X50986000Y-34723686D01*
X50958348Y-34695500D01*
X50938843Y-34664191D01*
X50934077Y-34653587D01*
X50927941Y-34638858D01*
X50922922Y-34624547D01*
X50918887Y-34609476D01*
X50915703Y-34592472D01*
X50913234Y-34572360D01*
X50911347Y-34547963D01*
X50909910Y-34518107D01*
X50908787Y-34481617D01*
X50907845Y-34437318D01*
X50906950Y-34384034D01*
X50906182Y-34336704D01*
X50905431Y-34295732D01*
X50904682Y-34262972D01*
X50903870Y-34237423D01*
X50902935Y-34218085D01*
X50901814Y-34203959D01*
X50900444Y-34194043D01*
X50898764Y-34187339D01*
X50896711Y-34182846D01*
X50894223Y-34179564D01*
X50885461Y-34172432D01*
X50875589Y-34168880D01*
X50865561Y-34167762D01*
X50854974Y-34163932D01*
X50850560Y-34158882D01*
X50854150Y-34157792D01*
X50866401Y-34156645D01*
X50885787Y-34155697D01*
X50910682Y-34155026D01*
X50939460Y-34154707D01*
X50964590Y-34154777D01*
G37*
G36*
X59256008Y-34556449D02*
G01*
X59272002Y-34597105D01*
X59286471Y-34633634D01*
X59298988Y-34664966D01*
X59309126Y-34690030D01*
X59316460Y-34707756D01*
X59320563Y-34717074D01*
X59320755Y-34717459D01*
X59336164Y-34739351D01*
X59355937Y-34753257D01*
X59378610Y-34758141D01*
X59379859Y-34758156D01*
X59390679Y-34759777D01*
X59395120Y-34763240D01*
X59394947Y-34763653D01*
X59388222Y-34765614D01*
X59372331Y-34767081D01*
X59348107Y-34768001D01*
X59316380Y-34768320D01*
X59309977Y-34768308D01*
X59279577Y-34767874D01*
X59256833Y-34766849D01*
X59242577Y-34765286D01*
X59237640Y-34763240D01*
X59239358Y-34760368D01*
X59247385Y-34758160D01*
X59261684Y-34756370D01*
X59270584Y-34749169D01*
X59273200Y-34735120D01*
X59273062Y-34733152D01*
X59270455Y-34720763D01*
X59265150Y-34701869D01*
X59257936Y-34678788D01*
X59249603Y-34653836D01*
X59240940Y-34629327D01*
X59232737Y-34607580D01*
X59225784Y-34590908D01*
X59220870Y-34581630D01*
X59218246Y-34579887D01*
X59208893Y-34577766D01*
X59192297Y-34576338D01*
X59167489Y-34575532D01*
X59133500Y-34575280D01*
X59111119Y-34575377D01*
X59082926Y-34575971D01*
X59063317Y-34577164D01*
X59051328Y-34579027D01*
X59045996Y-34581630D01*
X59043920Y-34585374D01*
X59038251Y-34597592D01*
X59030084Y-34616329D01*
X59020164Y-34639865D01*
X59009235Y-34666480D01*
X59002906Y-34682200D01*
X58992689Y-34708451D01*
X58985999Y-34727415D01*
X58982433Y-34740436D01*
X58981588Y-34748863D01*
X58983062Y-34754041D01*
X58986345Y-34759785D01*
X58988720Y-34765711D01*
X58987443Y-34766185D01*
X58978158Y-34767029D01*
X58961358Y-34767706D01*
X58938794Y-34768156D01*
X58912221Y-34768320D01*
X58910389Y-34768319D01*
X58878466Y-34767965D01*
X58855680Y-34766985D01*
X58842366Y-34765402D01*
X58838860Y-34763240D01*
X58844419Y-34759860D01*
X58855670Y-34758141D01*
X58856791Y-34758109D01*
X58870905Y-34754938D01*
X58885671Y-34748165D01*
X58890421Y-34745202D01*
X58895876Y-34741333D01*
X58901079Y-34736632D01*
X58906369Y-34730382D01*
X58912085Y-34721868D01*
X58918567Y-34710376D01*
X58926153Y-34695189D01*
X58935182Y-34675593D01*
X58945994Y-34650873D01*
X58958926Y-34620313D01*
X58974319Y-34583198D01*
X58990015Y-34544901D01*
X59059840Y-34544901D01*
X59060373Y-34545500D01*
X59067943Y-34547107D01*
X59082778Y-34548368D01*
X59102703Y-34549267D01*
X59125541Y-34549785D01*
X59149117Y-34549905D01*
X59171255Y-34549612D01*
X59189779Y-34548886D01*
X59202512Y-34547711D01*
X59207279Y-34546070D01*
X59205977Y-34540315D01*
X59201797Y-34526783D01*
X59195339Y-34507360D01*
X59187220Y-34483770D01*
X59178057Y-34457736D01*
X59168469Y-34430980D01*
X59159073Y-34405226D01*
X59150488Y-34382196D01*
X59143331Y-34363613D01*
X59138220Y-34351200D01*
X59135773Y-34346680D01*
X59133576Y-34350299D01*
X59128405Y-34361883D01*
X59120998Y-34379775D01*
X59112011Y-34402266D01*
X59102098Y-34427647D01*
X59091914Y-34454208D01*
X59082114Y-34480240D01*
X59073351Y-34504035D01*
X59066282Y-34523883D01*
X59061560Y-34538075D01*
X59059840Y-34544901D01*
X58990015Y-34544901D01*
X58992511Y-34538812D01*
X59013840Y-34486441D01*
X59038647Y-34425369D01*
X59043784Y-34412716D01*
X59062093Y-34367633D01*
X59077048Y-34330895D01*
X59089028Y-34301647D01*
X59098414Y-34279037D01*
X59105584Y-34262211D01*
X59110918Y-34250316D01*
X59114797Y-34242497D01*
X59117599Y-34237902D01*
X59119704Y-34235676D01*
X59121491Y-34234966D01*
X59123340Y-34234920D01*
X59124639Y-34234901D01*
X59126264Y-34235205D01*
X59128050Y-34236585D01*
X59130315Y-34239803D01*
X59133380Y-34245623D01*
X59137566Y-34254807D01*
X59143193Y-34268119D01*
X59150582Y-34286321D01*
X59160052Y-34310177D01*
X59171925Y-34340449D01*
X59186521Y-34377901D01*
X59204159Y-34423295D01*
X59225162Y-34477395D01*
X59238913Y-34512737D01*
X59251949Y-34546070D01*
X59256008Y-34556449D01*
G37*
G36*
X48473210Y-34441551D02*
G01*
X48473242Y-34496400D01*
X48473276Y-34517718D01*
X48473503Y-34563105D01*
X48473917Y-34605428D01*
X48474493Y-34643504D01*
X48475210Y-34676152D01*
X48476041Y-34702188D01*
X48476964Y-34720429D01*
X48477954Y-34729693D01*
X48483723Y-34746262D01*
X48492866Y-34755377D01*
X48507111Y-34758082D01*
X48514296Y-34759115D01*
X48521380Y-34763240D01*
X48521095Y-34764128D01*
X48513348Y-34765940D01*
X48495822Y-34767252D01*
X48468779Y-34768050D01*
X48432480Y-34768320D01*
X48405369Y-34768129D01*
X48377108Y-34767345D01*
X48357129Y-34766018D01*
X48345807Y-34764214D01*
X48343517Y-34762003D01*
X48350635Y-34759451D01*
X48367535Y-34756625D01*
X48372703Y-34755873D01*
X48384131Y-34753209D01*
X48392642Y-34748502D01*
X48398755Y-34740400D01*
X48402987Y-34727551D01*
X48405859Y-34708601D01*
X48407889Y-34682199D01*
X48409595Y-34646991D01*
X48410416Y-34625086D01*
X48411061Y-34598714D01*
X48411191Y-34577113D01*
X48410801Y-34562072D01*
X48409884Y-34555386D01*
X48408702Y-34554414D01*
X48398962Y-34551999D01*
X48381092Y-34550435D01*
X48356596Y-34549880D01*
X48306712Y-34549880D01*
X48277224Y-34589250D01*
X48274557Y-34592804D01*
X48248563Y-34626826D01*
X48223306Y-34658829D01*
X48199825Y-34687566D01*
X48179156Y-34711789D01*
X48162337Y-34730252D01*
X48150405Y-34741708D01*
X48139479Y-34749804D01*
X48122181Y-34758734D01*
X48101625Y-34764428D01*
X48075552Y-34767439D01*
X48041701Y-34768320D01*
X48024859Y-34768079D01*
X48005909Y-34766886D01*
X47995504Y-34764889D01*
X47994046Y-34762307D01*
X48001941Y-34759361D01*
X48019592Y-34756271D01*
X48029548Y-34754448D01*
X48044446Y-34749628D01*
X48059724Y-34741699D01*
X48076183Y-34729931D01*
X48094622Y-34713594D01*
X48115842Y-34691959D01*
X48140642Y-34664298D01*
X48169822Y-34629881D01*
X48204181Y-34587980D01*
X48213629Y-34576313D01*
X48227285Y-34559387D01*
X48238009Y-34546016D01*
X48244063Y-34538365D01*
X48245473Y-34536339D01*
X48246883Y-34531081D01*
X48244167Y-34524385D01*
X48236271Y-34514370D01*
X48222144Y-34499153D01*
X48201912Y-34475746D01*
X48181429Y-34443309D01*
X48169653Y-34410014D01*
X48168776Y-34401766D01*
X48229531Y-34401766D01*
X48231762Y-34434651D01*
X48239634Y-34465340D01*
X48252962Y-34491633D01*
X48271559Y-34511329D01*
X48277323Y-34515048D01*
X48288621Y-34519379D01*
X48304381Y-34521810D01*
X48327439Y-34522928D01*
X48348621Y-34522970D01*
X48377425Y-34520827D01*
X48397246Y-34515970D01*
X48407659Y-34508477D01*
X48408954Y-34502703D01*
X48410162Y-34488114D01*
X48411052Y-34466845D01*
X48411627Y-34440767D01*
X48411892Y-34411749D01*
X48411850Y-34381662D01*
X48411506Y-34352375D01*
X48410863Y-34325760D01*
X48409924Y-34303685D01*
X48408695Y-34288022D01*
X48407179Y-34280640D01*
X48404292Y-34277842D01*
X48395881Y-34274995D01*
X48380963Y-34273516D01*
X48357727Y-34273131D01*
X48352489Y-34273181D01*
X48319491Y-34275935D01*
X48293604Y-34283494D01*
X48272812Y-34296709D01*
X48255097Y-34316431D01*
X48242737Y-34338208D01*
X48233128Y-34368885D01*
X48229531Y-34401766D01*
X48168776Y-34401766D01*
X48165846Y-34374221D01*
X48166108Y-34358552D01*
X48168000Y-34342216D01*
X48172661Y-34328593D01*
X48181179Y-34313357D01*
X48188457Y-34302295D01*
X48201125Y-34286781D01*
X48215605Y-34274442D01*
X48233085Y-34264935D01*
X48254753Y-34257915D01*
X48281798Y-34253037D01*
X48315408Y-34249955D01*
X48356773Y-34248325D01*
X48407080Y-34247802D01*
X48411503Y-34247798D01*
X48451248Y-34247994D01*
X48483547Y-34248610D01*
X48507724Y-34249618D01*
X48523101Y-34250990D01*
X48529000Y-34252700D01*
X48528965Y-34254091D01*
X48522853Y-34257325D01*
X48510037Y-34259337D01*
X48508872Y-34259420D01*
X48500421Y-34260052D01*
X48493418Y-34261253D01*
X48487727Y-34263896D01*
X48483213Y-34268852D01*
X48479741Y-34276993D01*
X48477176Y-34289191D01*
X48475382Y-34306318D01*
X48474223Y-34329246D01*
X48473565Y-34358846D01*
X48473273Y-34395990D01*
X48473251Y-34411749D01*
X48473210Y-34441551D01*
G37*
G36*
X61445151Y-32652804D02*
G01*
X61478418Y-32653263D01*
X61504585Y-32654403D01*
X61526188Y-32656448D01*
X61545761Y-32659623D01*
X61565840Y-32664151D01*
X61579510Y-32667723D01*
X61645784Y-32690339D01*
X61704996Y-32720107D01*
X61757520Y-32757282D01*
X61803730Y-32802120D01*
X61843997Y-32854878D01*
X61870877Y-32900945D01*
X61899881Y-32967417D01*
X61922269Y-33041387D01*
X61938016Y-33122715D01*
X61947096Y-33211258D01*
X61949483Y-33306873D01*
X61945151Y-33409420D01*
X61938860Y-33482656D01*
X61926044Y-33590359D01*
X61908761Y-33699226D01*
X61886801Y-33810011D01*
X61859954Y-33923463D01*
X61828011Y-34040334D01*
X61790762Y-34161376D01*
X61747998Y-34287340D01*
X61699509Y-34418977D01*
X61645085Y-34557040D01*
X61584517Y-34702280D01*
X61505396Y-34881774D01*
X61412589Y-35079701D01*
X61313157Y-35279333D01*
X61206843Y-35481121D01*
X61093393Y-35685512D01*
X60972550Y-35892955D01*
X60844060Y-36103899D01*
X60707665Y-36318792D01*
X60563111Y-36538082D01*
X60410141Y-36762220D01*
X60285147Y-36940392D01*
X60110858Y-37181944D01*
X59935739Y-37416447D01*
X59758555Y-37645432D01*
X59578072Y-37870432D01*
X59393055Y-38092977D01*
X59202268Y-38314599D01*
X59004478Y-38536829D01*
X58798449Y-38761200D01*
X58781276Y-38779565D01*
X58720152Y-38844071D01*
X58653601Y-38913132D01*
X58582845Y-38985539D01*
X58509106Y-39060079D01*
X58433607Y-39135543D01*
X58357571Y-39210720D01*
X58282219Y-39284399D01*
X58208775Y-39355369D01*
X58138462Y-39422421D01*
X58072500Y-39484342D01*
X58012114Y-39539923D01*
X57921191Y-39621609D01*
X57799720Y-39727806D01*
X57676788Y-39832085D01*
X57553364Y-39933689D01*
X57430416Y-40031859D01*
X57308912Y-40125836D01*
X57189821Y-40214864D01*
X57074110Y-40298183D01*
X56962749Y-40375036D01*
X56856704Y-40444664D01*
X56840091Y-40455215D01*
X56729955Y-40522659D01*
X56620372Y-40585510D01*
X56511993Y-40643494D01*
X56405468Y-40696342D01*
X56301448Y-40743782D01*
X56200583Y-40785541D01*
X56103523Y-40821349D01*
X56010919Y-40850935D01*
X55923421Y-40874026D01*
X55841680Y-40890352D01*
X55766347Y-40899640D01*
X55748478Y-40900855D01*
X55674743Y-40901756D01*
X55602965Y-40896182D01*
X55534806Y-40884401D01*
X55471928Y-40866680D01*
X55415990Y-40843286D01*
X55375814Y-40820353D01*
X55324254Y-40781711D01*
X55279269Y-40736520D01*
X55241670Y-40685764D01*
X55212268Y-40630425D01*
X55191872Y-40571486D01*
X55186209Y-40548337D01*
X55183945Y-40533849D01*
X55185820Y-40527935D01*
X55192523Y-40530316D01*
X55204743Y-40540715D01*
X55223170Y-40558853D01*
X55230325Y-40565949D01*
X55277605Y-40607207D01*
X55326452Y-40639646D01*
X55378838Y-40664411D01*
X55436737Y-40682644D01*
X55456266Y-40686795D01*
X55501084Y-40692383D01*
X55551607Y-40694409D01*
X55605306Y-40692904D01*
X55659653Y-40687897D01*
X55712120Y-40679417D01*
X55719024Y-40678017D01*
X55805750Y-40658760D01*
X55892220Y-40636619D01*
X55975956Y-40612310D01*
X56054485Y-40586548D01*
X56125328Y-40560048D01*
X56157449Y-40546556D01*
X56198188Y-40528421D01*
X56243653Y-40507370D01*
X56291699Y-40484429D01*
X56340177Y-40460623D01*
X56386941Y-40436980D01*
X56429844Y-40414524D01*
X56457265Y-40399736D01*
X56557882Y-40343243D01*
X56659100Y-40282838D01*
X56761426Y-40218142D01*
X56865367Y-40148779D01*
X56971428Y-40074370D01*
X57080117Y-39994537D01*
X57191940Y-39908902D01*
X57307404Y-39817087D01*
X57427015Y-39718715D01*
X57551280Y-39613407D01*
X57680704Y-39500786D01*
X57815796Y-39380473D01*
X58027086Y-39186796D01*
X58315049Y-38911025D01*
X58595659Y-38628264D01*
X58868852Y-38338591D01*
X59134561Y-38042084D01*
X59392723Y-37738821D01*
X59643273Y-37428882D01*
X59886146Y-37112344D01*
X60121279Y-36789287D01*
X60348605Y-36459788D01*
X60568061Y-36123926D01*
X60779582Y-35781780D01*
X60848845Y-35665374D01*
X60934501Y-35517646D01*
X61013859Y-35376089D01*
X61087274Y-35239980D01*
X61155098Y-35108594D01*
X61217684Y-34981209D01*
X61275386Y-34857102D01*
X61328556Y-34735549D01*
X61377548Y-34615826D01*
X61422715Y-34497212D01*
X61464410Y-34378981D01*
X61471167Y-34358950D01*
X61479793Y-34333034D01*
X61488052Y-34307694D01*
X61496254Y-34281894D01*
X61504706Y-34254597D01*
X61513718Y-34224767D01*
X61523599Y-34191368D01*
X61534657Y-34153362D01*
X61547202Y-34109714D01*
X61561542Y-34059386D01*
X61577987Y-34001343D01*
X61596844Y-33934548D01*
X61621693Y-33845150D01*
X61647224Y-33749695D01*
X61669252Y-33662573D01*
X61687838Y-33583158D01*
X61703041Y-33510825D01*
X61714920Y-33444949D01*
X61723536Y-33384904D01*
X61728948Y-33330066D01*
X61731215Y-33279809D01*
X61730396Y-33233509D01*
X61726552Y-33190540D01*
X61719742Y-33150276D01*
X61710026Y-33112094D01*
X61697463Y-33075367D01*
X61682112Y-33039470D01*
X61670224Y-33015339D01*
X61645798Y-32973570D01*
X61618484Y-32937429D01*
X61586151Y-32903905D01*
X61565369Y-32885622D01*
X61527291Y-32857918D01*
X61486810Y-32836073D01*
X61442974Y-32819900D01*
X61394830Y-32809217D01*
X61341423Y-32803840D01*
X61281802Y-32803583D01*
X61215012Y-32808263D01*
X61140100Y-32817695D01*
X61135699Y-32818350D01*
X61089376Y-32825770D01*
X61044555Y-32834025D01*
X61000421Y-32843400D01*
X60956159Y-32854181D01*
X60910956Y-32866653D01*
X60863995Y-32881100D01*
X60814463Y-32897808D01*
X60761545Y-32917061D01*
X60704426Y-32939145D01*
X60642291Y-32964344D01*
X60574325Y-32992943D01*
X60499715Y-33025227D01*
X60417645Y-33061482D01*
X60327300Y-33101992D01*
X60321318Y-33104689D01*
X60281456Y-33122590D01*
X60244267Y-33139178D01*
X60210848Y-33153971D01*
X60182296Y-33166488D01*
X60159706Y-33176249D01*
X60144176Y-33182773D01*
X60136800Y-33185577D01*
X60124100Y-33188977D01*
X60136246Y-33178424D01*
X60140482Y-33175265D01*
X60153558Y-33166608D01*
X60173605Y-33153939D01*
X60199519Y-33137916D01*
X60230197Y-33119198D01*
X60264537Y-33098442D01*
X60301436Y-33076308D01*
X60339791Y-33053454D01*
X60378499Y-33030538D01*
X60416458Y-33008220D01*
X60452565Y-32987156D01*
X60485717Y-32968007D01*
X60514811Y-32951429D01*
X60538745Y-32938083D01*
X60598383Y-32906000D01*
X60707485Y-32850907D01*
X60812059Y-32803137D01*
X60913268Y-32762270D01*
X61012278Y-32727882D01*
X61110250Y-32699554D01*
X61208350Y-32676862D01*
X61307740Y-32659386D01*
X61315863Y-32658326D01*
X61340832Y-32656076D01*
X61371485Y-32654293D01*
X61404681Y-32653139D01*
X61437280Y-32652774D01*
X61445151Y-32652804D01*
G37*
G36*
X57822814Y-36828691D02*
G01*
X57801941Y-36863588D01*
X57778519Y-36900796D01*
X57751930Y-36941261D01*
X57721551Y-36985931D01*
X57706980Y-37006801D01*
X57686765Y-37035754D01*
X57646950Y-37091678D01*
X57601486Y-37154650D01*
X57582211Y-37181205D01*
X57552257Y-37222471D01*
X57517639Y-37270158D01*
X57479099Y-37323248D01*
X57437376Y-37380719D01*
X57393213Y-37441552D01*
X57347348Y-37504727D01*
X57300523Y-37569223D01*
X57253478Y-37634021D01*
X57206955Y-37698100D01*
X57161693Y-37760440D01*
X57148230Y-37778985D01*
X57143931Y-37784907D01*
X57100287Y-37845060D01*
X57051792Y-37911938D01*
X56999202Y-37984495D01*
X56943275Y-38061685D01*
X56934985Y-38073131D01*
X56920314Y-38093386D01*
X56884767Y-38142463D01*
X56824436Y-38225784D01*
X56763037Y-38310602D01*
X56701329Y-38395871D01*
X56640068Y-38480547D01*
X56580011Y-38563584D01*
X56521915Y-38643937D01*
X56494197Y-38682288D01*
X56466537Y-38720560D01*
X56465737Y-38721666D01*
X56413953Y-38793325D01*
X56361818Y-38865457D01*
X56309858Y-38937337D01*
X56258598Y-39008237D01*
X56226836Y-39052161D01*
X56217906Y-39064511D01*
X56208562Y-39077433D01*
X56160276Y-39144200D01*
X56114264Y-39207810D01*
X56071052Y-39267539D01*
X56031165Y-39322661D01*
X55995127Y-39372449D01*
X55963463Y-39416179D01*
X55936698Y-39453124D01*
X55915358Y-39482560D01*
X55912869Y-39485991D01*
X55883987Y-39525906D01*
X55867441Y-39548872D01*
X55856949Y-39563436D01*
X55832348Y-39597750D01*
X55810774Y-39628015D01*
X55792819Y-39653399D01*
X55779075Y-39673070D01*
X55770132Y-39686195D01*
X55766582Y-39691941D01*
X55765922Y-39695984D01*
X55766844Y-39708984D01*
X55767866Y-39713700D01*
X55770308Y-39724961D01*
X55770357Y-39725135D01*
X55780861Y-39762061D01*
X55797371Y-39820852D01*
X55811367Y-39871735D01*
X55822773Y-39914409D01*
X55831509Y-39948575D01*
X55837498Y-39973930D01*
X55840662Y-39990174D01*
X55840922Y-39997007D01*
X55839656Y-39999067D01*
X55830637Y-40012652D01*
X55817590Y-40031199D01*
X55801515Y-40053390D01*
X55783414Y-40077906D01*
X55764284Y-40103430D01*
X55745127Y-40128643D01*
X55726943Y-40152228D01*
X55710732Y-40172866D01*
X55697493Y-40189239D01*
X55688227Y-40200030D01*
X55683934Y-40203920D01*
X55680931Y-40203570D01*
X55668824Y-40201542D01*
X55649138Y-40197950D01*
X55623362Y-40193073D01*
X55592987Y-40187190D01*
X55559502Y-40180581D01*
X55539646Y-40176699D01*
X55507363Y-40170707D01*
X55478822Y-40165804D01*
X55455575Y-40162237D01*
X55439172Y-40160253D01*
X55431163Y-40160100D01*
X55426188Y-40162674D01*
X55415829Y-40172327D01*
X55405579Y-40185986D01*
X55387495Y-40209739D01*
X55357692Y-40236961D01*
X55328683Y-40254657D01*
X55323500Y-40257819D01*
X55313432Y-40262166D01*
X55296910Y-40267717D01*
X55284709Y-40269910D01*
X55284187Y-40269900D01*
X55271762Y-40266366D01*
X55253981Y-40257352D01*
X55232887Y-40244133D01*
X55210525Y-40227984D01*
X55188940Y-40210180D01*
X55180189Y-40202132D01*
X55174828Y-40195767D01*
X55201380Y-40195767D01*
X55201786Y-40198377D01*
X55207387Y-40204696D01*
X55216716Y-40213369D01*
X55228302Y-40223038D01*
X55240680Y-40232348D01*
X55252380Y-40239942D01*
X55263489Y-40246102D01*
X55275930Y-40252266D01*
X55282752Y-40254672D01*
X55282898Y-40254657D01*
X55280755Y-40251659D01*
X55272391Y-40244474D01*
X55259789Y-40234587D01*
X55244932Y-40223481D01*
X55229803Y-40212643D01*
X55216385Y-40203556D01*
X55206660Y-40197706D01*
X55201380Y-40195767D01*
X55174828Y-40195767D01*
X55171733Y-40192092D01*
X55168205Y-40182032D01*
X55167684Y-40168150D01*
X55170347Y-40144033D01*
X55179158Y-40110799D01*
X55184010Y-40099102D01*
X55354279Y-40099102D01*
X55358383Y-40106837D01*
X55360951Y-40107050D01*
X55365496Y-40104053D01*
X55372434Y-40097147D01*
X55382261Y-40085708D01*
X55395477Y-40069109D01*
X55412577Y-40046725D01*
X55434061Y-40017929D01*
X55460425Y-39982097D01*
X55492167Y-39938601D01*
X55512676Y-39910323D01*
X55548770Y-39859930D01*
X55578552Y-39817403D01*
X55602050Y-39782702D01*
X55619291Y-39755785D01*
X55630302Y-39736610D01*
X55635110Y-39725135D01*
X55633742Y-39721320D01*
X55633707Y-39721323D01*
X55630017Y-39725132D01*
X55621151Y-39736181D01*
X55607003Y-39754616D01*
X55587465Y-39780581D01*
X55562428Y-39814220D01*
X55531785Y-39855676D01*
X55495428Y-39905095D01*
X55453249Y-39962620D01*
X55442996Y-39976620D01*
X55420504Y-40007312D01*
X55400170Y-40035033D01*
X55382764Y-40058737D01*
X55369052Y-40077380D01*
X55359802Y-40089915D01*
X55355785Y-40095295D01*
X55354279Y-40099102D01*
X55184010Y-40099102D01*
X55192641Y-40078292D01*
X55209280Y-40050791D01*
X55218943Y-40036723D01*
X55226590Y-40022977D01*
X55229520Y-40013973D01*
X55228494Y-40010396D01*
X55223090Y-39998473D01*
X55213681Y-39980017D01*
X55200980Y-39956373D01*
X55185702Y-39928889D01*
X55168560Y-39898913D01*
X55157265Y-39879293D01*
X55141278Y-39851037D01*
X55127609Y-39826286D01*
X55116966Y-39806352D01*
X55110060Y-39792546D01*
X55107600Y-39786183D01*
X55107886Y-39785195D01*
X55112402Y-39777147D01*
X55121645Y-39762739D01*
X55134634Y-39743365D01*
X55150384Y-39720418D01*
X55155070Y-39713700D01*
X55635920Y-39713700D01*
X55638460Y-39716240D01*
X55641000Y-39713700D01*
X55638460Y-39711160D01*
X55635920Y-39713700D01*
X55155070Y-39713700D01*
X55167911Y-39695292D01*
X55186234Y-39669380D01*
X55204368Y-39644075D01*
X55221331Y-39620772D01*
X55236138Y-39600864D01*
X55247806Y-39585743D01*
X55255353Y-39576804D01*
X55256894Y-39575320D01*
X55261295Y-39572402D01*
X55267910Y-39570109D01*
X55278062Y-39568295D01*
X55293077Y-39566813D01*
X55314276Y-39565514D01*
X55342985Y-39564253D01*
X55380527Y-39562881D01*
X55416798Y-39561597D01*
X55457000Y-39560045D01*
X55489009Y-39558536D01*
X55513944Y-39556923D01*
X55532927Y-39555055D01*
X55547076Y-39552785D01*
X55557514Y-39549963D01*
X55565359Y-39546441D01*
X55571733Y-39542071D01*
X55577755Y-39536703D01*
X55577831Y-39536627D01*
X55578924Y-39535257D01*
X55738822Y-39535257D01*
X55739352Y-39543654D01*
X55748950Y-39553966D01*
X55758312Y-39560717D01*
X55768295Y-39563130D01*
X55777144Y-39557744D01*
X55778671Y-39556151D01*
X55782676Y-39548872D01*
X55779086Y-39542038D01*
X55767000Y-39533493D01*
X55763302Y-39531336D01*
X55751765Y-39526881D01*
X55744140Y-39529110D01*
X55738822Y-39535257D01*
X55578924Y-39535257D01*
X55582445Y-39530845D01*
X55592764Y-39517170D01*
X55596028Y-39512778D01*
X55753365Y-39512778D01*
X55767033Y-39522236D01*
X55767034Y-39522237D01*
X55778487Y-39529955D01*
X55786831Y-39535231D01*
X55790887Y-39533933D01*
X55800331Y-39524686D01*
X55814320Y-39507276D01*
X55832551Y-39482053D01*
X55832944Y-39481490D01*
X55845293Y-39464009D01*
X55862649Y-39439707D01*
X55884060Y-39409908D01*
X55908571Y-39375933D01*
X55935228Y-39339105D01*
X55963078Y-39300746D01*
X55991166Y-39262179D01*
X55997786Y-39253099D01*
X56024041Y-39216989D01*
X56048571Y-39183096D01*
X56070663Y-39152417D01*
X56089603Y-39125948D01*
X56104678Y-39104686D01*
X56115173Y-39089626D01*
X56120377Y-39081765D01*
X56130562Y-39064511D01*
X56115651Y-39052581D01*
X56113151Y-39050610D01*
X56103431Y-39043567D01*
X56098200Y-39040793D01*
X56098026Y-39040917D01*
X56093685Y-39046270D01*
X56084085Y-39058949D01*
X56069802Y-39078169D01*
X56051413Y-39103144D01*
X56029496Y-39133089D01*
X56004627Y-39167217D01*
X55977383Y-39204744D01*
X55948340Y-39244883D01*
X55947387Y-39246204D01*
X55917446Y-39287631D01*
X55888595Y-39327513D01*
X55861525Y-39364894D01*
X55836932Y-39398817D01*
X55815508Y-39428326D01*
X55797948Y-39452464D01*
X55784945Y-39470276D01*
X55777193Y-39480805D01*
X55753365Y-39512778D01*
X55596028Y-39512778D01*
X55608551Y-39495927D01*
X55629572Y-39467440D01*
X55655588Y-39432034D01*
X55686364Y-39390033D01*
X55721664Y-39341762D01*
X55761250Y-39287545D01*
X55804888Y-39227707D01*
X55852340Y-39162573D01*
X55903371Y-39092466D01*
X55950032Y-39028313D01*
X56106447Y-39028313D01*
X56110922Y-39034314D01*
X56123126Y-39042840D01*
X56127699Y-39045633D01*
X56144379Y-39053798D01*
X56155061Y-39055795D01*
X56158913Y-39052161D01*
X56155100Y-39043435D01*
X56142788Y-39030153D01*
X56137443Y-39025436D01*
X56125307Y-39017121D01*
X56116401Y-39016307D01*
X56108609Y-39022520D01*
X56108311Y-39022887D01*
X56106447Y-39028313D01*
X55950032Y-39028313D01*
X55957743Y-39017711D01*
X56015221Y-38938634D01*
X56075569Y-38855558D01*
X56138550Y-38768807D01*
X56203927Y-38678707D01*
X56218604Y-38658470D01*
X56372520Y-38658470D01*
X56375629Y-38667702D01*
X56383950Y-38678005D01*
X56387188Y-38680833D01*
X56400294Y-38691811D01*
X56408117Y-38696836D01*
X56412456Y-38696734D01*
X56415107Y-38692334D01*
X56416667Y-38688017D01*
X56418240Y-38682288D01*
X56416290Y-38680188D01*
X56407987Y-38673667D01*
X56395380Y-38664680D01*
X56386818Y-38658907D01*
X56377603Y-38653645D01*
X56373473Y-38653672D01*
X56372520Y-38658470D01*
X56218604Y-38658470D01*
X56231316Y-38640942D01*
X56387760Y-38640942D01*
X56387884Y-38641382D01*
X56392749Y-38646534D01*
X56402510Y-38654170D01*
X56417260Y-38664673D01*
X56468973Y-38590374D01*
X56474210Y-38582882D01*
X56490746Y-38559466D01*
X56511922Y-38529720D01*
X56536786Y-38494972D01*
X56564381Y-38456554D01*
X56593753Y-38415794D01*
X56623950Y-38374022D01*
X56654015Y-38332567D01*
X56672173Y-38307560D01*
X56699940Y-38269264D01*
X56726041Y-38233198D01*
X56749759Y-38200359D01*
X56770373Y-38171745D01*
X56787164Y-38148353D01*
X56799414Y-38131179D01*
X56806403Y-38121223D01*
X56825462Y-38093386D01*
X56811615Y-38082345D01*
X56797768Y-38071304D01*
X56770051Y-38109935D01*
X56763998Y-38118348D01*
X56751591Y-38135543D01*
X56734362Y-38159393D01*
X56712942Y-38189025D01*
X56687961Y-38223567D01*
X56660050Y-38262147D01*
X56629841Y-38303892D01*
X56597963Y-38347931D01*
X56565048Y-38393392D01*
X56534521Y-38435588D01*
X56504358Y-38477367D01*
X56476534Y-38515991D01*
X56451569Y-38550736D01*
X56429980Y-38580879D01*
X56412287Y-38605694D01*
X56399007Y-38624459D01*
X56390658Y-38636450D01*
X56387760Y-38640942D01*
X56231316Y-38640942D01*
X56271465Y-38585582D01*
X56340927Y-38489756D01*
X56412076Y-38391553D01*
X56484678Y-38291300D01*
X56549639Y-38201574D01*
X56622115Y-38101471D01*
X56652520Y-38059476D01*
X56796384Y-38059476D01*
X56802542Y-38068203D01*
X56809129Y-38073233D01*
X56821505Y-38081165D01*
X56828923Y-38082575D01*
X56832952Y-38077969D01*
X56833444Y-38073131D01*
X56828879Y-38062686D01*
X56819669Y-38053772D01*
X56808913Y-38050000D01*
X56799345Y-38052485D01*
X56796384Y-38059476D01*
X56652520Y-38059476D01*
X56693292Y-38003162D01*
X56762912Y-37907006D01*
X56772325Y-37894005D01*
X56937345Y-37894005D01*
X56939253Y-37899923D01*
X56947196Y-37906062D01*
X56958415Y-37905006D01*
X56970135Y-37896541D01*
X56976163Y-37889481D01*
X56990577Y-37870895D01*
X57006634Y-37848605D01*
X57021984Y-37825923D01*
X57034276Y-37806160D01*
X57040157Y-37794282D01*
X57043562Y-37778985D01*
X57039748Y-37769056D01*
X57028850Y-37765520D01*
X57023397Y-37768569D01*
X57013304Y-37778649D01*
X57000404Y-37794005D01*
X56986006Y-37812798D01*
X56971418Y-37833191D01*
X56957949Y-37853346D01*
X56946908Y-37871425D01*
X56939604Y-37885591D01*
X56937345Y-37894005D01*
X56772325Y-37894005D01*
X56830715Y-37813359D01*
X56883610Y-37740303D01*
X57049087Y-37740303D01*
X57052264Y-37752705D01*
X57057300Y-37761382D01*
X57062022Y-37765315D01*
X57065033Y-37761807D01*
X57073516Y-37750723D01*
X57086932Y-37732755D01*
X57104769Y-37708613D01*
X57126514Y-37679005D01*
X57151653Y-37644642D01*
X57179673Y-37606232D01*
X57210061Y-37564485D01*
X57242304Y-37520110D01*
X57275889Y-37473817D01*
X57310302Y-37426315D01*
X57345031Y-37378313D01*
X57379562Y-37330521D01*
X57413382Y-37283647D01*
X57445977Y-37238402D01*
X57476836Y-37195494D01*
X57505443Y-37155634D01*
X57531287Y-37119529D01*
X57553855Y-37087891D01*
X57572632Y-37061427D01*
X57587106Y-37040847D01*
X57596763Y-37026861D01*
X57601091Y-37020178D01*
X57603602Y-37015115D01*
X57605104Y-37006801D01*
X57600215Y-36999677D01*
X57594396Y-36995664D01*
X57585665Y-36994596D01*
X57584034Y-36996265D01*
X57576865Y-37005224D01*
X57564594Y-37021279D01*
X57547744Y-37043711D01*
X57526837Y-37071802D01*
X57502399Y-37104832D01*
X57474951Y-37142082D01*
X57445018Y-37182834D01*
X57413122Y-37226369D01*
X57379788Y-37271967D01*
X57345538Y-37318910D01*
X57310895Y-37366478D01*
X57276385Y-37413953D01*
X57242529Y-37460616D01*
X57209851Y-37505748D01*
X57178874Y-37548630D01*
X57150122Y-37588543D01*
X57124119Y-37624767D01*
X57101387Y-37656585D01*
X57082450Y-37683277D01*
X57067831Y-37704124D01*
X57058055Y-37718407D01*
X57053643Y-37725408D01*
X57052669Y-37727423D01*
X57049087Y-37740303D01*
X56883610Y-37740303D01*
X56896443Y-37722579D01*
X56959837Y-37635024D01*
X57020638Y-37551052D01*
X57078587Y-37471019D01*
X57133425Y-37395283D01*
X57184894Y-37324201D01*
X57232735Y-37258132D01*
X57276688Y-37197433D01*
X57316495Y-37142460D01*
X57351898Y-37093573D01*
X57382636Y-37051127D01*
X57408452Y-37015481D01*
X57429086Y-36986993D01*
X57435862Y-36977639D01*
X57598064Y-36977639D01*
X57604566Y-36986474D01*
X57610493Y-36990464D01*
X57615958Y-36992384D01*
X57621733Y-36991249D01*
X57628756Y-36986194D01*
X57637966Y-36976353D01*
X57650299Y-36960863D01*
X57666694Y-36938858D01*
X57688089Y-36909473D01*
X57693954Y-36901383D01*
X57713453Y-36874259D01*
X57727715Y-36853790D01*
X57737403Y-36838788D01*
X57743178Y-36828060D01*
X57745704Y-36820416D01*
X57745644Y-36814665D01*
X57743659Y-36809617D01*
X57742973Y-36808377D01*
X57737989Y-36802124D01*
X57732013Y-36800348D01*
X57724275Y-36803716D01*
X57714007Y-36812894D01*
X57700443Y-36828549D01*
X57682815Y-36851348D01*
X57660354Y-36881958D01*
X57657942Y-36885295D01*
X57639813Y-36910580D01*
X57623808Y-36933248D01*
X57610895Y-36951904D01*
X57602042Y-36965151D01*
X57598218Y-36971592D01*
X57598064Y-36977639D01*
X57435862Y-36977639D01*
X57444280Y-36966018D01*
X57453775Y-36952916D01*
X57483819Y-36911672D01*
X57524521Y-36856701D01*
X57561796Y-36807818D01*
X57596791Y-36763793D01*
X57630649Y-36723393D01*
X57664518Y-36685386D01*
X57699542Y-36648542D01*
X57736866Y-36611629D01*
X57777637Y-36573415D01*
X57822999Y-36532669D01*
X57874099Y-36488159D01*
X57932080Y-36438653D01*
X57934509Y-36436593D01*
X57965013Y-36410751D01*
X57988580Y-36390985D01*
X58005979Y-36376846D01*
X58017980Y-36367883D01*
X58025352Y-36363648D01*
X58028864Y-36363690D01*
X58029286Y-36367561D01*
X58027388Y-36374811D01*
X58023939Y-36384990D01*
X58019610Y-36397120D01*
X58007704Y-36428285D01*
X57992565Y-36465879D01*
X57974992Y-36508064D01*
X57955784Y-36552999D01*
X57935742Y-36598848D01*
X57915665Y-36643771D01*
X57896352Y-36685930D01*
X57878602Y-36723486D01*
X57863216Y-36754600D01*
X57859394Y-36762036D01*
X57841758Y-36795156D01*
X57827489Y-36820416D01*
X57822814Y-36828691D01*
G37*
G36*
X52000625Y-51437370D02*
G01*
X51994929Y-51673458D01*
X51832887Y-51718832D01*
X51814493Y-51723965D01*
X51731897Y-51746589D01*
X51660883Y-51765423D01*
X51615144Y-51776821D01*
X51559443Y-51789437D01*
X51559443Y-51557112D01*
X51559443Y-51324786D01*
X51716420Y-51282263D01*
X51727478Y-51279265D01*
X51811959Y-51256187D01*
X51887839Y-51235197D01*
X51939859Y-51220512D01*
X52006321Y-51201283D01*
X52000625Y-51437370D01*
G37*
G36*
X53143199Y-50899116D02*
G01*
X53152198Y-50936730D01*
X53157723Y-51012110D01*
X53159603Y-51123457D01*
X53159602Y-51351925D01*
X52951986Y-51407380D01*
X52885371Y-51424945D01*
X52808934Y-51444447D01*
X52753927Y-51457688D01*
X52729179Y-51462486D01*
X52723653Y-51446541D01*
X52718639Y-51397592D01*
X52715240Y-51323562D01*
X52713988Y-51232521D01*
X52713988Y-51002907D01*
X52915210Y-50948948D01*
X52975323Y-50933085D01*
X53053029Y-50913431D01*
X53110377Y-50899978D01*
X53138017Y-50894990D01*
X53143199Y-50899116D01*
G37*
G36*
X53279614Y-54141703D02*
G01*
X53399689Y-54160775D01*
X53510330Y-54204190D01*
X53591083Y-54271773D01*
X53644377Y-54365008D01*
X53648886Y-54386139D01*
X53654826Y-54450239D01*
X53659587Y-54550659D01*
X53663086Y-54684880D01*
X53665243Y-54850382D01*
X53665982Y-55044644D01*
X53665982Y-55667259D01*
X53614370Y-55770829D01*
X53547689Y-55874218D01*
X53442838Y-55982393D01*
X53318235Y-56070636D01*
X53184921Y-56129721D01*
X53139347Y-56143812D01*
X53139347Y-55136878D01*
X53139348Y-54129944D01*
X53279614Y-54141703D01*
G37*
G36*
X53645131Y-46298686D02*
G01*
X53653626Y-46314348D01*
X53659234Y-46352233D01*
X53662221Y-46416902D01*
X53662853Y-46512916D01*
X53661396Y-46644838D01*
X53655854Y-46992613D01*
X53412792Y-47059827D01*
X53405690Y-47061790D01*
X53312432Y-47087224D01*
X53234045Y-47108016D01*
X53178571Y-47122069D01*
X53154060Y-47127284D01*
X53150061Y-47114587D01*
X53146241Y-47067442D01*
X53143819Y-46991651D01*
X53142986Y-46893754D01*
X53143932Y-46780290D01*
X53149474Y-46433055D01*
X53382409Y-46365607D01*
X53473179Y-46339848D01*
X53553580Y-46318053D01*
X53612453Y-46303214D01*
X53641141Y-46297612D01*
X53645131Y-46298686D01*
G37*
G36*
X52952453Y-56951424D02*
G01*
X52946923Y-57321120D01*
X52268374Y-57510253D01*
X52134648Y-57547457D01*
X51985591Y-57588750D01*
X51852742Y-57625365D01*
X51740661Y-57656049D01*
X51653909Y-57679559D01*
X51597047Y-57694644D01*
X51574634Y-57700058D01*
X51569970Y-57682323D01*
X51565755Y-57630227D01*
X51562422Y-57550067D01*
X51560231Y-57448176D01*
X51559443Y-57330880D01*
X51559443Y-56961029D01*
X52212672Y-56783280D01*
X52318575Y-56754470D01*
X52469712Y-56713385D01*
X52606568Y-56676217D01*
X52724179Y-56644312D01*
X52817586Y-56619016D01*
X52881827Y-56601672D01*
X52911943Y-56593628D01*
X52957983Y-56581727D01*
X52952453Y-56951424D01*
G37*
G36*
X53643992Y-56405979D02*
G01*
X53652692Y-56422132D01*
X53658948Y-56462013D01*
X53663051Y-56529812D01*
X53665298Y-56629719D01*
X53665982Y-56765926D01*
X53665982Y-57127453D01*
X53438111Y-57192326D01*
X53353303Y-57216496D01*
X53270203Y-57240233D01*
X53207441Y-57258222D01*
X53174331Y-57267798D01*
X53162564Y-57269315D01*
X53153159Y-57262216D01*
X53146865Y-57240883D01*
X53143242Y-57200064D01*
X53141844Y-57134505D01*
X53142227Y-57038952D01*
X53143948Y-56908153D01*
X53149474Y-56537908D01*
X53382409Y-56471890D01*
X53472968Y-56446710D01*
X53553347Y-56425309D01*
X53612131Y-56410704D01*
X53640663Y-56405134D01*
X53643992Y-56405979D01*
G37*
G36*
X53649684Y-61904185D02*
G01*
X53654613Y-61953406D01*
X53658673Y-62042214D01*
X53661852Y-62170077D01*
X53664138Y-62336466D01*
X53665519Y-62540848D01*
X53665982Y-62782698D01*
X53665982Y-63671841D01*
X53412331Y-63835967D01*
X53368814Y-63864034D01*
X53284587Y-63917787D01*
X53215762Y-63960947D01*
X53168512Y-63989665D01*
X53149014Y-64000093D01*
X53148780Y-63999805D01*
X53146878Y-63975613D01*
X53145108Y-63915255D01*
X53143505Y-63822612D01*
X53142109Y-63701564D01*
X53140958Y-63555992D01*
X53140088Y-63389775D01*
X53139538Y-63206796D01*
X53139347Y-63010934D01*
X53139348Y-62021775D01*
X53382253Y-61957664D01*
X53387786Y-61956206D01*
X53481909Y-61931822D01*
X53561772Y-61911907D01*
X53619088Y-61898479D01*
X53645570Y-61893554D01*
X53649684Y-61904185D01*
G37*
G36*
X53654613Y-64135661D02*
G01*
X53658468Y-64184421D01*
X53661525Y-64264081D01*
X53663805Y-64369396D01*
X53665333Y-64495121D01*
X53666128Y-64636009D01*
X53666215Y-64786818D01*
X53665615Y-64942297D01*
X53664349Y-65097204D01*
X53662440Y-65246293D01*
X53659911Y-65384316D01*
X53656784Y-65506032D01*
X53653080Y-65606191D01*
X53648822Y-65679549D01*
X53644032Y-65720860D01*
X53620278Y-65792686D01*
X53561032Y-65899140D01*
X53479230Y-66004199D01*
X53383496Y-66098533D01*
X53282454Y-66172812D01*
X53184728Y-66217709D01*
X53138960Y-66231016D01*
X53144217Y-65243494D01*
X53149474Y-64255971D01*
X53392537Y-64189592D01*
X53399517Y-64187686D01*
X53492774Y-64162508D01*
X53571097Y-64141844D01*
X53626449Y-64127783D01*
X53650790Y-64122417D01*
X53654613Y-64135661D01*
G37*
G36*
X53638182Y-57438402D02*
G01*
X53645196Y-57445363D01*
X53650880Y-57461951D01*
X53655338Y-57491600D01*
X53658676Y-57537737D01*
X53661001Y-57603796D01*
X53662418Y-57693207D01*
X53663033Y-57809400D01*
X53662952Y-57955811D01*
X53662281Y-58135866D01*
X53661124Y-58352999D01*
X53655854Y-59268585D01*
X53412792Y-59425513D01*
X53379366Y-59447010D01*
X53295063Y-59500451D01*
X53225155Y-59543655D01*
X53176145Y-59572649D01*
X53154538Y-59583452D01*
X53153910Y-59582636D01*
X53150968Y-59555335D01*
X53148231Y-59492151D01*
X53145757Y-59396917D01*
X53143603Y-59273469D01*
X53141828Y-59125642D01*
X53140488Y-58957269D01*
X53139642Y-58772188D01*
X53139347Y-58574230D01*
X53139347Y-57563998D01*
X53369358Y-57500707D01*
X53456415Y-57477402D01*
X53538974Y-57456649D01*
X53600842Y-57442589D01*
X53632882Y-57437414D01*
X53638182Y-57438402D01*
G37*
G36*
X53636967Y-41863402D02*
G01*
X53644366Y-41869496D01*
X53650392Y-41884615D01*
X53655187Y-41912261D01*
X53658889Y-41955929D01*
X53661639Y-42019119D01*
X53663574Y-42105327D01*
X53664837Y-42218054D01*
X53665566Y-42360797D01*
X53665901Y-42537054D01*
X53665982Y-42750321D01*
X53665982Y-43639465D01*
X53412331Y-43803591D01*
X53368831Y-43831643D01*
X53284575Y-43885401D01*
X53215701Y-43928566D01*
X53168389Y-43957287D01*
X53148821Y-43967717D01*
X53148602Y-43967473D01*
X53146787Y-43943652D01*
X53145296Y-43883631D01*
X53144152Y-43791299D01*
X53143367Y-43670540D01*
X53142965Y-43525239D01*
X53142959Y-43359281D01*
X53143372Y-43176550D01*
X53144218Y-42980934D01*
X53149474Y-41994148D01*
X53372281Y-41929133D01*
X53452787Y-41906209D01*
X53535206Y-41884035D01*
X53597580Y-41868710D01*
X53630535Y-41862648D01*
X53636967Y-41863402D01*
G37*
G36*
X52942008Y-58217928D02*
G01*
X52948922Y-58236307D01*
X52952941Y-58273601D01*
X52954549Y-58335207D01*
X52954231Y-58426521D01*
X52952471Y-58552938D01*
X52946923Y-58901803D01*
X52511436Y-59020557D01*
X52495690Y-59024851D01*
X52347400Y-59065209D01*
X52194546Y-59106700D01*
X52048037Y-59146368D01*
X51918784Y-59181259D01*
X51817696Y-59208418D01*
X51559443Y-59277525D01*
X51559443Y-58924615D01*
X51559858Y-58826485D01*
X51561301Y-58724763D01*
X51563592Y-58644061D01*
X51566538Y-58590876D01*
X51569945Y-58571704D01*
X51586725Y-58567756D01*
X51637768Y-58554747D01*
X51717576Y-58534064D01*
X51820653Y-58507157D01*
X51941502Y-58475476D01*
X52074629Y-58440473D01*
X52214537Y-58403597D01*
X52355729Y-58366299D01*
X52492710Y-58330028D01*
X52619984Y-58296236D01*
X52732055Y-58266375D01*
X52823427Y-58241892D01*
X52888603Y-58224239D01*
X52922088Y-58214867D01*
X52931712Y-58213069D01*
X52942008Y-58217928D01*
G37*
G36*
X53177403Y-44413894D02*
G01*
X53222254Y-44421064D01*
X53296454Y-44435280D01*
X53392527Y-44455021D01*
X53503002Y-44478767D01*
X53620407Y-44504997D01*
X53628267Y-44506903D01*
X53642149Y-44513028D01*
X53652123Y-44526404D01*
X53658835Y-44552575D01*
X53662930Y-44597081D01*
X53665056Y-44665468D01*
X53665859Y-44763279D01*
X53665982Y-44896058D01*
X53665982Y-45276737D01*
X53414854Y-45493200D01*
X53355729Y-45543871D01*
X53277672Y-45609779D01*
X53214041Y-45662326D01*
X53170204Y-45697092D01*
X53151537Y-45709663D01*
X53149815Y-45703169D01*
X53146992Y-45662672D01*
X53144480Y-45589204D01*
X53142369Y-45487558D01*
X53140750Y-45362530D01*
X53139712Y-45218911D01*
X53139347Y-45061497D01*
X53139381Y-44976707D01*
X53139785Y-44812278D01*
X53140791Y-44682641D01*
X53142585Y-44583828D01*
X53145356Y-44511874D01*
X53149289Y-44462813D01*
X53154574Y-44432679D01*
X53161397Y-44417507D01*
X53169944Y-44413331D01*
X53177403Y-44413894D01*
G37*
G36*
X53648704Y-47562464D02*
G01*
X53656522Y-47578868D01*
X53661560Y-47613841D01*
X53664416Y-47672865D01*
X53665690Y-47761429D01*
X53665982Y-47885017D01*
X53666560Y-48010743D01*
X53665633Y-48103284D01*
X53659169Y-48168406D01*
X53643135Y-48212629D01*
X53613500Y-48242476D01*
X53566231Y-48264472D01*
X53497297Y-48285139D01*
X53402664Y-48311000D01*
X53352231Y-48325212D01*
X53271549Y-48348018D01*
X53208910Y-48365810D01*
X53174793Y-48375620D01*
X53166682Y-48377196D01*
X53155934Y-48372903D01*
X53148430Y-48355187D01*
X53143593Y-48318629D01*
X53140851Y-48257813D01*
X53139627Y-48167322D01*
X53139347Y-48041738D01*
X53139391Y-47988147D01*
X53140097Y-47875826D01*
X53142114Y-47796023D01*
X53146018Y-47742984D01*
X53152383Y-47710954D01*
X53161783Y-47694179D01*
X53174793Y-47686903D01*
X53190174Y-47682492D01*
X53241934Y-47668028D01*
X53316268Y-47647485D01*
X53402664Y-47623778D01*
X53452819Y-47610034D01*
X53533621Y-47587776D01*
X53596364Y-47570344D01*
X53630535Y-47560652D01*
X53637505Y-47559145D01*
X53648704Y-47562464D01*
G37*
G36*
X53658329Y-59735522D02*
G01*
X53660259Y-59758170D01*
X53661858Y-59817194D01*
X53662956Y-59907559D01*
X53663530Y-60024533D01*
X53663557Y-60163381D01*
X53663016Y-60319366D01*
X53661885Y-60487755D01*
X53661589Y-60523662D01*
X53659932Y-60716884D01*
X53657930Y-60874881D01*
X53654822Y-61002180D01*
X53649852Y-61103307D01*
X53642260Y-61182792D01*
X53631284Y-61245160D01*
X53616170Y-61294940D01*
X53596155Y-61336659D01*
X53570485Y-61374844D01*
X53538395Y-61414023D01*
X53499133Y-61458722D01*
X53444104Y-61513060D01*
X53370827Y-61571490D01*
X53294453Y-61621803D01*
X53225525Y-61657119D01*
X53174585Y-61670557D01*
X53166975Y-61669137D01*
X53159843Y-61661977D01*
X53154101Y-61645583D01*
X53149631Y-61616479D01*
X53146319Y-61571192D01*
X53144046Y-61506243D01*
X53142697Y-61418159D01*
X53142154Y-61303468D01*
X53142302Y-61158692D01*
X53143024Y-60980357D01*
X53144202Y-60764988D01*
X53149474Y-59859229D01*
X53399108Y-59784884D01*
X53429176Y-59776002D01*
X53531852Y-59747395D01*
X53601534Y-59731633D01*
X53642325Y-59727936D01*
X53658329Y-59735522D01*
G37*
G36*
X53650559Y-51836588D02*
G01*
X53657555Y-51875839D01*
X53662346Y-51947534D01*
X53665101Y-52054349D01*
X53665982Y-52198962D01*
X53665982Y-52571196D01*
X53497749Y-52613390D01*
X53449903Y-52625176D01*
X53362119Y-52646940D01*
X53305168Y-52665753D01*
X53278223Y-52687301D01*
X53280459Y-52717272D01*
X53311049Y-52761353D01*
X53369167Y-52825229D01*
X53453986Y-52914589D01*
X53666972Y-53140850D01*
X53661413Y-53481358D01*
X53655854Y-53821864D01*
X53433047Y-53886606D01*
X53352573Y-53909401D01*
X53270140Y-53931407D01*
X53207754Y-53946548D01*
X53174793Y-53952436D01*
X53171757Y-53952327D01*
X53164153Y-53948806D01*
X53157837Y-53937941D01*
X53152689Y-53916412D01*
X53148593Y-53880906D01*
X53145427Y-53828105D01*
X53143075Y-53754692D01*
X53141417Y-53657352D01*
X53140333Y-53532768D01*
X53139706Y-53377621D01*
X53139417Y-53188600D01*
X53139347Y-52962383D01*
X53139352Y-52891563D01*
X53139481Y-52676460D01*
X53139872Y-52497523D01*
X53140644Y-52351398D01*
X53141916Y-52234730D01*
X53143807Y-52144166D01*
X53146435Y-52076350D01*
X53149920Y-52027929D01*
X53154378Y-51995546D01*
X53159932Y-51975849D01*
X53166697Y-51965483D01*
X53174793Y-51961092D01*
X53194926Y-51955167D01*
X53249764Y-51938751D01*
X53326445Y-51915645D01*
X53415037Y-51888834D01*
X53479631Y-51869591D01*
X53557410Y-51847450D01*
X53614901Y-51832327D01*
X53642908Y-51826728D01*
X53650559Y-51836588D01*
G37*
G36*
X52107961Y-60152090D02*
G01*
X52114343Y-60177851D01*
X52119517Y-60240744D01*
X52123364Y-60337859D01*
X52125761Y-60466281D01*
X52126588Y-60623098D01*
X52126650Y-60788220D01*
X52128865Y-60930722D01*
X52136478Y-61038754D01*
X52152740Y-61115449D01*
X52180901Y-61163943D01*
X52224210Y-61187368D01*
X52285918Y-61188859D01*
X52369273Y-61171550D01*
X52477526Y-61138575D01*
X52613927Y-61093069D01*
X52703683Y-61063102D01*
X52801107Y-61030776D01*
X52879151Y-61005106D01*
X52931477Y-60988177D01*
X52951743Y-60982071D01*
X52951807Y-60982091D01*
X52953448Y-61002476D01*
X52954342Y-61056906D01*
X52954479Y-61139120D01*
X52953847Y-61242857D01*
X52952433Y-61361855D01*
X52946923Y-61741640D01*
X52622840Y-61831027D01*
X52535848Y-61854683D01*
X52424398Y-61883057D01*
X52334825Y-61902222D01*
X52256872Y-61913950D01*
X52180282Y-61920011D01*
X52094799Y-61922175D01*
X52091340Y-61922205D01*
X51997411Y-61922148D01*
X51932794Y-61918740D01*
X51886641Y-61909947D01*
X51848104Y-61893732D01*
X51806336Y-61868062D01*
X51728419Y-61803679D01*
X51647077Y-61691610D01*
X51591945Y-61549216D01*
X51588305Y-61534363D01*
X51579420Y-61482668D01*
X51572533Y-61413365D01*
X51567435Y-61321873D01*
X51563915Y-61203618D01*
X51561766Y-61054021D01*
X51560776Y-60868501D01*
X51559443Y-60299190D01*
X51823303Y-60225398D01*
X51847786Y-60218576D01*
X51943669Y-60192326D01*
X52024018Y-60171060D01*
X52081024Y-60156810D01*
X52106875Y-60151609D01*
X52107961Y-60152090D01*
G37*
G36*
X52957050Y-54528545D02*
G01*
X52957050Y-54878577D01*
X52587393Y-54986465D01*
X52526618Y-55004293D01*
X52383395Y-55047393D01*
X52273527Y-55082586D01*
X52192699Y-55111492D01*
X52136599Y-55135738D01*
X52100912Y-55156940D01*
X52081324Y-55176723D01*
X52081236Y-55176860D01*
X52075464Y-55205418D01*
X52070693Y-55265617D01*
X52067418Y-55348717D01*
X52066132Y-55445977D01*
X52066141Y-55489321D01*
X52067136Y-55580521D01*
X52070323Y-55640721D01*
X52076683Y-55676837D01*
X52087202Y-55695788D01*
X52102861Y-55704494D01*
X52105504Y-55704974D01*
X52141750Y-55701369D01*
X52209176Y-55688031D01*
X52301257Y-55666472D01*
X52411467Y-55638204D01*
X52533283Y-55604740D01*
X52558036Y-55597731D01*
X52676079Y-55564542D01*
X52779586Y-55535814D01*
X52862455Y-55513214D01*
X52918580Y-55498411D01*
X52941859Y-55493073D01*
X52946105Y-55507176D01*
X52950475Y-55555805D01*
X52953942Y-55632910D01*
X52956227Y-55732003D01*
X52957050Y-55846601D01*
X52957050Y-56200286D01*
X52870967Y-56222669D01*
X52870236Y-56222859D01*
X52816501Y-56237045D01*
X52734856Y-56258841D01*
X52636264Y-56285311D01*
X52531691Y-56313520D01*
X52427140Y-56340314D01*
X52318740Y-56365361D01*
X52223713Y-56384675D01*
X52154826Y-56395480D01*
X52102894Y-56399297D01*
X51957241Y-56387161D01*
X51831468Y-56340066D01*
X51727059Y-56259051D01*
X51645500Y-56145153D01*
X51588275Y-55999411D01*
X51580924Y-55963775D01*
X51571209Y-55877662D01*
X51564609Y-55766052D01*
X51561112Y-55638241D01*
X51560703Y-55503528D01*
X51563366Y-55371210D01*
X51569088Y-55250584D01*
X51577856Y-55150949D01*
X51589657Y-55081600D01*
X51633974Y-54947571D01*
X51720514Y-54785761D01*
X51841510Y-54640462D01*
X51869663Y-54612982D01*
X51923709Y-54565044D01*
X51981002Y-54522354D01*
X52046037Y-54482994D01*
X52123315Y-54445036D01*
X52217330Y-54406561D01*
X52332580Y-54365646D01*
X52473562Y-54320367D01*
X52644773Y-54268804D01*
X52850710Y-54209032D01*
X52957050Y-54178513D01*
X52957050Y-54528545D01*
G37*
G36*
X52503778Y-64394996D02*
G01*
X52610641Y-64423590D01*
X52703018Y-64475510D01*
X52790147Y-64553863D01*
X52791269Y-64555050D01*
X52829611Y-64596476D01*
X52861077Y-64634802D01*
X52886344Y-64674385D01*
X52906094Y-64719590D01*
X52921004Y-64774776D01*
X52931757Y-64844306D01*
X52939029Y-64932540D01*
X52943502Y-65043839D01*
X52945855Y-65182565D01*
X52946769Y-65353079D01*
X52946923Y-65559742D01*
X52946923Y-66278802D01*
X52810852Y-66275717D01*
X52803767Y-66275527D01*
X52666653Y-66257448D01*
X52559643Y-66212548D01*
X52482361Y-66140670D01*
X52468498Y-66118992D01*
X52457363Y-66091780D01*
X52449042Y-66054067D01*
X52442861Y-65999852D01*
X52438145Y-65923133D01*
X52434221Y-65817909D01*
X52430415Y-65678180D01*
X52430245Y-65671322D01*
X52426509Y-65534117D01*
X52422732Y-65431596D01*
X52418275Y-65358186D01*
X52412507Y-65308307D01*
X52404789Y-65276385D01*
X52394490Y-65256843D01*
X52380970Y-65244103D01*
X52317317Y-65218610D01*
X52246555Y-65222616D01*
X52187353Y-65255915D01*
X52186976Y-65256293D01*
X52175502Y-65269598D01*
X52166449Y-65286876D01*
X52159531Y-65312695D01*
X52154462Y-65351621D01*
X52150956Y-65408222D01*
X52148728Y-65487065D01*
X52147490Y-65592717D01*
X52146957Y-65729745D01*
X52146843Y-65902716D01*
X52146773Y-66030561D01*
X52146320Y-66177422D01*
X52145228Y-66291164D01*
X52143249Y-66376095D01*
X52140137Y-66436520D01*
X52135643Y-66476751D01*
X52129521Y-66501092D01*
X52121520Y-66513851D01*
X52111397Y-66519336D01*
X52085019Y-66526907D01*
X52026014Y-66543714D01*
X51945575Y-66566559D01*
X51853144Y-66592757D01*
X51773339Y-66615374D01*
X51690455Y-66638910D01*
X51627604Y-66656809D01*
X51594261Y-66666377D01*
X51587530Y-66667447D01*
X51579997Y-66663877D01*
X51573945Y-66651396D01*
X51569250Y-66626493D01*
X51565786Y-66585656D01*
X51563427Y-66525375D01*
X51562050Y-66442139D01*
X51561532Y-66332438D01*
X51561747Y-66192760D01*
X51562569Y-66019596D01*
X51563878Y-65809433D01*
X51569570Y-64941959D01*
X51623876Y-64826093D01*
X51708531Y-64688898D01*
X51825389Y-64570086D01*
X51966620Y-64478047D01*
X52126595Y-64416421D01*
X52299688Y-64388849D01*
X52373193Y-64386619D01*
X52503778Y-64394996D01*
G37*
G36*
X52936014Y-62099035D02*
G01*
X52941620Y-62119028D01*
X52946210Y-62159166D01*
X52949867Y-62222360D01*
X52952673Y-62311518D01*
X52954712Y-62429549D01*
X52956066Y-62579363D01*
X52956818Y-62763866D01*
X52957050Y-62985969D01*
X52957015Y-63133907D01*
X52956765Y-63322243D01*
X52956157Y-63476000D01*
X52955048Y-63598723D01*
X52953301Y-63693960D01*
X52950778Y-63765256D01*
X52947336Y-63816157D01*
X52942838Y-63850209D01*
X52937142Y-63870957D01*
X52930111Y-63881949D01*
X52921604Y-63886728D01*
X52901390Y-63892646D01*
X52842104Y-63909184D01*
X52755415Y-63932855D01*
X52646867Y-63962186D01*
X52522005Y-63995707D01*
X52386370Y-64031946D01*
X52245507Y-64069432D01*
X52104960Y-64106694D01*
X51970272Y-64142260D01*
X51846984Y-64174659D01*
X51740643Y-64202419D01*
X51656790Y-64224070D01*
X51600971Y-64238140D01*
X51578727Y-64243156D01*
X51578245Y-64242968D01*
X51573540Y-64219292D01*
X51569430Y-64157503D01*
X51565961Y-64059784D01*
X51563180Y-63928321D01*
X51561135Y-63765295D01*
X51559874Y-63572891D01*
X51559443Y-63353292D01*
X51559478Y-63204713D01*
X51559728Y-63016503D01*
X51560337Y-62862866D01*
X51561445Y-62740255D01*
X51563191Y-62645128D01*
X51565716Y-62573941D01*
X51569157Y-62523151D01*
X51573656Y-62489213D01*
X51579351Y-62468583D01*
X51586382Y-62457720D01*
X51594889Y-62453076D01*
X51613561Y-62447875D01*
X51667783Y-62433253D01*
X51744284Y-62412905D01*
X51832887Y-62389545D01*
X51892405Y-62373886D01*
X51974130Y-62352271D01*
X52037015Y-62335499D01*
X52070886Y-62326276D01*
X52081119Y-62325259D01*
X52089865Y-62332096D01*
X52096325Y-62351740D01*
X52100842Y-62388809D01*
X52103758Y-62447921D01*
X52105417Y-62533689D01*
X52106161Y-62650735D01*
X52106332Y-62803673D01*
X52106632Y-62899986D01*
X52108016Y-63026045D01*
X52110370Y-63133688D01*
X52113519Y-63217392D01*
X52117296Y-63271632D01*
X52121524Y-63290887D01*
X52142454Y-63286601D01*
X52192343Y-63273329D01*
X52258246Y-63254245D01*
X52379777Y-63217878D01*
X52385183Y-62722626D01*
X52390591Y-62227374D01*
X52648502Y-62161100D01*
X52665756Y-62156682D01*
X52762301Y-62132562D01*
X52844280Y-62113051D01*
X52903492Y-62100053D01*
X52931730Y-62095466D01*
X52936014Y-62099035D01*
G37*
G36*
X52932984Y-52017853D02*
G01*
X52939132Y-52027792D01*
X52944137Y-52048837D01*
X52948116Y-52084257D01*
X52951187Y-52137317D01*
X52953464Y-52211286D01*
X52955066Y-52309429D01*
X52956109Y-52435015D01*
X52956710Y-52591310D01*
X52956985Y-52781582D01*
X52957050Y-53009096D01*
X52957040Y-53042520D01*
X52956585Y-53238413D01*
X52955498Y-53421164D01*
X52953846Y-53586863D01*
X52951698Y-53731601D01*
X52949122Y-53851468D01*
X52946184Y-53942555D01*
X52942951Y-54000951D01*
X52939495Y-54022747D01*
X52938276Y-54023305D01*
X52909669Y-54032377D01*
X52848402Y-54050248D01*
X52759985Y-54075400D01*
X52649931Y-54106319D01*
X52523747Y-54141489D01*
X52386945Y-54179392D01*
X52245033Y-54218514D01*
X52103523Y-54257339D01*
X51967924Y-54294349D01*
X51843747Y-54328030D01*
X51736501Y-54356865D01*
X51651697Y-54379338D01*
X51594845Y-54393934D01*
X51571455Y-54399136D01*
X51568142Y-54385975D01*
X51565128Y-54338327D01*
X51563347Y-54262094D01*
X51562933Y-54163803D01*
X51564028Y-54049984D01*
X51569570Y-53700832D01*
X52182282Y-53528413D01*
X52260384Y-53506351D01*
X52404268Y-53465240D01*
X52532399Y-53428023D01*
X52640120Y-53396087D01*
X52722775Y-53370824D01*
X52775709Y-53353621D01*
X52794265Y-53345867D01*
X52792318Y-53342516D01*
X52769933Y-53315499D01*
X52726491Y-53266676D01*
X52666979Y-53201594D01*
X52596383Y-53125795D01*
X52399231Y-52915850D01*
X51989605Y-53029582D01*
X51950642Y-53040388D01*
X51831773Y-53073186D01*
X51728353Y-53101473D01*
X51646275Y-53123655D01*
X51591430Y-53138134D01*
X51569712Y-53143315D01*
X51569496Y-53143231D01*
X51566318Y-53121609D01*
X51563560Y-53066101D01*
X51561383Y-52982926D01*
X51559955Y-52878308D01*
X51559443Y-52758467D01*
X51559445Y-52750382D01*
X51560060Y-52631336D01*
X51561638Y-52527916D01*
X51564002Y-52446342D01*
X51566975Y-52392836D01*
X51570383Y-52373617D01*
X51582593Y-52370777D01*
X51629112Y-52358927D01*
X51705166Y-52339194D01*
X51805267Y-52313028D01*
X51923927Y-52281880D01*
X52055659Y-52247197D01*
X52194976Y-52210431D01*
X52336390Y-52173032D01*
X52474413Y-52136451D01*
X52603558Y-52102137D01*
X52718337Y-52071540D01*
X52813262Y-52046111D01*
X52882847Y-52027299D01*
X52921604Y-52016555D01*
X52925577Y-52015755D01*
X52932984Y-52017853D01*
G37*
G36*
X52942365Y-42053249D02*
G01*
X52945786Y-42098855D01*
X52948898Y-42178004D01*
X52951622Y-42286607D01*
X52953878Y-42420574D01*
X52955587Y-42575813D01*
X52956671Y-42748236D01*
X52957050Y-42933751D01*
X52957050Y-43824027D01*
X52881093Y-43845408D01*
X52865742Y-43849709D01*
X52808120Y-43865764D01*
X52721411Y-43889865D01*
X52612341Y-43920142D01*
X52487635Y-43954728D01*
X52354018Y-43991757D01*
X52276179Y-44013600D01*
X52157624Y-44048057D01*
X52057376Y-44078686D01*
X51980641Y-44103822D01*
X51932624Y-44121802D01*
X51918532Y-44130959D01*
X51934025Y-44136636D01*
X51984862Y-44150176D01*
X52065455Y-44169621D01*
X52170266Y-44193680D01*
X52293764Y-44221059D01*
X52430415Y-44250467D01*
X52539477Y-44273887D01*
X52666154Y-44301856D01*
X52775288Y-44326812D01*
X52861347Y-44347456D01*
X52918799Y-44362489D01*
X52942111Y-44370612D01*
X52942279Y-44370816D01*
X52945624Y-44395549D01*
X52948430Y-44455996D01*
X52950635Y-44547580D01*
X52952180Y-44665718D01*
X52953003Y-44805830D01*
X52953043Y-44963337D01*
X52952240Y-45133656D01*
X52946923Y-45881832D01*
X52366309Y-46337573D01*
X52364325Y-46339131D01*
X52232104Y-46443090D01*
X52110721Y-46538851D01*
X52003686Y-46623622D01*
X51914512Y-46694610D01*
X51846708Y-46749017D01*
X51803785Y-46784049D01*
X51789257Y-46796911D01*
X51791460Y-46796673D01*
X51822378Y-46789215D01*
X51885945Y-46772572D01*
X51977319Y-46748049D01*
X52091659Y-46716954D01*
X52224123Y-46680592D01*
X52369870Y-46640270D01*
X52416435Y-46627343D01*
X52558739Y-46587890D01*
X52686345Y-46552587D01*
X52794385Y-46522775D01*
X52877998Y-46499795D01*
X52932312Y-46484988D01*
X52952465Y-46479696D01*
X52953763Y-46492827D01*
X52954616Y-46540438D01*
X52954684Y-46616643D01*
X52953967Y-46714924D01*
X52952465Y-46828763D01*
X52946923Y-47178164D01*
X52582329Y-47282389D01*
X52473130Y-47313522D01*
X52357607Y-47346276D01*
X52256805Y-47374667D01*
X52178795Y-47396425D01*
X52131651Y-47409275D01*
X52045567Y-47431937D01*
X52045567Y-47693597D01*
X52045732Y-47765466D01*
X52047093Y-47851432D01*
X52050624Y-47907857D01*
X52057262Y-47941487D01*
X52067945Y-47959064D01*
X52083610Y-47967333D01*
X52086714Y-47967866D01*
X52123984Y-47964143D01*
X52192319Y-47950743D01*
X52285208Y-47929159D01*
X52396139Y-47900886D01*
X52518599Y-47867423D01*
X52545401Y-47859873D01*
X52664375Y-47826698D01*
X52769137Y-47798009D01*
X52853502Y-47775463D01*
X52911284Y-47760719D01*
X52936298Y-47755436D01*
X52938183Y-47756264D01*
X52946252Y-47784121D01*
X52952168Y-47850052D01*
X52955809Y-47952077D01*
X52957050Y-48088210D01*
X52957050Y-48420983D01*
X52850710Y-48451653D01*
X52645766Y-48510277D01*
X52472867Y-48558534D01*
X52331635Y-48596351D01*
X52218550Y-48624558D01*
X52130089Y-48643988D01*
X52062729Y-48655473D01*
X52012949Y-48659844D01*
X51977227Y-48657933D01*
X51943023Y-48651107D01*
X51822894Y-48602284D01*
X51721715Y-48519523D01*
X51642219Y-48405589D01*
X51587139Y-48263247D01*
X51585866Y-48258045D01*
X51579880Y-48217650D01*
X51574815Y-48152812D01*
X51570619Y-48061233D01*
X51567238Y-47940619D01*
X51564619Y-47788676D01*
X51562711Y-47603109D01*
X51561458Y-47381625D01*
X51560809Y-47121929D01*
X51559443Y-46073190D01*
X51964309Y-45774959D01*
X52369175Y-45476728D01*
X52364349Y-45255046D01*
X52359522Y-45033363D01*
X51959482Y-44933600D01*
X51559443Y-44833839D01*
X51559443Y-44120260D01*
X51559443Y-43406682D01*
X51969610Y-43295233D01*
X52379777Y-43183785D01*
X52385200Y-42695410D01*
X52390622Y-42207033D01*
X52597879Y-42144387D01*
X52660801Y-42125305D01*
X52748548Y-42098501D01*
X52819981Y-42076449D01*
X52863861Y-42062606D01*
X52909731Y-42049262D01*
X52939818Y-42043475D01*
X52942365Y-42053249D01*
G37*
%LPC*%
D14*
X78740000Y-85090000D03*
D15*
X63500000Y-54610000D03*
X68500000Y-54610000D03*
X63500000Y-51110000D03*
X68499999Y-51109999D03*
X63500000Y-47609998D03*
X68500000Y-47609998D03*
X63500000Y-44109997D03*
X68500000Y-44109997D03*
X63500000Y-40609997D03*
X68500000Y-40609997D03*
X63500000Y-37109997D03*
X68500000Y-37109997D03*
X63500000Y-33609996D03*
X68500000Y-33609996D03*
X63500000Y-30109995D03*
X68500000Y-30109995D03*
X64195000Y-73580000D03*
X64195000Y-78580000D03*
X67695000Y-73580000D03*
X67695000Y-78580000D03*
X71195001Y-73580000D03*
X71195001Y-78580000D03*
D14*
X29210000Y-85090000D03*
D15*
X36350000Y-73580000D03*
X36350000Y-78580000D03*
X39850000Y-73580000D03*
X39850000Y-78580000D03*
X43350001Y-73580000D03*
X43350001Y-78580000D03*
X44450000Y-61270000D03*
X39450000Y-61270000D03*
X44450000Y-64770000D03*
X39450000Y-64770000D03*
X63500000Y-64770000D03*
X68500000Y-64770000D03*
X63500000Y-61270000D03*
X68500000Y-61270000D03*
X50190000Y-73580000D03*
X50190000Y-78580000D03*
X53690000Y-73580000D03*
X53690000Y-78580000D03*
X57190001Y-73580000D03*
X57190001Y-78580000D03*
D14*
X53975000Y-29210000D03*
D15*
X44450000Y-30109995D03*
X39450000Y-30109995D03*
X44450000Y-33609995D03*
X39450001Y-33609996D03*
X44450000Y-37109997D03*
X39450000Y-37109997D03*
X44450000Y-40609998D03*
X39450000Y-40609998D03*
X44450000Y-44109998D03*
X39450000Y-44109998D03*
X44450000Y-47609998D03*
X39450000Y-47609998D03*
X44450000Y-51109999D03*
X39450000Y-51109999D03*
X44450000Y-54610000D03*
X39450000Y-54610000D03*
%LPD*%
M02*
