M48
; DRILL file {KiCad 7.0.7} date Mon Oct 16 22:20:12 2023
; FORMAT={-:-/ absolute / metric / decimal}
; #@! TF.CreationDate,2023-10-16T22:20:12-07:00
; #@! TF.GenerationSoftware,Kicad,Pcbnew,7.0.7
; #@! TF.FileFunction,Plated,1,4,PTH
FMAT,2
METRIC
; #@! TA.AperFunction,Plated,PTH,ViaDrill
T1C0.300
; #@! TA.AperFunction,Plated,PTH,ComponentDrill
T2C1.000
; #@! TA.AperFunction,Plated,PTH,ComponentDrill
T3C1.100
; #@! TA.AperFunction,Plated,PTH,ComponentDrill
T4C2.200
%
G90
G05
T1
X26.308Y-45.239
X26.35Y-44.34
X26.41Y-42.98
X26.45Y-47.58
X26.49Y-46.39
X27.102Y-31.43
X27.15Y-32.46
X27.97Y-34.636
X28.844Y-52.375
X28.905Y-47.295
X29.05Y-51.02
X29.24Y-33.19
X29.245Y-46.293
X29.896Y-42.266
X30.24Y-38.13
X30.624Y-47.189
X30.7Y-49.987
X30.75Y-43.69
X30.998Y-38.855
X31.7Y-34.709
X31.705Y-33.093
X32.11Y-32.29
X32.29Y-38.863
X32.418Y-41.406
X32.537Y-49.86
X32.74Y-47.355
X32.97Y-52.69
X33.145Y-39.04
X33.198Y-50.648
X33.579Y-43.713
X34.214Y-38.837
X34.671Y-47.188
X34.8Y-42.152
X34.87Y-45.917
X35.0Y-34.11
X35.255Y-39.446
X36.17Y-35.58
X36.601Y-50.19
X37.266Y-47.069
X37.34Y-33.67
X37.49Y-50.19
X38.379Y-46.99
X38.475Y-34.36
X38.805Y-35.071
X39.04Y-38.857
X39.43Y-32.87
X39.48Y-31.23
X39.509Y-47.981
X40.716Y-39.192
X40.75Y-34.047
X41.555Y-39.977
X41.732Y-41.097
X41.961Y-45.263
X42.164Y-49.555
T2
X32.08Y-54.432
X34.62Y-54.432
X37.16Y-54.432
X39.7Y-54.432
X43.815Y-32.156
X43.815Y-34.696
X43.815Y-37.236
X43.815Y-39.776
X43.815Y-43.434
X43.815Y-45.974
X43.815Y-48.514
X43.815Y-51.054
T3
X31.75Y-28.93
X34.29Y-28.93
X36.83Y-28.93
X39.37Y-28.93
T4
X27.94Y-27.94
X27.94Y-54.61
X43.18Y-27.94
X43.18Y-54.61
T0
M30
