G04 #@! TF.GenerationSoftware,KiCad,Pcbnew,7.0.7*
G04 #@! TF.CreationDate,2023-10-16T22:19:58-07:00*
G04 #@! TF.ProjectId,DeploymentBoardV2.0,4465706c-6f79-46d6-956e-74426f617264,rev?*
G04 #@! TF.SameCoordinates,Original*
G04 #@! TF.FileFunction,Copper,L2,Inr*
G04 #@! TF.FilePolarity,Positive*
%FSLAX46Y46*%
G04 Gerber Fmt 4.6, Leading zero omitted, Abs format (unit mm)*
G04 Created by KiCad (PCBNEW 7.0.7) date 2023-10-16 22:19:58*
%MOMM*%
%LPD*%
G01*
G04 APERTURE LIST*
G04 #@! TA.AperFunction,ComponentPad*
%ADD10C,3.500000*%
G04 #@! TD*
G04 #@! TA.AperFunction,ComponentPad*
%ADD11C,1.700000*%
G04 #@! TD*
G04 #@! TA.AperFunction,ComponentPad*
%ADD12O,1.700000X1.700000*%
G04 #@! TD*
G04 #@! TA.AperFunction,ComponentPad*
%ADD13R,1.700000X1.700000*%
G04 #@! TD*
G04 #@! TA.AperFunction,ComponentPad*
%ADD14C,2.200000*%
G04 #@! TD*
G04 #@! TA.AperFunction,ViaPad*
%ADD15C,0.700000*%
G04 #@! TD*
G04 APERTURE END LIST*
D10*
X43180000Y-54610000D03*
X27940000Y-54610000D03*
X27940000Y-27940000D03*
X43180000Y-27940000D03*
D11*
X43815000Y-32156400D03*
D12*
X43815000Y-34696400D03*
X43815000Y-37236400D03*
D13*
X43815000Y-39776400D03*
D11*
X43815000Y-43434000D03*
D12*
X43815000Y-45974000D03*
X43815000Y-48514000D03*
X43815000Y-51054000D03*
D11*
X39700200Y-54432200D03*
D12*
X37160200Y-54432200D03*
X34620200Y-54432200D03*
D13*
X32080200Y-54432200D03*
D14*
X31750000Y-28930000D03*
X34290000Y-28930000D03*
X36830000Y-28930000D03*
X39370000Y-28930000D03*
D15*
X26308208Y-45238531D03*
X39039800Y-38856800D03*
X34800000Y-42152500D03*
X40716200Y-39192200D03*
X30623736Y-47189364D03*
X35000000Y-34110000D03*
X39430000Y-32870000D03*
X40749800Y-34046800D03*
X41732200Y-41097200D03*
X29895800Y-42265600D03*
X27150000Y-32460000D03*
X36170000Y-35580000D03*
X26490000Y-46390000D03*
X33578800Y-43713400D03*
X42164000Y-49555400D03*
X27970000Y-34635600D03*
X34213800Y-38836600D03*
X32970000Y-52690000D03*
X32110000Y-32290000D03*
X34869505Y-45916884D03*
X26450000Y-47580000D03*
X30750000Y-43690000D03*
X26410000Y-42980000D03*
X29244850Y-46292980D03*
X27101800Y-31430000D03*
X37490400Y-50190400D03*
X32418223Y-41405821D03*
X39480000Y-31230000D03*
X36601400Y-50190400D03*
X32537400Y-49860200D03*
X26350000Y-44340000D03*
X38475000Y-34359800D03*
X35255200Y-39446200D03*
X29050000Y-51020000D03*
X28843800Y-52374800D03*
X37266172Y-47069293D03*
X38805200Y-35071000D03*
X32290000Y-38863000D03*
X28905200Y-47294800D03*
X33145000Y-39039800D03*
X34671000Y-47188000D03*
X33197800Y-50647600D03*
X39508502Y-47980600D03*
X38379400Y-46990000D03*
X32739551Y-47354507D03*
X31700000Y-34709500D03*
X31705461Y-33093401D03*
X30700000Y-49987200D03*
X41960800Y-45262800D03*
X41555500Y-39977443D03*
X30240000Y-38130000D03*
X30997835Y-38854746D03*
X29240000Y-33190000D03*
X37340000Y-33670000D03*
G04 #@! TA.AperFunction,Conductor*
G36*
X45586183Y-25419817D02*
G01*
X45653194Y-25439601D01*
X45698870Y-25492472D01*
X45710000Y-25543817D01*
X45710000Y-57025500D01*
X45690315Y-57092539D01*
X45637511Y-57138294D01*
X45586000Y-57149500D01*
X25534000Y-57149500D01*
X25466961Y-57129815D01*
X25421206Y-57077011D01*
X25410000Y-57025500D01*
X25410000Y-54610007D01*
X25684671Y-54610007D01*
X25703964Y-54904363D01*
X25703965Y-54904373D01*
X25703966Y-54904380D01*
X25757145Y-55171734D01*
X25761518Y-55193716D01*
X25761521Y-55193730D01*
X25856349Y-55473080D01*
X25986825Y-55737660D01*
X25986829Y-55737667D01*
X26150725Y-55982955D01*
X26345241Y-56204758D01*
X26567043Y-56399273D01*
X26812335Y-56563172D01*
X27076923Y-56693652D01*
X27356278Y-56788481D01*
X27645620Y-56846034D01*
X27673888Y-56847886D01*
X27939993Y-56865329D01*
X27940000Y-56865329D01*
X27940007Y-56865329D01*
X28175675Y-56849881D01*
X28234380Y-56846034D01*
X28523722Y-56788481D01*
X28803077Y-56693652D01*
X29067665Y-56563172D01*
X29312957Y-56399273D01*
X29534758Y-56204758D01*
X29729273Y-55982957D01*
X29893172Y-55737665D01*
X30023652Y-55473077D01*
X30072197Y-55330070D01*
X30729700Y-55330070D01*
X30729701Y-55330076D01*
X30736108Y-55389683D01*
X30786402Y-55524528D01*
X30786406Y-55524535D01*
X30872652Y-55639744D01*
X30872655Y-55639747D01*
X30987864Y-55725993D01*
X30987871Y-55725997D01*
X31122717Y-55776291D01*
X31122716Y-55776291D01*
X31129644Y-55777035D01*
X31182327Y-55782700D01*
X32978072Y-55782699D01*
X33037683Y-55776291D01*
X33172531Y-55725996D01*
X33287746Y-55639746D01*
X33373996Y-55524531D01*
X33423202Y-55392601D01*
X33465072Y-55336668D01*
X33530537Y-55312250D01*
X33598810Y-55327101D01*
X33627065Y-55348253D01*
X33749117Y-55470305D01*
X33942621Y-55605800D01*
X34156707Y-55705629D01*
X34156716Y-55705633D01*
X34370200Y-55762834D01*
X34370200Y-55044501D01*
X34389885Y-54977462D01*
X34442689Y-54931707D01*
X34511847Y-54921763D01*
X34584437Y-54932200D01*
X34584438Y-54932200D01*
X34655962Y-54932200D01*
X34655963Y-54932200D01*
X34728553Y-54921763D01*
X34797712Y-54931707D01*
X34850515Y-54977462D01*
X34870200Y-55044501D01*
X34870200Y-55762833D01*
X35083683Y-55705633D01*
X35083692Y-55705629D01*
X35297778Y-55605800D01*
X35491282Y-55470305D01*
X35658305Y-55303282D01*
X35788319Y-55117605D01*
X35842896Y-55073981D01*
X35912395Y-55066788D01*
X35974749Y-55098310D01*
X35991469Y-55117605D01*
X36121705Y-55303601D01*
X36288799Y-55470695D01*
X36385584Y-55538465D01*
X36482365Y-55606232D01*
X36482367Y-55606233D01*
X36482370Y-55606235D01*
X36696537Y-55706103D01*
X36924792Y-55767263D01*
X37101234Y-55782700D01*
X37160199Y-55787859D01*
X37160200Y-55787859D01*
X37160201Y-55787859D01*
X37219166Y-55782700D01*
X37395608Y-55767263D01*
X37623863Y-55706103D01*
X37838030Y-55606235D01*
X38031601Y-55470695D01*
X38198695Y-55303601D01*
X38328624Y-55118042D01*
X38383202Y-55074417D01*
X38452700Y-55067223D01*
X38515055Y-55098746D01*
X38531775Y-55118042D01*
X38661481Y-55303282D01*
X38661705Y-55303601D01*
X38828799Y-55470695D01*
X38925584Y-55538465D01*
X39022365Y-55606232D01*
X39022367Y-55606233D01*
X39022370Y-55606235D01*
X39236537Y-55706103D01*
X39464792Y-55767263D01*
X39641234Y-55782700D01*
X39700199Y-55787859D01*
X39700200Y-55787859D01*
X39700201Y-55787859D01*
X39759166Y-55782700D01*
X39935608Y-55767263D01*
X40163863Y-55706103D01*
X40378030Y-55606235D01*
X40571601Y-55470695D01*
X40738695Y-55303601D01*
X40800483Y-55215357D01*
X40855058Y-55171734D01*
X40924556Y-55164540D01*
X40986911Y-55196062D01*
X41019476Y-55246623D01*
X41096349Y-55473080D01*
X41226825Y-55737660D01*
X41226829Y-55737667D01*
X41390725Y-55982955D01*
X41585241Y-56204758D01*
X41807043Y-56399273D01*
X42052335Y-56563172D01*
X42316923Y-56693652D01*
X42596278Y-56788481D01*
X42885620Y-56846034D01*
X42913888Y-56847886D01*
X43179993Y-56865329D01*
X43180000Y-56865329D01*
X43180007Y-56865329D01*
X43415675Y-56849881D01*
X43474380Y-56846034D01*
X43763722Y-56788481D01*
X44043077Y-56693652D01*
X44307665Y-56563172D01*
X44552957Y-56399273D01*
X44774758Y-56204758D01*
X44969273Y-55982957D01*
X45133172Y-55737665D01*
X45263652Y-55473077D01*
X45358481Y-55193722D01*
X45416034Y-54904380D01*
X45435329Y-54610000D01*
X45435329Y-54609992D01*
X45416035Y-54315636D01*
X45416034Y-54315620D01*
X45358481Y-54026278D01*
X45263652Y-53746923D01*
X45133172Y-53482336D01*
X44969273Y-53237043D01*
X44900215Y-53158298D01*
X44774758Y-53015241D01*
X44552955Y-52820725D01*
X44307667Y-52656829D01*
X44307660Y-52656825D01*
X44160764Y-52584384D01*
X44109344Y-52537079D01*
X44091663Y-52469483D01*
X44113333Y-52403059D01*
X44167475Y-52358895D01*
X44183512Y-52353398D01*
X44225440Y-52342164D01*
X44278653Y-52327906D01*
X44278654Y-52327905D01*
X44278663Y-52327903D01*
X44492830Y-52228035D01*
X44686401Y-52092495D01*
X44853495Y-51925401D01*
X44989035Y-51731830D01*
X45088903Y-51517663D01*
X45150063Y-51289408D01*
X45170659Y-51054000D01*
X45150063Y-50818592D01*
X45088903Y-50590337D01*
X44989035Y-50376171D01*
X44983458Y-50368205D01*
X44853494Y-50182597D01*
X44686402Y-50015506D01*
X44686396Y-50015501D01*
X44500842Y-49885575D01*
X44457217Y-49830998D01*
X44450023Y-49761500D01*
X44481546Y-49699145D01*
X44500842Y-49682425D01*
X44682252Y-49555400D01*
X44686401Y-49552495D01*
X44853495Y-49385401D01*
X44989035Y-49191830D01*
X45088903Y-48977663D01*
X45150063Y-48749408D01*
X45170659Y-48514000D01*
X45150063Y-48278592D01*
X45088903Y-48050337D01*
X44989035Y-47836171D01*
X44986580Y-47832664D01*
X44853494Y-47642597D01*
X44686402Y-47475506D01*
X44686396Y-47475501D01*
X44500842Y-47345575D01*
X44457217Y-47290998D01*
X44450023Y-47221500D01*
X44481546Y-47159145D01*
X44500842Y-47142425D01*
X44552422Y-47106308D01*
X44686401Y-47012495D01*
X44853495Y-46845401D01*
X44989035Y-46651830D01*
X45088903Y-46437663D01*
X45150063Y-46209408D01*
X45170659Y-45974000D01*
X45150063Y-45738592D01*
X45088903Y-45510337D01*
X44989035Y-45296171D01*
X44978665Y-45281360D01*
X44853494Y-45102597D01*
X44686402Y-44935506D01*
X44686396Y-44935501D01*
X44500842Y-44805575D01*
X44457217Y-44750998D01*
X44450023Y-44681500D01*
X44481546Y-44619145D01*
X44500842Y-44602425D01*
X44608947Y-44526729D01*
X44686401Y-44472495D01*
X44853495Y-44305401D01*
X44989035Y-44111830D01*
X45088903Y-43897663D01*
X45150063Y-43669408D01*
X45170659Y-43434000D01*
X45150063Y-43198592D01*
X45089560Y-42972788D01*
X45088905Y-42970344D01*
X45088904Y-42970343D01*
X45088903Y-42970337D01*
X44989035Y-42756171D01*
X44948201Y-42697853D01*
X44853494Y-42562597D01*
X44686402Y-42395506D01*
X44686395Y-42395501D01*
X44492834Y-42259967D01*
X44492830Y-42259965D01*
X44448705Y-42239389D01*
X44278663Y-42160097D01*
X44278659Y-42160096D01*
X44278655Y-42160094D01*
X44050413Y-42098938D01*
X44050403Y-42098936D01*
X43815001Y-42078341D01*
X43814999Y-42078341D01*
X43579596Y-42098936D01*
X43579586Y-42098938D01*
X43351344Y-42160094D01*
X43351335Y-42160098D01*
X43137171Y-42259964D01*
X43137169Y-42259965D01*
X42943597Y-42395505D01*
X42776505Y-42562597D01*
X42640965Y-42756169D01*
X42640964Y-42756171D01*
X42541098Y-42970335D01*
X42541094Y-42970344D01*
X42479938Y-43198586D01*
X42479936Y-43198596D01*
X42459341Y-43433999D01*
X42459341Y-43434000D01*
X42479936Y-43669403D01*
X42479938Y-43669413D01*
X42541094Y-43897655D01*
X42541096Y-43897659D01*
X42541097Y-43897663D01*
X42617369Y-44061229D01*
X42640965Y-44111830D01*
X42640967Y-44111834D01*
X42776501Y-44305395D01*
X42776506Y-44305402D01*
X42943597Y-44472493D01*
X42943603Y-44472498D01*
X43129158Y-44602425D01*
X43172783Y-44657002D01*
X43179977Y-44726500D01*
X43148454Y-44788855D01*
X43129158Y-44805575D01*
X42943599Y-44935504D01*
X42937603Y-44941500D01*
X42876278Y-44974982D01*
X42806587Y-44969994D01*
X42750655Y-44928119D01*
X42742538Y-44915813D01*
X42742052Y-44914971D01*
X42742050Y-44914965D01*
X42652659Y-44760135D01*
X42587560Y-44687835D01*
X42533035Y-44627278D01*
X42533032Y-44627276D01*
X42533031Y-44627275D01*
X42533030Y-44627274D01*
X42388393Y-44522188D01*
X42225067Y-44449471D01*
X42225065Y-44449470D01*
X42097394Y-44422333D01*
X42050191Y-44412300D01*
X41871409Y-44412300D01*
X41840754Y-44418815D01*
X41696533Y-44449470D01*
X41696528Y-44449472D01*
X41533208Y-44522187D01*
X41388568Y-44627275D01*
X41268940Y-44760136D01*
X41179550Y-44914964D01*
X41179547Y-44914970D01*
X41124304Y-45084992D01*
X41124303Y-45084994D01*
X41114709Y-45176273D01*
X41105615Y-45262800D01*
X41111844Y-45322067D01*
X41124303Y-45440605D01*
X41124304Y-45440607D01*
X41179547Y-45610629D01*
X41179550Y-45610635D01*
X41268941Y-45765465D01*
X41291316Y-45790315D01*
X41388564Y-45898321D01*
X41388567Y-45898323D01*
X41388570Y-45898326D01*
X41533207Y-46003412D01*
X41696533Y-46076129D01*
X41871409Y-46113300D01*
X41871410Y-46113300D01*
X42050189Y-46113300D01*
X42050191Y-46113300D01*
X42225067Y-46076129D01*
X42300345Y-46042612D01*
X42369595Y-46033328D01*
X42432872Y-46062956D01*
X42470085Y-46122091D01*
X42474309Y-46145084D01*
X42479936Y-46209403D01*
X42479938Y-46209413D01*
X42541094Y-46437655D01*
X42541096Y-46437659D01*
X42541097Y-46437663D01*
X42614384Y-46594827D01*
X42640965Y-46651830D01*
X42640967Y-46651834D01*
X42776501Y-46845395D01*
X42776506Y-46845402D01*
X42943597Y-47012493D01*
X42943603Y-47012498D01*
X43129158Y-47142425D01*
X43172783Y-47197002D01*
X43179977Y-47266500D01*
X43148454Y-47328855D01*
X43129158Y-47345575D01*
X42943597Y-47475505D01*
X42776505Y-47642597D01*
X42640965Y-47836169D01*
X42640964Y-47836171D01*
X42541098Y-48050335D01*
X42541094Y-48050344D01*
X42479938Y-48278586D01*
X42479936Y-48278596D01*
X42459341Y-48513999D01*
X42459341Y-48514002D01*
X42465656Y-48586184D01*
X42451889Y-48654684D01*
X42403274Y-48704867D01*
X42335245Y-48720800D01*
X42316349Y-48718282D01*
X42306296Y-48716145D01*
X42253391Y-48704900D01*
X42074609Y-48704900D01*
X42043954Y-48711415D01*
X41899733Y-48742070D01*
X41899728Y-48742072D01*
X41736408Y-48814787D01*
X41591768Y-48919875D01*
X41472140Y-49052736D01*
X41382750Y-49207564D01*
X41382747Y-49207570D01*
X41327504Y-49377592D01*
X41327503Y-49377594D01*
X41308815Y-49555400D01*
X41327503Y-49733205D01*
X41327504Y-49733207D01*
X41382747Y-49903229D01*
X41382750Y-49903235D01*
X41472141Y-50058065D01*
X41513812Y-50104346D01*
X41591764Y-50190921D01*
X41591767Y-50190923D01*
X41591770Y-50190926D01*
X41736407Y-50296012D01*
X41899733Y-50368729D01*
X42074609Y-50405900D01*
X42074610Y-50405900D01*
X42253389Y-50405900D01*
X42253391Y-50405900D01*
X42424949Y-50369434D01*
X42494614Y-50374750D01*
X42550348Y-50416887D01*
X42574453Y-50482466D01*
X42563111Y-50543128D01*
X42541096Y-50590339D01*
X42541094Y-50590344D01*
X42479938Y-50818586D01*
X42479936Y-50818596D01*
X42459341Y-51053999D01*
X42459341Y-51054000D01*
X42479936Y-51289403D01*
X42479938Y-51289413D01*
X42541094Y-51517655D01*
X42541096Y-51517659D01*
X42541097Y-51517663D01*
X42640964Y-51731829D01*
X42640965Y-51731830D01*
X42640967Y-51731834D01*
X42716356Y-51839500D01*
X42776505Y-51925401D01*
X42943599Y-52092495D01*
X43003033Y-52134111D01*
X43017371Y-52144151D01*
X43060996Y-52198729D01*
X43068188Y-52268227D01*
X43036666Y-52330582D01*
X42976436Y-52365995D01*
X42954357Y-52369460D01*
X42885636Y-52373964D01*
X42885624Y-52373965D01*
X42885620Y-52373966D01*
X42885612Y-52373967D01*
X42885609Y-52373968D01*
X42596283Y-52431518D01*
X42596269Y-52431521D01*
X42316919Y-52526349D01*
X42052334Y-52656828D01*
X41807041Y-52820728D01*
X41585241Y-53015241D01*
X41390728Y-53237041D01*
X41226828Y-53482335D01*
X41094651Y-53750362D01*
X41047346Y-53801782D01*
X40979750Y-53819463D01*
X40913326Y-53797793D01*
X40876051Y-53757517D01*
X40874239Y-53754380D01*
X40874235Y-53754371D01*
X40738695Y-53560799D01*
X40738694Y-53560797D01*
X40571602Y-53393706D01*
X40571595Y-53393701D01*
X40378034Y-53258167D01*
X40378030Y-53258165D01*
X40332734Y-53237043D01*
X40163863Y-53158297D01*
X40163859Y-53158296D01*
X40163855Y-53158294D01*
X39935613Y-53097138D01*
X39935603Y-53097136D01*
X39700201Y-53076541D01*
X39700199Y-53076541D01*
X39464796Y-53097136D01*
X39464786Y-53097138D01*
X39236544Y-53158294D01*
X39236535Y-53158298D01*
X39022371Y-53258164D01*
X39022369Y-53258165D01*
X38828797Y-53393705D01*
X38661705Y-53560797D01*
X38531775Y-53746358D01*
X38477198Y-53789983D01*
X38407700Y-53797177D01*
X38345345Y-53765654D01*
X38328625Y-53746358D01*
X38198694Y-53560797D01*
X38031602Y-53393706D01*
X38031595Y-53393701D01*
X37838034Y-53258167D01*
X37838030Y-53258165D01*
X37792734Y-53237043D01*
X37623863Y-53158297D01*
X37623859Y-53158296D01*
X37623855Y-53158294D01*
X37395613Y-53097138D01*
X37395603Y-53097136D01*
X37160201Y-53076541D01*
X37160199Y-53076541D01*
X36924796Y-53097136D01*
X36924786Y-53097138D01*
X36696544Y-53158294D01*
X36696535Y-53158298D01*
X36482371Y-53258164D01*
X36482369Y-53258165D01*
X36288797Y-53393705D01*
X36121708Y-53560794D01*
X35991469Y-53746795D01*
X35936892Y-53790419D01*
X35867393Y-53797612D01*
X35805039Y-53766090D01*
X35788319Y-53746794D01*
X35658313Y-53561126D01*
X35658308Y-53561120D01*
X35491282Y-53394094D01*
X35297778Y-53258599D01*
X35083692Y-53158770D01*
X35083686Y-53158767D01*
X34870200Y-53101564D01*
X34870200Y-53819898D01*
X34850515Y-53886937D01*
X34797711Y-53932692D01*
X34728555Y-53942636D01*
X34655966Y-53932200D01*
X34655963Y-53932200D01*
X34584437Y-53932200D01*
X34584433Y-53932200D01*
X34511845Y-53942636D01*
X34442687Y-53932692D01*
X34389884Y-53886936D01*
X34370200Y-53819898D01*
X34370200Y-53101564D01*
X34370199Y-53101564D01*
X34156713Y-53158767D01*
X34156707Y-53158770D01*
X33942622Y-53258599D01*
X33865606Y-53312526D01*
X33799400Y-53334853D01*
X33731633Y-53317841D01*
X33683821Y-53266893D01*
X33671143Y-53198183D01*
X33687095Y-53148953D01*
X33751250Y-53037835D01*
X33806497Y-52867803D01*
X33825185Y-52690000D01*
X33806497Y-52512197D01*
X33766488Y-52389063D01*
X33751252Y-52342170D01*
X33751249Y-52342164D01*
X33661859Y-52187335D01*
X33615003Y-52135296D01*
X33542235Y-52054478D01*
X33542232Y-52054476D01*
X33542231Y-52054475D01*
X33542230Y-52054474D01*
X33397593Y-51949388D01*
X33234267Y-51876671D01*
X33234265Y-51876670D01*
X33106594Y-51849533D01*
X33059391Y-51839500D01*
X32880609Y-51839500D01*
X32849954Y-51846015D01*
X32705733Y-51876670D01*
X32705728Y-51876672D01*
X32542408Y-51949387D01*
X32397768Y-52054475D01*
X32278140Y-52187336D01*
X32188750Y-52342164D01*
X32188747Y-52342170D01*
X32133504Y-52512192D01*
X32133503Y-52512194D01*
X32114815Y-52690000D01*
X32133503Y-52867805D01*
X32133504Y-52867807D01*
X32150262Y-52919382D01*
X32152257Y-52989223D01*
X32116177Y-53049056D01*
X32053476Y-53079884D01*
X32032331Y-53081700D01*
X31182329Y-53081700D01*
X31182323Y-53081701D01*
X31122716Y-53088108D01*
X30987871Y-53138402D01*
X30987864Y-53138406D01*
X30872655Y-53224652D01*
X30872652Y-53224655D01*
X30786406Y-53339864D01*
X30786402Y-53339871D01*
X30736108Y-53474717D01*
X30729701Y-53534316D01*
X30729700Y-53534335D01*
X30729700Y-55330070D01*
X30072197Y-55330070D01*
X30118481Y-55193722D01*
X30176034Y-54904380D01*
X30195329Y-54610000D01*
X30195329Y-54609992D01*
X30176035Y-54315636D01*
X30176034Y-54315620D01*
X30118481Y-54026278D01*
X30023652Y-53746923D01*
X29893172Y-53482336D01*
X29729273Y-53237043D01*
X29660215Y-53158298D01*
X29534758Y-53015241D01*
X29312955Y-52820725D01*
X29067667Y-52656829D01*
X29067660Y-52656825D01*
X28803080Y-52526349D01*
X28523730Y-52431521D01*
X28523724Y-52431519D01*
X28523722Y-52431519D01*
X28234380Y-52373966D01*
X28234373Y-52373965D01*
X28234363Y-52373964D01*
X27940007Y-52354671D01*
X27939993Y-52354671D01*
X27645636Y-52373964D01*
X27645624Y-52373965D01*
X27645620Y-52373966D01*
X27645612Y-52373967D01*
X27645609Y-52373968D01*
X27356283Y-52431518D01*
X27356269Y-52431521D01*
X27076919Y-52526349D01*
X26812334Y-52656828D01*
X26567041Y-52820728D01*
X26345241Y-53015241D01*
X26150728Y-53237041D01*
X25986828Y-53482334D01*
X25856349Y-53746919D01*
X25761521Y-54026269D01*
X25761518Y-54026283D01*
X25703968Y-54315609D01*
X25703964Y-54315636D01*
X25684671Y-54609992D01*
X25684671Y-54610007D01*
X25410000Y-54610007D01*
X25410000Y-49987200D01*
X29844815Y-49987200D01*
X29863503Y-50165005D01*
X29863504Y-50165007D01*
X29918747Y-50335029D01*
X29918750Y-50335035D01*
X30008141Y-50489865D01*
X30049812Y-50536146D01*
X30127764Y-50622721D01*
X30127767Y-50622723D01*
X30127770Y-50622726D01*
X30272407Y-50727812D01*
X30435733Y-50800529D01*
X30610609Y-50837700D01*
X30610610Y-50837700D01*
X30789389Y-50837700D01*
X30789391Y-50837700D01*
X30964267Y-50800529D01*
X31127593Y-50727812D01*
X31272230Y-50622726D01*
X31391859Y-50489865D01*
X31481250Y-50335035D01*
X31521401Y-50211460D01*
X31560838Y-50153787D01*
X31625197Y-50126588D01*
X31694043Y-50138502D01*
X31745519Y-50185746D01*
X31753072Y-50202284D01*
X31753504Y-50202092D01*
X31756150Y-50208034D01*
X31756150Y-50208035D01*
X31845541Y-50362865D01*
X31857522Y-50376171D01*
X31965164Y-50495721D01*
X31965167Y-50495723D01*
X31965170Y-50495726D01*
X32109807Y-50600812D01*
X32273133Y-50673529D01*
X32273134Y-50673529D01*
X32279070Y-50676172D01*
X32278360Y-50677764D01*
X32328967Y-50712352D01*
X32356179Y-50776705D01*
X32356311Y-50777904D01*
X32361303Y-50825404D01*
X32361304Y-50825407D01*
X32416547Y-50995429D01*
X32416550Y-50995435D01*
X32505941Y-51150265D01*
X32547612Y-51196546D01*
X32625564Y-51283121D01*
X32625567Y-51283123D01*
X32625570Y-51283126D01*
X32770207Y-51388212D01*
X32933533Y-51460929D01*
X33108409Y-51498100D01*
X33108410Y-51498100D01*
X33287189Y-51498100D01*
X33287191Y-51498100D01*
X33462067Y-51460929D01*
X33625393Y-51388212D01*
X33770030Y-51283126D01*
X33889659Y-51150265D01*
X33979050Y-50995435D01*
X34034297Y-50825403D01*
X34052985Y-50647600D01*
X34034297Y-50469797D01*
X33979050Y-50299765D01*
X33915908Y-50190400D01*
X35746215Y-50190400D01*
X35764903Y-50368205D01*
X35764904Y-50368207D01*
X35820147Y-50538229D01*
X35820150Y-50538235D01*
X35909541Y-50693065D01*
X35951212Y-50739346D01*
X36029164Y-50825921D01*
X36029167Y-50825923D01*
X36029170Y-50825926D01*
X36173807Y-50931012D01*
X36337133Y-51003729D01*
X36512009Y-51040900D01*
X36512010Y-51040900D01*
X36690789Y-51040900D01*
X36690791Y-51040900D01*
X36865667Y-51003729D01*
X36995467Y-50945938D01*
X37064714Y-50936654D01*
X37096329Y-50945937D01*
X37226133Y-51003729D01*
X37401009Y-51040900D01*
X37401010Y-51040900D01*
X37579789Y-51040900D01*
X37579791Y-51040900D01*
X37754667Y-51003729D01*
X37917993Y-50931012D01*
X38062630Y-50825926D01*
X38063098Y-50825407D01*
X38106949Y-50776705D01*
X38182259Y-50693065D01*
X38271650Y-50538235D01*
X38326897Y-50368203D01*
X38345585Y-50190400D01*
X38326897Y-50012597D01*
X38271650Y-49842565D01*
X38182259Y-49687735D01*
X38135403Y-49635696D01*
X38062635Y-49554878D01*
X38062632Y-49554876D01*
X38062631Y-49554875D01*
X38062630Y-49554874D01*
X37917993Y-49449788D01*
X37754667Y-49377071D01*
X37754665Y-49377070D01*
X37626994Y-49349933D01*
X37579791Y-49339900D01*
X37401009Y-49339900D01*
X37370354Y-49346415D01*
X37226133Y-49377070D01*
X37226132Y-49377070D01*
X37096334Y-49434860D01*
X37027083Y-49444144D01*
X36995464Y-49434860D01*
X36990379Y-49432596D01*
X36865667Y-49377071D01*
X36865665Y-49377070D01*
X36737994Y-49349933D01*
X36690791Y-49339900D01*
X36512009Y-49339900D01*
X36481354Y-49346415D01*
X36337133Y-49377070D01*
X36337128Y-49377072D01*
X36173808Y-49449787D01*
X36029168Y-49554875D01*
X35909540Y-49687736D01*
X35820150Y-49842564D01*
X35820147Y-49842570D01*
X35764904Y-50012592D01*
X35764903Y-50012594D01*
X35746215Y-50190400D01*
X33915908Y-50190400D01*
X33889659Y-50144935D01*
X33811439Y-50058063D01*
X33770035Y-50012078D01*
X33770032Y-50012076D01*
X33770031Y-50012075D01*
X33770030Y-50012074D01*
X33625393Y-49906988D01*
X33462067Y-49834271D01*
X33462065Y-49834270D01*
X33456130Y-49831628D01*
X33456835Y-49830043D01*
X33406205Y-49795413D01*
X33379015Y-49731050D01*
X33378907Y-49730071D01*
X33373897Y-49682397D01*
X33332463Y-49554876D01*
X33318652Y-49512370D01*
X33318649Y-49512364D01*
X33229259Y-49357535D01*
X33182403Y-49305496D01*
X33109635Y-49224678D01*
X33109632Y-49224676D01*
X33109631Y-49224675D01*
X33109630Y-49224674D01*
X32964993Y-49119588D01*
X32801667Y-49046871D01*
X32801665Y-49046870D01*
X32673994Y-49019733D01*
X32626791Y-49009700D01*
X32448009Y-49009700D01*
X32417354Y-49016215D01*
X32273133Y-49046870D01*
X32273128Y-49046872D01*
X32109808Y-49119587D01*
X31965168Y-49224675D01*
X31845540Y-49357536D01*
X31756150Y-49512364D01*
X31756148Y-49512368D01*
X31715998Y-49635938D01*
X31676560Y-49693613D01*
X31612201Y-49720811D01*
X31543355Y-49708896D01*
X31491879Y-49661652D01*
X31484329Y-49645115D01*
X31483896Y-49645308D01*
X31481251Y-49639369D01*
X31481250Y-49639365D01*
X31391859Y-49484535D01*
X31345003Y-49432496D01*
X31272235Y-49351678D01*
X31272232Y-49351676D01*
X31272231Y-49351675D01*
X31272230Y-49351674D01*
X31127593Y-49246588D01*
X30964267Y-49173871D01*
X30964265Y-49173870D01*
X30836594Y-49146733D01*
X30789391Y-49136700D01*
X30610609Y-49136700D01*
X30579954Y-49143215D01*
X30435733Y-49173870D01*
X30435728Y-49173872D01*
X30272408Y-49246587D01*
X30127768Y-49351675D01*
X30008140Y-49484536D01*
X29918750Y-49639364D01*
X29918747Y-49639370D01*
X29863504Y-49809392D01*
X29863503Y-49809394D01*
X29844815Y-49987200D01*
X25410000Y-49987200D01*
X25410000Y-47914390D01*
X25429685Y-47847351D01*
X25482489Y-47801596D01*
X25551647Y-47791652D01*
X25615203Y-47820677D01*
X25651931Y-47876072D01*
X25668747Y-47927829D01*
X25668750Y-47927835D01*
X25758141Y-48082665D01*
X25769353Y-48095117D01*
X25877764Y-48215521D01*
X25877767Y-48215523D01*
X25877770Y-48215526D01*
X26022407Y-48320612D01*
X26185733Y-48393329D01*
X26360609Y-48430500D01*
X26360610Y-48430500D01*
X26539389Y-48430500D01*
X26539391Y-48430500D01*
X26714267Y-48393329D01*
X26877593Y-48320612D01*
X27022230Y-48215526D01*
X27031702Y-48205007D01*
X27073662Y-48158405D01*
X27141859Y-48082665D01*
X27231250Y-47927835D01*
X27286497Y-47757803D01*
X27305185Y-47580000D01*
X27286497Y-47402197D01*
X27240766Y-47261452D01*
X27231252Y-47232170D01*
X27231249Y-47232164D01*
X27229192Y-47228602D01*
X27141859Y-47077335D01*
X27138610Y-47071707D01*
X27140750Y-47070471D01*
X27121009Y-47015157D01*
X27136829Y-46947102D01*
X27152648Y-46925105D01*
X27181859Y-46892665D01*
X27271250Y-46737835D01*
X27326497Y-46567803D01*
X27345185Y-46390000D01*
X27334988Y-46292980D01*
X28389665Y-46292980D01*
X28394024Y-46334455D01*
X28408353Y-46470785D01*
X28408354Y-46470787D01*
X28463597Y-46640809D01*
X28463600Y-46640815D01*
X28552991Y-46795645D01*
X28567892Y-46812194D01*
X28672614Y-46928501D01*
X28672617Y-46928503D01*
X28672620Y-46928506D01*
X28817257Y-47033592D01*
X28980583Y-47106309D01*
X29155459Y-47143480D01*
X29155460Y-47143480D01*
X29334239Y-47143480D01*
X29334241Y-47143480D01*
X29509117Y-47106309D01*
X29594240Y-47068409D01*
X29663488Y-47059125D01*
X29726764Y-47088753D01*
X29763978Y-47147887D01*
X29766991Y-47182865D01*
X29768551Y-47182865D01*
X29768551Y-47189361D01*
X29768551Y-47189364D01*
X29774294Y-47244000D01*
X29787239Y-47367169D01*
X29787240Y-47367171D01*
X29842483Y-47537193D01*
X29842486Y-47537199D01*
X29931877Y-47692029D01*
X29973548Y-47738310D01*
X30051500Y-47824885D01*
X30051503Y-47824887D01*
X30051506Y-47824890D01*
X30196143Y-47929976D01*
X30359469Y-48002693D01*
X30534345Y-48039864D01*
X30534346Y-48039864D01*
X30713125Y-48039864D01*
X30713127Y-48039864D01*
X30888003Y-48002693D01*
X31051329Y-47929976D01*
X31195966Y-47824890D01*
X31197195Y-47823526D01*
X31225894Y-47791652D01*
X31315595Y-47692029D01*
X31404986Y-47537199D01*
X31460233Y-47367167D01*
X31461564Y-47354507D01*
X31884366Y-47354507D01*
X31903054Y-47532312D01*
X31903055Y-47532314D01*
X31958298Y-47702336D01*
X31958301Y-47702342D01*
X32047692Y-47857172D01*
X32064710Y-47876072D01*
X32167315Y-47990028D01*
X32167318Y-47990030D01*
X32167321Y-47990033D01*
X32311958Y-48095119D01*
X32475284Y-48167836D01*
X32650160Y-48205007D01*
X32650161Y-48205007D01*
X32828940Y-48205007D01*
X32828942Y-48205007D01*
X33003818Y-48167836D01*
X33167144Y-48095119D01*
X33311781Y-47990033D01*
X33320278Y-47980597D01*
X33351703Y-47945695D01*
X33431410Y-47857172D01*
X33520801Y-47702342D01*
X33576048Y-47532310D01*
X33591462Y-47385651D01*
X33618047Y-47321039D01*
X33675344Y-47281054D01*
X33745163Y-47278394D01*
X33805337Y-47313904D01*
X33832714Y-47360297D01*
X33889747Y-47535829D01*
X33889750Y-47535835D01*
X33979141Y-47690665D01*
X34015108Y-47730610D01*
X34098764Y-47823521D01*
X34098767Y-47823523D01*
X34098770Y-47823526D01*
X34243407Y-47928612D01*
X34406733Y-48001329D01*
X34581609Y-48038500D01*
X34581610Y-48038500D01*
X34760389Y-48038500D01*
X34760391Y-48038500D01*
X34935267Y-48001329D01*
X35098593Y-47928612D01*
X35243230Y-47823526D01*
X35245796Y-47820677D01*
X35274616Y-47788668D01*
X35362859Y-47690665D01*
X35452250Y-47535835D01*
X35507497Y-47365803D01*
X35526185Y-47188000D01*
X35507497Y-47010197D01*
X35500935Y-46990000D01*
X37524215Y-46990000D01*
X37542903Y-47167805D01*
X37542904Y-47167807D01*
X37598147Y-47337829D01*
X37598150Y-47337835D01*
X37687541Y-47492665D01*
X37723241Y-47532314D01*
X37807164Y-47625521D01*
X37807167Y-47625523D01*
X37807170Y-47625526D01*
X37951807Y-47730612D01*
X38115133Y-47803329D01*
X38290009Y-47840500D01*
X38290010Y-47840500D01*
X38468789Y-47840500D01*
X38468791Y-47840500D01*
X38505655Y-47832664D01*
X38575319Y-47837979D01*
X38631053Y-47880116D01*
X38655159Y-47945695D01*
X38654755Y-47966912D01*
X38653317Y-47980597D01*
X38653317Y-47980600D01*
X38664044Y-48082663D01*
X38672005Y-48158405D01*
X38672006Y-48158407D01*
X38727249Y-48328429D01*
X38727252Y-48328435D01*
X38816643Y-48483265D01*
X38844316Y-48513999D01*
X38936266Y-48616121D01*
X38936269Y-48616123D01*
X38936272Y-48616126D01*
X39080909Y-48721212D01*
X39244235Y-48793929D01*
X39419111Y-48831100D01*
X39419112Y-48831100D01*
X39597891Y-48831100D01*
X39597893Y-48831100D01*
X39772769Y-48793929D01*
X39936095Y-48721212D01*
X40080732Y-48616126D01*
X40200361Y-48483265D01*
X40289752Y-48328435D01*
X40344999Y-48158403D01*
X40363687Y-47980600D01*
X40344999Y-47802797D01*
X40309008Y-47692029D01*
X40289754Y-47632770D01*
X40289751Y-47632764D01*
X40200361Y-47477935D01*
X40132166Y-47402197D01*
X40080737Y-47345078D01*
X40080734Y-47345076D01*
X40080733Y-47345075D01*
X40080732Y-47345074D01*
X39936095Y-47239988D01*
X39772769Y-47167271D01*
X39772767Y-47167270D01*
X39645096Y-47140133D01*
X39597893Y-47130100D01*
X39419111Y-47130100D01*
X39382245Y-47137935D01*
X39312579Y-47132619D01*
X39256846Y-47090481D01*
X39232742Y-47024900D01*
X39233147Y-47003680D01*
X39234585Y-46990002D01*
X39234585Y-46990000D01*
X39215897Y-46812197D01*
X39185610Y-46718983D01*
X39160652Y-46642170D01*
X39160649Y-46642164D01*
X39071259Y-46487335D01*
X39010222Y-46419547D01*
X38951635Y-46354478D01*
X38951632Y-46354476D01*
X38951631Y-46354475D01*
X38951630Y-46354474D01*
X38806993Y-46249388D01*
X38643667Y-46176671D01*
X38643665Y-46176670D01*
X38515994Y-46149533D01*
X38468791Y-46139500D01*
X38290009Y-46139500D01*
X38263738Y-46145084D01*
X38115133Y-46176670D01*
X38115128Y-46176672D01*
X37951808Y-46249387D01*
X37807168Y-46354475D01*
X37687540Y-46487336D01*
X37598150Y-46642164D01*
X37598147Y-46642170D01*
X37542904Y-46812192D01*
X37542903Y-46812194D01*
X37524215Y-46990000D01*
X35500935Y-46990000D01*
X35471137Y-46898293D01*
X35452252Y-46840170D01*
X35452249Y-46840164D01*
X35436102Y-46812197D01*
X35387927Y-46728754D01*
X35371454Y-46660853D01*
X35394307Y-46594827D01*
X35422426Y-46566438D01*
X35441735Y-46552410D01*
X35561364Y-46419549D01*
X35650755Y-46264719D01*
X35706002Y-46094687D01*
X35724690Y-45916884D01*
X35706002Y-45739081D01*
X35650755Y-45569049D01*
X35561364Y-45414219D01*
X35514508Y-45362180D01*
X35441740Y-45281362D01*
X35441737Y-45281360D01*
X35441736Y-45281359D01*
X35441735Y-45281358D01*
X35297098Y-45176272D01*
X35133772Y-45103555D01*
X35133770Y-45103554D01*
X35006099Y-45076417D01*
X34958896Y-45066384D01*
X34780114Y-45066384D01*
X34749459Y-45072899D01*
X34605238Y-45103554D01*
X34605233Y-45103556D01*
X34441913Y-45176271D01*
X34297273Y-45281359D01*
X34177645Y-45414220D01*
X34088255Y-45569048D01*
X34088252Y-45569054D01*
X34033009Y-45739076D01*
X34033008Y-45739078D01*
X34014320Y-45916883D01*
X34033008Y-46094689D01*
X34033009Y-46094691D01*
X34088252Y-46264713D01*
X34088254Y-46264716D01*
X34088255Y-46264719D01*
X34104573Y-46292982D01*
X34152578Y-46376130D01*
X34169050Y-46444030D01*
X34146197Y-46510057D01*
X34118078Y-46538445D01*
X34098771Y-46552472D01*
X34098764Y-46552478D01*
X33979140Y-46685336D01*
X33889750Y-46840164D01*
X33889747Y-46840170D01*
X33834504Y-47010192D01*
X33834504Y-47010193D01*
X33834503Y-47010197D01*
X33826307Y-47088171D01*
X33819088Y-47156854D01*
X33792503Y-47221468D01*
X33735205Y-47261452D01*
X33665386Y-47264112D01*
X33605213Y-47228602D01*
X33577836Y-47182209D01*
X33576048Y-47176706D01*
X33576048Y-47176704D01*
X33526724Y-47024900D01*
X33520803Y-47006677D01*
X33520800Y-47006671D01*
X33431410Y-46851842D01*
X33380808Y-46795643D01*
X33311786Y-46718985D01*
X33311783Y-46718983D01*
X33311782Y-46718982D01*
X33311781Y-46718981D01*
X33167144Y-46613895D01*
X33003818Y-46541178D01*
X33003816Y-46541177D01*
X32857405Y-46510057D01*
X32828942Y-46504007D01*
X32650160Y-46504007D01*
X32621697Y-46510057D01*
X32475284Y-46541177D01*
X32475279Y-46541179D01*
X32311959Y-46613894D01*
X32167319Y-46718982D01*
X32047691Y-46851843D01*
X31958301Y-47006671D01*
X31958298Y-47006677D01*
X31903055Y-47176699D01*
X31903054Y-47176701D01*
X31884366Y-47354507D01*
X31461564Y-47354507D01*
X31478921Y-47189364D01*
X31460233Y-47011561D01*
X31432138Y-46925093D01*
X31404988Y-46841534D01*
X31404985Y-46841528D01*
X31404198Y-46840165D01*
X31315595Y-46686699D01*
X31232873Y-46594827D01*
X31195971Y-46553842D01*
X31195968Y-46553840D01*
X31195967Y-46553839D01*
X31195966Y-46553838D01*
X31051329Y-46448752D01*
X30888003Y-46376035D01*
X30888001Y-46376034D01*
X30760330Y-46348897D01*
X30713127Y-46338864D01*
X30534345Y-46338864D01*
X30503690Y-46345379D01*
X30359469Y-46376034D01*
X30274346Y-46413934D01*
X30205096Y-46423218D01*
X30141820Y-46393590D01*
X30104607Y-46334455D01*
X30101610Y-46299479D01*
X30100035Y-46299479D01*
X30100035Y-46292982D01*
X30098115Y-46274711D01*
X30081347Y-46115177D01*
X30035476Y-45974000D01*
X30026102Y-45945150D01*
X30026099Y-45945144D01*
X29936709Y-45790315D01*
X29872255Y-45718732D01*
X29817085Y-45657458D01*
X29817082Y-45657456D01*
X29817081Y-45657455D01*
X29817080Y-45657454D01*
X29672443Y-45552368D01*
X29509117Y-45479651D01*
X29509115Y-45479650D01*
X29381444Y-45452513D01*
X29334241Y-45442480D01*
X29155459Y-45442480D01*
X29124804Y-45448995D01*
X28980583Y-45479650D01*
X28980578Y-45479652D01*
X28817258Y-45552367D01*
X28672618Y-45657455D01*
X28552990Y-45790316D01*
X28463600Y-45945144D01*
X28463597Y-45945150D01*
X28408354Y-46115172D01*
X28408353Y-46115174D01*
X28392636Y-46264713D01*
X28389665Y-46292980D01*
X27334988Y-46292980D01*
X27326497Y-46212197D01*
X27282286Y-46076129D01*
X27271252Y-46042170D01*
X27271249Y-46042164D01*
X27181859Y-45887335D01*
X27119882Y-45818503D01*
X27079965Y-45774170D01*
X27049735Y-45711178D01*
X27058360Y-45641843D01*
X27064718Y-45629215D01*
X27089458Y-45586366D01*
X27144705Y-45416334D01*
X27163393Y-45238531D01*
X27144705Y-45060728D01*
X27104018Y-44935506D01*
X27089460Y-44890701D01*
X27089458Y-44890697D01*
X27089458Y-44890696D01*
X27087588Y-44887457D01*
X27087077Y-44885350D01*
X27086817Y-44884766D01*
X27086923Y-44884718D01*
X27071115Y-44819560D01*
X27087586Y-44763462D01*
X27131250Y-44687835D01*
X27186497Y-44517803D01*
X27205185Y-44340000D01*
X27186497Y-44162197D01*
X27131250Y-43992165D01*
X27041859Y-43837335D01*
X26986893Y-43776289D01*
X26956663Y-43713299D01*
X26965288Y-43643964D01*
X26986891Y-43610348D01*
X27101859Y-43482665D01*
X27191250Y-43327835D01*
X27246497Y-43157803D01*
X27265185Y-42980000D01*
X27246497Y-42802197D01*
X27218873Y-42717181D01*
X27191252Y-42632170D01*
X27191249Y-42632164D01*
X27180436Y-42613435D01*
X27101859Y-42477335D01*
X27028179Y-42395505D01*
X26982235Y-42344478D01*
X26982232Y-42344476D01*
X26982231Y-42344475D01*
X26982230Y-42344474D01*
X26873670Y-42265600D01*
X29040615Y-42265600D01*
X29059303Y-42443405D01*
X29059304Y-42443407D01*
X29114547Y-42613429D01*
X29114550Y-42613435D01*
X29203941Y-42768265D01*
X29221734Y-42788026D01*
X29323564Y-42901121D01*
X29323567Y-42901123D01*
X29323570Y-42901126D01*
X29468207Y-43006212D01*
X29631533Y-43078929D01*
X29806409Y-43116100D01*
X29806410Y-43116100D01*
X29884495Y-43116100D01*
X29951534Y-43135785D01*
X29997289Y-43188589D01*
X30007233Y-43257747D01*
X29991882Y-43302097D01*
X29981166Y-43320658D01*
X29968750Y-43342164D01*
X29968747Y-43342170D01*
X29913504Y-43512192D01*
X29913503Y-43512194D01*
X29894815Y-43690000D01*
X29913503Y-43867805D01*
X29913504Y-43867807D01*
X29968747Y-44037829D01*
X29968750Y-44037835D01*
X30058141Y-44192665D01*
X30079209Y-44216063D01*
X30177764Y-44325521D01*
X30177767Y-44325523D01*
X30177770Y-44325526D01*
X30322407Y-44430612D01*
X30485733Y-44503329D01*
X30660609Y-44540500D01*
X30660610Y-44540500D01*
X30839389Y-44540500D01*
X30839391Y-44540500D01*
X31014267Y-44503329D01*
X31177593Y-44430612D01*
X31322230Y-44325526D01*
X31441859Y-44192665D01*
X31531250Y-44037835D01*
X31586497Y-43867803D01*
X31602726Y-43713400D01*
X32723615Y-43713400D01*
X32742303Y-43891205D01*
X32742304Y-43891207D01*
X32797547Y-44061229D01*
X32797550Y-44061235D01*
X32886941Y-44216065D01*
X32928612Y-44262346D01*
X33006564Y-44348921D01*
X33006567Y-44348923D01*
X33006570Y-44348926D01*
X33151207Y-44454012D01*
X33314533Y-44526729D01*
X33489409Y-44563900D01*
X33489410Y-44563900D01*
X33668189Y-44563900D01*
X33668191Y-44563900D01*
X33843067Y-44526729D01*
X34006393Y-44454012D01*
X34151030Y-44348926D01*
X34270659Y-44216065D01*
X34360050Y-44061235D01*
X34415297Y-43891203D01*
X34433985Y-43713400D01*
X34415297Y-43535597D01*
X34382286Y-43433999D01*
X34360052Y-43365570D01*
X34360049Y-43365564D01*
X34270659Y-43210735D01*
X34222999Y-43157803D01*
X34151035Y-43077878D01*
X34151032Y-43077876D01*
X34151031Y-43077875D01*
X34151030Y-43077874D01*
X34006393Y-42972788D01*
X33843067Y-42900071D01*
X33843065Y-42900070D01*
X33715394Y-42872933D01*
X33668191Y-42862900D01*
X33489409Y-42862900D01*
X33458754Y-42869415D01*
X33314533Y-42900070D01*
X33314528Y-42900072D01*
X33151208Y-42972787D01*
X33006568Y-43077875D01*
X32886940Y-43210736D01*
X32797550Y-43365564D01*
X32797547Y-43365570D01*
X32742304Y-43535592D01*
X32742303Y-43535594D01*
X32723615Y-43713400D01*
X31602726Y-43713400D01*
X31605185Y-43690000D01*
X31586497Y-43512197D01*
X31533706Y-43349723D01*
X31531252Y-43342170D01*
X31531249Y-43342164D01*
X31441859Y-43187335D01*
X31395003Y-43135296D01*
X31322235Y-43054478D01*
X31322232Y-43054476D01*
X31322231Y-43054475D01*
X31322230Y-43054474D01*
X31177593Y-42949388D01*
X31014267Y-42876671D01*
X31014265Y-42876670D01*
X30886594Y-42849533D01*
X30839391Y-42839500D01*
X30761305Y-42839500D01*
X30694266Y-42819815D01*
X30648511Y-42767011D01*
X30638567Y-42697853D01*
X30653918Y-42653500D01*
X30666233Y-42632170D01*
X30677050Y-42613435D01*
X30732297Y-42443403D01*
X30750985Y-42265600D01*
X30732297Y-42087797D01*
X30704673Y-42002781D01*
X30677052Y-41917770D01*
X30677049Y-41917764D01*
X30672872Y-41910529D01*
X30587659Y-41762935D01*
X30540803Y-41710896D01*
X30468035Y-41630078D01*
X30468032Y-41630076D01*
X30468031Y-41630075D01*
X30468030Y-41630074D01*
X30323393Y-41524988D01*
X30160067Y-41452271D01*
X30160065Y-41452270D01*
X30032394Y-41425133D01*
X29985191Y-41415100D01*
X29806409Y-41415100D01*
X29775754Y-41421615D01*
X29631533Y-41452270D01*
X29631528Y-41452272D01*
X29468208Y-41524987D01*
X29323568Y-41630075D01*
X29203940Y-41762936D01*
X29114550Y-41917764D01*
X29114547Y-41917770D01*
X29059304Y-42087792D01*
X29059303Y-42087794D01*
X29040615Y-42265600D01*
X26873670Y-42265600D01*
X26837593Y-42239388D01*
X26674267Y-42166671D01*
X26674265Y-42166670D01*
X26546594Y-42139533D01*
X26499391Y-42129500D01*
X26320609Y-42129500D01*
X26289954Y-42136015D01*
X26145733Y-42166670D01*
X26145728Y-42166672D01*
X25982408Y-42239387D01*
X25837768Y-42344475D01*
X25718140Y-42477336D01*
X25641387Y-42610277D01*
X25590820Y-42658492D01*
X25522213Y-42671716D01*
X25457349Y-42645748D01*
X25416820Y-42588834D01*
X25410000Y-42548277D01*
X25410000Y-41405821D01*
X31563038Y-41405821D01*
X31581726Y-41583626D01*
X31581727Y-41583628D01*
X31636970Y-41753650D01*
X31636973Y-41753656D01*
X31726364Y-41908486D01*
X31761673Y-41947700D01*
X31845987Y-42041342D01*
X31845990Y-42041344D01*
X31845993Y-42041347D01*
X31990630Y-42146433D01*
X32153956Y-42219150D01*
X32328832Y-42256321D01*
X32328833Y-42256321D01*
X32507612Y-42256321D01*
X32507614Y-42256321D01*
X32682490Y-42219150D01*
X32832189Y-42152500D01*
X33944815Y-42152500D01*
X33946305Y-42166672D01*
X33963503Y-42330305D01*
X33963504Y-42330307D01*
X34018747Y-42500329D01*
X34018750Y-42500335D01*
X34108141Y-42655165D01*
X34111137Y-42658492D01*
X34227764Y-42788021D01*
X34227767Y-42788023D01*
X34227770Y-42788026D01*
X34372407Y-42893112D01*
X34535733Y-42965829D01*
X34710609Y-43003000D01*
X34710610Y-43003000D01*
X34889389Y-43003000D01*
X34889391Y-43003000D01*
X35064267Y-42965829D01*
X35227593Y-42893112D01*
X35372230Y-42788026D01*
X35491859Y-42655165D01*
X35581250Y-42500335D01*
X35636497Y-42330303D01*
X35655185Y-42152500D01*
X35636497Y-41974697D01*
X35581250Y-41804665D01*
X35491859Y-41649835D01*
X35432242Y-41583624D01*
X35372235Y-41516978D01*
X35372232Y-41516976D01*
X35372231Y-41516975D01*
X35372230Y-41516974D01*
X35227593Y-41411888D01*
X35064267Y-41339171D01*
X35064265Y-41339170D01*
X34936594Y-41312033D01*
X34889391Y-41302000D01*
X34710609Y-41302000D01*
X34679954Y-41308515D01*
X34535733Y-41339170D01*
X34535728Y-41339172D01*
X34372408Y-41411887D01*
X34227768Y-41516975D01*
X34108140Y-41649836D01*
X34018750Y-41804664D01*
X34018747Y-41804670D01*
X33963504Y-41974692D01*
X33963503Y-41974694D01*
X33947232Y-42129500D01*
X33944815Y-42152500D01*
X32832189Y-42152500D01*
X32845816Y-42146433D01*
X32990453Y-42041347D01*
X33110082Y-41908486D01*
X33199473Y-41753656D01*
X33254720Y-41583624D01*
X33273408Y-41405821D01*
X33254720Y-41228018D01*
X33218708Y-41117185D01*
X33199475Y-41057991D01*
X33199472Y-41057985D01*
X33110082Y-40903156D01*
X33063226Y-40851117D01*
X32990458Y-40770299D01*
X32990455Y-40770297D01*
X32990454Y-40770296D01*
X32990453Y-40770295D01*
X32845816Y-40665209D01*
X32682490Y-40592492D01*
X32682488Y-40592491D01*
X32554817Y-40565354D01*
X32507614Y-40555321D01*
X32328832Y-40555321D01*
X32298177Y-40561836D01*
X32153956Y-40592491D01*
X32153951Y-40592493D01*
X31990631Y-40665208D01*
X31845991Y-40770296D01*
X31726363Y-40903157D01*
X31636973Y-41057985D01*
X31636970Y-41057991D01*
X31581727Y-41228013D01*
X31581726Y-41228015D01*
X31563038Y-41405821D01*
X25410000Y-41405821D01*
X25410000Y-38129999D01*
X29384815Y-38129999D01*
X29403503Y-38307805D01*
X29403504Y-38307807D01*
X29458747Y-38477829D01*
X29458750Y-38477835D01*
X29548141Y-38632665D01*
X29588005Y-38676938D01*
X29667764Y-38765521D01*
X29667767Y-38765523D01*
X29667770Y-38765526D01*
X29812407Y-38870612D01*
X29975733Y-38943329D01*
X29975735Y-38943329D01*
X29975736Y-38943330D01*
X30028935Y-38954637D01*
X30073939Y-38964203D01*
X30135421Y-38997395D01*
X30166090Y-39047175D01*
X30216582Y-39202574D01*
X30216585Y-39202581D01*
X30305976Y-39357411D01*
X30337936Y-39392906D01*
X30425599Y-39490267D01*
X30425602Y-39490269D01*
X30425605Y-39490272D01*
X30570242Y-39595358D01*
X30733568Y-39668075D01*
X30908444Y-39705246D01*
X30908445Y-39705246D01*
X31087224Y-39705246D01*
X31087226Y-39705246D01*
X31262102Y-39668075D01*
X31425428Y-39595358D01*
X31570065Y-39490272D01*
X31573355Y-39486619D01*
X31610198Y-39445700D01*
X31689694Y-39357411D01*
X31779085Y-39202581D01*
X31834332Y-39032549D01*
X31853020Y-38854746D01*
X31851113Y-38836600D01*
X33358615Y-38836600D01*
X33377303Y-39014405D01*
X33377304Y-39014407D01*
X33432547Y-39184429D01*
X33432550Y-39184435D01*
X33521941Y-39339265D01*
X33549618Y-39370003D01*
X33641564Y-39472121D01*
X33641567Y-39472123D01*
X33641570Y-39472126D01*
X33786207Y-39577212D01*
X33949533Y-39649929D01*
X34124409Y-39687100D01*
X34124410Y-39687100D01*
X34303189Y-39687100D01*
X34303191Y-39687100D01*
X34478067Y-39649929D01*
X34641393Y-39577212D01*
X34786030Y-39472126D01*
X34905659Y-39339265D01*
X34995050Y-39184435D01*
X35050297Y-39014403D01*
X35066862Y-38856800D01*
X38184615Y-38856800D01*
X38203303Y-39034605D01*
X38203304Y-39034607D01*
X38258547Y-39204629D01*
X38258550Y-39204635D01*
X38347941Y-39359465D01*
X38389612Y-39405746D01*
X38467564Y-39492321D01*
X38467567Y-39492323D01*
X38467570Y-39492326D01*
X38612207Y-39597412D01*
X38775533Y-39670129D01*
X38950409Y-39707300D01*
X38950410Y-39707300D01*
X39129189Y-39707300D01*
X39129191Y-39707300D01*
X39304067Y-39670129D01*
X39467393Y-39597412D01*
X39612030Y-39492326D01*
X39613880Y-39490272D01*
X39654012Y-39445700D01*
X39694219Y-39401046D01*
X39753702Y-39364399D01*
X39823559Y-39365728D01*
X39881608Y-39404614D01*
X39904298Y-39445700D01*
X39934948Y-39540031D01*
X39934950Y-39540035D01*
X40024341Y-39694865D01*
X40035538Y-39707300D01*
X40143964Y-39827721D01*
X40143967Y-39827723D01*
X40143970Y-39827726D01*
X40288607Y-39932812D01*
X40451933Y-40005529D01*
X40620889Y-40041441D01*
X40682370Y-40074633D01*
X40716146Y-40135796D01*
X40718425Y-40149754D01*
X40719003Y-40155246D01*
X40719004Y-40155249D01*
X40774247Y-40325272D01*
X40774250Y-40325278D01*
X40863641Y-40480108D01*
X40909436Y-40530968D01*
X40951276Y-40577437D01*
X40981506Y-40640429D01*
X40972881Y-40709764D01*
X40966514Y-40722408D01*
X40950949Y-40749367D01*
X40950947Y-40749370D01*
X40895704Y-40919392D01*
X40895703Y-40919394D01*
X40877015Y-41097199D01*
X40895703Y-41275005D01*
X40895704Y-41275007D01*
X40950947Y-41445029D01*
X40950950Y-41445035D01*
X41040341Y-41599865D01*
X41067543Y-41630076D01*
X41159964Y-41732721D01*
X41159967Y-41732723D01*
X41159970Y-41732726D01*
X41304607Y-41837812D01*
X41467933Y-41910529D01*
X41642809Y-41947700D01*
X41642810Y-41947700D01*
X41821589Y-41947700D01*
X41821591Y-41947700D01*
X41996467Y-41910529D01*
X42159793Y-41837812D01*
X42304430Y-41732726D01*
X42424059Y-41599865D01*
X42513450Y-41445035D01*
X42568697Y-41275003D01*
X42578493Y-41181796D01*
X42605076Y-41117185D01*
X42662373Y-41077200D01*
X42732192Y-41074540D01*
X42745134Y-41078575D01*
X42857517Y-41120491D01*
X42917127Y-41126900D01*
X44712872Y-41126899D01*
X44772483Y-41120491D01*
X44907331Y-41070196D01*
X45022546Y-40983946D01*
X45108796Y-40868731D01*
X45159091Y-40733883D01*
X45165500Y-40674273D01*
X45165499Y-38878528D01*
X45159091Y-38818917D01*
X45139177Y-38765526D01*
X45108797Y-38684071D01*
X45108793Y-38684064D01*
X45022547Y-38568855D01*
X45022544Y-38568852D01*
X44907335Y-38482606D01*
X44907328Y-38482602D01*
X44775917Y-38433589D01*
X44719983Y-38391718D01*
X44695566Y-38326253D01*
X44710418Y-38257980D01*
X44731563Y-38229732D01*
X44853495Y-38107801D01*
X44989035Y-37914230D01*
X45088903Y-37700063D01*
X45150063Y-37471808D01*
X45170659Y-37236400D01*
X45150063Y-37000992D01*
X45088903Y-36772737D01*
X44989035Y-36558571D01*
X44899360Y-36430500D01*
X44853494Y-36364997D01*
X44686402Y-36197906D01*
X44686396Y-36197901D01*
X44500842Y-36067975D01*
X44457217Y-36013398D01*
X44450023Y-35943900D01*
X44481546Y-35881545D01*
X44500842Y-35864825D01*
X44653682Y-35757805D01*
X44686401Y-35734895D01*
X44853495Y-35567801D01*
X44989035Y-35374230D01*
X45088903Y-35160063D01*
X45150063Y-34931808D01*
X45170659Y-34696400D01*
X45150063Y-34460992D01*
X45088903Y-34232737D01*
X44989035Y-34018571D01*
X44988516Y-34017829D01*
X44853494Y-33824997D01*
X44686402Y-33657906D01*
X44686396Y-33657901D01*
X44500842Y-33527975D01*
X44457217Y-33473398D01*
X44450023Y-33403900D01*
X44481546Y-33341545D01*
X44500842Y-33324825D01*
X44527458Y-33306188D01*
X44686401Y-33194895D01*
X44853495Y-33027801D01*
X44989035Y-32834230D01*
X45088903Y-32620063D01*
X45150063Y-32391808D01*
X45170659Y-32156400D01*
X45150063Y-31920992D01*
X45088903Y-31692737D01*
X44989035Y-31478571D01*
X44987706Y-31476672D01*
X44853494Y-31284997D01*
X44686402Y-31117906D01*
X44686395Y-31117901D01*
X44492834Y-30982367D01*
X44492830Y-30982365D01*
X44374820Y-30927336D01*
X44278663Y-30882497D01*
X44278659Y-30882496D01*
X44278655Y-30882494D01*
X44050413Y-30821338D01*
X44050403Y-30821336D01*
X43815001Y-30800741D01*
X43814999Y-30800741D01*
X43579596Y-30821336D01*
X43579586Y-30821338D01*
X43351344Y-30882494D01*
X43351335Y-30882498D01*
X43137171Y-30982364D01*
X43137169Y-30982365D01*
X42943597Y-31117905D01*
X42776505Y-31284997D01*
X42640965Y-31478569D01*
X42640964Y-31478571D01*
X42541098Y-31692735D01*
X42541094Y-31692744D01*
X42479938Y-31920986D01*
X42479936Y-31920996D01*
X42459341Y-32156399D01*
X42459341Y-32156400D01*
X42479936Y-32391803D01*
X42479938Y-32391813D01*
X42541094Y-32620055D01*
X42541096Y-32620059D01*
X42541097Y-32620063D01*
X42574734Y-32692197D01*
X42640965Y-32834230D01*
X42640967Y-32834234D01*
X42707595Y-32929388D01*
X42765575Y-33012192D01*
X42776501Y-33027795D01*
X42776506Y-33027802D01*
X42943597Y-33194893D01*
X42943603Y-33194898D01*
X43129158Y-33324825D01*
X43172783Y-33379402D01*
X43179977Y-33448900D01*
X43148454Y-33511255D01*
X43129158Y-33527975D01*
X42943597Y-33657905D01*
X42776505Y-33824997D01*
X42640965Y-34018569D01*
X42640964Y-34018571D01*
X42541098Y-34232735D01*
X42541094Y-34232744D01*
X42479938Y-34460986D01*
X42479936Y-34460996D01*
X42459341Y-34696399D01*
X42459341Y-34696400D01*
X42479936Y-34931803D01*
X42479938Y-34931813D01*
X42541094Y-35160055D01*
X42541096Y-35160059D01*
X42541097Y-35160063D01*
X42592887Y-35271126D01*
X42640965Y-35374230D01*
X42640967Y-35374234D01*
X42776501Y-35567795D01*
X42776506Y-35567802D01*
X42943597Y-35734893D01*
X42943603Y-35734898D01*
X43129158Y-35864825D01*
X43172783Y-35919402D01*
X43179977Y-35988900D01*
X43148454Y-36051255D01*
X43129158Y-36067975D01*
X42943597Y-36197905D01*
X42776505Y-36364997D01*
X42640965Y-36558569D01*
X42640964Y-36558571D01*
X42541098Y-36772735D01*
X42541094Y-36772744D01*
X42479938Y-37000986D01*
X42479936Y-37000996D01*
X42459341Y-37236399D01*
X42459341Y-37236400D01*
X42479936Y-37471803D01*
X42479938Y-37471813D01*
X42541094Y-37700055D01*
X42541096Y-37700059D01*
X42541097Y-37700063D01*
X42640964Y-37914229D01*
X42640965Y-37914230D01*
X42640967Y-37914234D01*
X42731461Y-38043472D01*
X42776501Y-38107796D01*
X42776506Y-38107802D01*
X42898430Y-38229726D01*
X42931915Y-38291049D01*
X42926931Y-38360741D01*
X42885059Y-38416674D01*
X42854083Y-38433589D01*
X42722669Y-38482603D01*
X42722664Y-38482606D01*
X42607455Y-38568852D01*
X42607452Y-38568855D01*
X42521206Y-38684064D01*
X42521202Y-38684071D01*
X42470908Y-38818917D01*
X42466836Y-38856800D01*
X42464501Y-38878523D01*
X42464500Y-38878535D01*
X42464500Y-39392906D01*
X42444815Y-39459945D01*
X42392011Y-39505700D01*
X42322853Y-39515644D01*
X42259297Y-39486619D01*
X42248350Y-39475878D01*
X42127735Y-39341921D01*
X42127732Y-39341919D01*
X42127731Y-39341918D01*
X42127730Y-39341917D01*
X41983093Y-39236831D01*
X41819767Y-39164114D01*
X41819765Y-39164113D01*
X41650811Y-39128201D01*
X41589329Y-39095009D01*
X41555553Y-39033845D01*
X41553274Y-39019894D01*
X41552697Y-39014397D01*
X41508549Y-38878523D01*
X41497452Y-38844370D01*
X41497449Y-38844364D01*
X41408059Y-38689535D01*
X41330411Y-38603298D01*
X41288435Y-38556678D01*
X41288432Y-38556676D01*
X41288431Y-38556675D01*
X41288430Y-38556674D01*
X41143793Y-38451588D01*
X40980467Y-38378871D01*
X40980465Y-38378870D01*
X40852794Y-38351733D01*
X40805591Y-38341700D01*
X40626809Y-38341700D01*
X40596154Y-38348215D01*
X40451933Y-38378870D01*
X40451928Y-38378872D01*
X40288608Y-38451587D01*
X40143968Y-38556675D01*
X40061781Y-38647953D01*
X40002295Y-38684601D01*
X39932438Y-38683270D01*
X39874390Y-38644383D01*
X39851701Y-38603298D01*
X39821052Y-38508971D01*
X39821051Y-38508970D01*
X39821050Y-38508965D01*
X39731659Y-38354135D01*
X39660311Y-38274895D01*
X39612035Y-38221278D01*
X39612032Y-38221276D01*
X39612031Y-38221275D01*
X39612030Y-38221274D01*
X39467393Y-38116188D01*
X39304067Y-38043471D01*
X39304065Y-38043470D01*
X39176394Y-38016333D01*
X39129191Y-38006300D01*
X38950409Y-38006300D01*
X38919754Y-38012815D01*
X38775533Y-38043470D01*
X38775528Y-38043472D01*
X38612208Y-38116187D01*
X38467568Y-38221275D01*
X38347940Y-38354136D01*
X38258550Y-38508964D01*
X38258547Y-38508970D01*
X38203304Y-38678992D01*
X38203303Y-38678994D01*
X38184615Y-38856800D01*
X35066862Y-38856800D01*
X35068985Y-38836600D01*
X35050297Y-38658797D01*
X35017115Y-38556674D01*
X34995052Y-38488770D01*
X34995049Y-38488764D01*
X34991492Y-38482603D01*
X34905659Y-38333935D01*
X34837269Y-38257980D01*
X34786035Y-38201078D01*
X34786032Y-38201076D01*
X34786031Y-38201075D01*
X34786030Y-38201074D01*
X34641393Y-38095988D01*
X34478067Y-38023271D01*
X34478065Y-38023270D01*
X34350394Y-37996133D01*
X34303191Y-37986100D01*
X34124409Y-37986100D01*
X34093754Y-37992615D01*
X33949533Y-38023270D01*
X33949528Y-38023272D01*
X33786208Y-38095987D01*
X33641568Y-38201075D01*
X33521940Y-38333936D01*
X33432550Y-38488764D01*
X33432547Y-38488770D01*
X33377304Y-38658792D01*
X33377303Y-38658794D01*
X33358615Y-38836600D01*
X31851113Y-38836600D01*
X31834332Y-38676943D01*
X31799211Y-38568852D01*
X31779087Y-38506916D01*
X31779084Y-38506910D01*
X31768608Y-38488765D01*
X31689694Y-38352081D01*
X31642838Y-38300042D01*
X31570070Y-38219224D01*
X31570067Y-38219222D01*
X31570066Y-38219221D01*
X31570065Y-38219220D01*
X31425428Y-38114134D01*
X31262102Y-38041417D01*
X31262100Y-38041416D01*
X31163894Y-38020542D01*
X31102412Y-37987350D01*
X31071744Y-37937570D01*
X31064160Y-37914230D01*
X31021250Y-37782165D01*
X30931859Y-37627335D01*
X30885003Y-37575296D01*
X30812235Y-37494478D01*
X30812232Y-37494476D01*
X30812231Y-37494475D01*
X30812230Y-37494474D01*
X30667593Y-37389388D01*
X30504267Y-37316671D01*
X30504265Y-37316670D01*
X30376594Y-37289533D01*
X30329391Y-37279500D01*
X30150609Y-37279500D01*
X30119954Y-37286015D01*
X29975733Y-37316670D01*
X29975728Y-37316672D01*
X29812408Y-37389387D01*
X29667768Y-37494475D01*
X29548140Y-37627336D01*
X29458750Y-37782164D01*
X29458747Y-37782170D01*
X29403504Y-37952192D01*
X29403503Y-37952194D01*
X29384815Y-38129999D01*
X25410000Y-38129999D01*
X25410000Y-34635600D01*
X27114815Y-34635600D01*
X27133503Y-34813405D01*
X27133504Y-34813407D01*
X27188747Y-34983429D01*
X27188750Y-34983435D01*
X27278141Y-35138265D01*
X27297761Y-35160055D01*
X27397764Y-35271121D01*
X27397767Y-35271123D01*
X27397770Y-35271126D01*
X27542407Y-35376212D01*
X27705733Y-35448929D01*
X27880609Y-35486100D01*
X27880610Y-35486100D01*
X28059389Y-35486100D01*
X28059391Y-35486100D01*
X28234267Y-35448929D01*
X28397593Y-35376212D01*
X28542230Y-35271126D01*
X28661859Y-35138265D01*
X28751250Y-34983435D01*
X28806497Y-34813403D01*
X28817418Y-34709499D01*
X30844815Y-34709499D01*
X30863503Y-34887305D01*
X30863504Y-34887307D01*
X30918747Y-35057329D01*
X30918750Y-35057335D01*
X31008141Y-35212165D01*
X31026151Y-35232167D01*
X31127764Y-35345021D01*
X31127767Y-35345023D01*
X31127770Y-35345026D01*
X31272407Y-35450112D01*
X31435733Y-35522829D01*
X31610609Y-35560000D01*
X31610610Y-35560000D01*
X31789389Y-35560000D01*
X31789391Y-35560000D01*
X31964267Y-35522829D01*
X32127593Y-35450112D01*
X32272230Y-35345026D01*
X32391859Y-35212165D01*
X32481250Y-35057335D01*
X32536497Y-34887303D01*
X32555185Y-34709500D01*
X32536497Y-34531697D01*
X32481250Y-34361665D01*
X32391859Y-34206835D01*
X32325319Y-34132935D01*
X32304668Y-34109999D01*
X34144815Y-34109999D01*
X34163503Y-34287805D01*
X34163504Y-34287807D01*
X34218747Y-34457829D01*
X34218750Y-34457835D01*
X34308141Y-34612665D01*
X34312603Y-34617620D01*
X34427764Y-34745521D01*
X34427767Y-34745523D01*
X34427770Y-34745526D01*
X34572407Y-34850612D01*
X34735733Y-34923329D01*
X34910609Y-34960500D01*
X34910610Y-34960500D01*
X35089389Y-34960500D01*
X35089391Y-34960500D01*
X35264267Y-34923329D01*
X35323182Y-34897098D01*
X35392428Y-34887813D01*
X35455705Y-34917441D01*
X35492919Y-34976576D01*
X35492255Y-35046442D01*
X35481003Y-35072377D01*
X35388749Y-35232167D01*
X35388747Y-35232170D01*
X35333504Y-35402192D01*
X35333503Y-35402194D01*
X35314815Y-35580000D01*
X35333503Y-35757805D01*
X35333504Y-35757807D01*
X35388747Y-35927829D01*
X35388750Y-35927835D01*
X35478141Y-36082665D01*
X35519812Y-36128946D01*
X35597764Y-36215521D01*
X35597767Y-36215523D01*
X35597770Y-36215526D01*
X35742407Y-36320612D01*
X35905733Y-36393329D01*
X36080609Y-36430500D01*
X36080610Y-36430500D01*
X36259389Y-36430500D01*
X36259391Y-36430500D01*
X36434267Y-36393329D01*
X36597593Y-36320612D01*
X36742230Y-36215526D01*
X36861859Y-36082665D01*
X36951250Y-35927835D01*
X37006497Y-35757803D01*
X37025185Y-35580000D01*
X37006497Y-35402197D01*
X36951250Y-35232165D01*
X36861859Y-35077335D01*
X36777311Y-34983435D01*
X36742235Y-34944478D01*
X36742232Y-34944476D01*
X36742231Y-34944475D01*
X36742230Y-34944474D01*
X36597593Y-34839388D01*
X36434267Y-34766671D01*
X36434265Y-34766670D01*
X36306594Y-34739533D01*
X36259391Y-34729500D01*
X36080609Y-34729500D01*
X36049954Y-34736015D01*
X35905733Y-34766670D01*
X35905728Y-34766672D01*
X35846819Y-34792900D01*
X35777569Y-34802184D01*
X35714293Y-34772555D01*
X35677080Y-34713420D01*
X35677746Y-34643553D01*
X35688998Y-34617620D01*
X35728347Y-34549465D01*
X35781250Y-34457835D01*
X35836497Y-34287803D01*
X35855185Y-34110000D01*
X35836497Y-33932197D01*
X35801666Y-33824999D01*
X35781252Y-33762170D01*
X35781249Y-33762164D01*
X35763066Y-33730670D01*
X35728038Y-33669999D01*
X36484815Y-33669999D01*
X36503503Y-33847805D01*
X36503504Y-33847807D01*
X36558747Y-34017829D01*
X36558750Y-34017835D01*
X36648141Y-34172665D01*
X36678908Y-34206835D01*
X36767764Y-34305521D01*
X36767767Y-34305523D01*
X36767770Y-34305526D01*
X36912407Y-34410612D01*
X37075733Y-34483329D01*
X37250609Y-34520500D01*
X37250610Y-34520500D01*
X37429389Y-34520500D01*
X37429391Y-34520500D01*
X37604267Y-34483329D01*
X37767593Y-34410612D01*
X37912230Y-34305526D01*
X37928185Y-34287807D01*
X37977763Y-34232744D01*
X38031859Y-34172665D01*
X38121250Y-34017835D01*
X38176497Y-33847803D01*
X38195185Y-33670000D01*
X38176497Y-33492197D01*
X38136594Y-33369388D01*
X38121252Y-33322170D01*
X38121249Y-33322164D01*
X38112026Y-33306189D01*
X38031859Y-33167335D01*
X37967199Y-33095523D01*
X37912235Y-33034478D01*
X37912232Y-33034476D01*
X37912231Y-33034475D01*
X37912230Y-33034474D01*
X37767593Y-32929388D01*
X37604267Y-32856671D01*
X37604265Y-32856670D01*
X37476594Y-32829533D01*
X37429391Y-32819500D01*
X37250609Y-32819500D01*
X37219954Y-32826015D01*
X37075733Y-32856670D01*
X37075728Y-32856672D01*
X36912408Y-32929387D01*
X36767768Y-33034475D01*
X36648140Y-33167336D01*
X36558750Y-33322164D01*
X36558747Y-33322170D01*
X36503504Y-33492192D01*
X36503503Y-33492194D01*
X36484815Y-33669999D01*
X35728038Y-33669999D01*
X35691859Y-33607335D01*
X35629281Y-33537835D01*
X35572235Y-33474478D01*
X35572232Y-33474476D01*
X35572231Y-33474475D01*
X35572230Y-33474474D01*
X35427593Y-33369388D01*
X35264267Y-33296671D01*
X35264265Y-33296670D01*
X35118127Y-33265608D01*
X35089391Y-33259500D01*
X34910609Y-33259500D01*
X34881873Y-33265608D01*
X34735733Y-33296670D01*
X34735728Y-33296672D01*
X34572408Y-33369387D01*
X34427768Y-33474475D01*
X34308140Y-33607336D01*
X34218750Y-33762164D01*
X34218747Y-33762170D01*
X34163504Y-33932192D01*
X34163503Y-33932194D01*
X34144815Y-34109999D01*
X32304668Y-34109999D01*
X32272235Y-34073978D01*
X32272232Y-34073976D01*
X32272231Y-34073975D01*
X32272230Y-34073974D01*
X32175577Y-34003750D01*
X32132913Y-33948422D01*
X32126934Y-33878808D01*
X32159540Y-33817013D01*
X32175575Y-33803118D01*
X32277691Y-33728927D01*
X32288193Y-33717264D01*
X32304670Y-33698964D01*
X32397320Y-33596066D01*
X32486711Y-33441236D01*
X32541958Y-33271204D01*
X32560646Y-33093401D01*
X32560362Y-33090707D01*
X32560646Y-33089159D01*
X32560646Y-33086902D01*
X32561059Y-33086902D01*
X32572930Y-33021977D01*
X32610797Y-32977425D01*
X32682230Y-32925526D01*
X32801859Y-32792665D01*
X32891250Y-32637835D01*
X32946497Y-32467803D01*
X32965185Y-32290000D01*
X32946497Y-32112197D01*
X32918873Y-32027181D01*
X32891252Y-31942170D01*
X32891249Y-31942164D01*
X32879028Y-31920996D01*
X32801859Y-31787335D01*
X32716689Y-31692744D01*
X32682235Y-31654478D01*
X32682232Y-31654476D01*
X32682231Y-31654475D01*
X32682230Y-31654474D01*
X32537593Y-31549388D01*
X32374267Y-31476671D01*
X32374265Y-31476670D01*
X32246594Y-31449533D01*
X32199391Y-31439500D01*
X32020609Y-31439500D01*
X31989954Y-31446015D01*
X31845733Y-31476670D01*
X31845728Y-31476672D01*
X31682408Y-31549387D01*
X31537768Y-31654475D01*
X31418140Y-31787336D01*
X31328750Y-31942164D01*
X31328747Y-31942170D01*
X31273504Y-32112192D01*
X31273503Y-32112194D01*
X31273503Y-32112197D01*
X31255636Y-32282194D01*
X31254815Y-32290001D01*
X31255099Y-32292704D01*
X31254815Y-32294256D01*
X31254815Y-32296498D01*
X31254405Y-32296498D01*
X31242525Y-32361433D01*
X31204664Y-32405974D01*
X31133230Y-32457875D01*
X31013601Y-32590737D01*
X30924211Y-32745565D01*
X30924208Y-32745571D01*
X30868965Y-32915593D01*
X30868964Y-32915595D01*
X30850276Y-33093401D01*
X30868964Y-33271206D01*
X30868965Y-33271208D01*
X30924208Y-33441230D01*
X30924211Y-33441236D01*
X31013602Y-33596066D01*
X31054878Y-33641907D01*
X31133225Y-33728922D01*
X31133228Y-33728924D01*
X31133231Y-33728927D01*
X31229883Y-33799149D01*
X31272547Y-33854478D01*
X31278526Y-33924092D01*
X31245920Y-33985887D01*
X31229883Y-33999783D01*
X31127769Y-34073974D01*
X31008140Y-34206836D01*
X30918750Y-34361664D01*
X30918747Y-34361670D01*
X30863504Y-34531692D01*
X30863503Y-34531694D01*
X30844815Y-34709499D01*
X28817418Y-34709499D01*
X28825185Y-34635600D01*
X28806497Y-34457797D01*
X28757020Y-34305523D01*
X28751252Y-34287770D01*
X28751249Y-34287764D01*
X28661859Y-34132935D01*
X28639709Y-34108335D01*
X28609479Y-34045344D01*
X28618104Y-33976008D01*
X28662846Y-33922343D01*
X28729498Y-33901385D01*
X28796900Y-33919790D01*
X28804741Y-33925042D01*
X28812407Y-33930612D01*
X28975733Y-34003329D01*
X29150609Y-34040500D01*
X29150610Y-34040500D01*
X29329389Y-34040500D01*
X29329391Y-34040500D01*
X29504267Y-34003329D01*
X29667593Y-33930612D01*
X29812230Y-33825526D01*
X29812707Y-33824997D01*
X29869276Y-33762170D01*
X29931859Y-33692665D01*
X30021250Y-33537835D01*
X30076497Y-33367803D01*
X30095185Y-33190000D01*
X30076497Y-33012197D01*
X30025964Y-32856672D01*
X30021252Y-32842170D01*
X30021249Y-32842164D01*
X30016671Y-32834234D01*
X29931859Y-32687335D01*
X29871280Y-32620055D01*
X29812235Y-32554478D01*
X29812232Y-32554476D01*
X29812231Y-32554475D01*
X29812230Y-32554474D01*
X29667593Y-32449388D01*
X29504267Y-32376671D01*
X29504265Y-32376670D01*
X29376594Y-32349533D01*
X29329391Y-32339500D01*
X29150609Y-32339500D01*
X29119954Y-32346015D01*
X28975733Y-32376670D01*
X28975728Y-32376672D01*
X28812408Y-32449387D01*
X28667768Y-32554475D01*
X28548140Y-32687336D01*
X28458750Y-32842164D01*
X28458747Y-32842170D01*
X28403504Y-33012192D01*
X28403503Y-33012194D01*
X28392802Y-33114008D01*
X28384815Y-33190000D01*
X28385330Y-33194898D01*
X28403503Y-33367805D01*
X28403504Y-33367807D01*
X28458747Y-33537829D01*
X28458750Y-33537835D01*
X28548141Y-33692665D01*
X28567476Y-33714138D01*
X28570290Y-33717264D01*
X28600520Y-33780256D01*
X28591895Y-33849591D01*
X28547153Y-33903256D01*
X28480501Y-33924214D01*
X28413099Y-33905809D01*
X28405256Y-33900555D01*
X28397596Y-33894990D01*
X28397597Y-33894990D01*
X28397593Y-33894988D01*
X28234267Y-33822271D01*
X28234265Y-33822270D01*
X28106594Y-33795133D01*
X28059391Y-33785100D01*
X27880609Y-33785100D01*
X27849954Y-33791615D01*
X27705733Y-33822270D01*
X27705728Y-33822272D01*
X27542408Y-33894987D01*
X27397768Y-34000075D01*
X27278140Y-34132936D01*
X27188750Y-34287764D01*
X27188747Y-34287770D01*
X27133504Y-34457792D01*
X27133503Y-34457794D01*
X27114815Y-34635600D01*
X25410000Y-34635600D01*
X25410000Y-31430000D01*
X26246615Y-31430000D01*
X26251520Y-31476670D01*
X26265303Y-31607805D01*
X26265304Y-31607807D01*
X26320547Y-31777829D01*
X26320552Y-31777840D01*
X26405366Y-31924743D01*
X26421839Y-31992643D01*
X26405367Y-32048741D01*
X26368749Y-32112165D01*
X26313504Y-32282192D01*
X26313503Y-32282194D01*
X26294815Y-32459999D01*
X26313503Y-32637805D01*
X26313504Y-32637807D01*
X26368747Y-32807829D01*
X26368750Y-32807835D01*
X26458141Y-32962665D01*
X26499812Y-33008946D01*
X26577764Y-33095521D01*
X26577767Y-33095523D01*
X26577770Y-33095526D01*
X26722407Y-33200612D01*
X26885733Y-33273329D01*
X27060609Y-33310500D01*
X27060610Y-33310500D01*
X27239389Y-33310500D01*
X27239391Y-33310500D01*
X27414267Y-33273329D01*
X27577593Y-33200612D01*
X27722230Y-33095526D01*
X27724144Y-33093401D01*
X27748148Y-33066741D01*
X27841859Y-32962665D01*
X27931250Y-32807835D01*
X27986497Y-32637803D01*
X28005185Y-32460000D01*
X27986497Y-32282197D01*
X27936846Y-32129388D01*
X27931252Y-32112170D01*
X27931249Y-32112164D01*
X27899210Y-32056671D01*
X27858898Y-31986848D01*
X27846433Y-31965257D01*
X27829960Y-31897356D01*
X27846433Y-31841256D01*
X27883050Y-31777835D01*
X27938297Y-31607803D01*
X27956985Y-31430000D01*
X27938297Y-31252197D01*
X27894663Y-31117905D01*
X27883052Y-31082170D01*
X27883049Y-31082164D01*
X27865745Y-31052192D01*
X27793659Y-30927335D01*
X27698219Y-30821338D01*
X27674035Y-30794478D01*
X27674032Y-30794476D01*
X27674031Y-30794475D01*
X27674030Y-30794474D01*
X27529393Y-30689388D01*
X27366067Y-30616671D01*
X27366065Y-30616670D01*
X27230616Y-30587880D01*
X27191191Y-30579500D01*
X27012409Y-30579500D01*
X26981754Y-30586015D01*
X26837533Y-30616670D01*
X26837528Y-30616672D01*
X26674208Y-30689387D01*
X26529568Y-30794475D01*
X26409940Y-30927336D01*
X26320550Y-31082164D01*
X26320547Y-31082170D01*
X26265304Y-31252192D01*
X26265303Y-31252194D01*
X26246615Y-31429999D01*
X26246615Y-31430000D01*
X25410000Y-31430000D01*
X25410000Y-27940007D01*
X25684671Y-27940007D01*
X25703964Y-28234363D01*
X25703965Y-28234373D01*
X25703966Y-28234380D01*
X25703968Y-28234390D01*
X25761518Y-28523716D01*
X25761521Y-28523730D01*
X25856349Y-28803080D01*
X25986825Y-29067660D01*
X25986829Y-29067667D01*
X26150725Y-29312955D01*
X26345241Y-29534758D01*
X26567043Y-29729273D01*
X26812335Y-29893172D01*
X27076923Y-30023652D01*
X27356278Y-30118481D01*
X27645620Y-30176034D01*
X27673888Y-30177886D01*
X27939993Y-30195329D01*
X27940000Y-30195329D01*
X27940007Y-30195329D01*
X28175675Y-30179881D01*
X28234380Y-30176034D01*
X28523722Y-30118481D01*
X28803077Y-30023652D01*
X29067665Y-29893172D01*
X29312957Y-29729273D01*
X29534758Y-29534758D01*
X29729273Y-29312957D01*
X29893172Y-29067665D01*
X29919850Y-29013566D01*
X29967153Y-28962149D01*
X30034748Y-28944467D01*
X30101173Y-28966136D01*
X30145337Y-29020277D01*
X30154679Y-29058683D01*
X30164317Y-29181151D01*
X30223126Y-29426110D01*
X30319533Y-29658859D01*
X30451160Y-29873653D01*
X30451161Y-29873656D01*
X30467831Y-29893174D01*
X30614776Y-30065224D01*
X30744514Y-30176031D01*
X30806343Y-30228838D01*
X30806346Y-30228839D01*
X31021140Y-30360466D01*
X31206705Y-30437329D01*
X31253889Y-30456873D01*
X31498852Y-30515683D01*
X31750000Y-30535449D01*
X32001148Y-30515683D01*
X32246111Y-30456873D01*
X32478859Y-30360466D01*
X32693659Y-30228836D01*
X32885224Y-30065224D01*
X32925710Y-30017819D01*
X32984216Y-29979627D01*
X33054084Y-29979128D01*
X33113130Y-30016482D01*
X33114235Y-30017756D01*
X33154772Y-30065219D01*
X33154776Y-30065224D01*
X33346343Y-30228838D01*
X33346346Y-30228839D01*
X33561140Y-30360466D01*
X33746705Y-30437329D01*
X33793889Y-30456873D01*
X34038852Y-30515683D01*
X34290000Y-30535449D01*
X34541148Y-30515683D01*
X34786111Y-30456873D01*
X35018859Y-30360466D01*
X35233659Y-30228836D01*
X35425224Y-30065224D01*
X35465710Y-30017819D01*
X35524216Y-29979627D01*
X35594084Y-29979128D01*
X35653130Y-30016482D01*
X35654235Y-30017756D01*
X35694772Y-30065219D01*
X35694776Y-30065224D01*
X35886343Y-30228838D01*
X35886346Y-30228839D01*
X36101140Y-30360466D01*
X36286705Y-30437329D01*
X36333889Y-30456873D01*
X36578852Y-30515683D01*
X36830000Y-30535449D01*
X37081148Y-30515683D01*
X37326111Y-30456873D01*
X37558859Y-30360466D01*
X37773659Y-30228836D01*
X37965224Y-30065224D01*
X38005709Y-30017820D01*
X38064215Y-29979628D01*
X38134083Y-29979128D01*
X38193130Y-30016481D01*
X38194211Y-30017728D01*
X38234772Y-30065219D01*
X38234776Y-30065224D01*
X38426343Y-30228838D01*
X38426346Y-30228839D01*
X38641141Y-30360466D01*
X38641144Y-30360468D01*
X38826705Y-30437329D01*
X38881109Y-30481170D01*
X38903174Y-30547464D01*
X38885895Y-30615163D01*
X38871403Y-30634862D01*
X38788140Y-30727335D01*
X38698750Y-30882164D01*
X38698747Y-30882170D01*
X38643504Y-31052192D01*
X38643503Y-31052194D01*
X38624815Y-31229999D01*
X38624815Y-31230000D01*
X38627148Y-31252194D01*
X38643503Y-31407805D01*
X38643504Y-31407807D01*
X38698747Y-31577829D01*
X38698750Y-31577835D01*
X38788141Y-31732665D01*
X38828807Y-31777829D01*
X38907764Y-31865521D01*
X38907767Y-31865523D01*
X38907770Y-31865526D01*
X38998600Y-31931519D01*
X39041265Y-31986848D01*
X39047244Y-32056462D01*
X39014638Y-32118257D01*
X38998600Y-32132154D01*
X38857768Y-32234475D01*
X38738140Y-32367336D01*
X38648750Y-32522164D01*
X38648747Y-32522170D01*
X38593504Y-32692192D01*
X38593503Y-32692194D01*
X38574815Y-32869999D01*
X38593503Y-33047805D01*
X38593504Y-33047807D01*
X38648747Y-33217829D01*
X38648750Y-33217835D01*
X38738141Y-33372665D01*
X38779812Y-33418946D01*
X38857764Y-33505521D01*
X38857767Y-33505523D01*
X38857770Y-33505526D01*
X39002407Y-33610612D01*
X39165733Y-33683329D01*
X39340609Y-33720500D01*
X39340610Y-33720500D01*
X39519389Y-33720500D01*
X39519391Y-33720500D01*
X39694267Y-33683329D01*
X39766451Y-33651190D01*
X39835698Y-33641907D01*
X39898975Y-33671535D01*
X39936188Y-33730670D01*
X39935523Y-33800537D01*
X39934815Y-33802789D01*
X39913304Y-33868992D01*
X39913303Y-33868994D01*
X39894615Y-34046800D01*
X39913303Y-34224605D01*
X39913304Y-34224607D01*
X39968547Y-34394629D01*
X39968550Y-34394635D01*
X40057941Y-34549465D01*
X40099612Y-34595746D01*
X40177564Y-34682321D01*
X40177567Y-34682323D01*
X40177570Y-34682326D01*
X40322207Y-34787412D01*
X40485533Y-34860129D01*
X40660409Y-34897300D01*
X40660410Y-34897300D01*
X40839189Y-34897300D01*
X40839191Y-34897300D01*
X41014067Y-34860129D01*
X41177393Y-34787412D01*
X41322030Y-34682326D01*
X41441659Y-34549465D01*
X41531050Y-34394635D01*
X41586297Y-34224603D01*
X41604985Y-34046800D01*
X41586297Y-33868997D01*
X41540786Y-33728928D01*
X41531052Y-33698970D01*
X41531049Y-33698964D01*
X41441659Y-33544135D01*
X41394803Y-33492096D01*
X41322035Y-33411278D01*
X41322032Y-33411276D01*
X41322031Y-33411275D01*
X41322030Y-33411274D01*
X41177393Y-33306188D01*
X41014067Y-33233471D01*
X41014065Y-33233470D01*
X40859477Y-33200612D01*
X40839191Y-33196300D01*
X40660409Y-33196300D01*
X40640132Y-33200610D01*
X40485533Y-33233470D01*
X40485528Y-33233472D01*
X40413349Y-33265608D01*
X40344099Y-33274892D01*
X40280823Y-33245263D01*
X40243610Y-33186128D01*
X40244276Y-33116261D01*
X40244937Y-33114157D01*
X40266497Y-33047803D01*
X40285185Y-32870000D01*
X40266497Y-32692197D01*
X40238873Y-32607181D01*
X40211252Y-32522170D01*
X40211249Y-32522164D01*
X40175359Y-32460000D01*
X40121859Y-32367335D01*
X40058077Y-32296498D01*
X40002235Y-32234478D01*
X40002230Y-32234474D01*
X39911399Y-32168480D01*
X39868734Y-32113150D01*
X39862756Y-32043536D01*
X39895363Y-31981742D01*
X39911392Y-31967851D01*
X40052230Y-31865526D01*
X40171859Y-31732665D01*
X40261250Y-31577835D01*
X40316497Y-31407803D01*
X40335185Y-31230000D01*
X40316497Y-31052197D01*
X40275927Y-30927335D01*
X40261252Y-30882170D01*
X40261249Y-30882164D01*
X40171859Y-30727335D01*
X40088596Y-30634862D01*
X40052235Y-30594478D01*
X40052228Y-30594472D01*
X40043155Y-30587880D01*
X40000491Y-30532549D01*
X39994513Y-30462935D01*
X40027121Y-30401141D01*
X40068594Y-30373002D01*
X40098854Y-30360468D01*
X40098853Y-30360468D01*
X40098859Y-30360466D01*
X40313659Y-30228836D01*
X40505224Y-30065224D01*
X40668836Y-29873659D01*
X40800466Y-29658859D01*
X40896873Y-29426111D01*
X40955683Y-29181148D01*
X40965321Y-29058679D01*
X40990204Y-28993395D01*
X41046435Y-28951924D01*
X41116160Y-28947437D01*
X41177243Y-28981359D01*
X41200150Y-29013568D01*
X41226825Y-29067660D01*
X41226829Y-29067667D01*
X41390725Y-29312955D01*
X41585241Y-29534758D01*
X41807043Y-29729273D01*
X42052335Y-29893172D01*
X42316923Y-30023652D01*
X42596278Y-30118481D01*
X42885620Y-30176034D01*
X42913888Y-30177886D01*
X43179993Y-30195329D01*
X43180000Y-30195329D01*
X43180007Y-30195329D01*
X43415675Y-30179881D01*
X43474380Y-30176034D01*
X43763722Y-30118481D01*
X44043077Y-30023652D01*
X44307665Y-29893172D01*
X44552957Y-29729273D01*
X44774758Y-29534758D01*
X44969273Y-29312957D01*
X45133172Y-29067665D01*
X45263652Y-28803077D01*
X45358481Y-28523722D01*
X45416034Y-28234380D01*
X45427333Y-28061991D01*
X45435329Y-27940007D01*
X45435329Y-27939992D01*
X45416035Y-27645636D01*
X45416034Y-27645620D01*
X45358481Y-27356278D01*
X45263652Y-27076923D01*
X45133172Y-26812336D01*
X44969273Y-26567043D01*
X44926655Y-26518447D01*
X44774758Y-26345241D01*
X44552955Y-26150725D01*
X44307667Y-25986829D01*
X44307660Y-25986825D01*
X44043080Y-25856349D01*
X43763730Y-25761521D01*
X43763724Y-25761519D01*
X43763722Y-25761519D01*
X43474380Y-25703966D01*
X43474373Y-25703965D01*
X43474363Y-25703964D01*
X43180007Y-25684671D01*
X43179993Y-25684671D01*
X42885636Y-25703964D01*
X42885624Y-25703965D01*
X42885620Y-25703966D01*
X42885612Y-25703967D01*
X42885609Y-25703968D01*
X42596283Y-25761518D01*
X42596269Y-25761521D01*
X42316919Y-25856349D01*
X42052334Y-25986828D01*
X41807041Y-26150728D01*
X41585241Y-26345241D01*
X41390728Y-26567041D01*
X41226828Y-26812334D01*
X41096349Y-27076919D01*
X41001521Y-27356269D01*
X41001518Y-27356283D01*
X40943968Y-27645609D01*
X40943964Y-27645636D01*
X40924671Y-27939992D01*
X40924671Y-27939999D01*
X40924671Y-27940000D01*
X40924775Y-27941600D01*
X40925880Y-27958456D01*
X40910619Y-28026638D01*
X40860919Y-28075747D01*
X40792558Y-28090190D01*
X40727241Y-28065381D01*
X40696418Y-28031351D01*
X40668836Y-27986341D01*
X40505224Y-27794776D01*
X40330572Y-27645609D01*
X40313656Y-27631161D01*
X40313653Y-27631160D01*
X40098859Y-27499533D01*
X39866110Y-27403126D01*
X39621151Y-27344317D01*
X39370000Y-27324551D01*
X39118848Y-27344317D01*
X38873889Y-27403126D01*
X38641140Y-27499533D01*
X38426346Y-27631160D01*
X38426343Y-27631161D01*
X38234776Y-27794776D01*
X38194290Y-27842179D01*
X38135783Y-27880372D01*
X38065915Y-27880870D01*
X38006869Y-27843516D01*
X38005710Y-27842179D01*
X37965224Y-27794776D01*
X37790572Y-27645609D01*
X37773656Y-27631161D01*
X37773653Y-27631160D01*
X37558859Y-27499533D01*
X37326110Y-27403126D01*
X37081151Y-27344317D01*
X36830000Y-27324551D01*
X36578848Y-27344317D01*
X36333889Y-27403126D01*
X36101140Y-27499533D01*
X35886346Y-27631160D01*
X35886343Y-27631161D01*
X35694776Y-27794776D01*
X35654290Y-27842179D01*
X35595783Y-27880372D01*
X35525915Y-27880870D01*
X35466869Y-27843516D01*
X35465710Y-27842179D01*
X35425224Y-27794776D01*
X35250572Y-27645609D01*
X35233656Y-27631161D01*
X35233653Y-27631160D01*
X35018859Y-27499533D01*
X34786110Y-27403126D01*
X34541151Y-27344317D01*
X34352786Y-27329492D01*
X34290000Y-27324551D01*
X34289999Y-27324551D01*
X34038848Y-27344317D01*
X33793889Y-27403126D01*
X33561140Y-27499533D01*
X33346346Y-27631160D01*
X33346343Y-27631161D01*
X33154776Y-27794776D01*
X33114290Y-27842179D01*
X33055783Y-27880372D01*
X32985915Y-27880870D01*
X32926869Y-27843516D01*
X32925710Y-27842179D01*
X32885224Y-27794776D01*
X32710572Y-27645609D01*
X32693656Y-27631161D01*
X32693653Y-27631160D01*
X32478859Y-27499533D01*
X32246110Y-27403126D01*
X32001151Y-27344317D01*
X31812786Y-27329492D01*
X31750000Y-27324551D01*
X31749999Y-27324551D01*
X31498848Y-27344317D01*
X31253889Y-27403126D01*
X31021140Y-27499533D01*
X30806346Y-27631160D01*
X30806343Y-27631161D01*
X30614776Y-27794776D01*
X30451161Y-27986343D01*
X30451160Y-27986346D01*
X30423581Y-28031351D01*
X30371769Y-28078226D01*
X30302839Y-28089649D01*
X30238677Y-28061991D01*
X30199652Y-28004036D01*
X30194120Y-27958450D01*
X30195329Y-27940005D01*
X30195329Y-27939992D01*
X30176035Y-27645636D01*
X30176034Y-27645620D01*
X30118481Y-27356278D01*
X30023652Y-27076923D01*
X29893172Y-26812336D01*
X29729273Y-26567043D01*
X29686655Y-26518447D01*
X29534758Y-26345241D01*
X29312955Y-26150725D01*
X29067667Y-25986829D01*
X29067660Y-25986825D01*
X28803080Y-25856349D01*
X28523730Y-25761521D01*
X28523724Y-25761519D01*
X28523722Y-25761519D01*
X28234380Y-25703966D01*
X28234373Y-25703965D01*
X28234363Y-25703964D01*
X27940007Y-25684671D01*
X27939993Y-25684671D01*
X27645636Y-25703964D01*
X27645624Y-25703965D01*
X27645620Y-25703966D01*
X27645612Y-25703967D01*
X27645609Y-25703968D01*
X27356283Y-25761518D01*
X27356269Y-25761521D01*
X27076919Y-25856349D01*
X26812334Y-25986828D01*
X26567041Y-26150728D01*
X26345241Y-26345241D01*
X26150728Y-26567041D01*
X25986828Y-26812334D01*
X25856349Y-27076919D01*
X25761521Y-27356269D01*
X25761518Y-27356283D01*
X25703968Y-27645609D01*
X25703964Y-27645636D01*
X25684671Y-27939992D01*
X25684671Y-27940007D01*
X25410000Y-27940007D01*
X25410000Y-25524500D01*
X25429685Y-25457461D01*
X25482489Y-25411706D01*
X25534000Y-25400500D01*
X32515000Y-25400500D01*
X45586183Y-25419817D01*
G37*
G04 #@! TD.AperFunction*
M02*
