G04 #@! TF.GenerationSoftware,KiCad,Pcbnew,7.0.7*
G04 #@! TF.CreationDate,2023-10-16T22:19:58-07:00*
G04 #@! TF.ProjectId,DeploymentBoardV2.0,4465706c-6f79-46d6-956e-74426f617264,rev?*
G04 #@! TF.SameCoordinates,Original*
G04 #@! TF.FileFunction,Copper,L3,Inr*
G04 #@! TF.FilePolarity,Positive*
%FSLAX46Y46*%
G04 Gerber Fmt 4.6, Leading zero omitted, Abs format (unit mm)*
G04 Created by KiCad (PCBNEW 7.0.7) date 2023-10-16 22:19:58*
%MOMM*%
%LPD*%
G01*
G04 APERTURE LIST*
G04 #@! TA.AperFunction,ComponentPad*
%ADD10C,3.500000*%
G04 #@! TD*
G04 #@! TA.AperFunction,ComponentPad*
%ADD11C,1.700000*%
G04 #@! TD*
G04 #@! TA.AperFunction,ComponentPad*
%ADD12O,1.700000X1.700000*%
G04 #@! TD*
G04 #@! TA.AperFunction,ComponentPad*
%ADD13R,1.700000X1.700000*%
G04 #@! TD*
G04 #@! TA.AperFunction,ComponentPad*
%ADD14C,2.200000*%
G04 #@! TD*
G04 #@! TA.AperFunction,ViaPad*
%ADD15C,0.700000*%
G04 #@! TD*
G04 APERTURE END LIST*
D10*
X43180000Y-54610000D03*
X27940000Y-54610000D03*
X27940000Y-27940000D03*
X43180000Y-27940000D03*
D11*
X43815000Y-32156400D03*
D12*
X43815000Y-34696400D03*
X43815000Y-37236400D03*
D13*
X43815000Y-39776400D03*
D11*
X43815000Y-43434000D03*
D12*
X43815000Y-45974000D03*
X43815000Y-48514000D03*
X43815000Y-51054000D03*
D11*
X39700200Y-54432200D03*
D12*
X37160200Y-54432200D03*
X34620200Y-54432200D03*
D13*
X32080200Y-54432200D03*
D14*
X31750000Y-28930000D03*
X34290000Y-28930000D03*
X36830000Y-28930000D03*
X39370000Y-28930000D03*
D15*
X26308208Y-45238531D03*
X39039800Y-38856800D03*
X34800000Y-42152500D03*
X40716200Y-39192200D03*
X30623736Y-47189364D03*
X35000000Y-34110000D03*
X39430000Y-32870000D03*
X40749800Y-34046800D03*
X41732200Y-41097200D03*
X29895800Y-42265600D03*
X27150000Y-32460000D03*
X36170000Y-35580000D03*
X26490000Y-46390000D03*
X33578800Y-43713400D03*
X42164000Y-49555400D03*
X27970000Y-34635600D03*
X34213800Y-38836600D03*
X32970000Y-52690000D03*
X32110000Y-32290000D03*
X34869505Y-45916884D03*
X26450000Y-47580000D03*
X30750000Y-43690000D03*
X26410000Y-42980000D03*
X29244850Y-46292980D03*
X27101800Y-31430000D03*
X37490400Y-50190400D03*
X32418223Y-41405821D03*
X39480000Y-31230000D03*
X36601400Y-50190400D03*
X32537400Y-49860200D03*
X26350000Y-44340000D03*
X38475000Y-34359800D03*
X35255200Y-39446200D03*
X29050000Y-51020000D03*
X28843800Y-52374800D03*
X37266172Y-47069293D03*
X38805200Y-35071000D03*
X32290000Y-38863000D03*
X28905200Y-47294800D03*
X33145000Y-39039800D03*
X34671000Y-47188000D03*
X33197800Y-50647600D03*
X39508502Y-47980600D03*
X38379400Y-46990000D03*
X32739551Y-47354507D03*
X31700000Y-34709500D03*
X31705461Y-33093401D03*
X30700000Y-49987200D03*
X41960800Y-45262800D03*
X41555500Y-39977443D03*
X30240000Y-38130000D03*
X30997835Y-38854746D03*
X29240000Y-33190000D03*
X37340000Y-33670000D03*
G04 #@! TA.AperFunction,Conductor*
G36*
X45576096Y-25409938D02*
G01*
X45643123Y-25429656D01*
X45688852Y-25482482D01*
X45700032Y-25533905D01*
X45708300Y-57025467D01*
X45688633Y-57092512D01*
X45635841Y-57138281D01*
X45584300Y-57149500D01*
X25524500Y-57149500D01*
X25457461Y-57129815D01*
X25411706Y-57077011D01*
X25400500Y-57025500D01*
X25400500Y-54610000D01*
X25685172Y-54610000D01*
X25704462Y-54904312D01*
X25704464Y-54904324D01*
X25762001Y-55193584D01*
X25762005Y-55193599D01*
X25856812Y-55472888D01*
X25987258Y-55737406D01*
X25987265Y-55737419D01*
X26151122Y-55982648D01*
X26180406Y-56016039D01*
X26900554Y-55295891D01*
X26961877Y-55262406D01*
X27031568Y-55267390D01*
X27087502Y-55309262D01*
X27089242Y-55311644D01*
X27104893Y-55333623D01*
X27104895Y-55333625D01*
X27251041Y-55472975D01*
X27285976Y-55533484D01*
X27282651Y-55603274D01*
X27253152Y-55650399D01*
X26533959Y-56369592D01*
X26533959Y-56369593D01*
X26567344Y-56398872D01*
X26567348Y-56398875D01*
X26812580Y-56562734D01*
X26812593Y-56562741D01*
X27077111Y-56693187D01*
X27356400Y-56787994D01*
X27356415Y-56787998D01*
X27645675Y-56845535D01*
X27645687Y-56845537D01*
X27940000Y-56864827D01*
X28234312Y-56845537D01*
X28234324Y-56845535D01*
X28523584Y-56787998D01*
X28523599Y-56787994D01*
X28802888Y-56693187D01*
X29067406Y-56562741D01*
X29067419Y-56562734D01*
X29312650Y-56398877D01*
X29346039Y-56369593D01*
X29346040Y-56369592D01*
X28624234Y-55647787D01*
X28590749Y-55586464D01*
X28595733Y-55516773D01*
X28635263Y-55462636D01*
X28702540Y-55409729D01*
X28796721Y-55301037D01*
X28855496Y-55263265D01*
X28925366Y-55263265D01*
X28978113Y-55294561D01*
X29699592Y-56016040D01*
X29699593Y-56016039D01*
X29728877Y-55982650D01*
X29892734Y-55737419D01*
X29892741Y-55737406D01*
X30023187Y-55472888D01*
X30071677Y-55330044D01*
X30730200Y-55330044D01*
X30736601Y-55389572D01*
X30736603Y-55389579D01*
X30786845Y-55524286D01*
X30786849Y-55524293D01*
X30873009Y-55639387D01*
X30873012Y-55639390D01*
X30988106Y-55725550D01*
X30988113Y-55725554D01*
X31122820Y-55775796D01*
X31122827Y-55775798D01*
X31182355Y-55782199D01*
X31182372Y-55782200D01*
X31830200Y-55782200D01*
X31830200Y-55044501D01*
X31849885Y-54977462D01*
X31902689Y-54931707D01*
X31971847Y-54921763D01*
X32044437Y-54932200D01*
X32044438Y-54932200D01*
X32115962Y-54932200D01*
X32115963Y-54932200D01*
X32188553Y-54921763D01*
X32257712Y-54931707D01*
X32310515Y-54977462D01*
X32330200Y-55044501D01*
X32330200Y-55782200D01*
X32978028Y-55782200D01*
X32978044Y-55782199D01*
X33037572Y-55775798D01*
X33037579Y-55775796D01*
X33172286Y-55725554D01*
X33172293Y-55725550D01*
X33287387Y-55639390D01*
X33287390Y-55639387D01*
X33373550Y-55524293D01*
X33373554Y-55524286D01*
X33422622Y-55392729D01*
X33464493Y-55336795D01*
X33529957Y-55312378D01*
X33598230Y-55327230D01*
X33626485Y-55348381D01*
X33748799Y-55470695D01*
X33814605Y-55516773D01*
X33942365Y-55606232D01*
X33942367Y-55606233D01*
X33942370Y-55606235D01*
X34156537Y-55706103D01*
X34384792Y-55767263D01*
X34555519Y-55782200D01*
X34620199Y-55787859D01*
X34620200Y-55787859D01*
X34620201Y-55787859D01*
X34684881Y-55782200D01*
X34855608Y-55767263D01*
X35083863Y-55706103D01*
X35298030Y-55606235D01*
X35491601Y-55470695D01*
X35658695Y-55303601D01*
X35788624Y-55118042D01*
X35843202Y-55074417D01*
X35912700Y-55067223D01*
X35975055Y-55098746D01*
X35991775Y-55118042D01*
X36119911Y-55301040D01*
X36121705Y-55303601D01*
X36288799Y-55470695D01*
X36354605Y-55516773D01*
X36482365Y-55606232D01*
X36482367Y-55606233D01*
X36482370Y-55606235D01*
X36696537Y-55706103D01*
X36924792Y-55767263D01*
X37095519Y-55782200D01*
X37160199Y-55787859D01*
X37160200Y-55787859D01*
X37160201Y-55787859D01*
X37224881Y-55782200D01*
X37395608Y-55767263D01*
X37623863Y-55706103D01*
X37838030Y-55606235D01*
X38031601Y-55470695D01*
X38198695Y-55303601D01*
X38328624Y-55118042D01*
X38383202Y-55074417D01*
X38452700Y-55067223D01*
X38515055Y-55098746D01*
X38531775Y-55118042D01*
X38659911Y-55301040D01*
X38661705Y-55303601D01*
X38828799Y-55470695D01*
X38894605Y-55516773D01*
X39022365Y-55606232D01*
X39022367Y-55606233D01*
X39022370Y-55606235D01*
X39236537Y-55706103D01*
X39464792Y-55767263D01*
X39635519Y-55782200D01*
X39700199Y-55787859D01*
X39700200Y-55787859D01*
X39700201Y-55787859D01*
X39764881Y-55782200D01*
X39935608Y-55767263D01*
X40163863Y-55706103D01*
X40378030Y-55606235D01*
X40571601Y-55470695D01*
X40738695Y-55303601D01*
X40800839Y-55214850D01*
X40855414Y-55171226D01*
X40924913Y-55164032D01*
X40987268Y-55195554D01*
X41019832Y-55246115D01*
X41096812Y-55472888D01*
X41227258Y-55737406D01*
X41227265Y-55737419D01*
X41391126Y-55982653D01*
X41585595Y-56204404D01*
X41807346Y-56398873D01*
X42052580Y-56562734D01*
X42052593Y-56562741D01*
X42317111Y-56693187D01*
X42596400Y-56787994D01*
X42596415Y-56787998D01*
X42885678Y-56845536D01*
X42885684Y-56845537D01*
X42930000Y-56848441D01*
X42930000Y-55832241D01*
X42949685Y-55765202D01*
X43002489Y-55719447D01*
X43069042Y-55709877D01*
X43069084Y-55709439D01*
X43070891Y-55709611D01*
X43071647Y-55709503D01*
X43074129Y-55709920D01*
X43074959Y-55710000D01*
X43074963Y-55710000D01*
X43232408Y-55710000D01*
X43294212Y-55704098D01*
X43362819Y-55717320D01*
X43413387Y-55765535D01*
X43430000Y-55827536D01*
X43429999Y-56848441D01*
X43474315Y-56845537D01*
X43474321Y-56845536D01*
X43763584Y-56787998D01*
X43763599Y-56787994D01*
X44042888Y-56693187D01*
X44307406Y-56562741D01*
X44307419Y-56562734D01*
X44552653Y-56398873D01*
X44774404Y-56204404D01*
X44968873Y-55982653D01*
X45132734Y-55737419D01*
X45132741Y-55737406D01*
X45263187Y-55472888D01*
X45357994Y-55193599D01*
X45357998Y-55193584D01*
X45415536Y-54904321D01*
X45415537Y-54904315D01*
X45418442Y-54860000D01*
X44398471Y-54860000D01*
X44331432Y-54840315D01*
X44285677Y-54787511D01*
X44275733Y-54718353D01*
X44283752Y-54662578D01*
X44275527Y-54489900D01*
X44292000Y-54422000D01*
X44342567Y-54373784D01*
X44399387Y-54360000D01*
X45418441Y-54360000D01*
X45415537Y-54315684D01*
X45415536Y-54315678D01*
X45357998Y-54026415D01*
X45357994Y-54026400D01*
X45263187Y-53747111D01*
X45132741Y-53482593D01*
X45132734Y-53482580D01*
X44968873Y-53237346D01*
X44774404Y-53015595D01*
X44552653Y-52821126D01*
X44307419Y-52657265D01*
X44307406Y-52657258D01*
X44160031Y-52584580D01*
X44108611Y-52537274D01*
X44090930Y-52469679D01*
X44112600Y-52403255D01*
X44166742Y-52359091D01*
X44182774Y-52353596D01*
X44247200Y-52336333D01*
X44278653Y-52327906D01*
X44278654Y-52327905D01*
X44278663Y-52327903D01*
X44492830Y-52228035D01*
X44686401Y-52092495D01*
X44853495Y-51925401D01*
X44989035Y-51731830D01*
X45088903Y-51517663D01*
X45150063Y-51289408D01*
X45170659Y-51054000D01*
X45150063Y-50818592D01*
X45088903Y-50590337D01*
X44989035Y-50376171D01*
X44960232Y-50335035D01*
X44853494Y-50182597D01*
X44686402Y-50015506D01*
X44686396Y-50015501D01*
X44500842Y-49885575D01*
X44457217Y-49830998D01*
X44450023Y-49761500D01*
X44481546Y-49699145D01*
X44500842Y-49682425D01*
X44562339Y-49639364D01*
X44686401Y-49552495D01*
X44853495Y-49385401D01*
X44989035Y-49191830D01*
X45088903Y-48977663D01*
X45150063Y-48749408D01*
X45170659Y-48514000D01*
X45150063Y-48278592D01*
X45088903Y-48050337D01*
X44989035Y-47836171D01*
X44986580Y-47832664D01*
X44853494Y-47642597D01*
X44686402Y-47475506D01*
X44686396Y-47475501D01*
X44500842Y-47345575D01*
X44457217Y-47290998D01*
X44450023Y-47221500D01*
X44481546Y-47159145D01*
X44500842Y-47142425D01*
X44537164Y-47116992D01*
X44686401Y-47012495D01*
X44853495Y-46845401D01*
X44989035Y-46651830D01*
X45088903Y-46437663D01*
X45150063Y-46209408D01*
X45170659Y-45974000D01*
X45150063Y-45738592D01*
X45088903Y-45510337D01*
X44989035Y-45296171D01*
X44965669Y-45262800D01*
X44853494Y-45102597D01*
X44686402Y-44935506D01*
X44686396Y-44935501D01*
X44500842Y-44805575D01*
X44457217Y-44750998D01*
X44450023Y-44681500D01*
X44481546Y-44619145D01*
X44500842Y-44602425D01*
X44523026Y-44586891D01*
X44686401Y-44472495D01*
X44853495Y-44305401D01*
X44989035Y-44111830D01*
X45088903Y-43897663D01*
X45150063Y-43669408D01*
X45170659Y-43434000D01*
X45150063Y-43198592D01*
X45088903Y-42970337D01*
X44989035Y-42756171D01*
X44853495Y-42562599D01*
X44853494Y-42562597D01*
X44686402Y-42395506D01*
X44686395Y-42395501D01*
X44492834Y-42259967D01*
X44492830Y-42259965D01*
X44492830Y-42259964D01*
X44278663Y-42160097D01*
X44278659Y-42160096D01*
X44278655Y-42160094D01*
X44050413Y-42098938D01*
X44050403Y-42098936D01*
X43815001Y-42078341D01*
X43814999Y-42078341D01*
X43579596Y-42098936D01*
X43579586Y-42098938D01*
X43351344Y-42160094D01*
X43351335Y-42160098D01*
X43137171Y-42259964D01*
X43137169Y-42259965D01*
X42943597Y-42395505D01*
X42776505Y-42562597D01*
X42640965Y-42756169D01*
X42640964Y-42756171D01*
X42541098Y-42970335D01*
X42541094Y-42970344D01*
X42479938Y-43198586D01*
X42479936Y-43198596D01*
X42459341Y-43433999D01*
X42459341Y-43434000D01*
X42479936Y-43669403D01*
X42479938Y-43669413D01*
X42541094Y-43897655D01*
X42541096Y-43897659D01*
X42541097Y-43897663D01*
X42640964Y-44111830D01*
X42640965Y-44111830D01*
X42640967Y-44111834D01*
X42776501Y-44305395D01*
X42776506Y-44305402D01*
X42943597Y-44472493D01*
X42943603Y-44472498D01*
X43129158Y-44602425D01*
X43172783Y-44657002D01*
X43179977Y-44726500D01*
X43148454Y-44788855D01*
X43129158Y-44805575D01*
X42943599Y-44935504D01*
X42937603Y-44941500D01*
X42876278Y-44974982D01*
X42806587Y-44969994D01*
X42750655Y-44928119D01*
X42742538Y-44915813D01*
X42742052Y-44914971D01*
X42742050Y-44914965D01*
X42652659Y-44760135D01*
X42587560Y-44687835D01*
X42533035Y-44627278D01*
X42533032Y-44627276D01*
X42533031Y-44627275D01*
X42533030Y-44627274D01*
X42388393Y-44522188D01*
X42225067Y-44449471D01*
X42225065Y-44449470D01*
X42097394Y-44422333D01*
X42050191Y-44412300D01*
X41871409Y-44412300D01*
X41840754Y-44418815D01*
X41696533Y-44449470D01*
X41696528Y-44449472D01*
X41533208Y-44522187D01*
X41388568Y-44627275D01*
X41268940Y-44760136D01*
X41179550Y-44914964D01*
X41179547Y-44914970D01*
X41124304Y-45084992D01*
X41124303Y-45084994D01*
X41124303Y-45084997D01*
X41105615Y-45262800D01*
X41111844Y-45322067D01*
X41124303Y-45440605D01*
X41124304Y-45440607D01*
X41179547Y-45610629D01*
X41179550Y-45610635D01*
X41268941Y-45765465D01*
X41310612Y-45811746D01*
X41388564Y-45898321D01*
X41388567Y-45898323D01*
X41388570Y-45898326D01*
X41533207Y-46003412D01*
X41696533Y-46076129D01*
X41871409Y-46113300D01*
X41871410Y-46113300D01*
X42050189Y-46113300D01*
X42050191Y-46113300D01*
X42225067Y-46076129D01*
X42300345Y-46042612D01*
X42369595Y-46033328D01*
X42432872Y-46062956D01*
X42470085Y-46122091D01*
X42474309Y-46145084D01*
X42479936Y-46209403D01*
X42479938Y-46209413D01*
X42541094Y-46437655D01*
X42541096Y-46437659D01*
X42541097Y-46437663D01*
X42595433Y-46554187D01*
X42640965Y-46651830D01*
X42640967Y-46651834D01*
X42776501Y-46845395D01*
X42776506Y-46845402D01*
X42943597Y-47012493D01*
X42943603Y-47012498D01*
X43129158Y-47142425D01*
X43172783Y-47197002D01*
X43179977Y-47266500D01*
X43148454Y-47328855D01*
X43129158Y-47345575D01*
X42943597Y-47475505D01*
X42776505Y-47642597D01*
X42640965Y-47836169D01*
X42640964Y-47836171D01*
X42541098Y-48050335D01*
X42541094Y-48050344D01*
X42479938Y-48278586D01*
X42479936Y-48278596D01*
X42459341Y-48513999D01*
X42459341Y-48514000D01*
X42479936Y-48749403D01*
X42479938Y-48749413D01*
X42541094Y-48977655D01*
X42541096Y-48977659D01*
X42541097Y-48977663D01*
X42632590Y-49173870D01*
X42640965Y-49191830D01*
X42640967Y-49191834D01*
X42749281Y-49346521D01*
X42752890Y-49351676D01*
X42776501Y-49385395D01*
X42776506Y-49385402D01*
X42943597Y-49552493D01*
X42943603Y-49552498D01*
X43129158Y-49682425D01*
X43172783Y-49737002D01*
X43179977Y-49806500D01*
X43148454Y-49868855D01*
X43129158Y-49885575D01*
X42943597Y-50015505D01*
X42776505Y-50182597D01*
X42640965Y-50376169D01*
X42640964Y-50376171D01*
X42541098Y-50590335D01*
X42541094Y-50590344D01*
X42479938Y-50818586D01*
X42479936Y-50818596D01*
X42459341Y-51053999D01*
X42459341Y-51054000D01*
X42479936Y-51289403D01*
X42479938Y-51289413D01*
X42541094Y-51517655D01*
X42541096Y-51517659D01*
X42541097Y-51517663D01*
X42605384Y-51655526D01*
X42640965Y-51731830D01*
X42640967Y-51731834D01*
X42776501Y-51925395D01*
X42776506Y-51925402D01*
X42943597Y-52092493D01*
X42943603Y-52092498D01*
X43018024Y-52144608D01*
X43061649Y-52199185D01*
X43068843Y-52268683D01*
X43037320Y-52331038D01*
X42977091Y-52366452D01*
X42955012Y-52369917D01*
X42885702Y-52374460D01*
X42885675Y-52374464D01*
X42596415Y-52432001D01*
X42596400Y-52432005D01*
X42317111Y-52526812D01*
X42052593Y-52657258D01*
X42052580Y-52657265D01*
X41807346Y-52821126D01*
X41585595Y-53015595D01*
X41391126Y-53237346D01*
X41227265Y-53482580D01*
X41227258Y-53482593D01*
X41095015Y-53750756D01*
X41093226Y-53749873D01*
X41054306Y-53798016D01*
X40987977Y-53819977D01*
X40920305Y-53802591D01*
X40876361Y-53758052D01*
X40874237Y-53754373D01*
X40738694Y-53560797D01*
X40571602Y-53393706D01*
X40571595Y-53393701D01*
X40378034Y-53258167D01*
X40378030Y-53258165D01*
X40333388Y-53237348D01*
X40163863Y-53158297D01*
X40163859Y-53158296D01*
X40163855Y-53158294D01*
X39935613Y-53097138D01*
X39935603Y-53097136D01*
X39700201Y-53076541D01*
X39700199Y-53076541D01*
X39464796Y-53097136D01*
X39464786Y-53097138D01*
X39236544Y-53158294D01*
X39236535Y-53158298D01*
X39022371Y-53258164D01*
X39022369Y-53258165D01*
X38828797Y-53393705D01*
X38661705Y-53560797D01*
X38531775Y-53746358D01*
X38477198Y-53789983D01*
X38407700Y-53797177D01*
X38345345Y-53765654D01*
X38328625Y-53746358D01*
X38198694Y-53560797D01*
X38031602Y-53393706D01*
X38031595Y-53393701D01*
X37838034Y-53258167D01*
X37838030Y-53258165D01*
X37793388Y-53237348D01*
X37623863Y-53158297D01*
X37623859Y-53158296D01*
X37623855Y-53158294D01*
X37395613Y-53097138D01*
X37395603Y-53097136D01*
X37160201Y-53076541D01*
X37160199Y-53076541D01*
X36924796Y-53097136D01*
X36924786Y-53097138D01*
X36696544Y-53158294D01*
X36696535Y-53158298D01*
X36482371Y-53258164D01*
X36482369Y-53258165D01*
X36288797Y-53393705D01*
X36121705Y-53560797D01*
X35991775Y-53746358D01*
X35937198Y-53789983D01*
X35867700Y-53797177D01*
X35805345Y-53765654D01*
X35788625Y-53746358D01*
X35658694Y-53560797D01*
X35491602Y-53393706D01*
X35491595Y-53393701D01*
X35298034Y-53258167D01*
X35298030Y-53258165D01*
X35253388Y-53237348D01*
X35083863Y-53158297D01*
X35083859Y-53158296D01*
X35083855Y-53158294D01*
X34855613Y-53097138D01*
X34855603Y-53097136D01*
X34620201Y-53076541D01*
X34620199Y-53076541D01*
X34384796Y-53097136D01*
X34384786Y-53097138D01*
X34156544Y-53158294D01*
X34156535Y-53158298D01*
X33942371Y-53258164D01*
X33942369Y-53258165D01*
X33748800Y-53393703D01*
X33626484Y-53516019D01*
X33565161Y-53549503D01*
X33495469Y-53544519D01*
X33439536Y-53502647D01*
X33422621Y-53471670D01*
X33373554Y-53340113D01*
X33373550Y-53340106D01*
X33287390Y-53225012D01*
X33287387Y-53225009D01*
X33172293Y-53138849D01*
X33172286Y-53138845D01*
X33037579Y-53088603D01*
X33037572Y-53088601D01*
X32978044Y-53082200D01*
X32330200Y-53082200D01*
X32330200Y-53819898D01*
X32310515Y-53886937D01*
X32257711Y-53932692D01*
X32188555Y-53942636D01*
X32115966Y-53932200D01*
X32115963Y-53932200D01*
X32044437Y-53932200D01*
X32044433Y-53932200D01*
X31971845Y-53942636D01*
X31902687Y-53932692D01*
X31849884Y-53886936D01*
X31830200Y-53819898D01*
X31830200Y-53082200D01*
X31182355Y-53082200D01*
X31122827Y-53088601D01*
X31122820Y-53088603D01*
X30988113Y-53138845D01*
X30988106Y-53138849D01*
X30873012Y-53225009D01*
X30873009Y-53225012D01*
X30786849Y-53340106D01*
X30786845Y-53340113D01*
X30736603Y-53474820D01*
X30736601Y-53474827D01*
X30730200Y-53534355D01*
X30730200Y-54182200D01*
X31466853Y-54182200D01*
X31533892Y-54201885D01*
X31579647Y-54254689D01*
X31589591Y-54323847D01*
X31585831Y-54341133D01*
X31580200Y-54360311D01*
X31580200Y-54504088D01*
X31585831Y-54523267D01*
X31585830Y-54593136D01*
X31548055Y-54651914D01*
X31484499Y-54680938D01*
X31466853Y-54682200D01*
X30730200Y-54682200D01*
X30730200Y-55330044D01*
X30071677Y-55330044D01*
X30117994Y-55193599D01*
X30117998Y-55193584D01*
X30175535Y-54904324D01*
X30175537Y-54904312D01*
X30194827Y-54610000D01*
X30175537Y-54315687D01*
X30175535Y-54315675D01*
X30117998Y-54026415D01*
X30117994Y-54026400D01*
X30023187Y-53747111D01*
X29892741Y-53482593D01*
X29892734Y-53482580D01*
X29728875Y-53237348D01*
X29728872Y-53237344D01*
X29699593Y-53203959D01*
X29699592Y-53203959D01*
X28979444Y-53924107D01*
X28918121Y-53957592D01*
X28848429Y-53952608D01*
X28792496Y-53910736D01*
X28790755Y-53908352D01*
X28775108Y-53886378D01*
X28775104Y-53886374D01*
X28628957Y-53747023D01*
X28594022Y-53686514D01*
X28597347Y-53616724D01*
X28626846Y-53569599D01*
X28955419Y-53241026D01*
X29016742Y-53207541D01*
X29016821Y-53207523D01*
X29108067Y-53188129D01*
X29271393Y-53115412D01*
X29416030Y-53010326D01*
X29535659Y-52877465D01*
X29625050Y-52722635D01*
X29680297Y-52552603D01*
X29698985Y-52374800D01*
X29680297Y-52196997D01*
X29646342Y-52092495D01*
X29625052Y-52026970D01*
X29625049Y-52026964D01*
X29535659Y-51872134D01*
X29535453Y-51871851D01*
X29535384Y-51871658D01*
X29532410Y-51866507D01*
X29533351Y-51865963D01*
X29511970Y-51806046D01*
X29527793Y-51737991D01*
X29562881Y-51698645D01*
X29622230Y-51655526D01*
X29741859Y-51522665D01*
X29831250Y-51367835D01*
X29886497Y-51197803D01*
X29905185Y-51020000D01*
X29886497Y-50842197D01*
X29831250Y-50672165D01*
X29811653Y-50638221D01*
X29795181Y-50570326D01*
X29802211Y-50550011D01*
X29745388Y-50520717D01*
X29738808Y-50513946D01*
X29622235Y-50384478D01*
X29622232Y-50384476D01*
X29622231Y-50384475D01*
X29622230Y-50384474D01*
X29477593Y-50279388D01*
X29314267Y-50206671D01*
X29314265Y-50206670D01*
X29186594Y-50179533D01*
X29139391Y-50169500D01*
X28960609Y-50169500D01*
X28929954Y-50176015D01*
X28785733Y-50206670D01*
X28785728Y-50206672D01*
X28622408Y-50279387D01*
X28477768Y-50384475D01*
X28358140Y-50517336D01*
X28268750Y-50672164D01*
X28268747Y-50672170D01*
X28213504Y-50842192D01*
X28213503Y-50842194D01*
X28194815Y-51020000D01*
X28213503Y-51197805D01*
X28213504Y-51197807D01*
X28268747Y-51367829D01*
X28268750Y-51367835D01*
X28358138Y-51522661D01*
X28358349Y-51522951D01*
X28358418Y-51523146D01*
X28361390Y-51528293D01*
X28360448Y-51528836D01*
X28381829Y-51588757D01*
X28366004Y-51656811D01*
X28330918Y-51696154D01*
X28271569Y-51739274D01*
X28151940Y-51872136D01*
X28062550Y-52026964D01*
X28062547Y-52026970D01*
X28007304Y-52196992D01*
X28007304Y-52196993D01*
X28007303Y-52196997D01*
X28004041Y-52228032D01*
X28001954Y-52247891D01*
X27975369Y-52312505D01*
X27918071Y-52352489D01*
X27886743Y-52358663D01*
X27645687Y-52374462D01*
X27645675Y-52374464D01*
X27356415Y-52432001D01*
X27356400Y-52432005D01*
X27077111Y-52526812D01*
X26812593Y-52657258D01*
X26812580Y-52657265D01*
X26567350Y-52821123D01*
X26533958Y-52850406D01*
X27255765Y-53572212D01*
X27289250Y-53633535D01*
X27284266Y-53703226D01*
X27244737Y-53757363D01*
X27177458Y-53810272D01*
X27177453Y-53810277D01*
X27083278Y-53918960D01*
X27024500Y-53956734D01*
X26954630Y-53956734D01*
X26901885Y-53925438D01*
X26180406Y-53203958D01*
X26151123Y-53237350D01*
X25987265Y-53482580D01*
X25987258Y-53482593D01*
X25856812Y-53747111D01*
X25762005Y-54026400D01*
X25762001Y-54026415D01*
X25704464Y-54315675D01*
X25704462Y-54315687D01*
X25685172Y-54610000D01*
X25400500Y-54610000D01*
X25400500Y-49987200D01*
X29844815Y-49987200D01*
X29863503Y-50165005D01*
X29863504Y-50165007D01*
X29918747Y-50335029D01*
X29918750Y-50335035D01*
X29938345Y-50368974D01*
X29954818Y-50436874D01*
X29947787Y-50457187D01*
X30004610Y-50486481D01*
X30011191Y-50493253D01*
X30127764Y-50622721D01*
X30127767Y-50622723D01*
X30127770Y-50622726D01*
X30272407Y-50727812D01*
X30435733Y-50800529D01*
X30610609Y-50837700D01*
X30610610Y-50837700D01*
X30789389Y-50837700D01*
X30789391Y-50837700D01*
X30964267Y-50800529D01*
X31127593Y-50727812D01*
X31237996Y-50647599D01*
X32342615Y-50647599D01*
X32361303Y-50825405D01*
X32361304Y-50825407D01*
X32416547Y-50995429D01*
X32416550Y-50995435D01*
X32505941Y-51150265D01*
X32547612Y-51196546D01*
X32625564Y-51283121D01*
X32625567Y-51283123D01*
X32625570Y-51283126D01*
X32770207Y-51388212D01*
X32933533Y-51460929D01*
X33108409Y-51498100D01*
X33108410Y-51498100D01*
X33287189Y-51498100D01*
X33287191Y-51498100D01*
X33462067Y-51460929D01*
X33625393Y-51388212D01*
X33770030Y-51283126D01*
X33889659Y-51150265D01*
X33979050Y-50995435D01*
X34034297Y-50825403D01*
X34052985Y-50647600D01*
X34034297Y-50469797D01*
X34003875Y-50376169D01*
X33979052Y-50299770D01*
X33979049Y-50299764D01*
X33889659Y-50144935D01*
X33842803Y-50092896D01*
X33770035Y-50012078D01*
X33770032Y-50012076D01*
X33770031Y-50012075D01*
X33770030Y-50012074D01*
X33625393Y-49906988D01*
X33462067Y-49834271D01*
X33462065Y-49834270D01*
X33331415Y-49806500D01*
X33287191Y-49797100D01*
X33108409Y-49797100D01*
X33077754Y-49803615D01*
X32933533Y-49834270D01*
X32933528Y-49834272D01*
X32770208Y-49906987D01*
X32625568Y-50012075D01*
X32505940Y-50144936D01*
X32416550Y-50299764D01*
X32416547Y-50299770D01*
X32361304Y-50469792D01*
X32361303Y-50469794D01*
X32342615Y-50647599D01*
X31237996Y-50647599D01*
X31272230Y-50622726D01*
X31391859Y-50489865D01*
X31481250Y-50335035D01*
X31536497Y-50165003D01*
X31555185Y-49987200D01*
X31536497Y-49809397D01*
X31481250Y-49639365D01*
X31391859Y-49484535D01*
X31345003Y-49432496D01*
X31272235Y-49351678D01*
X31272232Y-49351676D01*
X31272231Y-49351675D01*
X31272230Y-49351674D01*
X31127593Y-49246588D01*
X30964267Y-49173871D01*
X30964265Y-49173870D01*
X30836594Y-49146733D01*
X30789391Y-49136700D01*
X30610609Y-49136700D01*
X30579954Y-49143215D01*
X30435733Y-49173870D01*
X30435728Y-49173872D01*
X30272408Y-49246587D01*
X30127768Y-49351675D01*
X30008140Y-49484536D01*
X29918750Y-49639364D01*
X29918747Y-49639370D01*
X29863504Y-49809392D01*
X29863503Y-49809394D01*
X29844815Y-49987200D01*
X25400500Y-49987200D01*
X25400500Y-47294799D01*
X28050015Y-47294799D01*
X28068703Y-47472605D01*
X28068704Y-47472607D01*
X28123947Y-47642629D01*
X28123950Y-47642635D01*
X28213341Y-47797465D01*
X28248190Y-47836169D01*
X28332964Y-47930321D01*
X28332967Y-47930323D01*
X28332970Y-47930326D01*
X28477607Y-48035412D01*
X28640933Y-48108129D01*
X28815809Y-48145300D01*
X28815810Y-48145300D01*
X28994589Y-48145300D01*
X28994591Y-48145300D01*
X29169467Y-48108129D01*
X29332793Y-48035412D01*
X29477430Y-47930326D01*
X29478974Y-47928612D01*
X29543298Y-47857172D01*
X29597059Y-47797465D01*
X29686450Y-47642635D01*
X29741697Y-47472603D01*
X29754109Y-47354507D01*
X31884366Y-47354507D01*
X31903054Y-47532312D01*
X31903055Y-47532314D01*
X31958298Y-47702336D01*
X31958301Y-47702342D01*
X32047692Y-47857172D01*
X32089363Y-47903453D01*
X32167315Y-47990028D01*
X32167318Y-47990030D01*
X32167321Y-47990033D01*
X32311958Y-48095119D01*
X32475284Y-48167836D01*
X32650160Y-48205007D01*
X32650161Y-48205007D01*
X32828940Y-48205007D01*
X32828942Y-48205007D01*
X33003818Y-48167836D01*
X33167144Y-48095119D01*
X33311781Y-47990033D01*
X33320278Y-47980597D01*
X33351703Y-47945695D01*
X33431410Y-47857172D01*
X33520801Y-47702342D01*
X33576048Y-47532310D01*
X33591462Y-47385651D01*
X33618047Y-47321039D01*
X33675344Y-47281054D01*
X33745163Y-47278394D01*
X33805337Y-47313904D01*
X33832714Y-47360297D01*
X33889747Y-47535829D01*
X33889750Y-47535835D01*
X33979141Y-47690665D01*
X34014081Y-47729470D01*
X34098764Y-47823521D01*
X34098767Y-47823523D01*
X34098770Y-47823526D01*
X34243407Y-47928612D01*
X34406733Y-48001329D01*
X34581609Y-48038500D01*
X34581610Y-48038500D01*
X34760389Y-48038500D01*
X34760391Y-48038500D01*
X34935267Y-48001329D01*
X35098593Y-47928612D01*
X35243230Y-47823526D01*
X35255495Y-47809905D01*
X35274616Y-47788668D01*
X35362859Y-47690665D01*
X35452250Y-47535835D01*
X35507497Y-47365803D01*
X35526185Y-47188000D01*
X35513708Y-47069293D01*
X36410987Y-47069293D01*
X36429675Y-47247098D01*
X36429676Y-47247100D01*
X36484919Y-47417122D01*
X36484922Y-47417128D01*
X36574313Y-47571958D01*
X36615984Y-47618239D01*
X36693936Y-47704814D01*
X36693939Y-47704816D01*
X36693942Y-47704819D01*
X36838579Y-47809905D01*
X37001905Y-47882622D01*
X37176781Y-47919793D01*
X37176782Y-47919793D01*
X37355561Y-47919793D01*
X37355563Y-47919793D01*
X37530439Y-47882622D01*
X37693765Y-47809905D01*
X37804469Y-47729472D01*
X37870273Y-47705993D01*
X37938327Y-47721818D01*
X37950235Y-47729470D01*
X37951807Y-47730612D01*
X38115133Y-47803329D01*
X38290009Y-47840500D01*
X38290010Y-47840500D01*
X38468789Y-47840500D01*
X38468791Y-47840500D01*
X38505655Y-47832664D01*
X38575319Y-47837979D01*
X38631053Y-47880116D01*
X38655159Y-47945695D01*
X38654755Y-47966912D01*
X38653317Y-47980597D01*
X38653317Y-47980600D01*
X38664529Y-48087281D01*
X38672005Y-48158405D01*
X38672006Y-48158407D01*
X38727249Y-48328429D01*
X38727252Y-48328435D01*
X38816643Y-48483265D01*
X38844316Y-48513999D01*
X38936266Y-48616121D01*
X38936269Y-48616123D01*
X38936272Y-48616126D01*
X39080909Y-48721212D01*
X39244235Y-48793929D01*
X39419111Y-48831100D01*
X39419112Y-48831100D01*
X39597891Y-48831100D01*
X39597893Y-48831100D01*
X39772769Y-48793929D01*
X39936095Y-48721212D01*
X40080732Y-48616126D01*
X40200361Y-48483265D01*
X40289752Y-48328435D01*
X40344999Y-48158403D01*
X40363687Y-47980600D01*
X40344999Y-47802797D01*
X40292957Y-47642629D01*
X40289754Y-47632770D01*
X40289751Y-47632764D01*
X40254645Y-47571958D01*
X40200361Y-47477935D01*
X40117270Y-47385653D01*
X40080737Y-47345078D01*
X40080734Y-47345076D01*
X40080733Y-47345075D01*
X40080732Y-47345074D01*
X39936095Y-47239988D01*
X39772769Y-47167271D01*
X39772767Y-47167270D01*
X39645096Y-47140133D01*
X39597893Y-47130100D01*
X39419111Y-47130100D01*
X39382245Y-47137935D01*
X39312579Y-47132619D01*
X39256846Y-47090481D01*
X39232742Y-47024900D01*
X39233147Y-47003680D01*
X39234585Y-46990002D01*
X39230062Y-46946970D01*
X39215897Y-46812197D01*
X39185610Y-46718983D01*
X39160652Y-46642170D01*
X39160649Y-46642164D01*
X39071259Y-46487335D01*
X39023026Y-46433767D01*
X38951635Y-46354478D01*
X38951632Y-46354476D01*
X38951631Y-46354475D01*
X38951630Y-46354474D01*
X38806993Y-46249388D01*
X38643667Y-46176671D01*
X38643665Y-46176670D01*
X38515994Y-46149533D01*
X38468791Y-46139500D01*
X38290009Y-46139500D01*
X38263738Y-46145084D01*
X38115133Y-46176670D01*
X38115128Y-46176672D01*
X37951808Y-46249388D01*
X37951803Y-46249390D01*
X37841103Y-46329819D01*
X37775297Y-46353299D01*
X37707243Y-46337473D01*
X37695339Y-46329824D01*
X37693765Y-46328680D01*
X37571483Y-46274238D01*
X37530439Y-46255964D01*
X37530437Y-46255963D01*
X37402766Y-46228826D01*
X37355563Y-46218793D01*
X37176781Y-46218793D01*
X37146126Y-46225308D01*
X37001905Y-46255963D01*
X37001900Y-46255965D01*
X36838580Y-46328680D01*
X36693940Y-46433768D01*
X36574312Y-46566629D01*
X36484922Y-46721457D01*
X36484919Y-46721463D01*
X36429676Y-46891485D01*
X36429675Y-46891487D01*
X36410987Y-47069293D01*
X35513708Y-47069293D01*
X35507497Y-47010197D01*
X35468925Y-46891485D01*
X35452252Y-46840170D01*
X35452249Y-46840164D01*
X35362859Y-46685335D01*
X35298533Y-46613894D01*
X35243235Y-46552478D01*
X35243232Y-46552476D01*
X35243231Y-46552475D01*
X35243230Y-46552474D01*
X35098593Y-46447388D01*
X34935267Y-46374671D01*
X34935265Y-46374670D01*
X34807594Y-46347533D01*
X34760391Y-46337500D01*
X34581609Y-46337500D01*
X34550954Y-46344015D01*
X34406733Y-46374670D01*
X34406728Y-46374672D01*
X34243408Y-46447387D01*
X34098768Y-46552475D01*
X33979140Y-46685336D01*
X33889750Y-46840164D01*
X33889747Y-46840170D01*
X33834504Y-47010192D01*
X33834504Y-47010193D01*
X33834503Y-47010197D01*
X33832958Y-47024900D01*
X33819088Y-47156854D01*
X33792503Y-47221468D01*
X33735205Y-47261452D01*
X33665386Y-47264112D01*
X33605213Y-47228602D01*
X33577836Y-47182209D01*
X33576048Y-47176706D01*
X33576048Y-47176704D01*
X33522693Y-47012495D01*
X33520803Y-47006677D01*
X33520800Y-47006671D01*
X33431410Y-46851842D01*
X33377650Y-46792136D01*
X33311786Y-46718985D01*
X33311783Y-46718983D01*
X33311782Y-46718982D01*
X33311781Y-46718981D01*
X33167144Y-46613895D01*
X33003818Y-46541178D01*
X33003816Y-46541177D01*
X32876145Y-46514040D01*
X32828942Y-46504007D01*
X32650160Y-46504007D01*
X32619505Y-46510522D01*
X32475284Y-46541177D01*
X32475279Y-46541179D01*
X32311959Y-46613894D01*
X32167319Y-46718982D01*
X32047691Y-46851843D01*
X31958301Y-47006671D01*
X31958298Y-47006677D01*
X31903055Y-47176699D01*
X31903054Y-47176701D01*
X31884366Y-47354507D01*
X29754109Y-47354507D01*
X29760385Y-47294800D01*
X29741697Y-47116997D01*
X29707742Y-47012495D01*
X29686452Y-46946970D01*
X29686449Y-46946964D01*
X29597059Y-46792135D01*
X29550203Y-46740096D01*
X29477435Y-46659278D01*
X29477432Y-46659276D01*
X29477431Y-46659275D01*
X29477430Y-46659274D01*
X29332793Y-46554188D01*
X29169467Y-46481471D01*
X29169465Y-46481470D01*
X29041794Y-46454333D01*
X28994591Y-46444300D01*
X28815809Y-46444300D01*
X28785154Y-46450815D01*
X28640933Y-46481470D01*
X28640928Y-46481472D01*
X28477608Y-46554187D01*
X28332968Y-46659275D01*
X28213340Y-46792136D01*
X28123950Y-46946964D01*
X28123947Y-46946970D01*
X28068704Y-47116992D01*
X28068703Y-47116994D01*
X28050015Y-47294799D01*
X25400500Y-47294799D01*
X25400500Y-45824502D01*
X25420185Y-45757463D01*
X25472989Y-45711708D01*
X25542147Y-45701764D01*
X25605703Y-45730789D01*
X25616650Y-45741530D01*
X25735972Y-45874052D01*
X25735975Y-45874054D01*
X25735978Y-45874057D01*
X25880615Y-45979143D01*
X26043941Y-46051860D01*
X26218817Y-46089031D01*
X26218818Y-46089031D01*
X26397597Y-46089031D01*
X26397599Y-46089031D01*
X26572475Y-46051860D01*
X26735801Y-45979143D01*
X26880438Y-45874057D01*
X27000067Y-45741196D01*
X27089458Y-45586366D01*
X27144705Y-45416334D01*
X27163393Y-45238531D01*
X27144705Y-45060728D01*
X27104018Y-44935506D01*
X27089460Y-44890701D01*
X27089458Y-44890697D01*
X27089458Y-44890696D01*
X27087588Y-44887457D01*
X27087077Y-44885350D01*
X27086817Y-44884766D01*
X27086923Y-44884718D01*
X27071115Y-44819560D01*
X27087586Y-44763462D01*
X27131250Y-44687835D01*
X27186497Y-44517803D01*
X27205185Y-44340000D01*
X27186497Y-44162197D01*
X27131250Y-43992165D01*
X27041859Y-43837335D01*
X26995003Y-43785296D01*
X26922235Y-43704478D01*
X26922232Y-43704476D01*
X26922231Y-43704475D01*
X26922230Y-43704474D01*
X26777593Y-43599388D01*
X26614267Y-43526671D01*
X26614265Y-43526670D01*
X26486594Y-43499533D01*
X26439391Y-43489500D01*
X26260609Y-43489500D01*
X26229954Y-43496015D01*
X26085733Y-43526670D01*
X26085728Y-43526672D01*
X25922408Y-43599387D01*
X25777768Y-43704475D01*
X25658140Y-43837336D01*
X25631887Y-43882808D01*
X25581320Y-43931023D01*
X25512713Y-43944247D01*
X25447849Y-43918279D01*
X25407320Y-43861365D01*
X25400500Y-43820808D01*
X25400500Y-38129999D01*
X29384815Y-38129999D01*
X29403503Y-38307805D01*
X29403504Y-38307807D01*
X29458747Y-38477829D01*
X29458750Y-38477835D01*
X29548141Y-38632665D01*
X29589812Y-38678946D01*
X29667764Y-38765521D01*
X29667767Y-38765523D01*
X29667770Y-38765526D01*
X29812407Y-38870612D01*
X29975733Y-38943329D01*
X29975735Y-38943329D01*
X29975736Y-38943330D01*
X30028935Y-38954637D01*
X30073939Y-38964203D01*
X30135421Y-38997395D01*
X30166090Y-39047175D01*
X30216582Y-39202574D01*
X30216585Y-39202581D01*
X30305976Y-39357411D01*
X30333185Y-39387629D01*
X30425599Y-39490267D01*
X30425602Y-39490269D01*
X30425605Y-39490272D01*
X30570242Y-39595358D01*
X30733568Y-39668075D01*
X30908444Y-39705246D01*
X30908445Y-39705246D01*
X31087224Y-39705246D01*
X31087226Y-39705246D01*
X31262102Y-39668075D01*
X31425428Y-39595358D01*
X31565500Y-39493588D01*
X31631305Y-39470108D01*
X31699359Y-39485933D01*
X31712185Y-39495157D01*
X31712513Y-39494706D01*
X31717768Y-39498524D01*
X31717770Y-39498526D01*
X31862407Y-39603612D01*
X32025733Y-39676329D01*
X32200609Y-39713500D01*
X32200610Y-39713500D01*
X32379389Y-39713500D01*
X32379391Y-39713500D01*
X32495281Y-39688866D01*
X32515647Y-39684538D01*
X32585314Y-39689854D01*
X32614315Y-39705510D01*
X32717407Y-39780412D01*
X32880733Y-39853129D01*
X33055609Y-39890300D01*
X33055610Y-39890300D01*
X33234389Y-39890300D01*
X33234391Y-39890300D01*
X33409267Y-39853129D01*
X33572593Y-39780412D01*
X33717230Y-39675326D01*
X33836859Y-39542465D01*
X33892438Y-39446200D01*
X34400015Y-39446200D01*
X34418703Y-39624005D01*
X34418704Y-39624007D01*
X34473947Y-39794029D01*
X34473950Y-39794035D01*
X34563341Y-39948865D01*
X34589073Y-39977443D01*
X34682964Y-40081721D01*
X34682967Y-40081723D01*
X34682970Y-40081726D01*
X34827607Y-40186812D01*
X34990933Y-40259529D01*
X35165809Y-40296700D01*
X35165810Y-40296700D01*
X35344589Y-40296700D01*
X35344591Y-40296700D01*
X35519467Y-40259529D01*
X35682793Y-40186812D01*
X35827430Y-40081726D01*
X35921327Y-39977443D01*
X40700315Y-39977443D01*
X40719003Y-40155248D01*
X40719004Y-40155250D01*
X40774247Y-40325272D01*
X40774250Y-40325278D01*
X40863641Y-40480108D01*
X40865363Y-40482020D01*
X40983264Y-40612964D01*
X40983267Y-40612966D01*
X40983270Y-40612969D01*
X41127907Y-40718055D01*
X41291233Y-40790772D01*
X41466109Y-40827943D01*
X41466110Y-40827943D01*
X41644889Y-40827943D01*
X41644891Y-40827943D01*
X41819767Y-40790772D01*
X41983093Y-40718055D01*
X42127730Y-40612969D01*
X42174142Y-40561424D01*
X42248850Y-40478452D01*
X42308336Y-40441803D01*
X42378193Y-40443133D01*
X42436242Y-40482020D01*
X42464052Y-40546117D01*
X42465000Y-40561424D01*
X42465000Y-40674244D01*
X42471401Y-40733772D01*
X42471403Y-40733779D01*
X42521645Y-40868486D01*
X42521649Y-40868493D01*
X42607809Y-40983587D01*
X42607812Y-40983590D01*
X42722906Y-41069750D01*
X42722913Y-41069754D01*
X42857620Y-41119996D01*
X42857627Y-41119998D01*
X42917155Y-41126399D01*
X42917172Y-41126400D01*
X43565000Y-41126400D01*
X43565000Y-40388701D01*
X43584685Y-40321662D01*
X43637489Y-40275907D01*
X43706647Y-40265963D01*
X43779237Y-40276400D01*
X43779238Y-40276400D01*
X43850762Y-40276400D01*
X43850763Y-40276400D01*
X43923353Y-40265963D01*
X43992512Y-40275907D01*
X44045315Y-40321662D01*
X44065000Y-40388701D01*
X44064999Y-41126400D01*
X44712828Y-41126400D01*
X44712844Y-41126399D01*
X44772372Y-41119998D01*
X44772379Y-41119996D01*
X44907086Y-41069754D01*
X44907093Y-41069750D01*
X45022187Y-40983590D01*
X45022190Y-40983587D01*
X45108350Y-40868493D01*
X45108354Y-40868486D01*
X45158596Y-40733779D01*
X45158598Y-40733772D01*
X45164999Y-40674244D01*
X45165000Y-40674227D01*
X45165000Y-40026400D01*
X44428347Y-40026400D01*
X44361308Y-40006715D01*
X44315553Y-39953911D01*
X44305609Y-39884753D01*
X44309369Y-39867467D01*
X44315000Y-39848288D01*
X44315000Y-39704511D01*
X44309369Y-39685333D01*
X44309370Y-39615464D01*
X44347145Y-39556686D01*
X44410701Y-39527662D01*
X44428347Y-39526400D01*
X45165000Y-39526400D01*
X45165000Y-38878572D01*
X45164999Y-38878555D01*
X45158598Y-38819027D01*
X45158596Y-38819020D01*
X45108354Y-38684313D01*
X45108350Y-38684306D01*
X45022190Y-38569212D01*
X45022187Y-38569209D01*
X44907093Y-38483049D01*
X44907088Y-38483046D01*
X44775528Y-38433977D01*
X44719595Y-38392105D01*
X44695178Y-38326641D01*
X44710030Y-38258368D01*
X44731175Y-38230120D01*
X44853495Y-38107801D01*
X44989035Y-37914230D01*
X45088903Y-37700063D01*
X45150063Y-37471808D01*
X45170659Y-37236400D01*
X45150063Y-37000992D01*
X45088903Y-36772737D01*
X44989035Y-36558571D01*
X44853495Y-36364999D01*
X44853494Y-36364997D01*
X44686402Y-36197906D01*
X44686396Y-36197901D01*
X44500842Y-36067975D01*
X44457217Y-36013398D01*
X44450023Y-35943900D01*
X44481546Y-35881545D01*
X44500842Y-35864825D01*
X44576838Y-35811612D01*
X44686401Y-35734895D01*
X44853495Y-35567801D01*
X44989035Y-35374230D01*
X45088903Y-35160063D01*
X45150063Y-34931808D01*
X45170659Y-34696400D01*
X45150063Y-34460992D01*
X45088903Y-34232737D01*
X44989035Y-34018571D01*
X44988516Y-34017829D01*
X44853494Y-33824997D01*
X44686402Y-33657906D01*
X44686396Y-33657901D01*
X44500842Y-33527975D01*
X44457217Y-33473398D01*
X44450023Y-33403900D01*
X44481546Y-33341545D01*
X44500842Y-33324825D01*
X44577415Y-33271208D01*
X44686401Y-33194895D01*
X44853495Y-33027801D01*
X44989035Y-32834230D01*
X45088903Y-32620063D01*
X45150063Y-32391808D01*
X45170659Y-32156400D01*
X45150063Y-31920992D01*
X45088903Y-31692737D01*
X44989035Y-31478571D01*
X44853495Y-31284999D01*
X44853494Y-31284997D01*
X44686402Y-31117906D01*
X44686395Y-31117901D01*
X44492834Y-30982367D01*
X44492830Y-30982365D01*
X44492828Y-30982364D01*
X44278663Y-30882497D01*
X44278659Y-30882496D01*
X44278655Y-30882494D01*
X44050413Y-30821338D01*
X44050403Y-30821336D01*
X43815001Y-30800741D01*
X43814999Y-30800741D01*
X43579596Y-30821336D01*
X43579586Y-30821338D01*
X43351344Y-30882494D01*
X43351335Y-30882498D01*
X43137171Y-30982364D01*
X43137169Y-30982365D01*
X42943597Y-31117905D01*
X42776505Y-31284997D01*
X42640965Y-31478569D01*
X42640964Y-31478571D01*
X42541098Y-31692735D01*
X42541094Y-31692744D01*
X42479938Y-31920986D01*
X42479936Y-31920996D01*
X42459341Y-32156399D01*
X42459341Y-32156400D01*
X42479936Y-32391803D01*
X42479938Y-32391813D01*
X42541094Y-32620055D01*
X42541096Y-32620059D01*
X42541097Y-32620063D01*
X42572467Y-32687335D01*
X42640965Y-32834230D01*
X42640967Y-32834234D01*
X42707595Y-32929388D01*
X42765575Y-33012192D01*
X42776501Y-33027795D01*
X42776506Y-33027802D01*
X42943597Y-33194893D01*
X42943603Y-33194898D01*
X43129158Y-33324825D01*
X43172783Y-33379402D01*
X43179977Y-33448900D01*
X43148454Y-33511255D01*
X43129158Y-33527975D01*
X42943597Y-33657905D01*
X42776505Y-33824997D01*
X42640965Y-34018569D01*
X42640964Y-34018571D01*
X42541098Y-34232735D01*
X42541094Y-34232744D01*
X42479938Y-34460986D01*
X42479936Y-34460996D01*
X42459341Y-34696399D01*
X42459341Y-34696400D01*
X42479936Y-34931803D01*
X42479938Y-34931813D01*
X42541094Y-35160055D01*
X42541096Y-35160059D01*
X42541097Y-35160063D01*
X42582479Y-35248807D01*
X42640965Y-35374230D01*
X42640967Y-35374234D01*
X42776501Y-35567795D01*
X42776506Y-35567802D01*
X42943597Y-35734893D01*
X42943603Y-35734898D01*
X43129158Y-35864825D01*
X43172783Y-35919402D01*
X43179977Y-35988900D01*
X43148454Y-36051255D01*
X43129158Y-36067975D01*
X42943597Y-36197905D01*
X42776505Y-36364997D01*
X42640965Y-36558569D01*
X42640964Y-36558571D01*
X42541098Y-36772735D01*
X42541094Y-36772744D01*
X42479938Y-37000986D01*
X42479936Y-37000996D01*
X42459341Y-37236399D01*
X42459341Y-37236400D01*
X42479936Y-37471803D01*
X42479938Y-37471813D01*
X42541094Y-37700055D01*
X42541096Y-37700059D01*
X42541097Y-37700063D01*
X42640964Y-37914229D01*
X42640965Y-37914230D01*
X42640967Y-37914234D01*
X42749281Y-38068921D01*
X42776501Y-38107796D01*
X42776506Y-38107802D01*
X42898818Y-38230114D01*
X42932303Y-38291437D01*
X42927319Y-38361129D01*
X42885447Y-38417062D01*
X42854471Y-38433977D01*
X42722912Y-38483046D01*
X42722906Y-38483049D01*
X42607812Y-38569209D01*
X42607809Y-38569212D01*
X42521649Y-38684306D01*
X42521645Y-38684313D01*
X42471403Y-38819020D01*
X42471401Y-38819027D01*
X42465000Y-38878555D01*
X42465000Y-39393461D01*
X42445315Y-39460500D01*
X42392511Y-39506255D01*
X42323353Y-39516199D01*
X42259797Y-39487174D01*
X42248850Y-39476433D01*
X42127735Y-39341921D01*
X42127732Y-39341919D01*
X42127731Y-39341918D01*
X42127730Y-39341917D01*
X41983093Y-39236831D01*
X41819767Y-39164114D01*
X41819765Y-39164113D01*
X41692094Y-39136976D01*
X41644891Y-39126943D01*
X41466109Y-39126943D01*
X41435454Y-39133458D01*
X41291233Y-39164113D01*
X41291228Y-39164115D01*
X41127908Y-39236830D01*
X40983268Y-39341918D01*
X40863640Y-39474779D01*
X40774250Y-39629607D01*
X40774247Y-39629613D01*
X40719004Y-39799635D01*
X40719003Y-39799637D01*
X40700315Y-39977443D01*
X35921327Y-39977443D01*
X35947059Y-39948865D01*
X36036450Y-39794035D01*
X36091697Y-39624003D01*
X36110385Y-39446200D01*
X36091697Y-39268397D01*
X36036450Y-39098365D01*
X35947059Y-38943535D01*
X35873639Y-38861994D01*
X35827435Y-38810678D01*
X35827432Y-38810676D01*
X35827431Y-38810675D01*
X35827430Y-38810674D01*
X35682793Y-38705588D01*
X35519467Y-38632871D01*
X35519465Y-38632870D01*
X35391794Y-38605733D01*
X35344591Y-38595700D01*
X35165809Y-38595700D01*
X35135154Y-38602215D01*
X34990933Y-38632870D01*
X34990928Y-38632872D01*
X34827608Y-38705587D01*
X34682968Y-38810675D01*
X34563340Y-38943536D01*
X34473950Y-39098364D01*
X34473947Y-39098370D01*
X34418704Y-39268392D01*
X34418703Y-39268394D01*
X34400015Y-39446200D01*
X33892438Y-39446200D01*
X33926250Y-39387635D01*
X33981497Y-39217603D01*
X34000185Y-39039800D01*
X33981497Y-38861997D01*
X33930677Y-38705589D01*
X33926252Y-38691970D01*
X33926249Y-38691964D01*
X33921828Y-38684306D01*
X33836859Y-38537135D01*
X33783465Y-38477835D01*
X33717235Y-38404278D01*
X33717232Y-38404276D01*
X33717231Y-38404275D01*
X33717230Y-38404274D01*
X33572593Y-38299188D01*
X33409267Y-38226471D01*
X33409265Y-38226470D01*
X33271981Y-38197290D01*
X33234391Y-38189300D01*
X33055609Y-38189300D01*
X33018019Y-38197290D01*
X32919352Y-38218262D01*
X32849684Y-38212946D01*
X32820687Y-38197291D01*
X32717593Y-38122388D01*
X32554267Y-38049671D01*
X32554265Y-38049670D01*
X32426594Y-38022533D01*
X32379391Y-38012500D01*
X32200609Y-38012500D01*
X32169954Y-38019015D01*
X32025733Y-38049670D01*
X32025728Y-38049672D01*
X31862408Y-38122388D01*
X31862403Y-38122390D01*
X31722334Y-38224157D01*
X31656528Y-38247637D01*
X31588474Y-38231811D01*
X31575649Y-38222588D01*
X31575322Y-38223040D01*
X31570066Y-38219221D01*
X31570065Y-38219220D01*
X31425428Y-38114134D01*
X31262102Y-38041417D01*
X31262100Y-38041416D01*
X31163894Y-38020542D01*
X31102412Y-37987350D01*
X31071744Y-37937570D01*
X31064160Y-37914230D01*
X31021250Y-37782165D01*
X30931859Y-37627335D01*
X30885003Y-37575296D01*
X30812235Y-37494478D01*
X30812232Y-37494476D01*
X30812231Y-37494475D01*
X30812230Y-37494474D01*
X30667593Y-37389388D01*
X30504267Y-37316671D01*
X30504265Y-37316670D01*
X30376594Y-37289533D01*
X30329391Y-37279500D01*
X30150609Y-37279500D01*
X30119954Y-37286015D01*
X29975733Y-37316670D01*
X29975728Y-37316672D01*
X29812408Y-37389387D01*
X29667768Y-37494475D01*
X29548140Y-37627336D01*
X29458750Y-37782164D01*
X29458747Y-37782170D01*
X29403504Y-37952192D01*
X29403503Y-37952194D01*
X29384815Y-38129999D01*
X25400500Y-38129999D01*
X25400500Y-34709499D01*
X30844815Y-34709499D01*
X30863503Y-34887305D01*
X30863504Y-34887307D01*
X30918747Y-35057329D01*
X30918750Y-35057335D01*
X31008141Y-35212165D01*
X31041130Y-35248803D01*
X31127764Y-35345021D01*
X31127767Y-35345023D01*
X31127770Y-35345026D01*
X31272407Y-35450112D01*
X31435733Y-35522829D01*
X31610609Y-35560000D01*
X31610610Y-35560000D01*
X31789389Y-35560000D01*
X31789391Y-35560000D01*
X31964267Y-35522829D01*
X32127593Y-35450112D01*
X32272230Y-35345026D01*
X32391859Y-35212165D01*
X32481250Y-35057335D01*
X32536497Y-34887303D01*
X32555185Y-34709500D01*
X32536497Y-34531697D01*
X32481250Y-34361665D01*
X32391859Y-34206835D01*
X32345003Y-34154796D01*
X32272235Y-34073978D01*
X32272232Y-34073976D01*
X32272231Y-34073975D01*
X32272230Y-34073974D01*
X32175577Y-34003750D01*
X32132913Y-33948422D01*
X32126934Y-33878808D01*
X32159540Y-33817013D01*
X32175575Y-33803118D01*
X32277691Y-33728927D01*
X32330750Y-33669999D01*
X36484815Y-33669999D01*
X36503503Y-33847805D01*
X36503504Y-33847807D01*
X36558747Y-34017829D01*
X36558750Y-34017835D01*
X36648141Y-34172665D01*
X36656542Y-34181995D01*
X36767764Y-34305521D01*
X36767767Y-34305523D01*
X36767770Y-34305526D01*
X36912407Y-34410612D01*
X37075733Y-34483329D01*
X37250609Y-34520500D01*
X37250610Y-34520500D01*
X37429389Y-34520500D01*
X37429391Y-34520500D01*
X37510587Y-34503241D01*
X37580252Y-34508557D01*
X37635985Y-34550693D01*
X37654297Y-34586213D01*
X37693747Y-34707628D01*
X37693750Y-34707635D01*
X37783141Y-34862465D01*
X37824812Y-34908746D01*
X37902764Y-34995321D01*
X37907594Y-34999669D01*
X37906297Y-35001109D01*
X37943315Y-35049123D01*
X37951080Y-35081137D01*
X37968703Y-35248803D01*
X37968704Y-35248805D01*
X37968704Y-35248807D01*
X38023947Y-35418829D01*
X38023950Y-35418835D01*
X38113341Y-35573665D01*
X38155012Y-35619946D01*
X38232964Y-35706521D01*
X38232967Y-35706523D01*
X38232970Y-35706526D01*
X38377607Y-35811612D01*
X38540933Y-35884329D01*
X38715809Y-35921500D01*
X38715810Y-35921500D01*
X38894589Y-35921500D01*
X38894591Y-35921500D01*
X39069467Y-35884329D01*
X39232793Y-35811612D01*
X39377430Y-35706526D01*
X39497059Y-35573665D01*
X39586450Y-35418835D01*
X39641697Y-35248803D01*
X39660385Y-35071000D01*
X39641697Y-34893197D01*
X39586450Y-34723165D01*
X39497059Y-34568335D01*
X39377430Y-34435474D01*
X39372601Y-34431126D01*
X39373898Y-34429684D01*
X39336888Y-34381687D01*
X39329120Y-34349668D01*
X39311497Y-34181997D01*
X39265522Y-34040500D01*
X39256252Y-34011970D01*
X39256249Y-34011964D01*
X39251264Y-34003329D01*
X39166859Y-33857135D01*
X39114647Y-33799148D01*
X39047235Y-33724278D01*
X39047232Y-33724276D01*
X39047231Y-33724275D01*
X39047230Y-33724274D01*
X38902593Y-33619188D01*
X38739267Y-33546471D01*
X38739265Y-33546470D01*
X38611594Y-33519333D01*
X38564391Y-33509300D01*
X38385609Y-33509300D01*
X38304412Y-33526558D01*
X38234746Y-33521242D01*
X38179013Y-33479104D01*
X38160702Y-33443586D01*
X38159938Y-33441236D01*
X38136080Y-33367807D01*
X38121252Y-33322170D01*
X38121249Y-33322164D01*
X38091830Y-33271208D01*
X38031859Y-33167335D01*
X37985003Y-33115296D01*
X37912235Y-33034478D01*
X37912232Y-33034476D01*
X37912231Y-33034475D01*
X37912230Y-33034474D01*
X37767593Y-32929388D01*
X37604267Y-32856671D01*
X37604265Y-32856670D01*
X37476594Y-32829533D01*
X37429391Y-32819500D01*
X37250609Y-32819500D01*
X37219954Y-32826015D01*
X37075733Y-32856670D01*
X37075728Y-32856672D01*
X36912408Y-32929387D01*
X36767768Y-33034475D01*
X36648140Y-33167336D01*
X36558750Y-33322164D01*
X36558747Y-33322170D01*
X36503504Y-33492192D01*
X36503503Y-33492194D01*
X36484815Y-33669999D01*
X32330750Y-33669999D01*
X32397320Y-33596066D01*
X32486711Y-33441236D01*
X32541958Y-33271204D01*
X32560646Y-33093401D01*
X32541958Y-32915598D01*
X32486711Y-32745566D01*
X32397320Y-32590736D01*
X32350464Y-32538697D01*
X32277696Y-32457879D01*
X32277693Y-32457877D01*
X32277692Y-32457876D01*
X32277691Y-32457875D01*
X32133054Y-32352789D01*
X31969728Y-32280072D01*
X31969726Y-32280071D01*
X31842055Y-32252934D01*
X31794852Y-32242901D01*
X31616070Y-32242901D01*
X31585415Y-32249416D01*
X31441194Y-32280071D01*
X31441189Y-32280073D01*
X31277869Y-32352788D01*
X31133229Y-32457876D01*
X31013601Y-32590737D01*
X30924211Y-32745565D01*
X30924208Y-32745571D01*
X30868965Y-32915593D01*
X30868964Y-32915595D01*
X30850276Y-33093401D01*
X30868964Y-33271206D01*
X30868965Y-33271208D01*
X30924208Y-33441230D01*
X30924211Y-33441236D01*
X31013602Y-33596066D01*
X31055273Y-33642347D01*
X31133225Y-33728922D01*
X31133228Y-33728924D01*
X31133231Y-33728927D01*
X31229883Y-33799149D01*
X31272547Y-33854478D01*
X31278526Y-33924092D01*
X31245920Y-33985887D01*
X31229883Y-33999783D01*
X31127769Y-34073974D01*
X31008140Y-34206836D01*
X30918750Y-34361664D01*
X30918747Y-34361670D01*
X30863504Y-34531692D01*
X30863503Y-34531694D01*
X30844815Y-34709499D01*
X25400500Y-34709499D01*
X25400500Y-33190000D01*
X28384815Y-33190000D01*
X28385330Y-33194898D01*
X28403503Y-33367805D01*
X28403504Y-33367807D01*
X28458747Y-33537829D01*
X28458750Y-33537835D01*
X28548141Y-33692665D01*
X28589812Y-33738946D01*
X28667764Y-33825521D01*
X28667767Y-33825523D01*
X28667770Y-33825526D01*
X28812407Y-33930612D01*
X28975733Y-34003329D01*
X29150609Y-34040500D01*
X29150610Y-34040500D01*
X29329389Y-34040500D01*
X29329391Y-34040500D01*
X29504267Y-34003329D01*
X29667593Y-33930612D01*
X29812230Y-33825526D01*
X29812707Y-33824997D01*
X29838148Y-33796741D01*
X29931859Y-33692665D01*
X30021250Y-33537835D01*
X30076497Y-33367803D01*
X30095185Y-33190000D01*
X30076497Y-33012197D01*
X30025964Y-32856672D01*
X30021252Y-32842170D01*
X30021249Y-32842164D01*
X30016671Y-32834234D01*
X29931859Y-32687335D01*
X29871280Y-32620055D01*
X29812235Y-32554478D01*
X29812232Y-32554476D01*
X29812231Y-32554475D01*
X29812230Y-32554474D01*
X29667593Y-32449388D01*
X29504267Y-32376671D01*
X29504265Y-32376670D01*
X29376594Y-32349533D01*
X29329391Y-32339500D01*
X29150609Y-32339500D01*
X29119954Y-32346015D01*
X28975733Y-32376670D01*
X28975728Y-32376672D01*
X28812408Y-32449387D01*
X28667768Y-32554475D01*
X28548140Y-32687336D01*
X28458750Y-32842164D01*
X28458747Y-32842170D01*
X28403504Y-33012192D01*
X28403503Y-33012194D01*
X28401161Y-33034475D01*
X28384815Y-33190000D01*
X25400500Y-33190000D01*
X25400500Y-27940000D01*
X25685172Y-27940000D01*
X25704462Y-28234312D01*
X25704464Y-28234324D01*
X25762001Y-28523584D01*
X25762005Y-28523599D01*
X25856812Y-28802888D01*
X25987258Y-29067406D01*
X25987265Y-29067419D01*
X26151122Y-29312648D01*
X26180406Y-29346039D01*
X26900554Y-28625891D01*
X26961877Y-28592406D01*
X27031568Y-28597390D01*
X27087502Y-28639262D01*
X27089242Y-28641644D01*
X27104893Y-28663623D01*
X27104895Y-28663625D01*
X27251041Y-28802975D01*
X27285976Y-28863484D01*
X27282651Y-28933274D01*
X27253152Y-28980399D01*
X26533959Y-29699592D01*
X26533959Y-29699593D01*
X26567344Y-29728872D01*
X26567348Y-29728875D01*
X26812580Y-29892734D01*
X26812593Y-29892741D01*
X27077111Y-30023187D01*
X27356400Y-30117994D01*
X27356415Y-30117998D01*
X27645675Y-30175535D01*
X27645687Y-30175537D01*
X27940000Y-30194827D01*
X28234312Y-30175537D01*
X28234324Y-30175535D01*
X28523584Y-30117998D01*
X28523599Y-30117994D01*
X28802888Y-30023187D01*
X29067406Y-29892741D01*
X29067419Y-29892734D01*
X29312650Y-29728877D01*
X29346039Y-29699593D01*
X29346040Y-29699592D01*
X28624234Y-28977787D01*
X28590749Y-28916464D01*
X28595733Y-28846773D01*
X28635263Y-28792636D01*
X28702540Y-28739729D01*
X28796721Y-28631037D01*
X28855496Y-28593265D01*
X28925366Y-28593265D01*
X28978113Y-28624561D01*
X29699592Y-29346040D01*
X29699593Y-29346039D01*
X29728877Y-29312650D01*
X29892734Y-29067419D01*
X29892737Y-29067413D01*
X29919771Y-29012594D01*
X29967076Y-28961174D01*
X30034671Y-28943492D01*
X30101096Y-28965161D01*
X30145260Y-29019302D01*
X30154601Y-29057706D01*
X30164317Y-29181148D01*
X30164318Y-29181151D01*
X30223126Y-29426110D01*
X30319533Y-29658859D01*
X30451160Y-29873653D01*
X30451161Y-29873656D01*
X30479999Y-29907421D01*
X30614776Y-30065224D01*
X30743934Y-30175535D01*
X30806343Y-30228838D01*
X30806346Y-30228839D01*
X31021140Y-30360466D01*
X31253888Y-30456873D01*
X31253889Y-30456873D01*
X31498852Y-30515683D01*
X31750000Y-30535449D01*
X32001148Y-30515683D01*
X32246111Y-30456873D01*
X32478859Y-30360466D01*
X32693659Y-30228836D01*
X32885224Y-30065224D01*
X32925710Y-30017819D01*
X32984216Y-29979627D01*
X33054084Y-29979128D01*
X33113130Y-30016482D01*
X33114235Y-30017756D01*
X33154772Y-30065219D01*
X33154776Y-30065224D01*
X33346343Y-30228838D01*
X33346346Y-30228839D01*
X33561140Y-30360466D01*
X33793888Y-30456872D01*
X33793889Y-30456873D01*
X34038852Y-30515683D01*
X34290000Y-30535449D01*
X34541148Y-30515683D01*
X34786111Y-30456873D01*
X35018859Y-30360466D01*
X35233659Y-30228836D01*
X35425224Y-30065224D01*
X35465710Y-30017819D01*
X35524216Y-29979627D01*
X35594084Y-29979128D01*
X35653130Y-30016482D01*
X35654235Y-30017756D01*
X35694772Y-30065219D01*
X35694776Y-30065224D01*
X35886343Y-30228838D01*
X35886346Y-30228839D01*
X36101140Y-30360466D01*
X36333888Y-30456873D01*
X36333889Y-30456873D01*
X36578852Y-30515683D01*
X36830000Y-30535449D01*
X37081148Y-30515683D01*
X37326111Y-30456873D01*
X37558859Y-30360466D01*
X37773659Y-30228836D01*
X37965224Y-30065224D01*
X38005709Y-30017820D01*
X38064215Y-29979628D01*
X38134083Y-29979128D01*
X38193130Y-30016481D01*
X38194211Y-30017728D01*
X38234772Y-30065219D01*
X38234776Y-30065224D01*
X38426343Y-30228838D01*
X38426346Y-30228839D01*
X38641140Y-30360466D01*
X38873889Y-30456872D01*
X38873889Y-30456873D01*
X39118852Y-30515683D01*
X39370000Y-30535449D01*
X39621148Y-30515683D01*
X39866111Y-30456873D01*
X40098859Y-30360466D01*
X40313659Y-30228836D01*
X40505224Y-30065224D01*
X40668836Y-29873659D01*
X40800466Y-29658859D01*
X40896873Y-29426111D01*
X40955683Y-29181148D01*
X40965398Y-29057704D01*
X40990281Y-28992420D01*
X41046512Y-28950949D01*
X41116237Y-28946462D01*
X41177320Y-28980384D01*
X41200227Y-29012593D01*
X41227258Y-29067406D01*
X41227265Y-29067419D01*
X41391122Y-29312648D01*
X41420406Y-29346039D01*
X42140554Y-28625891D01*
X42201877Y-28592406D01*
X42271568Y-28597390D01*
X42327502Y-28639262D01*
X42329242Y-28641644D01*
X42344893Y-28663623D01*
X42344895Y-28663625D01*
X42491041Y-28802975D01*
X42525976Y-28863484D01*
X42522651Y-28933274D01*
X42493152Y-28980399D01*
X41773959Y-29699592D01*
X41773959Y-29699593D01*
X41807344Y-29728872D01*
X41807348Y-29728875D01*
X42052580Y-29892734D01*
X42052593Y-29892741D01*
X42317111Y-30023187D01*
X42596400Y-30117994D01*
X42596415Y-30117998D01*
X42885675Y-30175535D01*
X42885687Y-30175537D01*
X43180000Y-30194827D01*
X43474312Y-30175537D01*
X43474324Y-30175535D01*
X43763584Y-30117998D01*
X43763599Y-30117994D01*
X44042888Y-30023187D01*
X44307406Y-29892741D01*
X44307419Y-29892734D01*
X44552650Y-29728877D01*
X44586039Y-29699593D01*
X44586040Y-29699592D01*
X43864234Y-28977787D01*
X43830749Y-28916464D01*
X43835733Y-28846773D01*
X43875263Y-28792636D01*
X43942540Y-28739729D01*
X44036721Y-28631037D01*
X44095496Y-28593265D01*
X44165366Y-28593265D01*
X44218113Y-28624561D01*
X44939592Y-29346040D01*
X44939593Y-29346039D01*
X44968877Y-29312650D01*
X45132734Y-29067419D01*
X45132741Y-29067406D01*
X45263187Y-28802888D01*
X45357994Y-28523599D01*
X45357998Y-28523584D01*
X45415535Y-28234324D01*
X45415537Y-28234312D01*
X45434827Y-27940000D01*
X45415537Y-27645687D01*
X45415535Y-27645675D01*
X45357998Y-27356415D01*
X45357994Y-27356400D01*
X45263187Y-27077111D01*
X45132741Y-26812593D01*
X45132734Y-26812580D01*
X44968875Y-26567348D01*
X44968872Y-26567344D01*
X44939593Y-26533959D01*
X44939592Y-26533959D01*
X44219444Y-27254107D01*
X44158121Y-27287592D01*
X44088429Y-27282608D01*
X44032496Y-27240736D01*
X44030755Y-27238352D01*
X44015108Y-27216378D01*
X44015104Y-27216374D01*
X43868957Y-27077023D01*
X43834022Y-27016514D01*
X43837347Y-26946724D01*
X43866846Y-26899599D01*
X44586039Y-26180406D01*
X44552648Y-26151122D01*
X44307419Y-25987265D01*
X44307406Y-25987258D01*
X44042888Y-25856812D01*
X43763599Y-25762005D01*
X43763584Y-25762001D01*
X43474324Y-25704464D01*
X43474312Y-25704462D01*
X43180000Y-25685172D01*
X42885687Y-25704462D01*
X42885675Y-25704464D01*
X42596415Y-25762001D01*
X42596400Y-25762005D01*
X42317111Y-25856812D01*
X42052593Y-25987258D01*
X42052580Y-25987265D01*
X41807350Y-26151123D01*
X41773958Y-26180406D01*
X42495765Y-26902212D01*
X42529250Y-26963535D01*
X42524266Y-27033226D01*
X42484737Y-27087363D01*
X42417458Y-27140272D01*
X42417453Y-27140277D01*
X42323278Y-27248960D01*
X42264500Y-27286734D01*
X42194630Y-27286734D01*
X42141885Y-27255438D01*
X41420406Y-26533958D01*
X41391123Y-26567350D01*
X41227265Y-26812580D01*
X41227258Y-26812593D01*
X41096812Y-27077111D01*
X41002005Y-27356400D01*
X41002001Y-27356415D01*
X40944464Y-27645675D01*
X40944462Y-27645687D01*
X40925172Y-27940003D01*
X40926441Y-27959370D01*
X40911181Y-28027553D01*
X40861480Y-28076662D01*
X40793120Y-28091105D01*
X40727803Y-28066297D01*
X40696978Y-28032265D01*
X40694090Y-28027553D01*
X40668836Y-27986341D01*
X40505224Y-27794776D01*
X40370236Y-27679485D01*
X40313656Y-27631161D01*
X40313653Y-27631160D01*
X40098859Y-27499533D01*
X39866110Y-27403126D01*
X39621151Y-27344317D01*
X39370000Y-27324551D01*
X39118848Y-27344317D01*
X38873889Y-27403126D01*
X38641140Y-27499533D01*
X38426346Y-27631160D01*
X38426343Y-27631161D01*
X38234776Y-27794776D01*
X38194290Y-27842179D01*
X38135783Y-27880372D01*
X38065915Y-27880870D01*
X38006869Y-27843516D01*
X38005710Y-27842179D01*
X37965224Y-27794776D01*
X37830236Y-27679485D01*
X37773656Y-27631161D01*
X37773653Y-27631160D01*
X37558859Y-27499533D01*
X37326110Y-27403126D01*
X37081151Y-27344317D01*
X36830000Y-27324551D01*
X36578848Y-27344317D01*
X36333889Y-27403126D01*
X36101140Y-27499533D01*
X35886346Y-27631160D01*
X35886343Y-27631161D01*
X35694776Y-27794776D01*
X35654290Y-27842179D01*
X35595783Y-27880372D01*
X35525915Y-27880870D01*
X35466869Y-27843516D01*
X35465710Y-27842179D01*
X35425224Y-27794776D01*
X35290236Y-27679485D01*
X35233656Y-27631161D01*
X35233653Y-27631160D01*
X35018859Y-27499533D01*
X34786110Y-27403126D01*
X34541151Y-27344317D01*
X34352786Y-27329492D01*
X34290000Y-27324551D01*
X34289999Y-27324551D01*
X34038848Y-27344317D01*
X33793889Y-27403126D01*
X33561140Y-27499533D01*
X33346346Y-27631160D01*
X33346343Y-27631161D01*
X33154776Y-27794776D01*
X33114290Y-27842179D01*
X33055783Y-27880372D01*
X32985915Y-27880870D01*
X32926869Y-27843516D01*
X32925710Y-27842179D01*
X32885224Y-27794776D01*
X32750236Y-27679485D01*
X32693656Y-27631161D01*
X32693653Y-27631160D01*
X32478859Y-27499533D01*
X32246110Y-27403126D01*
X32001151Y-27344317D01*
X31812786Y-27329492D01*
X31750000Y-27324551D01*
X31749999Y-27324551D01*
X31498848Y-27344317D01*
X31253889Y-27403126D01*
X31021140Y-27499533D01*
X30806346Y-27631160D01*
X30806343Y-27631161D01*
X30614776Y-27794776D01*
X30451163Y-27986342D01*
X30423020Y-28032267D01*
X30371208Y-28079142D01*
X30302278Y-28090564D01*
X30238115Y-28062906D01*
X30199091Y-28004950D01*
X30193559Y-27959365D01*
X30194827Y-27940006D01*
X30175537Y-27645687D01*
X30175535Y-27645675D01*
X30117998Y-27356415D01*
X30117994Y-27356400D01*
X30023187Y-27077111D01*
X29892741Y-26812593D01*
X29892734Y-26812580D01*
X29728875Y-26567348D01*
X29728872Y-26567344D01*
X29699593Y-26533959D01*
X29699592Y-26533959D01*
X28979444Y-27254107D01*
X28918121Y-27287592D01*
X28848429Y-27282608D01*
X28792496Y-27240736D01*
X28790755Y-27238352D01*
X28775108Y-27216378D01*
X28775104Y-27216374D01*
X28628957Y-27077023D01*
X28594022Y-27016514D01*
X28597347Y-26946724D01*
X28626846Y-26899599D01*
X29346039Y-26180406D01*
X29312648Y-26151122D01*
X29067419Y-25987265D01*
X29067406Y-25987258D01*
X28802888Y-25856812D01*
X28523599Y-25762005D01*
X28523584Y-25762001D01*
X28234324Y-25704464D01*
X28234312Y-25704462D01*
X27940000Y-25685172D01*
X27645687Y-25704462D01*
X27645675Y-25704464D01*
X27356415Y-25762001D01*
X27356400Y-25762005D01*
X27077111Y-25856812D01*
X26812593Y-25987258D01*
X26812580Y-25987265D01*
X26567350Y-26151123D01*
X26533958Y-26180406D01*
X27255765Y-26902212D01*
X27289250Y-26963535D01*
X27284266Y-27033226D01*
X27244737Y-27087363D01*
X27177458Y-27140272D01*
X27177453Y-27140277D01*
X27083278Y-27248960D01*
X27024500Y-27286734D01*
X26954630Y-27286734D01*
X26901885Y-27255438D01*
X26180406Y-26533958D01*
X26151123Y-26567350D01*
X25987265Y-26812580D01*
X25987258Y-26812593D01*
X25856812Y-27077111D01*
X25762005Y-27356400D01*
X25762001Y-27356415D01*
X25704464Y-27645675D01*
X25704462Y-27645687D01*
X25685172Y-27940000D01*
X25400500Y-27940000D01*
X25400500Y-25524500D01*
X25420185Y-25457461D01*
X25472989Y-25411706D01*
X25524500Y-25400500D01*
X26415000Y-25400500D01*
X45576096Y-25409938D01*
G37*
G04 #@! TD.AperFunction*
M02*
