G04 #@! TF.GenerationSoftware,KiCad,Pcbnew,7.0.7*
G04 #@! TF.CreationDate,2023-10-16T22:19:58-07:00*
G04 #@! TF.ProjectId,DeploymentBoardV2.0,4465706c-6f79-46d6-956e-74426f617264,rev?*
G04 #@! TF.SameCoordinates,Original*
G04 #@! TF.FileFunction,Legend,Bot*
G04 #@! TF.FilePolarity,Positive*
%FSLAX46Y46*%
G04 Gerber Fmt 4.6, Leading zero omitted, Abs format (unit mm)*
G04 Created by KiCad (PCBNEW 7.0.7) date 2023-10-16 22:19:58*
%MOMM*%
%LPD*%
G01*
G04 APERTURE LIST*
G04 Aperture macros list*
%AMRoundRect*
0 Rectangle with rounded corners*
0 $1 Rounding radius*
0 $2 $3 $4 $5 $6 $7 $8 $9 X,Y pos of 4 corners*
0 Add a 4 corners polygon primitive as box body*
4,1,4,$2,$3,$4,$5,$6,$7,$8,$9,$2,$3,0*
0 Add four circle primitives for the rounded corners*
1,1,$1+$1,$2,$3*
1,1,$1+$1,$4,$5*
1,1,$1+$1,$6,$7*
1,1,$1+$1,$8,$9*
0 Add four rect primitives between the rounded corners*
20,1,$1+$1,$2,$3,$4,$5,0*
20,1,$1+$1,$4,$5,$6,$7,0*
20,1,$1+$1,$6,$7,$8,$9,0*
20,1,$1+$1,$8,$9,$2,$3,0*%
%AMFreePoly0*
4,1,19,0.500000,-0.750000,0.000000,-0.750000,0.000000,-0.744911,-0.071157,-0.744911,-0.207708,-0.704816,-0.327430,-0.627875,-0.420627,-0.520320,-0.479746,-0.390866,-0.500000,-0.250000,-0.500000,0.250000,-0.479746,0.390866,-0.420627,0.520320,-0.327430,0.627875,-0.207708,0.704816,-0.071157,0.744911,0.000000,0.744911,0.000000,0.750000,0.500000,0.750000,0.500000,-0.750000,0.500000,-0.750000,
$1*%
%AMFreePoly1*
4,1,19,0.000000,0.744911,0.071157,0.744911,0.207708,0.704816,0.327430,0.627875,0.420627,0.520320,0.479746,0.390866,0.500000,0.250000,0.500000,-0.250000,0.479746,-0.390866,0.420627,-0.520320,0.327430,-0.627875,0.207708,-0.704816,0.071157,-0.744911,0.000000,-0.744911,0.000000,-0.750000,-0.500000,-0.750000,-0.500000,0.750000,0.000000,0.750000,0.000000,0.744911,0.000000,0.744911,
$1*%
G04 Aperture macros list end*
%ADD10C,0.100000*%
%ADD11C,0.200000*%
%ADD12C,0.150000*%
%ADD13C,0.120000*%
%ADD14C,3.500000*%
%ADD15C,1.700000*%
%ADD16O,1.700000X1.700000*%
%ADD17R,1.700000X1.700000*%
%ADD18C,2.200000*%
%ADD19RoundRect,0.075000X-0.662500X-0.075000X0.662500X-0.075000X0.662500X0.075000X-0.662500X0.075000X0*%
%ADD20RoundRect,0.075000X-0.075000X-0.662500X0.075000X-0.662500X0.075000X0.662500X-0.075000X0.662500X0*%
%ADD21FreePoly0,90.000000*%
%ADD22FreePoly1,90.000000*%
G04 APERTURE END LIST*
D10*
X40543009Y-44326761D02*
X40519200Y-44350570D01*
X40519200Y-44350570D02*
X40495390Y-44421999D01*
X40495390Y-44421999D02*
X40495390Y-44469618D01*
X40495390Y-44469618D02*
X40519200Y-44541046D01*
X40519200Y-44541046D02*
X40566819Y-44588665D01*
X40566819Y-44588665D02*
X40614438Y-44612475D01*
X40614438Y-44612475D02*
X40709676Y-44636284D01*
X40709676Y-44636284D02*
X40781104Y-44636284D01*
X40781104Y-44636284D02*
X40876342Y-44612475D01*
X40876342Y-44612475D02*
X40923961Y-44588665D01*
X40923961Y-44588665D02*
X40971580Y-44541046D01*
X40971580Y-44541046D02*
X40995390Y-44469618D01*
X40995390Y-44469618D02*
X40995390Y-44421999D01*
X40995390Y-44421999D02*
X40971580Y-44350570D01*
X40971580Y-44350570D02*
X40947771Y-44326761D01*
X40638247Y-44136284D02*
X40638247Y-43898189D01*
X40495390Y-44183903D02*
X40995390Y-44017237D01*
X40995390Y-44017237D02*
X40495390Y-43850570D01*
X40495390Y-43683904D02*
X40995390Y-43683904D01*
X40995390Y-43683904D02*
X40495390Y-43398190D01*
X40495390Y-43398190D02*
X40995390Y-43398190D01*
X40995390Y-42850570D02*
X40995390Y-42564856D01*
X40495390Y-42707713D02*
X40995390Y-42707713D01*
X40757295Y-42398190D02*
X40757295Y-42231523D01*
X40495390Y-42160095D02*
X40495390Y-42398190D01*
X40495390Y-42398190D02*
X40995390Y-42398190D01*
X40995390Y-42398190D02*
X40995390Y-42160095D01*
X40495390Y-41660095D02*
X40733485Y-41826761D01*
X40495390Y-41945809D02*
X40995390Y-41945809D01*
X40995390Y-41945809D02*
X40995390Y-41755333D01*
X40995390Y-41755333D02*
X40971580Y-41707714D01*
X40971580Y-41707714D02*
X40947771Y-41683904D01*
X40947771Y-41683904D02*
X40900152Y-41660095D01*
X40900152Y-41660095D02*
X40828723Y-41660095D01*
X40828723Y-41660095D02*
X40781104Y-41683904D01*
X40781104Y-41683904D02*
X40757295Y-41707714D01*
X40757295Y-41707714D02*
X40733485Y-41755333D01*
X40733485Y-41755333D02*
X40733485Y-41945809D01*
X40495390Y-41445809D02*
X40995390Y-41445809D01*
X40995390Y-41445809D02*
X40638247Y-41279142D01*
X40638247Y-41279142D02*
X40995390Y-41112476D01*
X40995390Y-41112476D02*
X40495390Y-41112476D01*
X39690390Y-42981523D02*
X39928485Y-43148189D01*
X39690390Y-43267237D02*
X40190390Y-43267237D01*
X40190390Y-43267237D02*
X40190390Y-43076761D01*
X40190390Y-43076761D02*
X40166580Y-43029142D01*
X40166580Y-43029142D02*
X40142771Y-43005332D01*
X40142771Y-43005332D02*
X40095152Y-42981523D01*
X40095152Y-42981523D02*
X40023723Y-42981523D01*
X40023723Y-42981523D02*
X39976104Y-43005332D01*
X39976104Y-43005332D02*
X39952295Y-43029142D01*
X39952295Y-43029142D02*
X39928485Y-43076761D01*
X39928485Y-43076761D02*
X39928485Y-43267237D01*
X39952295Y-42767237D02*
X39952295Y-42600570D01*
X39690390Y-42529142D02*
X39690390Y-42767237D01*
X39690390Y-42767237D02*
X40190390Y-42767237D01*
X40190390Y-42767237D02*
X40190390Y-42529142D01*
X39714200Y-42338665D02*
X39690390Y-42267237D01*
X39690390Y-42267237D02*
X39690390Y-42148189D01*
X39690390Y-42148189D02*
X39714200Y-42100570D01*
X39714200Y-42100570D02*
X39738009Y-42076761D01*
X39738009Y-42076761D02*
X39785628Y-42052951D01*
X39785628Y-42052951D02*
X39833247Y-42052951D01*
X39833247Y-42052951D02*
X39880866Y-42076761D01*
X39880866Y-42076761D02*
X39904676Y-42100570D01*
X39904676Y-42100570D02*
X39928485Y-42148189D01*
X39928485Y-42148189D02*
X39952295Y-42243427D01*
X39952295Y-42243427D02*
X39976104Y-42291046D01*
X39976104Y-42291046D02*
X39999914Y-42314856D01*
X39999914Y-42314856D02*
X40047533Y-42338665D01*
X40047533Y-42338665D02*
X40095152Y-42338665D01*
X40095152Y-42338665D02*
X40142771Y-42314856D01*
X40142771Y-42314856D02*
X40166580Y-42291046D01*
X40166580Y-42291046D02*
X40190390Y-42243427D01*
X40190390Y-42243427D02*
X40190390Y-42124380D01*
X40190390Y-42124380D02*
X40166580Y-42052951D01*
D11*
X41370326Y-37457100D02*
X41191755Y-37516623D01*
X41191755Y-37516623D02*
X40894136Y-37516623D01*
X40894136Y-37516623D02*
X40775088Y-37457100D01*
X40775088Y-37457100D02*
X40715564Y-37397576D01*
X40715564Y-37397576D02*
X40656041Y-37278528D01*
X40656041Y-37278528D02*
X40656041Y-37159480D01*
X40656041Y-37159480D02*
X40715564Y-37040433D01*
X40715564Y-37040433D02*
X40775088Y-36980909D01*
X40775088Y-36980909D02*
X40894136Y-36921385D01*
X40894136Y-36921385D02*
X41132231Y-36861861D01*
X41132231Y-36861861D02*
X41251279Y-36802338D01*
X41251279Y-36802338D02*
X41310802Y-36742814D01*
X41310802Y-36742814D02*
X41370326Y-36623766D01*
X41370326Y-36623766D02*
X41370326Y-36504719D01*
X41370326Y-36504719D02*
X41310802Y-36385671D01*
X41310802Y-36385671D02*
X41251279Y-36326147D01*
X41251279Y-36326147D02*
X41132231Y-36266623D01*
X41132231Y-36266623D02*
X40834612Y-36266623D01*
X40834612Y-36266623D02*
X40656041Y-36326147D01*
X40120326Y-37516623D02*
X40120326Y-36266623D01*
X40120326Y-36266623D02*
X39822707Y-36266623D01*
X39822707Y-36266623D02*
X39644136Y-36326147D01*
X39644136Y-36326147D02*
X39525088Y-36445195D01*
X39525088Y-36445195D02*
X39465565Y-36564242D01*
X39465565Y-36564242D02*
X39406041Y-36802338D01*
X39406041Y-36802338D02*
X39406041Y-36980909D01*
X39406041Y-36980909D02*
X39465565Y-37219004D01*
X39465565Y-37219004D02*
X39525088Y-37338052D01*
X39525088Y-37338052D02*
X39644136Y-37457100D01*
X39644136Y-37457100D02*
X39822707Y-37516623D01*
X39822707Y-37516623D02*
X40120326Y-37516623D01*
X38929850Y-37457100D02*
X38751279Y-37516623D01*
X38751279Y-37516623D02*
X38453660Y-37516623D01*
X38453660Y-37516623D02*
X38334612Y-37457100D01*
X38334612Y-37457100D02*
X38275088Y-37397576D01*
X38275088Y-37397576D02*
X38215565Y-37278528D01*
X38215565Y-37278528D02*
X38215565Y-37159480D01*
X38215565Y-37159480D02*
X38275088Y-37040433D01*
X38275088Y-37040433D02*
X38334612Y-36980909D01*
X38334612Y-36980909D02*
X38453660Y-36921385D01*
X38453660Y-36921385D02*
X38691755Y-36861861D01*
X38691755Y-36861861D02*
X38810803Y-36802338D01*
X38810803Y-36802338D02*
X38870326Y-36742814D01*
X38870326Y-36742814D02*
X38929850Y-36623766D01*
X38929850Y-36623766D02*
X38929850Y-36504719D01*
X38929850Y-36504719D02*
X38870326Y-36385671D01*
X38870326Y-36385671D02*
X38810803Y-36326147D01*
X38810803Y-36326147D02*
X38691755Y-36266623D01*
X38691755Y-36266623D02*
X38394136Y-36266623D01*
X38394136Y-36266623D02*
X38215565Y-36326147D01*
X37679850Y-36266623D02*
X37679850Y-37278528D01*
X37679850Y-37278528D02*
X37620327Y-37397576D01*
X37620327Y-37397576D02*
X37560803Y-37457100D01*
X37560803Y-37457100D02*
X37441755Y-37516623D01*
X37441755Y-37516623D02*
X37203660Y-37516623D01*
X37203660Y-37516623D02*
X37084612Y-37457100D01*
X37084612Y-37457100D02*
X37025089Y-37397576D01*
X37025089Y-37397576D02*
X36965565Y-37278528D01*
X36965565Y-37278528D02*
X36965565Y-36266623D01*
X35656041Y-37516623D02*
X36072707Y-36921385D01*
X36370326Y-37516623D02*
X36370326Y-36266623D01*
X36370326Y-36266623D02*
X35894136Y-36266623D01*
X35894136Y-36266623D02*
X35775088Y-36326147D01*
X35775088Y-36326147D02*
X35715565Y-36385671D01*
X35715565Y-36385671D02*
X35656041Y-36504719D01*
X35656041Y-36504719D02*
X35656041Y-36683290D01*
X35656041Y-36683290D02*
X35715565Y-36802338D01*
X35715565Y-36802338D02*
X35775088Y-36861861D01*
X35775088Y-36861861D02*
X35894136Y-36921385D01*
X35894136Y-36921385D02*
X36370326Y-36921385D01*
X35120326Y-37516623D02*
X35120326Y-36266623D01*
X35120326Y-36266623D02*
X34644136Y-36266623D01*
X34644136Y-36266623D02*
X34525088Y-36326147D01*
X34525088Y-36326147D02*
X34465565Y-36385671D01*
X34465565Y-36385671D02*
X34406041Y-36504719D01*
X34406041Y-36504719D02*
X34406041Y-36683290D01*
X34406041Y-36683290D02*
X34465565Y-36802338D01*
X34465565Y-36802338D02*
X34525088Y-36861861D01*
X34525088Y-36861861D02*
X34644136Y-36921385D01*
X34644136Y-36921385D02*
X35120326Y-36921385D01*
X32977469Y-36385671D02*
X32917945Y-36326147D01*
X32917945Y-36326147D02*
X32798898Y-36266623D01*
X32798898Y-36266623D02*
X32501279Y-36266623D01*
X32501279Y-36266623D02*
X32382231Y-36326147D01*
X32382231Y-36326147D02*
X32322707Y-36385671D01*
X32322707Y-36385671D02*
X32263184Y-36504719D01*
X32263184Y-36504719D02*
X32263184Y-36623766D01*
X32263184Y-36623766D02*
X32322707Y-36802338D01*
X32322707Y-36802338D02*
X33036993Y-37516623D01*
X33036993Y-37516623D02*
X32263184Y-37516623D01*
X31489374Y-36266623D02*
X31370327Y-36266623D01*
X31370327Y-36266623D02*
X31251279Y-36326147D01*
X31251279Y-36326147D02*
X31191755Y-36385671D01*
X31191755Y-36385671D02*
X31132231Y-36504719D01*
X31132231Y-36504719D02*
X31072708Y-36742814D01*
X31072708Y-36742814D02*
X31072708Y-37040433D01*
X31072708Y-37040433D02*
X31132231Y-37278528D01*
X31132231Y-37278528D02*
X31191755Y-37397576D01*
X31191755Y-37397576D02*
X31251279Y-37457100D01*
X31251279Y-37457100D02*
X31370327Y-37516623D01*
X31370327Y-37516623D02*
X31489374Y-37516623D01*
X31489374Y-37516623D02*
X31608422Y-37457100D01*
X31608422Y-37457100D02*
X31667946Y-37397576D01*
X31667946Y-37397576D02*
X31727469Y-37278528D01*
X31727469Y-37278528D02*
X31786993Y-37040433D01*
X31786993Y-37040433D02*
X31786993Y-36742814D01*
X31786993Y-36742814D02*
X31727469Y-36504719D01*
X31727469Y-36504719D02*
X31667946Y-36385671D01*
X31667946Y-36385671D02*
X31608422Y-36326147D01*
X31608422Y-36326147D02*
X31489374Y-36266623D01*
X30596517Y-36385671D02*
X30536993Y-36326147D01*
X30536993Y-36326147D02*
X30417946Y-36266623D01*
X30417946Y-36266623D02*
X30120327Y-36266623D01*
X30120327Y-36266623D02*
X30001279Y-36326147D01*
X30001279Y-36326147D02*
X29941755Y-36385671D01*
X29941755Y-36385671D02*
X29882232Y-36504719D01*
X29882232Y-36504719D02*
X29882232Y-36623766D01*
X29882232Y-36623766D02*
X29941755Y-36802338D01*
X29941755Y-36802338D02*
X30656041Y-37516623D01*
X30656041Y-37516623D02*
X29882232Y-37516623D01*
X29465565Y-36266623D02*
X28691756Y-36266623D01*
X28691756Y-36266623D02*
X29108422Y-36742814D01*
X29108422Y-36742814D02*
X28929851Y-36742814D01*
X28929851Y-36742814D02*
X28810803Y-36802338D01*
X28810803Y-36802338D02*
X28751279Y-36861861D01*
X28751279Y-36861861D02*
X28691756Y-36980909D01*
X28691756Y-36980909D02*
X28691756Y-37278528D01*
X28691756Y-37278528D02*
X28751279Y-37397576D01*
X28751279Y-37397576D02*
X28810803Y-37457100D01*
X28810803Y-37457100D02*
X28929851Y-37516623D01*
X28929851Y-37516623D02*
X29286994Y-37516623D01*
X29286994Y-37516623D02*
X29406041Y-37457100D01*
X29406041Y-37457100D02*
X29465565Y-37397576D01*
X42115326Y-51863480D02*
X41520088Y-51863480D01*
X42234374Y-52220623D02*
X41817707Y-50970623D01*
X41817707Y-50970623D02*
X41401041Y-52220623D01*
X40389135Y-52220623D02*
X40984373Y-52220623D01*
X40984373Y-52220623D02*
X40984373Y-50970623D01*
X39972468Y-51565861D02*
X39555802Y-51565861D01*
X39377230Y-52220623D02*
X39972468Y-52220623D01*
X39972468Y-52220623D02*
X39972468Y-50970623D01*
X39972468Y-50970623D02*
X39377230Y-50970623D01*
X38960564Y-50970623D02*
X38127231Y-52220623D01*
X38127231Y-50970623D02*
X38960564Y-52220623D01*
X36758183Y-51863480D02*
X36162945Y-51863480D01*
X36877231Y-52220623D02*
X36460564Y-50970623D01*
X36460564Y-50970623D02*
X36043898Y-52220623D01*
X35686754Y-51863480D02*
X35091516Y-51863480D01*
X35805802Y-52220623D02*
X35389135Y-50970623D01*
X35389135Y-50970623D02*
X34972469Y-52220623D01*
X33841516Y-52220623D02*
X34258182Y-51625385D01*
X34555801Y-52220623D02*
X34555801Y-50970623D01*
X34555801Y-50970623D02*
X34079611Y-50970623D01*
X34079611Y-50970623D02*
X33960563Y-51030147D01*
X33960563Y-51030147D02*
X33901040Y-51089671D01*
X33901040Y-51089671D02*
X33841516Y-51208719D01*
X33841516Y-51208719D02*
X33841516Y-51387290D01*
X33841516Y-51387290D02*
X33901040Y-51506338D01*
X33901040Y-51506338D02*
X33960563Y-51565861D01*
X33960563Y-51565861D02*
X34079611Y-51625385D01*
X34079611Y-51625385D02*
X34555801Y-51625385D01*
X33305801Y-52220623D02*
X33305801Y-50970623D01*
X33305801Y-51565861D02*
X32591516Y-51565861D01*
X32591516Y-52220623D02*
X32591516Y-50970623D01*
X31996277Y-50970623D02*
X31996277Y-51982528D01*
X31996277Y-51982528D02*
X31936754Y-52101576D01*
X31936754Y-52101576D02*
X31877230Y-52161100D01*
X31877230Y-52161100D02*
X31758182Y-52220623D01*
X31758182Y-52220623D02*
X31520087Y-52220623D01*
X31520087Y-52220623D02*
X31401039Y-52161100D01*
X31401039Y-52161100D02*
X31341516Y-52101576D01*
X31341516Y-52101576D02*
X31281992Y-51982528D01*
X31281992Y-51982528D02*
X31281992Y-50970623D01*
X30746277Y-52161100D02*
X30567706Y-52220623D01*
X30567706Y-52220623D02*
X30270087Y-52220623D01*
X30270087Y-52220623D02*
X30151039Y-52161100D01*
X30151039Y-52161100D02*
X30091515Y-52101576D01*
X30091515Y-52101576D02*
X30031992Y-51982528D01*
X30031992Y-51982528D02*
X30031992Y-51863480D01*
X30031992Y-51863480D02*
X30091515Y-51744433D01*
X30091515Y-51744433D02*
X30151039Y-51684909D01*
X30151039Y-51684909D02*
X30270087Y-51625385D01*
X30270087Y-51625385D02*
X30508182Y-51565861D01*
X30508182Y-51565861D02*
X30627230Y-51506338D01*
X30627230Y-51506338D02*
X30686753Y-51446814D01*
X30686753Y-51446814D02*
X30746277Y-51327766D01*
X30746277Y-51327766D02*
X30746277Y-51208719D01*
X30746277Y-51208719D02*
X30686753Y-51089671D01*
X30686753Y-51089671D02*
X30627230Y-51030147D01*
X30627230Y-51030147D02*
X30508182Y-50970623D01*
X30508182Y-50970623D02*
X30210563Y-50970623D01*
X30210563Y-50970623D02*
X30031992Y-51030147D01*
D12*
X28161904Y-47657319D02*
X28161904Y-48466842D01*
X28161904Y-48466842D02*
X28114285Y-48562080D01*
X28114285Y-48562080D02*
X28066666Y-48609700D01*
X28066666Y-48609700D02*
X27971428Y-48657319D01*
X27971428Y-48657319D02*
X27780952Y-48657319D01*
X27780952Y-48657319D02*
X27685714Y-48609700D01*
X27685714Y-48609700D02*
X27638095Y-48562080D01*
X27638095Y-48562080D02*
X27590476Y-48466842D01*
X27590476Y-48466842D02*
X27590476Y-47657319D01*
X26590476Y-48657319D02*
X27161904Y-48657319D01*
X26876190Y-48657319D02*
X26876190Y-47657319D01*
X26876190Y-47657319D02*
X26971428Y-47800176D01*
X26971428Y-47800176D02*
X27066666Y-47895414D01*
X27066666Y-47895414D02*
X27161904Y-47943033D01*
D13*
X45145000Y-41106400D02*
X42485000Y-41106400D01*
X45145000Y-33426400D02*
X45145000Y-41106400D01*
X45145000Y-33426400D02*
X42485000Y-33426400D01*
X45145000Y-32156400D02*
X45145000Y-30826400D01*
X45145000Y-30826400D02*
X43815000Y-30826400D01*
X42485000Y-33426400D02*
X42485000Y-41106400D01*
X45145000Y-52384000D02*
X42485000Y-52384000D01*
X45145000Y-44704000D02*
X45145000Y-52384000D01*
X45145000Y-44704000D02*
X42485000Y-44704000D01*
X45145000Y-43434000D02*
X45145000Y-42104000D01*
X45145000Y-42104000D02*
X43815000Y-42104000D01*
X42485000Y-44704000D02*
X42485000Y-52384000D01*
X30750200Y-55762200D02*
X30750200Y-53102200D01*
X38430200Y-55762200D02*
X30750200Y-55762200D01*
X38430200Y-55762200D02*
X38430200Y-53102200D01*
X39700200Y-55762200D02*
X41030200Y-55762200D01*
X41030200Y-55762200D02*
X41030200Y-54432200D01*
X38430200Y-53102200D02*
X30750200Y-53102200D01*
X29950000Y-25530000D02*
X30450000Y-25530000D01*
X29950000Y-26270000D02*
X29950000Y-25530000D01*
X30190000Y-25770000D02*
X40930000Y-25770000D01*
X30190000Y-26330000D02*
X40930000Y-26330000D01*
X30190000Y-31630000D02*
X40930000Y-31630000D01*
X30190000Y-32090000D02*
X30190000Y-25770000D01*
X30190000Y-32090000D02*
X40930000Y-32090000D01*
X40930000Y-32090000D02*
X40930000Y-25770000D01*
X28380000Y-40702500D02*
X28380000Y-41152500D01*
X28380000Y-47472500D02*
X27090000Y-47472500D01*
X28380000Y-47922500D02*
X28380000Y-47472500D01*
X28830000Y-40702500D02*
X28380000Y-40702500D01*
X28830000Y-47922500D02*
X28380000Y-47922500D01*
X35150000Y-40702500D02*
X35600000Y-40702500D01*
X35150000Y-47922500D02*
X35600000Y-47922500D01*
X35600000Y-40702500D02*
X35600000Y-41152500D01*
X35600000Y-47922500D02*
X35600000Y-47472500D01*
X40254600Y-47642400D02*
X40854600Y-47642400D01*
X41554600Y-46942400D02*
X41554600Y-45542400D01*
X39554600Y-45542400D02*
X39554600Y-46942400D01*
X40854600Y-44842400D02*
X40254600Y-44842400D01*
X39554600Y-46942400D02*
G75*
G03*
X40254600Y-47642400I699999J-1D01*
G01*
X40854600Y-47642400D02*
G75*
G03*
X41554600Y-46942400I1J699999D01*
G01*
X40254600Y-44842400D02*
G75*
G03*
X39554600Y-45542400I0J-700000D01*
G01*
X41554600Y-45542400D02*
G75*
G03*
X40854600Y-44842400I-700000J0D01*
G01*
%LPC*%
D14*
X43180000Y-54610000D03*
X27940000Y-54610000D03*
X27940000Y-27940000D03*
X43180000Y-27940000D03*
D15*
X43815000Y-32156400D03*
D16*
X43815000Y-34696400D03*
X43815000Y-37236400D03*
D17*
X43815000Y-39776400D03*
D15*
X43815000Y-43434000D03*
D16*
X43815000Y-45974000D03*
X43815000Y-48514000D03*
X43815000Y-51054000D03*
D15*
X39700200Y-54432200D03*
D16*
X37160200Y-54432200D03*
X34620200Y-54432200D03*
D17*
X32080200Y-54432200D03*
D18*
X31750000Y-28930000D03*
X34290000Y-28930000D03*
X36830000Y-28930000D03*
X39370000Y-28930000D03*
D19*
X27827500Y-47062500D03*
X27827500Y-46562500D03*
X27827500Y-46062500D03*
X27827500Y-45562500D03*
X27827500Y-45062500D03*
X27827500Y-44562500D03*
X27827500Y-44062500D03*
X27827500Y-43562500D03*
X27827500Y-43062500D03*
X27827500Y-42562500D03*
X27827500Y-42062500D03*
X27827500Y-41562500D03*
D20*
X29240000Y-40150000D03*
X29740000Y-40150000D03*
X30240000Y-40150000D03*
X30740000Y-40150000D03*
X31240000Y-40150000D03*
X31740000Y-40150000D03*
X32240000Y-40150000D03*
X32740000Y-40150000D03*
X33240000Y-40150000D03*
X33740000Y-40150000D03*
X34240000Y-40150000D03*
X34740000Y-40150000D03*
D19*
X36152500Y-41562500D03*
X36152500Y-42062500D03*
X36152500Y-42562500D03*
X36152500Y-43062500D03*
X36152500Y-43562500D03*
X36152500Y-44062500D03*
X36152500Y-44562500D03*
X36152500Y-45062500D03*
X36152500Y-45562500D03*
X36152500Y-46062500D03*
X36152500Y-46562500D03*
X36152500Y-47062500D03*
D20*
X34740000Y-48475000D03*
X34240000Y-48475000D03*
X33740000Y-48475000D03*
X33240000Y-48475000D03*
X32740000Y-48475000D03*
X32240000Y-48475000D03*
X31740000Y-48475000D03*
X31240000Y-48475000D03*
X30740000Y-48475000D03*
X30240000Y-48475000D03*
X29740000Y-48475000D03*
X29240000Y-48475000D03*
D21*
X40554600Y-46892400D03*
D22*
X40554600Y-45592400D03*
%LPD*%
M02*
