%TF.GenerationSoftware,KiCad,Pcbnew,7.0.7*%
%TF.CreationDate,2023-10-16T22:20:13-07:00*%
%TF.ProjectId,DeploymentBoardV2.0,4465706c-6f79-46d6-956e-74426f617264,rev?*%
%TF.SameCoordinates,Original*%
%TF.FileFunction,Drillmap*%
%TF.FilePolarity,Positive*%
%FSLAX45Y45*%
G04 Gerber Fmt 4.5, Leading zero omitted, Abs format (unit mm)*
G04 Created by KiCad (PCBNEW 7.0.7) date 2023-10-16 22:20:13*
%MOMM*%
%LPD*%
G01*
G04 APERTURE LIST*
%ADD10C,0.100000*%
%ADD11C,0.200000*%
G04 APERTURE END LIST*
D10*
X2540000Y-2540000D02*
X4572000Y-2540000D01*
X4572000Y-5715000D01*
X2540000Y-5715000D01*
X2540000Y-2540000D01*
D11*
X2795777Y-6031484D02*
X2795777Y-5831484D01*
X2795777Y-5831484D02*
X2843396Y-5831484D01*
X2843396Y-5831484D02*
X2871967Y-5841008D01*
X2871967Y-5841008D02*
X2891015Y-5860055D01*
X2891015Y-5860055D02*
X2900539Y-5879103D01*
X2900539Y-5879103D02*
X2910062Y-5917198D01*
X2910062Y-5917198D02*
X2910062Y-5945769D01*
X2910062Y-5945769D02*
X2900539Y-5983865D01*
X2900539Y-5983865D02*
X2891015Y-6002912D01*
X2891015Y-6002912D02*
X2871967Y-6021960D01*
X2871967Y-6021960D02*
X2843396Y-6031484D01*
X2843396Y-6031484D02*
X2795777Y-6031484D01*
X2995777Y-6031484D02*
X2995777Y-5898150D01*
X2995777Y-5936246D02*
X3005301Y-5917198D01*
X3005301Y-5917198D02*
X3014824Y-5907674D01*
X3014824Y-5907674D02*
X3033872Y-5898150D01*
X3033872Y-5898150D02*
X3052920Y-5898150D01*
X3119586Y-6031484D02*
X3119586Y-5898150D01*
X3119586Y-5831484D02*
X3110062Y-5841008D01*
X3110062Y-5841008D02*
X3119586Y-5850531D01*
X3119586Y-5850531D02*
X3129110Y-5841008D01*
X3129110Y-5841008D02*
X3119586Y-5831484D01*
X3119586Y-5831484D02*
X3119586Y-5850531D01*
X3243396Y-6031484D02*
X3224348Y-6021960D01*
X3224348Y-6021960D02*
X3214824Y-6002912D01*
X3214824Y-6002912D02*
X3214824Y-5831484D01*
X3348158Y-6031484D02*
X3329110Y-6021960D01*
X3329110Y-6021960D02*
X3319586Y-6002912D01*
X3319586Y-6002912D02*
X3319586Y-5831484D01*
X3576729Y-6031484D02*
X3576729Y-5831484D01*
X3576729Y-5831484D02*
X3643396Y-5974341D01*
X3643396Y-5974341D02*
X3710062Y-5831484D01*
X3710062Y-5831484D02*
X3710062Y-6031484D01*
X3891015Y-6031484D02*
X3891015Y-5926722D01*
X3891015Y-5926722D02*
X3881491Y-5907674D01*
X3881491Y-5907674D02*
X3862443Y-5898150D01*
X3862443Y-5898150D02*
X3824348Y-5898150D01*
X3824348Y-5898150D02*
X3805301Y-5907674D01*
X3891015Y-6021960D02*
X3871967Y-6031484D01*
X3871967Y-6031484D02*
X3824348Y-6031484D01*
X3824348Y-6031484D02*
X3805301Y-6021960D01*
X3805301Y-6021960D02*
X3795777Y-6002912D01*
X3795777Y-6002912D02*
X3795777Y-5983865D01*
X3795777Y-5983865D02*
X3805301Y-5964817D01*
X3805301Y-5964817D02*
X3824348Y-5955293D01*
X3824348Y-5955293D02*
X3871967Y-5955293D01*
X3871967Y-5955293D02*
X3891015Y-5945769D01*
X3986253Y-5898150D02*
X3986253Y-6098150D01*
X3986253Y-5907674D02*
X4005301Y-5898150D01*
X4005301Y-5898150D02*
X4043396Y-5898150D01*
X4043396Y-5898150D02*
X4062443Y-5907674D01*
X4062443Y-5907674D02*
X4071967Y-5917198D01*
X4071967Y-5917198D02*
X4081491Y-5936246D01*
X4081491Y-5936246D02*
X4081491Y-5993388D01*
X4081491Y-5993388D02*
X4071967Y-6012436D01*
X4071967Y-6012436D02*
X4062443Y-6021960D01*
X4062443Y-6021960D02*
X4043396Y-6031484D01*
X4043396Y-6031484D02*
X4005301Y-6031484D01*
X4005301Y-6031484D02*
X3986253Y-6021960D01*
X4167205Y-6012436D02*
X4176729Y-6021960D01*
X4176729Y-6021960D02*
X4167205Y-6031484D01*
X4167205Y-6031484D02*
X4157682Y-6021960D01*
X4157682Y-6021960D02*
X4167205Y-6012436D01*
X4167205Y-6012436D02*
X4167205Y-6031484D01*
X4167205Y-5907674D02*
X4176729Y-5917198D01*
X4176729Y-5917198D02*
X4167205Y-5926722D01*
X4167205Y-5926722D02*
X4157682Y-5917198D01*
X4157682Y-5917198D02*
X4167205Y-5907674D01*
X4167205Y-5907674D02*
X4167205Y-5926722D01*
M02*
