G04 #@! TF.GenerationSoftware,KiCad,Pcbnew,9.0.0*
G04 #@! TF.CreationDate,2025-02-28T23:09:54-08:00*
G04 #@! TF.ProjectId,Constellation Stack V3.0,436f6e73-7465-46c6-9c61-74696f6e2053,rev?*
G04 #@! TF.SameCoordinates,Original*
G04 #@! TF.FileFunction,Paste,Top*
G04 #@! TF.FilePolarity,Positive*
%FSLAX46Y46*%
G04 Gerber Fmt 4.6, Leading zero omitted, Abs format (unit mm)*
G04 Created by KiCad (PCBNEW 9.0.0) date 2025-02-28 23:09:54*
%MOMM*%
%LPD*%
G01*
G04 APERTURE LIST*
G04 Aperture macros list*
%AMRoundRect*
0 Rectangle with rounded corners*
0 $1 Rounding radius*
0 $2 $3 $4 $5 $6 $7 $8 $9 X,Y pos of 4 corners*
0 Add a 4 corners polygon primitive as box body*
4,1,4,$2,$3,$4,$5,$6,$7,$8,$9,$2,$3,0*
0 Add four circle primitives for the rounded corners*
1,1,$1+$1,$2,$3*
1,1,$1+$1,$4,$5*
1,1,$1+$1,$6,$7*
1,1,$1+$1,$8,$9*
0 Add four rect primitives between the rounded corners*
20,1,$1+$1,$2,$3,$4,$5,0*
20,1,$1+$1,$4,$5,$6,$7,0*
20,1,$1+$1,$6,$7,$8,$9,0*
20,1,$1+$1,$8,$9,$2,$3,0*%
G04 Aperture macros list end*
%ADD10RoundRect,0.218750X-0.256250X0.218750X-0.256250X-0.218750X0.256250X-0.218750X0.256250X0.218750X0*%
%ADD11RoundRect,0.250000X-0.262500X-0.450000X0.262500X-0.450000X0.262500X0.450000X-0.262500X0.450000X0*%
%ADD12R,1.500000X0.900000*%
%ADD13R,0.900000X1.500000*%
%ADD14R,0.900000X0.900000*%
%ADD15RoundRect,0.225000X0.250000X-0.225000X0.250000X0.225000X-0.250000X0.225000X-0.250000X-0.225000X0*%
%ADD16RoundRect,0.250000X-0.475000X0.250000X-0.475000X-0.250000X0.475000X-0.250000X0.475000X0.250000X0*%
%ADD17RoundRect,0.250000X0.475000X-0.250000X0.475000X0.250000X-0.475000X0.250000X-0.475000X-0.250000X0*%
%ADD18R,0.254000X0.482600*%
%ADD19R,0.482600X0.254000*%
%ADD20RoundRect,0.375000X0.625000X0.375000X-0.625000X0.375000X-0.625000X-0.375000X0.625000X-0.375000X0*%
%ADD21RoundRect,0.500000X0.500000X1.400000X-0.500000X1.400000X-0.500000X-1.400000X0.500000X-1.400000X0*%
%ADD22RoundRect,0.150000X0.512500X0.150000X-0.512500X0.150000X-0.512500X-0.150000X0.512500X-0.150000X0*%
%ADD23RoundRect,0.225000X-0.225000X-0.250000X0.225000X-0.250000X0.225000X0.250000X-0.225000X0.250000X0*%
%ADD24RoundRect,0.225000X-0.250000X0.225000X-0.250000X-0.225000X0.250000X-0.225000X0.250000X0.225000X0*%
%ADD25RoundRect,0.218750X0.218750X0.256250X-0.218750X0.256250X-0.218750X-0.256250X0.218750X-0.256250X0*%
%ADD26RoundRect,0.200000X0.275000X-0.200000X0.275000X0.200000X-0.275000X0.200000X-0.275000X-0.200000X0*%
%ADD27RoundRect,0.150000X-0.650000X-0.150000X0.650000X-0.150000X0.650000X0.150000X-0.650000X0.150000X0*%
%ADD28RoundRect,0.200000X-0.200000X-0.275000X0.200000X-0.275000X0.200000X0.275000X-0.200000X0.275000X0*%
%ADD29R,0.889000X1.397000*%
%ADD30RoundRect,0.150000X-0.150000X0.512500X-0.150000X-0.512500X0.150000X-0.512500X0.150000X0.512500X0*%
%ADD31RoundRect,0.225000X0.225000X0.250000X-0.225000X0.250000X-0.225000X-0.250000X0.225000X-0.250000X0*%
%ADD32RoundRect,0.150000X0.650000X0.150000X-0.650000X0.150000X-0.650000X-0.150000X0.650000X-0.150000X0*%
%ADD33R,0.254000X0.279400*%
%ADD34R,0.279400X0.254000*%
%ADD35RoundRect,0.250000X-0.325000X-1.100000X0.325000X-1.100000X0.325000X1.100000X-0.325000X1.100000X0*%
%ADD36RoundRect,0.150000X0.150000X-0.512500X0.150000X0.512500X-0.150000X0.512500X-0.150000X-0.512500X0*%
%ADD37RoundRect,0.150000X0.150000X-0.825000X0.150000X0.825000X-0.150000X0.825000X-0.150000X-0.825000X0*%
%ADD38RoundRect,0.250000X-0.375000X-0.850000X0.375000X-0.850000X0.375000X0.850000X-0.375000X0.850000X0*%
%ADD39RoundRect,0.075000X-0.075000X0.662500X-0.075000X-0.662500X0.075000X-0.662500X0.075000X0.662500X0*%
%ADD40RoundRect,0.200000X0.200000X0.275000X-0.200000X0.275000X-0.200000X-0.275000X0.200000X-0.275000X0*%
%ADD41R,2.209800X1.574800*%
G04 APERTURE END LIST*
D10*
X33520000Y-32412499D03*
X33520000Y-33987501D03*
D11*
X54530000Y-35071600D03*
X56355000Y-35071600D03*
D12*
X62725000Y-80800000D03*
X62725000Y-79530000D03*
X62725000Y-78260000D03*
X62725000Y-76990000D03*
X62725000Y-75720000D03*
X62725000Y-74450000D03*
X62725000Y-73180000D03*
X62725000Y-71910000D03*
X62725000Y-70640000D03*
X62725000Y-69370000D03*
X62725000Y-68100000D03*
X62725000Y-66830000D03*
X62725000Y-65560000D03*
X62725000Y-64290000D03*
D13*
X59690000Y-63040000D03*
X58420000Y-63040000D03*
X57150000Y-63040001D03*
X55880000Y-63040000D03*
X54610000Y-63040000D03*
X53340000Y-63040000D03*
X52070000Y-63040000D03*
X50800000Y-63040001D03*
X49530000Y-63040000D03*
X48260000Y-63040000D03*
D12*
X45225000Y-64290000D03*
X45225000Y-65560000D03*
X45225000Y-66830000D03*
X45225000Y-68100000D03*
X45225000Y-69370000D03*
X45225000Y-70640000D03*
X45225000Y-71910000D03*
X45225000Y-73180000D03*
X45225000Y-74450000D03*
X45225000Y-75720000D03*
X45225000Y-76990000D03*
X45225000Y-78260000D03*
X45225000Y-79530000D03*
X45225000Y-80800000D03*
D14*
X56875000Y-74860000D03*
X56875000Y-73460000D03*
X56875000Y-72060000D03*
X55475000Y-74860000D03*
X55475000Y-73460000D03*
X55475000Y-72060000D03*
X54075000Y-74860000D03*
X54075000Y-73460000D03*
X54075000Y-72060000D03*
D15*
X74918700Y-41020800D03*
X74918700Y-39470800D03*
D16*
X74938700Y-49720800D03*
X74938700Y-51620798D03*
D17*
X36855000Y-57765999D03*
X36855000Y-55866001D03*
D15*
X71540002Y-68700000D03*
X71540002Y-67150000D03*
D18*
X52475000Y-52819300D03*
X52974999Y-52819300D03*
X53475001Y-52819300D03*
X53975000Y-52819300D03*
X54474999Y-52819300D03*
X54975001Y-52819300D03*
X55475000Y-52819300D03*
D19*
X55886300Y-53975000D03*
D18*
X55475000Y-55130700D03*
X54975001Y-55130700D03*
X54474999Y-55130700D03*
X53975000Y-55130700D03*
X53475001Y-55130700D03*
X52974999Y-55130700D03*
X52475000Y-55130700D03*
D19*
X52063700Y-53975000D03*
D20*
X72588700Y-54570800D03*
X72588699Y-52270800D03*
X72588700Y-49970800D03*
D21*
X66288701Y-52270800D03*
D22*
X72968700Y-37830799D03*
X72968700Y-36880800D03*
X72968700Y-35930801D03*
X70693700Y-35930801D03*
X70693700Y-36880800D03*
X70693700Y-37830799D03*
D23*
X34477500Y-44896000D03*
X36027500Y-44896000D03*
D24*
X45643800Y-36334400D03*
X45643800Y-37884400D03*
D25*
X79817051Y-66260000D03*
X78242049Y-66260000D03*
D26*
X60790000Y-45595000D03*
X60790000Y-43945000D03*
D27*
X36430400Y-35712400D03*
X36430400Y-36982400D03*
X36430400Y-38252400D03*
X36430400Y-39522400D03*
X43630400Y-39522400D03*
X43630400Y-38252400D03*
X43630400Y-36982400D03*
X43630400Y-35712400D03*
D24*
X64871600Y-79323600D03*
X64871600Y-80873600D03*
X64208699Y-53720800D03*
X64208699Y-55270800D03*
D23*
X32940000Y-46506000D03*
X34490000Y-46506000D03*
D15*
X65888700Y-47045800D03*
X65888700Y-45495800D03*
D28*
X75114550Y-66260000D03*
X76764550Y-66260000D03*
D29*
X79620001Y-69500000D03*
X73119999Y-69500000D03*
X57110451Y-59560000D03*
X50610449Y-59560000D03*
D30*
X35009998Y-66425000D03*
X34059999Y-66425000D03*
X33110000Y-66425000D03*
X33110000Y-68700000D03*
X35009998Y-68700000D03*
D26*
X33520000Y-37050000D03*
X33520000Y-35400000D03*
D31*
X35009999Y-70482500D03*
X33459999Y-70482500D03*
D26*
X68968700Y-37580801D03*
X68968700Y-35930801D03*
D32*
X70148700Y-47220800D03*
X70148700Y-46270800D03*
X70148700Y-45320800D03*
X67848700Y-45320800D03*
X67848700Y-47220800D03*
D33*
X73074701Y-61952599D03*
X72574701Y-61952599D03*
D34*
X72037301Y-62240000D03*
X72037301Y-62739999D03*
X72037301Y-63239998D03*
D33*
X72574701Y-63527399D03*
X73074701Y-63527399D03*
D34*
X73612101Y-63239998D03*
X73612101Y-62739999D03*
X73612101Y-62240000D03*
D35*
X32289999Y-42426000D03*
X35240001Y-42426000D03*
D23*
X73078300Y-60389599D03*
X74628300Y-60389599D03*
D31*
X36547499Y-64702500D03*
X34997499Y-64702500D03*
D36*
X66420002Y-33400000D03*
X68320000Y-33400000D03*
X67370001Y-31125000D03*
D23*
X75048300Y-62239599D03*
X76598300Y-62239599D03*
D17*
X72328701Y-47200798D03*
X72328701Y-45300800D03*
D37*
X53416200Y-42364200D03*
X54686200Y-42364200D03*
X55956200Y-42364200D03*
X57226200Y-42364200D03*
X57226200Y-37414200D03*
X55956200Y-37414200D03*
X54686200Y-37414200D03*
X53416200Y-37414200D03*
D10*
X80140000Y-33422499D03*
X80140000Y-34997501D03*
D38*
X71023700Y-41680800D03*
X73173700Y-41680800D03*
D15*
X37615000Y-46421000D03*
X37615000Y-44871000D03*
D23*
X53615000Y-51410000D03*
X55165000Y-51410000D03*
D15*
X35055200Y-57363600D03*
X35055200Y-55813600D03*
D39*
X39040000Y-48367500D03*
X38540000Y-48367500D03*
X38040000Y-48367500D03*
X37540000Y-48367500D03*
X37040000Y-48367500D03*
X36540000Y-48367500D03*
X36040000Y-48367500D03*
X35540000Y-48367500D03*
X35040000Y-48367500D03*
X34540000Y-48367500D03*
X34040000Y-48367500D03*
X33540000Y-48367500D03*
X33040000Y-48367500D03*
X32540000Y-48367500D03*
X32040000Y-48367500D03*
X31540000Y-48367500D03*
X31040000Y-48367500D03*
X30540000Y-48367500D03*
X30040000Y-48367500D03*
X30040000Y-54092500D03*
X30540000Y-54092500D03*
X31040000Y-54092500D03*
X31540000Y-54092500D03*
X32040000Y-54092500D03*
X32540000Y-54092500D03*
X33040000Y-54092500D03*
X33540000Y-54092500D03*
X34040000Y-54092500D03*
X34540000Y-54092500D03*
X35040000Y-54092500D03*
X35540000Y-54092500D03*
X36040000Y-54092500D03*
X36540000Y-54092500D03*
X37040000Y-54092500D03*
X37540000Y-54092500D03*
X38040000Y-54092500D03*
X38540000Y-54092500D03*
X39040000Y-54092500D03*
D26*
X64418700Y-42345800D03*
X64418700Y-40695800D03*
D31*
X54015000Y-56540000D03*
X52465000Y-56540000D03*
D26*
X71540002Y-71784999D03*
X71540002Y-70134999D03*
X60909200Y-36346400D03*
X60909200Y-34696400D03*
D10*
X60919199Y-31623899D03*
X60919199Y-33198901D03*
X64408700Y-37683299D03*
X64408700Y-39258301D03*
D26*
X80140000Y-38072500D03*
X80140000Y-36422500D03*
D16*
X74928700Y-35860800D03*
X74928700Y-37760798D03*
D40*
X67488700Y-35930801D03*
X65838700Y-35930801D03*
D10*
X60790000Y-40904998D03*
X60790000Y-42480000D03*
D24*
X51766700Y-36969700D03*
X51766700Y-38519700D03*
D16*
X66781600Y-79373600D03*
X66781600Y-81273598D03*
D23*
X69473700Y-39420800D03*
X71023700Y-39420800D03*
D41*
X32058998Y-60150499D03*
X32058998Y-64468501D03*
M02*
