G04 #@! TF.GenerationSoftware,KiCad,Pcbnew,9.0.0*
G04 #@! TF.CreationDate,2025-02-28T23:09:54-08:00*
G04 #@! TF.ProjectId,Constellation Stack V3.0,436f6e73-7465-46c6-9c61-74696f6e2053,rev?*
G04 #@! TF.SameCoordinates,Original*
G04 #@! TF.FileFunction,Copper,L4,Bot*
G04 #@! TF.FilePolarity,Positive*
%FSLAX46Y46*%
G04 Gerber Fmt 4.6, Leading zero omitted, Abs format (unit mm)*
G04 Created by KiCad (PCBNEW 9.0.0) date 2025-02-28 23:09:54*
%MOMM*%
%LPD*%
G01*
G04 APERTURE LIST*
G04 #@! TA.AperFunction,ComponentPad*
%ADD10C,5.600000*%
G04 #@! TD*
G04 #@! TA.AperFunction,HeatsinkPad*
%ADD11C,0.600000*%
G04 #@! TD*
G04 #@! TA.AperFunction,SMDPad,CuDef*
%ADD12C,1.500000*%
G04 #@! TD*
G04 #@! TA.AperFunction,ComponentPad*
%ADD13C,3.000000*%
G04 #@! TD*
G04 #@! TA.AperFunction,ComponentPad*
%ADD14C,1.700000*%
G04 #@! TD*
G04 #@! TA.AperFunction,ComponentPad*
%ADD15O,1.700000X1.700000*%
G04 #@! TD*
G04 #@! TA.AperFunction,ComponentPad*
%ADD16R,1.700000X1.700000*%
G04 #@! TD*
G04 #@! TA.AperFunction,SMDPad,CuDef*
%ADD17R,0.700000X1.600000*%
G04 #@! TD*
G04 #@! TA.AperFunction,SMDPad,CuDef*
%ADD18R,1.200000X1.800000*%
G04 #@! TD*
G04 #@! TA.AperFunction,SMDPad,CuDef*
%ADD19R,1.600000X1.500000*%
G04 #@! TD*
G04 #@! TA.AperFunction,SMDPad,CuDef*
%ADD20R,1.200000X2.200000*%
G04 #@! TD*
G04 #@! TA.AperFunction,ViaPad*
%ADD21C,0.700000*%
G04 #@! TD*
G04 #@! TA.AperFunction,ViaPad*
%ADD22C,1.000000*%
G04 #@! TD*
G04 #@! TA.AperFunction,ViaPad*
%ADD23C,0.800000*%
G04 #@! TD*
G04 #@! TA.AperFunction,Conductor*
%ADD24C,0.500000*%
G04 #@! TD*
G04 #@! TA.AperFunction,Conductor*
%ADD25C,0.250000*%
G04 #@! TD*
G04 #@! TA.AperFunction,Conductor*
%ADD26C,0.300000*%
G04 #@! TD*
G04 APERTURE END LIST*
D10*
X78740000Y-78740000D03*
D11*
X56875000Y-74160000D03*
X56875000Y-72760000D03*
X56175000Y-74860000D03*
X56175000Y-73460000D03*
X56175000Y-72060000D03*
X55475000Y-74160000D03*
X55475000Y-72760000D03*
X54775000Y-74860000D03*
X54775000Y-73460000D03*
X54775000Y-72060000D03*
X54075000Y-74160000D03*
X54075000Y-72760000D03*
D10*
X29210000Y-78740000D03*
X78740000Y-29210000D03*
X29210000Y-29210000D03*
D12*
X48120000Y-52280000D03*
X57680000Y-45700000D03*
D13*
X50820000Y-43060000D03*
D12*
X73360000Y-30080000D03*
D14*
X27940000Y-73660000D03*
D15*
X27940000Y-71120000D03*
X27940000Y-68580001D03*
D16*
X27940000Y-66040000D03*
D15*
X27940000Y-63500000D03*
X27940000Y-60960000D03*
D12*
X53030000Y-59300000D03*
X61440000Y-47150000D03*
D13*
X54360000Y-45240000D03*
X37520000Y-67600000D03*
D12*
X44880000Y-46120000D03*
X47320000Y-44210000D03*
D17*
X43000000Y-40540000D03*
X41900000Y-40540000D03*
X40800000Y-40540000D03*
X39699999Y-40540000D03*
X38600000Y-40540000D03*
X37500000Y-40540001D03*
X36400000Y-40540000D03*
X35300000Y-40540001D03*
X34200000Y-40540000D03*
D18*
X33000000Y-39240000D03*
D19*
X47600000Y-39490000D03*
D20*
X33000000Y-29940000D03*
X48500000Y-29940000D03*
D12*
X74810000Y-27980000D03*
D13*
X39960000Y-75710000D03*
D12*
X71990000Y-33160000D03*
D14*
X27940000Y-57150000D03*
D15*
X27940000Y-54610000D03*
X27940000Y-52070000D03*
X27940000Y-49530000D03*
X27940000Y-46990000D03*
X27940000Y-44450000D03*
X27940000Y-41910000D03*
X27940000Y-39370000D03*
D16*
X69850000Y-27940000D03*
D15*
X67310000Y-27940000D03*
X64770000Y-27940000D03*
X62230000Y-27940000D03*
X59690000Y-27940000D03*
X57150000Y-27940000D03*
X54610000Y-27940000D03*
D16*
X52070000Y-27940000D03*
D12*
X55240000Y-60770000D03*
X69930000Y-72400000D03*
X42170000Y-58540000D03*
D13*
X53740000Y-32020000D03*
X57850000Y-31980000D03*
D12*
X74590000Y-45540000D03*
D13*
X41640000Y-68590000D03*
D12*
X47930000Y-59600000D03*
X69060000Y-63290000D03*
D14*
X80010000Y-44450000D03*
D15*
X80010000Y-46990000D03*
X80010000Y-49530000D03*
X80010000Y-52070000D03*
X80010000Y-54610000D03*
X80010000Y-57150000D03*
X80010000Y-59690000D03*
D16*
X80010000Y-62230000D03*
D21*
X35075200Y-57968599D03*
X33240000Y-52730000D03*
X79234550Y-66280000D03*
X73550432Y-68120432D03*
D22*
X36027500Y-52776000D03*
D21*
X30505871Y-55380000D03*
X29695000Y-48316000D03*
X71618700Y-44730800D03*
X54615000Y-51392576D03*
D22*
X46228000Y-80822800D03*
D21*
X80151362Y-34010000D03*
X38115000Y-44366000D03*
X36557499Y-65352500D03*
D22*
X37775000Y-49546000D03*
X32747499Y-70482500D03*
D23*
X37714205Y-39540308D03*
D21*
X34995000Y-45416000D03*
X71200000Y-61840000D03*
X33055000Y-42426000D03*
X35470000Y-39190000D03*
X37493600Y-58392000D03*
X33520000Y-33000000D03*
X75143300Y-60929599D03*
X60929200Y-32211401D03*
X64881600Y-81493600D03*
X73788700Y-38980800D03*
X33780000Y-29960000D03*
X64848700Y-55300800D03*
X46670000Y-40420000D03*
X55956200Y-52832000D03*
X56490450Y-59570000D03*
X60780000Y-41492501D03*
X35969600Y-49730600D03*
X34310000Y-52690000D03*
X67100000Y-32990000D03*
X51126700Y-38514700D03*
X73988700Y-54950800D03*
X74938700Y-52290800D03*
X65248700Y-45510800D03*
X73998700Y-54220800D03*
D22*
X60401200Y-63271400D03*
D21*
X73959700Y-63019399D03*
X67110000Y-33710000D03*
X32240000Y-47120361D03*
X77190000Y-61730000D03*
X66801600Y-81933600D03*
X31547673Y-52805000D03*
X71098700Y-46290800D03*
X64424731Y-38270801D03*
X52400000Y-52027998D03*
D22*
X61671200Y-80822800D03*
X73360000Y-30080000D03*
D21*
X51900000Y-56070000D03*
X30984252Y-50041698D03*
X46380400Y-37896800D03*
X79010002Y-69500000D03*
X57686200Y-37444199D03*
X34270000Y-49630000D03*
X48520000Y-28630000D03*
X34021734Y-65496735D03*
X68348699Y-37580801D03*
X32280000Y-39260000D03*
X33315000Y-45896000D03*
D22*
X74810000Y-27980000D03*
X69538700Y-52260800D03*
X34987499Y-71212500D03*
X68438700Y-51160800D03*
D21*
X72463300Y-60409599D03*
X53010000Y-51253400D03*
D22*
X68438700Y-52250800D03*
D21*
X54110000Y-57180000D03*
X39730000Y-41490000D03*
D22*
X69538700Y-53360800D03*
D21*
X37388800Y-38277800D03*
X33510000Y-37610000D03*
D22*
X69488700Y-51160800D03*
D21*
X75403300Y-62849599D03*
X36865000Y-56546000D03*
X46278800Y-36347400D03*
D22*
X68438700Y-53360800D03*
D21*
X71600002Y-72457500D03*
D22*
X67771600Y-79373600D03*
X71990000Y-33160000D03*
X74590000Y-45540000D03*
D21*
X51096700Y-36979701D03*
D22*
X33498998Y-60488700D03*
D21*
X35115000Y-46506000D03*
D22*
X33620000Y-57760000D03*
X61440000Y-47150000D03*
D21*
X67210000Y-48370000D03*
X69930000Y-72400000D03*
X30364149Y-52638256D03*
X31540000Y-55270000D03*
X60940000Y-73470000D03*
X71050000Y-58510000D03*
X68880990Y-60661813D03*
X67340000Y-59480000D03*
X68170000Y-60110000D03*
X47930000Y-59600000D03*
X57680000Y-45700000D03*
X66169934Y-67741110D03*
X42170000Y-58540000D03*
X46500000Y-65560000D03*
X47320000Y-44210000D03*
X65270000Y-67730000D03*
X40400000Y-46130000D03*
X64270000Y-67720000D03*
X32570000Y-49710000D03*
X32650000Y-56930000D03*
X33550000Y-51040000D03*
D22*
X31240000Y-66730000D03*
X31240000Y-73210000D03*
D21*
X57370000Y-57010000D03*
X35470000Y-36980000D03*
X40970000Y-50500000D03*
X42767600Y-38252400D03*
X59115000Y-53975000D03*
X42020000Y-47870000D03*
X48120000Y-52280000D03*
X44875000Y-41925000D03*
X47640000Y-76880000D03*
X40030000Y-49080000D03*
X42990000Y-49852400D03*
X58360000Y-55551400D03*
X44600000Y-39530000D03*
X69060000Y-63290000D03*
X53714933Y-54351117D03*
X53720000Y-65560000D03*
X55112053Y-53712103D03*
X57450000Y-64340002D03*
X64390000Y-72800000D03*
X65230000Y-73430000D03*
X43220000Y-73210000D03*
D24*
X33030000Y-39240000D02*
X32300000Y-39240000D01*
X33030000Y-29940000D02*
X33760000Y-29940000D01*
X48520000Y-28630000D02*
X48530000Y-28640000D01*
X33760000Y-29940000D02*
X33780000Y-29960000D01*
X47630000Y-39490000D02*
X47600000Y-39490000D01*
X47600000Y-39490000D02*
X46670000Y-40420000D01*
D25*
X37530000Y-39724513D02*
X37714205Y-39540308D01*
X37530000Y-40540001D02*
X37530000Y-39724513D01*
D24*
X48530000Y-28640000D02*
X48530000Y-29940000D01*
X32300000Y-39240000D02*
X32280000Y-39260000D01*
X39729999Y-40540000D02*
X39729999Y-41489999D01*
X39729999Y-41489999D02*
X39730000Y-41490000D01*
X35774000Y-46506000D02*
X36170000Y-46110000D01*
X36170000Y-46110000D02*
X36170000Y-44220000D01*
X61440000Y-47150000D02*
X61440000Y-41965287D01*
X76920000Y-45880000D02*
X78350000Y-44450000D01*
X76360000Y-48370000D02*
X76920000Y-47810000D01*
X61440000Y-40408800D02*
X60299600Y-39268400D01*
X78350000Y-44450000D02*
X80010000Y-44450000D01*
X33620000Y-57760000D02*
X33620000Y-60367698D01*
X61440000Y-41965287D02*
X61581000Y-41824287D01*
X61581000Y-41160715D02*
X61440000Y-41019715D01*
X52651501Y-36979701D02*
X51096700Y-36979701D01*
X33620000Y-60367698D02*
X33498998Y-60488700D01*
X54940200Y-39268400D02*
X52651501Y-36979701D01*
X37240000Y-43150000D02*
X46422000Y-43150000D01*
X35115000Y-46506000D02*
X35774000Y-46506000D01*
X61581000Y-41824287D02*
X61581000Y-41160715D01*
X36170000Y-44220000D02*
X37240000Y-43150000D01*
X46422000Y-43150000D02*
X49290000Y-40282000D01*
X61440000Y-41019715D02*
X61440000Y-40408800D01*
X49290000Y-40282000D02*
X49290000Y-38786401D01*
X49290000Y-38786401D02*
X51096700Y-36979701D01*
X33540000Y-57840000D02*
X33620000Y-57760000D01*
X60299600Y-39268400D02*
X54940200Y-39268400D01*
X67210000Y-48370000D02*
X76360000Y-48370000D01*
X76920000Y-47810000D02*
X76920000Y-45880000D01*
D26*
X35879501Y-80719501D02*
X35879501Y-80051503D01*
X35879501Y-80051503D02*
X35380997Y-79552999D01*
X34712999Y-79552999D02*
X29660000Y-74500000D01*
X29660000Y-74500000D02*
X29660000Y-65220000D01*
X70020000Y-72490000D02*
X70020000Y-75030000D01*
X29660000Y-65220000D02*
X27940000Y-63500000D01*
X70020000Y-75030000D02*
X63220000Y-81830000D01*
X69930000Y-72400000D02*
X70020000Y-72490000D01*
X35380997Y-79552999D02*
X34712999Y-79552999D01*
X36990000Y-81830000D02*
X35879501Y-80719501D01*
X63220000Y-81830000D02*
X36990000Y-81830000D01*
X30160000Y-49772364D02*
X30396000Y-49536364D01*
X30396000Y-49536364D02*
X30396000Y-46906000D01*
X30364149Y-52638256D02*
X30160000Y-52434107D01*
X30396000Y-46906000D02*
X27940000Y-44450000D01*
X30160000Y-52434107D02*
X30160000Y-49772364D01*
X29459000Y-52808636D02*
X31540000Y-54889636D01*
X27940000Y-46990000D02*
X27940000Y-47831529D01*
X31540000Y-54889636D02*
X31540000Y-55270000D01*
X29459000Y-49350529D02*
X29459000Y-52808636D01*
X27940000Y-47831529D02*
X29459000Y-49350529D01*
X76402300Y-59097700D02*
X78350000Y-57150000D01*
X65050000Y-75220000D02*
X69030000Y-71240000D01*
X74100000Y-64230000D02*
X75670000Y-64230000D01*
X78350000Y-57150000D02*
X80010000Y-57150000D01*
X76402300Y-63497700D02*
X76402300Y-59097700D01*
X60940000Y-73470000D02*
X62690000Y-75220000D01*
X69030000Y-69300000D02*
X74100000Y-64230000D01*
X69030000Y-71240000D02*
X69030000Y-69300000D01*
X62690000Y-75220000D02*
X65050000Y-75220000D01*
X75670000Y-64230000D02*
X76402300Y-63497700D01*
X68880990Y-60661813D02*
X68898187Y-60661813D01*
X68898187Y-60661813D02*
X71050000Y-58510000D01*
X78540000Y-52070000D02*
X80010000Y-52070000D01*
X74250000Y-56360000D02*
X78540000Y-52070000D01*
X70460000Y-56360000D02*
X74250000Y-56360000D01*
X67340000Y-59480000D02*
X70460000Y-56360000D01*
X71000000Y-57280000D02*
X74540000Y-57280000D01*
X77210000Y-54610000D02*
X80010000Y-54610000D01*
X68170000Y-60110000D02*
X71000000Y-57280000D01*
X74540000Y-57280000D02*
X77210000Y-54610000D01*
X30161000Y-74292480D02*
X30161000Y-65012479D01*
X47540000Y-78510000D02*
X34378520Y-78510000D01*
X34378520Y-78510000D02*
X30161000Y-74292480D01*
X49740000Y-76310000D02*
X47540000Y-78510000D01*
X47900000Y-59570000D02*
X49740000Y-61410000D01*
X30161000Y-65012479D02*
X30150000Y-65001479D01*
X30150000Y-65001479D02*
X30150000Y-65001480D01*
X30150000Y-65001480D02*
X30150000Y-62160000D01*
X49740000Y-61410000D02*
X49740000Y-76310000D01*
X30150000Y-62160000D02*
X28950000Y-60960000D01*
X28950000Y-60960000D02*
X27940000Y-60960000D01*
X66169934Y-67741110D02*
X66180000Y-67731044D01*
X61700000Y-58460000D02*
X61700000Y-52080000D01*
X61690000Y-52080000D02*
X57680000Y-48070000D01*
X57680000Y-48070000D02*
X57680000Y-45710000D01*
X61700000Y-52080000D02*
X61690000Y-52080000D01*
X66180000Y-67731044D02*
X66180000Y-62940000D01*
X57680000Y-45710000D02*
X57720000Y-45670000D01*
X66180000Y-62940000D02*
X61700000Y-58460000D01*
X43310000Y-65520000D02*
X46460000Y-65520000D01*
X46460000Y-65520000D02*
X46500000Y-65560000D01*
X42200000Y-64410000D02*
X43310000Y-65520000D01*
X42170000Y-59150000D02*
X42200000Y-59180000D01*
X42170000Y-58540000D02*
X42170000Y-59150000D01*
X42200000Y-59180000D02*
X42200000Y-64410000D01*
X48820000Y-47860000D02*
X56550000Y-47860000D01*
X56550000Y-47860000D02*
X60860000Y-52170000D01*
X60860000Y-58740000D02*
X65280000Y-63160000D01*
X65280000Y-67720000D02*
X65270000Y-67730000D01*
X47370000Y-44260000D02*
X47370000Y-46410000D01*
X47320000Y-44210000D02*
X47370000Y-44260000D01*
X65280000Y-63160000D02*
X65280000Y-67720000D01*
X60860000Y-52170000D02*
X60860000Y-58740000D01*
X47370000Y-46410000D02*
X48820000Y-47860000D01*
X60090000Y-52420000D02*
X56240000Y-48570000D01*
X56240000Y-48533350D02*
X56236650Y-48530000D01*
X64270000Y-63360000D02*
X60090000Y-59180000D01*
X44870000Y-46130000D02*
X40400000Y-46130000D01*
X56236650Y-48530000D02*
X47720000Y-48530000D01*
X44880000Y-46120000D02*
X44870000Y-46130000D01*
X47720000Y-48530000D02*
X45310000Y-46120000D01*
X45310000Y-46120000D02*
X44880000Y-46120000D01*
X64270000Y-67720000D02*
X64270000Y-63360000D01*
X60090000Y-59180000D02*
X60090000Y-52420000D01*
X32570000Y-52408636D02*
X32539000Y-52439636D01*
X30651364Y-57150000D02*
X27940000Y-57150000D01*
X32550000Y-53031364D02*
X32550000Y-55251364D01*
X32539000Y-53020364D02*
X32550000Y-53031364D01*
X32570000Y-49710000D02*
X32570000Y-52408636D01*
X32550000Y-55251364D02*
X30651364Y-57150000D01*
X32539000Y-52439636D02*
X32539000Y-53020364D01*
X35030000Y-53760000D02*
X35011000Y-53779000D01*
X34070000Y-51040000D02*
X35030000Y-52000000D01*
X35030000Y-52000000D02*
X35030000Y-53760000D01*
X33550000Y-51040000D02*
X34070000Y-51040000D01*
X35011000Y-53779000D02*
X35011000Y-54569000D01*
X35011000Y-54569000D02*
X32650000Y-56930000D01*
D24*
X31240000Y-66730000D02*
X31240000Y-73210000D01*
D26*
X35470000Y-38150000D02*
X36430000Y-39110000D01*
X41270000Y-50500000D02*
X41323400Y-50553400D01*
X55293400Y-50553400D02*
X57370000Y-52630000D01*
X36430000Y-39110000D02*
X36430000Y-40540000D01*
X57370000Y-52630000D02*
X57370000Y-57010000D01*
X41323400Y-50553400D02*
X55293400Y-50553400D01*
X40970000Y-50500000D02*
X41270000Y-50500000D01*
X35470000Y-36980000D02*
X35470000Y-38150000D01*
X55948467Y-49208467D02*
X59115000Y-52375000D01*
X43356700Y-49206700D02*
X55948467Y-49206700D01*
X38630000Y-39440000D02*
X39817600Y-38252400D01*
X59115000Y-52375000D02*
X59115000Y-53975000D01*
X38630000Y-40540000D02*
X38630000Y-39440000D01*
X39817600Y-38252400D02*
X42767600Y-38252400D01*
X55948467Y-49206700D02*
X55948467Y-49208467D01*
X42020000Y-47870000D02*
X43356700Y-49206700D01*
X44673000Y-41925000D02*
X44439000Y-41691000D01*
X42221000Y-41691000D02*
X41930000Y-41400000D01*
X45760000Y-61480000D02*
X47640000Y-63360000D01*
X44875000Y-41925000D02*
X44673000Y-41925000D01*
X41930000Y-41400000D02*
X41930000Y-40540000D01*
X45760000Y-54640000D02*
X45760000Y-61480000D01*
X48120000Y-52280000D02*
X45760000Y-54640000D01*
X47640000Y-63360000D02*
X47640000Y-76880000D01*
X44439000Y-41691000D02*
X42221000Y-41691000D01*
X41229000Y-39389000D02*
X44459000Y-39389000D01*
X43057600Y-49920000D02*
X42990000Y-49852400D01*
X40030000Y-49080000D02*
X40040000Y-49090000D01*
X40040000Y-49090000D02*
X42227600Y-49090000D01*
X55590000Y-49900000D02*
X55590000Y-49880050D01*
X40030000Y-49080000D02*
X39590000Y-49520000D01*
X39590000Y-49520000D02*
X39590000Y-75250000D01*
X55590000Y-49880050D02*
X43057600Y-49880050D01*
X40830000Y-40540000D02*
X40830000Y-39788000D01*
X42227600Y-49090000D02*
X42990000Y-49852400D01*
X40830000Y-39788000D02*
X41229000Y-39389000D01*
X44459000Y-39389000D02*
X44600000Y-39530000D01*
X58360000Y-55551400D02*
X58360000Y-52670000D01*
X39590000Y-75250000D02*
X39960000Y-75620000D01*
X58360000Y-52670000D02*
X55590000Y-49900000D01*
X53050000Y-64890000D02*
X53050000Y-62330000D01*
X53227526Y-54691872D02*
X53227526Y-54681969D01*
X53030000Y-62310000D02*
X53030000Y-54889398D01*
X53227526Y-54681969D02*
X53558378Y-54351117D01*
X53030000Y-54889398D02*
X53227526Y-54691872D01*
X53720000Y-65560000D02*
X53050000Y-64890000D01*
X53050000Y-62330000D02*
X53030000Y-62310000D01*
X53558378Y-54351117D02*
X53714933Y-54351117D01*
X56270002Y-64340002D02*
X57450000Y-64340002D01*
X55112053Y-53712103D02*
X55240000Y-53840050D01*
X55240000Y-53840050D02*
X55240000Y-63310000D01*
X55240000Y-63310000D02*
X56270002Y-64340002D01*
X62230000Y-27940000D02*
X63080000Y-28790000D01*
X66950000Y-62580000D02*
X66950000Y-70240000D01*
X63080000Y-28790000D02*
X63080000Y-58710000D01*
X63080000Y-58710000D02*
X66950000Y-62580000D01*
X66950000Y-70240000D02*
X64390000Y-72800000D01*
X67672000Y-61992000D02*
X67672000Y-70988000D01*
X64770000Y-27940000D02*
X65350000Y-28520000D01*
X64147700Y-45620436D02*
X64147700Y-58467700D01*
X67672000Y-70988000D02*
X65230000Y-73430000D01*
X65350000Y-44418136D02*
X64147700Y-45620436D01*
X65350000Y-28520000D02*
X65350000Y-44418136D01*
X64147700Y-58467700D02*
X67672000Y-61992000D01*
X43250000Y-73240000D02*
X43220000Y-73210000D01*
X34200000Y-40540000D02*
X34200000Y-46582364D01*
X38440000Y-77900000D02*
X41690000Y-77900000D01*
X37490000Y-71400000D02*
X37490000Y-76950000D01*
X38370000Y-61660000D02*
X35060000Y-64970000D01*
X41690000Y-77900000D02*
X43250000Y-76340000D01*
X35060000Y-69000000D02*
X37460000Y-71400000D01*
X37490000Y-76950000D02*
X38440000Y-77900000D01*
X35060000Y-64970000D02*
X35060000Y-69000000D01*
X36924000Y-55613636D02*
X38370000Y-57059636D01*
X36924000Y-49306364D02*
X36924000Y-55613636D01*
X38370000Y-57059636D02*
X38370000Y-61660000D01*
X34200000Y-46582364D02*
X36924000Y-49306364D01*
X43250000Y-76340000D02*
X43250000Y-73240000D01*
X37460000Y-71400000D02*
X37490000Y-71400000D01*
M02*
