M48
; DRILL file {KiCad 9.0.0} date 2025-02-28T23:10:12-0800
; FORMAT={-:-/ absolute / metric / decimal}
; #@! TF.CreationDate,2025-02-28T23:10:12-08:00
; #@! TF.GenerationSoftware,Kicad,Pcbnew,9.0.0
; #@! TF.FileFunction,Plated,1,4,PTH
FMAT,2
METRIC
; #@! TA.AperFunction,Plated,PTH,ComponentDrill
T1C0.200
; #@! TA.AperFunction,Plated,PTH,ViaDrill
T2C0.300
; #@! TA.AperFunction,Plated,PTH,ViaDrill
T3C0.400
; #@! TA.AperFunction,Plated,PTH,ViaDrill
T4C0.500
; #@! TA.AperFunction,Plated,PTH,ComponentDrill
T5C1.000
; #@! TA.AperFunction,Plated,PTH,ComponentDrill
T6C1.600
; #@! TA.AperFunction,Plated,PTH,ComponentDrill
T7C3.200
%
G90
G05
T1
X54.075Y-72.76
X54.075Y-74.16
X54.775Y-72.06
X54.775Y-73.46
X54.775Y-74.86
X55.475Y-72.76
X55.475Y-74.16
X56.175Y-72.06
X56.175Y-73.46
X56.175Y-74.86
X56.875Y-72.76
X56.875Y-74.16
T2
X29.695Y-48.316
X30.364Y-52.638
X30.506Y-55.38
X30.984Y-50.042
X31.54Y-55.27
X31.548Y-52.805
X32.24Y-47.12
X32.28Y-39.26
X32.57Y-49.71
X32.65Y-56.93
X33.055Y-42.426
X33.24Y-52.73
X33.315Y-45.896
X33.51Y-37.61
X33.52Y-33.0
X33.55Y-51.04
X33.78Y-29.96
X34.022Y-65.497
X34.27Y-49.63
X34.31Y-52.69
X34.995Y-45.416
X35.075Y-57.969
X35.115Y-46.506
X35.47Y-36.98
X35.47Y-39.19
X35.97Y-49.731
X36.557Y-65.352
X36.865Y-56.546
X37.389Y-38.278
X37.494Y-58.392
X38.115Y-44.366
X39.73Y-41.49
X40.03Y-49.08
X40.4Y-46.13
X40.97Y-50.5
X42.02Y-47.87
X42.17Y-58.54
X42.768Y-38.252
X42.99Y-49.852
X43.22Y-73.21
X44.6Y-39.53
X44.875Y-41.925
X46.279Y-36.347
X46.38Y-37.897
X46.5Y-65.56
X46.67Y-40.42
X47.32Y-44.21
X47.64Y-76.88
X47.93Y-59.6
X48.12Y-52.28
X48.52Y-28.63
X51.097Y-36.98
X51.127Y-38.515
X51.9Y-56.07
X52.4Y-52.028
X53.01Y-51.253
X53.715Y-54.351
X53.72Y-65.56
X54.11Y-57.18
X54.615Y-51.393
X55.112Y-53.712
X55.956Y-52.832
X56.49Y-59.57
X57.37Y-57.01
X57.45Y-64.34
X57.68Y-45.7
X57.686Y-37.444
X58.36Y-55.551
X59.115Y-53.975
X60.78Y-41.493
X60.929Y-32.211
X60.94Y-73.47
X64.27Y-67.72
X64.39Y-72.8
X64.425Y-38.271
X64.849Y-55.301
X64.882Y-81.494
X65.23Y-73.43
X65.249Y-45.511
X65.27Y-67.73
X66.17Y-67.741
X66.802Y-81.934
X67.1Y-32.99
X67.11Y-33.71
X67.21Y-48.37
X67.34Y-59.48
X68.17Y-60.11
X68.349Y-37.581
X68.881Y-60.662
X69.06Y-63.29
X69.93Y-72.4
X71.05Y-58.51
X71.099Y-46.291
X71.2Y-61.84
X71.6Y-72.457
X71.619Y-44.731
X72.463Y-60.41
X73.55Y-68.12
X73.789Y-38.981
X73.96Y-63.019
X73.989Y-54.951
X73.999Y-54.221
X74.939Y-52.291
X75.143Y-60.93
X75.403Y-62.85
X77.19Y-61.73
X79.01Y-69.5
X79.235Y-66.28
X80.151Y-34.01
T3
X37.714Y-39.54
T4
X31.24Y-66.73
X31.24Y-73.21
X32.747Y-70.483
X33.499Y-60.489
X33.62Y-57.76
X34.987Y-71.212
X36.027Y-52.776
X37.775Y-49.546
X46.228Y-80.823
X60.401Y-63.271
X61.44Y-47.15
X61.671Y-80.823
X67.772Y-79.374
X68.439Y-51.161
X68.439Y-52.251
X68.439Y-53.361
X69.489Y-51.161
X69.539Y-52.261
X69.539Y-53.361
X71.99Y-33.16
X73.36Y-30.08
X74.59Y-45.54
X74.81Y-27.98
T5
X27.94Y-39.37
X27.94Y-41.91
X27.94Y-44.45
X27.94Y-46.99
X27.94Y-49.53
X27.94Y-52.07
X27.94Y-54.61
X27.94Y-57.15
X27.94Y-60.96
X27.94Y-63.5
X27.94Y-66.04
X27.94Y-68.58
X27.94Y-71.12
X27.94Y-73.66
X52.07Y-27.94
X54.61Y-27.94
X57.15Y-27.94
X59.69Y-27.94
X62.23Y-27.94
X64.77Y-27.94
X67.31Y-27.94
X69.85Y-27.94
X80.01Y-44.45
X80.01Y-46.99
X80.01Y-49.53
X80.01Y-52.07
X80.01Y-54.61
X80.01Y-57.15
X80.01Y-59.69
X80.01Y-62.23
T6
X37.52Y-67.6
X39.96Y-75.71
X41.64Y-68.59
X50.82Y-43.06
X53.74Y-32.02
X54.36Y-45.24
X57.85Y-31.98
T7
X29.21Y-29.21
X29.21Y-78.74
X78.74Y-29.21
X78.74Y-78.74
M30
