G04 #@! TF.GenerationSoftware,KiCad,Pcbnew,(6.0.7)*
G04 #@! TF.CreationDate,2023-04-24T09:06:52-07:00*
G04 #@! TF.ProjectId,OBC-Attempt-2,4f42432d-4174-4746-956d-70742d322e6b,rev?*
G04 #@! TF.SameCoordinates,Original*
G04 #@! TF.FileFunction,Paste,Top*
G04 #@! TF.FilePolarity,Positive*
%FSLAX46Y46*%
G04 Gerber Fmt 4.6, Leading zero omitted, Abs format (unit mm)*
G04 Created by KiCad (PCBNEW (6.0.7)) date 2023-04-24 09:06:52*
%MOMM*%
%LPD*%
G01*
G04 APERTURE LIST*
G04 Aperture macros list*
%AMRoundRect*
0 Rectangle with rounded corners*
0 $1 Rounding radius*
0 $2 $3 $4 $5 $6 $7 $8 $9 X,Y pos of 4 corners*
0 Add a 4 corners polygon primitive as box body*
4,1,4,$2,$3,$4,$5,$6,$7,$8,$9,$2,$3,0*
0 Add four circle primitives for the rounded corners*
1,1,$1+$1,$2,$3*
1,1,$1+$1,$4,$5*
1,1,$1+$1,$6,$7*
1,1,$1+$1,$8,$9*
0 Add four rect primitives between the rounded corners*
20,1,$1+$1,$2,$3,$4,$5,0*
20,1,$1+$1,$4,$5,$6,$7,0*
20,1,$1+$1,$6,$7,$8,$9,0*
20,1,$1+$1,$8,$9,$2,$3,0*%
%AMRotRect*
0 Rectangle, with rotation*
0 The origin of the aperture is its center*
0 $1 length*
0 $2 width*
0 $3 Rotation angle, in degrees counterclockwise*
0 Add horizontal line*
21,1,$1,$2,0,0,$3*%
G04 Aperture macros list end*
%ADD10RoundRect,0.079500X0.079500X0.100500X-0.079500X0.100500X-0.079500X-0.100500X0.079500X-0.100500X0*%
%ADD11RoundRect,0.079500X-0.079500X-0.100500X0.079500X-0.100500X0.079500X0.100500X-0.079500X0.100500X0*%
%ADD12R,1.800000X2.500000*%
%ADD13RoundRect,0.150000X0.587500X0.150000X-0.587500X0.150000X-0.587500X-0.150000X0.587500X-0.150000X0*%
%ADD14RoundRect,0.067500X0.095459X0.000000X0.000000X0.095459X-0.095459X0.000000X0.000000X-0.095459X0*%
%ADD15RoundRect,0.079500X-0.014849X0.127279X-0.127279X0.014849X0.014849X-0.127279X0.127279X-0.014849X0*%
%ADD16R,0.254000X0.482600*%
%ADD17R,0.482600X0.254000*%
%ADD18R,1.300000X0.600000*%
%ADD19RoundRect,0.067500X-0.067500X-0.067500X0.067500X-0.067500X0.067500X0.067500X-0.067500X0.067500X0*%
%ADD20R,2.000000X1.500000*%
%ADD21R,2.000000X3.800000*%
%ADD22RoundRect,0.067500X0.000000X-0.095459X0.095459X0.000000X0.000000X0.095459X-0.095459X0.000000X0*%
%ADD23RoundRect,0.067500X0.000000X0.095459X-0.095459X0.000000X0.000000X-0.095459X0.095459X0.000000X0*%
%ADD24RoundRect,0.225000X-0.250000X0.225000X-0.250000X-0.225000X0.250000X-0.225000X0.250000X0.225000X0*%
%ADD25RoundRect,0.079500X0.100500X-0.079500X0.100500X0.079500X-0.100500X0.079500X-0.100500X-0.079500X0*%
%ADD26RoundRect,0.067500X0.067500X0.067500X-0.067500X0.067500X-0.067500X-0.067500X0.067500X-0.067500X0*%
%ADD27R,0.700000X1.500000*%
%ADD28R,1.000000X0.800000*%
%ADD29RoundRect,0.079500X-0.100500X0.079500X-0.100500X-0.079500X0.100500X-0.079500X0.100500X0.079500X0*%
%ADD30RoundRect,0.079500X0.127279X0.014849X0.014849X0.127279X-0.127279X-0.014849X-0.014849X-0.127279X0*%
%ADD31RotRect,1.400000X1.800000X315.000000*%
%ADD32RoundRect,0.079500X0.014849X-0.127279X0.127279X-0.014849X-0.014849X0.127279X-0.127279X0.014849X0*%
%ADD33RoundRect,0.067500X-0.095459X0.000000X0.000000X-0.095459X0.095459X0.000000X0.000000X0.095459X0*%
%ADD34R,1.500000X0.800000*%
%ADD35R,2.000000X1.450000*%
%ADD36RoundRect,0.075000X-0.548008X0.441942X0.441942X-0.548008X0.548008X-0.441942X-0.441942X0.548008X0*%
%ADD37RoundRect,0.075000X-0.548008X-0.441942X-0.441942X-0.548008X0.548008X0.441942X0.441942X0.548008X0*%
G04 APERTURE END LIST*
D10*
X61398400Y-98480400D03*
X60708400Y-98480400D03*
D11*
X47138400Y-101464200D03*
X46448400Y-101464200D03*
D12*
X35263400Y-101514200D03*
X35263400Y-97514200D03*
D13*
X57832100Y-39153200D03*
X57832100Y-37253200D03*
X55957100Y-38203200D03*
D14*
X45808054Y-62788854D03*
X45419146Y-62399946D03*
D15*
X46119081Y-76594435D03*
X46606985Y-76106531D03*
D12*
X35173400Y-111374200D03*
X35173400Y-107374200D03*
D16*
X51989800Y-80767500D03*
X51489801Y-80767500D03*
X50989799Y-80767500D03*
X50489800Y-80767500D03*
X49989801Y-80767500D03*
X49489799Y-80767500D03*
X48989800Y-80767500D03*
D17*
X48578500Y-79611800D03*
D16*
X48989800Y-78456100D03*
X49489799Y-78456100D03*
X49989801Y-78456100D03*
X50489800Y-78456100D03*
X50989799Y-78456100D03*
X51489801Y-78456100D03*
X51989800Y-78456100D03*
D17*
X52401100Y-79611800D03*
D18*
X43843400Y-91510400D03*
X43843400Y-88970400D03*
X38243400Y-88970400D03*
X38243400Y-91510400D03*
D19*
X50931600Y-81739800D03*
X51481600Y-81739800D03*
D11*
X57946600Y-40489200D03*
X58636600Y-40489200D03*
D18*
X63853400Y-88050400D03*
X63853400Y-90590400D03*
X69453400Y-90590400D03*
X69453400Y-88050400D03*
D13*
X47316500Y-38975400D03*
X47316500Y-37075400D03*
X45441500Y-38025400D03*
D20*
X67630000Y-49190000D03*
X67630000Y-46890000D03*
D21*
X61330000Y-46890000D03*
D20*
X67630000Y-44590000D03*
D22*
X46963886Y-59188830D03*
X46574978Y-59577738D03*
D11*
X46248400Y-121030400D03*
X46938400Y-121030400D03*
D18*
X63963400Y-108460400D03*
X63963400Y-111000400D03*
X69563400Y-111000400D03*
X69563400Y-108460400D03*
D23*
X58283132Y-70676668D03*
X57894224Y-71065576D03*
D10*
X61498401Y-78240400D03*
X60808401Y-78240400D03*
D24*
X59210000Y-47375000D03*
X59210000Y-48925000D03*
D18*
X63863400Y-78240400D03*
X63863400Y-80780400D03*
X69463400Y-80780400D03*
X69463400Y-78240400D03*
D25*
X39440000Y-34045000D03*
X39440000Y-34735000D03*
D18*
X43763400Y-101494200D03*
X43763400Y-98954200D03*
X38163400Y-98954200D03*
X38163400Y-101494200D03*
D10*
X61078401Y-108480401D03*
X60388401Y-108480401D03*
D26*
X49406600Y-77489800D03*
X49956600Y-77489800D03*
D14*
X43376054Y-71484254D03*
X42987146Y-71095346D03*
D27*
X60944600Y-58045200D03*
X57944600Y-58045200D03*
X56444600Y-58045200D03*
D28*
X62344600Y-57260200D03*
X62344600Y-55330200D03*
X55044600Y-55330200D03*
X55044600Y-57260200D03*
D13*
X37537500Y-38950000D03*
X37537500Y-37050000D03*
X35662500Y-38000000D03*
D29*
X69550000Y-45895000D03*
X69550000Y-45205000D03*
D22*
X48399877Y-60366923D03*
X48010969Y-60755831D03*
D13*
X67382500Y-39204000D03*
X67382500Y-37304000D03*
X65507500Y-38254000D03*
D10*
X61368400Y-88030401D03*
X60678400Y-88030401D03*
D18*
X44213400Y-111360400D03*
X44213400Y-108820400D03*
X38613400Y-108820400D03*
X38613400Y-111360400D03*
D29*
X70960000Y-45205000D03*
X70960000Y-45895000D03*
D23*
X45998687Y-60154029D03*
X45609779Y-60542937D03*
D12*
X35133400Y-121174200D03*
X35133400Y-117174200D03*
D30*
X43703952Y-64863952D03*
X43216048Y-64376048D03*
D11*
X47649000Y-40413000D03*
X48339000Y-40413000D03*
D12*
X72693400Y-87900400D03*
X72693400Y-91900400D03*
D25*
X68880000Y-33705000D03*
X68880000Y-34395000D03*
D23*
X43001487Y-60509629D03*
X42612579Y-60898537D03*
D25*
X49570000Y-33935000D03*
X49570000Y-34625000D03*
D11*
X47278400Y-111254200D03*
X46588400Y-111254200D03*
D14*
X42494454Y-63704454D03*
X42105546Y-63315546D03*
D12*
X72803400Y-98470400D03*
X72803400Y-102470400D03*
D11*
X67791600Y-40514600D03*
X68481600Y-40514600D03*
D31*
X46015907Y-52214637D03*
X42904637Y-55325907D03*
X44601693Y-57022963D03*
X47712963Y-53911693D03*
D11*
X47138400Y-91540400D03*
X46448400Y-91540400D03*
D12*
X72763400Y-108350400D03*
X72763400Y-112350400D03*
D32*
X54339526Y-62047274D03*
X54827430Y-61559370D03*
D33*
X52823379Y-60662029D03*
X53212287Y-61050937D03*
D34*
X77763900Y-62315400D03*
X77763900Y-63415400D03*
X77763900Y-64515400D03*
X77763900Y-65615400D03*
X77763900Y-66715400D03*
X77763900Y-67815400D03*
X77763900Y-68915400D03*
X77763900Y-70015400D03*
D35*
X80363900Y-72390400D03*
X80363900Y-58640400D03*
X72063900Y-72390400D03*
X72063900Y-58640400D03*
D12*
X72663400Y-78190400D03*
X72663400Y-82190400D03*
D36*
X49056697Y-61768241D03*
X48703144Y-62121794D03*
X48349591Y-62475347D03*
X47996037Y-62828901D03*
X47642484Y-63182454D03*
X47288930Y-63536008D03*
X46935377Y-63889561D03*
X46581824Y-64243114D03*
X46228270Y-64596668D03*
X45874717Y-64950221D03*
X45521164Y-65303774D03*
X45167610Y-65657328D03*
X44814057Y-66010881D03*
X44460503Y-66364435D03*
X44106950Y-66717988D03*
X43753397Y-67071541D03*
D37*
X43753397Y-69793903D03*
X44106950Y-70147456D03*
X44460503Y-70501009D03*
X44814057Y-70854563D03*
X45167610Y-71208116D03*
X45521164Y-71561670D03*
X45874717Y-71915223D03*
X46228270Y-72268776D03*
X46581824Y-72622330D03*
X46935377Y-72975883D03*
X47288930Y-73329436D03*
X47642484Y-73682990D03*
X47996037Y-74036543D03*
X48349591Y-74390097D03*
X48703144Y-74743650D03*
X49056697Y-75097203D03*
D36*
X51779059Y-75097203D03*
X52132612Y-74743650D03*
X52486165Y-74390097D03*
X52839719Y-74036543D03*
X53193272Y-73682990D03*
X53546826Y-73329436D03*
X53900379Y-72975883D03*
X54253932Y-72622330D03*
X54607486Y-72268776D03*
X54961039Y-71915223D03*
X55314592Y-71561670D03*
X55668146Y-71208116D03*
X56021699Y-70854563D03*
X56375253Y-70501009D03*
X56728806Y-70147456D03*
X57082359Y-69793903D03*
D37*
X57082359Y-67071541D03*
X56728806Y-66717988D03*
X56375253Y-66364435D03*
X56021699Y-66010881D03*
X55668146Y-65657328D03*
X55314592Y-65303774D03*
X54961039Y-64950221D03*
X54607486Y-64596668D03*
X54253932Y-64243114D03*
X53900379Y-63889561D03*
X53546826Y-63536008D03*
X53193272Y-63182454D03*
X52839719Y-62828901D03*
X52486165Y-62475347D03*
X52132612Y-62121794D03*
X51779059Y-61768241D03*
D14*
X48081487Y-76189337D03*
X47692579Y-75800429D03*
D25*
X59880000Y-33945000D03*
X59880000Y-34635000D03*
D31*
X39500940Y-56471120D03*
X36389670Y-59582390D03*
X38086726Y-61279446D03*
X41197996Y-58168176D03*
D11*
X38331400Y-40489200D03*
X37641400Y-40489200D03*
D30*
X53972985Y-60389235D03*
X53485081Y-59901331D03*
D18*
X43723400Y-121180400D03*
X43723400Y-118640400D03*
X38123400Y-118640400D03*
X38123400Y-121180400D03*
X63893400Y-98430400D03*
X63893400Y-100970400D03*
X69493400Y-100970400D03*
X69493400Y-98430400D03*
D22*
X43679379Y-59882537D03*
X44068287Y-59493629D03*
D29*
X70960000Y-48095000D03*
X70960000Y-47405000D03*
D12*
X35183400Y-91524200D03*
X35183400Y-87524200D03*
M02*
