M48
; DRILL file {KiCad (6.0.7)} date Mon Apr 24 09:07:38 2023
; FORMAT={-:-/ absolute / metric / decimal}
; #@! TF.CreationDate,2023-04-24T09:07:38-07:00
; #@! TF.GenerationSoftware,Kicad,Pcbnew,(6.0.7)
; #@! TF.FileFunction,Plated,1,2,PTH
FMAT,2
METRIC
; #@! TA.AperFunction,Plated,PTH,ViaDrill
T1C0.300
; #@! TA.AperFunction,Plated,PTH,ComponentDrill
T2C1.000
; #@! TA.AperFunction,Plated,PTH,ComponentDrill
T3C1.300
%
G90
G05
T1
X34.009Y-38.0
X35.313Y-58.49
X36.625Y-40.464
X37.463Y-117.16
X37.543Y-107.39
X37.583Y-87.51
X37.663Y-97.5
X41.25Y-62.44
X41.829Y-54.212
X41.957Y-75.74
X41.982Y-76.84
X42.007Y-74.665
X42.007Y-61.528
X42.057Y-77.94
X42.107Y-79.165
X42.337Y-59.318
X42.482Y-71.665
X43.864Y-38.051
X44.572Y-62.772
X44.902Y-60.029
X45.113Y-98.95
X45.133Y-118.62
X45.173Y-88.98
X45.533Y-108.82
X45.683Y-73.79
X45.853Y-67.64
X46.109Y-66.495
X46.282Y-74.54
X46.608Y-40.413
X46.632Y-77.315
X47.182Y-71.265
X47.307Y-76.565
X47.482Y-80.238
X47.482Y-81.19
X47.563Y-67.65
X47.569Y-58.581
X47.957Y-71.915
X48.557Y-77.34
X48.732Y-72.665
X48.763Y-54.974
X49.043Y-59.724
X49.857Y-75.99
X50.107Y-82.34
X50.957Y-79.79
X51.404Y-63.102
X51.802Y-80.054
X52.357Y-81.89
X52.832Y-72.04
X53.507Y-71.44
X54.405Y-38.203
X55.087Y-69.477
X57.149Y-40.489
X58.593Y-59.521
X58.957Y-72.565
X59.2Y-50.15
X59.857Y-73.34
X60.873Y-70.88
X61.663Y-72.31
X62.593Y-100.98
X62.593Y-80.79
X62.603Y-90.57
X62.703Y-110.96
X63.905Y-38.279
X66.801Y-40.515
X69.25Y-48.61
X69.26Y-49.64
X69.576Y-46.758
X70.263Y-91.87
X70.413Y-82.19
X70.473Y-102.46
X70.533Y-112.33
X70.98Y-48.95
X75.967Y-67.852
T2
X32.881Y-66.071
X36.417Y-69.607
X63.394Y-64.693
X63.394Y-67.233
X63.394Y-69.773
X63.394Y-72.313
T3
X30.578Y-87.26
X30.578Y-92.26
X30.578Y-97.26
X30.578Y-102.26
X30.578Y-107.26
X30.578Y-112.26
X30.578Y-117.26
X30.578Y-122.26
X33.0Y-30.495
X38.0Y-30.495
X43.0Y-30.495
X48.0Y-30.495
X53.0Y-30.495
X58.0Y-30.495
X63.0Y-30.495
X68.0Y-30.495
X74.3Y-30.6
X77.243Y-78.04
X77.243Y-83.04
X77.243Y-88.04
X77.243Y-93.04
X77.243Y-98.04
X77.243Y-103.04
X77.243Y-108.04
X77.243Y-113.04
X77.305Y-39.6
X77.305Y-44.6
X79.3Y-30.6
T0
M30
