G04 #@! TF.GenerationSoftware,KiCad,Pcbnew,9.0.0*
G04 #@! TF.CreationDate,2025-02-28T23:21:34-08:00*
G04 #@! TF.ProjectId,Constellation STAR ITC V1.1,436f6e73-7465-46c6-9c61-74696f6e2053,rev?*
G04 #@! TF.SameCoordinates,Original*
G04 #@! TF.FileFunction,Soldermask,Bot*
G04 #@! TF.FilePolarity,Negative*
%FSLAX46Y46*%
G04 Gerber Fmt 4.6, Leading zero omitted, Abs format (unit mm)*
G04 Created by KiCad (PCBNEW 9.0.0) date 2025-02-28 23:21:34*
%MOMM*%
%LPD*%
G01*
G04 APERTURE LIST*
%ADD10C,1.900000*%
%ADD11C,3.200000*%
G04 APERTURE END LIST*
D10*
X44450000Y-61270000D03*
X39450000Y-61270000D03*
X44450000Y-64770000D03*
X39450000Y-64770000D03*
D11*
X78740000Y-85090000D03*
X29210000Y-85090000D03*
D10*
X63500000Y-64770000D03*
X68500000Y-64770000D03*
X63500000Y-61270000D03*
X68500000Y-61270000D03*
X63500000Y-54610000D03*
X68500000Y-54610000D03*
X63500000Y-51109999D03*
X68500000Y-51109999D03*
X63500000Y-47609998D03*
X68500000Y-47609998D03*
X63500000Y-44109998D03*
X68500000Y-44109998D03*
X63500000Y-40609997D03*
X68500000Y-40609997D03*
X63500000Y-37109997D03*
X68500000Y-37109997D03*
X63500000Y-33609996D03*
X68500000Y-33609996D03*
X63500000Y-30109995D03*
X68500000Y-30109995D03*
X43959999Y-73730000D03*
X43959999Y-78730000D03*
X47459999Y-73730000D03*
X47459999Y-78730000D03*
X50960000Y-73730000D03*
X50960000Y-78730000D03*
X57799999Y-73730000D03*
X57799999Y-78730000D03*
X61299999Y-73730000D03*
X61299999Y-78730000D03*
X64800000Y-73730000D03*
X64800000Y-78730000D03*
D11*
X53975000Y-29210000D03*
D10*
X44450000Y-30109995D03*
X39450000Y-30109995D03*
X44450000Y-33609996D03*
X39450000Y-33609996D03*
X44450000Y-37109997D03*
X39450000Y-37109997D03*
X44450000Y-40609997D03*
X39450000Y-40609997D03*
X44450000Y-44109998D03*
X39450000Y-44109998D03*
X44450000Y-47609998D03*
X39450000Y-47609998D03*
X44450000Y-51109999D03*
X39450000Y-51109999D03*
X44450000Y-54610000D03*
X39450000Y-54610000D03*
M02*
