G04 #@! TF.GenerationSoftware,KiCad,Pcbnew,9.0.0*
G04 #@! TF.CreationDate,2025-02-28T23:21:34-08:00*
G04 #@! TF.ProjectId,Constellation STAR ITC V1.1,436f6e73-7465-46c6-9c61-74696f6e2053,rev?*
G04 #@! TF.SameCoordinates,Original*
G04 #@! TF.FileFunction,Copper,L2,Bot*
G04 #@! TF.FilePolarity,Positive*
%FSLAX46Y46*%
G04 Gerber Fmt 4.6, Leading zero omitted, Abs format (unit mm)*
G04 Created by KiCad (PCBNEW 9.0.0) date 2025-02-28 23:21:34*
%MOMM*%
%LPD*%
G01*
G04 APERTURE LIST*
G04 #@! TA.AperFunction,ComponentPad*
%ADD10C,1.900000*%
G04 #@! TD*
G04 #@! TA.AperFunction,ViaPad*
%ADD11C,0.700000*%
G04 #@! TD*
G04 #@! TA.AperFunction,ViaPad*
%ADD12C,1.000000*%
G04 #@! TD*
G04 #@! TA.AperFunction,Conductor*
%ADD13C,0.500000*%
G04 #@! TD*
G04 APERTURE END LIST*
D10*
X44450000Y-61270000D03*
X39450000Y-61270000D03*
X44450000Y-64770000D03*
X39450000Y-64770000D03*
X63500000Y-64770000D03*
X68500000Y-64770000D03*
X63500000Y-61270000D03*
X68500000Y-61270000D03*
X63500000Y-54610000D03*
X68500000Y-54610000D03*
X63500000Y-51109999D03*
X68500000Y-51109999D03*
X63500000Y-47609998D03*
X68500000Y-47609998D03*
X63500000Y-44109998D03*
X68500000Y-44109998D03*
X63500000Y-40609997D03*
X68500000Y-40609997D03*
X63500000Y-37109997D03*
X68500000Y-37109997D03*
X63500000Y-33609996D03*
X68500000Y-33609996D03*
X63500000Y-30109995D03*
X68500000Y-30109995D03*
X43959999Y-73730000D03*
X43959999Y-78730000D03*
X47459999Y-73730000D03*
X47459999Y-78730000D03*
X50960000Y-73730000D03*
X50960000Y-78730000D03*
X57799999Y-73730000D03*
X57799999Y-78730000D03*
X61299999Y-73730000D03*
X61299999Y-78730000D03*
X64800000Y-73730000D03*
X64800000Y-78730000D03*
X44450000Y-30109995D03*
X39450000Y-30109995D03*
X44450000Y-33609996D03*
X39450000Y-33609996D03*
X44450000Y-37109997D03*
X39450000Y-37109997D03*
X44450000Y-40609997D03*
X39450000Y-40609997D03*
X44450000Y-44109998D03*
X39450000Y-44109998D03*
X44450000Y-47609998D03*
X39450000Y-47609998D03*
X44450000Y-51109999D03*
X39450000Y-51109999D03*
X44450000Y-54610000D03*
X39450000Y-54610000D03*
D11*
X59355926Y-67605926D03*
X60720000Y-68960000D03*
X54280000Y-65090000D03*
X54340000Y-54620000D03*
X52270000Y-67200000D03*
X52610000Y-60280000D03*
X56360000Y-52430000D03*
D12*
X58060000Y-58090000D03*
D11*
X46080000Y-68070000D03*
X47330000Y-66180000D03*
X50290000Y-68200000D03*
X51300000Y-70780000D03*
D13*
X60720000Y-68960000D02*
X59365926Y-67605926D01*
X59365926Y-67605926D02*
X59355926Y-67605926D01*
X47330000Y-66180000D02*
X47330000Y-66820000D01*
X47330000Y-66820000D02*
X46080000Y-68070000D01*
X50290000Y-68200000D02*
X50290000Y-69770000D01*
X50290000Y-69770000D02*
X51300000Y-70780000D01*
G04 #@! TA.AperFunction,Conductor*
G36*
X78743032Y-25400648D02*
G01*
X79073550Y-25416886D01*
X79080338Y-25417409D01*
X79158043Y-25425576D01*
X79163118Y-25426219D01*
X79451012Y-25468923D01*
X79458530Y-25470279D01*
X79529110Y-25485281D01*
X79533445Y-25486284D01*
X79822283Y-25558635D01*
X79830447Y-25560981D01*
X79888101Y-25579714D01*
X79891519Y-25580880D01*
X80183376Y-25685308D01*
X80192002Y-25688766D01*
X80228374Y-25704960D01*
X80230808Y-25706077D01*
X80530296Y-25847724D01*
X80541004Y-25853448D01*
X80851215Y-26039382D01*
X80861333Y-26046142D01*
X81151832Y-26261591D01*
X81161238Y-26269311D01*
X81429216Y-26512192D01*
X81437807Y-26520783D01*
X81642247Y-26746348D01*
X81680688Y-26788761D01*
X81688408Y-26798167D01*
X81903857Y-27088666D01*
X81910617Y-27098784D01*
X82096543Y-27408982D01*
X82102280Y-27419714D01*
X82243887Y-27719116D01*
X82245072Y-27721699D01*
X82261225Y-27757980D01*
X82264697Y-27766640D01*
X82369111Y-28058460D01*
X82370290Y-28061916D01*
X82389013Y-28119539D01*
X82391366Y-28127727D01*
X82463714Y-28416551D01*
X82464719Y-28420895D01*
X82479713Y-28491438D01*
X82481081Y-28499022D01*
X82503795Y-28652151D01*
X82505137Y-28670150D01*
X82549500Y-56906751D01*
X82549500Y-85086947D01*
X82549351Y-85093032D01*
X82533115Y-85423506D01*
X82532585Y-85430382D01*
X82524431Y-85507967D01*
X82523768Y-85513201D01*
X82481081Y-85800974D01*
X82479713Y-85808561D01*
X82464718Y-85879103D01*
X82463712Y-85883451D01*
X82391366Y-86172271D01*
X82389013Y-86180459D01*
X82370290Y-86238082D01*
X82369111Y-86241538D01*
X82264697Y-86533358D01*
X82261225Y-86542018D01*
X82245072Y-86578299D01*
X82243887Y-86580882D01*
X82102280Y-86880284D01*
X82096543Y-86891016D01*
X81910617Y-87201215D01*
X81903857Y-87211333D01*
X81688408Y-87501832D01*
X81680688Y-87511238D01*
X81437814Y-87779209D01*
X81429209Y-87787814D01*
X81161238Y-88030688D01*
X81151832Y-88038408D01*
X80861333Y-88253857D01*
X80851215Y-88260617D01*
X80541016Y-88446543D01*
X80530284Y-88452280D01*
X80230882Y-88593887D01*
X80228299Y-88595072D01*
X80192018Y-88611225D01*
X80183358Y-88614697D01*
X79891538Y-88719111D01*
X79888082Y-88720290D01*
X79830459Y-88739013D01*
X79822271Y-88741366D01*
X79533451Y-88813712D01*
X79529103Y-88814718D01*
X79458561Y-88829713D01*
X79450974Y-88831081D01*
X79163201Y-88873768D01*
X79157967Y-88874431D01*
X79080382Y-88882585D01*
X79073506Y-88883115D01*
X78743033Y-88899351D01*
X78736948Y-88899500D01*
X48165913Y-88899500D01*
X48165372Y-88899499D01*
X48109277Y-88899253D01*
X28429414Y-88813239D01*
X28399826Y-88809524D01*
X28127727Y-88741366D01*
X28119539Y-88739013D01*
X28061916Y-88720290D01*
X28058460Y-88719111D01*
X27766640Y-88614697D01*
X27757980Y-88611225D01*
X27721699Y-88595072D01*
X27719116Y-88593887D01*
X27419714Y-88452280D01*
X27408982Y-88446543D01*
X27098784Y-88260617D01*
X27088666Y-88253857D01*
X26798167Y-88038408D01*
X26788761Y-88030688D01*
X26746348Y-87992247D01*
X26520783Y-87787807D01*
X26512192Y-87779216D01*
X26269311Y-87511238D01*
X26261591Y-87501832D01*
X26046142Y-87211333D01*
X26039382Y-87201215D01*
X25883115Y-86940500D01*
X25853448Y-86891004D01*
X25847724Y-86880296D01*
X25706077Y-86580808D01*
X25704960Y-86578374D01*
X25688766Y-86542002D01*
X25685308Y-86533376D01*
X25580880Y-86241519D01*
X25579708Y-86238082D01*
X25560985Y-86180459D01*
X25558632Y-86172271D01*
X25545612Y-86120293D01*
X25486284Y-85883445D01*
X25485280Y-85879103D01*
X25470279Y-85808530D01*
X25468923Y-85801012D01*
X25426219Y-85513118D01*
X25425576Y-85508043D01*
X25417409Y-85430338D01*
X25416886Y-85423550D01*
X25400648Y-85093032D01*
X25400500Y-85086949D01*
X25400500Y-84968711D01*
X27359500Y-84968711D01*
X27359500Y-85211288D01*
X27391161Y-85451785D01*
X27453947Y-85686104D01*
X27501528Y-85800974D01*
X27546776Y-85910212D01*
X27668064Y-86120289D01*
X27668066Y-86120292D01*
X27668067Y-86120293D01*
X27815733Y-86312736D01*
X27815739Y-86312743D01*
X27987256Y-86484260D01*
X27987262Y-86484265D01*
X28179711Y-86631936D01*
X28389788Y-86753224D01*
X28613900Y-86846054D01*
X28848211Y-86908838D01*
X29028586Y-86932584D01*
X29088711Y-86940500D01*
X29088712Y-86940500D01*
X29331289Y-86940500D01*
X29379388Y-86934167D01*
X29571789Y-86908838D01*
X29806100Y-86846054D01*
X30030212Y-86753224D01*
X30240289Y-86631936D01*
X30432738Y-86484265D01*
X30604265Y-86312738D01*
X30751936Y-86120289D01*
X30873224Y-85910212D01*
X30966054Y-85686100D01*
X31028838Y-85451789D01*
X31060500Y-85211288D01*
X31060500Y-84968712D01*
X31060500Y-84968711D01*
X76889500Y-84968711D01*
X76889500Y-85211288D01*
X76921161Y-85451785D01*
X76983947Y-85686104D01*
X77031528Y-85800974D01*
X77076776Y-85910212D01*
X77198064Y-86120289D01*
X77198066Y-86120292D01*
X77198067Y-86120293D01*
X77345733Y-86312736D01*
X77345739Y-86312743D01*
X77517256Y-86484260D01*
X77517262Y-86484265D01*
X77709711Y-86631936D01*
X77919788Y-86753224D01*
X78143900Y-86846054D01*
X78378211Y-86908838D01*
X78558586Y-86932584D01*
X78618711Y-86940500D01*
X78618712Y-86940500D01*
X78861289Y-86940500D01*
X78909388Y-86934167D01*
X79101789Y-86908838D01*
X79336100Y-86846054D01*
X79560212Y-86753224D01*
X79770289Y-86631936D01*
X79962738Y-86484265D01*
X80134265Y-86312738D01*
X80281936Y-86120289D01*
X80403224Y-85910212D01*
X80496054Y-85686100D01*
X80558838Y-85451789D01*
X80590500Y-85211288D01*
X80590500Y-84968712D01*
X80558838Y-84728211D01*
X80496054Y-84493900D01*
X80403224Y-84269788D01*
X80281936Y-84059711D01*
X80134265Y-83867262D01*
X80134260Y-83867256D01*
X79962743Y-83695739D01*
X79962736Y-83695733D01*
X79770293Y-83548067D01*
X79770292Y-83548066D01*
X79770289Y-83548064D01*
X79560212Y-83426776D01*
X79560205Y-83426773D01*
X79336104Y-83333947D01*
X79101785Y-83271161D01*
X78861289Y-83239500D01*
X78861288Y-83239500D01*
X78618712Y-83239500D01*
X78618711Y-83239500D01*
X78378214Y-83271161D01*
X78143895Y-83333947D01*
X77919794Y-83426773D01*
X77919785Y-83426777D01*
X77709706Y-83548067D01*
X77517263Y-83695733D01*
X77517256Y-83695739D01*
X77345739Y-83867256D01*
X77345733Y-83867263D01*
X77198067Y-84059706D01*
X77076777Y-84269785D01*
X77076773Y-84269794D01*
X76983947Y-84493895D01*
X76921161Y-84728214D01*
X76889500Y-84968711D01*
X31060500Y-84968711D01*
X31028838Y-84728211D01*
X30966054Y-84493900D01*
X30873224Y-84269788D01*
X30751936Y-84059711D01*
X30604265Y-83867262D01*
X30604260Y-83867256D01*
X30432743Y-83695739D01*
X30432736Y-83695733D01*
X30240293Y-83548067D01*
X30240292Y-83548066D01*
X30240289Y-83548064D01*
X30030212Y-83426776D01*
X30030205Y-83426773D01*
X29806104Y-83333947D01*
X29571785Y-83271161D01*
X29331289Y-83239500D01*
X29331288Y-83239500D01*
X29088712Y-83239500D01*
X29088711Y-83239500D01*
X28848214Y-83271161D01*
X28613895Y-83333947D01*
X28389794Y-83426773D01*
X28389785Y-83426777D01*
X28179706Y-83548067D01*
X27987263Y-83695733D01*
X27987256Y-83695739D01*
X27815739Y-83867256D01*
X27815733Y-83867263D01*
X27668067Y-84059706D01*
X27546777Y-84269785D01*
X27546773Y-84269794D01*
X27453947Y-84493895D01*
X27391161Y-84728214D01*
X27359500Y-84968711D01*
X25400500Y-84968711D01*
X25400500Y-78615837D01*
X42509499Y-78615837D01*
X42509499Y-78844162D01*
X42545214Y-79069660D01*
X42615769Y-79286803D01*
X42719287Y-79489966D01*
X42719420Y-79490228D01*
X42853620Y-79674937D01*
X43015062Y-79836379D01*
X43199771Y-79970579D01*
X43295883Y-80019550D01*
X43403195Y-80074229D01*
X43403197Y-80074229D01*
X43403200Y-80074231D01*
X43519591Y-80112049D01*
X43620338Y-80144784D01*
X43845837Y-80180500D01*
X43845842Y-80180500D01*
X44074161Y-80180500D01*
X44299659Y-80144784D01*
X44301164Y-80144295D01*
X44516798Y-80074231D01*
X44720227Y-79970579D01*
X44904936Y-79836379D01*
X45066378Y-79674937D01*
X45200578Y-79490228D01*
X45304230Y-79286799D01*
X45374783Y-79069660D01*
X45374801Y-79069544D01*
X45410499Y-78844162D01*
X45410499Y-78615883D01*
X46009999Y-78615883D01*
X46009999Y-78844116D01*
X46045703Y-79069544D01*
X46116229Y-79286604D01*
X46219850Y-79489969D01*
X46273134Y-79563309D01*
X46273136Y-79563309D01*
X46895386Y-78941059D01*
X46900888Y-78961591D01*
X46979880Y-79098408D01*
X47091591Y-79210119D01*
X47228408Y-79289111D01*
X47248938Y-79294612D01*
X46626687Y-79916862D01*
X46626688Y-79916863D01*
X46700029Y-79970148D01*
X46903394Y-80073769D01*
X47120454Y-80144295D01*
X47345883Y-80180000D01*
X47574115Y-80180000D01*
X47799543Y-80144295D01*
X48016603Y-80073769D01*
X48219965Y-79970150D01*
X48293308Y-79916862D01*
X48293309Y-79916862D01*
X47671058Y-79294612D01*
X47691590Y-79289111D01*
X47828407Y-79210119D01*
X47940118Y-79098408D01*
X48019110Y-78961591D01*
X48024611Y-78941060D01*
X48646861Y-79563310D01*
X48646861Y-79563309D01*
X48700149Y-79489966D01*
X48803768Y-79286604D01*
X48874294Y-79069544D01*
X48909999Y-78844116D01*
X48909999Y-78615883D01*
X48909992Y-78615837D01*
X49509500Y-78615837D01*
X49509500Y-78844162D01*
X49545215Y-79069660D01*
X49615770Y-79286803D01*
X49719288Y-79489966D01*
X49719421Y-79490228D01*
X49853621Y-79674937D01*
X50015063Y-79836379D01*
X50199772Y-79970579D01*
X50295884Y-80019550D01*
X50403196Y-80074229D01*
X50403198Y-80074229D01*
X50403201Y-80074231D01*
X50519592Y-80112049D01*
X50620339Y-80144784D01*
X50845838Y-80180500D01*
X50845843Y-80180500D01*
X51074162Y-80180500D01*
X51299660Y-80144784D01*
X51301165Y-80144295D01*
X51516799Y-80074231D01*
X51720228Y-79970579D01*
X51904937Y-79836379D01*
X52066379Y-79674937D01*
X52200579Y-79490228D01*
X52304231Y-79286799D01*
X52374784Y-79069660D01*
X52374802Y-79069544D01*
X52410500Y-78844162D01*
X52410500Y-78615837D01*
X56349499Y-78615837D01*
X56349499Y-78844162D01*
X56385214Y-79069660D01*
X56455769Y-79286803D01*
X56559287Y-79489966D01*
X56559420Y-79490228D01*
X56693620Y-79674937D01*
X56855062Y-79836379D01*
X57039771Y-79970579D01*
X57135883Y-80019550D01*
X57243195Y-80074229D01*
X57243197Y-80074229D01*
X57243200Y-80074231D01*
X57359591Y-80112049D01*
X57460338Y-80144784D01*
X57685837Y-80180500D01*
X57685842Y-80180500D01*
X57914161Y-80180500D01*
X58139659Y-80144784D01*
X58141164Y-80144295D01*
X58356798Y-80074231D01*
X58560227Y-79970579D01*
X58744936Y-79836379D01*
X58906378Y-79674937D01*
X59040578Y-79490228D01*
X59144230Y-79286799D01*
X59214783Y-79069660D01*
X59214801Y-79069544D01*
X59250499Y-78844162D01*
X59250499Y-78615883D01*
X59849999Y-78615883D01*
X59849999Y-78844116D01*
X59885703Y-79069544D01*
X59956229Y-79286604D01*
X60059850Y-79489969D01*
X60113134Y-79563309D01*
X60113136Y-79563309D01*
X60735386Y-78941058D01*
X60740888Y-78961591D01*
X60819880Y-79098408D01*
X60931591Y-79210119D01*
X61068408Y-79289111D01*
X61088938Y-79294612D01*
X60466687Y-79916862D01*
X60466688Y-79916863D01*
X60540029Y-79970148D01*
X60743394Y-80073769D01*
X60960454Y-80144295D01*
X61185883Y-80180000D01*
X61414115Y-80180000D01*
X61639543Y-80144295D01*
X61856603Y-80073769D01*
X62059965Y-79970150D01*
X62133308Y-79916862D01*
X62133309Y-79916862D01*
X61511058Y-79294612D01*
X61531590Y-79289111D01*
X61668407Y-79210119D01*
X61780118Y-79098408D01*
X61859110Y-78961591D01*
X61864611Y-78941059D01*
X62486861Y-79563310D01*
X62486861Y-79563309D01*
X62540149Y-79489966D01*
X62643768Y-79286604D01*
X62714294Y-79069544D01*
X62749999Y-78844116D01*
X62749999Y-78615883D01*
X62749992Y-78615837D01*
X63349500Y-78615837D01*
X63349500Y-78844162D01*
X63385215Y-79069660D01*
X63455770Y-79286803D01*
X63559288Y-79489966D01*
X63559421Y-79490228D01*
X63693621Y-79674937D01*
X63855063Y-79836379D01*
X64039772Y-79970579D01*
X64135884Y-80019550D01*
X64243196Y-80074229D01*
X64243198Y-80074229D01*
X64243201Y-80074231D01*
X64359592Y-80112049D01*
X64460339Y-80144784D01*
X64685838Y-80180500D01*
X64685843Y-80180500D01*
X64914162Y-80180500D01*
X65139660Y-80144784D01*
X65141165Y-80144295D01*
X65356799Y-80074231D01*
X65560228Y-79970579D01*
X65744937Y-79836379D01*
X65906379Y-79674937D01*
X66040579Y-79490228D01*
X66144231Y-79286799D01*
X66214784Y-79069660D01*
X66214802Y-79069544D01*
X66250500Y-78844162D01*
X66250500Y-78615837D01*
X66214784Y-78390339D01*
X66144229Y-78173196D01*
X66040713Y-77970035D01*
X66040579Y-77969772D01*
X65906379Y-77785063D01*
X65744937Y-77623621D01*
X65560228Y-77489421D01*
X65356803Y-77385770D01*
X65139660Y-77315215D01*
X64914162Y-77279500D01*
X64914157Y-77279500D01*
X64685843Y-77279500D01*
X64685838Y-77279500D01*
X64460339Y-77315215D01*
X64243196Y-77385770D01*
X64039771Y-77489421D01*
X63855061Y-77623622D01*
X63693622Y-77785061D01*
X63559421Y-77969771D01*
X63455770Y-78173196D01*
X63385215Y-78390339D01*
X63349500Y-78615837D01*
X62749992Y-78615837D01*
X62714294Y-78390455D01*
X62643768Y-78173395D01*
X62540147Y-77970030D01*
X62486862Y-77896689D01*
X62486861Y-77896688D01*
X61864611Y-78518939D01*
X61859110Y-78498409D01*
X61780118Y-78361592D01*
X61668407Y-78249881D01*
X61531590Y-78170889D01*
X61511057Y-78165387D01*
X62133308Y-77543137D01*
X62133308Y-77543135D01*
X62059968Y-77489851D01*
X61856603Y-77386230D01*
X61639543Y-77315704D01*
X61414115Y-77280000D01*
X61185883Y-77280000D01*
X60960454Y-77315704D01*
X60743394Y-77386230D01*
X60540034Y-77489848D01*
X60540032Y-77489849D01*
X60466688Y-77543135D01*
X60466688Y-77543136D01*
X61088940Y-78165387D01*
X61068408Y-78170889D01*
X60931591Y-78249881D01*
X60819880Y-78361592D01*
X60740888Y-78498409D01*
X60735386Y-78518940D01*
X60113135Y-77896689D01*
X60113134Y-77896689D01*
X60059848Y-77970033D01*
X60059847Y-77970035D01*
X59956229Y-78173395D01*
X59885703Y-78390455D01*
X59849999Y-78615883D01*
X59250499Y-78615883D01*
X59250499Y-78615837D01*
X59214783Y-78390339D01*
X59144228Y-78173196D01*
X59040712Y-77970035D01*
X59040578Y-77969772D01*
X58906378Y-77785063D01*
X58744936Y-77623621D01*
X58560227Y-77489421D01*
X58356802Y-77385770D01*
X58139659Y-77315215D01*
X57914161Y-77279500D01*
X57914156Y-77279500D01*
X57685842Y-77279500D01*
X57685837Y-77279500D01*
X57460338Y-77315215D01*
X57243195Y-77385770D01*
X57039770Y-77489421D01*
X56855060Y-77623622D01*
X56693621Y-77785061D01*
X56559420Y-77969771D01*
X56455769Y-78173196D01*
X56385214Y-78390339D01*
X56349499Y-78615837D01*
X52410500Y-78615837D01*
X52374784Y-78390339D01*
X52304229Y-78173196D01*
X52200713Y-77970035D01*
X52200579Y-77969772D01*
X52066379Y-77785063D01*
X51904937Y-77623621D01*
X51720228Y-77489421D01*
X51516803Y-77385770D01*
X51299660Y-77315215D01*
X51074162Y-77279500D01*
X51074157Y-77279500D01*
X50845843Y-77279500D01*
X50845838Y-77279500D01*
X50620339Y-77315215D01*
X50403196Y-77385770D01*
X50199771Y-77489421D01*
X50015061Y-77623622D01*
X49853622Y-77785061D01*
X49719421Y-77969771D01*
X49615770Y-78173196D01*
X49545215Y-78390339D01*
X49509500Y-78615837D01*
X48909992Y-78615837D01*
X48874294Y-78390455D01*
X48803768Y-78173395D01*
X48700147Y-77970030D01*
X48646862Y-77896689D01*
X48646861Y-77896688D01*
X48024611Y-78518939D01*
X48019110Y-78498409D01*
X47940118Y-78361592D01*
X47828407Y-78249881D01*
X47691590Y-78170889D01*
X47671057Y-78165387D01*
X48293308Y-77543137D01*
X48293308Y-77543135D01*
X48219968Y-77489851D01*
X48016603Y-77386230D01*
X47799543Y-77315704D01*
X47574115Y-77280000D01*
X47345883Y-77280000D01*
X47120454Y-77315704D01*
X46903394Y-77386230D01*
X46700034Y-77489848D01*
X46700032Y-77489849D01*
X46626688Y-77543135D01*
X46626688Y-77543136D01*
X47248940Y-78165387D01*
X47228408Y-78170889D01*
X47091591Y-78249881D01*
X46979880Y-78361592D01*
X46900888Y-78498409D01*
X46895386Y-78518940D01*
X46273135Y-77896689D01*
X46273134Y-77896689D01*
X46219848Y-77970033D01*
X46219847Y-77970035D01*
X46116229Y-78173395D01*
X46045703Y-78390455D01*
X46009999Y-78615883D01*
X45410499Y-78615883D01*
X45410499Y-78615837D01*
X45374783Y-78390339D01*
X45304228Y-78173196D01*
X45200712Y-77970035D01*
X45200578Y-77969772D01*
X45066378Y-77785063D01*
X44904936Y-77623621D01*
X44720227Y-77489421D01*
X44516802Y-77385770D01*
X44299659Y-77315215D01*
X44074161Y-77279500D01*
X44074156Y-77279500D01*
X43845842Y-77279500D01*
X43845837Y-77279500D01*
X43620338Y-77315215D01*
X43403195Y-77385770D01*
X43199770Y-77489421D01*
X43015060Y-77623622D01*
X42853621Y-77785061D01*
X42719420Y-77969771D01*
X42615769Y-78173196D01*
X42545214Y-78390339D01*
X42509499Y-78615837D01*
X25400500Y-78615837D01*
X25400500Y-73615837D01*
X42509499Y-73615837D01*
X42509499Y-73844162D01*
X42545214Y-74069660D01*
X42615769Y-74286803D01*
X42719287Y-74489966D01*
X42719420Y-74490228D01*
X42853620Y-74674937D01*
X43015062Y-74836379D01*
X43199771Y-74970579D01*
X43295883Y-75019550D01*
X43403195Y-75074229D01*
X43403197Y-75074229D01*
X43403200Y-75074231D01*
X43519591Y-75112049D01*
X43620338Y-75144784D01*
X43845837Y-75180500D01*
X43845842Y-75180500D01*
X44074161Y-75180500D01*
X44299659Y-75144784D01*
X44301164Y-75144295D01*
X44516798Y-75074231D01*
X44720227Y-74970579D01*
X44904936Y-74836379D01*
X45066378Y-74674937D01*
X45200578Y-74490228D01*
X45304230Y-74286799D01*
X45374783Y-74069660D01*
X45374801Y-74069544D01*
X45410499Y-73844162D01*
X45410499Y-73615883D01*
X46009999Y-73615883D01*
X46009999Y-73844116D01*
X46045703Y-74069544D01*
X46116229Y-74286604D01*
X46219850Y-74489969D01*
X46273134Y-74563309D01*
X46273136Y-74563309D01*
X46895386Y-73941059D01*
X46900888Y-73961591D01*
X46979880Y-74098408D01*
X47091591Y-74210119D01*
X47228408Y-74289111D01*
X47248938Y-74294612D01*
X46626687Y-74916862D01*
X46626688Y-74916863D01*
X46700029Y-74970148D01*
X46903394Y-75073769D01*
X47120454Y-75144295D01*
X47345883Y-75180000D01*
X47574115Y-75180000D01*
X47799543Y-75144295D01*
X48016603Y-75073769D01*
X48219965Y-74970150D01*
X48293308Y-74916862D01*
X48293309Y-74916862D01*
X47671058Y-74294612D01*
X47691590Y-74289111D01*
X47828407Y-74210119D01*
X47940118Y-74098408D01*
X48019110Y-73961591D01*
X48024611Y-73941060D01*
X48646861Y-74563310D01*
X48646861Y-74563309D01*
X48700149Y-74489966D01*
X48803768Y-74286604D01*
X48874294Y-74069544D01*
X48909999Y-73844116D01*
X48909999Y-73615883D01*
X48909992Y-73615837D01*
X49509500Y-73615837D01*
X49509500Y-73844162D01*
X49545215Y-74069660D01*
X49615770Y-74286803D01*
X49719288Y-74489966D01*
X49719421Y-74490228D01*
X49853621Y-74674937D01*
X50015063Y-74836379D01*
X50199772Y-74970579D01*
X50295884Y-75019550D01*
X50403196Y-75074229D01*
X50403198Y-75074229D01*
X50403201Y-75074231D01*
X50519592Y-75112049D01*
X50620339Y-75144784D01*
X50845838Y-75180500D01*
X50845843Y-75180500D01*
X51074162Y-75180500D01*
X51299660Y-75144784D01*
X51301165Y-75144295D01*
X51516799Y-75074231D01*
X51720228Y-74970579D01*
X51904937Y-74836379D01*
X52066379Y-74674937D01*
X52200579Y-74490228D01*
X52304231Y-74286799D01*
X52374784Y-74069660D01*
X52374802Y-74069544D01*
X52410500Y-73844162D01*
X52410500Y-73615837D01*
X56349499Y-73615837D01*
X56349499Y-73844162D01*
X56385214Y-74069660D01*
X56455769Y-74286803D01*
X56559287Y-74489966D01*
X56559420Y-74490228D01*
X56693620Y-74674937D01*
X56855062Y-74836379D01*
X57039771Y-74970579D01*
X57135883Y-75019550D01*
X57243195Y-75074229D01*
X57243197Y-75074229D01*
X57243200Y-75074231D01*
X57359591Y-75112049D01*
X57460338Y-75144784D01*
X57685837Y-75180500D01*
X57685842Y-75180500D01*
X57914161Y-75180500D01*
X58139659Y-75144784D01*
X58141164Y-75144295D01*
X58356798Y-75074231D01*
X58560227Y-74970579D01*
X58744936Y-74836379D01*
X58906378Y-74674937D01*
X59040578Y-74490228D01*
X59144230Y-74286799D01*
X59214783Y-74069660D01*
X59214801Y-74069544D01*
X59250499Y-73844162D01*
X59250499Y-73615883D01*
X59849999Y-73615883D01*
X59849999Y-73844116D01*
X59885703Y-74069544D01*
X59956229Y-74286604D01*
X60059850Y-74489969D01*
X60113134Y-74563309D01*
X60113136Y-74563309D01*
X60735386Y-73941058D01*
X60740888Y-73961591D01*
X60819880Y-74098408D01*
X60931591Y-74210119D01*
X61068408Y-74289111D01*
X61088938Y-74294612D01*
X60466687Y-74916862D01*
X60466688Y-74916863D01*
X60540029Y-74970148D01*
X60743394Y-75073769D01*
X60960454Y-75144295D01*
X61185883Y-75180000D01*
X61414115Y-75180000D01*
X61639543Y-75144295D01*
X61856603Y-75073769D01*
X62059965Y-74970150D01*
X62133308Y-74916862D01*
X62133309Y-74916862D01*
X61511058Y-74294612D01*
X61531590Y-74289111D01*
X61668407Y-74210119D01*
X61780118Y-74098408D01*
X61859110Y-73961591D01*
X61864611Y-73941059D01*
X62486861Y-74563310D01*
X62486861Y-74563309D01*
X62540149Y-74489966D01*
X62643768Y-74286604D01*
X62714294Y-74069544D01*
X62749999Y-73844116D01*
X62749999Y-73615883D01*
X62749992Y-73615837D01*
X63349500Y-73615837D01*
X63349500Y-73844162D01*
X63385215Y-74069660D01*
X63455770Y-74286803D01*
X63559288Y-74489966D01*
X63559421Y-74490228D01*
X63693621Y-74674937D01*
X63855063Y-74836379D01*
X64039772Y-74970579D01*
X64135884Y-75019550D01*
X64243196Y-75074229D01*
X64243198Y-75074229D01*
X64243201Y-75074231D01*
X64359592Y-75112049D01*
X64460339Y-75144784D01*
X64685838Y-75180500D01*
X64685843Y-75180500D01*
X64914162Y-75180500D01*
X65139660Y-75144784D01*
X65141165Y-75144295D01*
X65356799Y-75074231D01*
X65560228Y-74970579D01*
X65744937Y-74836379D01*
X65906379Y-74674937D01*
X66040579Y-74490228D01*
X66144231Y-74286799D01*
X66214784Y-74069660D01*
X66214802Y-74069544D01*
X66250500Y-73844162D01*
X66250500Y-73615837D01*
X66214784Y-73390339D01*
X66144229Y-73173196D01*
X66040713Y-72970035D01*
X66040579Y-72969772D01*
X65906379Y-72785063D01*
X65744937Y-72623621D01*
X65560228Y-72489421D01*
X65356803Y-72385770D01*
X65139660Y-72315215D01*
X64914162Y-72279500D01*
X64914157Y-72279500D01*
X64685843Y-72279500D01*
X64685838Y-72279500D01*
X64460339Y-72315215D01*
X64243196Y-72385770D01*
X64039771Y-72489421D01*
X63855061Y-72623622D01*
X63693622Y-72785061D01*
X63559421Y-72969771D01*
X63455770Y-73173196D01*
X63385215Y-73390339D01*
X63349500Y-73615837D01*
X62749992Y-73615837D01*
X62714294Y-73390455D01*
X62643768Y-73173395D01*
X62540147Y-72970030D01*
X62486862Y-72896689D01*
X62486861Y-72896688D01*
X61864611Y-73518939D01*
X61859110Y-73498409D01*
X61780118Y-73361592D01*
X61668407Y-73249881D01*
X61531590Y-73170889D01*
X61511057Y-73165387D01*
X62133308Y-72543137D01*
X62133308Y-72543135D01*
X62059968Y-72489851D01*
X61856603Y-72386230D01*
X61639543Y-72315704D01*
X61414115Y-72280000D01*
X61185883Y-72280000D01*
X60960454Y-72315704D01*
X60743394Y-72386230D01*
X60540034Y-72489848D01*
X60540032Y-72489849D01*
X60466688Y-72543135D01*
X60466688Y-72543136D01*
X61088940Y-73165387D01*
X61068408Y-73170889D01*
X60931591Y-73249881D01*
X60819880Y-73361592D01*
X60740888Y-73498409D01*
X60735386Y-73518940D01*
X60113135Y-72896689D01*
X60113134Y-72896689D01*
X60059848Y-72970033D01*
X60059847Y-72970035D01*
X59956229Y-73173395D01*
X59885703Y-73390455D01*
X59849999Y-73615883D01*
X59250499Y-73615883D01*
X59250499Y-73615837D01*
X59214783Y-73390339D01*
X59144228Y-73173196D01*
X59040712Y-72970035D01*
X59040578Y-72969772D01*
X58906378Y-72785063D01*
X58744936Y-72623621D01*
X58560227Y-72489421D01*
X58356802Y-72385770D01*
X58139659Y-72315215D01*
X57914161Y-72279500D01*
X57914156Y-72279500D01*
X57685842Y-72279500D01*
X57685837Y-72279500D01*
X57460338Y-72315215D01*
X57243195Y-72385770D01*
X57039770Y-72489421D01*
X56855060Y-72623622D01*
X56693621Y-72785061D01*
X56559420Y-72969771D01*
X56455769Y-73173196D01*
X56385214Y-73390339D01*
X56349499Y-73615837D01*
X52410500Y-73615837D01*
X52374784Y-73390339D01*
X52304229Y-73173196D01*
X52200713Y-72970035D01*
X52200579Y-72969772D01*
X52066379Y-72785063D01*
X51904937Y-72623621D01*
X51720228Y-72489421D01*
X51516803Y-72385770D01*
X51299660Y-72315215D01*
X51074162Y-72279500D01*
X51074157Y-72279500D01*
X50845843Y-72279500D01*
X50845838Y-72279500D01*
X50620339Y-72315215D01*
X50403196Y-72385770D01*
X50199771Y-72489421D01*
X50015061Y-72623622D01*
X49853622Y-72785061D01*
X49719421Y-72969771D01*
X49615770Y-73173196D01*
X49545215Y-73390339D01*
X49509500Y-73615837D01*
X48909992Y-73615837D01*
X48874294Y-73390455D01*
X48803768Y-73173395D01*
X48700147Y-72970030D01*
X48646862Y-72896689D01*
X48646861Y-72896688D01*
X48024611Y-73518939D01*
X48019110Y-73498409D01*
X47940118Y-73361592D01*
X47828407Y-73249881D01*
X47691590Y-73170889D01*
X47671057Y-73165387D01*
X48293308Y-72543137D01*
X48293308Y-72543135D01*
X48219968Y-72489851D01*
X48016603Y-72386230D01*
X47799543Y-72315704D01*
X47574115Y-72280000D01*
X47345883Y-72280000D01*
X47120454Y-72315704D01*
X46903394Y-72386230D01*
X46700034Y-72489848D01*
X46700032Y-72489849D01*
X46626688Y-72543135D01*
X46626688Y-72543136D01*
X47248940Y-73165387D01*
X47228408Y-73170889D01*
X47091591Y-73249881D01*
X46979880Y-73361592D01*
X46900888Y-73498409D01*
X46895386Y-73518940D01*
X46273135Y-72896689D01*
X46273134Y-72896689D01*
X46219848Y-72970033D01*
X46219847Y-72970035D01*
X46116229Y-73173395D01*
X46045703Y-73390455D01*
X46009999Y-73615883D01*
X45410499Y-73615883D01*
X45410499Y-73615837D01*
X45374783Y-73390339D01*
X45304228Y-73173196D01*
X45200712Y-72970035D01*
X45200578Y-72969772D01*
X45066378Y-72785063D01*
X44904936Y-72623621D01*
X44720227Y-72489421D01*
X44516802Y-72385770D01*
X44299659Y-72315215D01*
X44074161Y-72279500D01*
X44074156Y-72279500D01*
X43845842Y-72279500D01*
X43845837Y-72279500D01*
X43620338Y-72315215D01*
X43403195Y-72385770D01*
X43199770Y-72489421D01*
X43015060Y-72623622D01*
X42853621Y-72785061D01*
X42719420Y-72969771D01*
X42615769Y-73173196D01*
X42545214Y-73390339D01*
X42509499Y-73615837D01*
X25400500Y-73615837D01*
X25400500Y-67986228D01*
X45229500Y-67986228D01*
X45229500Y-68153771D01*
X45262182Y-68318074D01*
X45262184Y-68318082D01*
X45326295Y-68472860D01*
X45419373Y-68612162D01*
X45537837Y-68730626D01*
X45630494Y-68792537D01*
X45677137Y-68823703D01*
X45831918Y-68887816D01*
X45996228Y-68920499D01*
X45996232Y-68920500D01*
X45996233Y-68920500D01*
X46163768Y-68920500D01*
X46163769Y-68920499D01*
X46328082Y-68887816D01*
X46482863Y-68823703D01*
X46622162Y-68730626D01*
X46740626Y-68612162D01*
X46833703Y-68472863D01*
X46891582Y-68333130D01*
X46918458Y-68292908D01*
X47095138Y-68116228D01*
X49439500Y-68116228D01*
X49439500Y-68283771D01*
X49468060Y-68427349D01*
X49472184Y-68448082D01*
X49517356Y-68557137D01*
X49530061Y-68587808D01*
X49539500Y-68635261D01*
X49539500Y-69843918D01*
X49539500Y-69843920D01*
X49539499Y-69843920D01*
X49568340Y-69988907D01*
X49568343Y-69988917D01*
X49624913Y-70125490D01*
X49624914Y-70125491D01*
X49624916Y-70125495D01*
X49644296Y-70154499D01*
X49699979Y-70237837D01*
X49707051Y-70248420D01*
X49707052Y-70248421D01*
X50461539Y-71002907D01*
X50488419Y-71043135D01*
X50546295Y-71182860D01*
X50639373Y-71322162D01*
X50757837Y-71440626D01*
X50850494Y-71502537D01*
X50897137Y-71533703D01*
X51051918Y-71597816D01*
X51216228Y-71630499D01*
X51216232Y-71630500D01*
X51216233Y-71630500D01*
X51383768Y-71630500D01*
X51383769Y-71630499D01*
X51548082Y-71597816D01*
X51702863Y-71533703D01*
X51842162Y-71440626D01*
X51960626Y-71322162D01*
X52053703Y-71182863D01*
X52117816Y-71028082D01*
X52150500Y-70863767D01*
X52150500Y-70696233D01*
X52117816Y-70531918D01*
X52053703Y-70377137D01*
X52022537Y-70330494D01*
X51960626Y-70237837D01*
X51842162Y-70119373D01*
X51702860Y-70026295D01*
X51563135Y-69968419D01*
X51522907Y-69941539D01*
X51076819Y-69495451D01*
X51043334Y-69434128D01*
X51040500Y-69407770D01*
X51040500Y-68635261D01*
X51049939Y-68587808D01*
X51107816Y-68448082D01*
X51140500Y-68283767D01*
X51140500Y-68116233D01*
X51107816Y-67951918D01*
X51043703Y-67797137D01*
X50956841Y-67667139D01*
X50950626Y-67657837D01*
X50832162Y-67539373D01*
X50806392Y-67522154D01*
X58505426Y-67522154D01*
X58505426Y-67689697D01*
X58538108Y-67854000D01*
X58538110Y-67854008D01*
X58602221Y-68008786D01*
X58695299Y-68148088D01*
X58813763Y-68266552D01*
X58890872Y-68318074D01*
X58953063Y-68359629D01*
X58953064Y-68359629D01*
X58953065Y-68359630D01*
X59109862Y-68424578D01*
X59150090Y-68451458D01*
X59881539Y-69182907D01*
X59908419Y-69223135D01*
X59966295Y-69362860D01*
X60059373Y-69502162D01*
X60177837Y-69620626D01*
X60270494Y-69682537D01*
X60317137Y-69713703D01*
X60471918Y-69777816D01*
X60636228Y-69810499D01*
X60636232Y-69810500D01*
X60636233Y-69810500D01*
X60803768Y-69810500D01*
X60803769Y-69810499D01*
X60968082Y-69777816D01*
X61122863Y-69713703D01*
X61262162Y-69620626D01*
X61380626Y-69502162D01*
X61473703Y-69362863D01*
X61537816Y-69208082D01*
X61570500Y-69043767D01*
X61570500Y-68876233D01*
X61537816Y-68711918D01*
X61473703Y-68557137D01*
X61417393Y-68472863D01*
X61380626Y-68417837D01*
X61262162Y-68299373D01*
X61122860Y-68206295D01*
X60983135Y-68148419D01*
X60942907Y-68121539D01*
X60187315Y-67365947D01*
X60160435Y-67325719D01*
X60156531Y-67316295D01*
X60116441Y-67219509D01*
X60109630Y-67203065D01*
X60091208Y-67175495D01*
X60078463Y-67156420D01*
X60016552Y-67063763D01*
X59898088Y-66945299D01*
X59758786Y-66852221D01*
X59604008Y-66788110D01*
X59604000Y-66788108D01*
X59439697Y-66755426D01*
X59439693Y-66755426D01*
X59272159Y-66755426D01*
X59272154Y-66755426D01*
X59107851Y-66788108D01*
X59107843Y-66788110D01*
X58953065Y-66852221D01*
X58813763Y-66945299D01*
X58695299Y-67063763D01*
X58602221Y-67203065D01*
X58538110Y-67357843D01*
X58538108Y-67357851D01*
X58505426Y-67522154D01*
X50806392Y-67522154D01*
X50692860Y-67446295D01*
X50538082Y-67382184D01*
X50538074Y-67382182D01*
X50373771Y-67349500D01*
X50373767Y-67349500D01*
X50206233Y-67349500D01*
X50206228Y-67349500D01*
X50041925Y-67382182D01*
X50041917Y-67382184D01*
X49887139Y-67446295D01*
X49747837Y-67539373D01*
X49629373Y-67657837D01*
X49536295Y-67797139D01*
X49472184Y-67951917D01*
X49472182Y-67951925D01*
X49439500Y-68116228D01*
X47095138Y-68116228D01*
X47912952Y-67298416D01*
X47965681Y-67219500D01*
X47995084Y-67175495D01*
X48051658Y-67038913D01*
X48070279Y-66945300D01*
X48080500Y-66893920D01*
X48080500Y-66615261D01*
X48089939Y-66567808D01*
X48107292Y-66525914D01*
X48147816Y-66428082D01*
X48180500Y-66263767D01*
X48180500Y-66096233D01*
X48147816Y-65931918D01*
X48083703Y-65777137D01*
X48042142Y-65714937D01*
X47990626Y-65637837D01*
X47872162Y-65519373D01*
X47732860Y-65426295D01*
X47578082Y-65362184D01*
X47578074Y-65362182D01*
X47413771Y-65329500D01*
X47413767Y-65329500D01*
X47246233Y-65329500D01*
X47246228Y-65329500D01*
X47081925Y-65362182D01*
X47081917Y-65362184D01*
X46927139Y-65426295D01*
X46787837Y-65519373D01*
X46669373Y-65637837D01*
X46576295Y-65777139D01*
X46512184Y-65931917D01*
X46512182Y-65931925D01*
X46479500Y-66096228D01*
X46479500Y-66263771D01*
X46512182Y-66428074D01*
X46512185Y-66428086D01*
X46523932Y-66456445D01*
X46531401Y-66525914D01*
X46500126Y-66588393D01*
X46497052Y-66591578D01*
X45857090Y-67231540D01*
X45816862Y-67258420D01*
X45677139Y-67316295D01*
X45537837Y-67409373D01*
X45419373Y-67527837D01*
X45326295Y-67667139D01*
X45262184Y-67821917D01*
X45262182Y-67821925D01*
X45229500Y-67986228D01*
X25400500Y-67986228D01*
X25400500Y-64655837D01*
X37999500Y-64655837D01*
X37999500Y-64884162D01*
X38035215Y-65109660D01*
X38105770Y-65326803D01*
X38203890Y-65519373D01*
X38209421Y-65530228D01*
X38343621Y-65714937D01*
X38505063Y-65876379D01*
X38689772Y-66010579D01*
X38785884Y-66059550D01*
X38893196Y-66114229D01*
X38893198Y-66114229D01*
X38893201Y-66114231D01*
X39009592Y-66152049D01*
X39110339Y-66184784D01*
X39335838Y-66220500D01*
X39335843Y-66220500D01*
X39564162Y-66220500D01*
X39789660Y-66184784D01*
X40006799Y-66114231D01*
X40210228Y-66010579D01*
X40394937Y-65876379D01*
X40556379Y-65714937D01*
X40690579Y-65530228D01*
X40794231Y-65326799D01*
X40864784Y-65109660D01*
X40900500Y-64884162D01*
X40900500Y-64655837D01*
X42999500Y-64655837D01*
X42999500Y-64884162D01*
X43035215Y-65109660D01*
X43105770Y-65326803D01*
X43203890Y-65519373D01*
X43209421Y-65530228D01*
X43343621Y-65714937D01*
X43505063Y-65876379D01*
X43689772Y-66010579D01*
X43785884Y-66059550D01*
X43893196Y-66114229D01*
X43893198Y-66114229D01*
X43893201Y-66114231D01*
X44009592Y-66152049D01*
X44110339Y-66184784D01*
X44335838Y-66220500D01*
X44335843Y-66220500D01*
X44564162Y-66220500D01*
X44789660Y-66184784D01*
X45006799Y-66114231D01*
X45210228Y-66010579D01*
X45394937Y-65876379D01*
X45556379Y-65714937D01*
X45690579Y-65530228D01*
X45794231Y-65326799D01*
X45864784Y-65109660D01*
X45900500Y-64884162D01*
X45900500Y-64655837D01*
X62049500Y-64655837D01*
X62049500Y-64884162D01*
X62085215Y-65109660D01*
X62155770Y-65326803D01*
X62253890Y-65519373D01*
X62259421Y-65530228D01*
X62393621Y-65714937D01*
X62555063Y-65876379D01*
X62739772Y-66010579D01*
X62835884Y-66059550D01*
X62943196Y-66114229D01*
X62943198Y-66114229D01*
X62943201Y-66114231D01*
X63059592Y-66152049D01*
X63160339Y-66184784D01*
X63385838Y-66220500D01*
X63385843Y-66220500D01*
X63614162Y-66220500D01*
X63839660Y-66184784D01*
X64056799Y-66114231D01*
X64260228Y-66010579D01*
X64444937Y-65876379D01*
X64606379Y-65714937D01*
X64740579Y-65530228D01*
X64844231Y-65326799D01*
X64914784Y-65109660D01*
X64950500Y-64884162D01*
X64950500Y-64655837D01*
X67049500Y-64655837D01*
X67049500Y-64884162D01*
X67085215Y-65109660D01*
X67155770Y-65326803D01*
X67253890Y-65519373D01*
X67259421Y-65530228D01*
X67393621Y-65714937D01*
X67555063Y-65876379D01*
X67739772Y-66010579D01*
X67835884Y-66059550D01*
X67943196Y-66114229D01*
X67943198Y-66114229D01*
X67943201Y-66114231D01*
X68059592Y-66152049D01*
X68160339Y-66184784D01*
X68385838Y-66220500D01*
X68385843Y-66220500D01*
X68614162Y-66220500D01*
X68839660Y-66184784D01*
X69056799Y-66114231D01*
X69260228Y-66010579D01*
X69444937Y-65876379D01*
X69606379Y-65714937D01*
X69740579Y-65530228D01*
X69844231Y-65326799D01*
X69914784Y-65109660D01*
X69950500Y-64884162D01*
X69950500Y-64655837D01*
X69914784Y-64430339D01*
X69844229Y-64213196D01*
X69740578Y-64009771D01*
X69606379Y-63825063D01*
X69444937Y-63663621D01*
X69260228Y-63529421D01*
X69056803Y-63425770D01*
X68839660Y-63355215D01*
X68614162Y-63319500D01*
X68614157Y-63319500D01*
X68385843Y-63319500D01*
X68385838Y-63319500D01*
X68160339Y-63355215D01*
X67943196Y-63425770D01*
X67739771Y-63529421D01*
X67555061Y-63663622D01*
X67393622Y-63825061D01*
X67259421Y-64009771D01*
X67155770Y-64213196D01*
X67085215Y-64430339D01*
X67049500Y-64655837D01*
X64950500Y-64655837D01*
X64914784Y-64430339D01*
X64844229Y-64213196D01*
X64740578Y-64009771D01*
X64606379Y-63825063D01*
X64444937Y-63663621D01*
X64260228Y-63529421D01*
X64056803Y-63425770D01*
X63839660Y-63355215D01*
X63614162Y-63319500D01*
X63614157Y-63319500D01*
X63385843Y-63319500D01*
X63385838Y-63319500D01*
X63160339Y-63355215D01*
X62943196Y-63425770D01*
X62739771Y-63529421D01*
X62555061Y-63663622D01*
X62393622Y-63825061D01*
X62259421Y-64009771D01*
X62155770Y-64213196D01*
X62085215Y-64430339D01*
X62049500Y-64655837D01*
X45900500Y-64655837D01*
X45864784Y-64430339D01*
X45794229Y-64213196D01*
X45690578Y-64009771D01*
X45556379Y-63825063D01*
X45394937Y-63663621D01*
X45210228Y-63529421D01*
X45006803Y-63425770D01*
X44789660Y-63355215D01*
X44564162Y-63319500D01*
X44564157Y-63319500D01*
X44335843Y-63319500D01*
X44335838Y-63319500D01*
X44110339Y-63355215D01*
X43893196Y-63425770D01*
X43689771Y-63529421D01*
X43505061Y-63663622D01*
X43343622Y-63825061D01*
X43209421Y-64009771D01*
X43105770Y-64213196D01*
X43035215Y-64430339D01*
X42999500Y-64655837D01*
X40900500Y-64655837D01*
X40864784Y-64430339D01*
X40794229Y-64213196D01*
X40690578Y-64009771D01*
X40556379Y-63825063D01*
X40394937Y-63663621D01*
X40210228Y-63529421D01*
X40006803Y-63425770D01*
X39789660Y-63355215D01*
X39564162Y-63319500D01*
X39564157Y-63319500D01*
X39335843Y-63319500D01*
X39335838Y-63319500D01*
X39110339Y-63355215D01*
X38893196Y-63425770D01*
X38689771Y-63529421D01*
X38505061Y-63663622D01*
X38343622Y-63825061D01*
X38209421Y-64009771D01*
X38105770Y-64213196D01*
X38035215Y-64430339D01*
X37999500Y-64655837D01*
X25400500Y-64655837D01*
X25400500Y-61155883D01*
X38000000Y-61155883D01*
X38000000Y-61384116D01*
X38035704Y-61609544D01*
X38106230Y-61826604D01*
X38209851Y-62029969D01*
X38263135Y-62103309D01*
X38263137Y-62103309D01*
X38885387Y-61481059D01*
X38890889Y-61501591D01*
X38969881Y-61638408D01*
X39081592Y-61750119D01*
X39218409Y-61829111D01*
X39238939Y-61834612D01*
X38616688Y-62456862D01*
X38616689Y-62456863D01*
X38690030Y-62510148D01*
X38893395Y-62613769D01*
X39110455Y-62684295D01*
X39335884Y-62720000D01*
X39564116Y-62720000D01*
X39789544Y-62684295D01*
X40006604Y-62613769D01*
X40209966Y-62510150D01*
X40283309Y-62456862D01*
X40283310Y-62456862D01*
X39661059Y-61834612D01*
X39681591Y-61829111D01*
X39818408Y-61750119D01*
X39930119Y-61638408D01*
X40009111Y-61501591D01*
X40014612Y-61481059D01*
X40636862Y-62103310D01*
X40636862Y-62103309D01*
X40690150Y-62029966D01*
X40793769Y-61826604D01*
X40864295Y-61609544D01*
X40900000Y-61384116D01*
X40900000Y-61155883D01*
X43000000Y-61155883D01*
X43000000Y-61384116D01*
X43035704Y-61609544D01*
X43106230Y-61826604D01*
X43209851Y-62029969D01*
X43263135Y-62103309D01*
X43263137Y-62103309D01*
X43885387Y-61481059D01*
X43890889Y-61501591D01*
X43969881Y-61638408D01*
X44081592Y-61750119D01*
X44218409Y-61829111D01*
X44238939Y-61834612D01*
X43616688Y-62456862D01*
X43616689Y-62456863D01*
X43690030Y-62510148D01*
X43893395Y-62613769D01*
X44110455Y-62684295D01*
X44335884Y-62720000D01*
X44564116Y-62720000D01*
X44789544Y-62684295D01*
X45006604Y-62613769D01*
X45209966Y-62510150D01*
X45283309Y-62456862D01*
X45283310Y-62456862D01*
X44661059Y-61834612D01*
X44681591Y-61829111D01*
X44818408Y-61750119D01*
X44930119Y-61638408D01*
X45009111Y-61501591D01*
X45014612Y-61481059D01*
X45636862Y-62103310D01*
X45636862Y-62103309D01*
X45690150Y-62029966D01*
X45793769Y-61826604D01*
X45864295Y-61609544D01*
X45900000Y-61384116D01*
X45900000Y-61155883D01*
X62050000Y-61155883D01*
X62050000Y-61384116D01*
X62085704Y-61609544D01*
X62156230Y-61826604D01*
X62259851Y-62029969D01*
X62313135Y-62103309D01*
X62313137Y-62103309D01*
X62935387Y-61481058D01*
X62940889Y-61501591D01*
X63019881Y-61638408D01*
X63131592Y-61750119D01*
X63268409Y-61829111D01*
X63288939Y-61834612D01*
X62666688Y-62456862D01*
X62666689Y-62456863D01*
X62740030Y-62510148D01*
X62943395Y-62613769D01*
X63160455Y-62684295D01*
X63385884Y-62720000D01*
X63614116Y-62720000D01*
X63839544Y-62684295D01*
X64056604Y-62613769D01*
X64259966Y-62510150D01*
X64333309Y-62456862D01*
X64333310Y-62456862D01*
X63711059Y-61834612D01*
X63731591Y-61829111D01*
X63868408Y-61750119D01*
X63980119Y-61638408D01*
X64059111Y-61501591D01*
X64064612Y-61481060D01*
X64686862Y-62103310D01*
X64686862Y-62103309D01*
X64740150Y-62029966D01*
X64843769Y-61826604D01*
X64914295Y-61609544D01*
X64950000Y-61384116D01*
X64950000Y-61155883D01*
X67050000Y-61155883D01*
X67050000Y-61384116D01*
X67085704Y-61609544D01*
X67156230Y-61826604D01*
X67259851Y-62029969D01*
X67313135Y-62103309D01*
X67313137Y-62103309D01*
X67935387Y-61481059D01*
X67940889Y-61501591D01*
X68019881Y-61638408D01*
X68131592Y-61750119D01*
X68268409Y-61829111D01*
X68288939Y-61834612D01*
X67666688Y-62456862D01*
X67666689Y-62456863D01*
X67740030Y-62510148D01*
X67943395Y-62613769D01*
X68160455Y-62684295D01*
X68385884Y-62720000D01*
X68614116Y-62720000D01*
X68839544Y-62684295D01*
X69056604Y-62613769D01*
X69259966Y-62510150D01*
X69333309Y-62456862D01*
X69333310Y-62456862D01*
X68711059Y-61834612D01*
X68731591Y-61829111D01*
X68868408Y-61750119D01*
X68980119Y-61638408D01*
X69059111Y-61501591D01*
X69064612Y-61481059D01*
X69686862Y-62103310D01*
X69686862Y-62103309D01*
X69740150Y-62029966D01*
X69843769Y-61826604D01*
X69914295Y-61609544D01*
X69950000Y-61384116D01*
X69950000Y-61155883D01*
X69914295Y-60930455D01*
X69843769Y-60713395D01*
X69740148Y-60510030D01*
X69686863Y-60436689D01*
X69686862Y-60436688D01*
X69064612Y-61058939D01*
X69059111Y-61038409D01*
X68980119Y-60901592D01*
X68868408Y-60789881D01*
X68731591Y-60710889D01*
X68711058Y-60705387D01*
X69333309Y-60083137D01*
X69333309Y-60083135D01*
X69259969Y-60029851D01*
X69056604Y-59926230D01*
X68839544Y-59855704D01*
X68614116Y-59820000D01*
X68385884Y-59820000D01*
X68160455Y-59855704D01*
X67943395Y-59926230D01*
X67740035Y-60029848D01*
X67740033Y-60029849D01*
X67666689Y-60083135D01*
X67666689Y-60083136D01*
X68288941Y-60705387D01*
X68268409Y-60710889D01*
X68131592Y-60789881D01*
X68019881Y-60901592D01*
X67940889Y-61038409D01*
X67935387Y-61058940D01*
X67313136Y-60436689D01*
X67313135Y-60436689D01*
X67259849Y-60510033D01*
X67259848Y-60510035D01*
X67156230Y-60713395D01*
X67085704Y-60930455D01*
X67050000Y-61155883D01*
X64950000Y-61155883D01*
X64914295Y-60930455D01*
X64843769Y-60713395D01*
X64740148Y-60510030D01*
X64686863Y-60436689D01*
X64686862Y-60436688D01*
X64064612Y-61058939D01*
X64059111Y-61038409D01*
X63980119Y-60901592D01*
X63868408Y-60789881D01*
X63731591Y-60710889D01*
X63711058Y-60705387D01*
X64333309Y-60083137D01*
X64333309Y-60083135D01*
X64259969Y-60029851D01*
X64056604Y-59926230D01*
X63839544Y-59855704D01*
X63614116Y-59820000D01*
X63385884Y-59820000D01*
X63160455Y-59855704D01*
X62943395Y-59926230D01*
X62740035Y-60029848D01*
X62740033Y-60029849D01*
X62666689Y-60083135D01*
X62666689Y-60083136D01*
X63288941Y-60705387D01*
X63268409Y-60710889D01*
X63131592Y-60789881D01*
X63019881Y-60901592D01*
X62940889Y-61038409D01*
X62935387Y-61058940D01*
X62313136Y-60436689D01*
X62313135Y-60436689D01*
X62259849Y-60510033D01*
X62259848Y-60510035D01*
X62156230Y-60713395D01*
X62085704Y-60930455D01*
X62050000Y-61155883D01*
X45900000Y-61155883D01*
X45864295Y-60930455D01*
X45793769Y-60713395D01*
X45690148Y-60510030D01*
X45636863Y-60436689D01*
X45636862Y-60436688D01*
X45014612Y-61058939D01*
X45009111Y-61038409D01*
X44930119Y-60901592D01*
X44818408Y-60789881D01*
X44681591Y-60710889D01*
X44661058Y-60705387D01*
X45283309Y-60083137D01*
X45283309Y-60083135D01*
X45209969Y-60029851D01*
X45006604Y-59926230D01*
X44789544Y-59855704D01*
X44564116Y-59820000D01*
X44335884Y-59820000D01*
X44110455Y-59855704D01*
X43893395Y-59926230D01*
X43690035Y-60029848D01*
X43690033Y-60029849D01*
X43616689Y-60083135D01*
X43616689Y-60083136D01*
X44238941Y-60705387D01*
X44218409Y-60710889D01*
X44081592Y-60789881D01*
X43969881Y-60901592D01*
X43890889Y-61038409D01*
X43885387Y-61058940D01*
X43263136Y-60436689D01*
X43263135Y-60436689D01*
X43209849Y-60510033D01*
X43209848Y-60510035D01*
X43106230Y-60713395D01*
X43035704Y-60930455D01*
X43000000Y-61155883D01*
X40900000Y-61155883D01*
X40864295Y-60930455D01*
X40793769Y-60713395D01*
X40690148Y-60510030D01*
X40636863Y-60436689D01*
X40636862Y-60436688D01*
X40014612Y-61058939D01*
X40009111Y-61038409D01*
X39930119Y-60901592D01*
X39818408Y-60789881D01*
X39681591Y-60710889D01*
X39661058Y-60705387D01*
X40283309Y-60083137D01*
X40283309Y-60083135D01*
X40209969Y-60029851D01*
X40006604Y-59926230D01*
X39789544Y-59855704D01*
X39564116Y-59820000D01*
X39335884Y-59820000D01*
X39110455Y-59855704D01*
X38893395Y-59926230D01*
X38690035Y-60029848D01*
X38690033Y-60029849D01*
X38616689Y-60083135D01*
X38616689Y-60083136D01*
X39238941Y-60705387D01*
X39218409Y-60710889D01*
X39081592Y-60789881D01*
X38969881Y-60901592D01*
X38890889Y-61038409D01*
X38885387Y-61058940D01*
X38263136Y-60436689D01*
X38263135Y-60436689D01*
X38209849Y-60510033D01*
X38209848Y-60510035D01*
X38106230Y-60713395D01*
X38035704Y-60930455D01*
X38000000Y-61155883D01*
X25400500Y-61155883D01*
X25400500Y-54495837D01*
X37999500Y-54495837D01*
X37999500Y-54724162D01*
X38035215Y-54949660D01*
X38105770Y-55166803D01*
X38209421Y-55370228D01*
X38343621Y-55554937D01*
X38505063Y-55716379D01*
X38689772Y-55850579D01*
X38785884Y-55899550D01*
X38893196Y-55954229D01*
X38893198Y-55954229D01*
X38893201Y-55954231D01*
X39009592Y-55992049D01*
X39110339Y-56024784D01*
X39335838Y-56060500D01*
X39335843Y-56060500D01*
X39564162Y-56060500D01*
X39789660Y-56024784D01*
X40006799Y-55954231D01*
X40210228Y-55850579D01*
X40394937Y-55716379D01*
X40556379Y-55554937D01*
X40690579Y-55370228D01*
X40794231Y-55166799D01*
X40864784Y-54949660D01*
X40900500Y-54724162D01*
X40900500Y-54495837D01*
X42999500Y-54495837D01*
X42999500Y-54724162D01*
X43035215Y-54949660D01*
X43105770Y-55166803D01*
X43209421Y-55370228D01*
X43343621Y-55554937D01*
X43505063Y-55716379D01*
X43689772Y-55850579D01*
X43785884Y-55899550D01*
X43893196Y-55954229D01*
X43893198Y-55954229D01*
X43893201Y-55954231D01*
X44009592Y-55992049D01*
X44110339Y-56024784D01*
X44335838Y-56060500D01*
X44335843Y-56060500D01*
X44564162Y-56060500D01*
X44789660Y-56024784D01*
X45006799Y-55954231D01*
X45210228Y-55850579D01*
X45394937Y-55716379D01*
X45556379Y-55554937D01*
X45690579Y-55370228D01*
X45794231Y-55166799D01*
X45864784Y-54949660D01*
X45900500Y-54724162D01*
X45900500Y-54495837D01*
X62049500Y-54495837D01*
X62049500Y-54724162D01*
X62085215Y-54949660D01*
X62155770Y-55166803D01*
X62259421Y-55370228D01*
X62393621Y-55554937D01*
X62555063Y-55716379D01*
X62739772Y-55850579D01*
X62835884Y-55899550D01*
X62943196Y-55954229D01*
X62943198Y-55954229D01*
X62943201Y-55954231D01*
X63059592Y-55992049D01*
X63160339Y-56024784D01*
X63385838Y-56060500D01*
X63385843Y-56060500D01*
X63614162Y-56060500D01*
X63839660Y-56024784D01*
X64056799Y-55954231D01*
X64260228Y-55850579D01*
X64444937Y-55716379D01*
X64606379Y-55554937D01*
X64740579Y-55370228D01*
X64844231Y-55166799D01*
X64914784Y-54949660D01*
X64950500Y-54724162D01*
X64950500Y-54495837D01*
X67049500Y-54495837D01*
X67049500Y-54724162D01*
X67085215Y-54949660D01*
X67155770Y-55166803D01*
X67259421Y-55370228D01*
X67393621Y-55554937D01*
X67555063Y-55716379D01*
X67739772Y-55850579D01*
X67835884Y-55899550D01*
X67943196Y-55954229D01*
X67943198Y-55954229D01*
X67943201Y-55954231D01*
X68059592Y-55992049D01*
X68160339Y-56024784D01*
X68385838Y-56060500D01*
X68385843Y-56060500D01*
X68614162Y-56060500D01*
X68839660Y-56024784D01*
X69056799Y-55954231D01*
X69260228Y-55850579D01*
X69444937Y-55716379D01*
X69606379Y-55554937D01*
X69740579Y-55370228D01*
X69844231Y-55166799D01*
X69914784Y-54949660D01*
X69950500Y-54724162D01*
X69950500Y-54495837D01*
X69914784Y-54270339D01*
X69844229Y-54053196D01*
X69740578Y-53849771D01*
X69606379Y-53665063D01*
X69444937Y-53503621D01*
X69260228Y-53369421D01*
X69056803Y-53265770D01*
X68839660Y-53195215D01*
X68614162Y-53159500D01*
X68614157Y-53159500D01*
X68385843Y-53159500D01*
X68385838Y-53159500D01*
X68160339Y-53195215D01*
X67943196Y-53265770D01*
X67739771Y-53369421D01*
X67555061Y-53503622D01*
X67393622Y-53665061D01*
X67259421Y-53849771D01*
X67155770Y-54053196D01*
X67085215Y-54270339D01*
X67049500Y-54495837D01*
X64950500Y-54495837D01*
X64914784Y-54270339D01*
X64844229Y-54053196D01*
X64740578Y-53849771D01*
X64606379Y-53665063D01*
X64444937Y-53503621D01*
X64260228Y-53369421D01*
X64056803Y-53265770D01*
X63839660Y-53195215D01*
X63614162Y-53159500D01*
X63614157Y-53159500D01*
X63385843Y-53159500D01*
X63385838Y-53159500D01*
X63160339Y-53195215D01*
X62943196Y-53265770D01*
X62739771Y-53369421D01*
X62555061Y-53503622D01*
X62393622Y-53665061D01*
X62259421Y-53849771D01*
X62155770Y-54053196D01*
X62085215Y-54270339D01*
X62049500Y-54495837D01*
X45900500Y-54495837D01*
X45864784Y-54270339D01*
X45794229Y-54053196D01*
X45690578Y-53849771D01*
X45556379Y-53665063D01*
X45394937Y-53503621D01*
X45210228Y-53369421D01*
X45006803Y-53265770D01*
X44789660Y-53195215D01*
X44564162Y-53159500D01*
X44564157Y-53159500D01*
X44335843Y-53159500D01*
X44335838Y-53159500D01*
X44110339Y-53195215D01*
X43893196Y-53265770D01*
X43689771Y-53369421D01*
X43505061Y-53503622D01*
X43343622Y-53665061D01*
X43209421Y-53849771D01*
X43105770Y-54053196D01*
X43035215Y-54270339D01*
X42999500Y-54495837D01*
X40900500Y-54495837D01*
X40864784Y-54270339D01*
X40794229Y-54053196D01*
X40690578Y-53849771D01*
X40556379Y-53665063D01*
X40394937Y-53503621D01*
X40210228Y-53369421D01*
X40006803Y-53265770D01*
X39789660Y-53195215D01*
X39564162Y-53159500D01*
X39564157Y-53159500D01*
X39335843Y-53159500D01*
X39335838Y-53159500D01*
X39110339Y-53195215D01*
X38893196Y-53265770D01*
X38689771Y-53369421D01*
X38505061Y-53503622D01*
X38343622Y-53665061D01*
X38209421Y-53849771D01*
X38105770Y-54053196D01*
X38035215Y-54270339D01*
X37999500Y-54495837D01*
X25400500Y-54495837D01*
X25400500Y-50995836D01*
X37999500Y-50995836D01*
X37999500Y-51224161D01*
X38035215Y-51449659D01*
X38105770Y-51666802D01*
X38209421Y-51870227D01*
X38343621Y-52054936D01*
X38505063Y-52216378D01*
X38689772Y-52350578D01*
X38785884Y-52399549D01*
X38893196Y-52454228D01*
X38893198Y-52454228D01*
X38893201Y-52454230D01*
X39009592Y-52492048D01*
X39110339Y-52524783D01*
X39335838Y-52560499D01*
X39335843Y-52560499D01*
X39564162Y-52560499D01*
X39789660Y-52524783D01*
X40006799Y-52454230D01*
X40210228Y-52350578D01*
X40394937Y-52216378D01*
X40556379Y-52054936D01*
X40690579Y-51870227D01*
X40794231Y-51666798D01*
X40864784Y-51449659D01*
X40900500Y-51224161D01*
X40900500Y-50995836D01*
X42999500Y-50995836D01*
X42999500Y-51224161D01*
X43035215Y-51449659D01*
X43105770Y-51666802D01*
X43209421Y-51870227D01*
X43343621Y-52054936D01*
X43505063Y-52216378D01*
X43689772Y-52350578D01*
X43785884Y-52399549D01*
X43893196Y-52454228D01*
X43893198Y-52454228D01*
X43893201Y-52454230D01*
X44009592Y-52492048D01*
X44110339Y-52524783D01*
X44335838Y-52560499D01*
X44335843Y-52560499D01*
X44564162Y-52560499D01*
X44789660Y-52524783D01*
X45006799Y-52454230D01*
X45210228Y-52350578D01*
X45394937Y-52216378D01*
X45556379Y-52054936D01*
X45690579Y-51870227D01*
X45794231Y-51666798D01*
X45864784Y-51449659D01*
X45900500Y-51224161D01*
X45900500Y-50995836D01*
X62049500Y-50995836D01*
X62049500Y-51224161D01*
X62085215Y-51449659D01*
X62155770Y-51666802D01*
X62259421Y-51870227D01*
X62393621Y-52054936D01*
X62555063Y-52216378D01*
X62739772Y-52350578D01*
X62835884Y-52399549D01*
X62943196Y-52454228D01*
X62943198Y-52454228D01*
X62943201Y-52454230D01*
X63059592Y-52492048D01*
X63160339Y-52524783D01*
X63385838Y-52560499D01*
X63385843Y-52560499D01*
X63614162Y-52560499D01*
X63839660Y-52524783D01*
X64056799Y-52454230D01*
X64260228Y-52350578D01*
X64444937Y-52216378D01*
X64606379Y-52054936D01*
X64740579Y-51870227D01*
X64844231Y-51666798D01*
X64914784Y-51449659D01*
X64950500Y-51224161D01*
X64950500Y-50995836D01*
X67049500Y-50995836D01*
X67049500Y-51224161D01*
X67085215Y-51449659D01*
X67155770Y-51666802D01*
X67259421Y-51870227D01*
X67393621Y-52054936D01*
X67555063Y-52216378D01*
X67739772Y-52350578D01*
X67835884Y-52399549D01*
X67943196Y-52454228D01*
X67943198Y-52454228D01*
X67943201Y-52454230D01*
X68059592Y-52492048D01*
X68160339Y-52524783D01*
X68385838Y-52560499D01*
X68385843Y-52560499D01*
X68614162Y-52560499D01*
X68839660Y-52524783D01*
X69056799Y-52454230D01*
X69260228Y-52350578D01*
X69444937Y-52216378D01*
X69606379Y-52054936D01*
X69740579Y-51870227D01*
X69844231Y-51666798D01*
X69914784Y-51449659D01*
X69950500Y-51224161D01*
X69950500Y-50995836D01*
X69914784Y-50770338D01*
X69844229Y-50553195D01*
X69740578Y-50349770D01*
X69606379Y-50165062D01*
X69444937Y-50003620D01*
X69260228Y-49869420D01*
X69056803Y-49765769D01*
X68839660Y-49695214D01*
X68614162Y-49659499D01*
X68614157Y-49659499D01*
X68385843Y-49659499D01*
X68385838Y-49659499D01*
X68160339Y-49695214D01*
X67943196Y-49765769D01*
X67739771Y-49869420D01*
X67555061Y-50003621D01*
X67393622Y-50165060D01*
X67259421Y-50349770D01*
X67155770Y-50553195D01*
X67085215Y-50770338D01*
X67049500Y-50995836D01*
X64950500Y-50995836D01*
X64914784Y-50770338D01*
X64844229Y-50553195D01*
X64740578Y-50349770D01*
X64606379Y-50165062D01*
X64444937Y-50003620D01*
X64260228Y-49869420D01*
X64056803Y-49765769D01*
X63839660Y-49695214D01*
X63614162Y-49659499D01*
X63614157Y-49659499D01*
X63385843Y-49659499D01*
X63385838Y-49659499D01*
X63160339Y-49695214D01*
X62943196Y-49765769D01*
X62739771Y-49869420D01*
X62555061Y-50003621D01*
X62393622Y-50165060D01*
X62259421Y-50349770D01*
X62155770Y-50553195D01*
X62085215Y-50770338D01*
X62049500Y-50995836D01*
X45900500Y-50995836D01*
X45864784Y-50770338D01*
X45794229Y-50553195D01*
X45690578Y-50349770D01*
X45556379Y-50165062D01*
X45394937Y-50003620D01*
X45210228Y-49869420D01*
X45006803Y-49765769D01*
X44789660Y-49695214D01*
X44564162Y-49659499D01*
X44564157Y-49659499D01*
X44335843Y-49659499D01*
X44335838Y-49659499D01*
X44110339Y-49695214D01*
X43893196Y-49765769D01*
X43689771Y-49869420D01*
X43505061Y-50003621D01*
X43343622Y-50165060D01*
X43209421Y-50349770D01*
X43105770Y-50553195D01*
X43035215Y-50770338D01*
X42999500Y-50995836D01*
X40900500Y-50995836D01*
X40864784Y-50770338D01*
X40794229Y-50553195D01*
X40690578Y-50349770D01*
X40556379Y-50165062D01*
X40394937Y-50003620D01*
X40210228Y-49869420D01*
X40006803Y-49765769D01*
X39789660Y-49695214D01*
X39564162Y-49659499D01*
X39564157Y-49659499D01*
X39335843Y-49659499D01*
X39335838Y-49659499D01*
X39110339Y-49695214D01*
X38893196Y-49765769D01*
X38689771Y-49869420D01*
X38505061Y-50003621D01*
X38343622Y-50165060D01*
X38209421Y-50349770D01*
X38105770Y-50553195D01*
X38035215Y-50770338D01*
X37999500Y-50995836D01*
X25400500Y-50995836D01*
X25400500Y-47495835D01*
X37999500Y-47495835D01*
X37999500Y-47724160D01*
X38035215Y-47949658D01*
X38105770Y-48166801D01*
X38209421Y-48370226D01*
X38343621Y-48554935D01*
X38505063Y-48716377D01*
X38689772Y-48850577D01*
X38785884Y-48899548D01*
X38893196Y-48954227D01*
X38893198Y-48954227D01*
X38893201Y-48954229D01*
X39009592Y-48992047D01*
X39110339Y-49024782D01*
X39335838Y-49060498D01*
X39335843Y-49060498D01*
X39564162Y-49060498D01*
X39789660Y-49024782D01*
X40006799Y-48954229D01*
X40210228Y-48850577D01*
X40394937Y-48716377D01*
X40556379Y-48554935D01*
X40690579Y-48370226D01*
X40794231Y-48166797D01*
X40864784Y-47949658D01*
X40900500Y-47724160D01*
X40900500Y-47495835D01*
X42999500Y-47495835D01*
X42999500Y-47724160D01*
X43035215Y-47949658D01*
X43105770Y-48166801D01*
X43209421Y-48370226D01*
X43343621Y-48554935D01*
X43505063Y-48716377D01*
X43689772Y-48850577D01*
X43785884Y-48899548D01*
X43893196Y-48954227D01*
X43893198Y-48954227D01*
X43893201Y-48954229D01*
X44009592Y-48992047D01*
X44110339Y-49024782D01*
X44335838Y-49060498D01*
X44335843Y-49060498D01*
X44564162Y-49060498D01*
X44789660Y-49024782D01*
X45006799Y-48954229D01*
X45210228Y-48850577D01*
X45394937Y-48716377D01*
X45556379Y-48554935D01*
X45690579Y-48370226D01*
X45794231Y-48166797D01*
X45864784Y-47949658D01*
X45900500Y-47724160D01*
X45900500Y-47495835D01*
X62049500Y-47495835D01*
X62049500Y-47724160D01*
X62085215Y-47949658D01*
X62155770Y-48166801D01*
X62259421Y-48370226D01*
X62393621Y-48554935D01*
X62555063Y-48716377D01*
X62739772Y-48850577D01*
X62835884Y-48899548D01*
X62943196Y-48954227D01*
X62943198Y-48954227D01*
X62943201Y-48954229D01*
X63059592Y-48992047D01*
X63160339Y-49024782D01*
X63385838Y-49060498D01*
X63385843Y-49060498D01*
X63614162Y-49060498D01*
X63839660Y-49024782D01*
X64056799Y-48954229D01*
X64260228Y-48850577D01*
X64444937Y-48716377D01*
X64606379Y-48554935D01*
X64740579Y-48370226D01*
X64844231Y-48166797D01*
X64914784Y-47949658D01*
X64950500Y-47724160D01*
X64950500Y-47495835D01*
X67049500Y-47495835D01*
X67049500Y-47724160D01*
X67085215Y-47949658D01*
X67155770Y-48166801D01*
X67259421Y-48370226D01*
X67393621Y-48554935D01*
X67555063Y-48716377D01*
X67739772Y-48850577D01*
X67835884Y-48899548D01*
X67943196Y-48954227D01*
X67943198Y-48954227D01*
X67943201Y-48954229D01*
X68059592Y-48992047D01*
X68160339Y-49024782D01*
X68385838Y-49060498D01*
X68385843Y-49060498D01*
X68614162Y-49060498D01*
X68839660Y-49024782D01*
X69056799Y-48954229D01*
X69260228Y-48850577D01*
X69444937Y-48716377D01*
X69606379Y-48554935D01*
X69740579Y-48370226D01*
X69844231Y-48166797D01*
X69914784Y-47949658D01*
X69950500Y-47724160D01*
X69950500Y-47495835D01*
X69914784Y-47270337D01*
X69844229Y-47053194D01*
X69740578Y-46849769D01*
X69606379Y-46665061D01*
X69444937Y-46503619D01*
X69260228Y-46369419D01*
X69056803Y-46265768D01*
X68839660Y-46195213D01*
X68614162Y-46159498D01*
X68614157Y-46159498D01*
X68385843Y-46159498D01*
X68385838Y-46159498D01*
X68160339Y-46195213D01*
X67943196Y-46265768D01*
X67739771Y-46369419D01*
X67555061Y-46503620D01*
X67393622Y-46665059D01*
X67259421Y-46849769D01*
X67155770Y-47053194D01*
X67085215Y-47270337D01*
X67049500Y-47495835D01*
X64950500Y-47495835D01*
X64914784Y-47270337D01*
X64844229Y-47053194D01*
X64740578Y-46849769D01*
X64606379Y-46665061D01*
X64444937Y-46503619D01*
X64260228Y-46369419D01*
X64056803Y-46265768D01*
X63839660Y-46195213D01*
X63614162Y-46159498D01*
X63614157Y-46159498D01*
X63385843Y-46159498D01*
X63385838Y-46159498D01*
X63160339Y-46195213D01*
X62943196Y-46265768D01*
X62739771Y-46369419D01*
X62555061Y-46503620D01*
X62393622Y-46665059D01*
X62259421Y-46849769D01*
X62155770Y-47053194D01*
X62085215Y-47270337D01*
X62049500Y-47495835D01*
X45900500Y-47495835D01*
X45864784Y-47270337D01*
X45794229Y-47053194D01*
X45690578Y-46849769D01*
X45556379Y-46665061D01*
X45394937Y-46503619D01*
X45210228Y-46369419D01*
X45006803Y-46265768D01*
X44789660Y-46195213D01*
X44564162Y-46159498D01*
X44564157Y-46159498D01*
X44335843Y-46159498D01*
X44335838Y-46159498D01*
X44110339Y-46195213D01*
X43893196Y-46265768D01*
X43689771Y-46369419D01*
X43505061Y-46503620D01*
X43343622Y-46665059D01*
X43209421Y-46849769D01*
X43105770Y-47053194D01*
X43035215Y-47270337D01*
X42999500Y-47495835D01*
X40900500Y-47495835D01*
X40864784Y-47270337D01*
X40794229Y-47053194D01*
X40690578Y-46849769D01*
X40556379Y-46665061D01*
X40394937Y-46503619D01*
X40210228Y-46369419D01*
X40006803Y-46265768D01*
X39789660Y-46195213D01*
X39564162Y-46159498D01*
X39564157Y-46159498D01*
X39335843Y-46159498D01*
X39335838Y-46159498D01*
X39110339Y-46195213D01*
X38893196Y-46265768D01*
X38689771Y-46369419D01*
X38505061Y-46503620D01*
X38343622Y-46665059D01*
X38209421Y-46849769D01*
X38105770Y-47053194D01*
X38035215Y-47270337D01*
X37999500Y-47495835D01*
X25400500Y-47495835D01*
X25400500Y-43995835D01*
X37999500Y-43995835D01*
X37999500Y-44224160D01*
X38035215Y-44449658D01*
X38105770Y-44666801D01*
X38209421Y-44870226D01*
X38343621Y-45054935D01*
X38505063Y-45216377D01*
X38689772Y-45350577D01*
X38785884Y-45399548D01*
X38893196Y-45454227D01*
X38893198Y-45454227D01*
X38893201Y-45454229D01*
X39009592Y-45492047D01*
X39110339Y-45524782D01*
X39335838Y-45560498D01*
X39335843Y-45560498D01*
X39564162Y-45560498D01*
X39789660Y-45524782D01*
X40006799Y-45454229D01*
X40210228Y-45350577D01*
X40394937Y-45216377D01*
X40556379Y-45054935D01*
X40690579Y-44870226D01*
X40794231Y-44666797D01*
X40864784Y-44449658D01*
X40900500Y-44224160D01*
X40900500Y-43995835D01*
X42999500Y-43995835D01*
X42999500Y-44224160D01*
X43035215Y-44449658D01*
X43105770Y-44666801D01*
X43209421Y-44870226D01*
X43343621Y-45054935D01*
X43505063Y-45216377D01*
X43689772Y-45350577D01*
X43785884Y-45399548D01*
X43893196Y-45454227D01*
X43893198Y-45454227D01*
X43893201Y-45454229D01*
X44009592Y-45492047D01*
X44110339Y-45524782D01*
X44335838Y-45560498D01*
X44335843Y-45560498D01*
X44564162Y-45560498D01*
X44789660Y-45524782D01*
X45006799Y-45454229D01*
X45210228Y-45350577D01*
X45394937Y-45216377D01*
X45556379Y-45054935D01*
X45690579Y-44870226D01*
X45794231Y-44666797D01*
X45864784Y-44449658D01*
X45900500Y-44224160D01*
X45900500Y-43995835D01*
X62049500Y-43995835D01*
X62049500Y-44224160D01*
X62085215Y-44449658D01*
X62155770Y-44666801D01*
X62259421Y-44870226D01*
X62393621Y-45054935D01*
X62555063Y-45216377D01*
X62739772Y-45350577D01*
X62835884Y-45399548D01*
X62943196Y-45454227D01*
X62943198Y-45454227D01*
X62943201Y-45454229D01*
X63059592Y-45492047D01*
X63160339Y-45524782D01*
X63385838Y-45560498D01*
X63385843Y-45560498D01*
X63614162Y-45560498D01*
X63839660Y-45524782D01*
X64056799Y-45454229D01*
X64260228Y-45350577D01*
X64444937Y-45216377D01*
X64606379Y-45054935D01*
X64740579Y-44870226D01*
X64844231Y-44666797D01*
X64914784Y-44449658D01*
X64950500Y-44224160D01*
X64950500Y-43995835D01*
X67049500Y-43995835D01*
X67049500Y-44224160D01*
X67085215Y-44449658D01*
X67155770Y-44666801D01*
X67259421Y-44870226D01*
X67393621Y-45054935D01*
X67555063Y-45216377D01*
X67739772Y-45350577D01*
X67835884Y-45399548D01*
X67943196Y-45454227D01*
X67943198Y-45454227D01*
X67943201Y-45454229D01*
X68059592Y-45492047D01*
X68160339Y-45524782D01*
X68385838Y-45560498D01*
X68385843Y-45560498D01*
X68614162Y-45560498D01*
X68839660Y-45524782D01*
X69056799Y-45454229D01*
X69260228Y-45350577D01*
X69444937Y-45216377D01*
X69606379Y-45054935D01*
X69740579Y-44870226D01*
X69844231Y-44666797D01*
X69914784Y-44449658D01*
X69950500Y-44224160D01*
X69950500Y-43995835D01*
X69914784Y-43770337D01*
X69844229Y-43553194D01*
X69740578Y-43349769D01*
X69606379Y-43165061D01*
X69444937Y-43003619D01*
X69260228Y-42869419D01*
X69056803Y-42765768D01*
X68839660Y-42695213D01*
X68614162Y-42659498D01*
X68614157Y-42659498D01*
X68385843Y-42659498D01*
X68385838Y-42659498D01*
X68160339Y-42695213D01*
X67943196Y-42765768D01*
X67739771Y-42869419D01*
X67555061Y-43003620D01*
X67393622Y-43165059D01*
X67259421Y-43349769D01*
X67155770Y-43553194D01*
X67085215Y-43770337D01*
X67049500Y-43995835D01*
X64950500Y-43995835D01*
X64914784Y-43770337D01*
X64844229Y-43553194D01*
X64740578Y-43349769D01*
X64606379Y-43165061D01*
X64444937Y-43003619D01*
X64260228Y-42869419D01*
X64056803Y-42765768D01*
X63839660Y-42695213D01*
X63614162Y-42659498D01*
X63614157Y-42659498D01*
X63385843Y-42659498D01*
X63385838Y-42659498D01*
X63160339Y-42695213D01*
X62943196Y-42765768D01*
X62739771Y-42869419D01*
X62555061Y-43003620D01*
X62393622Y-43165059D01*
X62259421Y-43349769D01*
X62155770Y-43553194D01*
X62085215Y-43770337D01*
X62049500Y-43995835D01*
X45900500Y-43995835D01*
X45864784Y-43770337D01*
X45794229Y-43553194D01*
X45690578Y-43349769D01*
X45556379Y-43165061D01*
X45394937Y-43003619D01*
X45210228Y-42869419D01*
X45006803Y-42765768D01*
X44789660Y-42695213D01*
X44564162Y-42659498D01*
X44564157Y-42659498D01*
X44335843Y-42659498D01*
X44335838Y-42659498D01*
X44110339Y-42695213D01*
X43893196Y-42765768D01*
X43689771Y-42869419D01*
X43505061Y-43003620D01*
X43343622Y-43165059D01*
X43209421Y-43349769D01*
X43105770Y-43553194D01*
X43035215Y-43770337D01*
X42999500Y-43995835D01*
X40900500Y-43995835D01*
X40864784Y-43770337D01*
X40794229Y-43553194D01*
X40690578Y-43349769D01*
X40556379Y-43165061D01*
X40394937Y-43003619D01*
X40210228Y-42869419D01*
X40006803Y-42765768D01*
X39789660Y-42695213D01*
X39564162Y-42659498D01*
X39564157Y-42659498D01*
X39335843Y-42659498D01*
X39335838Y-42659498D01*
X39110339Y-42695213D01*
X38893196Y-42765768D01*
X38689771Y-42869419D01*
X38505061Y-43003620D01*
X38343622Y-43165059D01*
X38209421Y-43349769D01*
X38105770Y-43553194D01*
X38035215Y-43770337D01*
X37999500Y-43995835D01*
X25400500Y-43995835D01*
X25400500Y-40495834D01*
X37999500Y-40495834D01*
X37999500Y-40724159D01*
X38035215Y-40949657D01*
X38105770Y-41166800D01*
X38209421Y-41370225D01*
X38343621Y-41554934D01*
X38505063Y-41716376D01*
X38689772Y-41850576D01*
X38785884Y-41899547D01*
X38893196Y-41954226D01*
X38893198Y-41954226D01*
X38893201Y-41954228D01*
X39009592Y-41992046D01*
X39110339Y-42024781D01*
X39335838Y-42060497D01*
X39335843Y-42060497D01*
X39564162Y-42060497D01*
X39789660Y-42024781D01*
X40006799Y-41954228D01*
X40210228Y-41850576D01*
X40394937Y-41716376D01*
X40556379Y-41554934D01*
X40690579Y-41370225D01*
X40794231Y-41166796D01*
X40864784Y-40949657D01*
X40900500Y-40724159D01*
X40900500Y-40495834D01*
X42999500Y-40495834D01*
X42999500Y-40724159D01*
X43035215Y-40949657D01*
X43105770Y-41166800D01*
X43209421Y-41370225D01*
X43343621Y-41554934D01*
X43505063Y-41716376D01*
X43689772Y-41850576D01*
X43785884Y-41899547D01*
X43893196Y-41954226D01*
X43893198Y-41954226D01*
X43893201Y-41954228D01*
X44009592Y-41992046D01*
X44110339Y-42024781D01*
X44335838Y-42060497D01*
X44335843Y-42060497D01*
X44564162Y-42060497D01*
X44789660Y-42024781D01*
X45006799Y-41954228D01*
X45210228Y-41850576D01*
X45394937Y-41716376D01*
X45556379Y-41554934D01*
X45690579Y-41370225D01*
X45794231Y-41166796D01*
X45864784Y-40949657D01*
X45900500Y-40724159D01*
X45900500Y-40495834D01*
X62049500Y-40495834D01*
X62049500Y-40724159D01*
X62085215Y-40949657D01*
X62155770Y-41166800D01*
X62259421Y-41370225D01*
X62393621Y-41554934D01*
X62555063Y-41716376D01*
X62739772Y-41850576D01*
X62835884Y-41899547D01*
X62943196Y-41954226D01*
X62943198Y-41954226D01*
X62943201Y-41954228D01*
X63059592Y-41992046D01*
X63160339Y-42024781D01*
X63385838Y-42060497D01*
X63385843Y-42060497D01*
X63614162Y-42060497D01*
X63839660Y-42024781D01*
X64056799Y-41954228D01*
X64260228Y-41850576D01*
X64444937Y-41716376D01*
X64606379Y-41554934D01*
X64740579Y-41370225D01*
X64844231Y-41166796D01*
X64914784Y-40949657D01*
X64950500Y-40724159D01*
X64950500Y-40495834D01*
X67049500Y-40495834D01*
X67049500Y-40724159D01*
X67085215Y-40949657D01*
X67155770Y-41166800D01*
X67259421Y-41370225D01*
X67393621Y-41554934D01*
X67555063Y-41716376D01*
X67739772Y-41850576D01*
X67835884Y-41899547D01*
X67943196Y-41954226D01*
X67943198Y-41954226D01*
X67943201Y-41954228D01*
X68059592Y-41992046D01*
X68160339Y-42024781D01*
X68385838Y-42060497D01*
X68385843Y-42060497D01*
X68614162Y-42060497D01*
X68839660Y-42024781D01*
X69056799Y-41954228D01*
X69260228Y-41850576D01*
X69444937Y-41716376D01*
X69606379Y-41554934D01*
X69740579Y-41370225D01*
X69844231Y-41166796D01*
X69914784Y-40949657D01*
X69950500Y-40724159D01*
X69950500Y-40495834D01*
X69914784Y-40270336D01*
X69844229Y-40053193D01*
X69740578Y-39849768D01*
X69606379Y-39665060D01*
X69444937Y-39503618D01*
X69260228Y-39369418D01*
X69056803Y-39265767D01*
X68839660Y-39195212D01*
X68614162Y-39159497D01*
X68614157Y-39159497D01*
X68385843Y-39159497D01*
X68385838Y-39159497D01*
X68160339Y-39195212D01*
X67943196Y-39265767D01*
X67739771Y-39369418D01*
X67555061Y-39503619D01*
X67393622Y-39665058D01*
X67259421Y-39849768D01*
X67155770Y-40053193D01*
X67085215Y-40270336D01*
X67049500Y-40495834D01*
X64950500Y-40495834D01*
X64914784Y-40270336D01*
X64844229Y-40053193D01*
X64740578Y-39849768D01*
X64606379Y-39665060D01*
X64444937Y-39503618D01*
X64260228Y-39369418D01*
X64056803Y-39265767D01*
X63839660Y-39195212D01*
X63614162Y-39159497D01*
X63614157Y-39159497D01*
X63385843Y-39159497D01*
X63385838Y-39159497D01*
X63160339Y-39195212D01*
X62943196Y-39265767D01*
X62739771Y-39369418D01*
X62555061Y-39503619D01*
X62393622Y-39665058D01*
X62259421Y-39849768D01*
X62155770Y-40053193D01*
X62085215Y-40270336D01*
X62049500Y-40495834D01*
X45900500Y-40495834D01*
X45864784Y-40270336D01*
X45794229Y-40053193D01*
X45690578Y-39849768D01*
X45556379Y-39665060D01*
X45394937Y-39503618D01*
X45210228Y-39369418D01*
X45006803Y-39265767D01*
X44789660Y-39195212D01*
X44564162Y-39159497D01*
X44564157Y-39159497D01*
X44335843Y-39159497D01*
X44335838Y-39159497D01*
X44110339Y-39195212D01*
X43893196Y-39265767D01*
X43689771Y-39369418D01*
X43505061Y-39503619D01*
X43343622Y-39665058D01*
X43209421Y-39849768D01*
X43105770Y-40053193D01*
X43035215Y-40270336D01*
X42999500Y-40495834D01*
X40900500Y-40495834D01*
X40864784Y-40270336D01*
X40794229Y-40053193D01*
X40690578Y-39849768D01*
X40556379Y-39665060D01*
X40394937Y-39503618D01*
X40210228Y-39369418D01*
X40006803Y-39265767D01*
X39789660Y-39195212D01*
X39564162Y-39159497D01*
X39564157Y-39159497D01*
X39335843Y-39159497D01*
X39335838Y-39159497D01*
X39110339Y-39195212D01*
X38893196Y-39265767D01*
X38689771Y-39369418D01*
X38505061Y-39503619D01*
X38343622Y-39665058D01*
X38209421Y-39849768D01*
X38105770Y-40053193D01*
X38035215Y-40270336D01*
X37999500Y-40495834D01*
X25400500Y-40495834D01*
X25400500Y-36995834D01*
X37999500Y-36995834D01*
X37999500Y-37224159D01*
X38035215Y-37449657D01*
X38105770Y-37666800D01*
X38209421Y-37870225D01*
X38343621Y-38054934D01*
X38505063Y-38216376D01*
X38689772Y-38350576D01*
X38785884Y-38399547D01*
X38893196Y-38454226D01*
X38893198Y-38454226D01*
X38893201Y-38454228D01*
X39009592Y-38492046D01*
X39110339Y-38524781D01*
X39335838Y-38560497D01*
X39335843Y-38560497D01*
X39564162Y-38560497D01*
X39789660Y-38524781D01*
X40006799Y-38454228D01*
X40210228Y-38350576D01*
X40394937Y-38216376D01*
X40556379Y-38054934D01*
X40690579Y-37870225D01*
X40794231Y-37666796D01*
X40864784Y-37449657D01*
X40900500Y-37224159D01*
X40900500Y-36995834D01*
X42999500Y-36995834D01*
X42999500Y-37224159D01*
X43035215Y-37449657D01*
X43105770Y-37666800D01*
X43209421Y-37870225D01*
X43343621Y-38054934D01*
X43505063Y-38216376D01*
X43689772Y-38350576D01*
X43785884Y-38399547D01*
X43893196Y-38454226D01*
X43893198Y-38454226D01*
X43893201Y-38454228D01*
X44009592Y-38492046D01*
X44110339Y-38524781D01*
X44335838Y-38560497D01*
X44335843Y-38560497D01*
X44564162Y-38560497D01*
X44789660Y-38524781D01*
X45006799Y-38454228D01*
X45210228Y-38350576D01*
X45394937Y-38216376D01*
X45556379Y-38054934D01*
X45690579Y-37870225D01*
X45794231Y-37666796D01*
X45864784Y-37449657D01*
X45900500Y-37224159D01*
X45900500Y-36995834D01*
X62049500Y-36995834D01*
X62049500Y-37224159D01*
X62085215Y-37449657D01*
X62155770Y-37666800D01*
X62259421Y-37870225D01*
X62393621Y-38054934D01*
X62555063Y-38216376D01*
X62739772Y-38350576D01*
X62835884Y-38399547D01*
X62943196Y-38454226D01*
X62943198Y-38454226D01*
X62943201Y-38454228D01*
X63059592Y-38492046D01*
X63160339Y-38524781D01*
X63385838Y-38560497D01*
X63385843Y-38560497D01*
X63614162Y-38560497D01*
X63839660Y-38524781D01*
X64056799Y-38454228D01*
X64260228Y-38350576D01*
X64444937Y-38216376D01*
X64606379Y-38054934D01*
X64740579Y-37870225D01*
X64844231Y-37666796D01*
X64914784Y-37449657D01*
X64950500Y-37224159D01*
X64950500Y-36995834D01*
X67049500Y-36995834D01*
X67049500Y-37224159D01*
X67085215Y-37449657D01*
X67155770Y-37666800D01*
X67259421Y-37870225D01*
X67393621Y-38054934D01*
X67555063Y-38216376D01*
X67739772Y-38350576D01*
X67835884Y-38399547D01*
X67943196Y-38454226D01*
X67943198Y-38454226D01*
X67943201Y-38454228D01*
X68059592Y-38492046D01*
X68160339Y-38524781D01*
X68385838Y-38560497D01*
X68385843Y-38560497D01*
X68614162Y-38560497D01*
X68839660Y-38524781D01*
X69056799Y-38454228D01*
X69260228Y-38350576D01*
X69444937Y-38216376D01*
X69606379Y-38054934D01*
X69740579Y-37870225D01*
X69844231Y-37666796D01*
X69914784Y-37449657D01*
X69950500Y-37224159D01*
X69950500Y-36995834D01*
X69914784Y-36770336D01*
X69844229Y-36553193D01*
X69740578Y-36349768D01*
X69606379Y-36165060D01*
X69444937Y-36003618D01*
X69260228Y-35869418D01*
X69056803Y-35765767D01*
X68839660Y-35695212D01*
X68614162Y-35659497D01*
X68614157Y-35659497D01*
X68385843Y-35659497D01*
X68385838Y-35659497D01*
X68160339Y-35695212D01*
X67943196Y-35765767D01*
X67739771Y-35869418D01*
X67555061Y-36003619D01*
X67393622Y-36165058D01*
X67259421Y-36349768D01*
X67155770Y-36553193D01*
X67085215Y-36770336D01*
X67049500Y-36995834D01*
X64950500Y-36995834D01*
X64914784Y-36770336D01*
X64844229Y-36553193D01*
X64740578Y-36349768D01*
X64606379Y-36165060D01*
X64444937Y-36003618D01*
X64260228Y-35869418D01*
X64056803Y-35765767D01*
X63839660Y-35695212D01*
X63614162Y-35659497D01*
X63614157Y-35659497D01*
X63385843Y-35659497D01*
X63385838Y-35659497D01*
X63160339Y-35695212D01*
X62943196Y-35765767D01*
X62739771Y-35869418D01*
X62555061Y-36003619D01*
X62393622Y-36165058D01*
X62259421Y-36349768D01*
X62155770Y-36553193D01*
X62085215Y-36770336D01*
X62049500Y-36995834D01*
X45900500Y-36995834D01*
X45864784Y-36770336D01*
X45794229Y-36553193D01*
X45690578Y-36349768D01*
X45556379Y-36165060D01*
X45394937Y-36003618D01*
X45210228Y-35869418D01*
X45006803Y-35765767D01*
X44789660Y-35695212D01*
X44564162Y-35659497D01*
X44564157Y-35659497D01*
X44335843Y-35659497D01*
X44335838Y-35659497D01*
X44110339Y-35695212D01*
X43893196Y-35765767D01*
X43689771Y-35869418D01*
X43505061Y-36003619D01*
X43343622Y-36165058D01*
X43209421Y-36349768D01*
X43105770Y-36553193D01*
X43035215Y-36770336D01*
X42999500Y-36995834D01*
X40900500Y-36995834D01*
X40864784Y-36770336D01*
X40794229Y-36553193D01*
X40690578Y-36349768D01*
X40556379Y-36165060D01*
X40394937Y-36003618D01*
X40210228Y-35869418D01*
X40006803Y-35765767D01*
X39789660Y-35695212D01*
X39564162Y-35659497D01*
X39564157Y-35659497D01*
X39335843Y-35659497D01*
X39335838Y-35659497D01*
X39110339Y-35695212D01*
X38893196Y-35765767D01*
X38689771Y-35869418D01*
X38505061Y-36003619D01*
X38343622Y-36165058D01*
X38209421Y-36349768D01*
X38105770Y-36553193D01*
X38035215Y-36770336D01*
X37999500Y-36995834D01*
X25400500Y-36995834D01*
X25400500Y-33495833D01*
X37999500Y-33495833D01*
X37999500Y-33724158D01*
X38035215Y-33949656D01*
X38105770Y-34166799D01*
X38209421Y-34370224D01*
X38343621Y-34554933D01*
X38505063Y-34716375D01*
X38689772Y-34850575D01*
X38785884Y-34899546D01*
X38893196Y-34954225D01*
X38893198Y-34954225D01*
X38893201Y-34954227D01*
X39009592Y-34992045D01*
X39110339Y-35024780D01*
X39335838Y-35060496D01*
X39335843Y-35060496D01*
X39564162Y-35060496D01*
X39789660Y-35024780D01*
X40006799Y-34954227D01*
X40210228Y-34850575D01*
X40394937Y-34716375D01*
X40556379Y-34554933D01*
X40690579Y-34370224D01*
X40794231Y-34166795D01*
X40864784Y-33949656D01*
X40900500Y-33724158D01*
X40900500Y-33495833D01*
X42999500Y-33495833D01*
X42999500Y-33724158D01*
X43035215Y-33949656D01*
X43105770Y-34166799D01*
X43209421Y-34370224D01*
X43343621Y-34554933D01*
X43505063Y-34716375D01*
X43689772Y-34850575D01*
X43785884Y-34899546D01*
X43893196Y-34954225D01*
X43893198Y-34954225D01*
X43893201Y-34954227D01*
X44009592Y-34992045D01*
X44110339Y-35024780D01*
X44335838Y-35060496D01*
X44335843Y-35060496D01*
X44564162Y-35060496D01*
X44789660Y-35024780D01*
X45006799Y-34954227D01*
X45210228Y-34850575D01*
X45394937Y-34716375D01*
X45556379Y-34554933D01*
X45690579Y-34370224D01*
X45794231Y-34166795D01*
X45864784Y-33949656D01*
X45900500Y-33724158D01*
X45900500Y-33495833D01*
X62049500Y-33495833D01*
X62049500Y-33724158D01*
X62085215Y-33949656D01*
X62155770Y-34166799D01*
X62259421Y-34370224D01*
X62393621Y-34554933D01*
X62555063Y-34716375D01*
X62739772Y-34850575D01*
X62835884Y-34899546D01*
X62943196Y-34954225D01*
X62943198Y-34954225D01*
X62943201Y-34954227D01*
X63059592Y-34992045D01*
X63160339Y-35024780D01*
X63385838Y-35060496D01*
X63385843Y-35060496D01*
X63614162Y-35060496D01*
X63839660Y-35024780D01*
X64056799Y-34954227D01*
X64260228Y-34850575D01*
X64444937Y-34716375D01*
X64606379Y-34554933D01*
X64740579Y-34370224D01*
X64844231Y-34166795D01*
X64914784Y-33949656D01*
X64950500Y-33724158D01*
X64950500Y-33495833D01*
X67049500Y-33495833D01*
X67049500Y-33724158D01*
X67085215Y-33949656D01*
X67155770Y-34166799D01*
X67259421Y-34370224D01*
X67393621Y-34554933D01*
X67555063Y-34716375D01*
X67739772Y-34850575D01*
X67835884Y-34899546D01*
X67943196Y-34954225D01*
X67943198Y-34954225D01*
X67943201Y-34954227D01*
X68059592Y-34992045D01*
X68160339Y-35024780D01*
X68385838Y-35060496D01*
X68385843Y-35060496D01*
X68614162Y-35060496D01*
X68839660Y-35024780D01*
X69056799Y-34954227D01*
X69260228Y-34850575D01*
X69444937Y-34716375D01*
X69606379Y-34554933D01*
X69740579Y-34370224D01*
X69844231Y-34166795D01*
X69914784Y-33949656D01*
X69950500Y-33724158D01*
X69950500Y-33495833D01*
X69914784Y-33270335D01*
X69844229Y-33053192D01*
X69740578Y-32849767D01*
X69606379Y-32665059D01*
X69444937Y-32503617D01*
X69260228Y-32369417D01*
X69056803Y-32265766D01*
X68839660Y-32195211D01*
X68614162Y-32159496D01*
X68614157Y-32159496D01*
X68385843Y-32159496D01*
X68385838Y-32159496D01*
X68160339Y-32195211D01*
X67943196Y-32265766D01*
X67739771Y-32369417D01*
X67555061Y-32503618D01*
X67393622Y-32665057D01*
X67259421Y-32849767D01*
X67155770Y-33053192D01*
X67085215Y-33270335D01*
X67049500Y-33495833D01*
X64950500Y-33495833D01*
X64914784Y-33270335D01*
X64844229Y-33053192D01*
X64740578Y-32849767D01*
X64606379Y-32665059D01*
X64444937Y-32503617D01*
X64260228Y-32369417D01*
X64056803Y-32265766D01*
X63839660Y-32195211D01*
X63614162Y-32159496D01*
X63614157Y-32159496D01*
X63385843Y-32159496D01*
X63385838Y-32159496D01*
X63160339Y-32195211D01*
X62943196Y-32265766D01*
X62739771Y-32369417D01*
X62555061Y-32503618D01*
X62393622Y-32665057D01*
X62259421Y-32849767D01*
X62155770Y-33053192D01*
X62085215Y-33270335D01*
X62049500Y-33495833D01*
X45900500Y-33495833D01*
X45864784Y-33270335D01*
X45794229Y-33053192D01*
X45690578Y-32849767D01*
X45556379Y-32665059D01*
X45394937Y-32503617D01*
X45210228Y-32369417D01*
X45006803Y-32265766D01*
X44789660Y-32195211D01*
X44564162Y-32159496D01*
X44564157Y-32159496D01*
X44335843Y-32159496D01*
X44335838Y-32159496D01*
X44110339Y-32195211D01*
X43893196Y-32265766D01*
X43689771Y-32369417D01*
X43505061Y-32503618D01*
X43343622Y-32665057D01*
X43209421Y-32849767D01*
X43105770Y-33053192D01*
X43035215Y-33270335D01*
X42999500Y-33495833D01*
X40900500Y-33495833D01*
X40864784Y-33270335D01*
X40794229Y-33053192D01*
X40690578Y-32849767D01*
X40556379Y-32665059D01*
X40394937Y-32503617D01*
X40210228Y-32369417D01*
X40006803Y-32265766D01*
X39789660Y-32195211D01*
X39564162Y-32159496D01*
X39564157Y-32159496D01*
X39335843Y-32159496D01*
X39335838Y-32159496D01*
X39110339Y-32195211D01*
X38893196Y-32265766D01*
X38689771Y-32369417D01*
X38505061Y-32503618D01*
X38343622Y-32665057D01*
X38209421Y-32849767D01*
X38105770Y-33053192D01*
X38035215Y-33270335D01*
X37999500Y-33495833D01*
X25400500Y-33495833D01*
X25400500Y-29995832D01*
X37999500Y-29995832D01*
X37999500Y-30224157D01*
X38035215Y-30449655D01*
X38105770Y-30666798D01*
X38209421Y-30870223D01*
X38343621Y-31054932D01*
X38505063Y-31216374D01*
X38689772Y-31350574D01*
X38785884Y-31399545D01*
X38893196Y-31454224D01*
X38893198Y-31454224D01*
X38893201Y-31454226D01*
X39009592Y-31492044D01*
X39110339Y-31524779D01*
X39335838Y-31560495D01*
X39335843Y-31560495D01*
X39564162Y-31560495D01*
X39789660Y-31524779D01*
X40006799Y-31454226D01*
X40210228Y-31350574D01*
X40394937Y-31216374D01*
X40556379Y-31054932D01*
X40690579Y-30870223D01*
X40794231Y-30666794D01*
X40864784Y-30449655D01*
X40897944Y-30240293D01*
X40900500Y-30224157D01*
X40900500Y-29995832D01*
X42999500Y-29995832D01*
X42999500Y-30224157D01*
X43035215Y-30449655D01*
X43105770Y-30666798D01*
X43209421Y-30870223D01*
X43343621Y-31054932D01*
X43505063Y-31216374D01*
X43689772Y-31350574D01*
X43785884Y-31399545D01*
X43893196Y-31454224D01*
X43893198Y-31454224D01*
X43893201Y-31454226D01*
X44009592Y-31492044D01*
X44110339Y-31524779D01*
X44335838Y-31560495D01*
X44335843Y-31560495D01*
X44564162Y-31560495D01*
X44789660Y-31524779D01*
X45006799Y-31454226D01*
X45210228Y-31350574D01*
X45394937Y-31216374D01*
X45556379Y-31054932D01*
X45690579Y-30870223D01*
X45794231Y-30666794D01*
X45864784Y-30449655D01*
X45897944Y-30240293D01*
X45900500Y-30224157D01*
X45900500Y-29995832D01*
X45864784Y-29770334D01*
X45794229Y-29553191D01*
X45690578Y-29349766D01*
X45677153Y-29331288D01*
X45556379Y-29165058D01*
X45480032Y-29088711D01*
X52124500Y-29088711D01*
X52124500Y-29331288D01*
X52156161Y-29571785D01*
X52218947Y-29806104D01*
X52275864Y-29943513D01*
X52311776Y-30030212D01*
X52433064Y-30240289D01*
X52433066Y-30240292D01*
X52433067Y-30240293D01*
X52580733Y-30432736D01*
X52580739Y-30432743D01*
X52752256Y-30604260D01*
X52752263Y-30604266D01*
X52833757Y-30666798D01*
X52944711Y-30751936D01*
X53154788Y-30873224D01*
X53378900Y-30966054D01*
X53613211Y-31028838D01*
X53793586Y-31052584D01*
X53853711Y-31060500D01*
X53853712Y-31060500D01*
X54096289Y-31060500D01*
X54144388Y-31054167D01*
X54336789Y-31028838D01*
X54571100Y-30966054D01*
X54795212Y-30873224D01*
X55005289Y-30751936D01*
X55197738Y-30604265D01*
X55369265Y-30432738D01*
X55516936Y-30240289D01*
X55638224Y-30030212D01*
X55652465Y-29995832D01*
X62049500Y-29995832D01*
X62049500Y-30224157D01*
X62085215Y-30449655D01*
X62155770Y-30666798D01*
X62259421Y-30870223D01*
X62393621Y-31054932D01*
X62555063Y-31216374D01*
X62739772Y-31350574D01*
X62835884Y-31399545D01*
X62943196Y-31454224D01*
X62943198Y-31454224D01*
X62943201Y-31454226D01*
X63059592Y-31492044D01*
X63160339Y-31524779D01*
X63385838Y-31560495D01*
X63385843Y-31560495D01*
X63614162Y-31560495D01*
X63839660Y-31524779D01*
X64056799Y-31454226D01*
X64260228Y-31350574D01*
X64444937Y-31216374D01*
X64606379Y-31054932D01*
X64740579Y-30870223D01*
X64844231Y-30666794D01*
X64914784Y-30449655D01*
X64947944Y-30240293D01*
X64950500Y-30224157D01*
X64950500Y-29995832D01*
X67049500Y-29995832D01*
X67049500Y-30224157D01*
X67085215Y-30449655D01*
X67155770Y-30666798D01*
X67259421Y-30870223D01*
X67393621Y-31054932D01*
X67555063Y-31216374D01*
X67739772Y-31350574D01*
X67835884Y-31399545D01*
X67943196Y-31454224D01*
X67943198Y-31454224D01*
X67943201Y-31454226D01*
X68059592Y-31492044D01*
X68160339Y-31524779D01*
X68385838Y-31560495D01*
X68385843Y-31560495D01*
X68614162Y-31560495D01*
X68839660Y-31524779D01*
X69056799Y-31454226D01*
X69260228Y-31350574D01*
X69444937Y-31216374D01*
X69606379Y-31054932D01*
X69740579Y-30870223D01*
X69844231Y-30666794D01*
X69914784Y-30449655D01*
X69947944Y-30240293D01*
X69950500Y-30224157D01*
X69950500Y-29995832D01*
X69914784Y-29770334D01*
X69844229Y-29553191D01*
X69740578Y-29349766D01*
X69727153Y-29331288D01*
X69606379Y-29165058D01*
X69444937Y-29003616D01*
X69260228Y-28869416D01*
X69195831Y-28836604D01*
X69056803Y-28765765D01*
X68839660Y-28695210D01*
X68614162Y-28659495D01*
X68614157Y-28659495D01*
X68385843Y-28659495D01*
X68385838Y-28659495D01*
X68160339Y-28695210D01*
X67943196Y-28765765D01*
X67739771Y-28869416D01*
X67555061Y-29003617D01*
X67393622Y-29165056D01*
X67259421Y-29349766D01*
X67155770Y-29553191D01*
X67085215Y-29770334D01*
X67049500Y-29995832D01*
X64950500Y-29995832D01*
X64914784Y-29770334D01*
X64844229Y-29553191D01*
X64740578Y-29349766D01*
X64727153Y-29331288D01*
X64606379Y-29165058D01*
X64444937Y-29003616D01*
X64260228Y-28869416D01*
X64195831Y-28836604D01*
X64056803Y-28765765D01*
X63839660Y-28695210D01*
X63614162Y-28659495D01*
X63614157Y-28659495D01*
X63385843Y-28659495D01*
X63385838Y-28659495D01*
X63160339Y-28695210D01*
X62943196Y-28765765D01*
X62739771Y-28869416D01*
X62555061Y-29003617D01*
X62393622Y-29165056D01*
X62259421Y-29349766D01*
X62155770Y-29553191D01*
X62085215Y-29770334D01*
X62049500Y-29995832D01*
X55652465Y-29995832D01*
X55731054Y-29806100D01*
X55793838Y-29571789D01*
X55825500Y-29331288D01*
X55825500Y-29088712D01*
X55793838Y-28848211D01*
X55731054Y-28613900D01*
X55638224Y-28389788D01*
X55516936Y-28179711D01*
X55369265Y-27987262D01*
X55369260Y-27987256D01*
X55197743Y-27815739D01*
X55197736Y-27815733D01*
X55005293Y-27668067D01*
X55005292Y-27668066D01*
X55005289Y-27668064D01*
X54795212Y-27546776D01*
X54795205Y-27546773D01*
X54571104Y-27453947D01*
X54422819Y-27414214D01*
X54336789Y-27391162D01*
X54336788Y-27391161D01*
X54336785Y-27391161D01*
X54096289Y-27359500D01*
X54096288Y-27359500D01*
X53853712Y-27359500D01*
X53853711Y-27359500D01*
X53613214Y-27391161D01*
X53378895Y-27453947D01*
X53154794Y-27546773D01*
X53154785Y-27546777D01*
X52944706Y-27668067D01*
X52752263Y-27815733D01*
X52752256Y-27815739D01*
X52580739Y-27987256D01*
X52580733Y-27987263D01*
X52433067Y-28179706D01*
X52311777Y-28389785D01*
X52311773Y-28389794D01*
X52218947Y-28613895D01*
X52156161Y-28848214D01*
X52124500Y-29088711D01*
X45480032Y-29088711D01*
X45394937Y-29003616D01*
X45210228Y-28869416D01*
X45145831Y-28836604D01*
X45006803Y-28765765D01*
X44789660Y-28695210D01*
X44564162Y-28659495D01*
X44564157Y-28659495D01*
X44335843Y-28659495D01*
X44335838Y-28659495D01*
X44110339Y-28695210D01*
X43893196Y-28765765D01*
X43689771Y-28869416D01*
X43505061Y-29003617D01*
X43343622Y-29165056D01*
X43209421Y-29349766D01*
X43105770Y-29553191D01*
X43035215Y-29770334D01*
X42999500Y-29995832D01*
X40900500Y-29995832D01*
X40864784Y-29770334D01*
X40794229Y-29553191D01*
X40690578Y-29349766D01*
X40677153Y-29331288D01*
X40556379Y-29165058D01*
X40394937Y-29003616D01*
X40210228Y-28869416D01*
X40145831Y-28836604D01*
X40006803Y-28765765D01*
X39789660Y-28695210D01*
X39564162Y-28659495D01*
X39564157Y-28659495D01*
X39335843Y-28659495D01*
X39335838Y-28659495D01*
X39110339Y-28695210D01*
X38893196Y-28765765D01*
X38689771Y-28869416D01*
X38505061Y-29003617D01*
X38343622Y-29165056D01*
X38209421Y-29349766D01*
X38105770Y-29553191D01*
X38035215Y-29770334D01*
X37999500Y-29995832D01*
X25400500Y-29995832D01*
X25400500Y-29213050D01*
X25400649Y-29206966D01*
X25402708Y-29165056D01*
X25416886Y-28876444D01*
X25417409Y-28869667D01*
X25425577Y-28791945D01*
X25426217Y-28786893D01*
X25468925Y-28498975D01*
X25470277Y-28491480D01*
X25485286Y-28420864D01*
X25486278Y-28416578D01*
X25558639Y-28127700D01*
X25560976Y-28119567D01*
X25579728Y-28061856D01*
X25580865Y-28058521D01*
X25685314Y-27766605D01*
X25688758Y-27758015D01*
X25704990Y-27721557D01*
X25706045Y-27719259D01*
X25847732Y-27419686D01*
X25853438Y-27409012D01*
X26039390Y-27098771D01*
X26046133Y-27088678D01*
X26261599Y-26798156D01*
X26269302Y-26788771D01*
X26512202Y-26520772D01*
X26520772Y-26512202D01*
X26788771Y-26269302D01*
X26798156Y-26261599D01*
X27088678Y-26046133D01*
X27098771Y-26039390D01*
X27409012Y-25853438D01*
X27419686Y-25847732D01*
X27719259Y-25706045D01*
X27721557Y-25704990D01*
X27758015Y-25688758D01*
X27766605Y-25685314D01*
X28058521Y-25580865D01*
X28061856Y-25579728D01*
X28119567Y-25560976D01*
X28127700Y-25558639D01*
X28416578Y-25486278D01*
X28420864Y-25485286D01*
X28491480Y-25470277D01*
X28498975Y-25468925D01*
X28786893Y-25426217D01*
X28791945Y-25425577D01*
X28869667Y-25417409D01*
X28876444Y-25416886D01*
X29206967Y-25400648D01*
X29213051Y-25400500D01*
X78736949Y-25400500D01*
X78743032Y-25400648D01*
G37*
G04 #@! TD.AperFunction*
M02*
