%TF.GenerationSoftware,KiCad,Pcbnew,7.0.7*%
%TF.CreationDate,2023-09-05T00:15:27-07:00*%
%TF.ProjectId,Power Supply Board Ground Systems V1.1,506f7765-7220-4537-9570-706c7920426f,rev?*%
%TF.SameCoordinates,Original*%
%TF.FileFunction,Drillmap*%
%TF.FilePolarity,Positive*%
%FSLAX45Y45*%
G04 Gerber Fmt 4.5, Leading zero omitted, Abs format (unit mm)*
G04 Created by KiCad (PCBNEW 7.0.7) date 2023-09-05 00:15:27*
%MOMM*%
%LPD*%
G01*
G04 APERTURE LIST*
%ADD10C,0.100000*%
%ADD11C,0.200000*%
%ADD12C,0.040000*%
%ADD13C,0.135000*%
%ADD14C,0.185000*%
%ADD15C,0.320000*%
G04 APERTURE END LIST*
D10*
X2540000Y-2540000D02*
X10795000Y-2540000D01*
X10795000Y-6985000D01*
X2540000Y-6985000D01*
X2540000Y-2540000D01*
D11*
D12*
X3976340Y-3797700D02*
X4016340Y-3837700D01*
X4016340Y-3797700D02*
X3976340Y-3837700D01*
X4745960Y-3797700D02*
X4785960Y-3837700D01*
X4785960Y-3797700D02*
X4745960Y-3837700D01*
X5166750Y-6452000D02*
X5206750Y-6492000D01*
X5206750Y-6452000D02*
X5166750Y-6492000D01*
X5515580Y-3797700D02*
X5555580Y-3837700D01*
X5555580Y-3797700D02*
X5515580Y-3837700D01*
X6282660Y-3797700D02*
X6322660Y-3837700D01*
X6322660Y-3797700D02*
X6282660Y-3837700D01*
X7052280Y-3797700D02*
X7092280Y-3837700D01*
X7092280Y-3797700D02*
X7052280Y-3837700D01*
X7821900Y-3797700D02*
X7861900Y-3837700D01*
X7861900Y-3797700D02*
X7821900Y-3837700D01*
X8594060Y-3797700D02*
X8634060Y-3837700D01*
X8634060Y-3797700D02*
X8594060Y-3837700D01*
X9363680Y-3797700D02*
X9403680Y-3837700D01*
X9403680Y-3797700D02*
X9363680Y-3837700D01*
D13*
X5470080Y-2825660D02*
G75*
G03*
X5470080Y-2825660I-67500J0D01*
G01*
X5470080Y-3375660D02*
G75*
G03*
X5470080Y-3375660I-67500J0D01*
G01*
X5820080Y-2825660D02*
G75*
G03*
X5820080Y-2825660I-67500J0D01*
G01*
X5820080Y-3375660D02*
G75*
G03*
X5820080Y-3375660I-67500J0D01*
G01*
X6170080Y-2825660D02*
G75*
G03*
X6170080Y-2825660I-67500J0D01*
G01*
X6170080Y-3375660D02*
G75*
G03*
X6170080Y-3375660I-67500J0D01*
G01*
X6326500Y-6276000D02*
G75*
G03*
X6326500Y-6276000I-67500J0D01*
G01*
X6326500Y-6826000D02*
G75*
G03*
X6326500Y-6826000I-67500J0D01*
G01*
X6520080Y-2825660D02*
G75*
G03*
X6520080Y-2825660I-67500J0D01*
G01*
X6520080Y-3375660D02*
G75*
G03*
X6520080Y-3375660I-67500J0D01*
G01*
X6676500Y-6276000D02*
G75*
G03*
X6676500Y-6276000I-67500J0D01*
G01*
X6676500Y-6826000D02*
G75*
G03*
X6676500Y-6826000I-67500J0D01*
G01*
X6870080Y-2825660D02*
G75*
G03*
X6870080Y-2825660I-67500J0D01*
G01*
X6870080Y-3375660D02*
G75*
G03*
X6870080Y-3375660I-67500J0D01*
G01*
X7220080Y-2825660D02*
G75*
G03*
X7220080Y-2825660I-67500J0D01*
G01*
X7220080Y-3375660D02*
G75*
G03*
X7220080Y-3375660I-67500J0D01*
G01*
X7570080Y-2825660D02*
G75*
G03*
X7570080Y-2825660I-67500J0D01*
G01*
X7570080Y-3375660D02*
G75*
G03*
X7570080Y-3375660I-67500J0D01*
G01*
X7920080Y-2825660D02*
G75*
G03*
X7920080Y-2825660I-67500J0D01*
G01*
X7920080Y-3375660D02*
G75*
G03*
X7920080Y-3375660I-67500J0D01*
G01*
D14*
X3964197Y-4636480D02*
X3964197Y-4821480D01*
X3871697Y-4728980D02*
X4056697Y-4728980D01*
X3964197Y-5106480D02*
X3964197Y-5291480D01*
X3871697Y-5198980D02*
X4056697Y-5198980D01*
X3964197Y-5576480D02*
X3964197Y-5761480D01*
X3871697Y-5668980D02*
X4056697Y-5668980D01*
X4733092Y-4636480D02*
X4733092Y-4821480D01*
X4640592Y-4728980D02*
X4825592Y-4728980D01*
X4733092Y-5106480D02*
X4733092Y-5291480D01*
X4640592Y-5198980D02*
X4825592Y-5198980D01*
X4733092Y-5576480D02*
X4733092Y-5761480D01*
X4640592Y-5668980D02*
X4825592Y-5668980D01*
X5501986Y-4636480D02*
X5501986Y-4821480D01*
X5409486Y-4728980D02*
X5594486Y-4728980D01*
X5501986Y-5106480D02*
X5501986Y-5291480D01*
X5409486Y-5198980D02*
X5594486Y-5198980D01*
X5501986Y-5576480D02*
X5501986Y-5761480D01*
X5409486Y-5668980D02*
X5594486Y-5668980D01*
X6270880Y-4636480D02*
X6270880Y-4821480D01*
X6178380Y-4728980D02*
X6363380Y-4728980D01*
X6270880Y-5106480D02*
X6270880Y-5291480D01*
X6178380Y-5198980D02*
X6363380Y-5198980D01*
X6270880Y-5576480D02*
X6270880Y-5761480D01*
X6178380Y-5668980D02*
X6363380Y-5668980D01*
X7039774Y-4636480D02*
X7039774Y-4821480D01*
X6947274Y-4728980D02*
X7132274Y-4728980D01*
X7039774Y-5106480D02*
X7039774Y-5291480D01*
X6947274Y-5198980D02*
X7132274Y-5198980D01*
X7039774Y-5576480D02*
X7039774Y-5761480D01*
X6947274Y-5668980D02*
X7132274Y-5668980D01*
X7808668Y-4636480D02*
X7808668Y-4821480D01*
X7716168Y-4728980D02*
X7901168Y-4728980D01*
X7808668Y-5106480D02*
X7808668Y-5291480D01*
X7716168Y-5198980D02*
X7901168Y-5198980D01*
X7808668Y-5576480D02*
X7808668Y-5761480D01*
X7716168Y-5668980D02*
X7901168Y-5668980D01*
X8577563Y-4636480D02*
X8577563Y-4821480D01*
X8485063Y-4728980D02*
X8670063Y-4728980D01*
X8577563Y-5106480D02*
X8577563Y-5291480D01*
X8485063Y-5198980D02*
X8670063Y-5198980D01*
X8577563Y-5576480D02*
X8577563Y-5761480D01*
X8485063Y-5668980D02*
X8670063Y-5668980D01*
X9346457Y-4636480D02*
X9346457Y-4821480D01*
X9253957Y-4728980D02*
X9438957Y-4728980D01*
X9346457Y-5106480D02*
X9346457Y-5291480D01*
X9253957Y-5198980D02*
X9438957Y-5198980D01*
X9346457Y-5576480D02*
X9346457Y-5761480D01*
X9253957Y-5668980D02*
X9438957Y-5668980D01*
D15*
X3161138Y-3605638D02*
X3161138Y-3379362D01*
X2934862Y-3379362D01*
X2934862Y-3605638D01*
X3161138Y-3605638D01*
X3161138Y-6145638D02*
X3161138Y-5919362D01*
X2934862Y-5919362D01*
X2934862Y-6145638D01*
X3161138Y-6145638D01*
X10400138Y-3605638D02*
X10400138Y-3379362D01*
X10173862Y-3379362D01*
X10173862Y-3605638D01*
X10400138Y-3605638D01*
X10400138Y-6145638D02*
X10400138Y-5919362D01*
X10173862Y-5919362D01*
X10173862Y-6145638D01*
X10400138Y-6145638D01*
D11*
X2795777Y-7301484D02*
X2795777Y-7101484D01*
X2795777Y-7101484D02*
X2843396Y-7101484D01*
X2843396Y-7101484D02*
X2871967Y-7111008D01*
X2871967Y-7111008D02*
X2891015Y-7130055D01*
X2891015Y-7130055D02*
X2900539Y-7149103D01*
X2900539Y-7149103D02*
X2910062Y-7187198D01*
X2910062Y-7187198D02*
X2910062Y-7215769D01*
X2910062Y-7215769D02*
X2900539Y-7253865D01*
X2900539Y-7253865D02*
X2891015Y-7272912D01*
X2891015Y-7272912D02*
X2871967Y-7291960D01*
X2871967Y-7291960D02*
X2843396Y-7301484D01*
X2843396Y-7301484D02*
X2795777Y-7301484D01*
X2995777Y-7301484D02*
X2995777Y-7168150D01*
X2995777Y-7206246D02*
X3005301Y-7187198D01*
X3005301Y-7187198D02*
X3014824Y-7177674D01*
X3014824Y-7177674D02*
X3033872Y-7168150D01*
X3033872Y-7168150D02*
X3052920Y-7168150D01*
X3119586Y-7301484D02*
X3119586Y-7168150D01*
X3119586Y-7101484D02*
X3110062Y-7111008D01*
X3110062Y-7111008D02*
X3119586Y-7120531D01*
X3119586Y-7120531D02*
X3129110Y-7111008D01*
X3129110Y-7111008D02*
X3119586Y-7101484D01*
X3119586Y-7101484D02*
X3119586Y-7120531D01*
X3243396Y-7301484D02*
X3224348Y-7291960D01*
X3224348Y-7291960D02*
X3214824Y-7272912D01*
X3214824Y-7272912D02*
X3214824Y-7101484D01*
X3348158Y-7301484D02*
X3329110Y-7291960D01*
X3329110Y-7291960D02*
X3319586Y-7272912D01*
X3319586Y-7272912D02*
X3319586Y-7101484D01*
X3576729Y-7301484D02*
X3576729Y-7101484D01*
X3576729Y-7101484D02*
X3643396Y-7244341D01*
X3643396Y-7244341D02*
X3710062Y-7101484D01*
X3710062Y-7101484D02*
X3710062Y-7301484D01*
X3891015Y-7301484D02*
X3891015Y-7196722D01*
X3891015Y-7196722D02*
X3881491Y-7177674D01*
X3881491Y-7177674D02*
X3862443Y-7168150D01*
X3862443Y-7168150D02*
X3824348Y-7168150D01*
X3824348Y-7168150D02*
X3805301Y-7177674D01*
X3891015Y-7291960D02*
X3871967Y-7301484D01*
X3871967Y-7301484D02*
X3824348Y-7301484D01*
X3824348Y-7301484D02*
X3805301Y-7291960D01*
X3805301Y-7291960D02*
X3795777Y-7272912D01*
X3795777Y-7272912D02*
X3795777Y-7253865D01*
X3795777Y-7253865D02*
X3805301Y-7234817D01*
X3805301Y-7234817D02*
X3824348Y-7225293D01*
X3824348Y-7225293D02*
X3871967Y-7225293D01*
X3871967Y-7225293D02*
X3891015Y-7215769D01*
X3986253Y-7168150D02*
X3986253Y-7368150D01*
X3986253Y-7177674D02*
X4005301Y-7168150D01*
X4005301Y-7168150D02*
X4043396Y-7168150D01*
X4043396Y-7168150D02*
X4062443Y-7177674D01*
X4062443Y-7177674D02*
X4071967Y-7187198D01*
X4071967Y-7187198D02*
X4081491Y-7206246D01*
X4081491Y-7206246D02*
X4081491Y-7263388D01*
X4081491Y-7263388D02*
X4071967Y-7282436D01*
X4071967Y-7282436D02*
X4062443Y-7291960D01*
X4062443Y-7291960D02*
X4043396Y-7301484D01*
X4043396Y-7301484D02*
X4005301Y-7301484D01*
X4005301Y-7301484D02*
X3986253Y-7291960D01*
X4167205Y-7282436D02*
X4176729Y-7291960D01*
X4176729Y-7291960D02*
X4167205Y-7301484D01*
X4167205Y-7301484D02*
X4157682Y-7291960D01*
X4157682Y-7291960D02*
X4167205Y-7282436D01*
X4167205Y-7282436D02*
X4167205Y-7301484D01*
X4167205Y-7177674D02*
X4176729Y-7187198D01*
X4176729Y-7187198D02*
X4167205Y-7196722D01*
X4167205Y-7196722D02*
X4157682Y-7187198D01*
X4157682Y-7187198D02*
X4167205Y-7177674D01*
X4167205Y-7177674D02*
X4167205Y-7196722D01*
D12*
X2495000Y-7610000D02*
X2535000Y-7650000D01*
X2535000Y-7610000D02*
X2495000Y-7650000D01*
D11*
X2833872Y-7521484D02*
X2852920Y-7521484D01*
X2852920Y-7521484D02*
X2871967Y-7531008D01*
X2871967Y-7531008D02*
X2881491Y-7540531D01*
X2881491Y-7540531D02*
X2891015Y-7559579D01*
X2891015Y-7559579D02*
X2900539Y-7597674D01*
X2900539Y-7597674D02*
X2900539Y-7645293D01*
X2900539Y-7645293D02*
X2891015Y-7683388D01*
X2891015Y-7683388D02*
X2881491Y-7702436D01*
X2881491Y-7702436D02*
X2871967Y-7711960D01*
X2871967Y-7711960D02*
X2852920Y-7721484D01*
X2852920Y-7721484D02*
X2833872Y-7721484D01*
X2833872Y-7721484D02*
X2814824Y-7711960D01*
X2814824Y-7711960D02*
X2805301Y-7702436D01*
X2805301Y-7702436D02*
X2795777Y-7683388D01*
X2795777Y-7683388D02*
X2786253Y-7645293D01*
X2786253Y-7645293D02*
X2786253Y-7597674D01*
X2786253Y-7597674D02*
X2795777Y-7559579D01*
X2795777Y-7559579D02*
X2805301Y-7540531D01*
X2805301Y-7540531D02*
X2814824Y-7531008D01*
X2814824Y-7531008D02*
X2833872Y-7521484D01*
X2986253Y-7702436D02*
X2995777Y-7711960D01*
X2995777Y-7711960D02*
X2986253Y-7721484D01*
X2986253Y-7721484D02*
X2976729Y-7711960D01*
X2976729Y-7711960D02*
X2986253Y-7702436D01*
X2986253Y-7702436D02*
X2986253Y-7721484D01*
X3167205Y-7588150D02*
X3167205Y-7721484D01*
X3119586Y-7511960D02*
X3071967Y-7654817D01*
X3071967Y-7654817D02*
X3195777Y-7654817D01*
X3310062Y-7521484D02*
X3329110Y-7521484D01*
X3329110Y-7521484D02*
X3348158Y-7531008D01*
X3348158Y-7531008D02*
X3357682Y-7540531D01*
X3357682Y-7540531D02*
X3367205Y-7559579D01*
X3367205Y-7559579D02*
X3376729Y-7597674D01*
X3376729Y-7597674D02*
X3376729Y-7645293D01*
X3376729Y-7645293D02*
X3367205Y-7683388D01*
X3367205Y-7683388D02*
X3357682Y-7702436D01*
X3357682Y-7702436D02*
X3348158Y-7711960D01*
X3348158Y-7711960D02*
X3329110Y-7721484D01*
X3329110Y-7721484D02*
X3310062Y-7721484D01*
X3310062Y-7721484D02*
X3291015Y-7711960D01*
X3291015Y-7711960D02*
X3281491Y-7702436D01*
X3281491Y-7702436D02*
X3271967Y-7683388D01*
X3271967Y-7683388D02*
X3262443Y-7645293D01*
X3262443Y-7645293D02*
X3262443Y-7597674D01*
X3262443Y-7597674D02*
X3271967Y-7559579D01*
X3271967Y-7559579D02*
X3281491Y-7540531D01*
X3281491Y-7540531D02*
X3291015Y-7531008D01*
X3291015Y-7531008D02*
X3310062Y-7521484D01*
X3500539Y-7521484D02*
X3519586Y-7521484D01*
X3519586Y-7521484D02*
X3538634Y-7531008D01*
X3538634Y-7531008D02*
X3548158Y-7540531D01*
X3548158Y-7540531D02*
X3557682Y-7559579D01*
X3557682Y-7559579D02*
X3567205Y-7597674D01*
X3567205Y-7597674D02*
X3567205Y-7645293D01*
X3567205Y-7645293D02*
X3557682Y-7683388D01*
X3557682Y-7683388D02*
X3548158Y-7702436D01*
X3548158Y-7702436D02*
X3538634Y-7711960D01*
X3538634Y-7711960D02*
X3519586Y-7721484D01*
X3519586Y-7721484D02*
X3500539Y-7721484D01*
X3500539Y-7721484D02*
X3481491Y-7711960D01*
X3481491Y-7711960D02*
X3471967Y-7702436D01*
X3471967Y-7702436D02*
X3462443Y-7683388D01*
X3462443Y-7683388D02*
X3452920Y-7645293D01*
X3452920Y-7645293D02*
X3452920Y-7597674D01*
X3452920Y-7597674D02*
X3462443Y-7559579D01*
X3462443Y-7559579D02*
X3471967Y-7540531D01*
X3471967Y-7540531D02*
X3481491Y-7531008D01*
X3481491Y-7531008D02*
X3500539Y-7521484D01*
X3652920Y-7721484D02*
X3652920Y-7588150D01*
X3652920Y-7607198D02*
X3662443Y-7597674D01*
X3662443Y-7597674D02*
X3681491Y-7588150D01*
X3681491Y-7588150D02*
X3710063Y-7588150D01*
X3710063Y-7588150D02*
X3729110Y-7597674D01*
X3729110Y-7597674D02*
X3738634Y-7616722D01*
X3738634Y-7616722D02*
X3738634Y-7721484D01*
X3738634Y-7616722D02*
X3748158Y-7597674D01*
X3748158Y-7597674D02*
X3767205Y-7588150D01*
X3767205Y-7588150D02*
X3795777Y-7588150D01*
X3795777Y-7588150D02*
X3814824Y-7597674D01*
X3814824Y-7597674D02*
X3824348Y-7616722D01*
X3824348Y-7616722D02*
X3824348Y-7721484D01*
X3919586Y-7721484D02*
X3919586Y-7588150D01*
X3919586Y-7607198D02*
X3929110Y-7597674D01*
X3929110Y-7597674D02*
X3948158Y-7588150D01*
X3948158Y-7588150D02*
X3976729Y-7588150D01*
X3976729Y-7588150D02*
X3995777Y-7597674D01*
X3995777Y-7597674D02*
X4005301Y-7616722D01*
X4005301Y-7616722D02*
X4005301Y-7721484D01*
X4005301Y-7616722D02*
X4014824Y-7597674D01*
X4014824Y-7597674D02*
X4033872Y-7588150D01*
X4033872Y-7588150D02*
X4062443Y-7588150D01*
X4062443Y-7588150D02*
X4081491Y-7597674D01*
X4081491Y-7597674D02*
X4091015Y-7616722D01*
X4091015Y-7616722D02*
X4091015Y-7721484D01*
X4481491Y-7511960D02*
X4310063Y-7769103D01*
X4738634Y-7521484D02*
X4757682Y-7521484D01*
X4757682Y-7521484D02*
X4776729Y-7531008D01*
X4776729Y-7531008D02*
X4786253Y-7540531D01*
X4786253Y-7540531D02*
X4795777Y-7559579D01*
X4795777Y-7559579D02*
X4805301Y-7597674D01*
X4805301Y-7597674D02*
X4805301Y-7645293D01*
X4805301Y-7645293D02*
X4795777Y-7683388D01*
X4795777Y-7683388D02*
X4786253Y-7702436D01*
X4786253Y-7702436D02*
X4776729Y-7711960D01*
X4776729Y-7711960D02*
X4757682Y-7721484D01*
X4757682Y-7721484D02*
X4738634Y-7721484D01*
X4738634Y-7721484D02*
X4719587Y-7711960D01*
X4719587Y-7711960D02*
X4710063Y-7702436D01*
X4710063Y-7702436D02*
X4700539Y-7683388D01*
X4700539Y-7683388D02*
X4691015Y-7645293D01*
X4691015Y-7645293D02*
X4691015Y-7597674D01*
X4691015Y-7597674D02*
X4700539Y-7559579D01*
X4700539Y-7559579D02*
X4710063Y-7540531D01*
X4710063Y-7540531D02*
X4719587Y-7531008D01*
X4719587Y-7531008D02*
X4738634Y-7521484D01*
X4891015Y-7702436D02*
X4900539Y-7711960D01*
X4900539Y-7711960D02*
X4891015Y-7721484D01*
X4891015Y-7721484D02*
X4881491Y-7711960D01*
X4881491Y-7711960D02*
X4891015Y-7702436D01*
X4891015Y-7702436D02*
X4891015Y-7721484D01*
X5024348Y-7521484D02*
X5043396Y-7521484D01*
X5043396Y-7521484D02*
X5062444Y-7531008D01*
X5062444Y-7531008D02*
X5071968Y-7540531D01*
X5071968Y-7540531D02*
X5081491Y-7559579D01*
X5081491Y-7559579D02*
X5091015Y-7597674D01*
X5091015Y-7597674D02*
X5091015Y-7645293D01*
X5091015Y-7645293D02*
X5081491Y-7683388D01*
X5081491Y-7683388D02*
X5071968Y-7702436D01*
X5071968Y-7702436D02*
X5062444Y-7711960D01*
X5062444Y-7711960D02*
X5043396Y-7721484D01*
X5043396Y-7721484D02*
X5024348Y-7721484D01*
X5024348Y-7721484D02*
X5005301Y-7711960D01*
X5005301Y-7711960D02*
X4995777Y-7702436D01*
X4995777Y-7702436D02*
X4986253Y-7683388D01*
X4986253Y-7683388D02*
X4976729Y-7645293D01*
X4976729Y-7645293D02*
X4976729Y-7597674D01*
X4976729Y-7597674D02*
X4986253Y-7559579D01*
X4986253Y-7559579D02*
X4995777Y-7540531D01*
X4995777Y-7540531D02*
X5005301Y-7531008D01*
X5005301Y-7531008D02*
X5024348Y-7521484D01*
X5281491Y-7721484D02*
X5167206Y-7721484D01*
X5224348Y-7721484D02*
X5224348Y-7521484D01*
X5224348Y-7521484D02*
X5205301Y-7550055D01*
X5205301Y-7550055D02*
X5186253Y-7569103D01*
X5186253Y-7569103D02*
X5167206Y-7578627D01*
X5462444Y-7521484D02*
X5367206Y-7521484D01*
X5367206Y-7521484D02*
X5357682Y-7616722D01*
X5357682Y-7616722D02*
X5367206Y-7607198D01*
X5367206Y-7607198D02*
X5386253Y-7597674D01*
X5386253Y-7597674D02*
X5433872Y-7597674D01*
X5433872Y-7597674D02*
X5452920Y-7607198D01*
X5452920Y-7607198D02*
X5462444Y-7616722D01*
X5462444Y-7616722D02*
X5471968Y-7635769D01*
X5471968Y-7635769D02*
X5471968Y-7683388D01*
X5471968Y-7683388D02*
X5462444Y-7702436D01*
X5462444Y-7702436D02*
X5452920Y-7711960D01*
X5452920Y-7711960D02*
X5433872Y-7721484D01*
X5433872Y-7721484D02*
X5386253Y-7721484D01*
X5386253Y-7721484D02*
X5367206Y-7711960D01*
X5367206Y-7711960D02*
X5357682Y-7702436D01*
X5538634Y-7521484D02*
X5671967Y-7521484D01*
X5671967Y-7521484D02*
X5586253Y-7721484D01*
X5738634Y-7521484D02*
X5738634Y-7559579D01*
X5814825Y-7521484D02*
X5814825Y-7559579D01*
X6110063Y-7797674D02*
X6100539Y-7788150D01*
X6100539Y-7788150D02*
X6081491Y-7759579D01*
X6081491Y-7759579D02*
X6071968Y-7740531D01*
X6071968Y-7740531D02*
X6062444Y-7711960D01*
X6062444Y-7711960D02*
X6052920Y-7664341D01*
X6052920Y-7664341D02*
X6052920Y-7626246D01*
X6052920Y-7626246D02*
X6062444Y-7578627D01*
X6062444Y-7578627D02*
X6071968Y-7550055D01*
X6071968Y-7550055D02*
X6081491Y-7531008D01*
X6081491Y-7531008D02*
X6100539Y-7502436D01*
X6100539Y-7502436D02*
X6110063Y-7492912D01*
X6195777Y-7721484D02*
X6233872Y-7721484D01*
X6233872Y-7721484D02*
X6252920Y-7711960D01*
X6252920Y-7711960D02*
X6262444Y-7702436D01*
X6262444Y-7702436D02*
X6281491Y-7673865D01*
X6281491Y-7673865D02*
X6291015Y-7635769D01*
X6291015Y-7635769D02*
X6291015Y-7559579D01*
X6291015Y-7559579D02*
X6281491Y-7540531D01*
X6281491Y-7540531D02*
X6271968Y-7531008D01*
X6271968Y-7531008D02*
X6252920Y-7521484D01*
X6252920Y-7521484D02*
X6214825Y-7521484D01*
X6214825Y-7521484D02*
X6195777Y-7531008D01*
X6195777Y-7531008D02*
X6186253Y-7540531D01*
X6186253Y-7540531D02*
X6176729Y-7559579D01*
X6176729Y-7559579D02*
X6176729Y-7607198D01*
X6176729Y-7607198D02*
X6186253Y-7626246D01*
X6186253Y-7626246D02*
X6195777Y-7635769D01*
X6195777Y-7635769D02*
X6214825Y-7645293D01*
X6214825Y-7645293D02*
X6252920Y-7645293D01*
X6252920Y-7645293D02*
X6271968Y-7635769D01*
X6271968Y-7635769D02*
X6281491Y-7626246D01*
X6281491Y-7626246D02*
X6291015Y-7607198D01*
X6529110Y-7721484D02*
X6529110Y-7521484D01*
X6614825Y-7721484D02*
X6614825Y-7616722D01*
X6614825Y-7616722D02*
X6605301Y-7597674D01*
X6605301Y-7597674D02*
X6586253Y-7588150D01*
X6586253Y-7588150D02*
X6557682Y-7588150D01*
X6557682Y-7588150D02*
X6538634Y-7597674D01*
X6538634Y-7597674D02*
X6529110Y-7607198D01*
X6738634Y-7721484D02*
X6719587Y-7711960D01*
X6719587Y-7711960D02*
X6710063Y-7702436D01*
X6710063Y-7702436D02*
X6700539Y-7683388D01*
X6700539Y-7683388D02*
X6700539Y-7626246D01*
X6700539Y-7626246D02*
X6710063Y-7607198D01*
X6710063Y-7607198D02*
X6719587Y-7597674D01*
X6719587Y-7597674D02*
X6738634Y-7588150D01*
X6738634Y-7588150D02*
X6767206Y-7588150D01*
X6767206Y-7588150D02*
X6786253Y-7597674D01*
X6786253Y-7597674D02*
X6795777Y-7607198D01*
X6795777Y-7607198D02*
X6805301Y-7626246D01*
X6805301Y-7626246D02*
X6805301Y-7683388D01*
X6805301Y-7683388D02*
X6795777Y-7702436D01*
X6795777Y-7702436D02*
X6786253Y-7711960D01*
X6786253Y-7711960D02*
X6767206Y-7721484D01*
X6767206Y-7721484D02*
X6738634Y-7721484D01*
X6919587Y-7721484D02*
X6900539Y-7711960D01*
X6900539Y-7711960D02*
X6891015Y-7692912D01*
X6891015Y-7692912D02*
X6891015Y-7521484D01*
X7071968Y-7711960D02*
X7052920Y-7721484D01*
X7052920Y-7721484D02*
X7014825Y-7721484D01*
X7014825Y-7721484D02*
X6995777Y-7711960D01*
X6995777Y-7711960D02*
X6986253Y-7692912D01*
X6986253Y-7692912D02*
X6986253Y-7616722D01*
X6986253Y-7616722D02*
X6995777Y-7597674D01*
X6995777Y-7597674D02*
X7014825Y-7588150D01*
X7014825Y-7588150D02*
X7052920Y-7588150D01*
X7052920Y-7588150D02*
X7071968Y-7597674D01*
X7071968Y-7597674D02*
X7081491Y-7616722D01*
X7081491Y-7616722D02*
X7081491Y-7635769D01*
X7081491Y-7635769D02*
X6986253Y-7654817D01*
X7157682Y-7711960D02*
X7176730Y-7721484D01*
X7176730Y-7721484D02*
X7214825Y-7721484D01*
X7214825Y-7721484D02*
X7233872Y-7711960D01*
X7233872Y-7711960D02*
X7243396Y-7692912D01*
X7243396Y-7692912D02*
X7243396Y-7683388D01*
X7243396Y-7683388D02*
X7233872Y-7664341D01*
X7233872Y-7664341D02*
X7214825Y-7654817D01*
X7214825Y-7654817D02*
X7186253Y-7654817D01*
X7186253Y-7654817D02*
X7167206Y-7645293D01*
X7167206Y-7645293D02*
X7157682Y-7626246D01*
X7157682Y-7626246D02*
X7157682Y-7616722D01*
X7157682Y-7616722D02*
X7167206Y-7597674D01*
X7167206Y-7597674D02*
X7186253Y-7588150D01*
X7186253Y-7588150D02*
X7214825Y-7588150D01*
X7214825Y-7588150D02*
X7233872Y-7597674D01*
X7310063Y-7797674D02*
X7319587Y-7788150D01*
X7319587Y-7788150D02*
X7338634Y-7759579D01*
X7338634Y-7759579D02*
X7348158Y-7740531D01*
X7348158Y-7740531D02*
X7357682Y-7711960D01*
X7357682Y-7711960D02*
X7367206Y-7664341D01*
X7367206Y-7664341D02*
X7367206Y-7626246D01*
X7367206Y-7626246D02*
X7357682Y-7578627D01*
X7357682Y-7578627D02*
X7348158Y-7550055D01*
X7348158Y-7550055D02*
X7338634Y-7531008D01*
X7338634Y-7531008D02*
X7319587Y-7502436D01*
X7319587Y-7502436D02*
X7310063Y-7492912D01*
D13*
X2535000Y-7894000D02*
G75*
G03*
X2535000Y-7894000I-67500J0D01*
G01*
D11*
X2900539Y-7985484D02*
X2786253Y-7985484D01*
X2843396Y-7985484D02*
X2843396Y-7785484D01*
X2843396Y-7785484D02*
X2824348Y-7814055D01*
X2824348Y-7814055D02*
X2805301Y-7833103D01*
X2805301Y-7833103D02*
X2786253Y-7842627D01*
X2986253Y-7966436D02*
X2995777Y-7975960D01*
X2995777Y-7975960D02*
X2986253Y-7985484D01*
X2986253Y-7985484D02*
X2976729Y-7975960D01*
X2976729Y-7975960D02*
X2986253Y-7966436D01*
X2986253Y-7966436D02*
X2986253Y-7985484D01*
X3062443Y-7785484D02*
X3186253Y-7785484D01*
X3186253Y-7785484D02*
X3119586Y-7861674D01*
X3119586Y-7861674D02*
X3148158Y-7861674D01*
X3148158Y-7861674D02*
X3167205Y-7871198D01*
X3167205Y-7871198D02*
X3176729Y-7880722D01*
X3176729Y-7880722D02*
X3186253Y-7899769D01*
X3186253Y-7899769D02*
X3186253Y-7947388D01*
X3186253Y-7947388D02*
X3176729Y-7966436D01*
X3176729Y-7966436D02*
X3167205Y-7975960D01*
X3167205Y-7975960D02*
X3148158Y-7985484D01*
X3148158Y-7985484D02*
X3091015Y-7985484D01*
X3091015Y-7985484D02*
X3071967Y-7975960D01*
X3071967Y-7975960D02*
X3062443Y-7966436D01*
X3367205Y-7785484D02*
X3271967Y-7785484D01*
X3271967Y-7785484D02*
X3262443Y-7880722D01*
X3262443Y-7880722D02*
X3271967Y-7871198D01*
X3271967Y-7871198D02*
X3291015Y-7861674D01*
X3291015Y-7861674D02*
X3338634Y-7861674D01*
X3338634Y-7861674D02*
X3357682Y-7871198D01*
X3357682Y-7871198D02*
X3367205Y-7880722D01*
X3367205Y-7880722D02*
X3376729Y-7899769D01*
X3376729Y-7899769D02*
X3376729Y-7947388D01*
X3376729Y-7947388D02*
X3367205Y-7966436D01*
X3367205Y-7966436D02*
X3357682Y-7975960D01*
X3357682Y-7975960D02*
X3338634Y-7985484D01*
X3338634Y-7985484D02*
X3291015Y-7985484D01*
X3291015Y-7985484D02*
X3271967Y-7975960D01*
X3271967Y-7975960D02*
X3262443Y-7966436D01*
X3500539Y-7785484D02*
X3519586Y-7785484D01*
X3519586Y-7785484D02*
X3538634Y-7795008D01*
X3538634Y-7795008D02*
X3548158Y-7804531D01*
X3548158Y-7804531D02*
X3557682Y-7823579D01*
X3557682Y-7823579D02*
X3567205Y-7861674D01*
X3567205Y-7861674D02*
X3567205Y-7909293D01*
X3567205Y-7909293D02*
X3557682Y-7947388D01*
X3557682Y-7947388D02*
X3548158Y-7966436D01*
X3548158Y-7966436D02*
X3538634Y-7975960D01*
X3538634Y-7975960D02*
X3519586Y-7985484D01*
X3519586Y-7985484D02*
X3500539Y-7985484D01*
X3500539Y-7985484D02*
X3481491Y-7975960D01*
X3481491Y-7975960D02*
X3471967Y-7966436D01*
X3471967Y-7966436D02*
X3462443Y-7947388D01*
X3462443Y-7947388D02*
X3452920Y-7909293D01*
X3452920Y-7909293D02*
X3452920Y-7861674D01*
X3452920Y-7861674D02*
X3462443Y-7823579D01*
X3462443Y-7823579D02*
X3471967Y-7804531D01*
X3471967Y-7804531D02*
X3481491Y-7795008D01*
X3481491Y-7795008D02*
X3500539Y-7785484D01*
X3652920Y-7985484D02*
X3652920Y-7852150D01*
X3652920Y-7871198D02*
X3662443Y-7861674D01*
X3662443Y-7861674D02*
X3681491Y-7852150D01*
X3681491Y-7852150D02*
X3710063Y-7852150D01*
X3710063Y-7852150D02*
X3729110Y-7861674D01*
X3729110Y-7861674D02*
X3738634Y-7880722D01*
X3738634Y-7880722D02*
X3738634Y-7985484D01*
X3738634Y-7880722D02*
X3748158Y-7861674D01*
X3748158Y-7861674D02*
X3767205Y-7852150D01*
X3767205Y-7852150D02*
X3795777Y-7852150D01*
X3795777Y-7852150D02*
X3814824Y-7861674D01*
X3814824Y-7861674D02*
X3824348Y-7880722D01*
X3824348Y-7880722D02*
X3824348Y-7985484D01*
X3919586Y-7985484D02*
X3919586Y-7852150D01*
X3919586Y-7871198D02*
X3929110Y-7861674D01*
X3929110Y-7861674D02*
X3948158Y-7852150D01*
X3948158Y-7852150D02*
X3976729Y-7852150D01*
X3976729Y-7852150D02*
X3995777Y-7861674D01*
X3995777Y-7861674D02*
X4005301Y-7880722D01*
X4005301Y-7880722D02*
X4005301Y-7985484D01*
X4005301Y-7880722D02*
X4014824Y-7861674D01*
X4014824Y-7861674D02*
X4033872Y-7852150D01*
X4033872Y-7852150D02*
X4062443Y-7852150D01*
X4062443Y-7852150D02*
X4081491Y-7861674D01*
X4081491Y-7861674D02*
X4091015Y-7880722D01*
X4091015Y-7880722D02*
X4091015Y-7985484D01*
X4481491Y-7775960D02*
X4310063Y-8033103D01*
X4738634Y-7785484D02*
X4757682Y-7785484D01*
X4757682Y-7785484D02*
X4776729Y-7795008D01*
X4776729Y-7795008D02*
X4786253Y-7804531D01*
X4786253Y-7804531D02*
X4795777Y-7823579D01*
X4795777Y-7823579D02*
X4805301Y-7861674D01*
X4805301Y-7861674D02*
X4805301Y-7909293D01*
X4805301Y-7909293D02*
X4795777Y-7947388D01*
X4795777Y-7947388D02*
X4786253Y-7966436D01*
X4786253Y-7966436D02*
X4776729Y-7975960D01*
X4776729Y-7975960D02*
X4757682Y-7985484D01*
X4757682Y-7985484D02*
X4738634Y-7985484D01*
X4738634Y-7985484D02*
X4719587Y-7975960D01*
X4719587Y-7975960D02*
X4710063Y-7966436D01*
X4710063Y-7966436D02*
X4700539Y-7947388D01*
X4700539Y-7947388D02*
X4691015Y-7909293D01*
X4691015Y-7909293D02*
X4691015Y-7861674D01*
X4691015Y-7861674D02*
X4700539Y-7823579D01*
X4700539Y-7823579D02*
X4710063Y-7804531D01*
X4710063Y-7804531D02*
X4719587Y-7795008D01*
X4719587Y-7795008D02*
X4738634Y-7785484D01*
X4891015Y-7966436D02*
X4900539Y-7975960D01*
X4900539Y-7975960D02*
X4891015Y-7985484D01*
X4891015Y-7985484D02*
X4881491Y-7975960D01*
X4881491Y-7975960D02*
X4891015Y-7966436D01*
X4891015Y-7966436D02*
X4891015Y-7985484D01*
X5024348Y-7785484D02*
X5043396Y-7785484D01*
X5043396Y-7785484D02*
X5062444Y-7795008D01*
X5062444Y-7795008D02*
X5071968Y-7804531D01*
X5071968Y-7804531D02*
X5081491Y-7823579D01*
X5081491Y-7823579D02*
X5091015Y-7861674D01*
X5091015Y-7861674D02*
X5091015Y-7909293D01*
X5091015Y-7909293D02*
X5081491Y-7947388D01*
X5081491Y-7947388D02*
X5071968Y-7966436D01*
X5071968Y-7966436D02*
X5062444Y-7975960D01*
X5062444Y-7975960D02*
X5043396Y-7985484D01*
X5043396Y-7985484D02*
X5024348Y-7985484D01*
X5024348Y-7985484D02*
X5005301Y-7975960D01*
X5005301Y-7975960D02*
X4995777Y-7966436D01*
X4995777Y-7966436D02*
X4986253Y-7947388D01*
X4986253Y-7947388D02*
X4976729Y-7909293D01*
X4976729Y-7909293D02*
X4976729Y-7861674D01*
X4976729Y-7861674D02*
X4986253Y-7823579D01*
X4986253Y-7823579D02*
X4995777Y-7804531D01*
X4995777Y-7804531D02*
X5005301Y-7795008D01*
X5005301Y-7795008D02*
X5024348Y-7785484D01*
X5271968Y-7785484D02*
X5176729Y-7785484D01*
X5176729Y-7785484D02*
X5167206Y-7880722D01*
X5167206Y-7880722D02*
X5176729Y-7871198D01*
X5176729Y-7871198D02*
X5195777Y-7861674D01*
X5195777Y-7861674D02*
X5243396Y-7861674D01*
X5243396Y-7861674D02*
X5262444Y-7871198D01*
X5262444Y-7871198D02*
X5271968Y-7880722D01*
X5271968Y-7880722D02*
X5281491Y-7899769D01*
X5281491Y-7899769D02*
X5281491Y-7947388D01*
X5281491Y-7947388D02*
X5271968Y-7966436D01*
X5271968Y-7966436D02*
X5262444Y-7975960D01*
X5262444Y-7975960D02*
X5243396Y-7985484D01*
X5243396Y-7985484D02*
X5195777Y-7985484D01*
X5195777Y-7985484D02*
X5176729Y-7975960D01*
X5176729Y-7975960D02*
X5167206Y-7966436D01*
X5348158Y-7785484D02*
X5471968Y-7785484D01*
X5471968Y-7785484D02*
X5405301Y-7861674D01*
X5405301Y-7861674D02*
X5433872Y-7861674D01*
X5433872Y-7861674D02*
X5452920Y-7871198D01*
X5452920Y-7871198D02*
X5462444Y-7880722D01*
X5462444Y-7880722D02*
X5471968Y-7899769D01*
X5471968Y-7899769D02*
X5471968Y-7947388D01*
X5471968Y-7947388D02*
X5462444Y-7966436D01*
X5462444Y-7966436D02*
X5452920Y-7975960D01*
X5452920Y-7975960D02*
X5433872Y-7985484D01*
X5433872Y-7985484D02*
X5376729Y-7985484D01*
X5376729Y-7985484D02*
X5357682Y-7975960D01*
X5357682Y-7975960D02*
X5348158Y-7966436D01*
X5662444Y-7985484D02*
X5548158Y-7985484D01*
X5605301Y-7985484D02*
X5605301Y-7785484D01*
X5605301Y-7785484D02*
X5586253Y-7814055D01*
X5586253Y-7814055D02*
X5567206Y-7833103D01*
X5567206Y-7833103D02*
X5548158Y-7842627D01*
X5738634Y-7785484D02*
X5738634Y-7823579D01*
X5814825Y-7785484D02*
X5814825Y-7823579D01*
X6110063Y-8061674D02*
X6100539Y-8052150D01*
X6100539Y-8052150D02*
X6081491Y-8023579D01*
X6081491Y-8023579D02*
X6071968Y-8004531D01*
X6071968Y-8004531D02*
X6062444Y-7975960D01*
X6062444Y-7975960D02*
X6052920Y-7928341D01*
X6052920Y-7928341D02*
X6052920Y-7890246D01*
X6052920Y-7890246D02*
X6062444Y-7842627D01*
X6062444Y-7842627D02*
X6071968Y-7814055D01*
X6071968Y-7814055D02*
X6081491Y-7795008D01*
X6081491Y-7795008D02*
X6100539Y-7766436D01*
X6100539Y-7766436D02*
X6110063Y-7756912D01*
X6176729Y-7804531D02*
X6186253Y-7795008D01*
X6186253Y-7795008D02*
X6205301Y-7785484D01*
X6205301Y-7785484D02*
X6252920Y-7785484D01*
X6252920Y-7785484D02*
X6271968Y-7795008D01*
X6271968Y-7795008D02*
X6281491Y-7804531D01*
X6281491Y-7804531D02*
X6291015Y-7823579D01*
X6291015Y-7823579D02*
X6291015Y-7842627D01*
X6291015Y-7842627D02*
X6281491Y-7871198D01*
X6281491Y-7871198D02*
X6167206Y-7985484D01*
X6167206Y-7985484D02*
X6291015Y-7985484D01*
X6414825Y-7785484D02*
X6433872Y-7785484D01*
X6433872Y-7785484D02*
X6452920Y-7795008D01*
X6452920Y-7795008D02*
X6462444Y-7804531D01*
X6462444Y-7804531D02*
X6471968Y-7823579D01*
X6471968Y-7823579D02*
X6481491Y-7861674D01*
X6481491Y-7861674D02*
X6481491Y-7909293D01*
X6481491Y-7909293D02*
X6471968Y-7947388D01*
X6471968Y-7947388D02*
X6462444Y-7966436D01*
X6462444Y-7966436D02*
X6452920Y-7975960D01*
X6452920Y-7975960D02*
X6433872Y-7985484D01*
X6433872Y-7985484D02*
X6414825Y-7985484D01*
X6414825Y-7985484D02*
X6395777Y-7975960D01*
X6395777Y-7975960D02*
X6386253Y-7966436D01*
X6386253Y-7966436D02*
X6376729Y-7947388D01*
X6376729Y-7947388D02*
X6367206Y-7909293D01*
X6367206Y-7909293D02*
X6367206Y-7861674D01*
X6367206Y-7861674D02*
X6376729Y-7823579D01*
X6376729Y-7823579D02*
X6386253Y-7804531D01*
X6386253Y-7804531D02*
X6395777Y-7795008D01*
X6395777Y-7795008D02*
X6414825Y-7785484D01*
X6719587Y-7985484D02*
X6719587Y-7785484D01*
X6805301Y-7985484D02*
X6805301Y-7880722D01*
X6805301Y-7880722D02*
X6795777Y-7861674D01*
X6795777Y-7861674D02*
X6776730Y-7852150D01*
X6776730Y-7852150D02*
X6748158Y-7852150D01*
X6748158Y-7852150D02*
X6729110Y-7861674D01*
X6729110Y-7861674D02*
X6719587Y-7871198D01*
X6929110Y-7985484D02*
X6910063Y-7975960D01*
X6910063Y-7975960D02*
X6900539Y-7966436D01*
X6900539Y-7966436D02*
X6891015Y-7947388D01*
X6891015Y-7947388D02*
X6891015Y-7890246D01*
X6891015Y-7890246D02*
X6900539Y-7871198D01*
X6900539Y-7871198D02*
X6910063Y-7861674D01*
X6910063Y-7861674D02*
X6929110Y-7852150D01*
X6929110Y-7852150D02*
X6957682Y-7852150D01*
X6957682Y-7852150D02*
X6976730Y-7861674D01*
X6976730Y-7861674D02*
X6986253Y-7871198D01*
X6986253Y-7871198D02*
X6995777Y-7890246D01*
X6995777Y-7890246D02*
X6995777Y-7947388D01*
X6995777Y-7947388D02*
X6986253Y-7966436D01*
X6986253Y-7966436D02*
X6976730Y-7975960D01*
X6976730Y-7975960D02*
X6957682Y-7985484D01*
X6957682Y-7985484D02*
X6929110Y-7985484D01*
X7110063Y-7985484D02*
X7091015Y-7975960D01*
X7091015Y-7975960D02*
X7081491Y-7956912D01*
X7081491Y-7956912D02*
X7081491Y-7785484D01*
X7262444Y-7975960D02*
X7243396Y-7985484D01*
X7243396Y-7985484D02*
X7205301Y-7985484D01*
X7205301Y-7985484D02*
X7186253Y-7975960D01*
X7186253Y-7975960D02*
X7176730Y-7956912D01*
X7176730Y-7956912D02*
X7176730Y-7880722D01*
X7176730Y-7880722D02*
X7186253Y-7861674D01*
X7186253Y-7861674D02*
X7205301Y-7852150D01*
X7205301Y-7852150D02*
X7243396Y-7852150D01*
X7243396Y-7852150D02*
X7262444Y-7861674D01*
X7262444Y-7861674D02*
X7271968Y-7880722D01*
X7271968Y-7880722D02*
X7271968Y-7899769D01*
X7271968Y-7899769D02*
X7176730Y-7918817D01*
X7348158Y-7975960D02*
X7367206Y-7985484D01*
X7367206Y-7985484D02*
X7405301Y-7985484D01*
X7405301Y-7985484D02*
X7424349Y-7975960D01*
X7424349Y-7975960D02*
X7433872Y-7956912D01*
X7433872Y-7956912D02*
X7433872Y-7947388D01*
X7433872Y-7947388D02*
X7424349Y-7928341D01*
X7424349Y-7928341D02*
X7405301Y-7918817D01*
X7405301Y-7918817D02*
X7376730Y-7918817D01*
X7376730Y-7918817D02*
X7357682Y-7909293D01*
X7357682Y-7909293D02*
X7348158Y-7890246D01*
X7348158Y-7890246D02*
X7348158Y-7880722D01*
X7348158Y-7880722D02*
X7357682Y-7861674D01*
X7357682Y-7861674D02*
X7376730Y-7852150D01*
X7376730Y-7852150D02*
X7405301Y-7852150D01*
X7405301Y-7852150D02*
X7424349Y-7861674D01*
X7500539Y-8061674D02*
X7510063Y-8052150D01*
X7510063Y-8052150D02*
X7529111Y-8023579D01*
X7529111Y-8023579D02*
X7538634Y-8004531D01*
X7538634Y-8004531D02*
X7548158Y-7975960D01*
X7548158Y-7975960D02*
X7557682Y-7928341D01*
X7557682Y-7928341D02*
X7557682Y-7890246D01*
X7557682Y-7890246D02*
X7548158Y-7842627D01*
X7548158Y-7842627D02*
X7538634Y-7814055D01*
X7538634Y-7814055D02*
X7529111Y-7795008D01*
X7529111Y-7795008D02*
X7510063Y-7766436D01*
X7510063Y-7766436D02*
X7500539Y-7756912D01*
D14*
X2442500Y-8065500D02*
X2442500Y-8250500D01*
X2350000Y-8158000D02*
X2535000Y-8158000D01*
D11*
X2900539Y-8249484D02*
X2786253Y-8249484D01*
X2843396Y-8249484D02*
X2843396Y-8049484D01*
X2843396Y-8049484D02*
X2824348Y-8078055D01*
X2824348Y-8078055D02*
X2805301Y-8097103D01*
X2805301Y-8097103D02*
X2786253Y-8106627D01*
X2986253Y-8230436D02*
X2995777Y-8239960D01*
X2995777Y-8239960D02*
X2986253Y-8249484D01*
X2986253Y-8249484D02*
X2976729Y-8239960D01*
X2976729Y-8239960D02*
X2986253Y-8230436D01*
X2986253Y-8230436D02*
X2986253Y-8249484D01*
X3110062Y-8135198D02*
X3091015Y-8125674D01*
X3091015Y-8125674D02*
X3081491Y-8116150D01*
X3081491Y-8116150D02*
X3071967Y-8097103D01*
X3071967Y-8097103D02*
X3071967Y-8087579D01*
X3071967Y-8087579D02*
X3081491Y-8068531D01*
X3081491Y-8068531D02*
X3091015Y-8059008D01*
X3091015Y-8059008D02*
X3110062Y-8049484D01*
X3110062Y-8049484D02*
X3148158Y-8049484D01*
X3148158Y-8049484D02*
X3167205Y-8059008D01*
X3167205Y-8059008D02*
X3176729Y-8068531D01*
X3176729Y-8068531D02*
X3186253Y-8087579D01*
X3186253Y-8087579D02*
X3186253Y-8097103D01*
X3186253Y-8097103D02*
X3176729Y-8116150D01*
X3176729Y-8116150D02*
X3167205Y-8125674D01*
X3167205Y-8125674D02*
X3148158Y-8135198D01*
X3148158Y-8135198D02*
X3110062Y-8135198D01*
X3110062Y-8135198D02*
X3091015Y-8144722D01*
X3091015Y-8144722D02*
X3081491Y-8154246D01*
X3081491Y-8154246D02*
X3071967Y-8173293D01*
X3071967Y-8173293D02*
X3071967Y-8211388D01*
X3071967Y-8211388D02*
X3081491Y-8230436D01*
X3081491Y-8230436D02*
X3091015Y-8239960D01*
X3091015Y-8239960D02*
X3110062Y-8249484D01*
X3110062Y-8249484D02*
X3148158Y-8249484D01*
X3148158Y-8249484D02*
X3167205Y-8239960D01*
X3167205Y-8239960D02*
X3176729Y-8230436D01*
X3176729Y-8230436D02*
X3186253Y-8211388D01*
X3186253Y-8211388D02*
X3186253Y-8173293D01*
X3186253Y-8173293D02*
X3176729Y-8154246D01*
X3176729Y-8154246D02*
X3167205Y-8144722D01*
X3167205Y-8144722D02*
X3148158Y-8135198D01*
X3367205Y-8049484D02*
X3271967Y-8049484D01*
X3271967Y-8049484D02*
X3262443Y-8144722D01*
X3262443Y-8144722D02*
X3271967Y-8135198D01*
X3271967Y-8135198D02*
X3291015Y-8125674D01*
X3291015Y-8125674D02*
X3338634Y-8125674D01*
X3338634Y-8125674D02*
X3357682Y-8135198D01*
X3357682Y-8135198D02*
X3367205Y-8144722D01*
X3367205Y-8144722D02*
X3376729Y-8163769D01*
X3376729Y-8163769D02*
X3376729Y-8211388D01*
X3376729Y-8211388D02*
X3367205Y-8230436D01*
X3367205Y-8230436D02*
X3357682Y-8239960D01*
X3357682Y-8239960D02*
X3338634Y-8249484D01*
X3338634Y-8249484D02*
X3291015Y-8249484D01*
X3291015Y-8249484D02*
X3271967Y-8239960D01*
X3271967Y-8239960D02*
X3262443Y-8230436D01*
X3500539Y-8049484D02*
X3519586Y-8049484D01*
X3519586Y-8049484D02*
X3538634Y-8059008D01*
X3538634Y-8059008D02*
X3548158Y-8068531D01*
X3548158Y-8068531D02*
X3557682Y-8087579D01*
X3557682Y-8087579D02*
X3567205Y-8125674D01*
X3567205Y-8125674D02*
X3567205Y-8173293D01*
X3567205Y-8173293D02*
X3557682Y-8211388D01*
X3557682Y-8211388D02*
X3548158Y-8230436D01*
X3548158Y-8230436D02*
X3538634Y-8239960D01*
X3538634Y-8239960D02*
X3519586Y-8249484D01*
X3519586Y-8249484D02*
X3500539Y-8249484D01*
X3500539Y-8249484D02*
X3481491Y-8239960D01*
X3481491Y-8239960D02*
X3471967Y-8230436D01*
X3471967Y-8230436D02*
X3462443Y-8211388D01*
X3462443Y-8211388D02*
X3452920Y-8173293D01*
X3452920Y-8173293D02*
X3452920Y-8125674D01*
X3452920Y-8125674D02*
X3462443Y-8087579D01*
X3462443Y-8087579D02*
X3471967Y-8068531D01*
X3471967Y-8068531D02*
X3481491Y-8059008D01*
X3481491Y-8059008D02*
X3500539Y-8049484D01*
X3652920Y-8249484D02*
X3652920Y-8116150D01*
X3652920Y-8135198D02*
X3662443Y-8125674D01*
X3662443Y-8125674D02*
X3681491Y-8116150D01*
X3681491Y-8116150D02*
X3710063Y-8116150D01*
X3710063Y-8116150D02*
X3729110Y-8125674D01*
X3729110Y-8125674D02*
X3738634Y-8144722D01*
X3738634Y-8144722D02*
X3738634Y-8249484D01*
X3738634Y-8144722D02*
X3748158Y-8125674D01*
X3748158Y-8125674D02*
X3767205Y-8116150D01*
X3767205Y-8116150D02*
X3795777Y-8116150D01*
X3795777Y-8116150D02*
X3814824Y-8125674D01*
X3814824Y-8125674D02*
X3824348Y-8144722D01*
X3824348Y-8144722D02*
X3824348Y-8249484D01*
X3919586Y-8249484D02*
X3919586Y-8116150D01*
X3919586Y-8135198D02*
X3929110Y-8125674D01*
X3929110Y-8125674D02*
X3948158Y-8116150D01*
X3948158Y-8116150D02*
X3976729Y-8116150D01*
X3976729Y-8116150D02*
X3995777Y-8125674D01*
X3995777Y-8125674D02*
X4005301Y-8144722D01*
X4005301Y-8144722D02*
X4005301Y-8249484D01*
X4005301Y-8144722D02*
X4014824Y-8125674D01*
X4014824Y-8125674D02*
X4033872Y-8116150D01*
X4033872Y-8116150D02*
X4062443Y-8116150D01*
X4062443Y-8116150D02*
X4081491Y-8125674D01*
X4081491Y-8125674D02*
X4091015Y-8144722D01*
X4091015Y-8144722D02*
X4091015Y-8249484D01*
X4481491Y-8039960D02*
X4310063Y-8297103D01*
X4738634Y-8049484D02*
X4757682Y-8049484D01*
X4757682Y-8049484D02*
X4776729Y-8059008D01*
X4776729Y-8059008D02*
X4786253Y-8068531D01*
X4786253Y-8068531D02*
X4795777Y-8087579D01*
X4795777Y-8087579D02*
X4805301Y-8125674D01*
X4805301Y-8125674D02*
X4805301Y-8173293D01*
X4805301Y-8173293D02*
X4795777Y-8211388D01*
X4795777Y-8211388D02*
X4786253Y-8230436D01*
X4786253Y-8230436D02*
X4776729Y-8239960D01*
X4776729Y-8239960D02*
X4757682Y-8249484D01*
X4757682Y-8249484D02*
X4738634Y-8249484D01*
X4738634Y-8249484D02*
X4719587Y-8239960D01*
X4719587Y-8239960D02*
X4710063Y-8230436D01*
X4710063Y-8230436D02*
X4700539Y-8211388D01*
X4700539Y-8211388D02*
X4691015Y-8173293D01*
X4691015Y-8173293D02*
X4691015Y-8125674D01*
X4691015Y-8125674D02*
X4700539Y-8087579D01*
X4700539Y-8087579D02*
X4710063Y-8068531D01*
X4710063Y-8068531D02*
X4719587Y-8059008D01*
X4719587Y-8059008D02*
X4738634Y-8049484D01*
X4891015Y-8230436D02*
X4900539Y-8239960D01*
X4900539Y-8239960D02*
X4891015Y-8249484D01*
X4891015Y-8249484D02*
X4881491Y-8239960D01*
X4881491Y-8239960D02*
X4891015Y-8230436D01*
X4891015Y-8230436D02*
X4891015Y-8249484D01*
X5024348Y-8049484D02*
X5043396Y-8049484D01*
X5043396Y-8049484D02*
X5062444Y-8059008D01*
X5062444Y-8059008D02*
X5071968Y-8068531D01*
X5071968Y-8068531D02*
X5081491Y-8087579D01*
X5081491Y-8087579D02*
X5091015Y-8125674D01*
X5091015Y-8125674D02*
X5091015Y-8173293D01*
X5091015Y-8173293D02*
X5081491Y-8211388D01*
X5081491Y-8211388D02*
X5071968Y-8230436D01*
X5071968Y-8230436D02*
X5062444Y-8239960D01*
X5062444Y-8239960D02*
X5043396Y-8249484D01*
X5043396Y-8249484D02*
X5024348Y-8249484D01*
X5024348Y-8249484D02*
X5005301Y-8239960D01*
X5005301Y-8239960D02*
X4995777Y-8230436D01*
X4995777Y-8230436D02*
X4986253Y-8211388D01*
X4986253Y-8211388D02*
X4976729Y-8173293D01*
X4976729Y-8173293D02*
X4976729Y-8125674D01*
X4976729Y-8125674D02*
X4986253Y-8087579D01*
X4986253Y-8087579D02*
X4995777Y-8068531D01*
X4995777Y-8068531D02*
X5005301Y-8059008D01*
X5005301Y-8059008D02*
X5024348Y-8049484D01*
X5157682Y-8049484D02*
X5291015Y-8049484D01*
X5291015Y-8049484D02*
X5205301Y-8249484D01*
X5357682Y-8068531D02*
X5367206Y-8059008D01*
X5367206Y-8059008D02*
X5386253Y-8049484D01*
X5386253Y-8049484D02*
X5433872Y-8049484D01*
X5433872Y-8049484D02*
X5452920Y-8059008D01*
X5452920Y-8059008D02*
X5462444Y-8068531D01*
X5462444Y-8068531D02*
X5471968Y-8087579D01*
X5471968Y-8087579D02*
X5471968Y-8106627D01*
X5471968Y-8106627D02*
X5462444Y-8135198D01*
X5462444Y-8135198D02*
X5348158Y-8249484D01*
X5348158Y-8249484D02*
X5471968Y-8249484D01*
X5586253Y-8135198D02*
X5567206Y-8125674D01*
X5567206Y-8125674D02*
X5557682Y-8116150D01*
X5557682Y-8116150D02*
X5548158Y-8097103D01*
X5548158Y-8097103D02*
X5548158Y-8087579D01*
X5548158Y-8087579D02*
X5557682Y-8068531D01*
X5557682Y-8068531D02*
X5567206Y-8059008D01*
X5567206Y-8059008D02*
X5586253Y-8049484D01*
X5586253Y-8049484D02*
X5624348Y-8049484D01*
X5624348Y-8049484D02*
X5643396Y-8059008D01*
X5643396Y-8059008D02*
X5652920Y-8068531D01*
X5652920Y-8068531D02*
X5662444Y-8087579D01*
X5662444Y-8087579D02*
X5662444Y-8097103D01*
X5662444Y-8097103D02*
X5652920Y-8116150D01*
X5652920Y-8116150D02*
X5643396Y-8125674D01*
X5643396Y-8125674D02*
X5624348Y-8135198D01*
X5624348Y-8135198D02*
X5586253Y-8135198D01*
X5586253Y-8135198D02*
X5567206Y-8144722D01*
X5567206Y-8144722D02*
X5557682Y-8154246D01*
X5557682Y-8154246D02*
X5548158Y-8173293D01*
X5548158Y-8173293D02*
X5548158Y-8211388D01*
X5548158Y-8211388D02*
X5557682Y-8230436D01*
X5557682Y-8230436D02*
X5567206Y-8239960D01*
X5567206Y-8239960D02*
X5586253Y-8249484D01*
X5586253Y-8249484D02*
X5624348Y-8249484D01*
X5624348Y-8249484D02*
X5643396Y-8239960D01*
X5643396Y-8239960D02*
X5652920Y-8230436D01*
X5652920Y-8230436D02*
X5662444Y-8211388D01*
X5662444Y-8211388D02*
X5662444Y-8173293D01*
X5662444Y-8173293D02*
X5652920Y-8154246D01*
X5652920Y-8154246D02*
X5643396Y-8144722D01*
X5643396Y-8144722D02*
X5624348Y-8135198D01*
X5738634Y-8049484D02*
X5738634Y-8087579D01*
X5814825Y-8049484D02*
X5814825Y-8087579D01*
X6110063Y-8325674D02*
X6100539Y-8316150D01*
X6100539Y-8316150D02*
X6081491Y-8287579D01*
X6081491Y-8287579D02*
X6071968Y-8268531D01*
X6071968Y-8268531D02*
X6062444Y-8239960D01*
X6062444Y-8239960D02*
X6052920Y-8192341D01*
X6052920Y-8192341D02*
X6052920Y-8154246D01*
X6052920Y-8154246D02*
X6062444Y-8106627D01*
X6062444Y-8106627D02*
X6071968Y-8078055D01*
X6071968Y-8078055D02*
X6081491Y-8059008D01*
X6081491Y-8059008D02*
X6100539Y-8030436D01*
X6100539Y-8030436D02*
X6110063Y-8020912D01*
X6176729Y-8068531D02*
X6186253Y-8059008D01*
X6186253Y-8059008D02*
X6205301Y-8049484D01*
X6205301Y-8049484D02*
X6252920Y-8049484D01*
X6252920Y-8049484D02*
X6271968Y-8059008D01*
X6271968Y-8059008D02*
X6281491Y-8068531D01*
X6281491Y-8068531D02*
X6291015Y-8087579D01*
X6291015Y-8087579D02*
X6291015Y-8106627D01*
X6291015Y-8106627D02*
X6281491Y-8135198D01*
X6281491Y-8135198D02*
X6167206Y-8249484D01*
X6167206Y-8249484D02*
X6291015Y-8249484D01*
X6462444Y-8116150D02*
X6462444Y-8249484D01*
X6414825Y-8039960D02*
X6367206Y-8182817D01*
X6367206Y-8182817D02*
X6491015Y-8182817D01*
X6719587Y-8249484D02*
X6719587Y-8049484D01*
X6805301Y-8249484D02*
X6805301Y-8144722D01*
X6805301Y-8144722D02*
X6795777Y-8125674D01*
X6795777Y-8125674D02*
X6776730Y-8116150D01*
X6776730Y-8116150D02*
X6748158Y-8116150D01*
X6748158Y-8116150D02*
X6729110Y-8125674D01*
X6729110Y-8125674D02*
X6719587Y-8135198D01*
X6929110Y-8249484D02*
X6910063Y-8239960D01*
X6910063Y-8239960D02*
X6900539Y-8230436D01*
X6900539Y-8230436D02*
X6891015Y-8211388D01*
X6891015Y-8211388D02*
X6891015Y-8154246D01*
X6891015Y-8154246D02*
X6900539Y-8135198D01*
X6900539Y-8135198D02*
X6910063Y-8125674D01*
X6910063Y-8125674D02*
X6929110Y-8116150D01*
X6929110Y-8116150D02*
X6957682Y-8116150D01*
X6957682Y-8116150D02*
X6976730Y-8125674D01*
X6976730Y-8125674D02*
X6986253Y-8135198D01*
X6986253Y-8135198D02*
X6995777Y-8154246D01*
X6995777Y-8154246D02*
X6995777Y-8211388D01*
X6995777Y-8211388D02*
X6986253Y-8230436D01*
X6986253Y-8230436D02*
X6976730Y-8239960D01*
X6976730Y-8239960D02*
X6957682Y-8249484D01*
X6957682Y-8249484D02*
X6929110Y-8249484D01*
X7110063Y-8249484D02*
X7091015Y-8239960D01*
X7091015Y-8239960D02*
X7081491Y-8220912D01*
X7081491Y-8220912D02*
X7081491Y-8049484D01*
X7262444Y-8239960D02*
X7243396Y-8249484D01*
X7243396Y-8249484D02*
X7205301Y-8249484D01*
X7205301Y-8249484D02*
X7186253Y-8239960D01*
X7186253Y-8239960D02*
X7176730Y-8220912D01*
X7176730Y-8220912D02*
X7176730Y-8144722D01*
X7176730Y-8144722D02*
X7186253Y-8125674D01*
X7186253Y-8125674D02*
X7205301Y-8116150D01*
X7205301Y-8116150D02*
X7243396Y-8116150D01*
X7243396Y-8116150D02*
X7262444Y-8125674D01*
X7262444Y-8125674D02*
X7271968Y-8144722D01*
X7271968Y-8144722D02*
X7271968Y-8163769D01*
X7271968Y-8163769D02*
X7176730Y-8182817D01*
X7348158Y-8239960D02*
X7367206Y-8249484D01*
X7367206Y-8249484D02*
X7405301Y-8249484D01*
X7405301Y-8249484D02*
X7424349Y-8239960D01*
X7424349Y-8239960D02*
X7433872Y-8220912D01*
X7433872Y-8220912D02*
X7433872Y-8211388D01*
X7433872Y-8211388D02*
X7424349Y-8192341D01*
X7424349Y-8192341D02*
X7405301Y-8182817D01*
X7405301Y-8182817D02*
X7376730Y-8182817D01*
X7376730Y-8182817D02*
X7357682Y-8173293D01*
X7357682Y-8173293D02*
X7348158Y-8154246D01*
X7348158Y-8154246D02*
X7348158Y-8144722D01*
X7348158Y-8144722D02*
X7357682Y-8125674D01*
X7357682Y-8125674D02*
X7376730Y-8116150D01*
X7376730Y-8116150D02*
X7405301Y-8116150D01*
X7405301Y-8116150D02*
X7424349Y-8125674D01*
X7500539Y-8325674D02*
X7510063Y-8316150D01*
X7510063Y-8316150D02*
X7529111Y-8287579D01*
X7529111Y-8287579D02*
X7538634Y-8268531D01*
X7538634Y-8268531D02*
X7548158Y-8239960D01*
X7548158Y-8239960D02*
X7557682Y-8192341D01*
X7557682Y-8192341D02*
X7557682Y-8154246D01*
X7557682Y-8154246D02*
X7548158Y-8106627D01*
X7548158Y-8106627D02*
X7538634Y-8078055D01*
X7538634Y-8078055D02*
X7529111Y-8059008D01*
X7529111Y-8059008D02*
X7510063Y-8030436D01*
X7510063Y-8030436D02*
X7500539Y-8020912D01*
X2505711Y-8533711D02*
X2505711Y-8392289D01*
X2364289Y-8392289D01*
X2364289Y-8533711D01*
X2505711Y-8533711D01*
X2776729Y-8354484D02*
X2900539Y-8354484D01*
X2900539Y-8354484D02*
X2833872Y-8430674D01*
X2833872Y-8430674D02*
X2862443Y-8430674D01*
X2862443Y-8430674D02*
X2881491Y-8440198D01*
X2881491Y-8440198D02*
X2891015Y-8449722D01*
X2891015Y-8449722D02*
X2900539Y-8468770D01*
X2900539Y-8468770D02*
X2900539Y-8516389D01*
X2900539Y-8516389D02*
X2891015Y-8535436D01*
X2891015Y-8535436D02*
X2881491Y-8544960D01*
X2881491Y-8544960D02*
X2862443Y-8554484D01*
X2862443Y-8554484D02*
X2805301Y-8554484D01*
X2805301Y-8554484D02*
X2786253Y-8544960D01*
X2786253Y-8544960D02*
X2776729Y-8535436D01*
X2986253Y-8535436D02*
X2995777Y-8544960D01*
X2995777Y-8544960D02*
X2986253Y-8554484D01*
X2986253Y-8554484D02*
X2976729Y-8544960D01*
X2976729Y-8544960D02*
X2986253Y-8535436D01*
X2986253Y-8535436D02*
X2986253Y-8554484D01*
X3071967Y-8373531D02*
X3081491Y-8364008D01*
X3081491Y-8364008D02*
X3100539Y-8354484D01*
X3100539Y-8354484D02*
X3148158Y-8354484D01*
X3148158Y-8354484D02*
X3167205Y-8364008D01*
X3167205Y-8364008D02*
X3176729Y-8373531D01*
X3176729Y-8373531D02*
X3186253Y-8392579D01*
X3186253Y-8392579D02*
X3186253Y-8411627D01*
X3186253Y-8411627D02*
X3176729Y-8440198D01*
X3176729Y-8440198D02*
X3062443Y-8554484D01*
X3062443Y-8554484D02*
X3186253Y-8554484D01*
X3310062Y-8354484D02*
X3329110Y-8354484D01*
X3329110Y-8354484D02*
X3348158Y-8364008D01*
X3348158Y-8364008D02*
X3357682Y-8373531D01*
X3357682Y-8373531D02*
X3367205Y-8392579D01*
X3367205Y-8392579D02*
X3376729Y-8430674D01*
X3376729Y-8430674D02*
X3376729Y-8478293D01*
X3376729Y-8478293D02*
X3367205Y-8516389D01*
X3367205Y-8516389D02*
X3357682Y-8535436D01*
X3357682Y-8535436D02*
X3348158Y-8544960D01*
X3348158Y-8544960D02*
X3329110Y-8554484D01*
X3329110Y-8554484D02*
X3310062Y-8554484D01*
X3310062Y-8554484D02*
X3291015Y-8544960D01*
X3291015Y-8544960D02*
X3281491Y-8535436D01*
X3281491Y-8535436D02*
X3271967Y-8516389D01*
X3271967Y-8516389D02*
X3262443Y-8478293D01*
X3262443Y-8478293D02*
X3262443Y-8430674D01*
X3262443Y-8430674D02*
X3271967Y-8392579D01*
X3271967Y-8392579D02*
X3281491Y-8373531D01*
X3281491Y-8373531D02*
X3291015Y-8364008D01*
X3291015Y-8364008D02*
X3310062Y-8354484D01*
X3500539Y-8354484D02*
X3519586Y-8354484D01*
X3519586Y-8354484D02*
X3538634Y-8364008D01*
X3538634Y-8364008D02*
X3548158Y-8373531D01*
X3548158Y-8373531D02*
X3557682Y-8392579D01*
X3557682Y-8392579D02*
X3567205Y-8430674D01*
X3567205Y-8430674D02*
X3567205Y-8478293D01*
X3567205Y-8478293D02*
X3557682Y-8516389D01*
X3557682Y-8516389D02*
X3548158Y-8535436D01*
X3548158Y-8535436D02*
X3538634Y-8544960D01*
X3538634Y-8544960D02*
X3519586Y-8554484D01*
X3519586Y-8554484D02*
X3500539Y-8554484D01*
X3500539Y-8554484D02*
X3481491Y-8544960D01*
X3481491Y-8544960D02*
X3471967Y-8535436D01*
X3471967Y-8535436D02*
X3462443Y-8516389D01*
X3462443Y-8516389D02*
X3452920Y-8478293D01*
X3452920Y-8478293D02*
X3452920Y-8430674D01*
X3452920Y-8430674D02*
X3462443Y-8392579D01*
X3462443Y-8392579D02*
X3471967Y-8373531D01*
X3471967Y-8373531D02*
X3481491Y-8364008D01*
X3481491Y-8364008D02*
X3500539Y-8354484D01*
X3652920Y-8554484D02*
X3652920Y-8421150D01*
X3652920Y-8440198D02*
X3662443Y-8430674D01*
X3662443Y-8430674D02*
X3681491Y-8421150D01*
X3681491Y-8421150D02*
X3710063Y-8421150D01*
X3710063Y-8421150D02*
X3729110Y-8430674D01*
X3729110Y-8430674D02*
X3738634Y-8449722D01*
X3738634Y-8449722D02*
X3738634Y-8554484D01*
X3738634Y-8449722D02*
X3748158Y-8430674D01*
X3748158Y-8430674D02*
X3767205Y-8421150D01*
X3767205Y-8421150D02*
X3795777Y-8421150D01*
X3795777Y-8421150D02*
X3814824Y-8430674D01*
X3814824Y-8430674D02*
X3824348Y-8449722D01*
X3824348Y-8449722D02*
X3824348Y-8554484D01*
X3919586Y-8554484D02*
X3919586Y-8421150D01*
X3919586Y-8440198D02*
X3929110Y-8430674D01*
X3929110Y-8430674D02*
X3948158Y-8421150D01*
X3948158Y-8421150D02*
X3976729Y-8421150D01*
X3976729Y-8421150D02*
X3995777Y-8430674D01*
X3995777Y-8430674D02*
X4005301Y-8449722D01*
X4005301Y-8449722D02*
X4005301Y-8554484D01*
X4005301Y-8449722D02*
X4014824Y-8430674D01*
X4014824Y-8430674D02*
X4033872Y-8421150D01*
X4033872Y-8421150D02*
X4062443Y-8421150D01*
X4062443Y-8421150D02*
X4081491Y-8430674D01*
X4081491Y-8430674D02*
X4091015Y-8449722D01*
X4091015Y-8449722D02*
X4091015Y-8554484D01*
X4481491Y-8344960D02*
X4310063Y-8602103D01*
X4738634Y-8354484D02*
X4757682Y-8354484D01*
X4757682Y-8354484D02*
X4776729Y-8364008D01*
X4776729Y-8364008D02*
X4786253Y-8373531D01*
X4786253Y-8373531D02*
X4795777Y-8392579D01*
X4795777Y-8392579D02*
X4805301Y-8430674D01*
X4805301Y-8430674D02*
X4805301Y-8478293D01*
X4805301Y-8478293D02*
X4795777Y-8516389D01*
X4795777Y-8516389D02*
X4786253Y-8535436D01*
X4786253Y-8535436D02*
X4776729Y-8544960D01*
X4776729Y-8544960D02*
X4757682Y-8554484D01*
X4757682Y-8554484D02*
X4738634Y-8554484D01*
X4738634Y-8554484D02*
X4719587Y-8544960D01*
X4719587Y-8544960D02*
X4710063Y-8535436D01*
X4710063Y-8535436D02*
X4700539Y-8516389D01*
X4700539Y-8516389D02*
X4691015Y-8478293D01*
X4691015Y-8478293D02*
X4691015Y-8430674D01*
X4691015Y-8430674D02*
X4700539Y-8392579D01*
X4700539Y-8392579D02*
X4710063Y-8373531D01*
X4710063Y-8373531D02*
X4719587Y-8364008D01*
X4719587Y-8364008D02*
X4738634Y-8354484D01*
X4891015Y-8535436D02*
X4900539Y-8544960D01*
X4900539Y-8544960D02*
X4891015Y-8554484D01*
X4891015Y-8554484D02*
X4881491Y-8544960D01*
X4881491Y-8544960D02*
X4891015Y-8535436D01*
X4891015Y-8535436D02*
X4891015Y-8554484D01*
X5091015Y-8554484D02*
X4976729Y-8554484D01*
X5033872Y-8554484D02*
X5033872Y-8354484D01*
X5033872Y-8354484D02*
X5014825Y-8383055D01*
X5014825Y-8383055D02*
X4995777Y-8402103D01*
X4995777Y-8402103D02*
X4976729Y-8411627D01*
X5167206Y-8373531D02*
X5176729Y-8364008D01*
X5176729Y-8364008D02*
X5195777Y-8354484D01*
X5195777Y-8354484D02*
X5243396Y-8354484D01*
X5243396Y-8354484D02*
X5262444Y-8364008D01*
X5262444Y-8364008D02*
X5271968Y-8373531D01*
X5271968Y-8373531D02*
X5281491Y-8392579D01*
X5281491Y-8392579D02*
X5281491Y-8411627D01*
X5281491Y-8411627D02*
X5271968Y-8440198D01*
X5271968Y-8440198D02*
X5157682Y-8554484D01*
X5157682Y-8554484D02*
X5281491Y-8554484D01*
X5452920Y-8354484D02*
X5414825Y-8354484D01*
X5414825Y-8354484D02*
X5395777Y-8364008D01*
X5395777Y-8364008D02*
X5386253Y-8373531D01*
X5386253Y-8373531D02*
X5367206Y-8402103D01*
X5367206Y-8402103D02*
X5357682Y-8440198D01*
X5357682Y-8440198D02*
X5357682Y-8516389D01*
X5357682Y-8516389D02*
X5367206Y-8535436D01*
X5367206Y-8535436D02*
X5376729Y-8544960D01*
X5376729Y-8544960D02*
X5395777Y-8554484D01*
X5395777Y-8554484D02*
X5433872Y-8554484D01*
X5433872Y-8554484D02*
X5452920Y-8544960D01*
X5452920Y-8544960D02*
X5462444Y-8535436D01*
X5462444Y-8535436D02*
X5471968Y-8516389D01*
X5471968Y-8516389D02*
X5471968Y-8468770D01*
X5471968Y-8468770D02*
X5462444Y-8449722D01*
X5462444Y-8449722D02*
X5452920Y-8440198D01*
X5452920Y-8440198D02*
X5433872Y-8430674D01*
X5433872Y-8430674D02*
X5395777Y-8430674D01*
X5395777Y-8430674D02*
X5376729Y-8440198D01*
X5376729Y-8440198D02*
X5367206Y-8449722D01*
X5367206Y-8449722D02*
X5357682Y-8468770D01*
X5595777Y-8354484D02*
X5614825Y-8354484D01*
X5614825Y-8354484D02*
X5633872Y-8364008D01*
X5633872Y-8364008D02*
X5643396Y-8373531D01*
X5643396Y-8373531D02*
X5652920Y-8392579D01*
X5652920Y-8392579D02*
X5662444Y-8430674D01*
X5662444Y-8430674D02*
X5662444Y-8478293D01*
X5662444Y-8478293D02*
X5652920Y-8516389D01*
X5652920Y-8516389D02*
X5643396Y-8535436D01*
X5643396Y-8535436D02*
X5633872Y-8544960D01*
X5633872Y-8544960D02*
X5614825Y-8554484D01*
X5614825Y-8554484D02*
X5595777Y-8554484D01*
X5595777Y-8554484D02*
X5576729Y-8544960D01*
X5576729Y-8544960D02*
X5567206Y-8535436D01*
X5567206Y-8535436D02*
X5557682Y-8516389D01*
X5557682Y-8516389D02*
X5548158Y-8478293D01*
X5548158Y-8478293D02*
X5548158Y-8430674D01*
X5548158Y-8430674D02*
X5557682Y-8392579D01*
X5557682Y-8392579D02*
X5567206Y-8373531D01*
X5567206Y-8373531D02*
X5576729Y-8364008D01*
X5576729Y-8364008D02*
X5595777Y-8354484D01*
X5738634Y-8354484D02*
X5738634Y-8392579D01*
X5814825Y-8354484D02*
X5814825Y-8392579D01*
X6110063Y-8630674D02*
X6100539Y-8621150D01*
X6100539Y-8621150D02*
X6081491Y-8592579D01*
X6081491Y-8592579D02*
X6071968Y-8573531D01*
X6071968Y-8573531D02*
X6062444Y-8544960D01*
X6062444Y-8544960D02*
X6052920Y-8497341D01*
X6052920Y-8497341D02*
X6052920Y-8459246D01*
X6052920Y-8459246D02*
X6062444Y-8411627D01*
X6062444Y-8411627D02*
X6071968Y-8383055D01*
X6071968Y-8383055D02*
X6081491Y-8364008D01*
X6081491Y-8364008D02*
X6100539Y-8335436D01*
X6100539Y-8335436D02*
X6110063Y-8325912D01*
X6271968Y-8421150D02*
X6271968Y-8554484D01*
X6224348Y-8344960D02*
X6176729Y-8487817D01*
X6176729Y-8487817D02*
X6300539Y-8487817D01*
X6529110Y-8554484D02*
X6529110Y-8354484D01*
X6614825Y-8554484D02*
X6614825Y-8449722D01*
X6614825Y-8449722D02*
X6605301Y-8430674D01*
X6605301Y-8430674D02*
X6586253Y-8421150D01*
X6586253Y-8421150D02*
X6557682Y-8421150D01*
X6557682Y-8421150D02*
X6538634Y-8430674D01*
X6538634Y-8430674D02*
X6529110Y-8440198D01*
X6738634Y-8554484D02*
X6719587Y-8544960D01*
X6719587Y-8544960D02*
X6710063Y-8535436D01*
X6710063Y-8535436D02*
X6700539Y-8516389D01*
X6700539Y-8516389D02*
X6700539Y-8459246D01*
X6700539Y-8459246D02*
X6710063Y-8440198D01*
X6710063Y-8440198D02*
X6719587Y-8430674D01*
X6719587Y-8430674D02*
X6738634Y-8421150D01*
X6738634Y-8421150D02*
X6767206Y-8421150D01*
X6767206Y-8421150D02*
X6786253Y-8430674D01*
X6786253Y-8430674D02*
X6795777Y-8440198D01*
X6795777Y-8440198D02*
X6805301Y-8459246D01*
X6805301Y-8459246D02*
X6805301Y-8516389D01*
X6805301Y-8516389D02*
X6795777Y-8535436D01*
X6795777Y-8535436D02*
X6786253Y-8544960D01*
X6786253Y-8544960D02*
X6767206Y-8554484D01*
X6767206Y-8554484D02*
X6738634Y-8554484D01*
X6919587Y-8554484D02*
X6900539Y-8544960D01*
X6900539Y-8544960D02*
X6891015Y-8525912D01*
X6891015Y-8525912D02*
X6891015Y-8354484D01*
X7071968Y-8544960D02*
X7052920Y-8554484D01*
X7052920Y-8554484D02*
X7014825Y-8554484D01*
X7014825Y-8554484D02*
X6995777Y-8544960D01*
X6995777Y-8544960D02*
X6986253Y-8525912D01*
X6986253Y-8525912D02*
X6986253Y-8449722D01*
X6986253Y-8449722D02*
X6995777Y-8430674D01*
X6995777Y-8430674D02*
X7014825Y-8421150D01*
X7014825Y-8421150D02*
X7052920Y-8421150D01*
X7052920Y-8421150D02*
X7071968Y-8430674D01*
X7071968Y-8430674D02*
X7081491Y-8449722D01*
X7081491Y-8449722D02*
X7081491Y-8468770D01*
X7081491Y-8468770D02*
X6986253Y-8487817D01*
X7157682Y-8544960D02*
X7176730Y-8554484D01*
X7176730Y-8554484D02*
X7214825Y-8554484D01*
X7214825Y-8554484D02*
X7233872Y-8544960D01*
X7233872Y-8544960D02*
X7243396Y-8525912D01*
X7243396Y-8525912D02*
X7243396Y-8516389D01*
X7243396Y-8516389D02*
X7233872Y-8497341D01*
X7233872Y-8497341D02*
X7214825Y-8487817D01*
X7214825Y-8487817D02*
X7186253Y-8487817D01*
X7186253Y-8487817D02*
X7167206Y-8478293D01*
X7167206Y-8478293D02*
X7157682Y-8459246D01*
X7157682Y-8459246D02*
X7157682Y-8449722D01*
X7157682Y-8449722D02*
X7167206Y-8430674D01*
X7167206Y-8430674D02*
X7186253Y-8421150D01*
X7186253Y-8421150D02*
X7214825Y-8421150D01*
X7214825Y-8421150D02*
X7233872Y-8430674D01*
X7310063Y-8630674D02*
X7319587Y-8621150D01*
X7319587Y-8621150D02*
X7338634Y-8592579D01*
X7338634Y-8592579D02*
X7348158Y-8573531D01*
X7348158Y-8573531D02*
X7357682Y-8544960D01*
X7357682Y-8544960D02*
X7367206Y-8497341D01*
X7367206Y-8497341D02*
X7367206Y-8459246D01*
X7367206Y-8459246D02*
X7357682Y-8411627D01*
X7357682Y-8411627D02*
X7348158Y-8383055D01*
X7348158Y-8383055D02*
X7338634Y-8364008D01*
X7338634Y-8364008D02*
X7319587Y-8335436D01*
X7319587Y-8335436D02*
X7310063Y-8325912D01*
M02*
