G04 #@! TF.GenerationSoftware,KiCad,Pcbnew,(6.0.7)*
G04 #@! TF.CreationDate,2023-06-27T12:53:43-07:00*
G04 #@! TF.ProjectId,Power Supply Board Ground Systems,506f7765-7220-4537-9570-706c7920426f,rev?*
G04 #@! TF.SameCoordinates,Original*
G04 #@! TF.FileFunction,Legend,Bot*
G04 #@! TF.FilePolarity,Positive*
%FSLAX46Y46*%
G04 Gerber Fmt 4.6, Leading zero omitted, Abs format (unit mm)*
G04 Created by KiCad (PCBNEW (6.0.7)) date 2023-06-27 12:53:43*
%MOMM*%
%LPD*%
G01*
G04 APERTURE LIST*
%ADD10C,0.500000*%
%ADD11R,3.000000X3.000000*%
%ADD12C,6.400000*%
%ADD13C,3.600000*%
%ADD14R,2.200000X2.200000*%
%ADD15C,2.200000*%
G04 APERTURE END LIST*
D10*
X84588626Y-38911000D02*
X83160055Y-38911000D01*
X84874341Y-39768142D02*
X83874341Y-36768142D01*
X82874341Y-39768142D01*
X82017198Y-38911000D02*
X80588626Y-38911000D01*
X82302912Y-39768142D02*
X81302912Y-36768142D01*
X80302912Y-39768142D01*
X77588626Y-39768142D02*
X78588626Y-38339571D01*
X79302912Y-39768142D02*
X79302912Y-36768142D01*
X78160055Y-36768142D01*
X77874341Y-36911000D01*
X77731484Y-37053857D01*
X77588626Y-37339571D01*
X77588626Y-37768142D01*
X77731484Y-38053857D01*
X77874341Y-38196714D01*
X78160055Y-38339571D01*
X79302912Y-38339571D01*
X76302912Y-39768142D02*
X76302912Y-36768142D01*
X76302912Y-38196714D02*
X74588626Y-38196714D01*
X74588626Y-39768142D02*
X74588626Y-36768142D01*
X73160055Y-36768142D02*
X73160055Y-39196714D01*
X73017198Y-39482428D01*
X72874341Y-39625285D01*
X72588626Y-39768142D01*
X72017198Y-39768142D01*
X71731484Y-39625285D01*
X71588626Y-39482428D01*
X71445769Y-39196714D01*
X71445769Y-36768142D01*
X70160055Y-39625285D02*
X69731484Y-39768142D01*
X69017198Y-39768142D01*
X68731484Y-39625285D01*
X68588626Y-39482428D01*
X68445769Y-39196714D01*
X68445769Y-38911000D01*
X68588626Y-38625285D01*
X68731484Y-38482428D01*
X69017198Y-38339571D01*
X69588626Y-38196714D01*
X69874341Y-38053857D01*
X70017198Y-37911000D01*
X70160055Y-37625285D01*
X70160055Y-37339571D01*
X70017198Y-37053857D01*
X69874341Y-36911000D01*
X69588626Y-36768142D01*
X68874341Y-36768142D01*
X68445769Y-36911000D01*
X65160055Y-36768142D02*
X64445769Y-39768142D01*
X63874341Y-37625285D01*
X63302912Y-39768142D01*
X62588626Y-36768142D01*
X61445769Y-36768142D02*
X61445769Y-39196714D01*
X61302912Y-39482428D01*
X61160055Y-39625285D01*
X60874341Y-39768142D01*
X60302912Y-39768142D01*
X60017198Y-39625285D01*
X59874341Y-39482428D01*
X59731483Y-39196714D01*
X59731483Y-36768142D01*
X58588626Y-36768142D02*
X56588626Y-36768142D01*
X58588626Y-39768142D01*
X56588626Y-39768142D01*
X53160055Y-39768142D02*
X53160055Y-36768142D01*
X53160055Y-38196714D02*
X51445769Y-38196714D01*
X51445769Y-39768142D02*
X51445769Y-36768142D01*
X50017198Y-38196714D02*
X49017198Y-38196714D01*
X48588626Y-39768142D02*
X50017198Y-39768142D01*
X50017198Y-36768142D01*
X48588626Y-36768142D01*
X45588626Y-39768142D02*
X46588626Y-38339571D01*
X47302912Y-39768142D02*
X47302912Y-36768142D01*
X46160055Y-36768142D01*
X45874341Y-36911000D01*
X45731484Y-37053857D01*
X45588626Y-37339571D01*
X45588626Y-37768142D01*
X45731484Y-38053857D01*
X45874341Y-38196714D01*
X46160055Y-38339571D01*
X47302912Y-38339571D01*
X44302912Y-38196714D02*
X43302912Y-38196714D01*
X42874341Y-39768142D02*
X44302912Y-39768142D01*
X44302912Y-36768142D01*
X42874341Y-36768142D01*
%LPC*%
D11*
X44536342Y-43490000D03*
X44536342Y-48190000D03*
X44536342Y-52890000D03*
X75292110Y-43490000D03*
X75292110Y-48190000D03*
X75292110Y-52890000D03*
X52225284Y-43490000D03*
X52225284Y-48190000D03*
X52225284Y-52890000D03*
X36847400Y-43490000D03*
X36847400Y-48190000D03*
X36847400Y-52890000D03*
D12*
X96520000Y-57150000D03*
D13*
X96520000Y-57150000D03*
D14*
X75410000Y-30180000D03*
D15*
X72870000Y-30180000D03*
X70330000Y-30180000D03*
X67790000Y-30180000D03*
X65250000Y-30180000D03*
X62710000Y-30180000D03*
X60170000Y-30180000D03*
X57630000Y-30180000D03*
D14*
X63840000Y-59500000D03*
D15*
X66380000Y-59500000D03*
D13*
X30480000Y-57150000D03*
D12*
X30480000Y-57150000D03*
D11*
X90670000Y-43490000D03*
X90670000Y-48190000D03*
X90670000Y-52890000D03*
D12*
X96520000Y-31750000D03*
D13*
X96520000Y-31750000D03*
D11*
X82981052Y-43490000D03*
X82981052Y-48190000D03*
X82981052Y-52890000D03*
X67603168Y-43490000D03*
X67603168Y-48190000D03*
X67603168Y-52890000D03*
X59914226Y-43490000D03*
X59914226Y-48190000D03*
X59914226Y-52890000D03*
D12*
X30480000Y-31750000D03*
D13*
X30480000Y-31750000D03*
M02*
