G04 #@! TF.GenerationSoftware,KiCad,Pcbnew,7.0.7*
G04 #@! TF.CreationDate,2023-09-05T00:15:25-07:00*
G04 #@! TF.ProjectId,Power Supply Board Ground Systems V1.1,506f7765-7220-4537-9570-706c7920426f,rev?*
G04 #@! TF.SameCoordinates,Original*
G04 #@! TF.FileFunction,Soldermask,Top*
G04 #@! TF.FilePolarity,Negative*
%FSLAX46Y46*%
G04 Gerber Fmt 4.6, Leading zero omitted, Abs format (unit mm)*
G04 Created by KiCad (PCBNEW 7.0.7) date 2023-09-05 00:15:25*
%MOMM*%
%LPD*%
G01*
G04 APERTURE LIST*
G04 Aperture macros list*
%AMRoundRect*
0 Rectangle with rounded corners*
0 $1 Rounding radius*
0 $2 $3 $4 $5 $6 $7 $8 $9 X,Y pos of 4 corners*
0 Add a 4 corners polygon primitive as box body*
4,1,4,$2,$3,$4,$5,$6,$7,$8,$9,$2,$3,0*
0 Add four circle primitives for the rounded corners*
1,1,$1+$1,$2,$3*
1,1,$1+$1,$4,$5*
1,1,$1+$1,$6,$7*
1,1,$1+$1,$8,$9*
0 Add four rect primitives between the rounded corners*
20,1,$1+$1,$2,$3,$4,$5,0*
20,1,$1+$1,$4,$5,$6,$7,0*
20,1,$1+$1,$6,$7,$8,$9,0*
20,1,$1+$1,$8,$9,$2,$3,0*%
G04 Aperture macros list end*
%ADD10R,3.000000X3.000000*%
%ADD11RoundRect,0.243750X-0.456250X0.243750X-0.456250X-0.243750X0.456250X-0.243750X0.456250X0.243750X0*%
%ADD12RoundRect,0.200000X-0.200000X-0.275000X0.200000X-0.275000X0.200000X0.275000X-0.200000X0.275000X0*%
%ADD13C,3.600000*%
%ADD14C,6.400000*%
%ADD15RoundRect,0.243750X-0.243750X-0.456250X0.243750X-0.456250X0.243750X0.456250X-0.243750X0.456250X0*%
%ADD16R,2.025000X2.025000*%
%ADD17C,2.025000*%
G04 APERTURE END LIST*
D10*
X47330916Y-47289800D03*
X47330916Y-51989800D03*
X47330916Y-56689800D03*
X78086684Y-47289800D03*
X78086684Y-51989800D03*
X78086684Y-56689800D03*
D11*
X63066513Y-39398500D03*
X63066513Y-41273500D03*
D12*
X95501000Y-42799800D03*
X97151000Y-42799800D03*
D10*
X55019858Y-47289800D03*
X55019858Y-51989800D03*
X55019858Y-56689800D03*
D11*
X86144226Y-39398500D03*
X86144226Y-41273500D03*
D10*
X39641974Y-47289800D03*
X39641974Y-51989800D03*
X39641974Y-56689800D03*
D12*
X80108600Y-42799800D03*
X81758600Y-42799800D03*
X64716200Y-42799800D03*
X66366200Y-42799800D03*
X49323800Y-42799800D03*
X50973800Y-42799800D03*
D11*
X47681371Y-39398500D03*
X47681371Y-41273500D03*
D12*
X57020000Y-42799800D03*
X58670000Y-42799800D03*
D13*
X102870000Y-60325000D03*
D14*
X102870000Y-60325000D03*
D12*
X87804800Y-42799800D03*
X89454800Y-42799800D03*
X41627600Y-42799800D03*
X43277600Y-42799800D03*
D13*
X30480000Y-60325000D03*
D14*
X30480000Y-60325000D03*
D15*
X53092501Y-64720001D03*
X54967501Y-64720001D03*
D11*
X78451655Y-39398500D03*
X78451655Y-41273500D03*
D16*
X62590000Y-68260000D03*
D17*
X62590000Y-62760000D03*
X66090000Y-68260000D03*
X66090000Y-62760000D03*
D10*
X93464574Y-47289800D03*
X93464574Y-51989800D03*
X93464574Y-56689800D03*
D12*
X72412400Y-42799800D03*
X74062400Y-42799800D03*
D11*
X39988800Y-39398500D03*
X39988800Y-41273500D03*
D12*
X56575000Y-64710000D03*
X58225000Y-64710000D03*
D11*
X93836800Y-39398500D03*
X93836800Y-41273500D03*
D13*
X102870000Y-34925000D03*
D14*
X102870000Y-34925000D03*
D10*
X85775626Y-47289800D03*
X85775626Y-51989800D03*
X85775626Y-56689800D03*
X70397742Y-47289800D03*
X70397742Y-51989800D03*
X70397742Y-56689800D03*
D16*
X54025800Y-33756600D03*
D17*
X54025800Y-28256600D03*
X57525800Y-33756600D03*
X57525800Y-28256600D03*
X61025800Y-33756600D03*
X61025800Y-28256600D03*
X64525800Y-33756600D03*
X64525800Y-28256600D03*
X68025800Y-33756600D03*
X68025800Y-28256600D03*
X71525800Y-33756600D03*
X71525800Y-28256600D03*
X75025800Y-33756600D03*
X75025800Y-28256600D03*
X78525800Y-33756600D03*
X78525800Y-28256600D03*
D11*
X55373942Y-39398500D03*
X55373942Y-41273500D03*
D10*
X62708800Y-47289800D03*
X62708800Y-51989800D03*
X62708800Y-56689800D03*
D11*
X70759084Y-39398500D03*
X70759084Y-41273500D03*
D13*
X30480000Y-34925000D03*
D14*
X30480000Y-34925000D03*
M02*
