G04 #@! TF.GenerationSoftware,KiCad,Pcbnew,7.0.7*
G04 #@! TF.CreationDate,2023-09-05T00:15:25-07:00*
G04 #@! TF.ProjectId,Power Supply Board Ground Systems V1.1,506f7765-7220-4537-9570-706c7920426f,rev?*
G04 #@! TF.SameCoordinates,Original*
G04 #@! TF.FileFunction,Legend,Top*
G04 #@! TF.FilePolarity,Positive*
%FSLAX46Y46*%
G04 Gerber Fmt 4.6, Leading zero omitted, Abs format (unit mm)*
G04 Created by KiCad (PCBNEW 7.0.7) date 2023-09-05 00:15:25*
%MOMM*%
%LPD*%
G01*
G04 APERTURE LIST*
G04 Aperture macros list*
%AMRoundRect*
0 Rectangle with rounded corners*
0 $1 Rounding radius*
0 $2 $3 $4 $5 $6 $7 $8 $9 X,Y pos of 4 corners*
0 Add a 4 corners polygon primitive as box body*
4,1,4,$2,$3,$4,$5,$6,$7,$8,$9,$2,$3,0*
0 Add four circle primitives for the rounded corners*
1,1,$1+$1,$2,$3*
1,1,$1+$1,$4,$5*
1,1,$1+$1,$6,$7*
1,1,$1+$1,$8,$9*
0 Add four rect primitives between the rounded corners*
20,1,$1+$1,$2,$3,$4,$5,0*
20,1,$1+$1,$4,$5,$6,$7,0*
20,1,$1+$1,$6,$7,$8,$9,0*
20,1,$1+$1,$8,$9,$2,$3,0*%
G04 Aperture macros list end*
%ADD10C,0.100000*%
%ADD11C,0.300000*%
%ADD12C,0.150000*%
%ADD13C,0.125000*%
%ADD14C,0.120000*%
%ADD15C,0.200000*%
%ADD16R,3.000000X3.000000*%
%ADD17RoundRect,0.243750X-0.456250X0.243750X-0.456250X-0.243750X0.456250X-0.243750X0.456250X0.243750X0*%
%ADD18RoundRect,0.200000X-0.200000X-0.275000X0.200000X-0.275000X0.200000X0.275000X-0.200000X0.275000X0*%
%ADD19C,3.600000*%
%ADD20C,6.400000*%
%ADD21RoundRect,0.243750X-0.243750X-0.456250X0.243750X-0.456250X0.243750X0.456250X-0.243750X0.456250X0*%
%ADD22R,2.025000X2.025000*%
%ADD23C,2.025000*%
G04 APERTURE END LIST*
D10*
X54331333Y-25739264D02*
X54364666Y-25703550D01*
X54364666Y-25703550D02*
X54464666Y-25667835D01*
X54464666Y-25667835D02*
X54531333Y-25667835D01*
X54531333Y-25667835D02*
X54631333Y-25703550D01*
X54631333Y-25703550D02*
X54698000Y-25774978D01*
X54698000Y-25774978D02*
X54731333Y-25846407D01*
X54731333Y-25846407D02*
X54764666Y-25989264D01*
X54764666Y-25989264D02*
X54764666Y-26096407D01*
X54764666Y-26096407D02*
X54731333Y-26239264D01*
X54731333Y-26239264D02*
X54698000Y-26310692D01*
X54698000Y-26310692D02*
X54631333Y-26382121D01*
X54631333Y-26382121D02*
X54531333Y-26417835D01*
X54531333Y-26417835D02*
X54464666Y-26417835D01*
X54464666Y-26417835D02*
X54364666Y-26382121D01*
X54364666Y-26382121D02*
X54331333Y-26346407D01*
X54031333Y-25667835D02*
X54031333Y-26417835D01*
X54031333Y-26060692D02*
X53631333Y-26060692D01*
X53631333Y-25667835D02*
X53631333Y-26417835D01*
X52931333Y-25667835D02*
X53331333Y-25667835D01*
X53131333Y-25667835D02*
X53131333Y-26417835D01*
X53131333Y-26417835D02*
X53198000Y-26310692D01*
X53198000Y-26310692D02*
X53264667Y-26239264D01*
X53264667Y-26239264D02*
X53331333Y-26203550D01*
X61494133Y-25739264D02*
X61527466Y-25703550D01*
X61527466Y-25703550D02*
X61627466Y-25667835D01*
X61627466Y-25667835D02*
X61694133Y-25667835D01*
X61694133Y-25667835D02*
X61794133Y-25703550D01*
X61794133Y-25703550D02*
X61860800Y-25774978D01*
X61860800Y-25774978D02*
X61894133Y-25846407D01*
X61894133Y-25846407D02*
X61927466Y-25989264D01*
X61927466Y-25989264D02*
X61927466Y-26096407D01*
X61927466Y-26096407D02*
X61894133Y-26239264D01*
X61894133Y-26239264D02*
X61860800Y-26310692D01*
X61860800Y-26310692D02*
X61794133Y-26382121D01*
X61794133Y-26382121D02*
X61694133Y-26417835D01*
X61694133Y-26417835D02*
X61627466Y-26417835D01*
X61627466Y-26417835D02*
X61527466Y-26382121D01*
X61527466Y-26382121D02*
X61494133Y-26346407D01*
X61194133Y-25667835D02*
X61194133Y-26417835D01*
X61194133Y-26060692D02*
X60794133Y-26060692D01*
X60794133Y-25667835D02*
X60794133Y-26417835D01*
X60527467Y-26417835D02*
X60094133Y-26417835D01*
X60094133Y-26417835D02*
X60327467Y-26132121D01*
X60327467Y-26132121D02*
X60227467Y-26132121D01*
X60227467Y-26132121D02*
X60160800Y-26096407D01*
X60160800Y-26096407D02*
X60127467Y-26060692D01*
X60127467Y-26060692D02*
X60094133Y-25989264D01*
X60094133Y-25989264D02*
X60094133Y-25810692D01*
X60094133Y-25810692D02*
X60127467Y-25739264D01*
X60127467Y-25739264D02*
X60160800Y-25703550D01*
X60160800Y-25703550D02*
X60227467Y-25667835D01*
X60227467Y-25667835D02*
X60427467Y-25667835D01*
X60427467Y-25667835D02*
X60494133Y-25703550D01*
X60494133Y-25703550D02*
X60527467Y-25739264D01*
D11*
X76673570Y-69063328D02*
X76673570Y-67563328D01*
X76673570Y-67563328D02*
X77244999Y-67563328D01*
X77244999Y-67563328D02*
X77387856Y-67634757D01*
X77387856Y-67634757D02*
X77459285Y-67706185D01*
X77459285Y-67706185D02*
X77530713Y-67849042D01*
X77530713Y-67849042D02*
X77530713Y-68063328D01*
X77530713Y-68063328D02*
X77459285Y-68206185D01*
X77459285Y-68206185D02*
X77387856Y-68277614D01*
X77387856Y-68277614D02*
X77244999Y-68349042D01*
X77244999Y-68349042D02*
X76673570Y-68349042D01*
X78459285Y-67563328D02*
X78744999Y-67563328D01*
X78744999Y-67563328D02*
X78887856Y-67634757D01*
X78887856Y-67634757D02*
X79030713Y-67777614D01*
X79030713Y-67777614D02*
X79102142Y-68063328D01*
X79102142Y-68063328D02*
X79102142Y-68563328D01*
X79102142Y-68563328D02*
X79030713Y-68849042D01*
X79030713Y-68849042D02*
X78887856Y-68991900D01*
X78887856Y-68991900D02*
X78744999Y-69063328D01*
X78744999Y-69063328D02*
X78459285Y-69063328D01*
X78459285Y-69063328D02*
X78316428Y-68991900D01*
X78316428Y-68991900D02*
X78173570Y-68849042D01*
X78173570Y-68849042D02*
X78102142Y-68563328D01*
X78102142Y-68563328D02*
X78102142Y-68063328D01*
X78102142Y-68063328D02*
X78173570Y-67777614D01*
X78173570Y-67777614D02*
X78316428Y-67634757D01*
X78316428Y-67634757D02*
X78459285Y-67563328D01*
X79602142Y-67563328D02*
X79959285Y-69063328D01*
X79959285Y-69063328D02*
X80244999Y-67991900D01*
X80244999Y-67991900D02*
X80530714Y-69063328D01*
X80530714Y-69063328D02*
X80887857Y-67563328D01*
X81459285Y-68277614D02*
X81959285Y-68277614D01*
X82173571Y-69063328D02*
X81459285Y-69063328D01*
X81459285Y-69063328D02*
X81459285Y-67563328D01*
X81459285Y-67563328D02*
X82173571Y-67563328D01*
X83673571Y-69063328D02*
X83173571Y-68349042D01*
X82816428Y-69063328D02*
X82816428Y-67563328D01*
X82816428Y-67563328D02*
X83387857Y-67563328D01*
X83387857Y-67563328D02*
X83530714Y-67634757D01*
X83530714Y-67634757D02*
X83602143Y-67706185D01*
X83602143Y-67706185D02*
X83673571Y-67849042D01*
X83673571Y-67849042D02*
X83673571Y-68063328D01*
X83673571Y-68063328D02*
X83602143Y-68206185D01*
X83602143Y-68206185D02*
X83530714Y-68277614D01*
X83530714Y-68277614D02*
X83387857Y-68349042D01*
X83387857Y-68349042D02*
X82816428Y-68349042D01*
X85459285Y-69063328D02*
X85459285Y-67563328D01*
X85459285Y-67563328D02*
X85816428Y-67563328D01*
X85816428Y-67563328D02*
X86030714Y-67634757D01*
X86030714Y-67634757D02*
X86173571Y-67777614D01*
X86173571Y-67777614D02*
X86245000Y-67920471D01*
X86245000Y-67920471D02*
X86316428Y-68206185D01*
X86316428Y-68206185D02*
X86316428Y-68420471D01*
X86316428Y-68420471D02*
X86245000Y-68706185D01*
X86245000Y-68706185D02*
X86173571Y-68849042D01*
X86173571Y-68849042D02*
X86030714Y-68991900D01*
X86030714Y-68991900D02*
X85816428Y-69063328D01*
X85816428Y-69063328D02*
X85459285Y-69063328D01*
X86959285Y-69063328D02*
X86959285Y-67563328D01*
X87459286Y-67563328D02*
X87959286Y-69063328D01*
X87959286Y-69063328D02*
X88459286Y-67563328D01*
X88959285Y-69063328D02*
X88959285Y-67563328D01*
X89673571Y-69063328D02*
X89673571Y-67563328D01*
X89673571Y-67563328D02*
X90030714Y-67563328D01*
X90030714Y-67563328D02*
X90245000Y-67634757D01*
X90245000Y-67634757D02*
X90387857Y-67777614D01*
X90387857Y-67777614D02*
X90459286Y-67920471D01*
X90459286Y-67920471D02*
X90530714Y-68206185D01*
X90530714Y-68206185D02*
X90530714Y-68420471D01*
X90530714Y-68420471D02*
X90459286Y-68706185D01*
X90459286Y-68706185D02*
X90387857Y-68849042D01*
X90387857Y-68849042D02*
X90245000Y-68991900D01*
X90245000Y-68991900D02*
X90030714Y-69063328D01*
X90030714Y-69063328D02*
X89673571Y-69063328D01*
X91173571Y-68277614D02*
X91673571Y-68277614D01*
X91887857Y-69063328D02*
X91173571Y-69063328D01*
X91173571Y-69063328D02*
X91173571Y-67563328D01*
X91173571Y-67563328D02*
X91887857Y-67563328D01*
X93387857Y-69063328D02*
X92887857Y-68349042D01*
X92530714Y-69063328D02*
X92530714Y-67563328D01*
X92530714Y-67563328D02*
X93102143Y-67563328D01*
X93102143Y-67563328D02*
X93245000Y-67634757D01*
X93245000Y-67634757D02*
X93316429Y-67706185D01*
X93316429Y-67706185D02*
X93387857Y-67849042D01*
X93387857Y-67849042D02*
X93387857Y-68063328D01*
X93387857Y-68063328D02*
X93316429Y-68206185D01*
X93316429Y-68206185D02*
X93245000Y-68277614D01*
X93245000Y-68277614D02*
X93102143Y-68349042D01*
X93102143Y-68349042D02*
X92530714Y-68349042D01*
X37098570Y-68988328D02*
X37098570Y-67488328D01*
X37098570Y-67488328D02*
X37669999Y-67488328D01*
X37669999Y-67488328D02*
X37812856Y-67559757D01*
X37812856Y-67559757D02*
X37884285Y-67631185D01*
X37884285Y-67631185D02*
X37955713Y-67774042D01*
X37955713Y-67774042D02*
X37955713Y-67988328D01*
X37955713Y-67988328D02*
X37884285Y-68131185D01*
X37884285Y-68131185D02*
X37812856Y-68202614D01*
X37812856Y-68202614D02*
X37669999Y-68274042D01*
X37669999Y-68274042D02*
X37098570Y-68274042D01*
X38884285Y-67488328D02*
X39169999Y-67488328D01*
X39169999Y-67488328D02*
X39312856Y-67559757D01*
X39312856Y-67559757D02*
X39455713Y-67702614D01*
X39455713Y-67702614D02*
X39527142Y-67988328D01*
X39527142Y-67988328D02*
X39527142Y-68488328D01*
X39527142Y-68488328D02*
X39455713Y-68774042D01*
X39455713Y-68774042D02*
X39312856Y-68916900D01*
X39312856Y-68916900D02*
X39169999Y-68988328D01*
X39169999Y-68988328D02*
X38884285Y-68988328D01*
X38884285Y-68988328D02*
X38741428Y-68916900D01*
X38741428Y-68916900D02*
X38598570Y-68774042D01*
X38598570Y-68774042D02*
X38527142Y-68488328D01*
X38527142Y-68488328D02*
X38527142Y-67988328D01*
X38527142Y-67988328D02*
X38598570Y-67702614D01*
X38598570Y-67702614D02*
X38741428Y-67559757D01*
X38741428Y-67559757D02*
X38884285Y-67488328D01*
X40027142Y-67488328D02*
X40384285Y-68988328D01*
X40384285Y-68988328D02*
X40669999Y-67916900D01*
X40669999Y-67916900D02*
X40955714Y-68988328D01*
X40955714Y-68988328D02*
X41312857Y-67488328D01*
X41884285Y-68202614D02*
X42384285Y-68202614D01*
X42598571Y-68988328D02*
X41884285Y-68988328D01*
X41884285Y-68988328D02*
X41884285Y-67488328D01*
X41884285Y-67488328D02*
X42598571Y-67488328D01*
X44098571Y-68988328D02*
X43598571Y-68274042D01*
X43241428Y-68988328D02*
X43241428Y-67488328D01*
X43241428Y-67488328D02*
X43812857Y-67488328D01*
X43812857Y-67488328D02*
X43955714Y-67559757D01*
X43955714Y-67559757D02*
X44027143Y-67631185D01*
X44027143Y-67631185D02*
X44098571Y-67774042D01*
X44098571Y-67774042D02*
X44098571Y-67988328D01*
X44098571Y-67988328D02*
X44027143Y-68131185D01*
X44027143Y-68131185D02*
X43955714Y-68202614D01*
X43955714Y-68202614D02*
X43812857Y-68274042D01*
X43812857Y-68274042D02*
X43241428Y-68274042D01*
X45884285Y-68988328D02*
X45884285Y-67488328D01*
X45884285Y-67488328D02*
X46241428Y-67488328D01*
X46241428Y-67488328D02*
X46455714Y-67559757D01*
X46455714Y-67559757D02*
X46598571Y-67702614D01*
X46598571Y-67702614D02*
X46670000Y-67845471D01*
X46670000Y-67845471D02*
X46741428Y-68131185D01*
X46741428Y-68131185D02*
X46741428Y-68345471D01*
X46741428Y-68345471D02*
X46670000Y-68631185D01*
X46670000Y-68631185D02*
X46598571Y-68774042D01*
X46598571Y-68774042D02*
X46455714Y-68916900D01*
X46455714Y-68916900D02*
X46241428Y-68988328D01*
X46241428Y-68988328D02*
X45884285Y-68988328D01*
X47384285Y-68988328D02*
X47384285Y-67488328D01*
X47884286Y-67488328D02*
X48384286Y-68988328D01*
X48384286Y-68988328D02*
X48884286Y-67488328D01*
X49384285Y-68988328D02*
X49384285Y-67488328D01*
X50098571Y-68988328D02*
X50098571Y-67488328D01*
X50098571Y-67488328D02*
X50455714Y-67488328D01*
X50455714Y-67488328D02*
X50670000Y-67559757D01*
X50670000Y-67559757D02*
X50812857Y-67702614D01*
X50812857Y-67702614D02*
X50884286Y-67845471D01*
X50884286Y-67845471D02*
X50955714Y-68131185D01*
X50955714Y-68131185D02*
X50955714Y-68345471D01*
X50955714Y-68345471D02*
X50884286Y-68631185D01*
X50884286Y-68631185D02*
X50812857Y-68774042D01*
X50812857Y-68774042D02*
X50670000Y-68916900D01*
X50670000Y-68916900D02*
X50455714Y-68988328D01*
X50455714Y-68988328D02*
X50098571Y-68988328D01*
X51598571Y-68202614D02*
X52098571Y-68202614D01*
X52312857Y-68988328D02*
X51598571Y-68988328D01*
X51598571Y-68988328D02*
X51598571Y-67488328D01*
X51598571Y-67488328D02*
X52312857Y-67488328D01*
X53812857Y-68988328D02*
X53312857Y-68274042D01*
X52955714Y-68988328D02*
X52955714Y-67488328D01*
X52955714Y-67488328D02*
X53527143Y-67488328D01*
X53527143Y-67488328D02*
X53670000Y-67559757D01*
X53670000Y-67559757D02*
X53741429Y-67631185D01*
X53741429Y-67631185D02*
X53812857Y-67774042D01*
X53812857Y-67774042D02*
X53812857Y-67988328D01*
X53812857Y-67988328D02*
X53741429Y-68131185D01*
X53741429Y-68131185D02*
X53670000Y-68202614D01*
X53670000Y-68202614D02*
X53527143Y-68274042D01*
X53527143Y-68274042D02*
X52955714Y-68274042D01*
D10*
X65075533Y-25739264D02*
X65108866Y-25703550D01*
X65108866Y-25703550D02*
X65208866Y-25667835D01*
X65208866Y-25667835D02*
X65275533Y-25667835D01*
X65275533Y-25667835D02*
X65375533Y-25703550D01*
X65375533Y-25703550D02*
X65442200Y-25774978D01*
X65442200Y-25774978D02*
X65475533Y-25846407D01*
X65475533Y-25846407D02*
X65508866Y-25989264D01*
X65508866Y-25989264D02*
X65508866Y-26096407D01*
X65508866Y-26096407D02*
X65475533Y-26239264D01*
X65475533Y-26239264D02*
X65442200Y-26310692D01*
X65442200Y-26310692D02*
X65375533Y-26382121D01*
X65375533Y-26382121D02*
X65275533Y-26417835D01*
X65275533Y-26417835D02*
X65208866Y-26417835D01*
X65208866Y-26417835D02*
X65108866Y-26382121D01*
X65108866Y-26382121D02*
X65075533Y-26346407D01*
X64775533Y-25667835D02*
X64775533Y-26417835D01*
X64775533Y-26060692D02*
X64375533Y-26060692D01*
X64375533Y-25667835D02*
X64375533Y-26417835D01*
X63742200Y-26167835D02*
X63742200Y-25667835D01*
X63908867Y-26453550D02*
X64075533Y-25917835D01*
X64075533Y-25917835D02*
X63642200Y-25917835D01*
X57912733Y-25739264D02*
X57946066Y-25703550D01*
X57946066Y-25703550D02*
X58046066Y-25667835D01*
X58046066Y-25667835D02*
X58112733Y-25667835D01*
X58112733Y-25667835D02*
X58212733Y-25703550D01*
X58212733Y-25703550D02*
X58279400Y-25774978D01*
X58279400Y-25774978D02*
X58312733Y-25846407D01*
X58312733Y-25846407D02*
X58346066Y-25989264D01*
X58346066Y-25989264D02*
X58346066Y-26096407D01*
X58346066Y-26096407D02*
X58312733Y-26239264D01*
X58312733Y-26239264D02*
X58279400Y-26310692D01*
X58279400Y-26310692D02*
X58212733Y-26382121D01*
X58212733Y-26382121D02*
X58112733Y-26417835D01*
X58112733Y-26417835D02*
X58046066Y-26417835D01*
X58046066Y-26417835D02*
X57946066Y-26382121D01*
X57946066Y-26382121D02*
X57912733Y-26346407D01*
X57612733Y-25667835D02*
X57612733Y-26417835D01*
X57612733Y-26060692D02*
X57212733Y-26060692D01*
X57212733Y-25667835D02*
X57212733Y-26417835D01*
X56912733Y-26346407D02*
X56879400Y-26382121D01*
X56879400Y-26382121D02*
X56812733Y-26417835D01*
X56812733Y-26417835D02*
X56646067Y-26417835D01*
X56646067Y-26417835D02*
X56579400Y-26382121D01*
X56579400Y-26382121D02*
X56546067Y-26346407D01*
X56546067Y-26346407D02*
X56512733Y-26274978D01*
X56512733Y-26274978D02*
X56512733Y-26203550D01*
X56512733Y-26203550D02*
X56546067Y-26096407D01*
X56546067Y-26096407D02*
X56946067Y-25667835D01*
X56946067Y-25667835D02*
X56512733Y-25667835D01*
D12*
X56246667Y-68824819D02*
X56246667Y-67824819D01*
X56246667Y-67824819D02*
X56627619Y-67824819D01*
X56627619Y-67824819D02*
X56722857Y-67872438D01*
X56722857Y-67872438D02*
X56770476Y-67920057D01*
X56770476Y-67920057D02*
X56818095Y-68015295D01*
X56818095Y-68015295D02*
X56818095Y-68158152D01*
X56818095Y-68158152D02*
X56770476Y-68253390D01*
X56770476Y-68253390D02*
X56722857Y-68301009D01*
X56722857Y-68301009D02*
X56627619Y-68348628D01*
X56627619Y-68348628D02*
X56246667Y-68348628D01*
X57151429Y-67824819D02*
X57389524Y-68824819D01*
X57389524Y-68824819D02*
X57580000Y-68110533D01*
X57580000Y-68110533D02*
X57770476Y-68824819D01*
X57770476Y-68824819D02*
X58008572Y-67824819D01*
X58960952Y-68824819D02*
X58627619Y-68348628D01*
X58389524Y-68824819D02*
X58389524Y-67824819D01*
X58389524Y-67824819D02*
X58770476Y-67824819D01*
X58770476Y-67824819D02*
X58865714Y-67872438D01*
X58865714Y-67872438D02*
X58913333Y-67920057D01*
X58913333Y-67920057D02*
X58960952Y-68015295D01*
X58960952Y-68015295D02*
X58960952Y-68158152D01*
X58960952Y-68158152D02*
X58913333Y-68253390D01*
X58913333Y-68253390D02*
X58865714Y-68301009D01*
X58865714Y-68301009D02*
X58770476Y-68348628D01*
X58770476Y-68348628D02*
X58389524Y-68348628D01*
X73228095Y-67872438D02*
X73132857Y-67824819D01*
X73132857Y-67824819D02*
X72990000Y-67824819D01*
X72990000Y-67824819D02*
X72847143Y-67872438D01*
X72847143Y-67872438D02*
X72751905Y-67967676D01*
X72751905Y-67967676D02*
X72704286Y-68062914D01*
X72704286Y-68062914D02*
X72656667Y-68253390D01*
X72656667Y-68253390D02*
X72656667Y-68396247D01*
X72656667Y-68396247D02*
X72704286Y-68586723D01*
X72704286Y-68586723D02*
X72751905Y-68681961D01*
X72751905Y-68681961D02*
X72847143Y-68777200D01*
X72847143Y-68777200D02*
X72990000Y-68824819D01*
X72990000Y-68824819D02*
X73085238Y-68824819D01*
X73085238Y-68824819D02*
X73228095Y-68777200D01*
X73228095Y-68777200D02*
X73275714Y-68729580D01*
X73275714Y-68729580D02*
X73275714Y-68396247D01*
X73275714Y-68396247D02*
X73085238Y-68396247D01*
X73704286Y-68824819D02*
X73704286Y-67824819D01*
X73704286Y-67824819D02*
X74275714Y-68824819D01*
X74275714Y-68824819D02*
X74275714Y-67824819D01*
X74751905Y-68824819D02*
X74751905Y-67824819D01*
X74751905Y-67824819D02*
X74990000Y-67824819D01*
X74990000Y-67824819D02*
X75132857Y-67872438D01*
X75132857Y-67872438D02*
X75228095Y-67967676D01*
X75228095Y-67967676D02*
X75275714Y-68062914D01*
X75275714Y-68062914D02*
X75323333Y-68253390D01*
X75323333Y-68253390D02*
X75323333Y-68396247D01*
X75323333Y-68396247D02*
X75275714Y-68586723D01*
X75275714Y-68586723D02*
X75228095Y-68681961D01*
X75228095Y-68681961D02*
X75132857Y-68777200D01*
X75132857Y-68777200D02*
X74990000Y-68824819D01*
X74990000Y-68824819D02*
X74751905Y-68824819D01*
D11*
X94349999Y-29317742D02*
X93778571Y-29317742D01*
X93778571Y-29317742D02*
X93492856Y-29174885D01*
X93492856Y-29174885D02*
X93207142Y-28889171D01*
X93207142Y-28889171D02*
X93064285Y-28317742D01*
X93064285Y-28317742D02*
X93064285Y-27317742D01*
X93064285Y-27317742D02*
X93207142Y-26746314D01*
X93207142Y-26746314D02*
X93492856Y-26460600D01*
X93492856Y-26460600D02*
X93778571Y-26317742D01*
X93778571Y-26317742D02*
X94349999Y-26317742D01*
X94349999Y-26317742D02*
X94635714Y-26460600D01*
X94635714Y-26460600D02*
X94921428Y-26746314D01*
X94921428Y-26746314D02*
X95064285Y-27317742D01*
X95064285Y-27317742D02*
X95064285Y-28317742D01*
X95064285Y-28317742D02*
X94921428Y-28889171D01*
X94921428Y-28889171D02*
X94635714Y-29174885D01*
X94635714Y-29174885D02*
X94349999Y-29317742D01*
X91778571Y-29317742D02*
X91778571Y-26889171D01*
X91778571Y-26889171D02*
X91635714Y-26603457D01*
X91635714Y-26603457D02*
X91492857Y-26460600D01*
X91492857Y-26460600D02*
X91207142Y-26317742D01*
X91207142Y-26317742D02*
X90635714Y-26317742D01*
X90635714Y-26317742D02*
X90349999Y-26460600D01*
X90349999Y-26460600D02*
X90207142Y-26603457D01*
X90207142Y-26603457D02*
X90064285Y-26889171D01*
X90064285Y-26889171D02*
X90064285Y-29317742D01*
X89064285Y-29317742D02*
X87350000Y-29317742D01*
X88207142Y-26317742D02*
X88207142Y-29317742D01*
X91628571Y-65182257D02*
X91628571Y-62182257D01*
X93057142Y-65182257D02*
X93057142Y-62182257D01*
X93057142Y-62182257D02*
X94771428Y-65182257D01*
X94771428Y-65182257D02*
X94771428Y-62182257D01*
D10*
X68656933Y-25739264D02*
X68690266Y-25703550D01*
X68690266Y-25703550D02*
X68790266Y-25667835D01*
X68790266Y-25667835D02*
X68856933Y-25667835D01*
X68856933Y-25667835D02*
X68956933Y-25703550D01*
X68956933Y-25703550D02*
X69023600Y-25774978D01*
X69023600Y-25774978D02*
X69056933Y-25846407D01*
X69056933Y-25846407D02*
X69090266Y-25989264D01*
X69090266Y-25989264D02*
X69090266Y-26096407D01*
X69090266Y-26096407D02*
X69056933Y-26239264D01*
X69056933Y-26239264D02*
X69023600Y-26310692D01*
X69023600Y-26310692D02*
X68956933Y-26382121D01*
X68956933Y-26382121D02*
X68856933Y-26417835D01*
X68856933Y-26417835D02*
X68790266Y-26417835D01*
X68790266Y-26417835D02*
X68690266Y-26382121D01*
X68690266Y-26382121D02*
X68656933Y-26346407D01*
X68356933Y-25667835D02*
X68356933Y-26417835D01*
X68356933Y-26060692D02*
X67956933Y-26060692D01*
X67956933Y-25667835D02*
X67956933Y-26417835D01*
X67290267Y-26417835D02*
X67623600Y-26417835D01*
X67623600Y-26417835D02*
X67656933Y-26060692D01*
X67656933Y-26060692D02*
X67623600Y-26096407D01*
X67623600Y-26096407D02*
X67556933Y-26132121D01*
X67556933Y-26132121D02*
X67390267Y-26132121D01*
X67390267Y-26132121D02*
X67323600Y-26096407D01*
X67323600Y-26096407D02*
X67290267Y-26060692D01*
X67290267Y-26060692D02*
X67256933Y-25989264D01*
X67256933Y-25989264D02*
X67256933Y-25810692D01*
X67256933Y-25810692D02*
X67290267Y-25739264D01*
X67290267Y-25739264D02*
X67323600Y-25703550D01*
X67323600Y-25703550D02*
X67390267Y-25667835D01*
X67390267Y-25667835D02*
X67556933Y-25667835D01*
X67556933Y-25667835D02*
X67623600Y-25703550D01*
X67623600Y-25703550D02*
X67656933Y-25739264D01*
D11*
X37888571Y-65182257D02*
X37888571Y-62182257D01*
X39317142Y-65182257D02*
X39317142Y-62182257D01*
X39317142Y-62182257D02*
X41031428Y-65182257D01*
X41031428Y-65182257D02*
X41031428Y-62182257D01*
D10*
X75819733Y-25739264D02*
X75853066Y-25703550D01*
X75853066Y-25703550D02*
X75953066Y-25667835D01*
X75953066Y-25667835D02*
X76019733Y-25667835D01*
X76019733Y-25667835D02*
X76119733Y-25703550D01*
X76119733Y-25703550D02*
X76186400Y-25774978D01*
X76186400Y-25774978D02*
X76219733Y-25846407D01*
X76219733Y-25846407D02*
X76253066Y-25989264D01*
X76253066Y-25989264D02*
X76253066Y-26096407D01*
X76253066Y-26096407D02*
X76219733Y-26239264D01*
X76219733Y-26239264D02*
X76186400Y-26310692D01*
X76186400Y-26310692D02*
X76119733Y-26382121D01*
X76119733Y-26382121D02*
X76019733Y-26417835D01*
X76019733Y-26417835D02*
X75953066Y-26417835D01*
X75953066Y-26417835D02*
X75853066Y-26382121D01*
X75853066Y-26382121D02*
X75819733Y-26346407D01*
X75519733Y-25667835D02*
X75519733Y-26417835D01*
X75519733Y-26060692D02*
X75119733Y-26060692D01*
X75119733Y-25667835D02*
X75119733Y-26417835D01*
X74853067Y-26417835D02*
X74386400Y-26417835D01*
X74386400Y-26417835D02*
X74686400Y-25667835D01*
X79401133Y-25739264D02*
X79434466Y-25703550D01*
X79434466Y-25703550D02*
X79534466Y-25667835D01*
X79534466Y-25667835D02*
X79601133Y-25667835D01*
X79601133Y-25667835D02*
X79701133Y-25703550D01*
X79701133Y-25703550D02*
X79767800Y-25774978D01*
X79767800Y-25774978D02*
X79801133Y-25846407D01*
X79801133Y-25846407D02*
X79834466Y-25989264D01*
X79834466Y-25989264D02*
X79834466Y-26096407D01*
X79834466Y-26096407D02*
X79801133Y-26239264D01*
X79801133Y-26239264D02*
X79767800Y-26310692D01*
X79767800Y-26310692D02*
X79701133Y-26382121D01*
X79701133Y-26382121D02*
X79601133Y-26417835D01*
X79601133Y-26417835D02*
X79534466Y-26417835D01*
X79534466Y-26417835D02*
X79434466Y-26382121D01*
X79434466Y-26382121D02*
X79401133Y-26346407D01*
X79101133Y-25667835D02*
X79101133Y-26417835D01*
X79101133Y-26060692D02*
X78701133Y-26060692D01*
X78701133Y-25667835D02*
X78701133Y-26417835D01*
X78267800Y-26096407D02*
X78334467Y-26132121D01*
X78334467Y-26132121D02*
X78367800Y-26167835D01*
X78367800Y-26167835D02*
X78401133Y-26239264D01*
X78401133Y-26239264D02*
X78401133Y-26274978D01*
X78401133Y-26274978D02*
X78367800Y-26346407D01*
X78367800Y-26346407D02*
X78334467Y-26382121D01*
X78334467Y-26382121D02*
X78267800Y-26417835D01*
X78267800Y-26417835D02*
X78134467Y-26417835D01*
X78134467Y-26417835D02*
X78067800Y-26382121D01*
X78067800Y-26382121D02*
X78034467Y-26346407D01*
X78034467Y-26346407D02*
X78001133Y-26274978D01*
X78001133Y-26274978D02*
X78001133Y-26239264D01*
X78001133Y-26239264D02*
X78034467Y-26167835D01*
X78034467Y-26167835D02*
X78067800Y-26132121D01*
X78067800Y-26132121D02*
X78134467Y-26096407D01*
X78134467Y-26096407D02*
X78267800Y-26096407D01*
X78267800Y-26096407D02*
X78334467Y-26060692D01*
X78334467Y-26060692D02*
X78367800Y-26024978D01*
X78367800Y-26024978D02*
X78401133Y-25953550D01*
X78401133Y-25953550D02*
X78401133Y-25810692D01*
X78401133Y-25810692D02*
X78367800Y-25739264D01*
X78367800Y-25739264D02*
X78334467Y-25703550D01*
X78334467Y-25703550D02*
X78267800Y-25667835D01*
X78267800Y-25667835D02*
X78134467Y-25667835D01*
X78134467Y-25667835D02*
X78067800Y-25703550D01*
X78067800Y-25703550D02*
X78034467Y-25739264D01*
X78034467Y-25739264D02*
X78001133Y-25810692D01*
X78001133Y-25810692D02*
X78001133Y-25953550D01*
X78001133Y-25953550D02*
X78034467Y-26024978D01*
X78034467Y-26024978D02*
X78067800Y-26060692D01*
X78067800Y-26060692D02*
X78134467Y-26096407D01*
D11*
X44999999Y-29317742D02*
X44428571Y-29317742D01*
X44428571Y-29317742D02*
X44142856Y-29174885D01*
X44142856Y-29174885D02*
X43857142Y-28889171D01*
X43857142Y-28889171D02*
X43714285Y-28317742D01*
X43714285Y-28317742D02*
X43714285Y-27317742D01*
X43714285Y-27317742D02*
X43857142Y-26746314D01*
X43857142Y-26746314D02*
X44142856Y-26460600D01*
X44142856Y-26460600D02*
X44428571Y-26317742D01*
X44428571Y-26317742D02*
X44999999Y-26317742D01*
X44999999Y-26317742D02*
X45285714Y-26460600D01*
X45285714Y-26460600D02*
X45571428Y-26746314D01*
X45571428Y-26746314D02*
X45714285Y-27317742D01*
X45714285Y-27317742D02*
X45714285Y-28317742D01*
X45714285Y-28317742D02*
X45571428Y-28889171D01*
X45571428Y-28889171D02*
X45285714Y-29174885D01*
X45285714Y-29174885D02*
X44999999Y-29317742D01*
X42428571Y-29317742D02*
X42428571Y-26889171D01*
X42428571Y-26889171D02*
X42285714Y-26603457D01*
X42285714Y-26603457D02*
X42142857Y-26460600D01*
X42142857Y-26460600D02*
X41857142Y-26317742D01*
X41857142Y-26317742D02*
X41285714Y-26317742D01*
X41285714Y-26317742D02*
X40999999Y-26460600D01*
X40999999Y-26460600D02*
X40857142Y-26603457D01*
X40857142Y-26603457D02*
X40714285Y-26889171D01*
X40714285Y-26889171D02*
X40714285Y-29317742D01*
X39714285Y-29317742D02*
X38000000Y-29317742D01*
X38857142Y-26317742D02*
X38857142Y-29317742D01*
D10*
X72238333Y-25739264D02*
X72271666Y-25703550D01*
X72271666Y-25703550D02*
X72371666Y-25667835D01*
X72371666Y-25667835D02*
X72438333Y-25667835D01*
X72438333Y-25667835D02*
X72538333Y-25703550D01*
X72538333Y-25703550D02*
X72605000Y-25774978D01*
X72605000Y-25774978D02*
X72638333Y-25846407D01*
X72638333Y-25846407D02*
X72671666Y-25989264D01*
X72671666Y-25989264D02*
X72671666Y-26096407D01*
X72671666Y-26096407D02*
X72638333Y-26239264D01*
X72638333Y-26239264D02*
X72605000Y-26310692D01*
X72605000Y-26310692D02*
X72538333Y-26382121D01*
X72538333Y-26382121D02*
X72438333Y-26417835D01*
X72438333Y-26417835D02*
X72371666Y-26417835D01*
X72371666Y-26417835D02*
X72271666Y-26382121D01*
X72271666Y-26382121D02*
X72238333Y-26346407D01*
X71938333Y-25667835D02*
X71938333Y-26417835D01*
X71938333Y-26060692D02*
X71538333Y-26060692D01*
X71538333Y-25667835D02*
X71538333Y-26417835D01*
X70905000Y-26417835D02*
X71038333Y-26417835D01*
X71038333Y-26417835D02*
X71105000Y-26382121D01*
X71105000Y-26382121D02*
X71138333Y-26346407D01*
X71138333Y-26346407D02*
X71205000Y-26239264D01*
X71205000Y-26239264D02*
X71238333Y-26096407D01*
X71238333Y-26096407D02*
X71238333Y-25810692D01*
X71238333Y-25810692D02*
X71205000Y-25739264D01*
X71205000Y-25739264D02*
X71171667Y-25703550D01*
X71171667Y-25703550D02*
X71105000Y-25667835D01*
X71105000Y-25667835D02*
X70971667Y-25667835D01*
X70971667Y-25667835D02*
X70905000Y-25703550D01*
X70905000Y-25703550D02*
X70871667Y-25739264D01*
X70871667Y-25739264D02*
X70838333Y-25810692D01*
X70838333Y-25810692D02*
X70838333Y-25989264D01*
X70838333Y-25989264D02*
X70871667Y-26060692D01*
X70871667Y-26060692D02*
X70905000Y-26096407D01*
X70905000Y-26096407D02*
X70971667Y-26132121D01*
X70971667Y-26132121D02*
X71105000Y-26132121D01*
X71105000Y-26132121D02*
X71171667Y-26096407D01*
X71171667Y-26096407D02*
X71205000Y-26060692D01*
X71205000Y-26060692D02*
X71238333Y-25989264D01*
D12*
X45997583Y-45197000D02*
X46140440Y-45244619D01*
X46140440Y-45244619D02*
X46378535Y-45244619D01*
X46378535Y-45244619D02*
X46473773Y-45197000D01*
X46473773Y-45197000D02*
X46521392Y-45149380D01*
X46521392Y-45149380D02*
X46569011Y-45054142D01*
X46569011Y-45054142D02*
X46569011Y-44958904D01*
X46569011Y-44958904D02*
X46521392Y-44863666D01*
X46521392Y-44863666D02*
X46473773Y-44816047D01*
X46473773Y-44816047D02*
X46378535Y-44768428D01*
X46378535Y-44768428D02*
X46188059Y-44720809D01*
X46188059Y-44720809D02*
X46092821Y-44673190D01*
X46092821Y-44673190D02*
X46045202Y-44625571D01*
X46045202Y-44625571D02*
X45997583Y-44530333D01*
X45997583Y-44530333D02*
X45997583Y-44435095D01*
X45997583Y-44435095D02*
X46045202Y-44339857D01*
X46045202Y-44339857D02*
X46092821Y-44292238D01*
X46092821Y-44292238D02*
X46188059Y-44244619D01*
X46188059Y-44244619D02*
X46426154Y-44244619D01*
X46426154Y-44244619D02*
X46569011Y-44292238D01*
X46902345Y-44244619D02*
X47140440Y-45244619D01*
X47140440Y-45244619D02*
X47330916Y-44530333D01*
X47330916Y-44530333D02*
X47521392Y-45244619D01*
X47521392Y-45244619D02*
X47759488Y-44244619D01*
X48092821Y-44339857D02*
X48140440Y-44292238D01*
X48140440Y-44292238D02*
X48235678Y-44244619D01*
X48235678Y-44244619D02*
X48473773Y-44244619D01*
X48473773Y-44244619D02*
X48569011Y-44292238D01*
X48569011Y-44292238D02*
X48616630Y-44339857D01*
X48616630Y-44339857D02*
X48664249Y-44435095D01*
X48664249Y-44435095D02*
X48664249Y-44530333D01*
X48664249Y-44530333D02*
X48616630Y-44673190D01*
X48616630Y-44673190D02*
X48045202Y-45244619D01*
X48045202Y-45244619D02*
X48664249Y-45244619D01*
X50166630Y-47744619D02*
X49595202Y-47744619D01*
X49880916Y-47744619D02*
X49880916Y-46744619D01*
X49880916Y-46744619D02*
X49785678Y-46887476D01*
X49785678Y-46887476D02*
X49690440Y-46982714D01*
X49690440Y-46982714D02*
X49595202Y-47030333D01*
X49595202Y-51564857D02*
X49642821Y-51517238D01*
X49642821Y-51517238D02*
X49738059Y-51469619D01*
X49738059Y-51469619D02*
X49976154Y-51469619D01*
X49976154Y-51469619D02*
X50071392Y-51517238D01*
X50071392Y-51517238D02*
X50119011Y-51564857D01*
X50119011Y-51564857D02*
X50166630Y-51660095D01*
X50166630Y-51660095D02*
X50166630Y-51755333D01*
X50166630Y-51755333D02*
X50119011Y-51898190D01*
X50119011Y-51898190D02*
X49547583Y-52469619D01*
X49547583Y-52469619D02*
X50166630Y-52469619D01*
X49547583Y-56194619D02*
X50166630Y-56194619D01*
X50166630Y-56194619D02*
X49833297Y-56575571D01*
X49833297Y-56575571D02*
X49976154Y-56575571D01*
X49976154Y-56575571D02*
X50071392Y-56623190D01*
X50071392Y-56623190D02*
X50119011Y-56670809D01*
X50119011Y-56670809D02*
X50166630Y-56766047D01*
X50166630Y-56766047D02*
X50166630Y-57004142D01*
X50166630Y-57004142D02*
X50119011Y-57099380D01*
X50119011Y-57099380D02*
X50071392Y-57147000D01*
X50071392Y-57147000D02*
X49976154Y-57194619D01*
X49976154Y-57194619D02*
X49690440Y-57194619D01*
X49690440Y-57194619D02*
X49595202Y-57147000D01*
X49595202Y-57147000D02*
X49547583Y-57099380D01*
X76753351Y-45197000D02*
X76896208Y-45244619D01*
X76896208Y-45244619D02*
X77134303Y-45244619D01*
X77134303Y-45244619D02*
X77229541Y-45197000D01*
X77229541Y-45197000D02*
X77277160Y-45149380D01*
X77277160Y-45149380D02*
X77324779Y-45054142D01*
X77324779Y-45054142D02*
X77324779Y-44958904D01*
X77324779Y-44958904D02*
X77277160Y-44863666D01*
X77277160Y-44863666D02*
X77229541Y-44816047D01*
X77229541Y-44816047D02*
X77134303Y-44768428D01*
X77134303Y-44768428D02*
X76943827Y-44720809D01*
X76943827Y-44720809D02*
X76848589Y-44673190D01*
X76848589Y-44673190D02*
X76800970Y-44625571D01*
X76800970Y-44625571D02*
X76753351Y-44530333D01*
X76753351Y-44530333D02*
X76753351Y-44435095D01*
X76753351Y-44435095D02*
X76800970Y-44339857D01*
X76800970Y-44339857D02*
X76848589Y-44292238D01*
X76848589Y-44292238D02*
X76943827Y-44244619D01*
X76943827Y-44244619D02*
X77181922Y-44244619D01*
X77181922Y-44244619D02*
X77324779Y-44292238D01*
X77658113Y-44244619D02*
X77896208Y-45244619D01*
X77896208Y-45244619D02*
X78086684Y-44530333D01*
X78086684Y-44530333D02*
X78277160Y-45244619D01*
X78277160Y-45244619D02*
X78515256Y-44244619D01*
X79324779Y-44244619D02*
X79134303Y-44244619D01*
X79134303Y-44244619D02*
X79039065Y-44292238D01*
X79039065Y-44292238D02*
X78991446Y-44339857D01*
X78991446Y-44339857D02*
X78896208Y-44482714D01*
X78896208Y-44482714D02*
X78848589Y-44673190D01*
X78848589Y-44673190D02*
X78848589Y-45054142D01*
X78848589Y-45054142D02*
X78896208Y-45149380D01*
X78896208Y-45149380D02*
X78943827Y-45197000D01*
X78943827Y-45197000D02*
X79039065Y-45244619D01*
X79039065Y-45244619D02*
X79229541Y-45244619D01*
X79229541Y-45244619D02*
X79324779Y-45197000D01*
X79324779Y-45197000D02*
X79372398Y-45149380D01*
X79372398Y-45149380D02*
X79420017Y-45054142D01*
X79420017Y-45054142D02*
X79420017Y-44816047D01*
X79420017Y-44816047D02*
X79372398Y-44720809D01*
X79372398Y-44720809D02*
X79324779Y-44673190D01*
X79324779Y-44673190D02*
X79229541Y-44625571D01*
X79229541Y-44625571D02*
X79039065Y-44625571D01*
X79039065Y-44625571D02*
X78943827Y-44673190D01*
X78943827Y-44673190D02*
X78896208Y-44720809D01*
X78896208Y-44720809D02*
X78848589Y-44816047D01*
X80303351Y-56194619D02*
X80922398Y-56194619D01*
X80922398Y-56194619D02*
X80589065Y-56575571D01*
X80589065Y-56575571D02*
X80731922Y-56575571D01*
X80731922Y-56575571D02*
X80827160Y-56623190D01*
X80827160Y-56623190D02*
X80874779Y-56670809D01*
X80874779Y-56670809D02*
X80922398Y-56766047D01*
X80922398Y-56766047D02*
X80922398Y-57004142D01*
X80922398Y-57004142D02*
X80874779Y-57099380D01*
X80874779Y-57099380D02*
X80827160Y-57147000D01*
X80827160Y-57147000D02*
X80731922Y-57194619D01*
X80731922Y-57194619D02*
X80446208Y-57194619D01*
X80446208Y-57194619D02*
X80350970Y-57147000D01*
X80350970Y-57147000D02*
X80303351Y-57099380D01*
X80922398Y-47744619D02*
X80350970Y-47744619D01*
X80636684Y-47744619D02*
X80636684Y-46744619D01*
X80636684Y-46744619D02*
X80541446Y-46887476D01*
X80541446Y-46887476D02*
X80446208Y-46982714D01*
X80446208Y-46982714D02*
X80350970Y-47030333D01*
X80350970Y-51564857D02*
X80398589Y-51517238D01*
X80398589Y-51517238D02*
X80493827Y-51469619D01*
X80493827Y-51469619D02*
X80731922Y-51469619D01*
X80731922Y-51469619D02*
X80827160Y-51517238D01*
X80827160Y-51517238D02*
X80874779Y-51564857D01*
X80874779Y-51564857D02*
X80922398Y-51660095D01*
X80922398Y-51660095D02*
X80922398Y-51755333D01*
X80922398Y-51755333D02*
X80874779Y-51898190D01*
X80874779Y-51898190D02*
X80303351Y-52469619D01*
X80303351Y-52469619D02*
X80922398Y-52469619D01*
D10*
X62697465Y-40562109D02*
X62697465Y-40062109D01*
X62697465Y-40062109D02*
X62816513Y-40062109D01*
X62816513Y-40062109D02*
X62887941Y-40085919D01*
X62887941Y-40085919D02*
X62935560Y-40133538D01*
X62935560Y-40133538D02*
X62959370Y-40181157D01*
X62959370Y-40181157D02*
X62983179Y-40276395D01*
X62983179Y-40276395D02*
X62983179Y-40347823D01*
X62983179Y-40347823D02*
X62959370Y-40443061D01*
X62959370Y-40443061D02*
X62935560Y-40490680D01*
X62935560Y-40490680D02*
X62887941Y-40538300D01*
X62887941Y-40538300D02*
X62816513Y-40562109D01*
X62816513Y-40562109D02*
X62697465Y-40562109D01*
X63435560Y-40062109D02*
X63197465Y-40062109D01*
X63197465Y-40062109D02*
X63173656Y-40300204D01*
X63173656Y-40300204D02*
X63197465Y-40276395D01*
X63197465Y-40276395D02*
X63245084Y-40252585D01*
X63245084Y-40252585D02*
X63364132Y-40252585D01*
X63364132Y-40252585D02*
X63411751Y-40276395D01*
X63411751Y-40276395D02*
X63435560Y-40300204D01*
X63435560Y-40300204D02*
X63459370Y-40347823D01*
X63459370Y-40347823D02*
X63459370Y-40466871D01*
X63459370Y-40466871D02*
X63435560Y-40514490D01*
X63435560Y-40514490D02*
X63411751Y-40538300D01*
X63411751Y-40538300D02*
X63364132Y-40562109D01*
X63364132Y-40562109D02*
X63245084Y-40562109D01*
X63245084Y-40562109D02*
X63197465Y-40538300D01*
X63197465Y-40538300D02*
X63173656Y-40514490D01*
X96548909Y-42883133D02*
X96310814Y-43049799D01*
X96548909Y-43168847D02*
X96048909Y-43168847D01*
X96048909Y-43168847D02*
X96048909Y-42978371D01*
X96048909Y-42978371D02*
X96072719Y-42930752D01*
X96072719Y-42930752D02*
X96096528Y-42906942D01*
X96096528Y-42906942D02*
X96144147Y-42883133D01*
X96144147Y-42883133D02*
X96215576Y-42883133D01*
X96215576Y-42883133D02*
X96263195Y-42906942D01*
X96263195Y-42906942D02*
X96287004Y-42930752D01*
X96287004Y-42930752D02*
X96310814Y-42978371D01*
X96310814Y-42978371D02*
X96310814Y-43168847D01*
X96548909Y-42645037D02*
X96548909Y-42549799D01*
X96548909Y-42549799D02*
X96525100Y-42502180D01*
X96525100Y-42502180D02*
X96501290Y-42478371D01*
X96501290Y-42478371D02*
X96429861Y-42430752D01*
X96429861Y-42430752D02*
X96334623Y-42406942D01*
X96334623Y-42406942D02*
X96144147Y-42406942D01*
X96144147Y-42406942D02*
X96096528Y-42430752D01*
X96096528Y-42430752D02*
X96072719Y-42454561D01*
X96072719Y-42454561D02*
X96048909Y-42502180D01*
X96048909Y-42502180D02*
X96048909Y-42597418D01*
X96048909Y-42597418D02*
X96072719Y-42645037D01*
X96072719Y-42645037D02*
X96096528Y-42668847D01*
X96096528Y-42668847D02*
X96144147Y-42692656D01*
X96144147Y-42692656D02*
X96263195Y-42692656D01*
X96263195Y-42692656D02*
X96310814Y-42668847D01*
X96310814Y-42668847D02*
X96334623Y-42645037D01*
X96334623Y-42645037D02*
X96358433Y-42597418D01*
X96358433Y-42597418D02*
X96358433Y-42502180D01*
X96358433Y-42502180D02*
X96334623Y-42454561D01*
X96334623Y-42454561D02*
X96310814Y-42430752D01*
X96310814Y-42430752D02*
X96263195Y-42406942D01*
D12*
X53686525Y-45197000D02*
X53829382Y-45244619D01*
X53829382Y-45244619D02*
X54067477Y-45244619D01*
X54067477Y-45244619D02*
X54162715Y-45197000D01*
X54162715Y-45197000D02*
X54210334Y-45149380D01*
X54210334Y-45149380D02*
X54257953Y-45054142D01*
X54257953Y-45054142D02*
X54257953Y-44958904D01*
X54257953Y-44958904D02*
X54210334Y-44863666D01*
X54210334Y-44863666D02*
X54162715Y-44816047D01*
X54162715Y-44816047D02*
X54067477Y-44768428D01*
X54067477Y-44768428D02*
X53877001Y-44720809D01*
X53877001Y-44720809D02*
X53781763Y-44673190D01*
X53781763Y-44673190D02*
X53734144Y-44625571D01*
X53734144Y-44625571D02*
X53686525Y-44530333D01*
X53686525Y-44530333D02*
X53686525Y-44435095D01*
X53686525Y-44435095D02*
X53734144Y-44339857D01*
X53734144Y-44339857D02*
X53781763Y-44292238D01*
X53781763Y-44292238D02*
X53877001Y-44244619D01*
X53877001Y-44244619D02*
X54115096Y-44244619D01*
X54115096Y-44244619D02*
X54257953Y-44292238D01*
X54591287Y-44244619D02*
X54829382Y-45244619D01*
X54829382Y-45244619D02*
X55019858Y-44530333D01*
X55019858Y-44530333D02*
X55210334Y-45244619D01*
X55210334Y-45244619D02*
X55448430Y-44244619D01*
X55734144Y-44244619D02*
X56353191Y-44244619D01*
X56353191Y-44244619D02*
X56019858Y-44625571D01*
X56019858Y-44625571D02*
X56162715Y-44625571D01*
X56162715Y-44625571D02*
X56257953Y-44673190D01*
X56257953Y-44673190D02*
X56305572Y-44720809D01*
X56305572Y-44720809D02*
X56353191Y-44816047D01*
X56353191Y-44816047D02*
X56353191Y-45054142D01*
X56353191Y-45054142D02*
X56305572Y-45149380D01*
X56305572Y-45149380D02*
X56257953Y-45197000D01*
X56257953Y-45197000D02*
X56162715Y-45244619D01*
X56162715Y-45244619D02*
X55877001Y-45244619D01*
X55877001Y-45244619D02*
X55781763Y-45197000D01*
X55781763Y-45197000D02*
X55734144Y-45149380D01*
X57236525Y-56194619D02*
X57855572Y-56194619D01*
X57855572Y-56194619D02*
X57522239Y-56575571D01*
X57522239Y-56575571D02*
X57665096Y-56575571D01*
X57665096Y-56575571D02*
X57760334Y-56623190D01*
X57760334Y-56623190D02*
X57807953Y-56670809D01*
X57807953Y-56670809D02*
X57855572Y-56766047D01*
X57855572Y-56766047D02*
X57855572Y-57004142D01*
X57855572Y-57004142D02*
X57807953Y-57099380D01*
X57807953Y-57099380D02*
X57760334Y-57147000D01*
X57760334Y-57147000D02*
X57665096Y-57194619D01*
X57665096Y-57194619D02*
X57379382Y-57194619D01*
X57379382Y-57194619D02*
X57284144Y-57147000D01*
X57284144Y-57147000D02*
X57236525Y-57099380D01*
X57855572Y-47744619D02*
X57284144Y-47744619D01*
X57569858Y-47744619D02*
X57569858Y-46744619D01*
X57569858Y-46744619D02*
X57474620Y-46887476D01*
X57474620Y-46887476D02*
X57379382Y-46982714D01*
X57379382Y-46982714D02*
X57284144Y-47030333D01*
X57284144Y-51564857D02*
X57331763Y-51517238D01*
X57331763Y-51517238D02*
X57427001Y-51469619D01*
X57427001Y-51469619D02*
X57665096Y-51469619D01*
X57665096Y-51469619D02*
X57760334Y-51517238D01*
X57760334Y-51517238D02*
X57807953Y-51564857D01*
X57807953Y-51564857D02*
X57855572Y-51660095D01*
X57855572Y-51660095D02*
X57855572Y-51755333D01*
X57855572Y-51755333D02*
X57807953Y-51898190D01*
X57807953Y-51898190D02*
X57236525Y-52469619D01*
X57236525Y-52469619D02*
X57855572Y-52469619D01*
D10*
X85768778Y-40562109D02*
X85768778Y-40062109D01*
X85768778Y-40062109D02*
X85887826Y-40062109D01*
X85887826Y-40062109D02*
X85959254Y-40085919D01*
X85959254Y-40085919D02*
X86006873Y-40133538D01*
X86006873Y-40133538D02*
X86030683Y-40181157D01*
X86030683Y-40181157D02*
X86054492Y-40276395D01*
X86054492Y-40276395D02*
X86054492Y-40347823D01*
X86054492Y-40347823D02*
X86030683Y-40443061D01*
X86030683Y-40443061D02*
X86006873Y-40490680D01*
X86006873Y-40490680D02*
X85959254Y-40538300D01*
X85959254Y-40538300D02*
X85887826Y-40562109D01*
X85887826Y-40562109D02*
X85768778Y-40562109D01*
X86340207Y-40276395D02*
X86292588Y-40252585D01*
X86292588Y-40252585D02*
X86268778Y-40228776D01*
X86268778Y-40228776D02*
X86244969Y-40181157D01*
X86244969Y-40181157D02*
X86244969Y-40157347D01*
X86244969Y-40157347D02*
X86268778Y-40109728D01*
X86268778Y-40109728D02*
X86292588Y-40085919D01*
X86292588Y-40085919D02*
X86340207Y-40062109D01*
X86340207Y-40062109D02*
X86435445Y-40062109D01*
X86435445Y-40062109D02*
X86483064Y-40085919D01*
X86483064Y-40085919D02*
X86506873Y-40109728D01*
X86506873Y-40109728D02*
X86530683Y-40157347D01*
X86530683Y-40157347D02*
X86530683Y-40181157D01*
X86530683Y-40181157D02*
X86506873Y-40228776D01*
X86506873Y-40228776D02*
X86483064Y-40252585D01*
X86483064Y-40252585D02*
X86435445Y-40276395D01*
X86435445Y-40276395D02*
X86340207Y-40276395D01*
X86340207Y-40276395D02*
X86292588Y-40300204D01*
X86292588Y-40300204D02*
X86268778Y-40324014D01*
X86268778Y-40324014D02*
X86244969Y-40371633D01*
X86244969Y-40371633D02*
X86244969Y-40466871D01*
X86244969Y-40466871D02*
X86268778Y-40514490D01*
X86268778Y-40514490D02*
X86292588Y-40538300D01*
X86292588Y-40538300D02*
X86340207Y-40562109D01*
X86340207Y-40562109D02*
X86435445Y-40562109D01*
X86435445Y-40562109D02*
X86483064Y-40538300D01*
X86483064Y-40538300D02*
X86506873Y-40514490D01*
X86506873Y-40514490D02*
X86530683Y-40466871D01*
X86530683Y-40466871D02*
X86530683Y-40371633D01*
X86530683Y-40371633D02*
X86506873Y-40324014D01*
X86506873Y-40324014D02*
X86483064Y-40300204D01*
X86483064Y-40300204D02*
X86435445Y-40276395D01*
D12*
X38308641Y-45197000D02*
X38451498Y-45244619D01*
X38451498Y-45244619D02*
X38689593Y-45244619D01*
X38689593Y-45244619D02*
X38784831Y-45197000D01*
X38784831Y-45197000D02*
X38832450Y-45149380D01*
X38832450Y-45149380D02*
X38880069Y-45054142D01*
X38880069Y-45054142D02*
X38880069Y-44958904D01*
X38880069Y-44958904D02*
X38832450Y-44863666D01*
X38832450Y-44863666D02*
X38784831Y-44816047D01*
X38784831Y-44816047D02*
X38689593Y-44768428D01*
X38689593Y-44768428D02*
X38499117Y-44720809D01*
X38499117Y-44720809D02*
X38403879Y-44673190D01*
X38403879Y-44673190D02*
X38356260Y-44625571D01*
X38356260Y-44625571D02*
X38308641Y-44530333D01*
X38308641Y-44530333D02*
X38308641Y-44435095D01*
X38308641Y-44435095D02*
X38356260Y-44339857D01*
X38356260Y-44339857D02*
X38403879Y-44292238D01*
X38403879Y-44292238D02*
X38499117Y-44244619D01*
X38499117Y-44244619D02*
X38737212Y-44244619D01*
X38737212Y-44244619D02*
X38880069Y-44292238D01*
X39213403Y-44244619D02*
X39451498Y-45244619D01*
X39451498Y-45244619D02*
X39641974Y-44530333D01*
X39641974Y-44530333D02*
X39832450Y-45244619D01*
X39832450Y-45244619D02*
X40070546Y-44244619D01*
X40975307Y-45244619D02*
X40403879Y-45244619D01*
X40689593Y-45244619D02*
X40689593Y-44244619D01*
X40689593Y-44244619D02*
X40594355Y-44387476D01*
X40594355Y-44387476D02*
X40499117Y-44482714D01*
X40499117Y-44482714D02*
X40403879Y-44530333D01*
X41858641Y-56194619D02*
X42477688Y-56194619D01*
X42477688Y-56194619D02*
X42144355Y-56575571D01*
X42144355Y-56575571D02*
X42287212Y-56575571D01*
X42287212Y-56575571D02*
X42382450Y-56623190D01*
X42382450Y-56623190D02*
X42430069Y-56670809D01*
X42430069Y-56670809D02*
X42477688Y-56766047D01*
X42477688Y-56766047D02*
X42477688Y-57004142D01*
X42477688Y-57004142D02*
X42430069Y-57099380D01*
X42430069Y-57099380D02*
X42382450Y-57147000D01*
X42382450Y-57147000D02*
X42287212Y-57194619D01*
X42287212Y-57194619D02*
X42001498Y-57194619D01*
X42001498Y-57194619D02*
X41906260Y-57147000D01*
X41906260Y-57147000D02*
X41858641Y-57099380D01*
X42477688Y-47744619D02*
X41906260Y-47744619D01*
X42191974Y-47744619D02*
X42191974Y-46744619D01*
X42191974Y-46744619D02*
X42096736Y-46887476D01*
X42096736Y-46887476D02*
X42001498Y-46982714D01*
X42001498Y-46982714D02*
X41906260Y-47030333D01*
X41906260Y-51564857D02*
X41953879Y-51517238D01*
X41953879Y-51517238D02*
X42049117Y-51469619D01*
X42049117Y-51469619D02*
X42287212Y-51469619D01*
X42287212Y-51469619D02*
X42382450Y-51517238D01*
X42382450Y-51517238D02*
X42430069Y-51564857D01*
X42430069Y-51564857D02*
X42477688Y-51660095D01*
X42477688Y-51660095D02*
X42477688Y-51755333D01*
X42477688Y-51755333D02*
X42430069Y-51898190D01*
X42430069Y-51898190D02*
X41858641Y-52469619D01*
X41858641Y-52469619D02*
X42477688Y-52469619D01*
D10*
X81156509Y-42887733D02*
X80918414Y-43054399D01*
X81156509Y-43173447D02*
X80656509Y-43173447D01*
X80656509Y-43173447D02*
X80656509Y-42982971D01*
X80656509Y-42982971D02*
X80680319Y-42935352D01*
X80680319Y-42935352D02*
X80704128Y-42911542D01*
X80704128Y-42911542D02*
X80751747Y-42887733D01*
X80751747Y-42887733D02*
X80823176Y-42887733D01*
X80823176Y-42887733D02*
X80870795Y-42911542D01*
X80870795Y-42911542D02*
X80894604Y-42935352D01*
X80894604Y-42935352D02*
X80918414Y-42982971D01*
X80918414Y-42982971D02*
X80918414Y-43173447D01*
X80656509Y-42721066D02*
X80656509Y-42387733D01*
X80656509Y-42387733D02*
X81156509Y-42602018D01*
X65767309Y-42878133D02*
X65529214Y-43044799D01*
X65767309Y-43163847D02*
X65267309Y-43163847D01*
X65267309Y-43163847D02*
X65267309Y-42973371D01*
X65267309Y-42973371D02*
X65291119Y-42925752D01*
X65291119Y-42925752D02*
X65314928Y-42901942D01*
X65314928Y-42901942D02*
X65362547Y-42878133D01*
X65362547Y-42878133D02*
X65433976Y-42878133D01*
X65433976Y-42878133D02*
X65481595Y-42901942D01*
X65481595Y-42901942D02*
X65505404Y-42925752D01*
X65505404Y-42925752D02*
X65529214Y-42973371D01*
X65529214Y-42973371D02*
X65529214Y-43163847D01*
X65267309Y-42425752D02*
X65267309Y-42663847D01*
X65267309Y-42663847D02*
X65505404Y-42687656D01*
X65505404Y-42687656D02*
X65481595Y-42663847D01*
X65481595Y-42663847D02*
X65457785Y-42616228D01*
X65457785Y-42616228D02*
X65457785Y-42497180D01*
X65457785Y-42497180D02*
X65481595Y-42449561D01*
X65481595Y-42449561D02*
X65505404Y-42425752D01*
X65505404Y-42425752D02*
X65553023Y-42401942D01*
X65553023Y-42401942D02*
X65672071Y-42401942D01*
X65672071Y-42401942D02*
X65719690Y-42425752D01*
X65719690Y-42425752D02*
X65743500Y-42449561D01*
X65743500Y-42449561D02*
X65767309Y-42497180D01*
X65767309Y-42497180D02*
X65767309Y-42616228D01*
X65767309Y-42616228D02*
X65743500Y-42663847D01*
X65743500Y-42663847D02*
X65719690Y-42687656D01*
X50394909Y-42893133D02*
X50156814Y-43059799D01*
X50394909Y-43178847D02*
X49894909Y-43178847D01*
X49894909Y-43178847D02*
X49894909Y-42988371D01*
X49894909Y-42988371D02*
X49918719Y-42940752D01*
X49918719Y-42940752D02*
X49942528Y-42916942D01*
X49942528Y-42916942D02*
X49990147Y-42893133D01*
X49990147Y-42893133D02*
X50061576Y-42893133D01*
X50061576Y-42893133D02*
X50109195Y-42916942D01*
X50109195Y-42916942D02*
X50133004Y-42940752D01*
X50133004Y-42940752D02*
X50156814Y-42988371D01*
X50156814Y-42988371D02*
X50156814Y-43178847D01*
X49894909Y-42726466D02*
X49894909Y-42416942D01*
X49894909Y-42416942D02*
X50085385Y-42583609D01*
X50085385Y-42583609D02*
X50085385Y-42512180D01*
X50085385Y-42512180D02*
X50109195Y-42464561D01*
X50109195Y-42464561D02*
X50133004Y-42440752D01*
X50133004Y-42440752D02*
X50180623Y-42416942D01*
X50180623Y-42416942D02*
X50299671Y-42416942D01*
X50299671Y-42416942D02*
X50347290Y-42440752D01*
X50347290Y-42440752D02*
X50371100Y-42464561D01*
X50371100Y-42464561D02*
X50394909Y-42512180D01*
X50394909Y-42512180D02*
X50394909Y-42655037D01*
X50394909Y-42655037D02*
X50371100Y-42702656D01*
X50371100Y-42702656D02*
X50347290Y-42726466D01*
D13*
X47302323Y-40550809D02*
X47302323Y-40050809D01*
X47302323Y-40050809D02*
X47421371Y-40050809D01*
X47421371Y-40050809D02*
X47492799Y-40074619D01*
X47492799Y-40074619D02*
X47540418Y-40122238D01*
X47540418Y-40122238D02*
X47564228Y-40169857D01*
X47564228Y-40169857D02*
X47588037Y-40265095D01*
X47588037Y-40265095D02*
X47588037Y-40336523D01*
X47588037Y-40336523D02*
X47564228Y-40431761D01*
X47564228Y-40431761D02*
X47540418Y-40479380D01*
X47540418Y-40479380D02*
X47492799Y-40527000D01*
X47492799Y-40527000D02*
X47421371Y-40550809D01*
X47421371Y-40550809D02*
X47302323Y-40550809D01*
X47754704Y-40050809D02*
X48064228Y-40050809D01*
X48064228Y-40050809D02*
X47897561Y-40241285D01*
X47897561Y-40241285D02*
X47968990Y-40241285D01*
X47968990Y-40241285D02*
X48016609Y-40265095D01*
X48016609Y-40265095D02*
X48040418Y-40288904D01*
X48040418Y-40288904D02*
X48064228Y-40336523D01*
X48064228Y-40336523D02*
X48064228Y-40455571D01*
X48064228Y-40455571D02*
X48040418Y-40503190D01*
X48040418Y-40503190D02*
X48016609Y-40527000D01*
X48016609Y-40527000D02*
X47968990Y-40550809D01*
X47968990Y-40550809D02*
X47826133Y-40550809D01*
X47826133Y-40550809D02*
X47778514Y-40527000D01*
X47778514Y-40527000D02*
X47754704Y-40503190D01*
D10*
X58066109Y-42908533D02*
X57828014Y-43075199D01*
X58066109Y-43194247D02*
X57566109Y-43194247D01*
X57566109Y-43194247D02*
X57566109Y-43003771D01*
X57566109Y-43003771D02*
X57589919Y-42956152D01*
X57589919Y-42956152D02*
X57613728Y-42932342D01*
X57613728Y-42932342D02*
X57661347Y-42908533D01*
X57661347Y-42908533D02*
X57732776Y-42908533D01*
X57732776Y-42908533D02*
X57780395Y-42932342D01*
X57780395Y-42932342D02*
X57804204Y-42956152D01*
X57804204Y-42956152D02*
X57828014Y-43003771D01*
X57828014Y-43003771D02*
X57828014Y-43194247D01*
X57732776Y-42479961D02*
X58066109Y-42479961D01*
X57542300Y-42599009D02*
X57899442Y-42718056D01*
X57899442Y-42718056D02*
X57899442Y-42408533D01*
X88855909Y-42891133D02*
X88617814Y-43057799D01*
X88855909Y-43176847D02*
X88355909Y-43176847D01*
X88355909Y-43176847D02*
X88355909Y-42986371D01*
X88355909Y-42986371D02*
X88379719Y-42938752D01*
X88379719Y-42938752D02*
X88403528Y-42914942D01*
X88403528Y-42914942D02*
X88451147Y-42891133D01*
X88451147Y-42891133D02*
X88522576Y-42891133D01*
X88522576Y-42891133D02*
X88570195Y-42914942D01*
X88570195Y-42914942D02*
X88594004Y-42938752D01*
X88594004Y-42938752D02*
X88617814Y-42986371D01*
X88617814Y-42986371D02*
X88617814Y-43176847D01*
X88570195Y-42605418D02*
X88546385Y-42653037D01*
X88546385Y-42653037D02*
X88522576Y-42676847D01*
X88522576Y-42676847D02*
X88474957Y-42700656D01*
X88474957Y-42700656D02*
X88451147Y-42700656D01*
X88451147Y-42700656D02*
X88403528Y-42676847D01*
X88403528Y-42676847D02*
X88379719Y-42653037D01*
X88379719Y-42653037D02*
X88355909Y-42605418D01*
X88355909Y-42605418D02*
X88355909Y-42510180D01*
X88355909Y-42510180D02*
X88379719Y-42462561D01*
X88379719Y-42462561D02*
X88403528Y-42438752D01*
X88403528Y-42438752D02*
X88451147Y-42414942D01*
X88451147Y-42414942D02*
X88474957Y-42414942D01*
X88474957Y-42414942D02*
X88522576Y-42438752D01*
X88522576Y-42438752D02*
X88546385Y-42462561D01*
X88546385Y-42462561D02*
X88570195Y-42510180D01*
X88570195Y-42510180D02*
X88570195Y-42605418D01*
X88570195Y-42605418D02*
X88594004Y-42653037D01*
X88594004Y-42653037D02*
X88617814Y-42676847D01*
X88617814Y-42676847D02*
X88665433Y-42700656D01*
X88665433Y-42700656D02*
X88760671Y-42700656D01*
X88760671Y-42700656D02*
X88808290Y-42676847D01*
X88808290Y-42676847D02*
X88832100Y-42653037D01*
X88832100Y-42653037D02*
X88855909Y-42605418D01*
X88855909Y-42605418D02*
X88855909Y-42510180D01*
X88855909Y-42510180D02*
X88832100Y-42462561D01*
X88832100Y-42462561D02*
X88808290Y-42438752D01*
X88808290Y-42438752D02*
X88760671Y-42414942D01*
X88760671Y-42414942D02*
X88665433Y-42414942D01*
X88665433Y-42414942D02*
X88617814Y-42438752D01*
X88617814Y-42438752D02*
X88594004Y-42462561D01*
X88594004Y-42462561D02*
X88570195Y-42510180D01*
X42678709Y-42883133D02*
X42440614Y-43049799D01*
X42678709Y-43168847D02*
X42178709Y-43168847D01*
X42178709Y-43168847D02*
X42178709Y-42978371D01*
X42178709Y-42978371D02*
X42202519Y-42930752D01*
X42202519Y-42930752D02*
X42226328Y-42906942D01*
X42226328Y-42906942D02*
X42273947Y-42883133D01*
X42273947Y-42883133D02*
X42345376Y-42883133D01*
X42345376Y-42883133D02*
X42392995Y-42906942D01*
X42392995Y-42906942D02*
X42416804Y-42930752D01*
X42416804Y-42930752D02*
X42440614Y-42978371D01*
X42440614Y-42978371D02*
X42440614Y-43168847D01*
X42226328Y-42692656D02*
X42202519Y-42668847D01*
X42202519Y-42668847D02*
X42178709Y-42621228D01*
X42178709Y-42621228D02*
X42178709Y-42502180D01*
X42178709Y-42502180D02*
X42202519Y-42454561D01*
X42202519Y-42454561D02*
X42226328Y-42430752D01*
X42226328Y-42430752D02*
X42273947Y-42406942D01*
X42273947Y-42406942D02*
X42321566Y-42406942D01*
X42321566Y-42406942D02*
X42392995Y-42430752D01*
X42392995Y-42430752D02*
X42678709Y-42716466D01*
X42678709Y-42716466D02*
X42678709Y-42406942D01*
X54286110Y-65099048D02*
X53786110Y-65099048D01*
X53786110Y-65099048D02*
X53786110Y-64980000D01*
X53786110Y-64980000D02*
X53809920Y-64908572D01*
X53809920Y-64908572D02*
X53857539Y-64860953D01*
X53857539Y-64860953D02*
X53905158Y-64837143D01*
X53905158Y-64837143D02*
X54000396Y-64813334D01*
X54000396Y-64813334D02*
X54071824Y-64813334D01*
X54071824Y-64813334D02*
X54167062Y-64837143D01*
X54167062Y-64837143D02*
X54214681Y-64860953D01*
X54214681Y-64860953D02*
X54262301Y-64908572D01*
X54262301Y-64908572D02*
X54286110Y-64980000D01*
X54286110Y-64980000D02*
X54286110Y-65099048D01*
X54286110Y-64337143D02*
X54286110Y-64622857D01*
X54286110Y-64480000D02*
X53786110Y-64480000D01*
X53786110Y-64480000D02*
X53857539Y-64527619D01*
X53857539Y-64527619D02*
X53905158Y-64575238D01*
X53905158Y-64575238D02*
X53928967Y-64622857D01*
X78076207Y-40567909D02*
X78076207Y-40067909D01*
X78076207Y-40067909D02*
X78195255Y-40067909D01*
X78195255Y-40067909D02*
X78266683Y-40091719D01*
X78266683Y-40091719D02*
X78314302Y-40139338D01*
X78314302Y-40139338D02*
X78338112Y-40186957D01*
X78338112Y-40186957D02*
X78361921Y-40282195D01*
X78361921Y-40282195D02*
X78361921Y-40353623D01*
X78361921Y-40353623D02*
X78338112Y-40448861D01*
X78338112Y-40448861D02*
X78314302Y-40496480D01*
X78314302Y-40496480D02*
X78266683Y-40544100D01*
X78266683Y-40544100D02*
X78195255Y-40567909D01*
X78195255Y-40567909D02*
X78076207Y-40567909D01*
X78528588Y-40067909D02*
X78861921Y-40067909D01*
X78861921Y-40067909D02*
X78647636Y-40567909D01*
D12*
X92131241Y-45197000D02*
X92274098Y-45244619D01*
X92274098Y-45244619D02*
X92512193Y-45244619D01*
X92512193Y-45244619D02*
X92607431Y-45197000D01*
X92607431Y-45197000D02*
X92655050Y-45149380D01*
X92655050Y-45149380D02*
X92702669Y-45054142D01*
X92702669Y-45054142D02*
X92702669Y-44958904D01*
X92702669Y-44958904D02*
X92655050Y-44863666D01*
X92655050Y-44863666D02*
X92607431Y-44816047D01*
X92607431Y-44816047D02*
X92512193Y-44768428D01*
X92512193Y-44768428D02*
X92321717Y-44720809D01*
X92321717Y-44720809D02*
X92226479Y-44673190D01*
X92226479Y-44673190D02*
X92178860Y-44625571D01*
X92178860Y-44625571D02*
X92131241Y-44530333D01*
X92131241Y-44530333D02*
X92131241Y-44435095D01*
X92131241Y-44435095D02*
X92178860Y-44339857D01*
X92178860Y-44339857D02*
X92226479Y-44292238D01*
X92226479Y-44292238D02*
X92321717Y-44244619D01*
X92321717Y-44244619D02*
X92559812Y-44244619D01*
X92559812Y-44244619D02*
X92702669Y-44292238D01*
X93036003Y-44244619D02*
X93274098Y-45244619D01*
X93274098Y-45244619D02*
X93464574Y-44530333D01*
X93464574Y-44530333D02*
X93655050Y-45244619D01*
X93655050Y-45244619D02*
X93893146Y-44244619D01*
X94416955Y-44673190D02*
X94321717Y-44625571D01*
X94321717Y-44625571D02*
X94274098Y-44577952D01*
X94274098Y-44577952D02*
X94226479Y-44482714D01*
X94226479Y-44482714D02*
X94226479Y-44435095D01*
X94226479Y-44435095D02*
X94274098Y-44339857D01*
X94274098Y-44339857D02*
X94321717Y-44292238D01*
X94321717Y-44292238D02*
X94416955Y-44244619D01*
X94416955Y-44244619D02*
X94607431Y-44244619D01*
X94607431Y-44244619D02*
X94702669Y-44292238D01*
X94702669Y-44292238D02*
X94750288Y-44339857D01*
X94750288Y-44339857D02*
X94797907Y-44435095D01*
X94797907Y-44435095D02*
X94797907Y-44482714D01*
X94797907Y-44482714D02*
X94750288Y-44577952D01*
X94750288Y-44577952D02*
X94702669Y-44625571D01*
X94702669Y-44625571D02*
X94607431Y-44673190D01*
X94607431Y-44673190D02*
X94416955Y-44673190D01*
X94416955Y-44673190D02*
X94321717Y-44720809D01*
X94321717Y-44720809D02*
X94274098Y-44768428D01*
X94274098Y-44768428D02*
X94226479Y-44863666D01*
X94226479Y-44863666D02*
X94226479Y-45054142D01*
X94226479Y-45054142D02*
X94274098Y-45149380D01*
X94274098Y-45149380D02*
X94321717Y-45197000D01*
X94321717Y-45197000D02*
X94416955Y-45244619D01*
X94416955Y-45244619D02*
X94607431Y-45244619D01*
X94607431Y-45244619D02*
X94702669Y-45197000D01*
X94702669Y-45197000D02*
X94750288Y-45149380D01*
X94750288Y-45149380D02*
X94797907Y-45054142D01*
X94797907Y-45054142D02*
X94797907Y-44863666D01*
X94797907Y-44863666D02*
X94750288Y-44768428D01*
X94750288Y-44768428D02*
X94702669Y-44720809D01*
X94702669Y-44720809D02*
X94607431Y-44673190D01*
X95728860Y-51564857D02*
X95776479Y-51517238D01*
X95776479Y-51517238D02*
X95871717Y-51469619D01*
X95871717Y-51469619D02*
X96109812Y-51469619D01*
X96109812Y-51469619D02*
X96205050Y-51517238D01*
X96205050Y-51517238D02*
X96252669Y-51564857D01*
X96252669Y-51564857D02*
X96300288Y-51660095D01*
X96300288Y-51660095D02*
X96300288Y-51755333D01*
X96300288Y-51755333D02*
X96252669Y-51898190D01*
X96252669Y-51898190D02*
X95681241Y-52469619D01*
X95681241Y-52469619D02*
X96300288Y-52469619D01*
X95681241Y-56194619D02*
X96300288Y-56194619D01*
X96300288Y-56194619D02*
X95966955Y-56575571D01*
X95966955Y-56575571D02*
X96109812Y-56575571D01*
X96109812Y-56575571D02*
X96205050Y-56623190D01*
X96205050Y-56623190D02*
X96252669Y-56670809D01*
X96252669Y-56670809D02*
X96300288Y-56766047D01*
X96300288Y-56766047D02*
X96300288Y-57004142D01*
X96300288Y-57004142D02*
X96252669Y-57099380D01*
X96252669Y-57099380D02*
X96205050Y-57147000D01*
X96205050Y-57147000D02*
X96109812Y-57194619D01*
X96109812Y-57194619D02*
X95824098Y-57194619D01*
X95824098Y-57194619D02*
X95728860Y-57147000D01*
X95728860Y-57147000D02*
X95681241Y-57099380D01*
X96300288Y-47744619D02*
X95728860Y-47744619D01*
X96014574Y-47744619D02*
X96014574Y-46744619D01*
X96014574Y-46744619D02*
X95919336Y-46887476D01*
X95919336Y-46887476D02*
X95824098Y-46982714D01*
X95824098Y-46982714D02*
X95728860Y-47030333D01*
D10*
X73463509Y-42883133D02*
X73225414Y-43049799D01*
X73463509Y-43168847D02*
X72963509Y-43168847D01*
X72963509Y-43168847D02*
X72963509Y-42978371D01*
X72963509Y-42978371D02*
X72987319Y-42930752D01*
X72987319Y-42930752D02*
X73011128Y-42906942D01*
X73011128Y-42906942D02*
X73058747Y-42883133D01*
X73058747Y-42883133D02*
X73130176Y-42883133D01*
X73130176Y-42883133D02*
X73177795Y-42906942D01*
X73177795Y-42906942D02*
X73201604Y-42930752D01*
X73201604Y-42930752D02*
X73225414Y-42978371D01*
X73225414Y-42978371D02*
X73225414Y-43168847D01*
X72963509Y-42454561D02*
X72963509Y-42549799D01*
X72963509Y-42549799D02*
X72987319Y-42597418D01*
X72987319Y-42597418D02*
X73011128Y-42621228D01*
X73011128Y-42621228D02*
X73082557Y-42668847D01*
X73082557Y-42668847D02*
X73177795Y-42692656D01*
X73177795Y-42692656D02*
X73368271Y-42692656D01*
X73368271Y-42692656D02*
X73415890Y-42668847D01*
X73415890Y-42668847D02*
X73439700Y-42645037D01*
X73439700Y-42645037D02*
X73463509Y-42597418D01*
X73463509Y-42597418D02*
X73463509Y-42502180D01*
X73463509Y-42502180D02*
X73439700Y-42454561D01*
X73439700Y-42454561D02*
X73415890Y-42430752D01*
X73415890Y-42430752D02*
X73368271Y-42406942D01*
X73368271Y-42406942D02*
X73249223Y-42406942D01*
X73249223Y-42406942D02*
X73201604Y-42430752D01*
X73201604Y-42430752D02*
X73177795Y-42454561D01*
X73177795Y-42454561D02*
X73153985Y-42502180D01*
X73153985Y-42502180D02*
X73153985Y-42597418D01*
X73153985Y-42597418D02*
X73177795Y-42645037D01*
X73177795Y-42645037D02*
X73201604Y-42668847D01*
X73201604Y-42668847D02*
X73249223Y-42692656D01*
X39619752Y-40569610D02*
X39619752Y-40069610D01*
X39619752Y-40069610D02*
X39738800Y-40069610D01*
X39738800Y-40069610D02*
X39810228Y-40093420D01*
X39810228Y-40093420D02*
X39857847Y-40141039D01*
X39857847Y-40141039D02*
X39881657Y-40188658D01*
X39881657Y-40188658D02*
X39905466Y-40283896D01*
X39905466Y-40283896D02*
X39905466Y-40355324D01*
X39905466Y-40355324D02*
X39881657Y-40450562D01*
X39881657Y-40450562D02*
X39857847Y-40498181D01*
X39857847Y-40498181D02*
X39810228Y-40545801D01*
X39810228Y-40545801D02*
X39738800Y-40569610D01*
X39738800Y-40569610D02*
X39619752Y-40569610D01*
X40095943Y-40117229D02*
X40119752Y-40093420D01*
X40119752Y-40093420D02*
X40167371Y-40069610D01*
X40167371Y-40069610D02*
X40286419Y-40069610D01*
X40286419Y-40069610D02*
X40334038Y-40093420D01*
X40334038Y-40093420D02*
X40357847Y-40117229D01*
X40357847Y-40117229D02*
X40381657Y-40164848D01*
X40381657Y-40164848D02*
X40381657Y-40212467D01*
X40381657Y-40212467D02*
X40357847Y-40283896D01*
X40357847Y-40283896D02*
X40072133Y-40569610D01*
X40072133Y-40569610D02*
X40381657Y-40569610D01*
X57626109Y-64793333D02*
X57388014Y-64959999D01*
X57626109Y-65079047D02*
X57126109Y-65079047D01*
X57126109Y-65079047D02*
X57126109Y-64888571D01*
X57126109Y-64888571D02*
X57149919Y-64840952D01*
X57149919Y-64840952D02*
X57173728Y-64817142D01*
X57173728Y-64817142D02*
X57221347Y-64793333D01*
X57221347Y-64793333D02*
X57292776Y-64793333D01*
X57292776Y-64793333D02*
X57340395Y-64817142D01*
X57340395Y-64817142D02*
X57364204Y-64840952D01*
X57364204Y-64840952D02*
X57388014Y-64888571D01*
X57388014Y-64888571D02*
X57388014Y-65079047D01*
X57626109Y-64317142D02*
X57626109Y-64602856D01*
X57626109Y-64459999D02*
X57126109Y-64459999D01*
X57126109Y-64459999D02*
X57197538Y-64507618D01*
X57197538Y-64507618D02*
X57245157Y-64555237D01*
X57245157Y-64555237D02*
X57268966Y-64602856D01*
X93453352Y-40562109D02*
X93453352Y-40062109D01*
X93453352Y-40062109D02*
X93572400Y-40062109D01*
X93572400Y-40062109D02*
X93643828Y-40085919D01*
X93643828Y-40085919D02*
X93691447Y-40133538D01*
X93691447Y-40133538D02*
X93715257Y-40181157D01*
X93715257Y-40181157D02*
X93739066Y-40276395D01*
X93739066Y-40276395D02*
X93739066Y-40347823D01*
X93739066Y-40347823D02*
X93715257Y-40443061D01*
X93715257Y-40443061D02*
X93691447Y-40490680D01*
X93691447Y-40490680D02*
X93643828Y-40538300D01*
X93643828Y-40538300D02*
X93572400Y-40562109D01*
X93572400Y-40562109D02*
X93453352Y-40562109D01*
X93977162Y-40562109D02*
X94072400Y-40562109D01*
X94072400Y-40562109D02*
X94120019Y-40538300D01*
X94120019Y-40538300D02*
X94143828Y-40514490D01*
X94143828Y-40514490D02*
X94191447Y-40443061D01*
X94191447Y-40443061D02*
X94215257Y-40347823D01*
X94215257Y-40347823D02*
X94215257Y-40157347D01*
X94215257Y-40157347D02*
X94191447Y-40109728D01*
X94191447Y-40109728D02*
X94167638Y-40085919D01*
X94167638Y-40085919D02*
X94120019Y-40062109D01*
X94120019Y-40062109D02*
X94024781Y-40062109D01*
X94024781Y-40062109D02*
X93977162Y-40085919D01*
X93977162Y-40085919D02*
X93953352Y-40109728D01*
X93953352Y-40109728D02*
X93929543Y-40157347D01*
X93929543Y-40157347D02*
X93929543Y-40276395D01*
X93929543Y-40276395D02*
X93953352Y-40324014D01*
X93953352Y-40324014D02*
X93977162Y-40347823D01*
X93977162Y-40347823D02*
X94024781Y-40371633D01*
X94024781Y-40371633D02*
X94120019Y-40371633D01*
X94120019Y-40371633D02*
X94167638Y-40347823D01*
X94167638Y-40347823D02*
X94191447Y-40324014D01*
X94191447Y-40324014D02*
X94215257Y-40276395D01*
D12*
X84442293Y-45197000D02*
X84585150Y-45244619D01*
X84585150Y-45244619D02*
X84823245Y-45244619D01*
X84823245Y-45244619D02*
X84918483Y-45197000D01*
X84918483Y-45197000D02*
X84966102Y-45149380D01*
X84966102Y-45149380D02*
X85013721Y-45054142D01*
X85013721Y-45054142D02*
X85013721Y-44958904D01*
X85013721Y-44958904D02*
X84966102Y-44863666D01*
X84966102Y-44863666D02*
X84918483Y-44816047D01*
X84918483Y-44816047D02*
X84823245Y-44768428D01*
X84823245Y-44768428D02*
X84632769Y-44720809D01*
X84632769Y-44720809D02*
X84537531Y-44673190D01*
X84537531Y-44673190D02*
X84489912Y-44625571D01*
X84489912Y-44625571D02*
X84442293Y-44530333D01*
X84442293Y-44530333D02*
X84442293Y-44435095D01*
X84442293Y-44435095D02*
X84489912Y-44339857D01*
X84489912Y-44339857D02*
X84537531Y-44292238D01*
X84537531Y-44292238D02*
X84632769Y-44244619D01*
X84632769Y-44244619D02*
X84870864Y-44244619D01*
X84870864Y-44244619D02*
X85013721Y-44292238D01*
X85347055Y-44244619D02*
X85585150Y-45244619D01*
X85585150Y-45244619D02*
X85775626Y-44530333D01*
X85775626Y-44530333D02*
X85966102Y-45244619D01*
X85966102Y-45244619D02*
X86204198Y-44244619D01*
X86489912Y-44244619D02*
X87156578Y-44244619D01*
X87156578Y-44244619D02*
X86728007Y-45244619D01*
X87992293Y-56194619D02*
X88611340Y-56194619D01*
X88611340Y-56194619D02*
X88278007Y-56575571D01*
X88278007Y-56575571D02*
X88420864Y-56575571D01*
X88420864Y-56575571D02*
X88516102Y-56623190D01*
X88516102Y-56623190D02*
X88563721Y-56670809D01*
X88563721Y-56670809D02*
X88611340Y-56766047D01*
X88611340Y-56766047D02*
X88611340Y-57004142D01*
X88611340Y-57004142D02*
X88563721Y-57099380D01*
X88563721Y-57099380D02*
X88516102Y-57147000D01*
X88516102Y-57147000D02*
X88420864Y-57194619D01*
X88420864Y-57194619D02*
X88135150Y-57194619D01*
X88135150Y-57194619D02*
X88039912Y-57147000D01*
X88039912Y-57147000D02*
X87992293Y-57099380D01*
X88611340Y-47744619D02*
X88039912Y-47744619D01*
X88325626Y-47744619D02*
X88325626Y-46744619D01*
X88325626Y-46744619D02*
X88230388Y-46887476D01*
X88230388Y-46887476D02*
X88135150Y-46982714D01*
X88135150Y-46982714D02*
X88039912Y-47030333D01*
X88039912Y-51564857D02*
X88087531Y-51517238D01*
X88087531Y-51517238D02*
X88182769Y-51469619D01*
X88182769Y-51469619D02*
X88420864Y-51469619D01*
X88420864Y-51469619D02*
X88516102Y-51517238D01*
X88516102Y-51517238D02*
X88563721Y-51564857D01*
X88563721Y-51564857D02*
X88611340Y-51660095D01*
X88611340Y-51660095D02*
X88611340Y-51755333D01*
X88611340Y-51755333D02*
X88563721Y-51898190D01*
X88563721Y-51898190D02*
X87992293Y-52469619D01*
X87992293Y-52469619D02*
X88611340Y-52469619D01*
X69064409Y-45197000D02*
X69207266Y-45244619D01*
X69207266Y-45244619D02*
X69445361Y-45244619D01*
X69445361Y-45244619D02*
X69540599Y-45197000D01*
X69540599Y-45197000D02*
X69588218Y-45149380D01*
X69588218Y-45149380D02*
X69635837Y-45054142D01*
X69635837Y-45054142D02*
X69635837Y-44958904D01*
X69635837Y-44958904D02*
X69588218Y-44863666D01*
X69588218Y-44863666D02*
X69540599Y-44816047D01*
X69540599Y-44816047D02*
X69445361Y-44768428D01*
X69445361Y-44768428D02*
X69254885Y-44720809D01*
X69254885Y-44720809D02*
X69159647Y-44673190D01*
X69159647Y-44673190D02*
X69112028Y-44625571D01*
X69112028Y-44625571D02*
X69064409Y-44530333D01*
X69064409Y-44530333D02*
X69064409Y-44435095D01*
X69064409Y-44435095D02*
X69112028Y-44339857D01*
X69112028Y-44339857D02*
X69159647Y-44292238D01*
X69159647Y-44292238D02*
X69254885Y-44244619D01*
X69254885Y-44244619D02*
X69492980Y-44244619D01*
X69492980Y-44244619D02*
X69635837Y-44292238D01*
X69969171Y-44244619D02*
X70207266Y-45244619D01*
X70207266Y-45244619D02*
X70397742Y-44530333D01*
X70397742Y-44530333D02*
X70588218Y-45244619D01*
X70588218Y-45244619D02*
X70826314Y-44244619D01*
X71683456Y-44244619D02*
X71207266Y-44244619D01*
X71207266Y-44244619D02*
X71159647Y-44720809D01*
X71159647Y-44720809D02*
X71207266Y-44673190D01*
X71207266Y-44673190D02*
X71302504Y-44625571D01*
X71302504Y-44625571D02*
X71540599Y-44625571D01*
X71540599Y-44625571D02*
X71635837Y-44673190D01*
X71635837Y-44673190D02*
X71683456Y-44720809D01*
X71683456Y-44720809D02*
X71731075Y-44816047D01*
X71731075Y-44816047D02*
X71731075Y-45054142D01*
X71731075Y-45054142D02*
X71683456Y-45149380D01*
X71683456Y-45149380D02*
X71635837Y-45197000D01*
X71635837Y-45197000D02*
X71540599Y-45244619D01*
X71540599Y-45244619D02*
X71302504Y-45244619D01*
X71302504Y-45244619D02*
X71207266Y-45197000D01*
X71207266Y-45197000D02*
X71159647Y-45149380D01*
X72614409Y-56194619D02*
X73233456Y-56194619D01*
X73233456Y-56194619D02*
X72900123Y-56575571D01*
X72900123Y-56575571D02*
X73042980Y-56575571D01*
X73042980Y-56575571D02*
X73138218Y-56623190D01*
X73138218Y-56623190D02*
X73185837Y-56670809D01*
X73185837Y-56670809D02*
X73233456Y-56766047D01*
X73233456Y-56766047D02*
X73233456Y-57004142D01*
X73233456Y-57004142D02*
X73185837Y-57099380D01*
X73185837Y-57099380D02*
X73138218Y-57147000D01*
X73138218Y-57147000D02*
X73042980Y-57194619D01*
X73042980Y-57194619D02*
X72757266Y-57194619D01*
X72757266Y-57194619D02*
X72662028Y-57147000D01*
X72662028Y-57147000D02*
X72614409Y-57099380D01*
X73233456Y-47744619D02*
X72662028Y-47744619D01*
X72947742Y-47744619D02*
X72947742Y-46744619D01*
X72947742Y-46744619D02*
X72852504Y-46887476D01*
X72852504Y-46887476D02*
X72757266Y-46982714D01*
X72757266Y-46982714D02*
X72662028Y-47030333D01*
X72662028Y-51564857D02*
X72709647Y-51517238D01*
X72709647Y-51517238D02*
X72804885Y-51469619D01*
X72804885Y-51469619D02*
X73042980Y-51469619D01*
X73042980Y-51469619D02*
X73138218Y-51517238D01*
X73138218Y-51517238D02*
X73185837Y-51564857D01*
X73185837Y-51564857D02*
X73233456Y-51660095D01*
X73233456Y-51660095D02*
X73233456Y-51755333D01*
X73233456Y-51755333D02*
X73185837Y-51898190D01*
X73185837Y-51898190D02*
X72614409Y-52469619D01*
X72614409Y-52469619D02*
X73233456Y-52469619D01*
D10*
X55004894Y-40562109D02*
X55004894Y-40062109D01*
X55004894Y-40062109D02*
X55123942Y-40062109D01*
X55123942Y-40062109D02*
X55195370Y-40085919D01*
X55195370Y-40085919D02*
X55242989Y-40133538D01*
X55242989Y-40133538D02*
X55266799Y-40181157D01*
X55266799Y-40181157D02*
X55290608Y-40276395D01*
X55290608Y-40276395D02*
X55290608Y-40347823D01*
X55290608Y-40347823D02*
X55266799Y-40443061D01*
X55266799Y-40443061D02*
X55242989Y-40490680D01*
X55242989Y-40490680D02*
X55195370Y-40538300D01*
X55195370Y-40538300D02*
X55123942Y-40562109D01*
X55123942Y-40562109D02*
X55004894Y-40562109D01*
X55719180Y-40228776D02*
X55719180Y-40562109D01*
X55600132Y-40038300D02*
X55481085Y-40395442D01*
X55481085Y-40395442D02*
X55790608Y-40395442D01*
D12*
X61375467Y-45197000D02*
X61518324Y-45244619D01*
X61518324Y-45244619D02*
X61756419Y-45244619D01*
X61756419Y-45244619D02*
X61851657Y-45197000D01*
X61851657Y-45197000D02*
X61899276Y-45149380D01*
X61899276Y-45149380D02*
X61946895Y-45054142D01*
X61946895Y-45054142D02*
X61946895Y-44958904D01*
X61946895Y-44958904D02*
X61899276Y-44863666D01*
X61899276Y-44863666D02*
X61851657Y-44816047D01*
X61851657Y-44816047D02*
X61756419Y-44768428D01*
X61756419Y-44768428D02*
X61565943Y-44720809D01*
X61565943Y-44720809D02*
X61470705Y-44673190D01*
X61470705Y-44673190D02*
X61423086Y-44625571D01*
X61423086Y-44625571D02*
X61375467Y-44530333D01*
X61375467Y-44530333D02*
X61375467Y-44435095D01*
X61375467Y-44435095D02*
X61423086Y-44339857D01*
X61423086Y-44339857D02*
X61470705Y-44292238D01*
X61470705Y-44292238D02*
X61565943Y-44244619D01*
X61565943Y-44244619D02*
X61804038Y-44244619D01*
X61804038Y-44244619D02*
X61946895Y-44292238D01*
X62280229Y-44244619D02*
X62518324Y-45244619D01*
X62518324Y-45244619D02*
X62708800Y-44530333D01*
X62708800Y-44530333D02*
X62899276Y-45244619D01*
X62899276Y-45244619D02*
X63137372Y-44244619D01*
X63946895Y-44577952D02*
X63946895Y-45244619D01*
X63708800Y-44197000D02*
X63470705Y-44911285D01*
X63470705Y-44911285D02*
X64089752Y-44911285D01*
X64925467Y-56194619D02*
X65544514Y-56194619D01*
X65544514Y-56194619D02*
X65211181Y-56575571D01*
X65211181Y-56575571D02*
X65354038Y-56575571D01*
X65354038Y-56575571D02*
X65449276Y-56623190D01*
X65449276Y-56623190D02*
X65496895Y-56670809D01*
X65496895Y-56670809D02*
X65544514Y-56766047D01*
X65544514Y-56766047D02*
X65544514Y-57004142D01*
X65544514Y-57004142D02*
X65496895Y-57099380D01*
X65496895Y-57099380D02*
X65449276Y-57147000D01*
X65449276Y-57147000D02*
X65354038Y-57194619D01*
X65354038Y-57194619D02*
X65068324Y-57194619D01*
X65068324Y-57194619D02*
X64973086Y-57147000D01*
X64973086Y-57147000D02*
X64925467Y-57099380D01*
X64973086Y-51564857D02*
X65020705Y-51517238D01*
X65020705Y-51517238D02*
X65115943Y-51469619D01*
X65115943Y-51469619D02*
X65354038Y-51469619D01*
X65354038Y-51469619D02*
X65449276Y-51517238D01*
X65449276Y-51517238D02*
X65496895Y-51564857D01*
X65496895Y-51564857D02*
X65544514Y-51660095D01*
X65544514Y-51660095D02*
X65544514Y-51755333D01*
X65544514Y-51755333D02*
X65496895Y-51898190D01*
X65496895Y-51898190D02*
X64925467Y-52469619D01*
X64925467Y-52469619D02*
X65544514Y-52469619D01*
X65544514Y-47744619D02*
X64973086Y-47744619D01*
X65258800Y-47744619D02*
X65258800Y-46744619D01*
X65258800Y-46744619D02*
X65163562Y-46887476D01*
X65163562Y-46887476D02*
X65068324Y-46982714D01*
X65068324Y-46982714D02*
X64973086Y-47030333D01*
D10*
X70390036Y-40562109D02*
X70390036Y-40062109D01*
X70390036Y-40062109D02*
X70509084Y-40062109D01*
X70509084Y-40062109D02*
X70580512Y-40085919D01*
X70580512Y-40085919D02*
X70628131Y-40133538D01*
X70628131Y-40133538D02*
X70651941Y-40181157D01*
X70651941Y-40181157D02*
X70675750Y-40276395D01*
X70675750Y-40276395D02*
X70675750Y-40347823D01*
X70675750Y-40347823D02*
X70651941Y-40443061D01*
X70651941Y-40443061D02*
X70628131Y-40490680D01*
X70628131Y-40490680D02*
X70580512Y-40538300D01*
X70580512Y-40538300D02*
X70509084Y-40562109D01*
X70509084Y-40562109D02*
X70390036Y-40562109D01*
X71104322Y-40062109D02*
X71009084Y-40062109D01*
X71009084Y-40062109D02*
X70961465Y-40085919D01*
X70961465Y-40085919D02*
X70937655Y-40109728D01*
X70937655Y-40109728D02*
X70890036Y-40181157D01*
X70890036Y-40181157D02*
X70866227Y-40276395D01*
X70866227Y-40276395D02*
X70866227Y-40466871D01*
X70866227Y-40466871D02*
X70890036Y-40514490D01*
X70890036Y-40514490D02*
X70913846Y-40538300D01*
X70913846Y-40538300D02*
X70961465Y-40562109D01*
X70961465Y-40562109D02*
X71056703Y-40562109D01*
X71056703Y-40562109D02*
X71104322Y-40538300D01*
X71104322Y-40538300D02*
X71128131Y-40514490D01*
X71128131Y-40514490D02*
X71151941Y-40466871D01*
X71151941Y-40466871D02*
X71151941Y-40347823D01*
X71151941Y-40347823D02*
X71128131Y-40300204D01*
X71128131Y-40300204D02*
X71104322Y-40276395D01*
X71104322Y-40276395D02*
X71056703Y-40252585D01*
X71056703Y-40252585D02*
X70961465Y-40252585D01*
X70961465Y-40252585D02*
X70913846Y-40276395D01*
X70913846Y-40276395D02*
X70890036Y-40300204D01*
X70890036Y-40300204D02*
X70866227Y-40347823D01*
D14*
X64026513Y-38651000D02*
X62106513Y-38651000D01*
X62106513Y-38651000D02*
X62106513Y-41336000D01*
X64026513Y-41336000D02*
X64026513Y-38651000D01*
X96088742Y-42277300D02*
X96563258Y-42277300D01*
X96088742Y-43322300D02*
X96563258Y-43322300D01*
X87104226Y-38651000D02*
X85184226Y-38651000D01*
X85184226Y-38651000D02*
X85184226Y-41336000D01*
X87104226Y-41336000D02*
X87104226Y-38651000D01*
X80696342Y-42277300D02*
X81170858Y-42277300D01*
X80696342Y-43322300D02*
X81170858Y-43322300D01*
X65303942Y-42277300D02*
X65778458Y-42277300D01*
X65303942Y-43322300D02*
X65778458Y-43322300D01*
X49911542Y-42277300D02*
X50386058Y-42277300D01*
X49911542Y-43322300D02*
X50386058Y-43322300D01*
X48641371Y-38651000D02*
X46721371Y-38651000D01*
X46721371Y-38651000D02*
X46721371Y-41336000D01*
X48641371Y-41336000D02*
X48641371Y-38651000D01*
X57607742Y-42277300D02*
X58082258Y-42277300D01*
X57607742Y-43322300D02*
X58082258Y-43322300D01*
X88392542Y-42277300D02*
X88867058Y-42277300D01*
X88392542Y-43322300D02*
X88867058Y-43322300D01*
X42215342Y-42277300D02*
X42689858Y-42277300D01*
X42215342Y-43322300D02*
X42689858Y-43322300D01*
X52345001Y-63760001D02*
X52345001Y-65680001D01*
X52345001Y-65680001D02*
X55030001Y-65680001D01*
X55030001Y-63760001D02*
X52345001Y-63760001D01*
X79411655Y-38651000D02*
X77491655Y-38651000D01*
X77491655Y-38651000D02*
X77491655Y-41336000D01*
X79411655Y-41336000D02*
X79411655Y-38651000D01*
D15*
X60490000Y-61160000D02*
X60490000Y-68260000D01*
X62590000Y-69660000D02*
X68190000Y-69660000D01*
X68190000Y-61160000D02*
X60490000Y-61160000D01*
X68190000Y-69660000D02*
X68190000Y-61160000D01*
D14*
X73000142Y-42277300D02*
X73474658Y-42277300D01*
X73000142Y-43322300D02*
X73474658Y-43322300D01*
X40948800Y-38651000D02*
X39028800Y-38651000D01*
X39028800Y-38651000D02*
X39028800Y-41336000D01*
X40948800Y-41336000D02*
X40948800Y-38651000D01*
X57162742Y-64187500D02*
X57637258Y-64187500D01*
X57162742Y-65232500D02*
X57637258Y-65232500D01*
X94796800Y-38651000D02*
X92876800Y-38651000D01*
X92876800Y-38651000D02*
X92876800Y-41336000D01*
X94796800Y-41336000D02*
X94796800Y-38651000D01*
D15*
X51925800Y-26656600D02*
X51925800Y-33756600D01*
X54025800Y-35156600D02*
X80625800Y-35156600D01*
X80625800Y-26656600D02*
X51925800Y-26656600D01*
X80625800Y-35156600D02*
X80625800Y-26656600D01*
D14*
X56333942Y-38651000D02*
X54413942Y-38651000D01*
X54413942Y-38651000D02*
X54413942Y-41336000D01*
X56333942Y-41336000D02*
X56333942Y-38651000D01*
X71719084Y-38651000D02*
X69799084Y-38651000D01*
X69799084Y-38651000D02*
X69799084Y-41336000D01*
X71719084Y-41336000D02*
X71719084Y-38651000D01*
%LPC*%
D16*
X47330916Y-47289800D03*
X47330916Y-51989800D03*
X47330916Y-56689800D03*
X78086684Y-47289800D03*
X78086684Y-51989800D03*
X78086684Y-56689800D03*
D17*
X63066513Y-39398500D03*
X63066513Y-41273500D03*
D18*
X95501000Y-42799800D03*
X97151000Y-42799800D03*
D16*
X55019858Y-47289800D03*
X55019858Y-51989800D03*
X55019858Y-56689800D03*
D17*
X86144226Y-39398500D03*
X86144226Y-41273500D03*
D16*
X39641974Y-47289800D03*
X39641974Y-51989800D03*
X39641974Y-56689800D03*
D18*
X80108600Y-42799800D03*
X81758600Y-42799800D03*
X64716200Y-42799800D03*
X66366200Y-42799800D03*
X49323800Y-42799800D03*
X50973800Y-42799800D03*
D17*
X47681371Y-39398500D03*
X47681371Y-41273500D03*
D18*
X57020000Y-42799800D03*
X58670000Y-42799800D03*
D19*
X102870000Y-60325000D03*
D20*
X102870000Y-60325000D03*
D18*
X87804800Y-42799800D03*
X89454800Y-42799800D03*
X41627600Y-42799800D03*
X43277600Y-42799800D03*
D19*
X30480000Y-60325000D03*
D20*
X30480000Y-60325000D03*
D21*
X53092501Y-64720001D03*
X54967501Y-64720001D03*
D17*
X78451655Y-39398500D03*
X78451655Y-41273500D03*
D22*
X62590000Y-68260000D03*
D23*
X62590000Y-62760000D03*
X66090000Y-68260000D03*
X66090000Y-62760000D03*
D16*
X93464574Y-47289800D03*
X93464574Y-51989800D03*
X93464574Y-56689800D03*
D18*
X72412400Y-42799800D03*
X74062400Y-42799800D03*
D17*
X39988800Y-39398500D03*
X39988800Y-41273500D03*
D18*
X56575000Y-64710000D03*
X58225000Y-64710000D03*
D17*
X93836800Y-39398500D03*
X93836800Y-41273500D03*
D19*
X102870000Y-34925000D03*
D20*
X102870000Y-34925000D03*
D16*
X85775626Y-47289800D03*
X85775626Y-51989800D03*
X85775626Y-56689800D03*
X70397742Y-47289800D03*
X70397742Y-51989800D03*
X70397742Y-56689800D03*
D22*
X54025800Y-33756600D03*
D23*
X54025800Y-28256600D03*
X57525800Y-33756600D03*
X57525800Y-28256600D03*
X61025800Y-33756600D03*
X61025800Y-28256600D03*
X64525800Y-33756600D03*
X64525800Y-28256600D03*
X68025800Y-33756600D03*
X68025800Y-28256600D03*
X71525800Y-33756600D03*
X71525800Y-28256600D03*
X75025800Y-33756600D03*
X75025800Y-28256600D03*
X78525800Y-33756600D03*
X78525800Y-28256600D03*
D17*
X55373942Y-39398500D03*
X55373942Y-41273500D03*
D16*
X62708800Y-47289800D03*
X62708800Y-51989800D03*
X62708800Y-56689800D03*
D17*
X70759084Y-39398500D03*
X70759084Y-41273500D03*
D19*
X30480000Y-34925000D03*
D20*
X30480000Y-34925000D03*
%LPD*%
M02*
