G04 #@! TF.GenerationSoftware,KiCad,Pcbnew,7.0.7*
G04 #@! TF.CreationDate,2023-09-05T00:15:25-07:00*
G04 #@! TF.ProjectId,Power Supply Board Ground Systems V1.1,506f7765-7220-4537-9570-706c7920426f,rev?*
G04 #@! TF.SameCoordinates,Original*
G04 #@! TF.FileFunction,Legend,Bot*
G04 #@! TF.FilePolarity,Positive*
%FSLAX46Y46*%
G04 Gerber Fmt 4.6, Leading zero omitted, Abs format (unit mm)*
G04 Created by KiCad (PCBNEW 7.0.7) date 2023-09-05 00:15:25*
%MOMM*%
%LPD*%
G01*
G04 APERTURE LIST*
%ADD10C,0.500000*%
%ADD11R,3.000000X3.000000*%
%ADD12C,3.600000*%
%ADD13C,6.400000*%
%ADD14R,2.025000X2.025000*%
%ADD15C,2.025000*%
G04 APERTURE END LIST*
D10*
X87720342Y-42035714D02*
X86291771Y-42035714D01*
X88006056Y-42892857D02*
X87006056Y-39892857D01*
X87006056Y-39892857D02*
X86006056Y-42892857D01*
X85148913Y-42035714D02*
X83720342Y-42035714D01*
X85434627Y-42892857D02*
X84434627Y-39892857D01*
X84434627Y-39892857D02*
X83434627Y-42892857D01*
X80720341Y-42892857D02*
X81720341Y-41464285D01*
X82434627Y-42892857D02*
X82434627Y-39892857D01*
X82434627Y-39892857D02*
X81291770Y-39892857D01*
X81291770Y-39892857D02*
X81006055Y-40035714D01*
X81006055Y-40035714D02*
X80863198Y-40178571D01*
X80863198Y-40178571D02*
X80720341Y-40464285D01*
X80720341Y-40464285D02*
X80720341Y-40892857D01*
X80720341Y-40892857D02*
X80863198Y-41178571D01*
X80863198Y-41178571D02*
X81006055Y-41321428D01*
X81006055Y-41321428D02*
X81291770Y-41464285D01*
X81291770Y-41464285D02*
X82434627Y-41464285D01*
X79434627Y-42892857D02*
X79434627Y-39892857D01*
X79434627Y-41321428D02*
X77720341Y-41321428D01*
X77720341Y-42892857D02*
X77720341Y-39892857D01*
X76291770Y-39892857D02*
X76291770Y-42321428D01*
X76291770Y-42321428D02*
X76148913Y-42607142D01*
X76148913Y-42607142D02*
X76006056Y-42750000D01*
X76006056Y-42750000D02*
X75720341Y-42892857D01*
X75720341Y-42892857D02*
X75148913Y-42892857D01*
X75148913Y-42892857D02*
X74863198Y-42750000D01*
X74863198Y-42750000D02*
X74720341Y-42607142D01*
X74720341Y-42607142D02*
X74577484Y-42321428D01*
X74577484Y-42321428D02*
X74577484Y-39892857D01*
X73291770Y-42750000D02*
X72863199Y-42892857D01*
X72863199Y-42892857D02*
X72148913Y-42892857D01*
X72148913Y-42892857D02*
X71863199Y-42750000D01*
X71863199Y-42750000D02*
X71720341Y-42607142D01*
X71720341Y-42607142D02*
X71577484Y-42321428D01*
X71577484Y-42321428D02*
X71577484Y-42035714D01*
X71577484Y-42035714D02*
X71720341Y-41750000D01*
X71720341Y-41750000D02*
X71863199Y-41607142D01*
X71863199Y-41607142D02*
X72148913Y-41464285D01*
X72148913Y-41464285D02*
X72720341Y-41321428D01*
X72720341Y-41321428D02*
X73006056Y-41178571D01*
X73006056Y-41178571D02*
X73148913Y-41035714D01*
X73148913Y-41035714D02*
X73291770Y-40750000D01*
X73291770Y-40750000D02*
X73291770Y-40464285D01*
X73291770Y-40464285D02*
X73148913Y-40178571D01*
X73148913Y-40178571D02*
X73006056Y-40035714D01*
X73006056Y-40035714D02*
X72720341Y-39892857D01*
X72720341Y-39892857D02*
X72006056Y-39892857D01*
X72006056Y-39892857D02*
X71577484Y-40035714D01*
X68291770Y-39892857D02*
X67577484Y-42892857D01*
X67577484Y-42892857D02*
X67006056Y-40750000D01*
X67006056Y-40750000D02*
X66434627Y-42892857D01*
X66434627Y-42892857D02*
X65720342Y-39892857D01*
X64577485Y-39892857D02*
X64577485Y-42321428D01*
X64577485Y-42321428D02*
X64434628Y-42607142D01*
X64434628Y-42607142D02*
X64291771Y-42750000D01*
X64291771Y-42750000D02*
X64006056Y-42892857D01*
X64006056Y-42892857D02*
X63434628Y-42892857D01*
X63434628Y-42892857D02*
X63148913Y-42750000D01*
X63148913Y-42750000D02*
X63006056Y-42607142D01*
X63006056Y-42607142D02*
X62863199Y-42321428D01*
X62863199Y-42321428D02*
X62863199Y-39892857D01*
X61720342Y-39892857D02*
X59720342Y-39892857D01*
X59720342Y-39892857D02*
X61720342Y-42892857D01*
X61720342Y-42892857D02*
X59720342Y-42892857D01*
X56291771Y-42892857D02*
X56291771Y-39892857D01*
X56291771Y-41321428D02*
X54577485Y-41321428D01*
X54577485Y-42892857D02*
X54577485Y-39892857D01*
X53148914Y-41321428D02*
X52148914Y-41321428D01*
X51720342Y-42892857D02*
X53148914Y-42892857D01*
X53148914Y-42892857D02*
X53148914Y-39892857D01*
X53148914Y-39892857D02*
X51720342Y-39892857D01*
X48720342Y-42892857D02*
X49720342Y-41464285D01*
X50434628Y-42892857D02*
X50434628Y-39892857D01*
X50434628Y-39892857D02*
X49291771Y-39892857D01*
X49291771Y-39892857D02*
X49006056Y-40035714D01*
X49006056Y-40035714D02*
X48863199Y-40178571D01*
X48863199Y-40178571D02*
X48720342Y-40464285D01*
X48720342Y-40464285D02*
X48720342Y-40892857D01*
X48720342Y-40892857D02*
X48863199Y-41178571D01*
X48863199Y-41178571D02*
X49006056Y-41321428D01*
X49006056Y-41321428D02*
X49291771Y-41464285D01*
X49291771Y-41464285D02*
X50434628Y-41464285D01*
X47434628Y-41321428D02*
X46434628Y-41321428D01*
X46006056Y-42892857D02*
X47434628Y-42892857D01*
X47434628Y-42892857D02*
X47434628Y-39892857D01*
X47434628Y-39892857D02*
X46006056Y-39892857D01*
%LPC*%
D11*
X47330916Y-47289800D03*
X47330916Y-51989800D03*
X47330916Y-56689800D03*
X78086684Y-47289800D03*
X78086684Y-51989800D03*
X78086684Y-56689800D03*
X55019858Y-47289800D03*
X55019858Y-51989800D03*
X55019858Y-56689800D03*
X39641974Y-47289800D03*
X39641974Y-51989800D03*
X39641974Y-56689800D03*
D12*
X102870000Y-60325000D03*
D13*
X102870000Y-60325000D03*
D12*
X30480000Y-60325000D03*
D13*
X30480000Y-60325000D03*
D14*
X62590000Y-68260000D03*
D15*
X62590000Y-62760000D03*
X66090000Y-68260000D03*
X66090000Y-62760000D03*
D11*
X93464574Y-47289800D03*
X93464574Y-51989800D03*
X93464574Y-56689800D03*
D12*
X102870000Y-34925000D03*
D13*
X102870000Y-34925000D03*
D11*
X85775626Y-47289800D03*
X85775626Y-51989800D03*
X85775626Y-56689800D03*
X70397742Y-47289800D03*
X70397742Y-51989800D03*
X70397742Y-56689800D03*
D14*
X54025800Y-33756600D03*
D15*
X54025800Y-28256600D03*
X57525800Y-33756600D03*
X57525800Y-28256600D03*
X61025800Y-33756600D03*
X61025800Y-28256600D03*
X64525800Y-33756600D03*
X64525800Y-28256600D03*
X68025800Y-33756600D03*
X68025800Y-28256600D03*
X71525800Y-33756600D03*
X71525800Y-28256600D03*
X75025800Y-33756600D03*
X75025800Y-28256600D03*
X78525800Y-33756600D03*
X78525800Y-28256600D03*
D11*
X62708800Y-47289800D03*
X62708800Y-51989800D03*
X62708800Y-56689800D03*
D12*
X30480000Y-34925000D03*
D13*
X30480000Y-34925000D03*
%LPD*%
M02*
