%TF.GenerationSoftware,KiCad,Pcbnew,7.0.7*%
%TF.CreationDate,2023-09-05T00:15:27-07:00*%
%TF.ProjectId,Power Supply Board Ground Systems V1.1,506f7765-7220-4537-9570-706c7920426f,rev?*%
%TF.SameCoordinates,Original*%
%TF.FileFunction,Drillmap*%
%TF.FilePolarity,Positive*%
%FSLAX45Y45*%
G04 Gerber Fmt 4.5, Leading zero omitted, Abs format (unit mm)*
G04 Created by KiCad (PCBNEW 7.0.7) date 2023-09-05 00:15:27*
%MOMM*%
%LPD*%
G01*
G04 APERTURE LIST*
%ADD10C,0.100000*%
%ADD11C,0.200000*%
G04 APERTURE END LIST*
D10*
X2540000Y-2540000D02*
X10795000Y-2540000D01*
X10795000Y-6985000D01*
X2540000Y-6985000D01*
X2540000Y-2540000D01*
D11*
X2795777Y-7301484D02*
X2795777Y-7101484D01*
X2795777Y-7101484D02*
X2843396Y-7101484D01*
X2843396Y-7101484D02*
X2871967Y-7111008D01*
X2871967Y-7111008D02*
X2891015Y-7130055D01*
X2891015Y-7130055D02*
X2900539Y-7149103D01*
X2900539Y-7149103D02*
X2910062Y-7187198D01*
X2910062Y-7187198D02*
X2910062Y-7215769D01*
X2910062Y-7215769D02*
X2900539Y-7253865D01*
X2900539Y-7253865D02*
X2891015Y-7272912D01*
X2891015Y-7272912D02*
X2871967Y-7291960D01*
X2871967Y-7291960D02*
X2843396Y-7301484D01*
X2843396Y-7301484D02*
X2795777Y-7301484D01*
X2995777Y-7301484D02*
X2995777Y-7168150D01*
X2995777Y-7206246D02*
X3005301Y-7187198D01*
X3005301Y-7187198D02*
X3014824Y-7177674D01*
X3014824Y-7177674D02*
X3033872Y-7168150D01*
X3033872Y-7168150D02*
X3052920Y-7168150D01*
X3119586Y-7301484D02*
X3119586Y-7168150D01*
X3119586Y-7101484D02*
X3110062Y-7111008D01*
X3110062Y-7111008D02*
X3119586Y-7120531D01*
X3119586Y-7120531D02*
X3129110Y-7111008D01*
X3129110Y-7111008D02*
X3119586Y-7101484D01*
X3119586Y-7101484D02*
X3119586Y-7120531D01*
X3243396Y-7301484D02*
X3224348Y-7291960D01*
X3224348Y-7291960D02*
X3214824Y-7272912D01*
X3214824Y-7272912D02*
X3214824Y-7101484D01*
X3348158Y-7301484D02*
X3329110Y-7291960D01*
X3329110Y-7291960D02*
X3319586Y-7272912D01*
X3319586Y-7272912D02*
X3319586Y-7101484D01*
X3576729Y-7301484D02*
X3576729Y-7101484D01*
X3576729Y-7101484D02*
X3643396Y-7244341D01*
X3643396Y-7244341D02*
X3710062Y-7101484D01*
X3710062Y-7101484D02*
X3710062Y-7301484D01*
X3891015Y-7301484D02*
X3891015Y-7196722D01*
X3891015Y-7196722D02*
X3881491Y-7177674D01*
X3881491Y-7177674D02*
X3862443Y-7168150D01*
X3862443Y-7168150D02*
X3824348Y-7168150D01*
X3824348Y-7168150D02*
X3805301Y-7177674D01*
X3891015Y-7291960D02*
X3871967Y-7301484D01*
X3871967Y-7301484D02*
X3824348Y-7301484D01*
X3824348Y-7301484D02*
X3805301Y-7291960D01*
X3805301Y-7291960D02*
X3795777Y-7272912D01*
X3795777Y-7272912D02*
X3795777Y-7253865D01*
X3795777Y-7253865D02*
X3805301Y-7234817D01*
X3805301Y-7234817D02*
X3824348Y-7225293D01*
X3824348Y-7225293D02*
X3871967Y-7225293D01*
X3871967Y-7225293D02*
X3891015Y-7215769D01*
X3986253Y-7168150D02*
X3986253Y-7368150D01*
X3986253Y-7177674D02*
X4005301Y-7168150D01*
X4005301Y-7168150D02*
X4043396Y-7168150D01*
X4043396Y-7168150D02*
X4062443Y-7177674D01*
X4062443Y-7177674D02*
X4071967Y-7187198D01*
X4071967Y-7187198D02*
X4081491Y-7206246D01*
X4081491Y-7206246D02*
X4081491Y-7263388D01*
X4081491Y-7263388D02*
X4071967Y-7282436D01*
X4071967Y-7282436D02*
X4062443Y-7291960D01*
X4062443Y-7291960D02*
X4043396Y-7301484D01*
X4043396Y-7301484D02*
X4005301Y-7301484D01*
X4005301Y-7301484D02*
X3986253Y-7291960D01*
X4167205Y-7282436D02*
X4176729Y-7291960D01*
X4176729Y-7291960D02*
X4167205Y-7301484D01*
X4167205Y-7301484D02*
X4157682Y-7291960D01*
X4157682Y-7291960D02*
X4167205Y-7282436D01*
X4167205Y-7282436D02*
X4167205Y-7301484D01*
X4167205Y-7177674D02*
X4176729Y-7187198D01*
X4176729Y-7187198D02*
X4167205Y-7196722D01*
X4167205Y-7196722D02*
X4157682Y-7187198D01*
X4157682Y-7187198D02*
X4167205Y-7177674D01*
X4167205Y-7177674D02*
X4167205Y-7196722D01*
M02*
