M48
; DRILL file {KiCad 7.0.7} date Tue Sep  5 00:15:27 2023
; FORMAT={-:-/ absolute / metric / decimal}
; #@! TF.CreationDate,2023-09-05T00:15:27-07:00
; #@! TF.GenerationSoftware,Kicad,Pcbnew,7.0.7
; #@! TF.FileFunction,Plated,1,2,PTH
FMAT,2
METRIC
; #@! TA.AperFunction,Plated,PTH,ViaDrill
T1C0.400
; #@! TA.AperFunction,Plated,PTH,ComponentDrill
T2C1.350
; #@! TA.AperFunction,Plated,PTH,ComponentDrill
T3C1.850
; #@! TA.AperFunction,Plated,PTH,ComponentDrill
T4C3.200
%
G90
G05
T1
X39.963Y-38.177
X47.66Y-38.177
X51.868Y-64.72
X55.356Y-38.177
X63.027Y-38.177
X70.723Y-38.177
X78.419Y-38.177
X86.141Y-38.177
X93.837Y-38.177
T2
X54.026Y-28.257
X54.026Y-33.757
X57.526Y-28.257
X57.526Y-33.757
X61.026Y-28.257
X61.026Y-33.757
X62.59Y-62.76
X62.59Y-68.26
X64.526Y-28.257
X64.526Y-33.757
X66.09Y-62.76
X66.09Y-68.26
X68.026Y-28.257
X68.026Y-33.757
X71.526Y-28.257
X71.526Y-33.757
X75.026Y-28.257
X75.026Y-33.757
X78.526Y-28.257
X78.526Y-33.757
T3
X39.642Y-47.29
X39.642Y-51.99
X39.642Y-56.69
X47.331Y-47.29
X47.331Y-51.99
X47.331Y-56.69
X55.02Y-47.29
X55.02Y-51.99
X55.02Y-56.69
X62.709Y-47.29
X62.709Y-51.99
X62.709Y-56.69
X70.398Y-47.29
X70.398Y-51.99
X70.398Y-56.69
X78.087Y-47.29
X78.087Y-51.99
X78.087Y-56.69
X85.776Y-47.29
X85.776Y-51.99
X85.776Y-56.69
X93.465Y-47.29
X93.465Y-51.99
X93.465Y-56.69
T4
X30.48Y-34.925
X30.48Y-60.325
X102.87Y-34.925
X102.87Y-60.325
T0
M30
