G04 #@! TF.GenerationSoftware,KiCad,Pcbnew,(6.0.7)*
G04 #@! TF.CreationDate,2023-04-27T15:14:37-07:00*
G04 #@! TF.ProjectId,OBC-Attempt-3_Dual_Deploy,4f42432d-4174-4746-956d-70742d335f44,rev?*
G04 #@! TF.SameCoordinates,Original*
G04 #@! TF.FileFunction,Legend,Top*
G04 #@! TF.FilePolarity,Positive*
%FSLAX46Y46*%
G04 Gerber Fmt 4.6, Leading zero omitted, Abs format (unit mm)*
G04 Created by KiCad (PCBNEW (6.0.7)) date 2023-04-27 15:14:37*
%MOMM*%
%LPD*%
G01*
G04 APERTURE LIST*
G04 Aperture macros list*
%AMRoundRect*
0 Rectangle with rounded corners*
0 $1 Rounding radius*
0 $2 $3 $4 $5 $6 $7 $8 $9 X,Y pos of 4 corners*
0 Add a 4 corners polygon primitive as box body*
4,1,4,$2,$3,$4,$5,$6,$7,$8,$9,$2,$3,0*
0 Add four circle primitives for the rounded corners*
1,1,$1+$1,$2,$3*
1,1,$1+$1,$4,$5*
1,1,$1+$1,$6,$7*
1,1,$1+$1,$8,$9*
0 Add four rect primitives between the rounded corners*
20,1,$1+$1,$2,$3,$4,$5,0*
20,1,$1+$1,$4,$5,$6,$7,0*
20,1,$1+$1,$6,$7,$8,$9,0*
20,1,$1+$1,$8,$9,$2,$3,0*%
%AMHorizOval*
0 Thick line with rounded ends*
0 $1 width*
0 $2 $3 position (X,Y) of the first rounded end (center of the circle)*
0 $4 $5 position (X,Y) of the second rounded end (center of the circle)*
0 Add line between two ends*
20,1,$1,$2,$3,$4,$5,0*
0 Add two circle primitives to create the rounded ends*
1,1,$1,$2,$3*
1,1,$1,$4,$5*%
%AMRotRect*
0 Rectangle, with rotation*
0 The origin of the aperture is its center*
0 $1 length*
0 $2 width*
0 $3 Rotation angle, in degrees counterclockwise*
0 Add horizontal line*
21,1,$1,$2,0,0,$3*%
%AMFreePoly0*
4,1,14,0.230680,0.111820,0.364320,-0.021821,0.377500,-0.053642,0.377500,-0.080000,0.364320,-0.111820,0.332500,-0.125000,-0.332500,-0.125000,-0.364320,-0.111820,-0.377500,-0.080000,-0.377500,0.080000,-0.364320,0.111820,-0.332500,0.125000,0.198860,0.125000,0.230680,0.111820,0.230680,0.111820,$1*%
%AMFreePoly1*
4,1,14,0.364320,0.111820,0.377500,0.080000,0.377501,0.053640,0.364318,0.021819,0.230680,-0.111820,0.198860,-0.125000,-0.332500,-0.125000,-0.364320,-0.111820,-0.377500,-0.080000,-0.377500,0.080000,-0.364320,0.111820,-0.332500,0.125000,0.332500,0.125000,0.364320,0.111820,0.364320,0.111820,$1*%
%AMFreePoly2*
4,1,15,0.053642,0.377500,0.080000,0.377500,0.111820,0.364320,0.125000,0.332500,0.125000,-0.332500,0.111820,-0.364320,0.080000,-0.377500,-0.080000,-0.377500,-0.111820,-0.364320,-0.125000,-0.332500,-0.125000,0.198860,-0.111820,0.230680,0.021820,0.364320,0.053640,0.377501,0.053642,0.377500,0.053642,0.377500,$1*%
%AMFreePoly3*
4,1,14,-0.021820,0.364320,0.111820,0.230679,0.125000,0.198858,0.125000,-0.332500,0.111820,-0.364320,0.080000,-0.377500,-0.080000,-0.377500,-0.111820,-0.364320,-0.125000,-0.332500,-0.125000,0.332500,-0.111820,0.364320,-0.080000,0.377500,-0.053640,0.377500,-0.021820,0.364320,-0.021820,0.364320,$1*%
%AMFreePoly4*
4,1,14,0.364320,0.111820,0.377500,0.080000,0.377500,-0.080000,0.364320,-0.111820,0.332500,-0.125000,-0.198860,-0.125001,-0.230681,-0.111818,-0.364320,0.021820,-0.377500,0.053640,-0.377500,0.080000,-0.364320,0.111820,-0.332500,0.125000,0.332500,0.125000,0.364320,0.111820,0.364320,0.111820,$1*%
%AMFreePoly5*
4,1,15,-0.198858,0.125000,0.332500,0.125000,0.364320,0.111820,0.377500,0.080000,0.377500,-0.080000,0.364320,-0.111820,0.332500,-0.125000,-0.332500,-0.125000,-0.364320,-0.111820,-0.377500,-0.080000,-0.377500,-0.053640,-0.364320,-0.021820,-0.230680,0.111820,-0.198860,0.125001,-0.198858,0.125000,-0.198858,0.125000,$1*%
%AMFreePoly6*
4,1,14,0.111820,0.364320,0.125000,0.332500,0.125001,-0.198860,0.111818,-0.230681,-0.021820,-0.364320,-0.053640,-0.377500,-0.080000,-0.377500,-0.111820,-0.364320,-0.125000,-0.332500,-0.125000,0.332500,-0.111820,0.364320,-0.080000,0.377500,0.080000,0.377500,0.111820,0.364320,0.111820,0.364320,$1*%
%AMFreePoly7*
4,1,14,0.111820,0.364320,0.125000,0.332500,0.125000,-0.332500,0.111820,-0.364320,0.080000,-0.377500,0.053640,-0.377501,0.021819,-0.364318,-0.111820,-0.230680,-0.125000,-0.198860,-0.125000,0.332500,-0.111820,0.364320,-0.080000,0.377500,0.080000,0.377500,0.111820,0.364320,0.111820,0.364320,$1*%
G04 Aperture macros list end*
%ADD10C,0.187500*%
%ADD11C,0.100000*%
%ADD12C,0.150000*%
%ADD13C,0.120000*%
%ADD14RoundRect,0.140000X-0.170000X0.140000X-0.170000X-0.140000X0.170000X-0.140000X0.170000X0.140000X0*%
%ADD15RoundRect,0.140000X0.170000X-0.140000X0.170000X0.140000X-0.170000X0.140000X-0.170000X-0.140000X0*%
%ADD16R,1.500000X2.000000*%
%ADD17R,3.800000X2.000000*%
%ADD18R,1.700000X1.700000*%
%ADD19O,1.700000X1.700000*%
%ADD20RoundRect,0.137500X-0.137500X0.587500X-0.137500X-0.587500X0.137500X-0.587500X0.137500X0.587500X0*%
%ADD21RoundRect,0.135000X0.185000X-0.135000X0.185000X0.135000X-0.185000X0.135000X-0.185000X-0.135000X0*%
%ADD22R,0.850000X0.850000*%
%ADD23O,0.850000X0.850000*%
%ADD24RoundRect,0.140000X-0.140000X-0.170000X0.140000X-0.170000X0.140000X0.170000X-0.140000X0.170000X0*%
%ADD25RoundRect,0.225000X0.225000X0.250000X-0.225000X0.250000X-0.225000X-0.250000X0.225000X-0.250000X0*%
%ADD26RoundRect,0.250000X-0.262500X-0.450000X0.262500X-0.450000X0.262500X0.450000X-0.262500X0.450000X0*%
%ADD27RoundRect,0.250000X0.262500X0.450000X-0.262500X0.450000X-0.262500X-0.450000X0.262500X-0.450000X0*%
%ADD28RotRect,0.850000X0.850000X150.000000*%
%ADD29HorizOval,0.850000X0.000000X0.000000X0.000000X0.000000X0*%
%ADD30RoundRect,0.140000X0.140000X0.170000X-0.140000X0.170000X-0.140000X-0.170000X0.140000X-0.170000X0*%
%ADD31RoundRect,0.150000X-0.150000X0.825000X-0.150000X-0.825000X0.150000X-0.825000X0.150000X0.825000X0*%
%ADD32RoundRect,0.200000X-0.200000X-0.250000X0.200000X-0.250000X0.200000X0.250000X-0.200000X0.250000X0*%
%ADD33RoundRect,0.135000X-0.185000X0.135000X-0.185000X-0.135000X0.185000X-0.135000X0.185000X0.135000X0*%
%ADD34FreePoly0,0.000000*%
%ADD35RoundRect,0.062500X-0.375000X-0.062500X0.375000X-0.062500X0.375000X0.062500X-0.375000X0.062500X0*%
%ADD36FreePoly1,0.000000*%
%ADD37FreePoly2,0.000000*%
%ADD38RoundRect,0.062500X-0.062500X-0.375000X0.062500X-0.375000X0.062500X0.375000X-0.062500X0.375000X0*%
%ADD39FreePoly3,0.000000*%
%ADD40FreePoly4,0.000000*%
%ADD41FreePoly5,0.000000*%
%ADD42FreePoly6,0.000000*%
%ADD43FreePoly7,0.000000*%
G04 APERTURE END LIST*
D10*
X148785714Y-121853571D02*
X148214285Y-121853571D01*
X147585714Y-121853571D02*
X147014285Y-121853571D01*
X147300000Y-122139285D02*
X147300000Y-121567857D01*
D11*
X151458571Y-104693333D02*
X151482380Y-104717142D01*
X151506190Y-104788571D01*
X151506190Y-104836190D01*
X151482380Y-104907619D01*
X151434761Y-104955238D01*
X151387142Y-104979047D01*
X151291904Y-105002857D01*
X151220476Y-105002857D01*
X151125238Y-104979047D01*
X151077619Y-104955238D01*
X151030000Y-104907619D01*
X151006190Y-104836190D01*
X151006190Y-104788571D01*
X151030000Y-104717142D01*
X151053809Y-104693333D01*
X151220476Y-104407619D02*
X151196666Y-104455238D01*
X151172857Y-104479047D01*
X151125238Y-104502857D01*
X151101428Y-104502857D01*
X151053809Y-104479047D01*
X151030000Y-104455238D01*
X151006190Y-104407619D01*
X151006190Y-104312380D01*
X151030000Y-104264761D01*
X151053809Y-104240952D01*
X151101428Y-104217142D01*
X151125238Y-104217142D01*
X151172857Y-104240952D01*
X151196666Y-104264761D01*
X151220476Y-104312380D01*
X151220476Y-104407619D01*
X151244285Y-104455238D01*
X151268095Y-104479047D01*
X151315714Y-104502857D01*
X151410952Y-104502857D01*
X151458571Y-104479047D01*
X151482380Y-104455238D01*
X151506190Y-104407619D01*
X151506190Y-104312380D01*
X151482380Y-104264761D01*
X151458571Y-104240952D01*
X151410952Y-104217142D01*
X151315714Y-104217142D01*
X151268095Y-104240952D01*
X151244285Y-104264761D01*
X151220476Y-104312380D01*
X151368571Y-102633333D02*
X151392380Y-102657142D01*
X151416190Y-102728571D01*
X151416190Y-102776190D01*
X151392380Y-102847619D01*
X151344761Y-102895238D01*
X151297142Y-102919047D01*
X151201904Y-102942857D01*
X151130476Y-102942857D01*
X151035238Y-102919047D01*
X150987619Y-102895238D01*
X150940000Y-102847619D01*
X150916190Y-102776190D01*
X150916190Y-102728571D01*
X150940000Y-102657142D01*
X150963809Y-102633333D01*
X151082857Y-102204761D02*
X151416190Y-102204761D01*
X150892380Y-102323809D02*
X151249523Y-102442857D01*
X151249523Y-102133333D01*
D12*
X148002380Y-111711904D02*
X148811904Y-111711904D01*
X148907142Y-111664285D01*
X148954761Y-111616666D01*
X149002380Y-111521428D01*
X149002380Y-111330952D01*
X148954761Y-111235714D01*
X148907142Y-111188095D01*
X148811904Y-111140476D01*
X148002380Y-111140476D01*
X149002380Y-110140476D02*
X149002380Y-110711904D01*
X149002380Y-110426190D02*
X148002380Y-110426190D01*
X148145238Y-110521428D01*
X148240476Y-110616666D01*
X148288095Y-110711904D01*
X148366666Y-122572380D02*
X148366666Y-123286666D01*
X148319047Y-123429523D01*
X148223809Y-123524761D01*
X148080952Y-123572380D01*
X147985714Y-123572380D01*
X149271428Y-122572380D02*
X149080952Y-122572380D01*
X148985714Y-122620000D01*
X148938095Y-122667619D01*
X148842857Y-122810476D01*
X148795238Y-123000952D01*
X148795238Y-123381904D01*
X148842857Y-123477142D01*
X148890476Y-123524761D01*
X148985714Y-123572380D01*
X149176190Y-123572380D01*
X149271428Y-123524761D01*
X149319047Y-123477142D01*
X149366666Y-123381904D01*
X149366666Y-123143809D01*
X149319047Y-123048571D01*
X149271428Y-123000952D01*
X149176190Y-122953333D01*
X148985714Y-122953333D01*
X148890476Y-123000952D01*
X148842857Y-123048571D01*
X148795238Y-123143809D01*
X151802380Y-118011904D02*
X152611904Y-118011904D01*
X152707142Y-117964285D01*
X152754761Y-117916666D01*
X152802380Y-117821428D01*
X152802380Y-117630952D01*
X152754761Y-117535714D01*
X152707142Y-117488095D01*
X152611904Y-117440476D01*
X151802380Y-117440476D01*
X152135714Y-116535714D02*
X152802380Y-116535714D01*
X151754761Y-116773809D02*
X152469047Y-117011904D01*
X152469047Y-116392857D01*
D11*
X151536190Y-112043333D02*
X151298095Y-112210000D01*
X151536190Y-112329047D02*
X151036190Y-112329047D01*
X151036190Y-112138571D01*
X151060000Y-112090952D01*
X151083809Y-112067142D01*
X151131428Y-112043333D01*
X151202857Y-112043333D01*
X151250476Y-112067142D01*
X151274285Y-112090952D01*
X151298095Y-112138571D01*
X151298095Y-112329047D01*
X151202857Y-111614761D02*
X151536190Y-111614761D01*
X151012380Y-111733809D02*
X151369523Y-111852857D01*
X151369523Y-111543333D01*
X157153333Y-101436190D02*
X157153333Y-101793333D01*
X157129523Y-101864761D01*
X157081904Y-101912380D01*
X157010476Y-101936190D01*
X156962857Y-101936190D01*
X157605714Y-101602857D02*
X157605714Y-101936190D01*
X157486666Y-101412380D02*
X157367619Y-101769523D01*
X157677142Y-101769523D01*
X159941666Y-105278571D02*
X159917857Y-105302380D01*
X159846428Y-105326190D01*
X159798809Y-105326190D01*
X159727380Y-105302380D01*
X159679761Y-105254761D01*
X159655952Y-105207142D01*
X159632142Y-105111904D01*
X159632142Y-105040476D01*
X159655952Y-104945238D01*
X159679761Y-104897619D01*
X159727380Y-104850000D01*
X159798809Y-104826190D01*
X159846428Y-104826190D01*
X159917857Y-104850000D01*
X159941666Y-104873809D01*
X160394047Y-104826190D02*
X160155952Y-104826190D01*
X160132142Y-105064285D01*
X160155952Y-105040476D01*
X160203571Y-105016666D01*
X160322619Y-105016666D01*
X160370238Y-105040476D01*
X160394047Y-105064285D01*
X160417857Y-105111904D01*
X160417857Y-105230952D01*
X160394047Y-105278571D01*
X160370238Y-105302380D01*
X160322619Y-105326190D01*
X160203571Y-105326190D01*
X160155952Y-105302380D01*
X160132142Y-105278571D01*
X148366666Y-117178571D02*
X148342857Y-117202380D01*
X148271428Y-117226190D01*
X148223809Y-117226190D01*
X148152380Y-117202380D01*
X148104761Y-117154761D01*
X148080952Y-117107142D01*
X148057142Y-117011904D01*
X148057142Y-116940476D01*
X148080952Y-116845238D01*
X148104761Y-116797619D01*
X148152380Y-116750000D01*
X148223809Y-116726190D01*
X148271428Y-116726190D01*
X148342857Y-116750000D01*
X148366666Y-116773809D01*
X148842857Y-117226190D02*
X148557142Y-117226190D01*
X148700000Y-117226190D02*
X148700000Y-116726190D01*
X148652380Y-116797619D01*
X148604761Y-116845238D01*
X148557142Y-116869047D01*
X152683333Y-100926190D02*
X152683333Y-101283333D01*
X152659523Y-101354761D01*
X152611904Y-101402380D01*
X152540476Y-101426190D01*
X152492857Y-101426190D01*
X152873809Y-100926190D02*
X153183333Y-100926190D01*
X153016666Y-101116666D01*
X153088095Y-101116666D01*
X153135714Y-101140476D01*
X153159523Y-101164285D01*
X153183333Y-101211904D01*
X153183333Y-101330952D01*
X153159523Y-101378571D01*
X153135714Y-101402380D01*
X153088095Y-101426190D01*
X152945238Y-101426190D01*
X152897619Y-101402380D01*
X152873809Y-101378571D01*
X145036666Y-117758571D02*
X145012857Y-117782380D01*
X144941428Y-117806190D01*
X144893809Y-117806190D01*
X144822380Y-117782380D01*
X144774761Y-117734761D01*
X144750952Y-117687142D01*
X144727142Y-117591904D01*
X144727142Y-117520476D01*
X144750952Y-117425238D01*
X144774761Y-117377619D01*
X144822380Y-117330000D01*
X144893809Y-117306190D01*
X144941428Y-117306190D01*
X145012857Y-117330000D01*
X145036666Y-117353809D01*
X145227142Y-117353809D02*
X145250952Y-117330000D01*
X145298571Y-117306190D01*
X145417619Y-117306190D01*
X145465238Y-117330000D01*
X145489047Y-117353809D01*
X145512857Y-117401428D01*
X145512857Y-117449047D01*
X145489047Y-117520476D01*
X145203333Y-117806190D01*
X145512857Y-117806190D01*
X158406666Y-108826190D02*
X158240000Y-108588095D01*
X158120952Y-108826190D02*
X158120952Y-108326190D01*
X158311428Y-108326190D01*
X158359047Y-108350000D01*
X158382857Y-108373809D01*
X158406666Y-108421428D01*
X158406666Y-108492857D01*
X158382857Y-108540476D01*
X158359047Y-108564285D01*
X158311428Y-108588095D01*
X158120952Y-108588095D01*
X158573333Y-108326190D02*
X158882857Y-108326190D01*
X158716190Y-108516666D01*
X158787619Y-108516666D01*
X158835238Y-108540476D01*
X158859047Y-108564285D01*
X158882857Y-108611904D01*
X158882857Y-108730952D01*
X158859047Y-108778571D01*
X158835238Y-108802380D01*
X158787619Y-108826190D01*
X158644761Y-108826190D01*
X158597142Y-108802380D01*
X158573333Y-108778571D01*
X158316666Y-111316190D02*
X158150000Y-111078095D01*
X158030952Y-111316190D02*
X158030952Y-110816190D01*
X158221428Y-110816190D01*
X158269047Y-110840000D01*
X158292857Y-110863809D01*
X158316666Y-110911428D01*
X158316666Y-110982857D01*
X158292857Y-111030476D01*
X158269047Y-111054285D01*
X158221428Y-111078095D01*
X158030952Y-111078095D01*
X158507142Y-110863809D02*
X158530952Y-110840000D01*
X158578571Y-110816190D01*
X158697619Y-110816190D01*
X158745238Y-110840000D01*
X158769047Y-110863809D01*
X158792857Y-110911428D01*
X158792857Y-110959047D01*
X158769047Y-111030476D01*
X158483333Y-111316190D01*
X158792857Y-111316190D01*
X158066666Y-106153571D02*
X158042857Y-106177380D01*
X157971428Y-106201190D01*
X157923809Y-106201190D01*
X157852380Y-106177380D01*
X157804761Y-106129761D01*
X157780952Y-106082142D01*
X157757142Y-105986904D01*
X157757142Y-105915476D01*
X157780952Y-105820238D01*
X157804761Y-105772619D01*
X157852380Y-105725000D01*
X157923809Y-105701190D01*
X157971428Y-105701190D01*
X158042857Y-105725000D01*
X158066666Y-105748809D01*
X158233333Y-105701190D02*
X158542857Y-105701190D01*
X158376190Y-105891666D01*
X158447619Y-105891666D01*
X158495238Y-105915476D01*
X158519047Y-105939285D01*
X158542857Y-105986904D01*
X158542857Y-106105952D01*
X158519047Y-106153571D01*
X158495238Y-106177380D01*
X158447619Y-106201190D01*
X158304761Y-106201190D01*
X158257142Y-106177380D01*
X158233333Y-106153571D01*
D12*
X161016666Y-120052380D02*
X161016666Y-120766666D01*
X160969047Y-120909523D01*
X160873809Y-121004761D01*
X160730952Y-121052380D01*
X160635714Y-121052380D01*
X161969047Y-120052380D02*
X161492857Y-120052380D01*
X161445238Y-120528571D01*
X161492857Y-120480952D01*
X161588095Y-120433333D01*
X161826190Y-120433333D01*
X161921428Y-120480952D01*
X161969047Y-120528571D01*
X162016666Y-120623809D01*
X162016666Y-120861904D01*
X161969047Y-120957142D01*
X161921428Y-121004761D01*
X161826190Y-121052380D01*
X161588095Y-121052380D01*
X161492857Y-121004761D01*
X161445238Y-120957142D01*
D11*
X151528571Y-109383333D02*
X151552380Y-109407142D01*
X151576190Y-109478571D01*
X151576190Y-109526190D01*
X151552380Y-109597619D01*
X151504761Y-109645238D01*
X151457142Y-109669047D01*
X151361904Y-109692857D01*
X151290476Y-109692857D01*
X151195238Y-109669047D01*
X151147619Y-109645238D01*
X151100000Y-109597619D01*
X151076190Y-109526190D01*
X151076190Y-109478571D01*
X151100000Y-109407142D01*
X151123809Y-109383333D01*
X151076190Y-109216666D02*
X151076190Y-108883333D01*
X151576190Y-109097619D01*
X150206666Y-107648571D02*
X150182857Y-107672380D01*
X150111428Y-107696190D01*
X150063809Y-107696190D01*
X149992380Y-107672380D01*
X149944761Y-107624761D01*
X149920952Y-107577142D01*
X149897142Y-107481904D01*
X149897142Y-107410476D01*
X149920952Y-107315238D01*
X149944761Y-107267619D01*
X149992380Y-107220000D01*
X150063809Y-107196190D01*
X150111428Y-107196190D01*
X150182857Y-107220000D01*
X150206666Y-107243809D01*
X150635238Y-107196190D02*
X150540000Y-107196190D01*
X150492380Y-107220000D01*
X150468571Y-107243809D01*
X150420952Y-107315238D01*
X150397142Y-107410476D01*
X150397142Y-107600952D01*
X150420952Y-107648571D01*
X150444761Y-107672380D01*
X150492380Y-107696190D01*
X150587619Y-107696190D01*
X150635238Y-107672380D01*
X150659047Y-107648571D01*
X150682857Y-107600952D01*
X150682857Y-107481904D01*
X150659047Y-107434285D01*
X150635238Y-107410476D01*
X150587619Y-107386666D01*
X150492380Y-107386666D01*
X150444761Y-107410476D01*
X150420952Y-107434285D01*
X150397142Y-107481904D01*
D12*
X162452380Y-111961904D02*
X163261904Y-111961904D01*
X163357142Y-111914285D01*
X163404761Y-111866666D01*
X163452380Y-111771428D01*
X163452380Y-111580952D01*
X163404761Y-111485714D01*
X163357142Y-111438095D01*
X163261904Y-111390476D01*
X162452380Y-111390476D01*
X162452380Y-111009523D02*
X162452380Y-110390476D01*
X162833333Y-110723809D01*
X162833333Y-110580952D01*
X162880952Y-110485714D01*
X162928571Y-110438095D01*
X163023809Y-110390476D01*
X163261904Y-110390476D01*
X163357142Y-110438095D01*
X163404761Y-110485714D01*
X163452380Y-110580952D01*
X163452380Y-110866666D01*
X163404761Y-110961904D01*
X163357142Y-111009523D01*
D11*
X145815238Y-104166190D02*
X146148571Y-104666190D01*
X146148571Y-104166190D02*
X145815238Y-104666190D01*
X146600952Y-104666190D02*
X146315238Y-104666190D01*
X146458095Y-104666190D02*
X146458095Y-104166190D01*
X146410476Y-104237619D01*
X146362857Y-104285238D01*
X146315238Y-104309047D01*
X153146190Y-112153333D02*
X152908095Y-112320000D01*
X153146190Y-112439047D02*
X152646190Y-112439047D01*
X152646190Y-112248571D01*
X152670000Y-112200952D01*
X152693809Y-112177142D01*
X152741428Y-112153333D01*
X152812857Y-112153333D01*
X152860476Y-112177142D01*
X152884285Y-112200952D01*
X152908095Y-112248571D01*
X152908095Y-112439047D01*
X152646190Y-111700952D02*
X152646190Y-111939047D01*
X152884285Y-111962857D01*
X152860476Y-111939047D01*
X152836666Y-111891428D01*
X152836666Y-111772380D01*
X152860476Y-111724761D01*
X152884285Y-111700952D01*
X152931904Y-111677142D01*
X153050952Y-111677142D01*
X153098571Y-111700952D01*
X153122380Y-111724761D01*
X153146190Y-111772380D01*
X153146190Y-111891428D01*
X153122380Y-111939047D01*
X153098571Y-111962857D01*
X155869047Y-101451190D02*
X155869047Y-101855952D01*
X155892857Y-101903571D01*
X155916666Y-101927380D01*
X155964285Y-101951190D01*
X156059523Y-101951190D01*
X156107142Y-101927380D01*
X156130952Y-101903571D01*
X156154761Y-101855952D01*
X156154761Y-101451190D01*
X156369047Y-101498809D02*
X156392857Y-101475000D01*
X156440476Y-101451190D01*
X156559523Y-101451190D01*
X156607142Y-101475000D01*
X156630952Y-101498809D01*
X156654761Y-101546428D01*
X156654761Y-101594047D01*
X156630952Y-101665476D01*
X156345238Y-101951190D01*
X156654761Y-101951190D01*
X157256718Y-110525140D02*
X157232909Y-110548949D01*
X157161480Y-110572759D01*
X157113861Y-110572759D01*
X157042432Y-110548949D01*
X156994813Y-110501330D01*
X156971004Y-110453711D01*
X156947194Y-110358473D01*
X156947194Y-110287045D01*
X156971004Y-110191807D01*
X156994813Y-110144188D01*
X157042432Y-110096569D01*
X157113861Y-110072759D01*
X157161480Y-110072759D01*
X157232909Y-110096569D01*
X157256718Y-110120378D01*
X157494813Y-110572759D02*
X157590052Y-110572759D01*
X157637671Y-110548949D01*
X157661480Y-110525140D01*
X157709099Y-110453711D01*
X157732909Y-110358473D01*
X157732909Y-110167997D01*
X157709099Y-110120378D01*
X157685290Y-110096569D01*
X157637671Y-110072759D01*
X157542432Y-110072759D01*
X157494813Y-110096569D01*
X157471004Y-110120378D01*
X157447194Y-110167997D01*
X157447194Y-110287045D01*
X157471004Y-110334664D01*
X157494813Y-110358473D01*
X157542432Y-110382283D01*
X157637671Y-110382283D01*
X157685290Y-110358473D01*
X157709099Y-110334664D01*
X157732909Y-110287045D01*
D12*
X156502380Y-118041904D02*
X157311904Y-118041904D01*
X157407142Y-117994285D01*
X157454761Y-117946666D01*
X157502380Y-117851428D01*
X157502380Y-117660952D01*
X157454761Y-117565714D01*
X157407142Y-117518095D01*
X157311904Y-117470476D01*
X156502380Y-117470476D01*
X156502380Y-116518095D02*
X156502380Y-116994285D01*
X156978571Y-117041904D01*
X156930952Y-116994285D01*
X156883333Y-116899047D01*
X156883333Y-116660952D01*
X156930952Y-116565714D01*
X156978571Y-116518095D01*
X157073809Y-116470476D01*
X157311904Y-116470476D01*
X157407142Y-116518095D01*
X157454761Y-116565714D01*
X157502380Y-116660952D01*
X157502380Y-116899047D01*
X157454761Y-116994285D01*
X157407142Y-117041904D01*
D11*
X153316190Y-109313333D02*
X153078095Y-109480000D01*
X153316190Y-109599047D02*
X152816190Y-109599047D01*
X152816190Y-109408571D01*
X152840000Y-109360952D01*
X152863809Y-109337142D01*
X152911428Y-109313333D01*
X152982857Y-109313333D01*
X153030476Y-109337142D01*
X153054285Y-109360952D01*
X153078095Y-109408571D01*
X153078095Y-109599047D01*
X153316190Y-108837142D02*
X153316190Y-109122857D01*
X153316190Y-108980000D02*
X152816190Y-108980000D01*
X152887619Y-109027619D01*
X152935238Y-109075238D01*
X152959047Y-109122857D01*
D13*
X149960000Y-104772164D02*
X149960000Y-104987836D01*
X150680000Y-104772164D02*
X150680000Y-104987836D01*
X149940000Y-102997836D02*
X149940000Y-102782164D01*
X150660000Y-102997836D02*
X150660000Y-102782164D01*
X142790000Y-109090000D02*
X144050000Y-109090000D01*
X149610000Y-109090000D02*
X148350000Y-109090000D01*
X149610000Y-112850000D02*
X149610000Y-109090000D01*
X142790000Y-115100000D02*
X142790000Y-109090000D01*
X158050000Y-123750000D02*
X158050000Y-121090000D01*
X150310000Y-122420000D02*
X150310000Y-121090000D01*
X150310000Y-121090000D02*
X151640000Y-121090000D01*
X152910000Y-121090000D02*
X158050000Y-121090000D01*
X152910000Y-123750000D02*
X158050000Y-123750000D01*
X152910000Y-123750000D02*
X152910000Y-121090000D01*
X154500000Y-117290000D02*
X154500000Y-115280000D01*
X150180000Y-115280000D02*
X150535000Y-115280000D01*
X154500000Y-117290000D02*
X154500000Y-119300000D01*
X154145000Y-115280000D02*
X154145000Y-113815000D01*
X154500000Y-119300000D02*
X154145000Y-119300000D01*
X150180000Y-117290000D02*
X150180000Y-119300000D01*
X154500000Y-115280000D02*
X154145000Y-115280000D01*
X150180000Y-117290000D02*
X150180000Y-115280000D01*
X150180000Y-119300000D02*
X150535000Y-119300000D01*
X152480000Y-112153641D02*
X152480000Y-111846359D01*
X151720000Y-112153641D02*
X151720000Y-111846359D01*
X157855000Y-102790000D02*
X157855000Y-101915000D01*
X159245000Y-101915000D02*
X158944493Y-101915000D01*
X159245000Y-102790000D02*
X159158276Y-102790000D01*
X159245000Y-104160000D02*
X158550000Y-104160000D01*
X157941724Y-102790000D02*
X157855000Y-102790000D01*
X159245000Y-102790000D02*
X159245000Y-101915000D01*
X158155507Y-101915000D02*
X157855000Y-101915000D01*
X159245000Y-103475000D02*
X159245000Y-104160000D01*
X158512165Y-105410000D02*
X158727837Y-105410000D01*
X158512165Y-104690000D02*
X158727837Y-104690000D01*
X148892164Y-115740000D02*
X149107836Y-115740000D01*
X148892164Y-116460000D02*
X149107836Y-116460000D01*
X154265000Y-100480000D02*
X153390000Y-100480000D01*
X154265000Y-100480000D02*
X154265000Y-100566724D01*
X155635000Y-100480000D02*
X155635000Y-101175000D01*
X154265000Y-101783276D02*
X154265000Y-101870000D01*
X154950000Y-100480000D02*
X155635000Y-100480000D01*
X153390000Y-100480000D02*
X153390000Y-100780507D01*
X153390000Y-101569493D02*
X153390000Y-101870000D01*
X154265000Y-101870000D02*
X153390000Y-101870000D01*
X145260580Y-116890000D02*
X144979420Y-116890000D01*
X145260580Y-115870000D02*
X144979420Y-115870000D01*
X156082936Y-108014999D02*
X156537064Y-108014999D01*
X156082936Y-109484999D02*
X156537064Y-109484999D01*
X156437064Y-112685000D02*
X155982936Y-112685000D01*
X156437064Y-111215000D02*
X155982936Y-111215000D01*
X158532165Y-106490000D02*
X158747837Y-106490000D01*
X158532165Y-107210000D02*
X158747837Y-107210000D01*
X163644388Y-118786324D02*
X165081888Y-116296501D01*
X163644388Y-118786324D02*
X163569282Y-118742962D01*
X163301888Y-119379551D02*
X162959388Y-119972778D01*
X162515718Y-118134686D02*
X162440612Y-118091324D01*
X165081888Y-116296501D02*
X164821641Y-116146247D01*
X164138359Y-115751754D02*
X163878112Y-115601501D01*
X162440612Y-118091324D02*
X163878112Y-115601501D01*
X162959388Y-119972778D02*
X162357500Y-119625278D01*
X148400000Y-119505000D02*
X149085000Y-119505000D01*
X146840000Y-119505000D02*
X146840000Y-119805507D01*
X147715000Y-119505000D02*
X146840000Y-119505000D01*
X149085000Y-119505000D02*
X149085000Y-120200000D01*
X146840000Y-120594493D02*
X146840000Y-120895000D01*
X147715000Y-120895000D02*
X146840000Y-120895000D01*
X147715000Y-120808276D02*
X147715000Y-120895000D01*
X147715000Y-119505000D02*
X147715000Y-119591724D01*
X150050000Y-108862164D02*
X150050000Y-109077836D01*
X150770000Y-108862164D02*
X150770000Y-109077836D01*
X151087836Y-106990000D02*
X150872164Y-106990000D01*
X151087836Y-106270000D02*
X150872164Y-106270000D01*
X164720000Y-111200000D02*
X164720000Y-113150000D01*
X159600000Y-111200000D02*
X159600000Y-109250000D01*
X164720000Y-111200000D02*
X164720000Y-107750000D01*
X159600000Y-111200000D02*
X159600000Y-113150000D01*
X147820000Y-102880000D02*
X147130000Y-102880000D01*
X148030000Y-105800000D02*
X148370000Y-105800000D01*
X148040000Y-103080000D02*
X148370000Y-103080000D01*
X149310000Y-104760000D02*
X149310000Y-104120000D01*
X147090000Y-104760000D02*
X147090000Y-104120000D01*
X148040001Y-103080000D02*
G75*
G03*
X147820000Y-102880000I-310002J-120002D01*
G01*
X153320000Y-111946359D02*
X153320000Y-112253641D01*
X154080000Y-111946359D02*
X154080000Y-112253641D01*
X157050000Y-102640000D02*
X157050000Y-102865000D01*
X152830000Y-106860000D02*
X152830000Y-106635000D01*
X153055000Y-102640000D02*
X152830000Y-102640000D01*
X156825000Y-102640000D02*
X157050000Y-102640000D01*
X157050000Y-106860000D02*
X157050000Y-106635000D01*
X153055000Y-106860000D02*
X152830000Y-106860000D01*
X156825000Y-106860000D02*
X157050000Y-106860000D01*
X146840000Y-117805000D02*
X146840000Y-118105507D01*
X148400000Y-117805000D02*
X149085000Y-117805000D01*
X146840000Y-118894493D02*
X146840000Y-119195000D01*
X147715000Y-117805000D02*
X146840000Y-117805000D01*
X147715000Y-119195000D02*
X146840000Y-119195000D01*
X149085000Y-117805000D02*
X149085000Y-118500000D01*
X147715000Y-119108276D02*
X147715000Y-119195000D01*
X147715000Y-117805000D02*
X147715000Y-117891724D01*
X155957836Y-109990000D02*
X155742164Y-109990000D01*
X155957836Y-110710000D02*
X155742164Y-110710000D01*
X154910000Y-115270000D02*
X155265000Y-115270000D01*
X159230000Y-119290000D02*
X158875000Y-119290000D01*
X158875000Y-115270000D02*
X158875000Y-113805000D01*
X154910000Y-119290000D02*
X155265000Y-119290000D01*
X159230000Y-115270000D02*
X158875000Y-115270000D01*
X159230000Y-117280000D02*
X159230000Y-115270000D01*
X154910000Y-117280000D02*
X154910000Y-115270000D01*
X159230000Y-117280000D02*
X159230000Y-119290000D01*
X154910000Y-117280000D02*
X154910000Y-119290000D01*
X151810000Y-108706359D02*
X151810000Y-109013641D01*
X152570000Y-108706359D02*
X152570000Y-109013641D01*
%LPC*%
D14*
X150320000Y-104400000D03*
X150320000Y-105360000D03*
D15*
X150300000Y-103370000D03*
X150300000Y-102410000D03*
D16*
X143900000Y-114150000D03*
X146200000Y-114150000D03*
D17*
X146200000Y-107850000D03*
D16*
X148500000Y-114150000D03*
D18*
X151640000Y-122420000D03*
D19*
X154180000Y-122420000D03*
X156720000Y-122420000D03*
D20*
X153610000Y-114540000D03*
X151070000Y-114540000D03*
X151070000Y-120040000D03*
X153610000Y-120040000D03*
D21*
X152100000Y-112510000D03*
X152100000Y-111490000D03*
D22*
X158550000Y-103475000D03*
D23*
X158550000Y-102475000D03*
D24*
X158140001Y-105050000D03*
X159100001Y-105050000D03*
X148520000Y-116100000D03*
X149480000Y-116100000D03*
D22*
X154950000Y-101175000D03*
D23*
X153950000Y-101175000D03*
D25*
X145895000Y-116380000D03*
X144345000Y-116380000D03*
D26*
X155397500Y-108749999D03*
X157222500Y-108749999D03*
D27*
X157122500Y-111950000D03*
X155297500Y-111950000D03*
D24*
X158160001Y-106850000D03*
X159120001Y-106850000D03*
D28*
X162700000Y-119032051D03*
D29*
X163200000Y-118166026D03*
X163700000Y-117300000D03*
X164200000Y-116433975D03*
D22*
X148400000Y-120200000D03*
D23*
X147400000Y-120200000D03*
D14*
X150410000Y-108490000D03*
X150410000Y-109450000D03*
D30*
X151460000Y-106630000D03*
X150500000Y-106630000D03*
D31*
X164065000Y-108725000D03*
X162795000Y-108725000D03*
X161525000Y-108725000D03*
X160255000Y-108725000D03*
X160255000Y-113675000D03*
X161525000Y-113675000D03*
X162795000Y-113675000D03*
X164065000Y-113675000D03*
D32*
X147475000Y-103515000D03*
X147475000Y-105365000D03*
X148925000Y-105365000D03*
X148925000Y-103515000D03*
D33*
X153700000Y-111590000D03*
X153700000Y-112610000D03*
D34*
X152942500Y-103250000D03*
D35*
X153002500Y-103750000D03*
X153002500Y-104250000D03*
X153002500Y-104750000D03*
X153002500Y-105250000D03*
X153002500Y-105750000D03*
D36*
X152942500Y-106250000D03*
D37*
X153440000Y-106747500D03*
D38*
X153940000Y-106687500D03*
X154440000Y-106687500D03*
X154940000Y-106687500D03*
X155440000Y-106687500D03*
X155940000Y-106687500D03*
D39*
X156440000Y-106747500D03*
D40*
X156937500Y-106250000D03*
D35*
X156877500Y-105750000D03*
X156877500Y-105250000D03*
X156877500Y-104750000D03*
X156877500Y-104250000D03*
X156877500Y-103750000D03*
D41*
X156937500Y-103250000D03*
D42*
X156440000Y-102752500D03*
D38*
X155940000Y-102812500D03*
X155440000Y-102812500D03*
X154940000Y-102812500D03*
X154440000Y-102812500D03*
X153940000Y-102812500D03*
D43*
X153440000Y-102752500D03*
D22*
X148400000Y-118500000D03*
D23*
X147400000Y-118500000D03*
D30*
X156330000Y-110350000D03*
X155370000Y-110350000D03*
D20*
X158340000Y-114530000D03*
X155800000Y-114530000D03*
X155800000Y-120030000D03*
X158340000Y-120030000D03*
D33*
X152190000Y-108350000D03*
X152190000Y-109370000D03*
M02*
