G04 #@! TF.GenerationSoftware,KiCad,Pcbnew,(6.0.7)*
G04 #@! TF.CreationDate,2023-04-27T15:14:37-07:00*
G04 #@! TF.ProjectId,OBC-Attempt-3_Dual_Deploy,4f42432d-4174-4746-956d-70742d335f44,rev?*
G04 #@! TF.SameCoordinates,Original*
G04 #@! TF.FileFunction,Copper,L1,Top*
G04 #@! TF.FilePolarity,Positive*
%FSLAX46Y46*%
G04 Gerber Fmt 4.6, Leading zero omitted, Abs format (unit mm)*
G04 Created by KiCad (PCBNEW (6.0.7)) date 2023-04-27 15:14:37*
%MOMM*%
%LPD*%
G01*
G04 APERTURE LIST*
G04 Aperture macros list*
%AMRoundRect*
0 Rectangle with rounded corners*
0 $1 Rounding radius*
0 $2 $3 $4 $5 $6 $7 $8 $9 X,Y pos of 4 corners*
0 Add a 4 corners polygon primitive as box body*
4,1,4,$2,$3,$4,$5,$6,$7,$8,$9,$2,$3,0*
0 Add four circle primitives for the rounded corners*
1,1,$1+$1,$2,$3*
1,1,$1+$1,$4,$5*
1,1,$1+$1,$6,$7*
1,1,$1+$1,$8,$9*
0 Add four rect primitives between the rounded corners*
20,1,$1+$1,$2,$3,$4,$5,0*
20,1,$1+$1,$4,$5,$6,$7,0*
20,1,$1+$1,$6,$7,$8,$9,0*
20,1,$1+$1,$8,$9,$2,$3,0*%
%AMHorizOval*
0 Thick line with rounded ends*
0 $1 width*
0 $2 $3 position (X,Y) of the first rounded end (center of the circle)*
0 $4 $5 position (X,Y) of the second rounded end (center of the circle)*
0 Add line between two ends*
20,1,$1,$2,$3,$4,$5,0*
0 Add two circle primitives to create the rounded ends*
1,1,$1,$2,$3*
1,1,$1,$4,$5*%
%AMRotRect*
0 Rectangle, with rotation*
0 The origin of the aperture is its center*
0 $1 length*
0 $2 width*
0 $3 Rotation angle, in degrees counterclockwise*
0 Add horizontal line*
21,1,$1,$2,0,0,$3*%
%AMFreePoly0*
4,1,14,0.230680,0.111820,0.364320,-0.021821,0.377500,-0.053642,0.377500,-0.080000,0.364320,-0.111820,0.332500,-0.125000,-0.332500,-0.125000,-0.364320,-0.111820,-0.377500,-0.080000,-0.377500,0.080000,-0.364320,0.111820,-0.332500,0.125000,0.198860,0.125000,0.230680,0.111820,0.230680,0.111820,$1*%
%AMFreePoly1*
4,1,14,0.364320,0.111820,0.377500,0.080000,0.377501,0.053640,0.364318,0.021819,0.230680,-0.111820,0.198860,-0.125000,-0.332500,-0.125000,-0.364320,-0.111820,-0.377500,-0.080000,-0.377500,0.080000,-0.364320,0.111820,-0.332500,0.125000,0.332500,0.125000,0.364320,0.111820,0.364320,0.111820,$1*%
%AMFreePoly2*
4,1,15,0.053642,0.377500,0.080000,0.377500,0.111820,0.364320,0.125000,0.332500,0.125000,-0.332500,0.111820,-0.364320,0.080000,-0.377500,-0.080000,-0.377500,-0.111820,-0.364320,-0.125000,-0.332500,-0.125000,0.198860,-0.111820,0.230680,0.021820,0.364320,0.053640,0.377501,0.053642,0.377500,0.053642,0.377500,$1*%
%AMFreePoly3*
4,1,14,-0.021820,0.364320,0.111820,0.230679,0.125000,0.198858,0.125000,-0.332500,0.111820,-0.364320,0.080000,-0.377500,-0.080000,-0.377500,-0.111820,-0.364320,-0.125000,-0.332500,-0.125000,0.332500,-0.111820,0.364320,-0.080000,0.377500,-0.053640,0.377500,-0.021820,0.364320,-0.021820,0.364320,$1*%
%AMFreePoly4*
4,1,14,0.364320,0.111820,0.377500,0.080000,0.377500,-0.080000,0.364320,-0.111820,0.332500,-0.125000,-0.198860,-0.125001,-0.230681,-0.111818,-0.364320,0.021820,-0.377500,0.053640,-0.377500,0.080000,-0.364320,0.111820,-0.332500,0.125000,0.332500,0.125000,0.364320,0.111820,0.364320,0.111820,$1*%
%AMFreePoly5*
4,1,15,-0.198858,0.125000,0.332500,0.125000,0.364320,0.111820,0.377500,0.080000,0.377500,-0.080000,0.364320,-0.111820,0.332500,-0.125000,-0.332500,-0.125000,-0.364320,-0.111820,-0.377500,-0.080000,-0.377500,-0.053640,-0.364320,-0.021820,-0.230680,0.111820,-0.198860,0.125001,-0.198858,0.125000,-0.198858,0.125000,$1*%
%AMFreePoly6*
4,1,14,0.111820,0.364320,0.125000,0.332500,0.125001,-0.198860,0.111818,-0.230681,-0.021820,-0.364320,-0.053640,-0.377500,-0.080000,-0.377500,-0.111820,-0.364320,-0.125000,-0.332500,-0.125000,0.332500,-0.111820,0.364320,-0.080000,0.377500,0.080000,0.377500,0.111820,0.364320,0.111820,0.364320,$1*%
%AMFreePoly7*
4,1,14,0.111820,0.364320,0.125000,0.332500,0.125000,-0.332500,0.111820,-0.364320,0.080000,-0.377500,0.053640,-0.377501,0.021819,-0.364318,-0.111820,-0.230680,-0.125000,-0.198860,-0.125000,0.332500,-0.111820,0.364320,-0.080000,0.377500,0.080000,0.377500,0.111820,0.364320,0.111820,0.364320,$1*%
G04 Aperture macros list end*
G04 #@! TA.AperFunction,SMDPad,CuDef*
%ADD10RoundRect,0.140000X-0.170000X0.140000X-0.170000X-0.140000X0.170000X-0.140000X0.170000X0.140000X0*%
G04 #@! TD*
G04 #@! TA.AperFunction,SMDPad,CuDef*
%ADD11RoundRect,0.140000X0.170000X-0.140000X0.170000X0.140000X-0.170000X0.140000X-0.170000X-0.140000X0*%
G04 #@! TD*
G04 #@! TA.AperFunction,SMDPad,CuDef*
%ADD12R,1.500000X2.000000*%
G04 #@! TD*
G04 #@! TA.AperFunction,SMDPad,CuDef*
%ADD13R,3.800000X2.000000*%
G04 #@! TD*
G04 #@! TA.AperFunction,ComponentPad*
%ADD14R,1.700000X1.700000*%
G04 #@! TD*
G04 #@! TA.AperFunction,ComponentPad*
%ADD15O,1.700000X1.700000*%
G04 #@! TD*
G04 #@! TA.AperFunction,SMDPad,CuDef*
%ADD16RoundRect,0.137500X-0.137500X0.587500X-0.137500X-0.587500X0.137500X-0.587500X0.137500X0.587500X0*%
G04 #@! TD*
G04 #@! TA.AperFunction,SMDPad,CuDef*
%ADD17RoundRect,0.135000X0.185000X-0.135000X0.185000X0.135000X-0.185000X0.135000X-0.185000X-0.135000X0*%
G04 #@! TD*
G04 #@! TA.AperFunction,ComponentPad*
%ADD18R,0.850000X0.850000*%
G04 #@! TD*
G04 #@! TA.AperFunction,ComponentPad*
%ADD19O,0.850000X0.850000*%
G04 #@! TD*
G04 #@! TA.AperFunction,SMDPad,CuDef*
%ADD20RoundRect,0.140000X-0.140000X-0.170000X0.140000X-0.170000X0.140000X0.170000X-0.140000X0.170000X0*%
G04 #@! TD*
G04 #@! TA.AperFunction,SMDPad,CuDef*
%ADD21RoundRect,0.225000X0.225000X0.250000X-0.225000X0.250000X-0.225000X-0.250000X0.225000X-0.250000X0*%
G04 #@! TD*
G04 #@! TA.AperFunction,SMDPad,CuDef*
%ADD22RoundRect,0.250000X-0.262500X-0.450000X0.262500X-0.450000X0.262500X0.450000X-0.262500X0.450000X0*%
G04 #@! TD*
G04 #@! TA.AperFunction,SMDPad,CuDef*
%ADD23RoundRect,0.250000X0.262500X0.450000X-0.262500X0.450000X-0.262500X-0.450000X0.262500X-0.450000X0*%
G04 #@! TD*
G04 #@! TA.AperFunction,ComponentPad*
%ADD24RotRect,0.850000X0.850000X150.000000*%
G04 #@! TD*
G04 #@! TA.AperFunction,ComponentPad*
%ADD25HorizOval,0.850000X0.000000X0.000000X0.000000X0.000000X0*%
G04 #@! TD*
G04 #@! TA.AperFunction,SMDPad,CuDef*
%ADD26RoundRect,0.140000X0.140000X0.170000X-0.140000X0.170000X-0.140000X-0.170000X0.140000X-0.170000X0*%
G04 #@! TD*
G04 #@! TA.AperFunction,SMDPad,CuDef*
%ADD27RoundRect,0.150000X-0.150000X0.825000X-0.150000X-0.825000X0.150000X-0.825000X0.150000X0.825000X0*%
G04 #@! TD*
G04 #@! TA.AperFunction,SMDPad,CuDef*
%ADD28RoundRect,0.200000X-0.200000X-0.250000X0.200000X-0.250000X0.200000X0.250000X-0.200000X0.250000X0*%
G04 #@! TD*
G04 #@! TA.AperFunction,SMDPad,CuDef*
%ADD29RoundRect,0.135000X-0.185000X0.135000X-0.185000X-0.135000X0.185000X-0.135000X0.185000X0.135000X0*%
G04 #@! TD*
G04 #@! TA.AperFunction,SMDPad,CuDef*
%ADD30FreePoly0,0.000000*%
G04 #@! TD*
G04 #@! TA.AperFunction,SMDPad,CuDef*
%ADD31RoundRect,0.062500X-0.375000X-0.062500X0.375000X-0.062500X0.375000X0.062500X-0.375000X0.062500X0*%
G04 #@! TD*
G04 #@! TA.AperFunction,SMDPad,CuDef*
%ADD32FreePoly1,0.000000*%
G04 #@! TD*
G04 #@! TA.AperFunction,SMDPad,CuDef*
%ADD33FreePoly2,0.000000*%
G04 #@! TD*
G04 #@! TA.AperFunction,SMDPad,CuDef*
%ADD34RoundRect,0.062500X-0.062500X-0.375000X0.062500X-0.375000X0.062500X0.375000X-0.062500X0.375000X0*%
G04 #@! TD*
G04 #@! TA.AperFunction,SMDPad,CuDef*
%ADD35FreePoly3,0.000000*%
G04 #@! TD*
G04 #@! TA.AperFunction,SMDPad,CuDef*
%ADD36FreePoly4,0.000000*%
G04 #@! TD*
G04 #@! TA.AperFunction,SMDPad,CuDef*
%ADD37FreePoly5,0.000000*%
G04 #@! TD*
G04 #@! TA.AperFunction,SMDPad,CuDef*
%ADD38FreePoly6,0.000000*%
G04 #@! TD*
G04 #@! TA.AperFunction,SMDPad,CuDef*
%ADD39FreePoly7,0.000000*%
G04 #@! TD*
G04 #@! TA.AperFunction,ViaPad*
%ADD40C,0.800000*%
G04 #@! TD*
G04 #@! TA.AperFunction,Conductor*
%ADD41C,0.300000*%
G04 #@! TD*
G04 #@! TA.AperFunction,Conductor*
%ADD42C,0.500000*%
G04 #@! TD*
G04 APERTURE END LIST*
D10*
X150320000Y-104400000D03*
X150320000Y-105360000D03*
D11*
X150300000Y-103370000D03*
X150300000Y-102410000D03*
D12*
X143900000Y-114150000D03*
X146200000Y-114150000D03*
D13*
X146200000Y-107850000D03*
D12*
X148500000Y-114150000D03*
D14*
X151640000Y-122420000D03*
D15*
X154180000Y-122420000D03*
X156720000Y-122420000D03*
D16*
X153610000Y-114540000D03*
X151070000Y-114540000D03*
X151070000Y-120040000D03*
X153610000Y-120040000D03*
D17*
X152100000Y-112510000D03*
X152100000Y-111490000D03*
D18*
X158550000Y-103475000D03*
D19*
X158550000Y-102475000D03*
D20*
X158140001Y-105050000D03*
X159100001Y-105050000D03*
X148520000Y-116100000D03*
X149480000Y-116100000D03*
D18*
X154950000Y-101175000D03*
D19*
X153950000Y-101175000D03*
D21*
X145895000Y-116380000D03*
X144345000Y-116380000D03*
D22*
X155397500Y-108749999D03*
X157222500Y-108749999D03*
D23*
X157122500Y-111950000D03*
X155297500Y-111950000D03*
D20*
X158160001Y-106850000D03*
X159120001Y-106850000D03*
D24*
X162700000Y-119032051D03*
D25*
X163200000Y-118166026D03*
X163700000Y-117300000D03*
X164200000Y-116433975D03*
D18*
X148400000Y-120200000D03*
D19*
X147400000Y-120200000D03*
D10*
X150410000Y-108490000D03*
X150410000Y-109450000D03*
D26*
X151460000Y-106630000D03*
X150500000Y-106630000D03*
D27*
X164065000Y-108725000D03*
X162795000Y-108725000D03*
X161525000Y-108725000D03*
X160255000Y-108725000D03*
X160255000Y-113675000D03*
X161525000Y-113675000D03*
X162795000Y-113675000D03*
X164065000Y-113675000D03*
D28*
X147475000Y-103515000D03*
X147475000Y-105365000D03*
X148925000Y-105365000D03*
X148925000Y-103515000D03*
D29*
X153700000Y-111590000D03*
X153700000Y-112610000D03*
D30*
X152942500Y-103250000D03*
D31*
X153002500Y-103750000D03*
X153002500Y-104250000D03*
X153002500Y-104750000D03*
X153002500Y-105250000D03*
X153002500Y-105750000D03*
D32*
X152942500Y-106250000D03*
D33*
X153440000Y-106747500D03*
D34*
X153940000Y-106687500D03*
X154440000Y-106687500D03*
X154940000Y-106687500D03*
X155440000Y-106687500D03*
X155940000Y-106687500D03*
D35*
X156440000Y-106747500D03*
D36*
X156937500Y-106250000D03*
D31*
X156877500Y-105750000D03*
X156877500Y-105250000D03*
X156877500Y-104750000D03*
X156877500Y-104250000D03*
X156877500Y-103750000D03*
D37*
X156937500Y-103250000D03*
D38*
X156440000Y-102752500D03*
D34*
X155940000Y-102812500D03*
X155440000Y-102812500D03*
X154940000Y-102812500D03*
X154440000Y-102812500D03*
X153940000Y-102812500D03*
D39*
X153440000Y-102752500D03*
D18*
X148400000Y-118500000D03*
D19*
X147400000Y-118500000D03*
D26*
X156330000Y-110350000D03*
X155370000Y-110350000D03*
D16*
X158340000Y-114530000D03*
X155800000Y-114530000D03*
X155800000Y-120030000D03*
X158340000Y-120030000D03*
D29*
X152190000Y-108350000D03*
X152190000Y-109370000D03*
D40*
X151300000Y-107650000D03*
X149500000Y-111910000D03*
X154080000Y-104900000D03*
X159100000Y-105750000D03*
X148925000Y-102675000D03*
X151250000Y-105630000D03*
X155722070Y-105649500D03*
X150300000Y-101725000D03*
X154700000Y-110350000D03*
X144350000Y-112500000D03*
X150425000Y-110125000D03*
X143400000Y-112500000D03*
X162799949Y-106863431D03*
X151750000Y-114540000D03*
X149475000Y-116800000D03*
X144350000Y-117650000D03*
X159125000Y-107550000D03*
X146675000Y-105375000D03*
X164050000Y-112300000D03*
X156470000Y-114540000D03*
X152200000Y-110450000D03*
X158496000Y-112014000D03*
X162814000Y-115316000D03*
X160625000Y-104300000D03*
X155868345Y-103997521D03*
D41*
X160274000Y-110744000D02*
X161036000Y-110744000D01*
X158160001Y-105070000D02*
X158140001Y-105050000D01*
X151460000Y-107490000D02*
X151300000Y-107650000D01*
X156191480Y-104750000D02*
X156041480Y-104900000D01*
X156877500Y-104750000D02*
X157840001Y-104750000D01*
X158160001Y-108630001D02*
X160274000Y-110744000D01*
X149500000Y-109170000D02*
X150180000Y-108490000D01*
X156877500Y-105250000D02*
X157940001Y-105250000D01*
X156877500Y-105250000D02*
X156391480Y-105250000D01*
X158160001Y-106850000D02*
X158160001Y-105070000D01*
X156391480Y-105250000D02*
X156170740Y-105029260D01*
X150950000Y-107650000D02*
X151300000Y-107650000D01*
X150180000Y-108490000D02*
X150410000Y-108490000D01*
X150400000Y-108480000D02*
X150400000Y-108200000D01*
X161525000Y-110255000D02*
X161525000Y-108725000D01*
X156170740Y-105029260D02*
X156041480Y-104900000D01*
X157840001Y-104750000D02*
X158140001Y-105050000D01*
X153730000Y-105250000D02*
X154080000Y-104900000D01*
X153002500Y-105250000D02*
X153730000Y-105250000D01*
X154080000Y-104900000D02*
X156041480Y-104900000D01*
X157940001Y-105250000D02*
X158140001Y-105050000D01*
X150410000Y-108490000D02*
X150400000Y-108480000D01*
X150400000Y-108200000D02*
X150950000Y-107650000D01*
X158550000Y-103475000D02*
X158140001Y-103884999D01*
X158160001Y-106850000D02*
X158160001Y-108630001D01*
X151460000Y-106630000D02*
X151460000Y-107490000D01*
X156877500Y-104750000D02*
X156191480Y-104750000D01*
X161036000Y-110744000D02*
X161525000Y-110255000D01*
X158140001Y-103884999D02*
X158140001Y-105050000D01*
X149500000Y-111910000D02*
X149500000Y-109170000D01*
D42*
X150980000Y-105360000D02*
X151250000Y-105630000D01*
D41*
X155822570Y-105750000D02*
X155722070Y-105649500D01*
D42*
X159100001Y-105050000D02*
X159100000Y-105750000D01*
X150320000Y-105360000D02*
X150980000Y-105360000D01*
X149475000Y-116800000D02*
X149480000Y-116795000D01*
X150425000Y-110125000D02*
X150410000Y-110110000D01*
X159125000Y-107550000D02*
X159120001Y-107545001D01*
X155810000Y-114540000D02*
X155800000Y-114530000D01*
X156470000Y-114540000D02*
X155810000Y-114540000D01*
X164050000Y-112300000D02*
X164065000Y-112315000D01*
X148925000Y-102675000D02*
X148925000Y-103515000D01*
X159120001Y-107545001D02*
X159120001Y-106850000D01*
D41*
X162795000Y-108725000D02*
X162795000Y-106868380D01*
D42*
X149480000Y-116795000D02*
X149480000Y-116100000D01*
X164065000Y-112315000D02*
X164065000Y-113675000D01*
X150500000Y-106630000D02*
X150500000Y-106380000D01*
X150410000Y-110110000D02*
X150410000Y-109450000D01*
X146675000Y-105375000D02*
X146685000Y-105365000D01*
X150500000Y-106380000D02*
X151250000Y-105630000D01*
X155370000Y-110350000D02*
X154700000Y-110350000D01*
X151750000Y-114540000D02*
X151070000Y-114540000D01*
X150300000Y-101725000D02*
X150300000Y-102410000D01*
D41*
X156877500Y-105750000D02*
X155822570Y-105750000D01*
D42*
X146685000Y-105365000D02*
X147475000Y-105365000D01*
D41*
X162795000Y-106868380D02*
X162799949Y-106863431D01*
X153002500Y-104750000D02*
X152481637Y-104750000D01*
X152481637Y-104750000D02*
X152190000Y-105041637D01*
X152190000Y-105041637D02*
X152190000Y-108350000D01*
X152190000Y-110440000D02*
X152200000Y-110450000D01*
X152190000Y-109370000D02*
X152190000Y-110440000D01*
X157122500Y-111950000D02*
X158432000Y-111950000D01*
X158432000Y-111950000D02*
X158496000Y-112014000D01*
X163931975Y-116433975D02*
X162814000Y-115316000D01*
X163700000Y-117300000D02*
X162814000Y-116414000D01*
X162814000Y-115316000D02*
X162814000Y-113694000D01*
X162814000Y-113694000D02*
X162795000Y-113675000D01*
X162814000Y-116414000D02*
X162814000Y-115316000D01*
X164200000Y-116433975D02*
X163931975Y-116433975D01*
X160625000Y-104300000D02*
X161297179Y-104300000D01*
X155868345Y-103997521D02*
X156115866Y-103750000D01*
X164065000Y-107067821D02*
X164065000Y-108725000D01*
X161297179Y-104300000D02*
X164065000Y-107067821D01*
X156115866Y-103750000D02*
X156877500Y-103750000D01*
X159875000Y-108345000D02*
X159875000Y-101805000D01*
X156620000Y-101000000D02*
X155630000Y-100010000D01*
X152420000Y-100010000D02*
X151810000Y-100620000D01*
X151810000Y-100620000D02*
X151810000Y-102620000D01*
X155630000Y-100010000D02*
X152420000Y-100010000D01*
X159875000Y-101805000D02*
X159070000Y-101000000D01*
X151810000Y-102620000D02*
X152440000Y-103250000D01*
X160255000Y-108725000D02*
X159875000Y-108345000D01*
X159070000Y-101000000D02*
X156620000Y-101000000D01*
X152440000Y-103250000D02*
X152942500Y-103250000D01*
X160232501Y-111760000D02*
X160274000Y-111760000D01*
X162700000Y-119032051D02*
X161544000Y-117876051D01*
X161525000Y-113675000D02*
X161525000Y-116491026D01*
X161544000Y-116510026D02*
X161525000Y-116491026D01*
X161525000Y-116491026D02*
X163200000Y-118166026D01*
X160274000Y-111760000D02*
X161525000Y-113011000D01*
X161525000Y-113011000D02*
X161525000Y-113675000D01*
X157222500Y-108749999D02*
X160232501Y-111760000D01*
X161544000Y-117876051D02*
X161544000Y-116510026D01*
X151770000Y-103370000D02*
X150300000Y-103370000D01*
X153002500Y-103750000D02*
X152150000Y-103750000D01*
X152150000Y-103750000D02*
X151770000Y-103370000D01*
X150300000Y-103370000D02*
X149355000Y-104315000D01*
X149355000Y-104315000D02*
X148275000Y-104315000D01*
X148275000Y-104315000D02*
X147475000Y-103515000D01*
X148925000Y-105365000D02*
X149115000Y-105365000D01*
X151950000Y-104450000D02*
X150370000Y-104450000D01*
X149115000Y-105365000D02*
X150080000Y-104400000D01*
X150080000Y-104400000D02*
X150320000Y-104400000D01*
X153002500Y-104250000D02*
X152150000Y-104250000D01*
X152150000Y-104250000D02*
X151950000Y-104450000D01*
X150370000Y-104450000D02*
X150320000Y-104400000D01*
X157375000Y-103250000D02*
X156937500Y-103250000D01*
X158150000Y-102475000D02*
X157375000Y-103250000D01*
X158550000Y-102475000D02*
X158150000Y-102475000D01*
X155323363Y-101175000D02*
X154950000Y-101175000D01*
X156440000Y-102752500D02*
X156440000Y-102291637D01*
X156440000Y-102291637D02*
X155323363Y-101175000D01*
D42*
X155800000Y-120030000D02*
X155800000Y-118800000D01*
X155300000Y-118300000D02*
X150550000Y-118300000D01*
X148050000Y-122000000D02*
X147400000Y-121350000D01*
X149750000Y-121700000D02*
X149450000Y-122000000D01*
X155800000Y-118800000D02*
X155300000Y-118300000D01*
X150550000Y-118300000D02*
X150250000Y-118300000D01*
X151070000Y-120040000D02*
X151070000Y-118820000D01*
X147400000Y-121350000D02*
X147400000Y-120200000D01*
X151070000Y-118820000D02*
X150550000Y-118300000D01*
X149450000Y-122000000D02*
X148050000Y-122000000D01*
X150250000Y-118300000D02*
X149750000Y-118800000D01*
X149750000Y-118800000D02*
X149750000Y-121700000D01*
D41*
X156330000Y-110917500D02*
X155297500Y-111950000D01*
X155397500Y-108749999D02*
X155449999Y-108749999D01*
X155449999Y-108749999D02*
X156330000Y-109630000D01*
X156330000Y-109630000D02*
X156330000Y-110350000D01*
X156330000Y-110350000D02*
X156330000Y-110917500D01*
X152100000Y-111490000D02*
X152450000Y-111490000D01*
X153040000Y-110900000D02*
X153040000Y-107770000D01*
X153040000Y-107770000D02*
X153440000Y-107370000D01*
X152450000Y-111490000D02*
X153040000Y-110900000D01*
X153440000Y-107370000D02*
X153440000Y-106747500D01*
D42*
X153610000Y-120040000D02*
X153610000Y-121850000D01*
X153610000Y-121850000D02*
X154180000Y-122420000D01*
D41*
X153940000Y-106687500D02*
X153940000Y-109940000D01*
X153940000Y-109940000D02*
X153700000Y-110180000D01*
X153700000Y-110180000D02*
X153700000Y-111590000D01*
X152100000Y-112510000D02*
X152100000Y-113000000D01*
X152100000Y-113000000D02*
X152400000Y-113300000D01*
X153610000Y-113810000D02*
X153610000Y-114540000D01*
X153100000Y-113300000D02*
X153610000Y-113810000D01*
X152400000Y-113300000D02*
X153100000Y-113300000D01*
X153700000Y-112610000D02*
X153700000Y-112700000D01*
X153700000Y-112700000D02*
X154200000Y-113200000D01*
X158340000Y-113740000D02*
X158340000Y-114530000D01*
X157800000Y-113200000D02*
X158340000Y-113740000D01*
X154200000Y-113200000D02*
X157800000Y-113200000D01*
D42*
X158340000Y-120030000D02*
X158340000Y-120800000D01*
X158340000Y-120800000D02*
X156720000Y-122420000D01*
G04 #@! TA.AperFunction,Conductor*
G36*
X148225671Y-106679989D02*
G01*
X148257939Y-106709666D01*
X148324185Y-106796388D01*
X149320000Y-108100000D01*
X149331344Y-108099865D01*
X150872500Y-108081518D01*
X150940854Y-108100708D01*
X150987982Y-108153806D01*
X151000000Y-108207509D01*
X151000000Y-108874000D01*
X150979998Y-108942121D01*
X150926342Y-108988614D01*
X150874000Y-109000000D01*
X150748829Y-109000000D01*
X150695579Y-108988195D01*
X150678224Y-108980102D01*
X150678223Y-108980102D01*
X150669487Y-108976028D01*
X150619901Y-108969500D01*
X150410077Y-108969500D01*
X150200100Y-108969501D01*
X150150513Y-108976028D01*
X150141779Y-108980101D01*
X150141778Y-108980101D01*
X150124421Y-108988195D01*
X150071171Y-109000000D01*
X148230000Y-109000000D01*
X147140000Y-110020000D01*
X147140000Y-115279099D01*
X147119998Y-115347220D01*
X147104645Y-115366618D01*
X146592584Y-115896966D01*
X146592583Y-115896967D01*
X146580000Y-115910000D01*
X146580267Y-115920497D01*
X146606668Y-116958938D01*
X146588404Y-117027545D01*
X146535947Y-117075386D01*
X146478909Y-117088127D01*
X145533780Y-117074625D01*
X145334806Y-117071783D01*
X145266978Y-117050810D01*
X145221256Y-116996496D01*
X145210607Y-116945183D01*
X145215594Y-115920497D01*
X145230000Y-112960000D01*
X145220000Y-110030000D01*
X145196159Y-110007622D01*
X144627429Y-109473815D01*
X144119531Y-108997104D01*
X144083551Y-108935902D01*
X144079763Y-108905784D01*
X144076480Y-108153806D01*
X144070552Y-106796388D01*
X144090257Y-106728181D01*
X144143709Y-106681454D01*
X144196243Y-106669838D01*
X144828359Y-106668293D01*
X148157502Y-106660153D01*
X148225671Y-106679989D01*
G37*
G04 #@! TD.AperFunction*
G04 #@! TA.AperFunction,Conductor*
G36*
X144792121Y-112070002D02*
G01*
X144838614Y-112123658D01*
X144850000Y-112176000D01*
X144850000Y-115350000D01*
X144986698Y-115623396D01*
X145000000Y-115679745D01*
X145000000Y-117924000D01*
X144979998Y-117992121D01*
X144926342Y-118038614D01*
X144874000Y-118050000D01*
X143776000Y-118050000D01*
X143707879Y-118029998D01*
X143661386Y-117976342D01*
X143650000Y-117924000D01*
X143650000Y-115350000D01*
X143076000Y-115350000D01*
X143007879Y-115329998D01*
X142961386Y-115276342D01*
X142950000Y-115224000D01*
X142950000Y-112176000D01*
X142970002Y-112107879D01*
X143023658Y-112061386D01*
X143076000Y-112050000D01*
X144724000Y-112050000D01*
X144792121Y-112070002D01*
G37*
G04 #@! TD.AperFunction*
G04 #@! TA.AperFunction,Conductor*
G36*
X149392121Y-112970002D02*
G01*
X149438614Y-113023658D01*
X149450000Y-113076000D01*
X149450000Y-115224000D01*
X149429998Y-115292121D01*
X149376342Y-115338614D01*
X149324000Y-115350000D01*
X149000000Y-115350000D01*
X149000000Y-115882471D01*
X148999833Y-115887570D01*
X148999500Y-115890099D01*
X148999500Y-115894221D01*
X148999501Y-116304194D01*
X148979499Y-116372314D01*
X148969420Y-116385898D01*
X147850000Y-117700000D01*
X147850000Y-117862964D01*
X147828765Y-117932967D01*
X147786133Y-117996769D01*
X147774500Y-118055252D01*
X147774500Y-118944748D01*
X147786133Y-119003231D01*
X147793026Y-119013547D01*
X147828765Y-119067033D01*
X147850000Y-119137036D01*
X147850000Y-119562964D01*
X147828765Y-119632967D01*
X147786133Y-119696769D01*
X147774500Y-119755252D01*
X147774500Y-120644748D01*
X147786133Y-120703231D01*
X147793026Y-120713547D01*
X147828765Y-120767033D01*
X147850000Y-120837036D01*
X147850000Y-120924000D01*
X147829998Y-120992121D01*
X147776342Y-121038614D01*
X147724000Y-121050000D01*
X146974106Y-121050000D01*
X146905985Y-121029998D01*
X146859492Y-120976342D01*
X146848120Y-120925909D01*
X146800703Y-117796388D01*
X146819671Y-117727972D01*
X146829548Y-117714232D01*
X147738463Y-116613966D01*
X147750000Y-116600000D01*
X147750000Y-115650000D01*
X147744631Y-115637919D01*
X147744630Y-115637916D01*
X147560860Y-115224435D01*
X147550000Y-115173262D01*
X147550000Y-113076000D01*
X147570002Y-113007879D01*
X147623658Y-112961386D01*
X147676000Y-112950000D01*
X149324000Y-112950000D01*
X149392121Y-112970002D01*
G37*
G04 #@! TD.AperFunction*
M02*
