G04 #@! TF.GenerationSoftware,KiCad,Pcbnew,7.0.7*
G04 #@! TF.CreationDate,2024-09-25T19:28:55-07:00*
G04 #@! TF.ProjectId,ACS Arduino Board,41435320-4172-4647-9569-6e6f20426f61,rev?*
G04 #@! TF.SameCoordinates,Original*
G04 #@! TF.FileFunction,Copper,L1,Top*
G04 #@! TF.FilePolarity,Positive*
%FSLAX46Y46*%
G04 Gerber Fmt 4.6, Leading zero omitted, Abs format (unit mm)*
G04 Created by KiCad (PCBNEW 7.0.7) date 2024-09-25 19:28:55*
%MOMM*%
%LPD*%
G01*
G04 APERTURE LIST*
G04 #@! TA.AperFunction,ComponentPad*
%ADD10C,1.700000*%
G04 #@! TD*
G04 #@! TA.AperFunction,ComponentPad*
%ADD11R,1.800000X1.800000*%
G04 #@! TD*
G04 #@! TA.AperFunction,ComponentPad*
%ADD12O,1.800000X1.800000*%
G04 #@! TD*
G04 #@! TA.AperFunction,ComponentPad*
%ADD13C,1.600000*%
G04 #@! TD*
G04 #@! TA.AperFunction,ComponentPad*
%ADD14O,1.600000X1.600000*%
G04 #@! TD*
G04 #@! TA.AperFunction,ComponentPad*
%ADD15R,1.600000X1.600000*%
G04 #@! TD*
G04 #@! TA.AperFunction,ComponentPad*
%ADD16C,3.600000*%
G04 #@! TD*
G04 #@! TA.AperFunction,ConnectorPad*
%ADD17C,5.600000*%
G04 #@! TD*
G04 #@! TA.AperFunction,ComponentPad*
%ADD18C,1.397000*%
G04 #@! TD*
G04 #@! TA.AperFunction,ComponentPad*
%ADD19R,2.025000X2.025000*%
G04 #@! TD*
G04 #@! TA.AperFunction,ComponentPad*
%ADD20C,2.025000*%
G04 #@! TD*
G04 #@! TA.AperFunction,ComponentPad*
%ADD21R,1.700000X1.700000*%
G04 #@! TD*
G04 #@! TA.AperFunction,ComponentPad*
%ADD22O,1.700000X1.700000*%
G04 #@! TD*
G04 #@! TA.AperFunction,Conductor*
%ADD23C,1.000000*%
G04 #@! TD*
G04 #@! TA.AperFunction,Conductor*
%ADD24C,0.500000*%
G04 #@! TD*
G04 APERTURE END LIST*
D10*
X87451000Y-67056000D03*
X84911000Y-67056000D03*
X74751000Y-67056000D03*
X69671000Y-67056000D03*
D11*
X93280000Y-80060000D03*
D12*
X85660000Y-80060000D03*
D13*
X91530000Y-68770000D03*
D14*
X91530000Y-61150000D03*
D13*
X94950000Y-68710000D03*
D14*
X94950000Y-61090000D03*
D10*
X30095000Y-69272861D03*
X32635000Y-69272861D03*
X42795000Y-69272861D03*
X47875000Y-69272861D03*
D15*
X68410000Y-43160000D03*
D14*
X65870000Y-43160000D03*
X63330000Y-43160000D03*
X60790000Y-43160000D03*
X58250000Y-43160000D03*
X55710000Y-43160000D03*
X53170000Y-43160000D03*
X50630000Y-43160000D03*
X48090000Y-43160000D03*
X45550000Y-43160000D03*
X43010000Y-43160000D03*
X40470000Y-43160000D03*
X37930000Y-43160000D03*
X35390000Y-43160000D03*
X32850000Y-43160000D03*
X32850000Y-58400000D03*
X35390000Y-58400000D03*
X37930000Y-58400000D03*
X40470000Y-58400000D03*
X43010000Y-58400000D03*
X45550000Y-58400000D03*
X48090000Y-58400000D03*
X50630000Y-58400000D03*
X53170000Y-58400000D03*
X55710000Y-58400000D03*
X58250000Y-58400000D03*
X60790000Y-58400000D03*
X63330000Y-58400000D03*
X65870000Y-58400000D03*
X68410000Y-58400000D03*
D15*
X77840000Y-58380000D03*
D14*
X80380000Y-58380000D03*
X82920000Y-58380000D03*
X85460000Y-58380000D03*
X88000000Y-58380000D03*
X90540000Y-58380000D03*
X93080000Y-58380000D03*
X95620000Y-58380000D03*
X98160000Y-58380000D03*
X100700000Y-58380000D03*
X103240000Y-58380000D03*
X105780000Y-58380000D03*
X108320000Y-58380000D03*
X110860000Y-58380000D03*
X113400000Y-58380000D03*
X113400000Y-43140000D03*
X110860000Y-43140000D03*
X108320000Y-43140000D03*
X105780000Y-43140000D03*
X103240000Y-43140000D03*
X100700000Y-43140000D03*
X98160000Y-43140000D03*
X95620000Y-43140000D03*
X93080000Y-43140000D03*
X90540000Y-43140000D03*
X88000000Y-43140000D03*
X85460000Y-43140000D03*
X82920000Y-43140000D03*
X80380000Y-43140000D03*
X77840000Y-43140000D03*
D13*
X75430000Y-80060000D03*
D14*
X83050000Y-80060000D03*
D16*
X114300000Y-63500000D03*
D17*
X114300000Y-63500000D03*
D13*
X104760000Y-69070000D03*
D14*
X104760000Y-61450000D03*
D13*
X63019999Y-61730000D03*
D14*
X55399999Y-61730000D03*
D13*
X103580000Y-80060000D03*
D14*
X95960000Y-80060000D03*
D13*
X84110000Y-76540000D03*
D14*
X76490000Y-76540000D03*
D18*
X108209900Y-75224600D03*
X109479900Y-72684600D03*
X110749900Y-75224600D03*
X112019900Y-72684600D03*
X113289900Y-75224600D03*
X114559900Y-72684600D03*
X115829900Y-75224600D03*
X117099900Y-72684600D03*
D10*
X87451000Y-62427139D03*
X84911000Y-62427139D03*
X74751000Y-62427139D03*
X69671000Y-62427139D03*
D19*
X28590000Y-74360000D03*
X34090000Y-74360000D03*
D20*
X28590000Y-77860000D03*
X34090000Y-77860000D03*
D19*
X38260000Y-38790000D03*
X38260000Y-33290000D03*
D20*
X41760000Y-38790000D03*
X41760000Y-33290000D03*
X53058000Y-75020000D03*
X53058000Y-80520000D03*
X49558000Y-75020000D03*
X49558000Y-80520000D03*
D16*
X31750000Y-38100000D03*
D17*
X31750000Y-38100000D03*
D20*
X82330000Y-38790000D03*
X82330000Y-33290000D03*
X85830000Y-38790000D03*
X85830000Y-33290000D03*
X89330000Y-38790000D03*
X89330000Y-33290000D03*
X92830000Y-38790000D03*
X92830000Y-33290000D03*
X96330000Y-38790000D03*
X96330000Y-33290000D03*
X99830000Y-38790000D03*
X99830000Y-33290000D03*
X103330000Y-38790000D03*
X103330000Y-33290000D03*
X106830000Y-38790000D03*
X106830000Y-33290000D03*
D13*
X36710000Y-62360000D03*
D14*
X44330000Y-62360000D03*
D21*
X117333000Y-32537000D03*
D22*
X114793000Y-32537000D03*
X112253000Y-32537000D03*
D10*
X65570000Y-64989999D03*
X63030000Y-64989999D03*
X52870000Y-64989999D03*
X47790000Y-64989999D03*
X100838000Y-71571139D03*
X98298000Y-71571139D03*
X88138000Y-71571139D03*
X83058000Y-71571139D03*
D16*
X31990000Y-63500000D03*
D17*
X31990000Y-63500000D03*
D20*
X64790000Y-80580000D03*
X64790000Y-75080000D03*
X68290000Y-80580000D03*
X68290000Y-75080000D03*
D19*
X49490000Y-38790000D03*
D20*
X49490000Y-33290000D03*
X52990000Y-38790000D03*
X52990000Y-33290000D03*
X56490000Y-38790000D03*
X56490000Y-33290000D03*
X59990000Y-38790000D03*
X59990000Y-33290000D03*
X63490000Y-38790000D03*
X63490000Y-33290000D03*
X66990000Y-38790000D03*
X66990000Y-33290000D03*
X70490000Y-38790000D03*
X70490000Y-33290000D03*
X73990000Y-38790000D03*
X73990000Y-33290000D03*
D16*
X114300000Y-38100000D03*
D17*
X114300000Y-38100000D03*
D23*
X34028000Y-77922000D02*
X34090000Y-77860000D01*
X28590000Y-77860000D02*
X28652000Y-77922000D01*
X28652000Y-77922000D02*
X34028000Y-77922000D01*
X34028000Y-74422000D02*
X34090000Y-74360000D01*
X28652000Y-74422000D02*
X34028000Y-74422000D01*
X28590000Y-74360000D02*
X28652000Y-74422000D01*
D24*
X30095000Y-69272861D02*
X32292139Y-71470000D01*
X32292139Y-71470000D02*
X37606346Y-71470000D01*
X54080000Y-62410000D02*
X58590000Y-66920000D01*
X65870000Y-64689999D02*
X65570000Y-64989999D01*
X66970000Y-38790000D02*
X66990000Y-38790000D01*
X60790000Y-43160000D02*
X62850000Y-41100000D01*
X65870000Y-58400000D02*
X65870000Y-64689999D01*
X70490000Y-38790000D02*
X66990000Y-38790000D01*
X37606346Y-71470000D02*
X46666346Y-62410000D01*
X46666346Y-62410000D02*
X54080000Y-62410000D01*
X58590000Y-66920000D02*
X63639999Y-66920000D01*
X64660000Y-41100000D02*
X66970000Y-38790000D01*
X66990000Y-33290000D02*
X66990000Y-38790000D01*
X63639999Y-66920000D02*
X65570000Y-64989999D01*
X62850000Y-41100000D02*
X64660000Y-41100000D01*
X70490000Y-33290000D02*
X70490000Y-38790000D01*
X48090000Y-43160000D02*
X56960000Y-52030000D01*
X56960000Y-60169999D02*
X55399999Y-61730000D01*
X56960000Y-52030000D02*
X56960000Y-60169999D01*
X44300000Y-62330000D02*
X44330000Y-62360000D01*
X44300000Y-44410000D02*
X44300000Y-62330000D01*
X45550000Y-43160000D02*
X44300000Y-44410000D01*
X82480000Y-41040000D02*
X83580000Y-41040000D01*
X83580000Y-41040000D02*
X85830000Y-38790000D01*
X99650000Y-29970000D02*
X96330000Y-33290000D01*
X85830000Y-33290000D02*
X89330000Y-33290000D01*
X96330000Y-33290000D02*
X96330000Y-38790000D01*
X89330000Y-33290000D02*
X89330000Y-38790000D01*
X85830000Y-33290000D02*
X85830000Y-38790000D01*
X112253000Y-32537000D02*
X109686000Y-29970000D01*
X109686000Y-29970000D02*
X99650000Y-29970000D01*
X80380000Y-43140000D02*
X82480000Y-41040000D01*
X103207767Y-56540000D02*
X104520000Y-57852233D01*
X90540000Y-58380000D02*
X92380000Y-56540000D01*
X104520000Y-57852233D02*
X104520000Y-61210000D01*
X104520000Y-61210000D02*
X104760000Y-61450000D01*
X92380000Y-56540000D02*
X103207767Y-56540000D01*
X93050000Y-59630000D02*
X96910000Y-59630000D01*
X91530000Y-61150000D02*
X93050000Y-59630000D01*
X96910000Y-59630000D02*
X98160000Y-58380000D01*
X94950000Y-61090000D02*
X97990000Y-61090000D01*
X97990000Y-61090000D02*
X100700000Y-58380000D01*
X107070000Y-63872000D02*
X106934000Y-64008000D01*
X86862000Y-70110000D02*
X84110000Y-72862000D01*
X106934000Y-64008000D02*
X101600000Y-64008000D01*
X107070000Y-56016000D02*
X107070000Y-63872000D01*
X100700000Y-43140000D02*
X100700000Y-49646000D01*
D23*
X83050000Y-80060000D02*
X83050000Y-77600000D01*
D24*
X100700000Y-49646000D02*
X107070000Y-56016000D01*
D23*
X85660000Y-80060000D02*
X85660000Y-78090000D01*
X85660000Y-78090000D02*
X84110000Y-76540000D01*
D24*
X84110000Y-72862000D02*
X84110000Y-76540000D01*
X95498000Y-70110000D02*
X86862000Y-70110000D01*
D23*
X83050000Y-80060000D02*
X85660000Y-80060000D01*
X83050000Y-77600000D02*
X84110000Y-76540000D01*
D24*
X101600000Y-64008000D02*
X95498000Y-70110000D01*
X96974000Y-41786000D02*
X103834000Y-41786000D01*
X106830000Y-33290000D02*
X106830000Y-38790000D01*
X95620000Y-43140000D02*
X96974000Y-41786000D01*
X103834000Y-41786000D02*
X106830000Y-38790000D01*
X103330000Y-33290000D02*
X103330000Y-38790000D01*
X95134000Y-41086000D02*
X101034000Y-41086000D01*
X101034000Y-41086000D02*
X103330000Y-38790000D01*
X93080000Y-43140000D02*
X95134000Y-41086000D01*
X59990000Y-33290000D02*
X59990000Y-38790000D01*
D23*
X41760000Y-38790000D02*
X49490000Y-38790000D01*
X41760000Y-33290000D02*
X41760000Y-38790000D01*
X49490000Y-38790000D02*
X49490000Y-33290000D01*
D24*
X79030000Y-69420000D02*
X79030000Y-74000000D01*
X98234000Y-40386000D02*
X99830000Y-38790000D01*
X99830000Y-33290000D02*
X99830000Y-38790000D01*
X108510000Y-31480000D02*
X101640000Y-31480000D01*
X88214000Y-40386000D02*
X98234000Y-40386000D01*
X111290000Y-34260000D02*
X108510000Y-31480000D01*
X101640000Y-31480000D02*
X99830000Y-33290000D01*
X85460000Y-43140000D02*
X88214000Y-40386000D01*
X85460000Y-52716000D02*
X81670000Y-56506000D01*
X79030000Y-74000000D02*
X76490000Y-76540000D01*
X85460000Y-43140000D02*
X85460000Y-52716000D01*
X81670000Y-56506000D02*
X81670000Y-66780000D01*
X81670000Y-66780000D02*
X79030000Y-69420000D01*
X115610000Y-34260000D02*
X111290000Y-34260000D01*
X117333000Y-32537000D02*
X115610000Y-34260000D01*
X53190000Y-38790000D02*
X55768109Y-41368109D01*
X52990000Y-38790000D02*
X53190000Y-38790000D01*
X68410000Y-55780000D02*
X68410000Y-58400000D01*
X56490000Y-33290000D02*
X56490000Y-38790000D01*
X63490000Y-33290000D02*
X63490000Y-38790000D01*
X63490000Y-38790000D02*
X61370000Y-40910000D01*
X52990000Y-33290000D02*
X56490000Y-33290000D01*
X57000000Y-41368109D02*
X57000000Y-44370000D01*
X82330000Y-33290000D02*
X82330000Y-38790000D01*
X52990000Y-33290000D02*
X52990000Y-38790000D01*
X57458109Y-40910000D02*
X57000000Y-41368109D01*
X55768109Y-41368109D02*
X57000000Y-41368109D01*
X57000000Y-44370000D02*
X68410000Y-55780000D01*
X61370000Y-40910000D02*
X57458109Y-40910000D01*
X93280000Y-80060000D02*
X95960000Y-80060000D01*
D23*
X53058000Y-75020000D02*
X53058000Y-80520000D01*
X52870000Y-64989999D02*
X52870000Y-74832000D01*
X52870000Y-74832000D02*
X53058000Y-75020000D01*
X43810861Y-69272861D02*
X49558000Y-75020000D01*
X42795000Y-69272861D02*
X43810861Y-69272861D01*
X49558000Y-75020000D02*
X49558000Y-80520000D01*
X42640000Y-28910000D02*
X69610000Y-28910000D01*
X69610000Y-28910000D02*
X88450000Y-28910000D01*
X38260000Y-33290000D02*
X42640000Y-28910000D01*
D24*
X73990000Y-33290000D02*
X73990000Y-38790000D01*
X38260000Y-33290000D02*
X38260000Y-38790000D01*
X92830000Y-33290000D02*
X92830000Y-38790000D01*
D23*
X69610000Y-28910000D02*
X73990000Y-33290000D01*
X88450000Y-28910000D02*
X92830000Y-33290000D01*
X64790000Y-75080000D02*
X64790000Y-80580000D01*
X64790000Y-69510000D02*
X64790000Y-75080000D01*
X71872861Y-62427139D02*
X64790000Y-69510000D01*
X74751000Y-62427139D02*
X71872861Y-62427139D01*
X68290000Y-80580000D02*
X68290000Y-75080000D01*
X74751000Y-68619000D02*
X74751000Y-67056000D01*
X68290000Y-75080000D02*
X74751000Y-68619000D01*
X87959000Y-71571139D02*
X91546461Y-75158600D01*
X108143900Y-75158600D02*
X108209900Y-75224600D01*
X91546461Y-75158600D02*
X108143900Y-75158600D01*
D24*
X63019999Y-64979998D02*
X63030000Y-64989999D01*
X63019999Y-61730000D02*
X63019999Y-64979998D01*
X36710000Y-65660000D02*
X33097139Y-69272861D01*
X36710000Y-62360000D02*
X36710000Y-65660000D01*
X33097139Y-69272861D02*
X32635000Y-69272861D01*
X104760000Y-69070000D02*
X100620139Y-69070000D01*
X100620139Y-69070000D02*
X98119000Y-71571139D01*
X84450000Y-68770000D02*
X91530000Y-68770000D01*
X84911000Y-62427139D02*
X82920000Y-64418139D01*
X82920000Y-64418139D02*
X82920000Y-67240000D01*
X82920000Y-67240000D02*
X84450000Y-68770000D01*
X94950000Y-67530000D02*
X94950000Y-68710000D01*
X92500000Y-65080000D02*
X94950000Y-67530000D01*
X86887000Y-65080000D02*
X92500000Y-65080000D01*
X84911000Y-67056000D02*
X86887000Y-65080000D01*
X103580000Y-80060000D02*
X105960000Y-77680000D01*
X105960000Y-77680000D02*
X110834500Y-77680000D01*
X110834500Y-77680000D02*
X113289900Y-75224600D01*
M02*
