%TF.GenerationSoftware,KiCad,Pcbnew,7.0.7*%
%TF.CreationDate,2024-07-14T01:40:13-07:00*%
%TF.ProjectId,ACS Arduino Board,41435320-4172-4647-9569-6e6f20426f61,rev?*%
%TF.SameCoordinates,Original*%
%TF.FileFunction,Drillmap*%
%TF.FilePolarity,Positive*%
%FSLAX45Y45*%
G04 Gerber Fmt 4.5, Leading zero omitted, Abs format (unit mm)*
G04 Created by KiCad (PCBNEW 7.0.7) date 2024-07-14 01:40:13*
%MOMM*%
%LPD*%
G01*
G04 APERTURE LIST*
%ADD10C,0.100000*%
%ADD11C,0.200000*%
%ADD12C,0.320040*%
G04 APERTURE END LIST*
D10*
X2540000Y-2540000D02*
X12065000Y-2540000D01*
X12065000Y-8382000D01*
X2540000Y-8382000D01*
X2540000Y-2540000D01*
X11887200Y-2819400D02*
G75*
G03*
X11887200Y-2819400I-127000J0D01*
G01*
D11*
D12*
X10533970Y-7997440D02*
X10854010Y-8317480D01*
X10854010Y-7997440D02*
X10533970Y-8317480D01*
X11676970Y-7997440D02*
X11997010Y-8317480D01*
X11997010Y-7997440D02*
X11676970Y-8317480D01*
D11*
X2795777Y-8698484D02*
X2795777Y-8498484D01*
X2795777Y-8498484D02*
X2843396Y-8498484D01*
X2843396Y-8498484D02*
X2871967Y-8508008D01*
X2871967Y-8508008D02*
X2891015Y-8527055D01*
X2891015Y-8527055D02*
X2900539Y-8546103D01*
X2900539Y-8546103D02*
X2910062Y-8584198D01*
X2910062Y-8584198D02*
X2910062Y-8612770D01*
X2910062Y-8612770D02*
X2900539Y-8650865D01*
X2900539Y-8650865D02*
X2891015Y-8669912D01*
X2891015Y-8669912D02*
X2871967Y-8688960D01*
X2871967Y-8688960D02*
X2843396Y-8698484D01*
X2843396Y-8698484D02*
X2795777Y-8698484D01*
X2995777Y-8698484D02*
X2995777Y-8565150D01*
X2995777Y-8603246D02*
X3005301Y-8584198D01*
X3005301Y-8584198D02*
X3014824Y-8574674D01*
X3014824Y-8574674D02*
X3033872Y-8565150D01*
X3033872Y-8565150D02*
X3052920Y-8565150D01*
X3119586Y-8698484D02*
X3119586Y-8565150D01*
X3119586Y-8498484D02*
X3110062Y-8508008D01*
X3110062Y-8508008D02*
X3119586Y-8517531D01*
X3119586Y-8517531D02*
X3129110Y-8508008D01*
X3129110Y-8508008D02*
X3119586Y-8498484D01*
X3119586Y-8498484D02*
X3119586Y-8517531D01*
X3243396Y-8698484D02*
X3224348Y-8688960D01*
X3224348Y-8688960D02*
X3214824Y-8669912D01*
X3214824Y-8669912D02*
X3214824Y-8498484D01*
X3348158Y-8698484D02*
X3329110Y-8688960D01*
X3329110Y-8688960D02*
X3319586Y-8669912D01*
X3319586Y-8669912D02*
X3319586Y-8498484D01*
X3576729Y-8698484D02*
X3576729Y-8498484D01*
X3576729Y-8498484D02*
X3643396Y-8641341D01*
X3643396Y-8641341D02*
X3710062Y-8498484D01*
X3710062Y-8498484D02*
X3710062Y-8698484D01*
X3891015Y-8698484D02*
X3891015Y-8593722D01*
X3891015Y-8593722D02*
X3881491Y-8574674D01*
X3881491Y-8574674D02*
X3862443Y-8565150D01*
X3862443Y-8565150D02*
X3824348Y-8565150D01*
X3824348Y-8565150D02*
X3805301Y-8574674D01*
X3891015Y-8688960D02*
X3871967Y-8698484D01*
X3871967Y-8698484D02*
X3824348Y-8698484D01*
X3824348Y-8698484D02*
X3805301Y-8688960D01*
X3805301Y-8688960D02*
X3795777Y-8669912D01*
X3795777Y-8669912D02*
X3795777Y-8650865D01*
X3795777Y-8650865D02*
X3805301Y-8631817D01*
X3805301Y-8631817D02*
X3824348Y-8622293D01*
X3824348Y-8622293D02*
X3871967Y-8622293D01*
X3871967Y-8622293D02*
X3891015Y-8612770D01*
X3986253Y-8565150D02*
X3986253Y-8765150D01*
X3986253Y-8574674D02*
X4005301Y-8565150D01*
X4005301Y-8565150D02*
X4043396Y-8565150D01*
X4043396Y-8565150D02*
X4062443Y-8574674D01*
X4062443Y-8574674D02*
X4071967Y-8584198D01*
X4071967Y-8584198D02*
X4081491Y-8603246D01*
X4081491Y-8603246D02*
X4081491Y-8660389D01*
X4081491Y-8660389D02*
X4071967Y-8679436D01*
X4071967Y-8679436D02*
X4062443Y-8688960D01*
X4062443Y-8688960D02*
X4043396Y-8698484D01*
X4043396Y-8698484D02*
X4005301Y-8698484D01*
X4005301Y-8698484D02*
X3986253Y-8688960D01*
X4167205Y-8679436D02*
X4176729Y-8688960D01*
X4176729Y-8688960D02*
X4167205Y-8698484D01*
X4167205Y-8698484D02*
X4157682Y-8688960D01*
X4157682Y-8688960D02*
X4167205Y-8679436D01*
X4167205Y-8679436D02*
X4167205Y-8698484D01*
X4167205Y-8574674D02*
X4176729Y-8584198D01*
X4176729Y-8584198D02*
X4167205Y-8593722D01*
X4167205Y-8593722D02*
X4157682Y-8584198D01*
X4157682Y-8584198D02*
X4167205Y-8574674D01*
X4167205Y-8574674D02*
X4167205Y-8593722D01*
X2335000Y-8927000D02*
X2535000Y-9127000D01*
X2535000Y-8927000D02*
X2335000Y-9127000D01*
X2776729Y-8918484D02*
X2900539Y-8918484D01*
X2900539Y-8918484D02*
X2833872Y-8994674D01*
X2833872Y-8994674D02*
X2862443Y-8994674D01*
X2862443Y-8994674D02*
X2881491Y-9004198D01*
X2881491Y-9004198D02*
X2891015Y-9013722D01*
X2891015Y-9013722D02*
X2900539Y-9032770D01*
X2900539Y-9032770D02*
X2900539Y-9080389D01*
X2900539Y-9080389D02*
X2891015Y-9099436D01*
X2891015Y-9099436D02*
X2881491Y-9108960D01*
X2881491Y-9108960D02*
X2862443Y-9118484D01*
X2862443Y-9118484D02*
X2805301Y-9118484D01*
X2805301Y-9118484D02*
X2786253Y-9108960D01*
X2786253Y-9108960D02*
X2776729Y-9099436D01*
X2986253Y-9099436D02*
X2995777Y-9108960D01*
X2995777Y-9108960D02*
X2986253Y-9118484D01*
X2986253Y-9118484D02*
X2976729Y-9108960D01*
X2976729Y-9108960D02*
X2986253Y-9099436D01*
X2986253Y-9099436D02*
X2986253Y-9118484D01*
X3071967Y-8937531D02*
X3081491Y-8928008D01*
X3081491Y-8928008D02*
X3100539Y-8918484D01*
X3100539Y-8918484D02*
X3148158Y-8918484D01*
X3148158Y-8918484D02*
X3167205Y-8928008D01*
X3167205Y-8928008D02*
X3176729Y-8937531D01*
X3176729Y-8937531D02*
X3186253Y-8956579D01*
X3186253Y-8956579D02*
X3186253Y-8975627D01*
X3186253Y-8975627D02*
X3176729Y-9004198D01*
X3176729Y-9004198D02*
X3062443Y-9118484D01*
X3062443Y-9118484D02*
X3186253Y-9118484D01*
X3310062Y-8918484D02*
X3329110Y-8918484D01*
X3329110Y-8918484D02*
X3348158Y-8928008D01*
X3348158Y-8928008D02*
X3357682Y-8937531D01*
X3357682Y-8937531D02*
X3367205Y-8956579D01*
X3367205Y-8956579D02*
X3376729Y-8994674D01*
X3376729Y-8994674D02*
X3376729Y-9042293D01*
X3376729Y-9042293D02*
X3367205Y-9080389D01*
X3367205Y-9080389D02*
X3357682Y-9099436D01*
X3357682Y-9099436D02*
X3348158Y-9108960D01*
X3348158Y-9108960D02*
X3329110Y-9118484D01*
X3329110Y-9118484D02*
X3310062Y-9118484D01*
X3310062Y-9118484D02*
X3291015Y-9108960D01*
X3291015Y-9108960D02*
X3281491Y-9099436D01*
X3281491Y-9099436D02*
X3271967Y-9080389D01*
X3271967Y-9080389D02*
X3262443Y-9042293D01*
X3262443Y-9042293D02*
X3262443Y-8994674D01*
X3262443Y-8994674D02*
X3271967Y-8956579D01*
X3271967Y-8956579D02*
X3281491Y-8937531D01*
X3281491Y-8937531D02*
X3291015Y-8928008D01*
X3291015Y-8928008D02*
X3310062Y-8918484D01*
X3500539Y-8918484D02*
X3519586Y-8918484D01*
X3519586Y-8918484D02*
X3538634Y-8928008D01*
X3538634Y-8928008D02*
X3548158Y-8937531D01*
X3548158Y-8937531D02*
X3557682Y-8956579D01*
X3557682Y-8956579D02*
X3567205Y-8994674D01*
X3567205Y-8994674D02*
X3567205Y-9042293D01*
X3567205Y-9042293D02*
X3557682Y-9080389D01*
X3557682Y-9080389D02*
X3548158Y-9099436D01*
X3548158Y-9099436D02*
X3538634Y-9108960D01*
X3538634Y-9108960D02*
X3519586Y-9118484D01*
X3519586Y-9118484D02*
X3500539Y-9118484D01*
X3500539Y-9118484D02*
X3481491Y-9108960D01*
X3481491Y-9108960D02*
X3471967Y-9099436D01*
X3471967Y-9099436D02*
X3462443Y-9080389D01*
X3462443Y-9080389D02*
X3452920Y-9042293D01*
X3452920Y-9042293D02*
X3452920Y-8994674D01*
X3452920Y-8994674D02*
X3462443Y-8956579D01*
X3462443Y-8956579D02*
X3471967Y-8937531D01*
X3471967Y-8937531D02*
X3481491Y-8928008D01*
X3481491Y-8928008D02*
X3500539Y-8918484D01*
X3652920Y-9118484D02*
X3652920Y-8985150D01*
X3652920Y-9004198D02*
X3662443Y-8994674D01*
X3662443Y-8994674D02*
X3681491Y-8985150D01*
X3681491Y-8985150D02*
X3710063Y-8985150D01*
X3710063Y-8985150D02*
X3729110Y-8994674D01*
X3729110Y-8994674D02*
X3738634Y-9013722D01*
X3738634Y-9013722D02*
X3738634Y-9118484D01*
X3738634Y-9013722D02*
X3748158Y-8994674D01*
X3748158Y-8994674D02*
X3767205Y-8985150D01*
X3767205Y-8985150D02*
X3795777Y-8985150D01*
X3795777Y-8985150D02*
X3814824Y-8994674D01*
X3814824Y-8994674D02*
X3824348Y-9013722D01*
X3824348Y-9013722D02*
X3824348Y-9118484D01*
X3919586Y-9118484D02*
X3919586Y-8985150D01*
X3919586Y-9004198D02*
X3929110Y-8994674D01*
X3929110Y-8994674D02*
X3948158Y-8985150D01*
X3948158Y-8985150D02*
X3976729Y-8985150D01*
X3976729Y-8985150D02*
X3995777Y-8994674D01*
X3995777Y-8994674D02*
X4005301Y-9013722D01*
X4005301Y-9013722D02*
X4005301Y-9118484D01*
X4005301Y-9013722D02*
X4014824Y-8994674D01*
X4014824Y-8994674D02*
X4033872Y-8985150D01*
X4033872Y-8985150D02*
X4062443Y-8985150D01*
X4062443Y-8985150D02*
X4081491Y-8994674D01*
X4081491Y-8994674D02*
X4091015Y-9013722D01*
X4091015Y-9013722D02*
X4091015Y-9118484D01*
X4481491Y-8908960D02*
X4310063Y-9166103D01*
X4738634Y-8918484D02*
X4757682Y-8918484D01*
X4757682Y-8918484D02*
X4776729Y-8928008D01*
X4776729Y-8928008D02*
X4786253Y-8937531D01*
X4786253Y-8937531D02*
X4795777Y-8956579D01*
X4795777Y-8956579D02*
X4805301Y-8994674D01*
X4805301Y-8994674D02*
X4805301Y-9042293D01*
X4805301Y-9042293D02*
X4795777Y-9080389D01*
X4795777Y-9080389D02*
X4786253Y-9099436D01*
X4786253Y-9099436D02*
X4776729Y-9108960D01*
X4776729Y-9108960D02*
X4757682Y-9118484D01*
X4757682Y-9118484D02*
X4738634Y-9118484D01*
X4738634Y-9118484D02*
X4719587Y-9108960D01*
X4719587Y-9108960D02*
X4710063Y-9099436D01*
X4710063Y-9099436D02*
X4700539Y-9080389D01*
X4700539Y-9080389D02*
X4691015Y-9042293D01*
X4691015Y-9042293D02*
X4691015Y-8994674D01*
X4691015Y-8994674D02*
X4700539Y-8956579D01*
X4700539Y-8956579D02*
X4710063Y-8937531D01*
X4710063Y-8937531D02*
X4719587Y-8928008D01*
X4719587Y-8928008D02*
X4738634Y-8918484D01*
X4891015Y-9099436D02*
X4900539Y-9108960D01*
X4900539Y-9108960D02*
X4891015Y-9118484D01*
X4891015Y-9118484D02*
X4881491Y-9108960D01*
X4881491Y-9108960D02*
X4891015Y-9099436D01*
X4891015Y-9099436D02*
X4891015Y-9118484D01*
X5091015Y-9118484D02*
X4976729Y-9118484D01*
X5033872Y-9118484D02*
X5033872Y-8918484D01*
X5033872Y-8918484D02*
X5014825Y-8947055D01*
X5014825Y-8947055D02*
X4995777Y-8966103D01*
X4995777Y-8966103D02*
X4976729Y-8975627D01*
X5167206Y-8937531D02*
X5176729Y-8928008D01*
X5176729Y-8928008D02*
X5195777Y-8918484D01*
X5195777Y-8918484D02*
X5243396Y-8918484D01*
X5243396Y-8918484D02*
X5262444Y-8928008D01*
X5262444Y-8928008D02*
X5271968Y-8937531D01*
X5271968Y-8937531D02*
X5281491Y-8956579D01*
X5281491Y-8956579D02*
X5281491Y-8975627D01*
X5281491Y-8975627D02*
X5271968Y-9004198D01*
X5271968Y-9004198D02*
X5157682Y-9118484D01*
X5157682Y-9118484D02*
X5281491Y-9118484D01*
X5452920Y-8918484D02*
X5414825Y-8918484D01*
X5414825Y-8918484D02*
X5395777Y-8928008D01*
X5395777Y-8928008D02*
X5386253Y-8937531D01*
X5386253Y-8937531D02*
X5367206Y-8966103D01*
X5367206Y-8966103D02*
X5357682Y-9004198D01*
X5357682Y-9004198D02*
X5357682Y-9080389D01*
X5357682Y-9080389D02*
X5367206Y-9099436D01*
X5367206Y-9099436D02*
X5376729Y-9108960D01*
X5376729Y-9108960D02*
X5395777Y-9118484D01*
X5395777Y-9118484D02*
X5433872Y-9118484D01*
X5433872Y-9118484D02*
X5452920Y-9108960D01*
X5452920Y-9108960D02*
X5462444Y-9099436D01*
X5462444Y-9099436D02*
X5471968Y-9080389D01*
X5471968Y-9080389D02*
X5471968Y-9032770D01*
X5471968Y-9032770D02*
X5462444Y-9013722D01*
X5462444Y-9013722D02*
X5452920Y-9004198D01*
X5452920Y-9004198D02*
X5433872Y-8994674D01*
X5433872Y-8994674D02*
X5395777Y-8994674D01*
X5395777Y-8994674D02*
X5376729Y-9004198D01*
X5376729Y-9004198D02*
X5367206Y-9013722D01*
X5367206Y-9013722D02*
X5357682Y-9032770D01*
X5595777Y-8918484D02*
X5614825Y-8918484D01*
X5614825Y-8918484D02*
X5633872Y-8928008D01*
X5633872Y-8928008D02*
X5643396Y-8937531D01*
X5643396Y-8937531D02*
X5652920Y-8956579D01*
X5652920Y-8956579D02*
X5662444Y-8994674D01*
X5662444Y-8994674D02*
X5662444Y-9042293D01*
X5662444Y-9042293D02*
X5652920Y-9080389D01*
X5652920Y-9080389D02*
X5643396Y-9099436D01*
X5643396Y-9099436D02*
X5633872Y-9108960D01*
X5633872Y-9108960D02*
X5614825Y-9118484D01*
X5614825Y-9118484D02*
X5595777Y-9118484D01*
X5595777Y-9118484D02*
X5576729Y-9108960D01*
X5576729Y-9108960D02*
X5567206Y-9099436D01*
X5567206Y-9099436D02*
X5557682Y-9080389D01*
X5557682Y-9080389D02*
X5548158Y-9042293D01*
X5548158Y-9042293D02*
X5548158Y-8994674D01*
X5548158Y-8994674D02*
X5557682Y-8956579D01*
X5557682Y-8956579D02*
X5567206Y-8937531D01*
X5567206Y-8937531D02*
X5576729Y-8928008D01*
X5576729Y-8928008D02*
X5595777Y-8918484D01*
X5738634Y-8918484D02*
X5738634Y-8956579D01*
X5814825Y-8918484D02*
X5814825Y-8956579D01*
X6110063Y-9194674D02*
X6100539Y-9185150D01*
X6100539Y-9185150D02*
X6081491Y-9156579D01*
X6081491Y-9156579D02*
X6071968Y-9137531D01*
X6071968Y-9137531D02*
X6062444Y-9108960D01*
X6062444Y-9108960D02*
X6052920Y-9061341D01*
X6052920Y-9061341D02*
X6052920Y-9023246D01*
X6052920Y-9023246D02*
X6062444Y-8975627D01*
X6062444Y-8975627D02*
X6071968Y-8947055D01*
X6071968Y-8947055D02*
X6081491Y-8928008D01*
X6081491Y-8928008D02*
X6100539Y-8899436D01*
X6100539Y-8899436D02*
X6110063Y-8889912D01*
X6176729Y-8937531D02*
X6186253Y-8928008D01*
X6186253Y-8928008D02*
X6205301Y-8918484D01*
X6205301Y-8918484D02*
X6252920Y-8918484D01*
X6252920Y-8918484D02*
X6271968Y-8928008D01*
X6271968Y-8928008D02*
X6281491Y-8937531D01*
X6281491Y-8937531D02*
X6291015Y-8956579D01*
X6291015Y-8956579D02*
X6291015Y-8975627D01*
X6291015Y-8975627D02*
X6281491Y-9004198D01*
X6281491Y-9004198D02*
X6167206Y-9118484D01*
X6167206Y-9118484D02*
X6291015Y-9118484D01*
X6529110Y-9118484D02*
X6529110Y-8918484D01*
X6614825Y-9118484D02*
X6614825Y-9013722D01*
X6614825Y-9013722D02*
X6605301Y-8994674D01*
X6605301Y-8994674D02*
X6586253Y-8985150D01*
X6586253Y-8985150D02*
X6557682Y-8985150D01*
X6557682Y-8985150D02*
X6538634Y-8994674D01*
X6538634Y-8994674D02*
X6529110Y-9004198D01*
X6738634Y-9118484D02*
X6719587Y-9108960D01*
X6719587Y-9108960D02*
X6710063Y-9099436D01*
X6710063Y-9099436D02*
X6700539Y-9080389D01*
X6700539Y-9080389D02*
X6700539Y-9023246D01*
X6700539Y-9023246D02*
X6710063Y-9004198D01*
X6710063Y-9004198D02*
X6719587Y-8994674D01*
X6719587Y-8994674D02*
X6738634Y-8985150D01*
X6738634Y-8985150D02*
X6767206Y-8985150D01*
X6767206Y-8985150D02*
X6786253Y-8994674D01*
X6786253Y-8994674D02*
X6795777Y-9004198D01*
X6795777Y-9004198D02*
X6805301Y-9023246D01*
X6805301Y-9023246D02*
X6805301Y-9080389D01*
X6805301Y-9080389D02*
X6795777Y-9099436D01*
X6795777Y-9099436D02*
X6786253Y-9108960D01*
X6786253Y-9108960D02*
X6767206Y-9118484D01*
X6767206Y-9118484D02*
X6738634Y-9118484D01*
X6919587Y-9118484D02*
X6900539Y-9108960D01*
X6900539Y-9108960D02*
X6891015Y-9089912D01*
X6891015Y-9089912D02*
X6891015Y-8918484D01*
X7071968Y-9108960D02*
X7052920Y-9118484D01*
X7052920Y-9118484D02*
X7014825Y-9118484D01*
X7014825Y-9118484D02*
X6995777Y-9108960D01*
X6995777Y-9108960D02*
X6986253Y-9089912D01*
X6986253Y-9089912D02*
X6986253Y-9013722D01*
X6986253Y-9013722D02*
X6995777Y-8994674D01*
X6995777Y-8994674D02*
X7014825Y-8985150D01*
X7014825Y-8985150D02*
X7052920Y-8985150D01*
X7052920Y-8985150D02*
X7071968Y-8994674D01*
X7071968Y-8994674D02*
X7081491Y-9013722D01*
X7081491Y-9013722D02*
X7081491Y-9032770D01*
X7081491Y-9032770D02*
X6986253Y-9051817D01*
X7157682Y-9108960D02*
X7176730Y-9118484D01*
X7176730Y-9118484D02*
X7214825Y-9118484D01*
X7214825Y-9118484D02*
X7233872Y-9108960D01*
X7233872Y-9108960D02*
X7243396Y-9089912D01*
X7243396Y-9089912D02*
X7243396Y-9080389D01*
X7243396Y-9080389D02*
X7233872Y-9061341D01*
X7233872Y-9061341D02*
X7214825Y-9051817D01*
X7214825Y-9051817D02*
X7186253Y-9051817D01*
X7186253Y-9051817D02*
X7167206Y-9042293D01*
X7167206Y-9042293D02*
X7157682Y-9023246D01*
X7157682Y-9023246D02*
X7157682Y-9013722D01*
X7157682Y-9013722D02*
X7167206Y-8994674D01*
X7167206Y-8994674D02*
X7186253Y-8985150D01*
X7186253Y-8985150D02*
X7214825Y-8985150D01*
X7214825Y-8985150D02*
X7233872Y-8994674D01*
X7310063Y-9194674D02*
X7319587Y-9185150D01*
X7319587Y-9185150D02*
X7338634Y-9156579D01*
X7338634Y-9156579D02*
X7348158Y-9137531D01*
X7348158Y-9137531D02*
X7357682Y-9108960D01*
X7357682Y-9108960D02*
X7367206Y-9061341D01*
X7367206Y-9061341D02*
X7367206Y-9023246D01*
X7367206Y-9023246D02*
X7357682Y-8975627D01*
X7357682Y-8975627D02*
X7348158Y-8947055D01*
X7348158Y-8947055D02*
X7338634Y-8928008D01*
X7338634Y-8928008D02*
X7319587Y-8899436D01*
X7319587Y-8899436D02*
X7310063Y-8889912D01*
X7671968Y-9194674D02*
X7662444Y-9185150D01*
X7662444Y-9185150D02*
X7643396Y-9156579D01*
X7643396Y-9156579D02*
X7633872Y-9137531D01*
X7633872Y-9137531D02*
X7624349Y-9108960D01*
X7624349Y-9108960D02*
X7614825Y-9061341D01*
X7614825Y-9061341D02*
X7614825Y-9023246D01*
X7614825Y-9023246D02*
X7624349Y-8975627D01*
X7624349Y-8975627D02*
X7633872Y-8947055D01*
X7633872Y-8947055D02*
X7643396Y-8928008D01*
X7643396Y-8928008D02*
X7662444Y-8899436D01*
X7662444Y-8899436D02*
X7671968Y-8889912D01*
X7748158Y-8985150D02*
X7748158Y-9118484D01*
X7748158Y-9004198D02*
X7757682Y-8994674D01*
X7757682Y-8994674D02*
X7776730Y-8985150D01*
X7776730Y-8985150D02*
X7805301Y-8985150D01*
X7805301Y-8985150D02*
X7824349Y-8994674D01*
X7824349Y-8994674D02*
X7833872Y-9013722D01*
X7833872Y-9013722D02*
X7833872Y-9118484D01*
X7957682Y-9118484D02*
X7938634Y-9108960D01*
X7938634Y-9108960D02*
X7929111Y-9099436D01*
X7929111Y-9099436D02*
X7919587Y-9080389D01*
X7919587Y-9080389D02*
X7919587Y-9023246D01*
X7919587Y-9023246D02*
X7929111Y-9004198D01*
X7929111Y-9004198D02*
X7938634Y-8994674D01*
X7938634Y-8994674D02*
X7957682Y-8985150D01*
X7957682Y-8985150D02*
X7986253Y-8985150D01*
X7986253Y-8985150D02*
X8005301Y-8994674D01*
X8005301Y-8994674D02*
X8014825Y-9004198D01*
X8014825Y-9004198D02*
X8024349Y-9023246D01*
X8024349Y-9023246D02*
X8024349Y-9080389D01*
X8024349Y-9080389D02*
X8014825Y-9099436D01*
X8014825Y-9099436D02*
X8005301Y-9108960D01*
X8005301Y-9108960D02*
X7986253Y-9118484D01*
X7986253Y-9118484D02*
X7957682Y-9118484D01*
X8081492Y-8985150D02*
X8157682Y-8985150D01*
X8110063Y-8918484D02*
X8110063Y-9089912D01*
X8110063Y-9089912D02*
X8119587Y-9108960D01*
X8119587Y-9108960D02*
X8138634Y-9118484D01*
X8138634Y-9118484D02*
X8157682Y-9118484D01*
X8376730Y-8985150D02*
X8376730Y-9185150D01*
X8376730Y-8994674D02*
X8395777Y-8985150D01*
X8395777Y-8985150D02*
X8433873Y-8985150D01*
X8433873Y-8985150D02*
X8452920Y-8994674D01*
X8452920Y-8994674D02*
X8462444Y-9004198D01*
X8462444Y-9004198D02*
X8471968Y-9023246D01*
X8471968Y-9023246D02*
X8471968Y-9080389D01*
X8471968Y-9080389D02*
X8462444Y-9099436D01*
X8462444Y-9099436D02*
X8452920Y-9108960D01*
X8452920Y-9108960D02*
X8433873Y-9118484D01*
X8433873Y-9118484D02*
X8395777Y-9118484D01*
X8395777Y-9118484D02*
X8376730Y-9108960D01*
X8586254Y-9118484D02*
X8567206Y-9108960D01*
X8567206Y-9108960D02*
X8557682Y-9089912D01*
X8557682Y-9089912D02*
X8557682Y-8918484D01*
X8748158Y-9118484D02*
X8748158Y-9013722D01*
X8748158Y-9013722D02*
X8738635Y-8994674D01*
X8738635Y-8994674D02*
X8719587Y-8985150D01*
X8719587Y-8985150D02*
X8681492Y-8985150D01*
X8681492Y-8985150D02*
X8662444Y-8994674D01*
X8748158Y-9108960D02*
X8729111Y-9118484D01*
X8729111Y-9118484D02*
X8681492Y-9118484D01*
X8681492Y-9118484D02*
X8662444Y-9108960D01*
X8662444Y-9108960D02*
X8652920Y-9089912D01*
X8652920Y-9089912D02*
X8652920Y-9070865D01*
X8652920Y-9070865D02*
X8662444Y-9051817D01*
X8662444Y-9051817D02*
X8681492Y-9042293D01*
X8681492Y-9042293D02*
X8729111Y-9042293D01*
X8729111Y-9042293D02*
X8748158Y-9032770D01*
X8814825Y-8985150D02*
X8891015Y-8985150D01*
X8843396Y-8918484D02*
X8843396Y-9089912D01*
X8843396Y-9089912D02*
X8852920Y-9108960D01*
X8852920Y-9108960D02*
X8871968Y-9118484D01*
X8871968Y-9118484D02*
X8891015Y-9118484D01*
X9033873Y-9108960D02*
X9014825Y-9118484D01*
X9014825Y-9118484D02*
X8976730Y-9118484D01*
X8976730Y-9118484D02*
X8957682Y-9108960D01*
X8957682Y-9108960D02*
X8948158Y-9089912D01*
X8948158Y-9089912D02*
X8948158Y-9013722D01*
X8948158Y-9013722D02*
X8957682Y-8994674D01*
X8957682Y-8994674D02*
X8976730Y-8985150D01*
X8976730Y-8985150D02*
X9014825Y-8985150D01*
X9014825Y-8985150D02*
X9033873Y-8994674D01*
X9033873Y-8994674D02*
X9043396Y-9013722D01*
X9043396Y-9013722D02*
X9043396Y-9032770D01*
X9043396Y-9032770D02*
X8948158Y-9051817D01*
X9214825Y-9118484D02*
X9214825Y-8918484D01*
X9214825Y-9108960D02*
X9195777Y-9118484D01*
X9195777Y-9118484D02*
X9157682Y-9118484D01*
X9157682Y-9118484D02*
X9138635Y-9108960D01*
X9138635Y-9108960D02*
X9129111Y-9099436D01*
X9129111Y-9099436D02*
X9119587Y-9080389D01*
X9119587Y-9080389D02*
X9119587Y-9023246D01*
X9119587Y-9023246D02*
X9129111Y-9004198D01*
X9129111Y-9004198D02*
X9138635Y-8994674D01*
X9138635Y-8994674D02*
X9157682Y-8985150D01*
X9157682Y-8985150D02*
X9195777Y-8985150D01*
X9195777Y-8985150D02*
X9214825Y-8994674D01*
X9291016Y-9194674D02*
X9300539Y-9185150D01*
X9300539Y-9185150D02*
X9319587Y-9156579D01*
X9319587Y-9156579D02*
X9329111Y-9137531D01*
X9329111Y-9137531D02*
X9338635Y-9108960D01*
X9338635Y-9108960D02*
X9348158Y-9061341D01*
X9348158Y-9061341D02*
X9348158Y-9023246D01*
X9348158Y-9023246D02*
X9338635Y-8975627D01*
X9338635Y-8975627D02*
X9329111Y-8947055D01*
X9329111Y-8947055D02*
X9319587Y-8928008D01*
X9319587Y-8928008D02*
X9300539Y-8899436D01*
X9300539Y-8899436D02*
X9291016Y-8889912D01*
M02*
